<svg xmlns="http://www.w3.org/2000/svg" width="16" height="17" viewBox="0 0 16 17" fill="none">
<g clip-path="url(#clip0_804_74469)">
    <path d="M15.621 7.515L13.821 7.064C13.6759 6.47768 13.4429 5.91667 13.13 5.4L14.086 3.807C14.1434 3.71138 14.1673 3.5993 14.1537 3.48859C14.1401 3.37788 14.0899 3.27488 14.011 3.196L13.3 2.489C13.2211 2.41014 13.1181 2.35991 13.0074 2.34632C12.8967 2.33273 12.7846 2.35656 12.689 2.414L11.1 3.37C10.5833 3.05743 10.0223 2.82481 9.436 2.68L8.985 0.879C8.95801 0.770784 8.89561 0.674699 8.80773 0.606025C8.71985 0.537351 8.61153 0.500031 8.5 0.5H7.5C7.38847 0.500031 7.28015 0.537351 7.19227 0.606025C7.10439 0.674699 7.04199 0.770784 7.015 0.879L6.564 2.679C5.97768 2.82415 5.41667 3.05711 4.9 3.37L3.307 2.414C3.21138 2.35656 3.0993 2.33273 2.98859 2.34632C2.87788 2.35991 2.77488 2.41014 2.696 2.489L1.989 3.2C1.91014 3.27888 1.85991 3.38188 1.84632 3.49259C1.83273 3.6033 1.85656 3.71538 1.914 3.811L2.87 5.4C2.55743 5.91671 2.32481 6.47772 2.18 7.064L0.38 7.515C0.271598 7.5418 0.175288 7.60412 0.106419 7.69201C0.0375496 7.77991 8.63129e-05 7.88833 0 8L0 9C3.08115e-05 9.11153 0.0373507 9.21985 0.106025 9.30773C0.174699 9.39561 0.270784 9.45801 0.379 9.485L2.179 9.936C2.32415 10.5223 2.55711 11.0833 2.87 11.6L1.914 13.193C1.85656 13.2886 1.83273 13.4007 1.84632 13.5114C1.85991 13.6221 1.91014 13.7251 1.989 13.804L2.696 14.511C2.77488 14.5899 2.87788 14.6401 2.98859 14.6537C3.0993 14.6673 3.21138 14.6434 3.307 14.586L4.9 13.63C5.41671 13.9426 5.97772 14.1752 6.564 14.32L7.015 16.12C7.0418 16.2284 7.10412 16.3247 7.19201 16.3936C7.27991 16.4625 7.38833 16.4999 7.5 16.5H8.5C8.61153 16.5 8.71985 16.4626 8.80773 16.394C8.89561 16.3253 8.95801 16.2292 8.985 16.121L9.436 14.321C10.0223 14.1762 10.5833 13.9436 11.1 13.631L12.693 14.587C12.7886 14.6444 12.9007 14.6683 13.0114 14.6547C13.1221 14.6411 13.2251 14.5909 13.304 14.512L14.011 13.805C14.0899 13.7261 14.1401 13.6231 14.1537 13.5124C14.1673 13.4017 14.1434 13.2896 14.086 13.194L13.13 11.6C13.4426 11.0833 13.6752 10.5223 13.82 9.936L15.62 9.485C15.7284 9.4582 15.8247 9.39588 15.8936 9.30799C15.9625 9.22009 15.9999 9.11166 16 9V8C16 7.88847 15.9626 7.78015 15.894 7.69227C15.8253 7.60439 15.7292 7.54199 15.621 7.515ZM8 11.5C7.40666 11.5 6.82664 11.3241 6.33329 10.9944C5.83994 10.6648 5.45542 10.1962 5.22836 9.64805C5.0013 9.09987 4.94189 8.49667 5.05764 7.91473C5.1734 7.33279 5.45912 6.79824 5.87868 6.37868C6.29824 5.95912 6.83279 5.6734 7.41473 5.55764C7.99667 5.44189 8.59987 5.5013 9.14805 5.72836C9.69623 5.95542 10.1648 6.33994 10.4944 6.83329C10.8241 7.32664 11 7.90666 11 8.5C11 9.29565 10.6839 10.0587 10.1213 10.6213C9.55871 11.1839 8.79565 11.5 8 11.5Z" fill="#23272C"/>
</g>
    <defs>
        <clipPath id="clip0_804_74469">
            <rect width="16" height="16" fill="white" transform="translate(0 0.5)"/>
        </clipPath>
    </defs>
</svg>
