<svg width="16" height="16" viewBox="0 0 16 16" fill="none" xmlns="http://www.w3.org/2000/svg">
<g clip-path="url(#clip0_1929_14897)">
<path d="M6 7L10 5M6 9L10 11M15.25 3.25C15.25 4.63071 14.1307 5.75 12.75 5.75C11.3693 5.75 10.25 4.63071 10.25 3.25C10.25 1.86929 11.3693 0.75 12.75 0.75C14.1307 0.75 15.25 1.86929 15.25 3.25ZM15.25 12.75C15.25 14.1307 14.1307 15.25 12.75 15.25C11.3693 15.25 10.25 14.1307 10.25 12.75C10.25 11.3693 11.3693 10.25 12.75 10.25C14.1307 10.25 15.25 11.3693 15.25 12.75ZM5.75 8C5.75 9.38071 4.63071 10.5 3.25 10.5C1.86929 10.5 0.75 9.38071 0.75 8C0.75 6.61929 1.86929 5.5 3.25 5.5C4.63071 5.5 5.75 6.61929 5.75 8Z" stroke="#23272C" stroke-width="1.5" stroke-miterlimit="10" stroke-linecap="round" stroke-linejoin="round"/>
</g>
<defs>
<clipPath id="clip0_1929_14897">
<rect width="16" height="16" fill="white"/>
</clipPath>
</defs>
</svg>
