<svg width="16" height="17" viewBox="0 0 16 17" fill="none" xmlns="http://www.w3.org/2000/svg">
<path d="M0.75 2V1.25H0V2H0.75ZM15.25 2H16V1.25H15.25V2ZM15.25 15V15.75H16V15H15.25ZM0.75 15H0V15.75H0.75V15ZM9.25 2C9.25 1.58579 8.91421 1.25 8.5 1.25C8.08579 1.25 7.75 1.58579 7.75 2H9.25ZM7.75 15C7.75 15.4142 8.08579 15.75 8.5 15.75C8.91421 15.75 9.25 15.4142 9.25 15H7.75ZM3.5 4.75H2.75V6.25H3.5V4.75ZM5.75 6.25H6.5V4.75H5.75V6.25ZM3.5 7.75H2.75V9.25H3.5V7.75ZM5.75 9.25H6.5V7.75H5.75V9.25ZM3.5 10.75H2.75V12.25H3.5V10.75ZM5.75 12.25H6.5V10.75H5.75V12.25ZM0.75 2.75H15.25V1.25H0.75V2.75ZM15.25 14.25H0.75V15.75H15.25V14.25ZM1.5 15V2H0V15H1.5ZM7.75 2V15H9.25V2H7.75ZM3.5 6.25H5.75V4.75H3.5V6.25ZM3.5 9.25H5.75V7.75H3.5V9.25ZM3.5 12.25H5.75V10.75H3.5V12.25ZM14.5 2V15H16V2H14.5Z" fill="#AE77CE"/>
</svg>
