<svg width="70" height="81" viewBox="0 0 70 81" fill="none" xmlns="http://www.w3.org/2000/svg">
<g clip-path="url(#clip0_903_38011)">
<path d="M70 60.6214V20.2062L35.0014 0L0 20.2062V60.6214L35.0014 80.8304L70 60.6214Z" fill="#944CBE"/>
<path d="M35.0012 10.5303L9.11719 25.4712V56.1833L13.0188 58.4159V27.723L35.0012 15.034L56.9808 27.723V53.1066L35.0012 65.7956L28.9715 62.3175V57.1924L35.0012 60.7392L43.9178 55.6389L52.9033 50.544L52.9665 30.2416L35.0094 19.7879L17.132 30.6403L17.0935 40.1756V60.6183L20.9951 62.7684V40.5908L21.0254 32.8399L35.0507 24.3246L49.0594 32.4797L49.01 48.2674L42.0042 52.2405L35.0012 56.2273L28.9715 52.6612V37.1154L35.0039 33.6125L40.9181 37.0219L40.8521 43.7802L34.0553 47.6983L31.1876 49.2435L35.0012 51.6768L35.9992 51.0802L44.7317 46.0486L44.8389 34.781L34.9984 29.106L25.0726 34.869V64.5693L35.0012 70.2993L60.8824 55.3584V25.4712L35.0012 10.5303Z" fill="white"/>
</g>
<defs>
<clipPath id="clip0_903_38011">
<rect width="70" height="80.8304" fill="white"/>
</clipPath>
</defs>
</svg>
