<svg width="70" height="81" viewBox="0 0 70 81" fill="none" xmlns="http://www.w3.org/2000/svg">
<g clip-path="url(#clip0_903_38039)">
<path d="M70 60.6214V20.2062L35.0014 0L0 20.2062V60.6214L35.0014 80.8304L70 60.6214Z" fill="#B7236D"/>
<path d="M34.9986 51.7949L24.9766 46.3344V33.9506L34.9986 28.0693L44.4624 33.5601V38.1188L34.9986 32.6363L28.9139 36.2052V43.9973L35.0013 47.3132L44.4624 42.1854V46.6533L34.9986 51.7949Z" fill="white"/>
<path d="M35.0015 70.5855L8.87012 55.4989V25.3284L34.6744 10.0576L35.9859 10.811L61.1302 25.3284V37.6545H48.6584V32.1445L35.0015 24.0004L20.8608 32.1418V48.5756L34.9878 56.475L48.6584 48.6444V43.1178H61.1302V55.5017L35.0015 70.5883V70.5855ZM12.8074 53.2278L35.0015 66.0406L57.1929 53.2278V47.0579H52.5957V50.9265L35.0098 61.0007L16.9235 50.8852V29.8624L34.996 19.4582L52.5957 29.8596V33.7172H57.1929V27.6023L35.0015 14.7895L12.8074 27.6023V53.2278Z" fill="white"/>
</g>
<defs>
<clipPath id="clip0_903_38039">
<rect width="70" height="80.8304" fill="white"/>
</clipPath>
</defs>
</svg>
