<svg width="70" height="81" viewBox="0 0 70 81" fill="none" xmlns="http://www.w3.org/2000/svg">
<g clip-path="url(#clip0_903_38050)">
<g clip-path="url(#clip1_903_38050)">
<path d="M70 60.7073V20.2922L35.0014 0.0859375L0 20.2922V60.7073L35.0014 80.9163L70 60.7073Z" fill="#127025"/>
<path d="M42.8731 17.4189L42.6943 17.5234" stroke="black" stroke-width="3.84933" stroke-miterlimit="10"/>
</g>
<path d="M35.0012 70.2998L9.11719 55.3589V24.6468L13.0188 22.4142V53.1071L35.0012 65.7961L56.9808 53.1071V27.7235L35.0012 15.0345L28.9715 18.5126V23.6377L35.0012 20.0908L43.9178 25.1912L52.9033 30.2861L52.9665 50.5885L35.0094 61.0422L17.132 50.1898L17.0935 40.6545V20.2118L20.9951 18.0617V40.2393L21.0254 47.9902L35.0507 56.5055L49.0594 48.3504L49.01 32.5627L42.0042 28.5896L35.0012 24.6028L28.9715 28.1689V43.7147L35.0039 47.2176L40.9181 43.8082L40.8521 37.0499L34.0553 33.1318L31.1876 31.5866L35.0012 29.1533L35.9992 29.7499L44.7317 34.7815L44.8389 46.049L34.9984 51.7241L25.0726 45.9611V16.2608L35.0012 10.5308L60.8824 25.4716V55.3589L35.0012 70.2998Z" fill="white"/>
</g>
<defs>
<clipPath id="clip0_903_38050">
<rect width="70" height="81" fill="white"/>
</clipPath>
<clipPath id="clip1_903_38050">
<rect width="70" height="80.8304" fill="white" transform="translate(0 0.0859375)"/>
</clipPath>
</defs>
</svg>
