<svg xmlns="http://www.w3.org/2000/svg" width="75" height="75" viewBox="0 0 75 75" fill="none">
<g clip-path="url(#clip0_903_38241)">
<path d="M69.8434 56.2487V18.7487L37.3693 0L4.89258 18.7487V56.2487L37.3693 75L69.8434 56.2487Z" fill="#944CBE"/>
<path d="M37.0619 9.78223L13.0449 23.6454V52.1422L16.6651 54.2138V25.7348L37.0619 13.9611L57.4561 25.7348V49.2875L37.0619 61.0612L31.4671 57.834V53.0785L37.0619 56.3696L45.3354 51.6371L53.6727 46.9098L53.7314 28.0717L37.0695 18.3721L20.4817 28.4417L20.4459 37.2892V56.2573L24.0661 58.2524V37.6744L24.0941 30.4826L37.1078 22.5816L50.1061 30.1484L50.0602 44.7974L43.5598 48.4838L37.0619 52.1831L31.4671 48.8742V34.4497L37.0644 31.1995L42.552 34.363L42.4908 40.6338L36.1842 44.2693L33.5234 45.703L37.0619 47.9608L37.9879 47.4072L46.0905 42.7385L46.19 32.2838L37.0593 27.0181L27.8495 32.3654V59.9234L37.0619 65.2401L61.0762 51.3769V23.6454L37.0619 9.78223Z" fill="white"/>
</g>
<defs>
<clipPath id="clip0_903_38241">
<rect width="75" height="75" fill="white"/>
</clipPath>
</defs>
</svg>
