<svg width="70" height="81" viewBox="0 0 70 81" fill="none" xmlns="http://www.w3.org/2000/svg">
<g clip-path="url(#clip0_903_38023)">
<g clip-path="url(#clip1_903_38023)">
<path d="M70 60.6214V20.2062L35.0014 0L0 20.2062V60.6214L35.0014 80.8304L70 60.6214Z" fill="#00759C"/>
</g>
<path d="M52.0935 20.1095L35.9869 10.8106L34.7386 10.0957L33.8312 10.9206L20.8617 18.4075L8.87109 25.3308V55.5013L20.8617 62.4245V24.341L35.0025 32.6363L49.1405 24.341V62.4245L61.1312 55.5013V25.3308L52.0935 20.1122V20.1095ZM16.9244 55.603L12.8084 53.2274V27.6019L16.9244 25.2263V55.603ZM35.0025 28.0693L34.9283 28.0253L23.592 21.3742L35.0025 14.7891L46.4103 21.3742L35.0025 28.0666V28.0693ZM57.1939 53.2274L53.0779 55.603V25.2263L57.1939 27.6019V53.2274Z" fill="white"/>
<path d="M24.9805 32.3555V64.7998L35.0052 70.5848L45.0272 64.7998V32.3555L35.0025 38.1432L24.9805 32.3555ZM41.0871 39.1743V62.5259L35.0025 66.0398L28.9123 62.5259V39.1743L34.0154 42.119L34.4746 42.383H35.5304L41.0871 39.1743Z" fill="white"/>
</g>
<defs>
<clipPath id="clip0_903_38023">
<rect width="70" height="81" fill="white"/>
</clipPath>
<clipPath id="clip1_903_38023">
<rect width="70" height="80.8304" fill="white"/>
</clipPath>
</defs>
</svg>
