<svg width="16" height="16" viewBox="0 0 16 16" version="1.2" xmlns="http://www.w3.org/2000/svg">
  <path d="m 3.9999959,10.890233 c 0.5696953,0 1.1242411,0.06364 1.6636371,0.190878 0.5393965,0.127233 1.075764,0.318112 1.6091025,0.57258 V 4.4917307 C 6.7757435,4.2008878 6.2484625,3.982757 5.690893,3.8373381 5.1333235,3.6919141 4.5696912,3.6192072 3.9999959,3.6192072 c -0.4363632,0 -0.8696976,0.042415 -1.2999979,0.1272396 -0.4303055,0.08483 -0.8454563,0.2120745 -1.2454526,0.381729 v 7.1983192 c 0.4242426,-0.145403 0.8454513,-0.254469 1.2636361,-0.327196 0.4181797,-0.07273 0.8454512,-0.109066 1.2818144,-0.109066 z m 4.7272666,0.763458 c 0.5333385,-0.254468 1.069706,-0.445346 1.6091025,-0.57258 0.539396,-0.127235 1.093937,-0.190878 1.663622,-0.190878 0.436363,0 0.86364,0.03634 1.28183,0.109066 0.418189,0.07273 0.839357,0.181793 1.263605,0.327196 V 4.1281758 C 14.145457,3.9585213 13.730295,3.8312767 13.29999,3.7464468 12.869684,3.6616222 12.43635,3.6192072 11.999987,3.6192072 c -0.569685,0 -1.133312,0.072707 -1.690882,0.2181309 C 9.751484,3.982757 9.2242545,4.2008878 8.7272625,4.4917307 Z m -0.727289,2.144971 C 7.418173,13.338175 6.787859,12.980646 6.109083,12.726177 5.4303075,12.471708 4.7272696,12.344422 3.9999959,12.344422 c -0.6424242,0 -1.3151474,0.121229 -2.0181799,0.363586 C 1.2787886,12.950364 0.6181809,13.326011 0,13.835 V 3.2920109 C 0.53333135,2.9284561 1.160606,2.6497361 1.8818169,2.4558408 2.6030278,2.2619471 3.3090892,2.165 3.9999959,2.165 4.7030232,2.165 5.3908805,2.2558877 6.06365,2.4376616 6.736368,2.619439 7.3818265,2.8921026 7.9999735,3.2556523 8.6181715,2.8921026 9.26363,2.619439 9.936348,2.4376616 10.609066,2.2558877 11.29698,2.165 11.999987,2.165 c 0.690891,0 1.396978,0.096947 2.118158,0.2908408 C 14.839377,2.6497361 15.466662,2.9284561 16,3.2920109 V 13.835 c -0.606083,-0.508989 -1.263656,-0.884636 -1.972721,-1.126992 -0.709116,-0.242356 -1.384863,-0.363586 -2.027292,-0.363586 -0.727289,0 -1.430296,0.127286 -2.109072,0.381755 -0.6788275,0.254469 -1.30909,0.611998 -1.8909415,1.072485 z M 9.4545515,6.4549085 V 5.2188305 C 9.854517,5.0491755 10.263621,4.921931 10.681811,4.8371012 c 0.41819,-0.084825 0.857582,-0.1272396 1.318176,-0.1272396 0.315157,0 0.624256,0.024235 0.927297,0.072707 0.30299,0.048476 0.599974,0.1090654 0.8909,0.1817775 V 6.1277125 C 13.527258,6.018647 13.233303,5.936845 12.936371,5.8823125 12.639387,5.82778 12.327259,5.800516 11.999987,5.800516 c -0.460594,0 -0.903015,0.057561 -1.327263,0.172688 -0.424248,0.1151215 -0.8303225,0.2756915 -1.2181725,0.4817045 z m 0,3.9990635 V 9.217914 C 9.854517,9.048233 10.263621,8.920999 10.681811,8.836158 c 0.41819,-0.08484 0.857582,-0.127234 1.318176,-0.127234 0.315157,0 0.624256,0.02422 0.927297,0.07273 0.30299,0.04845 0.599974,0.109066 0.8909,0.181741 v 1.163381 C 13.527258,10.017711 13.233303,9.9359 12.936371,9.881392 c -0.296984,-0.05456 -0.609112,-0.08181 -0.936384,-0.08181 -0.460594,0 -0.903015,0.05456 -1.327263,0.163623 -0.424248,0.109066 -0.8303225,0.272638 -1.2181725,0.49077 z m 0,-1.999517 V 7.218346 C 9.854517,7.048717 10.263621,6.9214675 10.681811,6.8366375 c 0.41819,-0.08483 0.857582,-0.1272445 1.318176,-0.1272445 0.315157,0 0.624256,0.024235 0.927297,0.072712 0.30299,0.04847 0.599974,0.1090655 0.8909,0.181772 V 8.127259 C 13.527258,8.018193 13.233303,7.936382 12.936371,7.881823 12.639387,7.827316 12.327259,7.800063 11.999987,7.800063 c -0.460594,0 -0.903015,0.057535 -1.327263,0.172657 -0.424248,0.115121 -0.8303225,0.275718 -1.2181725,0.481735 z" />
</svg>
