<svg width="32" height="24" viewBox="0 0 32 24" xmlns="http://www.w3.org/2000/svg">
<path d="M8.20817 17.6665C9.31789 17.6665 10.3981 17.7905 11.4488 18.0384C12.4995 18.2863 13.5443 18.6582 14.5832 19.154V5.19984C13.6151 4.63317 12.588 4.20817 11.5019 3.92484C10.4158 3.6415 9.31789 3.49984 8.20817 3.49984C7.35817 3.49984 6.51407 3.58248 5.67588 3.74775C4.83768 3.91303 4.029 4.16095 3.24984 4.4915V18.5165C4.07623 18.2332 4.89671 18.0207 5.7113 17.879C6.52588 17.7373 7.35817 17.6665 8.20817 17.6665ZM17.4165 19.154C18.4554 18.6582 19.5002 18.2863 20.5509 18.0384C21.6016 17.7905 22.6818 17.6665 23.7915 17.6665C24.6415 17.6665 25.4738 17.7373 26.2884 17.879C27.103 18.0207 27.9234 18.2332 28.7498 18.5165V4.4915C27.9707 4.16095 27.162 3.91303 26.3238 3.74775C25.4856 3.58248 24.6415 3.49984 23.7915 3.49984C22.6818 3.49984 21.5839 3.6415 20.4978 3.92484C19.4116 4.20817 18.3846 4.63317 17.4165 5.19984V19.154ZM15.9998 23.3332C14.8665 22.436 13.6387 21.7394 12.3165 21.2436C10.9943 20.7478 9.62484 20.4998 8.20817 20.4998C6.95678 20.4998 5.64637 20.736 4.27692 21.2082C2.90748 21.6804 1.62067 22.4123 0.416504 23.404V2.86234C1.45539 2.154 2.67727 1.61095 4.08213 1.23317C5.48699 0.855393 6.86234 0.666504 8.20817 0.666504C9.57761 0.666504 10.9175 0.843587 12.228 1.19775C13.5384 1.55192 14.7957 2.08317 15.9998 2.7915C17.204 2.08317 18.4613 1.55192 19.7717 1.19775C21.0821 0.843587 22.4221 0.666504 23.7915 0.666504C25.1373 0.666504 26.5127 0.855393 27.9175 1.23317C29.3224 1.61095 30.5443 2.154 31.5832 2.86234V23.404C30.4026 22.4123 29.1217 21.6804 27.7405 21.2082C26.3592 20.736 25.0429 20.4998 23.7915 20.4998C22.3748 20.4998 21.0054 20.7478 19.6832 21.2436C18.3609 21.7394 17.1332 22.436 15.9998 23.3332ZM18.8332 9.02484V6.6165C19.6123 6.28595 20.4092 6.03803 21.2238 5.87275C22.0384 5.70748 22.8943 5.62484 23.7915 5.62484C24.4054 5.62484 25.0075 5.67206 25.5978 5.7665C26.188 5.86095 26.7665 5.979 27.3332 6.12067V8.38734C26.7665 8.17484 26.1939 8.01546 25.6155 7.90921C25.037 7.80296 24.429 7.74984 23.7915 7.74984C22.8943 7.74984 22.0325 7.86199 21.2061 8.0863C20.3797 8.3106 19.5887 8.62345 18.8332 9.02484ZM18.8332 16.8165V14.4082C19.6123 14.0776 20.4092 13.8297 21.2238 13.6644C22.0384 13.4991 22.8943 13.4165 23.7915 13.4165C24.4054 13.4165 25.0075 13.4637 25.5978 13.5582C26.188 13.6526 26.7665 13.7707 27.3332 13.9123V16.179C26.7665 15.9665 26.1939 15.8071 25.6155 15.7009C25.037 15.5946 24.429 15.5415 23.7915 15.5415C22.8943 15.5415 22.0325 15.6478 21.2061 15.8603C20.3797 16.0728 19.5887 16.3915 18.8332 16.8165ZM18.8332 12.9207V10.5123C19.6123 10.1818 20.4092 9.93387 21.2238 9.76859C22.0384 9.60331 22.8943 9.52067 23.7915 9.52067C24.4054 9.52067 25.0075 9.56789 25.5978 9.66234C26.188 9.75678 26.7665 9.87484 27.3332 10.0165V12.2832C26.7665 12.0707 26.1939 11.9113 25.6155 11.805C25.037 11.6988 24.429 11.6457 23.7915 11.6457C22.8943 11.6457 22.0325 11.7578 21.2061 11.9821C20.3797 12.2064 19.5887 12.5193 18.8332 12.9207Z"/>
</svg>
