<svg width="26" height="35" viewBox="0 0 26 35" fill="none" xmlns="http://www.w3.org/2000/svg">
<path d="M13 34.667C12.0553 34.667 11.2567 34.3407 10.604 33.688C9.95133 33.0347 9.625 32.236 9.625 31.292H16.375C16.375 32.236 16.0487 33.0347 15.396 33.688C14.7433 34.3407 13.9447 34.667 13 34.667ZM6.292 29.042V26.25H19.708V29.042H6.292ZM6.542 24C4.68067 22.8333 3.20833 21.3333 2.125 19.5C1.04167 17.6667 0.5 15.625 0.5 13.375C0.5 9.95833 1.72933 7.02067 4.188 4.562C6.646 2.104 9.58333 0.875 13 0.875C16.4167 0.875 19.354 2.104 21.812 4.562C24.2707 7.02067 25.5 9.95833 25.5 13.375C25.5 15.625 24.9583 17.6667 23.875 19.5C22.7917 21.3333 21.3193 22.8333 19.458 24H6.542Z" fill="black"/>
</svg>
