<svg width="20" height="20" viewBox="0 0 20 20" version="1.1" xmlns="http://www.w3.org/2000/svg">
  <path d="m 10,15 c 0.2833,0 0.521,-0.096 0.713,-0.288 C 10.9043,14.5207 11,14.2833 11,14 11,13.7167 10.9043,13.479 10.713,13.287 10.521,13.0957 10.2833,13 10,13 9.7167,13 9.4793,13.0957 9.288,13.287 9.096,13.479 9,13.7167 9,14 9,14.2833 9.096,14.5207 9.288,14.712 9.4793,14.904 9.7167,15 10,15 Z M 9,11 h 2 V 5 H 9 Z m 1,9 C 8.6167,20 7.31667,19.7373 6.1,19.212 4.88333,18.6873 3.825,17.975 2.925,17.075 2.025,16.175 1.31267,15.1167 0.788,13.9 0.26267,12.6833 0,11.3833 0,10 0,8.6167 0.26267,7.31667 0.788,6.1 1.31267,4.88333 2.025,3.825 2.925,2.925 3.825,2.025 4.88333,1.31233 6.1,0.787 7.31667,0.26233 8.6167,0 10,0 c 1.3833,0 2.6833,0.26233 3.9,0.787 1.2167,0.52533 2.275,1.238 3.175,2.138 0.9,0.9 1.6123,1.95833 2.137,3.175 C 19.7373,7.31667 20,8.6167 20,10 c 0,1.3833 -0.2627,2.6833 -0.788,3.9 -0.5247,1.2167 -1.237,2.275 -2.137,3.175 -0.9,0.9 -1.9583,1.6123 -3.175,2.137 C 12.6833,19.7373 11.3833,20 10,20 Z m 0,-2 c 2.2333,0 4.125,-0.775 5.675,-2.325 C 17.225,14.125 18,12.2333 18,10 18,7.76667 17.225,5.875 15.675,4.325 14.125,2.775 12.2333,2 10,2 7.76667,2 5.875,2.775 4.325,4.325 2.775,5.875 2,7.76667 2,10 2,12.2333 2.775,14.125 4.325,15.675 5.875,17.225 7.76667,18 10,18 Z" fill="#A90212"/>
</svg>
