<svg width="16" height="16" viewBox="0 0 16 16" version="1.2" xmlns="http://www.w3.org/2000/svg">
  <path d="M 8,12 C 8.22664,12 8.4168,11.9232 8.5704,11.7696 8.72344,11.61656 8.8,11.42664 8.8,11.2 8.8,10.97336 8.72344,10.7832 8.5704,10.6296 8.4168,10.47656 8.22664,10.4 8,10.4 7.77336,10.4 7.58344,10.47656 7.4304,10.6296 7.2768,10.7832 7.2,10.97336 7.2,11.2 c 0,0.22664 0.0768,0.41656 0.2304,0.5696 C 7.58344,11.9232 7.77336,12 8,12 Z M 7.2,8.8 H 8.8 V 4 H 7.2 Z M 8,16 C 6.89336,16 5.853336,15.78984 4.88,15.3696 3.906664,14.94984 3.06,14.38 2.34,13.66 1.62,12.94 1.050136,12.09336 0.6304,11.12 0.210136,10.14664 0,9.10664 0,8 0,6.89336 0.210136,5.853336 0.6304,4.88 1.050136,3.906664 1.62,3.06 2.34,2.34 3.06,1.62 3.906664,1.049864 4.88,0.6296 5.853336,0.209864 6.89336,0 8,0 9.10664,0 10.14664,0.209864 11.12,0.6296 12.09336,1.049864 12.94,1.62 13.66,2.34 14.38,3.06 14.94984,3.906664 15.3696,4.88 15.78984,5.853336 16,6.89336 16,8 c 0,1.10664 -0.21016,2.14664 -0.6304,3.12 -0.41976,0.97336 -0.9896,1.82 -1.7096,2.54 -0.72,0.72 -1.56664,1.28984 -2.54,1.7096 C 10.14664,15.78984 9.10664,16 8,16 Z m 0,-1.6 c 1.78664,0 3.3,-0.62 4.54,-1.86 C 13.78,11.3 14.4,9.78664 14.4,8 14.4,6.213336 13.78,4.7 12.54,3.46 11.3,2.22 9.78664,1.6 8,1.6 6.213336,1.6 4.7,2.22 3.46,3.46 2.22,4.7 1.6,6.213336 1.6,8 1.6,9.78664 2.22,11.3 3.46,12.54 4.7,13.78 6.213336,14.4 8,14.4 Z" fill="#a90212" />
</svg>
