<svg width="30" height="34" viewBox="0 0 30 34" fill="none" xmlns="http://www.w3.org/2000/svg">
<path d="M19.625 27.542C18.4863 27.542 17.521 27.146 16.729 26.354C15.9377 25.5627 15.542 24.5973 15.542 23.458C15.542 22.3193 15.9377 21.354 16.729 20.562C17.521 19.7707 18.4863 19.375 19.625 19.375C20.7917 19.375 21.764 19.7707 22.542 20.562C23.3193 21.354 23.708 22.3193 23.708 23.458C23.708 24.6247 23.3123 25.597 22.521 26.375C21.729 27.153 20.7637 27.542 19.625 27.542ZM0 33.667V3.12501H5.125V0.333008H8.042V3.12501H21.958V0.333008H24.875V3.12501H30V33.667H0ZM2.792 30.875H27.208V13.375H2.792V30.875Z" fill="black"/>
</svg>
