<svg width="16" height="16" viewBox="0 0 16 16" xmlns="http://www.w3.org/2000/svg">
  <path d="m 10.3125,13.060058 c -0.56935,0 -1.052,-0.190076 -1.448,-0.570229 C 8.46885,12.110013 8.271,11.64663 8.271,11.099777 c 0,-0.546565 0.19785,-1.0099 0.5935,-1.390053 0.396,-0.3798162 0.87865,-0.5697484 1.448,-0.5697484 0.58335,0 1.0695,0.1899322 1.4585,0.5697484 0.38865,0.380153 0.583,0.843488 0.583,1.390053 0,0.560005 -0.19785,1.0267 -0.5935,1.400132 -0.396,0.373433 -0.87865,0.560149 -1.448,0.560149 z M 0.5,16 V 1.3401345 H 3.0625 V 0 H 4.521 v 1.3401345 h 6.958 V 0 h 1.4585 V 1.3401345 H 15.5 V 16 Z M 1.896,14.659866 H 14.104 V 6.2600325 H 1.896 Z"/>
</svg>
