<svg width="20" height="20" viewBox="0 0 20 20" version="1.1" xmlns="http://www.w3.org/2000/svg">
  <path d="M 10,20 Q 7.925,20 6.1,19.2125 4.275,18.425 2.925,17.075 1.575,15.725 0.7875,13.9 0,12.075 0,10 0,7.925 0.7875,6.1 1.575,4.275 2.925,2.925 4.275,1.575 6.1,0.7875 7.925,0 10,0 12.075,0 13.9,0.7875 15.725,1.575 17.075,2.925 18.425,4.275 19.2125,6.1 20,7.925 20,10 q 0,2.075 -0.7875,3.9 -0.7875,1.825 -2.1375,3.175 -1.35,1.35 -3.175,2.1375 Q 12.075,20 10,20 Z m 0,-2 q 3.35,0 5.675,-2.325 Q 18,13.35 18,10 18,9.825 17.9875,9.6375 17.975,9.45 17.975,9.325 17.85,10.05 17.3,10.525 16.75,11 16,11 H 14 Q 13.175,11 12.5875,10.4125 12,9.825 12,9 V 8 H 8 V 6 Q 8,5.175 8.5875,4.5875 9.175,4 10,4 h 1 Q 11,3.425 11.3125,2.9875 11.625,2.55 12.075,2.275 11.575,2.15 11.0625,2.075 10.55,2 10,2 6.65,2 4.325,4.325 2,6.65 2,10 H 7 Q 8.65,10 9.825,11.175 11,12.35 11,14 v 1 H 8 v 2.75 Q 8.5,17.875 8.9875,17.9375 9.475,18 10,18 Z"/>
</svg>
