<svg width="16" height="16" viewBox="0 0 16 16" version="1.2" xmlns="http://www.w3.org/2000/svg">
  <path d="M 8,16 Q 6.34,16 4.88,15.37 3.42,14.74 2.34,13.66 1.26,12.58 0.63,11.12 0,9.66 0,8 0,6.34 0.63,4.88 1.26,3.42 2.34,2.34 3.42,1.26 4.88,0.63 6.34,0 8,0 q 1.66,0 3.12,0.63 1.46,0.63 2.54,1.71 1.08,1.08 1.71,2.54 Q 16,6.34 16,8 q 0,1.66 -0.63,3.12 -0.63,1.46 -1.71,2.54 -1.08,1.08 -2.54,1.71 Q 9.66,16 8,16 Z m 0,-1.6 q 2.68,0 4.54,-1.86 Q 14.4,10.68 14.4,8 14.4,7.86 14.39,7.71 14.38,7.56 14.38,7.46 14.28,8.04 13.84,8.42 13.4,8.8 12.8,8.8 H 11.2 Q 10.54,8.8 10.07,8.33 9.6,7.86 9.6,7.2 V 6.4 H 6.4 V 4.8 Q 6.4,4.14 6.87,3.67 7.34,3.2 8,3.2 H 8.8 Q 8.8,2.74 9.05,2.39 9.3,2.04 9.66,1.82 9.26,1.72 8.85,1.66 8.44,1.6 8,1.6 5.32,1.6 3.46,3.46 1.6,5.32 1.6,8 h 4 Q 6.92,8 7.86,8.94 8.8,9.88 8.8,11.2 V 12 H 6.4 v 2.2 Q 6.8,14.3 7.19,14.35 7.58,14.4 8,14.4 Z" />
</svg>
