<svg width="16" height="16" viewBox="0 0 16 16" version="1.2" xmlns="http://www.w3.org/2000/svg">
  <path d="M 0,13.818182 V 11.781818 Q 0,11.163636 0.31854546,10.645091 0.63636364,10.127273 1.1636364,9.8545452 2.2909091,9.2909092 3.4545455,9.0087273 4.6181818,8.7272728 5.8181818,8.7272728 q 1.2,0 2.3636364,0.2814545 Q 9.3454546,9.2909092 10.472727,9.8545452 11,10.127273 11.317818,10.645091 q 0.318546,0.518545 0.318546,1.136727 v 2.036364 z m 13.090909,0 v -2.181818 q 0,-0.800001 -0.445091,-1.536728 -0.445818,-0.7359998 -1.264,-1.2632723 0.927273,0.1090909 1.745455,0.3723635 0.818182,0.264 1.527273,0.645818 0.654545,0.3636368 1,0.8087278 Q 16,11.109091 16,11.636364 v 2.181818 z M 5.8181818,8.0000001 q -1.2,0 -2.0545454,-0.8545455 -0.8545455,-0.8545455 -0.8545455,-2.0545455 0,-1.2 0.8545455,-2.0545454 0.8545454,-0.8545455 2.0545454,-0.8545455 1.2,0 2.0545455,0.8545455 0.8545455,0.8545454 0.8545455,2.0545454 0,1.2 -0.8545455,2.0545455 -0.8545455,0.8545455 -2.0545455,0.8545455 z m 7.2727272,-2.909091 q 0,1.2 -0.854545,2.0545455 -0.854546,0.8545455 -2.054546,0.8545455 -0.1999998,0 -0.5090907,-0.045091 Q 9.3636364,7.909091 9.1636364,7.8545455 9.6545455,7.2727273 9.9178182,6.5636364 10.181818,5.8545455 10.181818,5.0909091 q 0,-0.7636363 -0.2639998,-1.4727272 -0.2632727,-0.709091 -0.7541818,-1.2909091 0.2545455,-0.090909 0.5090909,-0.1185455 0.2545455,-0.026909 0.5090907,-0.026909 1.2,0 2.054546,0.8545455 0.854545,0.8545454 0.854545,2.0545454 z M 1.4545455,12.363636 h 8.7272725 v -0.581818 q 0,-0.2 -0.09964,-0.363636 -0.1003598,-0.163637 -0.2639961,-0.254546 -0.9818182,-0.490909 -1.9818182,-0.736727 -1,-0.245091 -2.0181819,-0.245091 Q 4.8,10.181818 3.8,10.426909 q -1,0.245818 -1.9818182,0.736727 -0.1636363,0.09091 -0.2632727,0.254546 -0.1003636,0.163636 -0.1003636,0.363636 z M 5.8181818,6.5454546 q 0.6,0 1.0276364,-0.4276364 0.4269091,-0.4269091 0.4269091,-1.0269091 0,-0.6 -0.4269091,-1.0269091 -0.4276364,-0.4276363 -1.0276364,-0.4276363 -0.6,0 -1.0269091,0.4276363 -0.4276363,0.4269091 -0.4276363,1.0269091 0,0.6 0.4276363,1.0269091 0.4269091,0.4276364 1.0269091,0.4276364 z m 0,5.8181814 z m 0,-7.2727269 z" />
</svg>
