<svg width="32" height="24" viewBox="0 0 32 24" fill="none" xmlns="http://www.w3.org/2000/svg">
<path d="M0.416504 23.0839V19.1172C0.416504 18.3145 0.623337 17.5764 1.037 16.903C1.44973 16.2305 1.99845 15.7172 2.68317 15.3631C4.14706 14.6311 5.63456 14.0819 7.14567 13.7155C8.65678 13.35 10.1915 13.1672 11.7498 13.1672C13.3082 13.1672 14.8429 13.35 16.354 13.7155C17.8651 14.0819 19.3526 14.6311 20.8165 15.3631C21.5012 15.7172 22.0499 16.2305 22.4627 16.903C22.8763 17.5764 23.0832 18.3145 23.0832 19.1172V23.0839H0.416504ZM25.9165 23.0839V18.8339C25.9165 17.795 25.6275 16.7972 25.0495 15.8405C24.4706 14.8847 23.6498 14.0645 22.5873 13.3797C23.7915 13.5214 24.9248 13.7632 25.9873 14.1051C27.0498 14.4479 28.0415 14.8672 28.9623 15.3631C29.8123 15.8353 30.4616 16.3604 30.9103 16.9384C31.3589 17.5173 31.5832 18.1492 31.5832 18.8339V23.0839H25.9165ZM11.7498 11.7506C10.1915 11.7506 8.85748 11.1957 7.74775 10.086C6.63803 8.97626 6.08317 7.64224 6.08317 6.0839C6.08317 4.52557 6.63803 3.19154 7.74775 2.08182C8.85748 0.972098 10.1915 0.417236 11.7498 0.417236C13.3082 0.417236 14.6422 0.972098 15.7519 2.08182C16.8616 3.19154 17.4165 4.52557 17.4165 6.0839C17.4165 7.64224 16.8616 8.97626 15.7519 10.086C14.6422 11.1957 13.3082 11.7506 11.7498 11.7506ZM25.9165 6.0839C25.9165 7.64224 25.3616 8.97626 24.2519 10.086C23.1422 11.1957 21.8082 11.7506 20.2498 11.7506C19.9901 11.7506 19.6596 11.7213 19.2582 11.6627C18.8568 11.6032 18.5262 11.5381 18.2665 11.4672C18.904 10.7117 19.3937 9.87349 19.7356 8.95265C20.0784 8.03182 20.2498 7.07557 20.2498 6.0839C20.2498 5.09224 20.0784 4.13599 19.7356 3.21515C19.3937 2.29432 18.904 1.45613 18.2665 0.700569C18.5971 0.582514 18.9276 0.505542 19.2582 0.469653C19.5887 0.434709 19.9193 0.417236 20.2498 0.417236C21.8082 0.417236 23.1422 0.972098 24.2519 2.08182C25.3616 3.19154 25.9165 4.52557 25.9165 6.0839ZM3.24984 20.2506H20.2498V19.1172C20.2498 18.8575 20.1851 18.6214 20.0558 18.4089C19.9254 18.1964 19.754 18.0311 19.5415 17.9131C18.2665 17.2756 16.9797 16.7972 15.6811 16.478C14.3825 16.1597 13.0721 16.0006 11.7498 16.0006C10.4276 16.0006 9.1172 16.1597 7.81859 16.478C6.51998 16.7972 5.23317 17.2756 3.95817 17.9131C3.74567 18.0311 3.57473 18.1964 3.44534 18.4089C3.315 18.6214 3.24984 18.8575 3.24984 19.1172V20.2506ZM11.7498 8.91724C12.529 8.91724 13.1963 8.63957 13.7516 8.08424C14.306 7.52985 14.5832 6.86307 14.5832 6.0839C14.5832 5.30474 14.306 4.63796 13.7516 4.08357C13.1963 3.52824 12.529 3.25057 11.7498 3.25057C10.9707 3.25057 10.3039 3.52824 9.7495 4.08357C9.19417 4.63796 8.9165 5.30474 8.9165 6.0839C8.9165 6.86307 9.19417 7.52985 9.7495 8.08424C10.3039 8.63957 10.9707 8.91724 11.7498 8.91724Z" fill="#00A8A6"/>
</svg>
