<svg height="22" width="22" version="1.1" xmlns="http://www.w3.org/2000/svg">
  <path d="M 0,19 V 16.2 Q 0,15.35 0.438,14.637 0.875,13.925 1.6,13.55 3.15,12.775 4.75,12.387 6.35,12 8,12 q 1.65,0 3.25,0.387 1.6,0.388 3.15,1.163 0.725,0.375 1.162,1.087 Q 16,15.35 16,16.2 V 19 Z m 18,0 v -3 q 0,-1.1 -0.612,-2.113 -0.613,-1.012 -1.738,-1.737 1.275,0.15 2.4,0.512 1.125,0.363 2.1,0.888 0.9,0.5 1.375,1.112 Q 22,15.275 22,16 v 3 z M 8,11 Q 6.35,11 5.175,9.825 4,8.65 4,7 4,5.35 5.175,4.175 6.35,3 8,3 9.65,3 10.825,4.175 12,5.35 12,7 12,8.65 10.825,9.825 9.65,11 8,11 Z M 18,7 Q 18,8.65 16.825,9.825 15.65,11 14,11 13.725,11 13.3,10.938 12.875,10.875 12.6,10.8 13.275,10 13.637,9.025 14,8.05 14,7 14,5.95 13.637,4.975 13.275,4 12.6,3.2 12.95,3.075 13.3,3.037 13.65,3 14,3 15.65,3 16.825,4.175 18,5.35 18,7 Z M 2,17 H 14 V 16.2 Q 14,15.925 13.863,15.7 13.725,15.475 13.5,15.35 12.15,14.675 10.775,14.337 9.4,14 8,14 6.6,14 5.225,14.337 3.85,14.675 2.5,15.35 2.275,15.475 2.138,15.7 2,15.925 2,16.2 Z M 8,9 Q 8.825,9 9.413,8.412 10,7.825 10,7 10,6.175 9.413,5.588 8.825,5 8,5 7.175,5 6.588,5.588 6,6.175 6,7 6,7.825 6.588,8.412 7.175,9 8,9 Z m 0,8 z M 8,7 Z"/>
</svg>
