<svg width="16" height="16" viewBox="0 0 16 16" version="1.2" xmlns="http://www.w3.org/2000/svg">
  <path d="m 8,12.700066 c 0.2399952,0 0.4100032,-0.08 0.57,-0.239995 C 8.7299968,12.300074 8.8,12.100078 8.8,11.860083 8.8,11.633208 8.7299972,11.436412 8.57,11.269695 8.4100032,11.103298 8.2399952,11.0201 8,11.0201 c -0.2399952,0 -0.4100032,0.0832 -0.57,0.249595 -0.1599968,0.166717 -0.23,0.363513 -0.23,0.590388 0,0.239995 0.070003,0.439991 0.23,0.599988 0.1599968,0.159997 0.3300048,0.239995 0.57,0.239995 z M 7.350093,9.7399652 h 1.2801344 c 0,-0.3865523 0.043199,-0.7166257 0.1295974,-0.9902202 C 8.8465431,8.4764705 9.1233375,8.1398372 9.5902082,7.7398452 9.9767606,7.3932921 10.259955,7.0566589 10.439791,6.7299454 10.619947,6.4032319 10.710026,6.0333193 10.710026,5.6202076 10.710026,4.900222 10.466671,4.3335133 9.9799604,3.9200816 9.4932501,3.5066499 8.8699026,3.299934 8.1099178,3.299934 7.4299314,3.299934 6.8433831,3.4733705 6.350273,3.8202436 5.8568429,4.1667967 5.5034099,4.6267875 5.2899742,5.200216 L 6.4299514,5.6398872 C 6.549949,5.3067739 6.7467451,5.0267795 7.0203396,4.799904 7.2936141,4.5733485 7.6435271,4.4600708 8.0700786,4.4600708 c 0.4534309,0 0.8067039,0.1199976 1.0598188,0.3599928 0.2534349,0.2399952 0.3801524,0.5332693 0.3801524,0.8798224 0,0.2934341 -0.083358,0.5635087 -0.250075,0.8102238 C 9.0932581,6.7568249 8.8566229,7.0067399 8.550069,7.2598548 8.0966381,7.6732865 7.7833643,8.0366393 7.6102478,8.349913 7.4368113,8.6631867 7.350093,9.1265375 7.350093,9.7399652 Z M 8,16 C 6.9065819,16 5.8733225,15.789924 4.900222,15.369773 3.9268015,14.949941 3.0767385,14.376672 2.350033,13.649967 1.6233275,12.923262 1.050059,12.073199 0.6302274,11.099778 0.2100758,10.126677 0,9.0934181 0,8 0,6.8934621 0.2100758,5.8534829 0.6302274,4.8800624 1.050059,3.9066419 1.6233275,3.0599388 2.350033,2.3399532 3.0767385,1.6199676 3.9268015,1.050059 4.900222,0.6302274 5.8733225,0.2100758 6.9065819,0 8,0 c 1.1065379,0 2.146517,0.2100758 3.119938,0.6302274 0.97342,0.4198316 1.820123,0.9897402 2.540109,1.7097258 0.719985,0.7199856 1.289894,1.5666887 1.709726,2.5401092 C 15.789924,5.8534829 16,6.8934621 16,8 c 0,1.0934181 -0.210076,2.126677 -0.630227,3.099778 -0.419832,0.973421 -0.989741,1.823484 -1.709726,2.550189 -0.719986,0.726705 -1.566689,1.299974 -2.540109,1.719806 C 10.146517,15.789924 9.1065379,16 8,16 Z" />
</svg>
