<svg width="16" height="16" viewBox="0 0 16 16" version="1.1" xmlns="http://www.w3.org/2000/svg">
  <path d="m 8.0398392,12.700066 q 0.3599928,0 0.599988,-0.239995 0.2399952,-0.239995 0.2399952,-0.599988 0,-0.340313 -0.2399952,-0.590388 Q 8.399832,11.0201 8.0398392,11.0201 q -0.3599928,0 -0.599988,0.249595 -0.2399952,0.250075 -0.2399952,0.590388 0,0.359993 0.2399952,0.599988 0.2399952,0.239995 0.599988,0.239995 z M 7.3400132,9.7399652 h 1.2801344 q 0,-0.5798284 0.1295974,-0.9902202 0.1300774,-0.4099118 0.8303834,-1.0098998 0.5798286,-0.5198296 0.8495826,-1.0098998 0.270235,-0.4900702 0.270235,-1.1097378 0,-1.0799784 -0.7300654,-1.700126 Q 9.2398152,3.299934 8.099838,3.299934 q -1.0199796,0 -1.7596448,0.5203096 Q 5.600048,4.3400732 5.2798944,5.200216 L 6.4198716,5.6398872 Q 6.599868,5.1402172 7.0102598,4.799904 7.4201716,4.4600708 8.0599988,4.4600708 q 0.6801464,0 1.0598188,0.3599928 Q 9.49997,5.1800564 9.49997,5.699886 q 0,0.4401512 -0.250075,0.8102238 Q 8.99982,6.8801824 8.5399892,7.2598548 7.8598428,7.8800024 7.600168,8.349913 7.3400132,8.8198236 7.3400132,9.7399652 Z M 8,16 Q 6.3598728,16 4.900222,15.369773 3.4400912,14.740025 2.350033,13.649967 1.2599748,12.559909 0.6302274,11.099778 0,9.6401272 0,8 0,6.3401932 0.6302274,4.8800624 1.2599748,3.4199316 2.350033,2.3399532 3.4400912,1.2599748 4.900222,0.6302274 6.3598728,0 8,0 q 1.6598068,0 3.119938,0.6302274 1.46013,0.6297474 2.540109,1.7097258 1.079978,1.0799784 1.709726,2.5401092 Q 16,6.3401932 16,8 q 0,1.6401272 -0.630227,3.099778 -0.629748,1.460131 -1.709726,2.550189 -1.079979,1.090058 -2.540109,1.719806 Q 9.6598068,16 8,16 Z m 0,-1.340133 q 2.780104,0 4.719746,-1.940121 Q 14.659867,10.780104 14.659867,8 q 0,-2.7801044 -1.940121,-4.7197456 Q 10.780104,1.3401332 8,1.3401332 q -2.7801044,0 -4.7197456,1.9401212 Q 1.3401332,5.2198956 1.3401332,8 q 0,2.780104 1.9401212,4.719746 Q 5.2198956,14.659867 8,14.659867 Z M 8,8 Z"/>
</svg>
