<svg width="34" height="35" viewBox="0 0 34 35" fill="none" xmlns="http://www.w3.org/2000/svg">
<path d="M16.9298 25.9997C17.4257 25.9997 17.845 25.8283 18.1878 25.4854C18.5297 25.1435 18.7007 24.7247 18.7007 24.2288C18.7007 23.733 18.5297 23.3141 18.1878 22.9723C17.845 22.6294 17.4257 22.458 16.9298 22.458C16.434 22.458 16.0147 22.6294 15.6718 22.9723C15.3299 23.3141 15.159 23.733 15.159 24.2288C15.159 24.7247 15.3299 25.1435 15.6718 25.4854C16.0147 25.8283 16.434 25.9997 16.9298 25.9997ZM15.6548 20.5455H18.2757C18.2757 19.7663 18.3644 19.1525 18.542 18.7038C18.7186 18.2552 19.2201 17.6413 20.0465 16.8622C20.6604 16.2483 21.1444 15.6637 21.4986 15.1083C21.8527 14.554 22.0298 13.8872 22.0298 13.108C22.0298 11.7858 21.5458 10.7705 20.5777 10.0622C19.6097 9.35384 18.4645 8.99967 17.1423 8.99967C15.7965 8.99967 14.7047 9.35384 13.867 10.0622C13.0283 10.7705 12.4437 11.6205 12.1132 12.6122L14.4507 13.533C14.5687 13.108 14.8346 12.6476 15.2482 12.1518C15.661 11.6559 16.2923 11.408 17.1423 11.408C17.8979 11.408 18.4645 11.6144 18.8423 12.0271C19.2201 12.4408 19.409 12.8955 19.409 13.3913C19.409 13.8636 19.2673 14.306 18.984 14.7188C18.7007 15.1324 18.3465 15.5163 17.9215 15.8705C16.8826 16.7913 16.2451 17.4879 16.009 17.9601C15.7729 18.4323 15.6548 19.2941 15.6548 20.5455ZM17.0007 31.6663C15.0409 31.6663 13.1993 31.2942 11.4757 30.55C9.75204 29.8067 8.25274 28.7976 6.97774 27.5226C5.70273 26.2476 4.6936 24.7483 3.95032 23.0247C3.2061 21.3011 2.83398 19.4594 2.83398 17.4997C2.83398 15.54 3.2061 13.6983 3.95032 11.9747C4.6936 10.2511 5.70273 8.75176 6.97774 7.47676C8.25274 6.20176 9.75204 5.19215 11.4757 4.44792C13.1993 3.70465 15.0409 3.33301 17.0007 3.33301C18.9604 3.33301 20.802 3.70465 22.5257 4.44792C24.2493 5.19215 25.7486 6.20176 27.0236 7.47676C28.2986 8.75176 29.3077 10.2511 30.051 11.9747C30.7952 13.6983 31.1673 15.54 31.1673 17.4997C31.1673 19.4594 30.7952 21.3011 30.051 23.0247C29.3077 24.7483 28.2986 26.2476 27.0236 27.5226C25.7486 28.7976 24.2493 29.8067 22.5257 30.55C20.802 31.2942 18.9604 31.6663 17.0007 31.6663ZM17.0007 28.833C20.1645 28.833 22.8444 27.7351 25.0402 25.5393C27.2361 23.3434 28.334 20.6636 28.334 17.4997C28.334 14.3358 27.2361 11.6559 25.0402 9.46009C22.8444 7.26426 20.1645 6.16634 17.0007 6.16634C13.8368 6.16634 11.1569 7.26426 8.96107 9.46009C6.76523 11.6559 5.66732 14.3358 5.66732 17.4997C5.66732 20.6636 6.76523 23.3434 8.96107 25.5393C11.1569 27.7351 13.8368 28.833 17.0007 28.833Z" fill="#00A8A6"/>
</svg>
