<svg id="eSw8oW62zEu1" xmlns="http://www.w3.org/2000/svg" xmlns:xlink="http://www.w3.org/1999/xlink" viewBox="0 0 120 120" shape-rendering="geometricPrecision" text-rendering="geometricPrecision"><g><ellipse rx="23.013953" ry="23.013953" transform="matrix(2.172595 0 0 2.172595 59.999999 59.999999)" fill="#870c5a" stroke-width="0"/></g><g transform="matrix(.849765 0 0 0.849765 9.0141 9.0141)"><g transform="matrix(.887897 0 0 0.887897 6.699381 6.726178)"><ellipse rx="41.404825" ry="41.404825" transform="matrix(.827688 0 0 0.827688 60.000001 60)" fill="#870c5a" stroke="#fff" stroke-width="12"/></g><g transform="translate(46.781617-18.092936)"><rect width="15.986449" height="11.5" rx="0" ry="0" transform="matrix(2.159254 0.43169-.357118 1.786254 28.38241 61.251475)" fill="#870c5a"/><g transform="matrix(0 1-1 0 105.432964 22.889287)"><rect width="2.722449" height="8.534411" rx="1" ry="1" transform="matrix(0 3.195652-2.894166 0 45.621837 59.811125)" fill="#fff" stroke-width="12" stroke-linecap="round" stroke-linejoin="round"/><ellipse rx="2.815483" ry="2.815483" transform="matrix(1.545028 0 0 1.545028 23.526281 64.161125)" fill="#fff" stroke-width="0"/></g><g><rect width="2.722449" height="8.534411" rx="1" ry="1" transform="matrix(0 3.195652-2.894166 0 45.621837 59.811125)" fill="#fff" stroke-width="12" stroke-linecap="round" stroke-linejoin="round"/><ellipse rx="2.815483" ry="2.815483" transform="matrix(1.545028 0 0 1.545028 23.526281 64.161125)" fill="#fff" stroke-width="0"/></g></g><ellipse rx="2.857553" ry="2.847845" transform="matrix(1.545028 0 0 1.545028 89.444753 67.60983)" fill="#fff" stroke-width="0"/></g></svg>
