<svg width="16" height="16" viewBox="0 0 16 16" version="1.2" xmlns="http://www.w3.org/2000/svg">
  <path d="M 7.2,12 H 8.8 V 7.2 H 7.2 Z M 8,5.6 C 8.22664,5.6 8.4168,5.5232 8.5704,5.3696 8.72344,5.216536 8.8,5.026664 8.8,4.8 8.8,4.573336 8.72344,4.3832 8.5704,4.2296 8.4168,4.076536 8.22664,4 8,4 7.773336,4 7.583464,4.076536 7.4304,4.2296 7.2768,4.3832 7.2,4.573336 7.2,4.8 7.2,5.026664 7.2768,5.216536 7.4304,5.3696 7.583464,5.5232 7.773336,5.6 8,5.6 Z M 8,16 C 6.893336,16 5.853336,15.78984 4.88,15.3696 3.906664,14.94984 3.06,14.38 2.34,13.66 1.62,12.94 1.050136,12.09336 0.6304,11.12 0.2101336,10.14664 0,9.10664 0,8 0,6.893336 0.2101336,5.853336 0.6304,4.88 1.050136,3.906664 1.62,3.06 2.34,2.34 3.06,1.62 3.906664,1.049864 4.88,0.6296 5.853336,0.2098664 6.893336,0 8,0 9.10664,0 10.14664,0.2098664 11.12,0.6296 12.09336,1.049864 12.94,1.62 13.66,2.34 14.38,3.06 14.94984,3.906664 15.3696,4.88 15.78984,5.853336 16,6.893336 16,8 c 0,1.10664 -0.21016,2.14664 -0.6304,3.12 -0.41976,0.97336 -0.9896,1.82 -1.7096,2.54 -0.72,0.72 -1.56664,1.28984 -2.54,1.7096 C 10.14664,15.78984 9.10664,16 8,16 Z m 0,-1.6 c 1.77336,0 3.28344,-0.6232 4.5304,-1.8696 C 13.7768,11.28344 14.4,9.77336 14.4,8 14.4,6.226664 13.7768,4.716536 12.5304,3.4696 11.28344,2.2232 9.77336,1.6 8,1.6 6.226664,1.6 4.7168,2.2232 3.4704,3.4696 2.223464,4.716536 1.6,6.226664 1.6,8 1.6,9.77336 2.223464,11.28344 3.4704,12.5304 4.7168,13.7768 6.226664,14.4 8,14.4 Z" />
</svg>
