<svg width="16" height="16" viewBox="0 0 16 16" version="1.2" xmlns="http://www.w3.org/2000/svg">
  <path d="M 7.3798507,11.999759 H 8.699824 V 7.199854 H 7.3798507 Z M 7.999998,5.680204 c 0.200012,0 0.3667127,-0.066719 0.50015,-0.2001561 C 8.6332494,5.3466106 8.699824,5.1799098 8.699824,4.9798978 8.699824,4.7798858 8.633251,4.6099883 8.500148,4.4701526 8.3667107,4.3299954 8.20001,4.2599168 7.999998,4.2599168 c -0.200012,0 -0.3667126,0.070079 -0.50015,0.2102358 -0.1331013,0.1398357 -0.199676,0.3097332 -0.199676,0.5097452 0,0.200012 0.066573,0.3667128 0.199676,0.5001501 0.1334374,0.1334374 0.300138,0.2001561 0.50015,0.2001561 z M 7.999998,16 C 6.893476,16 5.8568404,15.789908 4.8901396,15.369773 3.9234434,14.949925 3.0767401,14.376672 2.3500345,13.649967 1.6233289,12.923261 1.050057,12.076557 0.63022851,11.109857 0.21007553,10.143156 0,9.10652 0,7.999998 0,6.893476 0.21007553,5.8534805 0.63022851,4.8800598 1.050057,3.9066438 1.6233289,3.0599405 2.3500345,2.3399547 3.0767401,1.6199689 3.9234434,1.050057 4.8901396,0.63022851 5.8568404,0.21007553 6.893476,0 7.999998,0 9.10652,0 10.146515,0.21007553 11.119937,0.63022851 12.093357,1.050057 12.940061,1.6199689 13.660046,2.3399547 14.380032,3.0599405 14.949925,3.9066438 15.369773,4.8800598 15.789908,5.8534805 16,6.893476 16,7.999998 c 0,1.106522 -0.210092,2.143158 -0.630227,3.109859 -0.419848,0.9667 -0.989741,1.813404 -1.709727,2.54011 -0.719985,0.726705 -1.566689,1.299958 -2.540109,1.719806 C 10.146515,15.789908 9.10652,16 7.999998,16 Z" />
</svg>
