<svg width="34" height="34" viewBox="0 0 34 34" fill="none" xmlns="http://www.w3.org/2000/svg">
<path d="M15.708 25.333H18.458V15.333H15.708V25.333ZM17 12.167C17.4167 12.167 17.764 12.028 18.042 11.75C18.3193 11.472 18.458 11.1247 18.458 10.708C18.458 10.2913 18.3193 9.93734 18.042 9.64601C17.764 9.35401 17.4167 9.20801 17 9.20801C16.5833 9.20801 16.236 9.35401 15.958 9.64601C15.6807 9.93734 15.542 10.2913 15.542 10.708C15.542 11.1247 15.6807 11.472 15.958 11.75C16.236 12.028 16.5833 12.167 17 12.167ZM17 33.667C14.6947 33.667 12.535 33.2293 10.521 32.354C8.50701 31.4793 6.74301 30.285 5.22901 28.771C3.71501 27.257 2.52067 25.493 1.64601 23.479C0.770674 21.465 0.333008 19.3053 0.333008 17C0.333008 14.6947 0.770674 12.528 1.64601 10.5C2.52067 8.47201 3.71501 6.70801 5.22901 5.20801C6.74301 3.70801 8.50701 2.52067 10.521 1.64601C12.535 0.770674 14.6947 0.333008 17 0.333008C19.3053 0.333008 21.472 0.770674 23.5 1.64601C25.528 2.52067 27.292 3.70801 28.792 5.20801C30.292 6.70801 31.4793 8.47201 32.354 10.5C33.2293 12.528 33.667 14.6947 33.667 17C33.667 19.3053 33.2293 21.465 32.354 23.479C31.4793 25.493 30.292 27.257 28.792 28.771C27.292 30.285 25.528 31.4793 23.5 32.354C21.472 33.2293 19.3053 33.667 17 33.667Z" fill="black"/>
</svg>
