<svg width="24" height="24" viewBox="0 0 24 24" version="1.1" xmlns="http://www.w3.org/2000/svg">
  <path d="m 11.069776,17.999639 h 1.97996 v -7.199858 h -1.97996 z m 0.930221,-9.4793331 c 0.300018,0 0.550069,-0.100078 0.750225,-0.3002341 0.199652,-0.200156 0.299514,-0.4502071 0.299514,-0.7502252 0,-0.300018 -0.09986,-0.5548642 -0.299514,-0.7646177 -0.200156,-0.2102358 -0.450207,-0.3153537 -0.750225,-0.3153537 -0.300018,0 -0.550069,0.1051179 -0.750225,0.3153537 -0.199652,0.2097535 -0.299514,0.4645997 -0.299514,0.7646177 0,0.3000181 0.09986,0.5500692 0.299514,0.7502252 0.200156,0.2001561 0.450207,0.3002341 0.750225,0.3002341 z M 11.999997,24 C 10.340214,24 8.7852606,23.684862 7.3352093,23.054659 5.8851651,22.424887 4.6151102,21.565008 3.5250518,20.47495 2.4349933,19.384891 1.5750855,18.114836 0.94534276,16.664785 0.31511329,15.214734 0,13.65978 0,11.999997 0,10.340214 0.31511329,8.7802207 0.94534276,7.3200896 1.5750855,5.8599656 2.4349933,4.5899107 3.5250518,3.5099321 4.6151102,2.4299534 5.8851651,1.5750855 7.3352093,0.94534276 8.7852606,0.31511329 10.340214,0 11.999997,0 c 1.659783,0 3.219776,0.31511329 4.679908,0.94534276 1.460131,0.62974274 2.730186,1.48461064 3.810164,2.56458934 1.079979,1.0799786 1.934818,2.3500335 2.56459,3.8101575 C 23.684862,8.7802207 24,10.340214 24,11.999997 c 0,1.659783 -0.315138,3.214737 -0.945341,4.664788 -0.629772,1.450051 -1.484611,2.720106 -2.56459,3.810165 -1.079978,1.090058 -2.350033,1.949937 -3.810164,2.579709 C 15.219773,23.684862 13.65978,24 11.999997,24 Z"/>
</svg>
