<svg width="34" height="34" viewBox="1 1 32 32" fill="none" xmlns="http://www.w3.org/2000/svg">
<path d="M17 31.8753C15.3 30.2698 13.3521 29.042 11.1562 28.192C8.96042 27.342 6.65833 26.917 4.25 26.917V11.3337C6.63472 11.3337 8.925 11.7646 11.1208 12.6264C13.3167 13.4882 15.2764 14.7337 17 16.3628C18.7236 14.7337 20.6833 13.4882 22.8792 12.6264C25.075 11.7646 27.3653 11.3337 29.75 11.3337V26.917C27.3181 26.917 25.0101 27.342 22.826 28.192C20.642 29.042 18.7 30.2698 17 31.8753ZM17 28.192C18.4875 27.0823 20.0694 26.1969 21.7458 25.5357C23.4222 24.8746 25.1458 24.4378 26.9167 24.2253V14.4503C25.1931 14.7573 23.499 15.3771 21.8344 16.3097C20.1698 17.2423 18.5583 18.4878 17 20.0462C15.4417 18.4878 13.8302 17.2423 12.1656 16.3097C10.501 15.3771 8.80694 14.7573 7.08333 14.4503V24.2253C8.85417 24.4378 10.5778 24.8746 12.2542 25.5357C13.9306 26.1969 15.5125 27.0823 17 28.192ZM17 12.7503C15.4417 12.7503 14.1076 12.1955 12.9979 11.0857C11.8882 9.97602 11.3333 8.64199 11.3333 7.08366C11.3333 5.52533 11.8882 4.1913 12.9979 3.08158C14.1076 1.97185 15.4417 1.41699 17 1.41699C18.5583 1.41699 19.8924 1.97185 21.0021 3.08158C22.1118 4.1913 22.6667 5.52533 22.6667 7.08366C22.6667 8.64199 22.1118 9.97602 21.0021 11.0857C19.8924 12.1955 18.5583 12.7503 17 12.7503ZM17 9.91699C17.7792 9.91699 18.4462 9.63956 19.001 9.0847C19.5559 8.52984 19.8333 7.86283 19.8333 7.08366C19.8333 6.30449 19.5559 5.63748 19.001 5.08262C18.4462 4.52776 17.7792 4.25033 17 4.25033C16.2208 4.25033 15.5538 4.52776 14.999 5.08262C14.4441 5.63748 14.1667 6.30449 14.1667 7.08366C14.1667 7.86283 14.4441 8.52984 14.999 9.0847C15.5538 9.63956 16.2208 9.91699 17 9.91699Z" fill="#00A8A6"/>
</svg>
