<svg width="16" height="16" viewBox="0 0 16 16" version="1.2" xmlns="http://www.w3.org/2000/svg">
  <path d="M 8,16 C 7.559981,16 7.1834695,15.843463 6.870402,15.53039 6.556798,15.216809 6.400002,14.839982 6.400002,14.400019 h 3.19998 c 0,0.439963 -0.156537,0.81679 -0.46961,1.130372 C 8.816791,15.843463 8.440019,16 8,16 Z M 4.7999982,13.6 V 12.000019 H 11.200019 V 13.6 Z M 5,11.200001 C 4.0799981,10.653309 3.3501327,9.9199825 2.8103981,9.00002 2.2701333,8.0800015 2,7.08002 2,6.0000205 2,4.3333308 2.5834654,2.9168003 3.750402,1.7504005 4.9168019,0.5834642 6.333333,0 8,0 9.666673,0 11.083181,0.5834642 12.249582,1.7504005 13.416546,2.9168003 14,4.3333308 14,6.0000205 14,7.08002 13.730127,8.0800015 13.190381,9.00002 12.650127,9.9199825 11.920019,10.653309 11,11.200001 Z M 5.48,9.60002 h 5.04 C 11.120001,9.1733285 11.583454,8.6466835 11.910418,8.019973 12.236819,7.393319 12.400019,6.7200205 12.400019,6.0000205 12.400019,4.7733326 11.973327,3.7333309 11.12,2.8799983 10.266673,2.0266658 9.226654,1.6000023 8,1.6000023 c -1.2266655,0 -2.266667,0.4266635 -3.12,1.279996 -0.8533327,0.8533326 -1.2800019,1.8933343 -1.2800019,3.1200222 0,0.72 0.1634711,1.3932985 0.4904019,2.0199525 C 4.4168,8.6466835 4.88,9.1733285 5.48,9.60002 Z" />
</svg>
