<svg width="22" height="29" viewBox="0 0 22 29" fill="none" xmlns="http://www.w3.org/2000/svg">
<path d="M11 28.9172C10.2208 28.9172 9.55406 28.64 8.99967 28.0856C8.44433 27.5303 8.16667 26.863 8.16667 26.0839H13.8333C13.8333 26.863 13.5561 27.5303 13.0017 28.0856C12.4464 28.64 11.7792 28.9172 11 28.9172ZM5.33333 24.6672V21.8339H16.6667V24.6672H5.33333ZM5.6875 20.4172C4.05833 19.4491 2.76586 18.1505 1.81008 16.5214C0.853361 14.8922 0.375 13.1214 0.375 11.2089C0.375 8.25747 1.40822 5.74903 3.47467 3.68353C5.54017 1.61708 8.04861 0.583862 11 0.583862C13.9514 0.583862 16.4598 1.61708 18.5253 3.68353C20.5918 5.74903 21.625 8.25747 21.625 11.2089C21.625 13.1214 21.1471 14.8922 20.1913 16.5214C19.2346 18.1505 17.9417 19.4491 16.3125 20.4172H5.6875ZM6.5375 17.5839H15.4625C16.525 16.8283 17.3457 15.8957 17.9247 14.7859C18.5027 13.6762 18.7917 12.4839 18.7917 11.2089C18.7917 9.03664 18.0361 7.19497 16.525 5.68386C15.0139 4.17275 13.1722 3.4172 11 3.4172C8.82778 3.4172 6.98611 4.17275 5.475 5.68386C3.96389 7.19497 3.20833 9.03664 3.20833 11.2089C3.20833 12.4839 3.49781 13.6762 4.07675 14.7859C4.65475 15.8957 5.475 16.8283 6.5375 17.5839Z" fill="#00A8A6"/>
</svg>
