<svg width="16" height="16" viewBox="0 0 16 16" version="1.2" xmlns="http://www.w3.org/2000/svg">
  <path d="M 8,16 C 7.546544,16 7.163216,15.845501 6.84992,15.536459 6.5366385,15.22713 6.38,14.848958 6.38,14.401989 h 3.24 c 0,0.446969 -0.156624,0.825141 -0.46992,1.13447 C 8.836784,15.845501 8.453456,16 8,16 Z M 4.78016,13.336648 v -1.32197 h 6.43968 v 1.32197 z m 0.12,-2.387311 C 4.0067215,10.396923 3.2999985,9.686695 2.78,8.818655 2.2600016,7.9506155 2,6.9839015 2,5.9185605 2,4.3008191 2.5900784,2.9098817 3.77024,1.7457386 4.95008,0.58191285 6.3599985,0 8,0 9.640016,0 11.04992,0.58191285 12.22976,1.7457386 13.409936,2.9098817 14,4.3008191 14,5.9185605 c 0,1.065341 -0.260016,2.032055 -0.78,2.9000945 -0.519984,0.86804 -1.226736,1.578267 -2.12016,2.130682 z" />
</svg>
