<svg width="32" height="32" viewBox="0 0 32 32" version="1.1" xmlns="http://www.w3.org/2000/svg">
  <path d="m 16,32 c -0.880038,0 -1.633061,-0.313074 -2.259196,-0.939219 -0.627208,-0.627163 -0.9408,-1.380818 -0.9408,-2.260743 h 6.399959 c 0,0.879925 -0.313073,1.63358 -0.939219,2.260743 C 17.633582,31.686926 16.880038,32 16,32 Z M 9.5999963,27.2 V 24.000038 H 22.400038 V 27.2 Z M 10,22.400001 C 8.1599963,21.306618 6.7002654,19.839965 5.6207963,18.00004 4.5402666,16.160003 4,14.16004 4,12.000041 4,8.6666616 5.1669308,5.8336005 7.5008039,3.5008009 9.8336038,1.1669284 12.666666,0 16,0 19.333346,0 22.166362,1.1669284 24.499163,3.5008009 26.833092,5.8336005 28,8.6666616 28,12.000041 28,14.16004 27.460254,16.160003 26.380762,18.00004 25.300254,19.839965 23.840038,21.306618 22,22.400001 Z m 0.96,-3.199961 h 10.08 c 1.200001,-0.853383 2.126908,-1.906673 2.780837,-3.160094 0.652801,-1.253308 0.979201,-2.599905 0.979201,-4.039905 0,-2.4533757 -0.853383,-4.5333792 -2.560037,-6.2400443 C 20.533346,4.0533317 18.453308,3.2000047 16,3.2000047 c -2.453331,0 -4.533334,0.853327 -6.2399999,2.559992 -1.7066655,1.7066651 -2.5600038,3.7866686 -2.5600038,6.2400443 0,1.44 0.3269421,2.786597 0.9808037,4.039905 0.6528001,1.253421 1.5792001,2.306711 2.7792,3.160094 z" fill="#000000"/>
</svg>
