<svg width="32" height="32" viewBox="0 0 32 32" fill="none" version="1.1" xmlns="http://www.w3.org/2000/svg">
  <path d="M 16,32 C 15.093088,32 14.326432,31.691003 13.69984,31.072917 13.073277,30.454261 12.76,29.697916 12.76,28.803977 h 6.48 c 0,0.893939 -0.313248,1.650284 -0.93984,2.26894 C 17.673568,31.691003 16.906912,32 16,32 Z M 9.56032,26.673296 v -2.64394 h 12.87936 v 2.64394 z m 0.24,-4.774622 C 8.013443,20.793845 6.599997,19.37339 5.56,17.63731 4.5200032,15.901231 4,13.967803 4,11.837121 4,8.6016382 5.1801568,5.8197633 7.54048,3.4914773 9.90016,1.1638257 12.719997,0 16,0 19.280032,0 22.09984,1.1638257 24.45952,3.4914773 26.819872,5.8197633 28,8.6016382 28,11.837121 c 0,2.130682 -0.520032,4.06411 -1.56,5.800189 -1.039968,1.73608 -2.453472,3.156535 -4.24032,4.261364 z" fill="#000000"/>
</svg>
