<svg width="16" height="16" viewBox="0 0 16 16" version="1.2" xmlns="http://www.w3.org/2000/svg">
  <path d="M 8,8 Q 8.66,8 9.13,7.53 9.6,7.06 9.6,6.4 9.6,5.74 9.13,5.27 8.66,4.8 8,4.8 7.34,4.8 6.87,5.27 6.4,5.74 6.4,6.4 6.4,7.06 6.87,7.53 7.34,8 8,8 Z m 0,5.88 Q 10.44,11.64 11.62,9.81 12.8,7.98 12.8,6.56 12.8,4.38 11.41,2.99 10.02,1.6 8,1.6 5.98,1.6 4.59,2.99 3.2,4.38 3.2,6.56 3.2,7.98 4.38,9.81 5.56,11.64 8,13.88 Z M 8,16 Q 4.78,13.26 3.19,10.91 1.6,8.56 1.6,6.56 1.6,3.56 3.53,1.78 5.46,0 8,0 q 2.54,0 4.47,1.78 1.93,1.78 1.93,4.78 0,2 -1.59,4.35 Q 11.22,13.26 8,16 Z M 8,6.4 Z" />
</svg>
