<svg width="20" height="20" viewBox="0 0 20 20" xmlns="http://www.w3.org/2000/svg">
  <path d="M 10,10 Q 10.825,10 11.4125,9.4125 12,8.825 12,8 12,7.175 11.4125,6.5875 10.825,6 10,6 9.175,6 8.5875,6.5875 8,7.175 8,8 8,8.825 8.5875,9.4125 9.175,10 10,10 Z m 0,7.35 q 3.05,-2.8 4.525,-5.0875 Q 16,9.975 16,8.2 16,5.475 14.2625,3.7375 12.525,2 10,2 7.475,2 5.7375,3.7375 4,5.475 4,8.2 4,9.975 5.475,12.2625 6.95,14.55 10,17.35 Z M 10,20 Q 5.975,16.575 3.9875,13.6375 2,10.7 2,8.2 2,4.45 4.4125,2.225 6.825,0 10,0 13.175,0 15.5875,2.225 18,4.45 18,8.2 18,10.7 16.0125,13.6375 14.025,16.575 10,20 Z M 10,8 Z"/>
</svg>
