<svg width="20" height="20" viewBox="0 0 20 20" version="1.1" xmlns="http://www.w3.org/2000/svg">
  <path d="M 2.375,20 V 6.6666665 H 5.2343751 V 4.7619046 c 0,-1.3174628 0.4648047,-2.4406323 1.3944599,-3.3695237 C 7.5577889,0.46412951 8.681485,0 10,0 c 1.318515,0 2.442517,0.46412951 3.372157,1.3923809 0.928954,0.9288914 1.393468,2.0520609 1.393468,3.3695237 V 6.6666665 H 17.625 V 20 Z M 7.1406251,6.6666665 H 12.859375 V 4.7619046 c 0,-0.7936533 -0.278008,-1.4682514 -0.834022,-2.0238094 C 11.469414,2.1825371 10.794297,1.9047619 10,1.9047619 c -0.7942963,0 -1.4694137,0.2777752 -2.0253524,0.8333333 C 7.4186325,3.2936532 7.1406251,3.9682513 7.1406251,4.7619046 Z M 4.2812501,18.095238 H 15.718751 V 8.5714284 H 4.2812501 Z M 10,15.238095 c 0.524219,0 0.973103,-0.186362 1.346804,-0.559009 0.372939,-0.373334 0.559446,-0.821943 0.559446,-1.345753 0,-0.523809 -0.186507,-0.972419 -0.559446,-1.345752 C 10.973103,11.614933 10.524219,11.428571 10,11.428571 c -0.5242187,0 -0.9727975,0.186362 -1.3458125,0.55901 -0.3736249,0.373333 -0.5604374,0.821943 -0.5604374,1.345752 0,0.52381 0.1868125,0.972419 0.5604374,1.345753 C 9.0272025,15.051733 9.4757813,15.238095 10,15.238095 Z M 4.2812501,18.095238 V 8.5714284 Z"/>
</svg>
