<svg width="16" height="16" viewBox="0 0 16 16" version="1.2" xmlns="http://www.w3.org/2000/svg">
  <path d="M 1.9,16 V 5.3333332 H 4.1875001 V 3.8095237 c 0,-1.0539703 0.3718437,-1.9525059 1.1155679,-2.695619 C 6.0462311,0.37130361 6.945188,0 8,0 9.054812,0 9.954014,0.37130361 10.697726,1.1139047 11.440889,1.8570178 11.8125,2.7555534 11.8125,3.8095237 V 5.3333332 H 14.1 V 16 Z M 5.7125001,5.3333332 H 10.2875 V 3.8095237 C 10.2875,3.174601 10.065094,2.6349226 9.620282,2.1904762 9.1755312,1.7460297 8.6354376,1.5238095 8,1.5238095 c -0.635437,0 -1.175531,0.2222202 -1.6202819,0.6666667 C 5.934906,2.6349226 5.7125001,3.174601 5.7125001,3.8095237 Z m -2.2875,9.1428568 H 12.575001 V 6.8571427 H 3.4250001 Z M 8,12.190476 c 0.4193752,0 0.7784824,-0.14909 1.0774432,-0.447207 C 9.3757944,11.444602 9.525,11.085714 9.525,10.666666 9.525,10.247619 9.3757944,9.8887312 9.0774432,9.5900648 8.7784824,9.2919464 8.4193752,9.1428568 8,9.1428568 c -0.419375,0 -0.778238,0.1490896 -1.07665,0.447208 -0.2988999,0.2986664 -0.4483499,0.6575542 -0.4483499,1.0766012 0,0.419048 0.14945,0.777936 0.4483499,1.076603 C 7.221762,12.041386 7.580625,12.190476 8,12.190476 Z M 3.4250001,14.47619 V 6.8571427 Z" />
</svg>
