<svg width="30" height="30" viewBox="0 0 30 30" fill="none" xmlns="http://www.w3.org/2000/svg">
<path d="M5 27.5V10H8.75V7.5C8.75 5.77083 9.35958 4.29667 10.5788 3.0775C11.7971 1.85917 13.2708 1.25 15 1.25C16.7292 1.25 18.2033 1.85917 19.4225 3.0775C20.6408 4.29667 21.25 5.77083 21.25 7.5V10H25V27.5H5ZM11.25 10H18.75V7.5C18.75 6.45833 18.3854 5.57292 17.6562 4.84375C16.9271 4.11458 16.0417 3.75 15 3.75C13.9583 3.75 13.0729 4.11458 12.3438 4.84375C11.6146 5.57292 11.25 6.45833 11.25 7.5V10ZM7.5 25H22.5V12.5H7.5V25ZM15 21.25C15.6875 21.25 16.2762 21.0054 16.7663 20.5163C17.2554 20.0263 17.5 19.4375 17.5 18.75C17.5 18.0625 17.2554 17.4737 16.7663 16.9837C16.2762 16.4946 15.6875 16.25 15 16.25C14.3125 16.25 13.7242 16.4946 13.235 16.9837C12.745 17.4737 12.5 18.0625 12.5 18.75C12.5 19.4375 12.745 20.0263 13.235 20.5163C13.7242 21.0054 14.3125 21.25 15 21.25ZM7.5 25V12.5V25Z" fill="#A3106D"/>
</svg>
