<svg width="16" height="16" viewBox="0 0 16 16" version="1.2" xmlns="http://www.w3.org/2000/svg">
  <path d="M 11.927915,7.999975 9.369342,5.44845 10.396393,4.4421675 11.927915,5.9695515 14.990958,2.9148445 16,3.9390618 Z m -6.162156,0 C 4.9729836,7.999975 4.2942892,7.7184955 3.7297262,7.155487 3.1651633,6.5924275 2.8828818,5.9156195 2.8828818,5.125013 c 0,-0.7906578 0.2822815,-1.4674607 0.8468444,-2.0304795 C 4.2942892,2.5315094 4.9729836,2.25 5.765759,2.25 c 0.7927745,0 1.4714895,0.2815094 2.0360425,0.8445334 0.564553,0.5630189 0.8468545,1.2398218 0.8468545,2.0304796 0,0.7906065 -0.2823015,1.4674145 -0.8468545,2.030474 C 7.2372485,7.7184955 6.5585335,7.999975 5.765759,7.999975 Z M 0,13.75 V 11.737486 C 0,11.330184 0.10510641,10.95586 0.31531417,10.614462 0.52552195,10.273014 0.8048018,10.012489 1.1531537,9.832785 1.8978933,9.461453 2.6546493,9.182917 3.4234219,8.997277 4.1921894,8.811587 4.9729836,8.718741 5.765759,8.718741 c 0.7927745,0 1.573594,0.09285 2.342357,0.278536 0.7687615,0.18564 1.5255175,0.464177 2.270268,0.835508 0.348336,0.179704 0.627586,0.440229 0.837799,0.781677 0.210213,0.341398 0.315319,0.715722 0.315319,1.123024 V 13.75 Z m 1.4414384,-1.437531 h 8.6486406 v -0.574983 c 0,-0.131759 -0.03301,-0.251545 -0.099104,-0.359357 C 9.92489,11.270317 9.8378435,11.186451 9.729736,11.126533 9.0810875,10.803096 8.426437,10.560531 7.765782,10.398838 7.105077,10.237094 6.43842,10.156221 5.765759,10.156221 c -0.6726605,0 -1.3393186,0.08087 -1.9999985,0.242617 -0.6606594,0.161692 -1.3153107,0.404258 -1.9639587,0.727695 -0.108108,0.05992 -0.1951998,0.143784 -0.2612653,0.251595 -0.066065,0.107812 -0.099098,0.227599 -0.099098,0.359358 z M 5.765759,6.562494 c 0.3964125,0 0.735745,-0.1407395 1.0179955,-0.4222695 0.282302,-0.281479 0.423427,-0.6199335 0.423427,-1.0152115 0,-0.395329 -0.141125,-0.7337329 -0.423427,-1.0152475 C 6.501504,3.828256 6.1621715,3.6875013 5.765759,3.6875013 5.369346,3.6875013 5.030014,3.828256 4.7477628,4.1097654 4.465461,4.39128 4.3243203,4.729684 4.3243203,5.125013 c 0,0.395278 0.1411407,0.7337325 0.4234425,1.0152115 C 5.030014,6.4217545 5.369346,6.562494 5.765759,6.562494 Z" />
</svg>
