<svg height="16" width="16" version="1.1" xmlns="http://www.w3.org/2000/svg">
  <path d="M 8,8 Q 6.35,8 5.175,6.825 4,5.65 4,4 4,2.35 5.175,1.175 6.35,0 8,0 9.65,0 10.825,1.175 12,2.35 12,4 12,5.65 10.825,6.825 9.65,8 8,8 Z M 0,16 V 13.2 Q 0,12.35 0.438,11.637 0.875,10.925 1.6,10.55 3.15,9.775 4.75,9.387 6.35,9 8,9 q 1.65,0 3.25,0.387 1.6,0.388 3.15,1.163 0.725,0.375 1.162,1.087 Q 16,12.35 16,13.2 V 16 Z M 2,14 H 14 V 13.2 Q 14,12.925 13.863,12.7 13.725,12.475 13.5,12.35 12.15,11.675 10.775,11.337 9.4,11 8,11 6.6,11 5.225,11.337 3.85,11.675 2.5,12.35 2.275,12.475 2.138,12.7 2,12.925 2,13.2 Z M 8,6 Q 8.825,6 9.413,5.412 10,4.825 10,4 10,3.175 9.413,2.588 8.825,2 8,2 7.175,2 6.588,2.588 6,3.175 6,4 6,4.825 6.588,5.412 7.175,6 8,6 Z M 8,4 Z m 0,10 z"/>
</svg>
