<svg width="34" height="35" viewBox="0 0 34 35" fill="none" xmlns="http://www.w3.org/2000/svg">
<path d="M24.8638 17.4998L19.8346 12.4707L21.8534 10.4873L24.8638 13.4978L30.8846 7.47692L32.868 9.49567L24.8638 17.4998ZM12.7513 17.4998C11.193 17.4998 9.85894 16.945 8.74922 15.8353C7.6395 14.7255 7.08464 13.3915 7.08464 11.8332C7.08464 10.2748 7.6395 8.94081 8.74922 7.83109C9.85894 6.72136 11.193 6.1665 12.7513 6.1665C14.3096 6.1665 15.6437 6.72136 16.7534 7.83109C17.8631 8.94081 18.418 10.2748 18.418 11.8332C18.418 13.3915 17.8631 14.7255 16.7534 15.8353C15.6437 16.945 14.3096 17.4998 12.7513 17.4998ZM1.41797 28.8332V24.8665C1.41797 24.0637 1.62457 23.3259 2.03776 22.653C2.45095 21.98 2.99991 21.4665 3.68464 21.1123C5.14852 20.3804 6.63602 19.8314 8.14714 19.4655C9.65825 19.0995 11.193 18.9165 12.7513 18.9165C14.3096 18.9165 15.8444 19.0995 17.3555 19.4655C18.8666 19.8314 20.3541 20.3804 21.818 21.1123C22.5027 21.4665 23.0516 21.98 23.4648 22.653C23.878 23.3259 24.0846 24.0637 24.0846 24.8665V28.8332H1.41797ZM4.2513 25.9998H21.2513V24.8665C21.2513 24.6068 21.1864 24.3707 21.0565 24.1582C20.9266 23.9457 20.7555 23.7804 20.543 23.6623C19.268 23.0248 17.9812 22.5467 16.6826 22.228C15.3839 21.9092 14.0735 21.7498 12.7513 21.7498C11.4291 21.7498 10.1187 21.9092 8.82005 22.228C7.52144 22.5467 6.23464 23.0248 4.95964 23.6623C4.74714 23.7804 4.57595 23.9457 4.44609 24.1582C4.31623 24.3707 4.2513 24.6068 4.2513 24.8665V25.9998ZM12.7513 14.6665C13.5305 14.6665 14.1975 14.3891 14.7523 13.8342C15.3072 13.2794 15.5846 12.6123 15.5846 11.8332C15.5846 11.054 15.3072 10.387 14.7523 9.83213C14.1975 9.27727 13.5305 8.99984 12.7513 8.99984C11.9721 8.99984 11.3051 9.27727 10.7503 9.83213C10.1954 10.387 9.91797 11.054 9.91797 11.8332C9.91797 12.6123 10.1954 13.2794 10.7503 13.8342C11.3051 14.3891 11.9721 14.6665 12.7513 14.6665Z" fill="#00A8A6"/>
</svg>
