<svg width="32" height="32" viewBox="0 0 32 32" version="1.1" xmlns="http://www.w3.org/2000/svg">
  <path d="M 23.855831,15.999949 18.738684,10.8969 20.792786,8.8843349 23.855831,11.939103 29.981916,5.829689 32,7.8781236 Z m -12.324313,0 c -1.5855508,0 -2.9429396,-0.562958 -4.0720655,-1.688975 -1.1291259,-1.126119 -1.6936888,-2.479735 -1.6936888,-4.060948 0,-1.5813157 0.5645629,-2.9349214 1.6936888,-4.0609591 C 8.5885784,5.0630189 9.9459672,4.5 11.531518,4.5 c 1.585549,0 2.942979,0.5630189 4.072085,1.6890669 1.129106,1.1260377 1.693709,2.4796434 1.693709,4.0609591 0,1.581213 -0.564603,2.934829 -1.693709,4.060948 -1.129106,1.126017 -2.486536,1.688975 -4.072085,1.688975 z M 0,27.5 V 23.474972 C 0,22.660368 0.21021283,21.911719 0.63062834,21.228924 1.0510439,20.546028 1.6096036,20.024977 2.3063075,19.66557 c 1.4894791,-0.742663 3.0029912,-1.299736 4.5405363,-1.671016 1.537535,-0.371381 3.0991234,-0.557072 4.6846742,-0.557072 1.585549,0 3.147188,0.185691 4.684714,0.557072 1.537523,0.37128 3.051035,0.928353 4.540536,1.671016 0.696672,0.359407 1.255172,0.880458 1.675598,1.563354 0.420425,0.682795 0.630638,1.431444 0.630638,2.246048 V 27.5 Z M 2.8828769,24.624937 H 20.180157 v -1.149965 c 0,-0.263518 -0.06603,-0.503091 -0.198206,-0.718715 -0.132171,-0.215624 -0.306264,-0.383355 -0.522479,-0.503192 -1.297297,-0.646873 -2.606598,-1.132004 -3.927908,-1.455389 -1.32141,-0.323488 -2.654724,-0.485233 -4.000046,-0.485233 -1.345321,0 -2.6786372,0.161745 -3.999997,0.485233 C 6.2102021,21.121061 4.9008996,21.606192 3.6036036,22.253065 3.3873877,22.372902 3.213204,22.540633 3.081073,22.756257 2.9489423,22.971881 2.8828769,23.211454 2.8828769,23.474972 Z M 11.531518,13.124988 c 0.792825,0 1.47149,-0.281479 2.035991,-0.844539 0.564604,-0.562958 0.846854,-1.239867 0.846854,-2.030423 0,-0.790658 -0.28225,-1.4674659 -0.846854,-2.0304951 -0.564501,-0.5630188 -1.243166,-0.8445284 -2.035991,-0.8445284 -0.792826,0 -1.47149,0.2815096 -2.0359924,0.8445284 -0.5646037,0.5630292 -0.846885,1.2398371 -0.846885,2.0304951 0,0.790556 0.2822813,1.467465 0.846885,2.030423 0.5645024,0.56306 1.2431664,0.844539 2.0359924,0.844539 z"/>
</svg>
