<svg width="16" height="16" viewBox="0 0 16 16" version="1.2" xmlns="http://www.w3.org/2000/svg">
  <path d="M 11.2,4.8 V 2.4 H 4.8 V 4.8 H 3.2 v -4 h 9.6 v 4 z m 1.6,3.6 c 0.22664,0 0.41656,-0.0768 0.5696,-0.2304 C 13.5232,8.016536 13.6,7.826664 13.6,7.6 13.6,7.373336 13.5232,7.1832 13.3696,7.0296 13.21656,6.876536 13.02664,6.8 12.8,6.8 12.57336,6.8 12.38344,6.876536 12.2304,7.0296 12.0768,7.1832 12,7.373336 12,7.6 12,7.826664 12.0768,8.016536 12.2304,8.1696 12.38344,8.3232 12.57336,8.4 12.8,8.4 Z m -1.6,5.2 V 10.4 H 4.8 v 3.2 z m 1.6,1.6 H 3.2 V 12 H 0 V 4.8 H 16 V 12 h -3.2 z m 1.6,-4.8 v -4 H 1.6 v 4 H 3.2 V 8.8 h 9.6 v 1.6 z M 1.6,6.4 H 14.4 3.2 Z" />
</svg>
