<svg width="20" height="20" viewBox="0 0 20 20" version="1.1" xmlns="http://www.w3.org/2000/svg">
  <path d="M 14,6 V 3 H 6 V 6 H 4 V 1 h 12 v 5 z m 2,4.5 c 0.2833,0 0.5207,-0.096 0.712,-0.288 C 16.904,10.02067 17,9.78333 17,9.5 17,9.21667 16.904,8.979 16.712,8.787 16.5207,8.59567 16.2833,8.5 16,8.5 15.7167,8.5 15.4793,8.59567 15.288,8.787 15.096,8.979 15,9.21667 15,9.5 c 0,0.28333 0.096,0.52067 0.288,0.712 C 15.4793,10.404 15.7167,10.5 16,10.5 Z M 14,17 V 13 H 6 v 4 z m 2,2 H 4 V 15 H 0 V 6 h 20 v 9 h -4 z m 2,-6 V 8 H 2 v 5 h 2 v -2 h 12 v 2 z M 2,8 H 18 4 Z"/>
</svg>
