<svg viewBox="0 0 34 34" fill="none" xmlns="http://www.w3.org/2000/svg">
<path d="M8.66658 19.5C9.36103 19.5 9.95131 19.2569 10.4374 18.7708C10.9235 18.2847 11.1666 17.6944 11.1666 17C11.1666 16.3055 10.9235 15.7153 10.4374 15.2291C9.95131 14.743 9.36103 14.5 8.66658 14.5C7.97214 14.5 7.38186 14.743 6.89575 15.2291C6.40964 15.7153 6.16658 16.3055 6.16658 17C6.16658 17.6944 6.40964 18.2847 6.89575 18.7708C7.38186 19.2569 7.97214 19.5 8.66658 19.5ZM16.9999 19.5C17.6944 19.5 18.2846 19.2569 18.7708 18.7708C19.2569 18.2847 19.4999 17.6944 19.4999 17C19.4999 16.3055 19.2569 15.7153 18.7708 15.2291C18.2846 14.743 17.6944 14.5 16.9999 14.5C16.3055 14.5 15.7152 14.743 15.2291 15.2291C14.743 15.7153 14.4999 16.3055 14.4999 17C14.4999 17.6944 14.743 18.2847 15.2291 18.7708C15.7152 19.2569 16.3055 19.5 16.9999 19.5ZM25.3333 19.5C26.0277 19.5 26.618 19.2569 27.1041 18.7708C27.5902 18.2847 27.8333 17.6944 27.8333 17C27.8333 16.3055 27.5902 15.7153 27.1041 15.2291C26.618 14.743 26.0277 14.5 25.3333 14.5C24.6388 14.5 24.0485 14.743 23.5624 15.2291C23.0763 15.7153 22.8333 16.3055 22.8333 17C22.8333 17.6944 23.0763 18.2847 23.5624 18.7708C24.0485 19.2569 24.6388 19.5 25.3333 19.5ZM16.9999 33.6666C14.6944 33.6666 12.5277 33.2291 10.4999 32.3541C8.47214 31.4791 6.70825 30.2916 5.20825 28.7916C3.70825 27.2916 2.52075 25.5278 1.64575 23.5C0.770752 21.4722 0.333252 19.3055 0.333252 17C0.333252 14.6944 0.770752 12.5278 1.64575 10.5C2.52075 8.4722 3.70825 6.70831 5.20825 5.20831C6.70825 3.70831 8.47214 2.52081 10.4999 1.64581C12.5277 0.770813 14.6944 0.333313 16.9999 0.333313C19.3055 0.333313 21.4721 0.770813 23.4999 1.64581C25.5277 2.52081 27.2916 3.70831 28.7916 5.20831C30.2916 6.70831 31.4791 8.4722 32.3541 10.5C33.2291 12.5278 33.6666 14.6944 33.6666 17C33.6666 19.3055 33.2291 21.4722 32.3541 23.5C31.4791 25.5278 30.2916 27.2916 28.7916 28.7916C27.2916 30.2916 25.5277 31.4791 23.4999 32.3541C21.4721 33.2291 19.3055 33.6666 16.9999 33.6666Z" fill="#FE8E15"/>
</svg>
