<svg viewBox="0 0 34 34" fill="none" xmlns="http://www.w3.org/2000/svg">
<path d="M16.9166 27C17.4999 27 17.993 26.7986 18.3958 26.3958C18.7985 25.993 18.9999 25.5 18.9999 24.9166C18.9999 24.3333 18.7985 23.8403 18.3958 23.4375C17.993 23.0347 17.4999 22.8333 16.9166 22.8333C16.3333 22.8333 15.8402 23.0347 15.4374 23.4375C15.0346 23.8403 14.8333 24.3333 14.8333 24.9166C14.8333 25.5 15.0346 25.993 15.4374 26.3958C15.8402 26.7986 16.3333 27 16.9166 27ZM15.4166 20.5833H18.4999C18.4999 19.6666 18.6041 18.9444 18.8124 18.4166C19.0208 17.8889 19.611 17.1666 20.5833 16.25C21.3055 15.5278 21.8749 14.8403 22.2916 14.1875C22.7083 13.5347 22.9166 12.75 22.9166 11.8333C22.9166 10.2778 22.3471 9.08331 21.2083 8.24998C20.0694 7.41665 18.7221 6.99998 17.1666 6.99998C15.5833 6.99998 14.2985 7.41665 13.3124 8.24998C12.3263 9.08331 11.6388 10.0833 11.2499 11.25L13.9999 12.3333C14.1388 11.8333 14.4513 11.2916 14.9374 10.7083C15.4235 10.125 16.1666 9.83331 17.1666 9.83331C18.0555 9.83331 18.7221 10.0764 19.1666 10.5625C19.611 11.0486 19.8333 11.5833 19.8333 12.1666C19.8333 12.7222 19.6666 13.243 19.3333 13.7291C18.9999 14.2153 18.5833 14.6666 18.0833 15.0833C16.861 16.1666 16.111 16.9861 15.8333 17.5416C15.5555 18.0972 15.4166 19.1111 15.4166 20.5833ZM16.9999 33.6666C14.6944 33.6666 12.5277 33.2291 10.4999 32.3541C8.47214 31.4791 6.70825 30.2916 5.20825 28.7916C3.70825 27.2916 2.52075 25.5278 1.64575 23.5C0.770752 21.4722 0.333252 19.3055 0.333252 17C0.333252 14.6944 0.770752 12.5278 1.64575 10.5C2.52075 8.4722 3.70825 6.70831 5.20825 5.20831C6.70825 3.70831 8.47214 2.52081 10.4999 1.64581C12.5277 0.770813 14.6944 0.333313 16.9999 0.333313C19.3055 0.333313 21.4721 0.770813 23.4999 1.64581C25.5277 2.52081 27.2916 3.70831 28.7916 5.20831C30.2916 6.70831 31.4791 8.4722 32.3541 10.5C33.2291 12.5278 33.6666 14.6944 33.6666 17C33.6666 19.3055 33.2291 21.4722 32.3541 23.5C31.4791 25.5278 30.2916 27.2916 28.7916 28.7916C27.2916 30.2916 25.5277 31.4791 23.4999 32.3541C21.4721 33.2291 19.3055 33.6666 16.9999 33.6666Z" fill="#333333"/>
</svg>
