<svg width="16" height="16" viewBox="0 0 16 16" version="1.2" xmlns="http://www.w3.org/2000/svg">
  <path d="M 14.755556,16 9.1555556,10.4 C 8.7111111,10.755556 8.2,11.037067 7.6222222,11.244444 7.0444445,11.451822 6.4296267,11.555556 5.7777778,11.555556 4.16296,11.555556 2.7964444,10.996444 1.6782222,9.8782222 0.55940711,8.7594045 0,7.3925956 0,5.7777778 0,4.16296 0.55940711,2.7961511 1.6782222,1.6773333 2.7964444,0.55911111 4.16296,0 5.7777778,0 7.3925956,0 8.7594045,0.55911111 9.8782222,1.6773333 10.996444,2.7961511 11.555556,4.16296 11.555556,5.7777778 c 0,0.6518489 -0.103734,1.2666667 -0.311112,1.8444444 C 11.037067,8.2 10.755556,8.7111111 10.4,9.1555556 L 16,14.755556 Z M 5.7777778,9.7777778 c 1.1111111,0 2.0557067,-0.3887111 2.8337778,-1.1662222 C 9.3890667,7.8334845 9.7777778,6.8888889 9.7777778,5.7777778 9.7777778,4.6666667 9.3890667,3.7220711 8.6115556,2.944 7.8334845,2.1665156 6.8888889,1.7777778 5.7777778,1.7777778 4.6666667,1.7777778 3.7220711,2.1665156 2.944,2.944 2.1665156,3.7220711 1.7777778,4.6666667 1.7777778,5.7777778 c 0,1.1111111 0.3887378,2.0557067 1.1662222,2.8337778 0.7780711,0.7775111 1.7226667,1.1662222 2.8337778,1.1662222 z" />
</svg>
