<svg width="26" height="26" viewBox="0 0 26 26" fill="none" xmlns="http://www.w3.org/2000/svg">
<path d="M23.7667 25.5005L14.8417 16.5755C14.1333 17.1422 13.3187 17.5908 12.3979 17.9213C11.4771 18.2519 10.4972 18.4172 9.45833 18.4172C6.88472 18.4172 4.70683 17.5261 2.92467 15.7439C1.14156 13.9608 0.25 11.7824 0.25 9.20882C0.25 6.63521 1.14156 4.45685 2.92467 2.67374C4.70683 0.891572 6.88472 0.000488281 9.45833 0.000488281C12.0319 0.000488281 14.2103 0.891572 15.9934 2.67374C17.7756 4.45685 18.6667 6.63521 18.6667 9.20882C18.6667 10.2477 18.5014 11.2276 18.1708 12.1484C17.8403 13.0692 17.3917 13.8838 16.825 14.5922L25.75 23.5172L23.7667 25.5005ZM9.45833 15.5838C11.2292 15.5838 12.7346 14.9643 13.9747 13.7252C15.2138 12.4851 15.8333 10.9797 15.8333 9.20882C15.8333 7.43799 15.2138 5.93254 13.9747 4.69249C12.7346 3.45338 11.2292 2.83382 9.45833 2.83382C7.6875 2.83382 6.18205 3.45338 4.942 4.69249C3.70289 5.93254 3.08333 7.43799 3.08333 9.20882C3.08333 10.9797 3.70289 12.4851 4.942 13.7252C6.18205 14.9643 7.6875 15.5838 9.45833 15.5838Z" fill="#00A8A6"/>
</svg>
