<svg width="16" height="16" viewBox="0 0 16 16" version="1.1" xmlns="http://www.w3.org/2000/svg">
  <path d="M 5.8109567,16 5.4925298,13.440015 C 5.3200838,13.373379 5.1575268,13.29336 5.0049721,13.200014 4.8524171,13.106667 4.7031774,13.006659 4.5571965,12.900042 L 2.1890544,13.900024 0,10.1 2.0497546,8.5399975 C 2.0364826,8.4466518 2.0298523,8.356694 2.0298523,8.2700112 V 7.7299824 c 0,-0.086626 0.00663,-0.1766401 0.019903,-0.2699863 L 0,5.899994 2.1890544,2.1000031 4.5571965,3.1000028 C 4.7031774,2.9933354 4.8557322,2.893337 5.0149176,2.8000023 5.1741594,2.7066676 5.3333444,2.6266713 5.4925298,2.5600019 L 5.8109567,0 h 4.3781313 l 0.318371,2.5600019 c 0.172503,0.066669 0.335003,0.1466657 0.487558,0.2400004 0.152611,0.093334 0.30185,0.1933331 0.447775,0.3000005 L 13.810962,2.1000031 16,5.899994 13.950257,7.4599961 c 0.01326,0.093346 0.01989,0.1833602 0.01989,0.2699863 v 0.5400288 c 0,0.086683 -0.01326,0.1766406 -0.03978,0.2699863 L 15.980109,10.1 l -2.189037,3.800024 -2.34828,-0.999982 c -0.145924,0.106617 -0.298479,0.206625 -0.45772,0.299972 -0.159185,0.09335 -0.318371,0.173365 -0.477613,0.240001 L 10.189088,16 Z m 2.2288764,-5.19999 c 0.7694611,0 1.4261498,-0.273317 1.9701219,-0.8200105 0.543972,-0.5466359 0.815931,-1.2066651 0.815931,-1.9799742 0,-0.7733661 -0.271959,-1.4333387 -0.815931,-1.9800313 C 9.4659829,5.4733579 8.8092942,5.1999832 8.0398331,5.1999832 c -0.7827786,0 -1.4428386,0.2733747 -1.9801244,0.8200108 -0.5373421,0.5466926 -0.805985,1.2066652 -0.805985,1.9800313 0,0.7733091 0.2686429,1.4333383 0.805985,1.9799742 0.5372858,0.5466935 1.1973458,0.8200105 1.9801244,0.8200105 z m 0,-1.5999833 c -0.3316878,0 -0.6136477,-0.1166682 -0.8458235,-0.3500051 C 6.9618338,8.6166851 6.8458023,8.3333714 6.8458023,8.0000253 c 0,-0.3333465 0.1160315,-0.6166597 0.3482073,-0.8499966 0.2321758,-0.233337 0.5141357,-0.3500052 0.8458235,-0.3500052 0.331631,0 0.6135913,0.1166682 0.8457667,0.3500052 0.2321759,0.2333369 0.3482635,0.5166501 0.3482635,0.8499966 0,0.3333461 -0.1160876,0.6166598 -0.3482635,0.8499963 C 8.6534244,9.0833585 8.3714641,9.2000267 8.0398331,9.2000267 Z M 7.2040113,14.400016 h 1.5721311 l 0.2785883,-2.120022 c 0.4112522,-0.106617 0.7927243,-0.263323 1.1443033,-0.470005 0.351579,-0.206627 0.673264,-0.456623 0.96517,-0.749987 l 1.970122,0.82001 0.776149,-1.359983 -1.711482,-1.3000116 c 0.06636,-0.1866918 0.112773,-0.3833228 0.13935,-0.5900054 0.02653,-0.2066827 0.03978,-0.4166405 0.03978,-0.6299867 0,-0.2133466 -0.01326,-0.423361 -0.03978,-0.6300437 -0.02658,-0.206626 -0.07299,-0.4033131 -0.13935,-0.5899489 L 13.910475,5.4800213 13.134326,4.1199817 11.164204,4.9599829 C 10.872298,4.6533472 10.550613,4.396688 10.199034,4.1900053 9.847455,3.9833226 9.4659829,3.826673 9.0547307,3.7200056 L 8.7960337,1.6000005 H 7.2239027 L 6.945258,3.7200056 C 6.5340058,3.826673 6.1525899,3.9833226 5.8010112,4.1900053 5.4494325,4.396688 5.1276901,4.6466837 4.8358411,4.9399923 L 2.8656736,4.1199817 2.0895537,5.4800213 3.8009959,6.7599858 c -0.066332,0.2000188 -0.1127672,0.400038 -0.1393,0.6000007 -0.026538,0.2000192 -0.039804,0.4133654 -0.039804,0.6400388 0,0.2133462 0.013267,0.4199722 0.039805,0.6199915 0.026532,0.2000188 0.072968,0.3999815 0.1392999,0.6000006 L 2.0895547,10.520029 2.8656746,11.880012 4.8358421,11.04001 c 0.291849,0.306693 0.6135914,0.563352 0.9651701,0.769979 0.3515787,0.206682 0.7329946,0.363388 1.1442468,0.470005 z"/>
</svg>
