<svg width="34" height="35" viewBox="0 0 34 35" fill="none" xmlns="http://www.w3.org/2000/svg">
<path d="M13.1034 31.6663L12.5367 27.133C12.2298 27.015 11.9405 26.8733 11.669 26.708C11.3975 26.5427 11.1319 26.3656 10.8721 26.1768L6.65755 27.9476L2.76172 21.2184L6.40964 18.4559C6.38602 18.2906 6.37422 18.1313 6.37422 17.9778V17.0215C6.37422 16.8681 6.38602 16.7087 6.40964 16.5434L2.76172 13.7809L6.65755 7.05176L10.8721 8.82259C11.1319 8.6337 11.4034 8.45662 11.6867 8.29134C11.9701 8.12606 12.2534 7.9844 12.5367 7.86634L13.1034 3.33301H20.8951L21.4617 7.86634C21.7687 7.9844 22.0579 8.12606 22.3294 8.29134C22.601 8.45662 22.8666 8.6337 23.1263 8.82259L27.3409 7.05176L31.2367 13.7809L27.5888 16.5434C27.6124 16.7087 27.6242 16.8681 27.6242 17.0215V17.9778C27.6242 18.1313 27.6006 18.2906 27.5534 18.4559L31.2013 21.2184L27.3055 27.9476L23.1263 26.1768C22.8666 26.3656 22.5951 26.5427 22.3117 26.708C22.0284 26.8733 21.7451 27.015 21.4617 27.133L20.8951 31.6663H13.1034ZM17.0701 22.458C18.4395 22.458 19.6082 21.974 20.5763 21.0059C21.5444 20.0379 22.0284 18.8691 22.0284 17.4997C22.0284 16.1302 21.5444 14.9615 20.5763 13.9934C19.6082 13.0254 18.4395 12.5413 17.0701 12.5413C15.677 12.5413 14.5023 13.0254 13.5461 13.9934C12.5898 14.9615 12.1117 16.1302 12.1117 17.4997C12.1117 18.8691 12.5898 20.0379 13.5461 21.0059C14.5023 21.974 15.677 22.458 17.0701 22.458ZM17.0701 19.6247C16.4798 19.6247 15.978 19.4181 15.5648 19.0049C15.1516 18.5917 14.9451 18.09 14.9451 17.4997C14.9451 16.9094 15.1516 16.4077 15.5648 15.9945C15.978 15.5813 16.4798 15.3747 17.0701 15.3747C17.6603 15.3747 18.1621 15.5813 18.5753 15.9945C18.9885 16.4077 19.1951 16.9094 19.1951 17.4997C19.1951 18.09 18.9885 18.5917 18.5753 19.0049C18.1621 19.4181 17.6603 19.6247 17.0701 19.6247ZM15.5826 28.833H18.3805L18.8763 25.0788C19.6082 24.89 20.2871 24.6125 20.9128 24.2465C21.5385 23.8806 22.111 23.4379 22.6305 22.9184L26.1367 24.3705L27.518 21.9622L24.4721 19.6601C24.5902 19.3295 24.6728 18.9813 24.7201 18.6153C24.7673 18.2493 24.7909 17.8775 24.7909 17.4997C24.7909 17.1219 24.7673 16.75 24.7201 16.384C24.6728 16.0181 24.5902 15.6698 24.4721 15.3393L27.518 13.0372L26.1367 10.6288L22.6305 12.1163C22.111 11.5733 21.5385 11.1188 20.9128 10.7528C20.2871 10.3868 19.6082 10.1094 18.8763 9.92051L18.4159 6.16634H15.618L15.1221 9.92051C14.3902 10.1094 13.7114 10.3868 13.0857 10.7528C12.46 11.1188 11.8874 11.5615 11.368 12.0809L7.86172 10.6288L6.48047 13.0372L9.5263 15.3038C9.40825 15.658 9.32561 16.0122 9.27839 16.3663C9.23116 16.7205 9.20755 17.0983 9.20755 17.4997C9.20755 17.8775 9.23116 18.2434 9.27839 18.5976C9.32561 18.9518 9.40825 19.3059 9.5263 19.6601L6.48047 21.9622L7.86172 24.3705L11.368 22.883C11.8874 23.4261 12.46 23.8806 13.0857 24.2465C13.7114 24.6125 14.3902 24.89 15.1221 25.0788L15.5826 28.833Z" fill="#00A8A6"/>
</svg>
