<svg width="20" height="20" viewBox="0 0 20 20" version="1.1" xmlns="http://www.w3.org/2000/svg">
  <path d="M 16,20 C 15.1667,20 14.4583,19.7083 13.875,19.125 13.2917,18.5417 13,17.8333 13,17 13,16.8833 13.0083,16.7623 13.025,16.637 13.0417,16.5123 13.0667,16.4 13.1,16.3 L 6.05,12.2 C 5.76667,12.45 5.45,12.6457 5.1,12.787 4.75,12.929 4.38333,13 4,13 3.16667,13 2.45833,12.7083 1.875,12.125 1.291667,11.5417 1,10.8333 1,10 1,9.16667 1.291667,8.45833 1.875,7.875 2.45833,7.29167 3.16667,7 4,7 4.38333,7 4.75,7.07067 5.1,7.212 5.45,7.354 5.76667,7.55 6.05,7.8 L 13.1,3.7 C 13.0667,3.6 13.0417,3.48767 13.025,3.363 13.0083,3.23767 13,3.11667 13,3 13,2.16667 13.2917,1.45833 13.875,0.875 14.4583,0.291667 15.1667,0 16,0 16.8333,0 17.5417,0.291667 18.125,0.875 18.7083,1.45833 19,2.16667 19,3 19,3.83333 18.7083,4.54167 18.125,5.125 17.5417,5.70833 16.8333,6 16,6 15.6167,6 15.25,5.929 14.9,5.787 14.55,5.64567 14.2333,5.45 13.95,5.2 L 6.9,9.3 C 6.93333,9.4 6.95833,9.51233 6.975,9.637 6.99167,9.76233 7,9.88333 7,10 7,10.1167 6.99167,10.2373 6.975,10.362 6.95833,10.4873 6.93333,10.6 6.9,10.7 l 7.05,4.1 c 0.2833,-0.25 0.6,-0.446 0.95,-0.588 C 15.25,14.0707 15.6167,14 16,14 c 0.8333,0 1.5417,0.2917 2.125,0.875 C 18.7083,15.4583 19,16.1667 19,17 19,17.8333 18.7083,18.5417 18.125,19.125 17.5417,19.7083 16.8333,20 16,20 Z M 16,4 C 16.2833,4 16.5207,3.90433 16.712,3.713 16.904,3.521 17,3.28333 17,3 17,2.71667 16.904,2.479 16.712,2.287 16.5207,2.09567 16.2833,2 16,2 15.7167,2 15.4793,2.09567 15.288,2.287 15.096,2.479 15,2.71667 15,3 15,3.28333 15.096,3.521 15.288,3.713 15.4793,3.90433 15.7167,4 16,4 Z M 4,11 C 4.28333,11 4.521,10.904 4.713,10.712 4.90433,10.5207 5,10.2833 5,10 5,9.71667 4.90433,9.479 4.713,9.287 4.521,9.09567 4.28333,9 4,9 3.71667,9 3.479,9.09567 3.287,9.287 3.09567,9.479 3,9.71667 3,10 3,10.2833 3.09567,10.5207 3.287,10.712 3.479,10.904 3.71667,11 4,11 Z m 12,7 c 0.2833,0 0.5207,-0.096 0.712,-0.288 C 16.904,17.5207 17,17.2833 17,17 17,16.7167 16.904,16.4793 16.712,16.288 16.5207,16.096 16.2833,16 16,16 15.7167,16 15.4793,16.096 15.288,16.288 15.096,16.4793 15,16.7167 15,17 c 0,0.2833 0.096,0.5207 0.288,0.712 C 15.4793,17.904 15.7167,18 16,18 Z"/>
</svg>
