<svg width="16" height="16" viewBox="0 0 16 16" version="1.2" xmlns="http://www.w3.org/2000/svg">
  <path d="m 12.8,16 c -0.66664,0 -1.23336,-0.23336 -1.7,-0.7 -0.46664,-0.46664 -0.7,-1.03336 -0.7,-1.7 0,-0.09336 0.0066,-0.19016 0.02,-0.2904 0.01336,-0.09976 0.03336,-0.1896 0.06,-0.2696 L 4.84,9.76 C 4.613336,9.96 4.36,10.11656 4.08,10.2296 3.8,10.3432 3.506664,10.4 3.2,10.4 2.533336,10.4 1.966664,10.16664 1.5,9.7 1.0333336,9.23336 0.8,8.66664 0.8,8 0.8,7.333336 1.0333336,6.766664 1.5,6.3 1.966664,5.833336 2.533336,5.6 3.2,5.6 3.506664,5.6 3.8,5.656536 4.08,5.7696 4.36,5.8832 4.613336,6.04 4.84,6.24 L 10.48,2.96 C 10.45336,2.88 10.43336,2.790136 10.42,2.6904 10.40664,2.590136 10.4,2.493336 10.4,2.4 10.4,1.733336 10.63336,1.166664 11.1,0.7 11.56664,0.2333336 12.13336,0 12.8,0 c 0.66664,0 1.23336,0.2333336 1.7,0.7 0.46664,0.466664 0.7,1.033336 0.7,1.7 0,0.666664 -0.23336,1.233336 -0.7,1.7 C 14.03336,4.566664 13.46664,4.8 12.8,4.8 12.49336,4.8 12.2,4.7432 11.92,4.6296 11.64,4.516536 11.38664,4.36 11.16,4.16 L 5.52,7.44 C 5.546664,7.52 5.566664,7.609864 5.58,7.7096 5.593336,7.809864 5.6,7.906664 5.6,8 5.6,8.09336 5.593336,8.18984 5.58,8.2896 5.566664,8.38984 5.546664,8.48 5.52,8.56 l 5.64,3.28 c 0.22664,-0.2 0.48,-0.3568 0.76,-0.4704 C 12.2,11.25656 12.49336,11.2 12.8,11.2 c 0.66664,0 1.23336,0.23336 1.7,0.7 0.46664,0.46664 0.7,1.03336 0.7,1.7 0,0.66664 -0.23336,1.23336 -0.7,1.7 -0.46664,0.46664 -1.03336,0.7 -1.7,0.7 z m 0,-12.8 c 0.22664,0 0.41656,-0.076536 0.5696,-0.2296 C 13.5232,2.8168 13.6,2.626664 13.6,2.4 13.6,2.173336 13.5232,1.9832 13.3696,1.8296 13.21656,1.676536 13.02664,1.6 12.8,1.6 12.57336,1.6 12.38344,1.676536 12.2304,1.8296 12.0768,1.9832 12,2.173336 12,2.4 12,2.626664 12.0768,2.8168 12.2304,2.9704 12.38344,3.123464 12.57336,3.2 12.8,3.2 Z M 3.2,8.8 C 3.426664,8.8 3.6168,8.7232 3.7704,8.5696 3.923464,8.41656 4,8.22664 4,8 4,7.773336 3.923464,7.5832 3.7704,7.4296 3.6168,7.276536 3.426664,7.2 3.2,7.2 2.973336,7.2 2.7832,7.276536 2.6296,7.4296 2.476536,7.5832 2.4,7.773336 2.4,8 2.4,8.22664 2.476536,8.41656 2.6296,8.5696 2.7832,8.7232 2.973336,8.8 3.2,8.8 Z m 9.6,5.6 c 0.22664,0 0.41656,-0.0768 0.5696,-0.2304 C 13.5232,14.01656 13.6,13.82664 13.6,13.6 13.6,13.37336 13.5232,13.18344 13.3696,13.0304 13.21656,12.8768 13.02664,12.8 12.8,12.8 c -0.22664,0 -0.41656,0.0768 -0.5696,0.2304 C 12.0768,13.18344 12,13.37336 12,13.6 c 0,0.22664 0.0768,0.41656 0.2304,0.5696 C 12.38344,14.3232 12.57336,14.4 12.8,14.4 Z" />
</svg>
