<svg viewBox="0 0 24 24" width="24px" height="24px" fill="none" version="1.1" xmlns="http://www.w3.org/2000/svg">
  <path d="m 11.940005,19.200041 c 0.419976,0 0.775008,-0.145008 1.065024,-0.435024 0.289944,-0.290017 0.434952,-0.644977 0.434952,-1.065026 0,-0.419976 -0.145008,-0.774937 -0.434952,-1.064953 -0.290016,-0.290017 -0.645048,-0.435025 -1.065024,-0.435025 -0.419976,0 -0.775007,0.145008 -1.065023,0.435025 -0.290016,0.290016 -0.434952,0.644977 -0.434952,1.064953 0,0.420049 0.144936,0.775009 0.434952,1.065026 0.290016,0.290016 0.645047,0.435024 1.065023,0.435024 z m -1.079999,-4.62003 h 2.219975 c 0,-0.660025 0.07502,-1.18001 0.225,-1.560026 0.150048,-0.379945 0.574991,-0.900002 1.275047,-1.559954 0.519984,-0.519985 0.929952,-1.014986 1.229976,-1.4850025 0.300023,-0.4700166 0.449999,-1.0350014 0.449999,-1.6950264 0,-1.1199615 -0.410039,-1.9799955 -1.229975,-2.5799939 -0.820008,-0.5999985 -1.790063,-0.9000013 -2.910023,-0.9000013 -1.139975,0 -2.065031,0.3000028 -2.7750226,0.9000013 C 8.6349908,6.3000066 8.139991,7.0200004 7.8599831,7.8600256 l 1.9799991,0.779977 C 9.9399902,8.2800021 10.16499,7.8899776 10.514982,7.470001 c 0.349992,-0.4199766 0.885024,-0.6299937 1.605023,-0.6299937 0.640008,0 1.11996,0.1750251 1.44,0.5250176 0.319967,0.3499925 0.480023,0.734977 0.480023,1.1549536 0,0.4000325 -0.120024,0.7750091 -0.359999,1.1250015 -0.240048,0.3500645 -0.54,0.675001 -0.9,0.975025 -0.880056,0.779977 -1.420055,1.370018 -1.619999,1.769979 -0.200016,0.400032 -0.300024,1.130041 -0.300024,2.190027 z M 11.999981,24 C 10.340022,24 8.7799987,23.685 7.3199833,23.054999 5.8599968,22.424998 4.5899965,21.569997 3.509997,20.489995 2.4299975,19.409994 1.5749979,18.140056 0.94499814,16.680038 0.31499986,15.22002 0,13.659994 0,12.000031 0,10.339997 0.31499986,8.7800428 0.94499814,7.3200248 1.5749979,5.8600068 2.4299975,4.5900042 3.509997,3.5100027 4.5899965,2.4300012 5.8599968,1.575 7.3199833,0.94499915 8.7799987,0.31500044 10.340022,0 11.999981,0 13.660013,0 15.219964,0.31500044 16.679979,0.94499915 18.139995,1.575 19.410002,2.4300012 20.490002,3.5100027 21.570001,4.5900042 22.425001,5.8600068 23.055,7.3200248 23.685,8.7800428 24,10.339997 24,12.000031 c 0,1.659963 -0.315,3.219989 -0.945,4.680007 -0.629999,1.460018 -1.484999,2.729956 -2.564998,3.809957 -1.08,1.080002 -2.350007,1.935003 -3.810023,2.565004 C 15.219964,23.685 13.660013,24 11.999981,24 Z" fill="#333333"/>
</svg>
