<svg width="16" height="16" viewBox="0 0 16 16" version="1.2" xmlns="http://www.w3.org/2000/svg">
  <path d="M 5.1199888,12.000011 7.9999874,9.1200067 10.879986,12.000011 12.000018,10.880025 9.1200194,8.0000207 12.000018,5.1200169 10.879986,4.0000074 7.9999874,6.8799874 5.1199888,4.0000074 3.9999957,5.1200169 6.880004,8.0000207 3.9999957,10.880025 Z M 7.9999874,16 C 6.893348,16 5.8533325,15.79 4.8799889,15.369999 3.9066646,14.949999 3.0599977,14.379998 2.339998,13.659997 1.6199983,12.939996 1.0499986,12.093371 0.62999874,11.120025 0.20999991,10.14668 0,9.1066627 0,8.0000207 0,6.8933314 0.20999991,5.8533619 0.62999874,4.8800166 1.0499986,3.9066712 1.6199983,3.0600028 2.339998,2.3400018 3.0599977,1.6200008 3.9066646,1.05 4.8799889,0.62999947 5.8533325,0.21000029 6.893348,0 7.9999874,0 9.1066754,0 10.146643,0.21000029 11.119986,0.62999947 12.09333,1.05 12.940001,1.6200008 13.660001,2.3400018 c 0.72,0.720001 1.29,1.5666694 1.709999,2.5400148 0.42,0.9733453 0.63,2.0133148 0.63,3.1200041 0,1.106642 -0.21,2.1466593 -0.63,3.1200043 -0.419999,0.973346 -0.989999,1.819971 -1.709999,2.539972 -0.72,0.720001 -1.566671,1.290002 -2.540015,1.710002 C 10.146643,15.79 9.1066754,16 7.9999874,16 Z" fill="#c2423f" />
</svg>
