<svg viewBox="0 0 34 34" fill="none" xmlns="http://www.w3.org/2000/svg">
<path d="M10.9999 25.3333L16.9999 19.3333L22.9999 25.3333L25.3333 23L19.3333 17L25.3333 11L22.9999 8.66665L16.9999 14.6666L10.9999 8.66665L8.66658 11L14.6666 17L8.66658 23L10.9999 25.3333ZM16.9999 33.6666C14.6944 33.6666 12.5277 33.2291 10.4999 32.3541C8.47214 31.4791 6.70825 30.2916 5.20825 28.7916C3.70825 27.2916 2.52075 25.5278 1.64575 23.5C0.770752 21.4722 0.333252 19.3055 0.333252 17C0.333252 14.6944 0.770752 12.5278 1.64575 10.5C2.52075 8.4722 3.70825 6.70831 5.20825 5.20831C6.70825 3.70831 8.47214 2.52081 10.4999 1.64581C12.5277 0.770813 14.6944 0.333313 16.9999 0.333313C19.3055 0.333313 21.4721 0.770813 23.4999 1.64581C25.5277 2.52081 27.2916 3.70831 28.7916 5.20831C30.2916 6.70831 31.4791 8.4722 32.3541 10.5C33.2291 12.5278 33.6666 14.6944 33.6666 17C33.6666 19.3055 33.2291 21.4722 32.3541 23.5C31.4791 25.5278 30.2916 27.2916 28.7916 28.7916C27.2916 30.2916 25.5277 31.4791 23.4999 32.3541C21.4721 33.2291 19.3055 33.6666 16.9999 33.6666Z" fill="#C2423F"/>
</svg>
