<svg viewBox="0 0 24 24" width="24" height="24" fill="none" xmlns="http://www.w3.org/2000/svg" version="1.1">
  <path d="M 10.320006,17.519991 18.780002,9.05998 17.100027,7.3800011 10.320006,14.160034 6.8999929,10.74003 5.2199962,12.420008 Z M 11.999982,24 C 10.340022,24 8.7799984,23.684999 7.3199845,23.054999 5.8599966,22.424998 4.5899965,21.569996 3.5099969,20.489995 2.4299975,19.409994 1.5749979,18.140056 0.94499816,16.680037 0.31499984,15.220019 0,13.659993 0,12.000031 0,10.339997 0.31499984,8.7800431 0.94499816,7.320025 1.5749979,5.8600069 2.4299975,4.5900043 3.5099969,3.5100028 4.5899965,2.4300012 5.8599966,1.575 7.3199845,0.9449991 8.7799984,0.3150004 10.340022,0 11.999982,0 13.660013,0 15.219964,0.3150004 16.67998,0.9449991 18.139995,1.575 19.410001,2.4300012 20.490002,3.5100028 21.570001,4.5900043 22.425001,5.8600069 23.055,7.320025 23.684999,8.7800431 24,10.339997 24,12.000031 c 0,1.659962 -0.315001,3.219988 -0.945,4.680006 -0.629999,1.460019 -1.484999,2.729957 -2.564998,3.809958 -1.080001,1.080001 -2.350007,1.935003 -3.810022,2.565004 C 15.219964,23.684999 13.660013,24 11.999982,24 Z" fill="#358539"/>
</svg>
