<svg viewBox="0 0 24 24" width="24" height="24" fill="none" version="1.1" xmlns="http://www.w3.org/2000/svg">
  <path d="M 7.6799832,18.000016 11.999981,13.68001 16.319979,18.000016 18.000027,16.320037 13.680029,12.000031 18.000027,7.6800253 16.319979,6.000011 11.999981,10.319981 7.6799832,6.000011 5.9999935,7.6800253 10.320006,12.000031 5.9999935,16.320037 Z M 11.999981,24 C 10.340022,24 8.7799987,23.685 7.3199833,23.054999 5.8599968,22.424998 4.5899965,21.569997 3.509997,20.489995 2.4299975,19.409994 1.5749979,18.140056 0.9449981,16.680038 0.31499986,15.22002 0,13.659994 0,12.000031 0,10.339997 0.31499986,8.7800428 0.9449981,7.3200248 1.5749979,5.8600068 2.4299975,4.5900042 3.509997,3.5100027 4.5899965,2.4300012 5.8599968,1.575 7.3199833,0.9449992 8.7799987,0.31500044 10.340022,0 11.999981,0 c 1.660032,0 3.219983,0.31500044 4.679998,0.9449992 1.460016,0.6300008 2.730023,1.485002 3.810023,2.5650035 1.079999,1.0800015 1.934999,2.3500041 2.564998,3.8100221 0.63,1.460018 0.945,3.0199722 0.945,4.6800062 0,1.659963 -0.315,3.219989 -0.945,4.680007 -0.629999,1.460018 -1.484999,2.729956 -2.564998,3.809957 -1.08,1.080002 -2.350007,1.935003 -3.810023,2.565004 C 15.219964,23.685 13.660013,24 11.999981,24 Z" fill="#c2423f"/>
</svg>
