<svg width="16" height="16" viewBox="0 0 16 16" version="1.2" xmlns="http://www.w3.org/2000/svg">
  <path d="M 6.880004,11.679994 12.520001,6.0399867 11.400018,4.9200008 6.880004,9.4400227 4.5999953,7.16002 3.4799975,8.2800054 Z M 7.999988,16 C 6.893348,16 5.8533323,15.789999 4.8799897,15.369999 3.9066644,14.949999 3.0599977,14.379997 2.3399979,13.659997 1.6199983,12.939996 1.0499986,12.093371 0.62999878,11.120025 0.20999989,10.146679 0,9.106662 0,8.0000207 0,6.8933314 0.20999989,5.8533621 0.62999878,4.8800167 1.0499986,3.9066713 1.6199983,3.0600029 2.3399979,2.3400019 3.0599977,1.6200008 3.9066644,1.05 4.8799897,0.6299994 5.8533323,0.21000027 6.893348,0 7.999988,0 9.1066754,0 10.146643,0.21000027 11.119987,0.6299994 12.09333,1.05 12.940001,1.6200008 13.660001,2.3400019 c 0.72,0.720001 1.29,1.5666694 1.709999,2.5400148 0.419999,0.9733454 0.63,2.0133147 0.63,3.120004 0,1.1066413 -0.210001,2.1466583 -0.63,3.1200043 -0.419999,0.973346 -0.989999,1.819971 -1.709999,2.539972 -0.72,0.72 -1.566671,1.290002 -2.540014,1.710002 C 10.146643,15.789999 9.1066754,16 7.999988,16 Z" fill="#358539" />
</svg>
