<svg viewBox="0 0 24 24" width="24px" height="24px" fill="none" version="1.1" xmlns="http://www.w3.org/2000/svg">
  <path d="m 5.9999935,13.800034 c 0.5000038,0 0.9250052,-0.175032 1.2749899,-0.525025 C 7.6249752,12.925017 7.8000071,12.5 7.8000071,12.000031 c 0,-0.50004 -0.1750319,-0.924985 -0.5250237,-1.275049 -0.3499847,-0.349993 -0.7749861,-0.524953 -1.2749899,-0.524953 -0.4999966,0 -0.924998,0.17496 -1.274997,0.524953 -0.3499991,0.350064 -0.5250022,0.775009 -0.5250022,1.275049 0,0.499969 0.1750031,0.924986 0.5250022,1.274978 0.349999,0.349993 0.7750004,0.525025 1.274997,0.525025 z m 5.9999875,0 c 0.50004,0 0.924984,-0.175032 1.275048,-0.525025 0.349992,-0.349992 0.524951,-0.775009 0.524951,-1.274978 0,-0.50004 -0.174959,-0.924985 -0.524951,-1.275049 -0.350064,-0.349993 -0.775008,-0.524953 -1.275048,-0.524953 -0.499968,0 -0.924983,0.17496 -1.274975,0.524953 -0.349992,0.350064 -0.525024,0.775009 -0.525024,1.275049 0,0.499969 0.175032,0.924986 0.525024,1.274978 0.349992,0.349993 0.775007,0.525025 1.274975,0.525025 z m 6.000046,0 c 0.499967,0 0.924983,-0.175032 1.274975,-0.525025 0.349992,-0.349992 0.525024,-0.775009 0.525024,-1.274978 0,-0.50004 -0.175032,-0.924985 -0.525024,-1.275049 -0.349992,-0.349993 -0.775008,-0.524953 -1.274975,-0.524953 -0.50004,0 -0.925056,0.17496 -1.275048,0.524953 -0.349992,0.350064 -0.524952,0.775009 -0.524952,1.275049 0,0.499969 0.17496,0.924986 0.524952,1.274978 0.349992,0.349993 0.775008,0.525025 1.275048,0.525025 z M 11.999981,24 C 10.340022,24 8.7799987,23.685 7.3199833,23.054999 5.8599968,22.424998 4.5899965,21.569997 3.509997,20.489995 2.4299975,19.409994 1.5749979,18.140056 0.94499814,16.680038 0.31499986,15.22002 0,13.659994 0,12.000031 0,10.339997 0.31499986,8.7800428 0.94499814,7.3200248 1.5749979,5.8600068 2.4299975,4.5900042 3.509997,3.5100027 4.5899965,2.4300012 5.8599968,1.575 7.3199833,0.94499915 8.7799987,0.31500044 10.340022,0 11.999981,0 13.660013,0 15.219964,0.31500044 16.679979,0.94499915 18.139995,1.575 19.410002,2.4300012 20.490002,3.5100027 21.570001,4.5900042 22.425001,5.8600068 23.055,7.3200248 23.685,8.7800428 24,10.339997 24,12.000031 c 0,1.659963 -0.315,3.219989 -0.945,4.680007 -0.629999,1.460018 -1.484999,2.729956 -2.564998,3.809957 -1.08,1.080002 -2.350007,1.935003 -3.810023,2.565004 C 15.219964,23.685 13.660013,24 11.999981,24 Z" fill="#fe8e15"/>
</svg>
