<svg width="16" height="16" viewBox="0 0 16 16" version="1.2" xmlns="http://www.w3.org/2000/svg">
  <path d="m 3.9999957,9.2000227 c 0.3333359,0 0.6166701,-0.116688 0.8499933,-0.3500167 C 5.0833168,8.616678 5.2000048,8.3333334 5.2000048,8.0000207 5.2000048,7.6666607 5.0833168,7.383364 4.849989,7.149988 4.6166658,6.9166594 4.3333316,6.8000194 3.9999957,6.8000194 c -0.3333311,0 -0.6166653,0.11664 -0.849998,0.3499686 -0.2333328,0.233376 -0.3500015,0.5166727 -0.3500015,0.8500327 0,0.3333127 0.1166687,0.6166573 0.3500015,0.8499853 0.2333327,0.2333287 0.5166669,0.3500167 0.849998,0.3500167 z m 3.9999917,0 c 0.33336,0 0.616656,-0.116688 0.850032,-0.3500167 0.233328,-0.233328 0.3499673,-0.5166726 0.3499673,-0.8499853 0,-0.33336 -0.1166393,-0.6166567 -0.3499673,-0.8500327 -0.233376,-0.2333286 -0.516672,-0.3499686 -0.850032,-0.3499686 -0.333312,0 -0.6166554,0.11664 -0.8499834,0.3499686 -0.233328,0.233376 -0.350016,0.5166727 -0.350016,0.8500327 0,0.3333127 0.116688,0.6166573 0.350016,0.8499853 0.233328,0.2333287 0.5166714,0.3500167 0.8499834,0.3500167 z m 4.0000306,0 c 0.333311,0 0.616655,-0.116688 0.849983,-0.3500167 0.233328,-0.233328 0.350016,-0.5166726 0.350016,-0.8499853 0,-0.33336 -0.116688,-0.6166567 -0.350016,-0.8500327 -0.233328,-0.2333286 -0.516672,-0.3499686 -0.849983,-0.3499686 -0.33336,0 -0.616704,0.11664 -0.850032,0.3499686 -0.233328,0.233376 -0.349968,0.5166727 -0.349968,0.8500327 0,0.3333127 0.11664,0.6166573 0.349968,0.8499853 0.233328,0.2333287 0.516672,0.3500167 0.850032,0.3500167 z M 7.9999874,16 C 6.893348,16 5.8533325,15.79 4.8799889,15.369999 3.9066646,14.949999 3.0599977,14.379998 2.339998,13.659997 1.6199983,12.939996 1.0499986,12.093371 0.62999876,11.120025 0.20999991,10.14668 0,9.1066627 0,8.0000207 0,6.8933314 0.20999991,5.8533619 0.62999876,4.8800166 1.0499986,3.9066712 1.6199983,3.0600028 2.339998,2.3400018 3.0599977,1.6200008 3.9066646,1.05 4.8799889,0.62999944 5.8533325,0.21000029 6.893348,0 7.9999874,0 9.1066754,0 10.146643,0.21000029 11.119986,0.62999944 12.09333,1.05 12.940001,1.6200008 13.660001,2.3400018 c 0.72,0.720001 1.29,1.5666694 1.709999,2.5400148 0.42,0.9733453 0.63,2.0133148 0.63,3.1200041 0,1.106642 -0.21,2.1466593 -0.63,3.1200043 -0.419999,0.973346 -0.989999,1.819971 -1.709999,2.539972 -0.72,0.720001 -1.566671,1.290002 -2.540015,1.710002 C 10.146643,15.79 9.1066754,16 7.9999874,16 Z" fill="#fe8e15" />
</svg>
