<svg width="16" height="16" viewBox="0 0 16 16" version="1.2" xmlns="http://www.w3.org/2000/svg">
  <path d="m 7.9600034,12.800027 c 0.279984,0 0.516672,-0.09667 0.710016,-0.290016 0.193296,-0.193344 0.289968,-0.429984 0.289968,-0.710017 0,-0.279984 -0.096672,-0.516625 -0.289968,-0.709969 -0.193344,-0.193344 -0.430032,-0.290016 -0.710016,-0.290016 -0.279984,0 -0.5166714,0.09667 -0.7100154,0.290016 -0.193344,0.193344 -0.289968,0.429985 -0.289968,0.709969 0,0.280033 0.096624,0.516673 0.289968,0.710017 0.193344,0.193344 0.4300314,0.290016 0.7100154,0.290016 z M 7.240004,9.7200074 h 1.4799834 c 0,-0.4400167 0.050013,-0.7866734 0.15,-1.0400174 C 8.9700194,8.4266934 9.2533147,8.0799887 9.7200187,7.6400207 10.066675,7.293364 10.339987,6.9633634 10.540003,6.650019 c 0.200015,-0.3133444 0.299999,-0.6900009 0.299999,-1.1300176 0,-0.746641 -0.273359,-1.319997 -0.819983,-1.7199959 C 9.4733467,3.4000065 8.8266434,3.2000046 8.0800034,3.2000046 7.32002,3.2000046 6.703316,3.4000065 6.2299883,3.8000055 5.7566606,4.2000044 5.4266607,4.6800003 5.2399888,5.2400171 L 6.5599882,5.7600018 C 6.6266602,5.5200014 6.77666,5.2599851 7.009988,4.9800007 7.243316,4.7000163 7.600004,4.5600049 8.0800034,4.5600049 c 0.426672,0 0.74664,0.1166834 0.96,0.3500117 0.2133113,0.2333284 0.3200153,0.4899847 0.3200153,0.7699691 0,0.2666883 -0.080016,0.5166727 -0.2399993,0.750001 -0.160032,0.2333763 -0.36,0.4500007 -0.6,0.6500167 C 7.9333154,7.599988 7.573316,7.9933487 7.44002,8.2599894 7.306676,8.5266774 7.240004,9.01335 7.240004,9.7200074 Z M 7.9999874,16 C 6.893348,16 5.8533325,15.79 4.8799889,15.369999 3.9066646,14.949999 3.0599977,14.379998 2.339998,13.659997 1.6199983,12.939996 1.0499986,12.093371 0.62999876,11.120025 0.20999991,10.14668 0,9.1066627 0,8.0000207 0,6.8933314 0.20999991,5.8533619 0.62999876,4.8800166 1.0499986,3.9066712 1.6199983,3.0600028 2.339998,2.3400018 3.0599977,1.6200008 3.9066646,1.05 4.8799889,0.62999944 5.8533325,0.21000029 6.893348,0 7.9999874,0 9.1066754,0 10.146643,0.21000029 11.119986,0.62999944 12.09333,1.05 12.940001,1.6200008 13.660001,2.3400018 c 0.72,0.720001 1.29,1.5666694 1.709999,2.5400148 0.42,0.9733453 0.63,2.0133148 0.63,3.1200041 0,1.106642 -0.21,2.1466593 -0.63,3.1200043 -0.419999,0.973346 -0.989999,1.819971 -1.709999,2.539972 -0.72,0.720001 -1.566671,1.290002 -2.540015,1.710002 C 10.146643,15.79 9.1066754,16 7.9999874,16 Z" fill="#333333" />
</svg>
