<?xml version="1.0" encoding="UTF-8"?>
<svg version="1.1" xmlns="http://www.w3.org/2000/svg" width="1334" height="751">
<path d="M0 0 C440.22 0 880.44 0 1334 0 C1334 247.83 1334 495.66 1334 751 C893.78 751 453.56 751 0 751 C0 503.17 0 255.34 0 0 Z " fill="#FEFEFE" transform="translate(0,0)"/>
<path d="M0 0 C0.98858002 -0.00412399 1.97716003 -0.00824799 2.99569702 -0.01249695 C4.0789476 -0.00171112 5.16219818 0.00907471 6.27827454 0.02018738 C7.41988037 0.0197493 8.56148621 0.01931122 9.73768616 0.01885986 C13.52002424 0.02095384 17.30192187 0.04431428 21.08418274 0.0677948 C23.7030615 0.07338857 26.3219434 0.0776597 28.94082642 0.08065796 C35.13505539 0.08998506 41.32912567 0.11460771 47.52328473 0.14470643 C55.2668609 0.1815179 63.0104628 0.19794747 70.75410461 0.21427917 C84.56868139 0.24350492 98.38291183 0.30359989 112.19746399 0.36076355 C112.19746399 38.64076355 112.19746399 76.92076355 112.19746399 116.36076355 C127.47156555 107.98701355 142.74566711 99.61326355 158.48262024 90.98576355 C168.46241371 85.66982819 178.44690657 80.36875126 188.46504211 75.12638855 C193.75953791 72.35498394 199.05231725 69.58034236 204.34223938 66.80021667 C205.33562461 66.27840199 205.33562461 66.27840199 206.34907824 65.74604559 C215.50009323 60.93390917 224.57899377 56.00647832 233.60974221 50.9724946 C249.26295716 42.24714762 265.03332448 33.78654725 281.04512024 25.73576355 C281.67627701 25.41773584 282.30743379 25.09970814 282.95771652 24.77204323 C344.34349211 -6.08004281 403.82016647 -6.3066388 471.19746399 0.36076355 C471.21552377 2.73555406 471.22863074 5.11020453 471.2389679 7.48503113 C471.24731407 8.48261822 471.24731407 8.48261822 471.25582886 9.50035858 C471.27529695 15.48061416 470.61977275 21.17287144 469.57246399 27.04826355 C469.30731995 28.57773621 469.30731995 28.57773621 469.03681946 30.1381073 C467.20918645 40.14264815 464.46582077 49.74144274 461.19746399 59.36076355 C460.96833313 60.05572937 460.73920227 60.75069519 460.50312805 61.46672058 C454.99914418 78.01461984 446.70902536 96.84920218 434.19746399 109.36076355 C450.83642659 109.47813304 467.47525268 109.56601182 484.11453056 109.61982441 C491.84234929 109.64548683 499.56990919 109.68040482 507.29756165 109.73796082 C514.04157204 109.78816617 520.78539479 109.82014121 527.52958691 109.83120602 C531.09291231 109.83766286 534.65570141 109.8525795 538.218853 109.88941383 C553.57521221 110.04200376 567.68260778 109.81305715 582.19746399 104.36076355 C583.67685959 103.80746117 583.67685959 103.80746117 585.18614197 103.24298096 C587.43814659 102.35545051 589.59119001 101.37187639 591.75996399 100.29826355 C592.92628357 99.73135803 592.92628357 99.73135803 594.11616516 99.15299988 C602.77741017 94.78858895 610.56652437 89.31671289 618.19746399 83.36076355 C618.77738098 82.90926941 619.35729797 82.45777527 619.95478821 81.99259949 C628.16224488 75.49453155 635.58473041 68.16315576 643.00996399 60.79826355 C643.8816925 59.9359613 644.75342102 59.07365906 645.65156555 58.18522644 C651.58859621 52.21825073 656.9609457 45.94605306 662.19746399 39.36076355 C663.22285232 38.10655816 664.24993749 36.85373609 665.27949524 35.60295105 C672.15193235 27.15816317 678.53672448 18.43914576 684.71870422 9.47795105 C686.85353409 6.42144707 689.03047306 3.39455085 691.19746399 0.36076355 C726.83746399 0.36076355 762.47746399 0.36076355 799.19746399 0.36076355 C799.19746399 122.13076355 799.19746399 243.90076355 799.19746399 369.36076355 C358.97746399 369.36076355 -81.24253601 369.36076355 -534.80253601 369.36076355 C-534.80253601 272.34076355 -534.80253601 175.32076355 -534.80253601 75.36076355 C-491.90253601 75.36076355 -449.00253601 75.36076355 -404.80253601 75.36076355 C-404.80253601 79.32076355 -404.80253601 83.28076355 -404.80253601 87.36076355 C-403.82301971 86.50810913 -402.84350342 85.65545471 -401.83430481 84.77696228 C-388.22923684 73.86559331 -376.14331332 73.75930809 -359.23222351 74.18888855 C-356.61240052 74.21131913 -353.99252658 74.22837742 -351.37263489 74.24034119 C-345.23084442 74.27729567 -339.09168901 74.37527573 -332.95104706 74.49653506 C-325.94751097 74.63176184 -318.94383317 74.69691291 -311.93931174 74.75688028 C-297.55900772 74.8815274 -283.18089759 75.09438387 -268.80253601 75.36076355 C-268.80253601 82.29076355 -268.80253601 89.22076355 -268.80253601 96.36076355 C-248.66981893 96.29949811 -228.53723485 96.22254657 -208.40465927 96.12504864 C-199.05585104 96.08016511 -189.70708027 96.04073342 -180.35820007 96.014328 C-172.20564169 95.99128749 -164.05320261 95.95782227 -155.90073895 95.91206199 C-151.58776179 95.88821111 -147.27490217 95.86942921 -142.96186066 95.86314964 C-138.89392086 95.85706174 -134.82628151 95.83692978 -130.75845337 95.80648804 C-129.27351221 95.79776675 -127.78853168 95.79397283 -126.30356598 95.79575539 C-103.07828728 95.81481537 -83.68616096 87.17059909 -66.80253601 71.36076355 C-63.57901657 67.84788882 -60.67042602 64.16664766 -57.80253601 60.36076355 C-57.13737976 59.53318542 -56.47222351 58.7056073 -55.78691101 57.85295105 C-44.16987358 42.89715877 -37.15974468 25.09566164 -34.80253601 6.36076355 C-33.85378601 6.69076355 -32.90503601 7.02076355 -31.92753601 7.36076355 C-23.68771393 9.63210283 -17.44130051 8.76157989 -9.93144226 4.7474823 C-7.7902014 3.49612559 -7.7902014 3.49612559 -6.46963787 1.79664135 C-4.23579844 -0.12736852 -2.92317582 -0.00939928 0 0 Z " fill="#FEFEFE" transform="translate(534.8025360107422,381.6392364501953)"/>
<path d="M0 0 C6.74796042 2.24932014 6.74796042 2.24932014 9.91026878 4.00806522 C10.63054072 4.40505226 11.35081265 4.80203929 12.09291101 5.21105623 C12.86746125 5.64422765 13.64201149 6.07739907 14.44003296 6.5236969 C16.18201556 7.48554697 17.92405406 8.44729579 19.6661396 9.40895939 C20.5942395 9.92360347 21.52233941 10.43824755 22.47856355 10.96848691 C51.88592253 27.25496236 81.56933974 43.01991068 111.375 58.5625 C112.0176239 58.89789927 112.66024779 59.23329853 113.32234514 59.57886142 C206.61377792 109.71022656 206.61377792 109.71022656 310.125 122.5625 C310.7940055 122.52061759 311.463011 122.47873517 312.15228939 122.43558359 C328.30174042 121.40274074 344.18102712 119.42301699 360 116 C359.48891652 111.96807625 358.97035529 107.93718427 358.44551086 103.9070282 C358.26878118 102.54234952 358.09392723 101.17742631 357.92115784 99.8122406 C354.01895066 69.02186318 344.99322465 40.46455727 327.6875 14.59765625 C326 12 326 12 326 11 C342.15198914 10.90615642 358.30388853 10.83582627 374.45608521 10.79275131 C381.95747036 10.77221063 389.45868519 10.74425478 396.95996094 10.69824219 C403.50545249 10.65811182 410.05082056 10.63250563 416.59643173 10.62364602 C420.05565449 10.61847506 423.51452429 10.60650419 426.97363281 10.57707977 C454.64049126 10.35082495 454.64049126 10.35082495 468 15 C468.80356934 15.26980682 469.60713867 15.53961365 470.43505859 15.81759644 C488.87899553 22.54081269 504.21654585 34.68007338 518.54296875 47.765625 C520.15464463 49.23125076 521.78192582 50.67993549 523.42578125 52.109375 C542.9638222 69.18568511 558.54748972 90.34609542 573.4375 111.4375 C574.01669189 112.25355713 574.59588379 113.06961426 575.19262695 113.91040039 C576.83128839 116.25171985 578.42855408 118.61310106 580 121 C580.51320801 121.77617676 581.02641602 122.55235352 581.55517578 123.35205078 C583.81890161 127.03811071 584.98811691 129.25928747 585.05859375 133.65234375 C583.85839512 137.44780583 582.28275688 140.25747789 580.0625 143.5625 C579.66281006 144.1618335 579.26312012 144.76116699 578.85131836 145.37866211 C577.58408849 147.26437691 576.29605211 149.13399726 575 151 C574.38511719 151.88945312 574.38511719 151.88945312 573.7578125 152.796875 C564.5220416 166.09167898 554.59441927 178.76494283 544 191 C543.33097656 191.78246094 542.66195312 192.56492187 541.97265625 193.37109375 C529.92573626 207.13559442 516.92259405 220.36802792 502 231 C501.4239502 231.42039551 500.84790039 231.84079102 500.25439453 232.27392578 C493.04161577 237.50610593 485.57002849 241.9620915 477.5625 245.875 C476.84876221 246.23223145 476.13502441 246.58946289 475.3996582 246.95751953 C458.70748 254.7785755 441.97462411 254.55306071 423.92498589 254.40557575 C420.29625381 254.3802684 416.667503 254.37819734 413.03869629 254.37347412 C406.19319768 254.36112926 399.34796002 254.32842511 392.5025754 254.28807616 C384.69827868 254.24309107 376.89396833 254.22130479 369.08957386 254.20129442 C353.05956572 254.15968293 337.02981674 254.08949964 321 254 C321.95931346 252.55577446 322.91932144 251.11201022 323.87962341 249.66844177 C324.41415351 248.86439628 324.94868361 248.06035078 325.49941158 247.23194027 C327.12533029 244.81358664 328.81857535 242.45232291 330.53515625 240.09765625 C347.98134088 215.2245048 355.27034159 183.90865525 358.04931641 154.12597656 C358.1870623 152.66407394 358.1870623 152.66407394 358.32759094 151.17263794 C358.55271723 148.78184984 358.77682484 146.39097088 359 144 C290.8155343 137.96561386 231.28368801 139.01577002 169.35546875 170.25390625 C168.73025465 170.5685854 168.10504056 170.88326454 167.46088058 171.20747942 C151.61168852 179.19786384 136.02887713 187.64823968 120.52781689 196.29097021 C111.55960867 201.28539573 102.52623425 206.14327804 93.44116211 210.92163086 C92.78864982 211.26487263 92.13613752 211.6081144 91.46385213 211.96175743 C88.18524926 213.68552668 84.90549773 215.40709656 81.62510145 217.12745011 C75.27505552 220.458134 68.93160301 223.80129563 62.59162903 227.15110779 C61.67574975 227.63498797 61.67574975 227.63498797 60.74136785 228.12864351 C45.55033596 236.16043719 30.47414125 244.40200495 15.43417358 252.71305847 C14.07944796 253.45897787 14.07944796 253.45897787 12.69735414 254.21996635 C11.02482099 255.1411906 9.35420584 256.06590908 7.68589276 256.9947539 C2.22468479 260 2.22468479 260 0 260 C0 221.72 0 183.44 0 144 C-21.61026204 144.00645784 -21.61026204 144.00645784 -43.22012901 144.07131577 C-50.94972524 144.10453402 -58.67901652 144.12892208 -66.40869141 144.12011719 C-73.18462702 144.11243017 -79.95988337 144.13600892 -86.73568726 144.17855453 C-89.31917979 144.18968608 -91.90273926 144.19038559 -94.48623657 144.18042374 C-98.10874183 144.16824718 -101.72923336 144.19334408 -105.3515625 144.22705078 C-106.4168367 144.21482986 -107.4821109 144.20260895 -108.57966614 144.1900177 C-115.8966186 144.31249063 -119.62203382 146.14468941 -125 151 C-129.64206286 153.68751008 -134.77309976 153.56002503 -140 153 C-142.5465217 152.21888607 -144.62472631 151.23927323 -147 150 C-146.94392578 151.48113281 -146.94392578 151.48113281 -146.88671875 152.9921875 C-146.94279599 173.33293102 -160.2718797 194.07358604 -173 209 C-173.88751953 210.11181641 -173.88751953 210.11181641 -174.79296875 211.24609375 C-186.92671306 226.03139263 -205.95159519 237.44652752 -225 240 C-230.1535205 240.27031599 -235.29727395 240.25370506 -240.45556641 240.22705078 C-242.01870399 240.22643706 -243.58184214 240.22670689 -245.14497948 240.2277813 C-249.30474442 240.22823005 -253.46439268 240.21669698 -257.62413025 240.20256042 C-261.53742818 240.19111176 -265.45069872 240.190631 -269.36401367 240.18920898 C-280.78435771 240.17874328 -292.20468036 240.15082077 -303.625 240.125 C-329.15875 240.08375 -354.6925 240.0425 -381 240 C-381 166.74 -381 93.48 -381 18 C-356.188125 17.95875 -331.37625 17.9175 -305.8125 17.875 C-297.9953833 17.85679199 -290.1782666 17.83858398 -282.12426758 17.81982422 C-272.5345459 17.81079102 -272.5345459 17.81079102 -268.03666687 17.80911255 C-264.91387556 17.80725895 -261.79115314 17.79980287 -258.66838074 17.78884888 C-254.67104302 17.77501531 -250.67380384 17.77103883 -246.67644441 17.77385545 C-245.21819962 17.77326746 -243.75995098 17.76937042 -242.30172694 17.76156974 C-215.93746849 17.62721693 -196.74646054 25.48529515 -178 44 C-160.07537121 61.89553037 -149.92562897 84.15038747 -146 109 C-145.28199219 108.67902344 -144.56398438 108.35804688 -143.82421875 108.02734375 C-138.33249272 106.02966194 -132.67423401 106.04096436 -127.16796875 108.015625 C-120.72736513 111.14634301 -120.72736513 111.14634301 -118.66929913 113.56174946 C-116.43900869 115.4833442 -115.1173152 115.38307977 -112.19746399 115.39872742 C-110.71459396 115.41753464 -110.71459396 115.41753464 -109.20176697 115.4367218 C-108.11851639 115.43528671 -107.03526581 115.43385162 -105.91918945 115.43237305 C-104.2067807 115.44766052 -104.2067807 115.44766052 -102.45977783 115.46325684 C-98.67756316 115.49350745 -94.89560125 115.50267142 -91.11328125 115.51171875 C-88.49439138 115.52855644 -85.87550964 115.54670543 -83.25663757 115.56611633 C-77.06251177 115.60981035 -70.86841236 115.63833937 -64.67417926 115.66143972 C-56.93048715 115.69112773 -49.18694246 115.74102315 -41.44335938 115.79101562 C-27.62895081 115.88011189 -13.8146211 115.93860168 0 116 C0 77.72 0 39.44 0 0 Z " fill="#1C0F5F" transform="translate(647,238)"/>
<path d="M0 0 C24.811875 -0.04125 49.62375 -0.0825 75.1875 -0.125 C83.0046167 -0.14320801 90.8217334 -0.16141602 98.87573242 -0.18017578 C108.4654541 -0.18920898 108.4654541 -0.18920898 112.96333313 -0.19088745 C116.08612444 -0.19274105 119.20884686 -0.20019713 122.33161926 -0.21115112 C126.32895698 -0.22498469 130.32619616 -0.22896117 134.32355559 -0.22614455 C135.78180038 -0.22673254 137.24004902 -0.23062958 138.69827306 -0.23843026 C165.06253151 -0.37278307 184.25353946 7.48529515 203 26 C220.92462879 43.89553037 231.07437103 66.15038747 235 91 C235.71800781 90.67902344 236.43601562 90.35804688 237.17578125 90.02734375 C243.68512459 87.65949133 250.13900961 88.22605678 256.375 91.125 C263.01021598 94.8684816 266.67187093 99.64801346 269 107 C270.16779549 114.60992005 268.47980076 120.75412394 264 127 C258.75938468 132.11382624 253.46943211 135.03597771 246.125 135.3125 C241.3928605 135.23457555 238.17214546 134.17677154 234 132 C234.05607422 133.48113281 234.05607422 133.48113281 234.11328125 134.9921875 C234.05720401 155.33293102 220.7281203 176.07358604 208 191 C207.11248047 192.11181641 207.11248047 192.11181641 206.20703125 193.24609375 C194.07328694 208.03139263 175.04840481 219.44652752 156 222 C150.8464795 222.27031599 145.70272605 222.25370506 140.54443359 222.22705078 C138.98129601 222.22643706 137.41815786 222.22670689 135.85502052 222.2277813 C131.69525558 222.22823005 127.53560732 222.21669698 123.37586975 222.20256042 C119.46257182 222.19111176 115.54930128 222.190631 111.63598633 222.18920898 C100.21564229 222.17874328 88.79531964 222.15082077 77.375 222.125 C51.84125 222.08375 26.3075 222.0425 0 222 C0 148.74 0 75.48 0 0 Z " fill="#1C0F5F" transform="translate(266,256)"/>
<path d="M0 0 C42.9 0 85.8 0 130 0 C130 4.29 130 8.58 130 13 C130.9795163 12.14734558 131.95903259 11.29469116 132.9682312 10.41619873 C146.57247674 -0.49451064 158.65483171 -0.60593767 175.5703125 -0.171875 C177.89506566 -0.15418545 180.21986698 -0.14197178 182.54467773 -0.13525391 C191.07219062 -0.07287186 199.59867382 0.09466347 208.125 0.25 C236.773125 0.62125 236.773125 0.62125 266 1 C266 52.15 266 103.3 266 156 C208 155.8125 208 155.8125 189.7734375 155.66723633 C184.32101686 155.67707913 184.32101686 155.67707913 178.86865234 155.70146179 C176.46430316 155.70529472 174.05985568 155.68775278 171.65576172 155.6525116 C154.87198489 155.42632526 144.8084846 156.93553292 132 168 C131.34 168 130.68 168 130 168 C130 164.04 130 160.08 130 156 C87.1 156 44.2 156 0 156 C0 104.52 0 53.04 0 0 Z " fill="#FEFEFE" transform="translate(0,301)"/>
<path d="M0 0 C6.74796042 2.24932014 6.74796042 2.24932014 9.91026878 4.00806522 C10.99067668 4.60354577 10.99067668 4.60354577 12.09291101 5.21105623 C12.86746125 5.64422765 13.64201149 6.07739907 14.44003296 6.5236969 C16.18201556 7.48554697 17.92405406 8.44729579 19.6661396 9.40895939 C21.05828946 10.18092551 21.05828946 10.18092551 22.47856355 10.96848691 C51.88592253 27.25496236 81.56933974 43.01991068 111.375 58.5625 C112.33893584 59.0655989 112.33893584 59.0655989 113.32234514 59.57886142 C206.61377792 109.71022656 206.61377792 109.71022656 310.125 122.5625 C310.7940055 122.52061759 311.463011 122.47873517 312.15228939 122.43558359 C328.33606349 121.40054559 344.12748926 119.30807845 360 116 C360 126.89 360 137.78 360 149 C359.67 149 359.34 149 359 149 C359 147.35 359 145.7 359 144 C290.8155343 137.96561386 231.28368801 139.01577002 169.35546875 170.25390625 C168.73025465 170.5685854 168.10504056 170.88326454 167.46088058 171.20747942 C151.61168852 179.19786384 136.02887713 187.64823968 120.52781689 196.29097021 C111.55960867 201.28539573 102.52623425 206.14327804 93.44116211 210.92163086 C92.78864982 211.26487263 92.13613752 211.6081144 91.46385213 211.96175743 C88.18524926 213.68552668 84.90549773 215.40709656 81.62510145 217.12745011 C75.27505552 220.458134 68.93160301 223.80129563 62.59162903 227.15110779 C61.98104284 227.47369457 61.37045665 227.79628136 60.74136785 228.12864351 C45.55033596 236.16043719 30.47414125 244.40200495 15.43417358 252.71305847 C14.07944796 253.45897787 14.07944796 253.45897787 12.69735414 254.21996635 C11.02482099 255.1411906 9.35420584 256.06590908 7.68589276 256.9947539 C2.22468479 260 2.22468479 260 0 260 C0 221.72 0 183.44 0 144 C-38.61 144 -77.22 144 -117 144 C-115.68 141.03 -114.36 138.06 -113 135 C-112.42518482 132.34640539 -112.42518482 132.34640539 -112.5625 130 C-112.56378906 129.2575 -112.56507813 128.515 -112.56640625 127.75 C-113.20192471 123.71932439 -114.70964231 119.87107306 -116 116 C-77.72 116 -39.44 116 0 116 C0 77.72 0 39.44 0 0 Z " fill="#FE1F80" transform="translate(647,238)"/>
<path d="M0 0 C1.70886979 1.08248691 3.41706871 2.16603294 5.125 3.25 C6.07632813 3.85328125 7.02765625 4.4565625 8.0078125 5.078125 C11 7 11 7 13.46170044 9.08599854 C18.06039997 12.12653972 23.27868442 11.5704531 28.60498047 11.54589844 C29.76653152 11.55623611 30.92808258 11.56657379 32.12483215 11.57722473 C35.95575848 11.60667066 39.78615686 11.60815236 43.6171875 11.609375 C46.27664905 11.62435543 48.93605555 11.64088773 51.5954895 11.65948486 C57.87453842 11.69999382 64.15348362 11.72037346 70.43264306 11.73345876 C77.5838877 11.7493462 84.73495627 11.78776907 91.88609862 11.82805204 C106.59068066 11.91038101 121.29523186 11.96154229 136 12 C136 21.24 136 30.48 136 40 C130.76382813 39.95903198 130.76382813 39.95903198 125.421875 39.91723633 C113.83893454 39.83471142 102.25630376 39.81270904 90.67312622 39.82121754 C83.65562372 39.8249163 76.63929576 39.80849642 69.62207031 39.74291992 C62.8393295 39.67959342 56.05847621 39.67470754 49.2755127 39.70416832 C46.69854991 39.70605978 44.12149515 39.6889471 41.5447998 39.65177345 C24.80798205 39.42584355 14.77176391 40.96725368 2 52 C1.34 52 0.68 52 0 52 C0 48.04 0 44.08 0 40 C-42.9 40 -85.8 40 -130 40 C-130 30.76 -130 21.52 -130 12 C-87.1 12 -44.2 12 0 12 C0 8.04 0 4.08 0 0 Z " fill="#FEC003" transform="translate(130,417)"/>
<path d="M0 0 C1.87640133 1.08090433 3.75105424 2.16484406 5.625 3.25 C6.66914063 3.85328125 7.71328125 4.4565625 8.7890625 5.078125 C12 7 12 7 14.48110962 9.08599854 C19.04840461 12.11740095 24.21685165 11.570526 29.51318359 11.54589844 C31.24087982 11.56140495 31.24087982 11.56140495 33.003479 11.57722473 C36.80194094 11.60666883 40.59987037 11.60815232 44.3984375 11.609375 C47.0354616 11.62435546 49.67247632 11.64108231 52.30947876 11.65948486 C58.53540371 11.6999925 64.76122406 11.72037314 70.98726046 11.73345876 C78.07804755 11.74934665 85.16865708 11.7877697 92.259341 11.82805204 C106.83951059 11.91037921 121.41964676 11.96154166 136 12 C136 21.24 136 30.48 136 40 C132.50398193 39.9779248 129.00796387 39.95584961 125.40600586 39.93310547 C113.81105281 39.86723774 102.21639784 39.85626384 90.62131405 39.87302971 C83.59604236 39.88186521 76.5717236 39.8723983 69.54663086 39.81835938 C62.75747273 39.76618856 55.96991103 39.76698791 49.18063545 39.79904556 C46.60007909 39.80277558 44.01943384 39.78922398 41.43906975 39.75750351 C25.50299888 39.57498315 15.25512915 40.48861671 3 51 C2.01 51.33 1.02 51.66 0 52 C0 47.71 0 43.42 0 39 C-42.9 39 -85.8 39 -130 39 C-130 30.09 -130 21.18 -130 12 C-87.1 12 -44.2 12 0 12 C0 8.04 0 4.08 0 0 Z " fill="#FEC002" transform="translate(130,262)"/>
<path d="M0 0 C42.9 0 85.8 0 130 0 C130 9.24 130 18.48 130 28 C87.1 28 44.2 28 0 28 C0 18.76 0 9.52 0 0 Z " fill="#FEC002" transform="translate(0,429)"/>
<path d="M0 0 C42.9 0 85.8 0 130 0 C130 8.91 130 17.82 130 27 C87.1 27 44.2 27 0 27 C0 18.09 0 9.18 0 0 Z " fill="#FEBF00" transform="translate(0,274)"/>
<path d="M0 0 C38.61 0 77.22 0 117 0 C117 9.24 117 18.48 117 28 C78.06 28 39.12 28 -1 28 C0.98 23.545 0.98 23.545 3 19 C3.57481518 16.34640539 3.57481518 16.34640539 3.4375 14 C3.43621094 13.2575 3.43492187 12.515 3.43359375 11.75 C2.79807529 7.71932439 1.29035769 3.87107306 0 0 Z " fill="#FEBF02" transform="translate(531,354)"/>
<path d="M0 0 C41.58 0 83.16 0 126 0 C126 10.89 126 21.78 126 33 C125.67 33 125.34 33 125 33 C125 31.35 125 29.7 125 28 C83.75 28 42.5 28 0 28 C2.9777334 25.76669995 5.43226283 24.15563259 8.6953125 22.51953125 C9.57574219 22.07802734 10.45617187 21.63652344 11.36328125 21.18164062 C12.27464844 20.72982422 13.18601562 20.27800781 14.125 19.8125 C15.04410156 19.34908203 15.96320312 18.88566406 16.91015625 18.40820312 C17.78800781 17.97056641 18.66585937 17.53292969 19.5703125 17.08203125 C20.37227051 16.68218018 21.17422852 16.2823291 22.00048828 15.87036133 C24 15 24 15 26 15 C26 14.34 26 13.68 26 13 C24.83597656 12.66355469 24.83597656 12.66355469 23.6484375 12.3203125 C18.76855416 10.554359 14.24466738 8.22766941 9.625 5.875 C8.69816406 5.40707031 7.77132812 4.93914062 6.81640625 4.45703125 C4.54240594 3.30830944 2.27036718 2.15588119 0 1 C0 0.67 0 0.34 0 0 Z " fill="#FEC003" transform="translate(881,354)"/>
<path d="M0 0 C36.63 0 73.26 0 111 0 C111 9.24 111 18.48 111 28 C75.36 28 39.72 28 3 28 C4.65 25.03 6.3 22.06 8 19 C8.58158167 11.29404285 4.09902291 7.02689641 0 0 Z " fill="#FEC002" transform="translate(1223,354)"/>
<path d="M0 0 C13.5 7.875 13.5 7.875 19.078125 11.62109375 C19.66043884 12.01071793 20.24275269 12.4003421 20.8427124 12.80177307 C22.64739766 14.01035951 24.44875845 15.22378893 26.25 16.4375 C27.49587339 17.27311511 28.74196611 18.10840329 29.98828125 18.94335938 C32.994714 20.95849414 35.99819431 22.97797702 39 25 C37.60262421 29.19212736 34.61280707 30.50799458 31.04296875 32.78125 C29.99391106 33.46338562 29.99391106 33.46338562 28.92366028 34.15930176 C26.68320504 35.6139868 24.43566877 37.0572709 22.1875 38.5 C19.95161302 39.9450379 17.71722664 41.39236248 15.48347473 42.84069824 C14.09270675 43.74133023 12.70042258 44.63962637 11.30644226 45.53527832 C8.68764024 47.22265684 6.13477871 48.89615711 3.6652832 50.79882812 C2 52 2 52 0 52 C0 34.84 0 17.68 0 0 Z " fill="#1E115F" transform="translate(130,262)"/>
<path d="M0 0 C6.51504533 4.14593794 13.02339699 8.29542799 19.5 12.5 C25.97921043 16.69993099 32.47529801 20.87097693 39 25 C37.52493685 28.80356676 35.62148474 30.15948122 32.16015625 32.22265625 C27.95705757 34.79171199 23.82661984 37.42321918 19.74609375 40.18359375 C18.70775391 40.88291016 17.66941406 41.58222656 16.59960938 42.30273438 C14.45470489 43.75077675 12.31152957 45.20138311 10.16992188 46.65429688 C9.14318359 47.34458984 8.11644531 48.03488281 7.05859375 48.74609375 C6.13361084 49.37185303 5.20862793 49.9976123 4.25561523 50.64233398 C2 52 2 52 0 52 C0 34.84 0 17.68 0 0 Z " fill="#1E115E" transform="translate(130,417)"/>
</svg>
