<svg xmlns="http://www.w3.org/2000/svg" xmlns:xlink="http://www.w3.org/1999/xlink" viewBox="0 0 446.5 446.5"><defs><style>.a{fill:none;}.b{fill:#fff;}.c{fill:#0f182d;}.d{clip-path:url(#a);}.e{clip-path:url(#b);}.f{opacity:0.72;}.g{fill:#2d59b2;}.h{clip-path:url(#c);}.i{fill:#009941;}.j{opacity:0.74;}.k{fill:#f5ab40;}.l{opacity:0.5;}.m{fill:#ececec;}.n{fill:#2c4c9b;}.o{fill:#c6c6c5;isolation:isolate;opacity:0.37;}.p{fill:#9c9b9b;}.q{clip-path:url(#f);}.r{fill:#868686;}.s{fill:#d9d9d9;}.t{clip-path:url(#i);}.u{fill:#eb5f9e;}.v{fill:#dbdddc;}.w{fill:#b2b2b2;}.x{fill:#ff3369;}</style><clipPath id="a"><circle class="a" cx="223.3" cy="223.3" r="175.2"/></clipPath><clipPath id="b"><circle class="a" cx="223.6" cy="223.5" r="176.8"/></clipPath><clipPath id="c"><circle class="a" cx="223.1" cy="150.8" r="87.8"/></clipPath><clipPath id="f"><path class="a" d="M277.7,284a5.78,5.78,0,0,0-4.8-.6c-2.4.7-4.7,2.4-6.9,3.7L238.7,303c-2.4,1.4-5,2.6-7.1,4.5a12.39,12.39,0,0,0-1.8,2.2l.4-6.1s-1.8-3.9-3.7-3.8a3.92,3.92,0,0,0-3.8,3.7c-1.2,14.9-.3,29.8,1.1,44.7l1.3,12.7a3.74,3.74,0,0,0,5.5,3.4l77.3-33a3.73,3.73,0,0,0,1.9-2.8,3.58,3.58,0,0,0-1-3.1l-19-25.7L280.4,287a9.59,9.59,0,0,0-2.7-3Zm-10.9,39.3c.1.1.2.1.4.2-.2.1-.4.3-.6.4A1.42,1.42,0,0,0,266.8,323.3Zm12.6-.1.3.3c-.2.1-.3.2-.5.3.1-.2.1-.4.2-.6Zm-10.9-23.9a.31.31,0,0,0-.2.1C268.3,299.3,268.4,299.3,268.5,299.3Zm0,0,.6.6a4.05,4.05,0,0,0-.9-.5A.49.49,0,0,0,268.5,299.3Zm-32.2,14.4Zm52.8,11.2.3.3c-.1.1-.2.1-.3.2A.45.45,0,0,1,289.1,324.9Zm-13.8-32.5a3.36,3.36,0,0,0-2.6-.5l1.5-.9A17.1,17.1,0,0,0,275.3,292.4Zm-.5-1.7C275.1,290.6,275.1,290.7,274.8,290.7Z"/></clipPath><clipPath id="i"><path class="a" d="M127.1,225.5l157.5-68.4a3.44,3.44,0,0,1,4.6,1.8l48.1,110.7a3.44,3.44,0,0,1-1.8,4.6L178,342.6a3.44,3.44,0,0,1-4.6-1.8L125.3,230.1a3.44,3.44,0,0,1,1.8-4.6Z"/></clipPath></defs><circle class="b" cx="223.3" cy="223.3" r="213"/><circle class="c" cx="223.3" cy="223.3" r="175.2"/><g class="d"><circle class="c" cx="223.6" cy="223.5" r="176.8"/><g class="e"><g class="f"><path d="M521.2,99C460,43.3,371.2-8.8,377.7,83.7c5.6,79.4-153.1-57.4-177.3,20.2-22.7,72.9,193,208.8,126.2,196.9s.3,65.4,83.6,125.4c70.1,50.4,49.6-8.6,74.9-12.4,33.4-5.1,155.1,99.9,185.2,61.8,29.2-37-42.8-103.1-102.3-159.4-57-53.9,28.5-29.4,47.4-67.5C636.6,206,586,158,521.2,99Z"/></g><g class="f"><path d="M67.1-40.5C5.8-96.2-83-148.2-76.4-55.8c5.6,79.4-153.1-57.4-177.3,20.2-22.7,72.9,193,208.8,126.2,196.9s.3,65.4,83.6,125.4c70.1,50.4,49.6-8.6,74.9-12.4,33.4-5.1,155.1,99.9,185.2,61.8,29.2-37-42.8-103.1-102.3-159.4-57-53.9,28.5-29.4,47.4-67.5,21.1-42.7-29.4-90.7-94.2-149.7Z"/></g></g><circle class="g" cx="223.1" cy="150.8" r="87.8"/><g class="h"><path class="i" d="M122,89.9a51.63,51.63,0,0,1,7.9.4l-3.3-.4A70.91,70.91,0,0,1,144,95c-1-.4-2-.8-3-1.3,4.4,1.9,8.6,4,12.8,6.2a86.66,86.66,0,0,1,11.8,6.9c-.8-.7-1.7-1.3-2.5-2a19.93,19.93,0,0,1,3.3,3.2c-.7-.8-1.3-1.7-2-2.5a17.5,17.5,0,0,1,2.4,4.2c-.4-1-.8-2-1.3-3a25.78,25.78,0,0,1,1.9,7.1c-.1-1.1-.3-2.2-.4-3.3a23.31,23.31,0,0,1,.1,5.9c.1-1.1.3-2.2.4-3.3a15.57,15.57,0,0,1-1,3.7c.4-1,.8-2,1.3-3a18.33,18.33,0,0,1-2.3,3.8c.7-.8,1.3-1.7,2-2.5-1.2,1.5-2.5,2.9-3.8,4.3a68.69,68.69,0,0,0-5.5,6.6,28.79,28.79,0,0,0-3.8,7.4,24.42,24.42,0,0,0-1.1,6,18.19,18.19,0,0,0,0,3.3,30.08,30.08,0,0,0,1,6,58.29,58.29,0,0,0,2.3,5.8,29.27,29.27,0,0,0,3.5,5.6A69.06,69.06,0,0,0,172,172.3c2.8,2.3,5.7,4.5,8.7,6.5,2.3,1.5,4.7,2.9,7,4.5-.8-.7-1.7-1.3-2.5-2a18.41,18.41,0,0,1,3.2,3.1c-.7-.8-1.3-1.7-2-2.5a21.38,21.38,0,0,1,2.3,3.8c-.4-1-.8-2-1.3-3a23.82,23.82,0,0,1,1.6,5.8c-.1-1.1-.3-2.2-.4-3.3a33.05,33.05,0,0,1,0,7.7c.1-1.1.3-2.2.4-3.3a36,36,0,0,1-2.6,9.6c.4-1,.8-2,1.3-3a32,32,0,0,1-4.4,7.6c.7-.8,1.3-1.7,2-2.5a33.84,33.84,0,0,1-5.3,5.4c.8-.7,1.7-1.3,2.5-2a25.72,25.72,0,0,1-6.2,3.6c1-.4,2-.8,3-1.3a25.32,25.32,0,0,1-6.5,1.8c1.1-.1,2.2-.3,3.3-.4a24.09,24.09,0,0,1-6,0c1.1.1,2.2.3,3.3.4A24.48,24.48,0,0,1,167,207c1,.4,2,.8,3,1.3a29.91,29.91,0,0,1-6.2-3.7c.8.7,1.7,1.3,2.5,2a46.64,46.64,0,0,1-7.9-8.1c.7.8,1.3,1.7,2,2.5-6.1-7.9-10.6-17.2-14.4-26.4.4,1,.8,2,1.3,3a171,171,0,0,1-11.9-43.9c.1,1.1.3,2.2.4,3.3-.6-4.8-1.1-9.6-1.3-14.5a100.25,100.25,0,0,1,0-14.5c-.1,1.1-.3,2.2-.4,3.3a16,16,0,0,1,.5-2.1c-.4,1-.8,2-1.3,3a8.17,8.17,0,0,1,1.2-2c-.7.8-1.3,1.7-2,2.5a16.07,16.07,0,0,1,2.3-2.2c-.8.7-1.7,1.3-2.5,2a21.22,21.22,0,0,1,3.6-2.1c-1,.4-2,.8-3,1.3a18.24,18.24,0,0,1,4.6-1.2c-1.1.1-2.2.3-3.3.4a21.75,21.75,0,0,1,5.1,0c-1.1-.1-2.2-.3-3.3-.4a23.53,23.53,0,0,1,5.2,1.4c-1-.4-2-.8-3-1.3a16.94,16.94,0,0,1,4.1,2.4c-.8-.7-1.7-1.3-2.5-2a19.88,19.88,0,0,1,2.9,2.9c-.7-.8-1.3-1.7-2-2.5a19.82,19.82,0,0,1,1.9,3.1c-.4-1-.8-2-1.3-3a8.55,8.55,0,0,1,.6,2.1c-.1-1.1-.3-2.2-.4-3.3V112c.1-1.1.3-2.2.4-3.3a8.33,8.33,0,0,1-.4,1.5c.4-1,.8-2,1.3-3a9.8,9.8,0,0,1-1.3,2.2c.7-.8,1.3-1.7,2-2.5a50.29,50.29,0,0,1-5.8,5.5,30.56,30.56,0,0,0-7.5,11.6,16.57,16.57,0,0,0-1.1,3.8,36.11,36.11,0,0,0-.7,7.3,32.11,32.11,0,0,0,3.7,13.6,12.3,12.3,0,0,0,7.5,5.7,13.18,13.18,0,0,0,8.1-.6,12,12,0,0,0,6-5.1,14.51,14.51,0,0,0,1.3-9.6l-6.4-34.3c.1,1.1.3,2.2.4,3.3v-.8c-.1,1.1-.3,2.2-.4,3.3,0-.1.1-.2.1-.4-.4,1-.8,2-1.3,3,.1-.1.1-.2.2-.3-.7.8-1.3,1.7-2,2.5l.2-.2c-.8.7-1.7,1.3-2.5,2,.1-.1.2-.1.3-.2-1,.4-2,.8-3,1.3a2.92,2.92,0,0,1,.9-.2c-1.1.1-2.2.3-3.3.4a16.15,16.15,0,0,1,3.1.2c-1.1-.1-2.2-.3-3.3-.4a38.83,38.83,0,0,1,10.1,2.8c-1-.4-2-.8-3-1.3a41.78,41.78,0,0,1,8.7,5c-.8-.7-1.7-1.3-2.5-2,.2.2.4.3.6.5-.7-.8-1.3-1.7-2-2.5.1.1.2.2.2.3-.4-1-.8-2-1.3-3,0,.1.1.2.1.4-.1-1.1-.3-2.2-.4-3.3a1.1,1.1,0,0,1,0,.8c.1-1.1.3-2.2.4-3.3a5.64,5.64,0,0,1-.4,1.2c.4-1,.8-2,1.3-3a32.58,32.58,0,0,1-2.4,4c.7-.8,1.3-1.7,2-2.5-1.9,2.5-4.3,4.7-6.4,7.1a39.64,39.64,0,0,0-7,10.1,44.51,44.51,0,0,0-3.8,11.7,52.59,52.59,0,0,0-.8,12.5,71.66,71.66,0,0,0,5.4,22.8c3.2,7.8,7,15.3,10.8,22.8l10.5,20.7c1.7,3.4,3.2,7,5.2,10.2,3.7,5.8,10,9.7,17,9.2a22.44,22.44,0,0,0,15.3-7.1,26.45,26.45,0,0,0,6.4-12,34,34,0,0,0,0-14.9,50.86,50.86,0,0,0-4.9-12.4,212.41,212.41,0,0,0-12.8-20.9c-5.2-7.7-10.8-15.2-16.6-22.4-1.9-2.3-6-3.7-8.8-3.7a12.58,12.58,0,0,0-8.8,3.7,12.77,12.77,0,0,0-3.7,8.8c.1,1.1.3,2.2.4,3.3a12.7,12.7,0,0,0,3.2,5.5l3.8,4.8c-.7-.8-1.3-1.7-2-2.5,4.9,6.3,9.5,12.9,13.9,19.6,2.2,3.3,4.2,6.7,6.3,10.1a85,85,0,0,1,5.5,10.3c-.4-1-.8-2-1.3-3a29.79,29.79,0,0,1,2.1,7.2c-.1-1.1-.3-2.2-.4-3.3a19.27,19.27,0,0,1,0,4.8c.1-1.1.3-2.2.4-3.3a16.9,16.9,0,0,1-1.2,4.4c.4-1,.8-2,1.3-3a14.59,14.59,0,0,1-1.7,3c.7-.8,1.3-1.7,2-2.5a11.45,11.45,0,0,1-2.2,2.2c.8-.7,1.7-1.3,2.5-2a14.79,14.79,0,0,1-2.1,1.3c1-.4,2-.8,3-1.3a10.27,10.27,0,0,1-2.5.7c1.1-.1,2.2-.3,3.3-.4a8.09,8.09,0,0,1-2.2,0c1.1.1,2.2.3,3.3.4a10.93,10.93,0,0,1-1.7-.5c1,.4,2,.8,3,1.3a7.46,7.46,0,0,1-1.2-.7c.8.7,1.7,1.3,2.5,2a5.73,5.73,0,0,1-1.1-1.1c.7.8,1.3,1.7,2,2.5a43,43,0,0,1-3.2-6l-3.3-6.6L172.3,193c-4.2-8.3-8.7-16.6-12.3-25.2.4,1,.8,2,1.3,3a68,68,0,0,1-5-17.2c.1,1.1.3,2.2.4,3.3a45,45,0,0,1,0-11.6c-.1,1.1-.3,2.2-.4,3.3a33.79,33.79,0,0,1,2.4-8.8c-.4,1-.8,2-1.3,3a28.79,28.79,0,0,1,3.6-6.1c-.7.8-1.3,1.7-2,2.5,3.8-4.9,8.7-8.9,11.8-14.3a18.76,18.76,0,0,0,2.8-9.3,14.21,14.21,0,0,0-2-7.2c-1.4-2.4-3.3-3.8-5.6-5.4a44.18,44.18,0,0,0-7.2-4.3,49.63,49.63,0,0,0-10.6-3.8,50.67,50.67,0,0,0-5.4-.9c-2.9-.4-5.5-.8-8.4,0a14,14,0,0,0-10,9.7c-1,3.5-.2,6.9.5,10.4l1.8,9.7,4.1,21.8,22.8-9.6a11.94,11.94,0,0,1-.8-1.6c.4,1,.8,2,1.3,3a20,20,0,0,1-1.1-4.2c.1,1.1.3,2.2.4,3.3a18.48,18.48,0,0,1,0-4.7c-.1,1.1-.3,2.2-.4,3.3a16.58,16.58,0,0,1,1.2-4.5c-.4,1-.8,2-1.3,3a28.17,28.17,0,0,1,2.1-3.8c-.7.8-1.3,1.7-2,2.5a31.2,31.2,0,0,1,4.5-4.4,29.58,29.58,0,0,0,5.7-6.5,20.43,20.43,0,0,0,2.4-5.2,15.24,15.24,0,0,0,.7-6,20.7,20.7,0,0,0-4.2-11.5,32,32,0,0,0-8.1-7.9,31.12,31.12,0,0,0-7.6-3.6,31.65,31.65,0,0,0-17-.7,28,28,0,0,0-16.6,11.1c-4.1,5.7-3.6,13.6-3.5,20.3a186.57,186.57,0,0,0,3.9,34.1,166.22,166.22,0,0,0,9.1,29.9c4,10,8.5,20.1,14.7,29,6.6,9.4,15.1,17.9,26.4,21.1,12.9,3.6,26.9-.8,36.5-10,8.7-8.4,13.6-20.7,13.9-32.7a34.81,34.81,0,0,0-4.4-18.4,26,26,0,0,0-6.2-7.4,103.34,103.34,0,0,0-8.7-6c-2.1-1.4-4.2-2.8-6.2-4.4.8.7,1.7,1.3,2.5,2a60.82,60.82,0,0,1-11-10.5c.7.8,1.3,1.7,2,2.5a31.78,31.78,0,0,1-3.8-6.4c.4,1,.8,2,1.3,3a24.17,24.17,0,0,1-1.3-4.6c.1,1.1.3,2.2.4,3.3a20.45,20.45,0,0,1,0-3.5c-.1,1.1-.3,2.2-.4,3.3a20.25,20.25,0,0,1,.9-3.3c-.4,1-.8,2-1.3,3a17.33,17.33,0,0,1,2.5-4.1c-.7.8-1.3,1.7-2,2.5,1.7-2.2,3.8-4.1,5.7-6.2a36.5,36.5,0,0,0,7.2-11.5c2-5.2,1.6-10.6.8-16A35.36,35.36,0,0,0,187.9,95c-4-7.7-11.4-11.9-18.7-15.9a171.67,171.67,0,0,0-21.7-10.2,68.31,68.31,0,0,0-25.3-4.6,12.58,12.58,0,0,0-8.8,3.7,12.77,12.77,0,0,0-3.7,8.8,12.17,12.17,0,0,0,3.7,8.8,10.43,10.43,0,0,0,8.6,4.3Z"/></g><g class="h"><path class="i" d="M225.7,47.7a28.63,28.63,0,0,0-7.3,12c-1.6,4.7-1.5,9.6-.7,14.5,1.3,7.9,7,13.3,11.8,19.3-.7-.8-1.3-1.7-2-2.5a20,20,0,0,1,2.7,4.4c-.4-1-.8-2-1.3-3a10.24,10.24,0,0,1,.8,3c-.1-1.1-.3-2.2-.4-3.3a14.79,14.79,0,0,1-.1,4.2c.1-1.1.3-2.2.4-3.3-.4,3.2-1.2,6.5-1,9.8a32.15,32.15,0,0,0,1.5,8.1,31.21,31.21,0,0,0,9,13.3c4.2,3.4,8.9,6.3,14.4,7.1a36.77,36.77,0,0,0,5.8.6,50.38,50.38,0,0,0,5.6-.7c2.4-.4,4.7-1.2,7.1-1.6-1.1.1-2.2.3-3.3.4a19.54,19.54,0,0,1,5.4.1c-1.1-.1-2.2-.3-3.3-.4,3.3.5,6.4,1.4,9.7,2,4.9.8,10.2,1.4,15-.4,3.1-1.2,6-2.5,8.4-5a17.31,17.31,0,0,0,5-11.7c0-5.6-2.9-10.3-5.5-15.1L292.8,79.8a55.82,55.82,0,0,0-7-10.2,32.07,32.07,0,0,0-10-7.5c-4.4-2.2-9-4-13.6-5.8-3.9-1.5-7.8-2.8-11.8-4a12.45,12.45,0,0,0-9.6,1.3,13.4,13.4,0,0,0-5.7,7.5c-2.9,8.9.5,18.1,5.1,25.7,1.7,2.8,3.5,5.5,5.1,8.3a93.68,93.68,0,0,1,4.4,9c-.4-1-.8-2-1.3-3,1,2.4,1.9,4.8,2.7,7.3a12.58,12.58,0,0,0,10.4,9,12.16,12.16,0,0,0,6.5-.9,14.09,14.09,0,0,0,6-5.1c.1-.1.1-.2.2-.3-.7.8-1.3,1.7-2,2.5a5.73,5.73,0,0,1,1.1-1.1c-.8.7-1.7,1.3-2.5,2a8.26,8.26,0,0,1,1.3-.7c-1,.4-2,.8-3,1.3a8.33,8.33,0,0,1,1.5-.4c-1.1.1-2.2.3-3.3.4a6,6,0,0,1,1.9,0c-1.1-.1-2.2-.3-3.3-.4a8.33,8.33,0,0,1,1.5.4c-1-.4-2-.8-3-1.3.4.2.7.4,1.1.6-.8-.7-1.7-1.3-2.5-2,.1.1.2.1.2.2,2.6,2.2,5.3,3.7,8.8,3.7a12.58,12.58,0,0,0,8.8-3.7,12.77,12.77,0,0,0,3.7-8.8c-.1-3.1-1.1-6.8-3.7-8.8a18.93,18.93,0,0,0-7.7-4.3,18.61,18.61,0,0,0-7.4-.4,18.07,18.07,0,0,0-7,2.3,19.63,19.63,0,0,0-6.3,6.2l22.8,3a104,104,0,0,0-7.9-18.5c-2.7-4.9-6.1-9.4-8.4-14.5.4,1,.8,2,1.3,3a24.61,24.61,0,0,1-1.5-5.1c.1,1.1.3,2.2.4,3.3a17.1,17.1,0,0,1,0-3.2c-.1,1.1-.3,2.2-.4,3.3a20.48,20.48,0,0,1,.5-2.4l-15.4,8.7a174.55,174.55,0,0,1,17.1,6.2c-1-.4-2-.8-3-1.3a42,42,0,0,1,9.6,5.1c-.8-.7-1.7-1.3-2.5-2a20.41,20.41,0,0,1,4.1,4.2c-.7-.8-1.3-1.7-2-2.5,3.5,4.7,6,10.1,8.8,15.3l4.4,8.2c1.5,2.8,3.2,5.6,4.5,8.5-.4-1-.8-2-1.3-3a7.62,7.62,0,0,1,.6,2c-.1-1.1-.3-2.2-.4-3.3v1.3c.1-1.1.3-2.2.4-3.3-.1.4-.2.7-.3,1,.4-1,.8-2,1.3-3-.2.3-.3.6-.5.9.7-.8,1.3-1.7,2-2.5a6.79,6.79,0,0,1-1.2,1.2c.8-.7,1.7-1.3,2.5-2a11.91,11.91,0,0,1-1.5.9c1-.4,2-.8,3-1.3a11.14,11.14,0,0,1-3,.8c1.1-.1,2.2-.3,3.3-.4a25.66,25.66,0,0,1-4.8,0c1.1.1,2.2.3,3.3.4-2.1-.3-4.1-.8-6.1-1.2a66.13,66.13,0,0,0-8.9-1.5,31.11,31.11,0,0,0-9.1.7c-2.2.5-4.4,1.2-6.7,1.5,1.1-.1,2.2-.3,3.3-.4a24.09,24.09,0,0,1-3.8,0c1.1.1,2.2.3,3.3.4a16.9,16.9,0,0,1-4.4-1.2c1,.4,2,.8,3,1.3a22.18,22.18,0,0,1-4.2-2.5c.8.7,1.7,1.3,2.5,2a19.33,19.33,0,0,1-3.5-3.5c.7.8,1.3,1.7,2,2.5a22.18,22.18,0,0,1-2.5-4.2c.4,1,.8,2,1.3,3a18.23,18.23,0,0,1-1.1-4c.1,1.1.3,2.2.4,3.3a18.5,18.5,0,0,1,.1-4.7c-.1,1.1-.3,2.2-.4,3.3.5-3.4,1.3-6.9,1-10.4a26.12,26.12,0,0,0-3.3-10.8c-2.3-4.1-5.8-7.4-8.7-11.1.7.8,1.3,1.7,2,2.5a26,26,0,0,1-2.8-4.5c.4,1,.8,2,1.3,3a15.57,15.57,0,0,1-1-3.7c.1,1.1.3,2.2.4,3.3a17.7,17.7,0,0,1,0-4.6c-.1,1.1-.3,2.2-.4,3.3a16.9,16.9,0,0,1,1.2-4.4c-.4,1-.8,2-1.3,3a13.85,13.85,0,0,1,2-3.3c-.7.8-1.3,1.7-2,2.5a9.76,9.76,0,0,1,1.7-1.8,12.77,12.77,0,0,0,3.7-8.8,12.58,12.58,0,0,0-3.7-8.8,12.77,12.77,0,0,0-8.8-3.7,12,12,0,0,0-9,3.4Z"/></g><g class="h"><path class="i" d="M244.8,143.6a15.84,15.84,0,0,0-5.5,1.2,12.22,12.22,0,0,0-4.6,2.9,16.65,16.65,0,0,0-3.1,3.9,17.43,17.43,0,0,0-1.2,13.6,22.53,22.53,0,0,0,5.8,9.1c2.1,1.9,4.5,3.5,6.7,5.2-.8-.7-1.7-1.3-2.5-2a17.27,17.27,0,0,1,2.8,2.6c-.7-.8-1.3-1.7-2-2.5a22.61,22.61,0,0,1,1.6,2.6c-.4-1-.8-2-1.3-3a10.88,10.88,0,0,1,.7,2.4c-.1-1.1-.3-2.2-.4-3.3a7.39,7.39,0,0,1,0,2.1c.1-1.1.3-2.2.4-3.3a4.28,4.28,0,0,1-.5,1.6c.4-1,.8-2,1.3-3-.2.3-.3.6-.5.9.7-.8,1.3-1.7,2-2.5a4.74,4.74,0,0,1-1,1c.8-.7,1.7-1.3,2.5-2a4.05,4.05,0,0,1-.9.5c1-.4,2-.8,3-1.3-.3.1-.6.2-1,.3,1.1-.1,2.2-.3,3.3-.4h-1c1.1.1,2.2.3,3.3.4a1.85,1.85,0,0,1-.7-.2c1,.4,2,.8,3,1.3a4.05,4.05,0,0,1-.9-.5c.8.7,1.7,1.3,2.5,2a4.74,4.74,0,0,1-1-1c.7.8,1.3,1.7,2,2.5a15.92,15.92,0,0,1-1.3-2.2c.4,1,.8,2,1.3,3-.1-.3-.2-.5-.3-.8.1,1.1.3,2.2.4,3.3v-.4c-.1,1.1-.3,2.2-.4,3.3a.37.37,0,0,1,.1-.3c-.4,1-.8,2-1.3,3l.3-.6c-.7.8-1.3,1.7-2,2.5a45.83,45.83,0,0,1,4.6-4.2,69.38,69.38,0,0,0,6-7.2c4-5.4,6.1-12.3,4.5-18.9-2-8-10.2-13.8-18.4-13.4a20.86,20.86,0,0,0-10.8,3.4,32.81,32.81,0,0,0-8.1,8.1c-1.8,2.4-2,6.9-1.3,9.6a13,13,0,0,0,5.7,7.5c2.9,1.5,6.4,2.3,9.6,1.3,1-.4,2-.8,3-1.3a12.14,12.14,0,0,0,4.5-4.5c.1-.1.2-.2.2-.3-.7.8-1.3,1.7-2,2.5a22,22,0,0,1,3-3.1c-.8.7-1.7,1.3-2.5,2a9.21,9.21,0,0,1,2.4-1.3c-1,.4-2,.8-3,1.3a10.93,10.93,0,0,1,1.7-.5c-1.1.1-2.2.3-3.3.4a7.39,7.39,0,0,1,2.1,0c-1.1-.1-2.2-.3-3.3-.4a10.46,10.46,0,0,1,1.7.4c-1-.4-2-.8-3-1.3a10.93,10.93,0,0,1,1.5.8c-.8-.7-1.7-1.3-2.5-2a3.82,3.82,0,0,1,.9.9c-.7-.8-1.3-1.7-2-2.5a5.39,5.39,0,0,1,.7,1.3c-.4-1-.8-2-1.3-3a3.53,3.53,0,0,1,.3,1.4c-.1-1.1-.3-2.2-.4-3.3a5.46,5.46,0,0,1-.1,1.8c.1-1.1.3-2.2.4-3.3a11.22,11.22,0,0,1-.8,2.6c.4-1,.8-2,1.3-3a21.11,21.11,0,0,1-2.8,4.5c.7-.8,1.3-1.7,2-2.5a46,46,0,0,1-4.7,5.2c-2.2,2.1-4.5,3.6-5.9,6.4-3.4,6.5-1.2,13.7,3.4,18.9a16,16,0,0,0,14.1,5.1,17.17,17.17,0,0,0,12.4-8.3c2.6-4.3,2.9-9.9,1.6-14.6a25.29,25.29,0,0,0-6.1-10.5c-2.2-2.3-5-3.9-7.5-5.9.8.7,1.7,1.3,2.5,2a13.08,13.08,0,0,1-2.4-2.3c.7.8,1.3,1.7,2,2.5a14.79,14.79,0,0,1-1.3-2.1c.4,1,.8,2,1.3,3a8.33,8.33,0,0,1-.4-1.5c.1,1.1.3,2.2.4,3.3a4.29,4.29,0,0,1,0-1.6c-.1,1.1-.3,2.2-.4,3.3.1-.4.2-.7.3-1.1-.4,1-.8,2-1.3,3a2.09,2.09,0,0,1,.4-.6c-.7.8-1.3,1.7-2,2.5a5,5,0,0,1,.7-.8c-.8.7-1.7,1.3-2.5,2l.6-.3c-1,.4-2,.8-3,1.3.1,0,.2-.1.3-.1-1.1.1-2.2.3-3.3.4h.3c3.4-.3,6.4-1.2,8.8-3.7a12.77,12.77,0,0,0,3.7-8.8,12.17,12.17,0,0,0-3.7-8.8,10.75,10.75,0,0,0-8.4-3.6Z"/></g><g class="j"><circle class="k" cx="90.3" cy="196" r="4.6"/></g><g class="l"><circle class="k" cx="132.4" cy="102.5" r="4.6"/></g><g class="l"><circle class="k" cx="113.4" cy="154.6" r="4.6"/></g><g class="l"><circle class="m" cx="345.9" cy="145.4" r="4.6"/></g><g class="j"><circle class="k" cx="370.9" cy="186.7" r="4.6"/></g><g class="j"><circle class="m" cx="333.1" cy="186.7" r="4.6"/></g><g class="j"><circle class="k" cx="106.2" cy="301.3" r="4.6"/></g><g class="j"><circle class="k" cx="197.3" cy="380" r="4.6"/></g><g class="j"><circle class="m" cx="342.1" cy="323.9" r="4.6"/></g><g class="l"><circle class="m" cx="384.4" cy="226.9" r="4.6"/></g><g class="l"><circle class="m" cx="72.7" cy="253.8" r="4.6"/></g><g class="l"><circle class="n" cx="92.6" cy="238.6" r="2.3"/></g><g class="l"><circle class="k" cx="84.3" cy="301.4" r="3.8"/></g><g class="l"><circle class="k" cx="366.3" cy="306" r="3.8"/></g><g class="l"><circle class="k" cx="88.1" cy="137" r="3.8"/></g><g class="l"><circle class="n" cx="359.5" cy="282.5" r="3.8"/></g><g class="l"><circle class="k" cx="345.9" cy="210.8" r="3.8"/></g><g class="l"><circle class="k" cx="324.6" cy="299.3" r="3.8"/></g><g class="l"><circle class="m" cx="202" cy="349.1" r="3.8"/></g><g class="l"><circle class="n" cx="298.4" cy="79.4" r="3.8"/></g><g class="l"><circle class="k" cx="139.3" cy="319.3" r="2.3"/></g><g class="l"><circle class="m" cx="257.1" cy="60.7" r="2.3" transform="translate(138.95 296.98) rotate(-76.72)"/></g><g class="l"><circle class="m" cx="132.4" cy="333.1" r="2.3"/></g><g class="l"><circle class="m" cx="130.1" cy="204.8" r="2.3"/></g><g class="l"><circle class="k" cx="60.2" cy="198.3" r="2.3"/></g><g class="l"><circle class="k" cx="120.3" cy="133.2" r="2.3"/></g><g class="l"><circle class="k" cx="384.4" cy="204.8" r="2.3"/></g><g class="l"><circle class="k" cx="376" cy="284.7" r="2.3"/></g><g class="l"><circle class="n" cx="317.7" cy="179.8" r="2.3"/></g><g class="l"><circle class="k" cx="366.3" cy="156.9" r="2.3"/></g><g class="l"><circle class="k" cx="330.8" cy="161.6" r="2.3"/></g><g class="l"><circle class="m" cx="366.3" cy="207.1" r="2.3"/></g><g class="l"><circle class="n" cx="379.8" cy="264.5" r="2.3"/></g><g class="l"><circle class="k" cx="306.3" cy="297.6" r="2.3"/></g><g class="l"><circle class="k" cx="199.2" cy="56.1" r="2.3"/></g><g class="l"><circle class="m" cx="348.2" cy="237.6" r="2.3"/></g><g class="l"><circle class="k" cx="348.2" cy="120.6" r="2.3"/></g><g class="l"><circle class="m" cx="150.3" cy="77.9" r="2.3"/></g><g class="l"><circle class="n" cx="322.3" cy="335.5" r="2.3"/></g><g class="l"><circle class="k" cx="341.9" cy="299.1" r="2.3"/></g><g class="l"><circle class="k" cx="134.1" cy="301.4" r="2.3"/></g><g class="l"><circle class="m" cx="324.6" cy="130.9" r="2.3"/></g><g class="l"><circle class="k" cx="106.2" cy="328.6" r="2.3"/></g><g class="l"><circle class="k" cx="221.5" cy="377.6" r="2.3"/></g><g class="l"><circle class="k" cx="176.4" cy="368.5" r="2.3"/></g><g class="l"><circle class="n" cx="122.7" cy="278.5" r="2.3"/></g><g class="l"><circle class="k" cx="90.3" cy="276.2" r="2.3"/></g><g class="l"><circle class="k" cx="110.8" cy="258.4" r="2.3"/></g><g class="l"><circle class="k" cx="72.7" cy="220.5" r="2.3"/></g><g class="l"><circle class="n" cx="103.9" cy="220.5" r="2.3"/></g><g class="l"><circle class="k" cx="106.2" cy="120.6" r="2.3"/></g><g class="l"><circle class="k" cx="125" cy="186.7" r="2.3"/></g><g class="l"><circle class="m" cx="79.6" cy="168.1" r="2.3"/></g><g class="j"><circle class="m" cx="320" cy="100.8" r="4.6"/></g></g><path class="o" d="M345.9,403.8l-83,34.1-22.6-97,45.4-19Z"/><path class="p" d="M277.7,284a5.78,5.78,0,0,0-4.8-.6c-2.4.7-4.7,2.4-6.9,3.7L238.7,303c-2.4,1.4-5,2.6-7.1,4.5a12.39,12.39,0,0,0-1.8,2.2l.4-6.1s-1.8-3.9-3.7-3.8a3.92,3.92,0,0,0-3.8,3.7c-1.2,14.9-.3,29.8,1.1,44.7l1.3,12.7a3.74,3.74,0,0,0,5.5,3.4l77.3-33a3.73,3.73,0,0,0,1.9-2.8,3.58,3.58,0,0,0-1-3.1l-19-25.7L280.4,287a9.59,9.59,0,0,0-2.7-3Zm-10.9,39.3c.1.1.2.1.4.2-.2.1-.4.3-.6.4A1.42,1.42,0,0,0,266.8,323.3Zm12.6-.1.3.3c-.2.1-.3.2-.5.3.1-.2.1-.4.2-.6Zm-10.9-23.9a.31.31,0,0,0-.2.1C268.3,299.3,268.4,299.3,268.5,299.3Zm0,0,.6.6a4.05,4.05,0,0,0-.9-.5A.49.49,0,0,0,268.5,299.3Zm-32.2,14.4Zm52.8,11.2.3.3c-.1.1-.2.1-.3.2A.45.45,0,0,1,289.1,324.9Zm-13.8-32.5a3.36,3.36,0,0,0-2.6-.5l1.5-.9A17.1,17.1,0,0,0,275.3,292.4Zm-.5-1.7C275.1,290.6,275.1,290.7,274.8,290.7Z"/><g class="q"><path class="r" d="M299.1,308.6c-13.4,5.8-26.7,12.7-40.1,18.7s-27,11.5-40.5,16.8c-4.4,1.7-4.2,5.1,0,3.6,26.1-9,56.4-20.9,81.5-35.9C303.2,309.9,303.1,306.9,299.1,308.6Z"/></g><g class="q"><path class="r" d="M295.9,296c-13.4,5.8-26.7,12.7-40.1,18.7s-27,11.5-40.5,16.8c-4.4,1.7-4.2,5.1,0,3.6,26.1-9,56.4-20.9,81.5-35.9C300.1,297.3,300,294.3,295.9,296Z"/></g><g class="q"><path class="r" d="M306.6,318.7c-13.4,5.8-26.7,12.7-40.1,18.7s-27,11.5-40.5,16.8c-4.4,1.7-4.2,5.1,0,3.6,26.1-9,56.4-20.9,81.5-35.9C310.8,320,310.6,317,306.6,318.7Z"/></g><path class="s" d="M120.2,223.4,288,150.6a3.63,3.63,0,0,1,4.8,1.9l48.8,112.4a3.63,3.63,0,0,1-1.9,4.8L171.9,342.5a3.63,3.63,0,0,1-4.8-1.9L118.3,228.2a3.68,3.68,0,0,1,1.9-4.8Z"/><path d="M127.1,225.5l157.5-68.4a3.44,3.44,0,0,1,4.6,1.8l48.1,110.7a3.44,3.44,0,0,1-1.8,4.6L178,342.6a3.44,3.44,0,0,1-4.6-1.8L125.3,230.1a3.44,3.44,0,0,1,1.8-4.6Z"/><g class="t"><path class="u" d="M138.2,190.5l-2.9-6.1h-.1l.5,6.2.5,8.1-1.4.6-5.3-5.8a56,56,0,0,1-4.1-4.9l2.5,6.5,2.3,6.3-1.8.8-5.2-14.8,2.4-1,5.4,5.9c1.4,1.5,2.5,2.9,3.5,4.2h.1c-.3-1.6-.4-3.4-.6-5.5l-.4-8,2.4-1,7.1,14-1.8.8Zm8-1.3.5,5.2-1.9.8-1.3-16.5,2.2-1L156.8,190l-2,.9-3.5-3.9Zm4-3.5-3.2-3.5-1.9-2.3a25.35,25.35,0,0,1,.4,2.9l.4,4.8Z"/><path class="u" d="M157.6,186.9a6.1,6.1,0,0,0,3.7-.5c1.9-.8,2.6-2.3,1.9-3.7s-1.7-1.8-3.9-1.7c-2.7.2-4.7-.4-5.5-2.4-1-2.2.2-4.7,3-5.9a7.61,7.61,0,0,1,3.5-.7l.1,1.7a5.26,5.26,0,0,0-3,.5c-2,.8-2.2,2.3-1.8,3.3.6,1.3,1.7,1.6,4,1.5,2.8-.1,4.6.5,5.5,2.6s.1,4.8-3.2,6.3a9.3,9.3,0,0,1-4.1.7l-.2-1.7Z"/><path class="u" d="M166.5,170.6l-4.4,1.9-.7-1.6,10.6-4.6.7,1.6-4.4,1.9,5.5,12.8-1.9.8-5.4-12.8Z"/><path class="u" d="M184.5,170.1l-5.6,2.4,2.2,5.2,6.2-2.7.7,1.6-8.1,3.5-6.2-14.4,7.8-3.3.7,1.6-5.9,2.5,2,4.5,5.6-2.4.6,1.5Z"/><path class="u" d="M184.3,161.3a21.57,21.57,0,0,1,3.4-1.8,6.35,6.35,0,0,1,4.7-.6,3.82,3.82,0,0,1,2.3,2.2,4,4,0,0,1-1.1,4.8v.1c1.3-.1,2.4.6,3.4,2l2.8,3.5-1.9.8a17.1,17.1,0,0,1-2.4-3c-1.3-1.8-2.4-2.2-4.1-1.6l-1.7.8,2.7,6.2-1.9.8Zm4.7,5.8,1.9-.8c2-.9,2.8-2.5,2.1-4.1-.8-1.9-2.5-2.1-4.5-1.3a6.67,6.67,0,0,0-1.8,1l2.3,5.2Zm22.8-1.4a9.91,9.91,0,0,1-3.5,2.3c-4,1.7-8.2.5-10.2-4.2-1.9-4.5-.2-8.9,4.3-10.8a7.21,7.21,0,0,1,3.7-.8l.2,1.7a7.14,7.14,0,0,0-3.2.7c-3.4,1.5-4.7,4.6-3.1,8.3,1.5,3.5,4.5,4.9,8,3.4a8.6,8.6,0,0,0,2.8-1.9Z"/><path class="u" d="M208.1,150.8l1.9-.8,5.5,12.8,6.1-2.6.7,1.6-8,3.4Z"/><path class="u" d="M224.7,155.3l.5,5.2-1.9.8L222,144.8l2.2-1,11.1,12.3-2,.9-3.5-3.9Zm4.1-3.4-3.2-3.5-1.9-2.3a25.35,25.35,0,0,1,.4,2.9l.4,4.8Z"/><path class="u" d="M236.2,153.1a6.1,6.1,0,0,0,3.7-.5c1.9-.8,2.6-2.3,1.9-3.7s-1.7-1.8-3.9-1.7c-2.7.2-4.7-.4-5.5-2.4-1-2.2.2-4.7,3-5.9a7.61,7.61,0,0,1,3.5-.7l.1,1.7a5.26,5.26,0,0,0-3,.5c-2,.8-2.2,2.3-1.8,3.3.6,1.3,1.7,1.6,4,1.5,2.8-.1,4.6.5,5.5,2.6s.1,4.8-3.2,6.3a9.3,9.3,0,0,1-4.1.7l-.2-1.7Zm10.5-4.5a6.1,6.1,0,0,0,3.7-.5c1.9-.8,2.6-2.3,1.9-3.7s-1.7-1.8-3.9-1.7c-2.7.2-4.7-.4-5.5-2.4-1-2.2.2-4.7,3-5.9a7.61,7.61,0,0,1,3.5-.7l.1,1.7a5.26,5.26,0,0,0-3,.5c-2,.8-2.2,2.3-1.8,3.3.6,1.3,1.7,1.6,4,1.5,2.8-.1,4.6.5,5.5,2.6s.1,4.8-3.2,6.3a9.3,9.3,0,0,1-4.1.7l-.2-1.7Z"/></g><g class="t"><path class="u" d="M129.4,168.4l-2.9-6.1h-.1l.5,6.2.5,8.1-1.4.6-5.3-5.8a56,56,0,0,1-4.1-4.9l2.5,6.5,2.3,6.3-1.8.8-5.2-14.8,2.4-1,5.4,5.9c1.4,1.5,2.5,2.9,3.5,4.2h.1c-.3-1.6-.4-3.4-.6-5.5l-.4-8.1,2.4-1,7.1,14-1.8.8Zm7.9-1.3.5,5.2-1.9.8-1.3-16.5,2.2-1,11.1,12.3-2,.9-3.5-3.9Zm4.1-3.4-3.2-3.5-1.9-2.3a25.35,25.35,0,0,1,.4,2.9l.4,4.8Zm7.4,1.2a6.1,6.1,0,0,0,3.7-.5c1.9-.8,2.6-2.3,1.9-3.7s-1.7-1.8-3.9-1.7c-2.7.2-4.7-.4-5.5-2.4-1-2.2.2-4.7,3-5.9a7.61,7.61,0,0,1,3.5-.7l.1,1.7a5.26,5.26,0,0,0-3,.5c-2,.8-2.2,2.3-1.8,3.3.6,1.3,1.7,1.6,4,1.5,2.8-.1,4.6.5,5.5,2.6s.1,4.8-3.2,6.3a9.3,9.3,0,0,1-4.1.7l-.2-1.7Zm8.9-16.3-4.4,1.9-.7-1.6,10.6-4.6.7,1.6-4.4,1.9,5.5,12.8-1.9.8-5.4-12.8Zm17.9-.6-5.6,2.4,2.2,5.2,6.2-2.7.7,1.6L171,158l-6.2-14.4,7.8-3.3.7,1.6-5.9,2.5,2,4.5,5.6-2.4.6,1.5Zm-.1-8.7a21.57,21.57,0,0,1,3.4-1.8,6.35,6.35,0,0,1,4.7-.6,3.82,3.82,0,0,1,2.3,2.2,4,4,0,0,1-1.1,4.8v.1c1.3-.1,2.4.6,3.4,2l2.8,3.5-1.9.8a17.1,17.1,0,0,1-2.4-3c-1.3-1.8-2.4-2.2-4.1-1.6l-1.7.8,2.7,6.2-1.9.8Zm4.6,5.7,1.9-.8c2-.9,2.8-2.5,2.1-4.1-.8-1.9-2.5-2.1-4.5-1.3a6.67,6.67,0,0,0-1.8,1l2.3,5.2Zm22.8-1.3a9.91,9.91,0,0,1-3.5,2.3c-4,1.7-8.2.5-10.2-4.2-1.9-4.5-.2-8.9,4.3-10.8a7.21,7.21,0,0,1,3.7-.8l.2,1.7a6.89,6.89,0,0,0-3.2.7c-3.4,1.5-4.7,4.6-3.1,8.3,1.5,3.5,4.5,4.9,8,3.4a8.6,8.6,0,0,0,2.8-1.9Zm-3.6-14.9,1.9-.8,5.5,12.8,6.1-2.6.7,1.6-8,3.4Zm16.6,4.5.5,5.2-1.9.8-1.3-16.5,2.2-1,11.1,12.3-2,.9-3.5-3.9Zm4.1-3.5-3.2-3.5-1.9-2.3a25.35,25.35,0,0,1,.4,2.9l.4,4.8Zm7.3,1.2a6.1,6.1,0,0,0,3.7-.5c1.9-.8,2.6-2.3,2-3.7s-1.7-1.8-3.9-1.7c-2.7.2-4.7-.4-5.5-2.4-1-2.2.2-4.7,3-5.9a7.61,7.61,0,0,1,3.5-.7l.1,1.7a5.26,5.26,0,0,0-3,.5c-2,.8-2.2,2.3-1.8,3.3.6,1.3,1.7,1.6,4.1,1.5,2.8-.1,4.6.5,5.5,2.6s.1,4.8-3.2,6.3a9.3,9.3,0,0,1-4.1.7l-.4-1.7Zm10.6-4.5a6.1,6.1,0,0,0,3.7-.5c1.9-.8,2.6-2.3,1.9-3.7s-1.7-1.8-3.9-1.7c-2.7.2-4.7-.4-5.5-2.4-1-2.2.2-4.7,3-5.9a7.61,7.61,0,0,1,3.5-.7l.1,1.7a5.26,5.26,0,0,0-3,.5c-2,.8-2.2,2.3-1.8,3.3.6,1.3,1.7,1.6,4,1.5,2.8-.1,4.6.5,5.5,2.6s.1,4.8-3.2,6.3a9.3,9.3,0,0,1-4.1.7l-.2-1.7Z"/></g><path class="v" d="M129.1,351l246-106.7a12.51,12.51,0,0,1-6.5,16.5L145.7,357.5a12.62,12.62,0,0,1-16.6-6.5Z"/><path class="w" d="M145.7,357.5l222.9-96.7a12.39,12.39,0,0,0,7.4-9.7L133.6,356.3a12.45,12.45,0,0,0,12.1,1.2Z"/><path class="b" d="M175.1,220.7c-10.3,4.1-21.7,8.4-31,14.4-1.5,1-1,3.8,1.1,3.3,11-2.8,22-8.3,32.1-13.2,3-1.4.8-5.6-2.2-4.5Zm38.3-1-44.7,20.4c-2.5,1.1-1,5.1,1.5,4l45.2-19C218.8,223.7,216.7,218.2,213.4,219.7Zm-22.8,28c-10.4,4.2-21.2,8.6-31.1,14-2.7,1.5-.8,6,2.2,5a331.83,331.83,0,0,0,31.4-13.3c3.1-1.5.7-7.1-2.5-5.7Zm84.7-9.9c-14.8,5.3-29.3,12.5-43.7,19l-21.7,9.8c-7.4,3.3-15.4,6.3-22.2,10.7-2,1.3-.8,4.7,1.7,4,7.2-1.9,14.2-5.4,21.1-8.3l22.8-9.8c14.8-6.3,30.2-12.2,44.4-19.7,3-1.6.9-6.9-2.4-5.7Zm-68.9,53.8a144.24,144.24,0,0,0-25.2,11.7c-2,1.2-1.3,5,1.3,4.2a153.64,153.64,0,0,0,26.2-10.8,2.74,2.74,0,0,0,1-3.5,2.79,2.79,0,0,0-3.3-1.6Zm56-23.7c-9,3.9-18.2,7.8-26.8,12.4-2.2,1.2-.9,5,1.6,4.2,9.5-3.3,18.8-7.5,28-11.6,3.3-1.5.5-6.4-2.8-5Z"/><path class="x" d="M178.7,281.4a113.79,113.79,0,0,0-12.5,6.5c-1.8,1.1-1,4.3,1.3,3.7a115.71,115.71,0,0,0,13.9-5.1C184.8,285.1,182.1,279.7,178.7,281.4Zm-17.8-39a50,50,0,0,0-10,6.4c-1,.8-.7,2.8.8,2.6a48.7,48.7,0,0,0,11.9-3.2A3.22,3.22,0,1,0,160.9,242.4ZM226,282.8a105.3,105.3,0,0,0-11.9,6.5c-1.9,1.2-.3,3.9,1.6,3.4a109.91,109.91,0,0,0,12.2-4.2c3.6-1.5,1.5-7.3-1.9-5.7Zm21.6-60.4c-8.1,2.8-15.9,7.1-23.6,10.6q-11.81,5.28-23.4,11c-2.8,1.4-.8,5.4,2,4.3,8.1-3.1,16-6.5,24-9.8s16.3-6.1,23.8-10.2c3.8-2,1.2-7.2-2.8-5.9Z"/><path class="x" d="M41.66,118.19s58.54-21.77,87.69-39.61c24.07-14.73,75.1-61.52,75.1-61.52l57.87,3.35s-50,62.21-96.67,93.93c-58.92,40.07-144.72,49.77-144.72,49.77Z"/><path class="b" d="M87.24,109.32a2.17,2.17,0,0,1,1.38,0,2.15,2.15,0,0,1,1.08.83l15.48,21.54-5.77,1.94-11.52-17q-.36-.57-.72-1.17c-.25-.4-.47-.78-.68-1.15l-1,.33q.09.63.18,1.32a12.83,12.83,0,0,1,.11,1.38l1.1,20.5-5.8,1.95-.66-26.53a2,2,0,0,1,.36-1.31,2.07,2.07,0,0,1,1.1-.82Zm8.81,13.21,1.43,4.25-13.23,4.45L82.82,127Z"/><path class="b" d="M114.54,115l1.38,3.4-10.76,4.39-1.38-3.39Z"/><path class="b" d="M118.05,96.76l8.85,18.08a2,2,0,0,0,1.14,1.09,2.28,2.28,0,0,0,1.63-.23l8.44-4.14,2.21,3.91q-2.34,1.5-5,2.88c-1.8.92-3.59,1.82-5.39,2.7a5.8,5.8,0,0,1-4.67.53,5.62,5.62,0,0,1-3.12-3l-9.42-19.23Z"/><path class="b" d="M135.21,87.48q1.86-1.16,3.76-2.31c1.27-.77,2.52-1.5,3.76-2.21s2.43-1.34,3.56-1.89l2.05,3.83-8.79,5.44a1.93,1.93,0,0,0-1,1.2,2.07,2.07,0,0,0,.36,1.52l7.23,11.67a2.06,2.06,0,0,0,1.2,1,1.94,1.94,0,0,0,1.51-.34l8.78-5.44,2.51,3.54c-1,.74-2.1,1.52-3.28,2.33s-2.4,1.6-3.65,2.4-2.5,1.57-3.74,2.33a5.72,5.72,0,0,1-4.32.91,5.14,5.14,0,0,1-3.4-2.5L133.19,95.1a5.17,5.17,0,0,1-.73-4.18A5.83,5.83,0,0,1,135.21,87.48Zm1.48,11.93,13.69-8.48,2.22,3.58L138.9,103Z"/><path class="b" d="M165.88,65.4l9.86,24.4a2.28,2.28,0,0,1,.13,1.39,2,2,0,0,1-.77,1.2l-4.29,3.38a2.1,2.1,0,0,1-1.38.48,2.06,2.06,0,0,1-1.29-.47l-21.42-15.3,4.84-3.81,15.88,12.22c.38.33.78.65,1.18,1s.8.66,1.16,1l.8-.63c-.24-.44-.48-.9-.71-1.38s-.45-1-.65-1.42l-8.16-18.25Z"/><path class="b" d="M171.56,60,174.84,57q1.66-1.47,3.31-2.86c1.09-.92,2.15-1.75,3.16-2.49l2.7,3.4L176.34,62a1.92,1.92,0,0,0-.74,1.36,2.05,2.05,0,0,0,.63,1.42L185.44,75a2.06,2.06,0,0,0,1.35.78,2,2,0,0,0,1.43-.61l7.66-6.93,3.11,3c-.86.91-1.79,1.87-2.81,2.88s-2.07,2-3.16,3l-3.26,3a5.75,5.75,0,0,1-4.08,1.67,5.15,5.15,0,0,1-3.8-1.85L170.94,67.84a5.14,5.14,0,0,1-1.47-4A5.85,5.85,0,0,1,171.56,60Zm3.59,11.48,11.95-10.8,2.82,3.12L178,74.57Z"/><path class="b" d="M188,44.71,202.15,59a1.94,1.94,0,0,0,1.43.67A2.21,2.21,0,0,0,205,59l6.69-6.6,3.35,3c-1.17,1.44-2.46,2.89-3.86,4.33S208.39,62.56,207,64a5.81,5.81,0,0,1-4.26,2,5.6,5.6,0,0,1-3.9-1.81L183.76,48.9Z"/><path class="k" d="M223.3,446.5A223.23,223.23,0,0,1,65.4,65.4,223.25,223.25,0,0,1,446.5,223.3,223.29,223.29,0,0,1,223.3,446.5Zm0-422.4c-109.8,0-199.2,89.3-199.2,199.2s89.3,199.2,199.2,199.2,199.2-89.3,199.2-199.2S333.1,24.1,223.3,24.1Z"/></svg>