<svg xmlns="http://www.w3.org/2000/svg" xmlns:xlink="http://www.w3.org/1999/xlink" viewBox="0 0 446.5 446.5"><defs><style>.a{fill:none;}.b{fill:#fff;}.c{fill:#f5ab40;}.d{fill:#c6c6c5;}.e{fill:#d9d9d9;}.f{clip-path:url(#a);}.g{opacity:0.84;}.h{fill:#ececec;}.i{opacity:0.53;}.j{fill:#9c9b9b;}.k{clip-path:url(#c);}.l{fill:#868686;}.m{clip-path:url(#f);}.n{fill:#eb5f9e;}.o{fill:#dbdddc;}.p{fill:#b2b2b2;}.q{fill:#ff3369;}.r{fill:#00a099;}</style><clipPath id="a"><path class="a" d="M248.4,282.3a185.16,185.16,0,0,1,7.6-44.4c1.4-4.2,3-8.4,4.7-12.4a10.81,10.81,0,0,0,.3-8.1,10.59,10.59,0,0,0-5.4-5.8,11.26,11.26,0,0,0-10.4.9,22,22,0,0,0-19.7-6.5,27.06,27.06,0,0,0-7,2.1,46.74,46.74,0,0,0-4.9,2.7c.5-.9,1-1.9,1.4-2.8,2.4-4.9.1-11.8-5-13.9a10.68,10.68,0,0,0-13.9,5c-2.4,4.9-5.1,9.7-8,14.4A182.38,182.38,0,0,1,160,246.8a238.93,238.93,0,0,1-39,28.7c-4,2.4-8.2,4.7-12.3,7A468,468,0,0,1,58,305l-15.2,5.6A10.59,10.59,0,0,0,37,316a10.37,10.37,0,0,0-.3,8.1,10.63,10.63,0,0,0,13.5,6.1c.4-.1.8-.3,1.1-.4a15.52,15.52,0,0,0-.4,11.6,90,90,0,0,0,7.4,15.7,73.57,73.57,0,0,0,8,11.2A86.83,86.83,0,0,0,79,380.6a136.06,136.06,0,0,0,15.1,10c8.9,5.3,18.1,10.2,27.3,15s18.4,9.5,27.9,13.6a172.86,172.86,0,0,0,31.4,10.5c11.2,2.4,22.9,2.8,34.3,2.2,10.9-.6,21.7-1.8,32.5-3.2,2.7-.3,5.4-.7,8.1-1.1,1.9-.3,3.9-.6,5.8-1.1a7.46,7.46,0,0,0,1.2.7,10.37,10.37,0,0,0,8.1.3,10.63,10.63,0,0,0,6.1-13.5c-.6-1.6,1.5,1.9.9.3,0-.3,2.2,3.3.1-1.2-.9-2-3.6-9.1-4.3-11.1-1-2.5-2-5-3.1-7.4s-2.1-4.6-3.2-6.9Q262.52,374,258.6,360q-2-7.2-3.6-14.4a260.62,260.62,0,0,1-6.5-50.6C248.2,290.7,248.3,286.5,248.4,282.3Z"/></clipPath><clipPath id="c"><path class="a" d="M278.4,182.5a6.2,6.2,0,0,0-3.1-4c-2.3-1.3-5.3-1.7-7.8-2.4l-32-8.5c-2.8-.7-5.7-1.8-8.5-1.9a10.21,10.21,0,0,0-3,.3l4.8-4.2a3.83,3.83,0,0,0,.1-5.5,4,4,0,0,0-5.5-.1c-12,10-22.4,21.8-32.4,33.8-2.9,3.4-5.7,6.9-8.5,10.3a4.09,4.09,0,0,0-1.1,3.8,4.2,4.2,0,0,0,2.7,2.8L265.6,240a3.76,3.76,0,0,0,3.4-.6,4.13,4.13,0,0,0,1.6-3.1l7.5-49.4a11.06,11.06,0,0,0,.3-4.4Zm-37.2,20.9c0,.1.1.3.1.4-.3-.1-.5-.1-.8-.2A1.45,1.45,0,0,0,241.2,203.4Zm9.3,9.3v.4a4.33,4.33,0,0,1-.5-.1,2.19,2.19,0,0,0,.5-.3Zm9.7-25.8a.35.35,0,0,0-.2-.1A.31.31,0,0,0,260.2,186.9Zm0,0v.9c-.1-.4-.2-.7-.3-1.1.1.1.2.2.3.2Zm-34.4-13.2Zm30.6,47.4v.5c-.1,0-.3-.1-.4-.1Zm14-34.2a3.89,3.89,0,0,0-1.5-2.3,8.45,8.45,0,0,1,1.7.5A11,11,0,0,0,270.4,186.9Zm.9-1.6C271.6,185.4,271.5,185.5,271.3,185.3Z"/></clipPath><clipPath id="f"><path class="a" d="M210.6,27.5,377.7,94a3.53,3.53,0,0,1,2,4.7L333,216.1a3.53,3.53,0,0,1-4.7,2L161.2,151.6a3.53,3.53,0,0,1-2-4.7L205.9,29.5a3.5,3.5,0,0,1,4.7-2Z"/></clipPath></defs><circle class="b" cx="222.6" cy="224.5" r="213"/><circle class="c" cx="223.3" cy="224.5" r="176.8"/><circle class="d" cx="271.1" cy="385.6" r="48.5"/><path class="d" d="M303.5,413.2a26.84,26.84,0,0,1-6.2-17.2,27.1,27.1,0,0,1,54.2,0M55.2,267.1C38,287.6,18,311.5,38.5,328.8s73.8,21.3,91,.8a48.55,48.55,0,0,0-74.3-62.5Z"/><circle class="d" cx="44" cy="269.8" r="27.1"/><path class="e" d="M248.4,282.3a185.16,185.16,0,0,1,7.6-44.4c1.4-4.2,3-8.4,4.7-12.4a10.81,10.81,0,0,0,.3-8.1,10.59,10.59,0,0,0-5.4-5.8,11.26,11.26,0,0,0-10.4.9,22,22,0,0,0-19.7-6.5,27.06,27.06,0,0,0-7,2.1,46.74,46.74,0,0,0-4.9,2.7c.5-.9,1-1.9,1.4-2.8,2.4-4.9.1-11.8-5-13.9a10.68,10.68,0,0,0-13.9,5c-2.4,4.9-5.1,9.7-8,14.4A182.38,182.38,0,0,1,160,246.8a238.93,238.93,0,0,1-39,28.7c-4,2.4-8.2,4.7-12.3,7A468,468,0,0,1,58,305l-15.2,5.6A10.59,10.59,0,0,0,37,316a10.37,10.37,0,0,0-.3,8.1,10.63,10.63,0,0,0,13.5,6.1c.4-.1.8-.3,1.1-.4a15.52,15.52,0,0,0-.4,11.6,90,90,0,0,0,7.4,15.7,73.57,73.57,0,0,0,8,11.2A86.83,86.83,0,0,0,79,380.6a136.06,136.06,0,0,0,15.1,10c8.9,5.3,18.1,10.2,27.3,15s18.4,9.5,27.9,13.6a172.86,172.86,0,0,0,31.4,10.5c11.2,2.4,22.9,2.8,34.3,2.2,10.9-.6,21.7-1.8,32.5-3.2,2.7-.3,5.4-.7,8.1-1.1,1.9-.3,3.9-.6,5.8-1.1a7.46,7.46,0,0,0,1.2.7,10.37,10.37,0,0,0,8.1.3,10.63,10.63,0,0,0,6.1-13.5c-.6-1.6,1.5,1.9.9.3,0-.3,2.2,3.3.1-1.2-.9-2-3.6-9.1-4.3-11.1-1-2.5-2-5-3.1-7.4s-2.1-4.6-3.2-6.9Q262.52,374,258.6,360q-2-7.2-3.6-14.4a260.62,260.62,0,0,1-6.5-50.6C248.2,290.7,248.3,286.5,248.4,282.3Z"/><g class="f"><g class="g"><path class="h" d="M242.2,336.4a65.61,65.61,0,0,0-28.3,6.4,53.86,53.86,0,0,0-51.1-37A53.29,53.29,0,0,0,142,310a53.8,53.8,0,1,0-49.5,74.9,53.29,53.29,0,0,0,20.8-4.2,53.87,53.87,0,0,0,49.5,32.7,54.91,54.91,0,0,0,14.7-2,65.4,65.4,0,1,0,64.7-75Z"/></g></g><g class="f"><g class="i"><path class="h" d="M234.9,387.2a65.61,65.61,0,0,0-28.3,6.4,53.86,53.86,0,0,0-51.1-37,53.29,53.29,0,0,0-20.8,4.2,53.8,53.8,0,1,0-49.5,74.9,53.29,53.29,0,0,0,20.8-4.2,53.87,53.87,0,0,0,49.5,32.7,54.91,54.91,0,0,0,14.7-2,65.4,65.4,0,1,0,64.7-75Z"/></g></g><path class="j" d="M278.4,182.5a6.2,6.2,0,0,0-3.1-4c-2.3-1.3-5.3-1.7-7.8-2.4l-32-8.5c-2.8-.7-5.7-1.8-8.5-1.9a10.21,10.21,0,0,0-3,.3l4.8-4.2a3.83,3.83,0,0,0,.1-5.5,4,4,0,0,0-5.5-.1c-12,10-22.4,21.8-32.4,33.8-2.9,3.4-5.7,6.9-8.5,10.3a4.09,4.09,0,0,0-1.1,3.8,4.2,4.2,0,0,0,2.7,2.8L265.6,240a3.76,3.76,0,0,0,3.4-.6,4.13,4.13,0,0,0,1.6-3.1l7.5-49.4a11.06,11.06,0,0,0,.3-4.4Zm-37.2,20.9c0,.1.1.3.1.4-.3-.1-.5-.1-.8-.2A1.45,1.45,0,0,0,241.2,203.4Zm9.3,9.3v.4a4.33,4.33,0,0,1-.5-.1,2.19,2.19,0,0,0,.5-.3Zm9.7-25.8a.35.35,0,0,0-.2-.1A.31.31,0,0,0,260.2,186.9Zm0,0v.9c-.1-.4-.2-.7-.3-1.1.1.1.2.2.3.2Zm-34.4-13.2Zm30.6,47.4v.5c-.1,0-.3-.1-.4-.1Zm14-34.2a3.89,3.89,0,0,0-1.5-2.3,8.45,8.45,0,0,1,1.7.5A11,11,0,0,0,270.4,186.9Zm.9-1.6C271.6,185.4,271.5,185.5,271.3,185.3Z"/><g class="k"><path class="l" d="M275.9,216.5c-14.2-5.7-29.1-10.4-43.5-16s-28.5-11.6-42.4-17.7c-4.5-2-6.8.7-2.7,2.7,26,12.7,57.2,26.4,86.8,34C278.1,220.5,280.2,218.2,275.9,216.5Z"/></g><g class="k"><path class="l" d="M282.9,204.9c-14.2-5.7-29.1-10.4-43.5-16s-28.5-11.6-42.4-17.7c-4.5-2-6.8.7-2.7,2.7,26,12.7,57.2,26.4,86.8,34C285.1,208.9,287.2,206.6,282.9,204.9Z"/></g><g class="k"><path class="l" d="M274,229.6c-14.2-5.7-29.1-10.4-43.5-16S202,202,188.1,195.9c-4.5-2-6.8.7-2.7,2.7,26,12.7,57.2,26.4,86.8,34C276.1,233.6,278.2,231.3,274,229.6Z"/></g><path class="e" d="M207.2,20.8,385.1,91.6a3.8,3.8,0,0,1,2.1,4.9L339.8,215.7a3.8,3.8,0,0,1-4.9,2.1L157,147a3.8,3.8,0,0,1-2.1-4.9L202.3,22.9a3.72,3.72,0,0,1,4.9-2.1Z"/><path d="M210.6,27.5,377.7,94a3.53,3.53,0,0,1,2,4.7L333,216.1a3.53,3.53,0,0,1-4.7,2L161.2,151.6a3.53,3.53,0,0,1-2-4.7L205.9,29.5a3.5,3.5,0,0,1,4.7-2Z"/><g class="m"><path class="n" d="M244.8,9.8l2.4-6.7h-.1c-1.2,1.6-2.6,3.2-4.2,5l-5.6,6.3-1.5-.6.4-8.2.6-6.6-3,6.6-3,6.4-1.9-.8,7.2-14.8,2.5,1-.4,8.4-.5,5.7h.1A57.56,57.56,0,0,1,241.5,7L247.2.7l2.5,1-5.1,15.6-1.9-.8Z"/><path class="n" d="M251.6,14.8l-3.5,4.1-2-.8L257.3,5l2.4,1-.9,17.3-2.1-.8.3-5.4-5.4-2.3Zm5.6.4.3-5,.3-3.1-1.9,2.4-3.3,3.8,4.6,1.9Z"/><path class="n" d="M261.7,21.6a7.61,7.61,0,0,0,3.1,2.4c2,.8,3.6.2,4.2-1.3s.1-2.6-1.7-4.2c-2.1-1.9-3.1-3.8-2.3-5.9,1-2.4,3.6-3.3,6.6-2.2a7.21,7.21,0,0,1,3.1,2.1l-1.2,1.4a6.61,6.61,0,0,0-2.6-1.9c-2.1-.8-3.4.1-3.8,1.1-.6,1.4.1,2.5,1.8,4.1,2.2,2,3,3.8,2.1,6s-3.5,3.7-7.1,2.2a9,9,0,0,1-3.5-2.5Z"/><path class="n" d="M280.4,16.2l-4.6-1.9.7-1.7,11.3,4.5-.7,1.7-4.6-1.9L277,30.5l-2-.8,5.4-13.5Zm13.7,12.9-5.9-2.4L286,32.2l6.6,2.6-.7,1.6L283.4,33l6.1-15.2,8.2,3.3-.7,1.6-6.2-2.5L288.9,25l5.9,2.4-.7,1.7Zm6.4-6.6a27.86,27.86,0,0,1,3.9,1.2,6.66,6.66,0,0,1,3.9,3,4,4,0,0,1,0,3.4,4.27,4.27,0,0,1-4.4,2.7v.1c1,.9,1.3,2.2,1,4a20.52,20.52,0,0,0-.5,4.6l-2-.8a19.94,19.94,0,0,1,.4-4c.4-2.3-.1-3.4-1.9-4.2l-1.8-.7-2.6,6.6-2-.8Zm-.9,7.7,2,.8c2.1.8,3.9.2,4.6-1.5.8-2-.3-3.4-2.4-4.2a6.52,6.52,0,0,0-2-.6Zm17.9,15.9a9.07,9.07,0,0,1-4.3-.9c-4.3-1.7-6.4-5.7-4.4-10.7,1.9-4.8,6.4-6.7,11.1-4.8a8.66,8.66,0,0,1,3.3,2.1l-1.1,1.4a6.87,6.87,0,0,0-2.8-1.9c-3.6-1.4-6.8-.1-8.4,3.9-1.5,3.7-.3,7,3.4,8.5a9.46,9.46,0,0,0,3.5.7l-.3,1.7Z"/><path class="n" d="M325.8,32.4l2,.8-5.4,13.6,6.5,2.6-.7,1.6-8.5-3.4Z"/><path class="n" d="M334.7,48.1l-3.5,4.1-2-.8,11.3-13.1,2.4.9L342,56.5l-2.1-.8.3-5.4-5.5-2.2Zm5.6.5.3-5,.3-3.1L339,42.9l-3.2,3.8,4.5,1.9Zm4.6,6.3a7.61,7.61,0,0,0,3.1,2.4c2,.8,3.6.2,4.2-1.3s.1-2.6-1.7-4.2c-2.1-1.9-3.1-3.8-2.3-5.9,1-2.4,3.6-3.3,6.6-2.2a7.21,7.21,0,0,1,3.1,2.1l-1.2,1.4a6.61,6.61,0,0,0-2.6-1.9c-2.1-.8-3.4.1-3.8,1.1-.6,1.4.1,2.5,1.8,4.1,2.2,2,3,3.8,2.1,6s-3.5,3.7-7.1,2.2a9,9,0,0,1-3.5-2.5Z"/><path class="n" d="M356,59.4a7.61,7.61,0,0,0,3.1,2.4c2,.8,3.6.2,4.2-1.3s.1-2.6-1.7-4.2c-2.1-1.9-3.1-3.8-2.3-5.9.9-2.4,3.6-3.3,6.6-2.2a7.21,7.21,0,0,1,3.1,2.1l-1.2,1.4a6.61,6.61,0,0,0-2.6-1.9c-2.1-.8-3.4.1-3.8,1.1-.6,1.4.1,2.5,1.8,4.1,2.2,2,3,3.8,2.1,6s-3.5,3.7-7.1,2.2a9,9,0,0,1-3.5-2.5Z"/></g><g class="m"><path class="n" d="M254.6-13l2.4-6.7h-.1c-1.2,1.6-2.6,3.2-4.2,5l-5.6,6.3L245.6-9l.4-8.2.6-6.6-3,6.6-3,6.4-1.9-.8,7.2-14.8,2.5,1L248-17l-.5,5.7h.1a57.56,57.56,0,0,1,3.7-4.5l5.7-6.3,2.5,1L254.4-5.5l-1.9-.8Zm6.8,4.9L257.9-4l-2-.8,11.3-13.1,2.4,1L268.7.4l-2.1-.8.3-5.4-5.5-2.3Zm5.6.5.3-5,.3-3.1-1.9,2.4-3.2,3.8L267-7.6Zm4.6,6.4a7.61,7.61,0,0,0,3.1,2.4c2,.8,3.6.2,4.2-1.3s.1-2.6-1.7-4.2c-2.1-1.9-3.1-3.8-2.3-5.9,1-2.4,3.6-3.3,6.6-2.2a7.21,7.21,0,0,1,3.1,2.1l-1.2,1.4a6.61,6.61,0,0,0-2.6-1.9c-2.1-.8-3.4.1-3.8,1.1-.6,1.4.1,2.5,1.8,4.1,2.2,2,3,3.8,2.1,6s-3.5,3.7-7.1,2.2A9,9,0,0,1,270.3.1Zm18.7-5.5-4.6-1.9.7-1.7,11.3,4.5L296.9-4l-4.6-1.9L286.9,7.6l-2-.8ZM303.9,6.2,298,3.9l-2.2,5.5,6.6,2.6-.7,1.6-8.5-3.4L299.3-5l8.2,3.3-.7,1.6-6.2-2.5-1.9,4.8,5.9,2.4-.7,1.6Zm6.4-6.5A27.86,27.86,0,0,1,314.2.9a6.66,6.66,0,0,1,3.9,3,4,4,0,0,1,0,3.4,4.27,4.27,0,0,1-4.4,2.7v.1c1,.9,1.3,2.2,1,4a20.52,20.52,0,0,0-.5,4.6l-2-.8a19.94,19.94,0,0,1,.4-4c.4-2.3-.1-3.4-1.9-4.2L308.9,9l-2.6,6.6-2-.8Zm-.8,7.7,2,.8c2.1.8,3.9.2,4.6-1.5.8-2-.3-3.4-2.4-4.2a6.52,6.52,0,0,0-2-.6Zm17.8,15.9a9.07,9.07,0,0,1-4.3-.9c-4.3-1.7-6.4-5.7-4.4-10.7C320.5,7,325,5,329.7,6.9A8.66,8.66,0,0,1,333,9l-1.1,1.4a7.64,7.64,0,0,0-2.8-1.9c-3.6-1.4-6.8-.1-8.4,3.9-1.5,3.7-.3,7,3.4,8.5a9.46,9.46,0,0,0,3.5.7Zm8.4-13.7,2,.8L332.3,24l6.5,2.6-.7,1.6-8.5-3.4Zm8.9,15.7-3.5,4.1-2-.8,11.3-13.1,2.4.9-.9,17.3-2.1-.8.3-5.4-5.5-2.2Zm5.6.4.3-5,.3-3.1L348.9,20l-3.2,3.8,4.5,1.9Zm4.5,6.4a7.61,7.61,0,0,0,3.1,2.4c2,.8,3.6.2,4.2-1.3s.1-2.6-1.7-4.2c-2.1-1.9-3.1-3.8-2.3-5.9,1-2.4,3.6-3.3,6.6-2.2a7.21,7.21,0,0,1,3.1,2.1l-1.2,1.4a6.61,6.61,0,0,0-2.6-1.9c-2.1-.8-3.4.1-3.8,1.1-.6,1.4.1,2.5,1.8,4.1,2.2,2,3,3.8,2.1,6s-3.5,3.7-7.1,2.2a9,9,0,0,1-3.5-2.5Zm11.1,4.5a7.61,7.61,0,0,0,3.1,2.4c2,.8,3.6.2,4.2-1.3s.1-2.6-1.7-4.2c-2.1-1.9-3.1-3.8-2.3-5.9.9-2.4,3.6-3.3,6.6-2.2a7.21,7.21,0,0,1,3.1,2.1l-1.2,1.4A6.61,6.61,0,0,0,375,27c-2.1-.8-3.4.1-3.8,1.1-.6,1.4.1,2.5,1.8,4.1,2.2,2,3,3.8,2.1,6s-3.5,3.7-7.1,2.2a9,9,0,0,1-3.5-2.5Z"/></g><path class="o" d="M119,121.7,379.9,225.5a13.12,13.12,0,0,1-17.1,7.4L126.4,138.8a13.25,13.25,0,0,1-7.4-17.1Z"/><path class="p" d="M126.4,138.8l236.4,94.1a13.16,13.16,0,0,0,12.7-1.6L118.3,128.9a13.38,13.38,0,0,0,8.1,9.9Z"/><path class="h" d="M339.7,282.8a20.58,20.58,0,0,0-37.1-12.3A20.6,20.6,0,1,0,287.4,305h.1a20.58,20.58,0,0,0,41.1-1.6c0-.8-.1-1.5-.1-2.3a20.61,20.61,0,0,0,11.2-18.3ZM87.8,182.5a20.59,20.59,0,0,1,39.1.1,20.62,20.62,0,1,1,3.4,37.6h-.1a20.6,20.6,0,0,1-38.5-14.6,18,18,0,0,1,.8-2.1,20.8,20.8,0,0,1-4.7-21Z"/><path class="b" d="M246.8,63c-10.2-4.5-21.2-9.5-32.1-11.9-1.8-.4-3.4,2-1.6,3.1,9.7,5.8,21.3,9.8,32,13.6C248.3,68.8,249.7,64.3,246.8,63Zm27.6,26.5L228.5,72c-2.5-1-4.3,2.8-1.8,3.9L272,94.7C275.4,96.2,277.9,90.8,274.4,89.5Zm-35.9,3.4c-10.3-4.4-21.1-9-31.8-12.3-2.9-.9-4.8,3.6-2,5.1,10.1,5,21,9.1,31.5,13C239.5,99.9,241.8,94.3,238.5,92.9ZM305,146.3c-14.2-6.9-29.5-12.1-44.2-17.8l-22.2-8.6c-7.6-2.9-15.3-6.5-23.2-8.3-2.4-.5-3.9,2.7-1.7,4,6.5,3.8,13.8,6.4,20.8,9.2l22.9,9.4c14.9,6.1,29.9,12.9,45.2,17.8C305.9,153,308.2,147.9,305,146.3ZM218.3,135a140,140,0,0,0-26-9.7c-2.2-.6-4.5,2.5-2.1,3.9a153.87,153.87,0,0,0,26.1,11.1,2.73,2.73,0,0,0,3.2-1.7A2.85,2.85,0,0,0,218.3,135Zm56.2,23.3c-9.1-3.7-18.3-7.5-27.7-10.4-2.3-.7-4.2,2.9-1.8,4.1,9,4.5,18.5,8.1,27.9,11.8,3.4,1.3,5-4.1,1.6-5.5Z"/><path class="q" d="M206.2,108.2a92.09,92.09,0,0,0-13.5-4.3c-2-.5-3.8,2.3-1.7,3.5a109.1,109.1,0,0,0,13.4,6.3C207.8,115.1,209.7,109.4,206.2,108.2Zm15.3-40.1a50.23,50.23,0,0,0-11.6-2.7c-1.2-.1-2.5,1.5-1.2,2.4a54.67,54.67,0,0,0,10.7,6.3C223.5,76,225.9,69.7,221.5,68.1Zm16.9,74.7a115,115,0,0,0-13-4c-2.1-.5-3,2.5-1.2,3.5a123.73,123.73,0,0,0,11.5,5.8C239.3,149.7,241.9,144.1,238.4,142.8Zm58.2-27c-7.6-3.8-16.2-6.3-24.2-9.4l-24.3-8.9c-2.9-1-4.4,3.2-1.6,4.4,7.9,3.6,15.9,6.9,23.9,10.2s15.8,7.3,24,9.8C298.4,123.2,300.3,117.7,296.6,115.8Z"/><path class="q" d="M47.41,120.09S106,98.32,135.09,80.48C159.16,65.75,210.2,19,210.2,19l57.87,3.35s-50,62.21-96.68,93.94C112.48,156.32,26.68,166,26.68,166Z"/><path class="r" d="M223.3,446.5A223.23,223.23,0,0,1,65.4,65.4,223.27,223.27,0,0,1,381.1,381.2,221.78,221.78,0,0,1,223.3,446.5Zm0-422.4c-109.8,0-199.2,89.3-199.2,199.2s89.3,199.2,199.2,199.2,199.2-89.3,199.2-199.2S333.1,24.1,223.3,24.1Z"/><path class="b" d="M93,111.22a2.14,2.14,0,0,1,1.37,0,2.07,2.07,0,0,1,1.08.83l15.48,21.54-5.76,1.94-11.52-17-.73-1.17c-.24-.4-.47-.78-.67-1.15l-1,.33q.09.63.18,1.32c0,.46.09.92.11,1.38l1.1,20.5-5.8,1.95-.66-26.52a2,2,0,0,1,.36-1.32,2.08,2.08,0,0,1,1.1-.82Zm8.81,13.21,1.43,4.25L90,133.14l-1.43-4.25Z"/><path class="b" d="M120.28,116.94l1.39,3.39-10.76,4.39-1.39-3.39Z"/><path class="b" d="M123.8,98.66l8.85,18.08a1.92,1.92,0,0,0,1.14,1.09,2.25,2.25,0,0,0,1.62-.23l8.44-4.14,2.22,3.91q-2.35,1.5-5,2.88c-1.79.92-3.59,1.82-5.38,2.7a5.8,5.8,0,0,1-4.67.53,5.58,5.58,0,0,1-3.13-3l-9.41-19.23Z"/><path class="b" d="M141,89.38q1.86-1.16,3.76-2.31c1.26-.77,2.52-1.5,3.76-2.21S150.91,83.52,152,83l2.05,3.83-8.79,5.44a2,2,0,0,0-1,1.2,2.13,2.13,0,0,0,.37,1.52l7.23,11.67a2,2,0,0,0,1.19,1,1.93,1.93,0,0,0,1.51-.34l8.79-5.44,2.51,3.54c-1,.74-2.1,1.52-3.28,2.33s-2.4,1.61-3.65,2.4-2.5,1.57-3.74,2.33a5.73,5.73,0,0,1-4.32.91,5.16,5.16,0,0,1-3.41-2.5L138.94,97a5.13,5.13,0,0,1-.73-4.18A5.79,5.79,0,0,1,141,89.38Zm1.47,11.93,13.69-8.48,2.22,3.58-13.69,8.48Z"/><path class="b" d="M171.62,67.31l9.87,24.39a2.28,2.28,0,0,1,.13,1.39,2.06,2.06,0,0,1-.77,1.2l-4.29,3.38a2.1,2.1,0,0,1-1.38.48,2.06,2.06,0,0,1-1.29-.47l-21.42-15.3,4.84-3.81,15.87,12.22,1.19,1c.41.32.79.66,1.16,1l.8-.63c-.25-.44-.48-.89-.71-1.38s-.45-1-.65-1.42l-8.16-18.25Z"/><path class="b" d="M177.31,61.87l3.28-2.94q1.66-1.47,3.3-2.85c1.1-.92,2.15-1.76,3.17-2.5l2.7,3.4-7.67,6.93a1.93,1.93,0,0,0-.74,1.36,2,2,0,0,0,.63,1.42l9.21,10.19a2,2,0,0,0,1.35.77A2,2,0,0,0,194,77l7.66-6.93,3.11,3c-.86.91-1.8,1.88-2.81,2.88s-2.07,2-3.16,3l-3.26,3a5.75,5.75,0,0,1-4.09,1.67,5.16,5.16,0,0,1-3.8-1.85L176.69,69.74a5.13,5.13,0,0,1-1.47-4A5.81,5.81,0,0,1,177.31,61.87Zm3.59,11.48,11.95-10.8,2.82,3.12-11.95,10.8Z"/><path class="b" d="M193.75,46.61l14.14,14.32a2,2,0,0,0,1.43.67,2.21,2.21,0,0,0,1.47-.74l6.69-6.6,3.34,3c-1.16,1.44-2.45,2.89-3.86,4.33s-2.82,2.87-4.24,4.28a5.81,5.81,0,0,1-4.26,2A5.62,5.62,0,0,1,204.55,66l-15-15.24Z"/></svg>