<?xml version="1.0" encoding="utf-8"?>
<!-- Generator: Adobe Illustrator 28.2.0, SVG Export Plug-In . SVG Version: 6.00 Build 0)  -->
<svg version="1.1" id="Layer_1" xmlns="http://www.w3.org/2000/svg" xmlns:xlink="http://www.w3.org/1999/xlink" x="0px" y="0px"
	 viewBox="0 0 446.5 446.5" style="enable-background:new 0 0 446.5 446.5;" xml:space="preserve">
<style type="text/css">
	.st0{fill:#FFFFFF;}
	.st1{fill:#0F182D;}
	.st2{clip-path:url(#SVGID_00000166639182268647793610000005440217959407849097_);}
	.st3{clip-path:url(#SVGID_00000036246758235469642270000002544974707387427231_);}
	.st4{opacity:0.72;}
	.st5{fill:#2D59B2;}
	.st6{clip-path:url(#SVGID_00000124153562466611808690000016245092278286573703_);}
	.st7{fill:#009941;}
	.st8{clip-path:url(#SVGID_00000096044047033308919290000011513220054238083517_);}
	.st9{clip-path:url(#SVGID_00000151508909085806080960000006751605059984080031_);}
	.st10{opacity:0.74;}
	.st11{fill:#F5AB40;}
	.st12{opacity:0.5;}
	.st13{fill:#ECECEC;}
	.st14{fill:#2C4C9B;}
	.st15{opacity:0.37;fill:#C6C6C5;enable-background:new    ;}
	.st16{fill:#9C9B9B;}
	.st17{clip-path:url(#SVGID_00000091009276677952338990000017360704046762698114_);}
	.st18{fill:#868686;}
	.st19{clip-path:url(#SVGID_00000098207583047760059600000004459762296512466610_);}
	.st20{clip-path:url(#SVGID_00000000939166554380644800000008892041430815975086_);}
	.st21{fill:#D9D9D9;}
	.st22{clip-path:url(#SVGID_00000175280963882929148990000005039761035620307613_);}
	.st23{fill:#EB5F9E;}
	.st24{clip-path:url(#SVGID_00000062193471163676994470000000115704425507282070_);}
	.st25{fill:#DBDDDC;}
	.st26{fill:#B2B2B2;}
	.st27{fill:#FF3369;}
</style>
<circle class="st0" cx="223.3" cy="223.3" r="213"/>
<circle class="st1" cx="223.3" cy="223.3" r="175.2"/>
<g>
	<defs>
		<circle id="SVGID_1_" cx="223.3" cy="223.3" r="175.2"/>
	</defs>
	<clipPath id="SVGID_00000072972515363847547240000009016284024979724703_">
		<use xlink:href="#SVGID_1_"  style="overflow:visible;"/>
	</clipPath>
	<g style="clip-path:url(#SVGID_00000072972515363847547240000009016284024979724703_);">
		<circle class="st1" cx="223.6" cy="223.5" r="176.8"/>
		<g>
			<defs>
				<circle id="SVGID_00000039094089810079576780000018298117162100989825_" cx="223.6" cy="223.5" r="176.8"/>
			</defs>
			<clipPath id="SVGID_00000010990573481010275220000006587211550036976278_">
				<use xlink:href="#SVGID_00000039094089810079576780000018298117162100989825_"  style="overflow:visible;"/>
			</clipPath>
			<g style="clip-path:url(#SVGID_00000010990573481010275220000006587211550036976278_);">
				<g class="st4">
					<path d="M521.2,99C460,43.3,371.2-8.8,377.7,83.7c5.6,79.4-153.1-57.4-177.3,20.2c-22.7,72.9,193,208.8,126.2,196.9
						s0.3,65.4,83.6,125.4c70.1,50.4,49.6-8.6,74.9-12.4c33.4-5.1,155.1,99.9,185.2,61.8c29.2-37-42.8-103.1-102.3-159.4
						c-57-53.9,28.5-29.4,47.4-67.5C636.6,206,586,158,521.2,99z"/>
				</g>
				<g class="st4">
					<path d="M67.1-40.5C5.8-96.2-83-148.2-76.4-55.8c5.6,79.4-153.1-57.4-177.3,20.2c-22.7,72.9,193,208.8,126.2,196.9
						s0.3,65.4,83.6,125.4c70.1,50.4,49.6-8.6,74.9-12.4c33.4-5.1,155.1,99.9,185.2,61.8c29.2-37-42.8-103.1-102.3-159.4
						c-57-53.9,28.5-29.4,47.4-67.5C182.4,66.5,131.9,18.5,67.1-40.5L67.1-40.5z"/>
				</g>
			</g>
		</g>
		<circle class="st5" cx="223.1" cy="150.8" r="87.8"/>
		<g>
			<defs>
				<circle id="SVGID_00000088812180373769812480000018121000974811478688_" cx="223.1" cy="150.8" r="87.8"/>
			</defs>
			<clipPath id="SVGID_00000101087295310536981560000007984176700442979758_">
				<use xlink:href="#SVGID_00000088812180373769812480000018121000974811478688_"  style="overflow:visible;"/>
			</clipPath>
			<g style="clip-path:url(#SVGID_00000101087295310536981560000007984176700442979758_);">
				<path class="st7" d="M122,89.9c2.6-0.1,5.3,0.1,7.9,0.4l-3.3-0.4c6,0.9,11.8,2.7,17.4,5.1c-1-0.4-2-0.8-3-1.3
					c4.4,1.9,8.6,4,12.8,6.2c4.1,2,8.1,4.3,11.8,6.9c-0.8-0.7-1.7-1.3-2.5-2c1.2,0.9,2.3,2,3.3,3.2c-0.7-0.8-1.3-1.7-2-2.5
					c1,1.3,1.8,2.7,2.4,4.2c-0.4-1-0.8-2-1.3-3c1,2.3,1.6,4.7,1.9,7.1c-0.1-1.1-0.3-2.2-0.4-3.3c0.3,2,0.3,3.9,0.1,5.9
					c0.1-1.1,0.3-2.2,0.4-3.3c-0.2,1.3-0.5,2.5-1,3.7c0.4-1,0.8-2,1.3-3c-0.6,1.4-1.4,2.6-2.3,3.8c0.7-0.8,1.3-1.7,2-2.5
					c-1.2,1.5-2.5,2.9-3.8,4.3c-2,2.1-3.8,4.3-5.5,6.6c-1.6,2.3-2.9,4.8-3.8,7.4c-0.6,1.9-1,4-1.1,6c-0.1,1.1-0.1,2.2,0,3.3
					c0.1,2,0.5,4,1,6c0.7,2,1.4,3.9,2.3,5.8c1,2,2.1,3.9,3.5,5.6c3.4,4.5,7.4,8.6,11.9,12.2c2.8,2.3,5.7,4.5,8.7,6.5
					c2.3,1.5,4.7,2.9,7,4.5c-0.8-0.7-1.7-1.3-2.5-2c1.2,0.9,2.3,1.9,3.2,3.1c-0.7-0.8-1.3-1.7-2-2.5c0.9,1.2,1.7,2.5,2.3,3.8
					c-0.4-1-0.8-2-1.3-3c0.8,1.9,1.3,3.8,1.6,5.8c-0.1-1.1-0.3-2.2-0.4-3.3c0.3,2.6,0.3,5.1,0,7.7c0.1-1.1,0.3-2.2,0.4-3.3
					c-0.4,3.3-1.3,6.5-2.6,9.6c0.4-1,0.8-2,1.3-3c-1.1,2.7-2.6,5.3-4.4,7.6c0.7-0.8,1.3-1.7,2-2.5c-1.6,2-3.3,3.8-5.3,5.4
					c0.8-0.7,1.7-1.3,2.5-2c-1.9,1.5-4,2.7-6.2,3.6c1-0.4,2-0.8,3-1.3c-2.1,0.9-4.3,1.5-6.5,1.8c1.1-0.1,2.2-0.3,3.3-0.4
					c-2,0.3-4,0.3-6,0c1.1,0.1,2.2,0.3,3.3,0.4c-2.2-0.3-4.4-0.9-6.4-1.8c1,0.4,2,0.8,3,1.3c-2.2-1-4.3-2.2-6.2-3.7
					c0.8,0.7,1.7,1.3,2.5,2c-3-2.4-5.6-5.1-7.9-8.1c0.7,0.8,1.3,1.7,2,2.5c-6.1-7.9-10.6-17.2-14.4-26.4c0.4,1,0.8,2,1.3,3
					c-5.9-14-9.9-28.8-11.9-43.9c0.1,1.1,0.3,2.2,0.4,3.3c-0.6-4.8-1.1-9.6-1.3-14.5c-0.4-4.8-0.4-9.7,0-14.5
					c-0.1,1.1-0.3,2.2-0.4,3.3c0.1-0.7,0.3-1.4,0.5-2.1c-0.4,1-0.8,2-1.3,3c0.3-0.7,0.7-1.4,1.2-2c-0.7,0.8-1.3,1.7-2,2.5
					c0.7-0.8,1.5-1.5,2.3-2.2c-0.8,0.7-1.7,1.3-2.5,2c1.1-0.8,2.3-1.5,3.6-2.1c-1,0.4-2,0.8-3,1.3c1.5-0.6,3-1,4.6-1.2
					c-1.1,0.1-2.2,0.3-3.3,0.4c1.7-0.2,3.4-0.2,5.1,0c-1.1-0.1-2.2-0.3-3.3-0.4c1.8,0.3,3.5,0.7,5.2,1.4c-1-0.4-2-0.8-3-1.3
					c1.5,0.6,2.9,1.4,4.1,2.4c-0.8-0.7-1.7-1.3-2.5-2c1.1,0.9,2,1.8,2.9,2.9c-0.7-0.8-1.3-1.7-2-2.5c0.7,1,1.4,2,1.9,3.1
					c-0.4-1-0.8-2-1.3-3c0.3,0.7,0.5,1.4,0.6,2.1c-0.1-1.1-0.3-2.2-0.4-3.3v1.7c0.1-1.1,0.3-2.2,0.4-3.3c-0.1,0.5-0.2,1-0.4,1.5
					c0.4-1,0.8-2,1.3-3c-0.3,0.8-0.8,1.5-1.3,2.2c0.7-0.8,1.3-1.7,2-2.5c-1.8,2-3.7,3.8-5.8,5.5c-3.4,3.2-5.9,7.2-7.5,11.6
					c-0.5,1.2-0.9,2.5-1.1,3.8c-0.5,2.4-0.7,4.8-0.7,7.3c0.2,4.8,1.5,9.4,3.7,13.6c1.6,2.8,4.3,4.9,7.5,5.7c2.7,0.7,5.5,0.4,8.1-0.6
					c2.5-1,4.6-2.8,6-5.1c1.5-3,2-6.3,1.3-9.6l-6.4-34.3c0.1,1.1,0.3,2.2,0.4,3.3v-0.8c-0.1,1.1-0.3,2.2-0.4,3.3
					c0-0.1,0.1-0.2,0.1-0.4c-0.4,1-0.8,2-1.3,3c0.1-0.1,0.1-0.2,0.2-0.3c-0.7,0.8-1.3,1.7-2,2.5l0.2-0.2c-0.8,0.7-1.7,1.3-2.5,2
					c0.1-0.1,0.2-0.1,0.3-0.2c-1,0.4-2,0.8-3,1.3c0.3-0.1,0.6-0.2,0.9-0.2c-1.1,0.1-2.2,0.3-3.3,0.4c1,0,2.1,0,3.1,0.2
					c-1.1-0.1-2.2-0.3-3.3-0.4c3.5,0.5,6.9,1.4,10.1,2.8c-1-0.4-2-0.8-3-1.3c3.1,1.3,6,3,8.7,5c-0.8-0.7-1.7-1.3-2.5-2
					c0.2,0.2,0.4,0.3,0.6,0.5c-0.7-0.8-1.3-1.7-2-2.5c0.1,0.1,0.2,0.2,0.2,0.3c-0.4-1-0.8-2-1.3-3c0,0.1,0.1,0.2,0.1,0.4
					c-0.1-1.1-0.3-2.2-0.4-3.3c0.1,0.3,0.1,0.5,0,0.8c0.1-1.1,0.3-2.2,0.4-3.3c-0.1,0.4-0.2,0.8-0.4,1.2c0.4-1,0.8-2,1.3-3
					c-0.7,1.4-1.5,2.7-2.4,4c0.7-0.8,1.3-1.7,2-2.5c-1.9,2.5-4.3,4.7-6.4,7.1c-2.8,3-5.2,6.4-7,10.1c-1.8,3.7-3.1,7.6-3.8,11.7
					c-0.8,4.1-1,8.3-0.8,12.5c0.5,7.8,2.4,15.5,5.4,22.8c3.2,7.8,7,15.3,10.8,22.8l10.5,20.7c1.7,3.4,3.2,7,5.2,10.2
					c3.7,5.8,10,9.7,17,9.2c5.8-0.3,11.3-2.8,15.3-7.1c3.1-3.4,5.3-7.5,6.4-12c1.1-4.9,1.1-10,0-14.9c-1.1-4.3-2.7-8.5-4.9-12.4
					c-3.9-7.2-8.1-14.2-12.8-20.9c-5.2-7.7-10.8-15.2-16.6-22.4c-1.9-2.3-6-3.7-8.8-3.7c-3.3,0-6.5,1.4-8.8,3.7
					c-2.3,2.3-3.7,5.5-3.7,8.8c0.1,1.1,0.3,2.2,0.4,3.3c0.6,2.1,1.7,4,3.2,5.5l3.8,4.8c-0.7-0.8-1.3-1.7-2-2.5
					c4.9,6.3,9.5,12.9,13.9,19.6c2.2,3.3,4.2,6.7,6.3,10.1c2.1,3.3,3.9,6.7,5.5,10.3c-0.4-1-0.8-2-1.3-3c1,2.3,1.7,4.7,2.1,7.2
					c-0.1-1.1-0.3-2.2-0.4-3.3c0.2,1.6,0.2,3.2,0,4.8c0.1-1.1,0.3-2.2,0.4-3.3c-0.2,1.5-0.6,3-1.2,4.4c0.4-1,0.8-2,1.3-3
					c-0.4,1.1-1,2.1-1.7,3c0.7-0.8,1.3-1.7,2-2.5c-0.6,0.8-1.4,1.6-2.2,2.2c0.8-0.7,1.7-1.3,2.5-2c-0.7,0.5-1.4,0.9-2.1,1.3
					c1-0.4,2-0.8,3-1.3c-0.8,0.3-1.6,0.6-2.5,0.7c1.1-0.1,2.2-0.3,3.3-0.4c-0.7,0.1-1.5,0.1-2.2,0c1.1,0.1,2.2,0.3,3.3,0.4
					c-0.6-0.1-1.1-0.3-1.7-0.5c1,0.4,2,0.8,3,1.3c-0.4-0.2-0.8-0.4-1.2-0.7c0.8,0.7,1.7,1.3,2.5,2c-0.4-0.3-0.8-0.7-1.1-1.1
					c0.7,0.8,1.3,1.7,2,2.5c-1.2-1.9-2.3-3.9-3.2-6l-3.3-6.6l-6.5-12.8c-4.2-8.3-8.7-16.6-12.3-25.2c0.4,1,0.8,2,1.3,3
					c-2.4-5.5-4.1-11.3-5-17.2c0.1,1.1,0.3,2.2,0.4,3.3c-0.5-3.9-0.5-7.7,0-11.6c-0.1,1.1-0.3,2.2-0.4,3.3c0.4-3,1.2-6,2.4-8.8
					c-0.4,1-0.8,2-1.3,3c0.9-2.2,2.2-4.2,3.6-6.1c-0.7,0.8-1.3,1.7-2,2.5c3.8-4.9,8.7-8.9,11.8-14.3c1.7-2.8,2.7-6,2.8-9.3
					c0-2.5-0.7-5-2-7.2c-1.4-2.4-3.3-3.8-5.6-5.4c-2.3-1.7-4.7-3.1-7.2-4.3c-3.4-1.7-6.9-2.9-10.6-3.8c-1.8-0.4-3.6-0.7-5.4-0.9
					c-2.9-0.4-5.5-0.8-8.4,0c-4.8,1.2-8.6,4.9-10,9.7c-1,3.5-0.2,6.9,0.5,10.4l1.8,9.7l4.1,21.8l22.8-9.6c-0.3-0.5-0.6-1-0.8-1.6
					c0.4,1,0.8,2,1.3,3c-0.5-1.4-0.9-2.8-1.1-4.2c0.1,1.1,0.3,2.2,0.4,3.3c-0.2-1.6-0.2-3.1,0-4.7c-0.1,1.1-0.3,2.2-0.4,3.3
					c0.2-1.5,0.6-3.1,1.2-4.5c-0.4,1-0.8,2-1.3,3c0.6-1.3,1.3-2.6,2.1-3.8c-0.7,0.8-1.3,1.7-2,2.5c1.3-1.6,2.9-3.1,4.5-4.4
					c2.2-1.9,4.1-4.1,5.7-6.5c1-1.6,1.8-3.4,2.4-5.2c0.6-1.9,0.9-4,0.7-6c-0.2-4.2-1.7-8.2-4.2-11.5c-2.2-3.1-5-5.8-8.1-7.9
					c-2.4-1.5-4.9-2.7-7.6-3.6c-5.5-1.8-11.4-2-17-0.7c-6.7,1.5-12.6,5.5-16.6,11.1c-4.1,5.7-3.6,13.6-3.5,20.3
					c0.2,11.5,1.6,22.9,3.9,34.1c2.1,10.2,5.1,20.2,9.1,29.9c4,10,8.5,20.1,14.7,29c6.6,9.4,15.1,17.9,26.4,21.1
					c12.9,3.6,26.9-0.8,36.5-10c8.7-8.4,13.6-20.7,13.9-32.7c0.3-6.4-1.3-12.8-4.4-18.4c-1.6-2.8-3.7-5.3-6.2-7.4
					c-2.8-2.1-5.7-4.1-8.7-6c-2.1-1.4-4.2-2.8-6.2-4.4c0.8,0.7,1.7,1.3,2.5,2c-4.1-3-7.8-6.6-11-10.5c0.7,0.8,1.3,1.7,2,2.5
					c-1.5-2-2.8-4.1-3.8-6.4c0.4,1,0.8,2,1.3,3c-0.6-1.5-1-3-1.3-4.6c0.1,1.1,0.3,2.2,0.4,3.3c-0.1-1.2-0.1-2.3,0-3.5
					c-0.1,1.1-0.3,2.2-0.4,3.3c0.2-1.1,0.5-2.2,0.9-3.3c-0.4,1-0.8,2-1.3,3c0.6-1.5,1.5-2.9,2.5-4.1c-0.7,0.8-1.3,1.7-2,2.5
					c1.7-2.2,3.8-4.1,5.7-6.2c3.1-3.3,5.5-7.3,7.2-11.5c2-5.2,1.6-10.6,0.8-16c-0.6-4.1-1.9-8-3.9-11.6c-4-7.7-11.4-11.9-18.7-15.9
					c-7-3.9-14.2-7.3-21.7-10.2c-8.1-3.1-16.7-4.7-25.3-4.6c-3.3,0-6.5,1.4-8.8,3.7c-2.3,2.3-3.7,5.5-3.7,8.8c0,3.3,1.3,6.5,3.7,8.8
					C115.4,88.3,118.6,90,122,89.9z"/>
			</g>
		</g>
		<g>
			<defs>
				<circle id="SVGID_00000173865825757321289260000011839559732533345665_" cx="223.1" cy="150.8" r="87.8"/>
			</defs>
			<clipPath id="SVGID_00000107584574137556877400000003710718209961899190_">
				<use xlink:href="#SVGID_00000173865825757321289260000011839559732533345665_"  style="overflow:visible;"/>
			</clipPath>
			<g style="clip-path:url(#SVGID_00000107584574137556877400000003710718209961899190_);">
				<path class="st7" d="M225.7,47.7c-3.4,3.3-5.9,7.5-7.3,12c-1.6,4.7-1.5,9.6-0.7,14.5c1.3,7.9,7,13.3,11.8,19.3
					c-0.7-0.8-1.3-1.7-2-2.5c1.1,1.3,2,2.8,2.7,4.4c-0.4-1-0.8-2-1.3-3c0.4,1,0.7,2,0.8,3c-0.1-1.1-0.3-2.2-0.4-3.3
					c0.2,1.4,0.1,2.8-0.1,4.2c0.1-1.1,0.3-2.2,0.4-3.3c-0.4,3.2-1.2,6.5-1,9.8c0.2,2.8,0.7,5.5,1.5,8.1c1.8,5.1,4.9,9.7,9,13.3
					c4.2,3.4,8.9,6.3,14.4,7.1c1.9,0.4,3.9,0.6,5.8,0.6c1.9-0.1,3.7-0.4,5.6-0.7c2.4-0.4,4.7-1.2,7.1-1.6c-1.1,0.1-2.2,0.3-3.3,0.4
					c1.8-0.2,3.6-0.2,5.4,0.1c-1.1-0.1-2.2-0.3-3.3-0.4c3.3,0.5,6.4,1.4,9.7,2c4.9,0.8,10.2,1.4,15-0.4c3.1-1.2,6-2.5,8.4-5
					c3.1-3.1,4.9-7.3,5-11.7c0-5.6-2.9-10.3-5.5-15.1l-10.6-19.7c-1.9-3.6-4.3-7.1-7-10.2c-2.8-3.1-6.2-5.7-10-7.5
					c-4.4-2.2-9-4-13.6-5.8c-3.9-1.5-7.8-2.8-11.8-4c-3.2-0.9-6.7-0.4-9.6,1.3c-2.7,1.7-4.8,4.4-5.7,7.5c-2.9,8.9,0.5,18.1,5.1,25.7
					c1.7,2.8,3.5,5.5,5.1,8.3c1.6,2.9,3.1,5.9,4.4,9c-0.4-1-0.8-2-1.3-3c1,2.4,1.9,4.8,2.7,7.3c1.4,4.8,5.5,8.3,10.4,9
					c2.2,0.3,4.5,0,6.5-0.9c2.4-1.1,4.5-2.9,6-5.1c0.1-0.1,0.1-0.2,0.2-0.3c-0.7,0.8-1.3,1.7-2,2.5c0.3-0.4,0.7-0.8,1.1-1.1
					c-0.8,0.7-1.7,1.3-2.5,2c0.4-0.3,0.8-0.5,1.3-0.7c-1,0.4-2,0.8-3,1.3c0.5-0.2,1-0.3,1.5-0.4c-1.1,0.1-2.2,0.3-3.3,0.4
					c0.6-0.1,1.3-0.1,1.9,0c-1.1-0.1-2.2-0.3-3.3-0.4c0.5,0.1,1,0.2,1.5,0.4c-1-0.4-2-0.8-3-1.3c0.4,0.2,0.7,0.4,1.1,0.6
					c-0.8-0.7-1.7-1.3-2.5-2c0.1,0.1,0.2,0.1,0.2,0.2c2.6,2.2,5.3,3.7,8.8,3.7c3.3,0,6.5-1.4,8.8-3.7c2.3-2.3,3.7-5.5,3.7-8.8
					c-0.1-3.1-1.1-6.8-3.7-8.8c-2.2-2-4.8-3.5-7.7-4.3c-2.4-0.6-4.9-0.8-7.4-0.4c-2.5,0.3-4.8,1.1-7,2.3c-2.5,1.6-4.7,3.7-6.3,6.2
					l22.8,3c-2-6.4-4.7-12.6-7.9-18.5c-2.7-4.9-6.1-9.4-8.4-14.5c0.4,1,0.8,2,1.3,3c-0.7-1.6-1.2-3.4-1.5-5.1
					c0.1,1.1,0.3,2.2,0.4,3.3c-0.1-1.1-0.1-2.1,0-3.2c-0.1,1.1-0.3,2.2-0.4,3.3c0.1-0.8,0.3-1.6,0.5-2.4l-15.4,8.7
					c5.8,1.8,11.5,3.8,17.1,6.2c-1-0.4-2-0.8-3-1.3c3.4,1.3,6.6,3,9.6,5.1c-0.8-0.7-1.7-1.3-2.5-2c1.6,1.2,2.9,2.6,4.1,4.2
					c-0.7-0.8-1.3-1.7-2-2.5c3.5,4.7,6,10.1,8.8,15.3l4.4,8.2c1.5,2.8,3.2,5.6,4.5,8.5c-0.4-1-0.8-2-1.3-3c0.3,0.6,0.5,1.3,0.6,2
					c-0.1-1.1-0.3-2.2-0.4-3.3v1.3c0.1-1.1,0.3-2.2,0.4-3.3c-0.1,0.4-0.2,0.7-0.3,1c0.4-1,0.8-2,1.3-3c-0.2,0.3-0.3,0.6-0.5,0.9
					c0.7-0.8,1.3-1.7,2-2.5c-0.3,0.4-0.8,0.9-1.2,1.2c0.8-0.7,1.7-1.3,2.5-2c-0.5,0.3-1,0.6-1.5,0.9c1-0.4,2-0.8,3-1.3
					c-1,0.4-2,0.7-3,0.8c1.1-0.1,2.2-0.3,3.3-0.4c-1.6,0.1-3.2,0.1-4.8,0c1.1,0.1,2.2,0.3,3.3,0.4c-2.1-0.3-4.1-0.8-6.1-1.2
					c-2.9-0.7-5.9-1.2-8.9-1.5c-3.1-0.2-6.1,0-9.1,0.7c-2.2,0.5-4.4,1.2-6.7,1.5c1.1-0.1,2.2-0.3,3.3-0.4c-1.3,0.1-2.5,0.1-3.8,0
					c1.1,0.1,2.2,0.3,3.3,0.4c-1.5-0.2-3-0.6-4.4-1.2c1,0.4,2,0.8,3,1.3c-1.5-0.7-2.9-1.5-4.2-2.5c0.8,0.7,1.7,1.3,2.5,2
					c-1.3-1-2.5-2.2-3.5-3.5c0.7,0.8,1.3,1.7,2,2.5c-1-1.3-1.8-2.7-2.5-4.2c0.4,1,0.8,2,1.3,3c-0.5-1.3-0.9-2.6-1.1-4
					c0.1,1.1,0.3,2.2,0.4,3.3c-0.2-1.6-0.1-3.1,0.1-4.7c-0.1,1.1-0.3,2.2-0.4,3.3c0.5-3.4,1.3-6.9,1-10.4c-0.3-3.8-1.4-7.5-3.3-10.8
					c-2.3-4.1-5.8-7.4-8.7-11.1c0.7,0.8,1.3,1.7,2,2.5c-1.1-1.4-2-2.9-2.8-4.5c0.4,1,0.8,2,1.3,3c-0.5-1.2-0.8-2.4-1-3.7
					c0.1,1.1,0.3,2.2,0.4,3.3c-0.2-1.5-0.2-3.1,0-4.6c-0.1,1.1-0.3,2.2-0.4,3.3c0.2-1.5,0.6-3,1.2-4.4c-0.4,1-0.8,2-1.3,3
					c0.5-1.2,1.2-2.3,2-3.3c-0.7,0.8-1.3,1.7-2,2.5c0.5-0.7,1.1-1.3,1.7-1.8c2.3-2.3,3.7-5.5,3.7-8.8c0-3.3-1.4-6.5-3.7-8.8
					c-2.3-2.3-5.5-3.7-8.8-3.7C231.4,44.1,228.1,45.4,225.7,47.7L225.7,47.7z"/>
			</g>
		</g>
		<g>
			<defs>
				<circle id="SVGID_00000104664998894195854670000010425237140748693180_" cx="223.1" cy="150.8" r="87.8"/>
			</defs>
			<clipPath id="SVGID_00000175304240520701115410000016231263528748338575_">
				<use xlink:href="#SVGID_00000104664998894195854670000010425237140748693180_"  style="overflow:visible;"/>
			</clipPath>
			<g style="clip-path:url(#SVGID_00000175304240520701115410000016231263528748338575_);">
				<path class="st7" d="M244.8,143.6c-1.9,0.1-3.8,0.5-5.5,1.2c-1.7,0.6-3.3,1.6-4.6,2.9c-1.2,1.1-2.3,2.5-3.1,3.9
					c-2.2,4.2-2.7,9.1-1.2,13.6c1.2,3.5,3.2,6.6,5.8,9.1c2.1,1.9,4.5,3.5,6.7,5.2c-0.8-0.7-1.7-1.3-2.5-2c1,0.8,2,1.6,2.8,2.6
					c-0.7-0.8-1.3-1.7-2-2.5c0.6,0.8,1.1,1.7,1.6,2.6c-0.4-1-0.8-2-1.3-3c0.3,0.8,0.6,1.6,0.7,2.4c-0.1-1.1-0.3-2.2-0.4-3.3
					c0.1,0.7,0.1,1.4,0,2.1c0.1-1.1,0.3-2.2,0.4-3.3c-0.1,0.6-0.2,1.1-0.5,1.6c0.4-1,0.8-2,1.3-3c-0.2,0.3-0.3,0.6-0.5,0.9
					c0.7-0.8,1.3-1.7,2-2.5c-0.3,0.4-0.6,0.7-1,1c0.8-0.7,1.7-1.3,2.5-2c-0.3,0.2-0.6,0.4-0.9,0.5c1-0.4,2-0.8,3-1.3
					c-0.3,0.1-0.6,0.2-1,0.3c1.1-0.1,2.2-0.3,3.3-0.4h-1c1.1,0.1,2.2,0.3,3.3,0.4c-0.2,0-0.5-0.1-0.7-0.2c1,0.4,2,0.8,3,1.3
					c-0.3-0.1-0.6-0.3-0.9-0.5c0.8,0.7,1.7,1.3,2.5,2c-0.4-0.3-0.7-0.6-1-1c0.7,0.8,1.3,1.7,2,2.5c-0.5-0.7-0.9-1.4-1.3-2.2
					c0.4,1,0.8,2,1.3,3c-0.1-0.3-0.2-0.5-0.3-0.8c0.1,1.1,0.3,2.2,0.4,3.3v-0.4c-0.1,1.1-0.3,2.2-0.4,3.3c0-0.1,0-0.2,0.1-0.3
					c-0.4,1-0.8,2-1.3,3l0.3-0.6c-0.7,0.8-1.3,1.7-2,2.5c1.4-1.5,3-2.9,4.6-4.2c2.2-2.3,4.2-4.7,6-7.2c4-5.4,6.1-12.3,4.5-18.9
					c-2-8-10.2-13.8-18.4-13.4c-3.8,0.1-7.6,1.3-10.8,3.4c-3.2,2.2-5.9,4.9-8.1,8.1c-1.8,2.4-2,6.9-1.3,9.6c0.9,3.1,2.9,5.8,5.7,7.5
					c2.9,1.5,6.4,2.3,9.6,1.3c1-0.4,2-0.8,3-1.3c1.9-1.1,3.4-2.6,4.5-4.5c0.1-0.1,0.2-0.2,0.2-0.3c-0.7,0.8-1.3,1.7-2,2.5
					c0.9-1.1,1.9-2.2,3-3.1c-0.8,0.7-1.7,1.3-2.5,2c0.7-0.6,1.5-1,2.4-1.3c-1,0.4-2,0.8-3,1.3c0.6-0.2,1.1-0.4,1.7-0.5
					c-1.1,0.1-2.2,0.3-3.3,0.4c0.7-0.1,1.4-0.1,2.1,0c-1.1-0.1-2.2-0.3-3.3-0.4c0.6,0.1,1.1,0.2,1.7,0.4c-1-0.4-2-0.8-3-1.3
					c0.5,0.2,1,0.5,1.5,0.8c-0.8-0.7-1.7-1.3-2.5-2c0.3,0.2,0.7,0.6,0.9,0.9c-0.7-0.8-1.3-1.7-2-2.5c0.3,0.4,0.5,0.8,0.7,1.3
					c-0.4-1-0.8-2-1.3-3c0.2,0.4,0.3,0.9,0.3,1.4c-0.1-1.1-0.3-2.2-0.4-3.3c0.1,0.6,0,1.2-0.1,1.8c0.1-1.1,0.3-2.2,0.4-3.3
					c-0.2,0.9-0.4,1.8-0.8,2.6c0.4-1,0.8-2,1.3-3c-0.7,1.6-1.7,3.1-2.8,4.5c0.7-0.8,1.3-1.7,2-2.5c-1.4,1.9-3,3.6-4.7,5.2
					c-2.2,2.1-4.5,3.6-5.9,6.4c-3.4,6.5-1.2,13.7,3.4,18.9c3.6,3.9,8.8,5.8,14.1,5.1c5.2-0.7,9.7-3.8,12.4-8.3
					c2.6-4.3,2.9-9.9,1.6-14.6c-1.2-3.9-3.2-7.5-6.1-10.5c-2.2-2.3-5-3.9-7.5-5.9c0.8,0.7,1.7,1.3,2.5,2c-0.9-0.7-1.7-1.4-2.4-2.3
					c0.7,0.8,1.3,1.7,2,2.5c-0.5-0.7-0.9-1.4-1.3-2.1c0.4,1,0.8,2,1.3,3c-0.2-0.5-0.3-1-0.4-1.5c0.1,1.1,0.3,2.2,0.4,3.3
					c-0.1-0.5-0.1-1.1,0-1.6c-0.1,1.1-0.3,2.2-0.4,3.3c0.1-0.4,0.2-0.7,0.3-1.1c-0.4,1-0.8,2-1.3,3c0.1-0.2,0.2-0.4,0.4-0.6
					c-0.7,0.8-1.3,1.7-2,2.5c0.2-0.3,0.4-0.6,0.7-0.8c-0.8,0.7-1.7,1.3-2.5,2l0.6-0.3c-1,0.4-2,0.8-3,1.3c0.1,0,0.2-0.1,0.3-0.1
					c-1.1,0.1-2.2,0.3-3.3,0.4h0.3c3.4-0.3,6.4-1.2,8.8-3.7c2.3-2.3,3.7-5.5,3.7-8.8c0-3.3-1.3-6.5-3.7-8.8
					C251.1,144.8,248,143.5,244.8,143.6L244.8,143.6z"/>
			</g>
		</g>
		<g class="st10">
			<circle class="st11" cx="90.3" cy="196" r="4.6"/>
		</g>
		<g class="st12">
			<circle class="st11" cx="132.4" cy="102.5" r="4.6"/>
		</g>
		<g class="st12">
			<circle class="st11" cx="113.4" cy="154.6" r="4.6"/>
		</g>
		<g class="st12">
			<circle class="st13" cx="345.9" cy="145.4" r="4.6"/>
		</g>
		<g class="st10">
			<circle class="st11" cx="370.9" cy="186.7" r="4.6"/>
		</g>
		<g class="st10">
			<circle class="st13" cx="333.1" cy="186.7" r="4.6"/>
		</g>
		<g class="st10">
			<circle class="st11" cx="106.2" cy="301.3" r="4.6"/>
		</g>
		<g class="st10">
			<circle class="st11" cx="197.3" cy="380" r="4.6"/>
		</g>
		<g class="st10">
			<circle class="st13" cx="342.1" cy="323.9" r="4.6"/>
		</g>
		<g class="st12">
			<circle class="st13" cx="384.4" cy="226.9" r="4.6"/>
		</g>
		<g class="st12">
			<circle class="st13" cx="72.7" cy="253.8" r="4.6"/>
		</g>
		<g class="st12">
			<circle class="st14" cx="92.6" cy="238.6" r="2.3"/>
		</g>
		<g class="st12">
			<circle class="st11" cx="84.3" cy="301.4" r="3.8"/>
		</g>
		<g class="st12">
			<circle class="st11" cx="366.3" cy="306" r="3.8"/>
		</g>
		<g class="st12">
			<circle class="st11" cx="88.1" cy="137" r="3.8"/>
		</g>
		<g class="st12">
			<circle class="st14" cx="359.5" cy="282.5" r="3.8"/>
		</g>
		<g class="st12">
			<circle class="st11" cx="345.9" cy="210.8" r="3.8"/>
		</g>
		<g class="st12">
			<circle class="st11" cx="324.6" cy="299.3" r="3.8"/>
		</g>
		<g class="st12">
			<circle class="st13" cx="202" cy="349.1" r="3.8"/>
		</g>
		<g class="st12">
			<circle class="st14" cx="298.4" cy="79.4" r="3.8"/>
		</g>
		<g class="st12">
			<circle class="st11" cx="139.3" cy="319.3" r="2.3"/>
		</g>
		<g class="st12">
			
				<ellipse transform="matrix(0.4472 -0.8944 0.8944 0.4472 87.8318 263.5048)" class="st13" cx="257.1" cy="60.7" rx="2.3" ry="2.3"/>
		</g>
		<g class="st12">
			<circle class="st13" cx="132.4" cy="333.1" r="2.3"/>
		</g>
		<g class="st12">
			<circle class="st13" cx="130.1" cy="204.8" r="2.3"/>
		</g>
		<g class="st12">
			<circle class="st11" cx="60.2" cy="198.3" r="2.3"/>
		</g>
		<g class="st12">
			<circle class="st11" cx="120.3" cy="133.2" r="2.3"/>
		</g>
		<g class="st12">
			<circle class="st11" cx="384.4" cy="204.8" r="2.3"/>
		</g>
		<g class="st12">
			<circle class="st11" cx="376" cy="284.7" r="2.3"/>
		</g>
		<g class="st12">
			<circle class="st14" cx="317.7" cy="179.8" r="2.3"/>
		</g>
		<g class="st12">
			<circle class="st11" cx="366.3" cy="156.9" r="2.3"/>
		</g>
		<g class="st12">
			<circle class="st11" cx="330.8" cy="161.6" r="2.3"/>
		</g>
		<g class="st12">
			<circle class="st13" cx="366.3" cy="207.1" r="2.3"/>
		</g>
		<g class="st12">
			<circle class="st14" cx="379.8" cy="264.5" r="2.3"/>
		</g>
		<g class="st12">
			<circle class="st11" cx="306.3" cy="297.6" r="2.3"/>
		</g>
		<g class="st12">
			<circle class="st11" cx="199.2" cy="56.1" r="2.3"/>
		</g>
		<g class="st12">
			<circle class="st13" cx="348.2" cy="237.6" r="2.3"/>
		</g>
		<g class="st12">
			<circle class="st11" cx="348.2" cy="120.6" r="2.3"/>
		</g>
		<g class="st12">
			<circle class="st13" cx="150.3" cy="77.9" r="2.3"/>
		</g>
		<g class="st12">
			<circle class="st14" cx="322.3" cy="335.5" r="2.3"/>
		</g>
		<g class="st12">
			<circle class="st11" cx="341.9" cy="299.1" r="2.3"/>
		</g>
		<g class="st12">
			<circle class="st11" cx="134.1" cy="301.4" r="2.3"/>
		</g>
		<g class="st12">
			<circle class="st13" cx="324.6" cy="130.9" r="2.3"/>
		</g>
		<g class="st12">
			<circle class="st11" cx="106.2" cy="328.6" r="2.3"/>
		</g>
		<g class="st12">
			<circle class="st11" cx="221.5" cy="377.6" r="2.3"/>
		</g>
		<g class="st12">
			<circle class="st11" cx="176.4" cy="368.5" r="2.3"/>
		</g>
		<g class="st12">
			<circle class="st14" cx="122.7" cy="278.5" r="2.3"/>
		</g>
		<g class="st12">
			<circle class="st11" cx="90.3" cy="276.2" r="2.3"/>
		</g>
		<g class="st12">
			<circle class="st11" cx="110.8" cy="258.4" r="2.3"/>
		</g>
		<g class="st12">
			<circle class="st11" cx="72.7" cy="220.5" r="2.3"/>
		</g>
		<g class="st12">
			<circle class="st14" cx="103.9" cy="220.5" r="2.3"/>
		</g>
		<g class="st12">
			<circle class="st11" cx="106.2" cy="120.6" r="2.3"/>
		</g>
		<g class="st12">
			<circle class="st11" cx="125" cy="186.7" r="2.3"/>
		</g>
		<g class="st12">
			<circle class="st13" cx="79.6" cy="168.1" r="2.3"/>
		</g>
		<g class="st10">
			<circle class="st13" cx="320" cy="100.8" r="4.6"/>
		</g>
	</g>
</g>
<path class="st15" d="M345.9,403.8l-83,34.1l-22.6-97l45.4-19L345.9,403.8z"/>
<path class="st16" d="M277.7,284c-1.4-0.9-3.2-1.1-4.8-0.6c-2.4,0.7-4.7,2.4-6.9,3.7L238.7,303c-2.4,1.4-5,2.6-7.1,4.5
	c-0.7,0.7-1.3,1.4-1.8,2.2l0.4-6.1c0,0-1.8-3.9-3.7-3.8c-2,0.1-3.7,1.7-3.8,3.7c-1.2,14.9-0.3,29.8,1.1,44.7l1.3,12.7
	c-0.1,2.1,1.6,3.8,3.6,3.8c0.6,0,1.3-0.1,1.9-0.4l77.3-33c1-0.6,1.8-1.6,1.9-2.8c0.2-1.1-0.2-2.3-1-3.1l-19-25.7l-9.4-12.7
	C279.7,285.8,278.8,284.8,277.7,284L277.7,284z M266.8,323.3c0.1,0.1,0.2,0.1,0.4,0.2c-0.2,0.1-0.4,0.3-0.6,0.4
	C266.7,323.7,266.8,323.5,266.8,323.3L266.8,323.3z M279.4,323.2l0.3,0.3c-0.2,0.1-0.3,0.2-0.5,0.3
	C279.3,323.6,279.3,323.4,279.4,323.2L279.4,323.2z M268.5,299.3c-0.1,0-0.1,0-0.2,0.1C268.3,299.3,268.4,299.3,268.5,299.3
	L268.5,299.3z M268.5,299.3l0.6,0.6c-0.3-0.2-0.6-0.4-0.9-0.5C268.3,299.4,268.4,299.4,268.5,299.3L268.5,299.3z M289.1,324.9
	l0.3,0.3c-0.1,0.1-0.2,0.1-0.3,0.2C289,325.2,289,325,289.1,324.9L289.1,324.9z M275.3,292.4c-0.8-0.5-1.7-0.7-2.6-0.5l1.5-0.9
	C274.5,291.5,274.9,292,275.3,292.4L275.3,292.4z M274.8,290.7C275.1,290.6,275.1,290.7,274.8,290.7L274.8,290.7z"/>
<g>
	<defs>
		<path id="SVGID_00000085953464304347541220000017549739128079791036_" d="M277.7,284c-1.4-0.9-3.2-1.1-4.8-0.6
			c-2.4,0.7-4.7,2.4-6.9,3.7L238.7,303c-2.4,1.4-5,2.6-7.1,4.5c-0.7,0.7-1.3,1.4-1.8,2.2l0.4-6.1c0,0-1.8-3.9-3.7-3.8
			c-2,0.1-3.7,1.7-3.8,3.7c-1.2,14.9-0.3,29.8,1.1,44.7l1.3,12.7c-0.1,2.1,1.6,3.8,3.6,3.8c0.6,0,1.3-0.1,1.9-0.4l77.3-33
			c1-0.6,1.8-1.6,1.9-2.8c0.2-1.1-0.2-2.3-1-3.1l-19-25.7l-9.4-12.7C279.7,285.8,278.8,284.8,277.7,284L277.7,284z M266.8,323.3
			c0.1,0.1,0.2,0.1,0.4,0.2c-0.2,0.1-0.4,0.3-0.6,0.4C266.7,323.7,266.8,323.5,266.8,323.3L266.8,323.3z M279.4,323.2l0.3,0.3
			c-0.2,0.1-0.3,0.2-0.5,0.3C279.3,323.6,279.3,323.4,279.4,323.2L279.4,323.2z M268.5,299.3c-0.1,0-0.1,0-0.2,0.1
			C268.3,299.3,268.4,299.3,268.5,299.3L268.5,299.3z M268.5,299.3l0.6,0.6c-0.3-0.2-0.6-0.4-0.9-0.5
			C268.3,299.4,268.4,299.4,268.5,299.3L268.5,299.3z M289.1,324.9l0.3,0.3c-0.1,0.1-0.2,0.1-0.3,0.2C289,325.2,289,325,289.1,324.9
			L289.1,324.9z M275.3,292.4c-0.8-0.5-1.7-0.7-2.6-0.5l1.5-0.9C274.5,291.5,274.9,292,275.3,292.4L275.3,292.4z M274.8,290.7
			C275.1,290.6,275.1,290.7,274.8,290.7L274.8,290.7z"/>
	</defs>
	<clipPath id="SVGID_00000177466587809240189170000014374848178429887129_">
		<use xlink:href="#SVGID_00000085953464304347541220000017549739128079791036_"  style="overflow:visible;"/>
	</clipPath>
	<g style="clip-path:url(#SVGID_00000177466587809240189170000014374848178429887129_);">
		<path class="st18" d="M299.1,308.6c-13.4,5.8-26.7,12.7-40.1,18.7s-27,11.5-40.5,16.8c-4.4,1.7-4.2,5.1,0,3.6
			c26.1-9,56.4-20.9,81.5-35.9C303.2,309.9,303.1,306.9,299.1,308.6z"/>
	</g>
</g>
<g>
	<defs>
		<path id="SVGID_00000179619848855945123650000007958833586946574229_" d="M277.7,284c-1.4-0.9-3.2-1.1-4.8-0.6
			c-2.4,0.7-4.7,2.4-6.9,3.7L238.7,303c-2.4,1.4-5,2.6-7.1,4.5c-0.7,0.7-1.3,1.4-1.8,2.2l0.4-6.1c0,0-1.8-3.9-3.7-3.8
			c-2,0.1-3.7,1.7-3.8,3.7c-1.2,14.9-0.3,29.8,1.1,44.7l1.3,12.7c-0.1,2.1,1.6,3.8,3.6,3.8c0.6,0,1.3-0.1,1.9-0.4l77.3-33
			c1-0.6,1.8-1.6,1.9-2.8c0.2-1.1-0.2-2.3-1-3.1l-19-25.7l-9.4-12.7C279.7,285.8,278.8,284.8,277.7,284L277.7,284z M266.8,323.3
			c0.1,0.1,0.2,0.1,0.4,0.2c-0.2,0.1-0.4,0.3-0.6,0.4C266.7,323.7,266.8,323.5,266.8,323.3L266.8,323.3z M279.4,323.2l0.3,0.3
			c-0.2,0.1-0.3,0.2-0.5,0.3C279.3,323.6,279.3,323.4,279.4,323.2L279.4,323.2z M268.5,299.3c-0.1,0-0.1,0-0.2,0.1
			C268.3,299.3,268.4,299.3,268.5,299.3L268.5,299.3z M268.5,299.3l0.6,0.6c-0.3-0.2-0.6-0.4-0.9-0.5
			C268.3,299.4,268.4,299.4,268.5,299.3L268.5,299.3z M289.1,324.9l0.3,0.3c-0.1,0.1-0.2,0.1-0.3,0.2C289,325.2,289,325,289.1,324.9
			L289.1,324.9z M275.3,292.4c-0.8-0.5-1.7-0.7-2.6-0.5l1.5-0.9C274.5,291.5,274.9,292,275.3,292.4L275.3,292.4z M274.8,290.7
			C275.1,290.6,275.1,290.7,274.8,290.7L274.8,290.7z"/>
	</defs>
	<clipPath id="SVGID_00000088101409302708016330000010441875773153454257_">
		<use xlink:href="#SVGID_00000179619848855945123650000007958833586946574229_"  style="overflow:visible;"/>
	</clipPath>
	<g style="clip-path:url(#SVGID_00000088101409302708016330000010441875773153454257_);">
		<path class="st18" d="M295.9,296c-13.4,5.8-26.7,12.7-40.1,18.7s-27,11.5-40.5,16.8c-4.4,1.7-4.2,5.1,0,3.6
			c26.1-9,56.4-20.9,81.5-35.9C300.1,297.3,300,294.3,295.9,296z"/>
	</g>
</g>
<g>
	<defs>
		<path id="SVGID_00000143610466117630387200000011288923033242807716_" d="M277.7,284c-1.4-0.9-3.2-1.1-4.8-0.6
			c-2.4,0.7-4.7,2.4-6.9,3.7L238.7,303c-2.4,1.4-5,2.6-7.1,4.5c-0.7,0.7-1.3,1.4-1.8,2.2l0.4-6.1c0,0-1.8-3.9-3.7-3.8
			c-2,0.1-3.7,1.7-3.8,3.7c-1.2,14.9-0.3,29.8,1.1,44.7l1.3,12.7c-0.1,2.1,1.6,3.8,3.6,3.8c0.6,0,1.3-0.1,1.9-0.4l77.3-33
			c1-0.6,1.8-1.6,1.9-2.8c0.2-1.1-0.2-2.3-1-3.1l-19-25.7l-9.4-12.7C279.7,285.8,278.8,284.8,277.7,284L277.7,284z M266.8,323.3
			c0.1,0.1,0.2,0.1,0.4,0.2c-0.2,0.1-0.4,0.3-0.6,0.4C266.7,323.7,266.8,323.5,266.8,323.3L266.8,323.3z M279.4,323.2l0.3,0.3
			c-0.2,0.1-0.3,0.2-0.5,0.3C279.3,323.6,279.3,323.4,279.4,323.2L279.4,323.2z M268.5,299.3c-0.1,0-0.1,0-0.2,0.1
			C268.3,299.3,268.4,299.3,268.5,299.3L268.5,299.3z M268.5,299.3l0.6,0.6c-0.3-0.2-0.6-0.4-0.9-0.5
			C268.3,299.4,268.4,299.4,268.5,299.3L268.5,299.3z M289.1,324.9l0.3,0.3c-0.1,0.1-0.2,0.1-0.3,0.2C289,325.2,289,325,289.1,324.9
			L289.1,324.9z M275.3,292.4c-0.8-0.5-1.7-0.7-2.6-0.5l1.5-0.9C274.5,291.5,274.9,292,275.3,292.4L275.3,292.4z M274.8,290.7
			C275.1,290.6,275.1,290.7,274.8,290.7L274.8,290.7z"/>
	</defs>
	<clipPath id="SVGID_00000043434320112836892320000001239780764829464247_">
		<use xlink:href="#SVGID_00000143610466117630387200000011288923033242807716_"  style="overflow:visible;"/>
	</clipPath>
	<g style="clip-path:url(#SVGID_00000043434320112836892320000001239780764829464247_);">
		<path class="st18" d="M306.6,318.7c-13.4,5.8-26.7,12.7-40.1,18.7s-27,11.5-40.5,16.8c-4.4,1.7-4.2,5.1,0,3.6
			c26.1-9,56.4-20.9,81.5-35.9C310.8,320,310.6,317,306.6,318.7z"/>
	</g>
</g>
<path class="st21" d="M120.2,223.4L288,150.6c1.8-0.8,4,0,4.8,1.9c0,0,0,0,0,0l48.8,112.4c0.8,1.8,0,4-1.9,4.8c0,0,0,0,0,0
	l-167.8,72.8c-1.8,0.8-4,0-4.8-1.9c0,0,0,0,0,0l-48.8-112.4C117.5,226.3,118.4,224.2,120.2,223.4z"/>
<path d="M127.1,225.5l157.5-68.4c1.7-0.8,3.8,0,4.6,1.7c0,0,0,0.1,0,0.1l48.1,110.7c0.8,1.7,0,3.8-1.7,4.6c0,0-0.1,0-0.1,0
	L178,342.6c-1.7,0.8-3.8,0-4.6-1.7c0,0,0-0.1,0-0.1l-48.1-110.7C124.5,228.4,125.3,226.3,127.1,225.5
	C127,225.5,127.1,225.5,127.1,225.5z"/>
<g>
	<defs>
		<path id="SVGID_00000119828613319652414040000013251875330386163888_" d="M127.1,225.5l157.5-68.4c1.7-0.8,3.8,0,4.6,1.7
			c0,0,0,0.1,0,0.1l48.1,110.7c0.8,1.7,0,3.8-1.7,4.6c0,0-0.1,0-0.1,0L178,342.6c-1.7,0.8-3.8,0-4.6-1.7c0,0,0-0.1,0-0.1
			l-48.1-110.7C124.5,228.4,125.3,226.3,127.1,225.5C127,225.5,127.1,225.5,127.1,225.5z"/>
	</defs>
	<clipPath id="SVGID_00000082363664205236810040000005686552996225105335_">
		<use xlink:href="#SVGID_00000119828613319652414040000013251875330386163888_"  style="overflow:visible;"/>
	</clipPath>
	<g style="clip-path:url(#SVGID_00000082363664205236810040000005686552996225105335_);">
		<path class="st23" d="M138.2,190.5l-2.9-6.1h-0.1l0.5,6.2l0.5,8.1l-1.4,0.6l-5.3-5.8c-1.5-1.6-2.8-3.2-4.1-4.9l2.5,6.5l2.3,6.3
			l-1.8,0.8l-5.2-14.8l2.4-1l5.4,5.9c1.4,1.5,2.5,2.9,3.5,4.2h0.1c-0.3-1.6-0.4-3.4-0.6-5.5l-0.4-8l2.4-1l7.1,14l-1.8,0.8
			L138.2,190.5z M146.2,189.2l0.5,5.2l-1.9,0.8l-1.3-16.5l2.2-1l11.1,12.3l-2,0.9l-3.5-3.9L146.2,189.2z M150.2,185.7l-3.2-3.5
			l-1.9-2.3c0.2,1,0.3,1.9,0.4,2.9l0.4,4.8L150.2,185.7z"/>
		<path class="st23" d="M157.6,186.9c1.3,0.2,2.5,0,3.7-0.5c1.9-0.8,2.6-2.3,1.9-3.7s-1.7-1.8-3.9-1.7c-2.7,0.2-4.7-0.4-5.5-2.4
			c-1-2.2,0.2-4.7,3-5.9c1.1-0.5,2.3-0.7,3.5-0.7l0.1,1.7c-1-0.1-2.1,0-3,0.5c-2,0.8-2.2,2.3-1.8,3.3c0.6,1.3,1.7,1.6,4,1.5
			c2.8-0.1,4.6,0.5,5.5,2.6s0.1,4.8-3.2,6.3c-1.3,0.5-2.7,0.8-4.1,0.7L157.6,186.9L157.6,186.9z"/>
		<path class="st23" d="M166.5,170.6l-4.4,1.9l-0.7-1.6l10.6-4.6l0.7,1.6l-4.4,1.9l5.5,12.8l-1.9,0.8L166.5,170.6L166.5,170.6z"/>
		<path class="st23" d="M184.5,170.1l-5.6,2.4l2.2,5.2l6.2-2.7l0.7,1.6l-8.1,3.5l-6.2-14.4l7.8-3.3l0.7,1.6l-5.9,2.5l2,4.5l5.6-2.4
			L184.5,170.1L184.5,170.1z"/>
		<path class="st23" d="M184.3,161.3c1.1-0.7,2.2-1.3,3.4-1.8c1.4-0.8,3.1-1,4.7-0.6c1.1,0.4,1.9,1.2,2.3,2.2
			c0.8,1.7,0.3,3.6-1.1,4.8v0.1c1.3-0.1,2.4,0.6,3.4,2l2.8,3.5l-1.9,0.8c-0.9-0.9-1.7-1.9-2.4-3c-1.3-1.8-2.4-2.2-4.1-1.6l-1.7,0.8
			l2.7,6.2l-1.9,0.8L184.3,161.3z M189,167.1l1.9-0.8c2-0.9,2.8-2.5,2.1-4.1c-0.8-1.9-2.5-2.1-4.5-1.3c-0.6,0.2-1.3,0.6-1.8,1
			L189,167.1L189,167.1z M211.8,165.7c-1,1-2.2,1.8-3.5,2.3c-4,1.7-8.2,0.5-10.2-4.2c-1.9-4.5-0.2-8.9,4.3-10.8
			c1.1-0.6,2.4-0.9,3.7-0.8l0.2,1.7c-1.1,0-2.2,0.2-3.2,0.7c-3.4,1.5-4.7,4.6-3.1,8.3c1.5,3.5,4.5,4.9,8,3.4c1-0.4,2-1.1,2.8-1.9
			L211.8,165.7z"/>
		<path class="st23" d="M208.1,150.8l1.9-0.8l5.5,12.8l6.1-2.6l0.7,1.6l-8,3.4L208.1,150.8z"/>
		<path class="st23" d="M224.7,155.3l0.5,5.2l-1.9,0.8l-1.3-16.5l2.2-1l11.1,12.3l-2,0.9l-3.5-3.9L224.7,155.3z M228.8,151.9
			l-3.2-3.5l-1.9-2.3c0.2,1,0.3,1.9,0.4,2.9l0.4,4.8L228.8,151.9z"/>
		<path class="st23" d="M236.2,153.1c1.3,0.2,2.5,0,3.7-0.5c1.9-0.8,2.6-2.3,1.9-3.7s-1.7-1.8-3.9-1.7c-2.7,0.2-4.7-0.4-5.5-2.4
			c-1-2.2,0.2-4.7,3-5.9c1.1-0.5,2.3-0.7,3.5-0.7l0.1,1.7c-1-0.1-2.1,0-3,0.5c-2,0.8-2.2,2.3-1.8,3.3c0.6,1.3,1.7,1.6,4,1.5
			c2.8-0.1,4.6,0.5,5.5,2.6s0.1,4.8-3.2,6.3c-1.3,0.5-2.7,0.8-4.1,0.7L236.2,153.1L236.2,153.1z M246.7,148.6c1.3,0.2,2.5,0,3.7-0.5
			c1.9-0.8,2.6-2.3,1.9-3.7s-1.7-1.8-3.9-1.7c-2.7,0.2-4.7-0.4-5.5-2.4c-1-2.2,0.2-4.7,3-5.9c1.1-0.5,2.3-0.7,3.5-0.7l0.1,1.7
			c-1-0.1-2.1,0-3,0.5c-2,0.8-2.2,2.3-1.8,3.3c0.6,1.3,1.7,1.6,4,1.5c2.8-0.1,4.6,0.5,5.5,2.6s0.1,4.8-3.2,6.3
			c-1.3,0.5-2.7,0.8-4.1,0.7L246.7,148.6L246.7,148.6z"/>
	</g>
</g>
<g>
	<defs>
		<path id="SVGID_00000035532139319847731240000013134985689046739096_" d="M127.1,225.5l157.5-68.4c1.7-0.8,3.8,0,4.6,1.7
			c0,0,0,0.1,0,0.1l48.1,110.7c0.8,1.7,0,3.8-1.7,4.6c0,0-0.1,0-0.1,0L178,342.6c-1.7,0.8-3.8,0-4.6-1.7c0,0,0-0.1,0-0.1
			l-48.1-110.7C124.5,228.4,125.3,226.3,127.1,225.5C127,225.5,127.1,225.5,127.1,225.5z"/>
	</defs>
	<clipPath id="SVGID_00000096023519395619272330000015929689368426212005_">
		<use xlink:href="#SVGID_00000035532139319847731240000013134985689046739096_"  style="overflow:visible;"/>
	</clipPath>
	<g style="clip-path:url(#SVGID_00000096023519395619272330000015929689368426212005_);">
		<path class="st23" d="M129.4,168.4l-2.9-6.1h-0.1l0.5,6.2l0.5,8.1l-1.4,0.6l-5.3-5.8c-1.5-1.6-2.8-3.2-4.1-4.9l2.5,6.5l2.3,6.3
			l-1.8,0.8l-5.2-14.8l2.4-1l5.4,5.9c1.4,1.5,2.5,2.9,3.5,4.2h0.1c-0.3-1.6-0.4-3.4-0.6-5.5l-0.4-8.1l2.4-1l7.1,14l-1.8,0.8
			L129.4,168.4z M137.3,167.1l0.5,5.2l-1.9,0.8l-1.3-16.5l2.2-1l11.1,12.3l-2,0.9l-3.5-3.9L137.3,167.1z M141.4,163.7l-3.2-3.5
			l-1.9-2.3c0.2,1,0.3,1.9,0.4,2.9l0.4,4.8L141.4,163.7z M148.8,164.9c1.3,0.2,2.5,0,3.7-0.5c1.9-0.8,2.6-2.3,1.9-3.7
			s-1.7-1.8-3.9-1.7c-2.7,0.2-4.7-0.4-5.5-2.4c-1-2.2,0.2-4.7,3-5.9c1.1-0.5,2.3-0.7,3.5-0.7l0.1,1.7c-1-0.1-2.1,0-3,0.5
			c-2,0.8-2.2,2.3-1.8,3.3c0.6,1.3,1.7,1.6,4,1.5c2.8-0.1,4.6,0.5,5.5,2.6s0.1,4.8-3.2,6.3c-1.3,0.5-2.7,0.8-4.1,0.7L148.8,164.9
			L148.8,164.9z M157.7,148.6l-4.4,1.9l-0.7-1.6l10.6-4.6l0.7,1.6l-4.4,1.9l5.5,12.8l-1.9,0.8L157.7,148.6L157.7,148.6z M175.6,148
			l-5.6,2.4l2.2,5.2l6.2-2.7l0.7,1.6L171,158l-6.2-14.4l7.8-3.3l0.7,1.6l-5.9,2.5l2,4.5l5.6-2.4L175.6,148L175.6,148z M175.5,139.3
			c1.1-0.7,2.2-1.3,3.4-1.8c1.4-0.8,3.1-1,4.7-0.6c1.1,0.4,1.9,1.2,2.3,2.2c0.8,1.7,0.3,3.6-1.1,4.8v0.1c1.3-0.1,2.4,0.6,3.4,2
			l2.8,3.5l-1.9,0.8c-0.9-0.9-1.7-1.9-2.4-3c-1.3-1.8-2.4-2.2-4.1-1.6l-1.7,0.8l2.7,6.2l-1.9,0.8L175.5,139.3z M180.1,145l1.9-0.8
			c2-0.9,2.8-2.5,2.1-4.1c-0.8-1.9-2.5-2.1-4.5-1.3c-0.6,0.2-1.3,0.6-1.8,1L180.1,145L180.1,145z M202.9,143.7c-1,1-2.2,1.8-3.5,2.3
			c-4,1.7-8.2,0.5-10.2-4.2c-1.9-4.5-0.2-8.9,4.3-10.8c1.1-0.6,2.4-0.9,3.7-0.8l0.2,1.7c-1.1,0-2.2,0.2-3.2,0.7
			c-3.4,1.5-4.7,4.6-3.1,8.3c1.5,3.5,4.5,4.9,8,3.4c1-0.4,2-1.1,2.8-1.9L202.9,143.7z M199.3,128.8l1.9-0.8l5.5,12.8l6.1-2.6
			l0.7,1.6l-8,3.4L199.3,128.8z M215.9,133.3l0.5,5.2l-1.9,0.8l-1.3-16.5l2.2-1l11.1,12.3l-2,0.9l-3.5-3.9L215.9,133.3z M220,129.8
			l-3.2-3.5l-1.9-2.3c0.2,1,0.3,1.9,0.4,2.9l0.4,4.8L220,129.8z M227.3,131c1.3,0.2,2.5,0,3.7-0.5c1.9-0.8,2.6-2.3,2-3.7
			s-1.7-1.8-3.9-1.7c-2.7,0.2-4.7-0.4-5.5-2.4c-1-2.2,0.2-4.7,3-5.9c1.1-0.5,2.3-0.7,3.5-0.7l0.1,1.7c-1-0.1-2.1,0-3,0.5
			c-2,0.8-2.2,2.3-1.8,3.3c0.6,1.3,1.7,1.6,4.1,1.5c2.8-0.1,4.6,0.5,5.5,2.6s0.1,4.8-3.2,6.3c-1.3,0.5-2.7,0.8-4.1,0.7L227.3,131
			L227.3,131z M237.9,126.5c1.3,0.2,2.5,0,3.7-0.5c1.9-0.8,2.6-2.3,1.9-3.7s-1.7-1.8-3.9-1.7c-2.7,0.2-4.7-0.4-5.5-2.4
			c-1-2.2,0.2-4.7,3-5.9c1.1-0.5,2.3-0.7,3.5-0.7l0.1,1.7c-1-0.1-2.1,0-3,0.5c-2,0.8-2.2,2.3-1.8,3.3c0.6,1.3,1.7,1.6,4,1.5
			c2.8-0.1,4.6,0.5,5.5,2.6s0.1,4.8-3.2,6.3c-1.3,0.5-2.7,0.8-4.1,0.7L237.9,126.5L237.9,126.5z"/>
	</g>
</g>
<path class="st25" d="M129.1,351l246-106.7c2.8,6.3-0.1,13.7-6.4,16.5c0,0,0,0-0.1,0l-222.9,96.7C139.3,360.3,131.9,357.4,129.1,351
	L129.1,351z"/>
<path class="st26" d="M145.7,357.5l222.9-96.7c4-1.7,6.8-5.4,7.4-9.7L133.6,356.3C137.2,358.8,141.7,359.2,145.7,357.5L145.7,357.5z
	"/>
<path class="st0" d="M175.1,220.7c-10.3,4.1-21.7,8.4-31,14.4c-1.5,1-1,3.8,1.1,3.3c11-2.8,22-8.3,32.1-13.2
	C180.3,223.8,178.1,219.6,175.1,220.7L175.1,220.7z M213.4,219.7l-44.7,20.4c-2.5,1.1-1,5.1,1.5,4l45.2-19
	C218.8,223.7,216.7,218.2,213.4,219.7L213.4,219.7z M190.6,247.7c-10.4,4.2-21.2,8.6-31.1,14c-2.7,1.5-0.8,6,2.2,5
	c10.7-3.9,21.2-8.3,31.4-13.3C196.2,251.9,193.8,246.3,190.6,247.7L190.6,247.7z M275.3,237.8c-14.8,5.3-29.3,12.5-43.7,19
	l-21.7,9.8c-7.4,3.3-15.4,6.3-22.2,10.7c-2,1.3-0.8,4.7,1.7,4c7.2-1.9,14.2-5.4,21.1-8.3l22.8-9.8c14.8-6.3,30.2-12.2,44.4-19.7
	C280.7,241.9,278.6,236.6,275.3,237.8L275.3,237.8z M206.4,291.6c-8.8,3.1-17.2,7-25.2,11.7c-2,1.2-1.3,5,1.3,4.2
	c9-2.8,17.8-6.4,26.2-10.8c1.2-0.7,1.6-2.2,1-3.5C209.2,291.9,207.7,291.2,206.4,291.6L206.4,291.6z M262.4,267.9
	c-9,3.9-18.2,7.8-26.8,12.4c-2.2,1.2-0.9,5,1.6,4.2c9.5-3.3,18.8-7.5,28-11.6C268.5,271.4,265.7,266.5,262.4,267.9L262.4,267.9z"/>
<path class="st27" d="M178.7,281.4c-4.3,1.9-8.5,4.1-12.5,6.5c-1.8,1.1-1,4.3,1.3,3.7c4.7-1.4,9.4-3.1,13.9-5.1
	C184.8,285.1,182.1,279.7,178.7,281.4z M160.9,242.4c-3.6,1.7-6.9,3.9-10,6.4c-1,0.8-0.7,2.8,0.8,2.6c4.1-0.6,8.1-1.6,11.9-3.2
	c1.7-0.6,2.6-2.4,2-4.1c-0.6-1.7-2.4-2.6-4.1-2C161.3,242.2,161.1,242.3,160.9,242.4z M226,282.8c-4.1,1.9-8.1,4.1-11.9,6.5
	c-1.9,1.2-0.3,3.9,1.6,3.4c4.1-1.2,8.2-2.6,12.2-4.2C231.5,287,229.4,281.2,226,282.8L226,282.8z M247.6,222.4
	c-8.1,2.8-15.9,7.1-23.6,10.6c-7.9,3.5-15.7,7.2-23.4,11c-2.8,1.4-0.8,5.4,2,4.3c8.1-3.1,16-6.5,24-9.8s16.3-6.1,23.8-10.2
	C254.2,226.3,251.6,221.1,247.6,222.4L247.6,222.4z"/>
<path class="st27" d="M41.7,118.2c0,0,58.5-21.8,87.7-39.6c24.1-14.7,75.1-61.5,75.1-61.5l57.9,3.4c0,0-50,62.2-96.7,93.9
	c-58.9,40.1-144.7,49.8-144.7,49.8L41.7,118.2z"/>
<path class="st11" d="M223.3,446.5C100,446.5,0,346.6,0,223.3c0-59.2,23.5-116.1,65.4-157.9c87.2-87.2,228.5-87.2,315.7,0
	c41.9,41.9,65.4,98.7,65.4,157.9C446.5,346.5,346.5,446.5,223.3,446.5z M223.3,24.1c-109.8,0-199.2,89.3-199.2,199.2
	s89.3,199.2,199.2,199.2s199.2-89.3,199.2-199.2S333.1,24.1,223.3,24.1z"/>
<g>
	<path class="st0" d="M114.6,127.7c-2.5-0.7-4.4-2.5-5.8-5.5l-3.5-7.6c-1.4-3-1.6-5.6-0.5-8c1.1-2.4,3.3-4.3,6.7-5.9
		c2.4-1.1,4.6-1.7,6.5-1.6c1.9,0.1,3.7,0.6,5.3,1.7l-2.6,4.3c-1.3-0.8-2.5-1.3-3.5-1.5c-1.1-0.1-2.4,0.2-3.9,0.9
		c-1.9,0.9-3.1,2-3.5,3.2c-0.5,1.3-0.3,2.7,0.5,4.4l3.5,7.6c0.8,1.7,1.8,2.8,3.1,3.2c1.3,0.5,2.8,0.2,4.7-0.6
		c1.6-0.8,2.8-1.6,3.4-2.6c0.6-1,0.7-2,0.2-3l-0.5-1.1c-0.7-1.5-1.7-1.9-3-1.2l-4,1.9l-1.8-3.9l5.4-2.5c1.9-0.9,3.5-1.1,4.8-0.6
		c1.3,0.5,2.4,1.6,3.2,3.4l1,2.2c1,2.1,0.9,4.2-0.4,6.2c-1.2,2-3.4,3.8-6.4,5.2C120,127.9,117.1,128.4,114.6,127.7z"/>
	<path class="st0" d="M139.6,115c-2.5-0.4-4.7-2-6.4-4.7l-4.4-7.1c-1.7-2.8-2.3-5.4-1.5-7.8c0.7-2.4,2.7-4.6,5.8-6.6
		c2.2-1.4,4.1-2.1,6-2.3c1.8-0.2,3.6,0.2,5.3,1.1l-1.9,4.4c-1.3-0.6-2.5-0.9-3.6-0.9c-1,0-2.2,0.4-3.6,1.3c-1.7,1.1-2.7,2.2-3,3.5
		c-0.3,1.3,0.1,2.7,1.1,4.3l4.4,7.1c1,1.6,2.1,2.5,3.4,2.8c1.3,0.3,2.8-0.1,4.5-1.1c1.5-0.9,2.4-1.9,2.9-2.9c0.5-1,0.7-2.3,0.7-3.8
		l4.8,0.4c-0.1,1.5-0.3,2.7-0.6,3.8c-0.4,1.1-1,2.1-1.8,3.1c-0.9,1-2.1,2-3.6,3C144.9,114.6,142.1,115.4,139.6,115z"/>
	<path class="st0" d="M164.2,101c-1.3,0.4-2.5,0.6-3.6,0.5c-1.1-0.1-2.4-0.3-3.9-0.8l1.1-4.7c1.7,0.6,3.2,0.8,4.4,0.7
		c1.2-0.1,2.3-0.6,3.5-1.5c1.7-1.2,2.7-2.3,3.1-3.4c0.4-1,0.2-2.1-0.6-3.2c-0.4-0.5-0.9-0.9-1.5-0.9c-0.6-0.1-1.5,0.1-2.5,0.4
		s-2.6,1-4.6,1.9c-2.3,1.1-4.4,1.4-6.1,1.1c-1.8-0.4-3.3-1.4-4.6-3.2c-1-1.3-1.5-2.7-1.5-4.1c-0.1-1.4,0.3-2.9,1.2-4.3
		c0.8-1.4,2-2.7,3.7-3.9c2.1-1.5,4-2.5,5.7-2.8c1.7-0.3,3.4-0.1,5,0.5l-1.2,4.5c-1.1-0.2-2-0.3-2.7-0.3s-1.4,0.1-2,0.3
		c-0.7,0.2-1.4,0.6-2.2,1.2c-1.2,0.9-1.9,1.8-2.1,2.8c-0.2,1,0,1.9,0.8,2.9c0.7,0.9,1.6,1.3,2.7,1.2c1.1-0.1,2.3-0.5,3.8-1.2
		c2.1-1,3.8-1.6,5.2-2c1.4-0.4,2.7-0.4,4.1-0.1c1.4,0.4,2.6,1.3,3.7,2.8c1.6,2.2,2,4.4,1.3,6.5c-0.7,2.2-2.6,4.4-5.7,6.7
		C166.8,99.8,165.4,100.6,164.2,101z"/>
	<path class="st0" d="M180.9,85.7c-2.1-0.2-4-1.3-5.7-3.5l-6.5-8c-1.7-2.1-2.5-4.2-2.2-6.3c0.2-2.1,1.7-4.2,4.4-6.4l7.1-5.8l2.7,3.3
		l-7.1,5.8c-1.1,0.9-1.7,1.8-1.8,2.8c-0.1,1,0.3,2,1.2,3.1l1.9,2.3l9-7.3l2.7,3.3l-9,7.3l1.9,2.3c0.9,1.1,1.8,1.7,2.8,1.8
		c1,0.1,2-0.3,3.1-1.2l7.1-5.8l2.7,3.3l-7.1,5.8C185.4,84.9,183,85.9,180.9,85.7z"/>
</g>
</svg>
