<?xml version="1.0" encoding="utf-8"?>
<!-- Generator: Adobe Illustrator 22.0.0, SVG Export Plug-In . SVG Version: 6.00 Build 0)  -->
<svg version="1.1" id="Layer_1" xmlns="http://www.w3.org/2000/svg" xmlns:xlink="http://www.w3.org/1999/xlink" x="0px" y="0px"
	 viewBox="0 0 446.5 446.5" style="enable-background:new 0 0 446.5 446.5;" xml:space="preserve">
<g>
	<g>
		<circle style="fill:#FFFFFF;" cx="222.6" cy="224.5" r="213"/>
	</g>
	<g>
		<g>
			<circle style="fill:#F5AB40;" cx="223.3" cy="224.5" r="176.8"/>
		</g>
	</g>
	<g>
		<circle style="fill:#C6C6C5;" cx="271.1" cy="385.6" r="48.5"/>
	</g>
	<g>
		<path style="fill:#C6C6C5;" d="M303.5,413.2c-3.9-4.7-6.2-10.7-6.2-17.2c0-15,12.2-27.1,27.1-27.1s27.1,12.2,27.1,27.1"/>
	</g>
	<g>
		<path style="fill:#C6C6C5;" d="M55.2,267.1C38,287.6,18,311.5,38.5,328.8s73.8,21.3,91,0.8c17.2-20.5,14.6-51.1-5.9-68.3
			S72.5,246.6,55.2,267.1z"/>
	</g>
	<g>
		<circle style="fill:#C6C6C5;" cx="44" cy="269.8" r="27.1"/>
	</g>
	<g>
		<defs>
			<path id="SVGID_1_" d="M248.4,282.3c0.8-15.1,3.2-30,7.6-44.4c1.4-4.2,3-8.4,4.7-12.4c1.1-2.5,1.3-5.5,0.3-8.1
				c-0.9-2.4-3-4.8-5.4-5.8c-3.4-1.4-7.4-1.1-10.4,0.9c-1.8-1.9-3.9-3.4-6.3-4.6c-4-1.9-9.1-2.8-13.4-1.9c-2.5,0.5-4.8,1-7,2.1
				c-1.7,0.8-3.3,1.7-4.9,2.7c0.5-0.9,1-1.9,1.4-2.8c2.4-4.9,0.1-11.8-5-13.9c-5.3-2.2-11.4-0.2-13.9,5c-2.4,4.9-5.1,9.7-8,14.4
				c-7.9,12.2-17.5,23.3-28.1,33.3c-11.9,10.9-25.1,20.4-39,28.7c-4,2.4-8.2,4.7-12.3,7c-16.4,8.6-33.4,15.9-50.7,22.5
				c-5,1.9-10.1,3.8-15.2,5.6c-2.5,0.9-4.7,3-5.8,5.4c-1.1,2.4-1.4,5.7-0.3,8.1c2.2,5.3,8,8.1,13.5,6.1c0.4-0.1,0.8-0.3,1.1-0.4
				c-1.6,3.8-1.8,7.7-0.4,11.6c1.9,5.5,4.5,10.7,7.4,15.7c2.3,4,5,7.7,8,11.2c3.9,4.5,8,8.7,12.7,12.3c4.8,3.7,9.9,7,15.1,10
				c8.9,5.3,18.1,10.2,27.3,15c9.2,4.8,18.4,9.5,27.9,13.6c10.1,4.4,20.6,8.1,31.4,10.5c11.2,2.4,22.9,2.8,34.3,2.2
				c10.9-0.6,21.7-1.8,32.5-3.2c2.7-0.3,5.4-0.7,8.1-1.1c1.9-0.3,3.9-0.6,5.8-1.1c0.4,0.3,0.8,0.5,1.2,0.7c2.4,1.1,5.7,1.4,8.1,0.3
				c5.2-2.2,8.2-8,6.1-13.5c-0.6-1.6,1.5,1.9,0.9,0.3c0-0.3,2.2,3.3,0.1-1.2c-0.9-2-3.6-9.1-4.3-11.1c-1-2.5-2-5-3.1-7.4
				c-1-2.3-2.1-4.6-3.2-6.9c-3.1-9.1-6-18.4-8.6-27.7c-1.3-4.8-2.5-9.6-3.6-14.4c-3.7-16.6-6.1-33.5-6.5-50.6
				C248.2,290.7,248.3,286.5,248.4,282.3z"/>
		</defs>
		<use xlink:href="#SVGID_1_"  style="overflow:visible;fill:#D9D9D9;"/>
		<clipPath id="SVGID_2_">
			<use xlink:href="#SVGID_1_"  style="overflow:visible;"/>
		</clipPath>
		<g style="opacity:0.84;clip-path:url(#SVGID_2_);">
			<path style="fill:#ECECEC;" d="M242.2,336.4c-10.1,0-19.7,2.3-28.3,6.4c-7.1-21.5-27.3-37-51.1-37c-7.4,0-14.4,1.5-20.8,4.2
				c-8.2-19.2-27.3-32.7-49.5-32.7c-29.7,0-53.8,24.1-53.8,53.8s24.1,53.8,53.8,53.8c7.4,0,14.4-1.5,20.8-4.2
				c8.2,19.2,27.3,32.7,49.5,32.7c5.1,0,10-0.7,14.7-2c4.7,31.6,31.9,55.8,64.7,55.8c36.1,0,65.4-29.3,65.4-65.4
				S278.3,336.4,242.2,336.4z"/>
		</g>
		<g style="opacity:0.53;clip-path:url(#SVGID_2_);">
			<path style="fill:#ECECEC;" d="M234.9,387.2c-10.1,0-19.7,2.3-28.3,6.4c-7.1-21.5-27.3-37-51.1-37c-7.4,0-14.4,1.5-20.8,4.2
				c-8.2-19.2-27.3-32.7-49.5-32.7c-29.7,0-53.8,24.1-53.8,53.8s24.1,53.8,53.8,53.8c7.4,0,14.4-1.5,20.8-4.2
				c8.2,19.2,27.3,32.7,49.5,32.7c5.1,0,10-0.7,14.7-2c4.7,31.6,31.9,55.8,64.7,55.8c36.1,0,65.4-29.3,65.4-65.4
				S271,387.2,234.9,387.2z"/>
		</g>
	</g>
	<g>
		<defs>
			<path id="SVGID_3_" d="M278.4,182.5c-0.4-1.7-1.5-3.1-3.1-4c-2.3-1.3-5.3-1.7-7.8-2.4c-10.7-2.8-21.3-5.7-32-8.5
				c-2.8-0.7-5.7-1.8-8.5-1.9c-1-0.1-2,0.1-3,0.3c1.6-1.4,3.2-2.8,4.8-4.2c1.6-1.3,1.6-4.1,0.1-5.5c-1.6-1.5-3.9-1.5-5.5-0.1
				C211.4,166.2,201,178,191,190c-2.9,3.4-5.7,6.9-8.5,10.3c-0.9,1.1-1.5,2.3-1.1,3.8c0.4,1.4,1.4,2.3,2.7,2.8
				c21.2,8.6,42.4,17.2,63.5,25.8c6,2.4,12,4.9,18,7.3c1.1,0.5,2.5,0,3.4-0.6c1.1-0.8,1.4-1.8,1.6-3.1c1.7-11,3.3-22,5-33
				c0.8-5.5,1.7-10.9,2.5-16.4C278.4,185.4,278.7,183.9,278.4,182.5z M241.2,203.4c0,0.1,0.1,0.3,0.1,0.4c-0.3-0.1-0.5-0.1-0.8-0.2
				C240.8,203.6,241,203.5,241.2,203.4z M234.7,185.1C234.7,185.1,234.7,185.1,234.7,185.1C234.7,185.1,234.7,185.1,234.7,185.1
				C234.7,185.1,234.7,185.1,234.7,185.1z M250.5,212.7c0,0.1,0,0.3,0,0.4c-0.2,0-0.4-0.1-0.5-0.1
				C250.2,212.9,250.4,212.8,250.5,212.7z M260.2,186.9C260.2,186.9,260.2,186.9,260.2,186.9c0,0-0.1-0.1-0.2-0.1
				C260.1,186.9,260.2,186.9,260.2,186.9z M260.2,186.9c0,0.1,0,0.2,0,0.3c0,0.2,0,0.4,0,0.6c-0.1-0.4-0.2-0.7-0.3-1.1
				C260,186.8,260.1,186.9,260.2,186.9z M225.8,173.7C225.7,173.8,225.6,173.9,225.8,173.7L225.8,173.7z M256.4,221.1
				c0,0.2,0,0.3,0,0.5c-0.1,0-0.3-0.1-0.4-0.1C256.2,221.3,256.3,221.2,256.4,221.1z M270.4,186.9c-0.2-0.9-0.7-1.7-1.5-2.3
				c0.6,0.1,1.2,0.3,1.7,0.5C270.5,185.7,270.4,186.3,270.4,186.9z M271.3,185.3C271.6,185.4,271.5,185.5,271.3,185.3L271.3,185.3z"
				/>
		</defs>
		<use xlink:href="#SVGID_3_"  style="overflow:visible;fill:#9C9B9B;"/>
		<clipPath id="SVGID_4_">
			<use xlink:href="#SVGID_3_"  style="overflow:visible;"/>
		</clipPath>
		<g style="clip-path:url(#SVGID_4_);">
			<path style="fill:#868686;" d="M275.9,216.5c-14.2-5.7-29.1-10.4-43.5-16c-14.3-5.6-28.5-11.6-42.4-17.7c-4.5-2-6.8,0.7-2.7,2.7
				c26,12.7,57.2,26.4,86.8,34C278.1,220.5,280.2,218.2,275.9,216.5z"/>
		</g>
		<g style="clip-path:url(#SVGID_4_);">
			<path style="fill:#868686;" d="M282.9,204.9c-14.2-5.7-29.1-10.4-43.5-16c-14.3-5.6-28.5-11.6-42.4-17.7c-4.5-2-6.8,0.7-2.7,2.7
				c26,12.7,57.2,26.4,86.8,34C285.1,208.9,287.2,206.6,282.9,204.9z"/>
		</g>
		<g style="clip-path:url(#SVGID_4_);">
			<path style="fill:#868686;" d="M274,229.6c-14.2-5.7-29.1-10.4-43.5-16c-14.3-5.6-28.5-11.6-42.4-17.7c-4.5-2-6.8,0.7-2.7,2.7
				c26,12.7,57.2,26.4,86.8,34C276.1,233.6,278.2,231.3,274,229.6z"/>
		</g>
	</g>
	<g>
		<defs>
			<path id="SVGID_5_" d="M223.3,446.5c-59.6,0-115.7-23.2-157.9-65.4C23.2,339,0,282.9,0,223.3c0-59.6,23.2-115.7,65.4-157.9
				C107.6,23.2,163.6,0,223.3,0S339,23.2,381.1,65.4c42.2,42.2,65.4,98.2,65.4,157.9c0,59.6-23.2,115.7-65.4,157.9
				C339,423.3,282.9,446.5,223.3,446.5z M223.3,24.1c-109.8,0-199.2,89.3-199.2,199.2s89.3,199.2,199.2,199.2
				c109.8,0,199.2-89.3,199.2-199.2S333.1,24.1,223.3,24.1z"/>
		</defs>
		<use xlink:href="#SVGID_5_"  style="overflow:visible;fill:#00A099;"/>
		<clipPath id="SVGID_6_">
			<use xlink:href="#SVGID_5_"  style="overflow:visible;"/>
		</clipPath>
	</g>
	<g>
		<g>
			<path style="fill:#D9D9D9;" d="M207.2,20.8l177.9,70.8c1.9,0.8,2.9,3,2.1,4.9l-47.4,119.2c-0.8,1.9-3,2.9-4.9,2.1l-177.9-70.8
				c-1.9-0.8-2.9-3-2.1-4.9l47.4-119.2C203,21,205.2,20,207.2,20.8z"/>
		</g>
		<g>
			<defs>
				<path id="SVGID_7_" d="M210.6,27.5L377.7,94c1.9,0.7,2.8,2.9,2,4.7L333,216.1c-0.7,1.9-2.9,2.8-4.7,2l-167.1-66.5
					c-1.9-0.7-2.8-2.9-2-4.7l46.7-117.4C206.6,27.6,208.7,26.7,210.6,27.5z"/>
			</defs>
			<use xlink:href="#SVGID_7_"  style="overflow:visible;"/>
			<clipPath id="SVGID_8_">
				<use xlink:href="#SVGID_7_"  style="overflow:visible;"/>
			</clipPath>
			<g style="clip-path:url(#SVGID_8_);">
				<path style="fill:#EB5F9E;" d="M244.8,9.8c0.7-2.2,1.6-4.8,2.4-6.7l-0.1,0c-1.2,1.6-2.6,3.2-4.2,5l-5.6,6.3l-1.5-0.6l0.4-8.2
					c0.1-2.4,0.3-4.6,0.6-6.6l0,0c-0.8,1.9-1.9,4.4-3,6.6l-3,6.4l-1.9-0.8l7.2-14.8l2.5,1l-0.4,8.4c-0.1,2.1-0.3,4-0.5,5.7l0.1,0
					c1-1.4,2.2-2.8,3.7-4.5l5.7-6.3l2.5,1l-5.1,15.6l-1.9-0.8L244.8,9.8z"/>
				<path style="fill:#EB5F9E;" d="M251.6,14.8l-3.5,4.1l-2-0.8L257.3,5l2.4,1l-0.9,17.3l-2.1-0.8l0.3-5.4L251.6,14.8z M257.2,15.2
					l0.3-5c0.1-1.1,0.2-2.1,0.3-3.1l0,0c-0.6,0.8-1.2,1.6-1.9,2.4l-3.3,3.8L257.2,15.2z"/>
				<path style="fill:#EB5F9E;" d="M261.7,21.6c0.7,0.9,1.8,1.9,3.1,2.4c2,0.8,3.6,0.2,4.2-1.3c0.6-1.4,0.1-2.6-1.7-4.2
					c-2.1-1.9-3.1-3.8-2.3-5.9c1-2.4,3.6-3.3,6.6-2.2c1.6,0.6,2.5,1.4,3.1,2.1l-1.2,1.4c-0.4-0.5-1.2-1.3-2.6-1.9
					c-2.1-0.8-3.4,0.1-3.8,1.1c-0.6,1.4,0.1,2.5,1.8,4.1c2.2,2,3,3.8,2.1,6c-0.9,2.3-3.5,3.7-7.1,2.2c-1.5-0.6-2.9-1.7-3.5-2.5
					L261.7,21.6z"/>
				<path style="fill:#EB5F9E;" d="M280.4,16.2l-4.6-1.9l0.7-1.7l11.3,4.5l-0.7,1.7l-4.6-1.9L277,30.5l-2-0.8L280.4,16.2z"/>
				<path style="fill:#EB5F9E;" d="M294.1,29.1l-5.9-2.4l-2.2,5.5l6.6,2.6l-0.7,1.6l-8.5-3.4l6.1-15.2l8.2,3.3l-0.7,1.6l-6.2-2.5
					l-1.9,4.8l5.9,2.4L294.1,29.1z"/>
				<path style="fill:#EB5F9E;" d="M300.5,22.5c1.1,0.2,2.5,0.7,3.9,1.2c2.1,0.8,3.3,1.8,3.9,3c0.5,1,0.5,2.2,0,3.4
					c-0.8,2-2.6,2.8-4.4,2.7l0,0.1c1,0.9,1.3,2.2,1,4c-0.4,2.3-0.6,3.9-0.5,4.6l-2-0.8c-0.1-0.5,0.1-2,0.4-4
					c0.4-2.3-0.1-3.4-1.9-4.2l-1.8-0.7l-2.6,6.6l-2-0.8L300.5,22.5z M299.6,30.2l2,0.8c2.1,0.8,3.9,0.2,4.6-1.5
					c0.8-2-0.3-3.4-2.4-4.2c-0.9-0.4-1.7-0.6-2-0.6L299.6,30.2z"/>
				<path style="fill:#EB5F9E;" d="M317.5,46.1c-0.9,0.1-2.5-0.1-4.3-0.9c-4.3-1.7-6.4-5.7-4.4-10.7c1.9-4.8,6.4-6.7,11.1-4.8
					c1.9,0.8,2.9,1.6,3.3,2.1l-1.1,1.4c-0.6-0.7-1.5-1.4-2.8-1.9c-3.6-1.4-6.8-0.1-8.4,3.9c-1.5,3.7-0.3,7,3.4,8.5
					c1.2,0.5,2.5,0.7,3.5,0.7L317.5,46.1z"/>
				<path style="fill:#EB5F9E;" d="M325.8,32.4l2,0.8l-5.4,13.6l6.5,2.6l-0.7,1.6l-8.5-3.4L325.8,32.4z"/>
				<path style="fill:#EB5F9E;" d="M334.7,48.1l-3.5,4.1l-2-0.8l11.3-13.1l2.4,0.9l-0.9,17.3l-2.1-0.8l0.3-5.4L334.7,48.1z
					 M340.3,48.6l0.3-5c0.1-1.1,0.2-2.1,0.3-3.1l0,0c-0.6,0.8-1.2,1.6-1.9,2.4l-3.2,3.8L340.3,48.6z"/>
				<path style="fill:#EB5F9E;" d="M344.9,54.9c0.7,0.9,1.8,1.9,3.1,2.4c2,0.8,3.6,0.2,4.2-1.3c0.6-1.4,0.1-2.6-1.7-4.2
					c-2.1-1.9-3.1-3.8-2.3-5.9c1-2.4,3.6-3.3,6.6-2.2c1.6,0.6,2.5,1.4,3.1,2.1l-1.2,1.4c-0.4-0.5-1.2-1.3-2.6-1.9
					c-2.1-0.8-3.4,0.1-3.8,1.1c-0.6,1.4,0.1,2.5,1.8,4.1c2.2,2,3,3.8,2.1,6c-0.9,2.3-3.5,3.7-7.1,2.2c-1.5-0.6-2.9-1.7-3.5-2.5
					L344.9,54.9z"/>
				<path style="fill:#EB5F9E;" d="M356,59.4c0.7,0.9,1.8,1.9,3.1,2.4c2,0.8,3.6,0.2,4.2-1.3c0.6-1.4,0.1-2.6-1.7-4.2
					c-2.1-1.9-3.1-3.8-2.3-5.9c0.9-2.4,3.6-3.3,6.6-2.2c1.6,0.6,2.5,1.4,3.1,2.1l-1.2,1.4c-0.4-0.5-1.2-1.3-2.6-1.9
					c-2.1-0.8-3.4,0.1-3.8,1.1c-0.6,1.4,0.1,2.5,1.8,4.1c2.2,2,3,3.8,2.1,6c-0.9,2.3-3.5,3.7-7.1,2.2c-1.5-0.6-2.9-1.7-3.5-2.5
					L356,59.4z"/>
			</g>
			<g style="clip-path:url(#SVGID_8_);">
				<path style="fill:#EB5F9E;" d="M254.6-13c0.7-2.2,1.6-4.8,2.4-6.7l-0.1,0c-1.2,1.6-2.6,3.2-4.2,5l-5.6,6.3L245.6-9l0.4-8.2
					c0.1-2.4,0.3-4.6,0.6-6.6l0,0c-0.8,1.9-1.9,4.4-3,6.6l-3,6.4l-1.9-0.8l7.2-14.8l2.5,1l-0.4,8.4c-0.1,2.1-0.3,4-0.5,5.7l0.1,0
					c1-1.4,2.2-2.8,3.7-4.5l5.7-6.3l2.5,1l-5.1,15.6l-1.9-0.8L254.6-13z"/>
				<path style="fill:#EB5F9E;" d="M261.4-8.1l-3.5,4.1l-2-0.8l11.3-13.1l2.4,1l-0.9,17.3l-2.1-0.8l0.3-5.4L261.4-8.1z M267-7.6
					l0.3-5c0.1-1.1,0.2-2.1,0.3-3.1l0,0c-0.6,0.8-1.2,1.6-1.9,2.4l-3.2,3.8L267-7.6z"/>
				<path style="fill:#EB5F9E;" d="M271.6-1.2c0.7,0.9,1.8,1.9,3.1,2.4c2,0.8,3.6,0.2,4.2-1.3c0.6-1.4,0.1-2.6-1.7-4.2
					c-2.1-1.9-3.1-3.8-2.3-5.9c1-2.4,3.6-3.3,6.6-2.2c1.6,0.6,2.5,1.4,3.1,2.1l-1.2,1.4c-0.4-0.5-1.2-1.3-2.6-1.9
					c-2.1-0.8-3.4,0.1-3.8,1.1c-0.6,1.4,0.1,2.5,1.8,4.1c2.2,2,3,3.8,2.1,6c-0.9,2.3-3.5,3.7-7.1,2.2c-1.5-0.6-2.9-1.7-3.5-2.5
					L271.6-1.2z"/>
				<path style="fill:#EB5F9E;" d="M290.3-6.7l-4.6-1.9l0.7-1.7l11.3,4.5L296.9-4l-4.6-1.9l-5.4,13.5l-2-0.8L290.3-6.7z"/>
				<path style="fill:#EB5F9E;" d="M303.9,6.2L298,3.9l-2.2,5.5l6.6,2.6l-0.7,1.6l-8.5-3.4L299.3-5l8.2,3.3l-0.7,1.6l-6.2-2.5
					l-1.9,4.8l5.9,2.4L303.9,6.2z"/>
				<path style="fill:#EB5F9E;" d="M310.3-0.3c1.1,0.2,2.5,0.7,3.9,1.2c2.1,0.8,3.3,1.8,3.9,3c0.5,1,0.5,2.2,0,3.4
					c-0.8,2-2.6,2.8-4.4,2.7l0,0.1c1,0.9,1.3,2.2,1,4c-0.4,2.3-0.6,3.9-0.5,4.6l-2-0.8c-0.1-0.5,0.1-2,0.4-4
					c0.4-2.3-0.1-3.4-1.9-4.2l-1.8-0.7l-2.6,6.6l-2-0.8L310.3-0.3z M309.5,7.4l2,0.8c2.1,0.8,3.9,0.2,4.6-1.5c0.8-2-0.3-3.4-2.4-4.2
					c-0.9-0.4-1.7-0.6-2-0.6L309.5,7.4z"/>
				<path style="fill:#EB5F9E;" d="M327.3,23.3c-0.9,0.1-2.5-0.1-4.3-0.9c-4.3-1.7-6.4-5.7-4.4-10.7C320.5,7,325,5,329.7,6.9
					c1.9,0.8,2.9,1.6,3.3,2.1l-1.1,1.4c-0.6-0.7-1.6-1.4-2.8-1.9c-3.6-1.4-6.8-0.1-8.4,3.9c-1.5,3.7-0.3,7,3.4,8.5
					c1.2,0.5,2.5,0.7,3.5,0.7L327.3,23.3z"/>
				<path style="fill:#EB5F9E;" d="M335.7,9.6l2,0.8l-5.4,13.6l6.5,2.6l-0.7,1.6l-8.5-3.4L335.7,9.6z"/>
				<path style="fill:#EB5F9E;" d="M344.6,25.3l-3.5,4.1l-2-0.8l11.3-13.1l2.4,0.9l-0.9,17.3l-2.1-0.8l0.3-5.4L344.6,25.3z
					 M350.2,25.7l0.3-5c0.1-1.1,0.2-2.1,0.3-3.1l0,0c-0.6,0.8-1.2,1.6-1.9,2.4l-3.2,3.8L350.2,25.7z"/>
				<path style="fill:#EB5F9E;" d="M354.7,32.1c0.7,0.9,1.8,1.9,3.1,2.4c2,0.8,3.6,0.2,4.2-1.3c0.6-1.4,0.1-2.6-1.7-4.2
					c-2.1-1.9-3.1-3.8-2.3-5.9c1-2.4,3.6-3.3,6.6-2.2c1.6,0.6,2.5,1.4,3.1,2.1l-1.2,1.4c-0.4-0.5-1.2-1.3-2.6-1.9
					c-2.1-0.8-3.4,0.1-3.8,1.1c-0.6,1.4,0.1,2.5,1.8,4.1c2.2,2,3,3.8,2.1,6c-0.9,2.3-3.5,3.7-7.1,2.2c-1.5-0.6-2.9-1.7-3.5-2.5
					L354.7,32.1z"/>
				<path style="fill:#EB5F9E;" d="M365.8,36.6c0.7,0.9,1.8,1.9,3.1,2.4c2,0.8,3.6,0.2,4.2-1.3c0.6-1.4,0.1-2.6-1.7-4.2
					c-2.1-1.9-3.1-3.8-2.3-5.9c0.9-2.4,3.6-3.3,6.6-2.2c1.6,0.6,2.5,1.4,3.1,2.1l-1.2,1.4c-0.4-0.5-1.2-1.3-2.6-1.9
					c-2.1-0.8-3.4,0.1-3.8,1.1c-0.6,1.4,0.1,2.5,1.8,4.1c2.2,2,3,3.8,2.1,6c-0.9,2.3-3.5,3.7-7.1,2.2c-1.5-0.6-2.9-1.7-3.5-2.5
					L365.8,36.6z"/>
			</g>
		</g>
		<g>
			<path style="fill:#DBDDDC;" d="M119,121.7l260.9,103.8l0,0c-2.7,6.8-10.3,10.1-17.1,7.4l-236.4-94.1c-3.2-1.3-5.9-3.8-7.2-7
				C117.8,128.5,117.7,124.9,119,121.7L119,121.7z"/>
		</g>
		<g>
			<path style="fill:#B2B2B2;" d="M126.4,138.8l236.4,94.1c4.2,1.7,9,1.1,12.7-1.6L118.3,128.9C119.1,133.3,122.2,137.1,126.4,138.8
				L126.4,138.8z"/>
		</g>
	</g>
	<g>
		<path style="fill:#ECECEC;" d="M339.7,282.8c0-11.4-9.2-20.6-20.6-20.6c-6.8,0-12.8,3.3-16.5,8.3c-3.8-4.1-9.2-6.7-15.2-6.7
			c-11.4,0-20.6,9.2-20.6,20.6S276,305,287.4,305c0,0,0.1,0,0.1,0c0.8,10.6,9.7,19,20.5,19c11.4,0,20.6-9.2,20.6-20.6
			c0-0.8-0.1-1.5-0.1-2.3C335.1,297.7,339.7,290.8,339.7,282.8z"/>
	</g>
	<g>
		<path style="fill:#ECECEC;" d="M87.8,182.5c3.6-10.8,15.3-16.6,26.1-13c6.4,2.2,11.1,7.2,13,13.1c4.9-2.7,10.8-3.4,16.5-1.5
			c10.8,3.6,16.6,15.3,13,26.1c-3.6,10.8-15.3,16.6-26.1,13c0,0-0.1,0-0.1,0c-4.2,9.8-15.2,14.9-25.5,11.5
			c-10.8-3.6-16.6-15.3-13-26.1c0.2-0.7,0.5-1.4,0.8-2.1C87.4,198.1,85.2,190.1,87.8,182.5z"/>
	</g>
	<g>
		<path style="fill:#FFFFFF;" d="M246.8,63c-10.2-4.5-21.2-9.5-32.1-11.9c-1.8-0.4-3.4,2-1.6,3.1c9.7,5.8,21.3,9.8,32,13.6
			C248.3,68.8,249.7,64.3,246.8,63z"/>
	</g>
	<g>
		<path style="fill:#FFFFFF;" d="M274.4,89.5c-15.4-5.7-30.6-11.5-45.9-17.5c-2.5-1-4.3,2.8-1.8,3.9C241.9,82,257,88.3,272,94.7
			C275.4,96.2,277.9,90.8,274.4,89.5z"/>
	</g>
	<g>
		<path style="fill:#FFFFFF;" d="M238.5,92.9c-10.3-4.4-21.1-9-31.8-12.3c-2.9-0.9-4.8,3.6-2,5.1c10.1,5,21,9.1,31.5,13
			C239.5,99.9,241.8,94.3,238.5,92.9z"/>
	</g>
	<g>
		<path style="fill:#FFFFFF;" d="M305,146.3c-14.2-6.9-29.5-12.1-44.2-17.8l-22.2-8.6c-7.6-2.9-15.3-6.5-23.2-8.3
			c-2.4-0.5-3.9,2.7-1.7,4c6.5,3.8,13.8,6.4,20.8,9.2l22.9,9.4c14.9,6.1,29.9,12.9,45.2,17.8C305.9,153,308.2,147.9,305,146.3z"/>
	</g>
	<g>
		<path style="fill:#FFFFFF;" d="M218.3,135c-8.3-4.1-17-7.3-26-9.7c-2.2-0.6-4.5,2.5-2.1,3.9c8.3,4.5,17.1,8.2,26.1,11.1
			c1.4,0.3,2.7-0.4,3.2-1.7C220.1,137.2,219.5,135.7,218.3,135z"/>
	</g>
	<g>
		<path style="fill:#FFFFFF;" d="M274.5,158.3c-9.1-3.7-18.3-7.5-27.7-10.4c-2.3-0.7-4.2,2.9-1.8,4.1c9,4.5,18.5,8.1,27.9,11.8
			C276.3,165.1,277.9,159.7,274.5,158.3z"/>
	</g>
	<g>
		<path style="fill:#FF3369;" d="M206.2,108.2c-4.4-1.8-8.9-3.2-13.5-4.3c-2-0.5-3.8,2.3-1.7,3.5c4.3,2.4,8.8,4.5,13.4,6.3
			C207.8,115.1,209.7,109.4,206.2,108.2z"/>
	</g>
	<g>
		<path style="fill:#FF3369;" d="M221.5,68.1c-3.7-1.4-7.6-2.2-11.6-2.7c-1.2-0.1-2.5,1.5-1.2,2.4c3.3,2.5,6.9,4.6,10.7,6.3
			C223.5,76,225.9,69.7,221.5,68.1z"/>
	</g>
	<g>
		<path style="fill:#FF3369;" d="M238.4,142.8c-4.2-1.6-8.6-2.9-13-4c-2.1-0.5-3,2.5-1.2,3.5c3.7,2.1,7.6,4.1,11.5,5.8
			C239.3,149.7,241.9,144.1,238.4,142.8z"/>
	</g>
	<g>
		<path style="fill:#FF3369;" d="M296.6,115.8c-7.6-3.8-16.2-6.3-24.2-9.4c-8-3-16.1-6.1-24.3-8.9c-2.9-1-4.4,3.2-1.6,4.4
			c7.9,3.6,15.9,6.9,23.9,10.2c8,3.3,15.8,7.3,24,9.8C298.4,123.2,300.3,117.7,296.6,115.8z"/>
	</g>
</g>
</svg>
