<?xml version="1.0" encoding="utf-8"?>
<!-- Generator: Adobe Illustrator 28.2.0, SVG Export Plug-In . SVG Version: 6.00 Build 0)  -->
<svg version="1.1" id="Layer_1" xmlns="http://www.w3.org/2000/svg" xmlns:xlink="http://www.w3.org/1999/xlink" x="0px" y="0px"
	 viewBox="0 0 447.2 447.1" style="enable-background:new 0 0 447.2 447.1;" xml:space="preserve">
<style type="text/css">
	.st0{fill:#FFFFFF;}
	.st1{clip-path:url(#SVGID_00000111882997846753590140000005528579702982432687_);}
	.st2{fill:#ECECEC;}
	.st3{fill:#2C4C9B;}
	.st4{fill:#733D31;}
	.st5{fill:#213C72;}
	.st6{fill:#E99D65;}
	.st7{fill:#808285;}
	.st8{fill:#FFC844;}
	.st9{fill:#FDFFFF;}
	.st10{fill:#F5AB40;}
	.st11{fill:#A5A9AC;}
	.st12{fill:#CFD2D5;}
	.st13{fill:#5D2F27;}
	.st14{fill:#F8B342;}
	.st15{fill:#F8B985;}
	.st16{fill:#DF9120;}
	.st17{fill:#FFC000;}
	.st18{fill:#E01E84;}
</style>
<g>
	<circle id="A" class="st0" cx="223.2" cy="224.8" r="205.4"/>
</g>
<g>
	<g>
		<defs>
			<circle id="SVGID_1_" cx="223.2" cy="224.8" r="205.4"/>
		</defs>
		<clipPath id="SVGID_00000134944565265843870480000011546050419510743695_">
			<use xlink:href="#SVGID_1_"  style="overflow:visible;"/>
		</clipPath>
		<g style="clip-path:url(#SVGID_00000134944565265843870480000011546050419510743695_);">
			<circle class="st2" cx="223.5" cy="224.8" r="176.8"/>
			<path class="st3" d="M-330.7,35.7c85.1-3,178.5-17.2,268.9,38.1c83.9,51.4,113.1,181.3,176.4,170.4l12.6,23.3
				c0,0-52.8,56.3-170,37.7C-160,286.5-295.5,175.5-295.5,175.5L-330.7,35.7z"/>
			<path class="st4" d="M116.1,244.5c3.8-9.7,14.4-12.1,21.1-19.6c6-6.7,13-12.5,20.6-17.3c12.2-7.9,26.2-12.4,40.7-13.3
				c1.1,0.2,2.1,0.9,2.8,1.8c0,5.4-4.3,8.1-9.7,10.3c-4.4,1.9-9.1,3.3-13.4,5.2c-0.7,0.3-1.1,1-1,1.7l-0.7,0.3c0,0.7,0.4,1.4,1,1.8
				s1.3,0.6,2,0.3c7.3-1.9,14.5-4,21.7-6c6.9-2,13.9-3.6,20.6-6.1c3.8-1.5,7.7-3.1,11.4-4.9c4.4-2.1,8.5-5.2,13.2-6.4
				c1.3-0.4,2.7,0.1,3.4,1.2c0.8,1.1,0.8,2.5,0,3.6c-5.3,7.6-16.2,12.4-24.3,16.1c-5.4,2.4-11,4.5-16.7,6.1c0.1,0.5,0,0.4,0.1,0.9
				c5.9-1.5,11.7-3.3,17.4-5.5c9.4-3.7,17.8-8.3,27.1-12.2c2.6-1.1,5.5,2.7,3.4,4.8c-7.5,7.7-17.3,11.7-26.7,16
				c-6.1,2.8-13.5,5-20,7.3c0.1,0.1-0.4,1.3-0.4,1.5c5-1.3,11.8-3.6,16.6-5.4c10.9-4.1,21.4-9,31.5-14.7c2.4-1.3,6,2,3.6,4.2
				c-8.9,8.6-20,12.9-31.5,17.7c-6,2.4-12.8,4-19,5.7c-0.5,0.2,0,1.5-0.5,1.7v0.7c3.6-0.8,7.2-1.7,10.7-2.9
				c8.1-2.8,15.9-5.3,23.7-8.6c3-1.2,4.5,3.3,2.3,5.1c-6.5,5.3-14.5,8.9-22.2,12c-14.4,5.9-29.9,8.6-45.5,9.8
				c-14.7,1.2-35.2-0.7-48.7,6.1c-2.3,1.2-1.1-0.2-3.1-1.7c-3.2-2.3-5.3-5.8-6.1-9.6c-0.9,0.3-1.7,0.5-2.6,0.7
				C119.1,252.8,115.7,245.4,116.1,244.5L116.1,244.5z"/>
			<g>
				<path id="B" class="st5" d="M-285.4,48.9c25,9.4,67.1,44.7,82.3,69.7c19.3,31.8,26.9,52.2,44,85c15.6,30.1,39.6,51.2,71.7,63.2
					c29.5,11,62.2,15,93.8,16c38.6,1.2,79-4.2,112.5-25.1c-1.7-4-3.3-8.1-4.5-12.2c-1.4-4.6,4.8-9.1,8.1-4.7
					c2.4,3.5,4.5,7.2,6.4,10.9c2.1,3.8,4.6,7.7,6.1,11.8c1.5,4.4-3,8.7-6.8,7.8C96.4,303.6,49.9,316,5.6,313
					c-18.6-1.2-92.3-18.1-98.6-20.9c-20.7-6.8-26.4-11.2-45.9-21c-18.6-9.4-32.5-14.6-34.8-28c-2.1-11.8-3.9-41.5-6.1-53.3
					c-2.4-12.6-5.9-25-10.4-37.1c-5.3-14.1-13.2-27-23.4-38C-233,94-260,61.8-285.4,48.9z"/>
			</g>
			<g>
				<path id="C" class="st6" d="M168.6,242.6c2.5-5.8,3.9-11.9,4.1-18.2c0.1-3.2-0.8-7,0.5-10c1.5-3.2,4.4-3.8,7.4-5
					c5.8-2.4,10.6-6.2,15.8-9.7c1-0.6,2,0.7,1.6,1.9c-1.3,4-5.8,5.9-9.4,8.2c-4.3,2.8-11.5,4.1-11.6,9.2c-0.1,4.3,0.4,8.7-0.4,13
					c-0.8,4.4-2.3,8.6-4.3,12.6C171.2,246.5,167.7,244.7,168.6,242.6L168.6,242.6z"/>
			</g>
			<path class="st7" d="M198.2,240.8l-5.1-0.1c-4.5-0.1-8-3.8-8-8.2c0.1-4.5,3.8-8,8.2-8l5.1,0.1c4.5,0.1,8,3.8,8,8.2
				C206.3,237.3,202.7,240.8,198.2,240.8z"/>
			<g>
				<path class="st8" d="M202.2,102.4c9.7,0.7,18.1,4.5,25.3,11c7,6.3,11,14.3,11.8,23.7c0.7,8.4-2,16-6.4,23.1
					c-5.5,8.9-10.1,18.2-13,28.3c-1.2,4.1-1.2,8.3-1.9,12.5c-0.7,3.9-3.2,6.2-7.1,6.1l-28.2-0.5c-4-0.1-6.6-2.8-7.1-7.2
					s-0.5-8.9-1.7-13.3c-2.9-10.4-7.5-20.1-12.9-29.5c-7.5-13.1-5.5-30.1,4.9-41.1c6.5-6.9,14.4-11.2,23.8-12.8
					C189.8,102.9,195,101.8,202.2,102.4L202.2,102.4z"/>
				<path class="st8" d="M181.8,203.1c0.3,0,0.5,0.1,0.8,0.1c-0.1,0.2-0.1,0.5-0.4,0.4C182,203.6,181.9,203.3,181.8,203.1
					L181.8,203.1z"/>
			</g>
			<path class="st9" d="M209.5,135.7c-4.7-0.1-8.6,3.7-8.7,8.4l-0.1,5.8v3l-5.3-0.1l0.1-8.8c0.1-4.7-3.7-8.6-8.4-8.7
				s-8.6,3.7-8.7,8.4v1.4c-0.1,5.8,4.5,10.5,10.3,10.6l3.6,0.1l-0.7,29.9l3,0.1l0.7-30l5.3,0.1l-0.5,31.8l3,0.1l0.5-31.8l3.7,0.1
				c5.8,0.1,10.5-4.5,10.6-10.3v-1.4C218,139.7,214.2,135.8,209.5,135.7L209.5,135.7z M188.6,152.7c-4.1-0.1-7.4-3.5-7.3-7.6v-1.4
				c0.1-3.1,2.6-5.5,5.6-5.4s5.5,2.6,5.4,5.6l-0.1,6.6l-0.1,2.2L188.6,152.7L188.6,152.7z M214.9,145.7c-0.1,4.1-3.5,7.4-7.6,7.3
				l-3.6-0.1l0.1-8.8c0.1-3.1,2.6-5.5,5.6-5.4c3.1,0.1,5.5,2.6,5.4,5.6L214.9,145.7z"/>
			<path class="st10" d="M203.1,179.8l-11.6-0.2c-1.3,0-2.4,1-2.4,2.4l-0.4,25.1l16.4,0.3l0.4-25.1
				C205.5,180.9,204.4,179.8,203.1,179.8z"/>
			<path class="st11" d="M206.8,233.2l-21.8-0.4c-2.1,0-3.7-1.7-3.7-3.8l0.4-22.3l29.3,0.5l-0.4,22.3
				C210.6,231.6,208.9,233.2,206.8,233.2z"/>
			<g>
				<path class="st12" d="M212.9,218.1l-33.3-0.6c-2.1,0-3.7-1.8-3.7-3.8c0-2.1,1.8-3.7,3.8-3.7l33.3,0.6c2.1,0,3.7,1.8,3.7,3.8
					C216.7,216.5,215,218.1,212.9,218.1z M212.9,221c2.1,0,3.7,1.8,3.7,3.8c0,2.1-1.8,3.7-3.8,3.7l-33.3-0.6c-2.1,0-3.7-1.8-3.7-3.8
					c0-2.1,1.8-3.7,3.8-3.7"/>
			</g>
			<g>
				<path class="st9" d="M225.4,126c-0.9,0-1.7-0.4-2.2-1.2c-4.9-7.5-13.2-12.1-22.1-12.2c-1.4,0-2.6-1.2-2.6-2.7
					c0-1.4,1.2-2.6,2.7-2.6c10.7,0.2,20.6,5.6,26.4,14.6c0.8,1.2,0.4,2.8-0.8,3.6C226.3,125.9,225.8,126,225.4,126L225.4,126z"/>
				<circle class="st9" cx="230.8" cy="132.5" r="2.6"/>
			</g>
			<path class="st4" d="M179.6,257.3c-14.7,1.2-35.2-0.7-48.7,6.1c-2.3,1.2-1.1-0.2-3.1-1.7c-3.2-2.3-5.3-5.8-6.1-9.6
				c-0.9,0.3-1.7,0.5-2.6,0.7c0,0-3.4-7.4-3-8.3c3.8-9.7,14.4-12.1,21.1-19.6c6-6.7,13-12.5,20.6-17.3c12.2-7.9,26.2-12.4,40.7-13.3
				c1.1,0.2,2.1,0.9,2.8,1.8c0,5.4-4.3,8.1-9.7,10.3c-4.4,1.9-9.1,3.3-13.4,5.2c-0.7,0.3-1.1,1-1,1.7l-0.7,0.3c0,0.7,0.4,1.4,1,1.8
				s1.3,0.6,2,0.3"/>
			<path class="st13" d="M134,261.1c-0.3-0.5-0.4-1.2-0.8-1.6c16.1-8.5,36.4-8.3,54.2-8c2.6,0.1,5.1,0,7.6,0
				c3.7-0.4,7.4-0.7,11.1-0.9h0.3c4.7-0.6,9.3-1.7,13.7-3.4c9.7-3.7,18-9.8,27.2-14.5c1.2-0.6,1.1,1.6,0.2,2.4
				c-5.9,5-12.3,9.3-19.3,12.6c-3.5,1.7-7.1,3.1-10.7,4.2c-14.5,4.5-29.4,6.3-44.5,8l-35.1,3.8l-0.7,0.1c-0.5,0.1-1.5,0.7-2,1
				C134.7,263.6,134.5,262.2,134,261.1z"/>
			<g>
				<path id="C_00000146493352090777783310000015224011637602294690_" class="st13" d="M168.6,242.6c2.5-5.8,3.9-11.9,4.1-18.2
					c0.1-3.2-0.8-7,0.5-10c1.5-3.2,4.4-3.8,7.4-5c5.8-2.4,10.6-6.2,15.8-9.7c1-0.6,2,0.7,1.6,1.9c-1.3,4-5.8,5.9-9.4,8.2
					c-4.3,2.8-11.5,4.1-11.6,9.2c-0.1,4.3,0.4,8.7-0.4,13c-0.8,4.4-2.3,8.6-4.3,12.6C171.2,246.5,167.7,244.7,168.6,242.6
					L168.6,242.6z"/>
			</g>
			<path class="st14" d="M785.1-6.9c-95.3,13.4-202.2,16-291.9,95.4c-83.3,73.8-90.3,224.2-162.9,224.5l-9.4,28.4
				c0,0,69.9,52.2,196.7,8.4C644.5,306,773.5,155.7,773.5,155.7L785.1-6.9z"/>
			<path class="st15" d="M328.8,313.7c-6.1-10.1-18.4-10.6-27.3-17.7c-8-6.3-16.9-11.4-26.4-15.2c-15.1-6.3-31.6-8.7-47.9-6.8
				c-1.2,0.5-2.2,1.4-2.7,2.6c1,6,6.4,8.2,12.8,9.6c5.3,1.3,10.8,1.8,15.9,3.2c0.8,0.2,1.4,0.9,1.4,1.7l0.8,0.2
				c0.1,0.8-0.2,1.6-0.7,2.2c-0.6,0.6-1.4,0.9-2.2,0.8c-8.5-0.7-16.9-1.6-25.4-2.5c-8.1-0.8-16.2-1.2-24.2-2.8
				c-4.5-0.9-9.2-2-13.7-3.2c-5.3-1.5-10.5-4.1-16-4.6c-1.5-0.2-2.9,0.6-3.6,2c-0.6,1.4-0.4,3,0.7,4c7.4,7.4,20.5,10.6,30.3,13.1
				c6.5,1.6,13.1,2.8,19.7,3.5c0,0.6,0.1,0.4,0.1,1c-6.9-0.5-13.7-1.4-20.5-2.7c-11.2-2.2-21.5-5.7-32.6-8.2c-3.1-0.7-5.6,4.1-2.9,6
				c9.9,7.1,21.6,9.6,32.9,12.5c7.4,1.9,16.1,2.9,23.8,4.2c0,0.2,0.7,1.4,0.7,1.6c-5.8-0.4-13.8-1.7-19.5-2.8
				c-12.9-2.4-25.6-5.8-37.9-10.2c-2.9-1-6.3,3.4-3.2,5.4c11.6,7.8,24.8,10.5,38.6,13.5c7.1,1.5,15.1,1.9,22.3,2.6
				c0.6,0.1,0.3,1.6,0.8,1.8c0.1,0.2,0.1,0.5,0.1,0.8c-4.2-0.1-8.3-0.5-12.5-1.1c-9.5-1.6-18.8-2.7-28.1-4.9
				c-3.6-0.8-4.3,4.6-1.6,6.1c8.2,4.6,17.9,7,27.1,9c17.2,3.7,35,3.7,52.6,2c16.6-1.6,39.1-7.7,55.4-2.8c2.8,0.9,1.2-0.5,3.1-2.5
				c3.1-3.2,4.8-7.5,4.9-11.9c1,0.2,2.1,0.3,3.1,0.3C327,323.5,329.3,314.6,328.8,313.7L328.8,313.7z"/>
			<path class="st16" d="M737.3,16.8c-25.9,15.4-65.9,62.9-77.9,93.9c-15.2,39.2-19.7,63.4-32.3,103.4
				c-11.5,36.6-34.1,64.9-67.4,84.5c-30.7,18.1-66.3,28.9-101.3,36.3c-42.7,9-88.8,10.9-130.2-5.8c1.2-4.8,2-9.6,2.6-14.5
				c0.6-5.4-7.2-9.2-9.9-3.6c-1.9,4.4-3.6,8.9-5,13.5c-1.6,4.7-3.6,9.5-4.4,14.4c-0.8,5.2,5.1,9.1,9.2,7.4
				c41.8,29.7,96,34.4,144.7,22.3c20.5-5,99.2-38.3,105.7-42.7c21.7-11.6,27.2-17.7,47-32.5c18.9-14.1,33.3-22.7,33.3-38.1
				c0-13.6-3.8-47-3.7-60.5c0.2-14.5,1.6-29,4.2-43.4c3.1-16.7,9.4-32.7,18.6-46.9C687.8,77.3,711.6,36.1,737.3,16.8L737.3,16.8z"/>
			<g>
				<path class="st6" d="M312,336.1l0.6-2.4c-19.8-6.3-42.7-2.1-62.6,1.8c-2.8,0.6-5.7,1.1-8.6,1.5c-4.2,0.3-8.4,0.7-12.6,1.2
					l-0.4,0.1c-5.4,0.3-10.8-0.1-16.1-1c-11.7-2.2-22.3-7.5-33.6-10.9c-1.5-0.4-1,2.1,0.3,2.8c7.6,4.5,15.7,8,24.2,10.4
					c4.2,1.2,8.6,2.1,12.9,2.6c17.2,2.1,34.4,1.3,51.8,0.1l40.3-2.7h0.8c0.6,0.1,1.9,0.3,2.5,0.5C311.7,338.4,311.6,337.4,312,336.1
					L312,336.1z M269.9,321.9c-3.9-5.9-6.7-12.5-8.1-19.4c-0.7-3.5-0.5-8-2.5-11c-2.3-3.3-5.7-3.3-9.2-4.1c-7-1.5-13-4.8-19.5-7.7
					c-1.2-0.5-2.1,1.2-1.4,2.4c2.2,4.2,7.7,5.4,12,7.3c5.4,2.3,13.6,2.3,14.7,7.9c1,4.8,1.3,9.7,3,14.4c1.8,4.7,4.2,9.1,7.3,13.1
					C267.8,326.7,271.3,324.1,269.9,321.9L269.9,321.9z"/>
			</g>
			<g>
				<path id="B_00000159450276075823653840000004929998081411947393_" class="st5" d="M-285.4,48.9c25,9.4,67.1,44.7,82.3,69.7
					c19.3,31.8,26.9,52.2,44,85c15.6,30.1,39.6,51.2,71.7,63.2c29.5,11,62.2,15,93.8,16c38.6,1.2,79-4.2,112.5-25.1
					c-1.7-4-3.3-8.1-4.5-12.2c-1.4-4.6,4.8-9.1,8.1-4.7c2.4,3.5,4.5,7.2,6.4,10.9c2.1,3.8,4.6,7.7,6.1,11.8c1.5,4.4-3,8.7-6.8,7.8
					C96.4,303.6,49.9,316,5.6,313c-18.6-1.2-92.3-18.1-98.6-20.9c-20.7-6.8-26.4-11.2-45.9-21c-18.6-9.4-32.5-14.6-34.8-28
					c-2.1-11.8-3.9-41.5-6.1-53.3c-2.4-12.6-5.9-25-10.4-37.1c-5.3-14.1-13.2-27-23.4-38C-233,94-260,61.8-285.4,48.9z"/>
			</g>
			<path class="st0" d="M253.6,148.5h19.6"/>
			<g>
				<path id="D" class="st10" d="M273.2,150.5h-19.5c-1.1,0-2-0.9-2-2s0.9-2,2-2h19.5c1.1,0,2,0.9,2,2S274.3,150.5,273.2,150.5z"/>
			</g>
			<path class="st0" d="M249.2,167.6l18.1,7.5"/>
			<path class="st10" d="M267.3,177.1c-0.3,0-0.5,0-0.8-0.2l-18.1-7.5c-1-0.4-1.5-1.6-1.1-2.6s1.6-1.5,2.6-1.1l18.1,7.5
				c1,0.4,1.5,1.6,1.1,2.6C268.8,176.7,268,177.1,267.3,177.1L267.3,177.1z"/>
			<path class="st0" d="M251.1,129.5l18.4-7.6"/>
			<path class="st10" d="M251.1,131.5c-0.8,0-1.5-0.5-1.8-1.2c-0.4-1,0.1-2.2,1.1-2.6l18.3-7.6c1-0.4,2.2,0.1,2.6,1.1
				s-0.1,2.2-1.1,2.6l-18.3,7.6C251.7,131.4,251.4,131.5,251.1,131.5L251.1,131.5z"/>
			<path class="st0" d="M137.3,148.5h-19.6"/>
			<path class="st10" d="M137.3,150.5h-19.5c-1.1,0-2-0.9-2-2s0.9-2,2-2h19.5c1.1,0,2,0.9,2,2S138.4,150.5,137.3,150.5z"/>
			<path class="st0" d="M141.8,167.6l-18.2,7.5"/>
			<path class="st10" d="M123.6,177.1c-0.8,0-1.5-0.5-1.8-1.2c-0.4-1,0.1-2.2,1.1-2.6l18.1-7.5c1-0.4,2.2,0.1,2.6,1.1
				s-0.1,2.2-1.1,2.6l-18.1,7.5C124.2,177.1,123.9,177.1,123.6,177.1L123.6,177.1z"/>
			<path class="st0" d="M139.8,129.5l-18.4-7.6"/>
			<path class="st10" d="M139.8,131.5c-0.3,0-0.5,0-0.8-0.2l-18.3-7.6c-1-0.4-1.5-1.6-1.1-2.6s1.6-1.5,2.6-1.1l18.3,7.6
				c1,0.4,1.5,1.6,1.1,2.6C141.3,131,140.5,131.5,139.8,131.5L139.8,131.5z"/>
		</g>
	</g>
</g>
<path class="st17" d="M36,112.5c0,0,58.5-21.8,87.7-39.6c24.1-14.7,75.1-61.5,75.1-61.5l57.9,3.4c0,0-50,62.2-96.7,93.9
	c-59,40-144.8,49.7-144.8,49.7L36,112.5z"/>
<g>
	<path class="st0" d="M108.9,122c-2.5-0.7-4.4-2.5-5.8-5.5l-3.5-7.6c-1.4-3-1.6-5.6-0.5-8s3.3-4.3,6.7-5.9c2.4-1.1,4.6-1.7,6.5-1.6
		s3.7,0.6,5.3,1.7l-2.6,4.3c-1.3-0.8-2.5-1.3-3.5-1.5c-1.1-0.1-2.4,0.2-3.9,0.9c-1.9,0.9-3.1,2-3.5,3.2c-0.5,1.3-0.3,2.7,0.5,4.4
		l3.5,7.6c0.8,1.7,1.8,2.8,3.1,3.2c1.3,0.5,2.8,0.2,4.7-0.6c1.6-0.8,2.8-1.6,3.4-2.6s0.7-2,0.2-3l-0.5-1.1c-0.7-1.5-1.7-1.9-3-1.2
		l-4,1.9l-1.8-3.9l5.4-2.5c1.9-0.9,3.5-1.1,4.8-0.6s2.4,1.6,3.2,3.4l1,2.2c1,2.1,0.9,4.2-0.4,6.2c-1.2,2-3.4,3.8-6.4,5.2
		C114.3,122.2,111.4,122.7,108.9,122z"/>
	<path class="st0" d="M133.9,109.3c-2.5-0.4-4.7-2-6.4-4.7l-4.4-7.1c-1.7-2.8-2.3-5.4-1.5-7.8c0.7-2.4,2.7-4.6,5.8-6.6
		c2.2-1.4,4.1-2.1,6-2.3c1.8-0.2,3.6,0.2,5.3,1.1l-1.9,4.4c-1.3-0.6-2.5-0.9-3.6-0.9c-1,0-2.2,0.4-3.6,1.3c-1.7,1.1-2.7,2.2-3,3.5
		s0.1,2.7,1.1,4.3l4.4,7.1c1,1.6,2.1,2.5,3.4,2.8c1.3,0.3,2.8-0.1,4.5-1.1c1.5-0.9,2.4-1.9,2.9-2.9s0.7-2.3,0.7-3.8l4.8,0.4
		c-0.1,1.5-0.3,2.7-0.6,3.8c-0.4,1.1-1,2.1-1.8,3.1c-0.9,1-2.1,2-3.6,3C139.2,108.9,136.4,109.7,133.9,109.3z"/>
	<path class="st0" d="M158.5,95.3c-1.3,0.4-2.5,0.6-3.6,0.5s-2.4-0.3-3.9-0.8l1.1-4.7c1.7,0.6,3.2,0.8,4.4,0.7
		c1.2-0.1,2.3-0.6,3.5-1.5c1.7-1.2,2.7-2.3,3.1-3.4c0.4-1,0.2-2.1-0.6-3.2c-0.4-0.5-0.9-0.9-1.5-0.9c-0.6-0.1-1.5,0.1-2.5,0.4
		s-2.6,1-4.6,1.9c-2.3,1.1-4.4,1.4-6.1,1.1c-1.8-0.4-3.3-1.4-4.6-3.2c-1-1.3-1.5-2.7-1.5-4.1c-0.1-1.4,0.3-2.9,1.2-4.3
		c0.8-1.4,2-2.7,3.7-3.9c2.1-1.5,4-2.5,5.7-2.8s3.4-0.1,5,0.5l-1.2,4.5c-1.1-0.2-2-0.3-2.7-0.3s-1.4,0.1-2,0.3
		c-0.7,0.2-1.4,0.6-2.2,1.2c-1.2,0.9-1.9,1.8-2.1,2.8c-0.2,1,0,1.9,0.8,2.9c0.7,0.9,1.6,1.3,2.7,1.2c1.1-0.1,2.3-0.5,3.8-1.2
		c2.1-1,3.8-1.6,5.2-2s2.7-0.4,4.1-0.1c1.4,0.4,2.6,1.3,3.7,2.8c1.6,2.2,2,4.4,1.3,6.5c-0.7,2.2-2.6,4.4-5.7,6.7
		C161.1,94.1,159.7,94.9,158.5,95.3z"/>
	<path class="st0" d="M175.2,80c-2.1-0.2-4-1.3-5.7-3.5l-6.5-8c-1.7-2.1-2.5-4.2-2.2-6.3c0.2-2.1,1.7-4.2,4.4-6.4l7.1-5.8l2.7,3.3
		l-7.1,5.8c-1.1,0.9-1.7,1.8-1.8,2.8s0.3,2,1.2,3.1l1.9,2.3l9-7.3l2.7,3.3l-9,7.3l1.9,2.3c0.9,1.1,1.8,1.7,2.8,1.8
		c1,0.1,2-0.3,3.1-1.2l7.1-5.8l2.7,3.3l-7.1,5.8C179.7,79.2,177.3,80.2,175.2,80z"/>
</g>
<g>
	<path id="F" class="st18" d="M223.5,446.9c-59.6,0-115.7-23.2-157.9-65.4S0.2,283.3,0.2,223.6c0-59.6,23.2-115.7,65.4-157.9
		S163.8,0.4,223.5,0.4s115.7,23.2,157.9,65.4s65.4,98.2,65.4,157.9c0,59.6-23.2,115.7-65.4,157.9
		C339.2,423.7,283.1,446.9,223.5,446.9L223.5,446.9z M223.5,24.5c-109.8,0-199.2,89.3-199.2,199.2s89.3,199.2,199.2,199.2
		c109.8,0,199.2-89.3,199.2-199.2S333.3,24.5,223.5,24.5z"/>
</g>
</svg>
