<?xml version="1.0" encoding="utf-8"?>
<!-- Generator: Adobe Illustrator 22.0.0, SVG Export Plug-In . SVG Version: 6.00 Build 0)  -->
<svg version="1.1" id="Layer_1" xmlns="http://www.w3.org/2000/svg" xmlns:xlink="http://www.w3.org/1999/xlink" x="0px" y="0px"
	 viewBox="0 0 447.2 447.1" style="enable-background:new 0 0 447.2 447.1;" xml:space="preserve">
<g>
	<g>
		<defs>
			<circle id="SVGID_1_" cx="223.2" cy="224.8" r="205.4"/>
		</defs>
		<use xlink:href="#SVGID_1_"  style="overflow:visible;fill:#FFFFFF;"/>
		<clipPath id="SVGID_2_">
			<use xlink:href="#SVGID_1_"  style="overflow:visible;"/>
		</clipPath>
		<g style="clip-path:url(#SVGID_2_);">
			<circle style="fill:#ECECEC;" cx="223.5" cy="224.8" r="176.8"/>
		</g>
		<g id="Page-1_4_" style="clip-path:url(#SVGID_2_);">
			<g id="Homepage---Desktop_5_" transform="translate(-453.000000, -181.000000)">
				<g id="illo_hero_5_" transform="translate(453.000000, 180.500000)">
					<g id="Right_4_" transform="translate(364.000000, 0.500000)">
						<g>
							<g>
								<path style="fill:#2C4C9B;" d="M-694.7,35.7c85.1-3,178.5-17.2,268.9,38.1c83.9,51.4,113.1,181.3,176.4,170.4l12.6,23.3
									c0,0-52.8,56.3-170,37.7C-524,286.5-659.5,175.5-659.5,175.5L-694.7,35.7z"/>
							</g>
							<g>
								<path style="fill:#733D31;" d="M-247.9,244.5c3.8-9.7,14.4-12.1,21.1-19.6c6-6.7,13-12.5,20.6-17.3
									c12.2-7.9,26.2-12.4,40.7-13.3c1.1,0.2,2.1,0.9,2.8,1.8c0,5.4-4.3,8.1-9.7,10.3c-4.4,1.9-9.1,3.3-13.4,5.2
									c-0.7,0.3-1.1,1-1,1.7l-0.7,0.3c0,0.7,0.4,1.4,1,1.8c0.6,0.4,1.3,0.6,2,0.3c7.3-1.9,14.5-4,21.7-6c6.9-2,13.9-3.6,20.6-6.1
									c3.8-1.5,7.7-3.1,11.4-4.9c4.4-2.1,8.5-5.2,13.2-6.4c1.3-0.4,2.7,0.1,3.4,1.2c0.8,1.1,0.8,2.5,0,3.6
									c-5.3,7.6-16.2,12.4-24.3,16.1c-5.4,2.4-11,4.5-16.7,6.1c0.1,0.5,0,0.4,0.1,0.9c5.9-1.5,11.7-3.3,17.4-5.5
									c9.4-3.7,17.8-8.3,27.1-12.2c2.6-1.1,5.5,2.7,3.4,4.8c-7.5,7.7-17.3,11.7-26.7,16c-6.1,2.8-13.5,5-20,7.3
									c0.1,0.1-0.4,1.3-0.4,1.5c5-1.3,11.8-3.6,16.6-5.4c10.9-4.1,21.4-9,31.5-14.7c2.4-1.3,6,2,3.6,4.2
									c-8.9,8.6-20,12.9-31.5,17.7c-6,2.4-12.8,4-19,5.7c-0.5,0.2,0,1.5-0.5,1.7c0,0.2,0,0.5,0,0.7c3.6-0.8,7.2-1.7,10.7-2.9
									c8.1-2.8,15.9-5.3,23.7-8.6c3-1.2,4.5,3.3,2.3,5.1c-6.5,5.3-14.5,8.9-22.2,12c-14.4,5.9-29.9,8.6-45.5,9.8
									c-14.7,1.2-35.2-0.7-48.7,6.1c-2.3,1.2-1.1-0.2-3.1-1.7c-3.2-2.3-5.3-5.8-6.1-9.6c-0.9,0.3-1.7,0.5-2.6,0.7
									C-244.9,252.8-248.3,245.4-247.9,244.5z"/>
							</g>
							<g>
								<path style="fill:#213C72;" d="M-649.4,48.9c25,9.4,67.1,44.7,82.3,69.7c19.3,31.8,26.9,52.2,44,85
									c15.6,30.1,39.6,51.2,71.7,63.2c29.5,11,62.2,15,93.8,16c38.6,1.2,79-4.2,112.5-25.1c-1.7-4-3.3-8.1-4.5-12.2
									c-1.4-4.6,4.8-9.1,8.1-4.7c2.4,3.5,4.5,7.2,6.4,10.9c2.1,3.8,4.6,7.7,6.1,11.8c1.5,4.4-3,8.7-6.8,7.8
									c-31.8,32.3-78.3,44.7-122.6,41.7c-18.6-1.2-92.3-18.1-98.6-20.9c-20.7-6.8-26.4-11.2-45.9-21c-18.6-9.4-32.5-14.6-34.8-28
									c-2.1-11.8-3.9-41.5-6.1-53.3c-2.4-12.6-5.9-25-10.4-37.1c-5.3-14.1-13.2-27-23.4-38C-597,94-624,61.8-649.4,48.9z"/>
							</g>
						</g>
						<g>
							<path style="fill:#E99D65;" d="M-195.4,242.6c2.5-5.8,3.9-11.9,4.1-18.2c0.1-3.2-0.8-7,0.5-10c1.5-3.2,4.4-3.8,7.4-5
								c5.8-2.4,10.6-6.2,15.8-9.7c1-0.6,2,0.7,1.6,1.9c-1.3,4-5.8,5.9-9.4,8.2c-4.3,2.8-11.5,4.1-11.6,9.2c-0.1,4.3,0.4,8.7-0.4,13
								c-0.8,4.4-2.3,8.6-4.3,12.6C-192.8,246.5-196.3,244.7-195.4,242.6z"/>
						</g>
					</g>
				</g>
			</g>
		</g>
		<g style="clip-path:url(#SVGID_2_);">
			<g>
				<path style="fill:#808285;" d="M198.2,240.8l-5.1-0.1c-4.5-0.1-8-3.8-8-8.2v0c0.1-4.5,3.8-8,8.2-8l5.1,0.1c4.5,0.1,8,3.8,8,8.2
					v0C206.3,237.3,202.7,240.8,198.2,240.8z"/>
			</g>
			<g id="TyfDpR_3_">
				<g>
					<g>
						<path style="fill:#FFC844;" d="M202.2,102.4c9.7,0.7,18.1,4.5,25.3,11c7,6.3,11,14.3,11.8,23.7c0.7,8.4-2,16-6.4,23.1
							c-5.5,8.9-10.1,18.2-13,28.3c-1.2,4.1-1.2,8.3-1.9,12.5c-0.7,3.9-3.2,6.2-7.1,6.1c-9.4-0.1-18.8-0.3-28.2-0.5
							c-4-0.1-6.6-2.8-7.1-7.2c-0.5-4.4-0.5-8.9-1.7-13.3c-2.9-10.4-7.5-20.1-12.9-29.5c-7.5-13.1-5.5-30.1,4.9-41.1
							c6.5-6.9,14.4-11.2,23.8-12.8C189.8,102.9,195,101.8,202.2,102.4z"/>
					</g>
					<g>
						<path style="fill:#FFC844;" d="M181.8,203.1c0.3,0,0.5,0.1,0.8,0.1c-0.1,0.2-0.1,0.5-0.4,0.4
							C182,203.6,181.9,203.3,181.8,203.1z"/>
					</g>
				</g>
			</g>
			<g>
				<path style="fill:#FDFFFF;" d="M209.5,135.7c-4.7-0.1-8.6,3.7-8.7,8.4l-0.1,5.8l0,0l0,3l-5.3-0.1l0.1-8.8
					c0.1-4.7-3.7-8.6-8.4-8.7s-8.6,3.7-8.7,8.4l0,1.4c-0.1,5.8,4.5,10.5,10.3,10.6l3.6,0.1l-0.7,29.9l3,0.1l0.7-30l0,0l5.3,0.1
					l-0.5,31.8l3,0.1l0.5-31.8l3.7,0.1c5.8,0.1,10.5-4.5,10.6-10.3l0-1.4C218,139.7,214.2,135.8,209.5,135.7z M188.6,152.7
					c-4.1-0.1-7.4-3.5-7.3-7.6l0-1.4c0.1-3.1,2.6-5.5,5.6-5.4s5.5,2.6,5.4,5.6l-0.1,6.6l-0.1,2.2L188.6,152.7z M214.9,145.7
					c-0.1,4.1-3.5,7.4-7.6,7.3l-3.6-0.1l0.1-8.8c0.1-3.1,2.6-5.5,5.6-5.4c3.1,0.1,5.5,2.6,5.4,5.6L214.9,145.7z"/>
			</g>
			<g>
				<path style="fill:#F5AB40;" d="M203.1,179.8l-11.6-0.2c-1.3,0-2.4,1-2.4,2.4l-0.4,25.1l16.4,0.3l0.4-25.1
					C205.5,180.9,204.4,179.8,203.1,179.8z"/>
			</g>
			<g>
				<path style="fill:#A5A9AC;" d="M206.8,233.2l-21.8-0.4c-2.1,0-3.7-1.7-3.7-3.8l0.4-22.3l29.3,0.5l-0.4,22.3
					C210.6,231.6,208.9,233.2,206.8,233.2z"/>
			</g>
			<g>
				<path style="fill:#CFD2D5;" d="M212.9,218.1l-33.3-0.6c-2.1,0-3.7-1.8-3.7-3.8l0,0c0-2.1,1.8-3.7,3.8-3.7l33.3,0.6
					c2.1,0,3.7,1.8,3.7,3.8v0C216.7,216.5,215,218.1,212.9,218.1z"/>
			</g>
			<g>
				<path style="fill:#CFD2D5;" d="M212.9,221c2.1,0,3.7,1.8,3.7,3.8v0c0,2.1-1.8,3.7-3.8,3.7l-33.3-0.6c-2.1,0-3.7-1.8-3.7-3.8l0,0
					c0-2.1,1.8-3.7,3.8-3.7"/>
			</g>
			<g>
				<path style="fill:#FDFFFF;" d="M225.4,126c-0.9,0-1.7-0.4-2.2-1.2c-4.9-7.5-13.2-12.1-22.1-12.2c-1.4,0-2.6-1.2-2.6-2.7
					c0-1.4,1.2-2.6,2.7-2.6c10.7,0.2,20.6,5.6,26.4,14.6c0.8,1.2,0.4,2.8-0.8,3.6C226.3,125.9,225.8,126,225.4,126z"/>
			</g>
			<g>
				<circle style="fill:#FDFFFF;" cx="230.8" cy="132.5" r="2.6"/>
			</g>
		</g>
		<g style="clip-path:url(#SVGID_2_);">
			<path style="fill:#733D31;" d="M179.6,257.3c-14.7,1.2-35.2-0.7-48.7,6.1c-2.3,1.2-1.1-0.2-3.1-1.7c-3.2-2.3-5.3-5.8-6.1-9.6
				c-0.9,0.3-1.7,0.5-2.6,0.7c0,0-3.4-7.4-3-8.3c3.8-9.7,14.4-12.1,21.1-19.6c6-6.7,13-12.5,20.6-17.3c12.2-7.9,26.2-12.4,40.7-13.3
				c1.1,0.2,2.1,0.9,2.8,1.8c0,5.4-4.3,8.1-9.7,10.3c-4.4,1.9-9.1,3.3-13.4,5.2c-0.7,0.3-1.1,1-1,1.7l-0.7,0.3c0,0.7,0.4,1.4,1,1.8
				c0.6,0.4,1.3,0.6,2,0.3"/>
		</g>
		<g style="clip-path:url(#SVGID_2_);">
			<path style="fill:#F8B985;" d="M208.9,219.3"/>
		</g>
		<g style="clip-path:url(#SVGID_2_);">
			<path style="fill:#5D2F27;" d="M134,261.1c-0.3-0.5-0.4-1.2-0.8-1.6c16.1-8.5,36.4-8.3,54.2-8c2.6,0.1,5.1,0,7.6,0
				c3.7-0.4,7.4-0.7,11.1-0.9l0.3,0c4.7-0.6,9.3-1.7,13.7-3.4c9.7-3.7,18-9.8,27.2-14.5c1.2-0.6,1.1,1.6,0.2,2.4
				c-5.9,5-12.3,9.3-19.3,12.6c-3.5,1.7-7.1,3.1-10.7,4.2c-14.5,4.5-29.4,6.3-44.5,8c-11.7,1.3-23.4,2.5-35.1,3.8l-0.7,0.1
				c-0.5,0.1-1.5,0.7-2,1C134.7,263.6,134.5,262.2,134,261.1z"/>
		</g>
		<g style="clip-path:url(#SVGID_2_);">
			<path style="fill:#5D2F27;" d="M168.6,242.6c2.5-5.8,3.9-11.9,4.1-18.2c0.1-3.2-0.8-7,0.5-10c1.5-3.2,4.4-3.8,7.4-5
				c5.8-2.4,10.6-6.2,15.8-9.7c1-0.6,2,0.7,1.6,1.9c-1.3,4-5.8,5.9-9.4,8.2c-4.3,2.8-11.5,4.1-11.6,9.2c-0.1,4.3,0.4,8.7-0.4,13
				c-0.8,4.4-2.3,8.6-4.3,12.6C171.2,246.5,167.7,244.7,168.6,242.6z"/>
		</g>
		<g id="Page-1_3_" style="clip-path:url(#SVGID_2_);">
			<g id="Homepage---Desktop_3_" transform="translate(-453.000000, -181.000000)">
				<g id="illo_hero_3_" transform="translate(453.000000, 180.500000)">
					<g id="Right_3_" transform="translate(364.000000, 0.500000)">
						<g>
							<g>
								<path style="fill:#F8B342;" d="M421.1-6.9c-95.3,13.4-202.2,16-291.9,95.4C45.9,162.3,38.9,312.7-33.7,313l-9.4,28.4
									c0,0,69.9,52.2,196.7,8.4C280.5,306,409.5,155.7,409.5,155.7L421.1-6.9z"/>
							</g>
							<g>
								<path style="fill:#F8B985;" d="M-35.2,313.7c-6.1-10.1-18.4-10.6-27.3-17.7c-8-6.3-16.9-11.4-26.4-15.2
									c-15.1-6.3-31.6-8.7-47.9-6.8c-1.2,0.5-2.2,1.4-2.7,2.6c1,6,6.4,8.2,12.8,9.6c5.3,1.3,10.8,1.8,15.9,3.2
									c0.8,0.2,1.4,0.9,1.4,1.7l0.8,0.2c0.1,0.8-0.2,1.6-0.7,2.2c-0.6,0.6-1.4,0.9-2.2,0.8c-8.5-0.7-16.9-1.6-25.4-2.5
									c-8.1-0.8-16.2-1.2-24.2-2.8c-4.5-0.9-9.2-2-13.7-3.2c-5.3-1.5-10.5-4.1-16-4.6c-1.5-0.2-2.9,0.6-3.6,2
									c-0.6,1.4-0.4,3,0.7,4c7.4,7.4,20.5,10.6,30.3,13.1c6.5,1.6,13.1,2.8,19.7,3.5c0,0.6,0.1,0.4,0.1,1
									c-6.9-0.5-13.7-1.4-20.5-2.7c-11.2-2.2-21.5-5.7-32.6-8.2c-3.1-0.7-5.6,4.1-2.9,6c9.9,7.1,21.6,9.6,32.9,12.5
									c7.4,1.9,16.1,2.9,23.8,4.2c0,0.2,0.7,1.4,0.7,1.6c-5.8-0.4-13.8-1.7-19.5-2.8c-12.9-2.4-25.6-5.8-37.9-10.2
									c-2.9-1-6.3,3.4-3.2,5.4c11.6,7.8,24.8,10.5,38.6,13.5c7.1,1.5,15.1,1.9,22.3,2.6c0.6,0.1,0.3,1.6,0.8,1.8
									c0.1,0.2,0.1,0.5,0.1,0.8c-4.2-0.1-8.3-0.5-12.5-1.1c-9.5-1.6-18.8-2.7-28.1-4.9c-3.6-0.8-4.3,4.6-1.6,6.1
									c8.2,4.6,17.9,7,27.1,9c17.2,3.7,35,3.7,52.6,2c16.6-1.6,39.1-7.7,55.4-2.8c2.8,0.9,1.2-0.5,3.1-2.5
									c3.1-3.2,4.8-7.5,4.9-11.9c1,0.2,2.1,0.3,3.1,0.3C-37,323.5-34.7,314.6-35.2,313.7z"/>
							</g>
							<g>
								<path style="fill:#DF9120;" d="M373.3,16.8c-25.9,15.4-65.9,62.9-77.9,93.9c-15.2,39.2-19.7,63.4-32.3,103.4
									c-11.5,36.6-34.1,64.9-67.4,84.5c-30.7,18.1-66.3,28.9-101.3,36.3c-42.7,9-88.8,10.9-130.2-5.8c1.2-4.8,2-9.6,2.6-14.5
									c0.6-5.4-7.2-9.2-9.9-3.6c-1.9,4.4-3.6,8.9-5,13.5c-1.6,4.7-3.6,9.5-4.4,14.4c-0.8,5.2,5.1,9.1,9.2,7.4
									c41.8,29.7,96,34.4,144.7,22.3c20.5-5,99.2-38.3,105.7-42.7c21.7-11.6,27.2-17.7,47-32.5c18.9-14.1,33.3-22.7,33.3-38.1
									c0-13.6-3.8-47-3.7-60.5c0.2-14.5,1.6-29,4.2-43.4c3.1-16.7,9.4-32.7,18.6-46.9C323.8,77.3,347.6,36.1,373.3,16.8z"/>
							</g>
							<g>
								<path style="fill:#E99D65;" d="M-52,336.1c0.2-0.7,0.6-2.4,0.6-2.4c-19.8-6.3-42.7-2.1-62.6,1.8c-2.9,0.6-5.7,1.1-8.6,1.5
									c-4.2,0.3-8.4,0.7-12.6,1.2l-0.4,0.1c-5.4,0.3-10.8-0.1-16.1-1c-11.7-2.2-22.3-7.5-33.6-10.9c-1.5-0.4-1,2.1,0.3,2.8
									c7.6,4.5,15.7,8,24.2,10.4c4.2,1.2,8.6,2.1,12.9,2.6c17.2,2.1,34.4,1.3,51.8,0.1c13.4-0.8,26.8-1.9,40.3-2.7l0.8,0
									c0.6,0.1,1.9,0.3,2.5,0.5C-52.3,338.4-52.4,337.4-52,336.1z"/>
							</g>
						</g>
						<g>
							<path style="fill:#E99D65;" d="M-94.1,321.9c-3.9-5.9-6.7-12.5-8.1-19.4c-0.7-3.5-0.5-8-2.5-11c-2.3-3.3-5.7-3.3-9.2-4.1
								c-7-1.5-13-4.8-19.5-7.7c-1.2-0.5-2.1,1.2-1.4,2.4c2.2,4.2,7.7,5.4,12,7.3c5.4,2.3,13.6,2.3,14.7,7.9c1,4.8,1.3,9.7,3,14.4
								c1.8,4.7,4.2,9.1,7.3,13.1C-96.2,326.7-92.7,324.1-94.1,321.9z"/>
						</g>
					</g>
				</g>
			</g>
		</g>
		<g style="clip-path:url(#SVGID_2_);">
			<path style="fill:#213C72;" d="M-285.4,48.9c25,9.4,67.1,44.7,82.3,69.7c19.3,31.8,26.9,52.2,44,85
				c15.6,30.1,39.6,51.2,71.7,63.2c29.5,11,62.2,15,93.8,16c38.6,1.2,79-4.2,112.5-25.1c-1.7-4-3.3-8.1-4.5-12.2
				c-1.4-4.6,4.8-9.1,8.1-4.7c2.4,3.5,4.5,7.2,6.4,10.9c2.1,3.8,4.6,7.7,6.1,11.8c1.5,4.4-3,8.7-6.8,7.8
				c-31.8,32.3-78.3,44.7-122.6,41.7c-18.6-1.2-92.3-18.1-98.6-20.9c-20.7-6.8-26.4-11.2-45.9-21c-18.6-9.4-32.5-14.6-34.8-28
				c-2.1-11.8-3.9-41.5-6.1-53.3c-2.4-12.6-5.9-25-10.4-37.1c-5.3-14.1-13.2-27-23.4-38C-233,94-260,61.8-285.4,48.9z"/>
		</g>
		<g style="clip-path:url(#SVGID_2_);">
			<line style="fill:#FFFFFF;" x1="253.6" y1="148.5" x2="273.2" y2="148.5"/>
			<path style="fill:#F5AB40;" d="M273.2,150.5h-19.5c-1.1,0-2-0.9-2-2s0.9-2,2-2h19.5c1.1,0,2,0.9,2,2S274.3,150.5,273.2,150.5z"/>
		</g>
		<g style="clip-path:url(#SVGID_2_);">
			<line style="fill:#FFFFFF;" x1="249.2" y1="167.6" x2="267.3" y2="175.1"/>
			<path style="fill:#F5AB40;" d="M267.3,177.1c-0.3,0-0.5,0-0.8-0.2l-18.1-7.5c-1-0.4-1.5-1.6-1.1-2.6c0.4-1,1.6-1.5,2.6-1.1
				l18.1,7.5c1,0.4,1.5,1.6,1.1,2.6C268.8,176.7,268,177.1,267.3,177.1z"/>
		</g>
		<g style="clip-path:url(#SVGID_2_);">
			<line style="fill:#FFFFFF;" x1="251.1" y1="129.5" x2="269.5" y2="121.9"/>
			<path style="fill:#F5AB40;" d="M251.1,131.5c-0.8,0-1.5-0.5-1.8-1.2c-0.4-1,0.1-2.2,1.1-2.6l18.3-7.6c1-0.4,2.2,0.1,2.6,1.1
				c0.4,1-0.1,2.2-1.1,2.6l-18.3,7.6C251.7,131.4,251.4,131.5,251.1,131.5z"/>
		</g>
		<g style="clip-path:url(#SVGID_2_);">
			<line style="fill:#FFFFFF;" x1="137.3" y1="148.5" x2="117.7" y2="148.5"/>
			<path style="fill:#F5AB40;" d="M137.3,150.5h-19.5c-1.1,0-2-0.9-2-2s0.9-2,2-2h19.5c1.1,0,2,0.9,2,2S138.4,150.5,137.3,150.5z"/>
		</g>
		<g style="clip-path:url(#SVGID_2_);">
			<line style="fill:#FFFFFF;" x1="141.8" y1="167.6" x2="123.6" y2="175.1"/>
			<path style="fill:#F5AB40;" d="M123.6,177.1c-0.8,0-1.5-0.5-1.8-1.2c-0.4-1,0.1-2.2,1.1-2.6l18.1-7.5c1-0.4,2.2,0.1,2.6,1.1
				c0.4,1-0.1,2.2-1.1,2.6l-18.1,7.5C124.2,177.1,123.9,177.1,123.6,177.1z"/>
		</g>
		<g style="clip-path:url(#SVGID_2_);">
			<line style="fill:#FFFFFF;" x1="139.8" y1="129.5" x2="121.4" y2="121.9"/>
			<path style="fill:#F5AB40;" d="M139.8,131.5c-0.3,0-0.5,0-0.8-0.2l-18.3-7.6c-1-0.4-1.5-1.6-1.1-2.6c0.4-1,1.6-1.5,2.6-1.1
				l18.3,7.6c1,0.4,1.5,1.6,1.1,2.6C141.3,131,140.5,131.5,139.8,131.5z"/>
		</g>
	</g>
	<g>
		<defs>
			<path id="SVGID_3_" d="M223.5,446.9c-59.6,0-115.7-23.2-157.9-65.4C23.4,339.3,0.2,283.3,0.2,223.6c0-59.6,23.2-115.7,65.4-157.9
				S163.8,0.4,223.5,0.4s115.7,23.2,157.9,65.4s65.4,98.2,65.4,157.9c0,59.6-23.2,115.7-65.4,157.9
				C339.2,423.7,283.1,446.9,223.5,446.9z M223.5,24.5c-109.8,0-199.2,89.3-199.2,199.2s89.3,199.2,199.2,199.2
				c109.8,0,199.2-89.3,199.2-199.2S333.3,24.5,223.5,24.5z"/>
		</defs>
		<use xlink:href="#SVGID_3_"  style="overflow:visible;fill:#E01E84;"/>
		<clipPath id="SVGID_4_">
			<use xlink:href="#SVGID_3_"  style="overflow:visible;"/>
		</clipPath>
	</g>
</g>
</svg>
