<svg xmlns="http://www.w3.org/2000/svg" xmlns:xlink="http://www.w3.org/1999/xlink" width="800" height="800" viewBox="0 0 800 800"><defs><style>.a{fill:none;}.b{fill:#0e172d;}.c{fill:#05060d;}.d{fill:#ffcd34;}.e{opacity:0.52;}.f{opacity:0.29;}.g{opacity:0.5;}.h{fill:#b2b2b2;}.i{fill:#9d9d9c;}.j{fill:#878787;}.k{clip-path:url(#a);}.l{fill:#ededed;}.m{fill:#dadada;}.n{fill:#f6f6f6;}.o{fill:#ff326a;}.p{fill:#c40e50;}.q{fill:#feb62e;}.r{fill:#733d31;}.s{fill:#5d2f27;}.t{fill:#2146ad;}.u{fill:#fff;}</style><clipPath id="a"><path class="a" d="M692.8,400a292.2,292.2,0,0,0-61.5-179.7h.4A292.9,292.9,0,0,0,414.8,107h-1.3l-6.2-.2h-7.9l-10.5.2h-.7C231.3,112.7,106,241.7,106,400c0,162,131.3,293.4,293.4,293.4h8.1l5.6-.2h2A292.7,292.7,0,0,0,638.5,570.6l-.5.2A292.1,292.1,0,0,0,692.8,400Z"/></clipPath></defs><circle class="b" cx="400" cy="400" r="293.4"/><path class="c" d="M152.3,299.2c94.5,73.9,258,47.2,386.3,54.5s130.8-71.2,23.1-48.5-202.3-3.6-231.4-26.6,35.2-60.6,134.5-44.8c52.6,8.3,117.8-2,167.5-13.6-53.7-69.1-137.6-113.6-231.8-113.6-121.3,0-225.4,73.6-270.1,178.5A127.2,127.2,0,0,1,152.3,299.2Z"/><path class="c" d="M410.3,586.2c-49.7-36.3-7.3-92,83.5-87.2s121.1-81.1,17-58.1-245.9,4.8-373-40.9a165.3,165.3,0,0,1-30.4-14.3c-.2,4.8-.3,9.5-.3,14.3,0,162,131.3,293.4,293.4,293.4,98.4,0,185.4-48.4,238.7-122.8C638.5,570.8,459.8,622.5,410.3,586.2Z"/><circle class="d" cx="592.2" cy="229.9" r="4.9"/><circle class="d" cx="490.5" cy="445.9" r="7.9"/><g class="e"><circle class="d" cx="408.4" cy="202.4" r="4.9"/></g><circle class="d" cx="245.7" cy="264.9" r="7.9"/><g class="f"><circle class="d" cx="445.6" cy="135.2" r="8.9"/></g><circle class="d" cx="318.4" cy="516" r="10.1"/><circle class="d" cx="253.4" cy="573.5" r="4.9"/><g class="g"><circle class="d" cx="454.5" cy="324.9" r="4.9"/></g><circle class="d" cx="530.3" cy="652.4" r="4.9"/><circle class="d" cx="514.5" cy="370.7" r="4.9"/><g class="e"><circle class="d" cx="597.1" cy="526" r="4.9"/></g><circle class="d" cx="211.8" cy="198.4" r="4.9"/><g class="e"><circle class="d" cx="642.9" cy="404.5" r="4.9"/></g><g class="f"><circle class="d" cx="147.1" cy="324.9" r="4.9"/></g><g class="f"><circle class="d" cx="464.1" cy="552.3" r="4.9"/></g><g class="e"><circle class="d" cx="621.2" cy="310.3" r="4.9"/></g><g class="e"><circle class="d" cx="147.1" cy="432.4" r="8.2"/></g><circle class="d" cx="501.1" cy="204.9" r="4.9"/><circle class="d" cx="393.8" cy="652.4" r="4.9"/><circle class="d" cx="263.1" cy="380.8" r="4.9"/><circle class="d" cx="308.4" cy="178.3" r="4.9"/><rect class="h" x="548.3" y="328" width="17.6" height="74.02" transform="translate(-30.7 51.9) rotate(-5.2)"/><circle class="i" cx="560" cy="303.7" r="38.8"/><path class="j" d="M527.6,401.9l65.5-5.9.6,6.9-5,.5,93.4,216.2-9.4,3L578.4,404.3l-12.5,1.2,22.7,246.6-10.7.7L555.3,406.4l-11.7,1.1L500.1,588.7l-9.6-1.6,42.8-178.7-5.1.5Z"/><g class="k"><path class="l" d="M281.2,685.3,219,683.9a237.3,237.3,0,0,1-80.1-56L94,485.1,76.6,429.7A238.9,238.9,0,0,1,98,360.1l81.6,1.8Z"/><path class="l" d="M280.8,288.1,406,290.8l99,315.4-6.1,7.8-116.6-2.5Z"/><polygon class="m" points="280.8 288.1 382.3 611.5 281.2 685.3 179.6 361.9 280.8 288.1"/><path class="n" d="M149,468.9c6.9,12-9.5,47.4-27.1,32.8s-22.2,1.6-22.2,1.6L84.1,453.6s19.9-2.8,20.7-28.8,14.6-27.5,17.1-17.8-3.7,15,5,11.7,11.4-22.8,24.7-16.9,8.5,20.1,20,19.1c5.4-.4.1-10.2,8.7-12.3s16.5,8,16.5,8l20.3,64.7s-13.8-16.2-33.7-11.3-8.7-35.2-33.3-28.4S144.5,461,149,468.9Z"/><path class="l" d="M217.1,481.3l-20.3-64.7s5.2,7.9,8.7,7.5,13.3-11.1,10.1-21.6,3.1-19.1,9.5-19.4,8.4-1.8,10.7-7.3,11.3-29.4-1.2-34.7-19.5,6.2-23.8,1.4c0,0-2.5-1.6,3-5.6L260,303.3s-6.2,10.7.2,12.3,15.2-4.8,16,4-1.5,14.7,1.5,16.1,19.6,4.2,3.4,15.9-15.4,40.1,11.1,48.6,10.3,21.2,4.6,19.2-40.6-5.2-40.9,18.4,11,27.4-7.5,39.2-2.6,26.3-13.4,30.9S226.7,488.9,217.1,481.3Z"/><path class="n" d="M224.7,684.1s-5.4-17.1-22.2-21.4-32.9-11.8-29.3-29.6-16.6-17.1-18-11.3-8,3.3-5.1-2.7,11.9-8.7,13.1-17.1,20.7-.9,22.6,7.6,18.1,2.9,17.5-8.8-1.8-21.5,9.4-26.4,6.1,18.6,19,16.6c3.3-.6,21.1,7.9,4.7,27.7s9.9,19.4,12.2,11,13-6.9,13-6.9l19.6,62.5Z"/><path class="l" d="M261.6,622.8l19.6,62.5,83-60.5s-16-16.5-33.1-11.7-14.6-74.2,5.5-54.8c12.3,11.9,18.9-32.2,18.9-32.2l-16.8-53.5S319,455,309.2,464.8c-17.5,17.4,7.4,20.9-1.5,31.9s12.1,18.7-14.5,29.5c-10.9,4.4-25.5-5.6-15.6-14.5s-10-25.1-19.8-7S252.1,534,277,543.4s24.2,48.3,14.1,56.8S297.1,644.5,261.6,622.8Z"/><path class="n" d="M338.7,472.6l16.8,53.5s21.1-.8,22.2,12.7,4.3,27.9,16.5,30.3,39.1,12.6,37.2,22.8,8,20.9,8,20.9l15.2.3s-14.2-13.1-9-21.6,2.2-19.7-10.6-25.7-1.6-19.7,4.6-15.8,14.1,2.8,12.2-4.4-10.6-22.5,6-29.7,3.1-21.2-3.6-20.3-32.9,25.5-35.8-.9,21-20.5,21-20.5,13.6-2.6-6.4-12.7-35.3,8.8-32.9,17.5-6.1,14.7-9.1,7.6-10.1-22.1,5-33.1S373.2,438,394.3,421s51.2-4.4,51.2-4.4l-14-44.4s-23,20.4-38.8,17-24.5-14.6-33.8-.5,14.7,7.3,13.3,17.1-3.1,23.7-17.6,18.7-23.5,5.9-12.6,12.7,31.2,9.6,24.2,28.8S338.7,472.6,338.7,472.6Z"/><path class="n" d="M295.4,288.4s16.7,5,13.8,17.8,2.7,38.5,20.8,36.9,18.1,14,15.2,16.9-3.2,8.1,2.4,8.1,31.7-3.4,25.2-24.6,13-21.9,16-18,16.1-5,9.5-16.7,12.6-5.4,14.2,18.3,12,22.7,12,22.7l-18.5-59Z"/><path class="o" d="M226,498.4a1.6,1.6,0,0,1-1.1-.5l-1.2-1.6a1.4,1.4,0,0,1,.2-1.9,1.4,1.4,0,0,1,2,.2l1.2,1.7a1.3,1.3,0,0,1-.3,1.9A1.1,1.1,0,0,1,226,498.4Zm-6.7-7.6a1.3,1.3,0,0,1-1-.4,58,58,0,0,0-6.1-5.2,1.4,1.4,0,0,1-.3-1.9,1.4,1.4,0,0,1,2-.3,78.4,78.4,0,0,1,6.3,5.4,1.4,1.4,0,0,1,0,2A1.1,1.1,0,0,1,219.3,490.8ZM206.2,481l-.7-.2a45.6,45.6,0,0,0-7.3-3.1,1.3,1.3,0,0,1-.9-1.7,1.4,1.4,0,0,1,1.7-.9,52,52,0,0,1,7.8,3.3,1.5,1.5,0,0,1,.6,1.9A1.7,1.7,0,0,1,206.2,481Zm-15.6-4.7H190a22.4,22.4,0,0,1-7.9-1.9,1.4,1.4,0,1,1,1.1-2.5,17.6,17.6,0,0,0,7,1.6h.5A1.4,1.4,0,0,1,192,475,1.5,1.5,0,0,1,190.6,476.3Zm-14.4-6.7a1.6,1.6,0,0,1-1.1-.5,23.4,23.4,0,0,1-4-7.7,1.4,1.4,0,0,1,2.6-.8,19.3,19.3,0,0,0,3.6,6.8,1.4,1.4,0,0,1-.2,1.9A1.6,1.6,0,0,1,176.2,469.6Zm-5-15.3a1.3,1.3,0,0,1-1.4-1.3v-.8a42,42,0,0,1,.8-7.7,1.3,1.3,0,1,1,2.6.6,43.8,43.8,0,0,0-.7,7.1v.7a1.2,1.2,0,0,1-1.3,1.4Zm2.9-16h-.4a1.3,1.3,0,0,1-.8-1.7,48.1,48.1,0,0,1,3.5-7.7,1.5,1.5,0,0,1,1.9-.5,1.4,1.4,0,0,1,.5,1.9,52.3,52.3,0,0,0-3.4,7.2A1.3,1.3,0,0,1,174.1,438.3Zm-90.6-2.7h-.6a1.2,1.2,0,0,1-.6-1.8,74.6,74.6,0,0,1,3.9-7.4,1.3,1.3,0,1,1,2.3,1.4c-2.3,4.1-3.7,7.1-3.8,7.1A1.3,1.3,0,0,1,83.5,435.6ZM182.1,424l-.8-.2a1.3,1.3,0,0,1-.3-1.9,35.2,35.2,0,0,0,3.6-6.9,1.4,1.4,0,0,1,1.8-.8,1.3,1.3,0,0,1,.8,1.7,34.2,34.2,0,0,1-4,7.5A1.4,1.4,0,0,1,182.1,424Zm-44.2-2.2h-.2a22.1,22.1,0,0,1-8-3.6,1.4,1.4,0,0,1-.3-1.9,1.4,1.4,0,0,1,1.9-.4,18.2,18.2,0,0,0,6.9,3.2,1.4,1.4,0,0,1,1.1,1.6A1.5,1.5,0,0,1,137.9,421.8Zm-46.2-.4-.8-.2a1.4,1.4,0,0,1-.3-1.9,83.4,83.4,0,0,1,5-6.7,1.4,1.4,0,1,1,2.1,1.8,75.8,75.8,0,0,0-4.9,6.4A1.3,1.3,0,0,1,91.7,421.4Zm54.1-1a1.3,1.3,0,0,1-1.2-.7,1.5,1.5,0,0,1,.6-1.9,24.4,24.4,0,0,0,6.1-4.7,1.3,1.3,0,0,1,1.9,1.9,27.7,27.7,0,0,1-6.7,5.3Zm-21.8-7a1.1,1.1,0,0,1-.8-.3,72.5,72.5,0,0,0-6.4-4.9,1.3,1.3,0,0,1-.4-1.9,1.4,1.4,0,0,1,1.9-.4c2.3,1.6,4.5,3.4,6.6,5.1a1.3,1.3,0,0,1,.2,1.9A1.6,1.6,0,0,1,124,413.4Zm-21.4-4.2a1.1,1.1,0,0,1-1.1-.6,1.3,1.3,0,0,1,.2-1.9,15.8,15.8,0,0,1,8.1-3.5,1.3,1.3,0,0,1,1.5,1.2,1.4,1.4,0,0,1-1.2,1.5,13.6,13.6,0,0,0-6.7,3Zm54.9-.1a1.1,1.1,0,0,1-.8-.3,1.2,1.2,0,0,1-.3-1.9,43.7,43.7,0,0,1,5.7-6.3,1.4,1.4,0,0,1,1.9.1,1.5,1.5,0,0,1-.1,2,37.3,37.3,0,0,0-5.3,5.8A1.4,1.4,0,0,1,157.5,409.1Zm29.8-.3a1.5,1.5,0,0,1-1.4-1.3,11.2,11.2,0,0,0-2.3-6.9,1.4,1.4,0,0,1,.3-1.9,1.4,1.4,0,0,1,1.9.2,14.3,14.3,0,0,1,2.9,8.5,1.5,1.5,0,0,1-1.3,1.4Zm-17.5-10.3a1.3,1.3,0,0,1-1.3-.8,1.4,1.4,0,0,1,.7-1.8,16.1,16.1,0,0,1,8.7-1.4,1.4,1.4,0,1,1-.3,2.7,13.8,13.8,0,0,0-7.3,1.2Z"/><path class="p" d="M249.3,512a19.9,19.9,0,0,1-8.3-2.1,1.4,1.4,0,0,1-.6-1.8,1.4,1.4,0,0,1,1.8-.7,17.3,17.3,0,0,0,7.1,1.8,1.6,1.6,0,0,1,1.5,1.4,1.4,1.4,0,0,1-1.2,1.4Zm7.4-3.4a1.6,1.6,0,0,1-.9-.3,1.4,1.4,0,0,1-.1-1.9,17.5,17.5,0,0,0,3.4-6.4v-.3a1.5,1.5,0,0,1,1.7-1,1.4,1.4,0,0,1,1,1.7v.4a20.6,20.6,0,0,1-3.9,7.4A1.5,1.5,0,0,1,256.7,508.6Zm-22.1-2.8a1.1,1.1,0,0,1-.8-.2,69.2,69.2,0,0,1-6.5-5.4,1.5,1.5,0,0,1,0-2,1.4,1.4,0,0,1,1.9,0,55.2,55.2,0,0,0,6.2,5.2,1.4,1.4,0,0,1,.3,1.9A1.6,1.6,0,0,1,234.6,505.8Zm26.7-12.5A1.3,1.3,0,0,1,260,492a32.3,32.3,0,0,0-1.6-7.6,1.4,1.4,0,0,1,.9-1.7,1.3,1.3,0,0,1,1.7.8,33.9,33.9,0,0,1,1.7,8.4,1.3,1.3,0,0,1-1.3,1.4Zm-4.8-15.5a1.3,1.3,0,0,1-1.2-.8c-1.1-2.1-2.4-4.3-4-7a1.4,1.4,0,0,1,.4-1.9,1.4,1.4,0,0,1,1.9.5c1.7,2.7,3,5,4.1,7.2a1.3,1.3,0,0,1-.6,1.8Zm43.6-5.2a10.2,10.2,0,0,1-5.9-2,1.4,1.4,0,0,1-.3-1.9,1.3,1.3,0,0,1,1.9-.3,7,7,0,0,0,6.5,1,1.3,1.3,0,0,1,1.7.8,1.2,1.2,0,0,1-.7,1.7A7.1,7.1,0,0,1,300.1,472.6Zm7.8-6.6h-.4a1.3,1.3,0,0,1-.8-1.7l.6-2.1c0-.3.1-.6.1-1a8.5,8.5,0,0,0-1.1-3.7,1.4,1.4,0,0,1,.6-1.9,1.4,1.4,0,0,1,1.8.6,11.5,11.5,0,0,1,1.4,5,7.8,7.8,0,0,1-.2,1.6,13.7,13.7,0,0,1-.7,2.4A1.4,1.4,0,0,1,307.9,466Zm-17-2a1.3,1.3,0,0,1-1.3-1.3v-.2c0-2.8,2-5.5,4-7.8a1.4,1.4,0,0,1,2-.1,1.4,1.4,0,0,1,.1,1.9c-1.5,1.6-3.4,4.1-3.4,6a1.5,1.5,0,0,1-1.4,1.5Zm-42.8-.3a1.4,1.4,0,0,1-1.2-.6,74.9,74.9,0,0,1-4.2-7.2,1.3,1.3,0,0,1,.6-1.8,1.2,1.2,0,0,1,1.8.6c1.2,2.3,2.8,4.8,4.1,6.9a1.4,1.4,0,0,1-.4,1.9A1,1,0,0,1,248.1,463.7Zm54.5-12.1a1.3,1.3,0,0,1-1-.4l-.4-.4a1.4,1.4,0,0,1-1.8-.2,1.3,1.3,0,0,1-.2-1.7,35.1,35.1,0,0,0-3.6-2.9,1.4,1.4,0,1,1,1.6-2.2c1.4,1,2.7,2.1,3.9,3.1a35.7,35.7,0,0,0,3.4-4.3,1.4,1.4,0,0,1,1.9-.3,1.3,1.3,0,0,1,.4,1.9c-1.2,1.6-2.5,3.2-3.7,4.6l.5.5a1.3,1.3,0,0,1-.1,1.9A1.1,1.1,0,0,1,302.6,451.6Zm-61.4-2.7a1.3,1.3,0,0,1-1.3-1.2,5.3,5.3,0,0,1-.1-1.3,9.1,9.1,0,0,1,2.1-5.9,14.7,14.7,0,0,1,1-1.3,1.5,1.5,0,0,1,2,0,1.4,1.4,0,0,1,0,1.9l-.9,1.1a6.4,6.4,0,0,0-1.5,4.2c0,.4.1.7.1,1a1.3,1.3,0,0,1-1.2,1.5Zm48.3-7.1-.7-.2q-3.4-2-7.2-3.6a1.4,1.4,0,0,1,1.1-2.5c2.5,1.1,5,2.3,7.5,3.7a1.4,1.4,0,0,1,.5,1.9A1.5,1.5,0,0,1,289.5,441.8Zm19.4-4.5h-.2a1.4,1.4,0,0,1-1.2-1.5,5.3,5.3,0,0,0,.1-1.3,10.9,10.9,0,0,0-1.4-5.1l-.3-.5a1.4,1.4,0,0,1,.4-1.9,1.3,1.3,0,0,1,1.9.5l.3.6a12.7,12.7,0,0,1,1.8,6.4,9.7,9.7,0,0,1-.1,1.7A1.3,1.3,0,0,1,308.9,437.3Zm-58.5-.7a1.3,1.3,0,0,1-1.2-.8,1.4,1.4,0,0,1,.6-1.8,27.2,27.2,0,0,1,8.2-2.6,1.3,1.3,0,0,1,1.5,1.2,1.3,1.3,0,0,1-1.1,1.5,24.6,24.6,0,0,0-7.4,2.3Zm24-1.1h-.3a47,47,0,0,0-7.9-1.4,1.4,1.4,0,0,1-1.2-1.5,1.4,1.4,0,0,1,1.5-1.3,52.6,52.6,0,0,1,8.3,1.6,1.4,1.4,0,0,1-.4,2.7Zm27.5-12.3a1.3,1.3,0,0,1-1-.4c-1.9-1.9-4.1-3.8-6-5.5a1.3,1.3,0,0,1-.1-1.9,1.4,1.4,0,0,1,1.9-.1c1.9,1.6,4.1,3.6,6.1,5.6a1.2,1.2,0,0,1,0,1.9A1.1,1.1,0,0,1,301.9,423.2Zm-12.3-10.9a1.2,1.2,0,0,1-.9-.3c-2.6-2.2-4.5-4.1-6.1-5.7a1.4,1.4,0,0,1,.1-2,1.3,1.3,0,0,1,1.9.1c1.5,1.6,3.4,3.4,5.9,5.6a1.4,1.4,0,0,1,.1,1.9A1.4,1.4,0,0,1,289.6,412.3Zm-10.8-12.2a1.3,1.3,0,0,1-1.2-.8,15.5,15.5,0,0,1-1.7-6.8,12.1,12.1,0,0,1,.1-1.9,1.4,1.4,0,0,1,1.6-1.2,1.4,1.4,0,0,1,1.1,1.6c0,.5-.1,1-.1,1.5a12.9,12.9,0,0,0,1.4,5.6,1.2,1.2,0,0,1-.6,1.8Zm30.5-9.4-1.7-.2a1.4,1.4,0,0,1-1.1-1.6,1.6,1.6,0,0,1,1.7-1.1,6.5,6.5,0,0,0,4.6-.9,1.4,1.4,0,0,1,1.5,2.3A9.4,9.4,0,0,1,309.3,390.7Zm-8.4-4.3a1.6,1.6,0,0,1-.9-.3l-1.8-1.6c-1.5-1.3-2.9-2.6-4.3-3.6a1.3,1.3,0,0,1-.4-1.9,1.4,1.4,0,0,1,1.9-.4,42.2,42.2,0,0,1,4.7,3.9l1.7,1.5a1.3,1.3,0,0,1,.1,1.9A1.2,1.2,0,0,1,300.9,386.4Zm-20.1-1.6a1.6,1.6,0,0,1-.9-.3,1.3,1.3,0,0,1-.2-1.9c2.3-3,4.5-4.8,6.8-5.7a1.3,1.3,0,0,1,1.7.8,1.4,1.4,0,0,1-.8,1.8c-1.8.6-3.6,2.2-5.5,4.8A1.6,1.6,0,0,1,280.8,384.8Z"/><path class="o" d="M477.4,551a1.6,1.6,0,0,1-1.3-.8,1.4,1.4,0,0,1,.7-1.8,19.5,19.5,0,0,0,6.1-4.6,1.4,1.4,0,0,1,2,1.9,23.1,23.1,0,0,1-6.9,5.2Zm-7.9-.1h-.6a21.3,21.3,0,0,1-6.6-5.8,1.4,1.4,0,0,1,.3-1.9,1.3,1.3,0,0,1,1.9.2,16.7,16.7,0,0,0,5.6,5,1.4,1.4,0,0,1-.6,2.6Zm-59.9-10.8h-.5a13.4,13.4,0,0,1-6.8-5.9,1.3,1.3,0,0,1,.6-1.8,1.2,1.2,0,0,1,1.8.5,10.9,10.9,0,0,0,5.3,4.7,1.3,1.3,0,0,1-.4,2.6Zm7.9-.7a1.2,1.2,0,0,1-1.2-.7,1.4,1.4,0,0,1,.6-1.9,31.8,31.8,0,0,0,6.3-4.5,1.4,1.4,0,0,1,2,.1,1.3,1.3,0,0,1-.2,1.9,32,32,0,0,1-6.9,5Zm41.4-.7a1.3,1.3,0,0,1-1.2-.6c-1.3-2.1-2.5-4.5-4-7.3a1.5,1.5,0,0,1,.7-1.9,1.5,1.5,0,0,1,1.8.6c1.4,2.8,2.6,5.1,3.8,7.2a1.2,1.2,0,0,1-.5,1.8A.7.7,0,0,1,458.9,538.7Zm-28.7-9.5a1.6,1.6,0,0,1-1-.5,1.4,1.4,0,0,1,.1-1.9c2-1.7,4.2-3.7,6.5-5.3a1.4,1.4,0,0,1,1.9.3,1.4,1.4,0,0,1-.3,1.9,64.9,64.9,0,0,0-6.2,5.1A1.3,1.3,0,0,1,430.2,529.2ZM402.9,527l-.7-.2a1.5,1.5,0,0,1-.5-1.9c.9-1.5,2.9-3.4,7.2-3.4H410a1.4,1.4,0,0,1,1.4,1.4,1.3,1.3,0,0,1-1.2,1.4v-1.4l-.2,1.4h-1.1c-1.6,0-3.8.4-4.8,2.1A1.3,1.3,0,0,1,402.9,527Zm48.1-2.6a1.4,1.4,0,0,1-1.1-.6c-1.7-2.2-3.6-3.2-5.8-3a1.3,1.3,0,0,1-1.4-1.3,1.3,1.3,0,0,1,1.2-1.4c3.1-.2,5.9,1.1,8.2,4a1.4,1.4,0,0,1-.2,2A1.6,1.6,0,0,1,451,524.4Zm-33.5-2.9-.6-.2a1.4,1.4,0,0,1-.6-1.8,3.2,3.2,0,0,0,.3-1.4,9.9,9.9,0,0,0-1.8-4.9,1.3,1.3,0,0,1,.4-1.9,1.4,1.4,0,0,1,1.9.4,12.8,12.8,0,0,1,2.3,6.4,6,6,0,0,1-.7,2.7A1.4,1.4,0,0,1,417.5,521.5Zm-6.8-14a1.4,1.4,0,0,1-1-.4c-1.7-1.7-3.7-3.6-5.9-5.5a1.4,1.4,0,0,1-.2-1.9,1.4,1.4,0,0,1,2-.1c2.3,1.9,4.3,3.8,6.1,5.6a1.4,1.4,0,0,1,0,1.9A1.3,1.3,0,0,1,410.7,507.5Zm-12.3-10.8a1.4,1.4,0,0,1-.9-.3c-3-2.7-4.7-4.9-5.4-6.9a1.4,1.4,0,0,1,.8-1.8,1.4,1.4,0,0,1,1.7.9c.6,1.5,2.1,3.4,4.7,5.8a1.3,1.3,0,0,1,.1,1.9A1.3,1.3,0,0,1,398.4,496.7ZM395.8,483a1.1,1.1,0,0,1-.8-.3,1.3,1.3,0,0,1-.2-1.9l1.8-2.2,3.5-4a1.4,1.4,0,0,1,1.9-.3,1.3,1.3,0,0,1,.2,1.9l-3.5,4.2-1.8,2.1A1.6,1.6,0,0,1,395.8,483Zm9.9-13-.7-.2a1.4,1.4,0,0,1-.5-1.9,44.8,44.8,0,0,0,3.2-6.6l.2-.6a1.3,1.3,0,0,1,1.7-.8,1.6,1.6,0,0,1,.9,1.8l-.3.6a64.7,64.7,0,0,1-3.3,7A1.5,1.5,0,0,1,405.7,470Zm4.9-15.4a1.5,1.5,0,0,1-1.4-1.4,12.5,12.5,0,0,0-2.1-7,1.3,1.3,0,0,1,.5-1.9,1.4,1.4,0,0,1,1.9.4,17.5,17.5,0,0,1,2.5,8.4,1.5,1.5,0,0,1-1.3,1.5Zm-55.4-11.9H355c-3.1-.3-5.5-2.1-7.2-5.5a1.3,1.3,0,0,1,.6-1.8,1.5,1.5,0,0,1,1.9.6c1.2,2.5,2.8,3.8,5,4a1.3,1.3,0,0,1,1.2,1.5A1.4,1.4,0,0,1,355.2,442.7Zm47.3-1.6-.7-.2a26.8,26.8,0,0,0-7.1-3.1,1.4,1.4,0,1,1,.7-2.7,30,30,0,0,1,7.9,3.5,1.4,1.4,0,0,1,.4,1.9A1.4,1.4,0,0,1,402.5,441.1Zm-39.5-.4a1.6,1.6,0,0,1-1.3-.8,1.4,1.4,0,0,1,.8-1.8,52.8,52.8,0,0,1,7.9-2.8,1.5,1.5,0,0,1,1.7,1,1.6,1.6,0,0,1-1,1.7,42.6,42.6,0,0,0-7.6,2.6Zm15.8-4.1a1.4,1.4,0,0,1-.1-2.8,59.1,59.1,0,0,1,8.4-.1,1.4,1.4,0,0,1,1.2,1.5,1.3,1.3,0,0,1-1.4,1.2,43,43,0,0,0-8,.2Zm-31.9-6.5a1.4,1.4,0,0,1-1.4-1.2,81,81,0,0,1-.7-8.3,1.4,1.4,0,1,1,2.7-.1c.2,3.2.4,5.8.7,8a1.4,1.4,0,0,1-1.1,1.6Zm-.9-16.4a1.3,1.3,0,0,1-1.4-1.3v-2.7c0-1.9-.1-3.7-.1-5.5a1.4,1.4,0,0,1,1.4-1.4,1.3,1.3,0,0,1,1.3,1.3c.1,1.8.1,3.7.1,5.6v2.6a1.3,1.3,0,0,1-1.3,1.4Zm-.5-16.4a1.3,1.3,0,0,1-1.3-1.3,41.9,41.9,0,0,0-1.3-7.8,1.4,1.4,0,0,1,.9-1.7,1.3,1.3,0,0,1,1.7,1,38.3,38.3,0,0,1,1.4,8.3,1.4,1.4,0,0,1-1.3,1.5Zm-28-9.2a1.4,1.4,0,0,1-.9-2.4,36,36,0,0,1,7-4.9,1.3,1.3,0,0,1,1.8.5,1.4,1.4,0,0,1-.5,1.9,34.9,34.9,0,0,0-6.4,4.5A1.3,1.3,0,0,1,317.5,388.1Zm22.2-5.5a1.1,1.1,0,0,1-.8-.3,9.5,9.5,0,0,0-6.8-1.6,1.4,1.4,0,0,1-.3-2.7,12.1,12.1,0,0,1,8.7,2.1,1.4,1.4,0,0,1,.3,1.9A1.4,1.4,0,0,1,339.7,382.6Z"/></g><path class="q" d="M67.8,237.7S235.5,218,402.3,32.3l65.8,37.5S299.4,278.7,70.9,303.7Z"/><path class="r" d="M436.2,516.1l-33.1-16.3A25,25,0,0,1,392,489.1c-8.6-15.7-31.7-53-59.6-58.5-19.2-3.8-20.8,3.1-20.8,3.1-15.6-2.1-22.4,8.4-22.4,8.4s-64.5-36.8-73.3-37.5-8.8,8-5.6,11.9,66.1,45,66.1,45-5.8,27.1,3.4,37.7c4.5,5.2,17.3,15.3,26.8,22.5a48.7,48.7,0,0,0,24.3,9.8c12.2,1.4,30.5,3.4,44.6,4.3a45.7,45.7,0,0,1,15.4,3.7l24.6,10.6Z"/><path class="s" d="M301.8,504a3.4,3.4,0,0,1-1.7-.5c-.5-.4-11.8-9.1-13.6-24.5-1.4-12.2-5.7-14.9-26.3-28.2-11.4-7.3-27-17.4-49.4-33.8a2.7,2.7,0,0,1-.6-3.8,2.7,2.7,0,0,1,3.8-.6c22.3,16.3,37.8,26.3,49.2,33.6,21.3,13.7,27,17.4,28.7,32.1s11.4,20.7,11.5,20.8a2.7,2.7,0,0,1,.5,3.8A2.4,2.4,0,0,1,301.8,504Z"/><path class="s" d="M317.1,453a3.3,3.3,0,0,1-1.6-.5c-14.1-10.6-21.9-7.9-22-7.9a2.7,2.7,0,0,1-2-5.1c1-.4,10.7-3.8,27.3,8.6a2.7,2.7,0,0,1,.5,3.8A2.7,2.7,0,0,1,317.1,453Z"/><path class="s" d="M327.7,443.9a2.8,2.8,0,0,1-2-.9c-6.8-7.3-10.1-6.6-10.2-6.6l-.8-2.6-1.1-2.5c1-.5,6.6-2.2,16.1,8a2.7,2.7,0,0,1-.1,3.9A2.6,2.6,0,0,1,327.7,443.9Z"/><path class="s" d="M290.8,509.3s34.6,21.3,67,13.3,62.6,18.8,62.6,18.8l-4.9,8.7L389.8,539a40.5,40.5,0,0,0-13.3-3.2c-14-1-45.1-3.3-54-6C307.5,525.4,290.8,509.3,290.8,509.3Z"/><path class="o" d="M420.7,504.9l-19.9,41.2s92.7,84.3,71.8,179.1c0,0,90.8,29.9,154.6-73.4C627.2,651.8,547.8,514.5,420.7,504.9Z"/><path class="p" d="M417.7,523.9s8.2-18.7,2.4-22.5-9.7-.3-14.4,13.5-18.4,28-8.2,31.8S417.7,523.9,417.7,523.9Z"/><path class="p" d="M412.1,535.2S549.7,664,518.8,719.1l-48.6,9.7s33.1-81.9-69.4-182.7Z"/><path class="t" d="M400,66A334,334,0,0,1,636.2,636.2,334,334,0,0,1,163.8,163.8,331.8,331.8,0,0,1,400,66m0-41C192.9,25,25,192.9,25,400S192.9,775,400,775,775,607.1,775,400,607.1,25,400,25Z"/><rect class="h" x="342.6" y="198.4" width="97.1" height="12.57" rx="6.3" transform="translate(48.4 482.9) rotate(-66.7)"/><polygon class="m" points="437.5 257.8 461.7 201.5 413.3 169.4 380.5 245.4 437.5 257.8"/><rect class="l" x="548.4" y="144.3" width="61.4" height="282.8" transform="translate(87.5 704.4) rotate(-66.7)"/><rect class="m" x="713.6" y="328.9" width="29.9" height="42.25" transform="translate(118.8 880.6) rotate(-66.7)"/><rect class="h" x="727.5" y="355.7" width="47.8" height="8.15" rx="4.1" transform="matrix(0.4, -0.92, 0.92, 0.4, 123.53, 907.38)"/><path class="u" d="M237.7,209.4l13.2,26.1-9.1,4.6-3.4-4.1a18.9,18.9,0,0,1-3.4,6.6,17.4,17.4,0,0,1-6.7,5.4c-5.1,2.6-9.8,2.7-14,.2s-8.5-8-12.7-16.4-6-15.7-4.6-20.8,5.9-9.5,13.6-13.4a64.4,64.4,0,0,1,16.1-5.8l3.5,9.4-14.1,6.9c-3.2,1.6-4.9,3.5-5.2,5.8s1,6.1,3.7,11.5,4.8,8.2,6.6,9.5,4,1.4,6.5.1a22.3,22.3,0,0,0,5.9-4.3l-7.8-15.4Z"/><path class="u" d="M285.3,201.4l6.2,8.1c-3,3.6-7.5,7.2-13.5,10.9s-12.9,5.5-17.8,3.9-9.9-6.6-14.9-14.9-7.2-14.9-6.3-20,4.7-9.8,11.6-14a59.1,59.1,0,0,1,14.7-6.8l4.4,9.2-12.9,7.6c-2.6,1.6-3.9,3.5-3.7,5.8s1.6,5.8,4.6,10.7,5.4,7.9,7.3,9,4.2,1,6.9-.6C277.9,206.6,282.4,203.6,285.3,201.4Z"/><path class="u" d="M304.4,180l-10.6,2.6c-4.2,1-7.7,1-10.4,0s-5.1-2.9-7.3-6c-3.3-4.7-4.4-8.6-3.2-11.9s4.9-7.1,11-11.4,11-6.9,15.7-8.4l4.6,7.9-14,9.7a13.4,13.4,0,0,0-3.6,3.2c-.4.8-.2,1.7.5,2.8a3.5,3.5,0,0,0,2.4,1.5,12.9,12.9,0,0,0,4.2-.6l9.7-2.5c4.3-1,7.8-1.1,10.5-.1s5.2,3,7.4,6.1c3.4,4.7,4.5,8.8,3.4,12.2s-4.7,7.3-10.9,11.7a77.8,77.8,0,0,1-16.5,8.9l-5-8.4,14.7-10c2-1.4,3.3-2.5,3.7-3.3a2.7,2.7,0,0,0-.5-2.8,3.2,3.2,0,0,0-2.2-1.6A8.4,8.4,0,0,0,304.4,180Z"/><path class="u" d="M357.6,148.4l6.8,7.3c-3.4,3.5-9.8,9-19.1,16.5a11.8,11.8,0,0,1-8.4,3,10.6,10.6,0,0,1-7.5-4.1l-18.6-23a10.4,10.4,0,0,1-2.5-8.1,11.9,11.9,0,0,1,4.6-7.6c9.4-7.6,16.1-12.7,20.2-15.3l5.7,8.2-14.8,12c-1.7,1.3-1.8,2.8-.5,4.5l3.9,4.8,15.2-12.3,6,7.4L333.4,154l4.9,6c1.3,1.6,2.8,1.8,4.4.4Z"/></svg>