<?xml version="1.0" encoding="UTF-8"?>
<svg version="1.1" xmlns="http://www.w3.org/2000/svg" width="1334" height="751">
<path d="M0 0 C440.22 0 880.44 0 1334 0 C1334 247.83 1334 495.66 1334 751 C893.78 751 453.56 751 0 751 C0 503.17 0 255.34 0 0 Z " fill="#FEFEFE" transform="translate(0,0)"/>
<path d="M0 0 C13.1178063 9.98519584 23.20937582 24.50028199 26 41 C26.35552541 44.99712639 26.50453954 48.98967054 26.625 53 C26.66367188 54.06089844 26.70234375 55.12179687 26.7421875 56.21484375 C26.83569694 58.80973067 26.92144902 61.40462449 27 64 C28.16015625 64.52787109 28.16015625 64.52787109 29.34375 65.06640625 C43.00478416 71.5418717 51.94873843 80.38317868 57.5 94.75 C61.47808094 108.25779485 59.54339424 122.91827347 52.875 135.1875 C45.61356207 146.7186033 35.11105941 155.17284691 21.69496346 158.58650494 C18.50091134 159.07657644 15.44112007 159.13563919 12.20870972 159.14717102 C11.53841268 159.15084771 10.86811564 159.1545244 10.17750657 159.1583125 C7.93847957 159.16929776 5.69949907 159.17318438 3.46044922 159.17700195 C1.85196283 159.18327056 0.24347789 159.18991771 -1.36500549 159.19691467 C-6.64176432 159.21791232 -11.91852329 159.22831387 -17.1953125 159.23828125 C-19.01557302 159.24233058 -20.83583338 159.24644756 -22.6560936 159.25063133 C-31.21028461 159.26967452 -39.76446704 159.2839067 -48.31867516 159.2922433 C-58.17526478 159.30200912 -68.03162945 159.32831518 -77.88813984 159.36874419 C-85.51807532 159.39896046 -93.14794651 159.41371744 -100.77794063 159.41702431 C-105.32955157 159.41936872 -109.88092195 159.42824942 -114.43246841 159.45348549 C-118.71877697 159.47686759 -123.00468829 159.48095901 -127.29104424 159.47072411 C-128.85707233 159.47023107 -130.42312067 159.47648239 -131.98908806 159.49028015 C-147.49087836 159.61913409 -159.95263811 155.61813355 -171.625 145.125 C-181.76133506 134.53776036 -185.30943215 121.82484309 -185.14453125 107.5234375 C-184.63267316 95.0451672 -179.91077293 84.13902655 -171.26953125 75.03515625 C-164.23250634 68.72484648 -156.00824254 64.13363067 -146.6875 62.375 C-143.91374457 61.30695551 -143.91374457 61.30695551 -143.17578125 59.19140625 C-142.70886061 57.63410446 -142.26079299 56.07106998 -141.828125 54.50390625 C-138.58820134 44.70772197 -130.76632533 37.20526788 -121.8125 32.625 C-115.91845458 29.7952529 -111.80133825 28.87198662 -105.25 28.9375 C-103.49429687 28.95103516 -103.49429687 28.95103516 -101.703125 28.96484375 C-100.81109375 28.97644531 -99.9190625 28.98804688 -99 29 C-98.74347656 28.12988281 -98.48695312 27.25976562 -98.22265625 26.36328125 C-92.87663703 11.65745841 -80.56073991 0.97018994 -67 -6 C-44.26652601 -15.89728418 -20.65007409 -13.80578165 0 0 Z " fill="#FEC000" transform="translate(1169,245)"/>
<path d="M0 0 C0.65719294 -0.00367669 1.31438588 -0.00735338 1.99149376 -0.01114148 C4.19779267 -0.02217129 6.40404447 -0.02602089 8.61036682 -0.02983093 C10.1905075 -0.03609594 11.77064671 -0.04274277 13.3507843 -0.04974365 C17.64618766 -0.06714559 21.9415799 -0.07770245 26.23700976 -0.08594918 C28.91939217 -0.09109934 31.60177111 -0.09717495 34.28415108 -0.10346031 C42.67334822 -0.12250715 51.06253657 -0.13674134 59.45175117 -0.14507228 C69.14260083 -0.15485444 78.83322266 -0.1812015 88.523992 -0.22157317 C96.01110387 -0.25169697 103.49815027 -0.26653745 110.98532158 -0.26985329 C115.4590513 -0.27220736 119.93253748 -0.28121431 124.40620232 -0.30631447 C128.61284984 -0.32953611 132.81909243 -0.33385248 137.02578735 -0.32355309 C138.57056586 -0.32305623 140.11536392 -0.32942078 141.66008186 -0.34310913 C143.7675294 -0.3607411 145.87350978 -0.3537671 147.98095703 -0.34057617 C149.16064277 -0.34296453 150.3403285 -0.34535288 151.55576229 -0.34781361 C155.18942568 0.25208056 156.40613497 1.19324877 158.55397034 4.14717102 C158.51675665 7.09043509 158.20264157 9.30860797 157.55397034 12.14717102 C157.32628967 13.15167297 157.09860901 14.15617493 156.86402893 15.19111633 C156.02616362 18.72808661 155.13987766 22.25011295 154.24147034 25.77217102 C153.79771057 27.54527649 153.79771057 27.54527649 153.34498596 29.35420227 C151.84538062 35.29432366 150.26883612 41.20071456 148.56178284 47.08467102 C146.60579781 53.85236976 144.89988175 60.66771666 143.23277283 67.51152039 C140.58727793 78.33818238 137.82828824 89.12400635 134.74147034 99.83467102 C134.46391907 100.81290833 134.1863678 101.79114563 133.90040588 102.79902649 C130.37419089 114.801658 130.37419089 114.801658 124.00794029 118.29624939 C118.29742159 120.27638932 111.93668498 119.69897259 105.95167542 119.66474915 C104.36108765 119.67017393 102.77050491 119.67729859 101.17993164 119.68598938 C96.87430373 119.70417898 92.56906044 119.69717456 88.26342607 119.68447304 C83.75428135 119.67432799 79.24516899 119.6837424 74.73602295 119.6900177 C67.16787312 119.69728748 59.59987962 119.68772165 52.03175354 119.6686554 C43.28094637 119.6468643 34.53051168 119.65395685 25.77971345 119.67596102 C18.26276675 119.69410598 10.74593223 119.69667849 3.22897071 119.68620634 C-1.2591906 119.67996945 -5.74717671 119.67914158 -10.23532677 119.69235229 C-14.45193519 119.70389791 -18.66806238 119.69590905 -22.88461876 119.67277527 C-24.43260397 119.66748224 -25.98062962 119.66901214 -27.52859879 119.67782593 C-29.64027063 119.68874195 -31.75039598 119.675069 -33.86196899 119.65510559 C-35.6347662 119.65284344 -35.6347662 119.65284344 -37.44337749 119.65053558 C-41.07460817 119.04179613 -42.29430619 118.0965446 -44.44602966 115.14717102 C-44.40973854 107.42623363 -41.66015829 99.75741605 -39.69602966 92.33467102 C-39.32850626 90.93162271 -38.96140349 89.52846415 -38.5947113 88.12519836 C-37.8729467 85.36632563 -37.14837058 82.6082178 -36.42112732 79.8507843 C-35.62447897 76.82495671 -34.83459253 73.79761821 -34.05149841 70.76826477 C-31.49419851 60.90498944 -28.75133717 51.09984195 -25.96800232 41.29804993 C-24.22658136 35.11175 -22.65184179 28.92026964 -21.25852966 22.64717102 C-19.19922643 13.57681307 -17.37379346 6.54479743 -9.44602966 1.14717102 C-6.08499415 0.02682585 -3.5433955 0.01284026 0 0 Z " fill="#FEC001" transform="translate(930.4460296630859,498.8528289794922)"/>
<path d="M0 0 C0.75980164 -0.00807175 1.51960327 -0.01614349 2.3024292 -0.02445984 C3.91302205 -0.03830013 5.52364422 -0.04902254 7.13427734 -0.05688477 C9.5861861 -0.07405635 12.0367316 -0.11793509 14.48828125 -0.16210938 C16.0546776 -0.17224031 17.62108541 -0.18075516 19.1875 -0.1875 C19.91584045 -0.20500809 20.64418091 -0.22251617 21.39459229 -0.24055481 C27.76118969 -0.21370927 31.08452132 2.26275042 35.734375 6.30078125 C39.96842446 13.95463989 36.84176288 24.91549 35.44340515 33.13092041 C35.23726068 34.38494714 35.03111621 35.63897388 34.81872493 36.93100142 C34.25101229 40.3828755 33.67231559 43.83282757 33.09165967 47.28254461 C32.46554175 51.01424364 31.84974034 54.74764698 31.23257446 58.48083496 C30.02392347 65.78153065 28.80568193 73.08059419 27.58393892 80.37910917 C26.59110401 86.31123437 25.60176933 92.24393352 24.61490822 98.17705536 C24.40389234 99.44567899 24.40389234 99.44567899 24.18861351 100.73993139 C23.90281574 102.45823507 23.61702597 104.17654008 23.33124409 105.89484641 C20.65429679 121.98785945 17.96643883 138.07903538 15.27481786 154.16959974 C12.96643829 167.97070503 10.66743046 181.77334477 8.37524414 195.57714844 C5.7112084 211.62024372 3.04138227 227.66235762 0.3623212 243.70295119 C0.07663636 245.41355628 -0.20904104 247.12416261 -0.49471092 248.8347702 C-0.63525841 249.67635809 -0.7758059 250.51794599 -0.9206124 251.38503654 C-1.9098479 257.31095846 -2.89494641 263.23755951 -3.87844276 269.16443634 C-5.07693489 276.38625401 -6.28178739 283.60697607 -7.49478022 290.82637289 C-8.11328632 294.5085246 -8.72894494 298.19109163 -9.33686256 301.87500763 C-9.99613539 305.86952784 -10.66922433 309.86159607 -11.34370422 313.85357666 C-11.53340406 315.01631363 -11.7231039 316.1790506 -11.91855222 317.37702203 C-13.46275273 326.40099748 -14.94735897 332.78888448 -22.640625 338.23828125 C-27.95266585 340.00896153 -33.70071238 339.42419334 -39.26416016 339.42358398 C-41.50052024 339.42576651 -43.73638367 339.44392246 -45.97265625 339.46289062 C-47.40103999 339.46582565 -48.82942606 339.46780971 -50.2578125 339.46875 C-51.55315918 339.47285889 -52.84850586 339.47696777 -54.18310547 339.48120117 C-59.02127131 339.1412792 -61.66680844 338.07621643 -65.328125 334.92578125 C-68.19379179 331.59541174 -69.60939372 329.01572133 -69.68743885 324.5740034 C-68.91478007 317.15768326 -67.88016559 309.81941113 -66.6423645 302.46662903 C-66.43944916 301.23766031 -66.23653381 300.0086916 -66.02746952 298.74248141 C-65.46894194 295.36589531 -64.90612844 291.99007709 -64.34138703 288.6145283 C-63.73117697 284.96071412 -63.12657664 281.30597103 -62.52120972 277.65135193 C-61.3367432 270.5064345 -60.14699189 263.36240703 -58.95520224 256.21870784 C-57.98640117 250.41126296 -57.01932727 244.60353299 -56.05346298 238.79559898 C-55.84681338 237.553023 -55.84681338 237.553023 -55.63598903 236.28534448 C-55.35607663 234.60223466 -55.07616537 232.91912464 -54.79625522 231.23601445 C-52.17524536 215.47737872 -49.54791329 199.71980191 -46.91865061 183.96254136 C-44.51507192 169.55658826 -42.11949637 155.14931773 -39.72767748 140.74140791 C-37.26863116 125.92898431 -34.80417167 111.11747069 -32.33386791 96.30692023 C-30.94827733 87.99910924 -29.56482277 79.69095625 -28.18704605 71.38184547 C-27.01467381 64.31185535 -25.83718486 57.24274064 -24.65312637 50.17469791 C-24.04959288 46.57114825 -23.44838464 42.96725243 -22.85355377 39.3622551 C-22.20791966 35.44982166 -21.55092677 31.53934387 -20.89285278 27.62898254 C-20.70772601 26.49609906 -20.52259924 25.36321559 -20.33186257 24.1960023 C-17.47847669 7.41930894 -17.47847669 7.41930894 -12.578125 3.23828125 C-8.17776575 0.24229198 -5.20554915 0.05221495 0 0 Z " fill="#FE1F80" transform="translate(330.640625,189.76171875)"/>
<path d="M0 0 C0.84304687 -0.01675781 1.68609375 -0.03351563 2.5546875 -0.05078125 C8.13480499 0.73789797 11.72269479 4.65396621 15.57421875 8.49609375 C16.0729097 8.99287125 16.57160065 9.48964874 17.08540344 10.0014801 C18.13239229 11.0471147 19.1768868 12.09525224 20.21899414 13.14575195 C21.81113581 14.74862662 23.41369731 16.34052214 25.01757812 17.93164062 C26.03710039 18.95248418 27.05600225 19.97394779 28.07421875 20.99609375 C29.45613403 22.38139282 29.45613403 22.38139282 30.8659668 23.79467773 C34.54724737 27.89767639 35.33930613 30.57919215 35.5859375 36.1171875 C34.40629228 41.7354978 29.74977085 45.91805671 25.78979492 49.79541016 C25.27066528 50.30680038 24.75153564 50.81819061 24.2166748 51.34507751 C23.09863889 52.44557002 21.97838826 53.54381626 20.8561306 54.6400032 C19.0817379 56.3747633 17.31514843 58.11712511 15.5506134 59.86190796 C10.53637073 64.81827285 5.51228991 69.76449307 0.47387695 74.69628906 C-2.61468455 77.72056284 -5.69105898 80.75678439 -8.75998497 83.8009758 C-9.93120435 84.95791088 -11.10708328 86.11014815 -12.28760719 87.25758743 C-13.9321719 88.85664859 -15.56086157 90.47038137 -17.18676758 92.08837891 C-18.11846268 93.00293854 -19.05015778 93.91749817 -20.01008606 94.85977173 C-22.04848574 97.06442599 -22.04848574 97.06442599 -21.98294067 99.30477905 C-20.38187988 102.20609261 -18.1901352 104.37201061 -15.83618164 106.66015625 C-15.31255539 107.181008 -14.78892914 107.70185974 -14.24943542 108.23849487 C-12.51805856 109.9575927 -10.77653154 111.66603626 -9.03515625 113.375 C-7.8298875 114.56959141 -6.62542541 115.7649972 -5.42173767 116.96118164 C-2.25089502 120.10923285 0.92796297 123.2490486 4.10943604 126.38635254 C9.19973219 131.40649586 14.28260869 136.43404889 19.35635567 141.47091675 C21.13016195 143.22802699 22.91026853 144.97857286 24.69090271 146.72875977 C25.7797941 147.80718868 26.86843569 148.8858699 27.95678711 149.96484375 C28.45296539 150.44911835 28.94914368 150.93339294 29.46035767 151.43234253 C33.12302797 155.08226333 34.95895554 157.51921981 35.4375 162.6875 C34.86526927 169.32537652 31.56702567 173.25195497 26.9765625 177.859375 C26.48215668 178.356651 25.98775085 178.853927 25.47836304 179.36627197 C24.4381506 180.40851372 23.39418877 181.44702563 22.34667969 182.48193359 C20.75092658 184.06158277 19.17186313 185.65665555 17.59375 187.25390625 C16.57648158 188.2691927 15.55828318 189.28354839 14.5390625 190.296875 C13.6207666 191.21178711 12.7024707 192.12669922 11.75634766 193.06933594 C7.4446259 196.74498072 3.90807686 197.51942466 -1.71484375 197.7734375 C-8.40345429 196.34621138 -13.50303227 189.98058525 -18.12768555 185.3503418 C-19.336091 184.15201218 -19.336091 184.15201218 -20.56890869 182.92947388 C-23.22182641 180.29550478 -25.86718311 177.65410174 -28.51171875 175.01171875 C-30.35668951 173.17317661 -32.2018099 171.33478462 -34.04707336 169.49653625 C-37.91010839 165.64626536 -41.76824584 161.7911312 -45.62426758 157.93383789 C-50.0731575 153.4837457 -54.53309127 149.04493954 -58.99833268 144.61126012 C-63.30532616 140.3336218 -67.60115029 136.04493 -71.89289284 131.75199318 C-73.71531551 129.93192937 -75.54097938 128.11510493 -77.3699398 126.30161095 C-79.92640036 123.76475779 -82.46986225 121.21552988 -85.01049805 118.6628418 C-85.76639725 117.91818161 -86.52229645 117.17352142 -87.30110168 116.40629578 C-92.5654183 111.07832903 -96.29962604 106.13986622 -96.3125 98.3125 C-96.33183594 97.52875 -96.35117188 96.745 -96.37109375 95.9375 C-94.92166105 88.26806083 -89.0800102 83.09706802 -83.75756836 77.83862305 C-82.53497063 76.61295876 -82.53497063 76.61295876 -81.28767395 75.36253357 C-78.60392385 72.67578635 -75.90961417 69.99990892 -73.21484375 67.32421875 C-71.34386375 65.45629775 -69.47347515 63.5877842 -67.60365295 61.71870422 C-63.69056189 57.80929603 -59.77189539 53.90555153 -55.84936523 50.00561523 C-50.81600661 45.00119017 -45.79200151 39.98748233 -40.77086544 34.97079754 C-36.91216459 31.11564907 -33.05004137 27.26393879 -29.18716621 23.4129734 C-27.3330994 21.56461083 -25.47950482 19.71577445 -23.62638664 17.8664608 C-21.04120994 15.28814035 -18.45267966 12.71323826 -15.86303711 10.1394043 C-14.71044907 8.98849304 -14.71044907 8.98849304 -13.53457642 7.81433105 C-12.82944412 7.11490891 -12.12431183 6.41548676 -11.39781189 5.69487 C-10.78632766 5.08636043 -10.17484343 4.47785086 -9.54482937 3.8509016 C-6.33533547 0.89401831 -4.27666357 0.01949847 0 0 Z " fill="#FE1E80" transform="translate(212.875,260.6875)"/>
<path d="M0 0 C2.32097512 2.08275507 4.50841779 4.2501615 6.68434525 6.48410797 C7.93729889 7.72830002 7.93729889 7.72830002 9.21556473 8.99762726 C11.96156798 11.73324572 14.6816698 14.49312168 17.4016304 17.25461578 C19.30661624 19.16863194 21.21641254 21.07782316 23.12590408 22.98734283 C27.12022651 26.98721799 31.10097592 31.00019777 35.07301712 35.02219391 C39.65765769 39.66432499 44.2594084 44.28889986 48.87159383 48.90365481 C53.79460216 53.82959288 58.70608046 58.76689816 63.61361742 63.70824528 C65.02319853 65.12616362 66.43496752 66.54190583 67.84674072 67.9576416 C70.48003889 70.60215901 73.10311984 73.25639437 75.72340775 75.91379547 C76.50264603 76.69324524 77.28188431 77.47269501 78.08473587 78.27576447 C82.32968243 82.60528577 86.14406228 86.56623397 87.2141304 92.76633453 C87.20639603 93.4688736 87.19866165 94.17141266 87.1906929 94.89524078 C87.19842728 95.59520172 87.20616165 96.29516266 87.2141304 97.01633453 C85.90217857 105.05525509 81.25808225 109.58596074 75.65993118 115.11521149 C74.41311066 116.37013649 74.41311066 116.37013649 73.14110184 117.65041351 C70.8715211 119.9303217 68.59326557 122.20107823 66.31026697 124.46753716 C63.91732793 126.8465703 61.53461302 129.23580672 59.15037918 131.62355804 C55.14751828 135.62911591 51.13666962 139.62653568 47.12086868 143.61911774 C42.48252038 148.23083229 37.8567581 152.85488206 33.23758137 157.48579341 C28.78566312 161.94849943 24.32529464 166.40266477 19.86091614 170.85290337 C17.96438034 172.74369078 16.07078303 174.63735025 14.17949677 176.53338814 C11.5370216 179.17877 8.88506048 181.81425447 6.23024368 184.44724274 C5.44876968 185.23321838 4.66729568 186.01919403 3.86214066 186.82898712 C3.13598557 187.54523758 2.40983047 188.26148804 1.66167068 188.99944305 C1.03598253 189.62270131 0.41029438 190.24595957 -0.23435402 190.88810444 C-4.54073824 194.35457615 -8.75428502 195.02932206 -14.1843071 194.45774078 C-20.26115952 190.86327949 -24.98549986 185.99404889 -29.9264946 181.03122711 C-31.43570709 179.51883785 -32.95781975 178.02031393 -34.4811821 176.52219391 C-35.4507419 175.55490598 -36.41951964 174.58683337 -37.3874321 173.61789703 C-38.26044968 172.74786041 -39.13346725 171.87782379 -40.03293991 170.98142242 C-43.65205536 166.73598479 -44.39535296 163.14958917 -44.6452446 157.61789703 C-43.45234737 152.02745496 -38.77965307 147.80739463 -34.86497116 143.91135406 C-34.34744781 143.39353867 -33.82992447 142.87572327 -33.2967186 142.34221649 C-31.60249187 140.64937164 -29.9013156 138.96370244 -28.1999321 137.27805328 C-27.0169387 136.09879408 -25.83438909 134.91908952 -24.65226364 133.73896027 C-21.55287354 130.64717461 -18.44752276 127.56144477 -15.34086227 124.47696686 C-12.16654265 121.32317457 -8.99793839 118.16365142 -5.82883835 115.00461578 C0.38044789 108.81672315 6.59604739 102.63522083 12.8156929 96.45774078 C11.22470586 92.56818792 8.72172764 90.13509171 5.75514603 87.20188141 C4.98411797 86.43523415 4.98411797 86.43523415 4.19751358 85.65309906 C3.0838838 84.54706398 1.96794993 83.44334501 0.8499794 82.34169769 C-0.91974066 80.59754828 -2.68309908 78.84718857 -4.44492722 77.09506989 C-8.18583153 73.3770033 -11.93449543 69.66682098 -15.6843071 65.95774078 C-20.03008433 61.65916857 -24.37261644 57.35742325 -28.70678329 53.04714203 C-30.44325504 51.32362644 -32.18564606 49.60625035 -33.92832565 47.8890152 C-34.99376598 46.83084093 -36.05892595 45.77238429 -37.12376022 44.71360016 C-38.0548259 43.79300812 -38.98589157 42.87241608 -39.94517136 41.92392731 C-43.1202164 38.42692927 -44.47659484 35.7973396 -44.5593071 31.08274078 C-44.58766647 30.35313141 -44.61602585 29.62352203 -44.6452446 28.87180328 C-43.5869705 23.32931689 -39.17988511 19.20389209 -35.30540085 15.34836578 C-34.38436569 14.42926422 -33.46333054 13.51016266 -32.51438522 12.56320953 C-32.03944626 12.09447418 -31.56450729 11.62573883 -31.07517624 11.14279938 C-29.61676681 9.702764 -28.16663649 8.25476805 -26.71751022 6.80539703 C-18.74674321 -1.11509885 -10.83716023 -7.6517218 0 0 Z " fill="#FE1E80" transform="translate(415.1843070983887,267.5422592163086)"/>
<path d="M0 0 C1.155 0.19464844 2.31 0.38929688 3.5 0.58984375 C19.84167061 3.72818731 40.61056462 8.9278688 51.3125 22.6875 C54.00715356 26.87918332 54.84182147 30.11743547 54 35 C48.92816472 46.13426339 37.99342139 51.87746698 27 56 C-10.82069414 69.43583674 -59.64308993 70.55345697 -96.72265625 53.72998047 C-104.55825025 49.94481722 -110.88433138 45.03404436 -116 38 C-117.6831558 32.9505326 -117.84475357 28.76296397 -115.5625 24 C-99.19950521 4.84332317 -73.35810221 0.31207803 -49.34814453 -1.77734375 C-32.93746827 -2.86867646 -16.23858988 -2.7822584 0 0 Z " fill="#1D105F" transform="translate(874,275)"/>
<path d="M0 0 C0.07432654 6.01397009 0.12868588 12.02767096 0.16479492 18.04199219 C0.17985288 20.08663594 0.20030357 22.13124755 0.22631836 24.17578125 C0.26283311 27.11987252 0.27975651 30.06353557 0.29296875 33.0078125 C0.30845261 33.9174173 0.32393646 34.82702209 0.33988953 35.76419067 C0.34164067 42.41377137 -1.05891034 47.37865938 -5.6875 52.375 C-28.68532101 74.12450505 -69.65962493 74.81825747 -99 74 C-120.65471685 73.04567174 -149.04487809 68.25856677 -165.26953125 52.84375 C-168.84083224 48.82876395 -171.12915662 46.20481538 -171.11352539 40.73388672 C-171.11344986 39.85312469 -171.11337433 38.97236267 -171.11329651 38.06491089 C-171.10813522 37.11278717 -171.10297394 36.16066345 -171.09765625 35.1796875 C-171.0962413 34.20589142 -171.09482635 33.23209534 -171.09336853 32.22879028 C-171.08775973 29.11082927 -171.07520573 25.9929394 -171.0625 22.875 C-171.05748613 20.76432395 -171.05292303 18.65364678 -171.04882812 16.54296875 C-171.03778745 11.36195479 -171.02104073 6.18098248 -171 1 C-167.41895094 2.75487782 -164.04774525 4.76433551 -160.625 6.8125 C-148.24423822 13.97690319 -134.94972669 17.38863812 -121 20 C-120.19175781 20.15243164 -119.38351562 20.30486328 -118.55078125 20.46191406 C-96.71421283 24.42986193 -75.30693139 23.65908227 -53.43310547 20.35839844 C-51.47216171 20.06954981 -49.50428285 19.82800096 -47.53515625 19.6015625 C-32.47866304 17.70102339 -12.22407976 0 0 0 Z " fill="#1E1160" transform="translate(928,326)"/>
<path d="M0 0 C2.96788873 1.46041439 5.75605408 3.0602051 8.5625 4.8125 C44.04753638 25.99070813 92.10228919 26.65259574 131.4375 17.1875 C143.21371164 13.98572876 154.14192259 9.96785806 164.546875 3.515625 C166.66044656 2.20978779 168.77253601 1.09194031 171 0 C171.14913643 5.95895621 171.25758709 11.916809 171.32958984 17.87719727 C171.35962704 19.90147849 171.40047018 21.92563104 171.45263672 23.94946289 C171.52603145 26.87158055 171.55958684 29.79196748 171.5859375 32.71484375 C171.61690521 33.60896469 171.64787292 34.50308563 171.67977905 35.42430115 C171.68346557 42.42184963 169.38317817 46.62236897 165 52 C163.17727238 53.82272762 160.28988353 53.15210361 157.83984375 53.17578125 C156.57076172 53.19962891 155.30167969 53.22347656 153.99414062 53.24804688 C151.31671244 53.29431542 148.64084331 53.32205767 145.96289062 53.34179688 C137.36608042 53.52821283 131.01725661 53.98274339 124.6875 60.3125 C122.81877896 63.04337231 122.81877896 63.04337231 121.8125 66.6875 C120 70 120 70 118.1640625 70.85546875 C115.77726234 71.41238879 113.43324874 71.70834737 111 72 C110.27997803 72.08870361 109.55995605 72.17740723 108.81811523 72.26879883 C75.87971754 75.92387548 36.24537324 73.87446135 8.32421875 54.10546875 C4.33401869 50.75720215 0.40219068 47.29286454 -0.26237488 41.85185242 C-0.34698357 39.1918707 -0.33695815 36.54769821 -0.29296875 33.88671875 C-0.28872391 32.91716751 -0.28447906 31.94761627 -0.28010559 30.94868469 C-0.263354 27.861337 -0.22570789 24.77464938 -0.1875 21.6875 C-0.17244863 19.59050424 -0.15876102 17.49349822 -0.14648438 15.39648438 C-0.11346192 10.26406977 -0.06170347 5.13214669 0 0 Z " fill="#1E1160" transform="translate(757,386)"/>
<path d="M0 0 C0.69451767 -0.00671722 1.38903534 -0.01343445 2.104599 -0.02035522 C4.40728863 -0.03939752 6.70968763 -0.04326285 9.01245117 -0.04541016 C10.61187358 -0.05183506 12.21129481 -0.05856318 13.81071472 -0.06558228 C17.16745731 -0.07757152 20.52409688 -0.08126155 23.88085938 -0.08007812 C28.17850765 -0.07987513 32.47549317 -0.10714882 36.7729845 -0.14162254 C40.07845582 -0.16388457 43.38376766 -0.16791585 46.68930626 -0.16685867 C48.27332526 -0.16921678 49.85734852 -0.17805222 51.44129372 -0.19352341 C53.66054928 -0.21316529 55.87837668 -0.20735341 58.09765625 -0.1953125 C59.99056145 -0.19958755 59.99056145 -0.19958755 61.92170715 -0.20394897 C66.52131257 0.48085989 68.91051854 2.55739869 71.69677734 6.18164062 C72.26682495 7.13659424 72.26682495 7.13659424 72.84838867 8.11083984 C73.27442383 8.81080078 73.70045898 9.51076172 74.1394043 10.23193359 C74.56543945 10.95251953 74.99147461 11.67310547 75.43041992 12.41552734 C76.2965943 13.85702521 77.16498835 15.29719229 78.03588867 16.73583984 C78.41253662 17.37021973 78.78918457 18.00459961 79.17724609 18.65820312 C80.27088362 20.45551893 80.27088362 20.45551893 82.24291992 22.29052734 C84.68589181 22.47635865 87.01596078 22.53934057 89.45898438 22.51416016 C90.57391266 22.51477196 90.57391266 22.51477196 91.71136475 22.51539612 C93.32812771 22.51559391 94.9448954 22.51154422 96.56163979 22.50379181 C99.12151397 22.49359133 101.68089934 22.49893274 104.24076843 22.50921631 C111.51981112 22.53723281 118.79858118 22.54968852 126.07763672 22.52050781 C130.52820943 22.50378177 134.97791036 22.51609071 139.42839622 22.54695892 C141.12403177 22.55306542 142.81974405 22.54818729 144.5153141 22.5320816 C146.89073911 22.51046636 149.26332506 22.52577961 151.63867188 22.54931641 C152.33756027 22.5339534 153.03644867 22.51859039 153.7565155 22.50276184 C157.50903809 22.58203967 159.2318421 23.28197742 162.21818542 25.58685303 C165.57537207 30.13487101 164.63305863 35.93262239 164.24291992 41.29052734 C163.16396706 41.29272718 163.16396706 41.29272718 162.06321716 41.29497147 C144.54371015 41.33205765 127.02441406 41.39109633 109.50506592 41.47443008 C101.03275239 41.51420325 92.56053152 41.54660446 84.08813477 41.56152344 C76.70174172 41.57454892 69.31555269 41.60153635 61.92927456 41.64514041 C58.01991809 41.66773524 54.11081306 41.68343923 50.2013855 41.68241119 C46.51748558 41.68166339 42.83414105 41.69966142 39.1503849 41.73169518 C37.16240415 41.74420161 35.17433004 41.73713947 33.18632507 41.72938538 C24.96544771 41.82490582 19.55484664 42.7951956 13.03588867 48.07958984 C8.53722263 53.2240498 6.81933173 57.71366948 5.24291992 64.29052734 C4.70249074 66.19218793 4.16152989 68.0937056 3.61425781 69.9934082 C0.761979 79.96461631 -1.72223434 90.02750135 -4.17016602 100.10449219 C-6.09112799 107.92778273 -8.30744116 115.61647237 -10.75708008 123.29052734 C-11.08708008 123.29052734 -11.41708008 123.29052734 -11.75708008 123.29052734 C-11.82718198 108.25239773 -11.88007403 93.21428079 -11.91251659 78.17602253 C-11.92798109 71.19338326 -11.94906252 64.21084556 -11.98339844 57.22827148 C-12.01650979 50.49150887 -12.03392649 43.75487365 -12.04171181 37.01802635 C-12.047261 34.44596888 -12.058097 31.87391728 -12.07427025 29.30190468 C-12.0960016 25.70333935 -12.09904873 22.10521203 -12.09765625 18.5065918 C-12.11383499 16.90652786 -12.11383499 16.90652786 -12.13034058 15.2741394 C-12.0909124 5.87680189 -10.25432519 0.06206568 0 0 Z " fill="#FEC003" transform="translate(897.757080078125,448.70947265625)"/>
<path d="M0 0 C0.70705078 0.46325684 1.41410156 0.92651367 2.14257812 1.40380859 C27.03402578 17.51424691 55.02508097 22.20530077 84.25341797 22.13037109 C86.75884975 22.12498096 89.26410468 22.13036104 91.76953125 22.13671875 C93.38281289 22.13605837 94.99609442 22.13477805 96.609375 22.1328125 C97.34806824 22.13483673 98.08676147 22.13686096 98.84783936 22.13894653 C102.15555018 22.12415169 105.23970795 21.96542865 108.52441406 21.49169922 C112 21 112 21 120 21 C120 37.17 120 53.34 120 70 C108.21445902 72.61900911 97.23274303 73.24066999 85.25 73.25 C84.47165802 73.25067474 83.69331604 73.25134949 82.89138794 73.25204468 C70.38866516 73.23485847 58.25768648 72.6679112 46 70 C45.22462891 69.83371094 44.44925781 69.66742187 43.65039062 69.49609375 C28.19665286 66.03343052 12.68963017 60.20361213 2 48 C0.24669535 45.05162974 -0.24668073 42.92244653 -0.22705078 39.50683594 C-0.22689972 38.62622498 -0.22674866 37.74561401 -0.22659302 36.83831787 C-0.21627045 35.89651672 -0.20594788 34.95471558 -0.1953125 33.984375 C-0.1924826 33.01340881 -0.18965271 32.04244263 -0.18673706 31.04205322 C-0.17555292 27.94457615 -0.15045142 24.8473895 -0.125 21.75 C-0.11496792 19.64844168 -0.10584247 17.54687882 -0.09765625 15.4453125 C-0.07561934 10.29676331 -0.04110145 5.14843087 0 0 Z " fill="#1D1060" transform="translate(757,445)"/>
<path d="M0 0 C4.40196962 1.16289146 6.09057096 4.01538369 8.53125 7.61328125 C9.57265121 9.0757099 10.6143301 10.53794085 11.65625 12 C12.20023438 12.77778809 12.74421875 13.55557617 13.3046875 14.35693359 C16.30409885 18.60242393 19.42919864 22.75505526 22.53125 26.92578125 C32.88466581 40.90033549 32.88466581 40.90033549 33.46875 44.48828125 C32.92502662 47.36224769 32.39535304 48.0912026 30.03125 49.80078125 C26.89453125 50.09375 26.89453125 50.09375 23.34375 49.98828125 C21.57451172 49.94767578 21.57451172 49.94767578 19.76953125 49.90625 C18.86589844 49.87144531 17.96226563 49.83664062 17.03125 49.80078125 C16.86689453 50.83525391 16.86689453 50.83525391 16.69921875 51.890625 C13.66669297 69.86388753 6.11216323 84.64476867 -8.90625 95.67578125 C-23.60128204 105.2435747 -40.09451591 108.95448688 -57.44140625 106.26171875 C-62.95869758 105.01742256 -67.76017914 103.66811664 -71.96875 99.80078125 C-73.03125 97.23828125 -73.03125 97.23828125 -72.96875 94.80078125 C-70.49828622 91.18233244 -66.74249169 90.83395385 -62.71875 89.98828125 C-48.77603636 86.73106788 -34.01471941 82.03058913 -24.96484375 70.17578125 C-21.62148276 64.76195333 -18.91672098 59.38645721 -18.34375 52.98828125 C-18.26898437 52.19808594 -18.19421875 51.40789062 -18.1171875 50.59375 C-18.06820313 50.00207031 -18.01921875 49.41039062 -17.96875 48.80078125 C-18.95617188 48.82398438 -19.94359375 48.8471875 -20.9609375 48.87109375 C-22.24226563 48.88914062 -23.52359375 48.9071875 -24.84375 48.92578125 C-26.11992188 48.94898438 -27.39609375 48.9721875 -28.7109375 48.99609375 C-31.96875 48.80078125 -31.96875 48.80078125 -33.96875 46.80078125 C-34.56872405 44.1228483 -34.36100511 42.45968697 -32.95166016 40.09228516 C-31.45130189 38.04848162 -29.88284795 36.07877568 -28.28125 34.11328125 C-27.08750894 32.6047092 -25.89617906 31.09422662 -24.70703125 29.58203125 C-24.09037598 28.80085938 -23.4737207 28.0196875 -22.83837891 27.21484375 C-19.21215928 22.53267351 -15.80198092 17.69337364 -12.37231445 12.86645508 C-10.91974396 10.8329492 -9.44568775 8.81661563 -7.96875 6.80078125 C-7.54851562 6.19024902 -7.12828125 5.5797168 -6.6953125 4.95068359 C-4.65416884 2.17255056 -3.36447763 0.90752357 0 0 Z " fill="#FE2081" transform="translate(1193.96875,451.19921875)"/>
<path d="M0 0 C8.26859296 7.15525204 18.96637106 16.92146852 19.96484375 28.453125 C19.6875 31.25 19.6875 31.25 17.6875 33.25 C11.83423516 33.25 8.22434229 30.94486854 3.359375 27.87109375 C-1.012844 25.21835854 -5.58579282 23.18458842 -10.3125 21.25 C-11.44365234 20.76660156 -11.44365234 20.76660156 -12.59765625 20.2734375 C-21.65466578 16.94890913 -34.56578421 16.13553634 -43.5625 20 C-45.53570639 21.0578094 -45.53570639 21.0578094 -47.3125 22.25 C-47.92738281 22.6315625 -48.54226563 23.013125 -49.17578125 23.40625 C-50.58279838 24.3119162 -51.95323977 25.27412086 -53.3125 26.25 C-52.37659496 27.3555189 -51.43870142 28.45935453 -50.5 29.5625 C-49.71689453 30.48482422 -49.71689453 30.48482422 -48.91796875 31.42578125 C-47.35517522 33.26669144 -47.35517522 33.26669144 -45.6015625 34.8203125 C-45.17617188 35.29210937 -44.75078125 35.76390625 -44.3125 36.25 C-44.55703124 39.59192692 -44.91793557 40.85543557 -47.3125 43.25 C-49.44116211 43.79663086 -49.44116211 43.79663086 -52.08984375 44.21484375 C-53.06937012 44.3737207 -54.04889648 44.53259766 -55.05810547 44.69628906 C-56.11143066 44.85838867 -57.16475586 45.02048828 -58.25 45.1875 C-59.32652832 45.35862305 -60.40305664 45.52974609 -61.51220703 45.70605469 C-63.71875844 46.05625954 -65.92579547 46.40341784 -68.13330078 46.74755859 C-71.0185182 47.20353905 -73.89821828 47.68302531 -76.77734375 48.17578125 C-92.62255439 50.86031314 -92.62255439 50.86031314 -100.3125 50.25 C-102.3125 48.25 -102.3125 48.25 -102.50146484 44.59863281 C-102.3974731 40.56983166 -101.90900909 36.65557766 -101.2890625 32.671875 C-101.18282562 31.97918518 -101.07658875 31.28649536 -100.96713257 30.57281494 C-100.62951965 28.38096594 -100.28360162 26.19052275 -99.9375 24 C-99.71300741 22.5482596 -99.48904538 21.09643705 -99.265625 19.64453125 C-98.83080927 16.82752542 -98.38823794 14.01192284 -97.93847656 11.19726562 C-97.5371649 8.66668569 -97.14743234 6.13422618 -96.77246094 3.59960938 C-96.6077832 2.52001953 -96.44310547 1.44042969 -96.2734375 0.328125 C-96.13470215 -0.6112793 -95.9959668 -1.55068359 -95.85302734 -2.51855469 C-95.3125 -4.75 -95.3125 -4.75 -93.3125 -6.75 C-90.6875 -7.375 -90.6875 -7.375 -87.3125 -6.75 C-84.36856271 -4.32495813 -81.82853854 -1.61087631 -79.3125 1.25 C-76.28194812 -0.18356988 -73.45496979 -1.87309945 -70.59570312 -3.61914062 C-49.27902865 -16.39046696 -20.01777434 -15.42711471 0 0 Z " fill="#FE2081" transform="translate(997.3125,193.75)"/>
<path d="M0 0 C4.75 0.75 4.75 0.75 7 3 C7.65087891 5.00854492 7.65087891 5.00854492 8.2265625 7.48046875 C12.06180351 23.14461947 16.41352573 38.88147877 30 49 C36.34562832 52.71921776 42.79791866 54.70126402 50 56 C49.97679687 54.94039062 49.95359375 53.88078125 49.9296875 52.7890625 C49.91093056 51.4010487 49.89273028 50.0130273 49.875 48.625 C49.85824219 47.92632813 49.84148438 47.22765625 49.82421875 46.5078125 C49.80655733 44.67102514 49.89696739 42.83398037 50 41 C52 39 52 39 54.36279297 38.70068359 C57.47584678 39.05400742 58.74153365 39.87331773 61.1953125 41.7890625 C61.98502441 42.39468018 62.77473633 43.00029785 63.58837891 43.62426758 C64.42546387 44.28450928 65.26254883 44.94475098 66.125 45.625 C67.90548886 46.99708201 69.68675989 48.36814955 71.46875 49.73828125 C72.37882813 50.44291504 73.28890625 51.14754883 74.2265625 51.87353516 C79.44499106 55.87463663 84.77109271 59.72976575 90.08251953 63.60595703 C90.83130371 64.15493652 91.58008789 64.70391602 92.3515625 65.26953125 C93.00979004 65.75010986 93.66801758 66.23068848 94.34619141 66.72583008 C96.86532209 68.66668379 97.9027046 69.55774816 98.6015625 72.734375 C97.67450296 77.76698392 94.41631689 79.41397304 90.375 82.25 C89.60534912 82.81283691 88.83569824 83.37567383 88.04272461 83.95556641 C85.7082026 85.65607124 83.35599858 87.32942854 81 89 C79.70077765 89.93865907 78.40252177 90.87865808 77.10546875 91.8203125 C74.80258637 93.48679823 72.48810943 95.13436348 70.16015625 96.765625 C68.12548399 98.20423135 66.11038131 99.67113703 64.12109375 101.171875 C62.82365234 102.13867188 62.82365234 102.13867188 61.5 103.125 C60.7678125 103.68445313 60.035625 104.24390625 59.28125 104.8203125 C56.36841986 106.3266048 54.23426175 106.28163515 51 106 C50 105 50 105 49.90234375 101.62109375 C49.90901631 100.22652923 49.92097468 98.83198257 49.9375 97.4375 C49.94201172 96.72658203 49.94652344 96.01566406 49.95117188 95.28320312 C49.96299136 93.52209987 49.98092737 91.76103964 50 90 C49.40574219 89.97421875 48.81148437 89.9484375 48.19921875 89.921875 C32.65134168 88.85794562 18.6187203 81.2358767 8 70 C-5.18329155 53.8870881 -8.39183499 37.35853548 -7 17 C-6.09525231 10.43074504 -4.92791757 4.75798937 0 0 Z " fill="#FE2081" transform="translate(740,541)"/>
<path d="M0 0 C4.08055596 1.63222238 6.88084207 3.11629845 10.4296875 5.5625 C11.46488525 6.27196777 12.50008301 6.98143555 13.56665039 7.71240234 C14.66945512 8.47490376 15.77223789 9.23743695 16.875 10 C18.57769287 11.16955175 20.28154105 12.33740708 21.98542786 13.50521851 C23.10901432 14.27550798 24.23221636 15.04635852 25.35502625 15.81777954 C29.56538303 18.70941011 33.802206 21.55766113 38.0625 24.375 C45.77514368 29.48601291 53.38897327 34.73929033 61 40 C58.17840518 43.00266631 55.32588463 45.23916249 51.84375 47.43359375 C50.83078857 48.07627197 49.81782715 48.7189502 48.77416992 49.38110352 C47.15345581 50.39901978 47.15345581 50.39901978 45.5 51.4375 C43.80634166 52.51002364 42.11268863 53.58255616 40.41972351 54.65617371 C39.27580859 55.38152724 38.13153003 56.10630762 36.9868927 56.83052063 C30.9130972 60.67713263 24.8978394 64.61255213 18.8984375 68.57397461 C12.70660558 72.63024804 6.42430511 76.25248868 0 80 C0 70.1 0 60.2 0 50 C-19.47 50 -38.94 50 -59 50 C-59 41.75 -59 33.5 -59 25 C-39.53 25 -20.06 25 0 25 C0 16.75 0 8.5 0 0 Z " fill="#FEC001" transform="translate(623,346)"/>
<path d="M0 0 C5.71428571 0.71428571 5.71428571 0.71428571 7 2 C7.4375 4.8125 7.4375 4.8125 7 8 C-0.01633296 14.4474411 -12.63807868 17.98555259 -22 18 C-23.83203125 16.72265625 -23.83203125 16.72265625 -25 15 C-25.1875 12 -25.1875 12 -24 9 C-21.25230615 7.62615308 -18.93101703 6.84042 -16 6 C-14.03681066 5.36689893 -12.0798879 4.71665283 -10.12353516 4.06274414 C-8.75672605 3.60665539 -7.38790493 3.15654972 -6.01708984 2.71264648 C-2.74832933 1.82731389 -2.74832933 1.82731389 0 0 Z " fill="#F6F6F8" transform="translate(906,357)"/>
<path d="M0 0 C2 2 2 2 2.125 5.125 C2.08375 6.07375 2.0425 7.0225 2 8 C-6.49826689 12.77782747 -17.02086784 17.8153465 -27 17 C-28.875 15.8125 -28.875 15.8125 -30 14 C-29.75546876 10.65807308 -29.39456443 9.39456443 -27 7 C-24.23386249 6.09818714 -21.48935093 5.27244011 -18.6875 4.5 C-1.88295374 -0.20356257 -1.88295374 -0.20356257 0 0 Z " fill="#F7F7F9" transform="translate(911,417)"/>
<path d="M0 0 C2.546875 0.1484375 2.546875 0.1484375 5.546875 2.1484375 C5.859375 5.1484375 5.859375 5.1484375 5.546875 8.1484375 C0.98357316 12.71173934 -7.0938841 11.36863225 -13.140625 11.3984375 C-14.19830078 11.4190625 -15.25597656 11.4396875 -16.34570312 11.4609375 C-17.35439453 11.46609375 -18.36308594 11.47125 -19.40234375 11.4765625 C-20.78425903 11.49058105 -20.78425903 11.49058105 -22.1940918 11.50488281 C-22.93957275 11.38725586 -23.68505371 11.26962891 -24.453125 11.1484375 C-26.453125 8.1484375 -26.453125 8.1484375 -26.203125 5.5859375 C-25.453125 3.1484375 -25.453125 3.1484375 -23.453125 1.1484375 C-21.48535156 0.82958984 -21.48535156 0.82958984 -19.09375 0.734375 C-18.22492187 0.69570313 -17.35609375 0.65703125 -16.4609375 0.6171875 C-15.55085937 0.58625 -14.64078125 0.5553125 -13.703125 0.5234375 C-12.80851563 0.48476563 -11.91390625 0.44609375 -10.9921875 0.40625 C-7.32843147 0.25494444 -3.66356118 0.1574834 0 0 Z " fill="#F5F4F8" transform="translate(863.453125,486.8515625)"/>
<path d="M0 0 C1.88927488 -0.04866185 3.78073367 0.01287139 5.66894531 0.09277344 C7.66894531 2.09277344 7.66894531 2.09277344 7.91894531 5.09277344 C7.66894531 8.09277344 7.66894531 8.09277344 5.66894531 10.09277344 C-17.44477098 13.85052486 -17.44477098 13.85052486 -23.24121094 9.73730469 C-24.33105469 8.09277344 -24.33105469 8.09277344 -24.14355469 5.53027344 C-23.33105469 3.09277344 -23.33105469 3.09277344 -21.33105469 1.09277344 C-19.48681641 0.77392578 -19.48681641 0.77392578 -17.26074219 0.67871094 C-16.44605469 0.64003906 -15.63136719 0.60136719 -14.79199219 0.56152344 C-13.93863281 0.53058594 -13.08527344 0.49964844 -12.20605469 0.46777344 C-11.37589844 0.42910156 -10.54574219 0.39042969 -9.69042969 0.35058594 C-6.46094209 0.20885294 -3.22995177 0.12854856 0 0 Z " fill="#F9F9FA" transform="translate(861.3310546875,427.9072265625)"/>
<path d="M0 0 C0.625 3.375 0.625 3.375 1 7 C-3.56330184 11.56330184 -11.6407591 10.22019475 -17.6875 10.25 C-18.74517578 10.270625 -19.80285156 10.29125 -20.89257812 10.3125 C-21.90126953 10.31765625 -22.90996094 10.3228125 -23.94921875 10.328125 C-25.33113403 10.34214355 -25.33113403 10.34214355 -26.7409668 10.35644531 C-27.48644775 10.23881836 -28.23192871 10.12119141 -29 10 C-31 7 -31 7 -30.6875 4.375 C-30 2 -30 2 -29 1 C-19.39084794 -0.27806456 -9.67093328 -0.11173094 0 0 Z " fill="#FAFAFB" transform="translate(868,369)"/>
</svg>
