<?xml version="1.0" encoding="UTF-8"?>
<svg version="1.1" xmlns="http://www.w3.org/2000/svg" width="1334" height="751">
<path d="M0 0 C440.22 0 880.44 0 1334 0 C1334 247.83 1334 495.66 1334 751 C893.78 751 453.56 751 0 751 C0 503.17 0 255.34 0 0 Z " fill="#FEFEFE" transform="translate(0,0)"/>
<path d="M0 0 C18.83005265 14.42137639 30.61867339 34.43667078 33.97680664 57.94360352 C47.34180664 58.43860352 47.34180664 58.43860352 60.97680664 58.94360352 C60.97680664 34.52360352 60.97680664 10.10360352 60.97680664 -15.05639648 C64.8563238 -13.50458962 66.890147 -12.57574871 69.98071289 -10.11499023 C70.71459229 -9.5363623 71.44847168 -8.95773437 72.20458984 -8.36157227 C72.97504639 -7.74523926 73.74550293 -7.12890625 74.53930664 -6.49389648 C76.16891103 -5.20797451 77.79911891 -3.92281695 79.42993164 -2.63842773 C80.2169043 -2.01661621 81.00387695 -1.39480469 81.81469727 -0.75415039 C84.44370885 1.3102293 87.10780147 3.32297467 89.78930664 5.31860352 C95.30024971 9.4231478 100.76481141 13.58667856 106.22680664 17.75610352 C113.0796253 22.98529782 119.94962469 28.18921679 126.85620117 33.34716797 C130.72801804 36.24342053 134.58080213 39.16323794 138.42211914 42.09985352 C139.36313477 42.81915039 140.30415039 43.53844727 141.27368164 44.27954102 C143.11609544 45.68934384 144.95730347 47.10072427 146.79711914 48.51391602 C147.64274414 49.16102539 148.48836914 49.80813477 149.35961914 50.47485352 C150.47941162 51.33433594 150.47941162 51.33433594 151.62182617 52.21118164 C152.39896973 52.78288086 153.17611328 53.35458008 153.97680664 53.94360352 C154.8649707 54.66257812 155.75313477 55.38155273 156.66821289 56.12231445 C161.06630597 58.54334267 164.58902027 58.54645503 169.53149414 58.55297852 C170.73140991 58.57642334 170.73140991 58.57642334 171.95556641 58.6003418 C174.92068189 58.65262272 177.88631526 58.67115329 180.85180664 58.69360352 C187.49305664 58.77610352 194.13430664 58.85860352 200.97680664 58.94360352 C200.97680664 37.16360352 200.97680664 15.38360352 200.97680664 -7.05639648 C238.55266888 -7.09669952 238.55266888 -7.09669952 254.24829102 -7.10522461 C265.10368317 -7.11116791 275.95906758 -7.11817044 286.81445312 -7.13183594 C294.71889376 -7.14178187 302.62332815 -7.14824969 310.52777487 -7.15048498 C314.71575383 -7.15179224 318.90371491 -7.15487907 323.09168816 -7.16212654 C327.02895962 -7.16888532 330.96620572 -7.17101374 334.90348244 -7.16950417 C336.35275281 -7.16978056 337.80202399 -7.17178653 339.25128937 -7.17560196 C341.22151078 -7.18053692 343.19174562 -7.17879457 345.16197205 -7.176651 C346.81981673 -7.17803369 346.81981673 -7.17803369 348.51115322 -7.17944431 C350.97680664 -7.05639648 350.97680664 -7.05639648 351.97680664 -6.05639648 C352.07343637 -4.12011348 352.09867808 -2.18025386 352.09706116 -0.24156189 C352.09843865 1.01929513 352.09981615 2.28015215 352.10123539 3.57921696 C352.09768812 4.99503158 352.09405022 6.41084597 352.09033203 7.82666016 C352.09002592 9.3286282 352.0901588 10.83059638 352.09069729 12.33256435 C352.0909238 16.36851888 352.08511214 20.40444398 352.07808685 24.44039154 C352.07240779 28.22234697 352.0721246 32.00429511 352.07141113 35.78625488 C352.06615593 46.85954168 352.05219488 57.93282297 352.03930664 69.00610352 C352.01868164 93.73547852 351.99805664 118.46485352 351.97680664 143.94360352 C302.14680664 143.94360352 252.31680664 143.94360352 200.97680664 143.94360352 C200.97680664 124.14360352 200.97680664 104.34360352 200.97680664 83.94360352 C193.92305664 83.84047852 186.86930664 83.73735352 179.60180664 83.63110352 C177.4163623 83.5649585 175.23091797 83.49881348 172.97924805 83.43066406 C158.81270583 83.31760087 150.60020868 86.94711571 140.00871277 96.22233582 C136.50158971 99.19328883 132.73095446 101.79705354 128.97680664 104.44360352 C128.14076904 105.04760986 127.30473145 105.65161621 126.44335938 106.27392578 C122.80160986 108.90495557 119.15822827 111.53367886 115.51196289 114.15844727 C106.91060489 120.35394268 98.352788 126.60409867 89.82763672 132.90405273 C82.9307201 137.99383251 75.96791853 142.98417262 68.97680664 147.94360352 C68.04964844 148.6297876 68.04964844 148.6297876 67.10375977 149.32983398 C62.18730813 152.94360352 62.18730813 152.94360352 59.97680664 152.94360352 C59.97680664 130.17360352 59.97680664 107.40360352 59.97680664 83.94360352 C51.06680664 83.94360352 42.15680664 83.94360352 32.97680664 83.94360352 C31.98680664 87.90360352 30.99680664 91.86360352 29.97680664 95.94360352 C22.85234858 116.82042456 8.41087503 133.70037613 -11.02319336 143.94360352 C-12.0840918 144.50821289 -13.14499023 145.07282227 -14.23803711 145.65454102 C-31.66552351 154.31547365 -55.18949277 156.49069626 -74.02319336 150.94360352 C-97.1078319 143.07772668 -115.23157125 129.03983908 -126.64819336 107.31860352 C-129.14331946 102.17100101 -131.1720794 97.02076924 -132.89819336 91.56860352 C-133.10138184 90.92713379 -133.30457031 90.28566406 -133.51391602 89.62475586 C-138.15619026 74.05002625 -136.75464676 58.23487506 -132.02319336 42.94360352 C-131.57266602 41.44700195 -131.57266602 41.44700195 -131.11303711 39.92016602 C-124.18634627 18.99016514 -108.30804882 2.16520697 -89.02319336 -8.05639648 C-60.16019548 -21.51377791 -25.82427936 -19.02598359 0 0 Z " fill="#1E1160" transform="translate(531.023193359375,320.056396484375)"/>
<path d="M0 0 C3.20808975 0.00851856 6.41439914 -0.02034732 9.62231445 -0.05200195 C31.59859606 -0.12833251 48.93384644 4.970513 65.28051758 20.44604492 C78.00650272 33.49132001 84.43375533 50.68888347 84.42236328 68.67919922 C84.42583771 69.57778152 84.42931213 70.47636383 84.43289185 71.4021759 C84.4402142 73.3440407 84.44557823 75.28591367 84.44918251 77.22778893 C84.45639356 80.31076575 84.47209506 83.39358759 84.49052429 86.47651672 C84.54277225 95.23904278 84.59092842 104.00148169 84.60644531 112.76416016 C84.61657578 118.13461688 84.64602542 123.50467887 84.68776512 128.87497902 C84.70000506 130.91089697 84.70520932 132.94687082 84.70296669 134.98282433 C84.68996127 150.64394544 86.08283307 163.77678421 96.28051758 176.44604492 C106.43063961 186.44492341 116.53670027 189.51519854 130.39379883 189.76245117 C131.84812569 189.79362282 131.84812569 189.79362282 133.33183289 189.82542419 C136.41882465 189.89063434 139.50589909 189.94967172 142.59301758 190.00854492 C144.69003122 190.05175729 146.78703661 190.09537244 148.8840332 190.1394043 C154.01611127 190.24704187 159.14825507 190.34632754 164.28051758 190.44604492 C164.28051758 198.69604492 164.28051758 206.94604492 164.28051758 215.44604492 C157.68189802 215.538441 151.08557016 215.61790934 144.48681641 215.66577148 C142.24748074 215.68574685 140.00819629 215.71293674 137.76904297 215.74780273 C114.01847515 216.10806118 114.01847515 216.10806118 103.28051758 211.44604492 C102.58917725 211.17937012 101.89783691 210.91269531 101.18554688 210.63793945 C85.2357269 204.24943052 71.80543436 190.55646873 64.69128418 175.0216217 C59.52374209 161.9245272 58.71076253 148.57836902 58.79466248 134.65590096 C58.812256 131.64768891 58.80424376 128.64040989 58.79040527 125.63218689 C58.7653494 119.25757197 58.77052409 112.8831888 58.78051758 106.50854492 C58.79210468 99.08609826 58.79074678 91.66411652 58.75645447 84.24172783 C58.7494259 81.29752031 58.76594188 78.35407452 58.78356934 75.40992737 C58.78136214 60.78650319 56.44688816 49.42418196 46.31567383 38.28588867 C39.54273887 31.73341091 29.77513999 26.37529057 20.15136719 26.28491211 C19.32297836 26.27530457 18.49458954 26.26569702 17.64109802 26.25579834 C16.74737991 26.25154846 15.8536618 26.24729858 14.93286133 26.24291992 C14.00639297 26.23721985 13.07992462 26.23151978 12.12538147 26.22564697 C10.16091045 26.2161965 8.19642357 26.2096628 6.23193359 26.20581055 C3.25369752 26.19616053 0.27616818 26.16516085 -2.7019043 26.13354492 C-4.61531168 26.12700888 -6.52872398 26.12176077 -8.44213867 26.11791992 C-9.32168716 26.10557312 -10.20123566 26.09322632 -11.10743713 26.08050537 C-19.09606666 26.1086958 -26.94029462 27.63198412 -33.53198242 32.38354492 C-34.21905273 32.86694336 -34.90612305 33.3503418 -35.61401367 33.84838867 C-36.30881836 34.37561523 -37.00362305 34.9028418 -37.71948242 35.44604492 C-38.97631836 36.37610352 -38.97631836 36.37610352 -40.25854492 37.32495117 C-42.81969811 39.5324213 -44.46053954 41.60611542 -46.28198242 44.44604492 C-46.84014648 45.29166992 -47.39831055 46.13729492 -47.97338867 47.00854492 C-53.48834708 57.86573374 -54.35805323 67.77830388 -54.46948242 79.69604492 C-54.49771354 81.2312337 -54.52765062 82.7663921 -54.55932617 84.30151367 C-54.6323321 88.01621497 -54.68241934 91.73079038 -54.71948242 95.44604492 C-53.63151367 95.67678711 -52.54354492 95.9075293 -51.42260742 96.14526367 C-42.43196975 98.11421127 -34.0469354 100.41777205 -25.71948242 104.44604492 C-24.79780273 104.8869043 -23.87612305 105.32776367 -22.92651367 105.78198242 C-15.74665671 109.44786144 -9.73254679 114.10313887 -3.71948242 119.44604492 C-2.65407227 120.38577148 -2.65407227 120.38577148 -1.56713867 121.34448242 C13.07412281 135.0869734 24.55608861 156.66344617 25.37848663 176.85089684 C25.42435826 179.70874131 25.43849511 182.5651263 25.44165039 185.42333984 C25.4466153 186.50723999 25.4515802 187.59114014 25.45669556 188.70788574 C25.47125651 192.28076827 25.47810928 195.85360639 25.48364258 199.42651367 C25.48939926 201.92124939 25.49515692 204.41598511 25.50091553 206.91072083 C25.51140844 212.1383993 25.51726221 217.36606248 25.52075195 222.59375 C25.52544527 229.27027712 25.55025495 235.94657069 25.57872391 242.62304211 C25.59740979 247.77654092 25.60255907 252.92999107 25.60408783 258.08352089 C25.60710172 260.54372589 25.61508719 263.00393028 25.62827301 265.46410179 C25.64545699 268.91681557 25.64342297 272.36903737 25.63696289 275.82177734 C25.65078506 277.32551659 25.65078506 277.32551659 25.66488647 278.8596344 C25.5510894 298.41812061 16.73959776 317.67019364 4.28051758 332.44604492 C3.63598633 333.2478418 2.99145508 334.04963867 2.32739258 334.87573242 C-9.69065789 349.16385909 -26.86481349 358.5316893 -44.71948242 363.44604492 C-45.91637695 363.78442383 -45.91637695 363.78442383 -47.13745117 364.12963867 C-71.57077958 369.76212296 -96.71877661 363.50721561 -117.85229492 350.96557617 C-123.85706715 347.20110292 -128.78922379 342.49866033 -133.71948242 337.44604492 C-134.53030273 336.64424805 -135.34112305 335.84245117 -136.17651367 335.01635742 C-151.62744513 318.9600232 -159.87525982 296.28194109 -159.86474609 274.22485352 C-159.86810471 273.20937439 -159.87146332 272.19389526 -159.87492371 271.14764404 C-159.88440759 267.79657765 -159.88637577 264.4455614 -159.88745117 261.09448242 C-159.89066637 258.75525899 -159.89403064 256.41603576 -159.89753723 254.07681274 C-159.90352269 249.17270441 -159.90537781 244.26861368 -159.90478516 239.36450195 C-159.90468376 233.10388763 -159.91831537 226.84338728 -159.93555737 220.58279991 C-159.94672043 215.74927256 -159.94870301 210.91577235 -159.94817543 206.08223343 C-159.94934985 203.77554559 -159.95374118 201.46885692 -159.9615078 199.16218185 C-160.03188316 176.09485417 -160.03188316 176.09485417 -157.71948242 166.44604492 C-157.4590918 165.30651367 -157.19870117 164.16698242 -156.93041992 162.99291992 C-152.9499288 149.67501505 -146.96498955 137.86139173 -137.71948242 127.44604492 C-137.1909668 126.77573242 -136.66245117 126.10541992 -136.11791992 125.41479492 C-122.54621429 108.56716034 -100.8233416 98.3045154 -79.71948242 95.44604492 C-79.75090332 94.02678711 -79.75090332 94.02678711 -79.78295898 92.57885742 C-79.85670648 88.98559401 -79.90175787 85.39239333 -79.93920898 81.79858398 C-79.95902413 80.25875515 -79.98608452 78.71899834 -80.02124023 77.17944336 C-80.33147748 63.21876753 -78.75965859 49.76461742 -72.15698242 37.19604492 C-71.81965088 36.5418457 -71.48231934 35.88764648 -71.13476562 35.21362305 C-62.80643744 19.87737981 -47.72324617 8.14763918 -31.28271484 2.62792969 C-20.99219037 -0.24128963 -10.60790388 -0.04292075 0 0 Z " fill="#FEC001" transform="translate(231.719482421875,187.553955078125)"/>
<path d="M0 0 C0.93940463 -0.00623996 1.87880926 -0.01247993 2.8466807 -0.01890898 C5.99045573 -0.03484742 9.13345633 -0.02223106 12.27723694 -0.00964355 C14.53274996 -0.01506431 16.78825944 -0.02218671 19.04376221 -0.03088379 C25.16773678 -0.04912642 31.29144194 -0.04204527 37.41542125 -0.02936745 C43.82367732 -0.01924351 50.23191026 -0.02863156 56.64016724 -0.03491211 C68.09254498 -0.04265709 79.54477348 -0.03022161 90.99712599 -0.00987476 C101.37441123 0.00799157 111.75151744 0.00489521 122.12879944 -0.0135498 C134.18647276 -0.03497165 146.2440109 -0.04291525 158.30171019 -0.03110075 C164.68188593 -0.02486529 171.06193843 -0.02403168 177.44210625 -0.0372467 C183.4413829 -0.04880458 189.44032167 -0.0407801 195.43956184 -0.01766968 C197.64098678 -0.01238209 199.84244016 -0.01389718 202.04385376 -0.02272034 C205.04988295 -0.03365718 208.05483066 -0.01993388 211.06079102 0 C212.36644426 -0.01338433 212.36644426 -0.01338433 213.69847435 -0.02703905 C219.48802521 0.04738712 222.90688445 1.02594131 227.59388733 4.50793457 C231.37979829 8.90614394 232.09165278 12.02326734 232.0749054 17.75924683 C232.07832947 18.46504883 232.08175354 19.17085083 232.08528137 19.89804077 C232.09187562 22.25849459 232.06985537 24.61780025 232.04798889 26.97814941 C232.04676298 28.70099667 232.04729849 30.42384593 232.04944992 32.14669228 C232.0503518 36.75434366 232.02719352 41.3615783 231.99900818 45.96913147 C231.97620351 50.29498589 231.97515438 54.6207397 231.9723053 58.94665527 C231.95132824 71.59213676 231.89548348 84.23754095 231.84388733 96.88293457 C231.76138733 125.13918457 231.67888733 153.39543457 231.59388733 182.50793457 C148.43388733 182.50793457 65.27388733 182.50793457 -20.40611267 182.50793457 C-20.40611267 159.73793457 -20.40611267 136.96793457 -20.40611267 113.50793457 C-52.74611267 113.50793457 -85.08611267 113.50793457 -118.40611267 113.50793457 C-118.40611267 104.92793457 -118.40611267 96.34793457 -118.40611267 87.50793457 C-86.06611267 87.50793457 -53.72611267 87.50793457 -20.40611267 87.50793457 C-20.603771 63.18538931 -20.603771 63.18538931 -20.85655212 38.86340332 C-20.87913513 34.13879395 -20.87913513 34.13879395 -20.8833313 31.92077637 C-20.89096486 30.38522072 -20.90845817 28.8496934 -20.93399048 27.31433105 C-21.17973495 11.74649304 -21.17973495 11.74649304 -17.06863403 6.04431152 C-11.45321232 0.85496197 -7.36260567 -0.07528159 0 0 Z M8.59388733 27.50793457 C8.59388733 69.74793457 8.59388733 111.98793457 8.59388733 155.50793457 C72.94388733 155.50793457 137.29388733 155.50793457 203.59388733 155.50793457 C203.59388733 113.26793457 203.59388733 71.02793457 203.59388733 27.50793457 C139.24388733 27.50793457 74.89388733 27.50793457 8.59388733 27.50793457 Z " fill="#FEC003" transform="translate(1001.4061126708984,290.4920654296875)"/>
<path d="M0 0 C17.49692558 13.40037408 29.64728172 32.2237571 33.53540039 54.08422852 C36.31564436 78.39291033 31.7312989 101.70636404 16.32202148 121.31274414 C8.45493615 130.85033579 -0.05396818 138.16199025 -11.02319336 143.94360352 C-12.0840918 144.50821289 -13.14499023 145.07282227 -14.23803711 145.65454102 C-31.66552351 154.31547365 -55.18949277 156.49069626 -74.02319336 150.94360352 C-97.1078319 143.07772668 -115.23157125 129.03983908 -126.64819336 107.31860352 C-129.14331946 102.17100101 -131.1720794 97.02076924 -132.89819336 91.56860352 C-133.10138184 90.92713379 -133.30457031 90.28566406 -133.51391602 89.62475586 C-138.15619026 74.05002625 -136.75464676 58.23487506 -132.02319336 42.94360352 C-131.57266602 41.44700195 -131.57266602 41.44700195 -131.11303711 39.92016602 C-124.18634627 18.99016514 -108.30804882 2.16520697 -89.02319336 -8.05639648 C-60.16019548 -21.51377791 -25.82427936 -19.02598359 0 0 Z " fill="#1C0F5F" transform="translate(531.023193359375,320.056396484375)"/>
<path d="M0 0 C1.16101028 -0.00507454 2.32202056 -0.01014909 3.51821297 -0.0153774 C5.44044842 -0.01612404 5.44044842 -0.01612404 7.40151691 -0.01688576 C8.77196433 -0.02090032 10.14241056 -0.02533853 11.51285535 -0.03016531 C15.28735563 -0.04213736 19.06184312 -0.04778072 22.83635867 -0.05234647 C26.90399015 -0.05830014 30.97160632 -0.06991054 35.03922749 -0.08063698 C44.86679289 -0.1051659 54.69436337 -0.11978861 64.52194998 -0.13269705 C67.29719313 -0.13640854 70.07243577 -0.14038181 72.84767842 -0.14444971 C90.07776088 -0.16968516 107.30784412 -0.19174051 124.53794098 -0.20417786 C128.52943837 -0.2071076 132.52093573 -0.21006926 136.51243305 -0.21308327 C137.50451278 -0.21382932 138.49659251 -0.21457537 139.51873527 -0.21534403 C155.59221214 -0.22799945 171.66557845 -0.26122479 187.73900362 -0.3028851 C204.23731902 -0.34529652 220.7355778 -0.36887195 237.23394758 -0.37409842 C246.4987844 -0.37751338 255.76344842 -0.38927853 265.02823162 -0.42220116 C272.91810444 -0.4501919 280.80776903 -0.46120529 288.69768765 -0.4500057 C292.7230707 -0.44481656 296.74801759 -0.44772189 300.77333736 -0.47247124 C304.4605411 -0.4949524 308.1469951 -0.49423351 311.83421186 -0.47526737 C313.79561308 -0.47114128 315.75701875 -0.49162153 317.7183072 -0.51305425 C324.9174065 -0.44822863 329.94315937 0.2878486 335.4526186 5.13701439 C338.77490002 8.70846692 339.71157981 11.37359947 339.8901186 16.13701439 C339.62492803 22.03308465 337.87517031 25.53664372 333.9526186 29.94951439 C330.27991901 33.16312653 327.56398395 33.2629443 322.85279846 33.27123547 C321.09375766 33.27792223 321.09375766 33.27792223 319.29918069 33.28474408 C318.0046533 33.28455972 316.71012592 33.28437536 315.37637043 33.28418541 C313.99212345 33.28748419 312.60787743 33.29120978 311.22363263 33.29532689 C307.4110641 33.30535322 303.59851132 33.30906469 299.78593147 33.3117162 C295.67743979 33.3156173 291.56896059 33.32519568 287.46047688 33.33392906 C277.53503125 33.35369755 267.60958459 33.36375955 257.6841242 33.37265685 C253.01223669 33.37703857 248.34035032 33.38240563 243.66846371 33.38764572 C228.14238406 33.40465734 212.61630513 33.4191526 197.09021759 33.42639446 C193.06054591 33.42830441 189.03087424 33.43022474 185.00120258 33.4321804 C183.99962639 33.43266414 182.99805019 33.43314789 181.9661232 33.43364628 C165.73288414 33.4419507 149.49971867 33.46729484 133.26651176 33.49976108 C116.60774351 33.53280742 99.9490127 33.55084097 83.2902115 33.5540387 C73.93380566 33.5562059 64.57750717 33.56498533 55.22113323 33.59049988 C47.2547322 33.61217366 39.2884646 33.62027367 31.32203742 33.6105331 C27.25645897 33.6059789 23.19115603 33.60793932 19.12561512 33.62729454 C15.40406265 33.64485936 11.68298802 33.64398343 7.96143094 33.62839725 C5.97669479 33.62488009 3.99195401 33.64109715 2.00728673 33.65800172 C-8.7248553 33.57999238 -8.7248553 33.57999238 -13.5473814 29.13701439 C-17.17571804 25.31771267 -17.85738598 22.25422433 -18.0473814 17.13701439 C-17.86368319 12.0188021 -17.11734727 8.99643695 -13.5473814 5.13701439 C-9.05700053 1.08471945 -5.97648477 0.01384461 0 0 Z " fill="#FEC002" transform="translate(946.547381401062,484.8629856109619)"/>
<path d="M0 0 C3.87951716 1.55180686 5.91334036 2.48064778 9.00390625 4.94140625 C10.10472534 5.80934814 10.10472534 5.80934814 11.2277832 6.69482422 C11.99823975 7.31115723 12.76869629 7.92749023 13.5625 8.5625 C15.19210439 9.84842198 16.82231227 11.13357954 18.453125 12.41796875 C19.24009766 13.03978027 20.02707031 13.6615918 20.83789062 14.30224609 C23.46690221 16.36662579 26.13099483 18.37937115 28.8125 20.375 C34.32344306 24.47954428 39.78800477 28.64307505 45.25 32.8125 C52.10281866 38.04169431 58.97281805 43.24561327 65.87939453 48.40356445 C69.7512114 51.29981702 73.60399549 54.21963443 77.4453125 57.15625 C78.38632812 57.87554687 79.32734375 58.59484375 80.296875 59.3359375 C82.1392888 60.74574032 83.98049683 62.15712075 85.8203125 63.5703125 C87.08875 64.54097656 87.08875 64.54097656 88.3828125 65.53125 C89.50260498 66.39073242 89.50260498 66.39073242 90.64501953 67.26757812 C91.42216309 67.83927734 92.19930664 68.41097656 93 69 C93.88816406 69.71897461 94.77632812 70.43794922 95.69140625 71.17871094 C100.08990513 73.59996253 103.6128059 73.60236255 108.5546875 73.609375 C109.45623566 73.62591125 110.35778381 73.64244751 111.28665161 73.65948486 C114.14950457 73.70784103 117.0118268 73.72930816 119.875 73.75 C121.82294319 73.77817006 123.77086179 73.80809893 125.71875 73.83984375 C130.47940786 73.91689017 135.23840768 73.95752371 140 74 C140 82.25 140 90.5 140 99 C135.44058594 98.88205078 135.44058594 98.88205078 130.7890625 98.76171875 C127.78009097 98.72976072 124.7718165 98.72043389 121.76269531 98.71313477 C119.70279824 98.69630554 117.64293604 98.65667253 115.58398438 98.59204102 C99.96175686 98.12383098 90.82798271 100.9486328 79.03190613 111.2787323 C75.52478307 114.24968532 71.75414781 116.85345002 68 119.5 C67.1639624 120.10400635 66.3279248 120.7080127 65.46655273 121.33032227 C61.82480322 123.96135206 58.18142163 126.59007534 54.53515625 129.21484375 C45.93379825 135.41033917 37.37598136 141.66049515 28.85083008 147.96044922 C21.95391346 153.050229 14.99111189 158.0405691 8 163 C7.38189453 163.45745605 6.76378906 163.91491211 6.12695312 164.38623047 C1.21050149 168 1.21050149 168 -1 168 C-1 145.23 -1 122.46 -1 99 C-9.91 99 -18.82 99 -28 99 C-27.67 90.75 -27.34 82.5 -27 74 C-18.09 74 -9.18 74 0 74 C0 49.58 0 25.16 0 0 Z " fill="#FE1F80" transform="translate(592,305)"/>
<path d="M0 0 C5.21211584 2.90319724 8.14535585 6.35202082 9.83984375 12.1640625 C10.36441311 17.07470443 10.45778777 21.91949298 10.41625977 26.85449219 C10.40237024 29.15966691 10.43655554 31.46079034 10.47460938 33.765625 C10.51444313 41.50768222 10.49433139 48.24457124 4.83984375 54.1640625 C0.47869981 58.14039962 -3.87087671 58.57455774 -9.5859375 58.5078125 C-13.65044582 57.9650557 -16.47208177 56.23003605 -19.16015625 53.1640625 C-22.18252433 48.18965014 -22.61557211 44.34136133 -22.59375 38.6953125 C-22.59899185 37.89677856 -22.6042337 37.09824463 -22.6096344 36.2755127 C-22.61603052 34.59465696 -22.61474894 32.91375632 -22.60620117 31.23291016 C-22.59768061 28.6713858 -22.62650015 26.11208634 -22.65820312 23.55078125 C-22.65981521 21.911459 -22.65923746 20.27213282 -22.65625 18.6328125 C-22.66748398 17.87327271 -22.67871796 17.11373291 -22.69029236 16.33117676 C-22.6231058 11.16772962 -21.51585737 8.28586853 -18.16015625 4.1640625 C-12.83242224 -0.64389258 -6.9327896 -2.68285167 0 0 Z " fill="#FEFEFB" transform="translate(171.16015625,320.8359375)"/>
<path d="M0 0 C13.2 0 26.4 0 40 0 C40 8.25 40 16.5 40 25 C25.48 25 10.96 25 -4 25 C0.5 20.5 0.5 20.5 3.234375 18.640625 C3.80800781 18.24746094 4.38164063 17.85429687 4.97265625 17.44921875 C5.55917969 17.05347656 6.14570312 16.65773438 6.75 16.25 C7.35199219 15.83878906 7.95398438 15.42757813 8.57421875 15.00390625 C10.04686657 13.99876568 11.52307502 12.99884522 13 12 C10.04953592 8.96169374 7.13154188 6.21466274 3.6875 3.75 C2.44148485 2.85636991 1.20662705 1.94613933 0 1 C0 0.67 0 0.34 0 0 Z " fill="#FEC007" transform="translate(692,379)"/>
<path d="M0 0 C8.58 0 17.16 0 26 0 C26 8.25 26 16.5 26 25 C17.09 25 8.18 25 -1 25 C-0.67 16.75 -0.34 8.5 0 0 Z " fill="#FEC105" transform="translate(565,379)"/>
</svg>
