<?xml version="1.0" encoding="utf-8"?>
<!-- Generator: Adobe Illustrator 22.0.0, SVG Export Plug-In . SVG Version: 6.00 Build 0)  -->
<svg version="1.1" id="Layer_1" xmlns="http://www.w3.org/2000/svg" xmlns:xlink="http://www.w3.org/1999/xlink" x="0px" y="0px"
	 viewBox="0 0 446.5 446.5" style="enable-background:new 0 0 446.5 446.5;" xml:space="preserve">
<g>
	<circle style="fill:#FFFFFF;" cx="223.3" cy="223.3" r="213"/>
</g>
<g>
	<defs>
		<circle id="SVGID_1_" cx="223.3" cy="223.3" r="175.2"/>
	</defs>
	<use xlink:href="#SVGID_1_"  style="overflow:visible;fill:#0F182D;"/>
	<clipPath id="SVGID_2_">
		<use xlink:href="#SVGID_1_"  style="overflow:visible;"/>
	</clipPath>
	<g style="clip-path:url(#SVGID_2_);">
		<g>
			<defs>
				<circle id="SVGID_3_" cx="223.6" cy="223.5" r="176.8"/>
			</defs>
			<use xlink:href="#SVGID_3_"  style="overflow:visible;fill:#0F182D;"/>
			<clipPath id="SVGID_4_">
				<use xlink:href="#SVGID_3_"  style="overflow:visible;"/>
			</clipPath>
			<g style="clip-path:url(#SVGID_4_);">
				<g id="grey_splodge" transform="translate(0.000000, 16.500000)" style="opacity:0.72;">
					<g id="Path">
						<path d="M521.2,82.5C460,26.8,371.2-25.3,377.7,67.2c5.6,79.4-153.1-57.4-177.3,20.2c-22.7,72.9,193,208.8,126.2,196.9
							s0.3,65.4,83.6,125.4c70.1,50.4,49.6-8.6,74.9-12.4c33.4-5.1,155.1,99.9,185.2,61.8c29.2-37-42.8-103.1-102.3-159.4
							c-57-53.9,28.5-29.4,47.4-67.5C636.6,189.5,586,141.5,521.2,82.5z"/>
					</g>
				</g>
				<g id="grey_splodge_1_" transform="translate(0.000000, 16.500000)" style="opacity:0.72;">
					<g id="Path_1_">
						<path d="M67.1-57C5.8-112.7-83-164.7-76.4-72.3c5.6,79.4-153.1-57.4-177.3,20.2c-22.7,72.9,193,208.8,126.2,196.9
							s0.3,65.4,83.6,125.4c70.1,50.4,49.6-8.6,74.9-12.4c33.4-5.1,155.1,99.9,185.2,61.8c29.2-37-42.8-103.1-102.3-159.4
							c-57-53.9,28.5-29.4,47.4-67.5C182.4,50,131.9,2,67.1-57z"/>
					</g>
				</g>
			</g>
		</g>
	</g>
	<g style="clip-path:url(#SVGID_2_);">
		<defs>
			<circle id="SVGID_5_" cx="223.1" cy="150.8" r="87.8"/>
		</defs>
		<use xlink:href="#SVGID_5_"  style="overflow:visible;fill:#2D59B2;"/>
		<clipPath id="SVGID_6_">
			<use xlink:href="#SVGID_5_"  style="overflow:visible;"/>
		</clipPath>
		<g style="clip-path:url(#SVGID_6_);">
			<g>
				<path style="fill:#009941;" d="M-64.4,70.2c3.2,0,3.2-5,0-5C-67.7,65.2-67.7,70.2-64.4,70.2L-64.4,70.2z"/>
			</g>
		</g>
		<g style="clip-path:url(#SVGID_6_);">
			<g>
				<path style="fill:#009941;" d="M122,89.9c2.7-0.1,5.3,0.1,7.9,0.4c-1.1-0.1-2.2-0.3-3.3-0.4c6,0.9,11.8,2.7,17.4,5.1
					c-1-0.4-2-0.8-3-1.3c4.4,1.9,8.6,4,12.8,6.2c4,2.1,8.2,4.2,11.8,6.9c-0.8-0.7-1.7-1.3-2.5-2c1.2,0.9,2.3,2,3.3,3.2
					c-0.7-0.8-1.3-1.7-2-2.5c1,1.3,1.8,2.7,2.4,4.2c-0.4-1-0.8-2-1.3-3c1,2.3,1.6,4.7,1.9,7.1c-0.1-1.1-0.3-2.2-0.4-3.3
					c0.3,2,0.3,3.9,0.1,5.9c0.1-1.1,0.3-2.2,0.4-3.3c-0.2,1.3-0.5,2.5-1,3.7c0.4-1,0.8-2,1.3-3c-0.6,1.4-1.4,2.6-2.3,3.8
					c0.7-0.8,1.3-1.7,2-2.5c-1.2,1.5-2.5,2.9-3.8,4.3c-2,2.1-3.8,4.3-5.5,6.6c-1.7,2.2-2.8,4.8-3.8,7.4c-0.7,1.9-0.9,4-1.1,6
					c-0.1,1.1-0.1,2.2,0,3.3c0.2,2,0.4,4.1,1,6c0.6,2,1.5,3.9,2.3,5.8c0.9,2,2.2,3.9,3.5,5.6c3.5,4.6,7.4,8.6,11.9,12.2
					c2.8,2.3,5.7,4.5,8.7,6.5c2.3,1.5,4.7,2.9,7,4.5c-0.8-0.7-1.7-1.3-2.5-2c1.2,0.9,2.3,2,3.2,3.1c-0.7-0.8-1.3-1.7-2-2.5
					c0.9,1.2,1.7,2.5,2.3,3.8c-0.4-1-0.8-2-1.3-3c0.8,1.9,1.3,3.8,1.6,5.8c-0.1-1.1-0.3-2.2-0.4-3.3c0.3,2.6,0.3,5.1,0,7.7
					c0.1-1.1,0.3-2.2,0.4-3.3c-0.4,3.3-1.3,6.5-2.6,9.6c0.4-1,0.8-2,1.3-3c-1.1,2.7-2.6,5.3-4.4,7.6c0.7-0.8,1.3-1.7,2-2.5
					c-1.6,2-3.3,3.8-5.3,5.4c0.8-0.7,1.7-1.3,2.5-2c-1.9,1.5-4,2.7-6.2,3.6c1-0.4,2-0.8,3-1.3c-2.1,0.9-4.3,1.5-6.5,1.8
					c1.1-0.1,2.2-0.3,3.3-0.4c-2,0.2-4,0.3-6,0c1.1,0.1,2.2,0.3,3.3,0.4c-2.2-0.3-4.3-0.9-6.4-1.8c1,0.4,2,0.8,3,1.3
					c-2.2-1-4.3-2.2-6.2-3.7c0.8,0.7,1.7,1.3,2.5,2c-3-2.3-5.5-5.1-7.9-8.1c0.7,0.8,1.3,1.7,2,2.5c-6.1-7.9-10.6-17.2-14.4-26.4
					c0.4,1,0.8,2,1.3,3c-5.9-14-9.9-28.8-11.9-43.9c0.1,1.1,0.3,2.2,0.4,3.3c-0.6-4.8-1.1-9.6-1.3-14.5c-0.2-4.7-0.5-9.7,0-14.5
					c-0.1,1.1-0.3,2.2-0.4,3.3c0.1-0.7,0.3-1.4,0.5-2.1c-0.4,1-0.8,2-1.3,3c0.3-0.7,0.7-1.4,1.2-2c-0.7,0.8-1.3,1.7-2,2.5
					c0.7-0.8,1.4-1.5,2.3-2.2c-0.8,0.7-1.7,1.3-2.5,2c1.1-0.8,2.3-1.5,3.6-2.1c-1,0.4-2,0.8-3,1.3c1.5-0.6,3-1,4.6-1.2
					c-1.1,0.1-2.2,0.3-3.3,0.4c1.7-0.2,3.4-0.2,5.1,0c-1.1-0.1-2.2-0.3-3.3-0.4c1.8,0.3,3.5,0.7,5.2,1.4c-1-0.4-2-0.8-3-1.3
					c1.5,0.6,2.8,1.4,4.1,2.4c-0.8-0.7-1.7-1.3-2.5-2c1.1,0.9,2,1.8,2.9,2.9c-0.7-0.8-1.3-1.7-2-2.5c0.7,1,1.4,2,1.9,3.1
					c-0.4-1-0.8-2-1.3-3c0.3,0.7,0.5,1.4,0.6,2.1c-0.1-1.1-0.3-2.2-0.4-3.3c0,0.6,0,1.1,0,1.7c0.1-1.1,0.3-2.2,0.4-3.3
					c-0.1,0.5-0.2,1-0.4,1.5c0.4-1,0.8-2,1.3-3c-0.3,0.8-0.8,1.5-1.3,2.2c0.7-0.8,1.3-1.7,2-2.5c-1.7,2.1-3.8,3.7-5.8,5.5
					c-3.5,3.3-5.8,7.2-7.5,11.6c-0.5,1.2-0.9,2.5-1.1,3.8c-0.4,2.4-0.8,4.9-0.7,7.3c0.3,4.9,1.4,9.3,3.7,13.6
					c1.4,2.6,4.6,5.1,7.5,5.7c2.8,0.6,5.5,0.5,8.1-0.6c2.4-1,4.7-2.7,6-5.1c1.6-3.1,1.9-6.2,1.3-9.6c-2.1-11.4-4.4-22.9-6.4-34.3
					c0.1,1.1,0.3,2.2,0.4,3.3c0-0.3,0-0.5,0-0.8c-0.1,1.1-0.3,2.2-0.4,3.3c0-0.1,0.1-0.2,0.1-0.4c-0.4,1-0.8,2-1.3,3
					c0.1-0.1,0.1-0.2,0.2-0.3c-0.7,0.8-1.3,1.7-2,2.5c0.1-0.1,0.1-0.1,0.2-0.2c-0.8,0.7-1.7,1.3-2.5,2c0.1-0.1,0.2-0.1,0.3-0.2
					c-1,0.4-2,0.8-3,1.3c0.3-0.1,0.6-0.2,0.9-0.2c-1.1,0.1-2.2,0.3-3.3,0.4c1-0.1,2.1,0.1,3.1,0.2c-1.1-0.1-2.2-0.3-3.3-0.4
					c3.5,0.5,6.9,1.4,10.1,2.8c-1-0.4-2-0.8-3-1.3c3.1,1.3,6,3,8.7,5c-0.8-0.7-1.7-1.3-2.5-2c0.2,0.2,0.4,0.3,0.6,0.5
					c-0.7-0.8-1.3-1.7-2-2.5c0.1,0.1,0.2,0.2,0.2,0.3c-0.4-1-0.8-2-1.3-3c0,0.1,0.1,0.2,0.1,0.4c-0.1-1.1-0.3-2.2-0.4-3.3
					c0.1,0.3,0.1,0.5,0,0.8c0.1-1.1,0.3-2.2,0.4-3.3c-0.1,0.4-0.2,0.8-0.4,1.2c0.4-1,0.8-2,1.3-3c-0.7,1.4-1.5,2.7-2.4,4
					c0.7-0.8,1.3-1.7,2-2.5c-1.9,2.5-4.3,4.7-6.4,7.1c-2.7,3-5.3,6.3-7,10.1c-1.7,3.8-3.2,7.6-3.8,11.7c-0.7,4.2-1.1,8.3-0.8,12.5
					c0.5,7.9,2.4,15.5,5.4,22.8c3.2,7.8,7,15.3,10.8,22.8c3.5,6.9,7,13.8,10.5,20.7c1.7,3.4,3.2,7,5.2,10.2c3.7,5.8,10,9.7,17,9.2
					c5.7-0.4,11.4-2.7,15.3-7.1c3.1-3.4,5.4-7.5,6.4-12c1.2-5,1-9.8,0-14.9c-0.9-4.3-2.9-8.5-4.9-12.4c-3.8-7.2-8.2-14.2-12.8-20.9
					c-5.2-7.7-10.8-15.2-16.6-22.4c-1.9-2.3-6-3.7-8.8-3.7c-3.1,0-6.7,1.4-8.8,3.7c-2.2,2.4-3.8,5.5-3.7,8.8
					c0.1,1.1,0.3,2.2,0.4,3.3c0.6,2.1,1.7,4,3.2,5.5c1.3,1.6,2.5,3.2,3.8,4.8c-0.7-0.8-1.3-1.7-2-2.5c4.9,6.3,9.5,12.9,13.9,19.6
					c2.2,3.3,4.2,6.7,6.3,10.1c2,3.4,4,6.7,5.5,10.3c-0.4-1-0.8-2-1.3-3c1,2.3,1.7,4.7,2.1,7.2c-0.1-1.1-0.3-2.2-0.4-3.3
					c0.2,1.6,0.2,3.2,0,4.8c0.1-1.1,0.3-2.2,0.4-3.3c-0.2,1.5-0.6,3-1.2,4.4c0.4-1,0.8-2,1.3-3c-0.5,1.1-1,2.1-1.7,3
					c0.7-0.8,1.3-1.7,2-2.5c-0.6,0.8-1.3,1.5-2.2,2.2c0.8-0.7,1.7-1.3,2.5-2c-0.7,0.5-1.3,0.9-2.1,1.3c1-0.4,2-0.8,3-1.3
					c-0.8,0.3-1.6,0.6-2.5,0.7c1.1-0.1,2.2-0.3,3.3-0.4c-0.7,0.1-1.4,0.1-2.2,0c1.1,0.1,2.2,0.3,3.3,0.4c-0.6-0.1-1.1-0.3-1.7-0.5
					c1,0.4,2,0.8,3,1.3c-0.4-0.2-0.8-0.4-1.2-0.7c0.8,0.7,1.7,1.3,2.5,2c-0.4-0.3-0.8-0.7-1.1-1.1c0.7,0.8,1.3,1.7,2,2.5
					c-1.3-1.8-2.2-4-3.2-6c-1.1-2.2-2.2-4.4-3.3-6.6c-2.2-4.3-4.3-8.5-6.5-12.8c-4.2-8.3-8.7-16.6-12.3-25.2c0.4,1,0.8,2,1.3,3
					c-2.3-5.5-4.2-11.2-5-17.2c0.1,1.1,0.3,2.2,0.4,3.3c-0.5-3.9-0.5-7.8,0-11.6c-0.1,1.1-0.3,2.2-0.4,3.3c0.4-3,1.2-6,2.4-8.8
					c-0.4,1-0.8,2-1.3,3c1-2.2,2.1-4.2,3.6-6.1c-0.7,0.8-1.3,1.7-2,2.5c3.8-4.9,8.7-8.9,11.8-14.3c1.6-2.8,2.8-5.9,2.8-9.3
					c0-2.5-0.7-5-2-7.2c-1.4-2.4-3.3-3.8-5.6-5.4c-2.3-1.7-4.7-3.1-7.2-4.3c-3.4-1.6-6.9-3-10.6-3.8c-1.8-0.4-3.6-0.7-5.4-0.9
					c-2.9-0.4-5.5-0.8-8.4,0c-4.8,1.3-8.7,4.9-10,9.7c-1,3.5-0.2,6.9,0.5,10.4c0.6,3.2,1.2,6.5,1.8,9.7c1.4,7.3,2.7,14.5,4.1,21.8
					c7.6-3.2,15.2-6.4,22.8-9.6c-0.3-0.5-0.6-1.1-0.8-1.6c0.4,1,0.8,2,1.3,3c-0.5-1.4-0.9-2.7-1.1-4.2c0.1,1.1,0.3,2.2,0.4,3.3
					c-0.2-1.6-0.2-3.1,0-4.7c-0.1,1.1-0.3,2.2-0.4,3.3c0.2-1.6,0.6-3.1,1.2-4.5c-0.4,1-0.8,2-1.3,3c0.6-1.3,1.3-2.6,2.1-3.8
					c-0.7,0.8-1.3,1.7-2,2.5c1.3-1.7,2.9-3,4.5-4.4c2.2-1.9,4.1-4,5.7-6.5c1.1-1.5,1.8-3.5,2.4-5.2c0.6-1.9,0.9-4,0.7-6
					c-0.3-4.2-1.6-8.2-4.2-11.5c-2.5-3.3-4.7-5.6-8.1-7.9c-2.3-1.6-5-2.7-7.6-3.6c-5.4-1.9-11.4-1.9-17-0.7
					c-6.7,1.4-12.6,5.6-16.6,11.1c-4.1,5.7-3.6,13.6-3.5,20.3c0.2,11.4,1.6,22.9,3.9,34.1c2.1,10.2,5.1,20.2,9.1,29.9
					c4,10,8.5,20.1,14.7,29c6.6,9.4,15.1,17.9,26.4,21.1c12.9,3.6,26.9-0.8,36.5-10c8.7-8.4,13.6-20.7,13.9-32.7
					c0.2-6.3-1.2-12.9-4.4-18.4c-1.6-2.8-3.7-5.4-6.2-7.4c-2.8-2.2-5.7-4.1-8.7-6c-2.1-1.4-4.2-2.8-6.2-4.4c0.8,0.7,1.7,1.3,2.5,2
					c-4-3.1-7.9-6.5-11-10.5c0.7,0.8,1.3,1.7,2,2.5c-1.5-2-2.8-4.1-3.8-6.4c0.4,1,0.8,2,1.3,3c-0.6-1.5-1-3-1.3-4.6
					c0.1,1.1,0.3,2.2,0.4,3.3c-0.1-1.2-0.1-2.3,0-3.5c-0.1,1.1-0.3,2.2-0.4,3.3c0.2-1.1,0.5-2.2,0.9-3.3c-0.4,1-0.8,2-1.3,3
					c0.6-1.5,1.5-2.8,2.5-4.1c-0.7,0.8-1.3,1.7-2,2.5c1.7-2.2,3.8-4.1,5.7-6.2c3.2-3.6,5.5-7.1,7.2-11.5c2-5.2,1.6-10.6,0.8-16
					c-0.6-4-1.9-7.9-3.9-11.6c-4-7.7-11.4-11.9-18.7-15.9c-7-3.8-14.2-7.4-21.7-10.2c-8-3-16.7-4.8-25.3-4.6
					c-3.3,0.1-6.5,1.3-8.8,3.7c-2.2,2.2-3.8,5.7-3.7,8.8c0.1,3.2,1.2,6.6,3.7,8.8C115.6,88.4,118.6,90,122,89.9L122,89.9z"/>
			</g>
		</g>
		<g style="clip-path:url(#SVGID_6_);">
			<g>
				<path style="fill:#009941;" d="M225.7,47.7c-3.5,3.3-5.8,7.5-7.3,12c-1.6,4.7-1.5,9.6-0.7,14.5c1.3,7.9,7,13.3,11.8,19.3
					c-0.7-0.8-1.3-1.7-2-2.5c1.1,1.4,2,2.8,2.7,4.4c-0.4-1-0.8-2-1.3-3c0.4,1,0.7,1.9,0.8,3c-0.1-1.1-0.3-2.2-0.4-3.3
					c0.2,1.4,0.1,2.8-0.1,4.2c0.1-1.1,0.3-2.2,0.4-3.3c-0.4,3.2-1.2,6.5-1,9.8c0.2,2.7,0.6,5.5,1.5,8.1c1.9,5.1,4.8,9.8,9,13.3
					c4.2,3.4,8.9,6.3,14.4,7.1c1.9,0.3,3.8,0.6,5.8,0.6c1.9-0.1,3.8-0.4,5.6-0.7c2.4-0.4,4.7-1.2,7.1-1.6c-1.1,0.1-2.2,0.3-3.3,0.4
					c1.8-0.2,3.6-0.2,5.4,0.1c-1.1-0.1-2.2-0.3-3.3-0.4c3.3,0.5,6.4,1.4,9.7,2c4.9,0.8,10.2,1.4,15-0.4c3.1-1.2,6-2.5,8.4-5
					c3-3.2,5-7.3,5-11.7c0-5.6-2.9-10.3-5.5-15.1c-3.5-6.6-7-13.1-10.6-19.7c-2-3.7-4.3-7.1-7-10.2c-2.7-3.1-6.3-5.7-10-7.5
					c-4.4-2.2-9-4-13.6-5.8c-3.9-1.5-7.8-2.8-11.8-4c-2.9-0.9-7-0.4-9.6,1.3c-2.8,1.8-4.7,4.3-5.7,7.5c-2.9,8.9,0.5,18.1,5.1,25.7
					c1.7,2.8,3.5,5.5,5.1,8.3c1.6,2.9,3.1,5.9,4.4,9c-0.4-1-0.8-2-1.3-3c1,2.4,1.9,4.8,2.7,7.3c1.5,4.8,5.3,8.3,10.4,9
					c2.3,0.3,4.3,0,6.5-0.9c2.6-1.1,4.3-2.8,6-5.1c0.1-0.1,0.1-0.2,0.2-0.3c-0.7,0.8-1.3,1.7-2,2.5c0.3-0.4,0.7-0.8,1.1-1.1
					c-0.8,0.7-1.7,1.3-2.5,2c0.4-0.3,0.9-0.5,1.3-0.7c-1,0.4-2,0.8-3,1.3c0.5-0.2,1-0.3,1.5-0.4c-1.1,0.1-2.2,0.3-3.3,0.4
					c0.6-0.1,1.2-0.1,1.9,0c-1.1-0.1-2.2-0.3-3.3-0.4c0.5,0.1,1,0.2,1.5,0.4c-1-0.4-2-0.8-3-1.3c0.4,0.2,0.7,0.4,1.1,0.6
					c-0.8-0.7-1.7-1.3-2.5-2c0.1,0.1,0.2,0.1,0.2,0.2c2.6,2.2,5.3,3.7,8.8,3.7c3.1,0,6.7-1.4,8.8-3.7c2.2-2.4,3.8-5.5,3.7-8.8
					c-0.1-3.1-1.1-6.8-3.7-8.8c-2.4-2-4.6-3.5-7.7-4.3c-2.7-0.7-4.8-0.7-7.4-0.4c-2.5,0.3-4.7,1-7,2.3c-2.7,1.6-4.5,3.6-6.3,6.2
					c7.6,1,15.2,2,22.8,3c-2-6.4-4.7-12.6-7.9-18.5c-2.7-4.9-6.1-9.4-8.4-14.5c0.4,1,0.8,2,1.3,3c-0.7-1.7-1.2-3.4-1.5-5.1
					c0.1,1.1,0.3,2.2,0.4,3.3c-0.1-1.1-0.1-2.1,0-3.2c-0.1,1.1-0.3,2.2-0.4,3.3c0.1-0.8,0.3-1.6,0.5-2.4c-5.1,2.9-10.2,5.8-15.4,8.7
					c5.8,1.8,11.5,3.8,17.1,6.2c-1-0.4-2-0.8-3-1.3c3.4,1.4,6.7,2.9,9.6,5.1c-0.8-0.7-1.7-1.3-2.5-2c1.6,1.2,2.9,2.6,4.1,4.2
					c-0.7-0.8-1.3-1.7-2-2.5c3.5,4.7,6,10.1,8.8,15.3c1.5,2.7,3,5.5,4.4,8.2c1.5,2.8,3.2,5.6,4.5,8.5c-0.4-1-0.8-2-1.3-3
					c0.3,0.7,0.5,1.3,0.6,2c-0.1-1.1-0.3-2.2-0.4-3.3c0,0.4,0,0.8,0,1.3c0.1-1.1,0.3-2.2,0.4-3.3c-0.1,0.4-0.2,0.7-0.3,1
					c0.4-1,0.8-2,1.3-3c-0.2,0.3-0.3,0.6-0.5,0.9c0.7-0.8,1.3-1.7,2-2.5c-0.4,0.5-0.8,0.9-1.2,1.2c0.8-0.7,1.7-1.3,2.5-2
					c-0.5,0.4-1,0.6-1.5,0.9c1-0.4,2-0.8,3-1.3c-1,0.4-2,0.7-3,0.8c1.1-0.1,2.2-0.3,3.3-0.4c-1.6,0.2-3.2,0.1-4.8,0
					c1.1,0.1,2.2,0.3,3.3,0.4c-2.1-0.3-4.1-0.8-6.1-1.2c-2.9-0.7-5.9-1.2-8.9-1.5c-3-0.3-6.1,0.1-9.1,0.7c-2.2,0.5-4.4,1.2-6.7,1.5
					c1.1-0.1,2.2-0.3,3.3-0.4c-1.3,0.1-2.6,0.1-3.8,0c1.1,0.1,2.2,0.3,3.3,0.4c-1.5-0.2-3-0.6-4.4-1.2c1,0.4,2,0.8,3,1.3
					c-1.5-0.7-2.9-1.5-4.2-2.5c0.8,0.7,1.7,1.3,2.5,2c-1.3-1-2.5-2.2-3.5-3.5c0.7,0.8,1.3,1.7,2,2.5c-1-1.3-1.8-2.7-2.5-4.2
					c0.4,1,0.8,2,1.3,3c-0.5-1.3-0.9-2.6-1.1-4c0.1,1.1,0.3,2.2,0.4,3.3c-0.2-1.6-0.1-3.1,0.1-4.7c-0.1,1.1-0.3,2.2-0.4,3.3
					c0.5-3.4,1.3-6.9,1-10.4c-0.4-3.9-1.3-7.3-3.3-10.8c-2.3-4.1-5.8-7.4-8.7-11.1c0.7,0.8,1.3,1.7,2,2.5c-1.1-1.4-2-2.9-2.8-4.5
					c0.4,1,0.8,2,1.3,3c-0.5-1.2-0.8-2.4-1-3.7c0.1,1.1,0.3,2.2,0.4,3.3c-0.2-1.5-0.2-3,0-4.6c-0.1,1.1-0.3,2.2-0.4,3.3
					c0.2-1.5,0.6-3,1.2-4.4c-0.4,1-0.8,2-1.3,3c0.5-1.2,1.2-2.3,2-3.3c-0.7,0.8-1.3,1.7-2,2.5c0.5-0.7,1.1-1.3,1.7-1.8
					c2.3-2.2,3.7-5.7,3.7-8.8c0-3.1-1.4-6.7-3.7-8.8c-2.4-2.2-5.5-3.8-8.8-3.7C231.2,44.2,228.2,45.3,225.7,47.7L225.7,47.7z"/>
			</g>
		</g>
		<g style="clip-path:url(#SVGID_6_);">
			<g>
				<path style="fill:#009941;" d="M244.8,143.6c-2.3,0.2-3.6,0.4-5.5,1.2c-2.1,0.9-2.6,1.1-4.6,2.9c-1.2,1.1-2.3,2.5-3.1,3.9
					c-2.2,4-2.7,9.3-1.2,13.6c1.2,3.4,3.1,6.6,5.8,9.1c2.1,1.9,4.5,3.5,6.7,5.2c-0.8-0.7-1.7-1.3-2.5-2c1,0.8,2,1.6,2.8,2.6
					c-0.7-0.8-1.3-1.7-2-2.5c0.6,0.8,1.1,1.7,1.6,2.6c-0.4-1-0.8-2-1.3-3c0.3,0.8,0.6,1.6,0.7,2.4c-0.1-1.1-0.3-2.2-0.4-3.3
					c0.1,0.7,0.1,1.4,0,2.1c0.1-1.1,0.3-2.2,0.4-3.3c-0.1,0.6-0.2,1.1-0.5,1.6c0.4-1,0.8-2,1.3-3c-0.2,0.3-0.3,0.6-0.5,0.9
					c0.7-0.8,1.3-1.7,2-2.5c-0.3,0.4-0.6,0.7-1,1c0.8-0.7,1.7-1.3,2.5-2c-0.3,0.2-0.6,0.4-0.9,0.5c1-0.4,2-0.8,3-1.3
					c-0.3,0.1-0.6,0.2-1,0.3c1.1-0.1,2.2-0.3,3.3-0.4c-0.4,0-0.7,0-1,0c1.1,0.1,2.2,0.3,3.3,0.4c-0.2,0-0.5-0.1-0.7-0.2
					c1,0.4,2,0.8,3,1.3c-0.3-0.1-0.6-0.3-0.9-0.5c0.8,0.7,1.7,1.3,2.5,2c-0.4-0.3-0.7-0.6-1-1c0.7,0.8,1.3,1.7,2,2.5
					c-0.5-0.7-0.9-1.4-1.3-2.2c0.4,1,0.8,2,1.3,3c-0.1-0.3-0.2-0.5-0.3-0.8c0.1,1.1,0.3,2.2,0.4,3.3c0-0.1,0-0.3,0-0.4
					c-0.1,1.1-0.3,2.2-0.4,3.3c0-0.1,0-0.2,0.1-0.3c-0.4,1-0.8,2-1.3,3c0.1-0.2,0.2-0.4,0.3-0.6c-0.7,0.8-1.3,1.7-2,2.5
					c1.3-1.6,3.1-2.8,4.6-4.2c2.2-2.2,4.1-4.7,6-7.2c4-5.4,6.1-12.3,4.5-18.9c-2-8-10.2-13.8-18.4-13.4c-3.8,0.2-7.6,1.2-10.8,3.4
					c-3.4,2.3-5.6,4.8-8.1,8.1c-1.8,2.4-2,6.9-1.3,9.6c0.8,2.9,3,6,5.7,7.5c2.9,1.5,6.4,2.3,9.6,1.3c1-0.4,2-0.8,3-1.3
					c1.9-1.1,3.4-2.6,4.5-4.5c0.1-0.1,0.2-0.2,0.2-0.3c-0.7,0.8-1.3,1.7-2,2.5c0.9-1.1,1.9-2.2,3-3.1c-0.8,0.7-1.7,1.3-2.5,2
					c0.7-0.5,1.5-1,2.4-1.3c-1,0.4-2,0.8-3,1.3c0.6-0.2,1.1-0.4,1.7-0.5c-1.1,0.1-2.2,0.3-3.3,0.4c0.7-0.1,1.4-0.1,2.1,0
					c-1.1-0.1-2.2-0.3-3.3-0.4c0.6,0.1,1.1,0.2,1.7,0.4c-1-0.4-2-0.8-3-1.3c0.5,0.2,1,0.5,1.5,0.8c-0.8-0.7-1.7-1.3-2.5-2
					c0.4,0.3,0.7,0.6,0.9,0.9c-0.7-0.8-1.3-1.7-2-2.5c0.3,0.4,0.5,0.8,0.7,1.3c-0.4-1-0.8-2-1.3-3c0.2,0.5,0.3,0.9,0.3,1.4
					c-0.1-1.1-0.3-2.2-0.4-3.3c0.1,0.6,0,1.2-0.1,1.8c0.1-1.1,0.3-2.2,0.4-3.3c-0.2,0.9-0.4,1.8-0.8,2.6c0.4-1,0.8-2,1.3-3
					c-0.7,1.6-1.7,3.1-2.8,4.5c0.7-0.8,1.3-1.7,2-2.5c-1.4,1.8-3,3.6-4.7,5.2c-2.2,2.1-4.5,3.6-5.9,6.4c-3.4,6.5-1.2,13.7,3.4,18.9
					c3.6,4,8.9,5.8,14.1,5.1c5.3-0.7,9.6-3.8,12.4-8.3c2.6-4.3,2.9-9.9,1.6-14.6c-1.1-3.9-3.3-7.6-6.1-10.5c-2.2-2.3-5-3.9-7.5-5.9
					c0.8,0.7,1.7,1.3,2.5,2c-0.9-0.7-1.7-1.4-2.4-2.3c0.7,0.8,1.3,1.7,2,2.5c-0.5-0.7-0.9-1.3-1.3-2.1c0.4,1,0.8,2,1.3,3
					c-0.2-0.5-0.3-1-0.4-1.5c0.1,1.1,0.3,2.2,0.4,3.3c-0.1-0.5-0.1-1,0-1.6c-0.1,1.1-0.3,2.2-0.4,3.3c0.1-0.4,0.2-0.7,0.3-1.1
					c-0.4,1-0.8,2-1.3,3c0.1-0.2,0.2-0.4,0.4-0.6c-0.7,0.8-1.3,1.7-2,2.5c0.2-0.3,0.4-0.5,0.7-0.8c-0.8,0.7-1.7,1.3-2.5,2
					c0.2-0.1,0.4-0.2,0.6-0.3c-1,0.4-2,0.8-3,1.3c0.1,0,0.2-0.1,0.3-0.1c-1.1,0.1-2.2,0.3-3.3,0.4c0.1,0,0.2,0,0.3,0
					c3.4-0.3,6.4-1.2,8.8-3.7c2.2-2.2,3.8-5.7,3.7-8.8c-0.1-3.2-1.2-6.6-3.7-8.8C251.3,145.1,248,143.3,244.8,143.6L244.8,143.6z"/>
			</g>
		</g>
	</g>
	<g style="opacity:0.74;clip-path:url(#SVGID_2_);">
		<circle style="fill:#F5AB40;" cx="90.3" cy="196" r="4.6"/>
	</g>
	<g style="opacity:0.5;clip-path:url(#SVGID_2_);">
		<circle style="fill:#F5AB40;" cx="132.4" cy="102.5" r="4.6"/>
	</g>
	<g style="opacity:0.5;clip-path:url(#SVGID_2_);">
		<circle style="fill:#F5AB40;" cx="113.4" cy="154.6" r="4.6"/>
	</g>
	<g style="opacity:0.5;clip-path:url(#SVGID_2_);">
		<circle style="fill:#ECECEC;" cx="345.9" cy="145.4" r="4.6"/>
	</g>
	<g style="opacity:0.74;clip-path:url(#SVGID_2_);">
		<circle style="fill:#F5AB40;" cx="370.9" cy="186.7" r="4.6"/>
	</g>
	<g style="opacity:0.74;clip-path:url(#SVGID_2_);">
		<circle style="fill:#ECECEC;" cx="333.1" cy="186.7" r="4.6"/>
	</g>
	<g style="opacity:0.74;clip-path:url(#SVGID_2_);">
		<circle style="fill:#F5AB40;" cx="106.2" cy="301.3" r="4.6"/>
	</g>
	<g style="opacity:0.74;clip-path:url(#SVGID_2_);">
		<circle style="fill:#F5AB40;" cx="197.3" cy="380" r="4.6"/>
	</g>
	<g style="opacity:0.74;clip-path:url(#SVGID_2_);">
		<circle style="fill:#ECECEC;" cx="342.1" cy="323.9" r="4.6"/>
	</g>
	<g style="opacity:0.5;clip-path:url(#SVGID_2_);">
		<circle style="fill:#ECECEC;" cx="384.4" cy="226.9" r="4.6"/>
	</g>
	<g style="opacity:0.5;clip-path:url(#SVGID_2_);">
		<circle style="fill:#ECECEC;" cx="72.7" cy="253.8" r="4.6"/>
	</g>
	<g style="opacity:0.5;clip-path:url(#SVGID_2_);">
		<circle style="fill:#2C4C9B;" cx="92.6" cy="238.6" r="2.3"/>
	</g>
	<g style="opacity:0.5;clip-path:url(#SVGID_2_);">
		<circle style="fill:#F5AB40;" cx="84.3" cy="301.4" r="3.8"/>
	</g>
	<g style="opacity:0.5;clip-path:url(#SVGID_2_);">
		<circle style="fill:#F5AB40;" cx="366.3" cy="306" r="3.8"/>
	</g>
	<g style="opacity:0.5;clip-path:url(#SVGID_2_);">
		<circle style="fill:#F5AB40;" cx="88.1" cy="137" r="3.8"/>
	</g>
	<g style="opacity:0.5;clip-path:url(#SVGID_2_);">
		<circle style="fill:#2C4C9B;" cx="359.5" cy="282.5" r="3.8"/>
	</g>
	<g style="opacity:0.5;clip-path:url(#SVGID_2_);">
		<circle style="fill:#F5AB40;" cx="345.9" cy="210.8" r="3.8"/>
	</g>
	<g style="opacity:0.5;clip-path:url(#SVGID_2_);">
		<circle style="fill:#F5AB40;" cx="324.6" cy="299.3" r="3.8"/>
	</g>
	<g style="opacity:0.5;clip-path:url(#SVGID_2_);">
		<circle style="fill:#ECECEC;" cx="202" cy="349.1" r="3.8"/>
	</g>
	<g style="opacity:0.5;clip-path:url(#SVGID_2_);">
		<circle style="fill:#2C4C9B;" cx="298.4" cy="79.4" r="3.8"/>
	</g>
	<g style="opacity:0.5;clip-path:url(#SVGID_2_);">
		<circle style="fill:#F5AB40;" cx="139.3" cy="319.3" r="2.3"/>
	</g>
	<g style="opacity:0.5;clip-path:url(#SVGID_2_);">
		<circle style="fill:#ECECEC;" cx="257.1" cy="60.7" r="2.3"/>
	</g>
	<g style="opacity:0.5;clip-path:url(#SVGID_2_);">
		<circle style="fill:#ECECEC;" cx="132.4" cy="333.1" r="2.3"/>
	</g>
	<g style="opacity:0.5;clip-path:url(#SVGID_2_);">
		<circle style="fill:#ECECEC;" cx="130.1" cy="204.8" r="2.3"/>
	</g>
	<g style="opacity:0.5;clip-path:url(#SVGID_2_);">
		<circle style="fill:#F5AB40;" cx="60.2" cy="198.3" r="2.3"/>
	</g>
	<g style="opacity:0.5;clip-path:url(#SVGID_2_);">
		<circle style="fill:#F5AB40;" cx="120.3" cy="133.2" r="2.3"/>
	</g>
	<g style="opacity:0.5;clip-path:url(#SVGID_2_);">
		<circle style="fill:#F5AB40;" cx="384.4" cy="204.8" r="2.3"/>
	</g>
	<g style="opacity:0.5;clip-path:url(#SVGID_2_);">
		<circle style="fill:#F5AB40;" cx="376" cy="284.7" r="2.3"/>
	</g>
	<g style="opacity:0.5;clip-path:url(#SVGID_2_);">
		<circle style="fill:#2C4C9B;" cx="317.7" cy="179.8" r="2.3"/>
	</g>
	<g style="opacity:0.5;clip-path:url(#SVGID_2_);">
		<circle style="fill:#F5AB40;" cx="366.3" cy="156.9" r="2.3"/>
	</g>
	<g style="opacity:0.5;clip-path:url(#SVGID_2_);">
		<circle style="fill:#F5AB40;" cx="330.8" cy="161.6" r="2.3"/>
	</g>
	<g style="opacity:0.5;clip-path:url(#SVGID_2_);">
		<circle style="fill:#ECECEC;" cx="366.3" cy="207.1" r="2.3"/>
	</g>
	<g style="opacity:0.5;clip-path:url(#SVGID_2_);">
		<circle style="fill:#2C4C9B;" cx="379.8" cy="264.5" r="2.3"/>
	</g>
	<g style="opacity:0.5;clip-path:url(#SVGID_2_);">
		<circle style="fill:#F5AB40;" cx="306.3" cy="297.6" r="2.3"/>
	</g>
	<g style="opacity:0.5;clip-path:url(#SVGID_2_);">
		<circle style="fill:#F5AB40;" cx="199.2" cy="56.1" r="2.3"/>
	</g>
	<g style="opacity:0.5;clip-path:url(#SVGID_2_);">
		<circle style="fill:#ECECEC;" cx="348.2" cy="237.6" r="2.3"/>
	</g>
	<g style="opacity:0.5;clip-path:url(#SVGID_2_);">
		<circle style="fill:#F5AB40;" cx="348.2" cy="120.6" r="2.3"/>
	</g>
	<g style="opacity:0.5;clip-path:url(#SVGID_2_);">
		<circle style="fill:#ECECEC;" cx="150.3" cy="77.9" r="2.3"/>
	</g>
	<g style="opacity:0.5;clip-path:url(#SVGID_2_);">
		<circle style="fill:#2C4C9B;" cx="322.3" cy="335.5" r="2.3"/>
	</g>
	<g style="opacity:0.5;clip-path:url(#SVGID_2_);">
		<circle style="fill:#F5AB40;" cx="341.9" cy="299.1" r="2.3"/>
	</g>
	<g style="opacity:0.5;clip-path:url(#SVGID_2_);">
		<circle style="fill:#F5AB40;" cx="134.1" cy="301.4" r="2.3"/>
	</g>
	<g style="opacity:0.5;clip-path:url(#SVGID_2_);">
		<circle style="fill:#ECECEC;" cx="324.6" cy="130.9" r="2.3"/>
	</g>
	<g style="opacity:0.5;clip-path:url(#SVGID_2_);">
		<circle style="fill:#F5AB40;" cx="106.2" cy="328.6" r="2.3"/>
	</g>
	<g style="opacity:0.5;clip-path:url(#SVGID_2_);">
		<circle style="fill:#F5AB40;" cx="221.5" cy="377.6" r="2.3"/>
	</g>
	<g style="opacity:0.5;clip-path:url(#SVGID_2_);">
		<circle style="fill:#F5AB40;" cx="176.4" cy="368.5" r="2.3"/>
	</g>
	<g style="opacity:0.5;clip-path:url(#SVGID_2_);">
		<circle style="fill:#2C4C9B;" cx="122.7" cy="278.5" r="2.3"/>
	</g>
	<g style="opacity:0.5;clip-path:url(#SVGID_2_);">
		<circle style="fill:#F5AB40;" cx="90.3" cy="276.2" r="2.3"/>
	</g>
	<g style="opacity:0.5;clip-path:url(#SVGID_2_);">
		<circle style="fill:#F5AB40;" cx="110.8" cy="258.4" r="2.3"/>
	</g>
	<g style="opacity:0.5;clip-path:url(#SVGID_2_);">
		<circle style="fill:#F5AB40;" cx="72.7" cy="220.5" r="2.3"/>
	</g>
	<g style="opacity:0.5;clip-path:url(#SVGID_2_);">
		<circle style="fill:#2C4C9B;" cx="103.9" cy="220.5" r="2.3"/>
	</g>
	<g style="opacity:0.5;clip-path:url(#SVGID_2_);">
		<circle style="fill:#F5AB40;" cx="106.2" cy="120.6" r="2.3"/>
	</g>
	<g style="opacity:0.5;clip-path:url(#SVGID_2_);">
		<circle style="fill:#F5AB40;" cx="125" cy="186.7" r="2.3"/>
	</g>
	<g style="opacity:0.5;clip-path:url(#SVGID_2_);">
		<circle style="fill:#ECECEC;" cx="79.6" cy="168.1" r="2.3"/>
	</g>
	<g style="opacity:0.74;clip-path:url(#SVGID_2_);">
		<circle style="fill:#ECECEC;" cx="320" cy="100.8" r="4.6"/>
	</g>
</g>
<g style="opacity:0.37;">
	<polygon style="fill:#C6C6C5;" points="345.9,403.8 262.9,437.9 240.3,340.9 285.7,321.9 	"/>
</g>
<g>
	<defs>
		<path id="SVGID_7_" d="M277.7,284c-1.4-0.9-3.2-1.1-4.8-0.6c-2.4,0.7-4.7,2.4-6.9,3.7c-9.1,5.3-18.2,10.6-27.3,15.9
			c-2.4,1.4-5,2.6-7.1,4.5c-0.7,0.7-1.3,1.4-1.8,2.2c0.1-2,0.2-4.1,0.4-6.1c0.2-2-1.8-3.9-3.7-3.8c-2.1,0.1-3.6,1.6-3.8,3.7
			c-1.2,14.9-0.3,29.8,1.1,44.7c0.4,4.2,0.8,8.5,1.3,12.7c0.1,1.4,0.6,2.5,1.8,3.3c1.2,0.7,2.5,0.6,3.7,0.1
			c20.1-8.6,40.2-17.1,60.2-25.7c5.7-2.4,11.4-4.8,17.1-7.3c1.1-0.5,1.7-1.7,1.9-2.8c0.2-1.3-0.2-2.1-1-3.1
			c-6.3-8.6-12.7-17.1-19-25.7c-3.1-4.2-6.3-8.5-9.4-12.7C279.7,285.9,278.9,284.8,277.7,284z M266.8,323.3c0.1,0.1,0.2,0.1,0.4,0.2
			c-0.2,0.1-0.4,0.3-0.6,0.4C266.7,323.7,266.8,323.5,266.8,323.3z M250.1,315.4C250.1,315.4,250.1,315.4,250.1,315.4
			C250.1,315.4,250.1,315.4,250.1,315.4C250.1,315.4,250.1,315.4,250.1,315.4z M279.4,323.2c0.1,0.1,0.2,0.2,0.3,0.3
			c-0.2,0.1-0.3,0.2-0.5,0.3C279.3,323.6,279.3,323.4,279.4,323.2z M268.5,299.3C268.5,299.3,268.5,299.3,268.5,299.3
			c0,0-0.1,0-0.2,0.1C268.3,299.3,268.4,299.3,268.5,299.3z M268.5,299.3c0.1,0.1,0.1,0.1,0.2,0.2c0.1,0.1,0.3,0.3,0.4,0.4
			c-0.3-0.2-0.6-0.4-0.9-0.5C268.2,299.4,268.4,299.4,268.5,299.3z M236.3,313.7C236.3,313.9,236.3,314,236.3,313.7L236.3,313.7z
			 M289.1,324.9c0.1,0.1,0.2,0.2,0.3,0.3c-0.1,0.1-0.2,0.1-0.3,0.2C289,325.2,289,325.1,289.1,324.9z M275.3,292.4
			c-0.7-0.5-1.7-0.7-2.6-0.5c0.5-0.3,1-0.6,1.5-0.9C274.6,291.5,274.9,292,275.3,292.4z M274.8,290.7
			C275.1,290.6,275.1,290.7,274.8,290.7L274.8,290.7z"/>
	</defs>
	<use xlink:href="#SVGID_7_"  style="overflow:visible;fill:#9C9B9B;"/>
	<clipPath id="SVGID_8_">
		<use xlink:href="#SVGID_7_"  style="overflow:visible;"/>
	</clipPath>
	<g style="clip-path:url(#SVGID_8_);">
		<path style="fill:#868686;" d="M299.1,308.6c-13.4,5.8-26.7,12.7-40.1,18.7c-13.4,5.9-27,11.5-40.5,16.8c-4.4,1.7-4.2,5.1,0,3.6
			c26.1-9,56.4-20.9,81.5-35.9C303.2,309.9,303.1,306.9,299.1,308.6z"/>
	</g>
	<g style="clip-path:url(#SVGID_8_);">
		<path style="fill:#868686;" d="M295.9,296c-13.4,5.8-26.7,12.7-40.1,18.7c-13.4,5.9-27,11.5-40.5,16.8c-4.4,1.7-4.2,5.1,0,3.6
			c26.1-9,56.4-20.9,81.5-35.9C300.1,297.3,300,294.3,295.9,296z"/>
	</g>
	<g style="clip-path:url(#SVGID_8_);">
		<path style="fill:#868686;" d="M306.6,318.7c-13.4,5.8-26.7,12.7-40.1,18.7c-13.4,5.9-27,11.5-40.5,16.8c-4.4,1.7-4.2,5.1,0,3.6
			c26.1-9,56.4-20.9,81.5-35.9C310.8,320,310.6,317,306.6,318.7z"/>
	</g>
</g>
<g>
	<g>
		<path style="fill:#D9D9D9;" d="M120.2,223.4L288,150.6c1.8-0.8,4,0,4.8,1.9l48.8,112.4c0.8,1.8,0,4-1.9,4.8l-167.8,72.8
			c-1.8,0.8-4,0-4.8-1.9l-48.8-112.4C117.5,226.3,118.4,224.2,120.2,223.4z"/>
	</g>
	<g>
		<defs>
			<path id="SVGID_9_" d="M127.1,225.5l157.5-68.4c1.8-0.8,3.8,0,4.6,1.8l48.1,110.7c0.8,1.8,0,3.8-1.8,4.6l-157.5,68.4
				c-1.8,0.8-3.8,0-4.6-1.8l-48.1-110.7C124.5,228.3,125.3,226.3,127.1,225.5z"/>
		</defs>
		<use xlink:href="#SVGID_9_"  style="overflow:visible;"/>
		<clipPath id="SVGID_10_">
			<use xlink:href="#SVGID_9_"  style="overflow:visible;"/>
		</clipPath>
		<g style="clip-path:url(#SVGID_10_);">
			<path style="fill:#EB5F9E;" d="M138.2,190.5c-1-2-2.1-4.3-2.9-6.1l-0.1,0c0.2,1.9,0.4,3.9,0.5,6.2l0.5,8.1l-1.4,0.6l-5.3-5.8
				c-1.6-1.7-2.9-3.3-4.1-4.9l0,0c0.7,1.8,1.7,4.3,2.5,6.5l2.3,6.3l-1.8,0.8l-5.2-14.8l2.4-1l5.4,5.9c1.4,1.5,2.5,2.9,3.5,4.2l0.1,0
				c-0.3-1.6-0.4-3.4-0.6-5.5l-0.4-8l2.4-1l7.1,14l-1.8,0.8L138.2,190.5z"/>
			<path style="fill:#EB5F9E;" d="M146.2,189.2l0.5,5.2l-1.9,0.8l-1.3-16.5l2.2-1l11.1,12.3l-2,0.9l-3.5-3.9L146.2,189.2z
				 M150.2,185.7l-3.2-3.5c-0.7-0.8-1.3-1.6-1.9-2.3l0,0c0.2,0.9,0.3,1.9,0.4,2.9l0.4,4.8L150.2,185.7z"/>
			<path style="fill:#EB5F9E;" d="M157.6,186.9c1.1,0.2,2.5,0.1,3.7-0.5c1.9-0.8,2.6-2.3,1.9-3.7c-0.6-1.3-1.7-1.8-3.9-1.7
				c-2.7,0.2-4.7-0.4-5.5-2.4c-1-2.2,0.2-4.7,3-5.9c1.5-0.6,2.7-0.8,3.5-0.7l0.1,1.7c-0.6-0.1-1.7-0.1-3,0.5c-2,0.8-2.2,2.3-1.8,3.3
				c0.6,1.3,1.7,1.6,4,1.5c2.8-0.1,4.6,0.5,5.5,2.6c1,2.2,0.1,4.8-3.2,6.3c-1.4,0.6-3.1,0.8-4.1,0.7L157.6,186.9z"/>
			<path style="fill:#EB5F9E;" d="M166.5,170.6l-4.4,1.9l-0.7-1.6l10.6-4.6l0.7,1.6l-4.4,1.9l5.5,12.8l-1.9,0.8L166.5,170.6z"/>
			<path style="fill:#EB5F9E;" d="M184.5,170.1l-5.6,2.4l2.2,5.2l6.2-2.7l0.7,1.6l-8.1,3.5l-6.2-14.4l7.8-3.3l0.7,1.6l-5.9,2.5
				l2,4.5l5.6-2.4L184.5,170.1z"/>
			<path style="fill:#EB5F9E;" d="M184.3,161.3c0.9-0.6,2.2-1.3,3.4-1.8c2-0.9,3.4-1,4.7-0.6c1,0.3,1.8,1.1,2.3,2.2
				c0.8,1.9,0.2,3.7-1.1,4.8l0,0.1c1.3-0.1,2.4,0.6,3.4,2c1.3,1.8,2.3,3,2.8,3.5l-1.9,0.8c-0.4-0.3-1.3-1.4-2.4-3
				c-1.3-1.8-2.4-2.2-4.1-1.6l-1.7,0.8l2.7,6.2l-1.9,0.8L184.3,161.3z M189,167.1l1.9-0.8c2-0.9,2.8-2.5,2.1-4.1
				c-0.8-1.9-2.5-2.1-4.5-1.3c-0.9,0.4-1.5,0.7-1.8,1L189,167.1z"/>
			<path style="fill:#EB5F9E;" d="M211.8,165.7c-0.5,0.6-1.8,1.6-3.5,2.3c-4,1.7-8.2,0.5-10.2-4.2c-1.9-4.5-0.2-8.9,4.3-10.8
				c1.8-0.8,3.1-0.9,3.7-0.8l0.2,1.7c-0.8,0-2,0.1-3.2,0.7c-3.4,1.5-4.7,4.6-3.1,8.3c1.5,3.5,4.5,4.9,8,3.4c1.1-0.5,2.2-1.2,2.8-1.9
				L211.8,165.7z"/>
			<path style="fill:#EB5F9E;" d="M208.1,150.8l1.9-0.8l5.5,12.8l6.1-2.6l0.7,1.6l-8,3.4L208.1,150.8z"/>
			<path style="fill:#EB5F9E;" d="M224.7,155.3l0.5,5.2l-1.9,0.8l-1.3-16.5l2.2-1l11.1,12.3l-2,0.9l-3.5-3.9L224.7,155.3z
				 M228.8,151.9l-3.2-3.5c-0.7-0.8-1.3-1.6-1.9-2.3l0,0c0.2,0.9,0.3,1.9,0.4,2.9l0.4,4.8L228.8,151.9z"/>
			<path style="fill:#EB5F9E;" d="M236.2,153.1c1.1,0.2,2.5,0.1,3.7-0.5c1.9-0.8,2.6-2.3,1.9-3.7c-0.6-1.3-1.7-1.8-3.9-1.7
				c-2.7,0.2-4.7-0.4-5.5-2.4c-1-2.2,0.2-4.7,3-5.9c1.5-0.6,2.7-0.8,3.5-0.7l0.1,1.7c-0.6-0.1-1.7-0.1-3,0.5c-2,0.8-2.2,2.3-1.8,3.3
				c0.6,1.3,1.7,1.6,4,1.5c2.8-0.1,4.6,0.5,5.5,2.6c1,2.2,0.1,4.8-3.2,6.3c-1.4,0.6-3.1,0.8-4.1,0.7L236.2,153.1z"/>
			<path style="fill:#EB5F9E;" d="M246.7,148.6c1.1,0.2,2.5,0.1,3.7-0.5c1.9-0.8,2.6-2.3,1.9-3.7c-0.6-1.3-1.7-1.8-3.9-1.7
				c-2.7,0.2-4.7-0.4-5.5-2.4c-1-2.2,0.2-4.7,3-5.9c1.5-0.6,2.7-0.8,3.5-0.7l0.1,1.7c-0.6-0.1-1.7-0.1-3,0.5c-2,0.8-2.2,2.3-1.8,3.3
				c0.6,1.3,1.7,1.6,4,1.5c2.8-0.1,4.6,0.5,5.5,2.6c1,2.2,0.1,4.8-3.2,6.3c-1.4,0.6-3.1,0.8-4.1,0.7L246.7,148.6z"/>
		</g>
		<g style="clip-path:url(#SVGID_10_);">
			<path style="fill:#EB5F9E;" d="M129.4,168.4c-1-2-2.1-4.3-2.9-6.1l-0.1,0c0.2,1.9,0.4,3.9,0.5,6.2l0.5,8.1l-1.4,0.6l-5.3-5.8
				c-1.6-1.7-2.9-3.3-4.1-4.9l0,0c0.7,1.8,1.7,4.3,2.5,6.5l2.3,6.3l-1.8,0.8l-5.2-14.8l2.4-1l5.4,5.9c1.4,1.5,2.5,2.9,3.5,4.2l0.1,0
				c-0.3-1.6-0.4-3.4-0.6-5.5l-0.4-8.1l2.4-1l7.1,14l-1.8,0.8L129.4,168.4z"/>
			<path style="fill:#EB5F9E;" d="M137.3,167.1l0.5,5.2l-1.9,0.8l-1.3-16.5l2.2-1l11.1,12.3l-2,0.9l-3.5-3.9L137.3,167.1z
				 M141.4,163.7l-3.2-3.5c-0.7-0.8-1.3-1.6-1.9-2.3l0,0c0.2,0.9,0.3,1.9,0.4,2.9l0.4,4.8L141.4,163.7z"/>
			<path style="fill:#EB5F9E;" d="M148.8,164.9c1.1,0.2,2.5,0.1,3.7-0.5c1.9-0.8,2.6-2.3,1.9-3.7c-0.6-1.3-1.7-1.8-3.9-1.7
				c-2.7,0.2-4.7-0.4-5.5-2.4c-1-2.2,0.2-4.7,3-5.9c1.5-0.6,2.7-0.8,3.5-0.7l0.1,1.7c-0.6-0.1-1.7-0.1-3,0.5c-2,0.8-2.2,2.3-1.8,3.3
				c0.6,1.3,1.7,1.6,4,1.5c2.8-0.1,4.6,0.5,5.5,2.6c1,2.2,0.1,4.8-3.2,6.3c-1.4,0.6-3.1,0.8-4.1,0.7L148.8,164.9z"/>
			<path style="fill:#EB5F9E;" d="M157.7,148.6l-4.4,1.9l-0.7-1.6l10.6-4.6l0.7,1.6l-4.4,1.9l5.5,12.8l-1.9,0.8L157.7,148.6z"/>
			<path style="fill:#EB5F9E;" d="M175.6,148l-5.6,2.4l2.2,5.2l6.2-2.7l0.7,1.6l-8.1,3.5l-6.2-14.4l7.8-3.3l0.7,1.6l-5.9,2.5l2,4.5
				l5.6-2.4L175.6,148z"/>
			<path style="fill:#EB5F9E;" d="M175.5,139.3c0.9-0.6,2.2-1.3,3.4-1.8c2-0.9,3.4-1,4.7-0.6c1,0.3,1.8,1.1,2.3,2.2
				c0.8,1.9,0.2,3.7-1.1,4.8l0,0.1c1.3-0.1,2.4,0.6,3.4,2c1.3,1.8,2.3,3,2.8,3.5l-1.9,0.8c-0.4-0.3-1.3-1.4-2.4-3
				c-1.3-1.8-2.4-2.2-4.1-1.6l-1.7,0.8l2.7,6.2l-1.9,0.8L175.5,139.3z M180.1,145l1.9-0.8c2-0.9,2.8-2.5,2.1-4.1
				c-0.8-1.9-2.5-2.1-4.5-1.3c-0.9,0.4-1.5,0.7-1.8,1L180.1,145z"/>
			<path style="fill:#EB5F9E;" d="M202.9,143.7c-0.5,0.6-1.8,1.6-3.5,2.3c-4,1.7-8.2,0.5-10.2-4.2c-1.9-4.5-0.2-8.9,4.3-10.8
				c1.8-0.8,3.1-0.9,3.7-0.8l0.2,1.7c-0.9,0-2,0.1-3.2,0.7c-3.4,1.5-4.7,4.6-3.1,8.3c1.5,3.5,4.5,4.9,8,3.4c1.1-0.5,2.2-1.2,2.8-1.9
				L202.9,143.7z"/>
			<path style="fill:#EB5F9E;" d="M199.3,128.8l1.9-0.8l5.5,12.8l6.1-2.6l0.7,1.6l-8,3.4L199.3,128.8z"/>
			<path style="fill:#EB5F9E;" d="M215.9,133.3l0.5,5.2l-1.9,0.8l-1.3-16.5l2.2-1l11.1,12.3l-2,0.9l-3.5-3.9L215.9,133.3z
				 M220,129.8l-3.2-3.5c-0.7-0.8-1.3-1.6-1.9-2.3l0,0c0.2,0.9,0.3,1.9,0.4,2.9l0.4,4.8L220,129.8z"/>
			<path style="fill:#EB5F9E;" d="M227.3,131c1.1,0.2,2.5,0.1,3.7-0.5c1.9-0.8,2.6-2.3,2-3.7c-0.6-1.3-1.7-1.8-3.9-1.7
				c-2.7,0.2-4.7-0.4-5.5-2.4c-1-2.2,0.2-4.7,3-5.9c1.5-0.6,2.7-0.8,3.5-0.7l0.1,1.7c-0.6-0.1-1.7-0.1-3,0.5c-2,0.8-2.2,2.3-1.8,3.3
				c0.6,1.3,1.7,1.6,4.1,1.5c2.8-0.1,4.6,0.5,5.5,2.6c1,2.2,0.1,4.8-3.2,6.3c-1.4,0.6-3.1,0.8-4.1,0.7L227.3,131z"/>
			<path style="fill:#EB5F9E;" d="M237.9,126.5c1.1,0.2,2.5,0.1,3.7-0.5c1.9-0.8,2.6-2.3,1.9-3.7c-0.6-1.3-1.7-1.8-3.9-1.7
				c-2.7,0.2-4.7-0.4-5.5-2.4c-1-2.2,0.2-4.7,3-5.9c1.5-0.6,2.7-0.8,3.5-0.7l0.1,1.7c-0.6-0.1-1.7-0.1-3,0.5c-2,0.8-2.2,2.3-1.8,3.3
				c0.6,1.3,1.7,1.6,4,1.5c2.8-0.1,4.6,0.5,5.5,2.6c1,2.2,0.1,4.8-3.2,6.3c-1.4,0.6-3.1,0.8-4.1,0.7L237.9,126.5z"/>
		</g>
	</g>
	<g>
		<path style="fill:#DBDDDC;" d="M129.1,351l246-106.7l0,0c2.8,6.4-0.2,13.8-6.5,16.5l-222.9,96.7c-3.1,1.3-6.5,1.4-9.6,0.2
			C133,356.5,130.5,354.1,129.1,351L129.1,351z"/>
	</g>
	<g>
		<path style="fill:#B2B2B2;" d="M145.7,357.5l222.9-96.7c4-1.7,6.8-5.4,7.4-9.7L133.6,356.3C137.1,358.8,141.7,359.2,145.7,357.5
			L145.7,357.5z"/>
	</g>
</g>
<g>
	<path style="fill:#FFFFFF;" d="M175.1,220.7c-10.3,4.1-21.7,8.4-31,14.4c-1.5,1-1,3.8,1.1,3.3c11-2.8,22-8.3,32.1-13.2
		C180.3,223.8,178.1,219.6,175.1,220.7z"/>
</g>
<g>
	<path style="fill:#FFFFFF;" d="M213.4,219.7c-14.8,7-29.7,13.8-44.7,20.4c-2.5,1.1-1,5.1,1.5,4c15-6.5,30.1-12.9,45.2-19
		C218.8,223.7,216.7,218.2,213.4,219.7z"/>
</g>
<g>
	<path style="fill:#FFFFFF;" d="M190.6,247.7c-10.4,4.2-21.2,8.6-31.1,14c-2.7,1.5-0.8,6,2.2,5c10.6-3.7,21.2-8.5,31.4-13.3
		C196.2,251.9,193.8,246.3,190.6,247.7z"/>
</g>
<g>
	<path style="fill:#FFFFFF;" d="M275.3,237.8c-14.8,5.3-29.3,12.5-43.7,19l-21.7,9.8c-7.4,3.3-15.4,6.3-22.2,10.7
		c-2,1.3-0.8,4.7,1.7,4c7.2-1.9,14.2-5.4,21.1-8.3l22.8-9.8c14.8-6.3,30.2-12.2,44.4-19.7C280.7,241.9,278.6,236.6,275.3,237.8z"/>
</g>
<g>
	<path style="fill:#FFFFFF;" d="M206.4,291.6c-8.8,3.1-17.2,7-25.2,11.7c-2,1.2-1.3,5,1.3,4.2c9.1-2.8,17.8-6.4,26.2-10.8
		c1.2-0.8,1.6-2.3,1-3.5C209.1,291.9,207.7,291.2,206.4,291.6z"/>
</g>
<g>
	<path style="fill:#FFFFFF;" d="M262.4,267.9c-9,3.9-18.2,7.8-26.8,12.4c-2.2,1.2-0.9,5,1.6,4.2c9.5-3.3,18.8-7.5,28-11.6
		C268.5,271.4,265.7,266.5,262.4,267.9z"/>
</g>
<g>
	<path style="fill:#FF3369;" d="M178.7,281.4c-4.3,1.9-8.5,4.1-12.5,6.5c-1.8,1.1-1,4.3,1.3,3.7c4.7-1.4,9.4-3.1,13.9-5.1
		C184.8,285.1,182.1,279.7,178.7,281.4z"/>
</g>
<g>
	<path style="fill:#FF3369;" d="M160.9,242.4c-3.6,1.7-6.9,3.9-10,6.4c-1,0.8-0.7,2.8,0.8,2.6c4.1-0.6,8.1-1.6,11.9-3.2
		C168,246.4,165.2,240.3,160.9,242.4z"/>
</g>
<g>
	<path style="fill:#FF3369;" d="M226,282.8c-4.1,1.9-8.1,4.1-11.9,6.5c-1.9,1.2-0.3,3.9,1.6,3.4c4.1-1.2,8.2-2.5,12.2-4.2
		C231.5,287,229.4,281.2,226,282.8z"/>
</g>
<g>
	<path style="fill:#FF3369;" d="M247.6,222.4c-8.1,2.8-15.9,7.1-23.6,10.6c-7.8,3.5-15.7,7.2-23.4,11c-2.8,1.4-0.8,5.4,2,4.3
		c8.1-3.1,16-6.5,24-9.8c8-3.4,16.3-6.1,23.8-10.2C254.2,226.3,251.6,221.1,247.6,222.4z"/>
</g>
<g>
	<defs>
		<path id="SVGID_11_" d="M223.3,446.5c-59.6,0-115.7-23.2-157.9-65.4C23.2,339,0,282.9,0,223.3S23.2,107.6,65.4,65.4
			C107.6,23.2,163.6,0,223.3,0S339,23.2,381.1,65.4c42.2,42.2,65.4,98.2,65.4,157.9S423.3,339,381.1,381.1
			C339,423.3,282.9,446.5,223.3,446.5z M223.3,24.1c-109.8,0-199.2,89.3-199.2,199.2c0,109.8,89.3,199.2,199.2,199.2
			s199.2-89.3,199.2-199.2C422.4,113.4,333.1,24.1,223.3,24.1z"/>
	</defs>
	<use xlink:href="#SVGID_11_"  style="overflow:visible;fill:#F5AB40;"/>
	<clipPath id="SVGID_12_">
		<use xlink:href="#SVGID_11_"  style="overflow:visible;"/>
	</clipPath>
</g>
</svg>
