<?xml version="1.0" encoding="UTF-8"?>
<svg version="1.1" xmlns="http://www.w3.org/2000/svg" width="1334" height="751">
<path d="M0 0 C440.22 0 880.44 0 1334 0 C1334 247.83 1334 495.66 1334 751 C893.78 751 453.56 751 0 751 C0 503.17 0 255.34 0 0 Z " fill="#FEFEFE" transform="translate(0,0)"/>
<path d="M0 0 C64.02 0 128.04 0 194 0 C194 64.02 194 128.04 194 194 C129.98 194 65.96 194 0 194 C0 129.98 0 65.96 0 0 Z " fill="#FE1E80" transform="translate(94,282)"/>
<path d="M0 0 C1.23065186 0.00563965 2.46130371 0.0112793 3.72924805 0.01708984 C32.14766308 0.39542767 56.573007 12.07995238 77 31.625 C89.7451131 44.83189256 100.05150384 62.36556044 104.25 80.3125 C104.42442627 81.00005371 104.59885254 81.68760742 104.77856445 82.39599609 C106.52468523 89.93743822 106.58186189 97.34872254 106.5625 105.0625 C106.57861328 106.3309375 106.59472656 107.599375 106.61132812 108.90625 C106.62531513 136.32077995 95.14700871 160.89627924 76.7265625 180.8359375 C54.83508683 202.72741317 27.79242598 212.59151384 -2.76025391 212.69750977 C-32.68529936 212.24305784 -57.70038984 198.61593281 -78.25 177.77734375 C-98.31970135 156.38548302 -106.91718454 128.48485002 -106.09375 99.58203125 C-104.58677386 70.45971738 -90.83548179 44.58443036 -69.32397461 25.16210938 C-49.97105115 8.26829617 -25.44274342 -0.12243019 0 0 Z " fill="#FE1E80" transform="translate(890.75,270.6875)"/>
<path d="M0 0 C7.56389831 -0.0911102 15.12758592 -0.16417593 22.69190311 -0.20724869 C26.20602704 -0.22794294 29.71974957 -0.25591769 33.23364258 -0.30175781 C55.89568338 -0.58949643 74.42026218 -0.41780645 91.89453125 15.7265625 C105.49381648 30.41076288 106.30237989 47.16663957 106.29052734 66.01879883 C106.29652064 67.92871867 106.30332801 69.83863611 106.31088257 71.74855042 C106.32846659 76.90984456 106.33323468 82.07107229 106.33451414 87.2323935 C106.33594043 90.46366383 106.34021901 93.69491752 106.34550858 96.9261837 C106.36398256 108.21780841 106.37218235 119.50938606 106.37060547 130.80102539 C106.36940427 141.29668619 106.39050935 151.7921413 106.4220928 162.28775007 C106.44831083 171.32506832 106.45897047 180.36231959 106.45769465 189.39967555 C106.45718672 194.78572285 106.46277661 200.17158708 106.48405075 205.55759621 C106.50352693 210.62619067 106.50349385 215.69442913 106.48901749 220.76303673 C106.48694 222.61322428 106.4915663 224.46343469 106.5037384 226.31358337 C106.61409145 244.26278254 103.57900223 259.48557166 90.95703125 273.125 C81.01058672 282.65452769 67.71148256 288.11920296 53.9180932 288.12880117 C52.68604938 288.13207336 51.45400555 288.13534555 50.18462706 288.13871691 C48.81769775 288.13730688 47.45076853 288.13580487 46.08383942 288.13422108 C44.62550991 288.13617428 43.16718093 288.13856323 41.70885277 288.14134905 C37.68296452 288.14775615 33.65709621 288.1479101 29.63120384 288.14707164 C25.25819035 288.147241 20.88518404 288.15314556 16.51217413 288.1583125 C7.83047645 288.16764598 -0.85121613 288.1715618 -9.53291819 288.17383147 C-19.92852727 288.17679158 -30.32412956 288.18548786 -40.71973508 288.19424575 C-65.84802318 288.21509871 -90.97631247 288.22556118 -116.10460721 288.23437535 C-127.98940054 288.23858054 -139.87419336 288.24380269 -151.75898626 288.24905988 C-192.43279581 288.26695057 -233.1066055 288.28194722 -273.7804184 288.28938007 C-276.33435183 288.28985483 -278.88828526 288.29033072 -281.44221869 288.29080774 C-282.70875385 288.29104411 -283.97528901 288.29128049 -285.28020403 288.29152403 C-291.69721935 288.29272524 -298.11423468 288.29394068 -304.53125 288.29516602 C-306.44147204 288.29552624 -306.44147204 288.29552624 -308.39028443 288.29589374 C-349.68656105 288.30378799 -390.98280897 288.32722217 -432.27907305 288.35972196 C-475.92806891 288.39401069 -519.57704797 288.41373032 -563.22605753 288.41702431 C-568.01665656 288.41744186 -572.80725559 288.41792143 -577.59785461 288.41844749 C-578.77745612 288.41857069 -579.95705763 288.41869388 -581.17240464 288.4188208 C-600.16513853 288.42115399 -619.1578391 288.43682055 -638.1505611 288.45728934 C-657.2374011 288.4775334 -676.32420104 288.48303135 -695.41104978 288.47351871 C-706.75282673 288.46829828 -718.09447041 288.47420688 -729.43622821 288.49605338 C-737.01275024 288.50954536 -744.58918038 288.50849862 -752.16570331 288.49565142 C-756.48239212 288.48874419 -760.79882585 288.48812139 -765.11549205 288.50521151 C-769.04759882 288.52065213 -772.97924626 288.51745575 -776.9113397 288.49980123 C-778.32010497 288.49666818 -779.72890571 288.50014338 -781.13763034 288.51129298 C-797.23699391 288.63034748 -812.12356687 284.15053909 -824 273 C-831.22062206 265.07262864 -835.05127092 257.21524001 -838 247 C-838.18070541 246.3928717 -838.36141083 245.78574341 -838.54759216 245.16021729 C-839.09853883 242.52948364 -839.11958086 240.09390042 -839.11352539 237.40527344 C-839.11344986 236.28441345 -839.11337433 235.16355347 -839.11329651 234.00872803 C-839.10813522 232.80444153 -839.10297394 231.60015503 -839.09765625 230.359375 C-839.0962413 229.12205627 -839.09482635 227.88473755 -839.09336853 226.60992432 C-839.0887211 223.32855059 -839.07974347 220.04722627 -839.06866455 216.76586914 C-839.0584152 213.41422989 -839.05394859 210.06258852 -839.04882812 206.7109375 C-839.038651 200.14058566 -839.01907523 193.57035617 -839 187 C-847.91 187 -856.82 187 -866 187 C-864.53041534 183.32603835 -863.38449572 180.83681337 -861.23779297 177.67553711 C-860.68316376 176.85375473 -860.12853455 176.03197235 -859.55709839 175.18528748 C-858.9581778 174.30816605 -858.3592572 173.43104462 -857.7421875 172.52734375 C-857.12030548 171.60844864 -856.49842346 170.68955353 -855.85769653 169.74281311 C-853.86788698 166.8046817 -851.87162337 163.8710042 -849.875 160.9375 C-847.90544074 158.03411464 -845.93719629 155.1298412 -843.96905518 152.22549438 C-842.70201276 150.35696535 -841.43376031 148.48925621 -840.16424561 146.62240601 C-836.18734008 140.77180579 -832.26560484 134.89092305 -828.42236328 128.95141602 C-827 127 -827 127 -825 126 C-824.40574219 126.95777344 -823.81148437 127.91554688 -823.19921875 128.90234375 C-817.33702164 138.3283066 -811.35762403 147.67145477 -805.30957031 156.97900391 C-802.931836 160.64844548 -800.57796489 164.33322673 -798.22265625 168.01708984 C-795.04880137 172.96397547 -791.75777569 177.82491966 -788.43359375 182.671875 C-787 185 -787 185 -787 187 C-795.91 187 -804.82 187 -814 187 C-813.99487481 194.47252436 -813.9714185 201.94052405 -813.90234375 209.41210938 C-813.88426803 211.94916541 -813.87659979 214.4863192 -813.87988281 217.0234375 C-813.88276396 220.688257 -813.84719531 224.35108345 -813.8046875 228.015625 C-813.81378143 229.13487366 -813.82287537 230.25412231 -813.83224487 231.4072876 C-813.67287878 240.2049847 -811.253348 247.81060629 -805.59762573 254.71099854 C-797.4947658 262.11785459 -788.08462799 262.57966223 -777.65132427 262.50615788 C-776.19484628 262.51063859 -774.73837282 262.51686945 -773.2819089 262.52468321 C-769.27971033 262.54107706 -765.27789278 262.53261195 -761.27569453 262.52007158 C-756.9215327 262.51082493 -752.5674346 262.52475112 -748.21328527 262.53571075 C-740.58200667 262.55170118 -732.95083833 262.55278686 -725.31954956 262.54411316 C-713.97148683 262.53124958 -702.62352393 262.54119816 -691.2754672 262.55561271 C-671.00799148 262.58056229 -650.74056244 262.58243238 -630.47307584 262.57433859 C-612.73493164 262.56726946 -594.99680557 262.56720483 -577.25866127 262.57420158 C-574.88050676 262.57511291 -572.50235224 262.57602367 -570.12419773 262.57693387 C-566.54064999 262.57831698 -562.95710226 262.57970807 -559.37355453 262.58112001 C-526.05031784 262.59410371 -492.72708724 262.5992115 -459.4038496 262.5875864 C-458.14731515 262.58714843 -456.89078069 262.58671046 -455.59616943 262.58625922 C-445.39183373 262.58265229 -435.1874981 262.57881757 -424.98316249 262.57496829 C-385.17877234 262.56012103 -345.37445081 262.56889841 -305.57006836 262.59692383 C-260.86038272 262.62834269 -216.1507377 262.64332453 -171.44104081 262.63312382 C-166.67495589 262.63208702 -161.90887096 262.63109979 -157.14278603 262.6301403 C-155.38246053 262.62976697 -155.38246053 262.62976697 -153.58657291 262.6293861 C-135.86110342 262.62594414 -118.13566977 262.63525947 -100.41020775 262.65091133 C-80.25413322 262.6686684 -60.09814599 262.66882929 -39.94207522 262.64555968 C-28.66003577 262.63304659 -17.37819684 262.63433063 -6.09616911 262.65544054 C1.43912893 262.66815448 8.97427238 262.6627022 16.50955358 262.64245573 C20.80347658 262.6314265 25.0970051 262.62825175 29.39090965 262.64713103 C33.30120022 262.66415891 37.21075676 262.65797223 41.12100258 262.63366519 C42.52294159 262.62894204 43.92494075 262.63249295 45.3268266 262.64558421 C55.10250732 262.73050856 64.62954195 261.71021502 72.26864766 255.01025942 C78.22888385 248.74631496 80.45796034 242.37685086 80.38768005 233.82255554 C80.39306559 233.02733752 80.39845113 232.23211949 80.40399987 231.41280395 C80.41824383 228.762917 80.41118458 226.11353212 80.40405273 223.46362305 C80.40975825 221.55765381 80.41672321 219.65168799 80.42485046 217.74572754 C80.44277908 212.57823069 80.44161375 207.41090368 80.43590808 202.24338508 C80.43281512 197.92446353 80.43891004 193.60557455 80.44494683 189.28665763 C80.45899012 179.09382813 80.457433 168.90108243 80.44604492 158.70825195 C80.43456989 148.20576808 80.44862955 137.70353975 80.4754414 127.20108956 C80.49762268 118.17324774 80.50423011 109.14548599 80.49836498 100.11761886 C80.49499931 94.73053323 80.49738443 89.34361131 80.51461601 83.95654869 C80.53012119 78.88800332 80.52608988 73.81983528 80.50731087 68.75130463 C80.50363457 66.89622124 80.50670535 65.04110968 80.51719666 63.18605232 C80.68927353 47.84470881 80.68927353 47.84470881 73.921875 34.37890625 C73.20515625 33.77949219 72.4884375 33.18007813 71.75 32.5625 C70.69039062 31.63630859 70.69039062 31.63630859 69.609375 30.69140625 C61.77337673 25.61208402 54.41743738 25.5348526 45.3125 25.48828125 C44.01425293 25.47033005 42.71600586 25.45237885 41.37841797 25.43388367 C37.9525042 25.38667401 34.52665492 25.35667826 31.1005249 25.33044434 C27.59423082 25.30049081 24.08815841 25.25401196 20.58203125 25.20898438 C13.7214663 25.12328247 6.86086023 25.05732163 0 25 C0 16.75 0 8.5 0 0 Z " fill="#FEC002" transform="translate(1016,366)"/>
<path d="M0 0 C3.62499626 3.27818569 6.0578625 7.04026289 8.5625 11.1875 C9.45320874 12.63746788 10.34517693 14.08666269 11.23828125 15.53515625 C11.69541504 16.27781738 12.15254883 17.02047852 12.62353516 17.78564453 C14.78506079 21.26294809 17.01561711 24.69422561 19.25 28.125 C23.49963929 34.66162122 27.69756782 41.22951434 31.875 47.8125 C36.85436247 55.6550974 41.88513144 63.46158324 46.95996094 71.24267578 C51.38461129 78.03452742 55.76010503 84.85711938 60.125 91.6875 C65.95612413 100.81204635 71.81200205 109.91958729 77.70556641 119.00390625 C80.43644063 123.21507706 83.16115715 127.43023661 85.88720703 131.64453125 C88.11436143 135.08714081 90.3426418 138.5290053 92.57421875 141.96875 C98.65605586 151.3476373 104.69691121 160.75235612 110.71411133 170.17285156 C113.92595853 175.20101953 117.14204149 180.22617731 120.38172913 185.2364502 C121.49775336 186.96277263 122.61204351 188.69020195 123.72583008 190.41796875 C125.12980038 192.594657 126.53705015 194.76923444 127.94799805 196.94140625 C128.58133057 197.92496094 129.21466309 198.90851563 129.8671875 199.921875 C130.42519043 200.78393555 130.98319336 201.64599609 131.55810547 202.53417969 C133 205 133 205 135 210 C44.25 210 -46.5 210 -140 210 C-138.38554463 205.96386157 -137.28481312 203.81225967 -134.75 200.515625 C-130.78111243 195.17014129 -127.08738932 189.67700277 -123.4375 184.109375 C-122.54828857 182.75344238 -122.54828857 182.75344238 -121.64111328 181.37011719 C-120.40018401 179.47563403 -119.15996502 177.58068545 -117.92041016 175.68530273 C-100.69803533 149.36129911 -100.69803533 149.36129911 -93 138.5 C-85.42625267 127.79716813 -78.25806914 116.83396198 -71.0625 105.875 C-59.48533918 88.24639481 -47.76926881 70.72089387 -35.92733765 53.26931763 C-29.61134353 43.95912336 -23.32399286 34.62960585 -17.03515625 25.30105591 C-15.09535101 22.42372815 -13.1551531 19.54666556 -11.21484375 16.66967773 C-10.02993469 14.91260658 -8.84503821 13.15552693 -7.66015625 11.3984375 C-6.84328087 10.18715431 -6.84328087 10.18715431 -6.00990295 8.95140076 C-5.50913742 8.20866409 -5.00837189 7.46592743 -4.49243164 6.70068359 C-3.83942833 5.73224014 -3.83942833 5.73224014 -3.17323303 4.74423218 C-2.11137535 3.16558046 -1.05534289 1.58301433 0 0 Z " fill="#1C0F5F" transform="translate(535,264)"/>
<path d="M0 0 C0.90043341 -0.00175304 1.80086681 -0.00350607 2.72858608 -0.00531223 C5.76763133 -0.00999088 8.80662912 -0.00750194 11.84567642 -0.00507832 C14.03782129 -0.00694535 16.22996583 -0.00924562 18.42210984 -0.01194364 C24.46326858 -0.01808138 30.50441352 -0.01792573 36.54557467 -0.01674926 C43.05424114 -0.01654575 49.56290313 -0.02205928 56.07156754 -0.02680683 C68.83001603 -0.03534284 81.58846059 -0.03787514 94.34691164 -0.03841921 C104.71478924 -0.03887845 115.08266534 -0.04093522 125.45054245 -0.04411983 C128.43310745 -0.04501736 131.41567246 -0.04590717 134.39823747 -0.04679471 C135.13967983 -0.04701576 135.88112219 -0.04723681 136.6450325 -0.04746456 C157.50612219 -0.05362045 178.36721136 -0.05756495 199.228302 -0.05712128 C200.01511785 -0.0571057 200.80193369 -0.05709012 201.61259245 -0.05707407 C205.60064966 -0.05699096 209.58870687 -0.05689192 213.57676408 -0.05678936 C214.36882904 -0.05676942 215.16089401 -0.05674947 215.97696094 -0.05672892 C217.57871041 -0.05668848 219.18045988 -0.05664669 220.78220936 -0.05660353 C245.70247976 -0.05599078 270.62273657 -0.06349652 295.54300308 -0.07717609 C323.53072196 -0.0925331 351.5184319 -0.10114254 379.50615525 -0.10021287 C382.48997768 -0.10013824 385.4738001 -0.10008953 388.45762253 -0.10005856 C389.55968853 -0.10004107 389.55968853 -0.10004107 390.6840185 -0.10002324 C402.51342057 -0.09999245 414.34281085 -0.10638154 426.17220942 -0.11499082 C438.0595065 -0.12346334 449.94678629 -0.12446041 461.83408472 -0.1178815 C468.27546678 -0.11460859 474.71680602 -0.11458732 481.15818405 -0.12323475 C487.05268314 -0.13106674 492.94710522 -0.12970221 498.84160236 -0.12095062 C500.97620085 -0.11940832 503.11080499 -0.12125908 505.24539682 -0.12681069 C508.14371269 -0.13385045 511.04175693 -0.12859298 513.94006348 -0.12025452 C514.77141575 -0.1252227 515.60276803 -0.13019088 516.4593128 -0.13530961 C531.26359887 -0.04508569 543.64925464 6.32318459 554.44827652 16.1559782 C568.36026421 30.57825115 570.69222909 48.78977605 570.5906105 67.88937664 C570.5930851 69.52051832 570.59693013 71.1516584 570.60202408 72.782794 C570.61029464 76.26555765 570.60961274 79.7481574 570.60183907 83.23092175 C570.590157 88.74607551 570.60249911 94.26102276 570.61845779 99.77615643 C570.65447693 113.46514972 570.66088132 127.15413657 570.65835953 140.84317303 C570.65664571 151.50506525 570.66382268 162.16678628 570.69833809 172.82863069 C570.71506751 178.30369116 570.71339485 183.77833238 570.69751537 189.25339079 C570.69169708 192.66387922 570.7024955 196.0741709 570.71776199 199.48462391 C570.72147075 201.05751548 570.71843104 202.63044079 570.70789146 204.20330143 C570.65483408 212.69072535 570.71056039 220.6414062 575.22171402 228.12863445 C576.22140926 229.12893912 577.22134896 230.12899964 578.22171402 231.12863445 C578.22171402 231.78863445 578.22171402 232.44863445 578.22171402 233.12863445 C578.99515152 233.49988445 578.99515152 233.49988445 579.78421402 233.87863445 C582.29510694 235.16627185 584.66702439 236.61873211 587.04983902 238.12863445 C594.64568368 241.62600178 602.48665143 241.46548919 610.69046402 241.54269695 C611.96651505 241.5620631 613.24256607 241.58142925 614.55728531 241.60138226 C617.92405302 241.65081164 621.29071794 241.69217332 624.65762711 241.72952557 C628.10356521 241.76977471 631.54934568 241.82066829 634.99515152 241.87082195 C641.73727677 241.96818116 648.47928602 242.04796309 655.22171402 242.12863445 C655.22171402 233.54863445 655.22171402 224.96863445 655.22171402 216.12863445 C659.98670738 218.8514878 664.56224142 221.60448847 669.09280777 224.66769695 C670.41419998 225.55483003 671.73565422 226.4418707 673.05716324 227.32882977 C673.73929886 227.7877763 674.42143448 228.24672283 675.12424088 228.71957684 C678.64095662 231.08206482 682.16820983 233.42871506 685.69437027 235.77707195 C687.12215479 236.72881965 688.54988904 237.68064276 689.97757339 238.6325407 C691.03947891 239.34047771 691.03947891 239.34047771 692.12283707 240.06271648 C706.74930191 249.81369305 706.74930191 249.81369305 708.50738907 250.99356365 C709.66450354 251.75970011 710.83147381 252.51112706 712.00708389 253.24856853 C713.44422361 254.15958455 714.83807244 255.13825234 716.22171402 256.12863445 C716.22171402 256.78863445 716.22171402 257.44863445 716.22171402 258.12863445 C714.47195816 259.46628094 714.47195816 259.46628094 712.00687027 260.9997282 C711.10178726 261.56828533 710.19670425 262.13684246 709.26419449 262.72262859 C708.28080093 263.33098553 707.29740738 263.93934246 706.28421402 264.56613445 C704.2461145 265.84423971 702.20835718 267.12289079 700.17093277 268.40207195 C699.15692398 269.03596844 698.14291519 269.66986492 697.09817886 270.32297039 C693.24135657 272.74404132 689.41530099 275.21035176 685.59671402 277.69113445 C684.93478043 278.11942547 684.27284683 278.54771648 683.59085464 278.98898602 C679.64821833 281.54243839 675.71905517 284.11561175 671.79593277 286.69894695 C670.87957047 287.30021404 669.96320816 287.90148113 669.0190773 288.52096844 C667.22454015 289.69890378 665.43245649 290.88058719 663.64310074 292.06637859 C662.83501968 292.59610271 662.02693863 293.12582684 661.19437027 293.6716032 C660.47515396 294.1462199 659.75593765 294.6208366 659.01492691 295.10983562 C657.22171402 296.12863445 657.22171402 296.12863445 655.22171402 296.12863445 C655.22171402 286.22863445 655.22171402 276.32863445 655.22171402 266.12863445 C650.51276871 266.1750407 645.80382339 266.22144695 640.95218277 266.26925945 C637.94890518 266.28972472 634.94571493 266.30898222 631.94241714 266.32394695 C627.18710602 266.34775482 622.43210623 266.37575892 617.67703629 266.43039227 C613.83850913 266.47421335 610.00031636 266.49784695 606.16155815 266.50814342 C604.7052758 266.51547042 603.24900941 266.5297763 601.79287148 266.55155468 C585.89832908 266.7795797 572.31813415 262.01694893 560.47171402 251.06613445 C548.0447471 237.82576606 544.76350363 223.22098371 544.83694839 205.5466032 C544.83283679 203.88649404 544.82737245 202.22638776 544.82066727 200.56628704 C544.80899429 197.00870486 544.8064392 193.4512776 544.81102371 189.89367962 C544.81786572 184.26122487 544.80191049 178.62897191 544.78262711 172.99655437 C544.7416547 160.02509909 544.73023943 147.05364995 544.71909714 134.08214092 C544.70857408 122.18751415 544.69172421 110.29298511 544.65100145 98.39841843 C544.63270703 92.80635022 544.62873047 87.21451503 544.63593674 81.62242413 C544.63746454 78.13657475 544.62663767 74.65084076 544.61255836 71.16502285 C544.60857493 69.55666191 544.6096477 67.9482787 544.6163311 66.33992672 C544.66349343 54.03970891 544.07863103 43.40351834 535.22171402 34.12863445 C528.09179562 27.72451613 521.73186077 25.82485611 512.28100586 25.86857224 C511.38730583 25.86476656 510.49360579 25.86096089 509.57282394 25.8570399 C506.56866419 25.84670752 503.56469281 25.85063336 500.56052017 25.85447979 C498.3886971 25.85002829 496.21687564 25.84471454 494.04505658 25.83861107 C488.06927695 25.82441021 482.09354927 25.82276817 476.11775517 25.82320797 C469.67588042 25.82156162 463.23402719 25.80849856 456.79216385 25.79701519 C443.43664609 25.77487039 430.08114093 25.76675774 416.72560723 25.76198019 C415.99974818 25.76171901 415.27388913 25.76145784 414.52603436 25.76118875 C413.43505952 25.76079833 413.43505952 25.76079833 412.32204479 25.76040004 C404.26200073 25.75731768 396.20195996 25.75081293 388.14191818 25.74418736 C363.79802867 25.72454015 339.4541427 25.70813526 315.11024475 25.70531082 C313.94231614 25.70516973 313.94231614 25.70516973 312.750793 25.70502579 C309.59538824 25.70464731 306.43998347 25.70428331 303.2845787 25.70392281 C300.9096199 25.70365109 298.5346611 25.70337441 296.1597023 25.70309734 C294.98253651 25.70296531 294.98253651 25.70296531 293.7815896 25.70283061 C269.12276118 25.69992509 244.46401115 25.67782817 219.80521011 25.64157391 C192.10311424 25.60084634 164.40107178 25.57715225 136.69894433 25.57685131 C133.74488719 25.57675449 130.79083006 25.57658776 127.83677292 25.57637119 C127.10940585 25.57632708 126.38203878 25.57628296 125.63263028 25.57623751 C113.92830124 25.57511774 102.22405075 25.55771025 90.519747 25.53455187 C78.75585391 25.51170743 66.99207593 25.5079094 55.22816864 25.52210117 C48.85529876 25.52928301 42.48270096 25.52835721 36.10986137 25.50569057 C30.27564844 25.48513831 24.44191742 25.48766643 18.60770991 25.50856542 C16.49735832 25.51206742 14.38697222 25.50712042 12.2766659 25.49286098 C-0.40477932 25.41269588 -9.51607011 25.75119975 -19.59078598 34.19113445 C-26.98744523 42.27002553 -28.51917218 52.33072293 -28.43770981 62.87375164 C-28.45343536 64.69054424 -28.45343536 64.69054424 -28.46947861 66.54403973 C-28.49312888 69.824497 -28.495208 73.10406536 -28.48718476 76.38456917 C-28.48403396 79.82793783 -28.50916857 83.27110537 -28.53113937 86.71438885 C-28.56841316 93.21639838 -28.58071741 99.71819885 -28.58376378 106.22030473 C-28.58847284 113.6304571 -28.62145498 121.04040239 -28.65666163 128.45046282 C-28.72837792 143.6764962 -28.76507782 158.9024293 -28.77828598 174.12863445 C-31.02324256 171.34088682 -33.21710217 168.59990899 -35.13766098 165.5778532 C-35.53082504 164.96232586 -35.92398911 164.34679852 -36.32906723 163.71261883 C-36.72480942 163.08677898 -37.12055161 162.46093914 -37.52828598 161.81613445 C-38.14510239 160.84837078 -38.14510239 160.84837078 -38.77437973 159.86105633 C-39.77824909 158.28521489 -40.77862954 156.70715178 -41.77828598 155.12863445 C-45.19115108 159.30995924 -48.25163974 163.66021331 -51.29000473 168.1169157 C-51.78113754 168.78078289 -52.27227036 169.44465008 -52.77828598 170.12863445 C-53.10828598 170.12863445 -53.43828598 170.12863445 -53.77828598 170.12863445 C-53.84857195 154.4290836 -53.90136963 138.7295757 -53.9337225 123.02990627 C-53.94914818 115.73919424 -53.97015472 108.44858034 -54.00460434 101.15793133 C-54.03463918 94.79852581 -54.05389217 88.43919141 -54.06055146 82.07971692 C-54.06444011 78.71677753 -54.07509582 75.35420163 -54.09547615 71.99129772 C-54.11738959 68.22413061 -54.12024703 64.45737892 -54.11886215 60.69015789 C-54.13504089 59.04368771 -54.13504089 59.04368771 -54.15154648 57.3639555 C-54.08726131 41.10522487 -48.45240161 27.11975243 -37.15328598 15.3434782 C-26.62059431 5.52105028 -14.37948239 -0.03515383 0 0 Z " fill="#FEC002" transform="translate(577.7782859802246,109.87136554718018)"/>
<path d="M0 0 C7.13524847 4.54061266 14.22650893 9.10667453 21.25 13.8125 C23.08978851 15.04305135 24.92963256 16.27351965 26.76953125 17.50390625 C27.65979004 18.09961426 28.55004883 18.69532227 29.46728516 19.30908203 C31.70731748 20.80459619 33.95156859 22.29331481 36.19921875 23.77734375 C44.6042696 29.33238758 52.84014661 35.0907071 61 41 C57.36062743 45.12722412 52.9514227 47.70938188 48.3125 50.5625 C46.59193999 51.63460196 44.87189792 52.70753551 43.15234375 53.78125 C42.28722168 54.32007813 41.42209961 54.85890625 40.53076172 55.4140625 C36.78784709 57.7596127 33.07913845 60.15633345 29.375 62.5625 C28.35043701 63.22668945 28.35043701 63.22668945 27.30517578 63.90429688 C23.63391015 66.28556496 19.96685765 68.67325292 16.30078125 71.0625 C15.52879395 71.56450928 14.75680664 72.06651855 13.96142578 72.58374023 C12.48334087 73.54495564 11.00638745 74.50791399 9.53076172 75.47290039 C8.86447754 75.90594482 8.19819336 76.33898926 7.51171875 76.78515625 C6.92865967 77.16551025 6.34560059 77.54586426 5.74487305 77.93774414 C3.89131812 79.0661641 1.94092709 80.02953645 0 81 C0 71.76 0 62.52 0 53 C-19.14 53 -38.28 53 -58 53 C-58 44.75 -58 36.5 -58 28 C-38.86 28 -19.72 28 0 28 C0 18.76 0 9.52 0 0 Z " fill="#FEC002" transform="translate(376,335)"/>
<path d="M0 0 C4.3036161 1.72144644 7.15963032 3.35291728 10.875 6 C12.04736486 6.82667391 13.22057225 7.65215399 14.39453125 8.4765625 C14.99604004 8.89969727 15.59754883 9.32283203 16.21728516 9.75878906 C18.96958143 11.67506874 21.76514771 13.52551747 24.5625 15.375 C32.39425352 20.56577552 40.16478386 25.84646189 47.9375 31.125 C48.58179962 31.56253601 49.22609924 32.00007202 49.8899231 32.4508667 C53.59384147 34.96642172 57.2971592 37.48285898 61 40 C58.05180556 42.40204246 55.10290548 44.67649368 51.91015625 46.7421875 C51.13671875 47.24403564 50.36328125 47.74588379 49.56640625 48.26293945 C48.74011719 48.79491943 47.91382813 49.32689941 47.0625 49.875 C46.19367188 50.43727295 45.32484375 50.9995459 44.4296875 51.57885742 C36.87837991 56.45664125 29.29135238 61.27821327 21.6965332 66.08789062 C15.73775987 69.86837802 9.85366915 73.73113605 4.046875 77.7421875 C2 79 2 79 0 79 C0 70.09 0 61.18 0 52 C-19.47 52 -38.94 52 -59 52 C-59 43.75 -59 35.5 -59 27 C-39.53 27 -20.06 27 0 27 C0 18.09 0 9.18 0 0 Z " fill="#FEC001" transform="translate(702,336)"/>
</svg>
