<?xml version="1.0" encoding="UTF-8"?>
<svg version="1.1" xmlns="http://www.w3.org/2000/svg" width="1334" height="751">
<path d="M0 0 C440.22 0 880.44 0 1334 0 C1334 247.83 1334 495.66 1334 751 C893.78 751 453.56 751 0 751 C0 503.17 0 255.34 0 0 Z " fill="#FEFEFE" transform="translate(0,0)"/>
<path d="M0 0 C20.21762366 17.85068235 35.22753817 42.94789783 37.2734375 70.328125 C38.62461927 99.60373011 32.11164281 127.64626063 12.40234375 150.12109375 C11.81195313 150.85457031 11.2215625 151.58804688 10.61328125 152.34375 C-5.45743689 171.73119082 -31.34360468 185.01451799 -56.24609375 187.91015625 C-84.48250501 189.68727304 -113.32781056 184.09870575 -135.34765625 165.12890625 C-136.09015625 164.46632813 -136.83265625 163.80375 -137.59765625 163.12109375 C-138.40203125 162.45851563 -139.20640625 161.7959375 -140.03515625 161.11328125 C-159.90990736 144.28185141 -172.94990458 119.03525906 -175.59765625 93.12109375 C-177.20295076 64.11744238 -171.02563129 36.3374348 -151.90234375 13.6796875 C-112.08802949 -30.52094952 -47.29965441 -39.32694119 0 0 Z " fill="#FE1E80" transform="translate(253.59765625,295.87890625)"/>
<path d="M0 0 C1.09033585 2.26986504 1.09033585 2.26986504 2.11383057 5.33908081 C2.70276093 7.07636948 2.70276093 7.07636948 3.30358887 8.84875488 C3.72899573 10.14372134 4.15415839 11.43876803 4.57910156 12.73388672 C5.03335767 14.08909261 5.48864363 15.44395368 5.94488525 16.79849243 C7.18303486 20.48494464 8.40598302 24.17627836 9.62585163 27.86881399 C10.9026981 31.72699054 12.19168711 35.58110843 13.47894287 39.43582153 C15.63924092 45.91130598 17.78979307 52.38996503 19.93457031 58.87060547 C22.41627497 66.36892876 24.91285209 73.86217071 27.41757226 81.35283458 C29.82386652 88.55017644 32.21998036 95.75086686 34.6113205 102.95318985 C35.63041485 106.02200656 36.65301658 109.08962135 37.67841339 112.15633774 C38.88504824 115.76671433 40.08274069 119.37993572 41.27352142 122.99557114 C41.71264703 124.32410031 42.1548526 125.65161587 42.60031128 126.97803497 C43.20655609 128.7849057 43.80067299 130.5958323 44.394104 132.4069519 C44.89847174 133.92734479 44.89847174 133.92734479 45.41302872 135.47845268 C46 138 46 138 45 141 C42.41816975 142.07597721 39.93939328 142.9463138 37.27368164 143.76220703 C36.45902624 144.02251583 35.64437084 144.28282463 34.80502892 144.55102158 C33.01908442 145.12036917 31.23138686 145.68423881 29.44222832 146.24340439 C25.55068275 147.46016815 21.66788619 148.70377259 17.78447437 149.94620705 C15.71672234 150.60766861 13.64855565 151.26783515 11.58000469 151.92679405 C1.03215756 155.29178095 -9.47004001 158.78930316 -19.96754837 162.30767059 C-23.13086554 163.36784415 -26.29486654 164.42595207 -29.45907593 165.48345947 C-38.03900115 168.35141677 -46.61760099 171.22332553 -55.19555664 174.09716797 C-60.55457686 175.89239424 -65.91454959 177.68475126 -71.27512932 179.47531509 C-73.29181672 180.14960876 -75.30812428 180.82503958 -77.32403755 181.50164413 C-80.0960741 182.43200997 -82.86929471 183.35875828 -85.64282227 184.28466797 C-86.87721039 184.70051147 -86.87721039 184.70051147 -88.13653564 185.12475586 C-93.77208908 187 -93.77208908 187 -96 187 C-96.90004437 184.35553973 -97.79498243 181.70950199 -98.6875 179.0625 C-98.93177734 178.34642578 -99.17605469 177.63035156 -99.42773438 176.89257812 C-100.89941517 172.51479349 -102.26417584 168.11881378 -103.53385544 163.67795086 C-106.96743851 151.72520935 -110.93624359 139.95627956 -114.890625 128.16796875 C-115.64368098 125.91508651 -116.39642184 123.66209891 -117.14886475 121.40901184 C-119.11204522 115.53265352 -121.07858508 109.65742577 -123.04614258 103.78253174 C-126.20940427 94.33620862 -129.36844006 84.88847369 -132.52562714 75.44011879 C-133.62602065 72.14914633 -134.72846043 68.85886451 -135.83111572 65.56864929 C-136.50238763 63.56165818 -137.17359482 61.55464541 -137.84472656 59.54760742 C-138.15120117 58.63492096 -138.45767578 57.7222345 -138.7734375 56.78189087 C-139.0536676 55.94271622 -139.33389771 55.10354156 -139.62261963 54.23893738 C-139.86593143 53.51252139 -140.10924324 52.7861054 -140.35992813 52.03767681 C-140.98762443 50.03939779 -141.51407164 48.03694132 -142 46 C-134.34425071 42.77263007 -126.52849967 40.09964767 -118.64138603 37.50394249 C-114.66391194 36.1947534 -110.68992213 34.87504193 -106.71533203 33.55712891 C-105.86104205 33.27417182 -105.00675207 32.99121473 -104.12657452 32.69968319 C-94.51161597 29.51248673 -84.91308471 26.27670719 -75.31339645 23.04388046 C-69.15230988 20.970646 -62.98883682 18.90451829 -56.82542992 16.83819389 C-51.54293968 15.0667538 -46.26168034 13.29178413 -40.98266602 11.51000977 C-35.76963345 9.75069413 -30.55376444 8.00004897 -25.33577156 6.2555027 C-23.36946225 5.59637994 -21.40420921 4.93409715 -19.44006157 4.26856041 C-16.73154273 3.35131006 -14.01954405 2.44519802 -11.30639648 1.54174805 C-10.10298363 1.1298246 -10.10298363 1.1298246 -8.8752594 0.70957947 C-3.3421989 -1.1140663 -3.3421989 -1.1140663 0 0 Z " fill="#1C0F5F" transform="translate(1212,416)"/>
<path d="M0 0 C2.54308558 2.22281693 4.9633768 4.51845794 7.35546875 6.90234375 C8.31259766 7.82466797 8.31259766 7.82466797 9.2890625 8.765625 C21.75818121 21.73461929 24.98379942 38.78247183 24.91796875 56.08984375 C24.91815002 56.82123566 24.9183313 57.55262756 24.91851807 58.30618286 C24.87879512 69.5430026 23.95037141 78.93441371 18.35546875 88.90234375 C17.65357422 90.29259766 17.65357422 90.29259766 16.9375 91.7109375 C9.7700545 104.90144644 -2.10496556 114.52459536 -14.20703125 122.96484375 C-25.58907399 130.9204966 -35.96649741 138.70380773 -39.64453125 152.90234375 C-39.97453125 156.53234375 -40.30453125 160.16234375 -40.64453125 163.90234375 C-61.43453125 163.90234375 -82.22453125 163.90234375 -103.64453125 163.90234375 C-103.64453125 141.51142866 -102.337342 124.19444132 -87.64453125 106.90234375 C-87.02449219 106.17015625 -86.40445313 105.43796875 -85.765625 104.68359375 C-80.92352942 99.45299344 -75.36976213 95.44180502 -69.58203125 91.33984375 C-55.61108833 81.57702777 -55.61108833 81.57702777 -47.64453125 66.90234375 C-47.26122812 64.14818768 -47.12525415 61.43132216 -47.08203125 58.65234375 C-47.06720703 57.97880859 -47.05238281 57.30527344 -47.03710938 56.61132812 C-47.14064551 51.62680259 -48.53877935 48.73751994 -51.64453125 44.90234375 C-54.15817881 43.07615288 -54.15817881 43.07615288 -56.64453125 41.90234375 C-57.30453125 41.57234375 -57.96453125 41.24234375 -58.64453125 40.90234375 C-69.24837729 40.01570835 -69.24837729 40.01570835 -79.03125 43.48046875 C-87.23697783 50.71263565 -86.38082387 60.16083104 -87.64453125 70.90234375 C-110.08453125 70.90234375 -132.52453125 70.90234375 -155.64453125 70.90234375 C-155.64453125 63.6991696 -155.52437672 57.37505185 -154.33203125 50.40234375 C-154.12356567 49.16327271 -154.12356567 49.16327271 -153.91088867 47.89916992 C-150.966566 30.89958936 -145.33124463 16.04631004 -132.64453125 3.90234375 C-132.05542969 3.28230469 -131.46632813 2.66226562 -130.859375 2.0234375 C-122.92482596 -5.77160298 -110.43061109 -11.57754414 -99.64453125 -14.09765625 C-97.97003906 -14.51144531 -97.97003906 -14.51144531 -96.26171875 -14.93359375 C-66.17302557 -21.50643868 -25.06244997 -19.87966859 0 0 Z " fill="#FEC001" transform="translate(782.64453125,257.09765625)"/>
<path d="M0 0 C10.11743119 6.74495413 10.11743119 6.74495413 13.76953125 9.55859375 C14.99349609 10.49711182 14.99349609 10.49711182 16.2421875 11.45458984 C17.51449219 12.43613037 17.51449219 12.43613037 18.8125 13.4375 C20.66224377 14.85614265 22.51251778 16.27409416 24.36328125 17.69140625 C25.29736816 18.40699707 26.23145508 19.12258789 27.19384766 19.85986328 C31.60813957 23.22646176 36.05331259 26.55137693 40.5 29.875 C45.94270318 33.94613568 51.37305239 38.02982254 56.75 42.1875 C61.30410256 45.70710465 65.89018677 49.17904486 70.5 52.625 C76.86126376 57.38039461 83.18684469 62.18094102 89.5 67 C97.57717219 73.16360414 105.68322496 79.28608113 113.82080078 85.36962891 C118.21712139 88.65874262 122.60799629 91.95512556 127 95.25 C128.72914793 96.54689999 130.45831294 97.84377719 132.1875 99.140625 C133.45833333 100.09375 134.72916667 101.046875 136 102 C132.39244531 105.93808981 128.20663177 108.86235094 123.875 111.9375 C122.24604845 113.10410342 120.61714348 114.27077187 118.98828125 115.4375 C118.1576416 116.03046875 117.32700195 116.6234375 116.47119141 117.234375 C112.66006753 119.95735937 108.86033292 122.69602074 105.0625 125.4375 C104.32370605 125.97044678 103.58491211 126.50339355 102.82373047 127.05249023 C97.35792636 131.00198593 91.92391772 134.99323163 86.5 139 C78.12051542 145.19011119 69.68892637 151.30474309 61.23388672 157.39111328 C57.48640231 160.09012118 53.74338799 162.79531494 50 165.5 C45.51389621 168.74131453 41.02695169 171.98141954 36.53515625 175.21484375 C35.04416876 176.28892082 33.55328321 177.36313941 32.0625 178.4375 C30.96784424 179.2260437 30.96784424 179.2260437 29.85107422 180.03051758 C25.81005533 182.94824471 21.78843281 185.89003768 17.78515625 188.859375 C16.9233374 189.49818604 16.06151855 190.13699707 15.17358398 190.79516602 C13.51081565 192.02977827 11.85007113 193.26712223 10.19165039 194.50756836 C9.44004639 195.06581299 8.68844238 195.62405762 7.9140625 196.19921875 C7.2535791 196.69252686 6.5930957 197.18583496 5.91259766 197.6940918 C4 199 4 199 0 201 C0 171.96 0 142.92 0 113 C-44.55 113 -89.1 113 -135 113 C-135 104.75 -135 96.5 -135 88 C-90.45 88 -45.9 88 0 88 C0 58.96 0 29.92 0 0 Z " fill="#FEC001" transform="translate(455,277)"/>
<path d="M0 0 C3.9689513 3.77481781 7.25434181 7.78263927 10.5 12.1875 C11.27549194 13.23091553 11.27549194 13.23091553 12.06665039 14.29541016 C17.5669562 21.71896339 22.9677881 29.21474755 28.35888672 36.71777344 C31.06639516 40.48299047 33.78357364 44.24121448 36.5 48 C39.74136804 52.48606504 42.98141962 56.97304841 46.21484375 61.46484375 C51.76804624 69.17462973 57.35437205 76.85757631 63 84.5 C69.17513005 92.85920479 75.2754323 101.27008055 81.34716797 109.70458984 C84.26995086 113.76367473 87.1974511 117.81935193 90.125 121.875 C90.66970947 122.63047119 91.21441895 123.38594238 91.77563477 124.16430664 C92.28537842 124.87063232 92.79512207 125.57695801 93.3203125 126.3046875 C93.76648926 126.92327637 94.21266602 127.54186523 94.67236328 128.17919922 C95.64225157 129.5093623 96.6455716 130.81532952 97.66748047 132.10595703 C99 134 99 134 99 136 C32.67 136 -33.66 136 -102 136 C-100.47806502 132.95613004 -99.08589941 130.60175058 -97.09375 127.91015625 C-96.52019775 127.13293213 -95.94664551 126.35570801 -95.35571289 125.55493164 C-94.74332764 124.7324292 -94.13094238 123.90992676 -93.5 123.0625 C-92.54951782 121.7794397 -92.54951782 121.7794397 -91.57983398 120.47045898 C-87.3440296 114.76674316 -83.04419967 109.11879463 -78.69140625 103.50390625 C-75.24533674 99.03952916 -71.87784032 94.51606203 -68.5 90 C-63.61535757 83.47264893 -58.69884588 76.97527386 -53.71484375 70.5234375 C-43.3586508 57.10537897 -33.14665711 43.57689955 -23 30 C-17.13987719 22.16005492 -11.2764825 14.32392139 -5.3125 6.5625 C-4.8901709 6.01247314 -4.4678418 5.46244629 -4.03271484 4.89575195 C-1.12762155 1.12762155 -1.12762155 1.12762155 0 0 Z " fill="#1E1160" transform="translate(1170,227)"/>
<path d="M0 0 C1.60702034 -0.002062 1.60702034 -0.002062 3.24650574 -0.00416565 C4.42685898 -0.00057037 5.60721222 0.0030249 6.82333374 0.00672913 C8.06232925 0.0065831 9.30132477 0.00643707 10.5778656 0.00628662 C13.98055486 0.00686499 17.38318386 0.01188924 20.78586245 0.01886058 C24.33996689 0.02510084 27.89407208 0.02569845 31.44818115 0.02688599 C38.18069771 0.02999731 44.91319807 0.03820804 51.64570749 0.04823548 C59.30945104 0.05940276 66.97319535 0.06490862 74.63694501 0.06993091 C90.40400093 0.08039081 106.17103454 0.09873383 121.93807983 0.12025452 C121.93807983 8.37025452 121.93807983 16.62025452 121.93807983 25.12025452 C118.5153772 24.92012756 115.09267456 24.72000061 111.56625366 24.5138092 C100.14417191 23.87938892 88.72078435 23.49456396 77.28476429 23.23167038 C70.3587952 23.06655739 63.45480846 22.82084261 56.54086304 22.37367249 C27.70208943 19.52622851 27.70208943 19.52622851 1.19051743 28.03012085 C-9.76263704 37.85798426 -16.17987678 51.35171221 -22.28684998 64.49067688 C-26.14931837 72.62871593 -31.26810035 79.92191763 -36.422122 87.28261948 C-38.75565459 90.63700256 -41.00961747 94.04379583 -43.26895142 97.44837952 C-44.01302405 98.56230365 -44.7575206 99.67594483 -45.50259399 100.78919983 C-46.01717163 101.55844788 -46.53174927 102.32769592 -47.06192017 103.12025452 C-36.89816019 119.13330731 -36.89816019 119.13330731 -26.49551392 134.99134827 C-25.85635544 135.94922493 -25.85635544 135.94922493 -25.20428467 136.92645264 C-22.38914687 141.14234579 -19.56421462 145.3515914 -16.73524475 149.55821228 C-14.79055876 152.45096287 -12.84911795 155.34588363 -10.90811157 158.24110413 C-9.91098485 159.72653503 -8.91223522 161.21087758 -7.91201782 162.69422913 C-6.44468426 164.87115934 -4.98320263 167.05191341 -3.52285767 169.23353577 C-3.07300507 169.8979921 -2.62315247 170.56244843 -2.15966797 171.24703979 C0.93807983 175.89251506 0.93807983 175.89251506 0.93807983 178.12025452 C40.86807983 178.12025452 80.79807983 178.12025452 121.93807983 178.12025452 C121.93807983 186.37025452 121.93807983 194.62025452 121.93807983 203.12025452 C105.25671716 203.2332389 88.57568236 203.32529481 71.89404297 203.37931538 C64.14800288 203.40506773 56.40221788 203.44016095 48.65634155 203.49745178 C41.90290558 203.5473783 35.14965441 203.57956712 28.39603901 203.59069699 C24.82185799 203.59720028 21.2482055 203.61242142 17.67419434 203.6489048 C13.67858708 203.6893588 9.68389137 203.69019807 5.68807983 203.68788147 C3.92185524 203.71484604 3.92185524 203.71484604 2.11994934 203.74235535 C-4.91270512 203.69826863 -9.64510431 202.76400101 -15.06192017 198.12025452 C-17.1937561 195.86073303 -17.1937561 195.86073303 -19.06192017 193.12025452 C-19.69909973 192.18558853 -19.69909973 192.18558853 -20.34915161 191.23204041 C-21.90469288 188.92557643 -23.4304734 186.60127867 -24.95254517 184.27259827 C-25.52617294 183.39966629 -26.09980072 182.52673431 -26.69081116 181.62734985 C-28.56663693 178.77220573 -30.43924107 175.91496328 -32.31192017 173.05775452 C-34.92622715 169.0762474 -37.54255781 165.09607348 -40.15957642 161.11634827 C-40.81935989 160.11272247 -41.47914337 159.10909668 -42.15892029 158.07505798 C-46.49722692 151.48160236 -50.85973312 144.90487628 -55.24551392 138.34291077 C-55.80233856 137.50968796 -56.35916321 136.67646515 -56.93286133 135.81799316 C-59.55918686 131.89019367 -62.18922593 127.96492018 -64.82266235 124.04188538 C-65.7605287 122.64095242 -66.69835652 121.23999367 -67.63613892 119.83900452 C-68.05874496 119.21184036 -68.48135101 118.58467621 -68.91676331 117.93850708 C-73.5384974 111.02585901 -75.26600952 106.49114081 -74.06192017 98.12025452 C-68.82869784 86.19505952 -59.85677081 75.27902929 -52.56192017 64.55775452 C-49.98690357 60.76620723 -47.41414391 56.97313801 -44.84317017 53.17884827 C-44.23397232 52.28012497 -43.62477448 51.38140167 -42.99711609 50.45544434 C-38.90785866 44.40879847 -34.93737085 38.30621059 -31.06192017 32.12025452 C-29.09412404 29.12391885 -27.10062075 26.14744518 -25.09707642 23.17494202 C-23.72416882 21.11426305 -22.37822178 19.03539977 -21.05801392 16.94056702 C-10.25776567 -0.01011614 -10.25776567 -0.01011614 0 0 Z " fill="#FEC002" transform="translate(913.0619201660156,280.87974548339844)"/>
<path d="M0 0 C24.09 0 48.18 0 73 0 C73 21.45 73 42.9 73 65 C48.91 65 24.82 65 0 65 C0 43.55 0 22.1 0 0 Z " fill="#FEC001" transform="translate(674,450)"/>
</svg>
