<?xml version="1.0" encoding="UTF-8"?>
<svg version="1.1" xmlns="http://www.w3.org/2000/svg" width="1335" height="751">
<path d="M0 0 C440.55 0 881.1 0 1335 0 C1335 247.83 1335 495.66 1335 751 C894.45 751 453.9 751 0 751 C0 503.17 0 255.34 0 0 Z " fill="#FEFEFE" transform="translate(0,0)"/>
<path d="M0 0 C106.59 0 213.18 0 323 0 C323 70.62 323 141.24 323 214 C216.41 214 109.82 214 0 214 C0 143.38 0 72.76 0 0 Z " fill="#FEFEFE" transform="translate(506,307)"/>
<path d="M0 0 C1.54178864 -0.00505439 3.08357139 -0.01229008 4.62534082 -0.02149814 C8.83191 -0.04032027 13.03789296 -0.028244 17.24444675 -0.01077521 C21.7925572 0.00264955 26.34058474 -0.01285644 30.88868713 -0.02459717 C39.78593569 -0.04293923 48.68296408 -0.0344848 57.58020569 -0.01650894 C64.81240117 -0.00246313 72.04453703 0.0014056 79.27674484 -0.00195122 C80.82278979 -0.00266738 80.82278979 -0.00266738 82.40006798 -0.00339801 C84.49411327 -0.00442438 86.58815855 -0.00547974 88.68220381 -0.00656378 C107.18233471 -0.01512367 125.68235952 0.00152204 144.1824646 0.03126526 C162.12359064 0.06010928 180.06456392 0.0671813 198.00570679 0.05177307 C217.55768851 0.03500435 237.10959778 0.03098292 256.6615814 0.04848343 C258.74715955 0.05032777 260.83273772 0.05216249 262.91831589 0.0539875 C264.45741512 0.05535564 264.45741512 0.05535564 266.02760727 0.05675141 C273.25012328 0.06235198 280.47260386 0.05905417 287.69511795 0.05244255 C296.49820257 0.0447037 305.30113694 0.05148215 314.10419132 0.07661759 C318.59357927 0.08909879 323.08273346 0.09527583 327.5721302 0.08407593 C331.68522196 0.07400867 335.7978483 0.08254575 339.91088359 0.10565711 C341.39520738 0.11080091 342.87957314 0.10928257 344.36387844 0.10026246 C356.0006568 0.03545258 365.09908281 1.56063525 373.77230835 9.69068909 C378.15663554 14.71292069 380.58971241 20.7551272 380.58676243 27.40143108 C380.5887533 28.39003187 380.59074417 29.37863266 380.59279537 30.39719105 C380.58988271 31.48538985 380.58697004 32.57358866 380.58396912 33.69476318 C380.58482513 34.84609741 380.58568115 35.99743164 380.58656311 37.18365479 C380.58793328 40.39080428 380.58478566 43.59791371 380.57978733 46.80505846 C380.57543003 50.31236985 380.57688132 53.81967963 380.57760525 57.32699299 C380.57813758 64.13963439 380.5735137 70.95226265 380.56710392 77.76490067 C380.55991334 85.64271199 380.55910969 93.52051537 380.55831909 101.39833069 C380.55306543 122.20411891 380.53910436 143.00990419 380.5262146 163.81568909 C380.5055896 210.28381409 380.4849646 256.75193909 380.4637146 304.62818909 C242.1937146 304.62818909 103.9237146 304.62818909 -38.5362854 304.62818909 C-38.6187854 258.28381409 -38.7012854 211.93943909 -38.7862854 164.19068909 C-38.82270142 149.55024231 -38.85911743 134.90979553 -38.89663696 119.82569885 C-38.91470337 101.96595764 -38.91470337 101.96595764 -38.9180603 93.60852051 C-38.92179116 87.76385061 -38.93646671 81.91933357 -38.95858765 76.07470703 C-38.98406783 69.33254631 -38.99562481 62.59053226 -38.9900652 55.84832304 C-38.98765776 52.4001022 -38.99144721 48.95220905 -39.01314592 45.50404847 C-39.03303819 41.80786207 -39.02824717 38.11249546 -39.01730347 34.41629028 C-39.02895412 33.34556746 -39.04060478 32.27484465 -39.05260849 31.17167568 C-38.97898768 21.92183052 -36.28798591 14.27818445 -29.77247179 7.55932897 C-21.24196666 0.19250176 -10.72434579 -0.09338373 0 0 Z M9.4637146 45.62818909 C9.4637146 116.24818909 9.4637146 186.86818909 9.4637146 259.62818909 C116.0537146 259.62818909 222.6437146 259.62818909 332.4637146 259.62818909 C332.4637146 189.00818909 332.4637146 118.38818909 332.4637146 45.62818909 C225.8737146 45.62818909 119.2837146 45.62818909 9.4637146 45.62818909 Z " fill="#FE2081" transform="translate(496.5362854003906,261.37181091308594)"/>
<path d="M0 0 C1.39719535 -0.00698988 1.39719535 -0.00698988 2.82261688 -0.01412097 C5.94328035 -0.02607011 9.06350839 -0.01667565 12.18417549 -0.00736332 C14.4443463 -0.01153626 16.70451502 -0.01701355 18.96467984 -0.02368313 C25.17540302 -0.03816161 31.38599377 -0.03388544 37.59672427 -0.02651632 C43.60694862 -0.02227803 49.61713987 -0.0320911 55.62735441 -0.04142394 C68.67890489 -0.06109058 81.73041565 -0.06343825 94.78197741 -0.05822874 C106.20485831 -0.05367156 117.62772348 -0.05427074 129.05060387 -0.06006908 C130.58285317 -0.06082595 132.11510247 -0.06158193 133.64735178 -0.06233703 C135.95631726 -0.06348222 138.26528274 -0.0646321 140.57424822 -0.06579627 C162.0412145 -0.07650145 183.50817554 -0.08122636 204.97514343 -0.07332611 C205.78437054 -0.07302894 206.59359765 -0.07273176 207.4273468 -0.07242559 C213.9988361 -0.06997665 220.57032535 -0.06736506 227.14181458 -0.06474145 C252.77437814 -0.05463926 278.40687619 -0.06299381 304.03943062 -0.086236 C332.83951271 -0.11230809 361.63955537 -0.12515665 390.4396497 -0.11804825 C393.51050893 -0.11733219 396.58136816 -0.1166578 399.6522274 -0.1160078 C400.40834763 -0.115838 401.16446786 -0.11566819 401.94350083 -0.11549323 C413.3573779 -0.11319025 424.77121835 -0.1211672 436.1850872 -0.13429928 C449.16587696 -0.14920754 462.14658089 -0.15005771 475.12736879 -0.13222837 C481.75132709 -0.12350476 488.37515713 -0.12161529 494.9991169 -0.13687992 C501.06264766 -0.15068018 507.12587336 -0.1460236 513.18938626 -0.12664068 C515.38311852 -0.12286607 517.57687494 -0.1258445 519.77058576 -0.13625234 C522.75368463 -0.14939911 525.73572702 -0.13785894 528.71878052 -0.12025452 C529.5694049 -0.12990503 530.42002929 -0.13955554 531.29643017 -0.14949849 C540.2983756 -0.04050764 548.19420119 3.0978801 554.72351265 9.34906673 C560.50222651 16.01188538 562.2840883 22.50660794 561.90320015 31.26703548 C560.88577616 38.84541788 557.22620723 45.32404444 551.4852314 50.38031673 C548.91969258 52.02226158 546.32218257 53.27995516 543.4852314 54.38031673 C542.21833981 54.89302958 542.21833981 54.89302958 540.92585444 55.41610026 C536.62531951 56.62130251 532.7525563 56.65644307 528.31026268 56.63199902 C526.93172422 56.63635934 526.93172422 56.63635934 525.5253365 56.64080775 C522.43501796 56.64812688 519.34489676 56.64115537 516.25457954 56.63428402 C514.02088531 56.6365877 511.78719183 56.6397636 509.55349994 56.64373851 C503.40668865 56.65210808 497.25993925 56.64795138 491.11312771 56.64176607 C485.16744033 56.63771482 479.22176337 56.64303128 473.27607838 56.6480608 C460.36202046 56.65859807 447.44798233 56.65767704 434.53392253 56.65190298 C423.23018138 56.64687371 411.92644749 56.64555759 400.62270546 56.64794827 C399.87316919 56.64810104 399.12363292 56.64825381 398.35138343 56.64841121 C395.30879827 56.64903388 392.26621311 56.64967068 389.22362796 56.65033073 C360.67190319 56.6564509 332.12019101 56.65089882 303.56846818 56.64013694 C278.20477833 56.63064938 252.84110857 56.63149148 227.4774189 56.64105892 C198.98426148 56.65177089 170.49111519 56.656013 141.99795604 56.64983439 C138.95964416 56.64919296 135.92133228 56.64856728 132.8830204 56.64794827 C131.76084891 56.64771103 131.76084891 56.64771103 130.61600729 56.64746901 C119.32244533 56.6451948 108.02889142 56.64785334 96.73533058 56.65290737 C83.88992486 56.6586272 71.04454202 56.6571936 58.19913915 56.64634588 C51.64408548 56.64099273 45.08906417 56.63903478 38.53400993 56.64564419 C32.53339283 56.65160304 26.53285427 56.64832944 20.53224429 56.63768908 C18.3613322 56.63545476 16.19041348 56.63659207 14.01950565 56.64144066 C11.06743116 56.64752819 8.11562522 56.6412777 5.16356468 56.63199902 C4.32199467 56.63668135 3.48042467 56.64136368 2.61335254 56.6461879 C-7.36870938 56.58354367 -15.83658382 55.06019068 -23.5147686 48.38031673 C-30.17741726 41.08992387 -32.06729692 34.80848906 -31.8819561 24.95453548 C-30.9825541 16.19971816 -26.51150754 10.75820574 -20.08898735 5.07172298 C-13.5694253 0.78800467 -7.59619846 -0.05983881 0 0 Z " fill="#FE2081" transform="translate(402.51476860046387,584.619683265686)"/>
<path d="M0 0 C15.79798989 12.3312734 23.10763574 28.31995159 29 47 C29 47.66 29 48.32 29 49 C29.89460938 48.95359375 30.78921875 48.9071875 31.7109375 48.859375 C44.20771347 48.48633691 51.24160815 50.97335181 60.67578125 59.09765625 C68.09146112 68.35790859 71.29373223 81.5314104 75.375 92.5625 C76.65174622 96.00201028 77.93104348 99.44056629 79.2109375 102.87890625 C79.52303162 103.71966705 79.83512573 104.56042786 80.15667725 105.42666626 C81.73667849 109.66958004 83.34311896 113.89963578 85.00097656 118.11279297 C85.32232574 118.92957016 85.64367493 119.74634735 85.97476196 120.58787537 C86.58294381 122.12692381 87.19482925 123.66451601 87.81112671 125.20033264 C91.24318714 133.87294811 92.93839085 143.20559591 89.90625 152.26953125 C84.61527834 163.45655909 77.89664809 169.01327676 66.51953125 173.31640625 C65.29621094 173.72761719 64.07289063 174.13882813 62.8125 174.5625 C55.44903727 177.09934746 48.154024 179.79308775 40.875 182.5625 C39.1412915 183.22173462 39.1412915 183.22173462 37.37255859 183.89428711 C29.49649134 186.89317962 21.62664908 189.90835163 13.75646973 192.9226532 C9.3801755 194.59846811 5.00344872 196.27315069 0.6265831 197.94747257 C-2.53150854 199.15575351 -5.68918362 200.36510312 -8.8460083 201.57669067 C-12.42912236 202.95158052 -16.01329075 204.32368911 -19.59765625 205.6953125 C-21.23334816 206.32428185 -21.23334816 206.32428185 -22.90208435 206.96595764 C-23.91029739 207.35118088 -24.91851044 207.73640411 -25.95727539 208.13330078 C-26.8379921 208.47096466 -27.7187088 208.80862854 -28.62611389 209.15652466 C-36.48763556 211.94983461 -46.04981972 212.63312336 -53.875 209.4375 C-64.80948773 203.64506691 -70.39735791 194.68185779 -74.328125 183.28515625 C-74.92812303 181.60270132 -75.52906781 179.92058378 -76.13085938 178.23876953 C-76.43693115 177.37600403 -76.74300293 176.51323853 -77.05834961 175.62432861 C-78.60582297 171.31160422 -80.23421104 167.03001006 -81.859375 162.74609375 C-82.50676046 161.0306933 -83.15389551 159.31519833 -83.80078125 157.59960938 C-84.78209233 154.99930768 -85.76443567 152.39941508 -86.74951172 149.80053711 C-98.64647759 118.39686065 -98.64647759 118.39686065 -94.04296875 106.1640625 C-90.99209258 99.83378011 -86.53361057 95.21608425 -81 91 C-81.75143096 85.95614837 -83.63589941 81.36566794 -85.4375 76.625 C-89.05707073 67.07231848 -91.34588165 58.97572549 -91.3125 48.6875 C-91.32861328 47.70587891 -91.34472656 46.72425781 -91.36132812 45.71289062 C-91.37122186 30.76345892 -84.97266435 17.09734134 -74.625 6.34765625 C-53.63599421 -12.42376113 -23.95973239 -16.46088485 0 0 Z " fill="#FEC001" transform="translate(211,325)"/>
<path d="M0 0 C0.7837072 0.08801691 1.5674144 0.17603382 2.3748703 0.26671791 C4.95530722 0.55769553 7.5348755 0.85573861 10.11450195 1.15380859 C11.95041346 1.36216828 13.78637766 1.57006417 15.62239075 1.77752686 C20.52098936 2.3322226 25.41888963 2.89286983 30.31668091 3.45464325 C35.39340868 4.03587696 40.4707628 4.61158036 45.5480957 5.1875 C51.61814629 5.87626634 57.68816031 6.56533954 63.75790405 7.25680542 C78.46568743 8.93194263 93.17688969 10.57283318 107.89096069 12.19180298 C122.11738426 13.75787242 136.33692569 15.35035963 150.5402832 17.11474609 C165.91875182 19.02217631 181.3223056 20.69190718 196.7277832 22.36474609 C221.92170545 25.1004856 247.10809384 27.89799298 272.2902832 30.73974609 C273.14250332 30.83591595 273.99472343 30.9320858 274.8727684 31.03116989 C276.5898909 31.22494676 278.30701298 31.41872734 280.02413464 31.61251163 C284.24304793 32.0886164 288.46197434 32.56460483 292.6809082 33.04052734 C293.50161112 33.13312521 294.32231403 33.22572308 295.16788673 33.32112694 C309.34981611 34.92085703 323.53442406 36.49537407 337.72018433 38.06079102 C355.9059724 40.0680428 374.08249851 42.13375793 392.24389648 44.35180664 C401.50523143 45.47757843 410.77052799 46.51205455 420.05200195 47.45849609 C423.16232755 47.78158925 426.27255666 48.10560009 429.38278198 48.42965698 C431.38405632 48.63429775 433.38595509 48.83293259 435.38845825 49.025177 C438.16472627 49.29172478 440.93829553 49.57828477 443.7121582 49.86865234 C444.94194649 49.97790039 444.94194649 49.97790039 446.19657898 50.08935547 C452.22084941 50.74839173 455.98632669 52.76618524 460.5402832 56.86474609 C462.3672872 60.62025432 462.52784636 64.10403119 461.6652832 68.17724609 C459.35040824 72.10088637 457.01608097 74.72698017 452.6652832 76.17724609 C446.215181 76.63577852 439.80409058 75.87479868 433.4074707 75.11083984 C432.4173851 74.99693909 431.4272995 74.88303833 430.4072113 74.76568604 C428.25434304 74.51749083 426.10173732 74.26700984 423.94937134 74.01449585 C419.21952126 73.45987352 414.48833021 72.91709547 409.75721741 72.37336731 C407.23659342 72.08356001 404.71603588 71.79317434 402.19554138 71.50224304 C388.46056407 69.91780436 374.71960154 68.38851785 360.9777832 66.86474609 C358.38956557 66.5771618 355.80134945 66.28956395 353.21313477 66.00195312 C338.58414423 64.37760538 323.95346814 62.7689955 309.32159233 61.17085075 C306.58612518 60.87201901 303.85068342 60.5729559 301.11524963 60.27381897 C299.28842199 60.07406288 297.46159399 59.87431007 295.63476562 59.67456055 C294.73091283 59.57572602 293.82706003 59.4768915 292.89581776 59.37506199 C288.46327837 58.89055077 284.03065019 58.40688153 279.59780884 57.92514038 C261.75877782 55.98639269 243.92978987 53.99875085 226.11958694 51.80964088 C214.75160057 50.41302953 203.3751737 49.14195858 191.9821167 47.9680481 C177.8204676 46.5060391 163.66932617 44.99040006 149.5402832 43.23974609 C135.7574546 41.53512837 121.96479982 39.92867868 108.1652832 38.36474609 C107.06356781 38.23981781 105.96185242 38.11488953 104.82675171 37.98617554 C90.86476813 36.40626587 76.89831785 34.87125051 62.92700195 33.37646484 C61.86262846 33.26247251 61.86262846 33.26247251 60.77675247 33.14617729 C51.30458004 32.13176607 51.30458004 32.13176607 41.83129883 31.1277771 C33.45151538 30.2440206 25.07484725 29.33606999 16.70049286 28.40226746 C14.56498422 28.16615662 12.42894683 27.93532832 10.29278564 27.7052002 C6.60106156 27.30604428 2.91172264 26.88893237 -0.77667809 26.46019363 C-2.18128354 26.29953655 -3.58653606 26.14442472 -4.99241066 25.99528122 C-6.94505184 25.78701495 -8.89523018 25.55604245 -10.84521484 25.32421875 C-11.95591843 25.19906891 -13.06662201 25.07391907 -14.21098328 24.94497681 C-19.24665703 23.70734198 -22.47001319 21.4743015 -25.3347168 17.17724609 C-25.88154468 13.4588165 -25.87919754 9.89604954 -25.3347168 6.17724609 C-18.47008029 -2.91375901 -10.14294399 -1.19272301 0 0 Z " fill="#1E1160" transform="translate(483.334716796875,101.82275390625)"/>
<path d="M0 0 C4.73857714 0.74275316 9.0327334 2.3819875 13.5 4.0625 C14.73991699 4.52450806 14.73991699 4.52450806 16.00488281 4.99584961 C18.67188021 5.99209864 21.33625059 6.99510101 24 8 C24.89009766 8.33515625 25.78019531 8.6703125 26.69726562 9.015625 C37.84905946 13.22079744 48.9506681 17.53268639 60 22 C61.97882701 22.79251529 63.95795222 23.58428678 65.9375 24.375 C67.29168734 24.91661499 68.6458579 25.45827193 70 26 C65.16808066 40.15132991 59.95655947 54.13127877 54.55349731 68.0737915 C52.76918185 72.67826365 50.99173944 77.28537904 49.21400452 81.89239502 C48.33569412 84.16851997 47.45706734 86.44452285 46.57810974 88.72039795 C43.37716367 97.01109052 40.20442519 105.3117631 37.0625 113.625 C33.312721 123.54012368 29.54861305 133.44961901 25.76657104 143.35247803 C25.17709401 144.89631668 24.58799651 146.44030031 23.9992981 147.98443604 C23.18544272 150.11891942 22.37025535 152.2528892 21.5546875 154.38671875 C21.08530762 155.61608154 20.61592773 156.84544434 20.13232422 158.11206055 C19 161 19 161 18 163 C13.24409791 162.25901215 8.94329473 160.59844406 4.46484375 158.90234375 C3.63717499 158.59210266 2.80950623 158.28186157 1.95675659 157.96221924 C-0.71789462 156.95808654 -3.39027723 155.94807574 -6.0625 154.9375 C-7.88904759 154.24967303 -9.71562638 153.56192891 -11.54223633 152.87426758 C-23.42124166 148.39370051 -35.25330696 143.81813511 -47 139 C-48.66591469 138.33145646 -50.33221898 137.663874 -52 137 C-49.22853269 126.91435956 -45.37603966 117.25114127 -41.625 107.5 C-40.90135065 105.61080807 -40.17804809 103.72148327 -39.45507812 101.83203125 C-37.99440575 98.01619832 -36.53181857 94.20110894 -35.06738281 90.38671875 C-32.46107006 83.59776456 -29.864995 76.8049113 -27.26919556 70.01193237 C-26.49874204 67.99670963 -25.72740208 65.98182828 -24.95581055 63.96704102 C-21.88264544 55.94021547 -18.82489002 47.90768248 -15.77734375 39.87109375 C-14.68764238 37.00035283 -13.59775292 34.12968338 -12.5078125 31.2590332 C-11.80261638 29.4000114 -11.09832955 27.54064438 -10.39501953 25.6809082 C-9.41015484 23.07676693 -8.42215729 20.47383273 -7.43359375 17.87109375 C-7.00154884 16.72476723 -7.00154884 16.72476723 -6.56077576 15.55528259 C-4.55441333 10.28489593 -2.33643783 5.13224165 0 0 Z " fill="#FEFEFD" transform="translate(1008,95)"/>
<path d="M0 0 C1.45156352 0.5424391 2.89723956 1.1008306 4.33740234 1.67285156 C5.12928955 1.97334412 5.92117676 2.27383667 6.73706055 2.58343506 C9.3050881 3.56205603 11.86422264 4.56181049 14.42333984 5.56347656 C16.2033682 6.25008171 17.98380915 6.93561809 19.76464844 7.62011719 C22.47328344 8.66254267 25.18099935 9.70707875 27.88613892 10.75854492 C33.60561905 12.98115394 39.34662638 15.13186431 45.11083984 17.23535156 C47.21832952 18.01428967 49.32486705 18.79572582 51.43084717 19.57873535 C52.74482394 20.06327057 54.06125224 20.54121573 55.38018799 21.01208496 C69.59921115 26.10354099 69.59921115 26.10354099 72.79833984 32.81347656 C74.03886687 40.01309964 71.21703443 46.03547236 68.61083984 52.68847656 C68.16667725 53.8539502 67.72251465 55.01942383 67.26489258 56.22021484 C66.29806279 58.75242768 65.32668468 61.28229597 64.34716797 63.80957031 C62.75872315 67.90940029 61.19113677 72.01702547 59.62646484 76.12597656 C57.43837273 81.86834632 55.24222944 87.60756233 53.04052734 93.34472656 C50.94855377 98.79787403 48.86921561 104.25557539 46.80615234 109.71972656 C46.56871307 110.34850204 46.3312738 110.97727753 46.0866394 111.62510681 C45.85244293 112.24535233 45.61824646 112.86559784 45.37695312 113.50463867 C41.55165282 123.63450114 37.699744 133.74747873 33.60961914 143.77392578 C29.51409501 153.85325308 25.80550714 164.08637439 22.0309906 174.28904724 C20.74256418 177.76908776 19.44998059 181.24757673 18.15673828 184.72583008 C17.49544994 186.50792664 16.83630533 188.29082 16.17919922 190.07446289 C15.21162536 192.6992694 14.23620705 195.32104642 13.25927734 197.94238281 C12.82631851 199.12532677 12.82631851 199.12532677 12.38461304 200.33216858 C8.092799 211.78124131 8.092799 211.78124131 3.61083984 215.75097656 C-4.5900034 218.8490729 -11.68585266 215.90910402 -19.32666016 212.75097656 C-21.60481742 211.84089843 -23.88349995 210.93213448 -26.16259766 210.02441406 C-26.77752075 209.77706009 -27.39244385 209.52970612 -28.02600098 209.27485657 C-33.45020429 207.09565 -38.90387922 204.99787708 -44.36572266 202.91503906 C-45.23935455 202.58151932 -46.11298645 202.24799957 -47.01309204 201.90437317 C-50.52949991 200.56228417 -54.04614264 199.22081722 -57.5635376 197.88131714 C-60.04302612 196.93591277 -62.52093308 195.98646808 -64.99853516 195.03613281 C-65.73818512 194.75520782 -66.47783508 194.47428284 -67.23989868 194.18484497 C-75.02411748 191.19169295 -81.29353039 188.6297361 -85.20166016 180.81347656 C-85.06234741 171.67854057 -81.35449963 163.571986 -78.07666016 155.18847656 C-77.44334647 153.54522149 -76.81104308 151.90157674 -76.1796875 150.25756836 C-74.8588869 146.82354891 -73.53195769 143.39199573 -72.19970703 139.96240234 C-70.28812375 135.04073511 -68.39091441 130.11364867 -66.49853516 125.18457031 C-64.65293071 120.37868303 -62.80688393 115.57297713 -60.95556641 110.76928711 C-56.30084101 98.69062355 -51.68100516 86.59892763 -47.07666016 74.50097656 C-46.40577057 72.7386034 -45.73487218 70.97623359 -45.06396484 69.21386719 C-44.0738717 66.61291063 -43.08380782 64.01194294 -42.09381104 61.41094971 C-39.03248439 53.36818231 -35.97014641 45.32580551 -32.90093994 37.28604126 C-32.36480761 35.88108077 -31.82909943 34.47595833 -31.29388428 33.07064819 C-29.84989394 29.27946024 -28.39777704 25.49159722 -26.93307495 21.70834351 C-26.4256793 20.39384008 -25.92126745 19.07818253 -25.41921997 17.7616272 C-24.63415447 15.70561459 -23.83888924 13.65380026 -23.04150391 11.60253906 C-22.34335571 9.79003662 -22.34335571 9.79003662 -21.63110352 7.94091797 C-17.2394186 -1.66753358 -9.5916441 -3.14173465 0 0 Z M-11.20166016 16.81347656 C-14.85975499 25.47429664 -18.36329223 34.19002806 -21.8034668 42.93896484 C-22.63291825 45.04760829 -23.46501552 47.15519372 -24.29736328 49.26269531 C-27.73437518 57.98122046 -31.07464565 66.73179802 -34.34475708 75.51416016 C-37.14630532 83.03151656 -39.96504748 90.54247963 -42.77865601 98.05532837 C-43.56879744 100.16583257 -44.35852304 102.2764925 -45.14785767 104.38729858 C-52.94082776 125.22487261 -52.94082776 125.22487261 -56.63525391 134.62207031 C-57.11188477 135.83781738 -57.58851563 137.05356445 -58.07958984 138.30615234 C-58.92725156 140.45501588 -59.78286381 142.60076726 -60.64794922 144.74267578 C-61.19080566 146.11770264 -61.19080566 146.11770264 -61.74462891 147.52050781 C-62.05424561 148.28854736 -62.3638623 149.05658691 -62.68286133 149.84790039 C-63.44330645 152.00164293 -63.44330645 152.00164293 -62.20166016 154.81347656 C-59.96802403 155.85638116 -57.84055862 156.69344418 -55.51806641 157.48925781 C-54.04935439 158.01576534 -52.58077431 158.54264101 -51.11230469 159.06982422 C-50.31914856 159.35021545 -49.52599243 159.63060669 -48.70880127 159.91949463 C-44.28180219 161.49804846 -39.88275857 163.15191256 -35.47900391 164.79394531 C-33.60348663 165.49026926 -31.72783421 166.18622929 -29.85205078 166.88183594 C-28.91337158 167.23012451 -27.97469238 167.57841309 -27.00756836 167.93725586 C-25.07937989 168.65230541 -23.15099111 169.36681499 -21.22241211 170.08081055 C-18.39067159 171.12940037 -15.55976997 172.18022816 -12.72900391 173.23144531 C-11.87475327 173.5471196 -11.02050262 173.86279388 -10.1403656 174.18803406 C-6.47806388 175.54993591 -2.8613204 176.94236777 0.70629883 178.53735352 C3.70302001 180.00422583 3.70302001 180.00422583 6.79833984 179.81347656 C11.40182256 168.54848356 15.80215189 157.21789731 20.04833984 145.81347656 C25.52528666 131.10558657 31.15138997 116.45684407 36.79833984 101.81347656 C44.23770322 82.51901573 51.60132655 63.1997029 58.79833984 43.81347656 C56.14371333 41.6864127 53.73859459 40.23163777 50.55224609 39.05175781 C49.72595703 38.74173828 48.89966797 38.43171875 48.04833984 38.11230469 C47.16146484 37.78681641 46.27458984 37.46132812 45.36083984 37.12597656 C43.45582766 36.4139089 41.55088155 35.70166443 39.64599609 34.98925781 C38.67291504 34.62783691 37.69983398 34.26641602 36.69726562 33.89404297 C32.22133907 32.22565397 27.76042916 30.51844085 23.29833984 28.81347656 C21.57179379 28.15718331 19.84523118 27.50093359 18.11865234 26.84472656 C14.37889999 25.42085669 10.64583536 23.98065153 6.91552734 22.53222656 C5.4740332 21.97535156 5.4740332 21.97535156 4.00341797 21.40722656 C2.1541836 20.69254661 0.30645254 19.9739613 -1.53955078 19.25097656 C-2.78381836 18.77144531 -2.78381836 18.77144531 -4.05322266 18.28222656 C-5.14884521 17.85586914 -5.14884521 17.85586914 -6.26660156 17.42089844 C-8.34068328 16.66372917 -8.34068328 16.66372917 -11.20166016 16.81347656 Z " fill="#FEC104" transform="translate(1019.20166015625,78.1865234375)"/>
<path d="M0 0 C0.66521119 -0.00311998 1.33042237 -0.00623996 2.01579148 -0.00945449 C4.25525054 -0.0174616 6.49444067 -0.01110043 8.73390198 -0.00482178 C10.33522196 -0.00753047 11.93654069 -0.01109071 13.53785706 -0.01544189 C17.89527 -0.02458345 22.25258857 -0.02101421 26.61000323 -0.01468372 C31.16368034 -0.00963197 35.71734919 -0.01431295 40.27102661 -0.01745605 C47.92028763 -0.02109848 55.56951009 -0.01628975 63.21876526 -0.0067749 C72.06879884 0.0041063 80.91874025 0.00058762 89.76877159 -0.01042771 C97.35861293 -0.01949736 104.94842648 -0.02078733 112.53827149 -0.01555037 C117.075054 -0.01242839 121.61179317 -0.01202749 126.14857292 -0.01862335 C130.41422473 -0.02439136 134.6797575 -0.02040994 138.94539642 -0.00883484 C140.51315424 -0.00618516 142.08092204 -0.00695858 143.64867592 -0.01136017 C145.78463769 -0.01680512 147.92021522 -0.00999456 150.05615234 0 C151.25280738 0.00075405 152.44946241 0.0015081 153.68237972 0.002285 C156.59156799 0.25396729 156.59156799 0.25396729 159.59156799 2.25396729 C158.91952332 2.91815674 158.91952332 2.91815674 158.23390198 3.59576416 C156.16286703 5.64573412 154.09596102 7.69982161 152.02906799 9.75396729 C151.32459534 10.45006104 150.62012268 11.14615479 149.89430237 11.86334229 C145.86095797 15.87809985 142.03524149 19.99158555 138.32228088 24.30279541 C134.81032933 28.26210093 130.97626231 31.90813264 127.19703674 35.60943604 C124.04713024 38.72021326 121.0127084 41.86756108 118.12281799 45.22271729 C113.86016886 50.16623951 109.20956632 54.68612219 104.55250549 59.25396729 C100.63161633 63.12944074 96.91610824 67.10309101 93.31520081 71.2769165 C90.46097085 74.55079104 87.48875942 77.69796427 84.46656799 80.81646729 C83.57518127 81.77649658 83.57518127 81.77649658 82.66578674 82.75592041 C82.08184143 83.35468994 81.49789612 83.95345947 80.89625549 84.57037354 C80.38046936 85.11121582 79.86468323 85.65205811 79.33326721 86.20928955 C77.59156799 87.25396729 77.59156799 87.25396729 75.17359924 87.18365479 C71.96339323 86.02778636 70.36157286 84.49513062 67.97438049 82.06256104 C67.11973206 81.19953369 66.26508362 80.33650635 65.38453674 79.44732666 C64.50410706 78.53789307 63.62367737 77.62845947 62.71656799 76.69146729 C61.84387268 75.809104 60.97117737 74.92674072 60.07203674 74.01763916 C55.65506087 69.52427949 51.40427471 64.94205572 47.29420471 60.16827393 C44.21725852 56.70880518 40.89558321 53.49468719 37.59156799 50.25396729 C32.98353844 45.73421416 28.58139002 41.14464502 24.36891174 36.25396729 C21.26770214 32.7642545 17.92322667 29.52180109 14.59156799 26.25396729 C9.91287091 21.66490041 5.427419 17.00573068 1.14967346 12.03912354 C-0.76081063 9.85023922 -2.77381034 7.78973594 -4.84593201 5.75396729 C-5.52526794 5.08365479 -6.20460388 4.41334229 -6.90452576 3.72271729 C-7.40081482 3.23802979 -7.89710388 2.75334229 -8.40843201 2.25396729 C-5.61472212 -0.5397426 -3.91556268 0.0024681 0 0 Z " fill="#FEC002" transform="translate(268.40843200683594,68.74603271484375)"/>
<path d="M0 0 C0.78323135 -0.01239212 1.56646271 -0.02478424 2.37342834 -0.03755188 C4.91045441 -0.06987636 7.44717727 -0.08875636 9.984375 -0.1015625 C10.85009125 -0.10612457 11.7158075 -0.11068665 12.60775757 -0.11538696 C57.95437533 -0.20073421 98.84145437 17.08168091 131.359375 48.6484375 C135.38571565 52.85316033 137.85371991 55.80487437 138.109375 61.7734375 C137.96567974 65.70546222 137.29119296 68.16872997 134.734375 71.2734375 C130.67039693 74.96714201 127.21962547 74.89248502 121.90234375 74.75 C114.24008127 73.59735386 109.01412064 68.75570917 103.875 63.31640625 C78.45598826 39.05702096 41.05445102 27.24407912 6.453125 27.95703125 C-25.18649108 29.2698556 -53.9470844 41.33223421 -78.265625 61.2734375 C-85.01125675 66.69927173 -91.11731952 70.97343499 -100.125 70.62109375 C-104.9818676 69.83229591 -107.61802492 67.05737444 -110.640625 63.3984375 C-112.47582195 59.86921261 -112.917419 58.18420152 -112.265625 54.2734375 C-100.30496343 30.87214313 -64.86348693 15.0744386 -41.16162109 7.29150391 C-27.9083807 3.16118371 -13.89627263 0.20409101 0 0 Z " fill="#FEC002" transform="translate(1079.265625,370.7265625)"/>
<path d="M0 0 C4.091588 0.50570189 5.60528124 2.48171077 8.1875 5.5625 C17.15413968 16.19544697 17.15413968 16.19544697 29.75 20.3125 C38.61898274 20.09977532 43.84912613 14.60225845 49.72265625 8.484375 C52.25276336 5.72425816 54.68018495 2.9384324 57 0 C60.39297837 0.56670731 61.70404813 1.4415158 63.8125 4.125 C68.03055239 9.1939827 72.70089968 13.7564872 77.40551758 18.36767578 C80.55269635 21.47348204 83.58242878 24.61773761 86.46875 27.96875 C90.11066491 32.1923881 94.02034299 36.09658163 98 40 C109.32611221 51.10913688 109.32611221 51.10913688 113 56 C113 56.66 113 57.32 113 58 C58.22 58 3.44 58 -53 58 C-51.05671322 54.11342644 -49.1790257 51.78800113 -46.25 48.625 C-45.53505371 47.8520459 -45.53505371 47.8520459 -44.80566406 47.06347656 C-40.29595044 42.23019604 -35.60878921 37.57918805 -30.91088867 32.92993164 C-28.01698632 30.05594055 -25.19486376 27.1820879 -22.5625 24.0625 C-20.2615106 21.39122862 -17.89540128 18.84018213 -15.390625 16.359375 C-14.72345459 15.69542725 -14.05628418 15.03147949 -13.36889648 14.34741211 C-12.02478106 13.01733944 -10.67804359 11.68990989 -9.32836914 10.36547852 C-5.97892593 7.06073466 -2.84364649 3.76513193 0 0 Z " fill="#FEC001" transform="translate(314,148)"/>
<path d="M0 0 C6.24727977 5.34485305 9.95680431 10.0865634 10.99414062 18.38525391 C10.5045427 22.30203734 9.10195467 24.3507034 6.61914062 27.38525391 C1.92586061 30.32610748 -3.03279638 30.18177393 -8.38085938 29.38525391 C-13.94448236 27.13331127 -18.28079454 23.57138454 -22.63085938 19.51025391 C-38.98351534 4.45314286 -63.85215385 -2.88392428 -85.80664062 -1.99365234 C-109.06118474 -0.39662337 -128.74559974 9.03756183 -145.63476562 24.91259766 C-151.08316833 29.50778294 -155.34179207 29.95331289 -162.33398438 29.81884766 C-165.3558604 29.38881145 -166.53136209 29.07812615 -168.63085938 26.94775391 C-169.20835937 26.10212891 -169.78585937 25.25650391 -170.38085938 24.38525391 C-170.71085938 24.05525391 -171.04085937 23.72525391 -171.38085938 23.38525391 C-171.90600314 18.33182125 -172.06444699 13.83787759 -169.88085938 9.19775391 C-169.05585937 8.26962891 -168.23085938 7.34150391 -167.38085938 6.38525391 C-166.90261719 5.81935547 -166.424375 5.25345703 -165.93164062 4.67041016 C-121.96218677 -43.64658521 -47.70968044 -39.11625208 0 0 Z " fill="#FEC002" transform="translate(1175.380859375,456.61474609375)"/>
<path d="M0 0 C3.8026029 2.0050088 5.61790841 3.42686262 8 7 C9.40109457 15.06728465 6.5699035 21.68048148 3.375 28.9375 C2.62091014 30.71730559 1.866904 32.4971486 1.11582947 34.27822876 C0.58271886 35.54035238 0.04740615 36.80154786 -0.48997498 38.06185913 C-3.41711485 44.93221276 -6.18075213 51.86587326 -8.93942261 58.8052063 C-9.81555012 61.00766757 -10.69451878 63.20897312 -11.57446289 65.40991211 C-14.34577569 72.34182926 -17.11084512 79.27620489 -19.86897278 86.21337891 C-21.12896852 89.38141859 -22.39095351 92.54866397 -23.65316772 95.71582031 C-24.24989918 97.21476839 -24.84565551 98.7141051 -25.44033813 100.21386719 C-35.2295304 124.90114716 -35.2295304 124.90114716 -39 128 C-43.07437758 129.35812586 -46.74400091 129.65365174 -51 129 C-54.85261741 126.96802879 -57.39179896 124.03316715 -59 120 C-59.37769281 113.18060565 -56.72020501 106.89739065 -54.1862793 100.71020508 C-53.79266205 99.7236644 -53.3990448 98.73712372 -52.99349976 97.72068787 C-51.69808397 94.48242398 -50.38658932 91.25095698 -49.07421875 88.01953125 C-48.16521256 85.76021976 -47.25700635 83.50058626 -46.3495636 81.24064636 C-44.44914735 76.51473337 -42.5411001 71.79200003 -40.62719727 67.0715332 C-38.17696328 61.02730365 -35.74280025 54.9767626 -33.31392193 48.92392445 C-31.44131401 44.26091049 -29.56179943 39.60070602 -27.68003273 34.94138145 C-26.78002623 32.71140222 -25.8817952 30.48070555 -24.9853878 28.24927711 C-23.73098749 25.13060154 -22.46771346 22.01567062 -21.2019043 18.90161133 C-20.83447617 17.98354706 -20.46704803 17.06548279 -20.08848572 16.11959839 C-16.00709726 6.1394625 -12.08678624 -1.92718255 0 0 Z " fill="#1E1261" transform="translate(305,227)"/>
<path d="M0 0 C0 37.29 0 74.58 0 113 C-3 113 -3 113 -5.671875 110.65625 C-6.70629807 109.61240626 -7.73187134 108.55974284 -8.75 107.5 C-9.56440552 106.66915894 -9.56440552 106.66915894 -10.39526367 105.8215332 C-13.6970872 102.42882927 -16.83066399 98.93277353 -19.89453125 95.32421875 C-22.97317981 91.9257106 -26.24240906 88.72615459 -29.5 85.5 C-33.89859658 81.14385067 -38.18073095 76.78763906 -42.171875 72.05078125 C-46.54259105 67.1477344 -51.32267959 62.60819745 -56 58 C-54.66000502 54.993182 -53.20154709 53.00237391 -50.8125 50.75 C-48.40819371 48.41914502 -46.15533681 46.06189905 -44 43.5 C-39.80082124 38.6136829 -35.19093501 34.13855 -30.59375 29.63085938 C-26.81953304 25.90775161 -23.27929971 22.06604322 -19.81689453 18.05273438 C-16.58129118 14.39713736 -13.13687214 10.95256897 -9.6875 7.5 C-8.97271484 6.77296875 -8.25792969 6.0459375 -7.52148438 5.296875 C-6.83763672 4.61109375 -6.15378906 3.9253125 -5.44921875 3.21875 C-4.83393311 2.59935547 -4.21864746 1.97996094 -3.5847168 1.34179688 C-2 0 -2 0 0 0 Z " fill="#FEC001" transform="translate(438,81)"/>
<path d="M0 0 C3.58453637 1.79226819 5.33702724 3.09017903 8.08203125 5.8515625 C8.84966797 6.62113281 9.61730469 7.39070313 10.40820312 8.18359375 C11.20162109 8.98925781 11.99503906 9.79492188 12.8125 10.625 C13.59431641 11.40746094 14.37613281 12.18992187 15.18164062 12.99609375 C19.38473106 17.23078637 23.40282711 21.55979425 27.2956543 26.07958984 C30.21464484 29.36862861 33.3613569 32.42247319 36.5 35.5 C41.05291069 40.00389477 45.50025871 44.51871703 49.63671875 49.4140625 C51.63653763 51.74049937 53.79848824 53.86520072 56 56 C54.54811406 59.35043397 52.7180341 61.50486196 50.11328125 64.046875 C49.33919922 64.81 48.56511719 65.573125 47.76757812 66.359375 C46.95740234 67.14828125 46.14722656 67.9371875 45.3125 68.75 C40.24053552 73.71035646 35.32045271 78.69029469 30.69995117 84.07519531 C27.78865901 87.37156576 24.63882165 90.42229812 21.5 93.5 C16.94554998 98.00541752 12.50542499 102.52799576 8.35546875 107.4140625 C6.34981166 109.76073909 4.27931984 111.91605043 2 114 C1.34 114 0.68 114 0 114 C0 76.38 0 38.76 0 0 Z " fill="#FEC001" transform="translate(250,81)"/>
<path d="M0 0 C1.30634903 0.14457138 2.61269806 0.28914276 3.95863342 0.43809509 C7.44378437 0.8239434 10.92790487 1.2183852 14.41181183 1.6152916 C18.01485124 2.02494761 21.61853174 2.42888542 25.22216797 2.83325195 C29.51318252 3.314891 33.80414119 3.79697562 38.09472656 4.28242493 C46.05824486 5.18157974 54.0247623 6.03481342 62 6.82421875 C64.46108247 7.0735396 66.92206386 7.32383662 69.38302612 7.57434082 C70.85896972 7.72109595 72.33548182 7.8622562 73.81253052 7.99743652 C75.80480907 8.18020536 77.79508867 8.38439473 79.78515625 8.58984375 C81.38931396 8.74296021 81.38931396 8.74296021 83.02587891 8.89916992 C87.41329744 9.94824115 90.55285438 12.31045957 93.87109375 15.296875 C95.67765715 19.01036643 95.64051354 22.56774221 94.99609375 26.609375 C92.99108495 30.4119779 91.56923113 32.22728341 87.99609375 34.609375 C77.87349589 35.78675926 67.1577054 33.82885477 57.08203125 32.7109375 C55.25906236 32.51339506 53.43603244 32.3164151 51.61294556 32.1199646 C46.83536829 31.60360689 42.05866332 31.07957811 37.28210449 30.55389404 C32.47243875 30.02597439 27.66196391 29.50554059 22.8515625 28.984375 C17.41241534 28.39424748 11.97337448 27.80317479 6.53475952 27.2081604 C5.70625803 27.11763586 4.87775654 27.02711132 4.02414894 26.93384361 C2.39812747 26.7548519 0.7723448 26.57367557 -0.85317421 26.39017677 C-4.90628219 25.93459965 -8.95731838 25.51865139 -13.0211792 25.17059326 C-14.24079629 25.05773767 -14.24079629 25.05773767 -15.48505211 24.94260216 C-17.01556188 24.80185414 -18.5473328 24.67393336 -20.08020973 24.56186867 C-26.02852841 23.99225175 -29.99364035 21.95468522 -33.87890625 17.421875 C-35.47717969 13.42619141 -35.70482801 9.85341774 -35.00390625 5.609375 C-28.03168335 -6.09399916 -11.39265531 -1.31265976 0 0 Z " fill="#1E1160" transform="translate(345.00390625,425.390625)"/>
<path d="M0 0 C13.4937747 9.45232237 13.4937747 9.45232237 16 16 C16.78504403 20.50575693 17.10622812 24.84222423 14.97265625 29.00390625 C11.90531438 32.87304569 9.24874334 33.77701012 4.5 34.625 C-1.05210962 34.59454967 -4.17631538 30.81215415 -8.140625 27.32421875 C-12.39777502 23.86383042 -16.89621076 21.91111051 -22 20 C-22.76441406 19.68160156 -23.52882813 19.36320313 -24.31640625 19.03515625 C-36.09860245 14.70903683 -49.73226091 15.85810216 -61 21 C-67.27931142 24.01271545 -72.98168311 27.47613568 -78.44140625 31.80078125 C-81.91929019 34.47674709 -84.67111455 34.43288855 -89 34 C-91.97672584 32.22719439 -94.42804007 30.14391985 -96 27 C-96.89841016 21.64344129 -97.17745159 16.95244859 -94.30859375 12.1953125 C-83.87352801 0.2539677 -70.27064164 -5.76209891 -55 -9 C-53.84262329 -9.25910156 -53.84262329 -9.25910156 -52.66186523 -9.5234375 C-34.1102106 -12.84480133 -16.05169328 -9.53529486 0 0 Z " fill="#FEC002" transform="translate(1134,494)"/>
<path d="M0 0 C12.72275704 8.8438677 17.24971686 22.88391039 22 37 C22 37.66 22 38.32 22 39 C21.47269287 39.18062988 20.94538574 39.36125977 20.40209961 39.54736328 C10.41185891 42.97971293 0.52344931 46.52783469 -9.2578125 50.51953125 C-18.0269366 54.04465303 -27.03027446 57.03341371 -36 60 C-49.14045504 28.96692536 -49.14045504 28.96692536 -44.4375 15.75 C-40.52544108 7.22827725 -34.58211731 1.69617991 -26 -2 C-17.98810447 -4.60968381 -7.39624702 -4.1207662 0 0 Z " fill="#FEFEFD" transform="translate(193,346)"/>
<path d="M0 0 C5.32075396 2.2975983 8.19724826 6.13193428 10.45703125 11.390625 C10.91740421 12.67404844 11.36879475 13.96071933 11.8125 15.25 C12.32691284 16.68319659 12.84392983 18.11546062 13.36328125 19.546875 C13.62963379 20.28228516 13.89598633 21.01769531 14.17041016 21.77539062 C15.51834749 25.38998891 17.00888245 28.94261957 18.5 32.5 C20.96950799 38.42199801 23.3010573 44.36985785 25.50634766 50.39599609 C27.1157828 54.75262548 28.83009203 59.05646377 30.59765625 63.3515625 C31.05487061 64.46853516 31.51208496 65.58550781 31.9831543 66.73632812 C32.89648432 68.95997674 33.81825482 71.18018112 34.74926758 73.39648438 C35.16974365 74.42322266 35.59021973 75.44996094 36.0234375 76.5078125 C36.40419434 77.42191895 36.78495117 78.33602539 37.17724609 79.27783203 C38.10948657 82.36224786 38.26149899 84.79348511 38 88 C35.86048252 91.89697826 33.76396533 94.64242605 30 97 C27.6328125 97.46875 27.6328125 97.46875 25.125 97.5 C24.30257813 97.5309375 23.48015625 97.561875 22.6328125 97.59375 C18.75542841 96.7193251 16.41919714 95.06117179 14 92 C11.91337459 87.94250246 10.37273755 83.72036228 8.8125 79.4375 C8.34261302 78.18866499 7.87081572 76.94054728 7.3972168 75.69311523 C6.41375545 73.09853959 5.43858513 70.50106497 4.46875 67.90136719 C2.61022727 62.93965415 0.65999163 58.01482412 -1.29101562 53.08886719 C-2.67192397 49.6018322 -4.04072633 46.11027237 -5.40625 42.6171875 C-7.07697013 38.34466882 -8.7654499 34.07993638 -10.46875 29.8203125 C-11.2088001 27.94289226 -11.94841099 26.0652988 -12.6875 24.1875 C-13.02676514 23.35226807 -13.36603027 22.51703613 -13.71557617 21.65649414 C-15.90067092 16.049841 -17.31471731 11.0446085 -14.8125 5.25 C-10.69837537 0.1428108 -6.29464877 -0.93396211 0 0 Z " fill="#1E1160" transform="translate(1075,246)"/>
<path d="M0 0 C2.81775484 2.27388504 4.87558527 4.24673865 5.32209778 7.90667725 C5.45102489 11.89663213 5.25734942 14.5536721 3.64631653 18.26605225 C1.26989954 20.75839202 0.20612088 21.5275447 -2.81852722 22.809021 C-3.62266052 23.15215332 -4.42679382 23.49528564 -5.2552948 23.84881592 C-6.13338806 24.21337891 -7.01148132 24.57794189 -7.91618347 24.95355225 C-8.82843689 25.33551758 -9.74069031 25.71748291 -10.68058777 26.11102295 C-13.79555009 27.40501021 -16.91710727 28.68172888 -20.04118347 29.95355225 C-21.19537781 30.42414063 -22.34957214 30.894729 -23.53874207 31.37957764 C-34.13411388 35.67754008 -44.79034645 39.81298804 -55.47135925 43.89300537 C-61.4159884 46.17228517 -67.30169546 48.470602 -73.04997253 51.21307373 C-76.66923591 52.64913153 -79.03138341 52.5801329 -82.91618347 51.95355225 C-86.23098611 49.850544 -89.14398444 47.49795031 -90.91618347 43.95355225 C-91.15446472 41.746521 -91.15446472 41.746521 -91.22868347 39.14105225 C-91.26606628 38.28898193 -91.3034491 37.43691162 -91.34196472 36.559021 C-90.76929996 33.05473298 -89.30665019 31.55143197 -86.91618347 28.95355225 C-84.529953 27.57000732 -84.529953 27.57000732 -81.79899597 26.4730835 C-80.7391449 26.03963623 -79.67929382 25.60618896 -78.58732605 25.15960693 C-77.417099 24.69973389 -76.24687195 24.23986084 -75.04118347 23.76605225 C-73.79564271 23.26723136 -72.55045528 22.7675275 -71.30558777 22.26702881 C-68.48479536 21.13673549 -65.65983807 20.0175466 -62.83268738 18.90325928 C-58.27390189 17.10238042 -53.73231532 15.26049134 -49.19132996 13.41526794 C-45.07103814 11.74504786 -40.94416705 10.09153379 -36.81578064 8.44143677 C-34.76794361 7.62028161 -32.72221309 6.79385228 -30.67869568 5.96200562 C-27.7707704 4.78092954 -24.85467028 3.62267617 -21.93571472 2.46917725 C-21.07306503 2.11351181 -20.21041534 1.75784637 -19.32162476 1.3914032 C-13.42752814 -0.90240518 -5.94097583 -3.24442879 0 0 Z " fill="#1E1160" transform="translate(982.9161834716797,476.04644775390625)"/>
<path d="M0 0 C2.29682922 1.72387695 2.29682922 1.72387695 4.70825195 3.98828125 C5.58542877 4.8073999 6.46260559 5.62651855 7.36636353 6.47045898 C11.29144221 10.24039748 15.19179058 14.02947852 19.04296875 17.875 C19.85566727 18.68437012 20.66836578 19.49374023 21.50569153 20.32763672 C23.20683611 22.02376203 24.90666879 23.72120409 26.60522461 25.41992188 C29.18648299 27.99898385 31.77565618 30.56992021 34.36523438 33.140625 C36.02913547 34.80159297 37.69256318 36.46303534 39.35546875 38.125 C40.11917282 38.88151855 40.88287689 39.63803711 41.66972351 40.41748047 C55.29275624 54.09808738 55.29275624 54.09808738 55.625 60.75 C55.28499083 64.50317812 54.54406055 67.11673138 52 70 C48.22927892 72.54304445 44.63773046 73.75082717 40.03344727 73.52026367 C31.98123609 71.46008094 24.03992254 60.19077747 18.24536133 54.37573242 C16.44137915 52.56639067 14.63211335 50.76245681 12.82226562 48.95898438 C7.52575607 43.66516371 2.30934172 38.37139279 -2.5480957 32.66577148 C-5.6876251 29.06378577 -9.20962529 25.83208593 -12.64453125 22.515625 C-16.38249779 18.52350153 -17.52192233 15.60579756 -17.38671875 10.03125 C-16.56869194 5.73454353 -13.5926679 3.20823082 -10.1875 0.625 C-6.5427443 -0.41635877 -3.659555 -1.03202536 0 0 Z " fill="#1E1160" transform="translate(482,169)"/>
<path d="M0 0 C3.48478389 1.24926215 5.43164611 2.35586559 7.875 5.125 C9.43153789 9.10281904 10.16249008 12.83605249 9 17 C5.22160312 22.70494143 -0.04559816 26.5415939 -5.5625 30.4375 C-7.24351534 31.64789759 -8.92314857 32.86021646 -10.6015625 34.07421875 C-11.91495605 35.02240479 -11.91495605 35.02240479 -13.25488281 35.98974609 C-18.96347053 40.17015442 -24.54973186 44.51483777 -30.14477539 48.84545898 C-30.98258545 49.48942627 -31.82039551 50.13339355 -32.68359375 50.796875 C-33.42150146 51.36760742 -34.15940918 51.93833984 -34.91967773 52.52636719 C-39.23911628 55.58611734 -42.4901671 56.4992839 -47.74609375 56.38671875 C-52.25729059 55.61270058 -54.71944182 52.7462157 -57.375 49.125 C-58.67198145 44.71526306 -58.67172987 41.27788189 -56.51953125 37.18359375 C-53.57415245 33.00490262 -49.44859979 30.34438416 -45.3125 27.4375 C-43.60049782 26.20720937 -41.88958301 24.97540437 -40.1796875 23.7421875 C-39.31569336 23.12182617 -38.45169922 22.50146484 -37.56152344 21.86230469 C-33.62915969 19.00335781 -29.78482173 16.03428433 -25.9375 13.0625 C-23.89319353 11.50061055 -21.84705536 9.94114602 -19.80078125 8.38183594 C-18.18997819 7.14578044 -16.59394381 5.89053379 -15 4.6328125 C-9.74314123 0.6420874 -6.63862219 -1.10643703 0 0 Z " fill="#1E1160" transform="translate(952,291)"/>
<path d="M0 0 C5.50713097 3.19413596 10.0403077 7.68105205 12.125 13.8125 C13.12738784 21.1633442 12.68137253 27.77004905 8.125 33.8125 C4.22272988 37.99274005 -0.05710441 40.52047044 -5.77734375 41.11328125 C-13.22671787 41.14204331 -17.6518035 40.49849708 -23.5 35.625 C-28.31705151 29.9205969 -30.61352712 24.82926402 -30.25390625 17.265625 C-29.2122827 10.52191786 -25.84853721 6.26369618 -20.65625 2.0390625 C-14.51778992 -2.18785957 -7.01206984 -2.71236108 0 0 Z " fill="#FEC003" transform="translate(1102.875,536.1875)"/>
<path d="M0 0 C4.77743179 2.11343637 7.64198684 4.42520791 9.8515625 9.3046875 C10.57949667 14.58687649 9.83718494 18.40681882 7.8515625 23.3046875 C8.39042928 29.02172723 10.56303503 33.9706108 12.76757812 39.20703125 C14.72811609 44.13448501 15.21268308 47.99678822 14.8515625 53.3046875 C13.8515625 55.3046875 13.8515625 55.3046875 11.8515625 56.3046875 C6.27763933 57.01248727 6.27763933 57.01248727 3.8515625 56.3046875 C-1.2741273 51.55574085 -2.76576648 44.35442311 -4.796875 37.87695312 C-6.49693375 32.71545119 -6.49693375 32.71545119 -10.109375 28.85229492 C-12.2111589 27.79114161 -12.2111589 27.79114161 -14.30371094 27.06298828 C-17.72253587 25.65763224 -18.71099518 23.59882614 -20.1484375 20.3046875 C-20.90750707 14.99910747 -20.82985825 10.74615447 -18.5234375 5.8671875 C-13.06423252 -0.02300734 -7.83547415 -2.53584436 0 0 Z " fill="#FEFDFA" transform="translate(209.1484375,427.6953125)"/>
<path d="M0 0 C2.9375 1.4375 2.9375 1.4375 5 4 C5.89487669 8.27813857 5.70907738 11.73599249 3.5625 15.5625 C-0.26400751 17.70907738 -3.72186143 17.89487669 -8 17 C-11.31578076 14.33120085 -11.89008359 12.68392436 -12.5625 8.5 C-12 5 -12 5 -9.9375 2.0625 C-6.2404927 -0.53327109 -4.43355658 -0.71253588 0 0 Z " fill="#FEFDFA" transform="translate(987,255)"/>
</svg>
