<?xml version="1.0" encoding="UTF-8"?>
<svg version="1.1" xmlns="http://www.w3.org/2000/svg" width="1335" height="751">
<path d="M0 0 C440.55 0 881.1 0 1335 0 C1335 247.83 1335 495.66 1335 751 C894.45 751 453.9 751 0 751 C0 503.17 0 255.34 0 0 Z " fill="#FEFEFE" transform="translate(0,0)"/>
<path d="M0 0 C264 0 528 0 800 0 C800 16.83 800 33.66 800 51 C807.92 51.99 807.92 51.99 816 53 C819.50641339 53.93673138 822.70138379 54.86089013 826.0625 56.125 C826.899021 56.42994385 827.73554199 56.7348877 828.59741211 57.04907227 C859.68629518 68.74485186 884.58011417 92.70432847 898.37207031 122.80078125 C901.13362252 129.06068037 903.35383135 135.35170537 905 142 C905.29777344 143.16015625 905.59554687 144.3203125 905.90234375 145.515625 C909.82784656 163.0989832 909.1418476 181.52718244 905 199 C904.69255859 200.33611328 904.69255859 200.33611328 904.37890625 201.69921875 C902.57360545 208.48311306 899.5770572 214.87241795 896.71875 221.265625 C896.43644531 221.89791016 896.15414062 222.53019531 895.86328125 223.18164062 C895.04380814 224.90772538 894.10251186 226.57440715 893.15625 228.234375 C891.73439688 230.80806189 891.73439688 230.80806189 892.54359436 232.77749634 C894.67123381 236.024316 897.38769186 238.62224045 900.14624023 241.32568359 C900.7756955 241.95061203 901.40515076 242.57554047 902.05368042 243.21940613 C903.41944461 244.57422185 904.7874758 245.92675521 906.15749931 247.27726364 C908.32688824 249.41647752 910.48952191 251.56231098 912.65040588 253.71011353 C918.79501537 259.81498228 924.95219315 265.90711905 931.11254883 271.99609375 C934.88182579 275.72261449 938.64373287 279.45644978 942.40141487 283.19466019 C943.83341943 284.61610878 945.26833069 286.03463537 946.70620537 287.45014572 C948.71912729 289.43181118 950.72262033 291.42258121 952.72436523 293.41552734 C953.31823532 293.99546951 953.91210541 294.57541168 954.52397156 295.17292786 C958.98881362 299.64781848 962.41170465 304.17199609 962.5 310.75 C962.29607981 316.61935492 960.38285684 321.23443304 957 326 C951.54151303 330.98383593 945.79392949 330.44093544 938.62109375 330.43359375 C931.49009024 329.57971954 927.35553631 325.78771468 922.53564453 320.8762207 C921.92029343 320.26130768 921.30494232 319.64639465 920.67094421 319.0128479 C918.65103535 316.99085914 916.64194441 314.95847398 914.6328125 312.92578125 C913.22956903 311.51693901 911.82565909 310.1087603 910.42111206 308.70121765 C906.73526317 305.00394225 903.05851459 301.29774501 899.38360596 297.58959961 C895.62839287 293.80363852 891.86461905 290.02620918 888.1015625 286.24804688 C880.72598457 278.84034348 873.35999503 271.42318387 866 264 C862.50990829 265.66752928 859.77397335 267.70075321 856.75 270.125 C841.15759773 282.11896856 819.7692985 291.08336624 800 291 C800.02094727 292.25433838 800.04189453 293.50867676 800.06347656 294.80102539 C800.13674618 299.52551522 800.18211095 304.24995661 800.21972656 308.97485352 C800.23964639 311.00651539 800.26679238 313.03812144 800.30175781 315.06958008 C800.68843356 338.13933754 796.61097222 357.72030909 780 375 C774.34931874 380.51592733 768.23239263 384.70021436 761.25 388.3125 C760.65566162 388.62598389 760.06132324 388.93946777 759.44897461 389.26245117 C743.68536676 396.95808695 727.80085014 396.56971318 710.64027405 396.50793457 C707.85035406 396.51033105 705.06045914 396.5187395 702.27055067 396.52684355 C696.22081206 396.54123301 690.17121645 396.54088757 684.12147141 396.53065491 C675.12502657 396.51547975 666.12870162 396.52328333 657.13225751 396.53548814 C641.06124859 396.55651996 624.99030339 396.55473791 608.91928846 396.54317249 C594.85445918 396.53310081 580.78965323 396.53048786 566.72482109 396.53526306 C565.32409509 396.53572137 565.32409509 396.53572137 563.8950716 396.53618894 C560.10416477 396.53743435 556.31325796 396.53870795 552.52235116 396.540028 C516.9768821 396.55225781 481.43145357 396.54118014 445.88599077 396.51964041 C414.32444414 396.50066024 382.76296208 396.5023559 351.20141602 396.52148438 C315.72148013 396.54291591 280.24158004 396.55138884 244.76163858 396.53903532 C240.97742395 396.5377525 237.19320932 396.53650114 233.40899467 396.53526306 C232.0113945 396.5347886 232.0113945 396.5347886 230.58555997 396.53430455 C216.53224542 396.52975987 202.47895679 396.53506606 188.42564583 396.54518127 C172.4412514 396.55662924 156.45693051 396.55373578 140.47254521 396.5320583 C131.5330937 396.52033393 122.59380154 396.51951624 113.65435424 396.534643 C107.67566431 396.54364166 101.69710159 396.537978 95.71843044 396.52062392 C92.31690927 396.51115065 88.91596123 396.50999113 85.51441086 396.52224785 C61.15156616 396.60328149 40.84950803 393.98489842 22 377 C21.36578125 376.44699219 20.7315625 375.89398437 20.078125 375.32421875 C9.0028447 365.05753192 2.10562523 349.73937664 0 335 C0 224.45 0 113.9 0 0 Z " fill="#1C0F5F" transform="translate(263,250)"/>
<path d="M0 0 C2.79944362 -0.00167563 5.59886368 -0.00937312 8.39829725 -0.0167709 C14.47186753 -0.02963424 20.54529165 -0.02774485 26.61886215 -0.01599121 C35.65059103 0.00143895 44.68220564 -0.00412555 53.71394055 -0.01415812 C69.84689153 -0.03132844 85.97977445 -0.02582308 102.11272401 -0.01080093 C116.23045348 0.00225978 130.34815936 0.00744508 144.4658947 0.00488091 C145.40298884 0.00472049 146.34008298 0.00456007 147.30557391 0.0043948 C151.10969966 0.00373119 154.9138254 0.00302878 158.71795113 0.00226946 C194.38977677 -0.00475166 230.06156087 0.0107271 265.73337594 0.03689292 C297.41556099 0.06000917 329.09770039 0.06539513 360.77989197 0.05516052 C368.89373046 0.05255844 377.00756896 0.04997341 385.12140751 0.0475626 C386.1203631 0.04726515 387.11931869 0.0469677 388.14854566 0.04666124 C414.63446694 0.03904419 441.12038449 0.04546043 467.60630411 0.05625862 C470.45663615 0.05740641 473.30696819 0.05854958 476.15730023 0.05968544 C478.04807425 0.06044069 479.93884827 0.06120633 481.82962228 0.06198245 C495.93808568 0.0676376 510.04653725 0.06631299 524.15500069 0.06175423 C540.19841844 0.05664387 556.24179201 0.06251077 572.28519876 0.08264852 C581.26079808 0.09362532 590.23631052 0.09643688 599.21191248 0.08735999 C605.2109027 0.08213251 611.20981872 0.08785921 617.20879338 0.10241334 C620.62431634 0.11040119 624.0395199 0.11211188 627.45506371 0.10384078 C631.14198881 0.09567686 634.82842672 0.10602044 638.51532078 0.12088871 C639.56491394 0.11415106 640.61450711 0.10741341 641.69590613 0.10047159 C661.21083034 0.25242195 678.6880252 8.0349417 692.91441345 21.18870544 C719.5427523 49.50594527 712.66441345 84.23180308 712.66441345 122.50120544 C448.66441345 122.50120544 184.66441345 122.50120544 -87.33558655 122.50120544 C-87.33558655 41.60853083 -87.33558655 41.60853083 -66.33558655 20.50120544 C-65.67171936 19.80253357 -65.00785217 19.10386169 -64.3238678 18.38401794 C-59.8996871 14.05253437 -55.11870659 11.05574305 -49.64808655 8.25120544 C-48.73240906 7.77529968 -48.73240906 7.77529968 -47.79823303 7.28977966 C-45.67594269 6.25831024 -43.52681193 5.37783518 -41.33558655 4.50120544 C-40.49544103 4.15834895 -39.65529551 3.81549245 -38.78969103 3.46224636 C-26.19378948 -0.88565856 -13.1590074 -0.05059723 0 0 Z " fill="#1C0F5F" transform="translate(350.33558654785156,105.49879455566406)"/>
<path d="M0 0 C37.29 0 74.58 0 113 0 C113 36.96 113 73.92 113 112 C96.5 112 80 112 63 112 C63 126.52 63 141.04 63 156 C119.1 156 175.2 156 233 156 C233 170.85 233 185.7 233 201 C248.18 201 263.36 201 279 201 C279 238.29 279 275.58 279 314 C242.04 314 205.08 314 167 314 C167 276.71 167 239.42 167 201 C184.49 201 201.98 201 220 201 C220 190.44 220 179.88 220 169 C168.19 169 116.38 169 63 169 C63 179.56 63 190.12 63 201 C66.52558594 200.98839844 70.05117188 200.97679687 73.68359375 200.96484375 C77.08243723 200.95705437 80.48127974 200.95097693 83.88012695 200.94506836 C86.24992312 200.94002659 88.61971615 200.93319335 90.98950195 200.92456055 C94.38754039 200.9124881 97.78553785 200.90677029 101.18359375 200.90234375 C102.25024765 200.89718246 103.31690155 200.89202118 104.4158783 200.88670349 C105.88729027 200.88659019 105.88729027 200.88659019 107.38842773 200.88647461 C108.25668686 200.884254 109.12494598 200.88203339 110.01951599 200.87974548 C112 201 112 201 113 202 C113.0977394 203.43981214 113.12631713 204.88438903 113.12698364 206.32751465 C113.12980347 207.26141525 113.13262329 208.19531586 113.13552856 209.15751648 C113.13249222 210.70666496 113.13249222 210.70666496 113.12939453 212.28710938 C113.13202301 213.90888847 113.13202301 213.90888847 113.13470459 215.56343079 C113.13912558 219.15688659 113.13618424 222.75029365 113.1328125 226.34375 C113.13348547 228.82857269 113.13445543 231.31339531 113.13571167 233.79821777 C113.13737858 239.68313375 113.13386577 245.56803187 113.1285609 251.45294523 C113.12480608 256.15369598 113.12613367 260.85442581 113.13037109 265.55517578 C113.13615037 272.0207429 113.13708453 278.48628971 113.13381577 284.95185852 C113.13314625 287.42393498 113.13397577 289.8960123 113.13629532 292.36808777 C113.13882039 295.81637898 113.1349833 299.26460435 113.12939453 302.71289062 C113.13141876 303.74565628 113.13344299 304.77842194 113.13552856 305.84248352 C113.13129883 307.24333443 113.13129883 307.24333443 113.12698364 308.67248535 C113.12660662 309.48881691 113.12622959 310.30514847 113.12584114 311.14621735 C113 313 113 313 112 314 C110.56018786 314.0977394 109.11561097 314.12631713 107.67248535 314.12698364 C106.27163445 314.13121338 106.27163445 314.13121338 104.84248352 314.13552856 C103.29333504 314.13249222 103.29333504 314.13249222 101.71289062 314.12939453 C100.63170456 314.13114685 99.55051849 314.13289917 98.43656921 314.13470459 C94.84311341 314.13912558 91.24970635 314.13618424 87.65625 314.1328125 C85.17142731 314.13348547 82.68660469 314.13445543 80.20178223 314.13571167 C74.31686625 314.13737858 68.43196813 314.13386577 62.54705477 314.1285609 C57.84630402 314.12480608 53.14557419 314.12613367 48.44482422 314.13037109 C41.9792571 314.13615037 35.51371029 314.13708453 29.04814148 314.13381577 C26.57606502 314.13314625 24.1039877 314.13397577 21.63191223 314.13629532 C18.18362102 314.13882039 14.73539565 314.1349833 11.28710938 314.12939453 C10.25434372 314.13141876 9.22157806 314.13344299 8.15751648 314.13552856 C7.22361588 314.13270874 6.28971527 314.12988892 5.32751465 314.12698364 C4.51118309 314.12660662 3.69485153 314.12622959 2.85378265 314.12584114 C1 314 1 314 0 313 C-0.0956161 311.54518505 -0.12188351 310.08574514 -0.12025452 308.62779236 C-0.12231651 307.21215248 -0.12231651 307.21215248 -0.12442017 305.76791382 C-0.12082489 304.72422638 -0.11722961 303.68053894 -0.11352539 302.60522461 C-0.11367142 301.51267868 -0.11381744 300.42013275 -0.1139679 299.29447937 C-0.11326822 295.66374767 -0.10547329 292.03306654 -0.09765625 288.40234375 C-0.09579226 285.89270557 -0.09436827 283.38306702 -0.09336853 280.87342834 C-0.08993348 274.93065407 -0.08204273 268.98789616 -0.07201904 263.04513031 C-0.0578058 254.43224996 -0.05254739 245.81936343 -0.04621124 237.2064743 C-0.03649856 225.13763437 -0.01734306 213.06884226 0 201 C16.5 201 33 201 50 201 C50 190.44 50 179.88 50 169 C-1.81 169 -53.62 169 -107 169 C-107 179.56 -107 190.12 -107 201 C-89.51 201 -72.02 201 -54 201 C-54 238.29 -54 275.58 -54 314 C-90.96 314 -127.92 314 -166 314 C-166 276.71 -166 239.42 -166 201 C-150.82 201 -135.64 201 -120 201 C-120 186.15 -120 171.3 -120 156 C-63.9 156 -7.8 156 50 156 C50 141.48 50 126.96 50 112 C33.5 112 17 112 0 112 C0 75.04 0 38.08 0 0 Z " fill="#FCBD01" transform="translate(611,285)"/>
<path d="M0 0 C23.53716442 17.6276909 41.43381885 41.5222708 48.5625 70.3125 C48.86027344 71.47265625 49.15804688 72.6328125 49.46484375 73.828125 C53.39034656 91.4114832 52.7043476 109.83968244 48.5625 127.3125 C48.25505859 128.64861328 48.25505859 128.64861328 47.94140625 130.01171875 C46.13610545 136.79561306 43.1395572 143.18491795 40.28125 149.578125 C39.99894531 150.21041016 39.71664063 150.84269531 39.42578125 151.49414062 C38.60630814 153.22022538 37.66501186 154.88690715 36.71875 156.546875 C35.29689688 159.12056189 35.29689688 159.12056189 36.10609436 161.08999634 C38.23373381 164.336816 40.95019186 166.93474045 43.70874023 169.63818359 C44.3381955 170.26311203 44.96765076 170.88804047 45.61618042 171.53190613 C46.98194461 172.88672185 48.3499758 174.23925521 49.71999931 175.58976364 C51.88938824 177.72897752 54.05202191 179.87481098 56.21290588 182.02261353 C62.35751537 188.12748228 68.51469315 194.21961905 74.67504883 200.30859375 C78.44432579 204.03511449 82.20623287 207.76894978 85.96391487 211.50716019 C87.39591943 212.92860878 88.83083069 214.34713537 90.26870537 215.76264572 C92.28162729 217.74431118 94.28512033 219.73508121 96.28686523 221.72802734 C96.88073532 222.30796951 97.47460541 222.88791168 98.08647156 223.48542786 C102.55131362 227.96031848 105.97420465 232.48449609 106.0625 239.0625 C105.85857981 244.93185492 103.94535684 249.54693304 100.5625 254.3125 C95.10401303 259.29633593 89.35642949 258.75343544 82.18359375 258.74609375 C75.05259024 257.89221954 70.91803631 254.10021468 66.09814453 249.1887207 C65.48279343 248.57380768 64.86744232 247.95889465 64.23344421 247.3253479 C62.21353535 245.30335914 60.20444441 243.27097398 58.1953125 241.23828125 C56.79206903 239.82943901 55.38815909 238.4212603 53.98361206 237.01371765 C50.29776317 233.31644225 46.62101459 229.61024501 42.94610596 225.90209961 C39.19089287 222.11613852 35.42711905 218.33870918 31.6640625 214.56054688 C24.28848457 207.15284348 16.92249503 199.73568387 9.5625 192.3125 C6.07240829 193.98002928 3.33647335 196.01325321 0.3125 198.4375 C-13.59657106 209.1366186 -32.00559574 217.01017302 -49.4375 219.3125 C-50.19933594 219.42207031 -50.96117187 219.53164063 -51.74609375 219.64453125 C-67.02967305 221.43278156 -82.50623205 221.07867881 -97.4375 217.3125 C-98.12263672 217.14621094 -98.80777344 216.97992187 -99.51367188 216.80859375 C-120.41184898 211.62722753 -137.90863613 201.1816409 -153.4375 186.3125 C-154.24703125 185.57773437 -155.0565625 184.84296875 -155.890625 184.0859375 C-177.38037253 163.8801686 -189.55092729 133.8724033 -190.7265625 104.64453125 C-191.51525503 70.06007616 -179.52673054 39.36997612 -155.74829102 14.22705078 C-138.44900605 -3.51193627 -116.58568222 -14.68753508 -92.4375 -19.6875 C-91.71369141 -19.85813965 -90.98988281 -20.0287793 -90.24414062 -20.20458984 C-59.23558461 -27.1485668 -25.65062784 -17.91184069 0 0 Z " fill="#FE1E80" transform="translate(1119.4375,321.6875)"/>
<path d="M0 0 C1.00546875 -0.00386719 2.0109375 -0.00773437 3.046875 -0.01171875 C4.0059375 -0.01042969 4.965 -0.00914062 5.953125 -0.0078125 C6.82614258 -0.00668457 7.69916016 -0.00555664 8.59863281 -0.00439453 C10.75 0.125 10.75 0.125 12.75 1.125 C12.75 53.925 12.75 106.725 12.75 161.125 C-17.14041309 161.125 -36.86212746 158.47182189 -58.5859375 137.9375 C-74.47997559 121.15787034 -81.79232319 100.61443451 -81.67431641 77.6184082 C-81.32365687 65.33708746 -78.02298741 53.97889153 -72.25 43.125 C-71.58871094 41.86623047 -71.58871094 41.86623047 -70.9140625 40.58203125 C-67.19809733 33.96104358 -62.5623068 28.52368577 -57.25 23.125 C-56.48816406 22.35027344 -55.72632813 21.57554687 -54.94140625 20.77734375 C-39.75653069 6.24075516 -20.76985711 -0.08113225 0 0 Z " fill="#1C0F5F" transform="translate(1050.25,338.875)"/>
<path d="M0 0 C19.56413138 2.44551642 37.20195798 13.10210653 50 28 C63.83339667 46.76570228 71.17500693 69.00607659 67.64111328 92.37304688 C63.74071109 113.12437234 52.81574829 132.39395968 35.78515625 145.16015625 C25.13380413 152.19632294 13.03591455 159 0 159 C0 106.53 0 54.06 0 0 Z " fill="#FEFEFE" transform="translate(1063,340)"/>
<path d="M0 0 C4.8370512 2.20283167 7.70702683 4.98413197 10.74609375 9.3125 C12.61404708 14.91635998 12.48145242 21.01991121 10.68359375 26.625 C6.8823541 31.89768726 2.30032988 36.1327375 -4.25390625 37.3125 C-10.32166843 37.38916848 -14.51396224 36.29836201 -19.25390625 32.3125 C-24.53388552 26.8465052 -25.61387693 22.55441305 -25.53515625 15.10546875 C-24.99876494 9.77880505 -22.68331771 6.6347056 -18.75390625 3 C-12.75204046 -1.05125941 -7.09008646 -2.16266069 0 0 Z " fill="#FCFBFC" transform="translate(401.25390625,156.6875)"/>
<path d="M0 0 C4.67711272 2.66859456 7.54553712 6.3846972 9.625 11.3125 C10.53249442 17.4206355 10.62683039 22.76834196 6.875 27.875 C3.23036777 32.15468179 -0.33386222 35.04480966 -6.08203125 35.55078125 C-12.37164241 35.701099 -16.54059214 35.7931707 -21.375 31.3125 C-26.86386896 25.43371139 -27.85198326 21.6540433 -27.78125 13.65234375 C-27.06413688 7.75684643 -24.14266688 4.67612792 -19.76953125 0.94140625 C-13.77991675 -3.17022936 -6.46224848 -2.94832566 0 0 Z " fill="#FCFCFD" transform="translate(467.375,157.6875)"/>
<path d="M0 0 C4.8370512 2.20283167 7.70702683 4.98413197 10.74609375 9.3125 C12.61404708 14.91635998 12.48145242 21.01991121 10.68359375 26.625 C7.79611398 30.63021387 4.19367394 34.08870991 -0.25390625 36.3125 C-6.05631903 36.80137732 -11.41138911 37.16795438 -16.75390625 34.6875 C-22.0903654 29.61786381 -25.36413835 25.68480602 -25.56640625 18.0625 C-25.50804639 12.54019833 -24.57516657 9.71092583 -21.25390625 5.3125 C-14.94561129 -0.52267284 -8.41322126 -2.5662512 0 0 Z " fill="#FCFCFD" transform="translate(337.25390625,156.6875)"/>
</svg>
