<?xml version="1.0" encoding="UTF-8"?>
<svg version="1.1" xmlns="http://www.w3.org/2000/svg" width="1335" height="751">
<path d="M0 0 C440.55 0 881.1 0 1335 0 C1335 247.83 1335 495.66 1335 751 C894.45 751 453.9 751 0 751 C0 503.17 0 255.34 0 0 Z " fill="#FEFEFE" transform="translate(0,0)"/>
<path d="M0 0 C16.77757523 14.26486505 28.62256789 35.92412364 31.31640625 57.87890625 C33.02864942 85.6720133 25.87680824 110.59780276 7.31640625 131.87890625 C6.79820312 132.48089844 6.28 133.08289063 5.74609375 133.703125 C-10.09086877 150.77361978 -33.50934377 160.20799142 -56.49609375 161.1171875 C-82.41905659 161.67191552 -105.10521174 153.12530038 -124.31420898 135.36157227 C-140.85322078 119.30187318 -151.69383969 95.75595284 -152.06420898 72.68579102 C-152.01231785 46.1694196 -143.45942617 23.76902042 -125.171875 4.28125 C-89.7334295 -29.93326174 -37.88765598 -29.94613857 0 0 Z " fill="#FE1E80" transform="translate(226.68359375,333.12109375)"/>
<path d="M0 0 C48.18 0 96.36 0 146 0 C146 47.85 146 95.7 146 145 C97.82 145 49.64 145 0 145 C0 97.15 0 49.3 0 0 Z " fill="#1C0F5F" transform="translate(283,389)"/>
<path d="M0 0 C2.79935692 1.26893545 3.32552859 2.81981635 4.63476562 5.57299805 C5.11131592 6.55389404 5.58786621 7.53479004 6.07885742 8.54541016 C6.5794165 9.60896729 7.07997559 10.67252441 7.59570312 11.76831055 C8.67609264 13.99697174 9.75814067 16.22482965 10.84179688 18.4519043 C11.37530762 19.55646973 11.90881836 20.66103516 12.45849609 21.79907227 C14.44123499 25.85610048 16.53068745 29.84832726 18.65820312 33.83081055 C23.29695425 42.56269079 27.82480282 51.35006015 32.34570312 60.14331055 C37.1951328 69.5734965 42.05334769 78.99829336 46.97070312 88.39331055 C51.84435247 97.70603793 56.66213638 107.04688116 61.47070312 116.39331055 C66.55722185 126.27751914 71.64918437 136.15866089 76.78320312 146.01831055 C77.25628906 146.9290332 77.729375 147.83975586 78.21679688 148.77807617 C80.16561342 152.51330789 82.13782213 156.20360181 84.29492188 159.82299805 C85.97070312 162.89331055 85.97070312 162.89331055 85.97070312 165.89331055 C80.63508928 165.41903376 76.19314349 163.93762421 71.19726562 162.0456543 C67.6597455 160.78225425 64.08200605 159.73110297 60.47070312 158.70581055 C51.53189917 156.15201444 42.7378568 153.18951883 33.93945312 150.19140625 C27.13643511 147.88893166 20.30343136 145.81660638 13.3894043 143.87402344 C8.04181836 142.33997697 2.75924639 140.61809501 -2.52929688 138.89331055 C-4.97168883 138.10196883 -7.41441658 137.311663 -9.85742188 136.5222168 C-10.82273834 136.21025108 -10.82273834 136.21025108 -11.80755615 135.89198303 C-17.01509112 134.21248206 -22.23153515 132.56211931 -27.45117188 130.9206543 C-28.25631226 130.66744415 -29.06145264 130.41423401 -29.89099121 130.15335083 C-31.5309872 129.63773769 -33.17100193 129.12218415 -34.81103516 128.60668945 C-47.31259192 124.67692216 -59.79991166 120.72632808 -72.19824219 116.47900391 C-78.25572038 114.41943812 -84.3675842 112.63956642 -90.52490234 110.90258789 C-95.83660178 109.37280069 -101.08697364 107.66912231 -106.34179688 105.95581055 C-108.75298531 105.17502866 -111.16446354 104.39514134 -113.57617188 103.6159668 C-114.22211807 103.40718903 -114.86806427 103.19841125 -115.53358459 102.98330688 C-125.96787651 99.61591914 -136.42518575 96.3203164 -146.87808228 93.01126099 C-148.66387848 92.44592829 -150.449656 91.88053654 -152.2354126 91.31507874 C-153.87469717 90.79606075 -155.51405703 90.27728044 -157.15350342 89.7587738 C-160.11808404 88.82038462 -163.07926512 87.87665446 -166.02929688 86.89331055 C-166.02929688 86.23331055 -166.02929688 85.57331055 -166.02929688 84.89331055 C-165.3411792 84.55187012 -164.65306152 84.21042969 -163.9440918 83.85864258 C-152.16468272 78.00765063 -140.39521555 72.15159901 -128.77905273 65.98120117 C-120.81439348 61.75828897 -112.79655933 57.64014503 -104.77929688 53.51831055 C-95.34909736 48.66890768 -85.92431377 43.81066582 -76.52929688 38.89331055 C-67.21656949 34.0196612 -57.87572627 29.2018773 -48.52929688 24.39331055 C-38.64508828 19.30679182 -28.76394653 14.2148293 -18.90429688 9.08081055 C-17.99357422 8.60772461 -17.08285156 8.13463867 -16.14453125 7.6472168 C-15.29955078 7.20635742 -14.45457031 6.76549805 -13.58398438 6.3112793 C-12.80249023 5.90441895 -12.02099609 5.49755859 -11.21582031 5.07836914 C-9.14676397 3.95697572 -7.16192942 2.74576033 -5.16210938 1.5065918 C-2.02929688 -0.10668945 -2.02929688 -0.10668945 0 0 Z " fill="#FEC001" transform="translate(320.029296875,177.106689453125)"/>
<path d="M0 0 C0.85192429 -0.00571014 1.70384857 -0.01142029 2.58158875 -0.01730347 C3.50833908 -0.01842133 4.43508942 -0.01953918 5.3899231 -0.02069092 C6.37263687 -0.02565582 7.35535065 -0.03062073 8.36784363 -0.03573608 C11.62276918 -0.05035157 14.87764588 -0.05716131 18.13259888 -0.06268311 C20.40262859 -0.06843827 22.67265829 -0.07419596 24.94268799 -0.07995605 C29.70911892 -0.09046651 34.47553299 -0.09630783 39.24197388 -0.09979248 C45.3186562 -0.10525503 51.39511194 -0.12923485 57.47172356 -0.15776443 C62.16636784 -0.1764941 66.86095889 -0.18160205 71.55563736 -0.18312836 C73.7936946 -0.18613585 76.03175133 -0.19409921 78.26977158 -0.20731354 C100.37874331 -0.3284583 119.10215552 1.93635053 135.63650513 18.00762939 C136.31841919 18.71145752 137.00033325 19.41528564 137.70291138 20.14044189 C138.25076294 20.67927002 138.7986145 21.21809814 139.36306763 21.77325439 C152.18694196 35.38365969 155.80560518 52.3793614 155.87869263 70.44512939 C155.90188616 72.6599827 155.9260033 74.87482649 155.95095825 77.08966064 C155.98605237 80.55440714 156.01542438 84.01880098 156.02883911 87.48370361 C156.04437777 90.84627034 156.08461392 94.20783105 156.12869263 97.57012939 C156.12583 99.10804642 156.12583 99.10804642 156.12290955 100.67703247 C156.24132841 107.69820436 157.24916948 114.35159281 162.14988708 119.72781372 C166.46502127 123.4791937 170.02139951 125.38981932 175.71699524 125.39199829 C177.23290253 125.40007256 177.23290253 125.40007256 178.7794342 125.40830994 C180.43381248 125.40212395 180.43381248 125.40212395 182.12161255 125.39581299 C183.28792206 125.39943344 184.45423157 125.40305389 185.65588379 125.40678406 C188.1903982 125.41368091 190.72492747 125.41618296 193.25945091 125.41483688 C197.27394054 125.41387265 201.28815808 125.4263772 205.30259705 125.44381714 C216.71733962 125.49078778 228.13207058 125.51476965 239.54690552 125.52130127 C245.85330095 125.5250621 252.15949819 125.54317526 258.46580869 125.57639563 C261.79903364 125.59323893 265.13158577 125.60011037 268.46489525 125.59345627 C272.18931156 125.58637192 275.91289944 125.60369906 279.63723755 125.62628174 C280.73003525 125.61810928 281.82283295 125.60993683 282.94874573 125.60151672 C290.11004253 125.67854905 296.8904158 126.56981152 302.32374859 131.65845299 C306.41860411 136.42974428 306.99673646 139.50617183 306.91775513 145.60528564 C306.40891725 151.60957259 303.09501511 155.29735113 298.70291138 159.14044189 C295.6980278 160.14206975 293.69690747 160.27080595 290.55679321 160.28088379 C289.49155426 160.28659393 288.42631531 160.29230408 287.32879639 160.29818726 C286.15996918 160.29930511 284.99114197 160.30042297 283.78689575 160.30157471 C282.55566986 160.30653961 281.32444397 160.31150452 280.0559082 160.31661987 C276.67527393 160.32873307 273.29470158 160.33618883 269.91405296 160.34063053 C267.79846812 160.34356439 265.68288865 160.34766997 263.56730652 160.3521347 C256.93847921 160.36581352 250.30966425 160.3754761 243.6808238 160.3793366 C236.04799728 160.38380679 228.41535077 160.4013045 220.78257895 160.43033719 C214.87241299 160.45203048 208.96229738 160.46204507 203.05209208 160.46337771 C199.52776573 160.46442106 196.0036085 160.47022669 192.47932434 160.48819733 C188.53751982 160.50790435 184.59593561 160.50335872 180.65408325 160.49688721 C179.50144989 160.50610199 178.34881653 160.51531677 177.16125488 160.52481079 C161.63603599 160.44532696 149.22434447 155.18300949 137.98416138 144.47637939 C125.65179861 131.8483778 121.59169456 118.44055503 121.52713013 101.09356689 C121.50393048 98.69772479 121.47981308 96.30189143 121.4548645 93.90606689 C121.41979991 90.14949692 121.39042142 86.39324919 121.37698364 82.63653564 C121.36143544 78.9968212 121.32118347 75.35803384 121.27713013 71.71856689 C121.27999275 70.05244354 121.27999275 70.05244354 121.28291321 68.35266113 C121.12798198 58.38464587 118.67649804 50.27967742 111.77322388 42.89825439 C106.48985884 38.41237842 99.51073693 35.01547638 92.52366638 35.01586914 C91.67285995 35.01330612 90.82205353 35.0107431 89.94546509 35.00810242 C89.01504395 35.01020218 88.0846228 35.01230194 87.12600708 35.01446533 C86.14355515 35.0125972 85.16110321 35.01072906 84.14888 35.00880432 C82.01267573 35.0047977 79.87646717 35.00272524 77.74025917 35.00234222 C73.19612767 34.99892851 68.65213948 34.97756648 64.10805798 34.95711136 C55.64559767 34.91908728 47.1832891 34.8878251 38.72073364 34.88995361 C32.83616214 34.89074142 26.95211343 34.86734505 21.06767845 34.82807159 C18.82748961 34.81761886 16.58724037 34.81608216 14.34704018 34.82372284 C11.2063831 34.83336407 8.06730317 34.81212336 4.92678833 34.78399658 C3.54633835 34.79929161 3.54633835 34.79929161 2.13800049 34.81489563 C-5.57356186 34.69147651 -10.44769351 32.06107188 -15.79708862 26.57794189 C-18.04101018 21.43562166 -18.04815045 16.66340161 -17.29708862 11.14044189 C-15.14538521 6.67764963 -12.39208077 3.90456159 -8.29708862 1.14044189 C-5.48567514 0.25176174 -2.93907283 0.01185158 0 0 Z " fill="#FEC002" transform="translate(514.2970886230469,408.85955810546875)"/>
<path d="M0 0 C1.18240936 -0.00445784 2.36481871 -0.00891569 3.58305866 -0.01350862 C4.87817801 -0.01332426 6.17329737 -0.01313989 7.50766277 -0.01294994 C8.90046007 -0.01625074 10.29325642 -0.01997676 11.68605155 -0.02409142 C15.5130433 -0.03409451 19.34001937 -0.03782547 23.16702235 -0.04048073 C27.29460383 -0.04438866 31.42217294 -0.05396646 35.54974651 -0.0626936 C45.51589548 -0.08244132 55.48204544 -0.09252079 65.44820908 -0.10142139 C70.14175087 -0.10580592 74.83529153 -0.1111722 79.52883244 -0.11641026 C95.1304787 -0.13341871 110.73212427 -0.1479139 126.33377838 -0.155159 C130.38097224 -0.15706887 134.42816608 -0.15898921 138.47535992 -0.16094494 C139.48126172 -0.16142868 140.48716352 -0.16191242 141.52354719 -0.16241082 C157.82643962 -0.17071505 174.12925876 -0.19606032 190.43211917 -0.22852562 C207.17006125 -0.26158572 223.90796606 -0.27960669 240.64594096 -0.28280324 C250.04374023 -0.284969 259.44143256 -0.29372769 268.83920002 -0.31926441 C276.84062913 -0.34095683 284.8419253 -0.34902892 292.84338049 -0.33929763 C296.9254224 -0.33474907 301.00718992 -0.33667142 305.0891943 -0.35605907 C308.82804126 -0.37366357 312.56641309 -0.37271547 316.30526491 -0.35716178 C318.29439243 -0.35365629 320.28352478 -0.36983206 322.27258331 -0.38676625 C329.35717224 -0.33569044 334.15120345 0.21106532 340.12843609 4.13422108 C343.92265135 8.90131205 345.50010292 12.80577266 345.40968609 18.94281483 C344.75668813 24.03075723 342.32863851 27.93401865 338.75343609 31.50922108 C334.02528058 34.43617449 329.65143396 35.38387003 324.13382435 35.39148998 C322.94942394 35.39793887 321.76502354 35.40438777 320.54473221 35.41103208 C319.2525257 35.40793488 317.96031918 35.40483767 316.62895489 35.40164661 C315.23529307 35.40538468 313.84163335 35.40998683 312.44797695 35.41537726 C308.62322189 35.42760318 304.79855434 35.42734729 300.97378421 35.42498851 C296.84689503 35.42458024 292.72003388 35.43562035 288.59315777 35.44510365 C280.50997645 35.46171192 272.4268243 35.4672131 264.34362735 35.4683284 C257.77346818 35.46927887 251.20331863 35.47338911 244.6331625 35.47972965 C226.00504721 35.49734089 207.37695496 35.5065686 188.74883129 35.5050687 C187.24266584 35.50494884 187.24266584 35.50494884 185.70607281 35.50482655 C184.70073651 35.50474478 183.69540021 35.50466302 182.65959917 35.50457878 C166.36323224 35.50376572 150.0669577 35.52290895 133.7706175 35.55110328 C117.0371587 35.57982545 100.30374497 35.59364397 83.57026088 35.59191573 C74.17583653 35.59125164 64.78150905 35.5967523 55.3871069 35.61827183 C47.3893544 35.63647475 39.39174272 35.64083822 31.39397849 35.62725298 C27.31396025 35.62071907 23.23421223 35.62062126 19.15421963 35.63795948 C15.41725418 35.65367661 11.68077351 35.65084089 7.94381998 35.63339122 C5.95574114 35.62886552 3.96764734 35.64398924 1.97962677 35.65987051 C-5.11438674 35.60502269 -9.86601517 35.01517525 -15.87156391 31.13422108 C-20.445351 26.31970835 -22.41344438 22.10815055 -22.25047016 15.51312733 C-21.35904836 9.91646881 -18.16144437 6.18224895 -13.87156391 2.69672108 C-9.26486725 0.2973999 -5.14289843 0.0090134 0 0 Z " fill="#FEC104" transform="translate(516.871563911438,345.86577892303467)"/>
<path d="M0 0 C0.86628525 -0.00832352 1.7325705 -0.01664703 2.62510681 -0.02522278 C5.45967223 -0.04911918 8.29400699 -0.05806727 11.12866211 -0.06469727 C13.11445682 -0.07367509 15.10025089 -0.08279713 17.08604431 -0.09205627 C21.23576496 -0.10849057 25.38540541 -0.11623692 29.53515625 -0.11914062 C34.84013987 -0.12453611 40.14436634 -0.16228838 45.44913578 -0.20788479 C49.54563635 -0.23768087 53.6419545 -0.24486465 57.738554 -0.24586678 C59.6941114 -0.25005956 61.64966981 -0.26245583 63.60511971 -0.28338432 C66.34277895 -0.31036811 69.07868008 -0.3054542 71.81640625 -0.29296875 C72.61507111 -0.30780304 73.41373596 -0.32263733 74.23660278 -0.33792114 C80.17116865 -0.26120238 84.26748881 1.51285273 88.84350586 5.30639648 C92.40196923 9.51458712 93.51809293 13.54131483 93.21850586 19.03686523 C92.44245437 23.73359354 90.83448627 27.60698918 87.1576004 30.74540615 C82.01457013 34.11132381 78.1677569 35.01996872 72.07592773 34.90234375 C70.82060997 34.90843155 70.82060997 34.90843155 69.53993225 34.91464233 C67.73666871 34.92013073 65.93334088 34.91423282 64.13014221 34.89798164 C61.27043069 34.87242901 58.41215117 34.8774026 55.55236816 34.88987732 C49.48258782 34.91056296 43.4132565 34.89097747 37.34350586 34.86889648 C30.30579611 34.84774676 23.26855042 34.84329376 16.23085022 34.86939812 C13.42329967 34.87274487 10.61664841 34.85158772 7.8092041 34.82899475 C6.07649544 34.83150743 4.34378788 34.83506888 2.61108398 34.83984375 C1.45280846 34.82051537 1.45280846 34.82051537 0.27113342 34.80079651 C-6.14906218 34.85948938 -11.33321438 36.82103824 -16.17993164 41.08764648 C-16.62594727 41.65483398 -17.07196289 42.22202148 -17.53149414 42.80639648 C-17.99297852 43.37358398 -18.45446289 43.94077148 -18.92993164 44.52514648 C-21.29690019 47.96252756 -22.40437459 50.57437789 -22.42773438 54.77685547 C-22.43792099 55.65554794 -22.4481076 56.53424042 -22.45860291 57.43955994 C-22.46074295 58.38432693 -22.462883 59.32909393 -22.46508789 60.30249023 C-22.49027502 62.32658132 -22.5156726 64.35066979 -22.54125977 66.37475586 C-22.56982268 69.54719184 -22.59384895 72.71958178 -22.61279297 75.89208984 C-22.78150812 99.55114512 -26.42107521 119.15410908 -42.96508789 137.17358398 C-52.21219169 146.17343902 -63.84081092 151.05733924 -76.15649414 154.30639648 C-76.77223171 154.48028491 -77.38796928 154.65417334 -78.02236557 154.83333111 C-80.24599367 155.32623555 -82.21827247 155.44052208 -84.49395752 155.4535675 C-85.78485039 155.46430046 -85.78485039 155.46430046 -87.1018219 155.47525024 C-88.0379985 155.47793915 -88.97417511 155.48062805 -89.9387207 155.48339844 C-91.427248 155.49325523 -91.427248 155.49325523 -92.94584656 155.50331116 C-96.22960487 155.5230202 -99.51331751 155.53470126 -102.79711914 155.54467773 C-103.91981956 155.54875326 -105.04251999 155.55282879 -106.19924164 155.55702782 C-112.14120804 155.57787799 -118.08315142 155.59218449 -124.02514648 155.6015625 C-130.15629294 155.6126268 -136.28707646 155.64703038 -142.41809464 155.6867342 C-147.13823107 155.71290077 -151.858281 155.72125438 -156.57848358 155.72484398 C-158.83825889 155.7297095 -161.09803035 155.74132246 -163.35773468 155.75988197 C-166.5243443 155.78427431 -169.69001431 155.78330791 -172.85668945 155.77636719 C-174.24880898 155.79558228 -174.24880898 155.79558228 -175.66905212 155.81518555 C-182.26664259 155.76264076 -187.81219702 154.48294919 -192.71757889 149.82361317 C-196.4838088 145.5010977 -197.47829216 142.06421621 -197.36352539 136.35717773 C-196.75895198 130.36847887 -193.17442092 127.10818165 -188.77758789 123.50561523 C-186.09892456 121.52404983 -184.43152092 121.18074685 -181.15565491 121.1750946 C-179.90063171 121.16908234 -179.90063171 121.16908234 -178.62025452 121.16294861 C-177.70030197 121.16347733 -176.78034943 121.16400604 -175.83251953 121.16455078 C-174.86478607 121.16107635 -173.89705261 121.15760193 -172.8999939 121.15402222 C-170.79215637 121.14665605 -168.68431105 121.14131527 -166.5764637 121.13773155 C-163.23372737 121.13057149 -159.8911383 121.11490553 -156.54844666 121.09638977 C-147.0417592 121.0439183 -137.53514926 120.99599961 -128.02832031 120.98046875 C-122.21625975 120.97035066 -116.40456507 120.94092199 -110.59264946 120.89914894 C-108.38285537 120.88688125 -106.17300946 120.8817099 -103.96318245 120.88394737 C-83.81237896 121.14761888 -83.81237896 121.14761888 -66.87524414 111.22827148 C-59.2875448 102.74384403 -57.87210709 94.45708293 -57.91821289 83.39624023 C-57.90278406 81.2497496 -57.88647977 79.10326512 -57.86938477 76.95678711 C-57.85300995 73.60874741 -57.84395744 70.26116198 -57.85107422 66.91308594 C-57.86777853 46.38652895 -54.94988143 31.78781213 -41.13696289 15.99780273 C-36.69284726 11.63866063 -31.65373349 8.74668223 -26.15649414 5.93139648 C-25.50414795 5.59712646 -24.85180176 5.26285645 -24.1796875 4.91845703 C-16.36404517 1.13958277 -8.61590951 0.00718864 0 0 Z " fill="#FEC001" transform="translate(693.156494140625,161.693603515625)"/>
<path d="M0 0 C34.98 0 69.96 0 106 0 C106 34.98 106 69.96 106 106 C71.02 106 36.04 106 0 106 C0 71.02 0 36.04 0 0 Z " fill="#1C0F5E" transform="translate(1111,506)"/>
<path d="M0 0 C34.98 0 69.96 0 106 0 C106 34.98 106 69.96 106 106 C71.02 106 36.04 106 0 106 C0 71.02 0 36.04 0 0 Z " fill="#1C0F5F" transform="translate(984,506)"/>
<path d="M0 0 C34.98 0 69.96 0 106 0 C106 34.98 106 69.96 106 106 C71.02 106 36.04 106 0 106 C0 71.02 0 36.04 0 0 Z " fill="#1D105F" transform="translate(860,506)"/>
<path d="M0 0 C0.85464844 0.26683594 1.70929688 0.53367187 2.58984375 0.80859375 C17.55719212 6.12874128 27.66919672 17.16238537 34.4050293 31.13696289 C40.69890087 44.7803389 40.86307788 59.66269609 36.19140625 73.921875 C29.58293089 90.99557528 17.3841959 101.45945959 0.9453125 108.87109375 C-10.65251583 113.31641522 -28.13706724 112.97825499 -39.51171875 108.25390625 C-40.33285156 107.84011719 -41.15398438 107.42632812 -42 107 C-43.27810547 106.36384766 -43.27810547 106.36384766 -44.58203125 105.71484375 C-59.70322052 97.3761234 -68.65102776 84.8044653 -74.12109375 68.69921875 C-75.11633595 64.5103549 -75.34493939 60.72367022 -75.3125 56.4375 C-75.30686035 55.65173584 -75.3012207 54.86597168 -75.29541016 54.05639648 C-74.93739103 36.57549251 -68.96817732 23.39903384 -56.45556641 11.31445312 C-49.66216978 5.17965818 -41.68997173 1.58490938 -33 -1 C-32.25105469 -1.22558594 -31.50210938 -1.45117188 -30.73046875 -1.68359375 C-20.24394492 -4.42331619 -10.21900564 -3.21168749 0 0 Z " fill="#FE1F80" transform="translate(910,124)"/>
<path d="M0 0 C10.7218664 8.94088523 19.06703326 22.11530483 20.640625 36.19140625 C22.02756364 54.39230876 17.61043965 69.71511997 5.953125 83.94140625 C-2.60360315 93.04325415 -15.03545467 100.42199401 -27.734375 101.3684082 C-50.99297047 101.91136835 -50.99297047 101.91136835 -60.359375 97.19140625 C-61.63748047 96.55525391 -61.63748047 96.55525391 -62.94140625 95.90625 C-73.74794625 89.94688309 -81.39330635 81.9144203 -87.359375 71.19140625 C-87.77058594 70.46695313 -88.18179687 69.7425 -88.60546875 68.99609375 C-92.58292434 61.5656822 -93.73118783 54.27316447 -93.671875 45.94140625 C-93.66623535 45.10730225 -93.6605957 44.27319824 -93.65478516 43.41381836 C-93.34380393 27.502972 -87.45339238 14.14880666 -76.28515625 2.890625 C-68.94269315 -3.88326286 -60.88146863 -7.96766926 -51.359375 -10.80859375 C-50.63363281 -11.03417969 -49.90789062 -11.25976562 -49.16015625 -11.4921875 C-31.61252729 -16.19534129 -14.07173728 -10.78677874 0 0 Z " fill="#FE1F80" transform="translate(1196.359375,133.80859375)"/>
<path d="M0 0 C1.26457031 0.38285156 1.26457031 0.38285156 2.5546875 0.7734375 C16.94196148 5.78370224 27.09005258 16.78667859 33.875 30.0625 C39.98553483 42.73035424 41.44875489 57.8419036 37.03515625 71.390625 C30.20871651 88.59840518 20.15390999 99.69173686 3.58203125 107.9921875 C-9.13196716 112.95468612 -26.85532062 113.51061575 -39.51171875 108.25390625 C-40.33285156 107.84011719 -41.15398438 107.42632812 -42 107 C-43.27810547 106.36384766 -43.27810547 106.36384766 -44.58203125 105.71484375 C-55.40040689 99.74894997 -63.00983902 91.71839472 -69 81 C-69.41121094 80.31035156 -69.82242188 79.62070313 -70.24609375 78.91015625 C-76.49630496 67.71472298 -76.88618812 51.49951768 -73.875 39.1875 C-68.63691443 23.28101997 -59.13383093 10.65265955 -44 3 C-40.39155379 1.4156822 -36.77606031 0.12322272 -33 -1 C-32.25105469 -1.22558594 -31.50210938 -1.45117188 -30.73046875 -1.68359375 C-20.23892109 -4.42462873 -10.22473247 -3.20393524 0 0 Z " fill="#FE1E80" transform="translate(1044,124)"/>
<path d="M0 0 C3.92079636 1.30693212 4.95105985 3.6364562 7 7 C7.81063841 8.29592307 8.62186055 9.59148114 9.43359375 10.88671875 C10.0675708 11.90644775 10.0675708 11.90644775 10.71435547 12.94677734 C12.78997656 16.26162226 14.92907108 19.53469094 17.0625 22.8125 C22.44293233 31.11152656 27.76864035 39.44537813 33.09594727 47.77856445 C37.30377159 54.35780868 41.53073622 60.92394033 45.78173828 67.4753418 C50.52949719 74.80073156 55.22339978 82.16051911 59.921875 89.51757812 C64.96210735 97.40138984 70.04986417 105.25306372 75.19091797 113.0715332 C75.69510254 113.84198975 76.19928711 114.61244629 76.71875 115.40625 C77.16154297 116.07978516 77.60433594 116.75332031 78.06054688 117.44726562 C79 119 79 119 79 120 C26.86 120 -25.28 120 -79 120 C-77.30292347 115.75730868 -75.42081414 112.39926931 -72.875 108.6875 C-71.95145518 107.3218632 -71.02830395 105.95596018 -70.10546875 104.58984375 C-69.60192871 103.84718262 -69.09838867 103.10452148 -68.57958984 102.33935547 C-66.97561226 99.96388202 -65.38599961 97.57943499 -63.80078125 95.19140625 C-53.35019135 79.44851176 -42.77831971 63.78777588 -32.20385742 48.12792969 C-26.10993942 39.10233565 -20.02504343 30.07177675 -14 21 C-13.22683936 19.83965922 -12.45345351 18.67946843 -11.6796875 17.51953125 C-10.41927083 15.62890625 -9.15885417 13.73828125 -7.8984375 11.84765625 C-5.265625 7.8984375 -2.6328125 3.94921875 0 0 Z " fill="#FEC002" transform="translate(1134,306)"/>
<path d="M0 0 C0.66 0 1.32 0 2 0 C3.33764648 1.74975586 3.33764648 1.74975586 4.87109375 4.21484375 C5.43981201 5.12016846 6.00853027 6.02549316 6.59448242 6.95825195 C7.20267822 7.94140381 7.81087402 8.92455566 8.4375 9.9375 C9.71298657 11.97170233 10.98903391 14.00555314 12.265625 16.0390625 C12.89919922 17.05258789 13.53277344 18.06611328 14.18554688 19.11035156 C16.64985134 23.03493547 19.16172363 26.9272957 21.6875 30.8125 C22.57683225 32.1835877 23.46615522 33.55468141 24.35546875 34.92578125 C24.79036621 35.59561035 25.22526367 36.26543945 25.67333984 36.95556641 C28.41443231 41.17969381 31.14755285 45.40898581 33.88232422 49.63720703 C36.1339233 53.11782055 38.3871281 56.59736625 40.64453125 60.07421875 C46.36058657 68.88375528 52.01831779 77.72861447 57.64086914 86.59814453 C60.63307034 91.31035674 63.64784215 96.00537761 66.7109375 100.671875 C67.30535645 101.57832764 67.89977539 102.48478027 68.51220703 103.41870117 C69.64205798 105.13760479 70.77564838 106.85405827 71.91357422 108.56762695 C72.67565186 109.72717896 72.67565186 109.72717896 73.453125 110.91015625 C73.89817383 111.58183838 74.34322266 112.25352051 74.80175781 112.94555664 C76 115 76 115 78 120 C25.86 120 -26.28 120 -80 120 C-77.02811732 114.65061118 -74.39956205 109.92502081 -70.921875 105.0390625 C-67.35833592 99.97729659 -63.87910064 94.86682654 -60.453125 89.7109375 C-59.96211807 88.97253128 -59.47111115 88.23412506 -58.96522522 87.4733429 C-57.93157437 85.91808679 -56.89826307 84.36260497 -55.86526489 82.80691528 C-45.4898008 67.18579344 -35.04847392 51.60962318 -24.5625 36.0625 C-23.66041809 34.72418121 -23.66041809 34.72418121 -22.7401123 33.35882568 C-19.36560047 28.35328823 -15.98381069 23.35279623 -12.59454346 18.35723877 C-10.98276591 15.97452257 -9.38133691 13.58507603 -7.78076172 11.19482422 C-6.77989464 9.7117303 -5.77876859 8.22881111 -4.77734375 6.74609375 C-4.32154434 6.05999527 -3.86574493 5.37389679 -3.39613342 4.66700745 C-2.31532056 3.07531817 -1.1644356 1.53157466 0 0 Z " fill="#FEC001" transform="translate(960,306)"/>
</svg>
