<svg xmlns="http://www.w3.org/2000/svg" width="151" height="151" viewBox="0 0 151 151">
    <g fill="none" fill-rule="evenodd">
        <path fill="#C9CFEB" stroke="#151B3A" stroke-width="2.5" d="M53.369 81.61h-9.955l.002-48.425h64.956v7.03"/>
        <path fill="#FFC000" stroke="#000" stroke-linecap="round" stroke-linejoin="round" stroke-width="2.5" d="M80.643 78.448a5.037 5.037 0 1 0 7.1-.592 5.04 5.04 0 0 0-7.1.592zm-20.152 0a5.04 5.04 0 0 0 .591 7.098 5.039 5.039 0 0 0 7.098-.592 5.035 5.035 0 0 0-.592-7.098 5.037 5.037 0 0 0-7.097.592z"/>
        <path stroke="#000" stroke-linejoin="round" stroke-width="2.5" d="M64.345 115.834l-.567-4.616c-.213-2.558-2.163-3.913-4.325-3.913H49.098c-2.163 0-4.114 1.355-4.326 3.913l-.565 4.606"/>
        <path fill="#FFC000" stroke="#000" stroke-linecap="round" stroke-linejoin="round" stroke-width="2.5" d="M50.429 92.365a5.036 5.036 0 1 0 7.693 6.506 5.036 5.036 0 0 0-7.693-6.506z"/>
        <path stroke="#000" stroke-linejoin="round" stroke-width="2.5" d="M84.483 115.835l-.568-4.617c-.211-2.558-2.162-3.913-4.326-3.913H69.236c-2.163 0-4.115 1.355-4.326 3.913l-.565 4.616"/>
        <path fill="#FFC000" stroke="#000" stroke-linecap="round" stroke-linejoin="round" stroke-width="2.5" d="M70.567 92.365a5.04 5.04 0 0 0 .593 7.098 5.036 5.036 0 1 0-.594-7.098z"/>
        <path stroke="#000" stroke-linejoin="round" stroke-width="2.5" d="M104.619 115.844l-.566-4.626c-.213-2.558-2.162-3.913-4.326-3.913H89.373c-2.162 0-4.114 1.355-4.325 3.913l-.565 4.617"/>
        <path fill="#C9CFEB" stroke="#000" stroke-linecap="round" stroke-linejoin="round" stroke-width="2.5" d="M113.833 106.091l.481-19.831c1.863-.671 3.889-2.227 3.694-4.184l-1.325-15.089c-.197-1.957-1.97-3.559-3.935-3.559h-8.937c-1.964 0-3.736 1.602-3.932 3.559l-1.326 15.089 15.28 24.015z"/>
        <path stroke="#000" stroke-width="2.5" d="M113.595 51.28a5.315 5.315 0 1 1-10.63 0 5.315 5.315 0 1 1 10.63 0z"/>
        <path fill="#FFC000" stroke="#000" stroke-linecap="round" stroke-linejoin="round" stroke-width="2.5" d="M90.705 92.365a5.036 5.036 0 1 0 7.69 6.506 5.036 5.036 0 0 0-7.69-6.506z"/>
        <circle cx="75.092" cy="75.092" r="73.592" stroke="#FFC000" stroke-width="3"/>
    </g>
</svg>
