<?xml version="1.0" encoding="UTF-8"?>
<svg version="1.1" xmlns="http://www.w3.org/2000/svg" width="1334" height="751">
<path d="M0 0 C440.22 0 880.44 0 1334 0 C1334 247.83 1334 495.66 1334 751 C893.78 751 453.56 751 0 751 C0 503.17 0 255.34 0 0 Z " fill="#FEFEFE" transform="translate(0,0)"/>
<path d="M0 0 C1.85982195 -0.00654048 1.85982195 -0.00654048 3.75721607 -0.0132131 C7.20216106 -0.02228167 10.64661562 -0.0179044 14.09152666 -0.00787924 C17.83801789 -0.000273 21.5844703 -0.01004735 25.33095604 -0.01760924 C31.89829829 -0.02845113 38.46556658 -0.02811143 45.03291225 -0.02046776 C54.79873845 -0.00913223 64.56450211 -0.01491534 74.33032787 -0.02409268 C91.77114516 -0.03990202 109.21192951 -0.03851587 126.65274994 -0.02985594 C141.91596793 -0.02231433 157.17917383 -0.02033681 172.4423933 -0.02392387 C173.45417062 -0.02415303 174.46594794 -0.02438218 175.50838518 -0.02461828 C179.61535455 -0.02555227 183.72232391 -0.02650747 187.82929326 -0.02749758 C226.37032488 -0.03667833 264.9113355 -0.02834835 303.45236388 -0.01220688 C337.70452888 0.00202926 371.95666041 0.00075738 406.20882511 -0.01358986 C444.67709128 -0.02964918 483.14533889 -0.0360262 521.61360794 -0.02675307 C525.71347812 -0.02579089 529.81334831 -0.02485237 533.9132185 -0.02392387 C535.42749567 -0.02356803 535.42749567 -0.02356803 536.9723643 -0.02320499 C552.22645147 -0.01979057 567.48052524 -0.02378714 582.73461056 -0.03136253 C600.07755885 -0.03993226 617.420469 -0.03781307 634.76341253 -0.0215203 C644.47321653 -0.01269971 654.18293798 -0.01215329 663.89273988 -0.02345882 C670.3749919 -0.03017486 676.85717761 -0.02601944 683.33941979 -0.01294452 C687.03514389 -0.00579418 690.73070372 -0.00339698 694.42642277 -0.01416247 C698.40556526 -0.02563555 702.38444752 -0.01397716 706.36358643 0 C707.5133459 -0.0070235 708.66310538 -0.014047 709.84770605 -0.02128333 C719.3434798 0.04574457 725.91358916 1.90577108 732.98299503 8.47517967 C738.34135352 14.26125636 739.87034669 19.98640604 739.86776161 27.71061134 C739.86975266 29.02136548 739.87174371 30.33211962 739.87379509 31.68259358 C739.87094201 33.14073851 739.86799641 34.59888325 739.8649683 36.05702782 C739.86540423 37.60315555 739.86627953 39.14928322 739.86755747 40.69541049 C739.86979818 44.9505711 739.8657869 49.20570665 739.8607794 53.46086407 C739.85646904 58.04706701 739.85792175 62.63326849 739.85868168 67.21947289 C739.85920654 75.16755827 739.85606367 83.11563547 739.85044384 91.0637188 C739.84232375 102.55537488 739.8397131 114.047027 739.83845585 125.53868565 C739.83626613 144.18223278 739.82960822 162.82577554 739.82015324 181.4693203 C739.81097705 199.58195029 739.80390869 217.69457908 739.79964542 235.80721092 C739.79937743 236.93468506 739.79910943 238.0621592 739.79883331 239.22379923 C739.79675394 248.04112369 739.794797 256.85844817 739.79287875 265.67577267 C739.78344164 308.9096936 739.76332414 352.14360359 739.74471378 395.37752342 C656.91471378 395.37752342 574.08471378 395.37752342 488.74471378 395.37752342 C488.74471378 389.43752342 488.74471378 383.49752342 488.74471378 377.37752342 C490.86393253 377.35174217 492.98315128 377.32596092 495.16658878 377.29939842 C497.22531605 377.26095456 499.2837948 377.21580247 501.34237003 377.17000389 C502.76998315 377.14182732 504.19775132 377.12059615 505.62557316 377.10652733 C507.6817171 377.0850495 509.73600381 377.03838368 511.79158878 376.98689842 C513.02747746 376.96595116 514.26336613 376.94500389 515.53670597 376.92342186 C519.27598213 376.28711885 520.47087861 375.35308659 522.74471378 372.37752342 C523.45353681 369.46967461 523.08443167 367.43498442 522.74471378 364.37752342 C521.20133287 362.20275941 520.10806105 361.55919706 517.74471378 360.37752342 C515.56796595 360.22282975 513.38687898 360.12750236 511.20565128 360.06111717 C509.90369816 360.01922264 508.60174503 359.97732811 507.26033878 359.93416405 C505.88013333 359.89435043 504.49992495 359.8546382 503.11971378 359.81502342 C501.73167964 359.77182935 500.34365851 359.72821477 498.95565128 359.68416405 C495.5521325 359.57780409 492.14843678 359.47713424 488.74471378 359.37752342 C488.74471378 353.43752342 488.74471378 347.49752342 488.74471378 341.37752342 C490.86393253 341.35174217 492.98315128 341.32596092 495.16658878 341.29939842 C497.22531605 341.26095456 499.2837948 341.21580247 501.34237003 341.17000389 C502.76998315 341.14182732 504.19775132 341.12059615 505.62557316 341.10652733 C507.6817171 341.0850495 509.73600381 341.03838368 511.79158878 340.98689842 C513.02747746 340.96595116 514.26336613 340.94500389 515.53670597 340.92342186 C519.27598213 340.28711885 520.47087861 339.35308659 522.74471378 336.37752342 C523.45353681 333.46967461 523.08443167 331.43498442 522.74471378 328.37752342 C521.20133287 326.20275941 520.10806105 325.55919706 517.74471378 324.37752342 C515.56796595 324.22282975 513.38687898 324.12750236 511.20565128 324.06111717 C509.90369816 324.01922264 508.60174503 323.97732811 507.26033878 323.93416405 C505.88013333 323.89435043 504.49992495 323.8546382 503.11971378 323.81502342 C501.73167964 323.77182935 500.34365851 323.72821477 498.95565128 323.68416405 C495.5521325 323.57780409 492.14843678 323.47713424 488.74471378 323.37752342 C488.74471378 317.43752342 488.74471378 311.49752342 488.74471378 305.37752342 C490.86393253 305.35174217 492.98315128 305.32596092 495.16658878 305.29939842 C497.22531605 305.26095456 499.2837948 305.21580247 501.34237003 305.17000389 C502.76998315 305.14182732 504.19775132 305.12059615 505.62557316 305.10652733 C507.6817171 305.0850495 509.73600381 305.03838368 511.79158878 304.98689842 C513.02747746 304.96595116 514.26336613 304.94500389 515.53670597 304.92342186 C519.27668361 304.28699949 520.46568689 303.34856534 522.74471378 300.37752342 C523.40262572 298.40324517 523.40262572 298.40324517 523.30721378 296.37752342 C523.32912785 295.71752342 523.35104191 295.05752342 523.37362003 294.37752342 C522.3808323 291.22033509 520.46071314 290.17686151 517.74471378 288.37752342 C514.46873924 287.74116877 514.46873924 287.74116877 510.91268253 287.76814842 C509.62039738 287.73592186 508.32811222 287.7036953 506.99666691 287.67049217 C505.6418537 287.65574992 504.28703581 287.6414323 502.93221378 287.62752342 C501.55782739 287.59934583 500.18347573 287.56941588 498.80916691 287.53767967 C495.45466776 287.46705864 492.09968711 287.42001833 488.74471378 287.37752342 C488.74471378 281.43752342 488.74471378 275.49752342 488.74471378 269.37752342 C490.86393253 269.35174217 492.98315128 269.32596092 495.16658878 269.29939842 C497.22531605 269.26095456 499.2837948 269.21580247 501.34237003 269.17000389 C502.76998315 269.14182732 504.19775132 269.12059615 505.62557316 269.10652733 C507.6817171 269.0850495 509.73600381 269.03838368 511.79158878 268.98689842 C513.02747746 268.96595116 514.26336613 268.94500389 515.53670597 268.92342186 C519.27598213 268.28711885 520.47087861 267.35308659 522.74471378 264.37752342 C523.45353681 261.46967461 523.08443167 259.43498442 522.74471378 256.37752342 C521.73458248 254.52712243 521.73458248 254.52712243 519.74471378 253.37752342 C516.45199783 252.86893434 516.45199783 252.86893434 512.67049503 252.86580467 C511.98666248 252.84785347 511.30282993 252.82990227 510.59827518 252.81140709 C508.41798378 252.75730267 506.23791123 252.72341002 504.05721378 252.69002342 C502.57736562 252.65685023 501.09754633 252.62236055 499.61776066 252.5865078 C495.99362209 252.50157819 492.36940727 252.43476708 488.74471378 252.37752342 C488.70604191 251.16516014 488.70604191 251.16516014 488.66658878 249.92830467 C488.60987003 248.85967186 488.55315128 247.79103905 488.49471378 246.69002342 C488.44830753 245.63428123 488.40190128 244.57853905 488.35408878 243.49080467 C487.60623372 239.67003232 486.62621262 237.99362105 483.74471378 235.37752342 C480.48920462 234.56185165 480.48920462 234.56185165 476.99471378 234.56502342 C475.82424503 234.51732811 474.65377628 234.4696328 473.44783878 234.42049217 C472.55580753 234.40631248 471.66377628 234.3921328 470.74471378 234.37752342 C470.73536808 233.49491844 470.72602238 232.61231346 470.71639347 231.70296288 C470.67225264 228.4129567 470.61058703 225.12423268 470.53719425 221.83479881 C470.50905364 220.4140215 470.4878047 218.99308964 470.47371769 217.5721035 C470.45218984 215.52336983 470.40549864 213.47648042 470.35408878 211.42830467 C470.33314152 210.19765282 470.31219425 208.96700096 470.29061222 207.69905663 C469.6538793 203.82483865 468.48791314 202.1361268 465.74471378 199.37752342 C463.77578847 198.63697581 463.77578847 198.63697581 461.74471378 198.81502342 C461.08471378 198.81373436 460.42471378 198.8124453 459.74471378 198.81111717 C456.7957825 199.64626373 455.64970068 200.98851038 453.74471378 203.37752342 C453.1032805 206.65868418 453.1032805 206.65868418 453.13533878 210.33064842 C453.11880253 210.99086998 453.10226627 211.65109154 453.08522892 212.33131981 C453.03682927 214.43014969 453.01539859 216.52825564 452.99471378 218.62752342 C452.96654695 220.05464302 452.9366185 221.48172901 452.90487003 222.90877342 C452.82776729 226.39868689 452.78718571 229.88633111 452.74471378 233.37752342 C446.80471378 233.37752342 440.86471378 233.37752342 434.74471378 233.37752342 C434.71893253 231.25830467 434.69315128 229.13908592 434.66658878 226.95564842 C434.62814492 224.89692116 434.58299283 222.8384424 434.53719425 220.77986717 C434.50901768 219.35225405 434.48778651 217.92448589 434.47371769 216.49666405 C434.45223986 214.4405201 434.40557404 212.3862334 434.35408878 210.33064842 C434.33314152 209.09475975 434.31219425 207.85887108 434.29061222 206.58553123 C433.65450745 202.84741999 432.7230402 201.64720515 429.74471378 199.37752342 C425.98488741 198.59091867 422.37174405 199.16851333 418.74471378 200.37752342 C417.60177065 203.80635284 417.53506906 206.61835181 417.42830753 210.23299217 C417.39713589 211.22544693 417.39713589 211.22544693 417.36533451 212.23795128 C417.30006651 214.34687194 417.24106034 216.45591477 417.18221378 218.56502342 C417.13900689 219.99667657 417.0953919 221.42831746 417.05135441 222.8599453 C416.94364194 226.36568138 416.84440071 229.87151317 416.74471378 233.37752342 C410.80471378 233.37752342 404.86471378 233.37752342 398.74471378 233.37752342 C398.71893253 231.25830467 398.69315128 229.13908592 398.66658878 226.95564842 C398.62814492 224.89692116 398.58299283 222.8384424 398.53719425 220.77986717 C398.50901768 219.35225405 398.48778651 217.92448589 398.47371769 216.49666405 C398.45223986 214.4405201 398.40557404 212.3862334 398.35408878 210.33064842 C398.33314152 209.09475975 398.31219425 207.85887108 398.29061222 206.58553123 C397.65428898 202.84613619 396.7171351 201.65447882 393.74471378 199.37752342 C391.76736301 198.75530049 391.76736301 198.75530049 389.74471378 198.87752342 C389.08471378 198.86721092 388.42471378 198.85689842 387.74471378 198.84627342 C384.77588894 199.63486752 383.65076248 200.98498961 381.74471378 203.37752342 C381.1032805 206.65868418 381.1032805 206.65868418 381.13533878 210.33064842 C381.11880253 210.99086998 381.10226627 211.65109154 381.08522892 212.33131981 C381.03682927 214.43014969 381.01539859 216.52825564 380.99471378 218.62752342 C380.96654695 220.05464302 380.9366185 221.48172901 380.90487003 222.90877342 C380.82776729 226.39868689 380.78718571 229.88633111 380.74471378 233.37752342 C374.80471378 233.37752342 368.86471378 233.37752342 362.74471378 233.37752342 C362.71893253 231.25830467 362.69315128 229.13908592 362.66658878 226.95564842 C362.62814492 224.89692116 362.58299283 222.8384424 362.53719425 220.77986717 C362.50901768 219.35225405 362.48778651 217.92448589 362.47371769 216.49666405 C362.45223986 214.4405201 362.40557404 212.3862334 362.35408878 210.33064842 C362.33314152 209.09475975 362.31219425 207.85887108 362.29061222 206.58553123 C361.65418985 202.8455536 360.7157557 201.65655031 357.74471378 199.37752342 C355.77043553 198.71961149 355.77043553 198.71961149 353.74471378 198.81502342 C353.08471378 198.79310936 352.42471378 198.7711953 351.74471378 198.74861717 C348.58752545 199.74140491 347.54405187 201.66152407 345.74471378 204.37752342 C345.10835913 207.65349796 345.10835913 207.65349796 345.13533878 211.20955467 C345.08699894 213.14798241 345.08699894 213.14798241 345.03768253 215.1255703 C345.02294028 216.48038351 345.00862266 217.8352014 344.99471378 219.19002342 C344.96653619 220.56440982 344.93660624 221.93876147 344.90487003 223.3130703 C344.834249 226.66756944 344.7872087 230.02255009 344.74471378 233.37752342 C338.80471378 233.37752342 332.86471378 233.37752342 326.74471378 233.37752342 C326.71893253 231.25830467 326.69315128 229.13908592 326.66658878 226.95564842 C326.62814492 224.89692116 326.58299283 222.8384424 326.53719425 220.77986717 C326.50901768 219.35225405 326.48778651 217.92448589 326.47371769 216.49666405 C326.45223986 214.4405201 326.40557404 212.3862334 326.35408878 210.33064842 C326.33314152 209.09475975 326.31219425 207.85887108 326.29061222 206.58553123 C325.65430922 202.84625507 324.72027695 201.65135859 321.74471378 199.37752342 C318.83686497 198.66870039 316.80217478 199.03780553 313.74471378 199.37752342 C311.89282234 200.3892203 311.89282234 200.3892203 310.74471378 202.37752342 C310.25248841 205.65441529 310.25248841 205.65441529 310.26815128 209.41658592 C310.25257175 210.0980468 310.23699223 210.77950768 310.22094059 211.48161888 C310.17345436 213.65524246 310.14566313 215.82854505 310.11971378 218.00252342 C310.0832536 220.18341798 310.04268622 222.36412929 309.99706364 224.5448513 C309.95737472 226.51838801 309.92963037 228.49215402 309.90242863 230.46590233 C309.74471378 233.37752342 309.74471378 233.37752342 308.74471378 234.37752342 C307.40203965 234.46384217 306.05497056 234.48458815 304.70955753 234.47517967 C303.90067081 234.47195702 303.0917841 234.46873436 302.25838566 234.46541405 C301.40824894 234.45703514 300.55811222 234.44865623 299.68221378 234.44002342 C298.82820988 234.4355117 297.97420597 234.43099998 297.09432316 234.42635155 C294.97775715 234.41452716 292.86122693 234.39659111 290.74471378 234.37752342 C290.73069523 233.00032127 290.73069523 233.00032127 290.71639347 231.59529686 C290.67231447 228.18047064 290.61067646 224.76689234 290.53719425 221.35262108 C290.5090129 219.87650146 290.48778413 218.40023174 290.47371769 216.92391014 C290.45224681 214.79829286 290.40558335 212.67447464 290.35408878 210.54939842 C290.33314152 209.27161522 290.31219425 207.99383202 290.29061222 206.67732811 C289.66139893 202.87390823 288.77771847 201.67540462 285.74471378 199.37752342 C282.83686497 198.66870039 280.80217478 199.03780553 277.74471378 199.37752342 C275.07039889 201.18915609 274.78551019 202.25513419 273.74471378 205.37752342 C273.59362286 207.58711596 273.49597578 209.80052389 273.42830753 212.01424217 C273.386413 213.31297264 273.34451847 214.61170311 273.30135441 215.94978905 C273.26154391 217.32153103 273.22183163 218.69327586 273.18221378 220.06502342 C273.13900543 221.44849988 273.0953904 222.83196369 273.05135441 224.21541405 C272.94513413 227.60266056 272.8444069 230.99007852 272.74471378 234.37752342 C266.80471378 234.37752342 260.86471378 234.37752342 254.74471378 234.37752342 C254.71893253 232.18611717 254.69315128 229.99471092 254.66658878 227.73689842 C254.628148 225.6086767 254.58299484 223.48069563 254.53719425 221.35262108 C254.5090129 219.87650146 254.48778413 218.40023174 254.47371769 216.92391014 C254.45224681 214.79829286 254.40558335 212.67447464 254.35408878 210.54939842 C254.33314152 209.27161522 254.31219425 207.99383202 254.29061222 206.67732811 C253.66139893 202.87390823 252.77771847 201.67540462 249.74471378 199.37752342 C246.83686497 198.66870039 244.80217478 199.03780553 241.74471378 199.37752342 C239.89282234 200.3892203 239.89282234 200.3892203 238.74471378 202.37752342 C238.25248841 205.65441529 238.25248841 205.65441529 238.26815128 209.41658592 C238.25257175 210.0980468 238.23699223 210.77950768 238.22094059 211.48161888 C238.17345436 213.65524246 238.14566313 215.82854505 238.11971378 218.00252342 C238.0832536 220.18341798 238.04268622 222.36412929 237.99706364 224.5448513 C237.95737472 226.51838801 237.92963037 228.49215402 237.90242863 230.46590233 C237.74471378 233.37752342 237.74471378 233.37752342 236.74471378 234.37752342 C233.44694211 234.62281222 230.15012969 234.76177419 226.84627628 234.90096092 C223.83296985 235.16379215 223.83296985 235.16379215 221.86971378 236.50252342 C220.19749103 239.28956135 220.25541946 241.78129915 220.11971378 245.00252342 C219.82804712 251.29419009 219.82804712 251.29419009 218.74471378 252.37752342 C216.48881655 252.48742417 214.22976176 252.53345833 211.97127628 252.55330467 C210.57542789 252.57650434 209.17959451 252.60062174 207.78377628 252.6255703 C205.5759922 252.66069637 203.36875895 252.69002923 201.16072941 252.70345116 C199.03439424 252.71891801 196.90968305 252.7591164 194.78377628 252.80330467 C193.50712101 252.81788719 192.23046574 252.83246971 190.91512394 252.84749413 C187.69998561 253.08278541 187.69998561 253.08278541 185.82039738 255.19075584 C183.82459134 259.24804924 184.35102108 263.19644532 185.74471378 267.37752342 C189.23679559 268.54155069 192.13619151 268.5887085 195.81893253 268.69392967 C196.84468136 268.72510132 196.84468136 268.72510132 197.89115238 268.75690269 C200.07140588 268.82218497 202.25177783 268.88118359 204.43221378 268.94002342 C205.91204364 268.98322895 207.39186161 269.0268439 208.87166691 269.0708828 C212.49589632 269.17861368 216.12021817 269.27784449 219.74471378 269.37752342 C219.74471378 275.31752342 219.74471378 281.25752342 219.74471378 287.37752342 C217.6370966 287.39170311 215.52947941 287.4058828 213.35799503 287.42049217 C211.30583271 287.4511493 209.25399049 287.49022768 207.20198917 287.53011131 C205.78120677 287.55323845 204.3602542 287.56767468 202.93929386 287.57308006 C200.89028912 287.58241003 198.84394029 287.62347508 196.79549503 287.67049217 C195.56484318 287.68620262 194.33419132 287.70191307 193.06624699 287.71809959 C188.85795386 288.55357183 187.34801883 290.0247497 184.74471378 293.37752342 C184.34926827 297.20016343 184.53210501 299.7396971 185.74471378 303.37752342 C189.23679559 304.54155069 192.13619151 304.5887085 195.81893253 304.69392967 C196.84468136 304.72510132 196.84468136 304.72510132 197.89115238 304.75690269 C200.07140588 304.82218497 202.25177783 304.88118359 204.43221378 304.94002342 C205.91204364 304.98322895 207.39186161 305.0268439 208.87166691 305.0708828 C212.49589632 305.17861368 216.12021817 305.27784449 219.74471378 305.37752342 C219.74471378 311.31752342 219.74471378 317.25752342 219.74471378 323.37752342 C217.6370966 323.40330467 215.52947941 323.42908592 213.35799503 323.45564842 C211.30586005 323.49411503 209.25397244 323.53925977 207.20198917 323.58504295 C205.78121186 323.61318356 204.36028001 323.63443251 202.93929386 323.64851952 C200.89056019 323.67004737 198.84367078 323.71673856 196.79549503 323.76814842 C195.56484318 323.78909569 194.33419132 323.81004295 193.06624699 323.83162498 C189.19173119 324.46840685 187.50099324 325.63087345 184.74471378 328.37752342 C183.88553923 331.32245725 184.34615169 333.23884691 184.74471378 336.37752342 C186.55634645 339.05183832 187.62232455 339.33672701 190.74471378 340.37752342 C192.95430632 340.52861435 195.16771425 340.62626143 197.38143253 340.69392967 C198.680163 340.7358242 199.97889347 340.77771873 201.31697941 340.8208828 C202.68872139 340.8606933 204.06046622 340.90040558 205.43221378 340.94002342 C206.81569024 340.98323178 208.19915405 341.02684681 209.58260441 341.0708828 C212.96985093 341.17710307 216.35726888 341.2778303 219.74471378 341.37752342 C219.74471378 347.31752342 219.74471378 353.25752342 219.74471378 359.37752342 C216.45760441 359.4161953 216.45760441 359.4161953 213.10408878 359.45564842 C210.97586707 359.49408921 208.84788599 359.53924237 206.71981144 359.58504295 C205.24369182 359.6132243 203.7674221 359.63445308 202.2911005 359.64851952 C200.16548322 359.6699904 198.041665 359.71665385 195.91658878 359.76814842 C194.63880558 359.78909569 193.36102238 359.81004295 192.04451847 359.83162498 C188.21969486 360.46437917 187.00542571 361.27652227 184.74471378 364.37752342 C183.99460012 367.83480701 183.99460012 367.83480701 184.74471378 371.37752342 C187.32854392 374.66034918 188.83498041 376.19178075 192.97445011 377.03694725 C194.16320744 377.0526577 195.35196476 377.06836815 196.57674503 377.08455467 C198.51517277 377.12806053 198.51517277 377.12806053 200.49276066 377.1724453 C201.84757598 377.17883362 203.20239392 377.1846863 204.55721378 377.19002342 C205.93160218 377.2131809 207.30595523 377.23854887 208.68026066 377.2661953 C212.03476741 377.32504629 215.38977225 377.35415144 218.74471378 377.37752342 C218.74471378 383.31752342 218.74471378 389.25752342 218.74471378 395.37752342 C135.91471378 395.37752342 53.08471378 395.37752342 -32.25528622 395.37752342 C-32.45694296 301.67435576 -32.45694296 301.67435576 -32.49942684 262.56502342 C-32.50921619 253.61320004 -32.51931859 244.6613771 -32.52994442 235.70955467 C-32.53126316 234.58759154 -32.53258191 233.46562841 -32.53394061 232.3096664 C-32.55568639 214.19707658 -32.59510506 196.08456614 -32.6410502 177.97202338 C-32.68780999 159.38327606 -32.71558062 140.79457028 -32.72572869 122.20576656 C-32.73258882 110.73571253 -32.75425491 99.26588276 -32.79486855 87.79589777 C-32.82130097 79.93019543 -32.82928605 72.06460901 -32.8227931 64.19886549 C-32.81959101 59.66087569 -32.82449502 55.12327776 -32.85131359 50.58535767 C-32.87570716 46.42734306 -32.87683457 42.26998257 -32.85978069 38.11193739 C-32.85767407 36.61108324 -32.86396527 35.11018771 -32.87970213 33.60941459 C-32.9759757 23.85777845 -32.18106957 15.66749343 -25.26544744 8.24056637 C-17.47864517 0.80328633 -10.40901217 -0.06345598 0 0 Z " fill="#FE1E7F" transform="translate(314.25528621673584,84.62247657775879)"/>
<path d="M0 0 C254.76 0 509.52 0 772 0 C772 56.18203125 772 56.18203125 764.625 64.6171875 C759.19495464 69.23794725 752.04116865 72.12244027 744.96454185 72.12995183 C743.3908307 72.13524446 743.3908307 72.13524446 741.7853274 72.14064401 C740.04708494 72.13884735 740.04708494 72.13884735 738.27372646 72.13701439 C737.04243648 72.13966622 735.81114649 72.14231804 734.54254469 72.14505023 C731.1031917 72.15142113 727.66388851 72.1532795 724.22453303 72.153273 C720.49086479 72.15434042 716.7572063 72.16112855 713.02354342 72.1671797 C705.60847351 72.17826678 698.19340833 72.18390679 690.77833159 72.18788858 C681.90047727 72.19289309 673.02263216 72.20361989 664.14478326 72.21437032 C642.68397031 72.2400149 621.22315378 72.25503858 599.7623299 72.26788078 C592.65536764 72.27213416 585.54840563 72.27669985 578.44144368 72.2814641 C540.66841026 72.30672284 502.8953764 72.32877508 465.12233639 72.34119225 C456.36842281 72.34411367 447.61450925 72.34708117 438.8605957 72.35009766 C437.77301163 72.35046857 436.68542756 72.35083947 435.56488639 72.35122162 C400.29698982 72.36337913 365.02914313 72.39432581 329.76126999 72.43601918 C293.51593208 72.47879006 257.27062052 72.50543113 221.02525669 72.51066696 C215.90771771 72.51140743 210.79017878 72.51231812 205.67263985 72.51332474 C204.16183539 72.51361066 204.16183539 72.51361066 202.62050964 72.51390236 C186.39982237 72.51741831 170.1791975 72.53772719 153.95853317 72.56412137 C137.65856948 72.59024496 121.35867801 72.59800234 105.05869638 72.58702008 C95.3714856 72.58103635 85.68451949 72.58899125 75.99734566 72.61685092 C69.52747369 72.63408292 63.05776886 72.63317079 56.58789339 72.61748323 C52.90071306 72.60905981 49.21400014 72.6085296 45.52686285 72.63009469 C41.55341139 72.65314765 37.58064436 72.63745657 33.60716152 72.61803246 C32.46472137 72.63088168 31.32228123 72.6437309 30.14522168 72.65696949 C21.01758239 72.55862455 14.00179456 69.95162096 7.125 63.875 C-7.00037688 46.35953266 0 19.73797426 0 0 Z " fill="#FE1E80" transform="translate(282,498)"/>
<path d="M0 0 C35.64 0 71.28 0 108 0 C108 26.73 108 53.46 108 81 C72.36 81 36.72 81 0 81 C0 54.27 0 27.54 0 0 Z " fill="#FE1E80" transform="translate(614,399)"/>
<path d="M0 0 C41.58 0 83.16 0 126 0 C126 18.15 126 36.3 126 55 C84.42 55 42.84 55 0 55 C0 36.85 0 18.7 0 0 Z " fill="#FE2282" transform="translate(605,587)"/>
<path d="M0 0 C59.4 0 118.8 0 180 0 C180 38.61 180 77.22 180 117 C174.06 117 168.12 117 162 117 C161.9906543 114.20370117 161.98130859 111.40740234 161.97167969 108.52636719 C161.93793386 99.29416563 161.88239837 90.06218818 161.81609726 80.83016586 C161.77656428 75.23198004 161.74440433 69.63395289 161.72900391 64.03564453 C161.71387573 58.63436493 161.67949842 53.23352139 161.63169098 47.83243561 C161.61683753 45.77037595 161.60895672 43.70825404 161.60811615 41.64614105 C161.60575667 38.76068971 161.57875931 35.87645348 161.54589844 32.99121094 C161.5509288 32.13597336 161.55595917 31.28073578 161.56114197 30.39958191 C161.48962454 25.5893285 161.48962454 25.5893285 159.09088135 21.50054932 C155.77204746 19.11874323 153.9103499 18.87105255 149.85783386 18.85282898 C148.76847031 18.84567368 147.67910675 18.83851837 146.55673218 18.83114624 C145.35618195 18.82845734 144.15563171 18.82576843 142.91870117 18.82299805 C141.65847641 18.81642685 140.39825165 18.80985565 139.09983826 18.80308533 C135.63692786 18.78567198 132.17403127 18.77512266 128.71108794 18.7668798 C126.54781527 18.76173029 124.38454688 18.75565453 122.22127724 18.74936867 C115.45363886 18.73031555 108.6860114 18.71608474 101.91835135 18.7077567 C94.10485361 18.69798311 86.29163908 18.67166123 78.47824115 18.63125581 C72.43995363 18.60110103 66.40174733 18.58628845 60.36338598 18.58297569 C56.75645948 18.58062443 53.14983549 18.57165481 49.54298973 18.54651451 C45.51830579 18.51891527 41.49425494 18.52306289 37.46948242 18.5300293 C36.27500488 18.51721924 35.08052734 18.50440918 33.84985352 18.49121094 C27.51030938 18.47752486 27.51030938 18.47752486 21.78315735 20.90437317 C18.37349541 24.91152321 18.82871456 28.62740865 18.79467773 33.67236328 C18.77982834 35.0187941 18.77982834 35.0187941 18.76467896 36.39242554 C18.733015 39.36836075 18.70828719 42.34431194 18.68359375 45.3203125 C18.66302845 47.38012107 18.64203209 49.43992539 18.62062073 51.49972534 C18.56535628 56.92812658 18.5159663 62.35656617 18.46777344 67.78503418 C18.41759032 73.32156804 18.36188763 78.85804601 18.30664062 84.39453125 C18.19900555 95.26297492 18.09808235 106.13146592 18 117 C12.06 117 6.12 117 0 117 C0 78.39 0 39.78 0 0 Z " fill="#FE1E80" transform="translate(578,363)"/>
<path d="M0 0 C16.68125542 -0.16222792 33.3621842 -0.28705545 50.04403687 -0.3626852 C57.79021097 -0.39873913 65.53588513 -0.44786925 73.28173828 -0.52807617 C80.03517595 -0.59797332 86.78825147 -0.64303724 93.54204082 -0.65861946 C97.11644528 -0.66772464 100.68981395 -0.6890328 104.2638855 -0.7401104 C108.25971891 -0.7967492 112.25376622 -0.79792131 116.25 -0.79467773 C117.42748306 -0.81984467 118.60496613 -0.8450116 119.81813049 -0.87094116 C125.58737137 -0.82030799 129.1733169 -0.46523905 133.62657166 3.38745117 C134.77550105 4.56832557 135.90295866 5.77077122 137 7 C137.89920166 7.85650146 138.79840332 8.71300293 139.72485352 9.59545898 C140.51819092 10.38766846 141.31152832 11.17987793 142.12890625 11.99609375 C143.01900391 12.88490234 143.90910156 13.77371094 144.82617188 14.68945312 C145.72916016 15.59630859 146.63214844 16.50316406 147.5625 17.4375 C148.9227832 18.79198242 148.9227832 18.79198242 150.31054688 20.17382812 C155.41641648 25.2871029 160.31687632 30.49811109 165 36 C168.12915697 39.62944451 171.18077786 43.08405421 175 46 C178.53294699 46.30467958 178.53294699 46.30467958 180.7421875 45.59375 C187.23558556 43.88614359 194.76330718 43.89197213 200.8125 46.9375 C207.04869152 50.97606683 212.80108145 56.79480572 215 64 C216.03952416 72.96179246 215.4545565 80.62185594 210 88 C204.98661097 93.53780211 199.60348612 97.46232249 192.0234375 98.34765625 C183.16936857 98.75199898 176.62606503 97.10136956 169.93359375 91.16796875 C163.13841211 83.97557398 161.64364861 77.57467606 161.796875 67.83203125 C162 65 162 65 162.70996094 62.5546875 C163.27678271 59.98162089 163.27678271 59.98162089 161.75585938 58.09057617 C161.12486328 57.49736572 160.49386719 56.90415527 159.84375 56.29296875 C159.15023437 55.62330078 158.45671875 54.95363281 157.7421875 54.26367188 C156.63230469 53.2359668 156.63230469 53.2359668 155.5 52.1875 C154.07044359 50.82942141 152.64334604 49.46874976 151.21875 48.10546875 C150.57873047 47.50887451 149.93871094 46.91228027 149.27929688 46.29760742 C144.62927679 41.61023177 140.43157356 36.55759055 136.37893677 31.35073853 C129.4701808 22.97758538 123.40498825 17.19520353 112.28744316 16.02661705 C106.02870313 15.73962722 99.81500774 15.8462095 93.5546875 16.0234375 C90.84508554 16.04465354 88.13571869 16.03864572 85.42605591 16.03335571 C79.07092643 16.0362701 72.72068217 16.12999195 66.36698067 16.25827467 C59.12144798 16.39999912 51.87646716 16.43758203 44.62974524 16.46741748 C29.75090497 16.53095687 14.87655895 16.72571788 0 17 C0 11.39 0 5.78 0 0 Z " fill="#1D0F5F" transform="translate(282,193)"/>
<path d="M0 0 C1.0881752 -0.00137466 2.1763504 -0.00274933 3.29750061 -0.00416565 C4.49655533 -0.00057037 5.69561005 0.0030249 6.93099976 0.00672913 C8.18950241 0.0065831 9.44800507 0.00643707 10.74464417 0.00628662 C14.20104126 0.00599904 17.65740384 0.01188943 21.1137929 0.01886058 C24.7239518 0.02510064 28.33411144 0.02569843 31.9442749 0.02688599 C38.78303924 0.02999737 45.62178764 0.03820817 52.46054494 0.04823548 C60.24520521 0.05940258 68.02986624 0.06490857 75.81453252 0.06993091 C91.83041531 0.08039094 107.84628105 0.09818747 123.8621521 0.12025452 C123.8621521 5.73025452 123.8621521 11.34025452 123.8621521 17.12025452 C121.61947792 17.08908287 121.61947792 17.08908287 119.33149719 17.05728149 C105.19371013 16.8706735 91.05772781 16.7631176 76.91886044 16.73422337 C69.65083308 16.71737749 62.3850096 16.67294529 55.11776733 16.56141663 C48.77652882 16.46417147 42.43749291 16.42087786 36.09550005 16.43989414 C32.74136054 16.44813141 29.39592994 16.42302768 26.04200554 16.34910774 C9.1167184 15.6414292 9.1167184 15.6414292 -5.22190762 23.39282894 C-8.11326844 26.47070301 -10.65232137 29.71254245 -13.1378479 33.12025452 C-14.3942617 34.57553767 -15.65984809 36.02323569 -16.9503479 37.44837952 C-17.45437134 38.04457092 -17.95839478 38.64076233 -18.47769165 39.25502014 C-20.55448142 41.58835453 -22.76933048 43.74382905 -25.0128479 45.91712952 C-25.85202759 46.73052795 -26.69120728 47.54392639 -27.55581665 48.38197327 C-29.30119676 50.06398103 -31.0540284 51.73828538 -32.81362915 53.40541077 C-33.64249634 54.21365295 -34.47136353 55.02189514 -35.3253479 55.85462952 C-36.08202759 56.57876038 -36.83870728 57.30289124 -37.61831665 58.04896545 C-39.39379162 59.97553213 -39.39379162 59.97553213 -38.89321899 62.19300842 C-38.64394653 62.82899963 -38.39467407 63.46499084 -38.1378479 64.12025452 C-37.34016156 73.16829669 -37.61418976 80.64863964 -43.1378479 88.12025452 C-48.05159768 93.54799486 -53.43978755 97.58714128 -60.89175415 98.43275452 C-69.08768712 98.76770963 -76.10320772 97.61877556 -82.43081665 92.13197327 C-88.55800182 85.66996924 -91.18529306 80.10401545 -91.6378479 71.24525452 C-91.41755511 63.96641344 -89.17000971 58.42014314 -84.23550415 53.04994202 C-78.20756465 47.51951 -72.98293282 44.69436985 -64.6378479 44.74525452 C-63.3694104 44.73752014 -62.1009729 44.72978577 -60.7940979 44.72181702 C-56.93566574 45.14228719 -54.46738169 46.17802647 -51.1378479 48.12025452 C-50.92410522 47.57981506 -50.71036255 47.03937561 -50.49014282 46.4825592 C-48.65036884 43.26868431 -46.13044958 40.88672815 -43.50112915 38.32337952 C-42.94346359 37.77091553 -42.38579803 37.21845154 -41.81123352 36.64924622 C-40.02896985 34.88474937 -38.24018455 33.12706657 -36.4503479 31.37025452 C-34.10969431 29.06639863 -31.77225926 26.7593496 -29.43862915 24.44837952 C-28.87787186 23.89312088 -28.31711456 23.33786224 -27.73936462 22.76577759 C-24.17972991 19.21874817 -20.78741985 15.57831413 -17.53164673 11.74769592 C-15.56669557 9.45335989 -13.4643448 7.31425931 -11.3253479 5.18275452 C-10.57640259 4.43123108 -9.82745728 3.67970764 -9.05581665 2.90541077 C-5.97463229 0.03758744 -4.1147616 -0.00399491 0 0 Z " fill="#1D0F5F" transform="translate(930.1378479003906,192.87974548339844)"/>
<path d="M0 0 C89.1 0 178.2 0 270 0 C270 6.27 270 12.54 270 19 C180.9 19 91.8 19 0 19 C0 12.73 0 6.46 0 0 Z " fill="#FE2784" transform="translate(533,659)"/>
<path d="M0 0 C77.22 0 154.44 0 234 0 C234 47.52 234 95.04 234 144 C231.03 144 228.06 144 225 144 C224.99853344 143.33885571 224.99706688 142.67771141 224.99555588 141.99653244 C224.95851369 125.91378204 224.89953369 109.83128467 224.81609726 93.74871445 C224.7762778 85.97130738 224.74390016 78.19400193 224.72900391 70.41650391 C224.71600236 63.63808799 224.68907634 56.85989537 224.64538693 50.0816052 C224.62273802 46.4920689 224.60709134 42.90280837 224.60811615 39.31319427 C224.60899907 35.30711208 224.57879672 31.30184562 224.54589844 27.29589844 C224.5509288 26.10403427 224.55595917 24.9121701 224.56114197 23.68418884 C224.54722916 22.59326431 224.53331635 21.50233978 224.51898193 20.37835693 C224.51529476 19.43075375 224.51160759 18.48315056 224.50780869 17.50683212 C223.85018489 14.26042753 222.51947893 13.07855531 220 11 C216.87669362 9.43834681 213.55336654 9.8520151 210.12443542 9.85282898 C209.30137683 9.84915229 208.47831823 9.8454756 207.63031846 9.8416875 C204.85664815 9.83062424 202.08301527 9.82680237 199.30932617 9.82299805 C197.32702006 9.81673544 195.34471513 9.81008882 193.3624115 9.80308533 C187.9656762 9.78565788 182.56894977 9.77511903 177.17219329 9.7668798 C173.80285153 9.76173384 170.43351255 9.75565796 167.06417274 9.74936867 C156.52908084 9.73031261 145.99399597 9.71608178 135.45889014 9.7077567 C123.28507903 9.69797865 111.11144947 9.67164599 98.93770236 9.63125581 C89.53638622 9.6011309 80.13512223 9.58629131 70.73375875 9.58297569 C65.11478939 9.58062125 59.4960139 9.57160961 53.87709618 9.54651451 C48.59198367 9.52329192 43.30719347 9.51897714 38.02204323 9.52927589 C36.0809993 9.52977277 34.13993982 9.52340795 32.19894409 9.50971985 C29.55107852 9.49208989 26.90438084 9.49906283 24.2565155 9.51225281 C23.48647239 9.50128356 22.71642928 9.49031432 21.92305154 9.47901267 C18.36818763 9.52183312 16.13446445 9.92355413 13.02392006 11.69196415 C10.5686132 14.49194443 10.37143339 15.73166766 10.36076355 19.4163208 C10.34547607 20.51565948 10.3301886 21.61499817 10.31443787 22.74765015 C10.32306351 23.94886505 10.33168915 25.15007996 10.34057617 26.38769531 C10.33009247 27.65624359 10.31960876 28.92479187 10.30880737 30.23178101 C10.28065083 33.70681902 10.28313405 37.18124002 10.29110122 40.65635777 C10.29422522 44.2892881 10.26919515 47.92202154 10.24714661 51.55487061 C10.20968476 58.4325535 10.19755737 65.31003867 10.1945222 72.18781352 C10.18983367 80.01856603 10.15691703 87.84912018 10.12162435 95.67978525 C10.04966423 111.78651812 10.01417031 127.89311146 10 144 C6.7 144 3.4 144 0 144 C0 96.48 0 48.96 0 0 Z " fill="#FE2584" transform="translate(551,336)"/>
<path d="M0 0 C3.59486594 2.7652815 5.8898758 5.88797859 8.25 9.75 C8.25 10.74 8.25 11.73 8.25 12.75 C47.52 12.75 86.79 12.75 127.25 12.75 C127.25 18.69 127.25 24.63 127.25 30.75 C87.98 30.75 48.71 30.75 8.25 30.75 C7.92 32.4 7.59 34.05 7.25 35.75 C3.08884083 42.2269347 -2.38223847 46.14075157 -9.69140625 48.33203125 C-16.60647124 49.73603875 -23.56973431 49.24966852 -29.75 45.75 C-36.66638675 40.96173225 -40.12663415 35.62009755 -42.75 27.75 C-43.41158095 19.82187414 -43.31267824 13.41852973 -38.75 6.75 C-38.21375 5.88375 -37.6775 5.0175 -37.125 4.125 C-26.57471687 -6.42528313 -12.53978369 -8.259901 0 0 Z " fill="#1F0F5F" transform="translate(926.75,359.25)"/>
<path d="M0 0 C5.76923798 3.73932091 9.08442714 8.47551537 11.7421875 14.77734375 C12.07973019 17.49174957 12.26792642 19.8850053 12.2421875 22.58984375 C12.23251953 23.64933228 12.23251953 23.64933228 12.22265625 24.73022461 C11.92962066 33.12126014 8.8876697 37.95730794 2.9921875 43.65234375 C-3.14307932 48.60421641 -9.8563673 50.45198214 -17.703125 50.1953125 C-26.40222979 48.77206447 -32.5358 43.52930693 -37.5703125 36.58984375 C-39.2578125 33.77734375 -39.2578125 33.77734375 -39.2578125 31.77734375 C-78.5278125 31.77734375 -117.7978125 31.77734375 -158.2578125 31.77734375 C-158.2578125 25.83734375 -158.2578125 19.89734375 -158.2578125 13.77734375 C-118.9878125 13.77734375 -79.7178125 13.77734375 -39.2578125 13.77734375 C-38.5978125 11.79734375 -37.9378125 9.81734375 -37.2578125 7.77734375 C-27.97954795 -5.29128953 -13.38578172 -7.23785907 0 0 Z " fill="#1E0F5F" transform="translate(440.2578125,358.22265625)"/>
<path d="M0 0 C5.94 0 11.88 0 18 0 C17.98839844 2.72523926 17.97679687 5.45047852 17.96484375 8.25830078 C17.93231764 17.26698726 17.94370641 26.27523383 17.97665405 35.28390694 C17.99528193 40.74554602 17.99916125 46.20636275 17.96923828 51.66796875 C17.94089897 56.93985175 17.95142762 62.21036152 17.98880005 67.48217392 C17.99624118 69.49237661 17.98972468 71.50268143 17.96896362 73.51279068 C17.94224255 76.33184523 17.96534738 79.14645543 18 81.96533203 C17.98058853 82.79467758 17.96117706 83.62402313 17.94117737 84.47850037 C18.03060608 88.04402652 18.17177907 90.15305471 20.72900391 92.76809311 C22.81000679 94.35881724 22.81000679 94.35881724 24.95556641 95.66332817 C30.36322257 99.19890971 33.34059207 103.832155 35 110 C35.88634243 119.27781819 35.14302633 126.42016163 29.8125 134.1875 C23.60413923 140.39586077 17.87817333 143.13181824 9.125 143.1875 C1.07063848 143.0995276 -4.67449562 141.13606623 -10.60546875 135.46484375 C-16.3579832 129.22940216 -18.60210819 122.9945659 -18.27734375 114.51171875 C-17.36346584 106.23533144 -14.04363112 100.67089616 -8 95 C-4.91120329 92.75360239 -3.80672941 92 0 92 C0 61.64 0 31.28 0 0 Z " fill="#FEBC02" transform="translate(619,85)"/>
<path d="M0 0 C5.61 0 11.22 0 17 0 C16.98316162 2.72523926 16.96632324 5.45047852 16.94897461 8.25830078 C16.89987163 17.26697088 16.90021872 26.27515169 16.92484188 35.28390694 C16.93825326 40.74565532 16.93505799 46.20633803 16.89379883 51.66796875 C16.85458534 56.93992631 16.85914064 62.2102034 16.89392281 67.48217392 C16.89951765 69.49239775 16.88939478 71.5027293 16.86323357 73.51279068 C16.22296314 84.10446701 16.22296314 84.10446701 19.9758606 93.496521 C22.27850428 95.0276563 24.43914832 95.98902076 27 97 C32.23383587 101.47150507 34.58691361 107.4138654 35.35546875 114.0859375 C35.68065059 121.62664067 34.79836279 127.06579288 30 133 C23.47303087 139.99123053 17.66312325 143.10087253 8.125 143.5 C0.36369545 143.30246945 -4.36633565 141.39900501 -9.99609375 136.1328125 C-16.26588417 129.43287014 -18.6339406 123.23938155 -18.3359375 114.05859375 C-17.37802089 105.33709713 -13.87679528 100.16655175 -7.31640625 94.49609375 C-5 93 -5 93 0 92 C0 61.64 0 31.28 0 0 Z " fill="#1D0F5F" transform="translate(700,85)"/>
<path d="M0 0 C5.71448478 4.41462344 9.73872333 10.65432478 11.1328125 17.78125 C11.6922671 26.03320535 9.87953671 33.48656345 4.7890625 40.14453125 C-0.84783186 45.7149528 -7.68904856 48.87925698 -15.5546875 49.03125 C-23.39135897 48.91600483 -29.58190508 46.84314063 -35.359375 41.46875 C-38.01123529 38.50086491 -40.8671875 34.88826253 -40.8671875 30.78125 C-68.2571875 30.78125 -95.6471875 30.78125 -123.8671875 30.78125 C-123.8671875 24.84125 -123.8671875 18.90125 -123.8671875 12.78125 C-96.4771875 12.78125 -69.0871875 12.78125 -40.8671875 12.78125 C-40.2071875 11.13125 -39.5471875 9.48125 -38.8671875 7.78125 C-35.12890789 2.21433825 -30.48797712 -1.7564748 -24.015625 -3.8046875 C-15.51797891 -5.44241566 -7.2776923 -4.75029289 0 0 Z " fill="#FEBC02" transform="translate(405.8671875,278.21875)"/>
<path d="M0 0 C4.71790833 3.96646728 8.42309936 7.57130367 9.9375 13.62890625 C37.3275 13.62890625 64.7175 13.62890625 92.9375 13.62890625 C92.9375 19.56890625 92.9375 25.50890625 92.9375 31.62890625 C90.48489746 31.61206787 88.03229492 31.59522949 85.50537109 31.57788086 C77.39474984 31.52876119 69.28467182 31.52913142 61.17395592 31.55374813 C56.25697123 31.56715544 51.34117025 31.56398197 46.42431641 31.52270508 C41.67748995 31.48346907 36.93252913 31.48806291 32.18568802 31.52282906 C30.3764204 31.52842067 28.56703291 31.5183159 26.75794601 31.49213982 C17.07890034 30.95393274 17.07890034 30.95393274 8.60137939 34.58499146 C6.98378517 36.90696245 6.98378517 36.90696245 5.9894104 39.36305237 C3.75959115 44.16616546 -1.23142083 46.71336667 -5.8125 49.00390625 C-14.11881875 50.60127524 -21.34355782 50.5005493 -28.8046875 46.2421875 C-34.92351541 41.87008382 -39.65556107 36.12839325 -41.0625 28.62890625 C-41.84107875 20.87231541 -41.8929195 14.01534323 -37.0625 7.62890625 C-27.84192248 -3.41178527 -13.14593777 -8.7390609 0 0 Z " fill="#FEBC02" transform="translate(961.0625,277.37109375)"/>
<path d="M0 0 C5.94 0 11.88 0 18 0 C18 18.48 18 36.96 18 56 C19.98 56.66 21.96 57.32 24 58 C26.625 60.3125 26.625 60.3125 29 63 C29.70125 63.78375 30.4025 64.5675 31.125 65.375 C35.65986918 71.72381685 37.02538704 77.28079418 36 85 C33.68933795 93.74657386 29.37746889 100.29776722 21.5625 104.9375 C14.90859409 107.94831715 8.14847841 108.08380157 1 107 C-7.17465554 103.88938432 -12.36625932 98.48650436 -16.3125 90.8125 C-18.79317662 84.78799964 -19.13152916 78.72942776 -17.234375 72.4765625 C-13.98009048 64.70243837 -9.51683236 59.82349698 -2 56 C-1.34 56 -0.68 56 0 56 C0 37.52 0 19.04 0 0 Z " fill="#1E0F5F" transform="translate(538,85)"/>
<path d="M0 0 C5.94 0 11.88 0 18 0 C18 18.48 18 36.96 18 56 C19.98 56.66 21.96 57.32 24 58 C29.84822036 61.73315252 33.60771413 66.70711858 35.75 73.3125 C36.60753991 82.53105406 36.25416253 90.36727341 30.45703125 98.04296875 C25.64004793 103.21268311 20.77697231 106.61125899 13.66015625 107.34375 C5.01639366 107.5651484 -0.98144554 106.75783149 -8.1875 101.8125 C-14.68718412 95.31281588 -17.11430205 89.42690126 -17.375 80.3125 C-17.292583 72.36750089 -15.48166656 67.6471319 -10.02734375 61.93359375 C-6.60649615 58.76851045 -4.61320989 57.15330247 0 56 C0 37.52 0 19.04 0 0 Z " fill="#FEBD02" transform="translate(780,85)"/>
<path d="M0 0 C5.90299101 4.11897595 9.51555291 10.00497603 11.63671875 16.83984375 C12.57395921 24.6501809 11.46092945 31.72949015 6.97265625 38.26171875 C1.54909604 44.87370849 -3.40525952 48.22417731 -11.91796875 49.28125 C-20.57313681 49.69049839 -26.77453437 48.65126656 -33.36328125 42.83984375 C-38.68093138 37.23933989 -42.42166085 30.86657528 -42.80078125 23.02734375 C-42.50769206 15.30151283 -39.93199045 9.13021894 -34.67578125 3.46484375 C-24.24495446 -6.02471138 -12.27329998 -6.81849999 0 0 Z " fill="#FEBD02" transform="translate(683.36328125,511.16015625)"/>
<path d="M0 0 C3.5060303 0.86943897 4.94966563 2.56083702 6.9375 5.48046875 C7.59562497 9.57546859 7.35551815 11.67926729 5.4375 15.35546875 C2.52120525 17.83431929 0.6650283 18.4249257 -3.09375 18.69140625 C-6.28832498 18.34913036 -7.91866798 16.75422998 -10.0625 14.48046875 C-11.63185594 11.34175687 -11.41451103 8.94191053 -11.0625 5.48046875 C-8.01136975 0.99912119 -5.26455839 -0.36891792 0 0 Z " fill="#F81D7E" transform="translate(549.0625,156.51953125)"/>
<path d="M0 0 C2.75329021 1.79562405 4.52627461 3.05254922 6 6 C6.43023798 9.87214182 6.31669086 11.52496371 4.125 14.8125 C1.42055063 17.59649199 0.57733296 17.93464155 -3.3125 18.375 C-7 18 -7 18 -9.9375 16 C-12.23092162 12.66411401 -12.75815509 10.90015906 -12.48046875 6.9375 C-10.87278432 0.45447986 -5.98096831 -0.96122705 0 0 Z " fill="#F81D7E" transform="translate(429,372)"/>
<path d="M0 0 C4.10198969 1.34246935 5.88827306 2.64878144 8.4375 6.125 C9.05054266 9.80325595 8.69872201 11.59068226 7.0625 14.9375 C5.4375 17.125 5.4375 17.125 3.4375 18.125 C-0.79023846 18.62286109 -4.36113324 18.79893745 -8.125 16.6875 C-10.28405719 12.83874588 -10.56200991 9.42060364 -9.5625 5.125 C-7.16913078 1.37848917 -4.45222375 0.15621838 0 0 Z " fill="#F71D7E" transform="translate(866.5625,254.875)"/>
<path d="M0 0 C4.13288558 1.35258074 5.90208828 2.59078972 8.4375 6.125 C9.21904305 10.5016411 8.95346953 12.34272362 6.5 16.0625 C2.91272674 18.47841873 0.78044227 18.87067801 -3.46875 18.6015625 C-5.5625 18.125 -5.5625 18.125 -8.125 16.125 C-9.96059633 12.29419027 -10.65915605 9.28559585 -9.5625 5.125 C-6.46813147 1.42685224 -4.85480091 0.17034389 0 0 Z " fill="#F61D7E" transform="translate(471.5625,254.875)"/>
<path d="M0 0 C3.5060303 0.86943897 4.94966563 2.56083702 6.9375 5.48046875 C7.62901325 9.78321784 7.45307405 11.68992187 5.0625 15.35546875 C2.55083682 17.86713193 1.64365837 18.40200671 -1.875 18.79296875 C-5.98171721 18.39034942 -7.37980366 17.6230559 -10.0625 14.48046875 C-11.10132541 11.40416809 -11.4359335 8.70923223 -11.0625 5.48046875 C-8.16397012 0.89892152 -5.23518149 -0.36685931 0 0 Z " fill="#FE227C" transform="translate(670.0625,524.51953125)"/>
<path d="M0 0 C4.10198969 1.34246935 5.88827306 2.64878144 8.4375 6.125 C9.05054266 9.80325595 8.69872201 11.59068226 7.0625 14.9375 C5.4375 17.125 5.4375 17.125 3.4375 18.125 C-3.53392857 18.81071429 -3.53392857 18.81071429 -7.5625 16.125 C-9.76906657 12.81515014 -10.37650735 10.97692711 -10.109375 7.06640625 C-8.6760618 1.9781444 -4.93940286 0.17331238 0 0 Z " fill="#FE227C" transform="translate(390.5625,290.875)"/>
<path d="M0 0 C2.75025718 1.7569363 3.35449951 2.98324911 5 6 C5.06842425 9.96860664 4.61465514 12.10165788 2.375 15.375 C-0.78764856 17.53891744 -3.19375985 17.86406285 -7 18 C-10.39808026 16.89791992 -10.94731917 16.07902124 -13 13 C-13.66568876 8.79687211 -13.66155794 5.17929894 -11.5625 1.4375 C-7.71374588 -0.72155719 -4.29560364 -0.99950991 0 0 Z " fill="#F81D7E" transform="translate(713,193)"/>
<path d="M0 0 C3.64146056 0.80345393 5.15231038 2.45282347 7.1953125 5.484375 C7.79391331 9.07597985 7.44834254 10.92770891 5.9453125 14.234375 C4.04144513 16.68220448 3.17223799 17.65745125 0.1953125 18.484375 C-3.97202796 18.40995821 -6.07112909 18.12388746 -9.2421875 15.359375 C-11.22683503 11.70762354 -11.39108398 9.58915033 -10.8046875 5.484375 C-8.28479822 0.33503603 -5.38467311 -0.31988157 0 0 Z " fill="#FE227C" transform="translate(629.8046875,192.515625)"/>
<path d="M0 0 C2.83253187 0.25213825 4.3634263 0.79914177 7 2.0625 C9.52680188 5.29996491 9.78414146 7.38922215 9.55078125 11.4296875 C8.92688235 13.91643349 8.24619682 14.95948183 6.375 16.6875 C2.69649662 18.79923342 1.13621019 19.50504472 -3 18.625 C-6.47621856 16.07577306 -7.78253065 14.28948969 -9.125 10.1875 C-9 6.625 -9 6.625 -7.0625 3.1875 C-3.4820482 0.19161176 -3.4820482 0.19161176 0 0 Z " fill="#FE227C" transform="translate(789,156.375)"/>
<path d="M0 0 C3.99947341 0.81621906 6.77810559 2.24128951 9.0625 5.625 C9.85814676 8.79630127 9.83818887 11.45118903 9.0625 14.625 C6.94352174 17.3399409 5.47620088 18.30292702 2.125 19.06640625 C-0.10064347 19.26452224 -1.77493973 19.19501086 -3.9375 18.625 C-7 16.0625 -7 16.0625 -8.9375 12.625 C-9.09337894 8.18245035 -8.40291435 6.24998498 -5.75 2.6875 C-2.9375 0.625 -2.9375 0.625 0 0 Z " fill="#FE227C" transform="translate(945.9375,290.375)"/>
<path d="M0 0 C2.02734375 0.62890625 2.02734375 0.62890625 4.08984375 2.12890625 C5.53973631 5.9952864 5.81006771 9.56619615 5.02734375 13.62890625 C2.3585446 16.94468701 0.71126811 17.51898984 -3.47265625 18.19140625 C-6.97265625 17.62890625 -6.97265625 17.62890625 -9.91015625 15.62890625 C-12.2015057 12.29603432 -12.73838687 10.53057387 -12.4453125 6.5703125 C-10.79502341 -0.20814766 -6.00161288 -1.10845097 0 0 Z " fill="#FA1D7F" transform="translate(913.97265625,372.37109375)"/>
<path d="M0 0 C3.23805586 2.2155119 3.8984844 3.65104012 5 7.4375 C5 11 5 11 3.1875 13.875 C0.63191747 16.35756589 -0.28587634 16.92065293 -3.8125 17.3125 C-7.7307645 16.92835642 -9.21293267 15.70743683 -12 13 C-13.42662219 10.14675563 -13.31033868 8.16545451 -13 5 C-9.09189138 -0.86216294 -6.85666425 -1.53683854 0 0 Z " fill="#FEF5F9" transform="translate(861,373)"/>
<path d="M0 0 C3.23805586 2.2155119 3.8984844 3.65104012 5 7.4375 C5 11 5 11 3.1875 13.875 C0.67279905 16.31785235 -0.29675285 16.90410266 -3.75 17.375 C-8.24132722 16.85676994 -10.01304516 15.34254471 -13 12 C-13.77152986 7.67943279 -13.52747866 5.80880061 -11.125 2.125 C-7.356421 -1.643579 -5.11566802 -1.14661525 0 0 Z " fill="#FEF5F9" transform="translate(484,373)"/>
<path d="M0 0 C2.8125 2.4375 2.8125 2.4375 5 5 C5.33 5.33 5.66 5.66 6 6 C6.54182532 9.9733857 6.34098336 11.53502269 3.9375 14.8125 C0.41144744 17.43828382 -1.61141575 18.07836758 -6 18 C-8.80189446 16.23358828 -10.51524911 14.96950178 -12 12 C-12.43023798 8.12785818 -12.31669086 6.47503629 -10.125 3.1875 C-6.84028418 -0.19382511 -4.67056491 -0.54947822 0 0 Z " fill="#FEF5F9" transform="translate(860,444)"/>
<path d="M0 0 C2.8125 2.4375 2.8125 2.4375 5 5 C5.33 5.33 5.66 5.66 6 6 C6.54182532 9.9733857 6.34098336 11.53502269 3.9375 14.8125 C0.41144744 17.43828382 -1.61141575 18.07836758 -6 18 C-8.80189446 16.23358828 -10.51524911 14.96950178 -12 12 C-12.43023798 8.12785818 -12.31669086 6.47503629 -10.125 3.1875 C-6.84028418 -0.19382511 -4.67056491 -0.54947822 0 0 Z " fill="#FEF5F9" transform="translate(860,408)"/>
<path d="M0 0 C2.8125 2.4375 2.8125 2.4375 5 5 C5.33 5.33 5.66 5.66 6 6 C5.78952064 9.71846874 5.49867771 12.27116335 3.375 15.375 C0.1478075 17.58307908 -2.09842224 18 -6 18 C-8.80189446 16.23358828 -10.51524911 14.96950178 -12 12 C-12.43023798 8.12785818 -12.31669086 6.47503629 -10.125 3.1875 C-6.84028418 -0.19382511 -4.67056491 -0.54947822 0 0 Z " fill="#FEF5F9" transform="translate(483,444)"/>
<path d="M0 0 C3.23805586 2.2155119 3.8984844 3.65104012 5 7.4375 C5 11 5 11 3.5625 13.875 C0.60694942 16.32594438 -1.26022017 16.94358837 -5.03125 17.2109375 C-8.22582498 16.86866161 -9.85616798 15.27376123 -12 13 C-13.42662219 10.14675563 -13.31033868 8.16545451 -13 5 C-9.09189138 -0.86216294 -6.85666425 -1.53683854 0 0 Z " fill="#FEF5F9" transform="translate(484,409)"/>
<path d="M0 0 C3.5442914 0.80009747 4.97740702 2.51479019 6.97265625 5.4453125 C7.76046905 9.8570642 7.50240758 11.66724024 4.97265625 15.3828125 C1.65681934 17.66245038 -0.13637086 18.26198712 -4.0859375 17.9921875 C-7.84573142 16.93309062 -9.18130413 14.72054408 -11.02734375 11.4453125 C-11.09551948 7.49112045 -10.59386605 5.32908728 -8.46484375 2.0078125 C-5.62549856 0.18771943 -3.36656812 -0.18877952 0 0 Z " fill="#FEF7FA" transform="translate(742.02734375,255.5546875)"/>
<path d="M0 0 C2.47113222 0.61449114 3.57083614 1.28232085 5.32421875 3.109375 C7.19921875 6.546875 7.19921875 6.546875 7.32421875 10.171875 C5.98026855 14.2037256 4.8974641 15.49229425 1.19921875 17.546875 C-3.00356123 18.35166266 -4.49656202 17.73278675 -8.17578125 15.484375 C-10.80078125 12.546875 -10.80078125 12.546875 -11.42578125 9.046875 C-10.15481194 1.92944686 -7.02279345 -0.41788523 0 0 Z " fill="#FEF7FA" transform="translate(481.80078125,336.453125)"/>
<path d="M0 0 C3.33219018 2.13601934 3.89315459 3.6327189 5 7.4375 C5 11 5 11 3.625 13.875 C0.45278612 16.44298267 -1.77179946 17.08854749 -5.8046875 17.328125 C-8 17 -8 17 -11.0625 14.4375 C-13.15421691 10.72638936 -13.88332597 9.15163208 -13 5 C-9.2217441 -0.43124286 -6.19885712 -0.88555102 0 0 Z " fill="#FEF8FB" transform="translate(861,337)"/>
<path d="M0 0 C3.50035742 0.7971111 4.97632236 2.57948879 6.97265625 5.44921875 C7.85979576 9.61877443 7.15396729 11.14325637 4.97265625 14.82421875 C1.42979911 17.92421875 1.42979911 17.92421875 -2.02734375 18.19921875 C-5.5450221 17.91219756 -6.18125316 17.3204374 -9.08984375 14.88671875 C-11.02734375 11.44921875 -11.02734375 11.44921875 -11.08984375 7.82421875 C-9.16779255 1.71887966 -6.62564075 -0.35914688 0 0 Z " fill="#FEF8FB" transform="translate(778.02734375,255.55078125)"/>
<path d="M0 0 C3 2.0625 3 2.0625 5 5 C5.625 8.5 5.625 8.5 5 12 C2.40783917 15.69186542 0.95850936 16.82883761 -3.5 17.625 C-7 17 -7 17 -9.9375 15 C-12.79117716 10.84919686 -12.7099846 8.9698922 -12 4 C-9.21741025 -0.63764958 -5.03817252 -1.13733003 0 0 Z " fill="#FEF9FB" transform="translate(672,256)"/>
<path d="M0 0 C3 2.0625 3 2.0625 5 5 C5.625 8.5 5.625 8.5 5 12 C2.40783917 15.69186542 0.95850936 16.82883761 -3.5 17.625 C-7 17 -7 17 -9.9375 15 C-12.79117716 10.84919686 -12.7099846 8.9698922 -12 4 C-9.21741025 -0.63764958 -5.03817252 -1.13733003 0 0 Z " fill="#FEF9FB" transform="translate(636,256)"/>
<path d="M0 0 C3 2.125 3 2.125 5 5 C5.61304266 8.67825595 5.26122201 10.46568226 3.625 13.8125 C2 16 2 16 0 17 C-3.93297819 17.37103568 -6.36470037 17.31089131 -9.9375 15.5625 C-12.5640356 12.29922849 -12.67360891 10.22931044 -12.41015625 6.12890625 C-12 4 -12 4 -10.5 1.4375 C-7.00057583 -0.5746689 -3.87554073 -0.88254888 0 0 Z " fill="#FEF9FB" transform="translate(708,256)"/>
<path d="M0 0 C4.45850936 0.79616239 5.90783917 1.93313458 8.5 5.625 C9.125 9.125 9.125 9.125 8.5 12.625 C5.90783917 16.31686542 4.45850936 17.45383761 0 18.25 C-4.45850936 17.45383761 -5.90783917 16.31686542 -8.5 12.625 C-9.125 9.125 -9.125 9.125 -8.5 5.625 C-5.90783917 1.93313458 -4.45850936 0.79616239 0 0 Z " fill="#FEFAFC" transform="translate(596.5,255.375)"/>
<path d="M0 0 C2.9375 1.5 2.9375 1.5 5 4 C5.79190864 8.98902441 5.80380719 10.83082591 2.9375 15 C-0.73085974 17.49760663 -2.64197392 17.6338947 -7 17 C-9.375 16.0625 -9.375 16.0625 -11 14 C-11.96242502 10.93559149 -12.31954378 8.20104385 -12 5 C-8.74332998 0.01322403 -5.80748975 -0.93334657 0 0 Z " fill="#FEFAFC" transform="translate(564,256)"/>
</svg>
