<?xml version="1.0" encoding="utf-8"?>
<!-- Generator: Adobe Illustrator 22.0.0, SVG Export Plug-In . SVG Version: 6.00 Build 0)  -->
<svg version="1.1" id="Layer_1" xmlns="http://www.w3.org/2000/svg" xmlns:xlink="http://www.w3.org/1999/xlink" x="0px" y="0px"
	 viewBox="0 0 446.5 446.5" style="enable-background:new 0 0 446.5 446.5;" xml:space="preserve">
<g>
	<circle style="fill:#FFFFFF;" cx="224.6" cy="223.3" r="213"/>
</g>
<g>
	<defs>
		<circle id="SVGID_1_" cx="223" cy="224.5" r="205.4"/>
	</defs>
	<use xlink:href="#SVGID_1_"  style="overflow:visible;fill:#FFFFFF;"/>
	<clipPath id="SVGID_2_">
		<use xlink:href="#SVGID_1_"  style="overflow:visible;"/>
	</clipPath>
	<g style="clip-path:url(#SVGID_2_);">
		<circle style="fill:#ECECEC;" cx="223.3" cy="224.5" r="176.8"/>
	</g>
	<g style="clip-path:url(#SVGID_2_);">
		<path style="fill:#F8B985;" d="M208.7,218.9"/>
	</g>
</g>
<g>
	<polygon style="fill:#E01E84;" points="358.2,390.2 332.4,408.7 230,434.5 141.5,420.6 68.2,375.7 39.8,340 14.7,273.3 
		432.2,273.3 391.2,351.4 	"/>
</g>
<g>
	<defs>
		<path id="SVGID_3_" d="M223.3,446.5c-59.6,0-115.7-23.2-157.9-65.4C23.2,339,0,282.9,0,223.3S23.2,107.6,65.4,65.4
			C107.6,23.2,163.6,0,223.3,0C282.9,0,339,23.2,381.1,65.4c42.2,42.2,65.4,98.2,65.4,157.9S423.3,339,381.1,381.1
			C339,423.3,282.9,446.5,223.3,446.5z M223.3,24.1c-109.8,0-199.2,89.3-199.2,199.2c0,109.8,89.3,199.2,199.2,199.2
			s199.2-89.3,199.2-199.2C422.4,113.4,333.1,24.1,223.3,24.1z"/>
	</defs>
	<use xlink:href="#SVGID_3_"  style="overflow:visible;fill:#2C4C9B;"/>
	<clipPath id="SVGID_4_">
		<use xlink:href="#SVGID_3_"  style="overflow:visible;"/>
	</clipPath>
</g>
<g>
	<path style="fill:#FFC844;" d="M362.7,166.1H80.4c-4.4,0-7.9-3.6-7.9-7.9v0c0-4.4,3.6-7.9,7.9-7.9h282.3c4.4,0,7.9,3.6,7.9,7.9v0
		C370.6,162.5,367.1,166.1,362.7,166.1z"/>
</g>
<g>
	<rect x="88.7" y="143.5" style="fill:#F5AB40;" width="14.8" height="80.2"/>
</g>
<g>
	<rect x="341.7" y="143.5" style="fill:#F5AB40;" width="14.8" height="80.2"/>
</g>
<g>
	<g>
		<path style="fill:#D9D9D9;" d="M164.5,56l175.5,69.8c1.9,0.8,2.9,2.9,2.1,4.9l-46.8,117.6c-0.8,1.9-2.9,2.9-4.9,2.1L115,180.5
			c-1.9-0.8-2.9-2.9-2.1-4.9l46.8-117.6C160.4,56.2,162.6,55.2,164.5,56z"/>
	</g>
	<g>
		<path style="fill:#3C3C3B;" d="M167.9,63.5l164.8,65.6c1.8,0.7,2.7,2.8,2,4.7l-46.1,115.8c-0.7,1.8-2.8,2.7-4.7,2L119.2,186
			c-1.8-0.7-2.7-2.8-2-4.7l46.1-115.8C164,63.7,166.1,62.8,167.9,63.5z"/>
	</g>
	<g>
		<path style="fill:#DBDDDC;" d="M334.9,257.8L334.9,257.8c-2.7,6.7-10.2,9.9-16.9,7.3"/>
	</g>
	<g style="opacity:0.31;">
		<path style="fill:#FFFFFF;" d="M201.2,91.3c-10-4.4-20.9-9.4-31.6-11.8c-1.7-0.4-3.4,2-1.5,3.1c9.6,5.8,21.1,9.7,31.6,13.4
			C202.6,97.1,204,92.6,201.2,91.3z"/>
	</g>
	<g style="opacity:0.31;">
		<path style="fill:#FFFFFF;" d="M228.4,117.5c-15.2-5.6-30.2-11.3-45.3-17.2c-2.5-1-4.3,2.8-1.7,3.8c15,6,29.9,12.2,44.7,18.5
			C229.4,124.1,231.8,118.8,228.4,117.5z"/>
	</g>
	<g style="opacity:0.31;">
		<path style="fill:#FFFFFF;" d="M192.9,120.8c-10.2-4.4-20.8-8.9-31.4-12.1c-2.9-0.9-4.8,3.6-2,5c9.9,4.9,20.7,9,31.1,12.8
			C193.9,127.7,196.1,122.2,192.9,120.8z"/>
	</g>
	<g style="opacity:0.31;">
		<path style="fill:#FFFFFF;" d="M258.5,173.5c-14-6.8-29.1-11.9-43.6-17.6l-21.9-8.5c-7.5-2.9-15.1-6.4-22.9-8.2
			c-2.3-0.5-3.8,2.7-1.7,4c6.4,3.8,13.6,6.3,20.5,9.1l22.6,9.2c14.7,6,29.5,12.7,44.6,17.6C259.4,180.1,261.7,175,258.5,173.5z"/>
	</g>
	<g style="opacity:0.31;">
		<path style="fill:#FFFFFF;" d="M173,162.4c-8.2-4-16.8-7.2-25.6-9.6c-2.2-0.6-4.4,2.5-2,3.8c8.2,4.5,16.8,8.1,25.8,10.9
			c1.3,0.3,2.7-0.4,3.2-1.7C174.7,164.5,174.2,163.1,173,162.4z"/>
	</g>
	<g style="opacity:0.31;">
		<path style="fill:#FFFFFF;" d="M228.5,185.4c-9-3.7-18.1-7.4-27.3-10.2c-2.3-0.7-4.1,2.9-1.8,4c8.9,4.4,18.3,8,27.5,11.6
			C230.2,192.1,231.8,186.7,228.5,185.4z"/>
	</g>
	<g style="opacity:0.31;">
		<path style="fill:#868686;" d="M161.6,136.4c-4.3-1.7-8.8-3.2-13.3-4.3c-2-0.5-3.7,2.3-1.7,3.5c4.2,2.4,8.6,4.5,13.2,6.2
			C163.2,143.2,165.1,137.7,161.6,136.4z"/>
	</g>
	<g style="opacity:0.31;">
		<path style="fill:#868686;" d="M176.7,96.9c-3.7-1.3-7.5-2.2-11.4-2.6c-1.2-0.1-2.5,1.5-1.2,2.4c3.2,2.5,6.8,4.5,10.5,6.2
			C178.7,104.7,181.1,98.5,176.7,96.9z"/>
	</g>
	<g style="opacity:0.31;">
		<path style="fill:#868686;" d="M192.8,170.1c-4.2-1.5-8.5-2.8-12.8-3.9c-2.1-0.5-3,2.4-1.2,3.5c3.7,2.1,7.5,4,11.4,5.7
			C193.7,176.9,196.3,171.3,192.8,170.1z"/>
	</g>
	<g style="opacity:0.31;">
		<path style="fill:#868686;" d="M250.8,144c-7.5-3.8-16-6.2-23.8-9.2c-7.9-3-15.9-6-24-8.8c-2.9-1-4.3,3.2-1.6,4.4
			c7.8,3.5,15.6,6.8,23.5,10.1c7.9,3.3,15.6,7.2,23.7,9.7C252.6,151.3,254.4,145.8,250.8,144z"/>
	</g>
</g>
<g>
	<g>
		<g>
			<path style="fill:#335BAA;" d="M276.9,134.4c3.2,3.6,6.4,7.2,9.6,10.8c0.6,0.7,1.2,1.4,1.8,2c1.2,1.4,3.7,1.3,4.9,0
				c1.3-1.5,1.3-3.5,0-4.9c-3.2-3.6-6.4-7.2-9.6-10.8c-0.6-0.7-1.2-1.4-1.8-2c-1.2-1.4-3.7-1.3-4.9,0
				C275.5,131,275.6,133,276.9,134.4L276.9,134.4z"/>
		</g>
	</g>
	<g>
		<g>
			<path style="fill:#335BAA;" d="M260.1,149.2c3.2,3.6,6.4,7.2,9.6,10.8c0.6,0.7,1.2,1.4,1.8,2c1.2,1.4,3.7,1.3,4.9,0
				c1.3-1.5,1.3-3.5,0-4.9c-3.2-3.6-6.4-7.2-9.6-10.8c-0.6-0.7-1.2-1.4-1.8-2c-1.2-1.4-3.7-1.3-4.9,0
				C258.8,145.8,258.8,147.8,260.1,149.2L260.1,149.2z"/>
		</g>
	</g>
	<g>
		<path style="fill:#2C4C9B;" d="M322.3,167.4c-0.3-0.3-0.5-0.5-0.8-0.8c-0.2-0.4-0.4-0.7-0.7-1c-0.9-1.1-1.8-2.1-2.7-3.2
			c-1.8-2.1-3.7-4.3-5.5-6.4c-4.2-4.9-8.3-9.7-12.5-14.6c-0.3-0.3-0.7-0.5-1.1-0.5c-0.1-0.1-0.1-0.2-0.2-0.3c-1.1-1-3.5-0.5-5.7,1.4
			c-6.6,5.7-13.2,11.5-19.8,17.2c-2.2,1.9-4.3,4.1-4.6,6.3c-0.2,1.8,1.1,2.8,2,3.9c1.4,1.8,2.8,3.7,4.3,5.5
			c2.9,3.6,5.8,7.1,8.8,10.6c1.5,1.7,3.1,3.5,4.6,5.2c0.8,0.9,1.6,1.7,2.4,2.6c0.6,0.6,1.1,1.2,2.2,1.3c1.3,0.1,2.9-0.6,4.4-1.8
			c2-1.6,4-3.4,5.9-5.1c1.8-1.6,3.7-3.2,5.5-4.8c3.8-3.3,7.6-6.6,11.5-9.9C322.2,171.2,323.3,168.5,322.3,167.4z"/>
	</g>
	<g>
		<path style="fill:#335BAA;" d="M346.8,187c-0.3-0.3-0.6-0.6-1-0.9c-0.1-0.5-0.4-0.9-0.7-1.3c-1.1-1.3-2.1-2.5-3.2-3.8
			c-2.1-2.5-4.3-5.1-6.4-7.6c-4.8-5.8-9.7-11.5-14.5-17.3c-0.3-0.4-0.9-0.5-1.6-0.4c-0.1-0.2-0.1-0.3-0.3-0.4
			c-1.4-1.2-5.5,0.6-9.8,4.3c-12.8,11.2-25.6,22.4-38.4,33.6c-4.3,3.8-8.5,7.8-9.8,11.2c-1,2.7,0.8,3.8,1.7,5.1
			c1.6,2.3,3.2,4.5,4.8,6.7c3.2,4.4,6.6,8.6,10.2,12.7c1.8,2.1,3.6,4.1,5.5,6.1c0.9,1,1.9,2,2.9,3c0.7,0.7,1.3,1.4,3,1.1
			c2-0.3,4.9-2,7.8-4.4c3.9-3.1,7.7-6.6,11.5-9.9c3.6-3.1,7.1-6.2,10.7-9.3c7.4-6.5,14.8-12.9,22.2-19.4
			C345.3,192.6,348.1,188.1,346.8,187z"/>
	</g>
	<g>
		<path style="fill:#2C4C9B;" d="M271.4,210.2c7.9-5.8,15.4-12.6,23-18.9l11.4-9.6c3.9-3.3,8.1-6.5,11.6-10.2c1-1.1,0-2.5-1.3-1.7
			c-3.9,2.5-7.6,5.8-11.2,8.7l-12,9.8c-7.8,6.4-16,12.6-23.3,19.5C267.9,209.2,269.6,211.5,271.4,210.2z"/>
	</g>
	<g>
		<path style="fill:#2C4C9B;" d="M307.3,189.5c3.4-2.2,6.3-5.1,9.4-7.7l4.6-3.9c1.6-1.3,3.4-2.6,4.6-4.3c0.4-0.5-0.6-1.8-1.2-1.5
			c-1.8,0.8-3.2,2.2-4.7,3.4l-4.9,4c-3.2,2.6-6.6,5-9.5,8C305,188,306.6,190,307.3,189.5z"/>
	</g>
	<g>
		<path style="fill:#2C4C9B;" d="M317.8,189.8c2.5-1.4,4.4-3.5,6.5-5.3l3.2-2.8c1.1-0.9,2.4-1.8,3.1-3.1c0.2-0.4-0.8-1.6-1.2-1.5
			c-1.3,0.4-2.3,1.4-3.3,2.3l-3.4,2.7c-2.2,1.8-4.7,3.4-6.6,5.5C315.7,188.2,317.3,190.2,317.8,189.8z"/>
	</g>
	<g>
		<path style="fill:#24417C;" d="M290.5,155.8c1.8-0.9,3.2-2.5,4.7-3.8l2.3-2c0.8-0.7,1.7-1.2,2.2-2.3c0.1-0.3-0.7-1.4-1.1-1.3
			c-1,0.3-1.7,1-2.4,1.6l-2.5,1.9c-1.6,1.3-3.4,2.4-4.7,4C288.8,154.4,290.1,156,290.5,155.8z"/>
	</g>
	<g>
		<path style="fill:#24417C;" d="M297.2,157.6c1.3-0.6,2.2-1.7,3.3-2.6l1.6-1.4c0.5-0.5,1.2-0.8,1.5-1.6c0.1-0.2-0.8-1.3-1-1.3
			c-0.8,0.1-1.2,0.6-1.7,1l-1.7,1.3c-1.1,0.9-2.4,1.6-3.3,2.8C295.5,156,296.9,157.7,297.2,157.6z"/>
	</g>
</g>
<g>
	<g>
		<g>
			<path style="fill:#E01E84;" d="M246.8,142.4c-2.3,5.1-4.6,10.1-6.9,15.2c-0.7,1.6-0.5,3.7,1.2,4.6c1.5,0.8,3.9,0.5,4.6-1.2
				c2.3-5.1,4.6-10.1,6.9-15.2c0.7-1.6,0.5-3.7-1.2-4.6C249.9,140.4,247.6,140.6,246.8,142.4L246.8,142.4z"/>
		</g>
	</g>
	<g>
		<g>
			<path style="fill:#E01E84;" d="M227,133.4c-2.3,5.1-4.6,10.1-6.9,15.2c-0.7,1.6-0.5,3.7,1.2,4.6c1.5,0.8,3.9,0.5,4.6-1.2
				c2.3-5.1,4.6-10.1,6.9-15.2c0.7-1.6,0.5-3.7-1.2-4.6C230.2,131.4,227.8,131.7,227,133.4L227,133.4z"/>
		</g>
	</g>
	<g>
		<path style="fill:#EB5F9E;" d="M237.8,190.8c0.1-0.3,0.3-0.7,0.4-1c0.3-0.3,0.5-0.7,0.7-1c0.6-1.2,1.2-2.5,1.8-3.7
			c1.2-2.5,2.3-4.9,3.5-7.4c2.7-5.6,5.3-11.3,8-16.9c0.2-0.4,0.2-0.8,0-1.2c0.1-0.1,0.2-0.2,0.2-0.4c0.5-1.4-0.9-3.3-3.5-4.5
			c-7.7-3.6-15.4-7.1-23.1-10.7c-2.6-1.2-5.3-2.2-7.4-1.6c-1.6,0.5-2,2.1-2.6,3.3c-1.1,2-2.1,4-3.2,6c-2,4-4,8-5.9,12
			c-0.9,2-1.9,4.1-2.8,6.2c-0.5,1.1-0.9,2.1-1.4,3.2c-0.3,0.7-0.6,1.5-0.3,2.4c0.4,1.2,1.7,2.3,3.3,3.2c2.2,1.2,4.6,2.2,6.8,3.2
			c2.1,1,4.3,2,6.4,3c4.4,2.1,8.9,4.1,13.3,6.2C234.4,192.3,237.3,192.1,237.8,190.8z"/>
	</g>
	<g>
		<path style="fill:#E01E84;" d="M238.1,156.3c1.3,1.1,3,1.6,4.5,2.3l2.3,1.1c0.8,0.4,1.5,0.9,2.5,0.9c0.3,0,0.8-1,0.6-1.2
			c-0.5-0.7-1.3-0.9-2-1.3l-2.3-1.2c-1.5-0.8-3-1.8-4.6-2.2C238.6,154.5,237.8,156.1,238.1,156.3z"/>
	</g>
	<g>
		<path style="fill:#E01E84;" d="M239.1,161.9c0.9,0.8,2.1,1.1,3.1,1.6l1.6,0.7c0.5,0.2,1,0.6,1.7,0.5c0.2,0,0.7-1,0.6-1.2
			c-0.3-0.6-0.9-0.7-1.4-1l-1.6-0.9c-1-0.6-2-1.3-3.2-1.5C239.7,160.2,238.9,161.7,239.1,161.9z"/>
	</g>
	<g>
		<path style="fill:#D9D9D9;" d="M222.3,233.3l-42.7-19.1c-5.3-2.4-7.7-8.6-5.3-13.9l19.1-42.7c2.4-5.3,8.6-7.7,13.9-5.3l42.7,19.1
			c5.3,2.4,7.7,8.6,5.3,13.9L236.2,228C233.8,233.3,227.6,235.7,222.3,233.3z"/>
	</g>
	<g>
		<circle style="fill:#E01E84;" cx="214.6" cy="193.4" r="22.7"/>
	</g>
	<g>
		<g>
			<path style="fill:#EB5F9E;" d="M223.9,182.5c1.7,3.1,3.7,6,3.7,9.7c0,3.4-1.2,6.7-2.6,9.8c-0.5,1.1-0.3,2.4,0.8,3.1
				c1,0.6,2.6,0.3,3.1-0.8c1.7-3.8,3.2-7.8,3.2-12c0-4.5-2.2-8.1-4.3-11.9C226.4,177.7,222.6,180,223.9,182.5L223.9,182.5z"/>
		</g>
	</g>
</g>
<g>
	<g>
		<line style="fill:#EB5F9E;" x1="172.3" y1="141.3" x2="156.7" y2="153.9"/>
		<path style="fill:#B1B1B1;" d="M156.7,155.7c-0.5,0-1-0.2-1.4-0.7c-0.6-0.8-0.5-1.9,0.3-2.5l15.6-12.6c0.8-0.6,1.9-0.5,2.5,0.3
			c0.6,0.8,0.5,1.9-0.3,2.5l-15.6,12.6C157.5,155.6,157.1,155.7,156.7,155.7z"/>
	</g>
	<g>
		<line style="fill:#EB5F9E;" x1="177.4" y1="147.6" x2="161.7" y2="160.1"/>
		<path style="fill:#B1B1B1;" d="M161.7,161.9c-0.5,0-1-0.2-1.4-0.7c-0.6-0.8-0.5-1.9,0.3-2.5l15.6-12.6c0.8-0.6,1.9-0.5,2.5,0.3
			c0.6,0.8,0.5,1.9-0.3,2.5l-15.6,12.6C162.5,161.8,162.1,161.9,161.7,161.9z"/>
	</g>
	<g>
		<path style="fill:#FFC844;" d="M179.4,154.8l-13.2-16.4c-1-1.3-0.8-3.1,0.4-4.1l0,0c1.3-1,3.1-0.8,4.1,0.4l13.2,16.4
			c1,1.3,0.8,3.1-0.4,4.1l0,0C182.3,156.2,180.4,156,179.4,154.8z"/>
	</g>
	<g>
		<path style="fill:#FFC844;" d="M178.2,148.6l-7-8.6c-1.3-1.6-1.1-4.1,0.6-5.4l9.3-7.5c4-3.2,9.9-2.6,13.2,1.4l0,0
			c3.2,4,2.6,9.9-1.4,13.2l-9.3,7.5C181.9,150.5,179.5,150.2,178.2,148.6z"/>
	</g>
</g>
<g>
	<g>
		<path style="fill:#EB5F9E;" d="M161.9,161c-2.4-8.2-4.7-16.4-7.1-24.6c-1.2-4.1-2.4-8.3-3.6-12.4c-0.3-1-0.5-2-0.8-2.9
			c-1.1-3.4-3.1-6.2-6.6-7.3c-3-1-6.1,0-9.1,0.7c-9.5,2.1-19,4.1-28.4,6.2c-4.8,1-7.4,6.2-6.4,10.8c5.3,24,11.3,47.8,18,71.4
			c1.9,6.6,3.8,13.3,5.8,19.9c0.3,0.8,0.6,1.7,1.1,2.4c0.2,0.6,0.4,1.1,0.7,1.6c2.1,3.3,6,5.3,9.9,4.2c11.5-3.2,23-6.3,34.5-9.5
			c4.5-1.2,7.8-6.1,6.4-10.8C171.4,194.1,166.7,177.5,161.9,161z"/>
	</g>
	<g>
		<g>
			<path style="fill:#E01E84;" d="M125.8,134.4c2.7,0,5.2-2.3,5.1-5.1c-0.1-2.8-2.2-5.1-5.1-5.1c-2.7,0-5.2,2.3-5.1,5.1
				C120.9,132.1,123,134.4,125.8,134.4L125.8,134.4z"/>
		</g>
	</g>
	<g>
		<g>
			<path style="fill:#E01E84;" d="M122.2,182.8c1.3,6.1,2.9,12.2,4.8,18.1c0.4,1.3,1.8,2.1,3.1,1.8c1.3-0.4,2.2-1.8,1.8-3.1
				c-1.9-6-3.5-12-4.8-18.1c-0.3-1.3-1.9-2.1-3.1-1.8C122.6,180.1,121.9,181.5,122.2,182.8L122.2,182.8z"/>
		</g>
	</g>
	<g>
		<g>
			<path style="fill:#E01E84;" d="M149,174.3c1.5,5.5,3.1,11,4.6,16.5c0.4,1.3,1.8,2.1,3.1,1.8c1.3-0.4,2.1-1.8,1.8-3.1
				c-1.5-5.5-3.1-11-4.6-16.5c-0.4-1.3-1.8-2.1-3.1-1.8C149.4,171.6,148.6,173,149,174.3L149,174.3z"/>
		</g>
	</g>
	<g>
		<g>
			<path style="fill:#E01E84;" d="M137.9,185.2c1.4-0.4,2.8-0.7,4.2-1.1c0.6-0.2,1.2-0.6,1.5-1.2c0.3-0.5,0.5-1.3,0.3-2
				c-0.2-0.6-0.6-1.2-1.2-1.5c-0.6-0.3-1.3-0.4-2-0.3c-1.4,0.4-2.8,0.7-4.2,1.1c-0.6,0.2-1.2,0.6-1.5,1.2c-0.3,0.5-0.5,1.3-0.3,2
				c0.2,0.6,0.6,1.2,1.2,1.5C136.6,185.3,137.3,185.4,137.9,185.2L137.9,185.2z"/>
		</g>
	</g>
	<g>
		<g>
			<path style="fill:#E01E84;" d="M140.4,195c1.4-0.4,2.8-0.7,4.2-1.1c0.6-0.2,1.2-0.6,1.5-1.2c0.3-0.5,0.5-1.3,0.3-2
				c-0.2-0.6-0.6-1.2-1.2-1.5c-0.6-0.3-1.3-0.4-2-0.3c-1.4,0.4-2.8,0.7-4.2,1.1c-0.6,0.2-1.2,0.6-1.5,1.2c-0.3,0.5-0.5,1.3-0.3,2
				c0.2,0.6,0.6,1.2,1.2,1.5C139.1,195.1,139.7,195.2,140.4,195L140.4,195z"/>
		</g>
	</g>
	<g>
		<g>
			<path style="fill:#E01E84;" d="M130.9,211.1c1.4-0.4,2.8-0.7,4.2-1.1c0.6-0.2,1.2-0.6,1.5-1.2c0.3-0.5,0.5-1.3,0.3-2
				c-0.2-0.6-0.6-1.2-1.2-1.5c-0.6-0.3-1.3-0.4-2-0.3c-1.4,0.4-2.8,0.7-4.2,1.1c-0.6,0.2-1.2,0.6-1.5,1.2c-0.3,0.5-0.5,1.3-0.3,2
				c0.2,0.6,0.6,1.2,1.2,1.5C129.5,211.1,130.2,211.3,130.9,211.1L130.9,211.1z"/>
		</g>
	</g>
	<g>
		<g>
			<path style="fill:#E01E84;" d="M143.7,207.8c1.4-0.4,2.8-0.7,4.2-1.1c0.6-0.2,1.2-0.6,1.5-1.2c0.3-0.5,0.5-1.3,0.3-2
				c-0.2-0.6-0.6-1.2-1.2-1.5c-0.6-0.3-1.3-0.4-2-0.3c-1.4,0.4-2.8,0.7-4.2,1.1c-0.6,0.2-1.2,0.6-1.5,1.2c-0.3,0.5-0.5,1.3-0.3,2
				c0.2,0.6,0.6,1.2,1.2,1.5C142.3,207.9,143,208,143.7,207.8L143.7,207.8z"/>
		</g>
	</g>
	<g>
		<g>
			<path style="fill:#E01E84;" d="M156.5,204.6c1.4-0.4,2.8-0.7,4.2-1.1c0.6-0.2,1.2-0.6,1.5-1.2c0.3-0.5,0.5-1.3,0.3-2
				c-0.2-0.6-0.6-1.2-1.2-1.5c-0.6-0.3-1.3-0.4-2-0.3c-1.4,0.4-2.8,0.7-4.2,1.1c-0.6,0.2-1.2,0.6-1.5,1.2c-0.3,0.5-0.5,1.3-0.3,2
				c0.2,0.6,0.6,1.2,1.2,1.5C155.1,204.7,155.8,204.8,156.5,204.6L156.5,204.6z"/>
		</g>
	</g>
	<g>
		<g>
			<path style="fill:#E01E84;" d="M121.4,173.7c1.4-0.4,2.8-0.7,4.2-1.1c0.6-0.2,1.2-0.6,1.5-1.2c0.3-0.5,0.5-1.3,0.3-2
				c-0.2-0.6-0.6-1.2-1.2-1.5c-0.6-0.3-1.3-0.4-2-0.3c-1.4,0.4-2.8,0.7-4.2,1.1c-0.6,0.2-1.2,0.6-1.5,1.2c-0.3,0.5-0.5,1.3-0.3,2
				c0.2,0.6,0.6,1.2,1.2,1.5C120.1,173.7,120.7,173.8,121.4,173.7L121.4,173.7z"/>
		</g>
	</g>
	<g>
		<g>
			<path style="fill:#E01E84;" d="M147,167.2c1.4-0.4,2.8-0.7,4.2-1.1c0.6-0.2,1.2-0.6,1.5-1.2c0.3-0.5,0.5-1.3,0.3-2
				c-0.2-0.6-0.6-1.2-1.2-1.5c-0.6-0.3-1.3-0.4-2-0.3c-1.4,0.4-2.8,0.7-4.2,1.1c-0.6,0.2-1.2,0.6-1.5,1.2c-0.3,0.5-0.5,1.3-0.3,2
				c0.2,0.6,0.6,1.2,1.2,1.5C145.6,167.3,146.3,167.4,147,167.2L147,167.2z"/>
		</g>
	</g>
	<g>
		<g>
			<path style="fill:#E01E84;" d="M114.4,146.1c1.4-0.4,2.8-0.7,4.2-1.1c0.6-0.2,1.2-0.6,1.5-1.2c0.3-0.5,0.5-1.3,0.3-2
				c-0.2-0.6-0.6-1.2-1.2-1.5c-0.6-0.3-1.3-0.4-2-0.3c-1.4,0.4-2.8,0.7-4.2,1.1c-0.6,0.2-1.2,0.6-1.5,1.2c-0.3,0.5-0.5,1.3-0.3,2
				c0.2,0.6,0.6,1.2,1.2,1.5C113.1,146.2,113.8,146.3,114.4,146.1L114.4,146.1z"/>
		</g>
	</g>
	<g>
		<g>
			<path style="fill:#E01E84;" d="M140,139.6c1.4-0.4,2.8-0.7,4.2-1.1c0.6-0.2,1.2-0.6,1.5-1.2c0.3-0.5,0.5-1.3,0.3-2
				c-0.2-0.6-0.6-1.2-1.2-1.5c-0.6-0.3-1.3-0.4-2-0.3c-1.4,0.4-2.8,0.7-4.2,1.1c-0.6,0.2-1.2,0.6-1.5,1.2c-0.3,0.5-0.5,1.3-0.3,2
				c0.2,0.6,0.6,1.2,1.2,1.5C138.7,139.7,139.3,139.8,140,139.6L140,139.6z"/>
		</g>
	</g>
	<g>
		<g>
			<path style="fill:#E01E84;" d="M133.1,219.9c1.4-0.4,2.8-0.7,4.2-1.1c0.6-0.2,1.2-0.6,1.5-1.2c0.3-0.5,0.5-1.3,0.3-2
				c-0.2-0.6-0.6-1.2-1.2-1.5c-0.6-0.3-1.3-0.4-2-0.3c-1.4,0.4-2.8,0.7-4.2,1.1c-0.6,0.2-1.2,0.6-1.5,1.2c-0.3,0.5-0.5,1.3-0.3,2
				c0.2,0.6,0.6,1.2,1.2,1.5C131.8,220,132.4,220.1,133.1,219.9L133.1,219.9z"/>
		</g>
	</g>
	<g>
		<g>
			<path style="fill:#E01E84;" d="M145.9,216.7c1.4-0.4,2.8-0.7,4.2-1.1c0.6-0.2,1.2-0.6,1.5-1.2c0.3-0.5,0.5-1.3,0.3-2
				c-0.2-0.6-0.6-1.2-1.2-1.5c-0.6-0.3-1.3-0.4-2-0.3c-1.4,0.4-2.8,0.7-4.2,1.1c-0.6,0.2-1.2,0.6-1.5,1.2c-0.3,0.5-0.5,1.3-0.3,2
				c0.2,0.6,0.6,1.2,1.2,1.5C144.6,216.8,145.2,216.9,145.9,216.7L145.9,216.7z"/>
		</g>
	</g>
	<g>
		<g>
			<path style="fill:#E01E84;" d="M158.7,213.5c1.4-0.4,2.8-0.7,4.2-1.1c0.6-0.2,1.2-0.6,1.5-1.2c0.3-0.5,0.5-1.3,0.3-2
				c-0.2-0.6-0.6-1.2-1.2-1.5c-0.6-0.3-1.3-0.4-2-0.3c-1.4,0.4-2.8,0.7-4.2,1.1c-0.6,0.2-1.2,0.6-1.5,1.2c-0.3,0.5-0.5,1.3-0.3,2
				c0.2,0.6,0.6,1.2,1.2,1.5C157.3,213.5,158,213.6,158.7,213.5L158.7,213.5z"/>
		</g>
	</g>
	<g>
		<g>
			<path style="fill:#E01E84;" d="M133.1,162.6c2.6,0,5.3-1.1,7.2-3c1.8-1.8,3.1-4.7,3-7.2c-0.2-5.5-4.5-10.2-10.2-10.2
				c-2.6,0-5.3,1.1-7.2,3c-1.8,1.8-3.1,4.7-3,7.2C123.1,158,127.4,162.6,133.1,162.6L133.1,162.6z"/>
		</g>
	</g>
	<g>
		<g>
			<path style="fill:#EB5F9E;" d="M133.1,157.6c2.7,0,5.2-2.3,5.1-5.1c-0.1-2.8-2.2-5.1-5.1-5.1c-2.7,0-5.2,2.3-5.1,5.1
				C128.1,155.2,130.2,157.6,133.1,157.6L133.1,157.6z"/>
		</g>
	</g>
</g>
<g>
	<path style="fill:#F5AB40;" d="M78.8,209.2L78.8,209.2v132.3c0,3.3,3.5,5.9,7.8,5.9H357c2.1,0,4-0.6,5.5-1.7
		c1.5-1.1,2.3-2.6,2.3-4.2v-134"/>
</g>
<g>
	<path style="fill:#FFC844;" d="M362.7,216.1H80.4c-4.4,0-7.9-3.6-7.9-7.9v0c0-4.4,3.6-7.9,7.9-7.9h282.3c4.4,0,7.9,3.6,7.9,7.9v0
		C370.6,212.5,367.1,216.1,362.7,216.1z"/>
</g>
</svg>
