<svg xmlns="http://www.w3.org/2000/svg" width="151" height="151" viewBox="0 0 151 151">
    <g fill="none" fill-rule="evenodd">
        <circle cx="75.092" cy="75.092" r="73.592" stroke="#C619DD" stroke-width="3"/>
        <path fill="#D8D8D8" stroke="#0D0D0D" stroke-linejoin="round" stroke-width="2.5" d="M114.03 67.285v31.379-31.379zm-85.285 37.522s1.625 7.683 7.02 7.683h80.141c5.398 0 7.022-7.683 7.022-7.683H28.745z"/>
        <path fill="#F9D2FF" stroke="#0D0D0D" stroke-linejoin="round" stroke-width="2.5" d="M79.549 43.043v-6.858h39.945v25.33H91.88"/>
        <path fill="#FFC000" stroke="#0D0D0D" stroke-linejoin="round" stroke-width="2.5" d="M37.64 98.664V57.486c0-3.067 2.509-5.576 5.573-5.576h16.733L37.64 98.664z"/>
        <path fill="#000" d="M92.776 48.85a.81.81 0 1 1-1.62 0 .81.81 0 0 1 1.62 0"/>
        <path fill="#C619DD" stroke="#C619DD" stroke-width="2.5" d="M92.776 48.85a.81.81 0 1 1-1.62 0 .81.81 0 0 1 1.62 0z"/>
        <path fill="#000" d="M101.405 48.85c0 .45-.361.81-.811.81a.81.81 0 1 1 0-1.62c.45 0 .811.361.811.81"/>
        <path fill="#C619DD" stroke="#C619DD" stroke-width="2.5" d="M101.405 48.85c0 .45-.361.81-.811.81a.81.81 0 1 1 0-1.62c.45 0 .811.361.811.81z"/>
        <path fill="#000" d="M110.033 48.85a.81.81 0 1 1-.811-.81.81.81 0 0 1 .811.81"/>
        <path fill="#C619DD" stroke="#C619DD" stroke-width="2.5" d="M110.033 48.85a.81.81 0 1 1-.811-.81.81.81 0 0 1 .811.81z"/>
        <path stroke="#0D0D0D" stroke-linejoin="round" stroke-width="2.5" d="M75.894 48.445c-9.877 0-10.424 5.974-9.736 13.235.693 7.276 5.265 13.232 9.736 13.232 4.475 0 9.047-5.956 9.736-13.232.69-7.261.144-13.235-9.736-13.235z"/>
        <path stroke="#0D0D0D" stroke-linecap="round" stroke-linejoin="round" stroke-width="2.5" d="M85.528 59.738c-4.177-1.09-6.77-3.73-6.77-3.73s-1.053 2.334-6.394 3.199"/>
        <path fill="#F9D2FF" stroke="#0D0D0D" stroke-linejoin="round" stroke-width="2.5" d="M95.217 98.664v-10.83c0-5.928-7.188-7.727-7.188-7.727l-3.637-1.102-8.556 10.676-8.557-10.676-3.635 1.102s-7.19 1.799-7.19 7.727v10.83"/>
        <path stroke="#0D0D0D" stroke-linecap="round" stroke-linejoin="round" stroke-width="2.5" d="M100.857 61.577l-6.32 7.56"/>
    </g>
</svg>
