<svg xmlns="http://www.w3.org/2000/svg" width="800" height="800" viewBox="0 0 800 800"><defs><style>.a{fill:#0e172d;}.b{fill:#05060d;}.c{fill:#ffcd34;}.d{opacity:0.52;}.e{opacity:0.29;}.f{fill:#ededed;}.g{fill:#9d9d9c;}.h{fill:#c6c6c6;}.i{fill:#2e59b2;}.j{fill:#009940;}.k{opacity:0.77;}.l{fill:#feb62e;}.m{fill:#662483;}.n{fill:#9148bc;}.o{fill:#dd9e89;}.p{fill:#fec4a3;}.q{fill:#fff;}.r{fill:#ff326a;}</style></defs><circle class="a" cx="400" cy="400" r="293.4"/><path class="b" d="M648.2,299.2c-94.5,73.9-258,47.2-386.4,54.5s-130.7-71.2-23-48.5,202.3-3.6,231.3-26.6S435,218,335.7,233.8c-52.6,8.3-117.8-2-167.5-13.6C221.9,151.1,305.7,106.6,400,106.6c121.3,0,225.3,73.6,270,178.5A130.6,130.6,0,0,0,648.2,299.2Z"/><path class="b" d="M390.2,586.2c49.7-36.3,7.3-92-83.6-87.2s-121.1-81.1-16.9-58.1,245.8,4.8,373-40.9A164.2,164.2,0,0,0,693,385.7c.3,4.8.4,9.5.4,14.3C693.4,562,562,693.4,400,693.4A292.8,292.8,0,0,1,161.3,570.6C162,570.8,340.6,622.5,390.2,586.2Z"/><circle class="c" cx="207.8" cy="229.9" r="4.9"/><circle class="c" cx="363.3" cy="639.5" r="7.9"/><g class="d"><circle class="c" cx="371.2" cy="203.2" r="4.9"/></g><circle class="c" cx="414.1" cy="358.9" r="7.9"/><g class="e"><circle class="c" cx="354.4" cy="135.2" r="8.9"/></g><circle class="c" cx="458.1" cy="578.4" r="10.1"/><circle class="c" cx="546.6" cy="573.5" r="4.9"/><circle class="c" cx="393.6" cy="290.1" r="4.9"/><circle class="c" cx="269.7" cy="652.4" r="4.9"/><circle class="c" cx="274.6" cy="376.1" r="4.9"/><g class="d"><circle class="c" cx="202.9" cy="526" r="4.9"/></g><circle class="c" cx="583.4" cy="210.1" r="4.9"/><g class="d"><circle class="c" cx="157.1" cy="404.5" r="4.9"/></g><circle class="c" cx="652.9" cy="324.9" r="4.9"/><g class="e"><circle class="c" cx="311.5" cy="578.4" r="4.9"/></g><g class="d"><circle class="c" cx="178.8" cy="310.3" r="4.9"/></g><g class="d"><circle class="c" cx="652.9" cy="432.4" r="8.2"/></g><circle class="c" cx="298.9" cy="204.9" r="4.9"/><circle class="c" cx="507.1" cy="634.6" r="4.9"/><circle class="c" cx="558.5" cy="256.5" r="4.9"/><circle class="c" cx="478.9" cy="149" r="4.9"/><polygon class="f" points="448.3 265.7 402.9 337.4 391.5 331.9 419.8 251.9 448.3 265.7"/><circle class="f" cx="428" cy="214.6" r="15.3"/><circle class="f" cx="481.5" cy="245.6" r="7.4"/><circle class="f" cx="404.2" cy="221.9" r="13.9"/><circle class="f" cx="473.6" cy="229.7" r="12.4"/><circle class="f" cx="472.5" cy="262.5" r="16.3"/><circle class="f" cx="394.5" cy="236.1" r="7.6"/><circle class="f" cx="454.8" cy="216" r="13.5"/><circle class="f" cx="445.3" cy="243.8" r="30.5"/><circle class="f" cx="454.8" cy="276.6" r="10.1"/><circle class="f" cx="417.9" cy="241.4" r="17.8"/><circle class="f" cx="405.4" cy="251.2" r="12.5"/><circle class="f" cx="436.4" cy="252.9" r="23.4"/><path class="g" d="M413.6,217.2a19.2,19.2,0,0,1,2.8-13.5,13.6,13.6,0,0,1,5.7-4.6,17.4,17.4,0,0,1,7.1-1.2,14.9,14.9,0,0,1,12.1,7.3c2.5,4,3.4,9.2,1.7,13.5a17.6,17.6,0,0,0-3.4-12.3,13.8,13.8,0,0,0-10.5-5.8c-4.1-.2-8.4,1.2-11,4.4A22.4,22.4,0,0,0,413.6,217.2Z"/><path class="g" d="M464.1,221.7a15.6,15.6,0,0,1,9.2-5.3,11.1,11.1,0,0,1,5.7.7,13.7,13.7,0,0,1,7.3,8.5,12.2,12.2,0,0,1-.1,5.7,15.8,15.8,0,0,1-6.2,8.5,21.6,21.6,0,0,0,4.1-9,9.9,9.9,0,0,0-2.6-8.5,10.1,10.1,0,0,0-8-3.7A21.3,21.3,0,0,0,464.1,221.7Z"/><path class="g" d="M442.7,210.1a17.5,17.5,0,0,1,7.3-6.7,13.6,13.6,0,0,1,10.1-.6,12.4,12.4,0,0,1,7.5,6.7,13.6,13.6,0,0,1,.3,9.9,14.4,14.4,0,0,0-1.2-9.4,12.6,12.6,0,0,0-7.1-5.9,13.3,13.3,0,0,0-9.2.3A21.5,21.5,0,0,0,442.7,210.1Z"/><path class="g" d="M457.1,271.9a41,41,0,0,0,12.8,4.6,17.1,17.1,0,0,0,6.4-.1,11.9,11.9,0,0,0,5.7-2.6c3.4-2.4,5.3-6.7,5.9-10.9s-.4-9.2-4.4-11.8a9.7,9.7,0,0,1,5.2,4.8,14.6,14.6,0,0,1,1.4,7.1c-.3,4.9-2.3,9.9-6.4,13s-9.6,3.8-14.2,2.6A30,30,0,0,1,457.1,271.9Z"/><path class="g" d="M465.1,275.6a13.1,13.1,0,0,1-2.8,8.2,9.4,9.4,0,0,1-8.2,3.3,11.5,11.5,0,0,1-7.5-4.6,10.4,10.4,0,0,1-2-3.9,5.7,5.7,0,0,1,.4-4.3c-.9,2.8.6,5.6,2.3,7.6a12.6,12.6,0,0,0,7,3.9,8.7,8.7,0,0,0,7.2-2.8A14.7,14.7,0,0,0,465.1,275.6Z"/><path class="g" d="M485.3,252a11.4,11.4,0,0,0,3.2-3.8,6.7,6.7,0,0,0,.4-4.6,5.7,5.7,0,0,0-2.6-3.8,11.9,11.9,0,0,0-4.7-1.6,8.5,8.5,0,0,1,5.2.7,6.4,6.4,0,0,1,3.4,4.4,6.5,6.5,0,0,1-.8,5.4A7.8,7.8,0,0,1,485.3,252Z"/><path class="g" d="M441.5,233.7c4.1-4,9.4-7.2,15.4-7.7a17.1,17.1,0,0,1,8.6,1.8,22.1,22.1,0,0,1,6.9,5.6,18.7,18.7,0,0,1,3,16.9c-1.7,5.6-5.5,10.7-10.8,13.1a18.8,18.8,0,0,0,6.2-5.7,21.8,21.8,0,0,0,3.6-7.7c1.4-5.4.5-11.4-3.1-15.7a20.4,20.4,0,0,0-6.3-5.4,16.3,16.3,0,0,0-8.1-1.8,23,23,0,0,0-8.1,2A31,31,0,0,0,441.5,233.7Z"/><path class="g" d="M428.4,223.7a14,14,0,0,1,5-5.8,10.4,10.4,0,0,1,7.7-1.3,9.3,9.3,0,0,1,6.3,4.6,9.5,9.5,0,0,1,.9,7.5,11.3,11.3,0,0,0-1.7-7,9.9,9.9,0,0,0-5.8-3.8,10.4,10.4,0,0,0-6.9.9A17.1,17.1,0,0,0,428.4,223.7Z"/><path class="g" d="M448.2,252.9a12.8,12.8,0,0,1-5.5,5.3,10.5,10.5,0,0,1-7.8.5,9.4,9.4,0,0,1-5.8-5.2,9.6,9.6,0,0,1-.1-7.6,10.8,10.8,0,0,0,1,7.1,9.2,9.2,0,0,0,5.3,4.4,10.5,10.5,0,0,0,7-.2A15.2,15.2,0,0,0,448.2,252.9Z"/><path class="g" d="M429.7,251.6a8.7,8.7,0,0,1-2.5,4.6,6.9,6.9,0,0,1-10.1-.4,6.9,6.9,0,0,1-1.4-5.1,7.7,7.7,0,0,0,2.2,4.4,6.6,6.6,0,0,0,4.2,1.7,7,7,0,0,0,4.4-1.4A10.8,10.8,0,0,0,429.7,251.6Z"/><path class="g" d="M454.5,270.5a12.4,12.4,0,0,1-6.1,4.4,9.6,9.6,0,0,1-7.6-.6,9.3,9.3,0,0,1-5-5.8,9.9,9.9,0,0,1,.9-7.4,11.5,11.5,0,0,0,.1,7.1,9.2,9.2,0,0,0,4.6,4.9,9.7,9.7,0,0,0,6.7.8A14.7,14.7,0,0,0,454.5,270.5Z"/><path class="g" d="M417.3,257.3a17,17,0,0,1-8.1,5.2,13.6,13.6,0,0,1-9.7-1.1,12.5,12.5,0,0,1-6-7.7,12.8,12.8,0,0,1,1.4-9.4,14.2,14.2,0,0,0-.4,9.1,11.9,11.9,0,0,0,5.7,6.8,12.7,12.7,0,0,0,8.8,1.2A19.6,19.6,0,0,0,417.3,257.3Z"/><path class="g" d="M398.2,243.5a8.5,8.5,0,0,1-7,0c-2.5-1.1-3.9-3.8-4.3-6.2a8.2,8.2,0,0,1,2.4-7.2,8.7,8.7,0,0,1,6.7-2.2,13.2,13.2,0,0,0-5.1,3.7,7.6,7.6,0,0,0-1.3,5.3,7.2,7.2,0,0,0,2.6,4.8A12.8,12.8,0,0,0,398.2,243.5Z"/><path class="g" d="M391.9,229.6a15.9,15.9,0,0,1-1.2-10.1,14.2,14.2,0,0,1,1.9-4.8,18.5,18.5,0,0,1,3.6-3.8,14.3,14.3,0,0,1,9.8-3,12.8,12.8,0,0,1,8.8,4.7,14.2,14.2,0,0,0-8.9-3.7A14.4,14.4,0,0,0,397,212a17.7,17.7,0,0,0-3.3,3.4,17.5,17.5,0,0,0-2,4.4A19.2,19.2,0,0,0,391.9,229.6Z"/><path class="g" d="M404,232.2a12.5,12.5,0,0,1-1.3-7.4,10.2,10.2,0,0,1,3.8-6.7,9.3,9.3,0,0,1,7.4-1.9,9.7,9.7,0,0,1,6.3,4,11.8,11.8,0,0,0-6.4-3,9.4,9.4,0,0,0-6.5,2,10.5,10.5,0,0,0-3.6,5.8A16,16,0,0,0,404,232.2Z"/><polygon class="g" points="433.9 257.3 398.9 331 432.7 256.7 433.9 257.3"/><polygon class="g" points="442.4 274.4 402.9 337.4 441.3 273.7 442.4 274.4"/><polygon class="g" points="418 255.3 391.5 331.9 416.7 254.9 418 255.3"/><path class="h" d="M476.7,209.1s25.3.2,17.4,22.7C494.1,231.8,507.5,209.2,476.7,209.1Z"/><path class="h" d="M494.6,256.6s11,10.7-2.8,20.5C491.8,277.1,510.4,270.2,494.6,256.6Z"/><path class="h" d="M426.5,192.2s-11.2-5.8-15.5,9.7C411,201.9,411.2,184.2,426.5,192.2Z"/><path class="h" d="M385,225.9s-10.3,4.1-4.5,13.2C380.5,239.1,370,229.9,385,225.9Z"/><path class="i" d="M153.7,429.5A155.1,155.1,0,0,0,325.9,565.4c81.4-9.6,140.6-80.7,136.8-161.3-.2-3.6-.5-7.3-.9-10.9a155.1,155.1,0,0,0-308.1,36.3Z"/><path class="j" d="M265.8,262s-9.2,57.2,21.6,51.2,44.3-5.6,53.4,6.3-4.6,38.2,29.4,36.7c36.4-1.5,14.8-32.9,26.5-43.3s35.5,5.8,35.5,5.8S375.4,234.3,265.8,262Z"/><path class="j" d="M230,356s3.7-33.6-21.6-29.7-20.3,25.6-39.6,16c0,0-20.1,35.1-16,76.9s64.1,32.9,58.3,3.5,19.4-10,22.1-25.8S225.7,380.4,230,356Z"/><path class="j" d="M462.5,399.6s-61.2,37.7-88.8,13.8-35.8-33-48.4-14.1,3.3,41.5-30.4,48.4-13.1,28.3,4.8,21,25.9,7,21.7,12,3.6,22.4,18.4,8.4,25.5-51.6,54.8-30.3-7.8,51.9,33.9,49.9C428.5,508.7,467.4,467,462.5,399.6Z"/><path class="j" d="M307,566.5s-34.8-7.9-32-31c2.4-20.3-22.4-47.7-37.2-33.7s-2.1,23.1-15.7,23.1-31.4-32.9-42-25.4C180.1,499.5,220.8,566.2,307,566.5Z"/><g class="k"><path class="h" d="M421.7,305.3a377,377,0,0,1,57.3,9,154.9,154.9,0,0,1,28.3,9.6,62.4,62.4,0,0,1,13.6,8.5,37.2,37.2,0,0,1,6.2,6.8,23.7,23.7,0,0,1,3.8,9.8,22.3,22.3,0,0,1-1,10.9,30.6,30.6,0,0,1-4.7,8.8,59.5,59.5,0,0,1-12.4,11.8c-8.7,6.4-17.8,11.1-26.9,15.4-18.2,8.5-36.8,15-55.4,21-37.4,11.8-75.2,21.2-113.1,29.7-18.9,4.3-37.9,8.2-57,12s-38,7.3-57.5,10.6l-6-54.3c18.7-1.1,37.8-2.5,56.8-4.1s37.9-3.4,56.8-5.5c37.9-4.2,75.6-9.2,112.6-16.6,18.5-3.7,36.9-8,54.3-13.9A140.1,140.1,0,0,0,502,364.3a46.8,46.8,0,0,0,9.3-6.9,14.3,14.3,0,0,0,2.6-3.5,7.7,7.7,0,0,0,.9-3.2c.2-2.1-1.1-5.2-3.7-8.1a52.7,52.7,0,0,0-9.7-8.1A152.5,152.5,0,0,0,476.5,322,377.3,377.3,0,0,0,421.7,305.3Z"/></g><g class="k"><path class="l" d="M421.7,305.3a376.7,376.7,0,0,1,56.5,11.3c9.3,2.8,18.5,5.9,27.3,10.5a62.2,62.2,0,0,1,12.5,8.4c3.8,3.4,7.3,8.1,8.1,14a17.9,17.9,0,0,1-1,8.6,25.4,25.4,0,0,1-4.1,7.2,56.1,56.1,0,0,1-11.5,10.4,152.3,152.3,0,0,1-26.1,13.9c-18,7.7-36.5,13.5-55.1,18.8C391,418.9,353.2,427,315.4,434.2s-75.9,13.4-114.3,18.7l-2.4-21.7c37.9-3.5,76.1-8.1,113.9-13.5s75.6-11.8,112.7-20.5c18.6-4.4,37-9.4,54.7-16a153.6,153.6,0,0,0,25.2-12,50.3,50.3,0,0,0,10.3-8.4c2.8-3.2,4.4-6.8,4.2-10.6s-2.5-7.5-5.6-10.6a56.7,56.7,0,0,0-11-8.3,151.3,151.3,0,0,0-25.9-11.6A377,377,0,0,0,421.7,305.3Z"/></g><path class="m" d="M234,456.3c0-156.9,99.9-290.4,239.6-340.4a292.8,292.8,0,0,0-73.6-9.3C238,106.6,106.6,238,106.6,400c0,131.1,86,242.2,204.7,279.7A360,360,0,0,1,234,456.3Z"/><path class="n" d="M190.3,440.7C198.1,173.5,418,107.2,418,107.2q-9-.6-18-.6C238,106.6,106.6,238,106.6,400c0,104.9,55.1,196.9,137.9,248.8C205.3,591,188.1,515.8,190.3,440.7Z"/><path class="n" d="M215.5,426.1a16.7,16.7,0,1,1,16.7-16.7A16.7,16.7,0,0,1,215.5,426.1Zm0-25.2a8.5,8.5,0,1,0,8.5,8.5A8.6,8.6,0,0,0,215.5,400.9Z"/><path class="n" d="M311.5,217.8a16.7,16.7,0,1,1,16.7-16.7A16.7,16.7,0,0,1,311.5,217.8Zm0-25.2a8.5,8.5,0,1,0,8.5,8.5A8.6,8.6,0,0,0,311.5,192.6Z"/><path class="n" d="M248.8,307a16.7,16.7,0,1,1,16.7-16.7A16.7,16.7,0,0,1,248.8,307Zm0-25.2a8.5,8.5,0,1,0,8.5,8.5A8.5,8.5,0,0,0,248.8,281.8Z"/><path class="n" d="M255.7,643.6a16.7,16.7,0,1,1,16.7-16.7A16.7,16.7,0,0,1,255.7,643.6Zm0-25.2a8.5,8.5,0,1,0,8.5,8.5A8.5,8.5,0,0,0,255.7,618.4Z"/><path class="n" d="M401.3,148.2A16.7,16.7,0,1,1,418,131.5,16.7,16.7,0,0,1,401.3,148.2Zm0-25.2a8.5,8.5,0,1,0,8.5,8.5A8.5,8.5,0,0,0,401.3,123Z"/><path class="n" d="M215.5,537.9a16.7,16.7,0,1,1,16.7-16.7A16.7,16.7,0,0,1,215.5,537.9Zm0-25.2a8.5,8.5,0,1,0,8.5,8.5A8.6,8.6,0,0,0,215.5,512.7Z"/><path class="o" d="M578.3,394.7S518,431,556.9,445.2C579.7,453.5,578.3,394.7,578.3,394.7Z"/><path class="o" d="M632.2,547.4s0,72.1-64.9,154.7c0,0,123-73.6,140-162.5C719,478.8,632.2,547.4,632.2,547.4Z"/><path class="p" d="M603.1,331.6S476.6,565,584.3,565c82.5-.1,123-1.8,123-1.8S775.1,357.4,749.2,316,603.1,331.6,603.1,331.6Z"/><path class="q" d="M547.3,469.5s21.8,18.1,10.8,42c0,0-11.5,0-17.2-3.6C540.9,507.9,543.2,486.1,547.3,469.5Z"/><path class="r" d="M693.4,229.9S626,197.3,558.5,339.7a101.2,101.2,0,0,0,7.9,8.5l14.5-16.6-10.3,20.5a191.2,191.2,0,0,0,25.1,18.8c4.8-10.1,14.6-32.7,15.5-50.9,0,0-1.5,33.4-10.6,53.8,4.3,2.5,8.9,5,13.9,7.5l3.9-5.2v7A231.5,231.5,0,0,0,676.3,401c8.7-11.3,30.6-43.4,23.3-69.4,0,0,12.1,25.2-15.7,70.7a299.1,299.1,0,0,0,63.2,2.2S738,252.6,693.4,229.9Z"/><path class="r" d="M760.7,366.7s-41.9,17.8-57.2,69.1,8.3,111.6,8.3,111.6-35.3,71.4-133.4,66.9c-122.7-5.7-164.5,133.3-164.5,133.3s28.1-3.4,67.6-14.2L451,730.3c28.2-28.2,71.6-50.6,71.6-50.6-35.7,33.7-37.5,47.8-36.5,52.4,61.2-17.2,147.4-51.8,200.2-117.8C775.3,503.2,760.7,366.7,760.7,366.7ZM427.4,733.9c53.5-91.7,108.1-94.4,108.1-94.4C470.1,670.4,427.4,733.9,427.4,733.9Z"/><path class="l" d="M68.9,237.9S236.7,218.3,403.5,32.5L469.3,70S300.6,278.9,72.1,303.9Z"/><path class="r" d="M718.1,404.5S646.6,517.6,670,591.2c0,0-.1-93.4,53.5-179.2Z"/><path class="n" d="M400,66A334,334,0,0,1,636.2,636.2,334,334,0,0,1,163.8,163.8,331.8,331.8,0,0,1,400,66m0-41C192.9,25,25,192.9,25,400S192.9,775,400,775,775,607.1,775,400,607.1,25,400,25Z"/><path class="q" d="M237.6,211.1l13.2,26.2-9.1,4.5-3.4-4a19.4,19.4,0,0,1-3.4,6.5,18,18,0,0,1-6.6,5.5c-5.2,2.6-9.9,2.6-14.1.1s-8.5-7.9-12.7-16.4-6-15.7-4.6-20.7,5.9-9.5,13.7-13.4a64.4,64.4,0,0,1,16-5.9l3.5,9.5c-4.8,2.3-9.5,4.5-14.1,6.9s-4.9,3.5-5.2,5.8,1,6,3.7,11.4,4.8,8.3,6.6,9.6,4,1.4,6.6.1a21.7,21.7,0,0,0,5.8-4.4l-7.7-15.3Z"/><path class="q" d="M285.2,203.2l6.2,8.1q-4.5,5.4-13.5,10.8c-7,4.3-12.9,5.6-17.8,3.9s-9.9-6.5-14.9-14.8-7.1-15-6.3-20.1,4.7-9.7,11.7-14a55.4,55.4,0,0,1,14.7-6.7l4.4,9.2-13,7.6c-2.6,1.6-3.9,3.5-3.7,5.8s1.6,5.8,4.6,10.6,5.4,7.9,7.4,9.1,4.2.9,6.8-.7C277.9,208.3,282.3,205.4,285.2,203.2Z"/><path class="q" d="M304.3,181.8l-10.6,2.6c-4.2.9-7.7,1-10.4,0s-5.1-2.9-7.3-6c-3.3-4.7-4.4-8.7-3.1-12s4.8-7.1,10.9-11.3,11.1-7,15.7-8.4l4.6,7.9-14,9.6a15.1,15.1,0,0,0-3.6,3.3c-.4.7-.2,1.7.5,2.8a3.5,3.5,0,0,0,2.4,1.5,11.2,11.2,0,0,0,4.2-.7l9.8-2.4c4.2-1.1,7.7-1.1,10.4-.1s5.2,3,7.5,6.1c3.3,4.7,4.4,8.7,3.3,12.2s-4.7,7.3-10.9,11.6a74,74,0,0,1-16.5,9l-5-8.5,14.8-9.9c2-1.5,3.2-2.6,3.6-3.4a2.6,2.6,0,0,0-.5-2.8,3.6,3.6,0,0,0-2.2-1.6A11.8,11.8,0,0,0,304.3,181.8Z"/><path class="q" d="M357.5,150.2l6.8,7.3c-3.4,3.5-9.8,9-19.1,16.5a11.8,11.8,0,0,1-8.4,3,10.4,10.4,0,0,1-7.5-4.2l-18.6-22.9a10.7,10.7,0,0,1-2.5-8.2,12.3,12.3,0,0,1,4.7-7.6c9.3-7.5,16-12.6,20.1-15.2l5.7,8.1-14.8,12.1c-1.7,1.3-1.8,2.8-.5,4.4l3.9,4.8L342.5,136l6,7.4-15.2,12.3,4.9,6c1.3,1.7,2.8,1.8,4.4.5Z"/></svg>