<?xml version="1.0" standalone="no"?>
<!DOCTYPE svg PUBLIC "-//W3C//DTD SVG 1.1//EN" "http://www.w3.org/Graphics/SVG/1.1/DTD/svg11.dtd" >
<svg xmlns="http://www.w3.org/2000/svg" xmlns:xlink="http://www.w3.org/1999/xlink" version="1.1">
<metadata></metadata>
<defs>
<font id="arconrounded-regular" horiz-adv-x="1228" >
<font-face units-per-em="2048" ascent="1638" descent="-410" />
<missing-glyph horiz-adv-x="614" />
<glyph unicode="&#xfb01;" horiz-adv-x="858" d="M82 840q0 61 65 61h56v123q0 56 1 90.5t6.5 86.5t15.5 85t29.5 71t47 59.5t70 36t96.5 13.5q63 0 63 -67q0 -30 -16 -44.5t-49 -19.5q-23 -3 -41.5 -11t-31.5 -23.5t-22.5 -28t-15.5 -38t-9.5 -38.5t-5 -44.5l-2 -42t0 -45.5t0.5 -40v-123h117h2h229q66 0 66 -65v-770 q0 -66 -66 -66h-6q-66 0 -66 66v710h-157h-2h-117v-710q0 -66 -66 -66h-6q-65 0 -65 66v710h-56q-65 0 -65 64zM590 1182q0 36 27.5 63t66.5 27q37 0 64.5 -27.5t27.5 -62.5q0 -40 -27.5 -68.5t-64.5 -28.5q-39 0 -66.5 28.5t-27.5 68.5z" />
<glyph unicode="&#xfb02;" horiz-adv-x="903" d="M82 840q0 61 65 61h56v123q0 88 4 138.5t30 125.5t75 111.5t147.5 58t238.5 4.5h7q65 0 65 -65v-1331q0 -66 -65 -66h-7q-65 0 -65 66v1275q-84 4 -143 -15.5t-88 -46t-44 -76.5t-16.5 -79t-1.5 -82v-18v-123h96q66 0 66 -61q0 -64 -66 -64h-96v-710q0 -66 -66 -66h-6 q-65 0 -65 66v710h-56q-65 0 -65 64z" />
<glyph horiz-adv-x="0" />
<glyph horiz-adv-x="682" />
<glyph unicode=" "  horiz-adv-x="614" />
<glyph unicode="&#x09;" horiz-adv-x="614" />
<glyph unicode="&#xa0;" horiz-adv-x="614" />
<glyph unicode="!" horiz-adv-x="432" d="M102 102q0 46 34 79.5t81 33.5q46 0 79.5 -33.5t33.5 -79.5q0 -47 -33.5 -80.5t-79.5 -33.5q-47 0 -81 33.5t-34 80.5zM143 438v959q0 65 72 65h6q72 0 72 -65v-959q0 -65 -72 -65h-6q-72 0 -72 65z" />
<glyph unicode="&#x22;" d="M408 1450h4l-2 16q0 37 26 62.5t64 25.5q36 0 62 -26t26 -62q0 -21 -10 -41l-29 -184q-9 -59 -53 -59q-47 0 -56 59zM696 1450h4l-2 16q0 37 26 62.5t64 25.5q36 0 62.5 -26t26.5 -62q0 -19 -11 -41l-28 -184q-9 -59 -54 -59q-46 0 -55 59z" />
<glyph unicode="#" horiz-adv-x="1091" d="M61 455v2q0 65 66 65h139l92 250h-163q-66 0 -66 66v2q0 65 66 65l213 -2l106 293q20 53 76 53h14q32 0 43.5 -20.5t-2.5 -54.5l-98 -271h182l109 293q20 53 75 53h15q32 0 43.5 -20.5t-2.5 -54.5l-101 -273h97q66 0 63 -65v-2q0 -66 -65 -66h-144l-92 -250h170 q67 0 64 -65v-2q0 -66 -66 -66l-217 2l-113 -307q-17 -53 -73 -53h-15q-32 0 -43.5 20.5t2.5 54.5l105 285h-185l-112 -307q-20 -53 -76 -53h-14q-32 0 -43.5 20.5t2.5 54.5l104 287h-90q-66 0 -66 66zM406 520h184l92 250h-184z" />
<glyph unicode="$" horiz-adv-x="1087" d="M80 301q-9 33 7 52.5t52 19.5h25q53 0 74 -56q31 -72 95 -120.5t148 -61.5v570q-187 63 -275.5 152t-88.5 237q0 155 99.5 262.5t264.5 126.5v49q0 65 54 65q53 0 53 -65v-49q115 -13 204.5 -79.5t127.5 -166.5q12 -33 -4 -53.5t-52 -20.5h-33q-28 0 -45.5 11.5 t-31.5 37.5q-27 44 -71 75.5t-95 41.5v-491q100 -34 171 -70t131.5 -86.5t91 -119.5t30.5 -156q0 -176 -120 -291.5t-304 -130.5v-50q0 -65 -53 -65q-54 0 -54 65v50q-144 15 -252.5 101t-148.5 216zM272 1094q0 -82 50 -132t159 -90v459q-95 -18 -152 -84.5t-57 -152.5z M588 133q119 14 193.5 87t74.5 186q0 93 -61 153t-207 111v-537z" />
<glyph unicode="%" horiz-adv-x="1615" d="M123 1151q0 -159 73 -246.5t216 -87.5q142 0 215 87t73 247q0 156 -72.5 241t-215.5 85t-216 -85t-73 -241zM244.5 23q-7.5 23 15.5 57l922 1306q28 41 80 41h10q41 0 53.5 -22.5t-10.5 -56.5l-920 -1307q-28 -41 -80 -41h-28q-35 0 -42.5 23zM246 1151q0 98 41.5 151.5 t124.5 53.5q84 0 126 -53.5t42 -151.5q0 -101 -42 -157t-126 -56q-83 0 -124.5 56t-41.5 157zM915 324q0 -159 73 -246.5t216 -87.5t216 87.5t73 246.5q0 156 -73 240.5t-216 84.5t-216 -84.5t-73 -240.5zM1038 324q0 97 41.5 150.5t124.5 53.5q84 0 126 -53t42 -151 q0 -101 -42 -157t-126 -56q-83 0 -124.5 56t-41.5 157z" />
<glyph unicode="&#x26;" horiz-adv-x="1095" d="M24.5 374q-0.5 69 19.5 139t67 139.5t116 123.5q-117 191 -96 373q17 130 86.5 213t169.5 104q148 31 269.5 -17.5t170.5 -172.5q27 -64 27 -146q1 -30 -17 -46.5t-49 -16.5h-26q-61 0 -64 66q-5 42 -16 81q-16 42 -46 70.5t-62.5 38.5t-66.5 14t-58 -2 q-66 -11 -111 -60.5t-55 -127.5q-14 -103 44 -223t216 -330q33 -43 112.5 -142.5t120.5 -152.5q45 62 82 152q20 51 76 51h18q37 0 52 -21t2 -55q-62 -143 -142 -238l84 -108q26 -32 14 -56t-53 -24h-37q-52 0 -79 37l-41 49q-112 -76 -227.5 -97.5t-208.5 7t-164.5 94 t-104.5 156.5q-22 59 -22.5 128zM165 414q-4 -61 15 -117q17 -49 50 -87t80 -61t102 -28.5t120 13.5t130 63q-152 187 -240 303q-64 86 -117 162q-63 -54 -99.5 -120.5t-40.5 -127.5z" />
<glyph unicode="'" horiz-adv-x="403" d="M113 1446h4l-2 16q0 37 26 62.5t64 25.5q36 0 62 -26t26 -62q0 -21 -10 -41l-29 -184q-9 -59 -53 -59q-47 0 -56 59z" />
<glyph unicode="(" horiz-adv-x="657" d="M61 647q0 239 104.5 453t287.5 366q36 29 79 29h11q44 0 52 -23.5t-24 -54.5q-159 -150 -247 -349.5t-88 -420.5q0 -220 88.5 -420t246.5 -352q32 -31 24 -54.5t-52 -23.5h-11q-43 0 -79 29q-183 154 -287.5 368t-104.5 453z" />
<glyph unicode=")" horiz-adv-x="657" d="M62.5 -179.5q-8.5 23.5 23.5 54.5q158 152 247 352t89 420q0 221 -88.5 420.5t-247.5 349.5q-32 31 -23.5 54.5t52.5 23.5h10q44 0 80 -29q183 -152 287 -366t104 -453t-104 -453.5t-287 -367.5q-36 -29 -80 -29h-10q-44 0 -52.5 23.5z" />
<glyph unicode="*" horiz-adv-x="700" d="M92 1401q15 27 74 2l133 -66v160q0 66 66 66q36 0 36 -66v-160l134 64q57 28 88 -29q16 -32 -45 -59l-136 -66l97 -121q41 -50 -13 -92q-24 -18 -65 33l-111 139l-110 -139q-42 -51 -93 -12q-27 20 15 71l96 121l-135 66q-62 27 -31 88z" />
<glyph unicode="+" d="M102 561v6q0 66 66 66h379v379q0 65 65 65h6q66 0 66 -65v-379h377q65 0 65 -66v-6q0 -65 -65 -65h-377v-377q0 -66 -66 -66h-6q-65 0 -65 66v377h-379q-66 0 -66 65z" />
<glyph unicode="," horiz-adv-x="411" d="M51 104q0 46 34 79.5t81 33.5q46 0 79.5 -33.5t33.5 -79.5q0 -31 -23 -77l-74 -140q-23 -47 -78 -47q-12 0 7 74l20 82q-36 11 -58 40.5t-22 67.5z" />
<glyph unicode="-" horiz-adv-x="1050" d="M133 582v6q0 65 66 65h653q66 0 66 -65v-6q0 -66 -66 -66h-653q-66 0 -66 66z" />
<glyph unicode="." horiz-adv-x="411" d="M51 104q0 46 34 79.5t81 33.5q46 0 79.5 -33.5t33.5 -79.5q0 -47 -33.5 -80.5t-79.5 -33.5q-47 0 -81 33.5t-34 80.5z" />
<glyph unicode="/" horiz-adv-x="870" d="M145 -63l508 1550q14 53 74 53h4q35 0 49.5 -20t3.5 -54l-508 -1550q-14 -53 -73 -53h-4q-35 0 -50 20t-4 54z" />
<glyph unicode="0" horiz-adv-x="1372" d="M72 735q0 -365 153.5 -561.5t460.5 -196.5t460.5 196.5t153.5 561.5q0 357 -157 558.5t-457 201.5q-305 0 -459.5 -200.5t-154.5 -559.5zM219 735q0 289 115.5 450t351.5 161t351.5 -161t115.5 -450q0 -295 -114.5 -451.5t-352.5 -156.5t-352.5 156.5t-114.5 451.5z" />
<glyph unicode="1" horiz-adv-x="552" d="M82 1393v4q0 65 65 65h177q65 0 65 -65v-1331q0 -66 -65 -66h-13q-65 0 -65 66v1253l-101 6q-63 3 -63 68z" />
<glyph unicode="2" horiz-adv-x="1062" d="M82 66v141q0 79 25 147t68 118t98 94t116 80t122.5 69.5t116.5 69t98 73.5t68 86.5t25 104.5q0 130 -73 213.5t-207 83.5q-117 0 -193 -64.5t-94 -169.5q-12 -63 -70 -63h-24q-33 0 -51 17.5t-15 49.5q19 168 139 273.5t308 105.5q92 0 171 -27.5t140 -81t96 -140.5 t35 -197q0 -96 -40.5 -176t-105 -135t-142 -103.5t-155.5 -92.5t-142.5 -90t-105 -108.5t-40.5 -136.5v-64h657q66 0 66 -65v-12q0 -66 -66 -66h-760q-65 0 -65 66z" />
<glyph unicode="3" horiz-adv-x="1013" d="M82 66v12q0 65 65 65h318q139 0 225 86t86 226q0 139 -86 225t-225 86h-70q-40 0 -52.5 22t7.5 56l281 475h-484q-65 0 -65 65v13q0 65 65 65h639q40 0 52.5 -22t-7.5 -56l-286 -483q179 -28 283 -146.5t104 -299.5q0 -204 -128.5 -329.5t-338.5 -125.5h-318 q-65 0 -65 66z" />
<glyph unicode="4" horiz-adv-x="1175" d="M61 473v33q0 42 27 82l604 833q28 41 78 41h47q66 0 66 -65v-846h145q66 0 66 -66v-12q0 -65 -66 -65h-145v-342q0 -66 -66 -66h-18q-66 0 -66 66v342h-606q-66 0 -66 65zM240 551h493v688z" />
<glyph unicode="5" horiz-adv-x="1071" d="M84 299q-13 33 3 53.5t52 20.5h15q52 0 75 -51q40 -84 120.5 -135.5t176.5 -51.5q139 0 236.5 98.5t97.5 237.5q0 148 -87.5 245t-246.5 93q-106 0 -192 -61q-44 -29 -82 -29h-37q-65 0 -65 65v613q0 65 65 65h606q66 0 66 -65v-13q0 -65 -66 -65h-522v-428 q105 57 227 57q218 4 351 -134t133 -343q0 -128 -65.5 -237.5t-177 -173.5t-241.5 -64q-150 0 -270 84t-172 219z" />
<glyph unicode="6" horiz-adv-x="1095" d="M72 463q0 94 37 186q55 132 181.5 378.5t205.5 387.5q23 47 77 47h17q39 0 52 -22t-7 -56q-208 -386 -254 -475q79 31 166 31q198 0 337.5 -139.5t139.5 -337.5q0 -97 -37.5 -184.5t-101.5 -151.5t-152.5 -101.5t-185.5 -37.5t-184.5 37.5t-151.5 101.5t-101.5 151.5 t-37.5 184.5zM215 463q0 -138 97 -237t235 -99q139 0 236.5 98.5t97.5 237.5q0 140 -97.5 239t-236.5 99q-138 0 -235 -99t-97 -239z" />
<glyph unicode="7" horiz-adv-x="1030" d="M61 1384v13q0 65 66 65h756q65 0 65 -65v-35q0 -43 -16 -82l-555 -1231q-24 -49 -76 -49h-33q-37 0 -50.5 21.5t1.5 56.5l559 1241h-651q-66 0 -66 65z" />
<glyph unicode="8" horiz-adv-x="1097" d="M82 414q-1 123 59 218.5t164 149.5q-86 54 -136.5 138t-49.5 182q-1 164 126.5 272.5t301.5 108.5q113 0 211 -47.5t159 -136t62 -197.5q-1 -99 -52 -182.5t-136 -137.5q103 -54 163.5 -149.5t61.5 -218.5q-1 -123 -64.5 -222t-170.5 -153.5t-234 -54.5 q-195 0 -330.5 122t-134.5 308zM225 414q-1 -131 91 -213t231 -82t231.5 81.5t93.5 213.5q-1 133 -93 212t-232 79t-231.5 -79t-90.5 -212zM266 1102q-1 -116 77.5 -182t203.5 -66t204.5 66t79.5 182q0 117 -78.5 179t-205.5 62t-204.5 -62t-76.5 -179z" />
<glyph unicode="9" horiz-adv-x="1054" d="M41 1008q0 97 37.5 184.5t101.5 151.5t152.5 101.5t185.5 37.5q196 0 335.5 -139.5t139.5 -335.5q0 -95 -37 -187l-364 -772q-22 -49 -76 -49h-27q-36 0 -48 21.5t5 56.5l228 479q-74 -27 -156 -27q-130 0 -240 64t-173.5 174t-63.5 240zM184 1008q0 -140 97.5 -239 t236.5 -99q138 0 235 99t97 239q0 138 -97 236.5t-235 98.5q-139 0 -236.5 -98.5t-97.5 -236.5z" />
<glyph unicode=":" horiz-adv-x="440" d="M111 104q0 46 33.5 79.5t80.5 33.5q46 0 79.5 -33.5t33.5 -79.5q0 -47 -33.5 -80.5t-79.5 -33.5q-47 0 -80.5 33.5t-33.5 80.5zM111 795q0 46 33.5 79t80.5 33q46 0 79.5 -33t33.5 -79q0 -47 -33.5 -81t-79.5 -34q-47 0 -80.5 34t-33.5 81z" />
<glyph unicode=";" horiz-adv-x="432" d="M94 104q0 46 34 79.5t81 33.5q46 0 79.5 -33.5t33.5 -79.5q0 -31 -23 -77l-74 -140q-23 -47 -78 -47q-12 0 7 74l20 82q-36 11 -58 40.5t-22 67.5zM106 801q0 46 34 79t81 33q46 0 79.5 -33t33.5 -79q0 -47 -33.5 -81t-79.5 -34q-47 0 -81 34t-34 81z" />
<glyph unicode="&#x3c;" horiz-adv-x="1202" d="M134 604q0 26 40 43l881 377q34 15 54.5 1t20.5 -52v-19q0 -55 -51 -75l-639 -275l639 -274q51 -20 51 -76v-23q0 -37 -20.5 -49.5t-54.5 2.5l-881 377q-40 17 -40 43z" />
<glyph unicode="=" horiz-adv-x="1146" d="M61 438v6q0 66 66 66h893q65 0 65 -66v-6q0 -65 -65 -65h-893q-66 0 -66 65zM61 766v6q0 66 66 66h893q65 0 65 -66v-6q0 -66 -65 -66h-893q-66 0 -66 66z" />
<glyph unicode="&#x3e;" horiz-adv-x="1202" d="M72 231v23q0 56 51 76l639 274l-639 275q-51 20 -51 75v19q0 38 20.5 52t54.5 -1l881 -377q40 -17 40 -43t-40 -43l-881 -377q-34 -15 -54.5 -2.5t-20.5 49.5z" />
<glyph unicode="?" horiz-adv-x="1124" d="M127 1184q28 133 136 214t269 81q204 0 311 -106t107 -271q0 -258 -278 -352q-23 -8 -39.5 -19t-28.5 -23t-19.5 -33.5t-12 -39.5t-6.5 -53t-2.5 -62.5t-0.5 -77.5q0 -69 -65 -69h-19q-65 0 -65 65q-2 57 -0.5 108.5t6.5 95t19 81.5t38.5 69t64.5 56.5t97 44.5 q44 15 76 41t48.5 56t24 58t7.5 54q0 100 -73 163.5t-190 63.5q-94 0 -157 -42t-88 -116q-18 -57 -72 -57h-27q-34 0 -50.5 18.5t-10.5 51.5zM369 102q0 46 33.5 79.5t80.5 33.5q46 0 79.5 -33.5t33.5 -79.5q0 -47 -33.5 -80.5t-79.5 -33.5q-47 0 -80.5 33.5t-33.5 80.5z " />
<glyph unicode="@" horiz-adv-x="1808" d="M61 485q0 171 67.5 329.5t180 274.5t267 185t321.5 69q175 0 333.5 -69t271 -185t179 -274t66.5 -330q0 -81 -12 -155q-24 -157 -121 -236t-209 -61q-69 11 -112 50.5t-64 117.5q-53 -94 -140.5 -148.5t-199.5 -54.5q-125 0 -229.5 65t-163 173t-58.5 233 q0 194 130.5 330.5t320.5 136.5q186 0 299 -139v39q0 65 65 65h7q65 0 65 -65v-443q0 -125 21 -177.5t79 -61.5q60 -11 105 35t61 161q13 70 13 135q0 193 -92.5 358.5t-256 264t-358.5 98.5q-138 0 -266 -58t-221 -155.5t-149 -230.5t-56 -277q0 -196 94 -366t254 -270.5 t344 -100.5q134 0 227 29.5t191 101.5q41 27 82 27h33q43 0 54 -25.5t-20 -56.5q-115 -115 -245 -164t-322 -49q-167 0 -321.5 70.5t-267 188t-180 279t-67.5 336.5zM582 469q0 -138 85 -237t218 -99q130 0 212.5 99t82.5 237q0 140 -82 236t-213 96q-134 0 -218.5 -96 t-84.5 -236z" />
<glyph unicode="A" horiz-adv-x="1476" d="M32.5 21q-12.5 21 2.5 55l600 1337q24 49 76 49h55q52 0 76 -49l600 -1337q15 -34 1.5 -55t-50.5 -21h-25q-52 0 -76 49l-239 533h-629l-240 -533q-24 -49 -75 -49h-27q-37 0 -49.5 21zM487 725h502l-250 557z" />
<glyph unicode="B" horiz-adv-x="1245" d="M164 66v1331q0 65 65 65h457q163 0 262 -95.5t99 -252.5q0 -162 -125 -266q105 -60 168 -164t63 -229q0 -204 -128.5 -329.5t-338.5 -125.5h-457q-65 0 -65 66zM313 143h373q139 0 225 86t86 226q0 139 -85.5 225t-225.5 86h-373v-623zM313 909h373q92 0 148.5 56.5 t56.5 148.5t-56.5 148.5t-148.5 56.5h-373v-410z" />
<glyph unicode="C" horiz-adv-x="1558" d="M61 737q0 148 61 285t163 237t244 160t296 60q175 0 329 -75.5t261 -205.5q26 -32 12.5 -56t-53.5 -24h-39q-47 0 -82 35q-83 83 -193.5 129.5t-234.5 46.5q-166 0 -306 -80.5t-221 -216.5t-81 -295q0 -166 81 -306t221 -221t306 -81q126 0 239 48t193 134q34 37 82 37 h45q39 0 50 -24t-13 -56q-106 -134 -262 -211t-334 -77q-155 0 -296 60t-243.5 161.5t-163.5 241.5t-61 294z" />
<glyph unicode="D" horiz-adv-x="1378" d="M164 66v1331q0 65 65 65h324q398 0 570.5 -170t172.5 -561t-172.5 -561t-570.5 -170h-324q-65 0 -65 66zM313 143h240q315 0 451.5 136.5t136.5 451.5t-136.5 451.5t-451.5 136.5h-240v-1176z" />
<glyph unicode="E" horiz-adv-x="1155" d="M164 66v1331q0 65 65 65h717q66 0 66 -65v-13q0 -65 -66 -65h-633v-410h594q66 0 66 -65v-13q0 -65 -66 -65h-594v-623h633q66 0 66 -65v-12q0 -66 -66 -66h-717q-65 0 -65 66z" />
<glyph unicode="F" horiz-adv-x="1013" d="M164 66v1331q0 65 65 65h658q65 0 65 -65v-13q0 -65 -65 -65h-574v-410h527q65 0 65 -65v-13q0 -65 -65 -65h-527v-700q0 -66 -65 -66h-19q-65 0 -65 66z" />
<glyph unicode="G" horiz-adv-x="1630" d="M61 739q0 148 61 285t163 237t244 160t296 60q183 0 338.5 -81t261.5 -222q24 -32 10.5 -56t-53.5 -24h-22q-46 0 -80 37q-86 92 -204.5 144t-250.5 52q-166 0 -306 -80.5t-221 -216.5t-81 -295q0 -166 81 -306t221 -221t306 -81q158 0 293.5 75.5t218.5 203.5v264 q0 65 66 65h18q66 0 66 -65v-608q0 -66 -66 -66h-18q-66 0 -66 66v112q-103 -94 -234.5 -145t-277.5 -51q-155 0 -296 60t-243.5 161.5t-163.5 241.5t-61 294z" />
<glyph unicode="H" horiz-adv-x="1470" d="M164 66v1331q0 65 65 65h19q65 0 65 -65v-537h850v537q0 65 66 65h12q66 0 66 -65v-1331q0 -66 -66 -66h-12q-66 0 -66 66v651h-850v-651q0 -66 -65 -66h-19q-65 0 -65 66z" />
<glyph unicode="I" horiz-adv-x="477" d="M164 66v1331q0 65 65 65h19q65 0 65 -65v-1331q0 -66 -65 -66h-19q-65 0 -65 66z" />
<glyph unicode="J" horiz-adv-x="722" d="M0 -324q0 59 63 68q165 17 256 124t91 284v1245q0 65 65 65h19q65 0 65 -65v-1245q0 -247 -128.5 -393.5t-362.5 -166.5q-32 -1 -50 16.5t-18 49.5v18z" />
<glyph unicode="K" horiz-adv-x="1255" d="M164 66v1331q0 65 65 65h19q65 0 65 -65v-625l602 655q32 35 80 35h31q43 0 54 -24t-17 -56l-508 -563l631 -739q28 -32 17 -56t-54 -24h-31q-50 0 -82 37l-579 672l-144 -160v-483q0 -66 -65 -66h-19q-65 0 -65 66z" />
<glyph unicode="L" horiz-adv-x="1048" d="M164 66v1331q0 65 65 65h19q65 0 65 -65v-1254h609q65 0 65 -65v-12q0 -66 -65 -66h-693q-65 0 -65 66z" />
<glyph unicode="M" horiz-adv-x="1785" d="M164 66v1331q0 65 65 65h50q53 0 77 -49l537 -1249l537 1249q24 49 77 49h49q66 0 66 -65v-1331q0 -66 -66 -66h-18q-65 0 -65 66v1054l-467 -1071q-24 -49 -78 -49h-68q-54 0 -78 49l-469 1071v-1054q0 -66 -65 -66h-19q-65 0 -65 66z" />
<glyph unicode="N" horiz-adv-x="1572" d="M164 66v1331q0 65 65 65h66q50 0 78 -41l887 -1216v1192q0 65 65 65h18q66 0 66 -65v-1331q0 -66 -66 -66h-65q-50 0 -78 41l-887 1216v-1191q0 -66 -65 -66h-19q-65 0 -65 66z" />
<glyph unicode="O" horiz-adv-x="1667" d="M72 741q0 148 60.5 285t162.5 237t243.5 160t295.5 60t295.5 -60t243 -160t162 -237t60.5 -285q0 -206 -102 -380t-277 -275.5t-382 -101.5q-155 0 -296 60t-243 161.5t-162.5 241.5t-60.5 294zM227 741q0 -166 80.5 -306t220.5 -221t306 -81t305.5 81t220 221t80.5 306 q0 159 -80.5 295t-220 216.5t-305.5 80.5t-306 -80.5t-220.5 -216.5t-80.5 -295z" />
<glyph unicode="P" horiz-adv-x="1171" d="M164 66v1331q0 65 65 65h414q209 0 338 -125t129 -329t-128.5 -329.5t-338.5 -125.5h-330v-487q0 -66 -65 -66h-19q-65 0 -65 66zM313 696h330q139 0 225 86t86 226t-85 225.5t-226 85.5h-330v-623z" />
<glyph unicode="Q" horiz-adv-x="1658" d="M61 735q0 148 60.5 285t162.5 237t243.5 160t295.5 60t295.5 -60t243.5 -160t162.5 -237t60.5 -285q0 -175 -75 -328.5t-207 -259.5l81 -104q19 -23 19 -44q0 -26 -27 -48l-26 -23q-22 -20 -43 -20q-26 0 -50 31l-94 118q-160 -80 -340 -80q-155 0 -296 60t-243 161.5 t-162.5 242t-60.5 294.5zM217 735q0 -166 80.5 -306t220 -221t305.5 -81q132 0 246 51l-162 207q-16 21 -16 41q0 27 29 51l24 21q22 18 43 18q26 0 49 -29l174 -221q103 85 161.5 207t58.5 262q0 159 -80.5 295t-220.5 216.5t-306 80.5t-305.5 -80.5t-220 -216.5 t-80.5 -295z" />
<glyph unicode="R" horiz-adv-x="1241" d="M164 66v1331q0 65 65 65h414q209 0 338 -125t129 -329q0 -169 -90 -286.5t-246 -154.5l383 -487q26 -32 14 -56t-53 -24h-47q-47 0 -80 39l-405 514h-273v-487q0 -66 -65 -66h-19q-65 0 -65 66zM313 696h330q139 0 225 86t86 226t-85 225.5t-226 85.5h-330v-623z" />
<glyph unicode="S" horiz-adv-x="1073" d="M80 301q-9 33 7 52.5t52 19.5h25q53 0 74 -56q36 -84 116.5 -135t182.5 -51q137 0 228 75t91 200q0 100 -72 163t-247 117q-217 67 -318.5 158.5t-101.5 249.5q0 168 117 279.5t303 111.5q131 0 235.5 -68.5t147.5 -179.5q12 -33 -4 -53.5t-52 -20.5h-33 q-28 0 -45.5 11.5t-31.5 37.5q-33 55 -92 89t-125 34q-117 0 -191 -71t-74 -170q0 -91 62.5 -143.5t202.5 -96.5q89 -28 154.5 -55t129 -66t103.5 -83.5t64 -106.5t24 -137q0 -188 -136.5 -306t-338.5 -118q-162 0 -288 88.5t-169 230.5z" />
<glyph unicode="T" horiz-adv-x="1179" d="M20 1384v13q0 65 66 65h1008q65 0 65 -65v-13q0 -65 -65 -65h-428v-1253q0 -66 -66 -66h-18q-66 0 -66 66v1253h-430q-66 0 -66 65z" />
<glyph unicode="U" horiz-adv-x="1368" d="M123 528v869q0 65 65 65h19q65 0 65 -65v-869q0 -194 109.5 -302.5t304.5 -108.5q193 0 301.5 108.5t108.5 302.5v869q0 65 65 65h19q65 0 65 -65v-869q0 -264 -147.5 -412.5t-411.5 -148.5q-265 0 -414 148.5t-149 412.5z" />
<glyph unicode="V" horiz-adv-x="1394" d="M31.5 1441q13.5 21 50.5 21h24q56 0 76 -51l516 -1218l514 1218q20 51 76 51h25q37 0 50.5 -21t-1.5 -55l-563 -1335q-20 -51 -76 -51h-51q-56 0 -76 51l-563 1335q-15 34 -1.5 55z" />
<glyph unicode="W" horiz-adv-x="2004" d="M-27 1389q-10 34 4.5 53.5t49.5 19.5h14q59 0 76 -53l397 -1186l395 1186q17 53 76 53h35q59 0 76 -53l397 -1186l395 1186q17 53 76 53h14q35 0 49.5 -19.5t4.5 -53.5l-447 -1336q-17 -53 -76 -53h-34q-59 0 -76 53l-395 1186l-398 -1186q-17 -53 -76 -53h-34 q-59 0 -76 53z" />
<glyph unicode="X" horiz-adv-x="1339" d="M68 24q-12 24 14 56l491 651l-491 651q-26 32 -14 56t53 24h43q47 0 80 -39l426 -565l426 565q33 39 80 39h43q41 0 52.5 -24t-14.5 -56l-491 -651l491 -651q26 -32 14.5 -56t-52.5 -24h-43q-47 0 -80 39l-426 565l-426 -565q-33 -39 -80 -39h-43q-41 0 -53 24z" />
<glyph unicode="Y" horiz-adv-x="1175" d="M35 1440q13 22 51 22h23q55 0 75 -47l404 -823l403 823q20 47 76 47h23q38 0 51 -22t-4 -56l-656 -1337q-20 -47 -75 -47h-27q-36 0 -48.5 22t3.5 56l172 350l-469 956q-15 34 -2 56z" />
<glyph unicode="Z" horiz-adv-x="1363" d="M102 66v28q0 44 29 80l930 1149h-860q-66 0 -66 66v8q0 65 66 65h985q65 0 65 -65v-29q0 -45 -28 -80l-930 -1149h887q65 0 65 -65v-8q0 -66 -65 -66h-1012q-66 0 -66 66z" />
<glyph unicode="[" d="M664 -139v1702q0 65 65 65h279q65 0 65 -65q0 -66 -65 -66h-207v-1571h207q65 0 65 -65q0 -66 -65 -66h-279q-65 0 -65 66z" />
<glyph unicode="\" d="M438 1466q-11 34 4 54t50 20h4q59 0 73 -53l508 -1550q11 -34 -3.5 -54t-49.5 -20h-4q-60 0 -74 53z" />
<glyph unicode="]" horiz-adv-x="614" d="M102 -139q0 65 66 65h207v1571h-207q-66 0 -66 66q0 65 66 65h278q66 0 66 -65v-1702q0 -66 -66 -66h-278q-66 0 -66 66z" />
<glyph unicode="^" horiz-adv-x="905" d="M32 424q-14 21 1 55l377 881q17 40 43 40t43 -40l376 -881q15 -34 2.5 -55t-47.5 -21h-24q-55 0 -76 52l-274 639l-275 -639q-21 -52 -76 -52h-18q-38 0 -52 21z" />
<glyph unicode="_" d="M123 -348q0 63 65 63h869q65 0 65 -65q0 -60 -65 -60h-869q-65 0 -65 62z" />
<glyph unicode="`" d="M527 1358.5q12 23.5 53 23.5h24q52 0 80 -41l127 -176q25 -34 12.5 -57t-53.5 -23h-6q-47 0 -80 39l-143 179q-26 32 -14 55.5z" />
<glyph unicode="a" horiz-adv-x="1159" d="M72 449q0 126 63 233.5t170.5 170t233.5 62.5q101 0 189 -43t151 -118v82q0 65 65 65h6q66 0 66 -65v-775q0 -65 -66 -65h-6q-65 0 -65 65v82q-63 -77 -151.5 -121.5t-188.5 -44.5q-125 0 -233.5 65t-171 174t-62.5 233zM215 449q0 -136 93 -236t227 -100q133 0 234 101 t101 235q0 135 -100 233t-235 98t-227.5 -96.5t-92.5 -234.5z" />
<glyph unicode="b" horiz-adv-x="1159" d="M143 66v1331q0 65 66 65h6q66 0 66 -65v-643q63 75 151 118t189 43q192 0 329 -137t137 -329q0 -124 -62.5 -233t-170.5 -174t-233 -65q-100 0 -188.5 44.5t-151.5 121.5v-77q0 -66 -66 -66h-6q-66 0 -66 66zM289 449q0 -133 101.5 -234.5t234.5 -101.5q134 0 226.5 100 t92.5 236q0 138 -92 234.5t-227 96.5t-235.5 -98t-100.5 -233z" />
<glyph unicode="c" horiz-adv-x="1050" d="M72 449q0 126 63 233.5t170.5 170t233.5 62.5q125 0 231.5 -62t169.5 -167q20 -34 5 -56t-54 -22h-17q-45 0 -79 43q-44 60 -111 94.5t-145 34.5q-136 0 -230 -97t-94 -234q0 -135 94.5 -235.5t229.5 -100.5q78 0 145 36t111 97q34 43 79 43h21q37 0 52 -22t-3 -56 q-61 -106 -169.5 -170t-235.5 -64q-125 0 -233.5 65t-171 174t-62.5 233z" />
<glyph unicode="d" horiz-adv-x="1159" d="M82 449q0 126 63 233.5t170.5 170t233.5 62.5q101 0 189 -43t151 -118v643q0 65 65 65h7q65 0 65 -65v-1331q0 -66 -65 -66h-7q-65 0 -65 66v77q-63 -77 -151.5 -121.5t-188.5 -44.5q-125 0 -233.5 65t-171 174t-62.5 233zM225 449q0 -136 93 -236t227 -100 q133 0 234.5 101.5t101.5 234.5q0 135 -100.5 233t-235.5 98t-227.5 -96.5t-92.5 -234.5z" />
<glyph unicode="e" horiz-adv-x="1077" d="M72 449q0 126 63 233.5t170.5 170t233.5 62.5t233.5 -62.5t170.5 -170t63 -233.5v-31q0 -33 -66 -33h-719q22 -115 111 -193.5t207 -78.5q126 0 217 88q37 37 82 37h26q40 0 54.5 -24t-9.5 -56q-66 -85 -162.5 -133t-207.5 -48q-125 0 -233.5 65t-171 174t-62.5 233z M221 516h635q-24 114 -111.5 189t-205.5 75t-206 -75t-112 -189z" />
<glyph unicode="f" horiz-adv-x="593" d="M82 840q0 -64 65 -64h56v-710q0 -66 65 -66h6q66 0 66 66v710h117q65 0 65 64q0 61 -65 61h-117v123q0 5 -0.5 40t0 45.5l2 42t5 44.5t9.5 38.5t15.5 38t22.5 28t31.5 23.5t41.5 11q33 5 49 19.5t16 44.5q0 67 -63 67h-7q-50 0 -90 -14q-42 -14 -69.5 -35.5t-47 -59.5 t-29.5 -71t-15.5 -85t-6.5 -86.5t-1 -90.5v-123h-56q-65 0 -65 -61z" />
<glyph unicode="g" horiz-adv-x="1161" d="M82 453q0 124 63 232.5t171 173.5t233 65q99 0 186 -43t150 -117v72q0 65 65 65h13q65 0 65 -65v-754q0 -129 -36.5 -228.5t-101 -160.5t-148 -92t-181.5 -31q-169 0 -297 106q-26 22 -25 46.5t25 46.5l8 8q20 20 43 20q24 0 50 -22q86 -70 196 -70q148 0 236 89t88 288 v59q-63 -72 -150 -113.5t-186 -41.5q-126 0 -233.5 63t-170.5 170.5t-63 233.5zM225 453q0 -138 92.5 -235t227.5 -97t235.5 98.5t100.5 233.5q0 133 -101 234t-235 101t-227 -99.5t-93 -235.5z" />
<glyph unicode="h" horiz-adv-x="1067" d="M143 66v1413q0 65 66 65h6q66 0 66 -65v-686q113 122 294 122q195 0 282 -93.5t87 -307.5v-448q0 -66 -65 -66h-7q-65 0 -65 66v448q0 132 -59.5 199t-172.5 67q-139 0 -216.5 -77t-77.5 -224v-413q0 -66 -66 -66h-6q-66 0 -66 66z" />
<glyph unicode="i" horiz-adv-x="440" d="M123 1182q0 37 28.5 65.5t69.5 28.5q38 0 67 -28.5t29 -65.5q0 -41 -28.5 -70t-67.5 -29q-41 0 -69.5 29t-28.5 70zM152 66v770q0 65 65 65h12q66 0 66 -65v-770q0 -66 -66 -66h-12q-65 0 -65 66z" />
<glyph unicode="j" horiz-adv-x="458" d="M2 -344q-1 29 13.5 44.5t45.5 25.5q74 23 115 96q37 69 37 164v14v836q0 65 66 65h12q65 0 65 -65v-836v-13q0 -165 -72 -270q-74 -109 -214 -131q-32 -4 -50 13.5t-18 50.5v6zM186 1182q0 37 29 65.5t70 28.5q38 0 67 -28.5t29 -65.5q0 -41 -28.5 -70t-67.5 -29 q-41 0 -70 29t-29 70z" />
<glyph unicode="k" horiz-adv-x="944" d="M133 66q0 -66 66 -66h6q65 0 65 66v311l88 86l369 -426q32 -37 82 -37h29q43 0 53.5 24t-17.5 56l-415 481l286 279q29 28 29 51q0 29 -41 29h-49q-47 0 -80 -33l-303 -295h-31v805q0 65 -65 65h-6q-66 0 -66 -65v-1331z" />
<glyph unicode="l" horiz-adv-x="403" d="M133 66v1331q0 65 66 65h6q65 0 65 -65v-1331q0 -66 -65 -66h-6q-66 0 -66 66z" />
<glyph unicode="m" horiz-adv-x="1619" d="M133 66v770q0 65 66 65h6q65 0 65 -65v-43q103 122 271 122q120 0 194 -41.5t109 -132.5q48 84 126 129t179 45q176 0 257 -94t81 -307v-448q0 -66 -66 -66h-6q-65 0 -65 66v448q0 266 -201 266q-129 0 -199.5 -76t-70.5 -235v-403q0 -66 -66 -66h-6q-66 0 -66 66v448 q0 266 -200 266q-129 0 -200 -76t-71 -235v-403q0 -66 -65 -66h-6q-66 0 -66 66z" />
<glyph unicode="n" horiz-adv-x="1067" d="M143 66v770q0 65 66 65h6q66 0 66 -65v-43q113 122 294 122q195 0 282 -93.5t87 -307.5v-448q0 -66 -65 -66h-7q-65 0 -65 66v448q0 132 -59.5 199t-172.5 67h-10q-133 0 -207 -74q-78 -77 -77 -227v-413q0 -66 -66 -66h-6q-66 0 -66 66z" />
<glyph unicode="o" horiz-adv-x="1077" d="M72 449q0 126 63 233.5t170.5 170t233.5 62.5t233.5 -62.5t170.5 -170t63 -233.5q0 -124 -62.5 -233t-171 -174t-233.5 -65t-233.5 65t-171 174t-62.5 233zM215 449q0 -135 94.5 -235.5t229.5 -100.5t229 100.5t94 235.5q0 137 -93.5 234t-229.5 97t-230 -97t-94 -234z " />
<glyph unicode="p" horiz-adv-x="1128" d="M123 -344v1180q0 65 65 65h7q65 0 65 -65v-82q63 75 151 118t189 43q126 0 233.5 -62.5t170.5 -170t63 -233.5q0 -124 -62.5 -233t-171 -174t-233.5 -65q-100 0 -188.5 44.5t-151.5 121.5v-487q0 -66 -65 -66h-7q-65 0 -65 66zM268 449q0 -133 101 -234.5t235 -101.5 t227 100t93 236q0 138 -92.5 234.5t-227.5 96.5t-235.5 -98t-100.5 -233z" />
<glyph unicode="q" horiz-adv-x="1159" d="M82 449q0 126 63 233.5t170.5 170t233.5 62.5q101 0 189 -43t151 -118v82q0 65 65 65h7q65 0 65 -65v-1180q0 -66 -65 -66h-7q-65 0 -65 66v487q-63 -77 -151.5 -121.5t-188.5 -44.5q-125 0 -233.5 65t-171 174t-62.5 233zM225 449q0 -136 93 -236t227 -100 q133 0 234.5 101.5t101.5 234.5q0 135 -100.5 233t-235.5 98t-227.5 -96.5t-92.5 -234.5z" />
<glyph unicode="r" horiz-adv-x="626" d="M143 66v770q0 65 66 65h6q66 0 66 -65v-58q96 110 237 131q32 6 50 -11t18 -50v-4q0 -58 -64 -70q-105 -16 -173 -88.5t-68 -187.5v-432q0 -66 -66 -66h-6q-66 0 -66 66z" />
<glyph unicode="s" horiz-adv-x="856" d="M94 186q-10 31 7.5 50.5t52.5 19.5q26 0 41 -11.5t32 -37.5q27 -41 81 -66.5t120 -25.5q99 0 160 39.5t61 101.5q0 63 -46.5 92t-174.5 55q-162 32 -236.5 95t-74.5 170q0 108 81.5 177.5t229.5 69.5q107 0 183.5 -44t109.5 -119q13 -32 -2.5 -52t-50.5 -20 q-25 0 -40.5 10.5t-35.5 36.5q-49 59 -164 59q-81 0 -132.5 -33.5t-51.5 -84.5t48.5 -82.5t158.5 -53.5q173 -35 248 -99t75 -177q0 -122 -90.5 -196t-255.5 -74q-127 0 -215.5 54t-118.5 146z" />
<glyph unicode="t" horiz-adv-x="577" d="M61 842q0 59 66 59h70v289q0 65 65 65h6q66 0 66 -65v-289h137q66 0 66 -61q0 -64 -66 -64h-137v-710q0 -66 -66 -66h-6q-65 0 -65 66v710h-70q-66 0 -66 66z" />
<glyph unicode="u" horiz-adv-x="1067" d="M123 387v449q0 65 65 65h7q65 0 65 -65v-449q0 -132 59.5 -199t172.5 -67q139 0 216.5 77t77.5 224v414q0 65 66 65h6q66 0 66 -65v-770q0 -66 -66 -66h-6q-66 0 -66 66v43q-114 -123 -294 -123q-195 0 -282 93.5t-87 307.5z" />
<glyph unicode="v" horiz-adv-x="915" d="M43 825q-14 34 0 55t51 21h12q56 0 76 -51l277 -668l274 668q20 51 76 51h12q37 0 51 -21t0 -55l-319 -774q-20 -51 -76 -51h-39q-56 0 -76 51z" />
<glyph unicode="w" horiz-adv-x="1478" d="M29 825q-13 34 1.5 55t49.5 21h8q57 0 74 -51l244 -657l243 657q17 51 74 51h33q56 0 73 -51l244 -657l244 657q17 51 74 51h16q32 0 44 -21t-1 -55l-287 -772q-17 -53 -73 -53h-33q-57 0 -74 51l-244 658l-243 -658q-17 -51 -74 -51h-33q-57 0 -74 51z" />
<glyph unicode="x" horiz-adv-x="937" d="M72.5 23q-7.5 23 17.5 57l289 385l-268 356q-25 32 -12.5 56t53.5 24h18q47 0 80 -39l213 -284l213 284q33 39 80 39h18q41 0 53.5 -24t-12.5 -56l-268 -356l291 -385q25 -32 12.5 -56t-53.5 -24h-19q-47 0 -80 39l-235 313l-234 -313q-33 -39 -79 -39h-35 q-35 0 -42.5 23z" />
<glyph unicode="y" horiz-adv-x="972" d="M47 879q13 22 51 22h23q55 0 78 -47l293 -590l294 590q23 47 78 47h23q38 0 51 -22t-4 -56l-592 -1185q-23 -48 -78 -48h-22q-38 0 -51 22t4 56l217 434l-361 721q-17 34 -4 56z" />
<glyph unicode="z" horiz-adv-x="874" d="M102 66v20q0 44 29 80l477 604h-440q-66 0 -66 66q0 65 66 65h547q65 0 65 -65v-21q0 -45 -28 -80l-478 -604h453q66 0 66 -65q0 -66 -66 -66h-559q-66 0 -66 66z" />
<glyph unicode="{" horiz-adv-x="561" d="M61 664v20v18q0 28 13 45t41 31q21 11 36 27t24.5 42.5t15 48.5t8 64t3 68.5t0.5 83t1 88.5q1 94 7 159t21 119t41 87t65 53t95 27q32 4 50 -13.5t18 -50.5q0 -32 -27 -41q-73 -18 -103.5 -83.5t-31.5 -231.5q-2 -220 -25.5 -347t-91.5 -194q68 -68 91.5 -195.5 t25.5 -347.5q1 -151 25.5 -218t80.5 -89t56 -72q0 -22 -18 -33.5t-50 -7.5q-56 7 -95 27t-65 53t-41 87t-21 119t-7 159q-1 32 -1 88.5t-0.5 83t-3 68.5t-8 64t-15 48.5t-24.5 42.5t-36 27q-28 14 -41 31t-13 45z" />
<glyph unicode="|" horiz-adv-x="401" d="M133 -201l4 1671q0 66 66 66q32 1 48.5 -16t16.5 -50l-4 -1671q0 -65 -65 -65q-66 0 -66 65z" />
<glyph unicode="}" horiz-adv-x="561" d="M61 -238q0 50 56 72t80.5 89t25.5 218q2 220 25.5 347.5t91.5 195.5q-68 67 -91.5 194t-25.5 347q-1 166 -31.5 231.5t-103.5 83.5q-27 9 -27 41q0 33 18 50.5t50 13.5q56 -7 95 -27t65 -53t41 -87t21 -119t7 -159q1 -32 1 -88.5t0.5 -83t3 -68.5t8 -64t15 -48.5 t24.5 -42.5t36 -27q28 -14 41 -31t13 -45v-18v-2v-18q0 -28 -13 -45t-41 -31q-21 -11 -36 -27t-24.5 -42.5t-15 -48.5t-8 -64t-3 -68.5t-0.5 -83t-1 -88.5q-1 -94 -7 -159t-21 -119t-41 -87t-65 -53t-95 -27q-32 -4 -50 7.5t-18 33.5z" />
<glyph unicode="~" horiz-adv-x="960" d="M68 588q12 73 39 118.5t76 67.5t126 12.5t185 -51.5q38 -16 63 -26t54.5 -20t49.5 -12t39.5 0t32.5 12.5t21 29.5q13 31 27.5 44t43.5 13h4q33 0 50 -18.5t10 -50.5q-18 -91 -62.5 -135.5t-133 -44.5t-226.5 53q-38 16 -63 26t-54.5 20t-49.5 12t-39.5 0t-32.5 -12.5 t-21 -29.5q-13 -30 -28 -43.5t-44 -13.5h-4q-32 0 -49 13t-14 36z" />
<glyph unicode="&#xa1;" horiz-adv-x="432" d="M102 952q0 47 33.5 81t79.5 34q47 0 81 -34t34 -81q0 -46 -34 -79t-81 -33q-46 0 -79.5 33t-33.5 79zM139 -342v958q0 31 18.5 48.5t53.5 17.5h6q35 0 53.5 -17.5t18.5 -48.5v-958q0 -31 -18.5 -48.5t-53.5 -17.5h-6q-35 0 -53.5 17.5t-18.5 48.5z" />
<glyph unicode="&#xa2;" horiz-adv-x="1009" d="M72 735q0 177 119 310t292 153v199q0 65 66 65q39 0 39 -65v-197q111 -12 203.5 -72.5t148.5 -154.5q20 -34 5 -56t-54 -22h-17q-45 0 -79 43q-80 107 -207 125l2 -660q131 22 205 129q34 43 79 43h21q38 0 52.5 -21.5t-3.5 -55.5q-55 -95 -148.5 -157.5t-205.5 -74.5 v-198q0 -66 -51 -66q-54 0 -54 66v200q-173 20 -293 156t-120 311zM215 735q0 -120 76.5 -215t193.5 -117l-2 660q-116 -20 -192 -112.5t-76 -215.5z" />
<glyph unicode="&#xa3;" horiz-adv-x="944" d="M61 66v18q0 50 58 72q43 17 72 57t43.5 98t20 116.5t5.5 131.5v105h-113q-65 0 -65 65v12q0 66 65 66h113v137q0 65 1.5 114.5t7.5 106t15.5 97.5t26 83t40 68.5t56.5 46.5t75 25t98 -2.5t122 -30.5q54 -18 54 -76v-10q0 -36 -21.5 -48.5t-58.5 1.5q-56 20 -98.5 21 t-70.5 -9.5t-47.5 -44t-29 -61t-14.5 -83.5t-5.5 -89t-0.5 -99v-10v-137h153q66 0 66 -66v-12q0 -65 -66 -65h-153v-105q0 -283 -84 -416h491q66 0 66 -65v-12q0 -66 -66 -66h-690q-66 0 -66 66z" />
<glyph unicode="&#xa4;" horiz-adv-x="1036" d="M51 754q0 150 92 276l-6 6l-61 62q-47 47 0 94l6 6q44 48 92 0l64 -63l4 -7q127 93 276 93q150 0 277 -93l8 9l59 59q47 47 94 0l5 -4q48 -44 0 -92l-60 -60l-10 -8q94 -124 94 -278q0 -149 -92 -275l70 -69q45 -45 0 -93l-7 -6q-47 -47 -94 0l-65 66q-129 -94 -279 -94 q-151 0 -278 96l-68 -68q-44 -44 -92 0l-4 4q-48 47 0 95l67 67q-92 126 -92 277zM195 754q0 -135 94 -235.5t229 -100.5t229.5 100.5t94.5 235.5q0 137 -94 234t-230 97t-229.5 -97t-93.5 -234z" />
<glyph unicode="&#xa5;" d="M49 1439q9 23 43 23h27q53 0 78 -43l387 -622l387 622q25 43 78 43h28q33 0 41.5 -23t-12.5 -57l-426 -680q-13 -20 -16 -36h188q66 0 66 -66v-12q0 -66 -66 -66h-195v-102h195q66 0 66 -66v-12q0 -66 -66 -66h-195v-210q0 -66 -65 -66h-19q-65 0 -65 66v210h-191 q-65 0 -65 66v12q0 66 65 66h191v102h-191q-65 0 -65 66v12q0 66 65 66h185q-2 14 -17 36l-424 680q-21 34 -12 57z" />
<glyph unicode="&#xa6;" horiz-adv-x="403" d="M133 -201v621q0 65 66 65h6q65 0 65 -65v-621q0 -65 -65 -65h-6q-66 0 -66 65zM133 850v620q0 66 66 66h6q65 0 65 -66v-620q0 -66 -65 -66h-6q-66 0 -66 66z" />
<glyph unicode="&#xa7;" horiz-adv-x="1241" d="M123 1133q0 146 119.5 243t332.5 97q172 0 293 -74t152 -191q7 -32 -10.5 -50.5t-51.5 -18.5h-24q-29 0 -44 13.5t-28 43.5q-25 61 -102 97t-185 36q-132 0 -215.5 -55t-83.5 -141q0 -17 3.5 -30t13.5 -24t20 -19t29.5 -15t35.5 -12t45.5 -11t52 -10t61.5 -11t67 -12 q112 -20 196.5 -59.5t139.5 -100t60 -140t-42 -179.5q70 -58 70 -170q0 -146 -120 -243t-333 -97q-172 0 -292.5 73.5t-151.5 190.5q-7 32 10.5 51t51.5 19h24q29 0 44 -13.5t28 -44.5q25 -61 101.5 -97t184.5 -36q132 0 215.5 55.5t83.5 141.5q0 17 -3.5 30t-13 23.5 t-20 18.5t-29.5 15.5t-35.5 12t-45.5 10.5t-51.5 10t-61 11t-67.5 12q-111 20 -195.5 59.5t-139 100.5t-60 140.5t40.5 179.5q-70 61 -70 170zM295 911q-62 -226 283 -286q193 -33 278 -64q62 227 -283 287q-193 34 -278 63z" />
<glyph unicode="&#xa8;" horiz-adv-x="991" d="M205 1182q0 36 27.5 63t66.5 27q37 0 64.5 -27.5t27.5 -62.5q0 -40 -27.5 -68.5t-64.5 -28.5q-39 0 -66.5 28.5t-27.5 68.5zM600 1182q0 36 27.5 63t66.5 27q37 0 64.5 -27.5t27.5 -62.5q0 -40 -27.5 -68.5t-64.5 -28.5q-39 0 -66.5 28.5t-27.5 68.5z" />
<glyph unicode="&#xa9;" horiz-adv-x="1646" d="M61 735q0 148 60.5 285t162.5 237t243.5 160t295.5 60t295.5 -60t243.5 -160t162.5 -237t60.5 -285q0 -154 -60.5 -294.5t-162.5 -242t-243 -161.5t-296 -60t-296 60t-243 161.5t-162.5 242t-60.5 294.5zM176 735q0 -170 86 -315.5t235.5 -231.5t325.5 -86t325.5 86 t235.5 231.5t86 315.5q0 121 -51 234.5t-137 197.5t-206.5 134.5t-252.5 50.5t-252.5 -50.5t-206.5 -134.5t-137 -197.5t-51 -234.5zM430 735q0 160 115 274.5t276 114.5q99 0 184.5 -48.5t139.5 -129.5q21 -32 9.5 -55t-46.5 -23q-46 0 -80 43q-84 101 -207 101 q-114 0 -193 -81.5t-79 -195.5q0 -112 80 -196t192 -84q123 0 207 104q34 43 80 43q35 0 47.5 -23t-6.5 -55q-54 -83 -140.5 -132.5t-187.5 -49.5q-160 0 -275.5 117t-115.5 276z" />
<glyph unicode="&#xab;" horiz-adv-x="927" d="M123 463l239 303q33 39 80 39h2q41 0 53 -24t-14 -56l-207 -262l207 -262q26 -32 22.5 -56t-34.5 -24h-29q-47 0 -80 39zM422 463l240 303q33 39 79 39h2q41 0 53 -24t-14 -56l-207 -262l207 -262q26 -32 22.5 -56t-34.5 -24h-29q-46 0 -79 39z" />
<glyph unicode="&#xac;" horiz-adv-x="1234" d="M82 829v7q0 65 65 65h900q65 0 65 -65v-439q0 -65 -65 -65h-11q-65 0 -65 65v367h-824q-65 0 -65 65z" />
<glyph unicode="&#xad;" d="M133 582v6q0 65 66 65h653q66 0 66 -65v-6q0 -66 -66 -66h-653q-66 0 -66 66z" />
<glyph unicode="&#xae;" horiz-adv-x="1646" d="M61 735q0 148 60.5 285t162.5 237t243.5 160t295.5 60t295.5 -60t243.5 -160t162.5 -237t60.5 -285q0 -154 -60.5 -294.5t-162.5 -242t-243 -161.5t-296 -60t-296 60t-243 161.5t-162.5 242t-60.5 294.5zM176 735q0 -170 86 -315.5t235.5 -231.5t325.5 -86t325.5 86 t235.5 231.5t86 315.5q0 121 -51 234.5t-137 197.5t-206.5 134.5t-252.5 50.5t-252.5 -50.5t-206.5 -134.5t-137 -197.5t-51 -234.5zM590 430v631q0 65 65 65h191q112 0 181 -67.5t69 -173.5q0 -81 -42.5 -142t-113.5 -86l166 -213q25 -32 16.5 -55.5t-45.5 -23.5 q-48 0 -80 38l-186 240h-113v-213q0 -65 -65 -65q-43 0 -43 65zM698 741h148q65 0 102 38.5t37 105.5q0 65 -37.5 102t-101.5 37h-148v-283z" />
<glyph unicode="&#xaf;" d="M213 1700q0 59 66 59h675q66 0 66 -65q0 -56 -66 -56h-675q-66 0 -66 62z" />
<glyph unicode="&#xb0;" horiz-adv-x="550" d="M53 1282q0 94 64 157.5t159 63.5q94 0 158 -63.5t64 -157.5q0 -95 -64 -159t-158 -64q-95 0 -159 64t-64 159zM158 1282q0 -50 34.5 -84.5t83.5 -34.5q48 0 82.5 35t34.5 84q0 47 -35 82t-82 35q-49 0 -83.5 -34.5t-34.5 -82.5z" />
<glyph unicode="&#xb1;" d="M102 66v6q0 65 66 65h893q65 0 65 -65v-6q0 -66 -65 -66h-893q-66 0 -66 66zM102 580v6q0 65 66 65h379v277q0 49 65 49h6q66 0 66 -49v-277h377q65 0 65 -65v-6q0 -66 -65 -66h-377v-256q0 -49 -66 -49h-6q-65 0 -65 49v256h-379q-66 0 -66 66z" />
<glyph unicode="&#xb2;" horiz-adv-x="645" d="M82 967v51q0 73 39 127.5t94 86.5t110.5 59t94.5 62t39 79q0 65 -33.5 103t-99.5 38q-48 0 -81.5 -25t-45.5 -67q-8 -32 -23 -47t-45 -15q-22 0 -33.5 18.5t-5.5 49.5q14 81 78 132.5t156 51.5q103 0 170 -61.5t67 -177.5q0 -59 -27.5 -105.5t-68.5 -74t-89 -55 t-89 -49.5t-68.5 -55.5t-27.5 -74.5v-21h301q65 0 65 -65q0 -31 -65 -31h-347q-65 0 -65 66z" />
<glyph unicode="&#xb3;" horiz-adv-x="616" d="M82 967q0 30 65 30h140q66 0 105.5 40t39.5 106t-39.5 105.5t-105.5 39.5h-6q-40 0 -52.5 23t9.5 57l112 174h-203q-65 0 -65 66q0 30 65 30h279q40 0 52.5 -22.5t-9.5 -56.5l-121 -183q86 -19 136.5 -81t50.5 -152q0 -106 -69 -174t-179 -68h-140q-65 0 -65 66z" />
<glyph unicode="&#xb4;" d="M452.5 1108q-12.5 23 12.5 57l127 176q28 41 80 41h24q41 0 53 -23.5t-14 -55.5l-143 -179q-33 -39 -80 -39h-6q-41 0 -53.5 23z" />
<glyph unicode="&#xb6;" d="M272 1096q0 152 108.5 260t260.5 108l338 -2q6 2 20 2h2q20 0 37 -10q24 -9 27 -35q2 -6 2 -22l-4 -1598q0 -65 -66 -65h-2q-65 0 -65 65l4 1553l-160 2l-4 -1555q0 -65 -65 -65h-3q-65 0 -65 65l2 926q-151 0 -259 109t-108 262z" />
<glyph unicode="&#xb7;" horiz-adv-x="1046" d="M410 633q0 42 33 76t81 34q41 0 77 -35t36 -75q0 -44 -35 -80.5t-78 -36.5q-48 0 -81 35.5t-33 81.5z" />
<glyph unicode="&#xb8;" d="M449 -214.5q12 21.5 40 21.5q18 0 31.5 -7.5t20.5 -15.5t22 -28q30 -41 96 -41q46 0 78.5 25.5t32.5 62.5q0 35 -32.5 60.5t-78.5 25.5h-2q-17 0 -29 4t-18 8.5t-8.5 14.5t-2.5 16.5t0.5 20.5t0.5 20q0 30 14.5 41t44.5 11q23 0 38.5 -12.5t15.5 -39.5q74 -14 122 -61 t48 -109q0 -75 -65 -125.5t-159 -50.5q-68 0 -123.5 29t-82.5 76q-16 32 -4 53.5z" />
<glyph unicode="&#xb9;" horiz-adv-x="528" d="M123 1599q0 39 65 39h131q66 0 66 -65v-604q0 -66 -55 -66q-58 0 -58 66v557l-86 6q-63 3 -63 67z" />
<glyph unicode="&#xbb;" horiz-adv-x="845" d="M41 145q-4 24 22 56l207 262l-207 262q-26 32 -14 56t53 24h2q47 0 80 -39l240 -303l-240 -303q-33 -39 -80 -39h-28q-31 0 -35 24zM340 145q-4 24 22 56l207 262l-207 262q-26 32 -14 56t53 24h2q47 0 80 -39l240 -303l-240 -303q-33 -39 -80 -39h-28q-31 0 -35 24z" />
<glyph unicode="&#xbc;" horiz-adv-x="1490" d="M105 -77q-11 23 14 57l1081 1515q28 41 80 41h20q30 0 34.5 -23t-19.5 -57l-1079 -1515q-28 -41 -80 -41q-40 0 -51 23zM180 1432q0 30 66 30h80q65 0 65 -65v-596q0 -66 -65 -66q-45 0 -45 66v553l-41 6q-60 9 -60 72zM881 244q0 20 26 59l279 385q28 41 78 41 q53 0 53 -65v-390h39q65 0 65 -65q0 -31 -65 -31h-39v-112q0 -66 -49 -66q-51 0 -51 66v112h-271q-65 0 -65 66zM1008 274h209v295z" />
<glyph unicode="&#xbd;" horiz-adv-x="1492" d="M105 -77q-11 23 14 57l1081 1515q28 41 80 41h20q30 0 34.5 -23t-19.5 -57l-1079 -1515q-28 -41 -80 -41q-40 0 -51 23zM180 1432q0 30 66 30h80q65 0 65 -65v-596q0 -66 -65 -66q-45 0 -45 66v553l-41 6q-60 9 -60 72zM952 66v81q0 176 203 226q84 21 120 51t36 86 t-27 81t-86 25q-90 0 -115 -43q-9 -19 -12.5 -25.5t-11.5 -16t-18 -12.5t-25 -3q-29 0 -43.5 18.5t-7.5 49.5q19 67 79 106t154 39q103 0 164 -58.5t61 -160.5q0 -98 -62 -157t-196 -93q-58 -14 -79 -41.5t-21 -71.5v-36h283q65 0 65 -66q0 -45 -65 -45h-330q-66 0 -66 66z " />
<glyph unicode="&#xbe;" horiz-adv-x="1490" d="M82 788q0 31 65 31h140q66 0 104.5 39t38.5 105q0 67 -38.5 105t-104.5 38h-15q-40 0 -53.5 23t8.5 57l115 180h-195q-65 0 -65 66q0 30 65 30h273q40 0 53.5 -23t-8.5 -57l-119 -188q85 -18 135.5 -79t50.5 -152q0 -104 -69 -172t-176 -68h-140q-65 0 -65 65zM105 -77 q-11 23 14 57l1081 1515q28 41 80 41h20q30 0 34.5 -23t-19.5 -57l-1079 -1515q-28 -41 -80 -41q-40 0 -51 23zM881 244q0 20 26 59l279 385q28 41 78 41q53 0 53 -65v-390h39q65 0 65 -65q0 -31 -65 -31h-39v-112q0 -66 -49 -66q-51 0 -51 66v112h-271q-65 0 -65 66z M1008 274h209v295z" />
<glyph unicode="&#xbf;" horiz-adv-x="1030" d="M80 -49q0 258 278 352q27 9 45 21t30.5 32.5t19 39t10 56.5t4 68.5t0.5 89.5q0 70 65 70h19q65 0 65 -66q2 -57 0.5 -108t-6.5 -95t-19 -81.5t-38.5 -68.5t-64.5 -56.5t-97 -44.5t-94 -59t-49 -76.5t-12 -73.5q0 -100 72.5 -163.5t189.5 -63.5q95 0 157.5 41.5 t87.5 115.5q19 58 72 58h27q34 0 50.5 -18.5t10.5 -51.5q-28 -133 -136 -214t-269 -81q-204 0 -311 106t-107 271zM434 950q0 47 33.5 81t79.5 34q47 0 81 -34t34 -81q0 -46 -34 -79t-81 -33q-46 0 -79.5 33t-33.5 79z" />
<glyph unicode="&#xc0;" horiz-adv-x="1476" d="M32.5 21q-12.5 21 2.5 55l600 1337q24 49 76 49h55q52 0 76 -49l600 -1337q15 -34 1.5 -55t-50.5 -21h-25q-52 0 -76 49l-239 533h-629l-240 -533q-24 -49 -75 -49h-27q-37 0 -49.5 21zM487 725h502l-250 557zM588 1920q12 24 53 24h25q51 0 79 -41l127 -177 q25 -34 12.5 -56.5t-53.5 -22.5h-6q-47 0 -80 39l-143 178q-26 32 -14 56z" />
<glyph unicode="&#xc1;" horiz-adv-x="1476" d="M32.5 21q-12.5 21 2.5 55l600 1337q24 49 76 49h55q52 0 76 -49l600 -1337q15 -34 1.5 -55t-50.5 -21h-25q-52 0 -76 49l-239 533h-629l-240 -533q-24 -49 -75 -49h-27q-37 0 -49.5 21zM487 725h502l-250 557zM601.5 1669.5q-12.5 22.5 12.5 56.5l127 177q28 41 80 41h25 q41 0 53 -24t-14 -56l-144 -178q-33 -39 -79 -39h-7q-41 0 -53.5 22.5z" />
<glyph unicode="&#xc2;" horiz-adv-x="1476" d="M32.5 21q-12.5 21 2.5 55l600 1337q24 49 76 49h55q52 0 76 -49l600 -1337q15 -34 1.5 -55t-50.5 -21h-25q-52 0 -76 49l-239 533h-629l-240 -533q-24 -49 -75 -49h-27q-37 0 -49.5 21zM487 725h502l-250 557zM528 1665q-31 22 11 76l141 182q4 4 10 12t8.5 10.5t7.5 7 t9 5.5t10.5 2.5t15.5 1.5q10 0 17 -1t13 -5.5t8.5 -7t10 -11.5t11.5 -14l141 -182q42 -54 0 -82t-82 18l-119 133l-120 -135q-41 -44 -93 -10z" />
<glyph unicode="&#xc3;" horiz-adv-x="1476" d="M32.5 21q-12.5 21 2.5 55l600 1337q24 49 76 49h55q52 0 76 -49l600 -1337q15 -34 1.5 -55t-50.5 -21h-25q-52 0 -76 49l-239 533h-629l-240 -533q-24 -49 -75 -49h-27q-37 0 -49.5 21zM469 1710q50 119 184 119q39 0 69 -13.5t45 -29.5t34 -29.5t37 -13.5q38 0 55 24 q3 3 13 15.5t13 15.5t11.5 9.5t17 8t19.5 1.5q73 0 67 -31q-4 -25 -15.5 -49.5t-33.5 -51t-60 -43t-87 -16.5q-34 0 -63 13.5t-45 29.5t-36.5 29.5t-40.5 13.5q-38 0 -55 -24q-3 -3 -13 -15.5t-13 -15.5t-11.5 -9.5t-17 -8t-19.5 -1.5q-35 0 -51.5 20.5t-3.5 51.5zM487 725 h502l-250 557z" />
<glyph unicode="&#xc4;" horiz-adv-x="1476" d="M32.5 21q-12.5 21 2.5 55l600 1337q24 49 76 49h55q52 0 76 -49l600 -1337q15 -34 1.5 -55t-50.5 -21h-25q-52 0 -76 49l-239 533h-629l-240 -533q-24 -49 -75 -49h-27q-37 0 -49.5 21zM449 1743q0 36 27.5 63t66.5 27q37 0 64.5 -27.5t27.5 -62.5q0 -39 -27.5 -67.5 t-64.5 -28.5q-40 0 -67 28t-27 68zM487 725h502l-250 557zM844 1743q0 36 27.5 63t66.5 27q37 0 64.5 -27.5t27.5 -62.5q0 -39 -27.5 -67.5t-64.5 -28.5q-40 0 -67 28t-27 68z" />
<glyph unicode="&#xc5;" horiz-adv-x="1476" d="M32.5 21q-12.5 21 2.5 55l600 1337q24 49 76 49h55q52 0 76 -49l600 -1337q15 -34 1.5 -55t-50.5 -21h-25q-52 0 -76 49l-239 533h-629l-240 -533q-24 -49 -75 -49h-27q-37 0 -49.5 21zM487 725h502l-250 557zM561 1823q0 69 52.5 121.5t125.5 52.5q69 0 122.5 -53 t53.5 -121q0 -72 -53.5 -126.5t-122.5 -54.5q-73 0 -125.5 54t-52.5 127zM649 1823q0 -38 26 -65t64 -27q36 0 62 27t26 65q0 34 -26.5 60t-61.5 26q-38 0 -64 -26t-26 -60z" />
<glyph unicode="&#xc6;" horiz-adv-x="1810" d="M32.5 21q-12.5 21 2.5 55l600 1337q24 49 76 49h678q65 0 65 -65v-13q0 -65 -65 -65h-515l95 -451h456q66 0 66 -65v-12q0 -66 -66 -66h-426l123 -582h480q65 0 65 -65v-12q0 -66 -65 -66h-549q-60 0 -72 59l-104 523h-453l-240 -533q-24 -49 -75 -49h-27q-37 0 -49.5 21 zM487 725h361l-111 557z" />
<glyph unicode="&#xc7;" horiz-adv-x="1558" d="M61 737q0 148 61 285t163 237t244 160t296 60q175 0 329 -75.5t261 -205.5q26 -32 12.5 -56t-53.5 -24h-39q-47 0 -82 35q-83 83 -193.5 129.5t-234.5 46.5q-166 0 -306 -80.5t-221 -216.5t-81 -295q0 -166 81 -306t221 -221t306 -81q126 0 239 48t193 134q34 37 82 37 h45q39 0 50 -24t-13 -56q-100 -125 -243 -201t-306 -85v-9q74 -14 122 -61t48 -109q0 -75 -64.5 -125.5t-158.5 -50.5q-68 0 -124 29t-83 76q-16 32 -3.5 53.5t40.5 21.5q18 0 31.5 -7.5t20.5 -15.5t22 -28q30 -41 96 -41q46 0 78.5 25.5t32.5 62.5q0 35 -32.5 60.5 t-78.5 25.5h-2q-17 0 -29 4t-18 8.5t-8.5 14.5t-2.5 16.5t0.5 20.5t0.5 20v9q-144 12 -273 76.5t-222.5 164.5t-148.5 234.5t-55 279.5z" />
<glyph unicode="&#xc8;" horiz-adv-x="1155" d="M164 66v1331q0 65 65 65h717q66 0 66 -65v-13q0 -65 -66 -65h-633v-410h594q66 0 66 -65v-13q0 -65 -66 -65h-594v-623h633q66 0 66 -65v-12q0 -66 -66 -66h-717q-65 0 -65 66zM445 1920q12 24 53 24h24q52 0 80 -41l127 -177q25 -34 12.5 -56.5t-53.5 -22.5h-6 q-47 0 -80 39l-143 178q-26 32 -14 56z" />
<glyph unicode="&#xc9;" horiz-adv-x="1155" d="M164 66v1331q0 65 65 65h717q66 0 66 -65v-13q0 -65 -66 -65h-633v-410h594q66 0 66 -65v-13q0 -65 -66 -65h-594v-623h633q66 0 66 -65v-12q0 -66 -66 -66h-717q-65 0 -65 66zM458.5 1669.5q-12.5 22.5 12.5 56.5l127 177q28 41 80 41h24q41 0 53 -24t-14 -56l-143 -178 q-33 -39 -80 -39h-6q-41 0 -53.5 22.5z" />
<glyph unicode="&#xca;" horiz-adv-x="1155" d="M164 66v1331q0 65 65 65h717q66 0 66 -65v-13q0 -65 -66 -65h-633v-410h594q66 0 66 -65v-13q0 -65 -66 -65h-594v-623h633q66 0 66 -65v-12q0 -66 -66 -66h-717q-65 0 -65 66zM385 1665q-32 22 10 76l142 182q4 4 10 12t8.5 10.5t7.5 7t9 5.5t10.5 2.5t15.5 1.5 q10 0 17 -1t12.5 -5t8.5 -7t10 -12t11 -14l142 -182q42 -54 0 -82t-82 18l-119 133l-121 -135q-41 -44 -92 -10z" />
<glyph unicode="&#xcb;" horiz-adv-x="1155" d="M164 66v1331q0 65 65 65h717q66 0 66 -65v-13q0 -65 -66 -65h-633v-410h594q66 0 66 -65v-13q0 -65 -66 -65h-594v-623h633q66 0 66 -65v-12q0 -66 -66 -66h-717q-65 0 -65 66zM305 1743q0 36 27.5 63t66.5 27q37 0 65 -27.5t28 -62.5q0 -39 -28 -67.5t-65 -28.5 q-40 0 -67 28t-27 68zM700 1743q0 36 28 63t67 27q37 0 64.5 -27.5t27.5 -62.5q0 -39 -27.5 -67.5t-64.5 -28.5q-40 0 -67.5 28t-27.5 68z" />
<glyph unicode="&#xcc;" horiz-adv-x="477" d="M88 1920q12 24 53 24h25q52 0 80 -41l127 -177q25 -34 12.5 -56.5t-53.5 -22.5h-6q-47 0 -80 39l-144 178q-26 32 -14 56zM164 66v1331q0 65 65 65h19q65 0 65 -65v-1331q0 -66 -65 -66h-19q-65 0 -65 66z" />
<glyph unicode="&#xcd;" horiz-adv-x="477" d="M57 1647l213 297h179l-238 -297h-154zM164 0v1462h149v-1462h-149z" />
<glyph unicode="&#xce;" horiz-adv-x="477" d="M29 1665q-32 22 10 76l141 182q3 4 8.5 10.5t8 9t6.5 7t7 6t8 3.5t11 2.5t13 0.5q10 0 17 -1t12.5 -5t8.5 -7t10 -12t11 -14l141 -182q42 -54 0 -82t-82 18l-118 133l-121 -135q-41 -44 -92 -10zM164 66v1331q0 65 65 65h19q65 0 65 -65v-1331q0 -66 -65 -66h-19 q-65 0 -65 66z" />
<glyph unicode="&#xcf;" horiz-adv-x="477" d="M-51 1743q0 36 27.5 63t66.5 27q37 0 64.5 -27.5t27.5 -62.5q0 -39 -27.5 -67.5t-64.5 -28.5q-40 0 -67 28t-27 68zM164 66v1331q0 65 65 65h19q65 0 65 -65v-1331q0 -66 -65 -66h-19q-65 0 -65 66zM344 1743q0 36 27.5 63t66.5 27q37 0 64.5 -27.5t27.5 -62.5 q0 -39 -27.5 -67.5t-64.5 -28.5q-40 0 -67 28t-27 68z" />
<glyph unicode="&#xd0;" horiz-adv-x="1378" d="M51 582v6q0 65 66 65h47v744q0 65 65 65h324q398 0 570.5 -170t172.5 -561t-172.5 -561t-570.5 -170h-324q-65 0 -65 66v450h-47q-66 0 -66 66zM313 143h240q315 0 451.5 136.5t136.5 451.5t-136.5 451.5t-451.5 136.5h-240v-666h457q66 0 66 -65v-6q0 -66 -66 -66h-457 v-373z" />
<glyph unicode="&#xd1;" horiz-adv-x="1572" d="M164 66v1331q0 65 65 65h66q50 0 78 -41l887 -1216v1192q0 65 65 65h18q66 0 66 -65v-1331q0 -66 -66 -66h-65q-50 0 -78 41l-887 1216v-1191q0 -66 -65 -66h-19q-65 0 -65 66zM520 1710q50 119 185 119q39 0 69 -13.5t45 -29.5t33.5 -29.5t36.5 -13.5q38 0 55 24 q3 3 13 15.5t13 15.5t11.5 9.5t17 8t19.5 1.5q73 0 67 -31q-4 -25 -15.5 -49.5t-33.5 -51t-60 -43t-87 -16.5q-34 0 -63 13.5t-44.5 29.5t-36 29.5t-40.5 13.5q-39 0 -56 -24q-3 -3 -13 -15.5t-13 -15.5t-11.5 -9.5t-17 -8t-19.5 -1.5q-35 0 -51.5 20.5t-3.5 51.5z" />
<glyph unicode="&#xd2;" horiz-adv-x="1667" d="M72 741q0 148 60.5 285t162.5 237t243.5 160t295.5 60t295.5 -60t243 -160t162 -237t60.5 -285q0 -206 -102 -380t-277 -275.5t-382 -101.5q-155 0 -296 60t-243 161.5t-162.5 241.5t-60.5 294zM227 741q0 -166 80.5 -306t220.5 -221t306 -81t305.5 81t220 221t80.5 306 q0 159 -80.5 295t-220 216.5t-305.5 80.5t-306 -80.5t-220.5 -216.5t-80.5 -295zM682 1926q12 24 53 24h25q52 0 80 -41l127 -176q25 -34 12.5 -57t-53.5 -23h-6q-47 0 -80 39l-144 178q-26 32 -14 56z" />
<glyph unicode="&#xd3;" horiz-adv-x="1667" d="M72 741q0 148 60.5 285t162.5 237t243.5 160t295.5 60t295.5 -60t243 -160t162 -237t60.5 -285q0 -206 -102 -380t-277 -275.5t-382 -101.5q-155 0 -296 60t-243 161.5t-162.5 241.5t-60.5 294zM227 741q0 -166 80.5 -306t220.5 -221t306 -81t305.5 81t220 221t80.5 306 q0 159 -80.5 295t-220 216.5t-305.5 80.5t-306 -80.5t-220.5 -216.5t-80.5 -295zM696.5 1676q-12.5 23 12.5 57l127 176q28 41 79 41h25q41 0 53 -24t-14 -56l-143 -178q-33 -39 -80 -39h-6q-41 0 -53.5 23z" />
<glyph unicode="&#xd4;" horiz-adv-x="1667" d="M72 741q0 148 60.5 285t162.5 237t243.5 160t295.5 60t295.5 -60t243 -160t162 -237t60.5 -285q0 -206 -102 -380t-277 -275.5t-382 -101.5q-155 0 -296 60t-243 161.5t-162.5 241.5t-60.5 294zM227 741q0 -166 80.5 -306t220.5 -221t306 -81t305.5 81t220 221t80.5 306 q0 159 -80.5 295t-220 216.5t-305.5 80.5t-306 -80.5t-220.5 -216.5t-80.5 -295zM623 1671q-32 22 10 76l141 182q3 4 8.5 10.5t8 9t6.5 7t7 6t8 3.5t11 2.5t13 0.5q10 0 17 -1t12.5 -5t8.5 -7t10 -12t11 -14l141 -182q42 -54 0 -82t-82 18l-118 134l-121 -136 q-41 -44 -92 -10z" />
<glyph unicode="&#xd5;" horiz-adv-x="1667" d="M72 741q0 148 60.5 285t162.5 237t243.5 160t295.5 60t295.5 -60t243 -160t162 -237t60.5 -285q0 -206 -102 -380t-277 -275.5t-382 -101.5q-155 0 -296 60t-243 161.5t-162.5 241.5t-60.5 294zM227 741q0 -166 80.5 -306t220.5 -221t306 -81t305.5 81t220 221t80.5 306 q0 159 -80.5 295t-220 216.5t-305.5 80.5t-306 -80.5t-220.5 -216.5t-80.5 -295zM563 1716q50 119 185 119q39 0 69 -13.5t45 -29.5t33.5 -29.5t36.5 -13.5q37 0 55 25q3 4 11 13.5t11 12.5t9.5 9t11.5 8t13 4t18 2q73 0 67 -31q-4 -25 -15.5 -49.5t-33.5 -51t-60 -43 t-87 -16.5q-34 0 -63 13.5t-44.5 29.5t-36 29.5t-40.5 13.5q-39 0 -56 -24q-3 -4 -11 -13.5t-11 -12.5t-9.5 -9t-11.5 -8t-13 -4t-18 -2q-35 0 -51.5 20t-3.5 51z" />
<glyph unicode="&#xd6;" horiz-adv-x="1667" d="M72 741q0 148 60.5 285t162.5 237t243.5 160t295.5 60t295.5 -60t243 -160t162 -237t60.5 -285q0 -206 -102 -380t-277 -275.5t-382 -101.5q-155 0 -296 60t-243 161.5t-162.5 241.5t-60.5 294zM227 741q0 -166 80.5 -306t220.5 -221t306 -81t305.5 81t220 221t80.5 306 q0 159 -80.5 295t-220 216.5t-305.5 80.5t-306 -80.5t-220.5 -216.5t-80.5 -295zM543 1749q0 36 27.5 63t66.5 27q37 0 64.5 -27.5t27.5 -62.5q0 -39 -27.5 -67.5t-64.5 -28.5q-40 0 -67 28t-27 68zM938 1749q0 36 27.5 63t66.5 27q37 0 64.5 -27.5t27.5 -62.5 q0 -39 -27.5 -67.5t-64.5 -28.5q-40 0 -67 28t-27 68z" />
<glyph unicode="&#xd7;" horiz-adv-x="946" d="M109 854q-47 47 0 94l4 4q46 43 92 0l270 -268l266 266q47 48 95 0l4 -4q43 -46 0 -92l-269 -268l267 -267q44 -44 0 -92l-7 -4q-44 -48 -92 0l-264 266l-268 -268q-44 -44 -92 0l-4 6q-48 44 0 92l266 267z" />
<glyph unicode="&#xd8;" horiz-adv-x="1667" d="M72 741q0 148 60.5 285t162.5 237t243.5 160t295.5 60q82 0 163 -19l9 23q14 53 73 53h4q35 0 50 -20t4 -54l-13 -41q210 -86 340.5 -272.5t130.5 -411.5q0 -206 -102 -380t-277 -275.5t-382 -101.5q-96 0 -177 20l-28 -88q-14 -53 -74 -53h-4q-35 0 -49.5 20t-3.5 54 l34 108q-206 89 -333 277.5t-127 418.5zM227 741q0 -183 97 -332t256 -221l372 1135q-65 10 -118 10q-166 0 -306 -80.5t-220.5 -216.5t-80.5 -295zM705 147q57 -14 129 -14q166 0 305.5 81t220 221t80.5 306q0 178 -100 325.5t-263 217.5z" />
<glyph unicode="&#xd9;" horiz-adv-x="1368" d="M123 528v869q0 65 65 65h19q65 0 65 -65v-869q0 -194 109.5 -302.5t304.5 -108.5q193 0 301.5 108.5t108.5 302.5v869q0 65 65 65h19q65 0 65 -65v-869q0 -264 -147.5 -412.5t-411.5 -148.5q-265 0 -414 148.5t-149 412.5zM533 1920q12 24 53 24h24q52 0 80 -41l127 -177 q25 -34 12.5 -56.5t-53.5 -22.5h-6q-47 0 -80 39l-143 178q-26 32 -14 56z" />
<glyph unicode="&#xda;" horiz-adv-x="1368" d="M123 528v869q0 65 65 65h19q65 0 65 -65v-869q0 -194 109.5 -302.5t304.5 -108.5q193 0 301.5 108.5t108.5 302.5v869q0 65 65 65h19q65 0 65 -65v-869q0 -264 -147.5 -412.5t-411.5 -148.5q-265 0 -414 148.5t-149 412.5zM546.5 1669.5q-12.5 22.5 12.5 56.5l127 177 q28 41 80 41h25q41 0 52.5 -24t-14.5 -56l-143 -178q-33 -39 -80 -39h-6q-41 0 -53.5 22.5z" />
<glyph unicode="&#xdb;" horiz-adv-x="1368" d="M123 528v869q0 65 65 65h19q65 0 65 -65v-869q0 -194 109.5 -302.5t304.5 -108.5q193 0 301.5 108.5t108.5 302.5v869q0 65 65 65h19q65 0 65 -65v-869q0 -264 -147.5 -412.5t-411.5 -148.5q-265 0 -414 148.5t-149 412.5zM473 1665q-32 22 10 76l142 182q4 4 10 12 t8.5 10.5t7.5 7t9 5.5t10.5 2.5t15.5 1.5q10 0 17 -1t12.5 -5t8.5 -7t10 -12t11 -14l142 -182q42 -54 0 -82t-82 18l-119 133l-121 -135q-41 -44 -92 -10z" />
<glyph unicode="&#xdc;" horiz-adv-x="1368" d="M123 528v869q0 65 65 65h19q65 0 65 -65v-869q0 -194 109.5 -302.5t304.5 -108.5q193 0 301.5 108.5t108.5 302.5v869q0 65 65 65h19q65 0 65 -65v-869q0 -264 -147.5 -412.5t-411.5 -148.5q-265 0 -414 148.5t-149 412.5zM393 1743q0 36 27.5 63t66.5 27q37 0 65 -27.5 t28 -62.5q0 -39 -28 -67.5t-65 -28.5q-40 0 -67 28t-27 68zM788 1743q0 36 28 63t67 27q37 0 64.5 -27.5t27.5 -62.5q0 -39 -27.5 -67.5t-64.5 -28.5q-40 0 -67.5 28t-27.5 68z" />
<glyph unicode="&#xdd;" horiz-adv-x="1175" d="M35 1440q13 22 51 22h23q55 0 75 -47l404 -823l403 823q20 47 76 47h23q38 0 51 -22t-4 -56l-656 -1337q-20 -47 -75 -47h-27q-36 0 -48.5 22t3.5 56l172 350l-469 956q-15 34 -2 56zM481.5 1669.5q-12.5 22.5 12.5 56.5l127 177q28 41 79 41h25q41 0 53 -24t-14 -56 l-143 -178q-33 -39 -80 -39h-6q-41 0 -53.5 22.5z" />
<glyph unicode="&#xde;" horiz-adv-x="964" d="M123 66v1331q0 65 65 65h19q65 0 65 -65v-260q333 5 482 -82.5t149 -290.5q0 -212 -154.5 -326.5t-476.5 -107.5v-264q0 -66 -65 -66h-19q-65 0 -65 66zM272 473q252 -7 364 68.5t112 222.5q0 137 -104 185.5t-372 43.5v-520z" />
<glyph unicode="&#xdf;" horiz-adv-x="999" d="M137 66v1085q0 68 20 123t52 89.5t74.5 57.5t84 32t83.5 9q163 0 261.5 -95.5t98.5 -252.5q0 -59 -20 -114t-44.5 -89.5t-44.5 -74t-20 -70.5q0 -22 24.5 -51.5t59 -63.5t69 -75.5t59 -101t24.5 -126.5q0 -96 -26.5 -166t-78 -112.5t-121 -63.5t-162.5 -26q-67 -3 -67 63 v14q0 63 65 66q120 10 183 61t63 164q0 42 -17.5 82.5t-43.5 71.5t-56.5 64.5t-56.5 62.5t-43.5 65t-17.5 72q0 51 20 100t44.5 82t44.5 78t20 88q0 96 -61 150.5t-156 54.5q-74 0 -122 -49t-48 -121v-1083q0 -66 -66 -66h-12q-66 0 -66 66z" />
<glyph unicode="&#xe0;" horiz-adv-x="1159" d="M72 449q0 126 63 233.5t170.5 170t233.5 62.5q101 0 189 -43t151 -118v82q0 65 65 65h6q66 0 66 -65v-775q0 -65 -66 -65h-6q-65 0 -65 65v82q-63 -77 -151.5 -121.5t-188.5 -44.5q-125 0 -233.5 65t-171 174t-62.5 233zM215 449q0 -136 93 -236t227 -100q133 0 234 101 t101 235q0 135 -100 233t-235 98t-227.5 -96.5t-92.5 -234.5zM398 1389q12 24 53 24h24q52 0 80 -41l127 -176q25 -34 12.5 -57t-53.5 -23h-6q-47 0 -80 39l-143 178q-26 32 -14 56z" />
<glyph unicode="&#xe1;" horiz-adv-x="1159" d="M72 449q0 126 63 233.5t170.5 170t233.5 62.5q101 0 189 -43t151 -118v82q0 65 65 65h6q66 0 66 -65v-775q0 -65 -66 -65h-6q-65 0 -65 65v82q-63 -77 -151.5 -121.5t-188.5 -44.5q-125 0 -233.5 65t-171 174t-62.5 233zM215 449q0 -136 93 -236t227 -100q133 0 234 101 t101 235q0 135 -100 233t-235 98t-227.5 -96.5t-92.5 -234.5zM411.5 1139q-12.5 23 12.5 57l127 176q28 41 80 41h24q41 0 53 -24t-14 -56l-143 -178q-33 -39 -80 -39h-6q-41 0 -53.5 23z" />
<glyph unicode="&#xe2;" horiz-adv-x="1159" d="M72 449q0 126 63 233.5t170.5 170t233.5 62.5q101 0 189 -43t151 -118v82q0 65 65 65h6q66 0 66 -65v-775q0 -65 -66 -65h-6q-65 0 -65 65v82q-63 -77 -151.5 -121.5t-188.5 -44.5q-125 0 -233.5 65t-171 174t-62.5 233zM215 449q0 -136 93 -236t227 -100q133 0 234 101 t101 235q0 135 -100 233t-235 98t-227.5 -96.5t-92.5 -234.5zM338 1135q-31 22 10 75l141 183q3 4 8.5 10.5t8 9t6.5 7t7 6t8 3.5t11 2.5t13 0.5q10 0 17 -1t12.5 -5t8.5 -7t10 -12t11 -14l142 -183q42 -54 0 -82q-41 -28 -82 19l-119 133l-121 -135q-41 -44 -92 -10z" />
<glyph unicode="&#xe3;" horiz-adv-x="1159" d="M72 449q0 126 63 233.5t170.5 170t233.5 62.5q101 0 189 -43t151 -118v82q0 65 65 65h6q66 0 66 -65v-775q0 -65 -66 -65h-6q-65 0 -65 65v82q-63 -77 -151.5 -121.5t-188.5 -44.5q-125 0 -233.5 65t-171 174t-62.5 233zM215 449q0 -136 93 -236t227 -100q133 0 234 101 t101 235q0 135 -100 233t-235 98t-227.5 -96.5t-92.5 -234.5zM279 1180q49 118 184 118q39 0 69 -13.5t45 -29.5t33.5 -29.5t36.5 -13.5q37 0 55 25q3 4 11 13.5t11 12.5t9.5 9t11.5 8t13 4t18 2q74 0 68 -31q-4 -25 -16 -49.5t-33.5 -50.5t-60 -42.5t-87.5 -16.5 q-34 0 -63 13.5t-44.5 29.5t-36 29.5t-40.5 13.5q-37 0 -55 -25q-3 -4 -11 -13.5t-11 -12.5t-9.5 -9t-11.5 -8t-13 -4t-18 -2q-35 0 -51.5 20.5t-3.5 51.5z" />
<glyph unicode="&#xe4;" horiz-adv-x="1159" d="M72 449q0 126 63 233.5t170.5 170t233.5 62.5q101 0 189 -43t151 -118v82q0 65 65 65h6q66 0 66 -65v-775q0 -65 -66 -65h-6q-65 0 -65 65v82q-63 -77 -151.5 -121.5t-188.5 -44.5q-125 0 -233.5 65t-171 174t-62.5 233zM215 449q0 -136 93 -236t227 -100q133 0 234 101 t101 235q0 135 -100 233t-235 98t-227.5 -96.5t-92.5 -234.5zM258 1212q0 36 27.5 63.5t66.5 27.5q36 0 64 -27.5t28 -63.5q0 -39 -27.5 -67.5t-64.5 -28.5q-40 0 -67 28t-27 68zM653 1212q0 36 28 63.5t67 27.5q36 0 64 -27.5t28 -63.5q0 -39 -27.5 -67.5t-64.5 -28.5 q-40 0 -67.5 28t-27.5 68z" />
<glyph unicode="&#xe5;" horiz-adv-x="1159" d="M72 449q0 126 63 233.5t170.5 170t233.5 62.5q101 0 189 -43t151 -118v82q0 65 65 65h6q66 0 66 -65v-775q0 -65 -66 -65h-6q-65 0 -65 65v82q-63 -77 -151.5 -121.5t-188.5 -44.5q-125 0 -233.5 65t-171 174t-62.5 233zM215 449q0 -136 93 -236t227 -100q133 0 234 101 t101 235q0 135 -100 233t-235 98t-227.5 -96.5t-92.5 -234.5zM371 1292q0 68 52.5 121t125.5 53q69 0 122.5 -53t53.5 -121q0 -72 -53.5 -126t-122.5 -54q-73 0 -125.5 53.5t-52.5 126.5zM459 1292q0 -38 26 -65t64 -27q36 0 62 27t26 65q0 34 -26.5 60t-61.5 26 q-38 0 -64 -26t-26 -60z" />
<glyph unicode="&#xe6;" horiz-adv-x="2185" d="M72 449q0 126 63 233.5t170.5 170t233.5 62.5q101 0 189 -43t151 -118v82q0 65 65 65h6q66 0 66 -65v-58q64 64 149.5 100.5t180.5 36.5q192 0 329 -137t137 -329v-31q0 -33 -65 -33h-719q22 -115 111 -193.5t207 -78.5q126 0 217 88q37 37 82 37h26q40 0 54.5 -24 t-9.5 -56q-66 -85 -162.5 -133t-207.5 -48q-94 0 -179.5 38t-150.5 104v-58q0 -65 -66 -65h-6q-65 0 -65 65v82q-63 -77 -151.5 -121.5t-188.5 -44.5q-125 0 -233.5 65t-171 174t-62.5 233zM215 449q0 -136 93 -236t227 -100q133 0 234 101t101 235q0 135 -100 233t-235 98 t-227.5 -96.5t-92.5 -234.5zM1028 516h635q-24 114 -111.5 189t-205.5 75t-206 -75t-112 -189z" />
<glyph unicode="&#xe7;" horiz-adv-x="1050" d="M72 449q0 126 63 233.5t170.5 170t233.5 62.5q125 0 231.5 -62t169.5 -167q20 -34 5 -56t-54 -22h-17q-45 0 -79 43q-44 60 -111 94.5t-145 34.5q-136 0 -230 -97t-94 -234q0 -135 94.5 -235.5t229.5 -100.5q78 0 145 36t111 97q34 43 79 43h21q37 0 52 -22t-3 -56 q-53 -91 -142 -151.5t-196 -77.5v-9q74 -14 122 -61t48 -109q0 -75 -64.5 -125.5t-158.5 -50.5q-68 0 -124 29t-83 76q-16 32 -3.5 53.5t40.5 21.5q18 0 31.5 -7.5t20.5 -15.5t22 -28q30 -41 96 -41q46 0 78.5 25.5t32.5 62.5q0 35 -32.5 60.5t-78.5 25.5h-2q-17 0 -29 4 t-18 8.5t-8.5 14.5t-2.5 16.5t0.5 20.5t0.5 20v7q-177 19 -299.5 155t-122.5 314z" />
<glyph unicode="&#xe8;" horiz-adv-x="1077" d="M72 449q0 126 63 233.5t170.5 170t233.5 62.5t233.5 -62.5t170.5 -170t63 -233.5v-31q0 -33 -66 -33h-719q22 -115 111 -193.5t207 -78.5q126 0 217 88q37 37 82 37h26q40 0 54.5 -24t-9.5 -56q-66 -85 -162.5 -133t-207.5 -48q-125 0 -233.5 65t-171 174t-62.5 233z M221 516h635q-24 114 -111.5 189t-205.5 75t-206 -75t-112 -189zM400 1358.5q12 23.5 53 23.5h24q52 0 80 -41l127 -176q25 -34 12.5 -57t-53.5 -23h-6q-47 0 -80 39l-143 179q-26 32 -14 55.5z" />
<glyph unicode="&#xe9;" horiz-adv-x="1077" d="M72 449q0 126 63 233.5t170.5 170t233.5 62.5t233.5 -62.5t170.5 -170t63 -233.5v-31q0 -33 -66 -33h-719q22 -115 111 -193.5t207 -78.5q126 0 217 88q37 37 82 37h26q40 0 54.5 -24t-9.5 -56q-66 -85 -162.5 -133t-207.5 -48q-125 0 -233.5 65t-171 174t-62.5 233z M221 516h635q-24 114 -111.5 189t-205.5 75t-206 -75t-112 -189zM413.5 1108q-12.5 23 12.5 57l127 176q28 41 80 41h24q41 0 53 -23.5t-14 -55.5l-143 -179q-33 -39 -80 -39h-6q-41 0 -53.5 23z" />
<glyph unicode="&#xea;" horiz-adv-x="1077" d="M72 449q0 126 63 233.5t170.5 170t233.5 62.5t233.5 -62.5t170.5 -170t63 -233.5v-31q0 -33 -66 -33h-719q22 -115 111 -193.5t207 -78.5q126 0 217 88q37 37 82 37h26q40 0 54.5 -24t-9.5 -56q-66 -85 -162.5 -133t-207.5 -48q-125 0 -233.5 65t-171 174t-62.5 233z M221 516h635q-24 114 -111.5 189t-205.5 75t-206 -75t-112 -189zM340 1104q-32 22 10 76l142 182q4 4 10 12t8.5 10.5t7.5 7t9 5.5t10.5 2.5t15.5 1.5q10 0 17 -1t12.5 -5t8.5 -7t10 -12t11 -14l142 -182q42 -54 0 -82t-82 18l-119 133l-121 -135q-41 -44 -92 -10z" />
<glyph unicode="&#xeb;" horiz-adv-x="1077" d="M72 449q0 126 63 233.5t170.5 170t233.5 62.5t233.5 -62.5t170.5 -170t63 -233.5v-31q0 -33 -66 -33h-719q22 -115 111 -193.5t207 -78.5q126 0 217 88q37 37 82 37h26q40 0 54.5 -24t-9.5 -56q-66 -85 -162.5 -133t-207.5 -48q-125 0 -233.5 65t-171 174t-62.5 233z M221 516h635q-24 114 -111.5 189t-205.5 75t-206 -75t-112 -189zM260 1182q0 36 27.5 63t66.5 27q37 0 64.5 -27.5t27.5 -62.5q0 -40 -27.5 -68.5t-64.5 -28.5q-39 0 -66.5 28.5t-27.5 68.5zM655 1182q0 36 28 63t67 27q37 0 64.5 -27.5t27.5 -62.5q0 -40 -27.5 -68.5 t-64.5 -28.5q-40 0 -67.5 28.5t-27.5 68.5z" />
<glyph unicode="&#xec;" horiz-adv-x="348" d="M25 1389q12 24 53 24h24q52 0 80 -41l127 -176q25 -34 12.5 -57t-53.5 -23h-6q-47 0 -80 39l-143 178q-26 32 -14 56zM102 66v770q0 65 66 65h12q66 0 66 -65v-770q0 -66 -66 -66h-12q-66 0 -66 66z" />
<glyph unicode="&#xed;" horiz-adv-x="348" d="M38.5 1139q-12.5 23 12.5 57l127 176q28 41 80 41h25q41 0 53 -24t-14 -56l-144 -178q-33 -39 -80 -39h-6q-41 0 -53.5 23zM102 66v770q0 65 66 65h12q66 0 66 -65v-770q0 -66 -66 -66h-12q-66 0 -66 66z" />
<glyph unicode="&#xee;" horiz-adv-x="348" d="M-35 1135q-31 22 10 75l142 183q4 4 10 12t8.5 10.5t7.5 7t9 5.5t10.5 2.5t15.5 1.5q10 0 17 -1t13 -5.5t8.5 -7t10 -11.5t11.5 -14l141 -183q42 -54 0 -82q-41 -28 -82 19l-119 133l-121 -135q-41 -44 -92 -10zM102 66v770q0 65 66 65h12q66 0 66 -65v-770 q0 -66 -66 -66h-12q-66 0 -66 66z" />
<glyph unicode="&#xef;" horiz-adv-x="348" d="M-115 1212q0 36 28 63.5t67 27.5q36 0 64 -27.5t28 -63.5q0 -39 -27.5 -67.5t-64.5 -28.5q-40 0 -67.5 28t-27.5 68zM102 66v770q0 65 66 65h12q66 0 66 -65v-770q0 -66 -66 -66h-12q-66 0 -66 66zM281 1212q0 36 27.5 63.5t66.5 27.5q37 0 64.5 -27.5t27.5 -63.5 q0 -39 -27.5 -67.5t-64.5 -28.5q-40 0 -67 28t-27 68z" />
<glyph unicode="&#xf0;" d="M51 449q0 126 63 233.5t170.5 170t233.5 62.5q158 0 281 -96q-62 180 -181 281q-45 40 -94 69l-39 -71q-30 -58 -88 -27q-48 25 -16 84l39 72q-80 38 -160 55q-57 15 -57 74v10q0 34 18.5 49.5t50.5 9.5q109 -16 215 -69l41 76q31 57 88 26q51 -25 19 -84l-43 -80 q64 -41 119 -88q68 -58 119.5 -132t80 -147t47.5 -147.5t24 -137.5t6.5 -112.5t-0.5 -77.5l-3 -28q-11 -183 -147 -315t-320 -132q-125 0 -233.5 65t-171 174t-62.5 233zM195 449q0 -135 94 -235.5t229 -100.5t229.5 100.5t94.5 235.5q0 137 -94 234t-230 97t-229.5 -97 t-93.5 -234z" />
<glyph unicode="&#xf1;" horiz-adv-x="1067" d="M143 66v770q0 65 66 65h6q66 0 66 -65v-43q113 122 294 122q195 0 282 -93.5t87 -307.5v-448q0 -66 -65 -66h-7q-65 0 -65 66v448q0 132 -59.5 199t-172.5 67q-139 3 -216.5 -74t-77.5 -227v-413q0 -66 -66 -66h-6q-66 0 -66 66zM268 1180q49 118 185 118q39 0 69 -13.5 t45 -29.5t33.5 -29.5t36.5 -13.5q37 0 55 25q3 4 11 13.5t11 12.5t9.5 9t11.5 8t13 4t18 2q74 0 68 -31q-4 -25 -16 -49.5t-33.5 -50.5t-60 -42.5t-87.5 -16.5q-34 0 -63 13.5t-44.5 29.5t-36 29.5t-40.5 13.5q-38 0 -56 -25q-4 -5 -11 -13.5t-10.5 -12l-9.5 -9.5t-11.5 -8 t-13 -4t-17.5 -2q-35 0 -52 20.5t-4 51.5z" />
<glyph unicode="&#xf2;" horiz-adv-x="1077" d="M72 449q0 126 63 233.5t170.5 170t233.5 62.5t233.5 -62.5t170.5 -170t63 -233.5q0 -124 -62.5 -233t-171 -174t-233.5 -65t-233.5 65t-171 174t-62.5 233zM215 449q0 -135 94.5 -235.5t229.5 -100.5t229 100.5t94 235.5q0 137 -93.5 234t-229.5 97t-230 -97t-94 -234z M387 1389q12 24 53 24h25q52 0 80 -41l127 -176q25 -34 12.5 -57t-53.5 -23h-6q-47 0 -80 39l-144 178q-26 32 -14 56z" />
<glyph unicode="&#xf3;" horiz-adv-x="1077" d="M72 449q0 126 63 233.5t170.5 170t233.5 62.5t233.5 -62.5t170.5 -170t63 -233.5q0 -124 -62.5 -233t-171 -174t-233.5 -65t-233.5 65t-171 174t-62.5 233zM215 449q0 -135 94.5 -235.5t229.5 -100.5t229 100.5t94 235.5q0 137 -93.5 234t-229.5 97t-230 -97t-94 -234z M401.5 1139q-12.5 23 12.5 57l127 176q28 41 80 41h24q41 0 53 -24t-14 -56l-143 -178q-33 -39 -80 -39h-6q-41 0 -53.5 23z" />
<glyph unicode="&#xf4;" horiz-adv-x="1077" d="M72 449q0 126 63 233.5t170.5 170t233.5 62.5t233.5 -62.5t170.5 -170t63 -233.5q0 -124 -62.5 -233t-171 -174t-233.5 -65t-233.5 65t-171 174t-62.5 233zM215 449q0 -135 94.5 -235.5t229.5 -100.5t229 100.5t94 235.5q0 137 -93.5 234t-229.5 97t-230 -97t-94 -234z M328 1135q-31 22 10 75l141 183q3 4 8.5 10.5t8 9t6.5 7t7 6t8 3.5t11 2.5t13 0.5q10 0 17 -1t12.5 -5t8.5 -7t10 -12t11 -14l141 -183q42 -54 0 -82q-41 -28 -82 19l-118 133l-121 -135q-41 -44 -92 -10z" />
<glyph unicode="&#xf5;" horiz-adv-x="1077" d="M72 449q0 126 63 233.5t170.5 170t233.5 62.5t233.5 -62.5t170.5 -170t63 -233.5q0 -124 -62.5 -233t-171 -174t-233.5 -65t-233.5 65t-171 174t-62.5 233zM215 449q0 -135 94.5 -235.5t229.5 -100.5t229 100.5t94 235.5q0 137 -93.5 234t-229.5 97t-230 -97t-94 -234z M268 1180q49 118 185 118q39 0 69 -13.5t45 -29.5t33.5 -29.5t36.5 -13.5q37 0 55 25q3 4 11 13.5t11 12.5t9.5 9t11.5 8t13 4t18 2q74 0 68 -31q-4 -25 -16 -49.5t-33.5 -50.5t-60 -42.5t-87.5 -16.5q-34 0 -63 13.5t-44.5 29.5t-36 29.5t-40.5 13.5q-38 0 -56 -25 q-4 -5 -11 -13.5t-10.5 -12l-9.5 -9.5t-11.5 -8t-13 -4t-17.5 -2q-35 0 -52 20.5t-4 51.5z" />
<glyph unicode="&#xf6;" horiz-adv-x="1077" d="M72 449q0 126 63 233.5t170.5 170t233.5 62.5t233.5 -62.5t170.5 -170t63 -233.5q0 -124 -62.5 -233t-171 -174t-233.5 -65t-233.5 65t-171 174t-62.5 233zM215 449q0 -135 94.5 -235.5t229.5 -100.5t229 100.5t94 235.5q0 137 -93.5 234t-229.5 97t-230 -97t-94 -234z M248 1212q0 36 27.5 63.5t66.5 27.5q36 0 64 -27.5t28 -63.5q0 -39 -27.5 -67.5t-64.5 -28.5q-40 0 -67 28t-27 68zM643 1212q0 36 27.5 63.5t66.5 27.5q37 0 64.5 -27.5t27.5 -63.5q0 -39 -27.5 -67.5t-64.5 -28.5q-40 0 -67 28t-27 68z" />
<glyph unicode="&#xf7;" d="M98 561v6q0 66 66 66h893q65 0 65 -66v-6q0 -65 -65 -65h-893q-66 0 -66 65zM506 100q0 46 34 79.5t81 33.5q46 0 79 -33.5t33 -79.5q0 -47 -33 -80.5t-79 -33.5q-47 0 -81 33.5t-34 80.5zM506 1018q0 46 34 79t81 33q46 0 79 -33t33 -79q0 -47 -33 -81t-79 -34 q-47 0 -81 34t-34 81z" />
<glyph unicode="&#xf8;" horiz-adv-x="1036" d="M72 449q0 126 63 233.5t170.5 170t233.5 62.5q39 0 79 -6l37 115q9 29 32.5 41.5t51.5 3.5h2q26 -11 37 -33.5t2 -50.5l-39 -117q119 -58 192 -170.5t73 -248.5q0 -124 -62.5 -233t-171 -174t-233.5 -65q-43 0 -86 9l-33 -101q-9 -28 -32.5 -40t-51.5 -3q-26 9 -38 32.5 t-3 49.5l35 105q-117 61 -187.5 174.5t-70.5 245.5zM215 449q0 -89 42.5 -165.5t115.5 -121.5l202 616q-12 2 -36 2q-136 0 -230 -97t-94 -234zM496 115q7 0 21.5 -1t21.5 -1q135 0 229 100.5t94 235.5q0 91 -44 168t-120 120z" />
<glyph unicode="&#xf9;" horiz-adv-x="1067" d="M123 387v449q0 65 65 65h7q65 0 65 -65v-449q0 -132 59.5 -199t172.5 -67q139 0 216.5 77t77.5 224v414q0 65 66 65h6q66 0 66 -65v-770q0 -66 -66 -66h-6q-66 0 -66 66v43q-114 -123 -294 -123q-195 0 -282 93.5t-87 307.5zM365 1389q12 24 53 24h24q52 0 80 -41 l127 -176q25 -34 12.5 -57t-53.5 -23h-6q-47 0 -80 39l-143 178q-26 32 -14 56z" />
<glyph unicode="&#xfa;" horiz-adv-x="1067" d="M123 387v449q0 65 65 65h7q65 0 65 -65v-449q0 -132 59.5 -199t172.5 -67q139 0 216.5 77t77.5 224v414q0 65 66 65h6q66 0 66 -65v-770q0 -66 -66 -66h-6q-66 0 -66 66v43q-114 -123 -294 -123q-195 0 -282 93.5t-87 307.5zM378.5 1139q-12.5 23 12.5 57l127 176 q28 41 80 41h25q41 0 53 -24t-14 -56l-144 -178q-33 -39 -80 -39h-6q-41 0 -53.5 23z" />
<glyph unicode="&#xfb;" horiz-adv-x="1067" d="M123 387v449q0 65 65 65h7q65 0 65 -65v-449q0 -132 59.5 -199t172.5 -67q139 0 216.5 77t77.5 224v414q0 65 66 65h6q66 0 66 -65v-770q0 -66 -66 -66h-6q-66 0 -66 66v43q-114 -123 -294 -123q-195 0 -282 93.5t-87 307.5zM305 1135q-31 22 10 75l142 183q4 4 10 12 t8.5 10.5t7.5 7t9 5.5t10.5 2.5t15.5 1.5q10 0 17 -1t13 -5.5t8.5 -7t10 -11.5t11.5 -14l141 -183q42 -54 0 -82q-41 -28 -82 19l-119 133l-121 -135q-41 -44 -92 -10z" />
<glyph unicode="&#xfc;" horiz-adv-x="1067" d="M123 387v449q0 65 65 65h7q65 0 65 -65v-449q0 -132 59.5 -199t172.5 -67q139 0 216.5 77t77.5 224v414q0 65 66 65h6q66 0 66 -65v-770q0 -66 -66 -66h-6q-66 0 -66 66v43q-114 -123 -294 -123q-195 0 -282 93.5t-87 307.5zM225 1212q0 36 27.5 63.5t66.5 27.5 q37 0 65 -28t28 -63q0 -39 -28 -67.5t-65 -28.5q-40 0 -67 28t-27 68zM621 1212q0 36 27.5 63.5t66.5 27.5q37 0 64.5 -27.5t27.5 -63.5q0 -39 -27.5 -67.5t-64.5 -28.5q-40 0 -67 28t-27 68z" />
<glyph unicode="&#xfd;" horiz-adv-x="972" d="M47 879q13 22 51 22h23q55 0 78 -47l293 -590l294 590q23 47 78 47h23q38 0 51 -22t-4 -56l-592 -1185q-23 -48 -78 -48h-22q-38 0 -51 22t4 56l217 434l-361 721q-17 34 -4 56zM341.5 1108q-12.5 23 12.5 57l127 176q28 41 80 41h25q41 0 53 -23.5t-14 -55.5l-144 -179 q-33 -39 -80 -39h-6q-41 0 -53.5 23z" />
<glyph unicode="&#xfe;" d="M164 -178v1331q0 66 65 66h19q65 0 65 -66v-238q371 0 532 -108t161 -358q0 -252 -161.5 -362t-531.5 -110v-155q0 -66 -65 -66h-19q-65 0 -65 66zM313 113q293 0 421 78t128 258q0 178 -127.5 255.5t-421.5 77.5v-669z" />
<glyph unicode="&#xff;" horiz-adv-x="972" d="M47 879q13 22 51 22h23q55 0 78 -47l293 -590l294 590q23 47 78 47h23q38 0 51 -22t-4 -56l-592 -1185q-23 -48 -78 -48h-22q-38 0 -51 22t4 56l217 434l-361 721q-17 34 -4 56zM188 1182q0 36 28 63t67 27q37 0 64.5 -27.5t27.5 -62.5q0 -40 -27.5 -68.5t-64.5 -28.5 q-40 0 -67.5 28.5t-27.5 68.5zM584 1182q0 36 27.5 63t66.5 27q37 0 64.5 -27.5t27.5 -62.5q0 -40 -27.5 -68.5t-64.5 -28.5q-39 0 -66.5 28.5t-27.5 68.5z" />
<glyph unicode="&#x152;" horiz-adv-x="2439" d="M72 741q0 148 60.5 285t162.5 237t243.5 160t295.5 60q185 0 346 -83t268 -224v221q0 65 65 65h717q66 0 66 -65v-13q0 -65 -66 -65h-633v-410h594q66 0 66 -65v-13q0 -65 -66 -65h-594v-623h633q66 0 66 -65v-12q0 -66 -66 -66h-717q-65 0 -65 66v229 q-106 -144 -267.5 -227.5t-346.5 -83.5q-155 0 -296 60t-243 161.5t-162.5 241.5t-60.5 294zM227 741q0 -166 80.5 -306t220.5 -221t306 -81t305.5 81t220 221t80.5 306q0 159 -80.5 295t-220 216.5t-305.5 80.5t-306 -80.5t-220.5 -216.5t-80.5 -295z" />
<glyph unicode="&#x153;" horiz-adv-x="2072" d="M115 449q0 126 63 233.5t170.5 170t233.5 62.5q125 0 232.5 -63t170.5 -168q61 105 168.5 168t232.5 63q126 0 233.5 -62.5t170.5 -170t63 -233.5v-31q0 -33 -65 -33h-719q22 -115 110.5 -193.5t206.5 -78.5q127 0 218 88q37 37 82 37h26q40 0 54.5 -24t-9.5 -56 q-65 -84 -162.5 -132.5t-208.5 -48.5q-125 0 -232.5 64.5t-168.5 171.5q-63 -107 -170.5 -171.5t-232.5 -64.5t-233.5 65t-171 174t-62.5 233zM258 449q0 -135 94.5 -235.5t229.5 -100.5t229 100.5t94 235.5q0 137 -93.5 234t-229.5 97t-230 -97t-94 -234zM1069 516h635 q-24 114 -112 189t-206 75t-205.5 -75t-111.5 -189z" />
<glyph unicode="&#x178;" horiz-adv-x="1175" d="M35 1440q13 22 51 22h23q55 0 75 -47l404 -823l403 823q20 47 76 47h23q38 0 51 -22t-4 -56l-656 -1337q-20 -47 -75 -47h-27q-36 0 -48.5 22t3.5 56l172 350l-469 956q-15 34 -2 56zM328 1743q0 36 27.5 63t66.5 27q37 0 64.5 -27.5t27.5 -62.5q0 -39 -27.5 -67.5 t-64.5 -28.5q-40 0 -67 28t-27 68zM723 1743q0 36 27.5 63t66.5 27q37 0 64.5 -27.5t27.5 -62.5q0 -39 -27.5 -67.5t-64.5 -28.5q-40 0 -67 28t-27 68z" />
<glyph unicode="&#x2c6;" d="M414 1104q-32 22 10 76l141 182q3 4 8.5 10.5t8 9t6.5 7t7 6t8 3.5t11 2.5t13 0.5q10 0 17 -1t12.5 -5t8.5 -7t10 -12t11 -14l141 -182q42 -54 0 -82t-82 18l-118 133l-121 -135q-41 -44 -92 -10z" />
<glyph unicode="&#x2dc;" d="M315 1149q50 119 185 119q39 0 69 -13.5t45 -29.5t33.5 -29.5t36.5 -13.5q38 0 55 24q3 4 11 13.5t11 12.5t9.5 9t11.5 8t13 4t18 2q35 0 53 -7.5t15 -22.5q-4 -25 -16 -49.5t-33.5 -51t-60 -43t-87.5 -16.5q-34 0 -63 13.5t-44.5 29.5t-36 29.5t-40.5 13.5 q-38 0 -56 -25q-4 -5 -11 -13.5t-10.5 -12l-9.5 -9.5t-11.5 -8t-13 -4t-17.5 -2q-35 0 -52 20.5t-4 51.5z" />
<glyph unicode="&#x2000;" horiz-adv-x="998" />
<glyph unicode="&#x2001;" horiz-adv-x="1997" />
<glyph unicode="&#x2002;" horiz-adv-x="998" />
<glyph unicode="&#x2003;" horiz-adv-x="1997" />
<glyph unicode="&#x2004;" horiz-adv-x="665" />
<glyph unicode="&#x2005;" horiz-adv-x="499" />
<glyph unicode="&#x2006;" horiz-adv-x="332" />
<glyph unicode="&#x2007;" horiz-adv-x="332" />
<glyph unicode="&#x2008;" horiz-adv-x="249" />
<glyph unicode="&#x2009;" horiz-adv-x="399" />
<glyph unicode="&#x200a;" horiz-adv-x="110" />
<glyph unicode="&#x2010;" horiz-adv-x="1050" d="M133 582v6q0 65 66 65h653q66 0 66 -65v-6q0 -66 -66 -66h-653q-66 0 -66 66z" />
<glyph unicode="&#x2011;" horiz-adv-x="1050" d="M133 582v6q0 65 66 65h653q66 0 66 -65v-6q0 -66 -66 -66h-653q-66 0 -66 66z" />
<glyph unicode="&#x2012;" horiz-adv-x="1050" d="M133 582v6q0 65 66 65h653q66 0 66 -65v-6q0 -66 -66 -66h-653q-66 0 -66 66z" />
<glyph unicode="&#x2013;" horiz-adv-x="1146" d="M61 561v6q0 66 66 66h893q65 0 65 -66v-6q0 -65 -65 -65h-893q-66 0 -66 65z" />
<glyph unicode="&#x2014;" horiz-adv-x="2170" d="M61 561v6q0 66 66 66h1917q65 0 65 -66v-6q0 -65 -65 -65h-1917q-66 0 -66 65z" />
<glyph unicode="&#x2018;" horiz-adv-x="409" d="M68 1198q0 34 22 78l74 139q23 47 78 47q13 0 -6 -73l-21 -82q35 -11 57.5 -41t22.5 -68q0 -46 -34 -79.5t-81 -33.5q-46 0 -79 33.5t-33 79.5z" />
<glyph unicode="&#x2019;" horiz-adv-x="409" d="M51 1360q0 46 34 79.5t81 33.5q46 0 79.5 -33.5t33.5 -79.5q0 -32 -23 -78l-74 -139q-23 -47 -78 -47q-6 1 -4 19t11 54l20 82q-35 11 -57.5 41t-22.5 68z" />
<glyph unicode="&#x201a;" horiz-adv-x="409" d="M51 104q0 46 34 79.5t81 33.5q46 0 79.5 -33.5t33.5 -79.5q0 -31 -23 -77l-74 -140q-23 -47 -78 -47q-12 0 7 74l20 82q-36 11 -58 40.5t-22 67.5z" />
<glyph unicode="&#x201c;" horiz-adv-x="788" d="M111 1198q0 34 22 78l74 139q23 47 78 47q13 0 -6 -73l-21 -82q35 -11 57.5 -41t22.5 -68q0 -46 -34 -79.5t-81 -33.5q-46 0 -79 33.5t-33 79.5zM426 1198q0 32 23 78l73 139q23 47 78 47q13 0 -6 -73l-21 -82q35 -11 57.5 -41t22.5 -68q0 -46 -33.5 -79.5t-80.5 -33.5 q-46 0 -79.5 33.5t-33.5 79.5z" />
<glyph unicode="&#x201d;" horiz-adv-x="788" d="M135 1360q0 46 34 79.5t81 33.5q46 0 79 -33.5t33 -79.5q0 -34 -22 -78l-74 -139q-23 -47 -78 -47q-6 1 -4 19t11 54l20 82q-35 11 -57.5 41t-22.5 68zM451 1360q0 46 33.5 79.5t80.5 33.5q46 0 79.5 -33.5t33.5 -79.5q0 -32 -23 -78l-73 -139q-23 -47 -78 -47 q-13 0 6 73l20 82q-35 11 -57 41t-22 68z" />
<glyph unicode="&#x201e;" horiz-adv-x="808" d="M135 104q0 46 34 79.5t81 33.5q46 0 79 -33.5t33 -79.5q0 -33 -22 -77l-74 -140q-23 -47 -78 -47q-12 0 7 74l20 82q-36 11 -58 40.5t-22 67.5zM451 104q0 46 33.5 79.5t80.5 33.5q46 0 79.5 -33.5t33.5 -79.5q0 -31 -23 -77l-73 -140q-23 -47 -78 -47q-4 0 -4.5 8.5 t2 25.5t8.5 40l20 82q-35 11 -57 40.5t-22 67.5z" />
<glyph unicode="&#x2022;" d="M365 641q0 98 72.5 173t178.5 75q97 0 173.5 -76.5t76.5 -171.5q0 -99 -76.5 -176.5t-173.5 -77.5q-106 0 -178.5 76t-72.5 178z" />
<glyph unicode="&#x2026;" horiz-adv-x="1126" d="M51 104q0 46 34 79.5t81 33.5q46 0 79.5 -33.5t33.5 -79.5q0 -47 -33.5 -80.5t-79.5 -33.5q-47 0 -81 33.5t-34 80.5zM461 104q0 46 33.5 79.5t80.5 33.5q46 0 79.5 -33.5t33.5 -79.5q0 -47 -33.5 -80.5t-79.5 -33.5q-47 0 -80.5 33.5t-33.5 80.5zM870 104q0 46 34 79.5 t81 33.5q46 0 79.5 -33.5t33.5 -79.5q0 -47 -33.5 -80.5t-79.5 -33.5q-47 0 -81 33.5t-34 80.5z" />
<glyph unicode="&#x202f;" horiz-adv-x="399" />
<glyph unicode="&#x2039;" horiz-adv-x="669" d="M123 463l239 303q33 39 80 39h2q41 0 53 -24t-14 -56l-207 -262l207 -262q26 -32 22.5 -56t-34.5 -24h-29q-47 0 -80 39z" />
<glyph unicode="&#x203a;" horiz-adv-x="669" d="M164 145q-4 24 22 56l207 262l-207 262q-26 32 -14 56t53 24h2q47 0 80 -39l240 -303l-240 -303q-33 -39 -80 -39h-28q-31 0 -35 24z" />
<glyph unicode="&#x205f;" horiz-adv-x="499" />
<glyph unicode="&#x20ac;" horiz-adv-x="1118" d="M-53 610q0 66 65 66h144v49q0 43 2 63h-146q-65 0 -65 66t65 66h160q23 135 79 244t142 186.5t207.5 110.5t265.5 12q60 -9 60 -70v-17q0 -69 -72 -59q-105 16 -194.5 -8t-154 -81.5t-108 -137.5t-65.5 -180h518q35 0 49.5 -20t3.5 -54l-2 -4q-15 -54 -74 -54h-514 q-2 -20 -2 -63l2 -49h484q37 0 51 -20.5t2 -55.5v-2q-17 -53 -74 -53h-446q42 -210 177.5 -326t346.5 -84q72 10 72 -59v-17q0 -62 -64 -71q-146 -20 -268 13.5t-207 111t-140 187t-77 245.5h-158q-65 0 -65 65z" />
<glyph unicode="&#x2122;" horiz-adv-x="1607" d="M82 1442q0 26 65 26h484q65 0 65 -65q0 -27 -65 -27h-205v-594q0 -65 -47 -65q-49 0 -49 65v594h-183q-65 0 -65 66zM778 782v621q0 65 66 65q35 0 59 -49l250 -583l252 583q24 49 74 49q49 0 49 -65v-621q0 -65 -66 -65q-28 0 -28 65v455l-207 -471q-24 -49 -78 -49 q-44 0 -68 49l-207 473v-457q0 -65 -65 -65q-31 0 -31 65z" />
<glyph unicode="&#x25fc;" horiz-adv-x="901" d="M0 0v901h901v-901h-901z" />
</font>
</defs>
</svg>
