<?xml version="1.0" standalone="no"?>
<!DOCTYPE svg PUBLIC "-//W3C//DTD SVG 1.1//EN" "http://www.w3.org/Graphics/SVG/1.1/DTD/svg11.dtd" >
<svg xmlns="http://www.w3.org/2000/svg" xmlns:xlink="http://www.w3.org/1999/xlink" version="1.1">
<metadata></metadata>
<defs>
<font id="exo_2medium_italic" horiz-adv-x="1175" >
<font-face units-per-em="2048" ascent="1638" descent="-410" />
<missing-glyph horiz-adv-x="454" />
<glyph unicode="&#xfb01;" horiz-adv-x="1257" d="M-242 -391l31 147h154q96 0 137.5 32.5t54.5 127.5l131 930h-178l18 143l181 10l22 154q24 159 101 237t231 78q164 0 248 -14l-15 -147h-169q-94 0 -140 -42.5t-59 -142.5l-17 -123h670l-141 -999h-199l119 846h-471l-135 -961q-21 -142 -102.5 -217.5t-223.5 -75.5 q-103 0 -248 17zM987 1257l17 115q6 53 61 53h94q29 0 43.5 -16.5t9.5 -44.5l-14 -115q-5 -30 -18.5 -42.5t-42.5 -12.5h-95q-29 0 -44 17t-11 46z" />
<glyph unicode="&#xfb02;" horiz-adv-x="1380" d="M-242 -391l31 147h154q96 0 137.5 32.5t54.5 127.5l131 930h-178l18 143l181 10l22 154q24 159 101 237.5t231 77.5q445 0 598 -24l-162 -1184q-8 -64 17.5 -94.5t89.5 -30.5h98l8 -129q-55 -24 -188 -24q-121 0 -182 64t-46 177l152 1086h-321q-93 1 -139 -42t-60 -145 l-17 -123h287l-20 -153h-289l-135 -961q-21 -142 -102.5 -217.5t-223.5 -75.5q-103 0 -248 17z" />
<glyph horiz-adv-x="0" />
<glyph horiz-adv-x="682" />
<glyph unicode=" "  horiz-adv-x="454" />
<glyph unicode="&#x09;" horiz-adv-x="454" />
<glyph unicode="&#xa0;" horiz-adv-x="454" />
<glyph unicode="!" horiz-adv-x="563" d="M109 76l18 110q6 68 76 68h51q77 0 65 -76l-14 -108q-6 -70 -76 -70h-51q-78 0 -69 76zM180 436l33 375l86 612h197l-88 -612l-70 -375h-158z" />
<glyph unicode="&#x22;" horiz-adv-x="729" d="M197 971l51 442h160l-76 -442h-135zM498 971l51 442h160l-74 -442h-137z" />
<glyph unicode="#" horiz-adv-x="1404" d="M57 430l41 125h236l112 354h-237l43 125h233l119 379h156l-119 -379h358l119 379h156l-119 -379h229l-43 -125h-225l-112 -354h227l-43 -125h-223l-136 -430h-155l135 430h-358l-136 -430h-155l135 430h-238zM489 555h359l113 354h-359z" />
<glyph unicode="$" horiz-adv-x="1157" d="M53 16l27 152l352 -10l105 475l-129 45q-146 53 -198.5 148.5t-31.5 250.5q10 68 27.5 120.5t41.5 90.5t58.5 65t71.5 43.5t88.5 26t101.5 12.5t117 3h43l43 196h94l-43 -200q160 -7 289 -41l-23 -148q-192 8 -305 10l-102 -464l108 -39q157 -55 206.5 -146.5 t27.5 -255.5q-13 -94 -39.5 -159t-66 -108t-102.5 -66.5t-138 -32.5t-184 -9h-7l-51 -231h-94l51 233q-172 8 -338 39zM383 1057q-9 -70 1.5 -107.5t39 -58t94.5 -43.5l74 -27l96 434h-4h-73t-62 -3t-51.5 -10.5t-42 -21.5t-32.5 -35.5t-24 -53t-16 -74.5zM526 158 q81 2 128 10.5t83.5 32t53.5 63.5t26 107q9 70 -2 108t-39 58.5t-92 42.5l-59 20z" />
<glyph unicode="%" horiz-adv-x="1837" d="M145 1028q33 227 116 319.5t261 92.5q190 0 255 -98.5t32 -329.5q-33 -227 -116.5 -319.5t-264.5 -92.5q-186 0 -250 98.5t-33 329.5zM295 1012q-23 -166 3.5 -227.5t123.5 -61.5q120 0 166.5 64t70.5 241q25 165 -2 227t-129 62q-117 0 -163 -64.5t-70 -240.5zM303 0 l1102 1413h154l-1102 -1413h-154zM1059 406q31 226 114 318.5t261 92.5q190 0 254.5 -98t31.5 -328q-33 -227 -116.5 -319t-264.5 -92q-186 0 -249 98t-31 328zM1206 391q-23 -166 3.5 -228.5t125.5 -62.5q119 0 165.5 64.5t70.5 241.5q25 165 -2 226.5t-129 61.5 q-117 0 -163.5 -64.5t-70.5 -238.5z" />
<glyph unicode="&#x26;" horiz-adv-x="1529" d="M86 367q42 345 340 362l2 10q-247 17 -195 336q15 91 47 155.5t75.5 104.5t110 62.5t137.5 30.5t171 8q176 0 352 -45l-34 -152q-126 27 -310 27q-94 0 -150.5 -8.5t-99.5 -34t-64.5 -70.5t-33.5 -121q-21 -131 27.5 -177t197.5 -46h428q7 148 5 256h180q3 -156 -4 -256 h213l-23 -156h-205q-37 -228 -125 -368q-192 -305 -641 -308q-237 -2 -331.5 89t-69.5 301zM303 387q-20 -132 24 -181.5t183 -49.5q308 0 453 204q83 112 108 293h-432q-165 0 -238.5 -56t-97.5 -210z" />
<glyph unicode="'" horiz-adv-x="428" d="M197 971l51 442h160l-76 -442h-135z" />
<glyph unicode="(" horiz-adv-x="731" d="M109 647q56 398 219 633.5t458 339.5l23 -96q-212 -97 -335 -313t-173 -578q-48 -345 10 -563t240 -318l-27 -88q-267 105 -369 348t-46 635z" />
<glyph unicode=")" horiz-adv-x="731" d="M-66 -244q212 101 336 322.5t174 570.5q49 351 -9.5 568t-241.5 311l26 88q268 -105 371.5 -346.5t46.5 -638.5q-57 -396 -220.5 -631t-459.5 -340z" />
<glyph unicode="*" horiz-adv-x="917" d="M172 1126l47 109l240 -94l-8 -51l-29 -33zM240 821l245 262l29 332h119l-68 -332l174 -264l-98 -69l-121 254l-190 -252zM608 1090l2 51l256 94l23 -119l-260 -59z" />
<glyph unicode="+" horiz-adv-x="1120" d="M98 539l23 147h375l51 358h151l-51 -358h377l-20 -147h-377l-49 -357h-152l49 357h-377z" />
<glyph unicode="," horiz-adv-x="473" d="M49 -246q52 160 68 250q-31 -3 -47 15.5t-13 48.5l17 118q8 40 26 54t64 14h57q40 0 55 -18t9 -58l-19 -131q-16 -141 -121 -326z" />
<glyph unicode="-" horiz-adv-x="901" d="M119 442l20 152h621l-21 -152h-620z" />
<glyph unicode="." horiz-adv-x="468" d="M57 76l17 110q9 68 76 68h65q41 0 57 -18.5t11 -57.5l-15 -108q-9 -70 -78 -70h-65q-80 0 -68 76z" />
<glyph unicode="/" horiz-adv-x="1083" d="M-47 -137l1022 1550h168l-1022 -1550h-168z" />
<glyph unicode="0" horiz-adv-x="1239" d="M117 444q0 102 7.5 197.5t26.5 197t48.5 187.5t77.5 163.5t109 132t147 86.5t188 32q221 0 325.5 -114.5t104.5 -352.5q0 -1000 -604 -1000q-220 0 -325 115t-105 356zM313 446q0 -157 59 -225.5t185 -68.5q56 0 104 13.5t84.5 41t66 60.5t50.5 80.5t37 92t25.5 103.5 t16 106.5t9 110.5t3.5 106t1 101q0 157 -59.5 226t-187.5 69q-75 0 -135.5 -29.5t-101 -76t-70.5 -116.5t-46 -138.5t-26 -155.5t-12.5 -153.5t-2.5 -146.5z" />
<glyph unicode="1" horiz-adv-x="817" d="M129 1270l375 143h207l-199 -1413h-205l152 1096q11 83 26 129l-352 -109z" />
<glyph unicode="2" horiz-adv-x="1142" d="M25 0l18 133q11 62 35 86l459 443q72 68 123 122.5t101 119t75.5 127t25.5 120.5q0 28 -10 47t-26.5 30.5t-46 18t-60.5 8.5t-78 2q-200 0 -416 -30l-2 159q241 52 439 52q76 0 134 -6.5t111.5 -23.5t88 -46t55 -75.5t20.5 -110.5q0 -151 -80 -280.5t-235 -277.5 l-445 -428q102 9 215 9h461l-26 -199h-936z" />
<glyph unicode="3" horiz-adv-x="1128" d="M25 10l26 160q36 -2 101 -6.5t95 -6.5t91 -3.5t90 2.5q174 12 266 96.5t92 234.5q0 170 -233 175l-264 6l20 153h256q144 1 212.5 77t68.5 230q0 76 -54 104t-204 28q-133 0 -350 -17l-2 160q225 37 399 37q216 0 310.5 -70.5t94.5 -214.5q0 -97 -28 -186.5t-87 -153 t-137 -70.5l-4 -8q101 -17 154 -82t53 -172q0 -241 -143 -372.5t-408 -137.5q-195 -3 -415 37z" />
<glyph unicode="4" horiz-adv-x="1257" d="M60 469.5q-5 55.5 28 116.5l502 827h205l-498 -833q-47 -78 31 -78h454l58 409l69 230h158l-90 -639h184l-20 -146l-187 -20l-47 -336h-194l47 336h-527q-73 0 -120.5 39t-52.5 94.5z" />
<glyph unicode="5" horiz-adv-x="1095" d="M29 27l34 166q181 -45 340 -35q365 22 365 346q0 105 -78.5 147.5t-271.5 53.5l-154 14q-40 1 -63 30.5t-15 69.5l115 594h762l-35 -176h-586l-69 -352l151 -15q221 -20 332 -103.5t111 -256.5q0 -241 -136 -381t-382 -154q-200 -10 -420 52z" />
<glyph unicode="6" horiz-adv-x="1169" d="M115 402.5q1 114.5 24 277.5q27 191 65.5 323.5t87.5 218t121.5 133t154 65.5t198.5 18q204 0 317 -31l-36 -150q-107 7 -289 7q-71 0 -122.5 -12.5t-97 -44t-78.5 -88t-60 -143t-48 -210.5q85 85 168.5 121.5t198.5 36.5q169 0 252.5 -73.5t83.5 -211.5 q0 -664 -535 -664q-112 0 -188 23t-126 72t-71 133.5t-20 199zM309.5 332q5.5 -98 58.5 -139t179 -41q162 0 238.5 112.5t76.5 317.5q0 94 -38 135t-152 41q-88 0 -169.5 -38.5t-174.5 -125.5q-24 -164 -18.5 -262z" />
<glyph unicode="7" horiz-adv-x="1048" d="M166 1239l16 174h807q66 0 88.5 -37.5t-6.5 -97.5l-616 -1278h-205l549 1135q25 57 61 108z" />
<glyph unicode="8" horiz-adv-x="1239" d="M96 360q25 173 89.5 267.5t195.5 107.5l2 8q-194 23 -154 326q15 100 43 165.5t84 112.5t145 68t222 21q137 -1 224.5 -23.5t133 -69.5t57 -119t-2.5 -171q-42 -297 -246 -318l-2 -8q123 -13 164 -111t16 -272q-11 -79 -31 -135t-57.5 -101.5t-95.5 -72.5t-142 -42 t-200 -16q-261 -1 -366.5 92t-78.5 291zM291 276.5q4 -45.5 35 -72.5t86.5 -38.5t150.5 -11.5q115 0 180 24.5t95.5 77.5t42.5 150q8 52 9 88t-7.5 64.5t-26 45.5t-50.5 28t-76 15t-107 4q-93 -1 -146 -10t-93 -38.5t-58.5 -78.5t-30.5 -135q-8 -67 -4 -112.5zM404 956 q-2 -34 8 -58t26 -40t47.5 -25.5t72 -13.5t99.5 -4q110 0 167.5 21.5t83.5 69.5t38 143q17 84 2 133t-69.5 68.5t-171.5 19.5q-86 0 -139 -11.5t-86 -41.5t-47.5 -71t-24.5 -112q-4 -44 -6 -78z" />
<glyph unicode="9" horiz-adv-x="1167" d="M92 8l29 150q135 -9 289 -6q88 2 149 18.5t107 48.5t78.5 92t55.5 138t46 198q-82 -87 -162 -123.5t-184 -36.5q-90 -1 -156.5 22t-105 65t-61 101t-24.5 129t5 150q30 261 157.5 372.5t368.5 111.5q112 0 188 -23t126 -73t70 -136t17.5 -204.5t-28.5 -286.5 q-28 -185 -66.5 -312.5t-88 -212t-121.5 -131.5t-156.5 -65.5t-204.5 -18.5q-170 0 -328 33zM348 942q-19 -157 22.5 -224.5t170.5 -66.5q92 2 165.5 39.5t170.5 134.5q28 166 18.5 264t-60 136.5t-165.5 38.5q-83 0 -140 -18t-94 -59t-57 -99t-31 -146z" />
<glyph unicode=":" horiz-adv-x="493" d="M55 76l17 110q9 68 75 68h66q41 0 57 -18.5t11 -57.5l-15 -108q-9 -70 -78 -70h-65q-80 0 -68 76zM145 727l17 111q9 67 76 67h65q41 0 57 -18.5t11 -57.5l-15 -108q-9 -70 -77 -70h-66q-80 0 -68 76z" />
<glyph unicode=";" horiz-adv-x="501" d="M66 -246q49 153 67 250q-31 -3 -46.5 15.5t-12.5 48.5l16 118q8 40 26 54t64 14h58q40 0 54.5 -18t8.5 -58l-18 -131q-16 -141 -121 -326zM162 727l16 111q9 67 76 67h65q41 0 57 -18.5t11 -57.5l-14 -108q-9 -70 -78 -70h-66q-79 0 -67 76z" />
<glyph unicode="&#x3c;" horiz-adv-x="1073" d="M90 532l23 156l884 350l-20 -164l-707 -268l629 -272l-22 -152z" />
<glyph unicode="=" horiz-adv-x="1198" d="M106 311l21 148h905l-20 -148h-906zM166 743l20 148h906l-21 -148h-905z" />
<glyph unicode="&#x3e;" horiz-adv-x="1075" d="M78 184l22 166l705 271l-627 270l21 151l788 -354l-22 -156z" />
<glyph unicode="?" horiz-adv-x="1024" d="M176 1272v143q14 2 57 10t56.5 10t49.5 7.5t59.5 7t62 4t80 3.5t92.5 1q204 0 305 -81.5t78 -243.5q-8 -61 -35.5 -115t-65 -95.5t-81.5 -81.5t-89 -82t-84.5 -87.5t-70 -107t-43.5 -132.5h-168q9 76 35.5 143.5t62 117t77.5 94.5t83 84t76 76t59.5 79t30.5 86 q15 103 -33 140.5t-182 37.5q-203 0 -412 -18zM313 76l19 110q6 68 76 68h51q77 0 65 -76l-14 -108q-9 -70 -76 -70h-51q-79 0 -70 76z" />
<glyph unicode="@" horiz-adv-x="1593" d="M111 471q20 118 51.5 200.5t70.5 132.5t96.5 78t117.5 37t147 9q168 0 461 -54l-97 -628q-6 -50 8.5 -72t55.5 -22q113 0 161.5 107t86.5 407q11 78 18 132.5t7.5 105.5t0.5 83.5t-14 62.5t-24 46.5t-41.5 30.5t-55 19.5t-75.5 9.5t-91 4.5t-114 0.5h-660l17 148 q312 15 649 18q108 1 184 -3t144.5 -17.5t112 -34.5t78 -58.5t50.5 -86t22 -120t0 -157t-22 -201.5q-24 -203 -56.5 -329t-86.5 -202.5t-125.5 -105t-181.5 -28.5q-222 0 -242 200q-168 -209 -391 -209q-173 0 -239 116t-23 380zM284.5 300q-2.5 -60 12 -95.5t42.5 -48.5 t77 -13q93 0 174 51.5t188 170.5l66 399q-176 4 -182 4q-71 0 -116.5 -4t-84.5 -17t-61.5 -32.5t-42 -57t-31 -83t-23.5 -117.5q-16 -97 -18.5 -157z" />
<glyph unicode="A" horiz-adv-x="1275" d="M-66 0l635 1362q20 51 80 51h209q26 0 46.5 -17t21.5 -42l256 -1354h-205l-70 426h-565l-190 -426h-218zM422 606h455l-89 531q-8 41 -16 123h-61l-54 -123z" />
<glyph unicode="B" horiz-adv-x="1269" d="M86 0l199 1413q176 17 463 17q130 0 215 -17.5t140.5 -61t72.5 -115.5q9 -39 9 -88q0 -43 -7 -95q-22 -153 -88.5 -229.5t-194.5 -88.5l-2 -10q151 -11 203 -109q35 -66 35 -166q0 -49 -9 -106q-17 -110 -50 -179t-93.5 -110t-141.5 -56t-206 -15q-358 0 -545 16z M309 160q80 -2 291 -2q168 0 236 48t88 189q8 42 8 76q0 15 -2 29q-5 44 -18.5 73.5t-46.5 47t-78 24.5t-113 8h-295zM401 811h283q148 0 212.5 49t84.5 184q6 29 6 53q-1 9 -1 15q-2 30 -6 52t-19.5 38t-33 26t-47.5 16t-63 8.5t-80 2.5h-274z" />
<glyph unicode="C" horiz-adv-x="1163" d="M135 715q28 204 74.5 339t124.5 222.5t186 124.5t264 37q133 0 216.5 -10t175.5 -33l-33 -156q-161 16 -363 16q-102 0 -169.5 -23t-120.5 -85.5t-86 -170t-56 -278.5q-18 -126 -20 -214q0 -11 -1 -22q0 -75 13 -131q14 -64 48.5 -101t86.5 -54t129 -18h48q200 0 360 22 l10 -157q-171 -48 -422 -48q-306 -1 -414 175q-71 115 -71 322q0 109 20 243z" />
<glyph unicode="D" horiz-adv-x="1357" d="M86 0l199 1413q264 19 460 19q113 0 197 -16t148.5 -51.5t104 -92t59.5 -138.5q20 -80 20 -184v-6q0 -106 -21 -246q-17 -118 -37.5 -210.5t-49 -165t-60 -125.5t-75.5 -91t-90 -62t-109 -38t-127.5 -19t-149.5 -5q-195 0 -469 18zM313 164q176 -4 240 -4q83 0 141 8 t109.5 31t85.5 61t63.5 101.5t49.5 148t38 205.5q17 117 22 199q2 28 2 53q0 49 -6 89q-10 62 -31 99t-62.5 59.5t-93.5 30.5t-130 8t-274 -4z" />
<glyph unicode="E" horiz-adv-x="1146" d="M115 293l121 874q18 119 96.5 184.5t214.5 65.5q424 0 608 -16l-27 -160h-557q-66 0 -97 -30t-40 -103l-39 -287h596l-20 -157h-598l-49 -365q-2 -19 -3 -36q-1 -43 17 -63q24 -28 92 -28h547l-4 -160q-176 -16 -567 -16q-164 0 -237 78q-58 62 -58 164q0 26 4 55z" />
<glyph unicode="F" horiz-adv-x="1103" d="M82 0l160 1157q20 128 100 194t213 66q412 0 590 -18l-31 -158h-518q-77 0 -110.5 -28t-43.5 -105l-43 -311h578l-23 -158h-577l-90 -639h-205z" />
<glyph unicode="G" horiz-adv-x="1277" d="M133 715q23 177 64.5 305t97.5 209t137 128t170.5 65t210.5 18q233 0 406 -45l-31 -154q-172 16 -350 16q-84 0 -143.5 -8.5t-112 -32.5t-87.5 -62.5t-64.5 -102t-48.5 -149t-34 -204.5q-15 -133 -15 -230q0 -126 25 -194q44 -120 191 -120q99 0 179.5 47.5t191.5 156.5 l63 461h197l-115 -819h-147v190q-92 -108 -197 -162.5t-244 -54.5q-216 0 -301 179q-56 120 -56 333q0 104 13 230z" />
<glyph unicode="H" horiz-adv-x="1368" d="M86 0l199 1413h207l-80 -571h616l80 571h205l-199 -1413h-205l95 664h-617l-94 -664h-207z" />
<glyph unicode="I" horiz-adv-x="546" d="M86 0l199 1413h207l-199 -1413h-207z" />
<glyph unicode="J" horiz-adv-x="700" d="M-20 10l38 146h95q76 0 121.5 38t56.5 109l153 1110h207l-155 -1108q-23 -160 -104 -243q-78 -80 -204 -80h-6q-47 0 -108 8t-94 20z" />
<glyph unicode="K" horiz-adv-x="1226" d="M86 0l199 1413h204l-63 -436q-12 -80 -33 -158h154l489 594h248l-479 -582q-48 -57 -100 -94l-3 -8q42 -51 72 -113l338 -616h-231l-351 653h-161q0 -75 -9 -149l-69 -504h-205z" />
<glyph unicode="L" horiz-adv-x="1046" d="M127 305l152 1108h206l-155 -1114q-2 -16 -2 -30q0 -41 18 -65q24 -32 90 -32h504l-4 -160q-176 -16 -543 -16q-143 0 -215 79q-56 61 -56 165q0 31 5 65z" />
<glyph unicode="M" horiz-adv-x="1802" d="M59 0l242 1333q12 80 90 80h219q66 0 76 -74l133 -827q11 -60 23 -193h37q39 102 75 189l355 838q26 65 94 65l223 2q41 0 62 -24q17 -19 17 -49q0 -7 -1 -15l-129 -1325h-203l129 1243h-39l-428 -1010q-26 -65 -94 -65h-178q-35 0 -56 19.5t-26 54.5l-158 1001h-41 l-217 -1243h-205z" />
<glyph unicode="N" horiz-adv-x="1445" d="M86 0l186 1337q11 76 86 76h174q32 0 50.5 -16.5t31.5 -50.5l318 -936q6 -18 20 -61.5t25.5 -81.5t19.5 -70h35q6 103 21 213l135 1003h203l-189 -1337q-6 -40 -25 -58t-57 -18h-178q-58 0 -80 68l-330 962q-39 116 -55 193h-31q-3 -88 -16 -193l-139 -1030h-205z" />
<glyph unicode="O" horiz-adv-x="1366" d="M117 467q1 109 18 248q54 401 199 563t459 162q200 0 314 -70.5t154 -234.5q20 -83 21 -194q0 -108 -20 -243q-28 -208 -75.5 -345t-126.5 -223t-186 -121.5t-262 -35.5q-99 0 -175.5 16.5t-138 52.5t-99.5 94q-39 58 -61 140q-22 79 -21 182v9zM333 374 q17 -120 82.5 -169t200.5 -49q136 0 218.5 52t133 171.5t81.5 335.5q19 130 21 220v17q0 79 -13 137q-14 64 -50.5 100t-90 52t-134.5 16q-105 0 -175 -26t-121.5 -92t-83 -170.5t-54.5 -270.5q-21 -133 -21 -230q0 -52 6 -94z" />
<glyph unicode="P" horiz-adv-x="1208" d="M86 0l199 1413q185 19 485 19q252 0 348 -104q70 -76 70 -229q0 -56 -10 -122q-20 -139 -54.5 -224t-97.5 -133.5t-144.5 -65.5t-211.5 -17q-143 0 -301 18l-78 -555h-205zM391 713h271q84 0 136.5 12t89 45.5t55.5 85t32 137.5q9 46 9 83q0 14 -2 26q-4 46 -16 75.5 t-41.5 46.5t-67.5 24t-95 7q-215 0 -295 -2z" />
<glyph unicode="Q" horiz-adv-x="1366" d="M117 467q1 109 18 248q54 401 199 563t459 162q200 0 314 -70.5t154 -234.5q20 -83 20 -194q0 -108 -19 -243q-28 -208 -75.5 -345t-126.5 -223t-186 -121.5t-262 -35.5q-99 0 -175.5 16.5t-138 52.5t-99.5 93.5t-61 140.5q-21 78 -21 182v9zM333 374q17 -120 82.5 -169 t200.5 -49q136 0 218.5 52t133 171.5t81.5 335.5q19 130 21 220v17q0 79 -13 137q-14 64 -50.5 100t-90 52t-134.5 16q-105 0 -175 -26t-121.5 -92t-83 -170.5t-54.5 -270.5q-21 -133 -21 -230q0 -52 6 -94zM416 -209l78 123q234 -108 544 -158l-82 -202q-293 70 -540 237z " />
<glyph unicode="R" horiz-adv-x="1271" d="M86 0l199 1413q185 19 485 19q114 0 195 -20t139 -67q56 -47 78 -129q12 -47 13 -107q0 -44 -7 -95q-23 -161 -96.5 -247.5t-219.5 -104.5l-2 -13q122 -35 154 -207l90 -442h-209l-84 444q-13 75 -48.5 106.5t-102.5 31.5q-225 0 -301 2l-82 -584h-201zM393 758h283 q150 2 217 57.5t88 202.5q6 41 6 75q0 77 -32 111q-46 50 -191 51q-64 0 -165 -1t-136 -1z" />
<glyph unicode="S" horiz-adv-x="1150" d="M49 16l27 152q320 -10 407 -10q74 1 120.5 5.5t86.5 16.5t62.5 36t37.5 61t23 94q4 31 4 57q-1 56 -19 82q-26 38 -118 70l-277 98q-147 53 -199 149q-37 68 -36 164q0 40 6 86q13 94 43 160t70 105t103.5 60.5t128.5 28.5t161 7q248 0 424 -45l-23 -148q-212 10 -401 10 h-73t-62.5 -3t-52 -10.5t-42 -21.5t-32.5 -35.5t-23.5 -53t-15.5 -74.5q-4 -32 -4 -58q-1 -29 5 -49q10 -38 39 -58.5t95 -43.5l270 -96q156 -56 206 -148q35 -64 35 -161q0 -43 -7 -93q-13 -94 -39.5 -159t-66.5 -108t-104 -66.5t-139 -32.5t-184 -9q-222 0 -436 41z" />
<glyph unicode="T" horiz-adv-x="1179" d="M129 1231l27 182h1097l-24 -182h-451l-172 -1231h-205l172 1231h-444z" />
<glyph unicode="U" horiz-adv-x="1359" d="M154 551l118 862h207l-123 -872q-11 -79 -11 -140q1 -107 35 -161q54 -84 226 -84q179 0 264.5 88t116.5 307l121 862h207l-125 -872q-42 -309 -175.5 -438.5t-402.5 -129.5q-277 -1 -389 135q-81 98 -81 286q0 72 12 157z" />
<glyph unicode="V" horiz-adv-x="1247" d="M137 1413h207l166 -1104q18 -149 18 -155h54q29 91 61 163l471 1096h217l-614 -1360q-21 -53 -78 -53h-199q-27 0 -45.5 17.5t-21.5 43.5z" />
<glyph unicode="W" horiz-adv-x="1937" d="M170 1413h209l49 -1081q1 -29 2 -89t2 -91h47q11 39 34.5 111t25.5 77l340 1010q19 63 84 63h215q29 0 48 -20.5t21 -51.5l74 -1011q6 -95 6 -152v-26h49q2 6 56 184l346 1077h215l-463 -1358q-21 -55 -84 -55h-223q-29 0 -49.5 19t-22.5 47l-64 1038q-1 26 -5 78.5 t-5 79.5h-43l-51 -166l-348 -1039q-18 -57 -82 -57h-221q-31 0 -52.5 18.5t-23.5 44.5z" />
<glyph unicode="X" horiz-adv-x="1255" d="M-43 0l496 731l-265 682h209l224 -602h53l403 602h226l-461 -682l286 -731h-208l-248 655h-51l-426 -655h-238z" />
<glyph unicode="Y" horiz-adv-x="1169" d="M129 1413h207l203 -584q28 -89 36 -163h19q25 84 82 170l364 577h224l-596 -921l-70 -492h-207l72 496z" />
<glyph unicode="Z" horiz-adv-x="1155" d="M10 0l25 174l878 1065h-718l26 174h944l-26 -174l-879 -1065h746l-25 -174h-971z" />
<glyph unicode="[" horiz-adv-x="671" d="M61 -215l236 1673q8 53 42.5 84t88.5 31h303l-18 -129h-193q-13 0 -26.5 -11.5t-16.5 -25.5l-223 -1587q-3 -29 22 -29h205l-18 -129h-295q-54 0 -84 30.5t-23 92.5z" />
<glyph unicode="\" horiz-adv-x="1050" d="M160 1413h151l592 -1550h-151z" />
<glyph unicode="]" horiz-adv-x="671" d="M-55 -338l18 129h191q15 0 28.5 11.5t16.5 25.5l223 1587q3 29 -23 29h-204l18 129h293q53 0 84 -35.5t24 -87.5l-235 -1673q-8 -53 -43.5 -84t-87.5 -31h-303z" />
<glyph unicode="^" horiz-adv-x="884" d="M104 803l369 436h145l250 -436l-84 -47l-237 352h-17l-350 -352z" />
<glyph unicode="_" horiz-adv-x="899" d="M-92 -150l22 150h899l-22 -150h-899z" />
<glyph unicode="`" horiz-adv-x="657" d="M147 1346l107 141l362 -301l-69 -90z" />
<glyph unicode="a" d="M80 300q0 11 -1 21q0 83 17 191q13 97 33.5 172t45 129t58.5 92.5t69.5 61.5t84.5 36.5t95.5 18t109.5 4.5q110 0 246.5 -15t242.5 -38l-139 -973h-156l11 186q-84 -96 -194.5 -153.5t-237.5 -57.5q-73 0 -124 16.5t-89 55t-54 101t-18 152.5zM279 347q-1 -24 -1 -45 q0 -32 2 -56q4 -40 21 -61t41 -29.5t64 -8.5q94 0 184.5 52t204.5 161l69 496q-188 4 -211 4q-71 0 -115.5 -4t-84 -19.5t-61.5 -37.5t-41.5 -65.5t-31.5 -97t-24 -138.5q-13 -91 -16 -151z" />
<glyph unicode="b" horiz-adv-x="1177" d="M70 47l194 1387h197l-55 -414q-25 -159 -54 -232q96 99 214 167.5t220 68.5q59 0 103 -10t79.5 -34.5t57.5 -64.5q22 -39 33 -99q9 -50 9 -117v-25q-2 -82 -17 -187q-13 -97 -33.5 -173t-44.5 -130t-57.5 -92t-68 -61t-81 -36t-90.5 -17.5t-103 -4.5q-113 0 -253.5 21 t-249.5 53zM281 143q147 -6 219 -6q69 0 112.5 4t82.5 19.5t60.5 38t40.5 66.5t30.5 98t23.5 139q16 114 18 181v16q0 55 -12 89q-14 38 -41 51t-76 13q-67 0 -170.5 -57t-218.5 -160z" />
<glyph unicode="c" horiz-adv-x="995" d="M90 508q40 287 160.5 402.5t378.5 115.5q202 0 327 -53l-30 -123q-123 8 -267 8q-92 0 -150 -14t-104 -54t-71 -111t-39 -185q-9 -76 -10 -130v-10q1 -48 9 -84q10 -40 27 -64.5t49.5 -39t71.5 -20t97 -5.5q168 0 301 23l14 -135q-155 -54 -352 -54q-265 0 -359 123 q-65 86 -65 251q0 72 12 159z" />
<glyph unicode="d" d="M81 298q-1 16 -1 33q0 80 16 181q16 112 40 196t57 140t69.5 91.5t88 54.5t101 25.5t117.5 6.5q137 0 326 -25q0 67 14 189l35 244h199l-201 -1434h-156l11 209q-91 -101 -207.5 -167.5t-245.5 -66.5q-61 0 -107 16.5t-82 54t-53 99.5t-21 153zM280 280q4 -78 31 -105.5 t90 -27.5q93 0 181.5 51t214.5 169l65 493q-92 2 -215 2q-68 0 -111 -4t-82 -18.5t-61 -37.5t-41.5 -66t-31 -98t-23.5 -140q-18 -116 -19 -190q1 -15 2 -28z" />
<glyph unicode="e" horiz-adv-x="1103" d="M92 526q20 148 57 242.5t104 153t159.5 81.5t232.5 23q121 0 201.5 -22t122 -65.5t53.5 -100.5q7 -30 7 -67q0 -32 -5 -69q-24 -146 -114 -210t-277 -78l-346 -31q0 -74 16.5 -122.5t51 -74t77.5 -35.5t107 -10q128 0 368 25l13 -133q-75 -30 -191 -44t-221 -14 q-257 0 -355 134q-71 97 -71 273q0 66 10 144zM299 530l334 31q95 6 137.5 40t54.5 118q3 21 3 37.5t-3 30t-7 23.5t-13.5 18t-18 13t-24.5 8.5t-28.5 5.5t-34.5 3.5t-39.5 1.5h-45.5q-80 0 -130 -13t-88 -50.5t-59.5 -100t-37.5 -166.5z" />
<glyph unicode="f" horiz-adv-x="782" d="M-242 -391l31 147h154q96 0 137.5 32.5t54.5 127.5l131 930h-178l18 143l183 10l24 179q42 290 328 290q200 0 293 -14l-33 -147h-196q-97 0 -139.5 -32.5t-55.5 -127.5l-21 -148h308l-21 -153h-309l-135 -961q-21 -142 -102.5 -217.5t-223.5 -75.5q-103 0 -248 17z" />
<glyph unicode="g" horiz-adv-x="1179" d="M27 -389l20 131q108 -3 213 -3q53 0 105 1q337 4 385 244q11 55 18 87t25 79t43 83q-84 -114 -208 -186t-270 -72q-54 0 -95.5 10.5t-77 34.5t-58 65t-35.5 100q-11 53 -11 124q0 8 1 17q1 82 16 186q14 97 34.5 173t45 130t58 92t67.5 61t80 36t89 17.5t101 4.5 q119 0 260.5 -15t247.5 -38h4l-135 -948q-54 -447 -592 -453q-207 0 -331 39zM282 348q-1 -26 -1 -48q0 -29 3 -52q4 -41 20 -62t40.5 -30t63.5 -9q94 0 185 52.5t204 162.5l71 494q-188 4 -217 4q-69 0 -112.5 -4.5t-82 -19t-61 -37.5t-42 -66t-31 -97t-23.5 -138 q-13 -90 -17 -150z" />
<glyph unicode="h" horiz-adv-x="1187" d="M66 0l202 1434h197l-51 -394q-16 -111 -47 -245q132 118 242.5 174.5t217.5 56.5q128 0 193 -73q50 -56 50 -148q0 -28 -5 -60l-107 -745h-196l96 696q5 35 5 62q-1 44 -13 66q-20 34 -84 34q-86 0 -176 -51.5t-240 -169.5l-86 -637h-198z" />
<glyph unicode="i" horiz-adv-x="514" d="M76 0l139 999h197l-140 -999h-196zM244 1257l18 115q3 53 60 53h94q29 0 43.5 -16.5t9.5 -44.5l-14 -115q-5 -29 -19 -42t-43 -13h-94q-29 0 -43.5 17t-11.5 46z" />
<glyph unicode="j" horiz-adv-x="514" d="M-90 -324q72 73 110.5 148t51.5 170l143 1005h197l-144 -1015q-15 -122 -81.5 -227.5t-168.5 -172.5zM244 1257l18 115q3 53 60 53h94q29 0 43.5 -16.5t9.5 -44.5l-14 -115q-5 -29 -19 -42t-43 -13h-94q-29 0 -43.5 17t-11.5 46z" />
<glyph unicode="k" horiz-adv-x="1079" d="M68 0l200 1434h199l-90 -672q-12 -110 -66 -246q91 44 170.5 94t152.5 110.5t124.5 132t72.5 146.5h203q-82 -268 -332 -446q36 -53 62 -117l194 -436h-213l-192 461q-92 -50 -238 -115l-51 -346h-196z" />
<glyph unicode="l" horiz-adv-x="610" d="M102 248l168 1186h197l-162 -1149q-3 -20 -3 -36q0 -39 18 -59q24 -28 94 -28h94l8 -156q-55 -24 -190 -24q-120 0 -180 70q-47 55 -48 143q0 25 4 53z" />
<glyph unicode="m" horiz-adv-x="1785" d="M66 0l141 999h151l-10 -213q122 125 224.5 182.5t207.5 57.5q114 0 175 -59.5t61 -165.5q117 119 215 172t199 53q130 0 191 -75q47 -57 47 -147q0 -28 -5 -59l-104 -745h-199l98 696q4 28 4 51q0 50 -18 75q-26 36 -92 36q-72 0 -143.5 -45.5t-213.5 -177.5l-88 -635 h-190l96 696q4 30 4 54q-1 45 -15 70q-22 38 -95 38t-145 -45.5t-212 -171.5l-88 -641h-196z" />
<glyph unicode="n" horiz-adv-x="1187" d="M66 0l141 999h158l-11 -215q137 123 251 182.5t222 59.5q128 0 193 -73q50 -56 50 -148q0 -28 -5 -60l-107 -745h-196l96 696q5 35 5 62q-1 44 -13 66q-20 34 -84 34q-85 0 -175.5 -51t-240.5 -168l-86 -639h-198z" />
<glyph unicode="o" horiz-adv-x="1159" d="M90 506q38 283 160.5 401.5t378.5 118.5q257 0 355 -124q70 -88 70 -256q0 -70 -12 -154q-40 -284 -162 -401.5t-374 -117.5q-255 0 -355 124q-72 89 -72 262q0 67 11 147zM295 492q-11 -81 -11 -141q0 -95 26 -139q44 -74 196 -73q159 0 231 78.5t101 288.5 q13 85 13 148q0 89 -26 131q-44 73 -196 73q-81 0 -134 -16t-94 -57.5t-65.5 -111.5t-40.5 -181z" />
<glyph unicode="p" horiz-adv-x="1181" d="M8 -410l201 1409h156l-11 -211q98 98 218.5 167t220.5 69q60 0 104 -10.5t79 -35t56 -65t32 -99.5q8 -49 8 -110v-30q-3 -81 -17 -187q-16 -113 -39.5 -197t-57.5 -140t-71.5 -91.5t-90 -54t-103.5 -25t-122 -6.5q-136 0 -315 27q0 -95 -14 -190l-35 -220h-199zM289 139 q94 -2 209 -2q70 0 114.5 4t84 19t61.5 37.5t41.5 66t31 98.5t23.5 140q16 114 18 180q1 11 1 21q0 52 -11 85q-14 39 -40 51.5t-74 12.5q-68 0 -175 -58t-219 -161z" />
<glyph unicode="q" horiz-adv-x="1169" d="M81 295q-1 18 -1 38q0 79 16 179q19 134 50.5 228t70.5 149.5t96.5 86.5t113.5 40.5t136 9.5q123 0 262.5 -20.5t247.5 -53.5h2l-196 -1362h-197l57 383q23 146 60 236q-212 -234 -453 -234q-60 0 -105.5 15.5t-83 52.5t-54.5 98.5t-22 153.5zM280 279q5 -78 32.5 -105 t93.5 -27q92 0 176 49t213 169l67 491q-144 6 -221 6q-67 0 -109.5 -4t-80.5 -19t-60 -38t-41 -66t-30.5 -98t-22.5 -139q-18 -115 -18 -188q0 -17 1 -31z" />
<glyph unicode="r" horiz-adv-x="821" d="M66 0l141 999h151l-12 -229q256 256 453 256h53l-49 -186h-55q-78 0 -162.5 -46.5t-235.5 -156.5l-86 -637h-198z" />
<glyph unicode="s" horiz-adv-x="1040" d="M39 6l22 148q127 -11 314 -11q189 0 255 20.5t75 82.5q2 11 1.5 20.5t-1.5 17t-5.5 15t-8 12.5t-11.5 11t-14 10t-18 9.5t-20 9.5t-23 10.5t-25 11.5l-269 123q-113 53 -159 119q-36 52 -36 127q0 21 3 44q17 138 117 190q95 50 283 50h22q225 -3 428 -35l-25 -141 q-260 8 -397 10q-135 0 -182 -14.5t-54 -73.5q-3 -22 1.5 -39.5t11.5 -29t27 -24t33 -19t46 -21.5l270 -123q83 -38 126.5 -73.5t63.5 -87.5q13 -34 12 -79q0 -23 -3 -49q-8 -56 -25.5 -97t-49 -68.5t-67.5 -44.5t-91.5 -25.5t-108.5 -11.5t-131 -3q-97 0 -154.5 3.5 t-125 12.5t-107.5 13z" />
<glyph unicode="t" horiz-adv-x="788" d="M82 846l18 143l187 10l43 293h194l-41 -293h308l-21 -153h-309l-80 -561q-3 -20 -3 -37q0 -42 16 -60q22 -26 95 -26h150l8 -154q-91 -26 -233 -26q-133 0 -192 74q-45 56 -45 147q0 30 5 63l84 580h-184z" />
<glyph unicode="u" horiz-adv-x="1165" d="M96 252l105 747h198l-100 -696q-4 -29 -4 -53q0 -47 16 -71q24 -36 95 -36q84 0 164.5 50.5t217.5 173.5l86 632h197l-139 -999h-154l13 209q-126 -121 -234 -178.5t-221 -57.5q-136 1 -198 75q-47 57 -46 146q0 27 4 58z" />
<glyph unicode="v" horiz-adv-x="1097" d="M86 999h207l145 -843h31q40 0 65 12t52 49q59 76 143 289q52 125 81.5 233t55.5 260h205q-27 -139 -76.5 -296t-101.5 -277q-85 -199 -166 -309q-29 -42 -54 -65t-64.5 -37.5t-94.5 -14.5h-170q-26 0 -43 14.5t-22 38.5z" />
<glyph unicode="w" horiz-adv-x="1755" d="M86 999h207l133 -843h29q58 0 100 77q44 81 100 273q46 167 88 444q3 24 18.5 36.5t37.5 12.5h217q42 0 49 -45l92 -798h25q44 0 84 65q44 69 73 127t64 158q78 215 119 493h207q-66 -310 -175 -573q-93 -221 -170 -317q-43 -57 -85.5 -83t-102.5 -26h-131 q-25 0 -41.5 15t-19.5 38l-86 817h-27q-15 -181 -76 -413q-56 -186 -125 -312q-79 -145 -244 -145h-112q-26 0 -42.5 14.5t-21.5 38.5z" />
<glyph unicode="x" horiz-adv-x="1087" d="M-45 0l401 518l-233 481h199l184 -403h55l305 403h215l-370 -483l252 -516h-199l-211 442h-43l-334 -442h-221z" />
<glyph unicode="y" horiz-adv-x="1116" d="M72 -279q130 31 229 92t191 187h-95q-46 0 -79 26t-42 70l-192 903h209l151 -809q6 -34 41 -34h103q5 10 18.5 36t20.5 41q93 192 152.5 366.5t101.5 399.5h206q-55 -243 -120 -436.5t-168 -388.5q-82 -157 -162.5 -264.5t-166 -174t-170 -101.5t-191.5 -54z" />
<glyph unicode="z" horiz-adv-x="1040" d="M12 0l21 162l712 676h-608l23 161h833l-22 -161h2l-713 -676h625l-23 -162h-850z" />
<glyph unicode="{" horiz-adv-x="659" d="M86 604l18 139q3 1 10 3q70 20 91 37q31 28 44 115l1 5l55 400q21 151 114.5 219t287.5 51l-7 -125q-103 0 -150 -39t-61 -131l-49 -354q-18 -130 -60.5 -181.5t-160.5 -72.5q106 -35 139.5 -89t18.5 -161l-66 -473q-14 -92 18 -126t134 -34l-8 -125q-188 -15 -271 57.5 t-61 221.5l72 518q7 48 -2.5 74t-29 38t-68.5 30q-2 0 -3 0.5t-3 1t-3 1.5z" />
<glyph unicode="|" horiz-adv-x="505" d="M49 -346l273 1945h143l-275 -1945h-141z" />
<glyph unicode="}" horiz-adv-x="661" d="M-51 -338l8 125q102 0 148.5 38.5t58.5 129.5l67 473q18 110 63 160t167 86q-105 20 -138.5 76t-13.5 182l51 354q12 93 -18.5 127.5t-132.5 34.5l6 125q192 18 273.5 -59t60.5 -220l-55 -401q-5 -37 -5 -58.5t3.5 -37t15.5 -24t27.5 -15t44.5 -15.5q2 0 3 -0.5t3.5 -1 t4 -1t3.5 -1.5l-19 -139q-81 -28 -103 -46q-38 -30 -48 -105l-74 -517q-21 -152 -111.5 -219.5t-289.5 -50.5z" />
<glyph unicode="~" horiz-adv-x="1064" d="M129 465q3 128 55 192.5t129 61.5t217.5 -57.5t186.5 -59.5q55 -6 80 20.5t34 90.5l99 -8q0 -124 -51 -189t-129 -59q-69 3 -147.5 28.5t-148.5 53t-110 32.5q-55 6 -80 -20.5t-33 -93.5z" />
<glyph unicode="&#xa1;" horiz-adv-x="532" d="M29 -397l84 602l73 375h156l-33 -375l-84 -602h-196zM203 836l14 110q12 70 80 70h51q79 0 64 -78l-15 -109q-5 -36 -22.5 -52.5t-52.5 -16.5h-52q-76 0 -67 76z" />
<glyph unicode="&#xa2;" horiz-adv-x="1034" d="M119 719q41 287 161 402.5t377 115.5h29l43 176h94l-45 -182q132 -14 207 -47l-29 -123q-47 3 -219 8l-159 -717q149 0 290 23l15 -135q-155 -54 -348 -54l-43 -186h-95l45 190q-212 19 -287 143.5t-36 385.5zM326 705q-23 -192 10.5 -264.5t148.5 -84.5l158 713 q-103 -5 -163.5 -36.5t-98.5 -109t-55 -218.5z" />
<glyph unicode="&#xa3;" horiz-adv-x="1167" d="M35 0l24 176q193 87 217 373l13 137h-162l16 119h154l22 264q7 79 24 138t45.5 99.5t62.5 66.5t83 40t99.5 19.5t118.5 5.5q160 0 381 -21l-25 -164q-178 7 -352 7q-123 0 -177 -43.5t-63 -159.5l-18 -252h420l-23 -119h-408l-10 -143q-12 -141 -57.5 -225t-143.5 -154 q43 12 138 12h596l-25 -176h-950z" />
<glyph unicode="&#xa4;" horiz-adv-x="1218" d="M100 346l160 141q-54 102 -39 242q21 149 105 250l-138 156l93 86l137 -162q104 67 248 67q150 0 243 -75l158 143l82 -94l-160 -142q57 -105 39 -245q-18 -147 -100 -244l141 -158l-92 -84l-139 160q-112 -70 -256 -70q-147 0 -242 76l-158 -141zM340 713 q-14 -130 51.5 -206.5t192.5 -76.5q135 -2 223.5 80t101.5 221q14 130 -52 206.5t-193 76.5q-135 0 -222 -81t-102 -220z" />
<glyph unicode="&#xa5;" horiz-adv-x="1265" d="M135 319l15 117h350l10 68l-18 47h-324l14 117h267l-275 745h209l201 -575q31 -87 39 -164h18q25 84 82 170l362 569h226l-486 -745h269l-17 -117h-327l-35 -55l-8 -60h354l-17 -117h-354l-45 -319h-207l45 319h-348z" />
<glyph unicode="&#xa6;" horiz-adv-x="507" d="M49 -346l115 819h143l-114 -819h-144zM207 780l115 819h143l-115 -819h-143z" />
<glyph unicode="&#xa7;" horiz-adv-x="1116" d="M12 -313l25 155q187 -11 375 -14q45 0 74.5 1t63.5 5t55 12t40.5 21t30 33.5t14.5 48.5q10 62 -15 100.5t-81 73.5l-297 178q-70 41 -109.5 88t-50.5 106.5t0 126t43 156.5h144q-32 -127 -14.5 -200.5t104.5 -126.5l319 -199q47 -28 78 -55t56.5 -65t33.5 -89.5t0 -116.5 q-10 -69 -36.5 -118t-61.5 -77t-91.5 -44t-112.5 -20.5t-138 -4.5q-250 4 -449 25zM203 1178q9 65 33 112t59 76t89 45.5t113 22.5t142 6q253 -4 451 -25l-25 -155q-138 9 -373 12q-148 2 -207.5 -18.5t-72.5 -96.5q-10 -61 15 -99t81 -73l303 -184q68 -43 106.5 -92 t48.5 -109.5t-1 -128t-43 -156.5h-144q31 128 12.5 207.5t-104.5 132.5l-317 199q-65 41 -102 77.5t-57 99.5t-7 147z" />
<glyph unicode="&#xa8;" horiz-adv-x="845" d="M272 1260l19 112q8 55 63 55h60q33 0 44.5 -12.5t6.5 -42.5l-19 -110q-6 -54 -59 -54h-65q-56 0 -50 52zM616 1260l17 112q5 29 19.5 42t45.5 13h60q33 0 43.5 -12.5t5.5 -42.5l-19 -110q-3 -54 -57 -54h-65q-56 0 -50 52z" />
<glyph unicode="&#xa9;" horiz-adv-x="1699" d="M129 715q20 153 86.5 285.5t170 230t247.5 153.5t309 56q162 0 294.5 -54.5t220 -151t126.5 -235.5t19 -301q-27 -207 -135 -371t-286.5 -259t-398.5 -95t-379 97.5t-229.5 266t-44.5 378.5zM236 698q-17 -140 15 -257t104.5 -197.5t182 -125t242.5 -44.5q141 0 266 48 t218 132.5t153.5 203.5t77.5 257q22 179 -37 320.5t-191.5 222.5t-316.5 81q-190 0 -345.5 -83t-251 -228t-117.5 -330zM477 719q17 128 49 211t89.5 134.5t136 72t196.5 20.5q127 0 256 -29l-20 -110q-129 6 -221 6q-59 0 -99.5 -4.5t-77 -17.5t-60 -34.5t-43 -58 t-32 -86.5t-22.5 -121q-25 -177 14.5 -241t173.5 -64q184 0 293 13l8 -113q-123 -33 -276 -33q-242 0 -320.5 99.5t-44.5 355.5z" />
<glyph unicode="&#xaa;" horiz-adv-x="915" d="M158 903q12 92 36 157t52 101t71.5 56t81.5 25t95 5q79 0 181.5 -11t174.5 -28l-90 -651h-123l4 109q-123 -123 -287 -123q-122 0 -172.5 81.5t-23.5 278.5zM298 778.5q-1 -42.5 9.5 -65.5t28 -30t49.5 -7q109 0 260 129l45 315q-68 2 -143 2q-72 0 -108 -5.5t-65 -30 t-42 -68t-23 -125.5q-10 -72 -11 -114.5z" />
<glyph unicode="&#xab;" horiz-adv-x="987" d="M72 502l4 45l381 395l80 -72l-304 -356l218 -371l-99 -65zM453 502l4 45l381 395l80 -72l-304 -356l217 -371l-98 -65z" />
<glyph unicode="&#xac;" horiz-adv-x="1200" d="M133 535l21 149h905l-58 -412h-151l37 263h-754z" />
<glyph unicode="&#xad;" horiz-adv-x="901" d="M117 442l20 152h621l-21 -152h-620z" />
<glyph unicode="&#xae;" horiz-adv-x="1126" d="M160 991q23 205 157 326t338 121q95 0 175 -30t138 -86.5t85.5 -146t15.5 -200.5q-22 -209 -153.5 -329t-333.5 -120q-213 0 -329 129.5t-93 335.5zM227 983q-18 -189 80 -292t275 -103q183 0 295 107.5t129 295.5q15 183 -81 284t-272 101q-185 0 -296.5 -108.5 t-129.5 -284.5zM375 725l71 520q74 6 226 6q47 0 78.5 -5t61 -20.5t41 -49t5.5 -84.5q-6 -54 -32.5 -83t-86.5 -44l-2 -4q19 -7 29.5 -23.5t21.5 -52.5l39 -160h-94l-37 162q-9 31 -24 41t-43 10h-135l-29 -213h-90zM504 1004h125q72 2 101.5 19t37.5 75q6 53 -15.5 68.5 t-86.5 15.5h-138z" />
<glyph unicode="&#xaf;" horiz-adv-x="819" d="M223 1241l21 145h579l-20 -145h-580z" />
<glyph unicode="&#xb0;" horiz-adv-x="737" d="M182 1186q9 113 87.5 183.5t195.5 70.5q125 0 194 -78t58 -193q-12 -114 -91 -185t-196 -71q-125 0 -191 80t-57 193zM305 1182q-6 -68 30.5 -109t102.5 -41q65 0 106.5 39t47.5 105q5 65 -29.5 106t-101.5 41q-65 0 -107.5 -38.5t-48.5 -102.5z" />
<glyph unicode="&#xb1;" horiz-adv-x="1193" d="M78 133l20 148h908l-21 -148h-907zM154 666l20 147h377l37 268h153l-39 -268h377l-20 -147h-377l-39 -269h-149l36 269h-376z" />
<glyph unicode="&#xb2;" horiz-adv-x="868" d="M150 735l12 86q6 40 35 66l282 241q90 77 144.5 143t54.5 124q0 40 -33 52.5t-104 12.5q-109 0 -273 -14l8 117q144 28 293 28t217 -32.5t68 -124.5q0 -87 -56 -166.5t-153 -161.5l-274 -238q49 6 133 6l307 -2l-23 -137h-638z" />
<glyph unicode="&#xb3;" horiz-adv-x="841" d="M147 743l27 115q160 -10 260 -10q106 0 156.5 39t50.5 133q0 45 -32.5 70.5t-116.5 25.5h-175l17 115h174q170 3 170 158q0 44 -34.5 60.5t-123.5 16.5q-138 0 -248 -10l9 113q144 24 274 24q149 0 215 -34t66 -113q0 -104 -47.5 -176.5t-139.5 -83.5v-4 q148 -22 148 -156q0 -163 -84.5 -235t-253.5 -72q-124 0 -312 24z" />
<glyph unicode="&#xb4;" horiz-adv-x="657" d="M207 1188l401 301l92 -154l-436 -239z" />
<glyph unicode="&#xb5;" horiz-adv-x="1198" d="M27 -403l96 675q0 3 1 8.5t1 8.5l98 710h199l-98 -696q-10 -74 18.5 -107.5t101.5 -33.5q37 0 77 12t85.5 42t85.5 74t74.5 114.5t54.5 158.5l62 436h198l-106 -770q-8 -53 -0.5 -76.5t41.5 -23.5h82l-2 -121q-110 -28 -178 -28q-82 0 -120.5 41t-27.5 135l6 45 q-59 -98 -160.5 -163t-218.5 -65q-64 0 -116 25l-21 -141l-63 -260h-170z" />
<glyph unicode="&#xb6;" horiz-adv-x="1206" d="M117 934q39 280 194.5 392t491.5 112q191 0 325 -35l-196 -1403h-150l183 1305q-95 6 -177 6l-245 -1741h-150l119 842q-243 25 -336 148t-59 374z" />
<glyph unicode="&#xb7;" horiz-adv-x="489" d="M123 477l16 111q9 67 76 67h66q41 0 56.5 -18t10.5 -57l-14 -109q-9 -70 -78 -70h-66q-79 0 -67 76z" />
<glyph unicode="&#xb8;" horiz-adv-x="483" d="M-66 -473l37 104q77 -3 136 37.5t69 104.5q6 29 -13.5 38.5t-94.5 10.5l22 92q137 13 191 -16.5t36 -124.5q-22 -131 -128 -198.5t-255 -47.5z" />
<glyph unicode="&#xb9;" horiz-adv-x="608" d="M201 1493l245 86h154l-119 -844h-153l88 623q8 52 18 82l-229 -56z" />
<glyph unicode="&#xba;" horiz-adv-x="901" d="M152 901q26 192 109.5 269t264.5 77q189 0 258.5 -82.5t40.5 -279.5q-26 -190 -110.5 -266t-263.5 -76q-185 0 -255.5 82t-43.5 276zM303 885q-17 -130 14 -174.5t138 -44.5q105 0 152 49.5t67 185.5q17 132 -13.5 177.5t-134.5 45.5q-114 0 -157.5 -48.5t-65.5 -190.5z " />
<glyph unicode="&#xbb;" horiz-adv-x="991" d="M45 143l303 357l-217 370l98 66l281 -424l-4 -45l-381 -395zM426 143l303 357l-217 370l98 66l281 -424l-4 -45l-381 -395z" />
<glyph unicode="&#xbc;" horiz-adv-x="1767" d="M168 1327l248 86h153l-118 -848h-156l88 629q7 53 18 86l-231 -61zM193 0l1101 1413h144l-1102 -1413h-143zM922 231.5q-25 38.5 10 104.5l325 512h152l-309 -496q-20 -39 22 -39h281l31 236l47 135h118l-51 -371h109l-17 -106l-110 -12l-27 -195h-143l26 193h-382 q-57 0 -82 38.5z" />
<glyph unicode="&#xbd;" horiz-adv-x="1806" d="M168 1327l248 86h153l-118 -848h-156l88 629q7 53 18 86l-231 -61zM176 0l1102 1413h143l-1102 -1413h-143zM987 0l14 90q3 42 27 66l287 241q97 81 148 142.5t61 115.5q8 48 -23.5 62t-109.5 14q-140 0 -281 -14l-2 117q140 28 289 28q171 0 242 -42.5t53 -164.5 q-9 -64 -56.5 -131.5t-142.5 -150.5l-295 -240q51 6 137 6l318 -2l-19 -137h-647z" />
<glyph unicode="&#xbe;" horiz-adv-x="1961" d="M109 567l12 115q133 -8 256 -8q113 0 163 33t60 116q9 60 -19 90.5t-126 30.5h-181l17 115l170 2q50 0 84.5 11.5t53 33t27 42.5t11.5 48q9 61 -21 80.5t-129 19.5q-152 0 -254 -6l-2 113q140 20 275 20q176 0 239 -44.5t46 -159.5q-12 -91 -50.5 -142.5t-126.5 -62.5 l-12 -6q95 -13 129 -67.5t23 -154.5q-15 -129 -91.5 -185t-244.5 -56q-133 0 -309 22zM401 0l1102 1413h144l-1102 -1413h-144zM1114 231.5q-25 38.5 10 104.5l326 512h152l-310 -496q-20 -39 23 -39h276l31 236l47 135h121l-51 -371h108l-16 -106l-111 -12l-26 -195h-146 l27 193h-379q-57 0 -82 38.5z" />
<glyph unicode="&#xbf;" horiz-adv-x="1009" d="M-27 -106q8 61 35 115t65 96t82.5 82.5t89.5 82.5t84.5 86.5t70 104t42.5 127.5h166q-9 -76 -35.5 -143.5t-62 -117t-76.5 -93.5t-82 -82.5t-75.5 -75t-60 -78.5t-32.5 -86q-15 -92 35.5 -134t179.5 -42q227 0 412 18v-141q-9 -2 -50 -9.5t-49.5 -9t-43.5 -7.5t-50.5 -7 t-50 -4.5t-62 -4.5t-67 -2t-84.5 -1q-207 0 -304.5 90t-76.5 236zM467 848l14 110q9 68 76 68h49q79 0 70 -76l-17 -110q-9 -70 -77 -70h-50q-77 0 -65 78z" />
<glyph unicode="&#xc0;" horiz-adv-x="1275" d="M-66 0l635 1362q20 51 80 51h209q26 0 46.5 -17t21.5 -42l256 -1354h-205l-70 426h-565l-190 -426h-218zM416 1737l106 141l363 -301l-70 -90zM422 606h455l-89 531q-8 41 -16 123h-61l-54 -123z" />
<glyph unicode="&#xc1;" horiz-adv-x="1275" d="M-66 0l635 1362q20 51 80 51h209q26 0 46.5 -17t21.5 -42l256 -1354h-205l-70 426h-565l-190 -426h-218zM422 606h455l-89 531q-8 41 -16 123h-61l-54 -123zM641 1579l401 301l93 -154l-437 -239z" />
<glyph unicode="&#xc2;" horiz-adv-x="1275" d="M-66 0l635 1362q20 51 80 51h209q26 0 46.5 -17t21.5 -42l256 -1354h-205l-70 426h-565l-190 -426h-218zM422 606h455l-89 531q-8 41 -16 123h-61l-54 -123zM442 1577l301 264h142l254 -276l-72 -78l-246 207h-18l-305 -201z" />
<glyph unicode="&#xc3;" horiz-adv-x="1275" d="M-66 0l635 1362q20 51 80 51h209q26 0 46.5 -17t21.5 -42l256 -1354h-205l-70 426h-565l-190 -426h-218zM422 606h455l-89 531q-8 41 -16 123h-61l-54 -123zM453 1567q4 124 56 185.5t128 55.5q70 -5 157 -54t136 -54q59 -7 87 18t36 84l90 -8q-3 -118 -54.5 -179.5 t-130.5 -55.5q-62 4 -115.5 29t-98.5 51.5t-80 31.5q-58 6 -85.5 -21.5t-35.5 -90.5z" />
<glyph unicode="&#xc4;" horiz-adv-x="1275" d="M-66 0l635 1362q20 51 80 51h209q26 0 46.5 -17t21.5 -42l256 -1354h-205l-70 426h-565l-190 -426h-218zM422 606h455l-89 531q-8 41 -16 123h-61l-54 -123zM528 1618l19 113q8 55 63 55h60q33 0 44.5 -12.5t6.5 -42.5l-19 -111q-6 -53 -59 -53h-65q-56 0 -50 51z M872 1618l17 113q5 29 19.5 42t45.5 13h60q33 0 43.5 -12.5t5.5 -42.5l-19 -111q-3 -53 -57 -53h-65q-56 0 -50 51z" />
<glyph unicode="&#xc5;" horiz-adv-x="1275" d="M-66 0l635 1362q20 51 80 51h209q26 0 46.5 -17t21.5 -42l256 -1354h-205l-70 426h-565l-190 -426h-218zM422 606h455l-89 531q-8 41 -16 123h-61l-54 -123zM573 1663q0 101 66.5 168t169.5 67q94 0 153.5 -55t59.5 -145q0 -101 -67.5 -168.5t-170.5 -67.5 q-93 0 -152 55.5t-59 145.5zM682 1673q0 -51 28 -80.5t81 -29.5q52 0 86 36.5t34 90.5q0 51 -27 80.5t-77 29.5q-58 0 -91.5 -35.5t-33.5 -91.5z" />
<glyph unicode="&#xc6;" horiz-adv-x="1869" d="M-92 0l846 1186q94 135 201.5 182t308.5 47q401 0 618 -14l-29 -160h-518q-130 0 -149 -135l-39 -283h569l-20 -161h-572l-49 -361q-9 -71 15.5 -100t91.5 -29h524l-10 -160q-208 -16 -551 -16q-139 0 -212 79t-52 218l20 147h-465l-309 -440h-219zM561 616l365 -2 l73 521q4 42 26.5 82.5t51.5 60.5h-10q-67 -40 -131 -129z" />
<glyph unicode="&#xc7;" horiz-adv-x="1163" d="M135 715q28 204 74.5 339t124.5 222.5t186 124.5t264 37q133 0 216.5 -10t175.5 -33l-33 -156q-161 16 -363 16q-102 0 -169.5 -23t-120.5 -85.5t-86 -170t-56 -278.5q-18 -126 -20 -214.5t12 -152.5t48.5 -101t86.5 -54t129 -18q229 -3 408 22l10 -157 q-171 -48 -422 -48q-305 0 -413.5 175.5t-51.5 564.5zM301 -498l37 105q77 -3 136 37t69 104q6 29 -14 38.5t-95 10.5l23 92q137 13 191 -16.5t36 -124.5q-22 -131 -128 -198.5t-255 -47.5z" />
<glyph unicode="&#xc8;" horiz-adv-x="1146" d="M115 293l121 874q18 119 96.5 184.5t214.5 65.5q424 0 608 -16l-27 -160h-557q-66 0 -97 -30t-40 -103l-39 -287h596l-20 -157h-598l-49 -365q-9 -70 14.5 -98.5t91.5 -28.5h547l-4 -160q-176 -16 -567 -16q-164 0 -237 78.5t-54 218.5zM408 1778l106 141l363 -301 l-70 -90z" />
<glyph unicode="&#xc9;" horiz-adv-x="1146" d="M115 293l121 874q18 119 96.5 184.5t214.5 65.5q424 0 608 -16l-27 -160h-557q-66 0 -97 -30t-40 -103l-39 -287h596l-20 -157h-598l-49 -365q-9 -70 14.5 -98.5t91.5 -28.5h547l-4 -160q-176 -16 -567 -16q-164 0 -237 78.5t-54 218.5zM633 1620l401 301l92 -154 l-436 -239z" />
<glyph unicode="&#xca;" horiz-adv-x="1146" d="M115 293l121 874q18 119 96.5 184.5t214.5 65.5q424 0 608 -16l-27 -160h-557q-66 0 -97 -30t-40 -103l-39 -287h596l-20 -157h-598l-49 -365q-9 -70 14.5 -98.5t91.5 -28.5h547l-4 -160q-176 -16 -567 -16q-164 0 -237 78.5t-54 218.5zM434 1618l301 264h142l253 -276 l-71 -78l-246 207h-18l-306 -201z" />
<glyph unicode="&#xcb;" horiz-adv-x="1146" d="M115 293l121 874q18 119 96.5 184.5t214.5 65.5q424 0 608 -16l-27 -160h-557q-66 0 -97 -30t-40 -103l-39 -287h596l-20 -157h-598l-49 -365q-9 -70 14.5 -98.5t91.5 -28.5h547l-4 -160q-176 -16 -567 -16q-164 0 -237 78.5t-54 218.5zM520 1659l19 113q8 55 63 55h60 q33 0 44.5 -12.5t6.5 -42.5l-19 -111q-6 -53 -59 -53h-66q-55 0 -49 51zM864 1659l17 113q5 29 19.5 42t45.5 13h60q33 0 43.5 -12.5t5.5 -42.5l-19 -111q-3 -53 -57 -53h-66q-28 0 -40 12t-9 39z" />
<glyph unicode="&#xcc;" horiz-adv-x="546" d="M43 1737l107 141l362 -301l-70 -90zM86 0l199 1413h207l-199 -1413h-207z" />
<glyph unicode="&#xcd;" horiz-adv-x="546" d="M86 0l199 1413h207l-199 -1413h-207zM268 1579l402 301l92 -154l-436 -239z" />
<glyph unicode="&#xce;" horiz-adv-x="546" d="M70 1577l301 264h141l254 -276l-72 -78l-245 207h-19l-305 -201zM86 0l199 1413h207l-199 -1413h-207z" />
<glyph unicode="&#xcf;" horiz-adv-x="546" d="M86 0l199 1413h207l-199 -1413h-207zM156 1618l18 113q8 55 64 55h59q33 0 44.5 -12.5t6.5 -42.5l-18 -111q-6 -53 -60 -53h-65q-55 0 -49 51zM500 1618l16 113q8 55 66 55h59q33 0 43.5 -12.5t5.5 -42.5l-18 -111q-3 -53 -58 -53h-65q-28 0 -40 12t-9 39z" />
<glyph unicode="&#xd0;" horiz-adv-x="1357" d="M55 692l15 113h129l86 608q264 19 460 19q113 0 197 -16t148.5 -51.5t104 -92t59.5 -139t19.5 -189t-20.5 -246.5q-17 -118 -37.5 -210.5t-49 -165t-60 -125.5t-75.5 -91t-90 -62t-109 -38t-127.5 -19t-149.5 -5q-195 0 -469 18l98 692h-129zM313 164q176 -4 240 -4 q83 0 141 8t109.5 31t85.5 61t63.5 101.5t49.5 148t38 205.5q17 117 22 198.5t-4.5 143t-30.5 98.5t-62.5 59.5t-93.5 30.5t-130 8t-274 -4l-64 -444h306l-15 -113h-305z" />
<glyph unicode="&#xd1;" horiz-adv-x="1445" d="M86 0l186 1337q11 76 86 76h174q32 0 50.5 -16.5t31.5 -50.5l318 -936q6 -18 20 -61.5t25.5 -81.5t19.5 -70h35q6 103 21 213l135 1003h203l-189 -1337q-6 -40 -25 -58t-57 -18h-178q-58 0 -80 68l-330 962q-39 116 -55 193h-31q-3 -88 -16 -193l-139 -1030h-205z M545 1567q4 124 56 185.5t128 55.5q70 -5 157 -54t136 -54q59 -7 87 18t36 84l90 -8q-3 -118 -54 -179.5t-130 -55.5q-62 4 -116 29t-99 51.5t-80 31.5q-58 6 -85.5 -21.5t-35.5 -90.5z" />
<glyph unicode="&#xd2;" horiz-adv-x="1366" d="M117 467q1 109 18 248q54 401 199 563t459 162q200 0 314 -70.5t154 -234.5t1 -437q-28 -208 -75.5 -345t-126.5 -223t-186 -121.5t-262 -35.5q-99 0 -175.5 16.5t-138 52.5t-99.5 93.5t-60.5 140t-21.5 191.5zM333 374.5q17 -120.5 82.5 -169.5t200.5 -49 q136 0 218.5 52t133 171.5t81.5 335.5q19 130 20.5 220t-12.5 154t-50.5 100t-90 52t-134.5 16q-105 0 -175 -26t-121.5 -92t-83 -170.5t-54.5 -270.5q-32 -203 -15 -323.5zM444 1737l107 141l362 -301l-69 -90z" />
<glyph unicode="&#xd3;" horiz-adv-x="1366" d="M117 467q1 109 18 248q54 401 199 563t459 162q200 0 314 -70.5t154 -234.5t1 -437q-28 -208 -75.5 -345t-126.5 -223t-186 -121.5t-262 -35.5q-99 0 -175.5 16.5t-138 52.5t-99.5 93.5t-60.5 140t-21.5 191.5zM333 374.5q17 -120.5 82.5 -169.5t200.5 -49 q136 0 218.5 52t133 171.5t81.5 335.5q19 130 20.5 220t-12.5 154t-50.5 100t-90 52t-134.5 16q-105 0 -175 -26t-121.5 -92t-83 -170.5t-54.5 -270.5q-32 -203 -15 -323.5zM670 1579l401 301l92 -154l-436 -239z" />
<glyph unicode="&#xd4;" horiz-adv-x="1366" d="M117 467q1 109 18 248q54 401 199 563t459 162q200 0 314 -70.5t154 -234.5t1 -437q-28 -208 -75.5 -345t-126.5 -223t-186 -121.5t-262 -35.5q-99 0 -175.5 16.5t-138 52.5t-99.5 93.5t-60.5 140t-21.5 191.5zM333 374.5q17 -120.5 82.5 -169.5t200.5 -49 q136 0 218.5 52t133 171.5t81.5 335.5q19 130 20.5 220t-12.5 154t-50.5 100t-90 52t-134.5 16q-105 0 -175 -26t-121.5 -92t-83 -170.5t-54.5 -270.5q-32 -203 -15 -323.5zM471 1577l301 264h141l254 -276l-71 -78l-246 207h-19l-305 -201z" />
<glyph unicode="&#xd5;" horiz-adv-x="1366" d="M117 467q1 109 18 248q54 401 199 563t459 162q200 0 314 -70.5t154 -234.5t1 -437q-28 -208 -75.5 -345t-126.5 -223t-186 -121.5t-262 -35.5q-99 0 -175.5 16.5t-138 52.5t-99.5 93.5t-60.5 140t-21.5 191.5zM333 374.5q17 -120.5 82.5 -169.5t200.5 -49 q136 0 218.5 52t133 171.5t81.5 335.5q19 130 20.5 220t-12.5 154t-50.5 100t-90 52t-134.5 16q-105 0 -175 -26t-121.5 -92t-83 -170.5t-54.5 -270.5q-32 -203 -15 -323.5zM481 1567q4 123 56.5 185t128.5 56q70 -5 156.5 -54t135.5 -54q59 -7 87 18t36 84l90 -8 q-3 -118 -54 -179.5t-130 -55.5q-62 4 -116 29t-99 51.5t-80 31.5q-58 6 -85.5 -21.5t-35.5 -90.5z" />
<glyph unicode="&#xd6;" horiz-adv-x="1366" d="M117 467q1 109 18 248q54 401 199 563t459 162q200 0 314 -70.5t154 -234.5t1 -437q-28 -208 -75.5 -345t-126.5 -223t-186 -121.5t-262 -35.5q-99 0 -175.5 16.5t-138 52.5t-99.5 93.5t-60.5 140t-21.5 191.5zM333 374.5q17 -120.5 82.5 -169.5t200.5 -49 q136 0 218.5 52t133 171.5t81.5 335.5q19 130 20.5 220t-12.5 154t-50.5 100t-90 52t-134.5 16q-105 0 -175 -26t-121.5 -92t-83 -170.5t-54.5 -270.5q-32 -203 -15 -323.5zM557 1618l18 113q8 55 64 55h59q33 0 45 -12.5t7 -42.5l-19 -111q-6 -53 -59 -53h-66q-55 0 -49 51 zM901 1618l17 113q5 29 19.5 42t45.5 13h59q33 0 44 -12.5t6 -42.5l-19 -111q-3 -53 -57 -53h-66q-28 0 -40 12t-9 39z" />
<glyph unicode="&#xd7;" horiz-adv-x="1073" d="M82 328l338 268l-258 268l110 109l269 -281l368 293l88 -127l-348 -276l254 -267l-106 -108l-269 278l-358 -284z" />
<glyph unicode="&#xd8;" horiz-adv-x="1366" d="M130.5 311q-28.5 155 4.5 404q54 401 199 563t459 162q155 0 262 -43l90 149l94 -55l-92 -152q93 -82 121.5 -236.5t-6.5 -404.5q-28 -208 -75.5 -345t-126.5 -223t-186 -121.5t-262 -35.5q-163 0 -268 45l-88 -143l-92 55l88 146q-93 80 -121.5 235zM348 698 q-46 -319 19 -436l585 967q-60 28 -170 28q-105 0 -175 -26t-121.5 -92t-83 -170.5t-54.5 -270.5zM446 186q65 -30 170 -30q136 0 218.5 52t133 171.5t81.5 335.5q46 322 -15 438z" />
<glyph unicode="&#xd9;" horiz-adv-x="1359" d="M154 551l118 862h207l-123 -872q-31 -218 23.5 -301.5t226.5 -83.5q179 0 264.5 88t116.5 307l121 862h207l-125 -872q-42 -309 -175.5 -438.5t-402.5 -129.5q-277 0 -389 135.5t-69 442.5zM444 1737l107 141l362 -301l-69 -90z" />
<glyph unicode="&#xda;" horiz-adv-x="1359" d="M154 551l118 862h207l-123 -872q-31 -218 23.5 -301.5t226.5 -83.5q179 0 264.5 88t116.5 307l121 862h207l-125 -872q-42 -309 -175.5 -438.5t-402.5 -129.5q-277 0 -389 135.5t-69 442.5zM670 1579l401 301l92 -154l-436 -239z" />
<glyph unicode="&#xdb;" horiz-adv-x="1359" d="M154 551l118 862h207l-123 -872q-31 -218 23.5 -301.5t226.5 -83.5q179 0 264.5 88t116.5 307l121 862h207l-125 -872q-42 -309 -175.5 -438.5t-402.5 -129.5q-277 0 -389 135.5t-69 442.5zM471 1577l301 264h141l254 -276l-71 -78l-246 207h-19l-305 -201z" />
<glyph unicode="&#xdc;" horiz-adv-x="1359" d="M154 551l118 862h207l-123 -872q-31 -218 23.5 -301.5t226.5 -83.5q179 0 264.5 88t116.5 307l121 862h207l-125 -872q-42 -309 -175.5 -438.5t-402.5 -129.5q-277 0 -389 135.5t-69 442.5zM557 1618l18 113q8 55 64 55h59q33 0 45 -12.5t7 -42.5l-19 -111 q-6 -53 -59 -53h-66q-55 0 -49 51zM901 1618l17 113q5 29 19.5 42t45.5 13h59q33 0 44 -12.5t6 -42.5l-19 -111q-3 -53 -57 -53h-66q-28 0 -40 12t-9 39z" />
<glyph unicode="&#xdd;" horiz-adv-x="1169" d="M129 1413h207l203 -584q28 -89 36 -163h19q25 84 82 170l364 577h224l-596 -921l-70 -492h-207l72 496zM553 1579l401 301l93 -154l-437 -239z" />
<glyph unicode="&#xde;" horiz-adv-x="1210" d="M86 0l199 1413h204l-34 -250q76 4 276 4q81 0 142.5 -9t113.5 -30.5t84.5 -56.5t54 -86t22.5 -120t-9 -158q-18 -133 -53.5 -219t-96.5 -136.5t-141 -70t-199 -19.5q-152 0 -319 19l-39 -281h-205zM352 438h273q79 1 130 13.5t89 44.5t58.5 85.5t33.5 139.5q11 65 8 112 t-13.5 77.5t-39 48.5t-67 25t-99.5 7q-215 0 -295 -2z" />
<glyph unicode="&#xdf;" horiz-adv-x="1386" d="M-242 -391l31 147h154q96 0 137.5 32.5t54.5 127.5l133 930h-182l20 141l185 12l16 121q13 93 42.5 158t69.5 104.5t103.5 61.5t129.5 29.5t161 7.5q271 0 372.5 -63.5t78.5 -219.5q-11 -80 -56 -141t-153 -127q-16 -10 -57.5 -33t-58.5 -34t-43 -30.5t-38.5 -39 t-17.5 -41.5q-4 -19 0.5 -34.5t21.5 -32t32 -27t48 -31.5l188 -121q60 -40 91 -72t46.5 -83t6.5 -122q-9 -62 -31 -107t-54.5 -73t-82 -44t-104 -22t-130.5 -6q-142 0 -327 23l24 152q147 -9 265 -9q126 0 178 22t61 91q4 36 -8 61.5t-29 39.5t-59 42l-197 125 q-151 97 -131 234q4 30 14 56t31 50t38.5 41.5t53.5 41t57.5 36t67.5 39.5q84 53 119 90.5t41 87.5q4 30 -2.5 49.5t-31 36.5t-76.5 25t-134 8q-171 0 -238.5 -46.5t-86.5 -180.5l-170 -1207q-23 -150 -105 -221.5t-233 -71.5q-94 0 -236 17z" />
<glyph unicode="&#xe0;" d="M79.5 299.5q-2.5 90.5 16.5 212.5q13 97 33.5 172t45 129t58.5 92.5t69.5 61.5t84.5 36.5t95.5 18t109.5 4.5q110 0 246.5 -15t242.5 -38l-139 -973h-156l11 186q-84 -96 -194.5 -153.5t-237.5 -57.5q-73 0 -124 16.5t-89 55t-54 100.5t-18.5 152.5zM279 347 q-3 -60 1.5 -100.5t21 -61.5t40.5 -29.5t64 -8.5q94 0 184.5 52t204.5 161l69 496q-188 4 -211 4q-71 0 -115.5 -4t-84 -19.5t-61.5 -37.5t-41.5 -65.5t-31.5 -97t-24 -138.5q-13 -91 -16 -151zM305 1370l107 141l362 -301l-69 -90z" />
<glyph unicode="&#xe1;" d="M79.5 299.5q-2.5 90.5 16.5 212.5q13 97 33.5 172t45 129t58.5 92.5t69.5 61.5t84.5 36.5t95.5 18t109.5 4.5q110 0 246.5 -15t242.5 -38l-139 -973h-156l11 186q-84 -96 -194.5 -153.5t-237.5 -57.5q-73 0 -124 16.5t-89 55t-54 100.5t-18.5 152.5zM279 347 q-3 -60 1.5 -100.5t21 -61.5t40.5 -29.5t64 -8.5q94 0 184.5 52t204.5 161l69 496q-188 4 -211 4q-71 0 -115.5 -4t-84 -19.5t-61.5 -37.5t-41.5 -65.5t-31.5 -97t-24 -138.5q-13 -91 -16 -151zM530 1212l402 301l92 -153l-436 -240z" />
<glyph unicode="&#xe2;" d="M79.5 299.5q-2.5 90.5 16.5 212.5q13 97 33.5 172t45 129t58.5 92.5t69.5 61.5t84.5 36.5t95.5 18t109.5 4.5q110 0 246.5 -15t242.5 -38l-139 -973h-156l11 186q-84 -96 -194.5 -153.5t-237.5 -57.5q-73 0 -124 16.5t-89 55t-54 100.5t-18.5 152.5zM279 347 q-3 -60 1.5 -100.5t21 -61.5t40.5 -29.5t64 -8.5q94 0 184.5 52t204.5 161l69 496q-188 4 -211 4q-71 0 -115.5 -4t-84 -19.5t-61.5 -37.5t-41.5 -65.5t-31.5 -97t-24 -138.5q-13 -91 -16 -151zM332 1210l301 265h141l254 -277l-72 -78l-245 207h-19l-305 -201z" />
<glyph unicode="&#xe3;" d="M79.5 299.5q-2.5 90.5 16.5 212.5q13 97 33.5 172t45 129t58.5 92.5t69.5 61.5t84.5 36.5t95.5 18t109.5 4.5q110 0 246.5 -15t242.5 -38l-139 -973h-156l11 186q-84 -96 -194.5 -153.5t-237.5 -57.5q-73 0 -124 16.5t-89 55t-54 100.5t-18.5 152.5zM279 347 q-3 -60 1.5 -100.5t21 -61.5t40.5 -29.5t64 -8.5q94 0 184.5 52t204.5 161l69 496q-188 4 -211 4q-71 0 -115.5 -4t-84 -19.5t-61.5 -37.5t-41.5 -65.5t-31.5 -97t-24 -138.5q-13 -91 -16 -151zM342 1200q4 124 56 186t128 56q70 -5 157 -54.5t136 -54.5q59 -7 87 18t36 85 l90 -9q-3 -118 -54 -179.5t-130 -55.5q-48 3 -93.5 20t-74 35t-63.5 35.5t-64 22.5q-58 6 -85.5 -22t-35.5 -91z" />
<glyph unicode="&#xe4;" d="M79.5 299.5q-2.5 90.5 16.5 212.5q13 97 33.5 172t45 129t58.5 92.5t69.5 61.5t84.5 36.5t95.5 18t109.5 4.5q110 0 246.5 -15t242.5 -38l-139 -973h-156l11 186q-84 -96 -194.5 -153.5t-237.5 -57.5q-73 0 -124 16.5t-89 55t-54 100.5t-18.5 152.5zM279 347 q-3 -60 1.5 -100.5t21 -61.5t40.5 -29.5t64 -8.5q94 0 184.5 52t204.5 161l69 496q-188 4 -211 4q-71 0 -115.5 -4t-84 -19.5t-61.5 -37.5t-41.5 -65.5t-31.5 -97t-24 -138.5q-13 -91 -16 -151zM418 1251l18 113q8 55 64 55h59q33 0 44.5 -12.5t6.5 -42.5l-18 -111 q-6 -53 -60 -53h-65q-55 0 -49 51zM762 1251l16 113q8 55 66 55h59q33 0 43.5 -12.5t5.5 -42.5l-18 -111q-3 -53 -57 -53h-66q-28 0 -40 12t-9 39z" />
<glyph unicode="&#xe5;" d="M79.5 299.5q-2.5 90.5 16.5 212.5q13 97 33.5 172t45 129t58.5 92.5t69.5 61.5t84.5 36.5t95.5 18t109.5 4.5q110 0 246.5 -15t242.5 -38l-139 -973h-156l11 186q-84 -96 -194.5 -153.5t-237.5 -57.5q-73 0 -124 16.5t-89 55t-54 100.5t-18.5 152.5zM279 347 q-3 -60 1.5 -100.5t21 -61.5t40.5 -29.5t64 -8.5q94 0 184.5 52t204.5 161l69 496q-188 4 -211 4q-71 0 -115.5 -4t-84 -19.5t-61.5 -37.5t-41.5 -65.5t-31.5 -97t-24 -138.5q-13 -91 -16 -151zM463 1296q0 102 66.5 169t168.5 67q94 0 153.5 -55.5t59.5 -145.5 q0 -101 -67 -168t-170 -67q-93 0 -152 55t-59 145zM571 1307q0 -51 28 -81t81 -30q52 0 86.5 36.5t34.5 90.5q0 51 -27.5 81t-77.5 30q-58 0 -91.5 -35.5t-33.5 -91.5z" />
<glyph unicode="&#xe6;" horiz-adv-x="1789" d="M80 259q-3 103 16 253q13 97 33.5 172.5t45 129.5t58.5 92t69.5 61.5t84 36.5t94.5 17.5t109 4.5q214 0 442 -45q106 45 301 45q96 0 167 -14.5t115 -42t69 -67t29.5 -90t-3.5 -110.5q-23 -146 -113 -210t-276 -78l-348 -31q0 -74 16.5 -122.5t51 -74t77.5 -35.5t107 -10 q129 0 360 25l12 -133q-71 -29 -186 -43.5t-217 -14.5q-162 0 -259.5 53t-137.5 162q-82 -97 -194.5 -156t-242.5 -59q-91 0 -149 27.5t-93 90.5t-38 166zM282 318q-3 -67 9.5 -106t38 -52t71.5 -13q93 0 178.5 47t190.5 148q-3 93 10 184q30 214 101 328q-50 1 -129 3.5 t-101 2.5q-69 0 -113 -4.5t-82 -19.5t-60 -37.5t-41 -66t-30.5 -97t-23.5 -137.5q-16 -113 -19 -180zM985 530l334 31q94 6 137.5 40t56.5 118q3 21 3 37.5t-3 30t-7 23.5t-13.5 18t-17.5 13t-24 8.5t-28.5 5.5t-34.5 3.5t-39.5 1.5h-45.5q-81 0 -131 -13t-88.5 -50.5 t-60.5 -100t-38 -166.5z" />
<glyph unicode="&#xe7;" horiz-adv-x="995" d="M90 508q40 287 160.5 402.5t378.5 115.5q202 0 327 -53l-30 -123q-123 8 -267 8q-92 0 -150 -14t-104 -54t-71 -111t-39 -185q-9 -76 -10 -130t8.5 -94t27 -64.5t50 -39t71.5 -20t97 -5.5q168 0 301 23l14 -135q-155 -54 -352 -54q-265 0 -359 123t-53 410zM207 -498 l37 105q77 -3 136 37t69 104q6 29 -14 38.5t-95 10.5l22 92q137 13 191.5 -16.5t36.5 -124.5q-22 -131 -128 -198.5t-255 -47.5z" />
<glyph unicode="&#xe8;" horiz-adv-x="1103" d="M92 526q20 148 57 242.5t104 153t159.5 81.5t232.5 23q121 0 201.5 -22t122 -65.5t54 -100.5t1.5 -136q-24 -146 -114 -210t-277 -78l-346 -31q0 -74 16.5 -122.5t51 -74t77.5 -35.5t107 -10q128 0 368 25l13 -133q-75 -30 -191 -44t-221 -14q-257 0 -355 134t-61 417z M295 1370l106 141l363 -301l-70 -90zM299 530l334 31q95 6 137.5 40t54.5 118q3 21 3 37.5t-3 30t-7 23.5t-13.5 18t-18 13t-24.5 8.5t-28.5 5.5t-34.5 3.5t-39.5 1.5h-45.5q-80 0 -130 -13t-88 -50.5t-59.5 -100t-37.5 -166.5z" />
<glyph unicode="&#xe9;" horiz-adv-x="1103" d="M92 526q20 148 57 242.5t104 153t159.5 81.5t232.5 23q121 0 201.5 -22t122 -65.5t54 -100.5t1.5 -136q-24 -146 -114 -210t-277 -78l-346 -31q0 -74 16.5 -122.5t51 -74t77.5 -35.5t107 -10q128 0 368 25l13 -133q-75 -30 -191 -44t-221 -14q-257 0 -355 134t-61 417z M299 530l334 31q95 6 137.5 40t54.5 118q3 21 3 37.5t-3 30t-7 23.5t-13.5 18t-18 13t-24.5 8.5t-28.5 5.5t-34.5 3.5t-39.5 1.5h-45.5q-80 0 -130 -13t-88 -50.5t-59.5 -100t-37.5 -166.5zM520 1212l402 301l92 -153l-436 -240z" />
<glyph unicode="&#xea;" horiz-adv-x="1103" d="M92 526q20 148 57 242.5t104 153t159.5 81.5t232.5 23q121 0 201.5 -22t122 -65.5t54 -100.5t1.5 -136q-24 -146 -114 -210t-277 -78l-346 -31q0 -74 16.5 -122.5t51 -74t77.5 -35.5t107 -10q128 0 368 25l13 -133q-75 -30 -191 -44t-221 -14q-257 0 -355 134t-61 417z M299 530l334 31q95 6 137.5 40t54.5 118q3 21 3 37.5t-3 30t-7 23.5t-13.5 18t-18 13t-24.5 8.5t-28.5 5.5t-34.5 3.5t-39.5 1.5h-45.5q-80 0 -130 -13t-88 -50.5t-59.5 -100t-37.5 -166.5zM322 1210l301 265h141l254 -277l-72 -78l-246 207h-18l-305 -201z" />
<glyph unicode="&#xeb;" horiz-adv-x="1103" d="M92 526q20 148 57 242.5t104 153t159.5 81.5t232.5 23q121 0 201.5 -22t122 -65.5t54 -100.5t1.5 -136q-24 -146 -114 -210t-277 -78l-346 -31q0 -74 16.5 -122.5t51 -74t77.5 -35.5t107 -10q128 0 368 25l13 -133q-75 -30 -191 -44t-221 -14q-257 0 -355 134t-61 417z M299 530l334 31q95 6 137.5 40t54.5 118q3 21 3 37.5t-3 30t-7 23.5t-13.5 18t-18 13t-24.5 8.5t-28.5 5.5t-34.5 3.5t-39.5 1.5h-45.5q-80 0 -130 -13t-88 -50.5t-59.5 -100t-37.5 -166.5zM408 1251l18 113q8 55 63 55h60q33 0 44.5 -12.5t6.5 -42.5l-18 -111 q-6 -53 -60 -53h-65q-55 0 -49 51zM752 1251l16 113q8 55 66 55h59q33 0 43.5 -12.5t5.5 -42.5l-18 -111q-3 -53 -58 -53h-65q-28 0 -40 12t-9 39z" />
<glyph unicode="&#xec;" horiz-adv-x="516" d="M-23 1370l107 141l362 -301l-69 -90zM74 0l141 999h199l-142 -999h-198z" />
<glyph unicode="&#xed;" horiz-adv-x="516" d="M74 0l141 999h199l-142 -999h-198zM203 1212l401 301l92 -153l-436 -240z" />
<glyph unicode="&#xee;" horiz-adv-x="516" d="M4 1210l301 265h141l254 -277l-71 -78l-246 207h-18l-306 -201zM74 0l141 999h199l-142 -999h-198z" />
<glyph unicode="&#xef;" horiz-adv-x="516" d="M74 0l141 999h199l-142 -999h-198zM90 1251l19 113q8 55 63 55h59q33 0 45 -12.5t7 -42.5l-19 -111q-6 -53 -59 -53h-66q-55 0 -49 51zM434 1251l17 113q5 29 19.5 42t45.5 13h59q33 0 44 -12.5t6 -42.5l-19 -111q-3 -53 -57 -53h-66q-28 0 -40 12t-9 39z" />
<glyph unicode="&#xf0;" horiz-adv-x="1140" d="M84 455q29 225 140 345t321 120q179 0 284 -103q-3 239 -106 354l-176 -122l-53 75l151 109q-105 56 -303 53l31 144q254 10 415 -93l170 121l56 -80l-148 -104q215 -212 152 -701q-15 -119 -40 -208.5t-67 -165.5t-101 -124.5t-143.5 -75t-193.5 -26.5 q-234 0 -328 118.5t-61 363.5zM289 440q-23 -164 22.5 -232.5t171.5 -68.5q156 0 229 104.5t103 352.5q4 32 8 88q-100 68 -231 68q-142 0 -210.5 -76t-92.5 -236z" />
<glyph unicode="&#xf1;" horiz-adv-x="1187" d="M66 0l141 999h158l-11 -215q137 123 251 182.5t222 59.5q128 0 193 -73t45 -208l-107 -745h-196l96 696q12 93 -7.5 127.5t-84.5 34.5q-85 0 -175.5 -51t-240.5 -168l-86 -639h-198zM358 1200q4 123 56.5 185.5t128.5 56.5q70 -5 157 -54.5t136 -54.5q59 -7 86.5 18 t35.5 85l91 -9q-3 -118 -54.5 -179.5t-130.5 -55.5q-48 3 -93.5 20t-74 35t-63.5 35.5t-64 22.5q-58 6 -85 -22t-35 -91z" />
<glyph unicode="&#xf2;" horiz-adv-x="1159" d="M90 506q38 283 160.5 401.5t378.5 118.5q257 0 355.5 -124t57.5 -410q-40 -284 -162 -401.5t-374 -117.5q-255 0 -355 124t-61 409zM295 492q-28 -206 15.5 -279.5t195.5 -73.5q159 0 231 78.5t101 288.5q31 206 -13 279t-196 73q-81 0 -134 -16t-94 -57.5t-65.5 -111.5 t-40.5 -181zM295 1370l106 141l363 -301l-70 -90z" />
<glyph unicode="&#xf3;" horiz-adv-x="1159" d="M90 506q38 283 160.5 401.5t378.5 118.5q257 0 355.5 -124t57.5 -410q-40 -284 -162 -401.5t-374 -117.5q-255 0 -355 124t-61 409zM295 492q-28 -206 15.5 -279.5t195.5 -73.5q159 0 231 78.5t101 288.5q31 206 -13 279t-196 73q-81 0 -134 -16t-94 -57.5t-65.5 -111.5 t-40.5 -181zM520 1212l402 301l92 -153l-436 -240z" />
<glyph unicode="&#xf4;" horiz-adv-x="1159" d="M90 506q38 283 160.5 401.5t378.5 118.5q257 0 355.5 -124t57.5 -410q-40 -284 -162 -401.5t-374 -117.5q-255 0 -355 124t-61 409zM295 492q-28 -206 15.5 -279.5t195.5 -73.5q159 0 231 78.5t101 288.5q31 206 -13 279t-196 73q-81 0 -134 -16t-94 -57.5t-65.5 -111.5 t-40.5 -181zM322 1210l301 265h141l254 -277l-72 -78l-246 207h-18l-305 -201z" />
<glyph unicode="&#xf5;" horiz-adv-x="1159" d="M90 506q38 283 160.5 401.5t378.5 118.5q257 0 355.5 -124t57.5 -410q-40 -284 -162 -401.5t-374 -117.5q-255 0 -355 124t-61 409zM295 492q-28 -206 15.5 -279.5t195.5 -73.5q159 0 231 78.5t101 288.5q31 206 -13 279t-196 73q-81 0 -134 -16t-94 -57.5t-65.5 -111.5 t-40.5 -181zM332 1200q4 124 56 186t128 56q70 -5 157 -54.5t136 -54.5q59 -7 87 18t36 85l90 -9q-3 -118 -54 -179.5t-130 -55.5q-48 3 -93.5 20t-74 35t-63.5 35.5t-64 22.5q-58 6 -85.5 -22t-35.5 -91z" />
<glyph unicode="&#xf6;" horiz-adv-x="1159" d="M90 506q38 283 160.5 401.5t378.5 118.5q257 0 355.5 -124t57.5 -410q-40 -284 -162 -401.5t-374 -117.5q-255 0 -355 124t-61 409zM295 492q-28 -206 15.5 -279.5t195.5 -73.5q159 0 231 78.5t101 288.5q31 206 -13 279t-196 73q-81 0 -134 -16t-94 -57.5t-65.5 -111.5 t-40.5 -181zM408 1251l18 113q8 55 63 55h60q33 0 44.5 -12.5t6.5 -42.5l-18 -111q-6 -53 -60 -53h-65q-55 0 -49 51zM752 1251l16 113q8 55 66 55h59q33 0 43.5 -12.5t5.5 -42.5l-18 -111q-3 -53 -58 -53h-65q-28 0 -40 12t-9 39z" />
<glyph unicode="&#xf7;" horiz-adv-x="1153" d="M113 530l22 148h905l-20 -148h-907zM422 199l12 92q9 69 74 69h51q82 0 70 -77l-15 -95q-4 -35 -23 -51t-54 -16h-52q-75 0 -63 78zM522 920l13 94q9 69 77 69h52q77 0 65 -75l-12 -97q-8 -65 -76 -65h-51q-80 0 -68 74z" />
<glyph unicode="&#xf8;" horiz-adv-x="1159" d="M90 506q38 283 160.5 401.5t378.5 118.5q110 0 196 -22l97 159l86 -51l-90 -149q90 -57 120 -171.5t4 -299.5q-40 -284 -162 -401.5t-374 -117.5q-97 0 -178 19l-92 -152l-84 49l84 138q-100 56 -136 172t-10 307zM285.5 296.5q8.5 -74.5 46.5 -110.5l399 662 q-36 10 -102 10q-81 0 -134 -16t-94 -57.5t-65.5 -111.5t-40.5 -181q-18 -121 -9.5 -195.5zM422 145q37 -6 84 -6q159 0 231 78.5t101 288.5q34 219 -21 291z" />
<glyph unicode="&#xf9;" horiz-adv-x="1165" d="M96 252l105 747h198l-100 -696q-12 -88 12 -124t95 -36q84 0 164.5 50.5t217.5 173.5l86 632h197l-139 -999h-154l13 209q-126 -121 -234 -178.5t-221 -57.5q-136 0 -197.5 74.5t-42.5 204.5zM307 1378l107 142l362 -301l-69 -91z" />
<glyph unicode="&#xfa;" horiz-adv-x="1165" d="M96 252l105 747h198l-100 -696q-12 -88 12 -124t95 -36q84 0 164.5 50.5t217.5 173.5l86 632h197l-139 -999h-154l13 209q-126 -121 -234 -178.5t-221 -57.5q-136 0 -197.5 74.5t-42.5 204.5zM532 1221l402 301l92 -154l-436 -240z" />
<glyph unicode="&#xfb;" horiz-adv-x="1165" d="M96 252l105 747h198l-100 -696q-12 -88 12 -124t95 -36q84 0 164.5 50.5t217.5 173.5l86 632h197l-139 -999h-154l13 209q-126 -121 -234 -178.5t-221 -57.5q-136 0 -197.5 74.5t-42.5 204.5zM334 1219l301 264h141l254 -277l-72 -78l-245 207h-19l-305 -200z" />
<glyph unicode="&#xfc;" horiz-adv-x="1165" d="M96 252l105 747h198l-100 -696q-12 -88 12 -124t95 -36q84 0 164.5 50.5t217.5 173.5l86 632h197l-139 -999h-154l13 209q-126 -121 -234 -178.5t-221 -57.5q-136 0 -197.5 74.5t-42.5 204.5zM420 1260l18 112q8 55 64 55h59q33 0 44.5 -12.5t6.5 -42.5l-18 -110 q-6 -54 -59 -54h-66q-55 0 -49 52zM764 1260l16 112q8 55 66 55h59q33 0 43.5 -12.5t5.5 -42.5l-18 -110q-3 -54 -57 -54h-66q-55 0 -49 52z" />
<glyph unicode="&#xfd;" horiz-adv-x="1116" d="M72 -279q130 31 229 92t191 187h-95q-46 0 -79 26t-42 70l-192 903h209l151 -809q6 -34 41 -34h103q5 10 18.5 36t20.5 41q93 192 152.5 366.5t101.5 399.5h206q-55 -243 -120 -436.5t-168 -388.5q-82 -157 -162.5 -264.5t-166 -174t-170 -101.5t-191.5 -54zM467 1212 l401 301l93 -153l-437 -240z" />
<glyph unicode="&#xfe;" d="M10 -408l258 1842h197l-49 -355q-18 -141 -43 -229l4 -12q83 85 189 135.5t225 50.5q55 0 97.5 -10.5t78 -35t57.5 -65t34.5 -99.5t11 -141t-16.5 -186q-16 -113 -39.5 -197t-57.5 -140t-71.5 -91.5t-90 -54t-103.5 -25t-122 -6.5q-121 0 -307 25q-6 -63 -18 -139 l-37 -267h-197zM285 143q188 -4 211 -4q69 0 113 4t82.5 19t60.5 37.5t41.5 66t31 97.5t23.5 139q16 113 19 180t-10.5 106t-39 51.5t-72.5 12.5q-96 0 -187.5 -53t-205.5 -164z" />
<glyph unicode="&#xff;" horiz-adv-x="1116" d="M72 -279q130 31 229 92t191 187h-95q-46 0 -79 26t-42 70l-192 903h209l151 -809q6 -34 41 -34h103q5 10 18.5 36t20.5 41q93 192 152.5 366.5t101.5 399.5h206q-55 -243 -120 -436.5t-168 -388.5q-82 -157 -162.5 -264.5t-166 -174t-170 -101.5t-191.5 -54zM354 1251 l19 113q8 55 63 55h60q33 0 44.5 -12.5t6.5 -42.5l-19 -111q-6 -53 -59 -53h-66q-55 0 -49 51zM698 1251l17 113q5 29 19.5 42t45.5 13h60q33 0 43.5 -12.5t5.5 -42.5l-19 -111q-3 -53 -57 -53h-65q-56 0 -50 51z" />
<glyph unicode="&#x152;" horiz-adv-x="1894" d="M112.5 465.5q2.5 107.5 22.5 249.5q29 211 76 347.5t126 222t187 120.5t267 35q108 0 180.5 -14t154.5 -48q70 39 172 39q423 0 605 -16l-27 -160h-553q-65 0 -96.5 -30t-40.5 -103l-39 -285h592l-21 -161h-594l-49 -363q-9 -70 15.5 -98.5t93.5 -28.5h540l-4 -160 q-174 -16 -561 -16q-130 0 -203 49q-89 -40 -164 -56t-184 -16t-189 16t-140.5 52.5t-97 93t-54 140t-15 191zM332 374.5q17 -120.5 82 -169.5t198 -49q126 0 254 32q-6 53 2 105l121 874q7 42 17 66q-105 24 -218 24q-139 0 -223.5 -51.5t-135.5 -171.5t-81 -336 q-33 -203 -16 -323.5z" />
<glyph unicode="&#x153;" horiz-adv-x="1849" d="M88 506q40 284 162 402t379 118q253 0 354 -121q63 65 161.5 93t248.5 28q121 0 201.5 -22t122 -65.5t54 -100.5t1.5 -136q-24 -146 -114 -210t-276 -78l-348 -31q0 -73 16 -121.5t50.5 -74.5t78.5 -36t109 -10q130 0 357 25l14 -133q-71 -29 -186.5 -43.5t-217.5 -14.5 q-253 0 -356 136q-124 -138 -393 -138q-256 0 -356.5 124t-61.5 409zM295 492q-29 -206 15 -279.5t196 -73.5q158 0 230.5 79t101.5 288q31 206 -13 279t-196 73q-81 0 -134 -16t-94 -57.5t-65.5 -111.5t-40.5 -181zM1047 530l333 31q95 6 138.5 40t56.5 118q6 51 -1.5 80 t-41.5 41.5t-65 15t-105 2.5q-80 0 -129 -12.5t-87 -48.5t-59.5 -97t-37.5 -163q0 -5 -2 -7z" />
<glyph unicode="&#x178;" horiz-adv-x="1169" d="M129 1413h207l203 -584q28 -89 36 -163h19q25 84 82 170l364 577h224l-596 -921l-70 -492h-207l72 496zM440 1618l19 113q8 55 63 55h60q33 0 44.5 -12.5t6.5 -42.5l-19 -111q-6 -53 -59 -53h-66q-55 0 -49 51zM784 1618l17 113q5 29 19.5 42t45.5 13h60q33 0 43.5 -12.5 t5.5 -42.5l-19 -111q-3 -53 -57 -53h-65q-56 0 -50 51z" />
<glyph unicode="&#x2c6;" horiz-adv-x="870" d="M197 1198l301 264h141l254 -276l-72 -78l-246 207h-18l-305 -201z" />
<glyph unicode="&#x2dc;" horiz-adv-x="866" d="M203 1196q4 124 56 186t128 56q70 -5 157 -54.5t136 -54.5q59 -7 87 18t36 85l90 -9q-3 -118 -54 -179.5t-130 -55.5q-62 4 -116 29t-99 51.5t-80 31.5q-58 6 -85.5 -21.5t-35.5 -90.5z" />
<glyph unicode="&#x2000;" horiz-adv-x="960" />
<glyph unicode="&#x2001;" horiz-adv-x="1921" />
<glyph unicode="&#x2002;" horiz-adv-x="960" />
<glyph unicode="&#x2003;" horiz-adv-x="1921" />
<glyph unicode="&#x2004;" horiz-adv-x="640" />
<glyph unicode="&#x2005;" horiz-adv-x="480" />
<glyph unicode="&#x2006;" horiz-adv-x="320" />
<glyph unicode="&#x2007;" horiz-adv-x="320" />
<glyph unicode="&#x2008;" horiz-adv-x="240" />
<glyph unicode="&#x2009;" horiz-adv-x="384" />
<glyph unicode="&#x200a;" horiz-adv-x="106" />
<glyph unicode="&#x2010;" horiz-adv-x="901" d="M119 442l20 152h621l-21 -152h-620z" />
<glyph unicode="&#x2011;" horiz-adv-x="901" d="M119 442l20 152h621l-21 -152h-620z" />
<glyph unicode="&#x2012;" horiz-adv-x="901" d="M119 442l20 152h621l-21 -152h-620z" />
<glyph unicode="&#x2013;" horiz-adv-x="1198" d="M119 442l20 152h916l-21 -152h-915z" />
<glyph unicode="&#x2014;" horiz-adv-x="1818" d="M119 442l20 152h1536l-20 -152h-1536z" />
<glyph unicode="&#x2018;" horiz-adv-x="452" d="M186 1061l19 121q15 129 121 299l96 -31q-51 -143 -68 -229q31 3 47 -14t13 -44l-17 -110q-7 -37 -25.5 -49.5t-64.5 -12.5h-57q-40 0 -55 16.5t-9 53.5z" />
<glyph unicode="&#x2019;" horiz-adv-x="448" d="M205 1004q49 137 67 229q-31 -3 -46.5 13.5t-12.5 43.5l16 111q7 37 25.5 49t64.5 12h58q40 0 54.5 -16t8.5 -53l-18 -121q-15 -129 -121 -299z" />
<glyph unicode="&#x201a;" horiz-adv-x="475" d="M47 -227q51 143 68 229q-31 -3 -47 13.5t-13 43.5l17 111q7 37 25.5 49t64.5 12h57q41 0 56.5 -16t9.5 -53l-19 -121q-15 -125 -123 -299z" />
<glyph unicode="&#x201c;" horiz-adv-x="780" d="M186 1061l19 121q15 129 121 299l96 -31q-51 -143 -68 -229q31 3 47 -14t13 -44l-17 -110q-7 -37 -25.5 -49.5t-64.5 -12.5h-57q-40 0 -55 16.5t-9 53.5zM516 1061l19 121q16 131 120 299l97 -31q-51 -143 -68 -229q31 3 46.5 -14t12.5 -44l-16 -110q-7 -37 -25.5 -49.5 t-64.5 -12.5h-57q-40 0 -55 16.5t-9 53.5z" />
<glyph unicode="&#x201d;" horiz-adv-x="776" d="M205 1004q49 137 67 229q-31 -3 -46.5 13.5t-12.5 43.5l16 111q7 37 25.5 49t64.5 12h58q40 0 54.5 -16t8.5 -53l-18 -121q-15 -129 -121 -299zM532 1004q51 143 68 229q-31 -3 -46.5 13.5t-12.5 43.5l16 111q7 37 25.5 49t64.5 12h58q40 0 54.5 -16t8.5 -53l-18 -121 q-15 -129 -121 -299z" />
<glyph unicode="&#x201e;" horiz-adv-x="802" d="M47 -229q51 143 68 229q-31 -3 -47 13.5t-13 43.5l17 111q7 37 25.5 49t64.5 12h57q40 0 55 -16t9 -53l-19 -121q-15 -129 -121 -299zM375 -229q49 137 67 229q-31 -3 -46.5 13.5t-12.5 43.5l16 111q7 37 25.5 49t64.5 12h58q40 0 54.5 -16t8.5 -53l-18 -121 q-15 -129 -121 -299z" />
<glyph unicode="&#x2022;" horiz-adv-x="743" d="M170 543l4 26q13 101 55.5 136.5t147.5 35.5h26q99 0 135 -41t21 -139l-4 -29q-13 -105 -54.5 -141.5t-142.5 -36.5h-26q-104 0 -140.5 42.5t-21.5 146.5z" />
<glyph unicode="&#x2026;" horiz-adv-x="1751" d="M66 76l16 110q9 68 76 68h65q41 0 57 -18.5t11 -57.5l-15 -108q-9 -70 -77 -70h-66q-79 0 -67 76zM707 76l16 110q9 68 76 68h65q41 0 57 -18.5t11 -57.5l-14 -108q-9 -70 -78 -70h-66q-79 0 -67 76zM1350 76l16 110q9 68 76 68h65q41 0 57 -18.5t11 -57.5l-14 -108 q-9 -70 -78 -70h-66q-79 0 -67 76z" />
<glyph unicode="&#x202f;" horiz-adv-x="384" />
<glyph unicode="&#x2039;" horiz-adv-x="606" d="M72 502l4 45l381 395l80 -72l-304 -356l218 -371l-99 -65z" />
<glyph unicode="&#x203a;" horiz-adv-x="608" d="M45 152l305 356l-217 369l96 65l281 -424l-4 -45l-381 -395z" />
<glyph unicode="&#x205f;" horiz-adv-x="480" />
<glyph unicode="&#x20ac;" horiz-adv-x="1296" d="M88 528l18 121h164q3 34 9 66l12 80h-164l16 118h172q67 269 215.5 397t413.5 128q187 0 338 -43l-33 -160q-147 27 -319 18q-163 -6 -255.5 -86.5t-142.5 -253.5h510l-34 -118h-504q-14 -72 -17 -99l-6 -47h453l-35 -121h-426q-6 -189 59.5 -276.5t221.5 -91.5 q189 -10 362 22l8 -159q-162 -48 -362 -48q-268 0 -388.5 136.5t-111.5 416.5h-174z" />
<glyph unicode="&#x2122;" horiz-adv-x="1968" d="M225 1309l17 116h669l-16 -116h-264l-92 -662h-142l92 662h-264zM899 647l131 729q5 26 16.5 37.5t36.5 11.5h144q46 0 53 -49l84 -432q3 -18 7 -55.5t7 -54.5h23q16 60 41 108l203 442q11 23 23.5 32t35.5 9h147q25 0 39 -16.5t11 -42.5l-70 -719h-129l61 670h-22 l-246 -533q-11 -22 -23.5 -31.5t-35.5 -9.5h-105q-24 0 -37.5 13.5t-15.5 36.5l-102 524h-25l-121 -670h-131z" />
<glyph unicode="&#x25fc;" horiz-adv-x="1003" d="M0 0v1004h1004v-1004h-1004z" />
<glyph unicode="&#xfb03;" horiz-adv-x="1949" d="M-242 -391l31 147h154q96 0 137.5 32.5t54.5 127.5l133 930h-182l18 143l187 10l22 156q21 141 102.5 216t225.5 75q179 0 291 -14l-31 -148h-196q-97 0 -139.5 -32.5t-57.5 -127.5l-19 -125h494l25 179q42 290 327 290q197 0 293 -14l-33 -147h-196q-97 0 -139.5 -32.5 t-57.5 -127.5l-20 -148h667l-141 -999h-199l119 846h-467l-131 -934q-43 -293 -325 -293q-112 0 -248 16l30 148h154q96 0 138 32.5t55 127.5l127 903h-492l-137 -961q-21 -142 -102.5 -217.5t-223.5 -75.5q-103 0 -248 17zM1679 1257l17 115q6 53 61 53h92q31 0 46 -16.5 t10 -44.5l-15 -115q-5 -30 -19 -42.5t-44 -12.5h-92q-31 0 -46 17t-10 46z" />
<glyph unicode="&#xfb04;" horiz-adv-x="2074" d="M-242 -391l31 147h154q96 0 137.5 32.5t54.5 127.5l133 930h-182l18 143l187 10l22 156q21 141 102.5 216t225.5 75q179 0 291 -14l-31 -148h-196q-97 0 -139.5 -32.5t-57.5 -127.5l-19 -125h488l22 154q23 159 100.5 237.5t231.5 77.5q445 0 598 -24l-162 -1184 q-8 -64 17.5 -94.5t89.5 -30.5h98l8 -129q-55 -24 -188 -24q-121 0 -181.5 64t-45.5 177l151 1086h-321q-93 1 -139 -42t-60 -145l-18 -123h292l-20 -153h-293l-133 -934q-43 -293 -326 -293q-111 0 -247 16l32 148h152q97 0 138 32t56 128l127 903h-487l-137 -961 q-21 -142 -102.5 -217.5t-223.5 -75.5q-103 0 -248 17z" />
</font>
</defs>
</svg>
