<?xml version="1.0" standalone="no"?>
<!DOCTYPE svg PUBLIC "-//W3C//DTD SVG 1.1//EN" "http://www.w3.org/Graphics/SVG/1.1/DTD/svg11.dtd" >
<svg xmlns="http://www.w3.org/2000/svg" xmlns:xlink="http://www.w3.org/1999/xlink" version="1.1">
<metadata></metadata>
<defs>
<font id="exo_2black_italic" horiz-adv-x="1433" >
<font-face units-per-em="2048" ascent="1638" descent="-410" />
<missing-glyph horiz-adv-x="430" />
<glyph unicode="&#xfb01;" horiz-adv-x="1476" d="M-195 -360l66 256h100q62 0 89 25t36 89l113 756h-166l33 248l172 10l20 133q23 156 113.5 241t275.5 85q71 0 172 -8.5t162 -22.5l-63 -256h-121q-61 0 -88.5 -25t-36.5 -90l-8 -57h766l-144 -1024h-430l107 766h-338l-125 -832q-23 -156 -114 -240.5t-275 -84.5 q-97 0 -316 31zM1047 1290l16 105q8 65 37.5 91.5t93.5 26.5h178q65 0 96.5 -35.5t22.5 -99.5l-14 -104q-9 -65 -38 -92t-91 -27h-181q-65 0 -96 35.5t-24 99.5z" />
<glyph unicode="&#xfb02;" horiz-adv-x="1560" d="M-195 -360l64 256h100q62 0 89 25t36 89l105 756h-168l30 248l175 10l18 133q22 156 113 241t276 85q582 0 844 -51l-139 -1067q-6 -40 5.5 -53t53.5 -13h66l20 -279q-42 -25 -129 -37t-152 -12q-161 0 -244.5 80t-64.5 215l133 936h-243q-56 0 -86 -28.5t-39 -92.5 l-9 -57h226l-37 -258h-223l-117 -832q-22 -155 -113 -240t-274 -85q-97 0 -316 31z" />
<glyph horiz-adv-x="0" />
<glyph horiz-adv-x="682" />
<glyph unicode=" "  horiz-adv-x="430" />
<glyph unicode="&#x09;" horiz-adv-x="430" />
<glyph unicode="&#xa0;" horiz-adv-x="430" />
<glyph unicode="!" horiz-adv-x="671" d="M78 156l10 84q20 139 166 139h82q74 0 112.5 -40.5t28.5 -115.5l-12 -84q-9 -73 -48 -106t-116 -33h-82q-79 0 -114.5 40t-26.5 116zM150 465l22 479l66 479h426l-66 -479l-113 -479h-335z" />
<glyph unicode="&#x22;" horiz-adv-x="806" d="M145 946l41 467h295l-90 -467h-246zM512 946l41 467h295l-90 -467h-246z" />
<glyph unicode="#" horiz-adv-x="1521" d="M12 373l86 250h236l63 204h-233l84 250h227l107 336h321l-106 -336h192l107 336h321l-106 -336h233l-84 -250h-227l-64 -204h226l-86 -250h-219l-117 -373h-322l117 373h-193l-116 -373h-322l117 373h-242zM655 623h193l63 204h-192z" />
<glyph unicode="$" horiz-adv-x="1193" d="M0 43l43 309q378 -10 477 -10q83 0 115.5 13t40.5 46q6 26 -7 43.5t-53 36.5l-247 127q-85 44 -139.5 94.5t-79.5 103t-33 112.5t2 124q24 214 146.5 302.5t379.5 97.5l49 178h320l-53 -195q141 -20 245 -57l-41 -283q-303 5 -485 5q-64 0 -90.5 -12.5t-32.5 -45.5 q-5 -25 11 -44.5t73 -47.5l225 -113q164 -84 216 -181t34 -259q-13 -119 -46 -196.5t-97 -126.5t-157 -70t-234 -23l-47 -192h-318l51 213q-143 17 -268 51z" />
<glyph unicode="%" horiz-adv-x="1882" d="M93.5 862q-7.5 74 8.5 174q17 121 44.5 197.5t76.5 124t115.5 66t167.5 18.5q140 0 219.5 -39.5t110.5 -136.5t8 -262q-17 -121 -45 -197.5t-77 -124t-116 -66t-170 -18.5q-82 0 -141.5 13.5t-104.5 44.5t-67 81.5t-29.5 124.5zM332 0l977 1413h266l-977 -1413h-266z M400 905.5q-3 -32.5 1 -53.5t14 -26t31 -5q30 0 44 15t23.5 56.5t21.5 143.5q12 123 6.5 153t-43.5 30q-28 0 -41 -15t-22.5 -56t-22.5 -144q-9 -66 -12 -98.5zM1067 410q17 121 44.5 197.5t76 123.5t115 65.5t167.5 18.5q140 0 219.5 -39.5t110.5 -136.5t8 -262 q-17 -121 -44.5 -197.5t-76.5 -124t-116 -66t-170 -18.5q-138 0 -216.5 39.5t-109.5 137t-8 262.5zM1363.5 257q-0.5 -22 1.5 -33t8.5 -18t15 -9t22.5 -2q43 0 57 34.5t31 180.5q12 123 6.5 152.5t-43.5 29.5q-28 0 -41 -15t-22.5 -56t-22.5 -144q-6 -44 -9 -71t-3.5 -49z " />
<glyph unicode="&#x26;" horiz-adv-x="1554" d="M33 377q19 151 98.5 247t224.5 103l2 12q-101 9 -154.5 111t-29.5 231q17 93 55 159t88 105t125 61t148 29t174 7q208 0 350 -49l-67 -285q-167 25 -269 25q-91 0 -125.5 -25t-44.5 -109q-10 -82 12.5 -111.5t86.5 -29.5h340q8 97 10 170h352q0 -87 -6 -170h158l-39 -268 h-156q-20 -108 -66 -207q-43 -96 -105.5 -169.5t-152.5 -129t-215.5 -84.5t-283.5 -29q-290 0 -412.5 100.5t-97.5 305.5zM508 436q-9 -72 25.5 -100.5t113.5 -28.5q52 0 93.5 8t84 29t78.5 61.5t64 100.5q15 31 32 84h-331q-72 0 -111 -33t-49 -121z" />
<glyph unicode="'" horiz-adv-x="440" d="M145 946l41 467h295l-90 -467h-246z" />
<glyph unicode="(" horiz-adv-x="763" d="M59 655q59 415 242 647t526 318l52 -186q-312 -119 -408 -809q-27 -200 -28 -356t46.5 -267t145.5 -156l-53 -174q-325 88 -454 328.5t-69 654.5z" />
<glyph unicode=")" horiz-adv-x="763" d="M-102 -154q311 129 407 811q27 205 28.5 361.5t-45.5 265t-145 150.5l52 176q325 -86 452.5 -327t69.5 -660q-59 -412 -242 -644t-526 -319z" />
<glyph unicode="*" horiz-adv-x="935" d="M115 1059l90 219l221 -107l-6 -100l-64 -59zM184 795l271 262l14 360h233l-86 -358l195 -264l-193 -136l-96 244l-164 -244zM653 1069l23 100l233 107l45 -219l-249 -53z" />
<glyph unicode="+" horiz-adv-x="1064" d="M33 463l47 317h323l46 324h313l-45 -324h323l-47 -317h-323l-45 -324h-314l45 324h-323z" />
<glyph unicode="," horiz-adv-x="526" d="M6 139l14 94q12 82 51.5 114t118.5 32h74q83 0 115 -36t22 -120l-18 -131q-15 -109 -67 -231t-117 -199l-174 66q12 26 22 53.5t20 60t15.5 53t16 60t14.5 53.5q-66 -1 -90.5 30.5t-16.5 100.5z" />
<glyph unicode="-" horiz-adv-x="782" d="M66 401l36 250h596l-36 -250h-596z" />
<glyph unicode="." horiz-adv-x="522" d="M6 156l10 84q20 139 166 139h82q74 0 113 -40.5t29 -115.5l-13 -84q-9 -73 -48 -106t-116 -33h-82q-79 0 -114.5 40t-26.5 116z" />
<glyph unicode="/" horiz-adv-x="1222" d="M-72 -162l1026 1575h346l-1026 -1575h-346z" />
<glyph unicode="0" horiz-adv-x="1343" d="M70 432q1 137 8 241.5t26 214t50 188.5t83 151t122.5 116.5t170.5 70.5t226 26q104 0 185.5 -13t151 -45t114.5 -83.5t70.5 -130.5t25.5 -183q0 -132 -6.5 -235.5t-25 -212t-50 -189.5t-83.5 -154.5t-123 -120t-172 -73.5t-227 -27q-130 0 -226 21.5t-171 72.5 t-112.5 142t-36.5 223zM504 473q-3 -91 33 -131.5t120 -40.5q51 0 88 32.5t59 84t35.5 138.5t19.5 171.5t9 206.5q3 96 -33.5 137t-123.5 41q-36 0 -64.5 -16.5t-49 -45t-36 -74.5t-25.5 -96t-16.5 -120t-10 -135t-5.5 -152z" />
<glyph unicode="1" horiz-adv-x="960" d="M88 1268l412 145h428l-199 -1413h-442l131 893q14 105 39 182l-332 -71z" />
<glyph unicode="2" horiz-adv-x="1208" d="M-23 0l33 229q8 61 23 100.5t49 76.5l338 288q25 23 65.5 58.5t64.5 57t56 51.5t51 50.5t37.5 44t26.5 42.5t8 36q0 21 -21.5 29t-72.5 8q-268 0 -467 -4l8 328q244 43 500 43q103 0 178.5 -8t138.5 -28.5t102 -54.5t60 -86.5t21 -125.5q0 -146 -60 -251.5t-190 -215.5 l-379 -326q87 31 196 31h373l-49 -373h-1090z" />
<glyph unicode="3" horiz-adv-x="1169" d="M-12 12l28 310q171 -11 379 -11q128 0 193 52t65 163q0 38 -26.5 54t-85.5 16h-297l35 266h288q86 0 116 36t30 130q0 41 -24 58.5t-95 17.5h-408v301q236 37 471 37q243 0 358 -66t115 -233q0 -165 -71.5 -268.5t-210.5 -120.5l-2 -9q126 -17 181.5 -80t55.5 -173 q0 -273 -160 -397t-466 -124q-202 0 -469 41z" />
<glyph unicode="4" horiz-adv-x="1337" d="M16 506l471 907h420l-401 -801q-9 -17 -11 -25.5t3 -13t20 -4.5h232l47 349l100 217h338l-80 -566h141l-32 -241l-142 -41h-6l-41 -287h-403l39 287h-547q-103 0 -146 67.5t-2 151.5z" />
<glyph unicode="5" horiz-adv-x="1144" d="M-20 12l55 330q227 -20 350 -12q121 7 187.5 49t66.5 139q0 39 -34.5 55t-125.5 27l-229 35q-65 9 -100 56t-23 108l121 614h907l-57 -317h-541l-37 -162l170 -21q111 -15 190.5 -54t121 -92.5t59.5 -109t18 -118.5q0 -259 -162 -404.5t-452 -159.5q-72 -4 -162.5 1.5 t-149.5 13t-173 22.5z" />
<glyph unicode="6" horiz-adv-x="1236" d="M62.5 442.5q0.5 108.5 21.5 251.5q19 135 47.5 240.5t64.5 184t85 134.5t103 91.5t125 56.5t144 29t168 8q208 0 355 -45l-54 -265h-344q-81 0 -125.5 -22t-72 -79t-48.5 -171q119 76 289 76q182 0 274 -79.5t87 -213.5q-4 -113 -18.5 -201t-43 -164.5t-74 -130.5 t-110.5 -92.5t-153 -57t-201 -18.5q-110 0 -191 13.5t-145.5 46t-103.5 86t-59.5 133.5t-20 188.5zM469 368q2 -57 40 -72q25 -10 79 -11q32 0 57.5 9t42.5 22t30 37.5t19.5 43t12 51.5t7 49.5t3.5 49.5q3 39 -31 66.5t-94 27.5q-67 0 -141 -49q-27 -183 -25 -224z" />
<glyph unicode="7" horiz-adv-x="1122" d="M111 1063l26 350h897q115 0 155 -60.5t-5 -154.5l-600 -1198h-437l455 905q38 80 107 158h-598z" />
<glyph unicode="8" horiz-adv-x="1298" d="M33 369q6 56 19 104t37.5 94.5t59 80t86 55.5t115.5 26l2 8q-77 13 -122.5 61.5t-58.5 118t-1 160.5q17 132 72 209t172.5 116.5t314.5 39.5q162 0 269.5 -25t165.5 -76.5t76 -123t3 -173.5q-44 -278 -272 -307l-2 -8q265 -28 213 -393q-19 -137 -73 -213.5t-174.5 -115 t-332.5 -38.5q-177 0 -294 25t-180.5 77.5t-84.5 124t-10 173.5zM459 418q-9 -83 18 -110t125 -27q47 0 74 5.5t50 23.5t34.5 51.5t19.5 89.5q12 93 -14.5 120t-124.5 27q-47 0 -73.5 -5t-51.5 -23t-37.5 -54.5t-19.5 -97.5zM559 985q-8 -72 13 -94.5t110 -22.5 q88 0 119.5 28t44.5 122q12 87 -10.5 112t-106.5 25q-88 0 -122.5 -31.5t-47.5 -138.5z" />
<glyph unicode="9" horiz-adv-x="1239" d="M37 18l29 269h397q126 0 185 58.5t89 207.5q-116 -78 -276 -78q-72 0 -130.5 15.5t-97.5 42t-67.5 64t-43 78.5t-21 88.5t-5.5 90.5t8 88q14 95 30.5 160.5t46.5 124.5t72 95t105 63t148.5 38t200.5 11q114 0 195.5 -14.5t143 -49t96.5 -88.5t51 -138t12.5 -191.5 t-23.5 -254.5q-24 -174 -60.5 -295.5t-89.5 -206.5t-132 -134t-178 -70t-237 -21q-241 0 -448 47zM510 961q-12 -121 4 -158t82 -37q99 0 176 43q22 193 18 238q-5 54 -43 68q-25 9 -81 9q-85 0 -115.5 -31t-40.5 -132z" />
<glyph unicode=":" horiz-adv-x="563" d="M-6 158l10 84q20 139 166 139h82q74 0 112.5 -40.5t28.5 -115.5l-12 -84q-9 -73 -48 -106t-116 -33h-82q-79 0 -114.5 40t-26.5 116zM74 723l10 84q20 139 166 139h82q74 0 112.5 -40t28.5 -115l-12 -84q-9 -73 -48 -106.5t-116 -33.5h-82q-79 0 -114.5 40t-26.5 116z " />
<glyph unicode=";" horiz-adv-x="559" d="M25 139l14 94q12 82 51.5 114t118.5 32h74q83 0 115 -36t22 -120l-19 -131q-15 -109 -67 -231t-117 -199l-174 66q12 26 22 53.5t20 60t15.5 53t16 60t14.5 53.5q-66 -1 -90 30.5t-16 100.5zM104 723l11 84q20 139 166 139h81q74 0 113 -40t29 -115l-12 -84 q-9 -73 -48 -106.5t-116 -33.5h-82q-79 0 -115 40t-27 116z" />
<glyph unicode="&#x3c;" horiz-adv-x="1030" d="M33 457l45 329l934 324l-45 -344l-549 -141l504 -158l-43 -332z" />
<glyph unicode="=" horiz-adv-x="1169" d="M43 240l49 315h979l-49 -315h-979zM106 674l46 315h978l-45 -315h-979z" />
<glyph unicode="&#x3e;" horiz-adv-x="1024" d="M25 131l47 342l542 162l-495 162l39 311l839 -322l-45 -329z" />
<glyph unicode="?" horiz-adv-x="1105" d="M152 1118l2 285q14 3 60.5 12t59 11t52 8.5t58.5 8.5t58.5 6t72 5t78 2.5t97.5 1.5q246 0 356 -82.5t87 -251.5q-8 -59 -33.5 -109.5t-60.5 -90t-76 -76t-84.5 -75.5t-83 -81t-74 -100t-53.5 -125h-336q8 88 39 170.5t73 143t83 109.5t77.5 91t48.5 66q12 23 13.5 37.5 t-8.5 21.5t-25.5 9.5t-44.5 2.5h-436zM268 156l13 84q17 139 163 139h82q75 0 114.5 -40.5t29.5 -115.5l-13 -84q-9 -73 -47 -106t-114 -33h-84q-79 0 -115.5 40t-28.5 116z" />
<glyph unicode="@" horiz-adv-x="1683" d="M59 473q14 86 35.5 153.5t47 115.5t61 82t72 55t85 33t94.5 16t107 4q202 0 545 -58l-90 -555q-11 -71 43 -71q81 0 106.5 56t65.5 287q9 52 14 81q13 75 20 125t3.5 93.5t-8.5 68.5t-32 45.5t-48.5 29t-77 14.5t-99.5 6.5t-133 0.5h-710l18 266q305 16 696 20 q136 1 232 -3t183 -17.5t142 -35t100 -59.5t66.5 -87t31.5 -121.5t5 -159t-22 -203.5q-16 -109 -28.5 -177.5t-31.5 -145t-39.5 -120.5t-53 -90.5t-72.5 -70.5t-96.5 -44.5t-126 -28t-160.5 -7.5q-145 0 -230 52t-119 135q-124 -183 -307 -183q-176 0 -252.5 124.5 t-36.5 373.5zM427.5 377.5q-1.5 -32.5 1 -51t13.5 -28t22 -11.5t32 -2q43 0 78.5 32t74.5 103l43 252h-90q-33 0 -52 -4.5t-42 -23.5t-40 -64.5t-30 -120.5q-9 -49 -10.5 -81.5z" />
<glyph unicode="A" horiz-adv-x="1388" d="M-100 0l544 1307q41 106 156 106h401q54 0 95 -35.5t47 -87.5l182 -1290h-444l-25 299h-385l-111 -299h-460zM592 623h239l-24 305q-4 32 -4 82q0 33 2 75h-57q-14 -79 -41 -153z" />
<glyph unicode="B" horiz-adv-x="1345" d="M23 0l198 1413q214 17 580 17q145 0 240.5 -18.5t157.5 -62.5q62 -45 83 -119q12 -43 12 -99q0 -40 -6 -87q-21 -152 -84.5 -222.5t-206.5 -82.5l-2 -12q163 -13 225 -112q44 -71 44 -182q0 -45 -7 -97q-15 -106 -51 -174.5t-104.5 -108t-159.5 -54.5t-229 -15 q-460 0 -690 16zM498 291h129q99 0 135 32t51 136q4 32 4 55q-1 40 -13 58q-20 26 -97 26h-166zM578 866h137q78 0 107 28t42 120q3 22 3 39q-1 31 -11 46q-16 23 -70 23h-172z" />
<glyph unicode="C" horiz-adv-x="1234" d="M84 723q20 145 47.5 251t69.5 187t94.5 133t128.5 85t165.5 46t211.5 13q152 0 254 -13.5t211 -44.5l-52 -321q-300 4 -436 4q-47 0 -76 -7t-55 -27.5t-42.5 -63.5t-30.5 -107.5t-27 -167.5q-20 -126 -20 -199v-13q2 -76 31 -102t106 -26q266 0 452 17l17 -326 q-116 -36 -226.5 -51t-263.5 -15q-240 0 -373 71q-133 70 -179 234q-25 88 -25 211q0 104 18 232z" />
<glyph unicode="D" d="M23 0l198 1413q276 21 576 21q101 0 181 -10.5t149 -35t118 -64t84 -97.5t51 -135q18 -78 18 -178q0 -3 -1 -5q0 -98 -17 -219q-31 -216 -78.5 -350t-134 -216.5t-205.5 -113t-305 -30.5q-321 0 -634 20zM510 303q47 -2 141 -2q56 0 94 16.5t71.5 61.5t56.5 129t40 215 q20 131 20 212q-1 15 -1 29q-4 86 -36.5 117t-113.5 31h-159z" />
<glyph unicode="E" horiz-adv-x="1202" d="M66 377l102 731q21 145 114.5 229t247.5 84q516 0 713 -28l-49 -312h-492q-52 0 -75 -18t-29 -64l-18 -129h510l-37 -295h-514l-23 -163q-1 -10 -2 -18q0 -62 78 -62h491l-8 -316q-36 -5 -79.5 -9t-78.5 -6.5t-91.5 -4t-85.5 -2.5t-95 -1.5t-86 -0.5h-93h-83 q-171 0 -255 107q-67 85 -67 210q0 33 5 68z" />
<glyph unicode="F" horiz-adv-x="1161" d="M18 0l156 1108q20 145 117.5 229t243.5 84q506 0 700 -30l-49 -310h-471q-56 0 -80.5 -18t-30.5 -64l-22 -157h493l-37 -295h-497l-76 -547h-447z" />
<glyph unicode="G" horiz-adv-x="1372" d="M67 427q-1 27 -1 56q0 107 20 240q21 147 52 256t78.5 189.5t106.5 133t141.5 84t176.5 44t219 12.5q273 0 473 -62l-49 -317q-308 4 -455 4q-133 0 -189.5 -78.5t-90.5 -298.5q-17 -108 -20 -172q-1 -11 -1 -21q0 -49 12 -81q14 -39 42.5 -52.5t81.5 -13.5q44 0 83 12 t57 22.5t44 29.5l55 399h424l-115 -813h-325l-17 164q-189 -193 -413 -193q-86 0 -153 24t-121 77.5t-81.5 140.5t-34.5 214z" />
<glyph unicode="H" horiz-adv-x="1443" d="M25 0l198 1413h445l-72 -506h338l72 506h444l-199 -1413h-444l84 592h-338l-84 -592h-444z" />
<glyph unicode="I" horiz-adv-x="659" d="M25 0l198 1413h443l-199 -1413h-442z" />
<glyph unicode="J" horiz-adv-x="808" d="M-49 29l69 274h76q122 0 131 80l150 1030h442l-160 -1161q-20 -136 -119 -208.5t-257 -72.5q-85 0 -186.5 16t-145.5 42z" />
<glyph unicode="K" horiz-adv-x="1368" d="M25 0l198 1413h447l-56 -391q-10 -77 -32 -145h67l344 536h492l-395 -590q-55 -86 -148 -121l-2 -8q28 -12 60.5 -54t52.5 -89l245 -551h-479l-219 590h-63q4 -29 4 -60q0 -38 -6 -77l-64 -453h-446z" />
<glyph unicode="L" horiz-adv-x="1130" d="M63 322l152 1091h447l-146 -979q-1 -11 -1 -20q0 -30 12 -44q16 -18 63 -18h467l-8 -334q-196 -26 -678 -26q-154 0 -242 94q-70 75 -70 181q0 27 4 55z" />
<glyph unicode="M" horiz-adv-x="1939" d="M0 0l227 1268q14 76 51 110.5t111 34.5h377q70 0 111.5 -38.5t42.5 -106.5l24 -561q2 -34 2 -71q0 -66 -6 -140h21q11 55 51 206l172 582q18 68 61 98.5t115 30.5h395q75 1 114 -43q33 -37 33 -97q0 -11 -1 -22l-127 -1251h-400l111 1081h-29l-237 -729q-20 -67 -63 -97 t-116 -30h-225q-71 0 -113 38.5t-45 105.5l-39 712h-32l-187 -1081h-399z" />
<glyph unicode="N" horiz-adv-x="1495" d="M23 0l178 1268q11 76 49 110.5t112 34.5h148q33 0 56.5 -8.5t42 -31t28.5 -40t29 -57.5l237 -461q52 -106 86 -244h17q-5 52 -5 103q0 69 9 137l86 602h407l-178 -1268q-11 -75 -49 -110t-113 -35h-147q-63 0 -93 31t-65 106l-242 486q-38 76 -71 233h-15v-48 q0 -118 -12 -214l-88 -594h-407z" />
<glyph unicode="O" d="M66 498q2 99 18 225q24 173 63.5 295.5t95 205.5t137.5 130.5t181 67.5t236 20q90 0 162.5 -8t136.5 -26.5t112 -48.5t85.5 -72.5t60.5 -100.5q24 -56 36 -130q10 -63 9 -138v-27q-2 -91 -17 -201q-20 -146 -49.5 -255.5t-74.5 -189.5t-100 -132.5t-132 -84t-164 -44.5 t-203 -13q-107 0 -190 11t-151.5 36t-115.5 66t-79 98q-31 58 -45 138q-12 72 -13 158q1 10 1 20zM528 414q4 -46 22.5 -69.5t46 -33.5t73.5 -10q48 0 80 11t57 36t43.5 76.5t33 119.5t31.5 179q19 124 23 197q1 14 0 27q0 55 -12 91q-15 44 -45.5 59t-87.5 15 q-47 0 -78 -11t-56.5 -36t-43.5 -76t-33.5 -120t-32.5 -179q-16 -100 -21 -166q-3 -34 -3 -63q1 -25 3 -47z" />
<glyph unicode="P" horiz-adv-x="1306" d="M23 0l198 1413q215 21 570 21q95 0 168 -7.5t134.5 -24t103.5 -43.5t73 -65.5t44 -90.5q12 -53 16 -119q1 -14 1 -28q0 -55 -10 -120q-19 -139 -55 -226.5t-104.5 -140.5t-162 -73.5t-237.5 -20.5q-98 0 -227 14l-70 -489h-442zM575 788h148q57 0 84 10.5t46 49t30 121.5 q4 32 4 57q-1 42 -13 62q-20 32 -94 32h-157z" />
<glyph unicode="Q" d="M66 498q1 99 18 225q24 173 63.5 295.5t95 205.5t137.5 130.5t181 67.5t236 20q90 0 162.5 -8t136.5 -26.5t112 -48.5t85.5 -72.5t61 -100t35.5 -130.5q9 -63 9 -138v-27q-2 -91 -17 -201q-20 -146 -49.5 -255.5t-74.5 -189.5t-100 -132.5t-132 -84t-164 -44.5t-203 -13 q-107 0 -190 11t-151.5 36t-115.5 66t-79 98.5t-45 137.5q-13 71 -13 158q0 10 1 20zM371 -266l123 211q135 -53 284 -86t369 -66l-160 -358q-388 116 -616 299zM528 414q4 -46 22.5 -69.5t46 -33.5t73.5 -10q48 0 80 11t57 36t43.5 76.5t33 119.5t31.5 179q19 124 23 197 v27q0 54 -12 91q-15 44 -45.5 59t-87.5 15q-47 0 -78 -11t-56.5 -36t-43.5 -76t-33.5 -120t-32.5 -179q-16 -100 -21 -166q-3 -34 -3 -63q0 -26 3 -47z" />
<glyph unicode="R" horiz-adv-x="1370" d="M23 0l198 1413q215 21 572 21q152 0 258.5 -22.5t180.5 -73.5q72 -52 100 -139q17 -54 17 -122q0 -42 -6 -90q-9 -66 -28 -116t-54 -95t-94.5 -72.5t-142.5 -35.5l-2 -15q30 -4 57 -16t55.5 -36t48 -69t25.5 -106l54 -426h-459l-37 428q-1 56 -17.5 72t-64.5 16h-156 l-71 -516h-434zM573 829h154q91 0 125 31.5t49 130.5q3 23 3 41q0 40 -16 60q-24 28 -100 28h-174z" />
<glyph unicode="S" horiz-adv-x="1232" d="M8 43l41 309q397 -10 488 -10q92 0 129 13t45 46q6 25 -8.5 41t-59.5 39l-258 127q-87 43 -144 93t-83 103q-26 54 -34 114q-4 28 -4 56q0 34 5 68q14 116 55.5 193.5t118 123t179.5 64.5t253 19q285 0 506 -74l-39 -283q-313 5 -496 5q-71 0 -101.5 -12.5t-37.5 -45.5 q-5 -25 13 -44.5t77 -47.5l238 -113q169 -81 223 -179q40 -74 40 -183q0 -37 -5 -78q-14 -124 -49.5 -203t-107 -127t-173.5 -67t-260 -19q-270 0 -551 72z" />
<glyph unicode="T" horiz-adv-x="1265" d="M88 1081l47 332h1225l-47 -332h-391l-152 -1081h-444l151 1081h-389z" />
<glyph unicode="U" d="M92 592l119 821h442l-118 -838q-14 -81 -14 -135q0 -18 1 -32q6 -60 39 -83.5t109 -23.5q48 0 80 9t55 27t39 55t26.5 81.5t22.5 118.5l117 821h444l-121 -838q-19 -138 -51 -236t-83 -170.5t-126.5 -115t-176 -62.5t-237.5 -20q-331 0 -471 145q-107 111 -106 330 q0 68 10 146z" />
<glyph unicode="V" horiz-adv-x="1361" d="M111 1413h446l49 -903q2 -32 2 -78t-2 -106h53q12 74 48 176l307 911h467l-527 -1302q-43 -111 -155 -111h-387q-56 0 -96 36t-46 91z" />
<glyph unicode="W" horiz-adv-x="2037" d="M147 127l5 1286h436l-56 -874q-2 -41 -8 -125.5t-8 -110.5h35q24 132 57 254l197 733q15 58 56.5 90.5t101.5 32.5h309q59 0 98 -40t39 -99v-737q0 -86 -4 -234h37q12 111 43 248l188 862h436l-356 -1302q-13 -53 -55 -82t-101 -29h-372q-58 0 -100.5 37t-41.5 90l15 756 q1 49 10 215h-37q-13 -88 -41 -209l-203 -778q-13 -53 -55 -82t-100 -29h-383q-58 0 -100.5 37t-41.5 90z" />
<glyph unicode="X" horiz-adv-x="1376" d="M-94 0l446 721l-213 692h428l146 -549l309 549h453l-418 -692l239 -721h-436l-153 582l-330 -582h-471z" />
<glyph unicode="Y" horiz-adv-x="1329" d="M94 1413h443l108 -452q15 -67 15 -163q0 -21 -1 -44h31q10 95 62 202l239 457h473l-604 -985l-59 -428h-447l64 453z" />
<glyph unicode="Z" horiz-adv-x="1224" d="M-23 0l41 311l684 791h-548l43 311h1063l-43 -311l-682 -791h589l-43 -311h-1104z" />
<glyph unicode="[" horiz-adv-x="745" d="M25 -123l211 1497q14 93 72.5 146t150.5 53h375l-37 -262h-111q-32 0 -46.5 -11.5t-18.5 -42.5l-183 -1286q-6 -47 39 -47h125l-37 -262h-350q-220 0 -190 215z" />
<glyph unicode="\" horiz-adv-x="1189" d="M143 1413h320l594 -1575h-320z" />
<glyph unicode="]" horiz-adv-x="745" d="M-80 -338l37 262h111q31 0 45 11.5t18 41.5l182 1287q6 47 -37 47h-124l36 262h351q92 0 146 -61.5t42 -153.5l-211 -1497q-12 -93 -70.5 -146t-150.5 -53h-375z" />
<glyph unicode="^" horiz-adv-x="1017" d="M106 848l353 489h311l231 -489l-170 -86l-227 321h-16l-322 -321z" />
<glyph unicode="_" horiz-adv-x="923" d="M-106 -250l34 250h924l-35 -250h-923z" />
<glyph unicode="`" horiz-adv-x="802" d="M178 1264l164 266l481 -307l-137 -176z" />
<glyph unicode="a" horiz-adv-x="1255" d="M33 300q-1 19 -1 39q0 92 19 202q11 72 27 131.5t37.5 107t44.5 85t55 65.5t62.5 48t73 33.5t80 22t90.5 12.5t97 5.5t107 1.5q107 0 273 -22t225 -44l-140 -987h-331l-4 199q-137 -206 -400 -224q-17 -1 -33 -1q-85 0 -145 31q-70 37 -101 112t-36 183zM470 348 q6 -44 54 -43h8q40 3 93 47.5t98 110.5l43 309h-94q-37 0 -61.5 -7t-50.5 -28.5t-43.5 -67t-27.5 -116.5q-21 -126 -21 -181q1 -14 2 -24z" />
<glyph unicode="b" horiz-adv-x="1261" d="M12 61l193 1373h432l-33 -252q-17 -152 -67 -279q160 150 362 150q310 0 310 -368q0 -80 -15 -177q-14 -89 -35 -159t-65 -143t-106.5 -121.5t-163 -79t-230.5 -30.5q-141 0 -321.5 23t-260.5 63zM475 268q42 -5 73 -5q13 0 25 1q82 5 121.5 61t63.5 214q12 70 12 110 q0 23 -4 35q-10 36 -59 35q-78 0 -175 -62z" />
<glyph unicode="c" horiz-adv-x="1097" d="M43 530q26 189 87.5 300.5t180 167t310.5 55.5q281 0 469 -80l-58 -262h-360q-90 0 -127.5 -41.5t-52.5 -151.5q-8 -74 -8 -108q0 -36 16 -57q16 -22 42.5 -30t75.5 -8q207 0 345 15l30 -273q-173 -82 -450 -82q-281 1 -411 133q-99 101 -98 294q0 60 9 128z" />
<glyph unicode="d" horiz-adv-x="1263" d="M49 541q16 121 45.5 211.5t68.5 147t91 91.5t106.5 48.5t122.5 13.5q187 0 328 -27q0 122 14 213l37 195h430l-202 -1434h-340l-9 164q-198 -189 -383 -189q-320 0 -320 402q0 75 11 164zM478 374q9 -42 55 -42h8q79 5 172 71l53 390h-96q-64 0 -96.5 -17.5t-52.5 -67.5 t-34 -155q0 -4 -1 -11q-11 -86 -11 -132q0 -24 3 -36z" />
<glyph unicode="e" horiz-adv-x="1208" d="M43 520q13 130 48 223.5t85.5 153t127.5 94.5t162.5 48.5t201.5 13.5q157 0 263 -24t164 -74q59 -51 77 -119q11 -39 10 -86q0 -36 -6 -78q-19 -132 -118.5 -185t-318.5 -69l-256 -19q3 -57 35 -75.5t111 -18.5q215 0 420 23l28 -262q-194 -91 -485 -91q-173 0 -287.5 35 t-175.5 107t-81 169q-11 56 -11 126q0 51 6 108zM510 608l117 13q73 7 103 23.5t36 70.5q2 36 -16 49q-17 12 -70 12h-8q-76 -2 -108 -35t-54 -133z" />
<glyph unicode="f" horiz-adv-x="866" d="M-195 -360l66 256h100q64 0 92 24.5t39 89.5l109 756h-166l31 248l174 10l18 133q23 156 114.5 241t274.5 85q79 0 194.5 -8.5t184.5 -22.5l-65 -256h-164q-61 0 -88.5 -25t-36.5 -90l-8 -57h239l-34 -258h-244l-123 -832q-23 -156 -114 -240.5t-275 -84.5q-96 0 -318 31 z" />
<glyph unicode="g" horiz-adv-x="1265" d="M10 -346l21 231h258q156 0 254 29t145 102q26 39 46 111t34 100q-139 -218 -414 -231q-13 -1 -25 -1q-92 0 -155 33q-71 37 -102 108.5t-36 174.5q-1 19 -1 39q0 88 18 191q19 119 46 206t68 142.5t81.5 89t105 49.5t118 20.5t140.5 4.5q190 0 364.5 -20.5t256.5 -45.5 l-113 -803q-15 -112 -43.5 -202t-65.5 -152.5t-87 -108t-100 -72t-114 -42t-119 -20.5t-124 -5q-303 0 -457 72zM474 424q-2 -21 -2 -38q0 -23 3 -40q6 -29 21 -37.5t43 -3.5q47 9 98 51.5t96 108.5l43 307h-98q-51 0 -81.5 -9.5t-51 -38t-31 -65t-22.5 -106.5 q-14 -80 -18 -129z" />
<glyph unicode="h" horiz-adv-x="1267" d="M6 0l201 1434h430l-43 -314q-17 -122 -59 -243q202 176 389 176q156 0 229 -77q57 -60 57 -160q0 -27 -4 -58l-106 -758h-430l90 637q6 33 -1.5 43t-37.5 10q-48 0 -93 -18t-108 -66l-84 -606h-430z" />
<glyph unicode="i" horiz-adv-x="622" d="M14 0l142 1024h428l-142 -1024h-428zM190 1270l15 104q6 61 40.5 90t100.5 29h166q124 0 125 -110q0 -12 -2 -25l-14 -105q-7 -61 -41.5 -89.5t-100.5 -28.5h-168q-122 0 -122 110q0 12 1 25z" />
<glyph unicode="j" horiz-adv-x="626" d="M-150 -195q86 80 128.5 156t54.5 166l129 897h430l-133 -913q-21 -165 -120.5 -304t-252.5 -200zM188 1270l15 104q7 61 43 90t104 29h162q123 0 123 -106q0 -14 -2 -29l-15 -105q-14 -118 -145 -118h-162q-70 0 -101 33q-24 26 -24 75q0 13 2 27z" />
<glyph unicode="k" horiz-adv-x="1247" d="M6 0l201 1434h430l-78 -557q-20 -123 -88 -250q121 66 209.5 172.5t114.5 224.5h442q-70 -313 -350 -496q74 -53 114 -141l187 -387h-440l-175 379q-56 -22 -92 -31q0 -27 -4 -63l-41 -285h-430z" />
<glyph unicode="l" horiz-adv-x="737" d="M43 266l166 1168h428l-154 -1069q-7 -40 8.5 -53t71.5 -13h82l25 -279q-44 -25 -134 -37t-159 -12q-171 0 -261 80q-76 67 -76 173q0 21 3 42z" />
<glyph unicode="m" horiz-adv-x="1810" d="M6 0l144 1024h333l13 -145q95 92 182 133t190 41q212 0 260 -148q87 77 170 112.5t179 35.5q152 0 223 -78q55 -61 55 -159q0 -28 -4 -58l-106 -758h-426l88 637q4 31 -6.5 42t-32.5 11q-60 0 -148 -61l-88 -629h-411l88 637q6 31 -4.5 42t-34.5 11q-61 0 -150 -57 l-86 -633h-428z" />
<glyph unicode="n" horiz-adv-x="1267" d="M6 0l141 1024h336l11 -180q97 97 216 153t232 56q133 0 210 -77q60 -60 60 -161q0 -27 -4 -57l-106 -758h-432l88 618q6 43 -5.5 59.5t-50.5 12.5q-82 -7 -180 -82l-86 -608h-430z" />
<glyph unicode="o" horiz-adv-x="1259" d="M43 526q41 294 179.5 410.5t447.5 116.5q312 0 438 -129q94 -97 95 -290q0 -65 -11 -140q-41 -289 -179 -404t-444 -115q-311 0 -439 128q-97 96 -97 288q0 62 10 135zM480 352q4 -50 27 -68t79 -18q77 0 107 48.5t55 211.5q14 77 14 126q0 12 -1 22q-4 52 -25.5 70 t-73.5 18q-83 0 -114 -50t-56 -218q-13 -74 -12 -121q-1 -11 0 -21z" />
<glyph unicode="p" horiz-adv-x="1259" d="M-45 -369l192 1393h342v-180q82 85 188 145t224 60q175 0 249 -144q49 -98 49 -257q0 -75 -11 -165q-16 -125 -48 -216t-73 -147.5t-99 -90t-118.5 -46t-138.5 -12.5q-133 0 -283 27q0 -96 -14 -191l-29 -176h-430zM473 231h94q42 0 68.5 7t45 20t30.5 44.5t19.5 67 t17.5 101.5q14 103 14 158q0 25 -2 41q-10 49 -58 49q-39 0 -90 -27.5t-92 -68.5z" />
<glyph unicode="q" horiz-adv-x="1263" d="M47 520q11 73 23 127.5t34 113t51 100t73 79.5t101.5 61.5t136 37.5t175.5 14q147 0 327.5 -23t260.5 -63l-191 -1336h-430l29 215q18 148 51 260q-76 -61 -160 -96t-153 -35q-207 0 -288 131q-54 86 -54 240q0 79 14 174zM477 379q11 -47 70 -47q29 0 62.5 12.5 t50.5 23.5t53 35l53 357q-41 4 -100 4q-83 -6 -121.5 -52t-59.5 -182q-12 -66 -12 -109q0 -25 4 -42z" />
<glyph unicode="r" horiz-adv-x="925" d="M6 0l144 1024h335l15 -139q202 168 407 168h74l-88 -394h-96q-105 0 -273 -26l-86 -633h-432z" />
<glyph unicode="s" horiz-adv-x="1122" d="M-6 23l35 247h344q157 0 204 6.5t50 26.5q1 15 -19 24.5t-92 30.5l-215 62q-232 66 -232 281q0 33 5 69q8 56 27 98t55.5 78t90.5 59t135 35.5t187 12.5q124 0 275.5 -13.5t240.5 -33.5l-34 -248h-392q-113 0 -144 -3.5t-34 -17.5q-3 -15 17.5 -26.5t83.5 -28.5l223 -59 q236 -63 236 -275q0 -23 -3 -49q-10 -80 -38.5 -137t-70.5 -93t-106.5 -56.5t-135.5 -28t-169 -7.5q-268 0 -524 46z" />
<glyph unicode="t" horiz-adv-x="899" d="M47 766l31 248l184 10l39 268h424l-39 -268h246l-35 -258h-248l-57 -401q-6 -41 5.5 -53.5t57.5 -12.5h121l23 -279q-64 -25 -163 -37t-179 -12q-159 1 -243 81q-68 65 -68 165q0 24 4 49l73 500h-176z" />
<glyph unicode="u" horiz-adv-x="1255" d="M37 266l104 758h432l-92 -637q-4 -31 8.5 -43t38.5 -12q43 0 84 17t99 59l88 616h426l-142 -1024h-335l-9 174q-209 -203 -417 -203q-159 1 -232 77q-57 60 -57 160q0 27 4 58z" />
<glyph unicode="v" horiz-adv-x="1243" d="M66 1024h471l-7 -766h19q41 0 60 23.5t53 107.5q37 90 73 262q29 141 51 373h469q-29 -222 -100 -438q-68 -212 -158 -373q-39 -68 -78 -110.5t-89 -65t-102 -30t-130 -7.5h-303q-49 0 -82.5 31t-38.5 78z" />
<glyph unicode="w" horiz-adv-x="1894" d="M84 1026h436l-16 -760h12q30 0 49 31.5t37 103.5q21 86 37 187q9 51 25.5 167.5t23.5 162.5q5 41 37 73.5t90 32.5h352q49 0 82 -31.5t35 -77.5l6 -649h15q8 0 15 2t13 7.5t10 11t8.5 15.5t7 18t6 23t5.5 25t6 28t6 30q16 75 41 233q26 171 39 365h426q-27 -242 -69 -422 q-49 -215 -101 -340q-30 -74 -62 -120t-83 -80t-124 -48t-181 -14h-158q-52 0 -86.5 33.5t-34.5 81.5l4 655h-24q-10 -89 -39 -252q-24 -135 -47 -227q-16 -59 -37 -104.5t-42.5 -76t-53 -51.5t-58.5 -33t-69.5 -17.5t-74.5 -7t-85 -1.5h-225q-50 0 -84 33.5t-37 81.5z" />
<glyph unicode="x" horiz-adv-x="1236" d="M-92 0l371 522l-199 502h397l133 -358l244 358h430l-346 -502l217 -522h-403l-146 381l-256 -381h-442z" />
<glyph unicode="y" horiz-adv-x="1273" d="M61 1024h471l17 -733q0 -13 9.5 -23t23.5 -10h49q69 156 114.5 335t81.5 431h461q-34 -252 -155.5 -568t-200.5 -440q-148 -232 -344 -342q-176 -97 -399 -97q-27 0 -54 1l-26 232q27 9 81.5 26.5t81.5 28t67.5 29.5t73.5 45t64 61h-162q-50 0 -85.5 31t-41.5 78z" />
<glyph unicode="z" horiz-adv-x="1101" d="M-20 0l34 276h-2l529 472h-445l37 276h954l-34 -276h2l-527 -472h467l-37 -276h-978z" />
<glyph unicode="{" horiz-adv-x="749" d="M39 541l33 266q28 9 36.5 12t27 11t24 15.5t15 21.5t14 32t8.5 45l47 338q23 170 162 251t405 38l-33 -260q-71 0 -99 -15t-34 -71l-37 -256q-16 -142 -73 -211t-205 -90q235 -67 202 -301l-49 -357q-6 -43 18.5 -64.5t92.5 -21.5l-12 -264q-149 -21 -252.5 -7t-165 59.5 t-85 110.5t-11.5 146l63 455q2 16 2 29t-1.5 22t-7 17t-9.5 12.5t-14 10t-17 8.5t-21.5 8.5t-23.5 9.5z" />
<glyph unicode="|" horiz-adv-x="565" d="M0 -346l274 1945h299l-274 -1945h-299z" />
<glyph unicode="}" horiz-adv-x="747" d="M-66 -336l33 260q32 0 46.5 0.5t33.5 4.5t27 12.5t15 23.5t9 39l54 379q19 119 78.5 187.5t207.5 105.5q-127 18 -171 95t-23 214l39 256q6 40 -18.5 55t-96.5 15l12 264q149 21 252.5 7t165.5 -59.5t85.5 -110.5t12.5 -146l-49 -338q-3 -20 -3.5 -35t-0.5 -25.5t5 -19 t7.5 -13t13 -10t16 -7.5t22 -7t24.5 -8l-35 -266q-71 -27 -90 -43q-33 -28 -41 -86l-63 -455q-12 -82 -49.5 -143t-106.5 -103.5t-170.5 -52.5t-241.5 10z" />
<glyph unicode="~" horiz-adv-x="1024" d="M72 432q-7 171 49.5 254.5t146.5 83.5q44 0 130.5 -19t181.5 -44.5t100 -26.5q52 -11 70.5 11t27.5 77l172 -16q6 -169 -45.5 -253.5t-148.5 -84.5q-46 0 -134 19.5t-177 43.5t-105 27q-50 10 -69 -11t-27 -77z" />
<glyph unicode="&#xa1;" horiz-adv-x="638" d="M-27 -358l66 479l113 479h335l-22 -479l-66 -479h-426zM156 842l10 84q20 139 166 139h82q74 0 112.5 -40.5t28.5 -115.5l-12 -84q-9 -73 -48 -106t-116 -33h-82q-79 0 -114.5 40t-26.5 116z" />
<glyph unicode="&#xa2;" horiz-adv-x="1101" d="M74 729q19 136 54.5 230t98 159.5t154 97t221.5 35.5l43 162h320l-50 -186q108 -19 189 -56l-60 -262h-354q-84 0 -118.5 -41t-49.5 -151q-18 -125 6 -164t111 -39q211 0 338 14l29 -272q-142 -69 -367 -80l-47 -176h-318l54 205q-312 100 -254 524z" />
<glyph unicode="&#xa3;" horiz-adv-x="1220" d="M-2 0l37 346q106 48 153 119t52 166v12h-154l25 205h141l10 203q9 118 40 193.5t92 119t142 60t205 16.5q208 0 484 -21l-39 -317h-381q-62 0 -87 -18.5t-28 -69.5l-6 -166h301l-39 -205h-268l-2 -29q-2 -50 -14 -92t-27.5 -70t-44 -55.5t-49.5 -42.5t-58 -39 q73 27 168 27h475l-45 -342h-1083z" />
<glyph unicode="&#xa4;" horiz-adv-x="1167" d="M43 410l147 133q-35 90 -20 194q14 103 78 199l-127 139l190 170l129 -143q89 47 193 47q118 0 207 -53l149 137l170 -186l-158 -144q36 -92 21 -198q-16 -110 -74 -195l129 -139l-188 -170l-129 141q-96 -49 -199 -49q-118 0 -211 55l-137 -125zM410 727 q-12 -86 37.5 -139t127.5 -53q82 0 139.5 50t69.5 134q12 87 -35.5 139.5t-127.5 52.5q-89 0 -144 -49t-67 -135z" />
<glyph unicode="&#xa5;" horiz-adv-x="1443" d="M152 1413h442l108 -452q17 -86 13 -207h30q10 95 62 202l237 457h474l-416 -680h151l-28 -205h-250l-37 -61h279l-29 -205h-295l-37 -262h-446l36 262h-292l24 205h291l-20 61h-259l25 205h164z" />
<glyph unicode="&#xa6;" horiz-adv-x="571" d="M4 -346l115 819h299l-115 -819h-299zM162 780l117 819h299l-117 -819h-299z" />
<glyph unicode="&#xa7;" horiz-adv-x="1105" d="M-31 -377l45 289q36 0 129 -2t146 -2q102 0 144.5 11t49.5 50q8 43 -49 76l-192 113q-168 89 -193 215.5t76 310.5l297 -16q-5 -39 -6.5 -63t2.5 -47t9.5 -35.5t23 -29.5t35 -29t51.5 -34l249 -156q4 -3 19 -12.5t23 -15t23.5 -18.5t25 -23t22.5 -28t20.5 -35t15.5 -41.5 t10.5 -50.5t2 -59.5t-5.5 -70.5q-11 -78 -38.5 -135t-67.5 -93t-100.5 -57.5t-129.5 -29.5t-162 -8q-280 0 -475 26zM135 1048.5q2 29.5 4 67.5q10 82 43.5 142t78.5 94.5t111 55.5t128.5 27.5t142.5 6.5q251 0 471 -25l-45 -291q-60 4 -319 2q-82 0 -115.5 -12t-34.5 -47 q-4 -46 72 -90l170 -98q168 -89 192.5 -216t-76.5 -311l-296 17q5 39 7 62.5t-3 46.5t-9.5 34.5t-23.5 29.5t-34.5 29t-51.5 35l-250 168q-19 14 -32.5 25t-32 27.5t-30 31.5t-26 37t-21 43t-14.5 50t-6 58.5z" />
<glyph unicode="&#xa8;" horiz-adv-x="892" d="M207 1253l22 150q6 39 24 55.5t56 16.5h158q70 0 61 -68l-22 -156q-5 -35 -21 -50t-51 -15h-166q-70 0 -61 67zM594 1253l22 152q6 38 23 54t51 16h164q70 0 61 -68l-22 -154q-6 -37 -21.5 -52t-50.5 -15h-166q-70 0 -61 67z" />
<glyph unicode="&#xa9;" horiz-adv-x="1611" d="M78 723q37 335 254 527t549 192q345 0 532 -205t152 -547q-34 -330 -247.5 -524.5t-551.5 -194.5q-167 0 -302.5 50.5t-228 145t-134.5 237.5t-23 319zM283 690q-21 -245 100 -386.5t373 -141.5q255 0 417.5 147t186.5 414q22 248 -100.5 388t-372.5 140 q-259 0 -420 -149t-184 -412zM436 725q28 217 127 300t322 83q145 0 270 -35l-31 -221h-270q-50 0 -69.5 -26.5t-28.5 -112.5q-10 -91 2 -118t61 -30q110 -7 258 6l19 -223q-124 -41 -279 -41q-235 0 -322.5 94t-58.5 324z" />
<glyph unicode="&#xaa;" horiz-adv-x="919" d="M98.5 725.5q-8.5 85.5 7.5 204.5q10 67 28 118.5t39.5 87t55.5 60t66 38t82 21t92 9.5t106 2q108 1 202 -12.5t134 -30.5l-92 -650h-237l-4 132q-83 -136 -252 -148q-107 -7 -163 38t-64.5 130.5zM416 800q6 -20 35 -18q23 1 53 27t55 65l31 201h-55q-41 0 -68 -27 t-41 -112q-16 -116 -10 -136z" />
<glyph unicode="&#xab;" horiz-adv-x="1134" d="M37 465l6 92l332 406l231 -144l-180 -305l127 -315l-225 -148zM516 465l6 92l332 406l231 -144l-180 -305l127 -315l-225 -148z" />
<glyph unicode="&#xac;" horiz-adv-x="1165" d="M63 477l48 316h983l-74 -510h-340l29 194h-646z" />
<glyph unicode="&#xad;" horiz-adv-x="786" d="M66 401l36 250h596l-36 -250h-596z" />
<glyph unicode="&#xae;" horiz-adv-x="1011" d="M106 1004q30 199 166.5 318.5t348.5 119.5q125 0 220.5 -59t142.5 -167.5t28 -244.5q-30 -199 -166 -320t-346 -121q-94 0 -173.5 35t-133 96.5t-77.5 150.5t-10 192zM219 971q-20 -149 65.5 -242.5t223.5 -93.5q166 0 268 99.5t123 269.5q10 74 -8.5 137.5t-58.5 105.5 t-97 66t-123 24q-166 0 -268.5 -98t-124.5 -268zM330 784l59 426q71 7 186 7q122 0 176 -33t42 -105q-9 -83 -103 -92l-2 -4q30 -2 48 -19t22 -59l12 -121h-180l-2 125q0 12 -4.5 16.5t-16.5 4.5h-43l-20 -146h-174zM539 1034h39q21 0 29 5t11 24t-1 26t-23 7h-47z" />
<glyph unicode="&#xaf;" horiz-adv-x="819" d="M180 1208l35 252h655l-34 -252h-656z" />
<glyph unicode="&#xb0;" horiz-adv-x="679" d="M123 1167q15 119 96 191t211 72q81 0 149 -36t105.5 -104.5t26.5 -154.5q-15 -122 -99.5 -193.5t-214.5 -71.5q-129 0 -210.5 83t-63.5 214zM319 1155q-6 -49 19 -76.5t72 -27.5q43 0 71.5 25.5t32.5 70.5q5 45 -19.5 73.5t-72.5 28.5q-45 0 -71.5 -26t-31.5 -68z" />
<glyph unicode="&#xb1;" horiz-adv-x="1136" d="M10 39l47 317h959l-45 -317h-961zM96 637l45 315h324l31 222h313l-33 -222h326l-47 -315h-324l-31 -219h-311l31 219h-324z" />
<glyph unicode="&#xb2;" horiz-adv-x="882" d="M106 737l25 162q10 87 64 131l170 129q186 139 186 162q0 10 -59 10q-160 0 -285 4l26 240q143 24 332 24q93 0 153 -7.5t106.5 -27.5t67.5 -58t21 -97q0 -79 -43.5 -141t-119.5 -119l-209 -154q69 19 118 17l222 -6l-39 -269h-736z" />
<glyph unicode="&#xb3;" horiz-adv-x="841" d="M98 743l41 232q65 -2 256 -2h11q32 0 46 0.5t32 3.5t24 10t11 19t5 32q0 18 -15.5 23.5t-62.5 7.5l-178 6l27 191l180 8q54 2 69 10.5t15 42.5q0 15 -15 20t-61 5q-126 0 -270 4l25 223q183 25 331 25q170 0 246 -33t76 -115q0 -128 -47.5 -192.5t-149.5 -73.5v-4 q84 -11 123 -45t39 -99q0 -95 -24 -158.5t-75.5 -99.5t-121.5 -50.5t-172 -14.5q-175 0 -365 24z" />
<glyph unicode="&#xb4;" horiz-adv-x="802" d="M184 1223l506 319l135 -299l-544 -196z" />
<glyph unicode="&#xb5;" horiz-adv-x="1318" d="M-14 -369l114 807l80 586h432l-90 -623q-5 -36 5.5 -52.5t39.5 -16.5q60 0 117.5 73.5t85.5 249.5l49 369h432l-98 -692q-8 -50 0 -71t39 -21h82l-14 -209q-164 -58 -330 -58q-221 0 -221 193v2q-103 -150 -244 -186l-16 -115l-89 -236h-374z" />
<glyph unicode="&#xb6;" horiz-adv-x="1218" d="M82 938q41 277 198.5 388.5t501.5 111.5q234 0 398 -35l-33 -240l-164 -1163h-256l166 1184q-25 2 -66 2l-227 -1616h-256l119 844q-226 27 -319.5 166t-61.5 358z" />
<glyph unicode="&#xb7;" horiz-adv-x="536" d="M59 496l11 84q20 139 166 139h81q74 0 113 -40.5t29 -115.5l-13 -84q-9 -73 -47.5 -106t-115.5 -33h-82q-79 0 -115 40t-27 116z" />
<glyph unicode="&#xb8;" horiz-adv-x="538" d="M-102 -500l43 158q39 0 68 3t59 12t49.5 29t25.5 50q2 11 0 16.5t-15.5 10t-38.5 5.5t-73 1l37 147q111 13 195 12.5t128 -40t30 -121.5q-19 -110 -93 -181t-180.5 -95.5t-234.5 -6.5z" />
<glyph unicode="&#xb9;" horiz-adv-x="657" d="M152 1505l233 80h328l-119 -848h-328l66 473q10 70 30 123l-202 -28z" />
<glyph unicode="&#xba;" horiz-adv-x="888" d="M98 926q27 193 122.5 271.5t293.5 78.5q216 0 302.5 -89t57.5 -294q-26 -192 -116 -267t-295 -75q-216 0 -304 87t-61 288zM412 823q-1 -30 11.5 -47.5t41.5 -17.5q42 0 59 33.5t31 134.5q11 62 6 93t-15.5 39.5t-35.5 8.5q-40 0 -59.5 -35t-32.5 -139q-5 -40 -6 -70z " />
<glyph unicode="&#xbb;" horiz-adv-x="1136" d="M25 199l180 305l-127 315l225 148l291 -414l-6 -92l-332 -406zM504 199l180 305l-127 315l225 148l291 -414l-6 -92l-332 -406z" />
<glyph unicode="&#xbc;" horiz-adv-x="1959" d="M143 1333l219 80h328l-121 -848h-325l67 482q11 73 29 122l-184 -36zM262 0l989 1413h273l-989 -1413h-273zM1013 247q-1 36 15 72l272 529h293l-221 -459q-13 -29 14 -29h107l25 177l69 141h240l-45 -318h92l-23 -176l-96 -26h-2l-22 -158h-287l22 158h-348 q-47 0 -75.5 26.5t-29.5 62.5z" />
<glyph unicode="&#xbd;" horiz-adv-x="1935" d="M143 1333l217 80h330l-121 -848h-327l67 482q11 73 29 122l-184 -36zM260 0l989 1413h271l-988 -1413h-272zM1065 0l25 170q5 34 8.5 51t14.5 39.5t28 38.5l170 129q161 116 182 135q19 17 13 30t-29 13q-166 0 -295 4v230q129 22 311 22q74 0 128 -5t106.5 -21t82 -43.5 t43 -75t2.5 -113.5q-17 -100 -143 -188l-225 -156q60 17 115 14l225 -6l-37 -268h-725z" />
<glyph unicode="&#xbe;" horiz-adv-x="2060" d="M72 573l16 230q74 -2 277 -2q98 0 106 63q3 23 -5 31t-34 8l-205 4l27 191l201 -2q28 0 39.5 11.5t11.5 43.5q0 14 -8 21.5t-35 7.5q-146 0 -275 4l-4 225q165 23 318 23q197 0 267.5 -48t55.5 -167q-22 -182 -192 -199l-2 -6q188 -21 164 -228q-7 -55 -28 -95.5 t-63.5 -74t-115.5 -50.5t-176 -17q-143 0 -340 26zM408 0l985 1413h272l-987 -1413h-270zM1125.5 252q-1.5 36 13.5 72l272 528h293l-223 -459q-12 -28 14 -28h109l24 172l68 145h239l-45 -317h92l-22 -177l-94 -26h-4l-23 -158h-285l23 158h-346q-47 0 -75.5 27t-30 63z " />
<glyph unicode="&#xbf;" horiz-adv-x="1095" d="M-53 -63q8 59 33.5 109t61 87.5t77 73t86 74t83.5 81t72.5 102.5t51.5 130h336q-8 -99 -39 -185t-73 -145t-83 -104t-79.5 -84t-51.5 -62q-22 -32 -5 -51.5t77 -19.5h436l-4 -285q-15 -3 -60.5 -11.5t-58.5 -11t-52 -9t-58.5 -8.5l-58.5 -6t-72 -5.5t-79 -2.5t-98 -1 q-246 0 -355.5 82.5t-86.5 251.5zM418 838l10 84q10 72 50 105.5t114 33.5h84q74 0 112.5 -40.5t28.5 -115.5l-12 -84q-8 -72 -46 -105.5t-116 -33.5h-84q-79 0 -114.5 40t-26.5 116z" />
<glyph unicode="&#xc0;" horiz-adv-x="1388" d="M-100 0l544 1307q41 106 156 106h401q54 0 95 -35.5t47 -87.5l182 -1290h-444l-25 299h-385l-111 -299h-460zM397 1692l164 266l481 -307l-137 -176zM592 623h239l-24 305q-6 54 -2 157h-57q-14 -79 -41 -153z" />
<glyph unicode="&#xc1;" horiz-adv-x="1388" d="M-100 0l544 1307q41 106 156 106h401q54 0 95 -35.5t47 -87.5l182 -1290h-444l-25 299h-385l-111 -299h-460zM592 623h239l-24 305q-6 54 -2 157h-57q-14 -79 -41 -153zM629 1651l506 319l135 -299l-545 -196z" />
<glyph unicode="&#xc2;" horiz-adv-x="1388" d="M-100 0l544 1307q41 106 156 106h401q54 0 95 -35.5t47 -87.5l182 -1290h-444l-25 299h-385l-111 -299h-460zM385 1620l307 278h289l268 -286l-112 -139l-301 192h-17l-336 -192zM592 623h239l-24 305q-6 54 -2 157h-57q-14 -79 -41 -153z" />
<glyph unicode="&#xc3;" horiz-adv-x="1388" d="M-100 0l544 1307q41 106 156 106h401q54 0 95 -35.5t47 -87.5l182 -1290h-444l-25 299h-385l-111 -299h-460zM430 1546q-4 169 50.5 253.5t150.5 84.5q61 0 191.5 -44.5t135.5 -45.5q50 -11 70 11t27 77l174 -16q7 -171 -46 -254.5t-149 -83.5q-62 0 -191 43.5t-145 46.5 q-49 10 -67.5 -11t-26.5 -77zM592 623h239l-24 305q-6 54 -2 157h-57q-14 -79 -41 -153z" />
<glyph unicode="&#xc4;" horiz-adv-x="1388" d="M-100 0l544 1307q41 106 156 106h401q54 0 95 -35.5t47 -87.5l182 -1290h-444l-25 299h-385l-111 -299h-460zM485 1630l23 150q6 39 24 55t56 16h157q71 0 62 -67l-23 -156q-5 -36 -20.5 -50.5t-50.5 -14.5h-166q-71 0 -62 67zM592 623h239l-24 305q-6 54 -2 157h-57 q-14 -79 -41 -153zM872 1630l23 152q6 38 23 53.5t51 15.5h164q70 0 61 -67l-23 -154q-6 -37 -21 -52t-50 -15h-166q-71 0 -62 67z" />
<glyph unicode="&#xc5;" horiz-adv-x="1388" d="M-100 0l544 1307q41 106 156 106h401q54 0 95 -35.5t47 -87.5l182 -1290h-444l-25 299h-385l-111 -299h-460zM582 1696q0 118 77.5 193t196.5 75q108 0 181 -63.5t73 -163.5q0 -118 -77 -193.5t-197 -75.5q-106 0 -180 64.5t-74 163.5zM592 623h239l-24 305q-6 54 -2 157 h-57q-14 -79 -41 -153zM754 1712q0 -39 25.5 -64.5t62.5 -25.5q44 0 70 27t26 73q0 40 -25 64t-65 24q-42 0 -68 -26.5t-26 -71.5z" />
<glyph unicode="&#xc6;" horiz-adv-x="1957" d="M-119 0l645 1102q53 91 107 146.5t139.5 96t205 56.5t298.5 16q187 0 265.5 -0.5t211 -5.5t248.5 -16l-53 -308h-471q-51 0 -73 -17.5t-28 -63.5l-20 -146h487l-33 -274h-495l-27 -178q-5 -42 11.5 -62t62.5 -20h475l-6 -310q-39 -5 -84 -9t-80.5 -6.5t-91 -4t-83.5 -2.5 t-92.5 -1.5t-83 -0.5h-90h-81.5q-147 0 -223.5 92t-55.5 235h-346l-178 -319h-461zM702 643h209l54 385q9 56 43 127h-23q-53 -103 -55 -106z" />
<glyph unicode="&#xc7;" horiz-adv-x="1234" d="M84 723q20 145 47.5 251t69.5 187t94.5 133t128.5 85t165.5 46t211.5 13q152 0 254 -13.5t211 -44.5l-52 -321q-300 4 -436 4q-47 0 -76 -7t-55 -27.5t-42.5 -63.5t-30.5 -107.5t-27 -167.5q-22 -137 -20 -212.5t31 -101.5t106 -26q266 0 452 17l17 -326 q-116 -36 -226.5 -51t-263.5 -15q-240 0 -373 71t-179 234.5t-7 442.5zM254 -549l43 158q39 0 68 3t59.5 12t50 29t25.5 50q2 11 0 16.5t-15.5 10t-38.5 5.5t-73 1l37 147q111 13 195 12.5t127.5 -40t29.5 -121.5q-19 -110 -93 -181t-180.5 -95.5t-234.5 -6.5z" />
<glyph unicode="&#xc8;" horiz-adv-x="1202" d="M66 377l102 731q21 145 114.5 229t247.5 84q516 0 713 -28l-49 -312h-492q-52 0 -75 -18t-29 -64l-18 -129h510l-37 -295h-514l-23 -163q-12 -80 76 -80h491l-8 -316q-36 -5 -79.5 -9t-78.5 -6.5t-91.5 -4t-85.5 -2.5t-95 -1.5t-86 -0.5h-93h-83q-171 0 -255 107t-62 278 zM360 1692l164 266l482 -307l-138 -176z" />
<glyph unicode="&#xc9;" horiz-adv-x="1202" d="M66 377l102 731q21 145 114.5 229t247.5 84q516 0 713 -28l-49 -312h-492q-52 0 -75 -18t-29 -64l-18 -129h510l-37 -295h-514l-23 -163q-12 -80 76 -80h491l-8 -316q-36 -5 -79.5 -9t-78.5 -6.5t-91.5 -4t-85.5 -2.5t-95 -1.5t-86 -0.5h-93h-83q-171 0 -255 107t-62 278 zM592 1651l506 319l135 -299l-545 -196z" />
<glyph unicode="&#xca;" horiz-adv-x="1202" d="M66 377l102 731q21 145 114.5 229t247.5 84q516 0 713 -28l-49 -312h-492q-52 0 -75 -18t-29 -64l-18 -129h510l-37 -295h-514l-23 -163q-12 -80 76 -80h491l-8 -316q-36 -5 -79.5 -9t-78.5 -6.5t-91.5 -4t-85.5 -2.5t-95 -1.5t-86 -0.5h-93h-83q-171 0 -255 107t-62 278 zM348 1620l307 278h289l268 -286l-112 -139l-301 192h-17l-336 -192z" />
<glyph unicode="&#xcb;" horiz-adv-x="1202" d="M66 377l102 731q21 145 114.5 229t247.5 84q516 0 713 -28l-49 -312h-492q-52 0 -75 -18t-29 -64l-18 -129h510l-37 -295h-514l-23 -163q-12 -80 76 -80h491l-8 -316q-36 -5 -79.5 -9t-78.5 -6.5t-91.5 -4t-85.5 -2.5t-95 -1.5t-86 -0.5h-93h-83q-171 0 -255 107t-62 278 zM449 1630l22 150q6 39 24 55t56 16h158q70 0 61 -67l-22 -156q-5 -35 -21 -50t-51 -15h-166q-70 0 -61 67zM836 1630l22 152q6 38 23 53.5t51 15.5h164q70 0 61 -67l-22 -154q-6 -37 -21.5 -52t-50.5 -15h-166q-70 0 -61 67z" />
<glyph unicode="&#xcc;" horiz-adv-x="659" d="M25 0l198 1413h443l-199 -1413h-442zM43 1692l164 266l481 -307l-137 -176z" />
<glyph unicode="&#xcd;" horiz-adv-x="659" d="M25 0l198 1413h443l-199 -1413h-442zM274 1651l506 319l135 -299l-544 -196z" />
<glyph unicode="&#xce;" horiz-adv-x="659" d="M25 0l198 1413h443l-199 -1413h-442zM31 1620l307 278h289l268 -286l-113 -139l-301 192h-16l-336 -192z" />
<glyph unicode="&#xcf;" horiz-adv-x="659" d="M25 0l198 1413h443l-199 -1413h-442zM131 1630l23 150q6 39 23.5 55t55.5 16h158q71 0 62 -67l-23 -156q-5 -35 -21 -50t-51 -15h-165q-71 0 -62 67zM518 1630l23 152q6 38 22.5 53.5t50.5 15.5h164q71 0 62 -67l-23 -154q-6 -37 -21.5 -52t-50.5 -15h-165q-71 0 -62 67z " />
<glyph unicode="&#xd0;" d="M16 641l29 205h96l80 567q276 21 576 21q101 0 181 -10.5t149 -35t118 -64t84 -97.5t51.5 -135t17 -177.5t-17.5 -224.5q-31 -216 -78.5 -350t-134 -216.5t-205.5 -113t-305 -30.5q-321 0 -634 20l90 641h-97zM510 303q47 -2 141 -2q56 0 94 16.5t71.5 61.5t56.5 129 t40 215q24 155 19.5 241.5t-37 117t-113.5 30.5h-159l-37 -266h178l-29 -205h-178z" />
<glyph unicode="&#xd1;" horiz-adv-x="1495" d="M23 0l178 1268q11 76 49 110.5t112 34.5h148q33 0 56.5 -8.5t42 -31t28.5 -40t29 -57.5l237 -461q52 -106 86 -244h17q-11 123 4 240l86 602h407l-178 -1268q-11 -75 -49 -110t-113 -35h-147q-63 0 -93 31t-65 106l-242 486q-38 76 -71 233h-15q3 -147 -12 -262l-88 -594 h-407zM481 1546q-4 169 50.5 253.5t150.5 84.5q61 0 192 -44.5t136 -45.5q50 -11 69.5 11t26.5 77l174 -16q7 -171 -46 -254.5t-149 -83.5q-62 0 -190.5 43.5t-144.5 46.5q-49 10 -68 -11.5t-27 -76.5z" />
<glyph unicode="&#xd2;" d="M65.5 498q1.5 99 18.5 225q24 173 63.5 295.5t95 205.5t137.5 130.5t181 67.5t236 20q90 0 162.5 -8t136.5 -26.5t112 -48.5t85.5 -72.5t61 -100t35 -131t9.5 -164.5t-17 -201q-20 -146 -49.5 -255.5t-74.5 -189.5t-100 -132.5t-132 -84t-164 -44.5t-203 -13 q-107 0 -190 11t-151.5 36t-115.5 66t-79 98.5t-45.5 137t-12 178.5zM426 1692l164 266l481 -307l-137 -176zM527.5 413.5q4.5 -45.5 23 -69t46 -33.5t73.5 -10q48 0 80 11t57 36t43.5 76.5t33 119.5t31.5 179q19 124 22.5 197t-11.5 117.5t-45.5 59.5t-87.5 15 q-47 0 -78 -11t-56.5 -36t-43.5 -76t-33.5 -120t-32.5 -179q-16 -100 -21 -165.5t-0.5 -111z" />
<glyph unicode="&#xd3;" d="M65.5 498q1.5 99 18.5 225q24 173 63.5 295.5t95 205.5t137.5 130.5t181 67.5t236 20q90 0 162.5 -8t136.5 -26.5t112 -48.5t85.5 -72.5t61 -100t35 -131t9.5 -164.5t-17 -201q-20 -146 -49.5 -255.5t-74.5 -189.5t-100 -132.5t-132 -84t-164 -44.5t-203 -13 q-107 0 -190 11t-151.5 36t-115.5 66t-79 98.5t-45.5 137t-12 178.5zM527.5 413.5q4.5 -45.5 23 -69t46 -33.5t73.5 -10q48 0 80 11t57 36t43.5 76.5t33 119.5t31.5 179q19 124 22.5 197t-11.5 117.5t-45.5 59.5t-87.5 15q-47 0 -78 -11t-56.5 -36t-43.5 -76t-33.5 -120 t-32.5 -179q-16 -100 -21 -165.5t-0.5 -111zM657 1651l506 319l135 -299l-544 -196z" />
<glyph unicode="&#xd4;" d="M65.5 498q1.5 99 18.5 225q24 173 63.5 295.5t95 205.5t137.5 130.5t181 67.5t236 20q90 0 162.5 -8t136.5 -26.5t112 -48.5t85.5 -72.5t61 -100t35 -131t9.5 -164.5t-17 -201q-20 -146 -49.5 -255.5t-74.5 -189.5t-100 -132.5t-132 -84t-164 -44.5t-203 -13 q-107 0 -190 11t-151.5 36t-115.5 66t-79 98.5t-45.5 137t-12 178.5zM414 1620l307 278h289l268 -286l-113 -139l-301 192h-16l-336 -192zM527.5 413.5q4.5 -45.5 23 -69t46 -33.5t73.5 -10q48 0 80 11t57 36t43.5 76.5t33 119.5t31.5 179q19 124 22.5 197t-11.5 117.5 t-45.5 59.5t-87.5 15q-47 0 -78 -11t-56.5 -36t-43.5 -76t-33.5 -120t-32.5 -179q-16 -100 -21 -165.5t-0.5 -111z" />
<glyph unicode="&#xd5;" d="M65.5 498q1.5 99 18.5 225q24 173 63.5 295.5t95 205.5t137.5 130.5t181 67.5t236 20q90 0 162.5 -8t136.5 -26.5t112 -48.5t85.5 -72.5t61 -100t35 -131t9.5 -164.5t-17 -201q-20 -146 -49.5 -255.5t-74.5 -189.5t-100 -132.5t-132 -84t-164 -44.5t-203 -13 q-107 0 -190 11t-151.5 36t-115.5 66t-79 98.5t-45.5 137t-12 178.5zM459 1546q-4 169 50 253.5t150 84.5q61 0 192 -44.5t136 -45.5q50 -11 69.5 11t26.5 77l174 -16q7 -171 -45.5 -254.5t-148.5 -83.5q-62 0 -191 43.5t-145 46.5q-49 10 -67.5 -11t-26.5 -77zM527.5 413.5 q4.5 -45.5 23 -69t46 -33.5t73.5 -10q48 0 80 11t57 36t43.5 76.5t33 119.5t31.5 179q19 124 22.5 197t-11.5 117.5t-45.5 59.5t-87.5 15q-47 0 -78 -11t-56.5 -36t-43.5 -76t-33.5 -120t-32.5 -179q-16 -100 -21 -165.5t-0.5 -111z" />
<glyph unicode="&#xd6;" d="M65.5 498q1.5 99 18.5 225q24 173 63.5 295.5t95 205.5t137.5 130.5t181 67.5t236 20q90 0 162.5 -8t136.5 -26.5t112 -48.5t85.5 -72.5t61 -100t35 -131t9.5 -164.5t-17 -201q-20 -146 -49.5 -255.5t-74.5 -189.5t-100 -132.5t-132 -84t-164 -44.5t-203 -13 q-107 0 -190 11t-151.5 36t-115.5 66t-79 98.5t-45.5 137t-12 178.5zM514 1630l23 150q6 39 23.5 55t55.5 16h158q71 0 62 -67l-23 -156q-5 -35 -21 -50t-51 -15h-166q-70 0 -61 67zM527.5 413.5q4.5 -45.5 23 -69t46 -33.5t73.5 -10q48 0 80 11t57 36t43.5 76.5t33 119.5 t31.5 179q19 124 22.5 197t-11.5 117.5t-45.5 59.5t-87.5 15q-47 0 -78 -11t-56.5 -36t-43.5 -76t-33.5 -120t-32.5 -179q-16 -100 -21 -165.5t-0.5 -111zM901 1630l23 152q6 38 22.5 53.5t50.5 15.5h164q71 0 62 -67l-23 -154q-6 -37 -21.5 -52t-50.5 -15h-165 q-71 0 -62 67z" />
<glyph unicode="&#xd7;" horiz-adv-x="1077" d="M20 389l277 217l-211 211l225 236l248 -242l334 262l158 -254l-275 -217l223 -217l-227 -256l-264 264l-330 -260z" />
<glyph unicode="&#xd8;" d="M63 -70l111 181q-79 84 -101 233t11 379q24 173 63.5 295.5t95 205.5t137.5 130.5t181 67.5t236 20q108 0 174 -10l137 229l307 -156l-127 -213q151 -167 94 -602q-20 -146 -49.5 -255.5t-74.5 -189.5t-100 -132.5t-132 -84t-164 -44.5t-203 -13q-87 0 -161 9l-127 -207z M527.5 413.5q4.5 -45.5 23 -69t46 -33.5t73.5 -10q48 0 80 11t57 36t43.5 76.5t33 119.5t31.5 179q19 124 22.5 197t-11.5 117.5t-45.5 59.5t-87.5 15q-47 0 -78 -11t-56.5 -36t-43.5 -76t-33.5 -120t-32.5 -179q-16 -100 -21 -165.5t-0.5 -111z" />
<glyph unicode="&#xd9;" d="M92 592l119 821h442l-118 -838q-19 -106 -13 -166.5t39 -84t109 -23.5q48 0 80 9t55 27t39 55t26.5 81.5t22.5 118.5l117 821h444l-121 -838q-19 -138 -51 -236t-83 -170.5t-126.5 -115t-176 -62.5t-237.5 -20q-331 0 -470.5 145t-96.5 476zM426 1692l164 266l481 -307 l-137 -176z" />
<glyph unicode="&#xda;" d="M92 592l119 821h442l-118 -838q-19 -106 -13 -166.5t39 -84t109 -23.5q48 0 80 9t55 27t39 55t26.5 81.5t22.5 118.5l117 821h444l-121 -838q-19 -138 -51 -236t-83 -170.5t-126.5 -115t-176 -62.5t-237.5 -20q-331 0 -470.5 145t-96.5 476zM657 1651l506 319l135 -299 l-544 -196z" />
<glyph unicode="&#xdb;" d="M92 592l119 821h442l-118 -838q-19 -106 -13 -166.5t39 -84t109 -23.5q48 0 80 9t55 27t39 55t26.5 81.5t22.5 118.5l117 821h444l-121 -838q-19 -138 -51 -236t-83 -170.5t-126.5 -115t-176 -62.5t-237.5 -20q-331 0 -470.5 145t-96.5 476zM414 1620l307 278h289 l268 -286l-113 -139l-301 192h-16l-336 -192z" />
<glyph unicode="&#xdc;" d="M92 592l119 821h442l-118 -838q-19 -106 -13 -166.5t39 -84t109 -23.5q48 0 80 9t55 27t39 55t26.5 81.5t22.5 118.5l117 821h444l-121 -838q-19 -138 -51 -236t-83 -170.5t-126.5 -115t-176 -62.5t-237.5 -20q-331 0 -470.5 145t-96.5 476zM514 1630l23 150 q6 39 23.5 55t55.5 16h158q71 0 62 -67l-23 -156q-5 -35 -21 -50t-51 -15h-166q-70 0 -61 67zM901 1630l23 152q6 38 22.5 53.5t50.5 15.5h164q71 0 62 -67l-23 -154q-6 -37 -21.5 -52t-50.5 -15h-165q-71 0 -62 67z" />
<glyph unicode="&#xdd;" horiz-adv-x="1329" d="M94 1413h443l108 -452q18 -82 14 -207h31q10 95 62 202l239 457h473l-604 -985l-59 -428h-447l64 453zM598 1651l506 319l135 -299l-545 -196z" />
<glyph unicode="&#xde;" horiz-adv-x="1302" d="M25 0l198 1413h445l-33 -229h117q165 0 270.5 -23.5t172.5 -81t86.5 -153t0.5 -240.5q-19 -139 -55 -226.5t-104 -140.5t-160.5 -73.5t-235.5 -20.5q-86 0 -225 15l-33 -240h-444zM545 539h143q55 0 81 10.5t43.5 48.5t29.5 121q12 88 -6.5 119.5t-90.5 31.5h-153z" />
<glyph unicode="&#xdf;" horiz-adv-x="1497" d="M-182 -360l63 256h101q61 0 87 24.5t37 89.5l107 756h-170l31 248l174 10l20 143q19 135 81.5 211.5t180 109t316.5 32.5q169 0 276.5 -21t164.5 -65.5t71.5 -112.5t-2.5 -162q-23 -130 -111 -229q-16 -18 -41.5 -45t-38 -41t-24 -33.5t-13.5 -36.5q-3 -27 15.5 -50.5 t73.5 -76.5l94 -88q82 -83 111.5 -156t15.5 -151q-16 -97 -59 -154.5t-138 -89t-254 -31.5q-104 0 -354 23l37 262h225q59 0 89 12t30 48q0 23 -23.5 53.5t-101.5 103.5l-53 41q-70 65 -97.5 119t-17.5 135q7 57 34 98t109 134q59 65 78 94t23 63q6 44 -14 57t-81 13 q-101 0 -139.5 -27t-48.5 -106l-162 -1166q-12 -74 -36.5 -130t-69 -101.5t-116 -69.5t-169.5 -24q-92 0 -311 31z" />
<glyph unicode="&#xe0;" horiz-adv-x="1255" d="M33 299.5q-5 107.5 18 241.5q11 72 27 131.5t37.5 107t44.5 85t55 65.5t62.5 48t73 33.5t80 22t90.5 12.5t97 5.5t107 1.5q107 0 273 -22t225 -44l-140 -987h-331l-4 199q-137 -206 -400 -224q-108 -7 -178.5 30t-101 112t-35.5 182.5zM309 1307l164 266l481 -307 l-137 -176zM469.5 348.5q6.5 -47.5 62.5 -43.5q40 3 93 47.5t98 110.5l43 309h-94q-37 0 -61.5 -7t-50.5 -28.5t-43.5 -67t-27.5 -116.5q-26 -157 -19.5 -204.5z" />
<glyph unicode="&#xe1;" horiz-adv-x="1255" d="M33 299.5q-5 107.5 18 241.5q11 72 27 131.5t37.5 107t44.5 85t55 65.5t62.5 48t73 33.5t80 22t90.5 12.5t97 5.5t107 1.5q107 0 273 -22t225 -44l-140 -987h-331l-4 199q-137 -206 -400 -224q-108 -7 -178.5 30t-101 112t-35.5 182.5zM469.5 348.5q6.5 -47.5 62.5 -43.5 q40 3 93 47.5t98 110.5l43 309h-94q-37 0 -61.5 -7t-50.5 -28.5t-43.5 -67t-27.5 -116.5q-26 -157 -19.5 -204.5zM541 1266l506 319l135 -299l-545 -196z" />
<glyph unicode="&#xe2;" horiz-adv-x="1255" d="M33 299.5q-5 107.5 18 241.5q11 72 27 131.5t37.5 107t44.5 85t55 65.5t62.5 48t73 33.5t80 22t90.5 12.5t97 5.5t107 1.5q107 0 273 -22t225 -44l-140 -987h-331l-4 199q-137 -206 -400 -224q-108 -7 -178.5 30t-101 112t-35.5 182.5zM297 1235l307 278h289l268 -286 l-112 -140l-301 193h-17l-336 -193zM469.5 348.5q6.5 -47.5 62.5 -43.5q40 3 93 47.5t98 110.5l43 309h-94q-37 0 -61.5 -7t-50.5 -28.5t-43.5 -67t-27.5 -116.5q-26 -157 -19.5 -204.5z" />
<glyph unicode="&#xe3;" horiz-adv-x="1255" d="M33 299.5q-5 107.5 18 241.5q11 72 27 131.5t37.5 107t44.5 85t55 65.5t62.5 48t73 33.5t80 22t90.5 12.5t97 5.5t107 1.5q107 0 273 -22t225 -44l-140 -987h-331l-4 199q-137 -206 -400 -224q-108 -7 -178.5 30t-101 112t-35.5 182.5zM342 1161q-4 169 50.5 253.5 t150.5 84.5q61 0 191.5 -44.5t135.5 -45.5q50 -11 70 11t27 77l174 -16q7 -171 -46 -254.5t-149 -83.5q-62 0 -191 43.5t-145 46.5q-49 10 -67.5 -11t-26.5 -77zM469.5 348.5q6.5 -47.5 62.5 -43.5q40 3 93 47.5t98 110.5l43 309h-94q-37 0 -61.5 -7t-50.5 -28.5t-43.5 -67 t-27.5 -116.5q-26 -157 -19.5 -204.5z" />
<glyph unicode="&#xe4;" horiz-adv-x="1255" d="M33 299.5q-5 107.5 18 241.5q11 72 27 131.5t37.5 107t44.5 85t55 65.5t62.5 48t73 33.5t80 22t90.5 12.5t97 5.5t107 1.5q107 0 273 -22t225 -44l-140 -987h-331l-4 199q-137 -206 -400 -224q-108 -7 -178.5 30t-101 112t-35.5 182.5zM397 1245l23 150q6 39 24 55t56 16 h157q71 0 62 -67l-23 -156q-5 -36 -20.5 -50.5t-50.5 -14.5h-166q-71 0 -62 67zM469.5 348.5q6.5 -47.5 62.5 -43.5q40 3 93 47.5t98 110.5l43 309h-94q-37 0 -61.5 -7t-50.5 -28.5t-43.5 -67t-27.5 -116.5q-26 -157 -19.5 -204.5zM784 1245l23 152q6 38 23 53.5t51 15.5 h163q71 0 62 -67l-23 -154q-6 -37 -21 -52t-50 -15h-166q-71 0 -62 67z" />
<glyph unicode="&#xe5;" horiz-adv-x="1255" d="M33 299.5q-5 107.5 18 241.5q11 72 27 131.5t37.5 107t44.5 85t55 65.5t62.5 48t73 33.5t80 22t90.5 12.5t97 5.5t107 1.5q107 0 273 -22t225 -44l-140 -987h-331l-4 199q-137 -206 -400 -224q-108 -7 -178.5 30t-101 112t-35.5 182.5zM469.5 348.5q6.5 -47.5 62.5 -43.5 q40 3 93 47.5t98 110.5l43 309h-94q-37 0 -61.5 -7t-50.5 -28.5t-43.5 -67t-27.5 -116.5q-26 -157 -19.5 -204.5zM494 1311q0 118 77.5 193t196.5 75q108 0 181 -63.5t73 -163.5q0 -118 -77 -193.5t-197 -75.5q-106 0 -180 64.5t-74 163.5zM666 1327q0 -39 25.5 -64.5 t62.5 -25.5q44 0 70 27t26 73q0 40 -25 64t-65 24q-42 0 -68 -26.5t-26 -71.5z" />
<glyph unicode="&#xe6;" horiz-adv-x="1875" d="M34 299.5q-5 107.5 17 241.5q12 80 28.5 145t35.5 114.5t46.5 87.5t53.5 64.5t64.5 45t72 29t83 16.5t90 8t100.5 2q223 3 438 -31q108 31 278 31q155 0 259.5 -24t162 -73.5t76 -118.5t4.5 -165q-19 -132 -117.5 -185t-312.5 -69l-262 -21q1 -57 34 -74.5t120 -17.5 q209 0 411 23l27 -262q-191 -91 -477 -91q-221 0 -345 60t-171 180q-133 -222 -404 -240q-107 -7 -176.5 30t-100 112t-35.5 182.5zM469.5 348.5q6.5 -47.5 62.5 -43.5q39 3 92.5 49.5t96.5 114.5q0 15 4 51q14 145 57 252h-114q-42 0 -67 -6.5t-48.5 -29t-38 -66.5 t-25.5 -117q-26 -157 -19.5 -204.5zM1178 608l120 13q29 3 45.5 5.5t35.5 8.5t28.5 15.5t17 25.5t9.5 39q3 35 -14.5 48.5t-73.5 12.5q-82 -1 -115 -34.5t-53 -133.5z" />
<glyph unicode="&#xe7;" horiz-adv-x="1097" d="M43 530q26 189 87.5 300.5t180 167t310.5 55.5q281 0 469 -80l-58 -262h-360q-90 0 -127.5 -41.5t-52.5 -151.5q-7 -64 -8 -103.5t15.5 -61.5t43 -30t75.5 -8q207 0 345 15l30 -273q-173 -82 -450 -82q-281 0 -410.5 132.5t-89.5 422.5zM168 -524l43 157q39 0 68 3.5 t59.5 12.5t50 29t25.5 50q2 11 0 16.5t-15.5 9.5t-38.5 5t-73 1l37 148q72 9 124.5 12t102 -3t78 -23.5t42 -51.5t5.5 -84q-28 -164 -169.5 -236.5t-338.5 -45.5z" />
<glyph unicode="&#xe8;" horiz-adv-x="1208" d="M43 520q13 130 48 223.5t85.5 153t127.5 94.5t162.5 48.5t201.5 13.5q157 0 263 -24t164 -74t76.5 -118.5t4.5 -164.5q-19 -132 -118.5 -185t-318.5 -69l-256 -19q3 -57 35 -75.5t111 -18.5q215 0 420 23l28 -262q-194 -91 -485 -91q-173 0 -287.5 35t-175.5 107 t-80.5 169t-5.5 234zM291 1307l164 266l481 -307l-137 -176zM510 608l117 13q73 7 103 23.5t36 70.5q3 36 -15.5 49t-78.5 12q-76 -2 -108 -35t-54 -133z" />
<glyph unicode="&#xe9;" horiz-adv-x="1208" d="M43 520q13 130 48 223.5t85.5 153t127.5 94.5t162.5 48.5t201.5 13.5q157 0 263 -24t164 -74t76.5 -118.5t4.5 -164.5q-19 -132 -118.5 -185t-318.5 -69l-256 -19q3 -57 35 -75.5t111 -18.5q215 0 420 23l28 -262q-194 -91 -485 -91q-173 0 -287.5 35t-175.5 107 t-80.5 169t-5.5 234zM510 608l117 13q73 7 103 23.5t36 70.5q3 36 -15.5 49t-78.5 12q-76 -2 -108 -35t-54 -133zM522 1266l506 319l135 -299l-545 -196z" />
<glyph unicode="&#xea;" horiz-adv-x="1208" d="M43 520q13 130 48 223.5t85.5 153t127.5 94.5t162.5 48.5t201.5 13.5q157 0 263 -24t164 -74t76.5 -118.5t4.5 -164.5q-19 -132 -118.5 -185t-318.5 -69l-256 -19q3 -57 35 -75.5t111 -18.5q215 0 420 23l28 -262q-194 -91 -485 -91q-173 0 -287.5 35t-175.5 107 t-80.5 169t-5.5 234zM279 1235l307 278h288l269 -286l-113 -140l-301 193h-16l-336 -193zM510 608l117 13q73 7 103 23.5t36 70.5q3 36 -15.5 49t-78.5 12q-76 -2 -108 -35t-54 -133z" />
<glyph unicode="&#xeb;" horiz-adv-x="1208" d="M43 520q13 130 48 223.5t85.5 153t127.5 94.5t162.5 48.5t201.5 13.5q157 0 263 -24t164 -74t76.5 -118.5t4.5 -164.5q-19 -132 -118.5 -185t-318.5 -69l-256 -19q3 -57 35 -75.5t111 -18.5q215 0 420 23l28 -262q-194 -91 -485 -91q-173 0 -287.5 35t-175.5 107 t-80.5 169t-5.5 234zM379 1245l22 150q6 39 24 55t56 16h158q70 0 61 -67l-22 -156q-5 -35 -21 -50t-51 -15h-166q-70 0 -61 67zM510 608l117 13q73 7 103 23.5t36 70.5q3 36 -15.5 49t-78.5 12q-76 -2 -108 -35t-54 -133zM766 1245l22 152q6 38 23 53.5t51 15.5h164 q70 0 61 -67l-22 -154q-6 -37 -21.5 -52t-50.5 -15h-166q-70 0 -61 67z" />
<glyph unicode="&#xec;" horiz-adv-x="626" d="M-33 1307l164 266l481 -307l-137 -176zM14 0l144 1024h432l-144 -1024h-432z" />
<glyph unicode="&#xed;" horiz-adv-x="626" d="M14 0l144 1024h432l-144 -1024h-432zM199 1266l506 319l135 -299l-545 -196z" />
<glyph unicode="&#xee;" horiz-adv-x="626" d="M-45 1235l307 278h289l268 -286l-112 -140l-301 193h-17l-336 -193zM14 0l144 1024h432l-144 -1024h-432z" />
<glyph unicode="&#xef;" horiz-adv-x="626" d="M14 0l144 1024h432l-144 -1024h-432zM55 1245l23 150q6 39 24 55t56 16h157q71 0 62 -67l-23 -156q-5 -36 -20.5 -50.5t-50.5 -14.5h-166q-71 0 -62 67zM442 1245l23 152q6 38 23 53.5t51 15.5h163q71 0 62 -67l-23 -154q-6 -37 -21 -52t-50 -15h-166q-71 0 -62 67z" />
<glyph unicode="&#xf0;" horiz-adv-x="1234" d="M37 455q33 249 153.5 361t335.5 112q140 0 228 -51q2 88 -15.5 143.5t-62.5 92t-122 48t-196 2.5l48 267q295 18 477 -62l180 160l211 -232l-162 -139q109 -205 62 -577q-21 -172 -69 -289.5t-129 -188t-187 -101t-254 -30.5q-129 0 -227.5 28.5t-165.5 87t-94.5 151.5 t-10.5 217zM481.5 305q14.5 -39 83.5 -39q74 0 103.5 67.5t58.5 276.5q1 5 2 15.5t2 15.5q-43 16 -86 16q-76 0 -108 -46t-50 -160q-20 -107 -5.5 -146z" />
<glyph unicode="&#xf1;" horiz-adv-x="1267" d="M6 0l141 1024h336l11 -180q97 97 216 153t232 56q133 0 210 -77t56 -218l-106 -758h-432l88 618q6 43 -5.5 59.5t-50.5 12.5q-82 -7 -180 -82l-86 -608h-430zM326 1161q-4 169 50 253.5t150 84.5q61 0 192 -44.5t136 -45.5q50 -11 69.5 11t26.5 77l174 -16 q7 -171 -45.5 -254.5t-148.5 -83.5q-62 0 -191 43.5t-145 46.5q-49 10 -67.5 -11t-26.5 -77z" />
<glyph unicode="&#xf2;" horiz-adv-x="1259" d="M43 526q41 294 179.5 410.5t447.5 116.5q313 0 438.5 -129t83.5 -430q-41 -289 -179 -404t-444 -115q-311 0 -439.5 128t-86.5 423zM291 1307l164 266l481 -307l-137 -176zM480 351.5q4 -50.5 27 -68t79 -17.5q77 0 107 48.5t55 211.5q17 95 13 147.5t-25.5 70.5 t-73.5 18q-83 0 -114 -50t-56 -218q-16 -92 -12 -142.5z" />
<glyph unicode="&#xf3;" horiz-adv-x="1259" d="M43 526q41 294 179.5 410.5t447.5 116.5q313 0 438.5 -129t83.5 -430q-41 -289 -179 -404t-444 -115q-311 0 -439.5 128t-86.5 423zM480 351.5q4 -50.5 27 -68t79 -17.5q77 0 107 48.5t55 211.5q17 95 13 147.5t-25.5 70.5t-73.5 18q-83 0 -114 -50t-56 -218 q-16 -92 -12 -142.5zM522 1266l506 319l135 -299l-545 -196z" />
<glyph unicode="&#xf4;" horiz-adv-x="1259" d="M43 526q41 294 179.5 410.5t447.5 116.5q313 0 438.5 -129t83.5 -430q-41 -289 -179 -404t-444 -115q-311 0 -439.5 128t-86.5 423zM279 1235l307 278h288l269 -286l-113 -140l-301 193h-16l-336 -193zM480 351.5q4 -50.5 27 -68t79 -17.5q77 0 107 48.5t55 211.5 q17 95 13 147.5t-25.5 70.5t-73.5 18q-83 0 -114 -50t-56 -218q-16 -92 -12 -142.5z" />
<glyph unicode="&#xf5;" horiz-adv-x="1259" d="M43 526q41 294 179.5 410.5t447.5 116.5q313 0 438.5 -129t83.5 -430q-41 -289 -179 -404t-444 -115q-311 0 -439.5 128t-86.5 423zM324 1161q-4 169 50 253.5t150 84.5q61 0 192 -44.5t136 -45.5q50 -11 69.5 11t26.5 77l174 -16q7 -171 -45.5 -254.5t-148.5 -83.5 q-62 0 -191 43.5t-145 46.5q-49 10 -67.5 -11t-26.5 -77zM480 351.5q4 -50.5 27 -68t79 -17.5q77 0 107 48.5t55 211.5q17 95 13 147.5t-25.5 70.5t-73.5 18q-83 0 -114 -50t-56 -218q-16 -92 -12 -142.5z" />
<glyph unicode="&#xf6;" horiz-adv-x="1259" d="M43 526q41 294 179.5 410.5t447.5 116.5q313 0 438.5 -129t83.5 -430q-41 -289 -179 -404t-444 -115q-311 0 -439.5 128t-86.5 423zM379 1245l22 150q6 39 24 55t56 16h158q70 0 61 -67l-22 -156q-5 -35 -21 -50t-51 -15h-166q-70 0 -61 67zM480 351.5q4 -50.5 27 -68 t79 -17.5q77 0 107 48.5t55 211.5q17 95 13 147.5t-25.5 70.5t-73.5 18q-83 0 -114 -50t-56 -218q-16 -92 -12 -142.5zM766 1245l22 152q6 38 23 53.5t51 15.5h164q70 0 61 -67l-22 -154q-6 -37 -21.5 -52t-50.5 -15h-166q-70 0 -61 67z" />
<glyph unicode="&#xf7;" horiz-adv-x="1081" d="M29 440l47 316h977l-47 -316h-977zM254 168l4 29q12 96 56 129.5t145 33.5h82q98 0 133 -36.5t22 -133.5l-4 -28q-12 -98 -51.5 -132t-136.5 -34h-94q-102 0 -136.5 38t-19.5 134zM375 999l4 29q13 96 57 130t144 34h84q97 0 132.5 -36.5t20.5 -131.5l-2 -29 q-13 -98 -53 -133t-137 -35h-95q-101 0 -135 37.5t-20 134.5z" />
<glyph unicode="&#xf8;" horiz-adv-x="1259" d="M43 526q41 294 179.5 410.5t447.5 116.5q44 0 114 -4l127 202l267 -147l-97 -156q156 -127 111 -454q-41 -289 -179 -404t-444 -115q-55 0 -82 2l-120 -194l-267 145l82 131q-187 125 -139 467zM480 351.5q4 -50.5 27 -68t79 -17.5q77 0 107 48.5t55 211.5 q17 95 13 147.5t-25.5 70.5t-73.5 18q-83 0 -114 -50t-56 -218q-16 -92 -12 -142.5z" />
<glyph unicode="&#xf9;" horiz-adv-x="1255" d="M37 266l104 758h432l-92 -637q-4 -31 8.5 -43t38.5 -12q43 0 84 17t99 59l88 616h426l-142 -1024h-335l-9 174q-209 -203 -417 -203q-159 0 -232 76.5t-53 218.5zM285 1329l164 266l481 -307l-137 -176z" />
<glyph unicode="&#xfa;" horiz-adv-x="1255" d="M37 266l104 758h432l-92 -637q-4 -31 8.5 -43t38.5 -12q43 0 84 17t99 59l88 616h426l-142 -1024h-335l-9 174q-209 -203 -417 -203q-159 0 -232 76.5t-53 218.5zM516 1288l506 320l135 -299l-545 -197z" />
<glyph unicode="&#xfb;" horiz-adv-x="1255" d="M37 266l104 758h432l-92 -637q-4 -31 8.5 -43t38.5 -12q43 0 84 17t99 59l88 616h426l-142 -1024h-335l-9 174q-209 -203 -417 -203q-159 0 -232 76.5t-53 218.5zM272 1257l308 279h288l269 -287l-113 -139l-301 193h-16l-336 -193z" />
<glyph unicode="&#xfc;" horiz-adv-x="1255" d="M37 266l104 758h432l-92 -637q-4 -31 8.5 -43t38.5 -12q43 0 84 17t99 59l88 616h426l-142 -1024h-335l-9 174q-209 -203 -417 -203q-159 0 -232 76.5t-53 218.5zM373 1268l22 149q6 39 24 55.5t56 16.5h158q70 0 61 -68l-22 -155q-5 -36 -21 -51t-51 -15h-166 q-70 0 -61 68zM760 1268l22 151q6 38 23 54t51 16h164q70 0 61 -68l-22 -153q-6 -37 -21.5 -52.5t-50.5 -15.5h-166q-70 0 -61 68z" />
<glyph unicode="&#xfd;" horiz-adv-x="1273" d="M61 1024h471l17 -733q0 -13 9.5 -23t23.5 -10h49q69 156 114.5 335t81.5 431h461q-34 -252 -155.5 -568t-200.5 -440q-148 -232 -344.5 -341.5t-452.5 -96.5l-26 232q27 9 81.5 26.5t81.5 28t67.5 29.5t73.5 45t64 61h-162q-50 0 -85.5 31t-41.5 78zM506 1266l506 319 l135 -299l-545 -196z" />
<glyph unicode="&#xfe;" horiz-adv-x="1261" d="M-45 -369l252 1803h430l-29 -213q-20 -158 -55 -293l6 -15q143 136 320 136q201 0 272.5 -138.5t38.5 -427.5q-31 -265 -146.5 -388.5t-287.5 -123.5q-183 0 -324 27q-8 -119 -18 -172l-29 -195h-430zM471 231h98q64 0 96.5 17.5t52 67.5t32.5 155q20 126 13 187t-65 61 t-101.5 -40t-82.5 -110z" />
<glyph unicode="&#xff;" horiz-adv-x="1273" d="M61 1024h471l17 -733q0 -13 9.5 -23t23.5 -10h49q69 156 114.5 335t81.5 431h461q-34 -252 -155.5 -568t-200.5 -440q-148 -232 -344.5 -341.5t-452.5 -96.5l-26 232q27 9 81.5 26.5t81.5 28t67.5 29.5t73.5 45t64 61h-162q-50 0 -85.5 31t-41.5 78zM362 1245l23 150 q6 39 24 55t56 16h158q70 0 61 -67l-22 -156q-5 -35 -21 -50t-51 -15h-166q-71 0 -62 67zM750 1245l22 152q6 38 23 53.5t51 15.5h164q70 0 61 -67l-22 -154q-6 -37 -21.5 -52t-50.5 -15h-166q-70 0 -61 67z" />
<glyph unicode="&#x152;" horiz-adv-x="1996" d="M64 495q2 100 20 228q24 174 62 295t93 205t137 131.5t184 67.5t245 20q208 0 362 -53q69 32 148 32q523 0 723 -28l-51 -312h-478q-35 0 -66.5 -25t-35.5 -57l-21 -139h498l-35 -274h-501l-27 -189q-9 -65 57 -65h500l-8 -316q-37 -5 -81 -9t-80 -6.5t-93.5 -4t-87 -2.5 t-97 -1.5t-87.5 -0.5h-94.5h-84.5q-103 0 -176 45q-153 -66 -342 -66q-107 0 -188.5 11t-149.5 35t-113.5 64.5t-77 98t-44 136.5t-10.5 179zM526 416q2 -48 16.5 -71t37.5 -33.5t63 -10.5q152 0 225 31l109 768q-52 12 -170 12q-78 0 -125 -36t-78 -126t-55 -260 q-14 -101 -19.5 -163.5t-3.5 -110.5z" />
<glyph unicode="&#x153;" horiz-adv-x="1863" d="M43 526q41 294 176 410.5t434 116.5q190 0 322 -82q149 82 354 82q155 0 259.5 -24t162 -73.5t76 -118.5t4.5 -165q-19 -132 -117 -185t-311 -69l-250 -19q3 -58 32.5 -76t106.5 -18q210 0 412 23l27 -262q-191 -91 -478 -91q-209 0 -346 93q-147 -93 -354 -93 q-303 0 -427.5 128t-82.5 423zM483 309.5q15 -43.5 88 -43.5q29 0 47.5 7t33.5 22t25.5 47t19 73.5t18.5 110.5q17 95 14.5 147.5t-21.5 70.5t-65 18q-39 0 -62 -9.5t-40.5 -41.5t-28.5 -80.5t-23 -136.5q-21 -141 -6 -184.5zM1182 610l104 11q71 7 101 23.5t34 70.5 q3 35 -14.5 48.5t-73.5 12.5q-71 -2 -101 -34.5t-50 -131.5z" />
<glyph unicode="&#x178;" horiz-adv-x="1329" d="M94 1413h443l108 -452q18 -82 14 -207h31q10 95 62 202l239 457h473l-604 -985l-59 -428h-447l64 453zM455 1630l22 150q6 39 24 55t56 16h158q70 0 61 -67l-22 -156q-5 -35 -21 -50t-51 -15h-166q-70 0 -61 67zM842 1630l22 152q6 38 23 53.5t51 15.5h164q70 0 61 -67 l-22 -154q-6 -37 -21.5 -52t-50.5 -15h-166q-70 0 -61 67z" />
<glyph unicode="&#x2c6;" horiz-adv-x="976" d="M147 1241l308 279h288l269 -287l-113 -139l-301 192h-16l-336 -192z" />
<glyph unicode="&#x2dc;" horiz-adv-x="942" d="M182 1145q-4 169 50.5 253.5t150.5 84.5q61 0 192 -44.5t136 -45.5q50 -11 69.5 11t26.5 77l174 -17q7 -171 -46 -254.5t-149 -83.5q-62 0 -190 44t-145 47q-49 10 -68 -12t-27 -77z" />
<glyph unicode="&#x2000;" horiz-adv-x="985" />
<glyph unicode="&#x2001;" horiz-adv-x="1970" />
<glyph unicode="&#x2002;" horiz-adv-x="985" />
<glyph unicode="&#x2003;" horiz-adv-x="1970" />
<glyph unicode="&#x2004;" horiz-adv-x="656" />
<glyph unicode="&#x2005;" horiz-adv-x="492" />
<glyph unicode="&#x2006;" horiz-adv-x="328" />
<glyph unicode="&#x2007;" horiz-adv-x="328" />
<glyph unicode="&#x2008;" horiz-adv-x="246" />
<glyph unicode="&#x2009;" horiz-adv-x="394" />
<glyph unicode="&#x200a;" horiz-adv-x="109" />
<glyph unicode="&#x2010;" horiz-adv-x="782" d="M66 401l36 250h596l-36 -250h-596z" />
<glyph unicode="&#x2011;" horiz-adv-x="782" d="M66 401l36 250h596l-36 -250h-596z" />
<glyph unicode="&#x2012;" horiz-adv-x="782" d="M66 401l36 250h596l-36 -250h-596z" />
<glyph unicode="&#x2013;" horiz-adv-x="1089" d="M66 401l36 250h904l-37 -250h-903z" />
<glyph unicode="&#x2014;" horiz-adv-x="1683" d="M66 401l36 250h1497l-36 -250h-1497z" />
<glyph unicode="&#x2018;" horiz-adv-x="454" d="M117 950l16 119q14 100 59 210.5t101 180.5l151 -59q-13 -29 -25 -65t-18.5 -62t-17 -67t-16.5 -62q57 1 78.5 -27.5t13.5 -91.5l-13 -86q-10 -74 -43.5 -102.5t-103.5 -28.5h-63q-71 0 -99.5 32.5t-19.5 108.5z" />
<glyph unicode="&#x2019;" horiz-adv-x="452" d="M139 1217l13 86q10 74 43.5 102.5t103.5 28.5h63q71 0 99.5 -33t19.5 -109l-16 -118q-14 -100 -59 -211t-101 -181l-151 60q13 29 25 65t18.5 62t17 67t16.5 62q-57 -1 -78.5 27.5t-13.5 91.5z" />
<glyph unicode="&#x201a;" horiz-adv-x="475" d="M2 96l12 86q10 74 44 102.5t104 28.5h63q71 0 99.5 -32.5t19.5 -108.5l-16 -119q-14 -100 -59 -210.5t-101 -180.5l-152 59q13 29 25 65t19 61t18 68t16 62q-57 -1 -78.5 27.5t-13.5 91.5z" />
<glyph unicode="&#x201c;" horiz-adv-x="862" d="M117 950l16 119q14 100 59 210.5t101 180.5l151 -59q-13 -29 -25 -65t-18.5 -62t-17 -67t-16.5 -62q57 1 78.5 -27.5t13.5 -91.5l-13 -86q-10 -74 -43.5 -102.5t-103.5 -28.5h-63q-71 0 -99.5 32.5t-19.5 108.5zM524 950l17 119q14 100 58.5 211t100.5 180l152 -59 q-13 -29 -25 -65t-19 -61t-18 -68t-16 -62q57 1 78.5 -27.5t13.5 -91.5l-12 -86q-10 -74 -43.5 -102.5t-103.5 -28.5h-64q-71 0 -99.5 32.5t-19.5 108.5z" />
<glyph unicode="&#x201d;" horiz-adv-x="860" d="M139 1217l13 86q10 74 43.5 102.5t103.5 28.5h63q71 0 99.5 -33t19.5 -109l-16 -118q-14 -100 -59 -211t-101 -181l-151 60q13 29 25 65t18.5 62t17 67t16.5 62q-57 -1 -78.5 27.5t-13.5 91.5zM547 1217l12 86q10 74 44 102.5t104 28.5h63q71 0 99.5 -33t19.5 -109 l-17 -118q-14 -100 -58.5 -211.5t-100.5 -180.5l-152 60q13 29 25 65t19 61t18 68t16 62q-57 -1 -78.5 27.5t-13.5 91.5z" />
<glyph unicode="&#x201e;" horiz-adv-x="882" d="M2 96l12 86q10 74 44 102.5t104 28.5h63q71 0 99.5 -32.5t19.5 -108.5l-16 -119q-14 -100 -59 -210.5t-101 -180.5l-152 59q13 29 25 65t19 61t18 68t16 62q-57 -1 -78.5 27.5t-13.5 91.5zM410 96l12 86q10 74 43.5 102.5t103.5 28.5h64q71 0 99.5 -32.5t19.5 -108.5 l-17 -119q-14 -100 -59 -210.5t-101 -180.5l-151 59q13 29 25 65t19 61t18 68t16 62q-57 -1 -78.5 27.5t-13.5 91.5z" />
<glyph unicode="&#x2022;" horiz-adv-x="776" d="M104 547l7 35q20 141 77 191t205 50h49q135 0 184.5 -59t32.5 -199l-6 -35q-22 -152 -77.5 -205t-194.5 -53h-55q-140 0 -191 62t-31 213z" />
<glyph unicode="&#x2026;" horiz-adv-x="1886" d="M-25 156l11 84q20 139 166 139h81q74 0 113 -40.5t29 -115.5l-13 -84q-9 -73 -47.5 -106t-115.5 -33h-82q-79 0 -115 40t-27 116zM657 156l11 84q20 139 166 139h81q74 0 113 -40.5t29 -115.5l-13 -84q-9 -73 -47.5 -106t-115.5 -33h-82q-79 0 -115 40t-27 116zM1339 156 l11 84q20 139 166 139h81q74 0 113 -40.5t29 -115.5l-13 -84q-9 -73 -47.5 -106t-115.5 -33h-82q-79 0 -115 40t-27 116z" />
<glyph unicode="&#x202f;" horiz-adv-x="394" />
<glyph unicode="&#x2039;" horiz-adv-x="655" d="M37 465l6 92l332 406l231 -144l-180 -305l127 -315l-225 -148z" />
<glyph unicode="&#x203a;" horiz-adv-x="653" d="M23 195l180 305l-127 317l225 146l291 -412l-6 -92l-332 -408z" />
<glyph unicode="&#x205f;" horiz-adv-x="492" />
<glyph unicode="&#x20ac;" horiz-adv-x="1314" d="M39 469l29 205h116l6 49q0 3 1.5 10t1.5 10h-113l29 205h127q70 257 232.5 373.5t469.5 116.5q214 0 379 -58l-51 -301q-45 4 -160.5 6t-202.5 -6q-77 -9 -121 -38t-73 -93h403l-49 -205h-404q-1 -3 -2 -10t-2 -10l-6 -49h391l-49 -205h-352q8 -64 37.5 -98.5t87.5 -44.5 q75 -11 193.5 -3.5t216.5 25.5l18 -309q-174 -64 -412 -64q-294 0 -441 121.5t-161 372.5h-139z" />
<glyph unicode="&#x2122;" horiz-adv-x="2037" d="M176 1206l31 219h729l-31 -219h-217l-80 -559h-293l80 559h-219zM879 647l120 686q9 51 31 71.5t70 20.5h256q44 0 72.5 -27t29.5 -71l4 -235q0 -61 -10 -136h14q1 7 11 60t16 76l61 251q19 82 113 82h262q49 0 75 -29t21 -79l-71 -670h-264l55 559h-14l-99 -342 q-12 -44 -37.5 -62t-72.5 -18h-148q-46 0 -75.5 26.5t-30.5 70.5l-6 325h-19l-98 -559h-266z" />
<glyph unicode="&#x25fc;" horiz-adv-x="1024" d="M0 0v1024h1024v-1024h-1024z" />
<glyph unicode="&#xfb03;" horiz-adv-x="2254" d="M-195 -360l66 256h100q65 0 93.5 25t37.5 89l111 756h-168l31 248l174 10l16 113q23 156 114 240.5t275 84.5q73 0 175 -8t163 -22l-65 -256h-123q-61 0 -88.5 -25t-36.5 -90l-6 -37h362l21 133q23 156 114.5 241t274.5 85q68 0 164 -8.5t153 -22.5l-65 -256h-103 q-61 0 -88.5 -25t-36.5 -90l-8 -57h758l-143 -1024h-430l106 766h-332l-123 -801q-23 -156 -114 -240.5t-275 -84.5q-103 0 -317 30l65 256h101q64 0 93 25t38 90l108 725h-360l-125 -832q-23 -156 -114 -240.5t-275 -84.5q-96 0 -318 31zM1825 1290l16 105q8 65 37.5 91.5 t93.5 26.5h178q65 0 96.5 -35.5t22.5 -99.5l-14 -104q-9 -65 -38 -92t-91 -27h-180q-65 0 -96.5 35.5t-24.5 99.5z" />
<glyph unicode="&#xfb04;" horiz-adv-x="2357" d="M-195 -360l66 256h100q65 0 93.5 25t37.5 89l111 756h-168l31 248l174 10l16 113q23 156 114 240.5t275 84.5q73 0 175 -8t163 -22l-65 -256h-123q-61 0 -88.5 -25t-36.5 -90l-6 -37h358l19 133q22 156 113 241t276 85q582 0 844 -51l-140 -1067q-6 -40 5.5 -53t54.5 -13 h65l21 -279q-42 -25 -129 -37t-152 -12q-161 0 -244.5 80t-64.5 215l133 936h-244q-56 0 -86 -28.5t-39 -92.5l-8 -57h225l-34 -258h-228l-114 -801q-22 -155 -113 -240t-274 -85q-104 0 -316 30l64 256h100q61 0 88.5 25t36.5 90l104 725h-358l-125 -832 q-23 -156 -114 -240.5t-275 -84.5q-96 0 -318 31z" />
</font>
</defs>
</svg>
