<?xml version="1.0" standalone="no"?>
<!DOCTYPE svg PUBLIC "-//W3C//DTD SVG 1.1//EN" "http://www.w3.org/Graphics/SVG/1.1/DTD/svg11.dtd" >
<svg xmlns="http://www.w3.org/2000/svg" xmlns:xlink="http://www.w3.org/1999/xlink" version="1.1">
<metadata></metadata>
<defs>
<font id="exo_2semi_bold" horiz-adv-x="1382" >
<font-face units-per-em="2048" ascent="1638" descent="-410" />
<missing-glyph horiz-adv-x="450" />
<glyph unicode="&#xfb01;" horiz-adv-x="1312" d="M49 823v170l178 11v139q0 161 73.5 245.5t240.5 84.5q148 0 254 -19v-176h-166q-86 0 -119 -36.5t-33 -129.5v-108h688v-1004h-247v823h-441v-823h-250v823h-178zM911 1260v110q0 72 72 72h115q71 0 71 -72v-110q0 -72 -71 -72h-115q-72 0 -72 72z" />
<glyph unicode="&#xfb02;" horiz-adv-x="1431" d="M47 823v170l178 11v139q0 161 73.5 246t238.5 84q469 0 649 -33v-1153q0 -115 117 -115h86l28 -160q-32 -16 -98.5 -25.5t-114.5 -9.5q-125 0 -196.5 66.5t-71.5 183.5v1053h-311q-84 1 -117 -36.5t-33 -131.5v-108h270v-181h-270v-823h-250v823h-178z" />
<glyph horiz-adv-x="0" />
<glyph horiz-adv-x="682" />
<glyph unicode=" "  horiz-adv-x="450" />
<glyph unicode="&#x09;" horiz-adv-x="450" />
<glyph unicode="&#xa0;" horiz-adv-x="450" />
<glyph unicode="!" horiz-adv-x="587" d="M170 840v583h248v-583l-27 -398h-194zM176 88v105q0 50 19.5 69t70.5 19h60q50 0 69 -19.5t19 -68.5v-105q0 -50 -19 -69t-69 -19h-60q-51 0 -70.5 19t-19.5 69z" />
<glyph unicode="&#x22;" horiz-adv-x="751" d="M123 1413h192l-16 -446h-162zM438 1413h193l-17 -446h-159z" />
<glyph unicode="#" horiz-adv-x="1429" d="M74 418l28 151h236l57 322h-235l28 153h234l63 369h191l-64 -369h324l63 369h191l-64 -369h228l-31 -153h-223l-58 -322h226l-31 -151h-221l-72 -418h-190l71 418h-323l-72 -418h-190l71 418h-237zM528 569h324l57 322h-323z" />
<glyph unicode="$" horiz-adv-x="1167" d="M102 1059q0 97 19 164t53.5 109.5t96 65.5t134 31.5t181.5 8.5h24l17 192h110l-16 -196q170 -7 307 -43l-16 -183q-36 1 -143 4.5t-167 4.5l-34 -398l120 -37q160 -52 224.5 -150.5t64.5 -260.5q0 -97 -18 -165t-53 -113.5t-96.5 -71t-140 -36t-191.5 -10.5h-5l-18 -225 h-113l21 227q-166 7 -344 43l16 195l348 -8l35 401l-131 41q-153 50 -219 148.5t-66 261.5zM358 1055q0 -61 18.5 -97.5t49 -54.5t92.5 -37l39 -12l33 363q-71 0 -108.5 -4t-69 -20.5t-43 -49t-11.5 -88.5zM594 207q133 2 179 34.5t46 131.5q0 48 -8 78.5t-29 51t-44.5 31.5 t-67.5 25l-43 14z" />
<glyph unicode="%" horiz-adv-x="1845" d="M80 1020q0 231 76 325.5t266 94.5t266 -94.5t76 -325.5q0 -230 -76.5 -325t-265.5 -95t-265.5 95t-76.5 325zM266 1020q0 -159 32 -215.5t122 -56.5q91 0 124.5 56.5t33.5 215.5q0 158 -33.5 215t-124.5 57q-89 0 -121.5 -57t-32.5 -215zM399 0l877 1413h164l-875 -1413 h-166zM1081 399q0 230 76 325t264 95q189 0 265.5 -95t76.5 -325q0 -233 -76 -327.5t-266 -94.5q-188 0 -264 94.5t-76 327.5zM1268 399q-1 -161 30.5 -217.5t122.5 -56.5q90 0 123 57t33 217t-33 215.5t-123 55.5q-91 0 -122.5 -55.5t-30.5 -215.5z" />
<glyph unicode="&#x26;" horiz-adv-x="1570" d="M119 358q0 170 64.5 264t213.5 107v8q-126 12 -180.5 92t-54.5 238q0 71 10.5 124t29 92.5t52.5 66.5t73 44t100 26t123.5 12.5t151.5 3.5q189 0 330 -23l-31 -186q-94 6 -307 6q-84 0 -131.5 -7t-82 -29t-46.5 -61.5t-12 -107.5q0 -120 47 -162.5t176 -42.5h340l19 234 h208v-234h236v-186h-236v-332q0 -65 24 -91t87 -26h137l27 -176q-46 -16 -118 -25.5t-124 -9.5q-99 0 -165 42t-89 118q-86 -87 -189.5 -123.5t-262.5 -36.5q-227 0 -323.5 85t-96.5 296zM389 406q0 -124 45.5 -168.5t173.5 -44.5q230 3 371 118v326h-348q-138 0 -190 -48.5 t-52 -182.5z" />
<glyph unicode="'" horiz-adv-x="436" d="M123 1413h192l-16 -446h-162z" />
<glyph unicode="(" horiz-adv-x="741" d="M92 639q0 403 138.5 640.5t433.5 338.5l28 -111q-188 -89 -273 -304t-85 -562q0 -341 85.5 -557.5t272.5 -310.5l-28 -111q-294 103 -433 340.5t-139 636.5z" />
<glyph unicode=")" horiz-adv-x="741" d="M49 -227q187 94 273 310.5t86 557.5q0 347 -85.5 562t-273.5 304l31 111q294 -101 432.5 -338.5t138.5 -640.5q0 -400 -138.5 -637t-432.5 -340z" />
<glyph unicode="*" horiz-adv-x="921" d="M90 1110l45 133l240 -96l-2 -62l-29 -38zM197 815l213 262l-21 338h143l-22 -336l213 -264l-113 -84l-149 250l-150 -248zM547 1085v62l239 96l45 -135l-251 -61z" />
<glyph unicode="+" horiz-adv-x="1118" d="M100 522v185h365v350h186v-350h367v-185h-367v-350h-186v350h-365z" />
<glyph unicode="," horiz-adv-x="487" d="M119 78v115q3 49 23.5 68.5t68.5 19.5h68q49 0 67 -19t16 -69l3 -132q-3 -191 -91 -348l-112 31q26 124 26 256q-33 0 -51 20.5t-18 57.5z" />
<glyph unicode="-" horiz-adv-x="876" d="M131 432v176h614v-176h-614z" />
<glyph unicode="." horiz-adv-x="491" d="M119 88v105q0 50 19.5 69t70.5 19h74q51 0 70.5 -19t19.5 -69v-105q0 -50 -19.5 -69t-70.5 -19h-74q-51 0 -70.5 19t-19.5 69z" />
<glyph unicode="/" horiz-adv-x="1093" d="M45 -141l805 1554h199l-805 -1554h-199z" />
<glyph unicode="0" horiz-adv-x="1261" d="M115 707q0 400 115 566.5t401 166.5q146 0 243.5 -39.5t159.5 -129.5t88.5 -226t26.5 -338q0 -269 -49.5 -427t-162 -232.5t-306.5 -74.5q-286 0 -401 167t-115 567zM365 707q0 -201 24.5 -311.5t81 -159t158.5 -48.5q79 0 129.5 25t82 87t44 158.5t12.5 248.5t-12.5 248 t-44 158t-82 87t-129.5 25q-102 0 -158.5 -48t-81 -158.5t-24.5 -311.5z" />
<glyph unicode="1" horiz-adv-x="847" d="M31 1270l352 143h256v-1413h-256v1042q0 81 10 140l-332 -95z" />
<glyph unicode="2" horiz-adv-x="1165" d="M102 0v154q0 66 37 106l369 408q131 138 193 242t61 188q-3 73 -53 94.5t-168 21.5q-198 0 -414 -24l-14 196q238 52 454 52q89 0 155 -8t124.5 -29t95 -56.5t57.5 -92t21 -134.5q0 -128 -49.5 -231.5t-186.5 -253.5l-374 -404q91 13 219 13h436v-242h-963z" />
<glyph unicode="3" horiz-adv-x="1148" d="M94 10l12 201q246 -16 390 -16q157 0 217.5 48.5t60.5 180.5q0 57 -9.5 95t-35 68t-73.5 43.5t-121 12.5h-263v191h263q57 0 97 11t62.5 28.5t34.5 47.5t15.5 58t3.5 70q-1 47 -9.5 77t-24 49.5t-47 29.5t-68 13t-97.5 3q-210 0 -369 -13l-12 195q215 37 422 37 q242 0 345 -72t103 -256q0 -75 -9.5 -131.5t-32 -104.5t-64 -78.5t-101.5 -41.5v-8q132 -22 186.5 -109t57.5 -246q3 -222 -103 -321t-362 -99q-191 0 -469 37z" />
<glyph unicode="4" horiz-adv-x="1284" d="M80 557l377 856h248l-359 -821q-15 -38 -2 -56t47 -18h393v393l43 230h199v-623h182v-172l-178 -27h-4v-319h-242v319h-555q-94 0 -140 75.5t-9 162.5z" />
<glyph unicode="5" horiz-adv-x="1114" d="M90 23l27 206q193 -30 360 -30q87 0 142.5 13t86 43.5t42.5 71t14 103.5q1 46 -5.5 80.5t-16 59t-37.5 42t-50.5 28.5t-74.5 19.5t-90.5 13t-116.5 11.5l-135 14q-41 3 -66.5 32.5t-22.5 70.5l33 612h793l-8 -211h-582l-16 -301l178 -20q258 -26 364.5 -133.5 t104.5 -319.5q0 -75 -11.5 -136.5t-43.5 -122t-83 -102t-136.5 -67t-198.5 -25.5q-200 0 -451 48z" />
<glyph unicode="6" horiz-adv-x="1185" d="M119 690q0 161 15 280t48.5 201.5t77.5 135t112 81.5t141 39.5t175 10.5q186 0 311 -35l-16 -178q-98 4 -295 4q-59 0 -99.5 -6t-77.5 -22.5t-59.5 -45.5t-40.5 -76t-27 -112t-13 -156q66 66 140.5 92.5t184.5 26.5q224 0 310 -102t86 -355q0 -98 -11 -169.5 t-41.5 -136.5t-82 -105t-136 -63.5t-200.5 -23.5q-90 0 -157.5 10.5t-122 33t-91.5 62.5t-63 92.5t-40.5 130.5t-21 170t-6.5 216zM369 637q0 -75 1.5 -124t6 -99t12 -80t21 -59t31.5 -43.5t44.5 -27t59.5 -16.5t78 -4q60 0 101.5 12.5t65.5 33.5t37 59.5t17 78.5t4 103 q0 148 -46 204t-177 56q-72 0 -128.5 -20.5t-127.5 -73.5z" />
<glyph unicode="7" horiz-adv-x="1062" d="M66 1413h823q71 0 102.5 -41.5t9.5 -105.5l-432 -1266h-254l373 1077q21 71 53 121h-663z" />
<glyph unicode="8" horiz-adv-x="1249" d="M123 352q0 171 52.5 267.5t182.5 109.5v8q-70 8 -116.5 53.5t-66 113.5t-19.5 157q0 102 20.5 169t72.5 115t143.5 69.5t232.5 21.5q142 0 234 -21t144.5 -69.5t72.5 -115.5t20 -169q0 -137 -50.5 -225t-154.5 -99v-8q130 -13 183.5 -110t53.5 -267q0 -102 -21.5 -168.5 t-77 -115t-154 -70t-250.5 -21.5q-120 0 -205.5 14.5t-143.5 42.5t-91.5 75t-47.5 104.5t-14 138.5zM365 408q0 -130 52.5 -176t209.5 -46q156 0 207 46t51 176q0 138 -50 183.5t-206 45.5q-160 -1 -212 -47.5t-52 -181.5zM387 1034q0 -122 48.5 -163.5t193.5 -41.5 q101 0 150 19t66 60t17 126q0 62 -9 99.5t-35.5 63t-71.5 35t-119 9.5q-144 0 -192 -43t-48 -164z" />
<glyph unicode="9" horiz-adv-x="1185" d="M98 940q-2 261 106.5 379.5t368.5 118.5q92 0 160.5 -11.5t121.5 -33.5t89 -63.5t60 -93t37 -131t18.5 -168.5t5.5 -214q-1 -158 -14 -273.5t-43.5 -199.5t-72.5 -137t-109 -84t-143.5 -42.5t-184.5 -11.5q-199 0 -338 35l18 180q106 -6 318 -6q120 0 185.5 37t97.5 128 t38 261q-68 -71 -143.5 -99t-188.5 -28q-387 0 -387 457zM340 942q-2 -137 45.5 -199.5t173.5 -62.5q71 0 128.5 22t131.5 78q0 85 -2.5 138.5t-8 106.5t-16.5 82.5t-28.5 56.5t-44.5 39t-62.5 19t-85.5 7q-59 0 -100.5 -12t-67.5 -33.5t-40 -58.5t-19 -79.5t-4 -103.5z" />
<glyph unicode=":" horiz-adv-x="514" d="M121 88v105q0 50 19.5 69t70.5 19h74q51 0 70.5 -19t19.5 -69v-105q0 -50 -19.5 -69t-70.5 -19h-74q-51 0 -70.5 19t-19.5 69zM121 721v104q0 50 19.5 69t70.5 19h74q51 0 70.5 -19t19.5 -69v-104q0 -50 -19.5 -69t-70.5 -19h-74q-51 0 -70.5 19t-19.5 69z" />
<glyph unicode=";" horiz-adv-x="516" d="M133 78v115q3 49 23.5 68.5t68.5 19.5h68q49 0 67.5 -19t16.5 -69l2 -132q-3 -192 -90 -348l-113 31q27 129 27 256q-34 0 -52 20.5t-18 57.5zM133 721v104q0 50 19.5 69t70.5 19h74q51 0 70.5 -19t19.5 -69v-104q0 -50 -19.5 -69t-70.5 -19h-74q-51 0 -70.5 19t-19.5 69 z" />
<glyph unicode="&#x3c;" horiz-adv-x="1071" d="M94 516v195l848 346v-197l-637 -246l637 -245v-195z" />
<glyph unicode="=" horiz-adv-x="1191" d="M135 297v180h922v-180h-922zM135 731v180h922v-180h-922z" />
<glyph unicode="&#x3e;" horiz-adv-x="1071" d="M129 174v195l637 245l-637 246v197l848 -346v-195z" />
<glyph unicode="?" horiz-adv-x="1040" d="M70 1411q15 3 67.5 12.5t67.5 12t60.5 8.5t77.5 8t85 4t115 2q216 0 321 -77.5t105 -239.5q0 -61 -19 -115t-50 -95.5t-69 -81.5t-76.5 -82t-71 -87t-55 -106.5t-26.5 -131.5h-207q-2 75 13.5 141.5t42.5 116t59.5 93.5t66.5 81.5t62 72t47 72t21 75.5q5 82 -47.5 119.5 t-172.5 37.5q-164 0 -407 -14zM379 88v105q0 50 19.5 69t70.5 19h59q51 0 70.5 -19t19.5 -69v-105q0 -50 -19.5 -69t-70.5 -19h-59q-51 0 -70.5 19t-19.5 69z" />
<glyph unicode="@" horiz-adv-x="1509" d="M131 547q0 119 3.5 198.5t15.5 154t29 118.5t51.5 83.5t76 59t109 34t142.5 18.5t185 4h301q167 0 250.5 -74t83.5 -246v-623h-184l-23 146q-61 -66 -161 -116t-213 -50q-125 0 -202 66.5t-77 189.5v100q0 103 62.5 161t181.5 58h383v62q0 76 -31.5 102.5t-118.5 26.5 h-252q-58 0 -92.5 -0.5t-75.5 -5t-62.5 -10t-47.5 -19.5t-37.5 -30t-25.5 -44.5t-19 -59.5t-10.5 -79.5t-6.5 -100t-1 -124.5q0 -95 1.5 -157.5t13.5 -117.5t20.5 -85.5t41 -56.5t55 -36t83 -17.5t105 -8t138.5 -0.5h553v-177q-286 -22 -553 -22q-124 -1 -209 2.5t-161 18 t-123 34t-86 59.5t-58.5 85t-33.5 121t-17.5 156.5t-3.5 201.5zM745 553q0 -61 27 -87t82 -26q75 0 155.5 28.5t135.5 82.5v139l-291 -8q-63 -3 -86 -24t-23 -72v-33z" />
<glyph unicode="A" horiz-adv-x="1302" d="M10 0l424 1346q9 32 34 49.5t58 17.5h250q33 0 58 -17.5t34 -49.5l424 -1346h-262l-117 399h-524l-117 -399h-262zM451 610h401l-141 488q-3 13 -10.5 38t-12.5 45.5t-8 37.5h-55l-33 -121z" />
<glyph unicode="B" horiz-adv-x="1286" d="M158 0v1413q185 17 499 17q138 0 226.5 -16.5t148 -59t84.5 -113t25 -180.5q0 -154 -57.5 -233t-184.5 -91v-8q154 -13 219.5 -107t65.5 -270q0 -109 -25 -180t-83.5 -113t-142 -58.5t-212.5 -16.5q-369 0 -563 16zM410 193q117 -3 268 -3q145 0 197.5 42t52.5 167 q0 95 -24.5 146t-78.5 72t-155 22h-260v-446zM410 825h256q131 0 180 41.5t49 161.5q0 116 -53 155.5t-197 39.5h-235v-398z" />
<glyph unicode="C" horiz-adv-x="1183" d="M109 707q0 205 30 342t99 225t177 126t269 38q138 0 225 -10t181 -35l-25 -195q-178 14 -381 14q-119 0 -183.5 -46.5t-93 -154t-28.5 -304.5q0 -148 14.5 -242.5t51 -155t93.5 -84.5t146 -24q261 0 412 20l22 -192q-95 -30 -192 -42t-242 -12q-215 0 -339 71.5 t-180 229.5t-56 431z" />
<glyph unicode="D" horiz-adv-x="1374" d="M158 0v1413q296 19 528 19q163 0 270 -35t177.5 -120.5t100.5 -222.5t30 -347t-30 -347t-100.5 -222.5t-177.5 -120.5t-270 -35q-247 0 -528 18zM414 201q160 -4 272 -4q89 0 146.5 24.5t94 85t51.5 156t15 244.5q0 198 -28.5 307t-94 157t-184.5 48q-55 0 -144.5 -1 t-127.5 -1v-1016z" />
<glyph unicode="E" horiz-adv-x="1163" d="M145 264v885q1 124 83.5 196t220.5 72q436 0 622 -16l-12 -197h-553q-56 0 -79.5 -26.5t-23.5 -92.5v-247h580v-197h-580v-315q0 -66 23.5 -92.5t79.5 -26.5h553l12 -195q-186 -16 -622 -16q-140 0 -221.5 72t-82.5 196z" />
<glyph unicode="F" horiz-adv-x="1118" d="M154 0v1139q0 132 81.5 205t221.5 73q422 0 602 -18l-15 -195h-512q-67 0 -93.5 -26.5t-26.5 -92.5v-272h557v-199h-557v-614h-258z" />
<glyph unicode="G" horiz-adv-x="1300" d="M111 713q0 214 31.5 352t107 223t189 118.5t290.5 33.5q238 0 406 -47l-21 -191q-200 12 -373 12q-73 0 -120.5 -6t-92 -25.5t-69.5 -53.5t-45 -92t-27.5 -140.5t-7.5 -198.5q0 -284 55.5 -393.5t198.5 -109.5q82 0 151.5 25.5t145.5 72.5v522h250v-815h-191l-22 139 q-72 -68 -176.5 -117t-237.5 -49q-233 0 -337.5 177.5t-104.5 562.5z" />
<glyph unicode="H" horiz-adv-x="1388" d="M158 0v1413h256v-555h559v555h256v-1413h-256v647h-559v-647h-256z" />
<glyph unicode="I" horiz-adv-x="571" d="M158 0v1413h256v-1413h-256z" />
<glyph unicode="J" horiz-adv-x="724" d="M51 12l27 178h96q143 0 143 127v1096h254v-1102q0 -161 -77 -247.5t-218 -86.5q-50 0 -119 10.5t-106 24.5z" />
<glyph unicode="K" horiz-adv-x="1253" d="M158 0v1413h256v-416q0 -83 -15 -163h140l387 579h278l-381 -569q-36 -57 -94 -107v-6q72 -60 111 -121l391 -610h-287l-403 637h-142q15 -88 15 -139v-498h-256z" />
<glyph unicode="L" horiz-adv-x="1067" d="M154 289v1124h256v-1083q0 -65 26.5 -91t93.5 -26h492l10 -199q-200 -18 -561 -18q-317 0 -317 293z" />
<glyph unicode="M" horiz-adv-x="1830" d="M131 0l53 1313q3 100 101 100h266q83 0 104 -86l201 -766q10 -37 43 -192h31q18 101 43 194l201 764q21 86 106 86h264q98 0 101 -100l57 -1313h-252l-47 1206h-39l-244 -940q-22 -86 -106 -86h-197q-86 0 -108 86l-248 940h-35l-45 -1206h-250z" />
<glyph unicode="N" horiz-adv-x="1464" d="M158 0v1319q0 46 25 70t71 24h199q40 0 63 -18t43 -60l385 -841q85 -191 98 -224h25q-10 130 -10 230v913h250v-1319q0 -46 -24.5 -70t-70.5 -24h-202q-40 0 -64.5 18.5t-42.5 59.5l-397 866q-71 150 -84 211h-25q13 -94 13 -213v-942h-252z" />
<glyph unicode="O" d="M109 707q0 213 29.5 351.5t100.5 225t178.5 121.5t272.5 35q133 0 227 -23t164.5 -73.5t112 -137t61 -207.5t19.5 -292t-19.5 -292.5t-61 -208t-112 -137t-164.5 -73.5t-227 -23q-110 0 -192.5 15t-149 50.5t-110.5 91t-73.5 138t-42.5 190t-13 249.5zM379 707 q0 -200 28.5 -309.5t95 -157t187.5 -47.5q122 0 189 47.5t96 157t29 309.5t-29 309.5t-96 157t-189 47.5q-121 0 -187.5 -47.5t-95 -157t-28.5 -309.5z" />
<glyph unicode="P" horiz-adv-x="1230" d="M158 0v1413q192 19 512 19q142 0 231.5 -20.5t148 -74t82 -139t23.5 -221.5t-23 -222.5t-79 -139t-138.5 -73t-212.5 -20.5q-142 0 -288 17v-539h-256zM414 731h250q92 1 140.5 22t70.5 73t22 151q0 145 -49 194.5t-184 49.5q-178 0 -250 -2v-488z" />
<glyph unicode="Q" horiz-adv-x="1386" d="M111 707q0 213 29.5 351.5t100.5 225t178.5 121.5t272.5 35t273 -35t179.5 -121.5t101.5 -225t30 -351.5q0 -283 -57.5 -441.5t-182 -225.5t-344.5 -67q-110 0 -192.5 15t-149 50.5t-110.5 91t-73.5 138t-42.5 190t-13 249.5zM379 707q0 -150 15 -246.5t52.5 -157.5 t96 -85.5t149.5 -24.5q122 0 189 47.5t96 157t29 309.5t-29 309.5t-96 157t-189 47.5q-91 0 -149.5 -24.5t-96 -85.5t-52.5 -157.5t-15 -246.5zM535 -227l63 149q255 -90 590 -135l-80 -246q-268 64 -573 232z" />
<glyph unicode="R" horiz-adv-x="1288" d="M158 0v1413q192 19 514 19q135 0 224.5 -19.5t151 -67t88.5 -127t27 -200.5q0 -164 -61 -251t-203 -105v-11q61 -14 114 -65t74 -144l127 -442h-272l-113 438q-22 68 -60 97.5t-103 29.5h-254v-565h-254zM412 776h254q136 2 186.5 49t50.5 176t-50 174.5t-187 45.5h-254 v-445z" />
<glyph unicode="S" horiz-adv-x="1167" d="M98 1059q0 97 19 164t54 109.5t97 65.5t134.5 31.5t181.5 8.5q261 0 444 -47l-16 -183q-263 9 -420 9q-59 0 -91.5 -2.5t-65 -11t-47 -26t-23.5 -47t-9 -75.5q0 -89 34 -125t124 -64l272 -84q161 -52 226 -150t65 -261q0 -81 -11.5 -141t-38.5 -104.5t-65 -73.5 t-96.5 -46t-127.5 -24t-163 -7q-233 0 -458 45l16 189q357 -8 449 -8q141 0 188 32.5t47 139.5q0 48 -8 78.5t-29 51t-44.5 31.5t-67.5 25l-285 90q-153 50 -219 148.5t-66 261.5z" />
<glyph unicode="T" horiz-adv-x="1212" d="M43 1194v219h1126v-219h-436v-1194h-258v1194h-432z" />
<glyph unicode="U" horiz-adv-x="1374" d="M147 553v860h256v-860q0 -203 62.5 -281.5t222.5 -78.5q157 0 219 78.5t62 281.5v860h258v-860q0 -317 -119.5 -448.5t-409.5 -131.5q-302 0 -426.5 131.5t-124.5 448.5z" />
<glyph unicode="V" horiz-adv-x="1273" d="M23 1413h264l288 -1061l37 -157h52q13 65 38 157l285 1061h264l-399 -1341q-9 -32 -34.5 -52t-59.5 -20h-242q-34 0 -59 20t-33 52z" />
<glyph unicode="W" horiz-adv-x="1968" d="M59 1413h267l168 -1030q12 -69 22 -193h43q15 100 33 193l174 948q6 37 31 59.5t63 22.5h250q35 0 60.5 -22.5t31.5 -59.5l174 -950q21 -111 29 -191h45q4 29 11.5 93.5t11.5 95.5l169 1034h267l-244 -1341q-8 -32 -33.5 -52t-60.5 -20h-268q-36 0 -62.5 20.5t-32.5 53.5 l-178 985q-9 51 -26 166h-41q-15 -100 -27 -166l-176 -985q-6 -33 -33 -53.5t-63 -20.5h-267q-35 0 -61.5 20t-32.5 52z" />
<glyph unicode="X" horiz-adv-x="1282" d="M35 0l375 727l-349 686h269l286 -590h48l286 590h271l-351 -686l377 -727h-272l-316 639h-38l-316 -639h-270z" />
<glyph unicode="Y" horiz-adv-x="1206" d="M10 1413h271l258 -549q16 -33 57 -170h16q39 131 58 170l258 549h266l-463 -936v-477h-256v481z" />
<glyph unicode="Z" horiz-adv-x="1175" d="M92 0v209l696 995h-684v209h967v-209l-696 -995h710v-209h-993z" />
<glyph unicode="[" horiz-adv-x="694" d="M170 -201v1637q0 60 38.5 98.5t98.5 38.5h314v-158h-185q-14 0 -24.5 -10t-10.5 -27v-1521q0 -17 10.5 -27t24.5 -10h185v-158h-314q-137 0 -137 137z" />
<glyph unicode="\" horiz-adv-x="1095" d="M45 1413h201l805 -1554h-201z" />
<glyph unicode="]" horiz-adv-x="694" d="M74 -180h182q15 0 25 10t10 27v1521q0 17 -10 27t-25 10h-182v158h311q61 0 100 -38.5t39 -98.5v-1637q0 -60 -39 -98.5t-100 -38.5h-311v158z" />
<glyph unicode="^" horiz-adv-x="915" d="M61 813l308 449h180l305 -449l-98 -57l-289 346h-16l-291 -346z" />
<glyph unicode="_" horiz-adv-x="903" d="M0 0h903v-176h-903v176z" />
<glyph unicode="`" horiz-adv-x="690" d="M66 1319l129 184l385 -301l-78 -110z" />
<glyph unicode="a" horiz-adv-x="1142" d="M88 268v103q0 120 78 186t219 66h377v61q-1 86 -38.5 114.5t-145.5 28.5q-157 0 -420 -20l-25 176q107 20 254.5 34.5t247.5 14.5q194 0 285.5 -78t91.5 -272v-682h-197l-27 152q-67 -72 -163.5 -123.5t-218.5 -51.5q-142 0 -230 76.5t-88 214.5zM336 301 q0 -64 31.5 -93.5t99.5 -29.5q65 0 143.5 29.5t151.5 89.5v156h-320q-59 -3 -82.5 -31t-23.5 -82v-39z" />
<glyph unicode="b" horiz-adv-x="1189" d="M135 51v1383h250v-338q0 -139 -23 -234q78 83 172.5 126.5t194.5 43.5q190 0 278.5 -123t88.5 -401q0 -128 -21.5 -220.5t-73 -165.5t-145.5 -110t-231 -37q-117 0 -258 20t-232 56zM383 711l2 -512q110 -25 211 -25h22q122 2 171.5 74t50.5 260q-1 94 -9 150.5 t-30.5 95.5t-61.5 54t-104 15q-62 0 -117.5 -27t-134.5 -85z" />
<glyph unicode="c" horiz-adv-x="1019" d="M94 504q0 290 111.5 409t380.5 119q212 0 350 -57l-29 -156q-100 4 -278 4q-156 0 -215.5 -67t-59.5 -252q0 -187 59.5 -255.5t215.5 -68.5q155 0 301 21l22 -164q-150 -62 -368 -62q-269 0 -379.5 119t-110.5 410z" />
<glyph unicode="d" horiz-adv-x="1193" d="M96 508q0 148 24 250t74 162t119.5 86t167.5 26q194 0 334 -90q-10 83 -10 203v289h250v-1434h-197l-20 137q-174 -162 -389 -162q-185 0 -269 135t-84 398zM352 510q0 -131 20.5 -202t59.5 -96.5t109 -25.5t121 22t143 83v497q-16 4 -50.5 12t-52 11.5t-45 8.5t-52 7 t-50.5 2q-59 0 -94.5 -12t-61.5 -46.5t-36.5 -97t-10.5 -163.5z" />
<glyph unicode="e" horiz-adv-x="1122" d="M94 504q0 149 27.5 250t88.5 163t150 88.5t220 26.5q239 0 347.5 -87t108.5 -261q0 -287 -268 -287h-410q14 -131 73.5 -175t195.5 -44q144 0 360 25l23 -160q-73 -35 -188 -51.5t-226 -16.5q-273 0 -387.5 121.5t-114.5 407.5zM352 571h346q90 0 90 117 q0 81 -42.5 114.5t-155.5 33.5q-132 0 -182 -54.5t-56 -210.5z" />
<glyph unicode="f" horiz-adv-x="808" d="M49 823v170l178 11v165q0 147 74 225.5t240 78.5q191 0 305 -19l-21 -176h-196q-84 0 -118 -32t-34 -109v-133h293v-181h-293v-823h-250v823h-178z" />
<glyph unicode="g" horiz-adv-x="1163" d="M63 -94q0 78 37 127.5t121 91.5q-58 55 -58 138q0 13 1 27q11 100 82 146q-74 38 -107 103.5t-33 167.5q0 179 100.5 252t354.5 73q166 0 258 -28h311l-14 -121l-131 -15q27 -67 27 -159q0 -174 -100.5 -249t-352.5 -75q-104 0 -184 12q-14 -26 -15 -53.5t17.5 -50.5 t56.5 -29l367 -51q147 -20 211.5 -90t64.5 -203q0 -184 -109.5 -252.5t-396.5 -68.5q-197 0 -306 29.5t-155.5 95t-46.5 182.5zM303 -68q0 -87 49.5 -111t216.5 -24q165 0 217 24.5t52 108.5q0 26 -5.5 43t-14.5 28t-33 18t-47 10.5t-70 9.5l-285 35q-80 -67 -80 -142z M334 709q0 -84 49 -117t176 -33t175 33t48 117q0 85 -47.5 116t-175.5 31t-176.5 -31.5t-48.5 -115.5z" />
<glyph unicode="h" horiz-adv-x="1208" d="M139 0v1434h250l2 -369q0 -110 -16 -201q228 168 424 168q134 0 205 -71.5t71 -206.5v-754h-250v678q0 84 -22.5 113.5t-83.5 29.5q-70 0 -142.5 -28t-187.5 -93v-700h-250z" />
<glyph unicode="i" horiz-adv-x="542" d="M141 1255v113q0 34 18.5 53t53.5 19h115q71 0 71 -72v-113q0 -71 -71 -71h-115q-72 0 -72 71zM147 0v1004h248v-1004h-248z" />
<glyph unicode="j" horiz-adv-x="546" d="M31 -301q63 75 91 149.5t28 169.5v986h249v-986q0 -132 -61.5 -247t-167.5 -181zM145 1260v110q0 72 72 72h115q71 0 71 -72v-110q0 -72 -71 -72h-115q-72 0 -72 72z" />
<glyph unicode="k" horiz-adv-x="1093" d="M139 0v1434h250l2 -611q0 -96 -14 -176h108l275 357h282l-280 -357q-16 -25 -40.5 -49t-43.5 -35v-4q39 -24 84 -96l313 -463h-282l-306 479h-110q12 -80 12 -153v-326h-250z" />
<glyph unicode="l" horiz-adv-x="643" d="M141 252v1182h250l-2 -1121q0 -116 121 -116h86l29 -185q-31 -16 -97 -25.5t-116 -9.5q-126 0 -198.5 72t-72.5 203z" />
<glyph unicode="m" horiz-adv-x="1792" d="M139 0v1004h203l16 -148q197 176 392 176q203 0 256 -168q186 168 380 168q133 0 203 -71.5t70 -206.5v-754h-244v678q-2 78 -29 110.5t-96 32.5q-60 0 -113 -24.5t-157 -96.5v-700h-240v678v5q0 75 -28 106q-30 32 -97 32q-56 0 -109 -24t-159 -95v-702h-248z" />
<glyph unicode="n" horiz-adv-x="1208" d="M139 0v1004h209l17 -150q229 178 434 178q134 0 205 -71.5t71 -206.5v-754h-250v678q0 84 -22.5 113.5t-83.5 29.5q-69 0 -140.5 -28.5t-191.5 -94.5l2 -698h-250z" />
<glyph unicode="o" horiz-adv-x="1179" d="M94 502q0 289 113.5 409.5t384.5 120.5q270 0 381.5 -120.5t111.5 -409.5t-111.5 -409t-381.5 -120q-272 0 -385 120t-113 409zM354 502q0 -193 50 -261.5t188 -68.5q136 0 185.5 69t49.5 261q0 194 -49.5 263t-185.5 69q-94 0 -144.5 -29.5t-72 -99.5t-21.5 -203z" />
<glyph unicode="p" horiz-adv-x="1210" d="M139 -399v1403h205l18 -148q69 76 184.5 125t225.5 49q178 0 260 -136.5t82 -399.5q0 -146 -24 -246.5t-74 -160.5t-119.5 -86t-167.5 -26q-205 0 -346 99q5 -80 5 -151q0 -30 -1 -58v-264h-248zM387 221q5 -1 31 -7t32 -7.5t28.5 -6.5t30.5 -6.5t27 -5t30 -4.5t27.5 -3 t31.5 -2.5t30 -0.5q78 0 119.5 24t62.5 93t21 201q0 127 -18 198.5t-56 101t-104 29.5q-69 0 -135 -29.5t-158 -95.5v-479z" />
<glyph unicode="q" horiz-adv-x="1187" d="M94 498q0 105 12.5 184t45 147t86 111t137 67.5t196.5 24.5q110 0 251 -20t231 -56v-1355h-248l-2 309q0 130 20 217q-185 -154 -377 -154q-179 0 -265.5 128t-86.5 397zM350 485q0 -162 38 -230.5t147 -68.5q70 0 129 25t141 78v518q-108 27 -216 27h-22 q-84 -3 -129 -33t-66.5 -104t-21.5 -212z" />
<glyph unicode="r" horiz-adv-x="845" d="M139 0v1004h195l22 -148q213 176 414 176h49l-26 -233h-72q-66 0 -137 -20t-195 -68v-711h-250z" />
<glyph unicode="s" horiz-adv-x="1058" d="M88 748q0 162 92 223t318 61q238 -3 444 -37l-18 -172q-254 8 -383 8q-136 0 -174.5 -13t-38.5 -73q0 -15 2.5 -26.5t5 -20t11.5 -16t14 -11.5t20 -9.5t22.5 -7.5t29 -8t32.5 -9l270 -74q130 -37 185 -99t55 -190q0 -74 -17.5 -125.5t-50 -85t-89 -52.5t-125 -26.5 t-167.5 -7.5q-226 0 -420 33l17 174q107 -8 342 -8q162 0 216 18.5t54 77.5q0 13 -1.5 23t-6.5 18.5t-9 14.5t-14 12t-15.5 9.5t-21 8.5t-23 7t-27.5 7.5t-29 8.5l-264 72q-131 38 -183.5 105.5t-52.5 189.5z" />
<glyph unicode="t" horiz-adv-x="819" d="M45 823v170l180 11v288h248v-288h295v-181h-295v-510q0 -66 26.5 -91t94.5 -25h137l27 -185q-48 -16 -126.5 -25.5t-131.5 -9.5q-132 0 -202.5 76.5t-70.5 216.5l-2 553h-180z" />
<glyph unicode="u" horiz-adv-x="1185" d="M133 252v752h250v-678v-11q-1 -71 25 -100q28 -31 98 -31q61 0 126.5 25.5t166.5 83.5v711h248v-1004h-197l-19 135q-213 -162 -419 -162q-137 0 -208 70.5t-71 208.5z" />
<glyph unicode="v" horiz-adv-x="1118" d="M25 1004h262l209 -662q5 -19 15.5 -54.5t19 -65t14.5 -54.5h26q9 29 27 87.5t27 86.5l206 662h265l-344 -945q-22 -59 -84 -59h-217q-30 0 -52.5 16t-29.5 43z" />
<glyph unicode="w" horiz-adv-x="1708" d="M39 1004h254l166 -691q21 -93 26 -159h27q3 13 14.5 70.5t16.5 88.5l123 617q6 34 29.5 54t58.5 20h202q35 0 60 -20.5t31 -55.5l118 -615q5 -30 16 -84.5t15 -74.5h27q18 124 26 159l166 691h254l-264 -936q-7 -32 -31 -50t-57 -18h-211q-35 0 -60.5 21.5t-31.5 56.5 l-121 616q-4 20 -12 76.5t-15 87.5h-24l-29 -164l-117 -616q-6 -35 -32 -56.5t-62 -21.5h-207q-34 0 -59 18t-31 50z" />
<glyph unicode="x" horiz-adv-x="1118" d="M31 0l317 516l-293 488h260l228 -394h32l228 394h260l-293 -488l317 -516h-262l-252 430h-28l-252 -430h-262z" />
<glyph unicode="y" horiz-adv-x="1118" d="M25 1004h264l219 -691q22 -70 33 -133h28l41 133l215 691h267l-373 -1035q-21 -60 -49 -113.5t-72.5 -107t-97.5 -90t-128 -58.5q-60 -17 -127 -17q-16 0 -32 1l-20 158q119 33 187.5 89t106.5 146l11 23h-49q-31 0 -54 16t-30 45z" />
<glyph unicode="z" horiz-adv-x="1060" d="M92 0v190l590 623h-582v191h861v-191l-590 -623h598v-190h-877z" />
<glyph unicode="{" horiz-adv-x="677" d="M80 588v168q68 22 82 32q27 20 30 85q1 14 1 32v389q0 322 405 279v-154q-98 0 -133 -31t-35 -116v-334q2 -129 -40 -187t-159 -79q119 -34 162 -91t45 -167v-453q0 -85 35 -115t133 -30v-154q-405 -43 -405 279v505q0 36 -5 57.5t-22.5 37t-31.5 22t-52 21.5q-6 3 -10 4 z" />
<glyph unicode="|" horiz-adv-x="520" d="M172 -346v1945h176v-1945h-176z" />
<glyph unicode="}" horiz-adv-x="679" d="M74 -184q98 0 133 30t35 115v453q2 110 45 167t162 91q-117 21 -159 79t-40 187v334q0 85 -35 116t-133 31v154q405 43 405 -279v-389q0 -81 16.5 -102.5t81.5 -41.5q10 -3 15 -5v-168q-71 -27 -88 -42q-33 -27 -33 -100v-505q0 -322 -405 -279v154z" />
<glyph unicode="~" horiz-adv-x="1062" d="M141 453q-19 139 29 210t133 68q69 -3 222.5 -53.5t197.5 -54.5q49 -7 64.5 14.5t15.5 83.5h121q20 -136 -26.5 -208t-135.5 -67q-60 2 -143 26.5t-161 51t-118 31.5q-49 6 -63.5 -16t-14.5 -86h-121z" />
<glyph unicode="&#xa1;" horiz-adv-x="555" d="M154 186l26 398h195l26 -398v-575h-247v575zM160 831v107q0 50 19.5 69t70.5 19h59q49 0 68.5 -19t19.5 -69v-107q0 -49 -19 -67.5t-69 -18.5h-59q-51 0 -70.5 18.5t-19.5 67.5z" />
<glyph unicode="&#xa2;" horiz-adv-x="1050" d="M92 715q0 289 112 408.5t382 119.5h26l19 170h110l-16 -178q122 -14 211 -49l-29 -160q-120 10 -205 10l-61 -647q151 0 287 19l24 -160q-136 -55 -334 -62l-18 -186h-111l19 188q-227 13 -321.5 134t-94.5 393zM338 715q0 -161 42.5 -232t149.5 -88l60 643 q-142 -6 -197 -76t-55 -247z" />
<glyph unicode="&#xa3;" horiz-adv-x="1181" d="M104 817h150l-14 244q-5 94 10 161t46 109t84.5 66t115 32.5t149.5 8.5q160 0 397 -21l-14 -200q-144 6 -362 6q-104 0 -142.5 -35t-31.5 -135l16 -236h397l-6 -147h-381l6 -107q8 -135 -26 -211.5t-119 -148.5q49 12 145 12h563v-215h-974v215q100 44 132.5 131 t24.5 217l-6 107h-158z" />
<glyph unicode="&#xa4;" horiz-adv-x="1206" d="M115 350l145 146q-67 98 -67 223q0 130 73 233l-145 144l106 106l142 -145q107 71 233 71q131 0 234 -73l147 147l104 -106l-147 -146q70 -107 70 -231q0 -126 -72 -232l149 -145l-106 -106l-147 147q-106 -72 -232 -72q-125 0 -231 72l-144 -145zM338 721 q0 -110 77.5 -187.5t186.5 -76.5q106 -2 183 76t77 188t-77 187t-183 77q-109 0 -186.5 -77t-77.5 -187z" />
<glyph unicode="&#xa5;" horiz-adv-x="1300" d="M57 1413h267l260 -530q11 -23 21 -50t22 -67.5t16 -52.5h19q32 109 59 172l258 528h264l-375 -731h256v-139h-327l-17 -33v-66h344v-137h-344v-307h-256v307h-336l-2 137h338v66l-16 33h-320l-4 139h250z" />
<glyph unicode="&#xa6;" horiz-adv-x="524" d="M174 -346v819h176v-819h-176zM174 780v819h176v-819h-176z" />
<glyph unicode="&#xa7;" horiz-adv-x="1122" d="M113 1155q0 87 27 144t85 87.5t132.5 42t187.5 11.5q247 -4 450 -25l-16 -188q-144 10 -365 10q-37 1 -68.5 0t-57 -3t-45.5 -8t-34.5 -16t-22.5 -25.5t-9 -37.5q-3 -56 27 -90t94 -68l299 -164q104 -54 154 -126t51.5 -162.5t-27.5 -206.5h-176q8 127 -22.5 192.5 t-127.5 120.5l-332 191q-49 28 -80 51.5t-62.5 61t-46.5 89t-15 119.5zM123 554q-2 91 27 208h176q-9 -130 20 -194t127 -119l332 -189q49 -28 80.5 -52t63.5 -62t47.5 -91t15.5 -121q0 -72 -20 -124t-54 -83t-90.5 -49t-117.5 -24t-148 -6q-275 5 -455 24l18 189 q161 -10 367 -13q64 0 100 2.5t69.5 12t48 29.5t15.5 53q4 56 -26 90t-90 65l-299 166q-104 53 -154.5 125t-52.5 163z" />
<glyph unicode="&#xa8;" horiz-adv-x="856" d="M145 1264v112q0 64 60 64h84q59 0 59 -64v-112q0 -62 -59 -62h-84q-60 0 -60 62zM510 1264v112q0 64 63 64h80q29 0 46.5 -17.5t17.5 -46.5v-112q0 -62 -64 -62h-80q-63 0 -63 62z" />
<glyph unicode="&#xa9;" horiz-adv-x="1683" d="M102 707q0 157 58 294t157 233t235.5 151t289.5 55q204 0 372.5 -93.5t266.5 -262t98 -377.5q0 -157 -57.5 -294t-156 -233t-234.5 -151.5t-289 -55.5t-289.5 55.5t-235.5 151.5t-157 233t-58 294zM231 707q0 -172 83 -313t222.5 -219.5t305.5 -78.5t305.5 78.5 t221 219.5t81.5 313t-81.5 312.5t-220.5 219t-306 78.5q-166 0 -305.5 -78t-222.5 -219t-83 -313zM453 711q0 239 89.5 337.5t309.5 98.5q157 0 276 -29l-16 -139q-132 6 -262 6q-120 0 -163.5 -58t-43.5 -216q0 -160 43.5 -217.5t163.5 -57.5q173 0 285 8l14 -137 q-121 -33 -297 -33q-220 0 -309.5 98t-89.5 339z" />
<glyph unicode="&#xaa;" horiz-adv-x="899" d="M111 729v76q0 78 53.5 123t148.5 45h273v41q0 45 -25.5 67.5t-87.5 22.5q-89 0 -311 -12l-17 129q196 32 369 32q128 0 192 -55t64 -186v-451h-147l-21 119q-117 -135 -278 -135q-95 0 -154 48t-59 136zM289 768q0 -41 23.5 -57.5t72.5 -16.5q46 0 100.5 22.5t100.5 57.5 v103l-209 -19q-49 -3 -68.5 -20t-19.5 -50v-20z" />
<glyph unicode="&#xab;" horiz-adv-x="1032" d="M80 487v54l326 405l131 -84l-234 -348l236 -356l-131 -84zM481 487v54l326 405l131 -84l-233 -348l235 -356l-131 -84z" />
<glyph unicode="&#xac;" horiz-adv-x="1202" d="M133 522v183h924v-431h-187v248h-737z" />
<glyph unicode="&#xad;" horiz-adv-x="876" d="M131 432v176h614v-176h-614z" />
<glyph unicode="&#xae;" horiz-adv-x="1097" d="M94 983q0 189 133.5 322t323.5 133q189 0 322 -133t133 -322q0 -190 -133 -323.5t-322 -133.5q-125 0 -230 61t-166 166t-61 230zM174 983q0 -157 110 -268t267 -111q154 0 264.5 111.5t110.5 267.5q0 158 -110.5 268.5t-264.5 110.5q-157 0 -267 -110.5t-110 -268.5z M346 737v500q70 6 219 6q115 0 163 -31t48 -114q0 -55 -26 -85.5t-88 -37.5v-4q63 -8 81 -78l54 -156h-115l-47 152q-10 26 -27 36.5t-45 10.5h-108v-199h-109zM455 1012h108q61 2 82.5 17.5t20.5 57.5q1 45 -20.5 59.5t-82.5 14.5h-108v-149z" />
<glyph unicode="&#xaf;" horiz-adv-x="819" d="M113 1231v172h594v-172h-594z" />
<glyph unicode="&#xb0;" horiz-adv-x="720" d="M88 1176q0 109 79 186.5t193 77.5q111 0 192 -77.5t81 -186.5q0 -111 -80.5 -191t-192.5 -80t-192 80t-80 191zM231 1176q0 -58 37 -95t92 -37q53 0 90 37t37 95q0 56 -36 91.5t-91 35.5t-92 -35.5t-37 -91.5z" />
<glyph unicode="&#xb1;" horiz-adv-x="1189" d="M135 113v184h920v-184h-920zM135 657v185h367v258h186v-258h367v-185h-369v-256h-184v256h-367z" />
<glyph unicode="&#xb2;" horiz-adv-x="886" d="M111 737v105q0 52 30 80l230 217q159 149 164 231q4 41 -28.5 54.5t-105.5 13.5q-108 0 -274 -11l-8 144q149 28 299 28q175 0 250 -42t75 -166q0 -122 -155 -271l-234 -221q47 8 131 8l291 -2l-2 -168h-663z" />
<glyph unicode="&#xb3;" horiz-adv-x="847" d="M106 743l9 142q141 -8 260 -8q101 0 138.5 26t37.5 96q0 52 -32 80.5t-120 28.5h-174v137h174q84 0 111 29.5t27 81.5q0 54 -31.5 72t-122.5 18q-116 0 -252 -4l-8 137q161 23 291 23q174 0 241.5 -42.5t67.5 -154.5q0 -96 -34 -149t-124 -66v-4q99 -13 138.5 -64 t41.5 -149q3 -135 -70 -193.5t-251 -58.5q-135 0 -318 22z" />
<glyph unicode="&#xb4;" horiz-adv-x="690" d="M90 1214l385 302l129 -185l-436 -227z" />
<glyph unicode="&#xb5;" horiz-adv-x="1202" d="M139 -399v1403h248v-652q0 -93 30 -124t101 -31q116 0 195.5 114t81.5 279v414h249v-756q0 -52 10.5 -72t41.5 -20h61l14 -144q-115 -35 -194 -35q-81 0 -128.5 43t-47.5 136v22q-48 -85 -132.5 -144t-201.5 -59q-43 0 -84 9v-117l-29 -266h-215z" />
<glyph unicode="&#xb6;" horiz-adv-x="1220" d="M68 922q0 283 146.5 399.5t492.5 116.5q199 0 331 -35v-1403h-178v1278q-79 6 -149 6v-1714h-174v842q-252 23 -360.5 141t-108.5 369z" />
<glyph unicode="&#xb7;" horiz-adv-x="509" d="M129 475v105q0 50 19.5 69t70.5 19h74q51 0 70.5 -19t19.5 -69v-105q0 -50 -19.5 -69t-70.5 -19h-74q-51 0 -70.5 19t-19.5 69z" />
<glyph unicode="&#xb8;" horiz-adv-x="495" d="M59 -481l35 121q75 -2 123.5 31.5t52.5 92.5q2 28 -22.5 37t-102.5 9l25 108q150 16 210.5 -9.5t57.5 -123.5q-4 -142 -111.5 -214.5t-267.5 -51.5z" />
<glyph unicode="&#xb9;" horiz-adv-x="614" d="M53 1499l232 86h192v-848h-192v590q0 61 8 92l-217 -49z" />
<glyph unicode="&#xba;" horiz-adv-x="903" d="M102 897q0 196 78.5 276t272.5 80q193 0 271.5 -80.5t78.5 -275.5q0 -194 -78.5 -273t-271.5 -79q-194 0 -272.5 79t-78.5 273zM293 897q0 -122 33.5 -165.5t126.5 -43.5q91 0 124 43.5t33 165.5q0 125 -32.5 168t-124.5 43q-93 0 -126.5 -43t-33.5 -168z" />
<glyph unicode="&#xbb;" horiz-adv-x="1032" d="M92 158l236 356l-234 348l131 84l326 -405v-54l-328 -413zM494 158l235 356l-233 348l131 84l325 -405v-54l-327 -413z" />
<glyph unicode="&#xbc;" horiz-adv-x="1804" d="M61 1327l232 86h190v-848h-190v590q0 51 8 92l-217 -49zM297 0l877 1413h167l-876 -1413h-168zM991 326l240 522h180l-221 -486q-6 -15 3 -25.5t30 -10.5h229v223l31 135h147v-358h101v-127l-101 -15v-184h-178v182h-373q-58 0 -87.5 40t-0.5 104z" />
<glyph unicode="&#xbd;" horiz-adv-x="1843" d="M61 1327l232 86h190v-848h-190v590q0 51 8 92l-217 -49zM281 0l878 1413h166l-876 -1413h-168zM1090 0v104q0 52 28 80l230 217q157 147 165 232q3 41 -29 54t-104 13q-123 0 -274 -10l-8 144q147 28 297 28q175 0 251 -42.5t76 -166.5q0 -118 -155 -270l-234 -221 q47 8 131 8l289 -2l-2 -168h-661z" />
<glyph unicode="&#xbe;" horiz-adv-x="1986" d="M100 567l9 142q159 -9 258 -9q101 0 138.5 26t37.5 95q0 54 -31 82.5t-119 28.5l-174 4v127l174 6q45 0 73.5 8.5t41 26t16.5 33.5t4 41q0 55 -31 73.5t-122 18.5q-148 0 -250 -6l-8 139q143 20 291 20q174 0 240.5 -42t66.5 -152q0 -97 -33 -149.5t-123 -65.5v-4 q99 -13 138.5 -64t41.5 -149q2 -135 -71 -193.5t-250 -58.5q-135 0 -318 22zM496 0l876 1413h168l-878 -1413h-166zM1175.5 222q-29.5 40 0.5 104l239 522h180l-221 -486q-7 -15 2 -25.5t29 -10.5h231v223l31 135h148v-358h98v-127l-98 -15v-184h-179v182h-372 q-59 0 -88.5 40z" />
<glyph unicode="&#xbf;" horiz-adv-x="1030" d="M68 -106q0 61 19 115t50.5 95.5t69 81t76.5 81.5t71.5 87t55 106.5t26.5 131.5h205q3 -87 -18 -163.5t-55 -128t-74.5 -102t-76 -88t-60.5 -82.5t-27 -89q-5 -80 48 -118t173 -38q162 0 405 14l11 -174q-8 -1 -46.5 -9t-45.5 -9t-39.5 -7t-45 -7t-43 -5t-52 -4.5 t-55.5 -2.5t-69 -2.5t-77 -0.5q-215 0 -320.5 78t-105.5 240zM422 840v106q0 50 19.5 69t70.5 19h57q51 0 70.5 -19t19.5 -69v-106q0 -50 -19.5 -69t-70.5 -19h-57q-51 0 -70.5 19t-19.5 69z" />
<glyph unicode="&#xc0;" horiz-adv-x="1302" d="M10 0l424 1346q9 32 34 49.5t58 17.5h250q33 0 58 -17.5t34 -49.5l424 -1346h-262l-117 399h-524l-117 -399h-262zM281 1700l129 184l385 -301l-78 -110zM451 610h401l-141 488q-3 13 -10.5 38t-12.5 45.5t-8 37.5h-55l-33 -121z" />
<glyph unicode="&#xc1;" horiz-adv-x="1302" d="M10 0l424 1346q9 32 34 49.5t58 17.5h250q33 0 58 -17.5t34 -49.5l424 -1346h-262l-117 399h-524l-117 -399h-262zM451 610h401l-141 488q-3 13 -10.5 38t-12.5 45.5t-8 37.5h-55l-33 -121zM483 1595l385 301l129 -184l-436 -227z" />
<glyph unicode="&#xc2;" horiz-adv-x="1302" d="M10 0l424 1346q9 32 34 49.5t58 17.5h250q33 0 58 -17.5t34 -49.5l424 -1346h-262l-117 399h-524l-117 -399h-262zM295 1571l268 268h180l271 -270l-80 -103l-272 197h-17l-274 -197zM451 610h401l-141 488q-3 13 -10.5 38t-12.5 45.5t-8 37.5h-55l-33 -121z" />
<glyph unicode="&#xc3;" horiz-adv-x="1302" d="M10 0l424 1346q9 32 34 49.5t58 17.5h250q33 0 58 -17.5t34 -49.5l424 -1346h-262l-117 399h-524l-117 -399h-262zM311 1540q-18 132 32 202t132 64q70 -5 168.5 -50t149.5 -52q52 -7 70 14t18 78h108q20 -128 -28 -199t-136 -65q-59 4 -118 28.5t-110.5 49t-90.5 28.5 q-52 6 -69 -16.5t-17 -81.5h-109zM451 610h401l-141 488q-3 13 -10.5 38t-12.5 45.5t-8 37.5h-55l-33 -121z" />
<glyph unicode="&#xc4;" horiz-adv-x="1302" d="M10 0l424 1346q9 32 34 49.5t58 17.5h250q33 0 58 -17.5t34 -49.5l424 -1346h-262l-117 399h-524l-117 -399h-262zM369 1608v112q0 64 59 64h84q59 0 59 -64v-112q0 -62 -59 -62h-84q-59 0 -59 62zM451 610h401l-141 488q-3 13 -10.5 38t-12.5 45.5t-8 37.5h-55l-33 -121 zM733 1608v112q0 64 64 64h80q29 0 46 -17.5t17 -46.5v-112q0 -62 -63 -62h-80q-64 0 -64 62z" />
<glyph unicode="&#xc5;" horiz-adv-x="1302" d="M10 0l424 1346q9 32 34 49.5t58 17.5h250q33 0 58 -17.5t34 -49.5l424 -1346h-262l-117 399h-524l-117 -399h-262zM422 1686q0 96 67.5 161.5t163.5 65.5q95 0 163.5 -65.5t68.5 -161.5t-68 -161t-164 -65q-97 0 -164 65t-67 161zM451 610h401l-141 488q-3 13 -10.5 38 t-12.5 45.5t-8 37.5h-55l-33 -121zM545 1686q0 -50 31 -79.5t77 -29.5t77.5 30t31.5 79q0 51 -31.5 81.5t-77.5 30.5q-47 0 -77.5 -30.5t-30.5 -81.5z" />
<glyph unicode="&#xc6;" horiz-adv-x="1886" d="M-16 0l639 1163q75 146 187.5 199t348.5 53q401 0 635 -14l-12 -199h-508q-55 0 -88 -33.5t-33 -91.5v-237h553v-199h-553v-313q0 -65 27.5 -92t93.5 -27h508l12 -197q-199 -16 -629 -16q-113 0 -182.5 74.5t-69.5 193.5v150h-444l-219 -414h-266zM578 616h335v490 q0 40 16 80t38 61h-19q-43 -26 -98 -117z" />
<glyph unicode="&#xc7;" horiz-adv-x="1183" d="M109 707q0 205 30 342t99 225t177 126t269 38q138 0 225 -10t181 -35l-25 -195q-178 14 -381 14q-119 0 -183.5 -46.5t-93 -154t-28.5 -304.5q0 -148 14.5 -242.5t51 -155t93.5 -84.5t146 -24q261 0 412 20l22 -192q-95 -30 -192 -42t-242 -12q-215 0 -339 71.5 t-180 229.5t-56 431zM444 -512l35 121q75 -2 123.5 32t52.5 93q1 28 -23 36.5t-102 8.5l25 108q150 16 210.5 -9.5t57.5 -123.5q-4 -142 -111.5 -214.5t-267.5 -51.5z" />
<glyph unicode="&#xc8;" horiz-adv-x="1163" d="M145 264v885q1 124 83.5 196t220.5 72q436 0 622 -16l-12 -197h-553q-56 0 -79.5 -26.5t-23.5 -92.5v-247h580v-197h-580v-315q0 -66 23.5 -92.5t79.5 -26.5h553l12 -195q-186 -16 -622 -16q-140 0 -221.5 72t-82.5 196zM266 1733l129 184l385 -301l-78 -111z" />
<glyph unicode="&#xc9;" horiz-adv-x="1163" d="M145 264v885q1 124 83.5 196t220.5 72q436 0 622 -16l-12 -197h-553q-56 0 -79.5 -26.5t-23.5 -92.5v-247h580v-197h-580v-315q0 -66 23.5 -92.5t79.5 -26.5h553l12 -195q-186 -16 -622 -16q-140 0 -221.5 72t-82.5 196zM469 1628l385 301l129 -184l-436 -227z" />
<glyph unicode="&#xca;" horiz-adv-x="1163" d="M145 264v885q1 124 83.5 196t220.5 72q436 0 622 -16l-12 -197h-553q-56 0 -79.5 -26.5t-23.5 -92.5v-247h580v-197h-580v-315q0 -66 23.5 -92.5t79.5 -26.5h553l12 -195q-186 -16 -622 -16q-140 0 -221.5 72t-82.5 196zM281 1604l268 268h180l270 -270l-79 -103 l-273 197h-16l-275 -197z" />
<glyph unicode="&#xcb;" horiz-adv-x="1163" d="M145 264v885q1 124 83.5 196t220.5 72q436 0 622 -16l-12 -197h-553q-56 0 -79.5 -26.5t-23.5 -92.5v-247h580v-197h-580v-315q0 -66 23.5 -92.5t79.5 -26.5h553l12 -195q-186 -16 -622 -16q-140 0 -221.5 72t-82.5 196zM354 1640v113q0 64 60 64h84q59 0 59 -64v-113 q0 -32 -14 -46.5t-45 -14.5h-84q-60 0 -60 61zM719 1640v113q0 64 63 64h80q29 0 46.5 -17.5t17.5 -46.5v-113q0 -61 -64 -61h-80q-63 0 -63 61z" />
<glyph unicode="&#xcc;" horiz-adv-x="571" d="M-86 1716l129 185l385 -302l-78 -110zM158 0v1413h256v-1413h-256z" />
<glyph unicode="&#xcd;" horiz-adv-x="571" d="M117 1612l385 301l129 -184l-436 -228zM158 0v1413h256v-1413h-256z" />
<glyph unicode="&#xce;" horiz-adv-x="571" d="M-72 1587l269 268h180l270 -270l-80 -102l-272 196h-16l-275 -196zM158 0v1413h256v-1413h-256z" />
<glyph unicode="&#xcf;" horiz-adv-x="571" d="M2 1624v113q0 63 59 63h84q60 0 60 -63v-113q0 -61 -60 -61h-84q-31 0 -45 14.5t-14 46.5zM158 0v1413h256v-1413h-256zM367 1624v113q0 63 63 63h80q29 0 46 -17t17 -46v-113q0 -61 -63 -61h-80q-63 0 -63 61z" />
<glyph unicode="&#xd0;" d="M39 678v135h127v600q296 19 528 19q163 0 270 -35t177.5 -120.5t100.5 -222.5t30 -347t-30 -347t-100.5 -222.5t-177.5 -120.5t-270 -35q-247 0 -528 18v678h-127zM422 201q160 -4 272 -4q89 0 146.5 24.5t94 85t51.5 156t15 244.5q0 198 -28.5 307t-94 157t-184.5 48 q-55 0 -144.5 -1t-127.5 -1v-404h276v-135h-276v-477z" />
<glyph unicode="&#xd1;" horiz-adv-x="1464" d="M158 0v1319q0 46 25 70t71 24h199q40 0 63 -18t43 -60l385 -841q85 -191 98 -224h25q-10 130 -10 230v913h250v-1319q0 -46 -24.5 -70t-70.5 -24h-202q-40 0 -64.5 18.5t-42.5 59.5l-397 866q-71 150 -84 211h-25q13 -94 13 -213v-942h-252zM412 1556q-18 132 31.5 202.5 t131.5 64.5q70 -5 168.5 -50.5t149.5 -52.5q52 -7 70 14t18 78h109q20 -128 -28 -199t-136 -65q-59 4 -118 28.5t-111 49.5t-91 29q-51 6 -68.5 -17t-17.5 -82h-108z" />
<glyph unicode="&#xd2;" d="M109 707q0 213 29.5 351.5t100.5 225t178.5 121.5t272.5 35q133 0 227 -23t164.5 -73.5t112 -137t61 -207.5t19.5 -292t-19.5 -292.5t-61 -208t-112 -137t-164.5 -73.5t-227 -23q-110 0 -192.5 15t-149 50.5t-110.5 91t-73.5 138t-42.5 190t-13 249.5zM322 1716l129 185 l385 -302l-78 -110zM379 707q0 -200 28.5 -309.5t95 -157t187.5 -47.5q122 0 189 47.5t96 157t29 309.5t-29 309.5t-96 157t-189 47.5q-121 0 -187.5 -47.5t-95 -157t-28.5 -309.5z" />
<glyph unicode="&#xd3;" d="M109 707q0 213 29.5 351.5t100.5 225t178.5 121.5t272.5 35q133 0 227 -23t164.5 -73.5t112 -137t61 -207.5t19.5 -292t-19.5 -292.5t-61 -208t-112 -137t-164.5 -73.5t-227 -23q-110 0 -192.5 15t-149 50.5t-110.5 91t-73.5 138t-42.5 190t-13 249.5zM379 707 q0 -200 28.5 -309.5t95 -157t187.5 -47.5q122 0 189 47.5t96 157t29 309.5t-29 309.5t-96 157t-189 47.5q-121 0 -187.5 -47.5t-95 -157t-28.5 -309.5zM524 1612l385 301l129 -184l-436 -228z" />
<glyph unicode="&#xd4;" d="M109 707q0 213 29.5 351.5t100.5 225t178.5 121.5t272.5 35q133 0 227 -23t164.5 -73.5t112 -137t61 -207.5t19.5 -292t-19.5 -292.5t-61 -208t-112 -137t-164.5 -73.5t-227 -23q-110 0 -192.5 15t-149 50.5t-110.5 91t-73.5 138t-42.5 190t-13 249.5zM336 1587l268 268 h180l271 -270l-80 -102l-273 196h-16l-274 -196zM379 707q0 -200 28.5 -309.5t95 -157t187.5 -47.5q122 0 189 47.5t96 157t29 309.5t-29 309.5t-96 157t-189 47.5q-121 0 -187.5 -47.5t-95 -157t-28.5 -309.5z" />
<glyph unicode="&#xd5;" d="M109 707q0 213 29.5 351.5t100.5 225t178.5 121.5t272.5 35q133 0 227 -23t164.5 -73.5t112 -137t61 -207.5t19.5 -292t-19.5 -292.5t-61 -208t-112 -137t-164.5 -73.5t-227 -23q-110 0 -192.5 15t-149 50.5t-110.5 91t-73.5 138t-42.5 190t-13 249.5zM352 1556 q-18 132 32 202.5t132 64.5q70 -5 168.5 -50.5t149.5 -52.5q52 -7 70 14t18 78h108q20 -128 -28 -199t-136 -65q-76 5 -176 54t-143 53q-51 6 -68.5 -17t-17.5 -82h-109zM379 707q0 -200 28.5 -309.5t95 -157t187.5 -47.5q122 0 189 47.5t96 157t29 309.5t-29 309.5t-96 157 t-189 47.5q-121 0 -187.5 -47.5t-95 -157t-28.5 -309.5z" />
<glyph unicode="&#xd6;" d="M109 707q0 213 29.5 351.5t100.5 225t178.5 121.5t272.5 35q133 0 227 -23t164.5 -73.5t112 -137t61 -207.5t19.5 -292t-19.5 -292.5t-61 -208t-112 -137t-164.5 -73.5t-227 -23q-110 0 -192.5 15t-149 50.5t-110.5 91t-73.5 138t-42.5 190t-13 249.5zM379 707 q0 -200 28.5 -309.5t95 -157t187.5 -47.5q122 0 189 47.5t96 157t29 309.5t-29 309.5t-96 157t-189 47.5q-121 0 -187.5 -47.5t-95 -157t-28.5 -309.5zM410 1624v113q0 63 59 63h84q59 0 59 -63v-113q0 -32 -14 -46.5t-45 -14.5h-84q-31 0 -45 14.5t-14 46.5zM774 1624v113 q0 63 64 63h80q29 0 46 -17t17 -46v-113q0 -61 -63 -61h-80q-64 0 -64 61z" />
<glyph unicode="&#xd7;" horiz-adv-x="995" d="M74 336l288 260l-288 258l121 143l307 -276l309 276l119 -143l-289 -258l289 -260l-119 -143l-309 276l-307 -276z" />
<glyph unicode="&#xd8;" d="M109 707q0 213 29.5 351.5t100.5 225t178.5 121.5t272.5 35q146 0 258 -31l64 135l112 -47l-65 -137q114 -74 164.5 -229.5t50.5 -423.5q0 -171 -19.5 -292.5t-61 -208t-112 -137t-164.5 -73.5t-227 -23q-159 0 -262 33l-61 -131l-115 47l63 137q-109 73 -157.5 228 t-48.5 420zM379 707q0 -279 57 -390l412 875q-62 29 -158 29q-121 0 -187.5 -47.5t-95 -157t-28.5 -309.5zM528 223q56 -30 162 -30q122 0 189 47.5t96 157t29 309.5q0 288 -64 397z" />
<glyph unicode="&#xd9;" horiz-adv-x="1374" d="M147 553v860h256v-860q0 -203 62.5 -281.5t222.5 -78.5q157 0 219 78.5t62 281.5v860h258v-860q0 -317 -119.5 -448.5t-409.5 -131.5q-302 0 -426.5 131.5t-124.5 448.5zM317 1716l129 185l385 -302l-77 -110z" />
<glyph unicode="&#xda;" horiz-adv-x="1374" d="M147 553v860h256v-860q0 -203 62.5 -281.5t222.5 -78.5q157 0 219 78.5t62 281.5v860h258v-860q0 -317 -119.5 -448.5t-409.5 -131.5q-302 0 -426.5 131.5t-124.5 448.5zM520 1612l385 301l129 -184l-436 -228z" />
<glyph unicode="&#xdb;" horiz-adv-x="1374" d="M147 553v860h256v-860q0 -203 62.5 -281.5t222.5 -78.5q157 0 219 78.5t62 281.5v860h258v-860q0 -317 -119.5 -448.5t-409.5 -131.5q-302 0 -426.5 131.5t-124.5 448.5zM332 1587l268 268h180l271 -270l-80 -102l-273 196h-16l-274 -196z" />
<glyph unicode="&#xdc;" horiz-adv-x="1374" d="M147 553v860h256v-860q0 -203 62.5 -281.5t222.5 -78.5q157 0 219 78.5t62 281.5v860h258v-860q0 -317 -119.5 -448.5t-409.5 -131.5q-302 0 -426.5 131.5t-124.5 448.5zM406 1624v113q0 63 59 63h84q59 0 59 -63v-113q0 -32 -14 -46.5t-45 -14.5h-84q-31 0 -45 14.5 t-14 46.5zM770 1624v113q0 63 64 63h79q29 0 46.5 -17t17.5 -46v-113q0 -61 -64 -61h-79q-64 0 -64 61z" />
<glyph unicode="&#xdd;" horiz-adv-x="1206" d="M10 1413h271l258 -549q16 -33 57 -170h16q39 131 58 170l258 549h266l-463 -936v-477h-256v481zM436 1587l385 301l129 -184l-436 -227z" />
<glyph unicode="&#xde;" horiz-adv-x="1230" d="M158 0v1413h258v-242q105 3 254 3q140 0 228.5 -21t147 -75t82 -141.5t23.5 -225.5q0 -137 -23 -224.5t-78.5 -140.5t-138 -73.5t-211.5 -20.5q-146 0 -284 16v-268h-258zM416 463h246q92 1 139.5 21.5t69.5 73t22 153.5q0 150 -48.5 201t-182.5 51q-174 0 -246 -2v-498z " />
<glyph unicode="&#xdf;" horiz-adv-x="1415" d="M47 821v183h178v122q0 90 20.5 154t58 104.5t100 64t135.5 32t176 8.5q185 0 288.5 -28t149 -91t45.5 -176q0 -75 -31.5 -135t-126.5 -129q-23 -17 -55 -39t-47.5 -33.5t-33 -28t-24 -33.5t-6.5 -38q0 -19 7.5 -34.5t23.5 -29t35.5 -25t48.5 -27.5q11 -6 17 -9l180 -96 q97 -54 134.5 -110.5t37.5 -160.5q0 -164 -88 -226.5t-293 -62.5q-144 0 -332 23l14 178q141 -6 263 -6q114 0 152 18t38 86q0 46 -24.5 70.5t-96.5 64.5q-4 2 -6.5 3.5t-5.5 3.5l-180 94q-160 87 -160 238q0 34 9.5 63.5t20.5 49t37 44.5t41.5 36.5t53 38t53.5 38.5 q65 50 89 83t24 81q0 37 -15 58.5t-70 36.5t-157 15q-150 0 -200 -38.5t-50 -157.5v-1098h-250v821h-178z" />
<glyph unicode="&#xe0;" horiz-adv-x="1142" d="M88 268v103q0 120 78 186t219 66h377v61q-1 86 -38.5 114.5t-145.5 28.5q-157 0 -420 -20l-25 176q107 20 254.5 34.5t247.5 14.5q194 0 285.5 -78t91.5 -272v-682h-197l-27 152q-67 -72 -163.5 -123.5t-218.5 -51.5q-142 0 -230 76.5t-88 214.5zM201 1352l129 184 l385 -301l-78 -111zM336 301q0 -64 31.5 -93.5t99.5 -29.5q65 0 143.5 29.5t151.5 89.5v156h-320q-59 -3 -82.5 -31t-23.5 -82v-39z" />
<glyph unicode="&#xe1;" horiz-adv-x="1142" d="M88 268v103q0 120 78 186t219 66h377v61q-1 86 -38.5 114.5t-145.5 28.5q-157 0 -420 -20l-25 176q107 20 254.5 34.5t247.5 14.5q194 0 285.5 -78t91.5 -272v-682h-197l-27 152q-67 -72 -163.5 -123.5t-218.5 -51.5q-142 0 -230 76.5t-88 214.5zM336 301 q0 -64 31.5 -93.5t99.5 -29.5q65 0 143.5 29.5t151.5 89.5v156h-320q-59 -3 -82.5 -31t-23.5 -82v-39zM403 1247l385 301l130 -184l-437 -227z" />
<glyph unicode="&#xe2;" horiz-adv-x="1142" d="M88 268v103q0 120 78 186t219 66h377v61q-1 86 -38.5 114.5t-145.5 28.5q-157 0 -420 -20l-25 176q107 20 254.5 34.5t247.5 14.5q194 0 285.5 -78t91.5 -272v-682h-197l-27 152q-67 -72 -163.5 -123.5t-218.5 -51.5q-142 0 -230 76.5t-88 214.5zM215 1223l268 268h181 l270 -270l-80 -103l-272 197h-17l-274 -197zM336 301q0 -64 31.5 -93.5t99.5 -29.5q65 0 143.5 29.5t151.5 89.5v156h-320q-59 -3 -82.5 -31t-23.5 -82v-39z" />
<glyph unicode="&#xe3;" horiz-adv-x="1142" d="M88 268v103q0 120 78 186t219 66h377v61q-1 86 -38.5 114.5t-145.5 28.5q-157 0 -420 -20l-25 176q107 20 254.5 34.5t247.5 14.5q194 0 285.5 -78t91.5 -272v-682h-197l-27 152q-67 -72 -163.5 -123.5t-218.5 -51.5q-142 0 -230 76.5t-88 214.5zM231 1192 q-18 132 32 202t132 64q70 -5 168.5 -50t149.5 -52q52 -7 70 14t18 78h108q20 -128 -28 -199t-136 -65q-59 4 -118 28.5t-110.5 49t-90.5 28.5q-52 6 -69 -16.5t-17 -81.5h-109zM336 301q0 -64 31.5 -93.5t99.5 -29.5q65 0 143.5 29.5t151.5 89.5v156h-320q-59 -3 -82.5 -31 t-23.5 -82v-39z" />
<glyph unicode="&#xe4;" horiz-adv-x="1142" d="M88 268v103q0 120 78 186t219 66h377v61q-1 86 -38.5 114.5t-145.5 28.5q-157 0 -420 -20l-25 176q107 20 254.5 34.5t247.5 14.5q194 0 285.5 -78t91.5 -272v-682h-197l-27 152q-67 -72 -163.5 -123.5t-218.5 -51.5q-142 0 -230 76.5t-88 214.5zM289 1260v112 q0 64 59 64h84q60 0 60 -64v-112q0 -62 -60 -62h-84q-59 0 -59 62zM336 301q0 -64 31.5 -93.5t99.5 -29.5q65 0 143.5 29.5t151.5 89.5v156h-320q-59 -3 -82.5 -31t-23.5 -82v-39zM653 1260v112q0 64 64 64h80q29 0 46 -17.5t17 -46.5v-112q0 -62 -63 -62h-80q-64 0 -64 62z " />
<glyph unicode="&#xe5;" horiz-adv-x="1142" d="M88 268v103q0 120 78 186t219 66h377v61q-1 86 -38.5 114.5t-145.5 28.5q-157 0 -420 -20l-25 176q107 20 254.5 34.5t247.5 14.5q194 0 285.5 -78t91.5 -272v-682h-197l-27 152q-67 -72 -163.5 -123.5t-218.5 -51.5q-142 0 -230 76.5t-88 214.5zM336 301 q0 -64 31.5 -93.5t99.5 -29.5q65 0 143.5 29.5t151.5 89.5v156h-320q-59 -3 -82.5 -31t-23.5 -82v-39zM342 1337q0 96 67.5 162t163.5 66q95 0 163.5 -66t68.5 -162t-68 -160.5t-164 -64.5q-97 0 -164 64.5t-67 160.5zM465 1337q0 -49 31 -78.5t77 -29.5t77.5 29.5 t31.5 78.5q0 51 -31.5 82t-77.5 31q-47 0 -77.5 -31t-30.5 -82z" />
<glyph unicode="&#xe6;" horiz-adv-x="1781" d="M88 268v103q0 119 78 185.5t217 66.5h377v61q0 85 -38.5 114t-146.5 29q-156 0 -419 -20l-23 176q107 20 253.5 34.5t246.5 14.5q199 0 285 -78q111 78 325 78q239 0 346 -86.5t109 -261.5q0 -287 -268 -287h-410q14 -131 73.5 -175t196.5 -44q143 0 359 25l22 -160 q-73 -35 -187.5 -51.5t-226.5 -16.5q-176 0 -283 49t-159 156q-28 -35 -64.5 -67t-87.5 -64.5t-118 -52t-139 -19.5q-142 0 -230 76.5t-88 214.5zM336 301q0 -65 31 -94t100 -29q67 0 150 32.5t157 98.5q-13 71 -16 142l-316 2q-60 -3 -83 -30.5t-23 -82.5v-39zM1014 571 h346q90 0 90 117q0 81 -42.5 114.5t-154.5 33.5q-132 0 -182.5 -54.5t-56.5 -210.5z" />
<glyph unicode="&#xe7;" horiz-adv-x="1019" d="M94 504q0 290 111.5 409t380.5 119q212 0 350 -57l-29 -156q-100 4 -278 4q-156 0 -215.5 -67t-59.5 -252q0 -187 59.5 -255.5t215.5 -68.5q155 0 301 21l22 -164q-150 -62 -368 -62q-269 0 -379.5 119t-110.5 410zM348 -508l35 121q75 -2 123.5 32t52.5 93 q1 28 -23 36.5t-102 8.5l25 108q150 16 210.5 -9.5t57.5 -123.5q-4 -142 -111.5 -214.5t-267.5 -51.5z" />
<glyph unicode="&#xe8;" horiz-adv-x="1122" d="M94 504q0 149 27.5 250t88.5 163t150 88.5t220 26.5q239 0 347.5 -87t108.5 -261q0 -287 -268 -287h-410q14 -131 73.5 -175t195.5 -44q144 0 360 25l23 -160q-73 -35 -188 -51.5t-226 -16.5q-273 0 -387.5 121.5t-114.5 407.5zM215 1350l129 184l385 -301l-78 -111z M352 571h346q90 0 90 117q0 81 -42.5 114.5t-155.5 33.5q-132 0 -182 -54.5t-56 -210.5z" />
<glyph unicode="&#xe9;" horiz-adv-x="1122" d="M94 504q0 149 27.5 250t88.5 163t150 88.5t220 26.5q239 0 347.5 -87t108.5 -261q0 -287 -268 -287h-410q14 -131 73.5 -175t195.5 -44q144 0 360 25l23 -160q-73 -35 -188 -51.5t-226 -16.5q-273 0 -387.5 121.5t-114.5 407.5zM352 571h346q90 0 90 117 q0 81 -42.5 114.5t-155.5 33.5q-132 0 -182 -54.5t-56 -210.5zM418 1245l385 301l129 -184l-436 -227z" />
<glyph unicode="&#xea;" horiz-adv-x="1122" d="M94 504q0 149 27.5 250t88.5 163t150 88.5t220 26.5q239 0 347.5 -87t108.5 -261q0 -287 -268 -287h-410q14 -131 73.5 -175t195.5 -44q144 0 360 25l23 -160q-73 -35 -188 -51.5t-226 -16.5q-273 0 -387.5 121.5t-114.5 407.5zM229 1221l269 268h180l270 -270l-80 -103 l-272 197h-16l-275 -197zM352 571h346q90 0 90 117q0 81 -42.5 114.5t-155.5 33.5q-132 0 -182 -54.5t-56 -210.5z" />
<glyph unicode="&#xeb;" horiz-adv-x="1122" d="M94 504q0 149 27.5 250t88.5 163t150 88.5t220 26.5q239 0 347.5 -87t108.5 -261q0 -287 -268 -287h-410q14 -131 73.5 -175t195.5 -44q144 0 360 25l23 -160q-73 -35 -188 -51.5t-226 -16.5q-273 0 -387.5 121.5t-114.5 407.5zM303 1257v113q0 64 59 64h84q60 0 60 -64 v-113q0 -61 -60 -61h-84q-31 0 -45 14.5t-14 46.5zM352 571h346q90 0 90 117q0 81 -42.5 114.5t-155.5 33.5q-132 0 -182 -54.5t-56 -210.5zM668 1257v113q0 64 63 64h80q29 0 46 -17.5t17 -46.5v-113q0 -61 -63 -61h-80q-63 0 -63 61z" />
<glyph unicode="&#xec;" horiz-adv-x="544" d="M-98 1352l129 184l385 -301l-78 -111zM147 0v1004h250v-1004h-250z" />
<glyph unicode="&#xed;" horiz-adv-x="544" d="M104 1247l385 301l129 -184l-436 -227zM147 0v1004h250v-1004h-250z" />
<glyph unicode="&#xee;" horiz-adv-x="544" d="M-84 1223l268 268h181l270 -270l-80 -103l-272 197h-17l-274 -197zM147 0v1004h250v-1004h-250z" />
<glyph unicode="&#xef;" horiz-adv-x="544" d="M-10 1260v112q0 64 59 64h84q60 0 60 -64v-112q0 -62 -60 -62h-84q-59 0 -59 62zM147 0v1004h250v-1004h-250zM354 1260v112q0 64 64 64h80q29 0 46 -17.5t17 -46.5v-112q0 -62 -63 -62h-80q-64 0 -64 62z" />
<glyph unicode="&#xf0;" horiz-adv-x="1163" d="M96 444q0 240 99 359t327 119q145 0 250 -56q-36 180 -131 275l-147 -119l-82 98l118 94q-106 48 -282 41l24 175q249 13 422 -82l156 125l82 -101l-125 -100q248 -217 248 -688q0 -153 -23 -261.5t-77 -189.5t-149 -120.5t-233 -39.5q-246 0 -361.5 113t-115.5 358z M356 449q0 -153 50 -215t169 -62q58 0 98 17t64.5 46.5t37.5 84t17.5 115.5t4.5 155q0 71 -2 106q-105 27 -224 27t-167 -64.5t-48 -209.5z" />
<glyph unicode="&#xf1;" horiz-adv-x="1208" d="M139 0v1004h209l17 -150q229 178 434 178q134 0 205 -71.5t71 -206.5v-754h-250v678q0 84 -22.5 113.5t-83.5 29.5q-69 0 -140.5 -28.5t-191.5 -94.5l2 -698h-250zM289 1190q-18 132 32 202t132 64q70 -5 168 -50t149 -52q52 -7 70 14t18 78h109q20 -128 -28 -199 t-136 -65q-59 4 -118 28.5t-111 49t-91 28.5q-52 6 -69 -16.5t-17 -81.5h-108z" />
<glyph unicode="&#xf2;" horiz-adv-x="1179" d="M94 502q0 289 113.5 409.5t384.5 120.5q270 0 381.5 -120.5t111.5 -409.5t-111.5 -409t-381.5 -120q-272 0 -385 120t-113 409zM221 1337l129 185l385 -301l-78 -111zM354 502q0 -193 50 -261.5t188 -68.5q136 0 185.5 69t49.5 261q0 194 -49.5 263t-185.5 69 q-94 0 -144.5 -29.5t-72 -99.5t-21.5 -203z" />
<glyph unicode="&#xf3;" horiz-adv-x="1179" d="M94 502q0 289 113.5 409.5t384.5 120.5q270 0 381.5 -120.5t111.5 -409.5t-111.5 -409t-381.5 -120q-272 0 -385 120t-113 409zM354 502q0 -193 50 -261.5t188 -68.5q136 0 185.5 69t49.5 261q0 194 -49.5 263t-185.5 69q-94 0 -144.5 -29.5t-72 -99.5t-21.5 -203z M424 1233l385 301l129 -184l-436 -228z" />
<glyph unicode="&#xf4;" horiz-adv-x="1179" d="M94 502q0 289 113.5 409.5t384.5 120.5q270 0 381.5 -120.5t111.5 -409.5t-111.5 -409t-381.5 -120q-272 0 -385 120t-113 409zM236 1208l268 269h180l270 -271l-80 -102l-272 196h-16l-275 -196zM354 502q0 -193 50 -261.5t188 -68.5q136 0 185.5 69t49.5 261 q0 194 -49.5 263t-185.5 69q-94 0 -144.5 -29.5t-72 -99.5t-21.5 -203z" />
<glyph unicode="&#xf5;" horiz-adv-x="1179" d="M94 502q0 289 113.5 409.5t384.5 120.5q270 0 381.5 -120.5t111.5 -409.5t-111.5 -409t-381.5 -120q-272 0 -385 120t-113 409zM252 1178q-18 132 32 202t132 64q70 -5 168 -50.5t149 -52.5q52 -7 70 14.5t18 78.5h109q20 -128 -28 -199.5t-136 -65.5q-59 4 -118 28.5 t-111 49.5t-91 29q-52 6 -69 -16.5t-17 -81.5h-108zM354 502q0 -193 50 -261.5t188 -68.5q136 0 185.5 69t49.5 261q0 194 -49.5 263t-185.5 69q-94 0 -144.5 -29.5t-72 -99.5t-21.5 -203z" />
<glyph unicode="&#xf6;" horiz-adv-x="1179" d="M94 502q0 289 113.5 409.5t384.5 120.5q270 0 381.5 -120.5t111.5 -409.5t-111.5 -409t-381.5 -120q-272 0 -385 120t-113 409zM309 1245v113q0 63 60 63h84q59 0 59 -63v-113q0 -32 -14 -46.5t-45 -14.5h-84q-60 0 -60 61zM354 502q0 -193 50 -261.5t188 -68.5 q136 0 185.5 69t49.5 261q0 194 -49.5 263t-185.5 69q-94 0 -144.5 -29.5t-72 -99.5t-21.5 -203zM674 1245v113q0 63 63 63h80q29 0 46.5 -17t17.5 -46v-113q0 -61 -64 -61h-80q-63 0 -63 61z" />
<glyph unicode="&#xf7;" horiz-adv-x="1146" d="M113 512v180h921v-180h-921zM451 188v82q0 51 19.5 70.5t70.5 19.5h61q51 0 70.5 -19.5t19.5 -70.5v-82q0 -51 -19.5 -70.5t-70.5 -19.5h-61q-51 0 -70.5 19.5t-19.5 70.5zM451 930v84q0 51 19.5 70.5t70.5 19.5h61q51 0 70.5 -19.5t19.5 -70.5v-84q0 -51 -19.5 -69.5 t-70.5 -18.5h-61q-51 0 -70.5 18.5t-19.5 69.5z" />
<glyph unicode="&#xf8;" horiz-adv-x="1179" d="M94 502q0 289 113.5 409.5t384.5 120.5q103 0 174 -14l72 153l96 -47l-66 -139q115 -52 166 -168t51 -315q0 -289 -111.5 -409t-381.5 -120q-94 0 -184 17l-74 -158l-96 45l67 146q-111 53 -161 168t-50 311zM354 502q0 -192 52 -264l272 587q-37 9 -86 9 q-94 0 -144.5 -29.5t-72 -99.5t-21.5 -203zM496 182q34 -10 96 -10q136 0 185.5 69t49.5 261q0 201 -57 272z" />
<glyph unicode="&#xf9;" horiz-adv-x="1185" d="M133 252v752h250v-678q-2 -80 25.5 -111t97.5 -31q61 0 126.5 25.5t166.5 83.5v711h248v-1004h-197l-19 135q-213 -162 -419 -162q-137 0 -208 70.5t-71 208.5zM221 1358l129 184l385 -301l-78 -111z" />
<glyph unicode="&#xfa;" horiz-adv-x="1185" d="M133 252v752h250v-678q-2 -80 25.5 -111t97.5 -31q61 0 126.5 25.5t166.5 83.5v711h248v-1004h-197l-19 135q-213 -162 -419 -162q-137 0 -208 70.5t-71 208.5zM424 1253l385 301l129 -184l-436 -227z" />
<glyph unicode="&#xfb;" horiz-adv-x="1185" d="M133 252v752h250v-678q-2 -80 25.5 -111t97.5 -31q61 0 126.5 25.5t166.5 83.5v711h248v-1004h-197l-19 135q-213 -162 -419 -162q-137 0 -208 70.5t-71 208.5zM236 1229l268 268h180l270 -270l-80 -103l-272 197h-16l-275 -197z" />
<glyph unicode="&#xfc;" horiz-adv-x="1185" d="M133 252v752h250v-678q-2 -80 25.5 -111t97.5 -31q61 0 126.5 25.5t166.5 83.5v711h248v-1004h-197l-19 135q-213 -162 -419 -162q-137 0 -208 70.5t-71 208.5zM309 1266v112q0 64 60 64h84q59 0 59 -64v-112q0 -62 -59 -62h-84q-60 0 -60 62zM674 1266v112q0 64 63 64 h80q29 0 46.5 -17.5t17.5 -46.5v-112q0 -62 -64 -62h-80q-63 0 -63 62z" />
<glyph unicode="&#xfd;" horiz-adv-x="1118" d="M25 1004h264l219 -691q22 -70 33 -133h28l41 133l215 691h267l-373 -1035q-21 -60 -49 -113.5t-72.5 -107t-97.5 -90t-127.5 -58t-159.5 -16.5l-20 158q119 33 187.5 89t106.5 146l11 23h-49q-31 0 -54 16t-30 45zM395 1247l385 301l129 -184l-436 -227z" />
<glyph unicode="&#xfe;" horiz-adv-x="1196" d="M139 -399v1833h250v-306q0 -75 -8 -223q153 123 354 123q194 0 278.5 -128t84.5 -406q0 -197 -41.5 -312t-121 -162t-210.5 -47q-187 0 -342 82q6 -92 6 -190v-264h-250zM389 225q155 -59 248 -59q76 0 119 28t64.5 99.5t21.5 200.5q0 131 -21 203.5t-61.5 100 t-112.5 27.5q-111 0 -258 -108v-492z" />
<glyph unicode="&#xff;" horiz-adv-x="1118" d="M25 1004h264l219 -691q22 -70 33 -133h28l41 133l215 691h267l-373 -1035q-21 -60 -49 -113.5t-72.5 -107t-97.5 -90t-127.5 -58t-159.5 -16.5l-20 158q119 33 187.5 89t106.5 146l11 23h-49q-31 0 -54 16t-30 45zM281 1260v112q0 64 59 64h84q59 0 59 -64v-112 q0 -62 -59 -62h-84q-59 0 -59 62zM645 1260v112q0 64 64 64h79q29 0 46.5 -17.5t17.5 -46.5v-112q0 -62 -64 -62h-79q-64 0 -64 62z" />
<glyph unicode="&#x152;" horiz-adv-x="1904" d="M109 707q0 213 29.5 351.5t100.5 225t178.5 121.5t272.5 35q110 0 187.5 -14t164.5 -48q64 39 150 39q434 0 620 -16l-12 -197h-514q-66 0 -92.5 -26.5t-26.5 -92.5v-245h557v-199h-557v-315q0 -66 26.5 -92.5t92.5 -26.5h514l12 -195q-193 -16 -638 -16q-84 0 -148 45 q-77 -37 -152.5 -52.5t-183.5 -15.5q-110 0 -192.5 15t-149 50.5t-110.5 91t-73.5 138t-42.5 190t-13 249.5zM379 707q0 -200 28.5 -309.5t95 -157t187.5 -47.5q134 0 225 24q-6 35 -6 72v835q0 38 9 72q-112 25 -228 25q-122 0 -187.5 -46.5t-94.5 -156t-29 -311.5z" />
<glyph unicode="&#x153;" horiz-adv-x="1849" d="M94 502q0 289 113 409.5t383 120.5q249 0 360 -100q106 98 344 98q469 0 469 -323q0 -170 -73.5 -234.5t-253.5 -64.5h-353q7 -72 24.5 -117t53 -70t80.5 -34t117 -9q140 0 356 25l23 -160q-75 -35 -189.5 -51.5t-224.5 -16.5q-255 0 -369 103q-111 -105 -364 -105 q-270 0 -383 120t-113 409zM354 502q0 -193 49.5 -261.5t186.5 -68.5q127 0 178 58.5t57 218.5q-2 18 -2 59v53q-6 157 -56 215t-177 58q-137 0 -186.5 -69t-49.5 -263zM1079 573h328q65 0 89.5 30t21.5 108q-6 64 -56.5 93.5t-161.5 29.5q-120 0 -167.5 -54.5t-53.5 -206.5 z" />
<glyph unicode="&#x178;" horiz-adv-x="1206" d="M10 1413h271l258 -549q16 -33 57 -170h16q39 131 58 170l258 549h266l-463 -936v-477h-256v481zM322 1599v113q0 64 59 64h84q59 0 59 -64v-113q0 -32 -14 -46.5t-45 -14.5h-84q-31 0 -45 14.5t-14 46.5zM686 1599v113q0 64 64 64h79q29 0 46.5 -17.5t17.5 -46.5v-113 q0 -61 -64 -61h-79q-64 0 -64 61z" />
<glyph unicode="&#x2c6;" horiz-adv-x="892" d="M90 1206l268 269h181l270 -271l-80 -102l-272 196h-17l-274 -196z" />
<glyph unicode="&#x2dc;" horiz-adv-x="882" d="M102 1182q-18 132 32 202t132 64q70 -5 168.5 -50t149.5 -52q52 -7 70 14t18 78h108q20 -128 -28 -199t-136 -65q-59 4 -118 28.5t-110.5 49t-90.5 28.5q-52 6 -69 -16.5t-17 -81.5h-109z" />
<glyph unicode="&#x2000;" horiz-adv-x="964" />
<glyph unicode="&#x2001;" horiz-adv-x="1929" />
<glyph unicode="&#x2002;" horiz-adv-x="964" />
<glyph unicode="&#x2003;" horiz-adv-x="1929" />
<glyph unicode="&#x2004;" horiz-adv-x="643" />
<glyph unicode="&#x2005;" horiz-adv-x="482" />
<glyph unicode="&#x2006;" horiz-adv-x="321" />
<glyph unicode="&#x2007;" horiz-adv-x="321" />
<glyph unicode="&#x2008;" horiz-adv-x="241" />
<glyph unicode="&#x2009;" horiz-adv-x="385" />
<glyph unicode="&#x200a;" horiz-adv-x="107" />
<glyph unicode="&#x2010;" horiz-adv-x="876" d="M131 432v176h614v-176h-614z" />
<glyph unicode="&#x2011;" horiz-adv-x="876" d="M131 432v176h614v-176h-614z" />
<glyph unicode="&#x2012;" horiz-adv-x="876" d="M131 432v176h614v-176h-614z" />
<glyph unicode="&#x2013;" horiz-adv-x="1175" d="M131 432v176h913v-176h-913z" />
<glyph unicode="&#x2014;" horiz-adv-x="1789" d="M131 432v176h1528v-176h-1528z" />
<glyph unicode="&#x2018;" horiz-adv-x="458" d="M111 1171q3 176 90 316l110 -27q-26 -116 -26 -233q33 0 51 -19t18 -53v-102q-3 -45 -23.5 -63.5t-68.5 -18.5h-65q-49 0 -67.5 18t-16.5 64z" />
<glyph unicode="&#x2019;" horiz-adv-x="452" d="M102 1288v103q3 45 24 63.5t69 18.5h65q49 0 67.5 -18t16.5 -64l2 -119q-3 -176 -90 -316l-111 27q27 120 27 234q-34 0 -52 18.5t-18 52.5z" />
<glyph unicode="&#x201a;" horiz-adv-x="481" d="M119 74v106q3 44 24 62t68 18h65q49 0 67.5 -17.5t16.5 -62.5l2 -121q-3 -178 -90 -321l-110 29q26 116 26 235q-33 0 -51 19t-18 53z" />
<glyph unicode="&#x201c;" horiz-adv-x="808" d="M111 1171q3 176 90 316l110 -27q-26 -116 -26 -233q33 0 51 -19t18 -53v-102q-3 -45 -23.5 -63.5t-68.5 -18.5h-65q-49 0 -67.5 18t-16.5 64zM461 1171q3 176 90 316l111 -27q-27 -120 -27 -233q34 0 52 -19t18 -53v-102q-3 -45 -24 -63.5t-69 -18.5h-65q-49 0 -67.5 18 t-16.5 64z" />
<glyph unicode="&#x201d;" horiz-adv-x="802" d="M102 1288v103q3 45 24 63.5t69 18.5h65q49 0 67.5 -18t16.5 -64l2 -119q-3 -176 -90 -316l-111 27q27 120 27 234q-34 0 -52 18.5t-18 52.5zM453 1288v103q3 45 23.5 63.5t68.5 18.5h65q49 0 67.5 -18t16.5 -64l2 -119q-3 -176 -90 -316l-110 27q26 116 26 234 q-69 0 -69 71z" />
<glyph unicode="&#x201e;" horiz-adv-x="831" d="M119 70v102q3 45 23.5 63.5t68.5 18.5h65q49 0 67.5 -18t16.5 -64l2 -119q-3 -175 -90 -315l-110 26q26 116 26 234q-33 0 -51 19t-18 53zM469 70v102q3 45 23.5 63.5t68.5 18.5h66q49 0 67.5 -18t16.5 -64l2 -119q-3 -175 -90 -315l-111 26q27 120 27 234q-34 0 -52 19 t-18 53z" />
<glyph unicode="&#x2022;" horiz-adv-x="755" d="M166 539v28q0 108 44 150.5t159 42.5h26q109 0 152 -43t43 -150v-28q0 -115 -43 -159t-152 -44h-26q-115 0 -159 44t-44 159z" />
<glyph unicode="&#x2026;" horiz-adv-x="1802" d="M109 88v105q0 50 19.5 69t70.5 19h73q51 0 70.5 -19t19.5 -69v-105q0 -50 -19.5 -69t-70.5 -19h-73q-51 0 -70.5 19t-19.5 69zM764 88v105q0 50 19.5 69t70.5 19h74q51 0 70.5 -19t19.5 -69v-105q0 -50 -19.5 -69t-70.5 -19h-74q-51 0 -70.5 19t-19.5 69zM1419 88v105 q0 50 19.5 69t70.5 19h74q51 0 70.5 -19t19.5 -69v-105q0 -50 -19.5 -69t-70.5 -19h-74q-51 0 -70.5 19t-19.5 69z" />
<glyph unicode="&#x202f;" horiz-adv-x="385" />
<glyph unicode="&#x2039;" horiz-adv-x="630" d="M80 487v54l326 405l131 -84l-234 -348l236 -356l-131 -84z" />
<glyph unicode="&#x203a;" horiz-adv-x="634" d="M92 158l236 356l-234 348l131 84l328 -405v-54l-330 -413z" />
<glyph unicode="&#x205f;" horiz-adv-x="482" />
<glyph unicode="&#x20ac;" horiz-adv-x="1302" d="M90 510v154h154v43v67h-152v154h164q34 262 170.5 386t409.5 124q191 0 348 -45l-23 -195q-180 30 -342 14q-127 -7 -196 -75.5t-95 -208.5h484l-17 -154h-481q-2 -23 -2 -72v-38h432l-14 -154h-406q22 -154 91.5 -228.5t203.5 -80.5q187 -13 371 20l22 -192 q-167 -54 -376 -54q-279 0 -415.5 130.5t-166.5 404.5h-164z" />
<glyph unicode="&#x2122;" horiz-adv-x="1992" d="M123 1284v141h684v-141h-254v-637h-174v637h-256zM893 647l31 713q3 65 63 65h168q54 0 70 -55l116 -393q5 -19 12.5 -57t12.5 -56h18q3 13 11.5 53.5t15.5 61.5l113 391q15 55 69 55h172q63 0 66 -65l29 -713h-160l-31 645h-20l-146 -485q-15 -55 -69 -55h-117 q-54 0 -70 55l-145 485h-21l-28 -645h-160z" />
<glyph unicode="&#x25fc;" horiz-adv-x="1003" d="M0 0v1004h1004v-1004h-1004z" />
<glyph unicode="&#xfb03;" horiz-adv-x="1998" d="M49 823v170l160 8v148q2 144 79.5 223.5t233.5 79.5q171 0 264 -18l-20 -177h-158q-87 0 -119 -28.5t-32 -112.5v-112h461v139q0 161 73 245.5t238 84.5q149 0 252 -19v-176h-164q-86 0 -120 -37t-34 -129v-108h690v-1004h-247v823h-443v-823h-245v823h-461v-823h-248 v823h-160zM1599 1260v110q0 72 72 72h115q35 0 53.5 -19t18.5 -53v-110q0 -72 -72 -72h-115q-72 0 -72 72z" />
<glyph unicode="&#xfb04;" horiz-adv-x="2142" d="M49 823v170l178 11v145q0 143 78.5 223t233.5 80q171 0 266 -18l-23 -177h-155q-87 0 -119.5 -28.5t-32.5 -112.5v-112h459v139q0 162 73.5 246.5t239.5 83.5q469 0 647 -33v-1153q0 -115 119 -115h84l29 -160q-31 -16 -97.5 -25.5t-115.5 -9.5q-125 0 -196.5 66.5 t-71.5 183.5v1053h-312q-83 1 -117 -36.5t-34 -131.5v-108h272v-181h-272v-823h-248v823h-459v-823h-248v823h-178z" />
</font>
</defs>
</svg>
