<svg width="280" height="263" viewBox="0 0 280 263" fill="none" xmlns="http://www.w3.org/2000/svg">
<g filter="url(#filter0_d_1020_4538)">
<path d="M239.382 9.75656C244.126 8.55586 249.072 8.71785 253.282 10.7087C257.789 12.8401 261.012 16.8835 261.978 22.3415L262.046 22.7526C262.717 27.0025 262.171 31.3695 261.502 34.6393C260.796 38.0927 259.86 40.7554 259.609 41.4675H259.608C259.599 41.4951 259.592 41.5156 259.586 41.5319L259.58 41.5505C254.588 56.1361 244.248 73.2064 239.006 81.8835C238.614 82.5323 238.25 83.1333 237.917 83.6872L237.91 83.6989C235.671 87.4199 226.653 102.403 210.119 126.422L206.712 131.345C205.119 133.634 204.158 134.987 203.396 136.06C202.578 137.209 201.999 138.024 201.083 139.375L200.032 140.938C188.356 158.428 174.269 178.212 164.212 191.19C157.991 199.218 149.824 209.519 139.991 220.611L139.978 220.627C139.844 220.776 134.352 226.659 128.746 231.909C121.898 238.322 117.075 241.824 113.174 243.551C111.136 244.453 109.31 244.89 107.565 245C105.882 245.106 104.459 244.884 103.547 244.75C93.1282 243.218 81.5437 236.105 70.9767 227.611C60.9015 219.513 51.1197 209.637 43.2198 200.511L41.6651 198.696C41.6047 198.625 41.4618 198.463 41.1817 198.145C38.4689 195.063 27.3194 182.409 18.9552 167.967C14.7863 160.769 11.1171 152.804 9.66317 145.146C8.20337 137.458 8.87137 129.355 14.4181 122.946C20.1825 116.286 28.3789 115.134 30.1534 114.865C30.2506 114.851 30.3 114.842 30.3341 114.837L30.4435 114.819L30.5528 114.807C35.2681 114.26 39.6787 115.661 44.3429 118.618C48.8836 121.497 54.0296 126.081 60.4044 132.479C62.9366 135.02 65.673 137.869 68.4981 140.81C75.4671 148.064 82.9932 155.891 90.0812 161.949C93.6202 164.974 96.9182 167.442 99.8634 169.147C102.17 170.483 104.001 171.196 105.385 171.476C105.646 171.267 105.942 171.018 106.27 170.726C107.257 169.846 108.374 168.734 109.477 167.576C111.674 165.269 113.608 162.999 114.01 162.527C126.211 148.2 144.11 122.759 162.551 96.5358C175.572 78.0199 188.818 59.1826 200.319 43.9304L201.549 42.279C204.443 38.3713 209.525 31.4984 215.857 25.0729C222.09 18.7486 230.075 12.2855 238.924 9.87667L239.382 9.75656Z" stroke="white" stroke-opacity="0.8" stroke-width="10" shape-rendering="crispEdges"/>
</g>
<path fill-rule="evenodd" clip-rule="evenodd" d="M33.1893 129.375C33.1263 129.386 33.2539 129.365 33.1893 129.375C33.4994 129.391 37.1264 127.531 42.781 132.145C48.0936 136.478 53.5244 144.407 60 151C74.7985 166.067 90.8499 183.391 105.046 185.009C108.54 185.408 110.622 185.002 113.621 182.908C124.614 175.238 147.536 141.931 172.114 106.216C182.103 91.7011 191.653 75.2512 201.5 61.5C214.149 43.8371 221.832 36.3014 230.418 29.2022C241.593 19.9644 248.544 20.6989 249.24 23.2296C249.964 25.8638 248.914 30.5517 248.774 31.1735C247.321 37.6568 245.138 43.1144 243.834 46.261C238.304 59.5977 229.781 74.3741 228.986 75.7345C213.057 103.006 192.674 131.746 192.229 132.337C188.224 137.666 178.628 154.258 163.5 172.5C148.39 190.719 140.906 199.559 133 208C133.686 207.239 132.67 208.353 133 208C128.578 212.907 110.511 229.64 105.046 232C94.7831 231.368 79.502 219.166 65.281 206.145C57.325 198.861 47.8308 187.395 47.5 187C27.6109 163.284 22.6452 147.222 22.5 138.5C22.4051 132.758 26.6169 130.437 33.1893 129.375Z" fill="#4E9934"/>
<path d="M197.399 82.4336C213.587 61.0613 225.391 38.8738 239.554 30.8232" stroke="white" stroke-width="6" stroke-miterlimit="1.5" stroke-linecap="round" stroke-linejoin="round"/>
<path fill-rule="evenodd" clip-rule="evenodd" d="M117.816 165.77C116.989 166.741 109.786 175.195 106.637 176.616H106.422C95.7012 176.343 78.7457 158.693 64.8928 144.274C62.0595 141.325 59.356 138.511 56.8622 136.008C44.1911 123.291 37.5869 119.025 31.1288 119.774C31.0661 119.784 30.9898 119.795 30.9008 119.809C29.1731 120.07 22.6688 121.053 18.199 126.218C1.50739 145.505 39.5339 188.705 44.9348 194.84C45.1954 195.137 45.3801 195.346 45.4789 195.463C61.4731 214.331 86.2321 237.151 104.274 239.803C108.034 240.356 111.832 240.899 125.328 228.26C130.822 223.114 136.214 217.335 136.25 217.295C145.978 206.32 154.069 196.117 160.26 188.128C170.227 175.266 184.244 155.583 195.874 138.162C197.517 135.7 198.213 134.72 199.32 133.163C200.078 132.097 201.029 130.759 202.607 128.49C221.237 101.709 231.277 85.0251 233.626 81.1216L233.633 81.1103C233.969 80.5515 234.335 79.946 234.726 79.2982C240.037 70.5078 250.064 53.913 254.849 39.9316C254.859 39.9034 254.873 39.8622 254.892 39.8087C255.343 38.528 258.285 30.1649 257.054 23.2135C255.682 15.4589 248.274 12.5135 240.237 14.7018C225.151 18.8088 211.363 37.4277 205.567 45.2546C205.094 45.8933 204.674 46.4602 204.311 46.9414C192.871 62.1137 179.676 80.8755 166.641 99.4119C148.268 125.538 130.206 151.221 117.816 165.77ZM31.1288 130.5C37.4856 129.567 48.4923 141.644 61 154.5C76.2309 170.155 94 187 107 186C117.816 186 146 145.5 173.5 104C188.278 82.7609 202.493 61.5601 215 45.2546C237 20 247.848 19.9325 248.5 24.5C250.5 38.5 231 74.5 199.32 122C164.678 172.523 113.5 230.342 106.5 230C72.3811 228.334 0.5 134.995 31.1288 130.5Z" fill="#23272C"/>
<defs>
<filter id="filter0_d_1020_4538" x="3.99976" y="3.99902" width="271.352" height="254.028" filterUnits="userSpaceOnUse" color-interpolation-filters="sRGB">
<feFlood flood-opacity="0" result="BackgroundImageFix"/>
<feColorMatrix in="SourceAlpha" type="matrix" values="0 0 0 0 0 0 0 0 0 0 0 0 0 0 0 0 0 0 127 0" result="hardAlpha"/>
<feOffset dx="4" dy="4"/>
<feGaussianBlur stdDeviation="2"/>
<feComposite in2="hardAlpha" operator="out"/>
<feColorMatrix type="matrix" values="0 0 0 0 0 0 0 0 0 0 0 0 0 0 0 0 0 0 0.25 0"/>
<feBlend mode="normal" in2="BackgroundImageFix" result="effect1_dropShadow_1020_4538"/>
<feBlend mode="normal" in="SourceGraphic" in2="effect1_dropShadow_1020_4538" result="shape"/>
</filter>
</defs>
</svg>
