<svg width="322" height="857" viewBox="0 0 322 857" fill="none" xmlns="http://www.w3.org/2000/svg">
<path d="M2.7666 219.336L2.7666 220.828L5.78956 217.799L5.05029 217.053L2.7666 219.336Z" fill="#FFF1C8"/>
<path d="M2.7666 233.714L2.7666 235.419L13.0944 225.094L12.2381 224.245L2.7666 233.714Z" fill="#FFF1C8"/>
<path d="M2.7666 248.084L2.7666 250.016L20.392 232.397L19.4258 231.431L2.7666 248.084Z" fill="#FFF1C8"/>
<path d="M2.7666 262.462L2.7666 264.614L27.6896 239.692L26.6136 238.616L2.7666 262.462Z" fill="#FFF1C8"/>
<path d="M2.7666 276.833L2.7666 279.204L34.9944 246.987L33.8013 245.801L2.7666 276.833Z" fill="#FFF1C8"/>
<path d="M2.7666 291.204L2.7666 293.801L42.292 254.289L40.9964 252.987L2.7666 291.204Z" fill="#FFF1C8"/>
<path d="M2.7666 305.582L2.7666 308.399L49.5895 261.584L48.1842 260.179L2.7666 305.582Z" fill="#FFF1C8"/>
<path d="M2.7666 319.952L2.7666 321.986L3.76937 321.986L56.8944 268.879L55.3719 267.365L2.7666 319.952Z" fill="#FFF1C8"/>
<path d="M15.1074 321.986L18.3719 321.986L64.1921 276.182L62.5598 274.55L15.1074 321.986Z" fill="#FFF1C8"/>
<path d="M29.4902 321.986L32.967 321.986L71.4896 283.477L69.7549 281.735L29.4902 321.986Z" fill="#FFF1C8"/>
<path d="M43.8652 321.986L47.5689 321.986L78.794 290.772L76.9421 288.928L43.8652 321.986Z" fill="#FFF1C8"/>
<path d="M58.248 321.986L62.1713 321.986L86.0915 298.074L84.1298 296.113L58.248 321.986Z" fill="#FFF1C8"/>
<path d="M72.624 321.986L76.7669 321.986L93.3895 305.369L91.3181 303.299L72.624 321.986Z" fill="#FFF1C8"/>
<path d="M87.0068 321.986L91.3693 321.986L100.694 312.672L98.5058 310.484L87.0068 321.986Z" fill="#FFF1C8"/>
<path d="M101.382 321.986L105.971 321.986L107.991 319.967L105.7 317.669L101.382 321.986Z" fill="#FFF1C8"/>
<path d="M1.77125e-08 326.157L0 327.642L3.03028 324.621L2.28369 323.874L1.77125e-08 326.157Z" fill="#FFF1C8"/>
<path d="M2.04179e-08 340.528L0 342.24L10.3278 331.916L9.47145 331.06L2.04179e-08 340.528Z" fill="#FFF1C8"/>
<path d="M2.30354e-08 354.906L0 356.837L17.6254 339.211L16.6592 338.252L2.30354e-08 354.906Z" fill="#FFF1C8"/>
<path d="M2.5653e-08 369.277L0 371.428L24.9303 346.513L23.8543 345.438L2.5653e-08 369.277Z" fill="#FFF1C8"/>
<path d="M2.8271e-08 383.654L0 386.025L32.2278 353.808L31.0421 352.623L2.8271e-08 383.654Z" fill="#FFF1C8"/>
<path d="M3.09754e-08 398.025L0 400.623L39.5254 361.103L38.2298 359.808L3.09754e-08 398.025Z" fill="#FFF1C8"/>
<path d="M3.35056e-08 412.403L0 415.213L46.8302 368.406L45.4176 366.994L3.35056e-08 412.403Z" fill="#FFF1C8"/>
<path d="M2.42571e-08 426.774L0 428.808L1.00277 428.808L54.1278 375.701L52.6127 374.186L2.42571e-08 426.774Z" fill="#FFF1C8"/>
<path d="M12.3477 428.808L15.6048 428.808L61.425 383.003L59.8001 381.371L12.3477 428.808Z" fill="#FFF1C8"/>
<path d="M26.7236 428.808L30.2077 428.808L68.7303 390.298L66.9883 388.557L26.7236 428.808Z" fill="#FFF1C8"/>
<path d="M41.1064 428.808L44.8028 428.808L76.0278 397.593L74.176 395.742L41.1064 428.808Z" fill="#FFF1C8"/>
<path d="M55.4824 428.808L59.4057 428.808L83.3258 404.896L81.3642 402.935L55.4824 428.808Z" fill="#FFF1C8"/>
<path d="M69.8564 428.808L74.0066 428.808L90.6292 412.191L88.5578 410.12L69.8564 428.808Z" fill="#FFF1C8"/>
<path d="M84.2402 428.808L88.6027 428.808L97.9277 419.486L95.7465 417.305L84.2402 428.808Z" fill="#FFF1C8"/>
<path d="M98.6162 428.808L103.206 428.808L105.226 426.788L102.935 424.491L98.6162 428.808Z" fill="#FFF1C8"/>
<path d="M1.78003e-08 433.637L0 435.13L3.03028 432.101L2.28369 431.362L1.78003e-08 433.637Z" fill="#FFF1C8"/>
<path d="M2.03305e-08 448.015L0 449.72L10.3278 439.403L9.47145 438.547L2.03305e-08 448.015Z" fill="#FFF1C8"/>
<path d="M2.30354e-08 462.386L0 464.318L17.6254 446.698L16.6592 445.733L2.30354e-08 462.386Z" fill="#FFF1C8"/>
<path d="M2.56529e-08 476.764L0 478.915L24.9303 453.993L23.8543 452.918L2.56529e-08 476.764Z" fill="#FFF1C8"/>
<path d="M2.82708e-08 491.135L0 493.505L32.2278 461.296L31.0421 460.103L2.82708e-08 491.135Z" fill="#FFF1C8"/>
<path d="M3.08883e-08 505.513L0 508.103L39.5254 468.591L38.2298 467.296L3.08883e-08 505.513Z" fill="#FFF1C8"/>
<path d="M3.35932e-08 519.883L0 522.7L46.8302 475.886L45.4176 474.481L3.35932e-08 519.883Z" fill="#FFF1C8"/>
<path d="M2.41698e-08 534.261L0 536.288L1.00277 536.288L54.1278 483.188L52.6127 481.666L2.41698e-08 534.261Z" fill="#FFF1C8"/>
<path d="M12.3477 536.288L15.6048 536.288L61.425 490.483L59.8001 488.852L12.3477 536.288Z" fill="#FFF1C8"/>
<path d="M26.7236 536.288L30.2077 536.288L68.7303 497.778L66.9883 496.044L26.7236 536.288Z" fill="#FFF1C8"/>
<path d="M41.1064 536.288L44.8028 536.288L76.0278 505.081L74.176 503.23L41.1064 536.288Z" fill="#FFF1C8"/>
<path d="M55.4824 536.288L59.4057 536.288L83.3258 512.376L81.3642 510.415L55.4824 536.288Z" fill="#FFF1C8"/>
<path d="M69.8574 536.288L74.0076 536.288L90.6302 519.671L88.5588 517.6L69.8574 536.288Z" fill="#FFF1C8"/>
<path d="M84.2402 536.288L88.6027 536.288L97.9277 526.973L95.7465 524.786L84.2402 536.288Z" fill="#FFF1C8"/>
<path d="M98.6162 536.288L103.206 536.288L105.226 534.269L102.935 531.978L98.6162 536.288Z" fill="#FFF1C8"/>
<path d="M1.77127e-08 647.375L0 648.861L3.03028 645.839L2.28369 645.092L1.77127e-08 647.375Z" fill="#FFF1C8"/>
<path d="M2.04176e-08 661.746L0 663.458L10.3278 653.134L9.47145 652.278L2.04176e-08 661.746Z" fill="#FFF1C8"/>
<path d="M2.30353e-08 676.124L0 678.056L17.6254 660.429L16.6592 659.47L2.30353e-08 676.124Z" fill="#FFF1C8"/>
<path d="M2.56529e-08 690.495L0 692.646L24.9303 667.731L23.8543 666.656L2.56529e-08 690.495Z" fill="#FFF1C8"/>
<path d="M2.82706e-08 704.873L0 707.243L32.2278 675.026L31.0421 673.841L2.82706e-08 704.873Z" fill="#FFF1C8"/>
<path d="M3.09755e-08 719.243L0 721.841L39.5254 682.321L38.2298 681.026L3.09755e-08 719.243Z" fill="#FFF1C8"/>
<path d="M3.35058e-08 733.621L0 736.431L46.8302 689.624L45.4176 688.212L3.35058e-08 733.621Z" fill="#FFF1C8"/>
<path d="M2.42568e-08 747.992L0 750.026L1.00277 750.026L54.1278 696.919L52.6127 695.404L2.42568e-08 747.992Z" fill="#FFF1C8"/>
<path d="M12.3477 750.026L15.6048 750.026L61.425 704.221L59.8001 702.59L12.3477 750.026Z" fill="#FFF1C8"/>
<path d="M26.7236 750.026L30.2077 750.026L68.7303 711.517L66.9883 709.775L26.7236 750.026Z" fill="#FFF1C8"/>
<path d="M41.1064 750.026L44.8028 750.026L76.0278 718.812L74.176 716.96L41.1064 750.026Z" fill="#FFF1C8"/>
<path d="M55.4824 750.026L59.4057 750.026L83.3258 726.114L81.3642 724.153L55.4824 750.026Z" fill="#FFF1C8"/>
<path d="M69.8574 750.026L74.0076 750.026L90.6302 733.409L88.5588 731.338L69.8574 750.026Z" fill="#FFF1C8"/>
<path d="M84.2402 750.026L88.6027 750.026L97.9277 740.704L95.7465 738.524L84.2402 750.026Z" fill="#FFF1C8"/>
<path d="M98.6162 750.026L103.206 750.026L105.226 748.007L102.935 745.709L98.6162 750.026Z" fill="#FFF1C8"/>
<path d="M112.247 750.026L113.74 750.026L110.709 746.997L109.963 747.743L112.247 750.026Z" fill="#FFF1C8"/>
<path d="M126.63 750.026L128.335 750.026L118.007 739.702L117.158 740.558L126.63 750.026Z" fill="#FFF1C8"/>
<path d="M141.005 750.026L142.937 750.026L125.312 732.407L124.346 733.373L141.005 750.026Z" fill="#FFF1C8"/>
<path d="M155.387 750.026L157.539 750.026L132.609 725.104L131.533 726.18L155.387 750.026Z" fill="#FFF1C8"/>
<path d="M169.764 750.026L172.135 750.026L139.907 717.809L138.722 718.995L169.764 750.026Z" fill="#FFF1C8"/>
<path d="M184.139 750.026L186.737 750.026L147.212 710.514L145.909 711.809L184.139 750.026Z" fill="#FFF1C8"/>
<path d="M198.522 750.026L201.34 750.026L154.51 703.212L153.104 704.624L198.522 750.026Z" fill="#FFF1C8"/>
<path d="M212.897 750.026L214.932 750.026L214.932 749.024L161.807 695.917L160.292 697.431L212.897 750.026Z" fill="#FFF1C8"/>
<path d="M214.932 737.682L214.932 734.426L169.112 688.622L167.479 690.246L214.932 737.682Z" fill="#FFF1C8"/>
<path d="M214.933 723.312L214.933 719.829L176.41 681.319L174.668 683.06L214.933 723.312Z" fill="#FFF1C8"/>
<path d="M214.932 708.934L214.932 705.238L183.707 674.024L181.862 675.875L214.932 708.934Z" fill="#FFF1C8"/>
<path d="M214.932 694.563L214.932 690.641L191.011 666.729L189.05 668.69L214.932 694.563Z" fill="#FFF1C8"/>
<path d="M214.931 680.192L214.931 676.044L198.309 659.427L196.237 661.497L214.931 680.192Z" fill="#FFF1C8"/>
<path d="M214.932 665.814L214.932 661.453L205.614 652.131L203.426 654.312L214.932 665.814Z" fill="#FFF1C8"/>
<path d="M214.932 651.444L214.932 646.856L212.912 644.836L210.621 647.127L214.932 651.444Z" fill="#FFF1C8"/>
<path d="M215.786 111.768L215.786 113.253L218.809 110.231L218.063 109.485L215.786 111.768Z" fill="#FFF1C8"/>
<path d="M215.786 126.139L215.786 127.851L226.107 117.526L225.258 116.67L215.786 126.139Z" fill="#FFF1C8"/>
<path d="M215.786 140.517L215.786 142.448L233.412 124.821L232.445 123.863L215.786 140.517Z" fill="#FFF1C8"/>
<path d="M215.786 154.887L215.786 157.038L240.709 132.124L239.633 131.048L215.786 154.887Z" fill="#FFF1C8"/>
<path d="M215.786 169.265L215.786 171.636L248.014 139.419L246.821 138.234L215.786 169.265Z" fill="#FFF1C8"/>
<path d="M215.786 183.636L215.786 186.233L255.312 146.714L254.016 145.419L215.786 183.636Z" fill="#FFF1C8"/>
<path d="M215.786 198.014L215.786 200.824L262.609 154.017L261.204 152.604L215.786 198.014Z" fill="#FFF1C8"/>
<path d="M215.786 212.385L215.786 214.419L216.789 214.419L269.914 161.312L268.391 159.797L215.786 212.385Z" fill="#FFF1C8"/>
<path d="M228.127 214.419L231.391 214.419L277.212 168.614L275.579 166.982L228.127 214.419Z" fill="#FFF1C8"/>
<path d="M242.51 214.419L245.987 214.419L284.509 175.909L282.774 174.168L242.51 214.419Z" fill="#FFF1C8"/>
<path d="M256.885 214.419L260.588 214.419L291.813 183.204L289.962 181.353L256.885 214.419Z" fill="#FFF1C8"/>
<path d="M271.268 214.419L275.191 214.419L299.111 190.507L297.149 188.546L271.268 214.419Z" fill="#FFF1C8"/>
<path d="M285.644 214.419L289.786 214.419L306.409 197.802L304.338 195.731L285.644 214.419Z" fill="#FFF1C8"/>
<path d="M300.02 214.419L304.389 214.419L313.714 205.097L311.526 202.916L300.02 214.419Z" fill="#FFF1C8"/>
<path d="M314.402 214.419L318.992 214.419L321.012 212.399L318.721 210.102L314.402 214.419Z" fill="#FFF1C8"/>
<path d="M320.346 640.914L320.346 639.429L317.315 642.451L318.062 643.197L320.346 640.914Z" fill="#FFF1C8"/>
<path d="M320.345 626.544L320.345 624.832L310.018 635.156L310.867 636.012L320.345 626.544Z" fill="#FFF1C8"/>
<path d="M320.346 612.166L320.346 610.234L302.713 627.861L303.679 628.827L320.346 612.166Z" fill="#FFF1C8"/>
<path d="M320.346 597.795L320.346 595.644L295.416 620.558L296.492 621.634L320.346 597.795Z" fill="#FFF1C8"/>
<path d="M320.346 583.417L320.346 581.046L288.118 613.263L289.304 614.449L320.346 583.417Z" fill="#FFF1C8"/>
<path d="M320.346 569.047L320.346 566.449L280.813 605.968L282.116 607.263L320.346 569.047Z" fill="#FFF1C8"/>
<path d="M320.346 554.668L320.346 551.859L273.516 598.666L274.921 600.078L320.346 554.668Z" fill="#FFF1C8"/>
<path d="M320.346 540.298L320.346 538.264L319.335 538.264L266.218 591.371L267.733 592.885L320.346 540.298Z" fill="#FFF1C8"/>
<path d="M307.998 538.264L304.741 538.264L258.913 584.076L260.545 585.7L307.998 538.264Z" fill="#FFF1C8"/>
<path d="M293.622 538.264L290.138 538.264L251.615 576.773L253.357 578.515L293.622 538.264Z" fill="#FFF1C8"/>
<path d="M279.239 538.264L275.535 538.264L244.317 569.478L246.162 571.329L279.239 538.264Z" fill="#FFF1C8"/>
<path d="M264.864 538.264L260.941 538.264L237.014 562.183L238.975 564.144L264.864 538.264Z" fill="#FFF1C8"/>
<path d="M250.481 538.264L246.338 538.264L229.716 554.881L231.787 556.951L250.481 538.264Z" fill="#FFF1C8"/>
<path d="M236.105 538.263L231.736 538.263L222.418 547.585L224.599 549.766L236.105 538.263Z" fill="#FFF1C8"/>
<path d="M221.723 538.264L217.141 538.264L215.113 540.283L217.412 542.581L221.723 538.264Z" fill="#FFF1C8"/>
<path d="M1.77127e-08 754.204L0 755.689L3.03028 752.668L2.28369 751.921L1.77127e-08 754.204Z" fill="#FFF1C8"/>
<path d="M2.04177e-08 768.575L0 770.287L10.3278 759.963L9.47145 759.107L2.04177e-08 768.575Z" fill="#FFF1C8"/>
<path d="M2.30353e-08 782.953L0 784.885L17.6254 767.258L16.6592 766.299L2.30353e-08 782.953Z" fill="#FFF1C8"/>
<path d="M2.56529e-08 797.324L0 799.475L24.9303 774.56L23.8543 773.485L2.56529e-08 797.324Z" fill="#FFF1C8"/>
<path d="M2.82706e-08 811.702L0 814.072L32.2278 781.855L31.0421 780.67L2.82706e-08 811.702Z" fill="#FFF1C8"/>
<path d="M3.09755e-08 826.072L0 828.67L39.5254 789.15L38.2298 787.855L3.09755e-08 826.072Z" fill="#FFF1C8"/>
<path d="M3.35059e-08 840.45L0 843.26L46.8302 796.453L45.4176 795.041L3.35059e-08 840.45Z" fill="#FFF1C8"/>
<path d="M2.42568e-08 854.821L0 856.855L1.00277 856.855L54.1278 803.748L52.6127 802.233L2.42568e-08 854.821Z" fill="#FFF1C8"/>
<path d="M12.3477 856.855L15.6048 856.855L61.425 811.05L59.8001 809.419L12.3477 856.855Z" fill="#FFF1C8"/>
<path d="M26.7236 856.855L30.2077 856.855L68.7303 818.345L66.9883 816.604L26.7236 856.855Z" fill="#FFF1C8"/>
<path d="M41.1064 856.855L44.8028 856.855L76.0278 825.64L74.176 823.789L41.1064 856.855Z" fill="#FFF1C8"/>
<path d="M55.4824 856.855L59.4057 856.855L83.3258 832.943L81.3642 830.982L55.4824 856.855Z" fill="#FFF1C8"/>
<path d="M69.8574 856.855L74.0076 856.855L90.6302 840.238L88.5588 838.167L69.8574 856.855Z" fill="#FFF1C8"/>
<path d="M84.2402 856.855L88.6027 856.855L97.9277 847.533L95.7465 845.353L84.2402 856.855Z" fill="#FFF1C8"/>
<path d="M98.6162 856.855L103.206 856.855L105.226 854.835L102.935 852.538L98.6162 856.855Z" fill="#FFF1C8"/>
<path d="M214.85 321.979L107.963 428.808L214.85 428.808L214.85 321.979Z" fill="#FFF1C8"/>
<path d="M214.85 0.761018L107.963 107.59L214.85 107.59L214.85 0.761018Z" fill="#FFF1C8"/>
<path d="M214.85 536.368L107.963 643.197L214.85 643.197L214.85 536.368Z" fill="#FFF1C8"/>
<path d="M107.963 643.197L214.85 536.368L107.963 536.368L107.963 643.197Z" fill="#FFF1C8"/>
<path d="M320.978 643.197L214.113 536.346L214.113 643.197L320.978 643.197Z" fill="#FFF1C8"/>
<path d="M107.963 856.855L214.85 750.026L107.963 750.026L107.963 856.855Z" fill="#FFF1C8"/>
<path d="M107.963 750.026L214.85 643.197L107.963 643.197L107.963 750.026Z" fill="#FFF1C8"/>
<path d="M115.561 437.106L115.561 536.288L107.963 536.288L107.963 429.437L115.561 437.106Z" fill="#FFF1C8"/>
<path d="M126.672 448.206L126.672 536.288L118.291 536.288L118.291 439.835L126.672 448.206Z" fill="#FFF1C8"/>
<path d="M137.775 459.313L137.775 536.288L129.233 536.288L129.233 450.774L137.775 459.313Z" fill="#FFF1C8"/>
<path d="M148.886 470.42L148.886 536.288L140.169 536.288L140.169 461.705L148.886 470.42Z" fill="#FFF1C8"/>
<path d="M159.997 481.52L159.997 536.288L151.111 536.288L151.111 472.644L159.997 481.52Z" fill="#FFF1C8"/>
<path d="M171.101 492.627L171.101 536.288L162.054 536.288L162.054 483.576L171.101 492.627Z" fill="#FFF1C8"/>
<path d="M182.212 503.735L182.212 536.288L172.989 536.288L172.989 494.515L182.212 503.735Z" fill="#FFF1C8"/>
<path d="M193.315 514.835L193.315 536.288L183.932 536.288L183.932 505.454L193.315 514.835Z" fill="#FFF1C8"/>
<path d="M204.427 525.942L204.427 536.288L194.868 536.288L194.868 516.386L204.427 525.942Z" fill="#FFF1C8"/>
<path d="M214.783 536.288L215.537 536.288L205.81 536.288L205.81 527.325L214.783 536.288Z" fill="#FFF1C8"/>
<path d="M115.561 437.106L115.561 536.288L107.963 536.288L107.963 429.437L115.561 437.106Z" fill="#FFF1C8"/>
<path d="M126.672 448.206L126.672 536.288L118.291 536.288L118.291 439.835L126.672 448.206Z" fill="#FFF1C8"/>
<path d="M137.775 459.313L137.775 536.288L129.233 536.288L129.233 450.774L137.775 459.313Z" fill="#FFF1C8"/>
<path d="M148.886 470.42L148.886 536.288L140.169 536.288L140.169 461.705L148.886 470.42Z" fill="#FFF1C8"/>
<path d="M159.997 481.52L159.997 536.288L151.111 536.288L151.111 472.644L159.997 481.52Z" fill="#FFF1C8"/>
<path d="M171.101 492.627L171.101 536.288L162.054 536.288L162.054 483.576L171.101 492.627Z" fill="#FFF1C8"/>
<path d="M182.212 503.735L182.212 536.288L172.989 536.288L172.989 494.515L182.212 503.735Z" fill="#FFF1C8"/>
<path d="M193.315 514.835L193.315 536.288L183.932 536.288L183.932 505.454L193.315 514.835Z" fill="#FFF1C8"/>
<path d="M204.427 525.942L204.427 536.288L194.868 536.288L194.868 516.386L204.427 525.942Z" fill="#FFF1C8"/>
<path d="M214.783 536.288L215.537 536.288L205.81 536.288L205.81 527.325L214.783 536.288Z" fill="#FFF1C8"/>
<path d="M321.978 321.986L215.113 215.136L215.113 321.986L321.978 321.986Z" fill="#FFF1C8"/>
<mask id="mask0_584_1137" style="mask-type:luminance" maskUnits="userSpaceOnUse" x="215" y="215" width="107" height="107">
<path d="M321.978 321.986L215.113 215.136L215.113 321.986L321.978 321.986Z" fill="white"/>
</mask>
<g mask="url(#mask0_584_1137)">
<path d="M213.539 211.821L213.539 217.858L228.873 217.88L223.464 211.836L213.539 211.821Z" fill="#FFF1C8"/>
<path d="M213.525 220.397L213.525 226.565L236.677 226.602L231.151 220.426L213.533 220.397L213.525 220.397Z" fill="#FFF1C8"/>
<path d="M213.51 228.965L213.51 235.265L244.472 235.309L238.821 229.002L213.503 228.965L213.51 228.965Z" fill="#FFF1C8"/>
<path d="M213.496 237.533L213.496 243.965L252.275 244.023L246.507 237.584L213.496 237.533Z" fill="#FFF1C8"/>
<path d="M213.488 246.109L213.488 252.672L260.084 252.745L254.199 246.175L213.488 246.116L213.488 246.109Z" fill="#FFF1C8"/>
<path d="M213.474 254.677L213.474 261.372L267.88 261.453L261.878 254.75L213.474 254.677Z" fill="#FFF1C8"/>
<path d="M213.459 263.245L213.459 270.072L275.682 270.167L269.563 263.333L213.459 263.253L213.459 263.245Z" fill="#FFF1C8"/>
<path d="M213.444 271.821L213.444 278.779L283.485 278.882L277.249 271.916L213.452 271.821L213.444 271.821Z" fill="#FFF1C8"/>
<path d="M213.438 280.389L213.438 287.479L291.295 287.596L284.935 280.499L213.438 280.389Z" fill="#FFF1C8"/>
<path d="M213.422 288.957L213.422 296.179L299.09 296.304L292.612 289.075L213.415 288.957L213.422 288.957Z" fill="#FFF1C8"/>
<path d="M213.408 297.533L213.394 304.887L306.893 305.026L300.298 297.657L213.408 297.526L213.408 297.533Z" fill="#FFF1C8"/>
<path d="M213.394 306.101L213.379 313.587L314.688 313.74L307.976 306.24L213.386 306.101L213.394 306.101Z" fill="#FFF1C8"/>
<path d="M213.371 322.294L322.498 322.455L315.669 314.823L213.386 314.669L213.371 322.294Z" fill="#FFF1C8"/>
</g>
<path d="M321.978 429.437L215.113 536.288L215.113 429.437L321.978 429.437Z" fill="#FFF1C8"/>
<mask id="mask1_584_1137" style="mask-type:luminance" maskUnits="userSpaceOnUse" x="215" y="429" width="107" height="108">
<path d="M321.978 429.437L215.113 536.288L215.113 429.437L321.978 429.437Z" fill="white"/>
</mask>
<g mask="url(#mask1_584_1137)">
<path d="M223.458 539.588L228.867 533.544L213.525 533.566L213.525 539.603L223.458 539.588Z" fill="#FFF1C8"/>
<path d="M231.142 531.005L236.669 524.83L213.51 524.866L213.51 531.034L231.142 531.005Z" fill="#FFF1C8"/>
<path d="M238.828 522.429L244.479 516.122L213.503 516.166L213.503 522.466L238.828 522.429Z" fill="#FFF1C8"/>
<path d="M246.514 513.847L252.282 507.408L213.496 507.466L213.496 513.898L246.522 513.847L246.514 513.847Z" fill="#FFF1C8"/>
<path d="M254.192 505.264L260.077 498.693L213.474 498.766L213.474 505.33L254.192 505.271L254.192 505.264Z" fill="#FFF1C8"/>
<path d="M261.878 496.681L267.88 489.979L213.459 490.059L213.459 496.754L261.878 496.681Z" fill="#FFF1C8"/>
<path d="M269.563 488.098L275.682 481.264L213.444 481.359L213.444 488.186L269.556 488.105L269.563 488.098Z" fill="#FFF1C8"/>
<path d="M277.249 479.515L283.485 472.549L213.438 472.652L213.438 479.61L277.249 479.515Z" fill="#FFF1C8"/>
<path d="M284.934 470.932L291.295 463.835L213.43 463.952L213.43 471.042L284.934 470.932Z" fill="#FFF1C8"/>
<path d="M292.613 462.349L299.09 455.12L213.408 455.244L213.408 462.466L292.613 462.349Z" fill="#FFF1C8"/>
<path d="M300.298 453.766L306.893 446.398L213.394 446.537L213.408 453.891L300.298 453.759L300.298 453.766Z" fill="#FFF1C8"/>
<path d="M307.983 445.183L314.695 437.684L213.386 437.837L213.4 445.323L307.99 445.183L307.983 445.183Z" fill="#FFF1C8"/>
<path d="M213.371 429.137L213.386 436.754L315.669 436.608L322.498 428.976L213.371 429.137Z" fill="#FFF1C8"/>
</g>
<path d="M215.113 643.197L322 750.026L215.113 750.026L215.113 643.197Z" fill="#FFF1C8"/>
<mask id="mask2_584_1137" style="mask-type:luminance" maskUnits="userSpaceOnUse" x="215" y="643" width="107" height="108">
<path d="M215.113 643.197L322 750.026L215.113 750.026L215.113 643.197Z" fill="white"/>
</mask>
<g mask="url(#mask2_584_1137)">
<path d="M325.301 741.685L319.255 736.277L319.277 751.614L325.315 751.614L325.301 741.685Z" fill="#FFF1C8"/>
<path d="M316.716 734.002L310.538 728.478L310.575 751.629L316.745 751.629L316.716 734.002Z" fill="#FFF1C8"/>
<path d="M308.13 726.319L301.82 720.67L301.864 751.636L308.166 751.636L308.13 726.319Z" fill="#FFF1C8"/>
<path d="M299.544 718.643L293.103 712.878L293.161 751.651L299.595 751.651L299.544 718.636L299.544 718.643Z" fill="#FFF1C8"/>
<path d="M290.965 710.96L284.393 705.077L284.466 751.665L291.031 751.665L290.973 710.96L290.965 710.96Z" fill="#FFF1C8"/>
<path d="M282.379 703.277L275.675 697.277L275.755 751.68L282.453 751.68L282.379 703.277Z" fill="#FFF1C8"/>
<path d="M273.794 695.595L266.958 689.478L267.053 751.694L273.882 751.694L273.802 695.602L273.794 695.595Z" fill="#FFF1C8"/>
<path d="M265.208 687.912L258.24 681.678L258.343 751.702L265.304 751.702L265.208 687.912Z" fill="#FFF1C8"/>
<path d="M256.622 680.236L249.522 673.878L249.64 751.716L256.732 751.716L256.622 680.236Z" fill="#FFF1C8"/>
<path d="M248.036 672.553L240.805 666.078L240.929 751.731L248.153 751.731L248.036 672.553Z" fill="#FFF1C8"/>
<path d="M239.451 664.87L232.08 658.278L232.219 751.746L239.575 751.731L239.444 664.87L239.451 664.87Z" fill="#FFF1C8"/>
<path d="M230.865 657.187L223.362 650.478L223.516 751.753L231.004 751.738L230.865 657.18L230.865 657.187Z" fill="#FFF1C8"/>
<path d="M214.813 751.768L222.433 751.76L222.279 649.505L214.652 642.678L214.813 751.768Z" fill="#FFF1C8"/>
</g>
<path d="M7.59766 544.007L7.59766 643.197L0 643.197L1.27418e-06 536.346L7.59766 544.007Z" fill="#FFF1C8"/>
<path d="M18.7007 555.115L18.7007 643.197L10.3271 643.197L10.3271 546.744L18.7007 555.115Z" fill="#FFF1C8"/>
<path d="M29.8129 566.222L29.8129 643.197L21.2637 643.197L21.2637 557.676L29.8129 566.222Z" fill="#FFF1C8"/>
<path d="M40.9236 577.322L40.9236 643.197L32.2061 643.197L32.2061 568.615L40.9236 577.322Z" fill="#FFF1C8"/>
<path d="M52.027 588.429L52.027 643.197L43.1484 643.197L43.1484 579.546L52.027 588.429Z" fill="#FFF1C8"/>
<path d="M63.1382 599.529L63.1382 643.197L54.084 643.197L54.084 590.485L63.1382 599.529Z" fill="#FFF1C8"/>
<path d="M74.2416 610.636L74.2416 643.197L65.0264 643.197L65.0264 601.424L74.2416 610.636Z" fill="#FFF1C8"/>
<path d="M85.3529 621.744L85.3529 643.197L75.9619 643.197L75.9619 612.356L85.3529 621.744Z" fill="#FFF1C8"/>
<path d="M96.4646 632.844L96.4646 643.197L86.9053 643.197L86.9053 623.295L96.4646 632.844Z" fill="#FFF1C8"/>
<path d="M106.813 643.197L107.567 643.197L97.8467 643.197L97.8467 634.227L106.813 643.197Z" fill="#FFF1C8"/>
<path d="M107.992 106.931L1.10547 213.76L107.992 213.76L107.992 106.931Z" fill="#FFF1C8"/>
<path d="M8.02148 7.66827L8.02148 106.851L0.423828 106.851L0.423829 3.05176e-05L8.02148 7.66827Z" fill="#FFF1C8"/>
<path d="M19.1255 18.7683L19.1255 106.851L10.752 106.851L10.752 10.3976L19.1255 18.7683Z" fill="#FFF1C8"/>
<path d="M30.2367 29.8756L30.2367 106.851L21.6875 106.851L21.6875 21.3292L30.2367 29.8756Z" fill="#FFF1C8"/>
<path d="M41.3401 40.9755L41.3401 106.851L32.6299 106.851L32.6299 32.2683L41.3401 40.9755Z" fill="#FFF1C8"/>
<path d="M52.4513 52.0828L52.4513 106.851L43.5654 106.851L43.5654 43.1999L52.4513 52.0828Z" fill="#FFF1C8"/>
<path d="M63.562 63.19L63.562 106.851L54.5078 106.851L54.5078 54.1388L63.562 63.19Z" fill="#FFF1C8"/>
<path d="M74.6655 74.29L74.6655 106.851L65.4502 106.851L65.4502 65.0779L74.6655 74.29Z" fill="#FFF1C8"/>
<path d="M85.7767 85.3973L85.7767 106.851L76.3857 106.851L76.3857 76.0095L85.7767 85.3973Z" fill="#FFF1C8"/>
<path d="M96.8811 96.4972L96.8811 106.851L87.3291 106.851L87.3291 86.9485L96.8811 96.4972Z" fill="#FFF1C8"/>
<path d="M107.237 106.851L107.991 106.851L98.2637 106.851L98.2637 97.8801L107.237 106.851Z" fill="#FFF1C8"/>
</svg>
