<svg height="20px" viewBox="0 0 20 18" fill="none" xmlns="http://www.w3.org/2000/svg">
      <path
        d="M2 18C1.45 18 0.979167 17.8042 0.5875 17.4125C0.195833 17.0208 0 16.55 0 16V2C0 1.45 0.195833 0.979167 0.5875 0.5875C0.979167 0.195833 1.45 0 2 0H16C16.55 0 17.0208 0.195833 17.4125 0.5875C17.8042 0.979167 18 1.45 18 2V4H20V6H18V8H20V10H18V12H20V14H18V16C18 16.55 17.8042 17.0208 17.4125 17.4125C17.0208 17.8042 16.55 18 16 18H2ZM4 14H9V10H4V14ZM10 7H14V4H10V7ZM4 9H9V4H4V9ZM10 14H14V8H10V14Z"
        fill="#FFC000"
      />
    </svg>