<svg width="280" height="372" viewBox="0 0 280 372" fill="none" xmlns="http://www.w3.org/2000/svg">
<path d="M2.39941 190.279L2.39941 191.573L5.02189 188.946L4.38056 188.298L2.39941 190.279Z" fill="#FFE69A"/>
<path d="M2.39941 202.752L2.39941 204.231L11.359 195.274L10.6161 194.538L2.39941 202.752Z" fill="#FFE69A"/>
<path d="M2.39941 215.218L2.39941 216.894L17.6898 201.609L16.8516 200.771L2.39941 215.218Z" fill="#FFE69A"/>
<path d="M2.39941 227.692L2.39941 229.558L24.0206 207.938L23.0872 207.005L2.39941 227.692Z" fill="#FFE69A"/>
<path d="M2.39941 240.158L2.39941 242.215L30.3577 214.266L29.3227 213.238L2.39941 240.158Z" fill="#FFE69A"/>
<path d="M2.39941 252.625L2.39941 254.879L36.6885 220.601L35.5646 219.471L2.39941 252.625Z" fill="#FFE69A"/>
<path d="M2.39941 265.099L2.39941 267.542L43.0193 226.93L41.8001 225.711L2.39941 265.099Z" fill="#FFE69A"/>
<path d="M2.39941 277.565L2.39941 279.33L3.26934 279.33L49.3564 233.259L48.0357 231.945L2.39941 277.565Z" fill="#FFE69A"/>
<path d="M13.1055 279.33L15.9375 279.33L55.6874 239.594L54.2714 238.178L13.1055 279.33Z" fill="#FFE69A"/>
<path d="M25.583 279.33L28.5992 279.33L62.0183 245.922L60.5134 244.411L25.583 279.33Z" fill="#FFE69A"/>
<path d="M38.0537 279.33L41.2667 279.33L68.3551 252.251L66.7486 250.651L38.0537 279.33Z" fill="#FFE69A"/>
<path d="M50.5303 279.33L53.9338 279.33L74.685 258.586L72.9833 256.885L50.5303 279.33Z" fill="#FFE69A"/>
<path d="M63.002 279.33L66.596 279.33L81.0164 264.914L79.2194 263.118L63.002 279.33Z" fill="#FFE69A"/>
<path d="M75.4795 279.33L79.264 279.33L87.3537 271.249L85.4551 269.351L75.4795 279.33Z" fill="#FFE69A"/>
<path d="M87.9502 279.33L91.9315 279.33L93.6841 277.578L91.6966 275.585L87.9502 279.33Z" fill="#FFE69A"/>
<path d="M1.53659e-08 282.949L0 284.237L2.62883 281.615L1.98115 280.968L1.53659e-08 282.949Z" fill="#FFE69A"/>
<path d="M1.77129e-08 295.415L0 296.901L8.95961 287.944L8.21668 287.201L1.77129e-08 295.415Z" fill="#FFE69A"/>
<path d="M1.99837e-08 307.888L0 309.564L15.2904 294.273L14.4522 293.441L1.99837e-08 307.888Z" fill="#FFE69A"/>
<path d="M2.22545e-08 320.355L0 322.221L21.6275 300.608L20.6941 299.674L2.22545e-08 320.355Z" fill="#FFE69A"/>
<path d="M2.45257e-08 332.828L0 334.885L27.9583 306.936L26.9296 305.908L2.45257e-08 332.828Z" fill="#FFE69A"/>
<path d="M2.68718e-08 345.295L0 347.549L34.2891 313.265L33.1652 312.141L2.68718e-08 345.295Z" fill="#FFE69A"/>
<path d="M2.90668e-08 357.769L0 360.206L40.6262 319.6L39.4007 318.375L2.90668e-08 357.769Z" fill="#FFE69A"/>
<path d="M2.10435e-08 370.235L0 372L0.869927 372L46.957 325.928L45.6426 324.614L2.10435e-08 370.235Z" fill="#FFE69A"/>
<path d="M10.7119 372L13.5376 372L53.2875 332.263L51.8779 330.848L10.7119 372Z" fill="#FFE69A"/>
<path d="M23.1836 372L26.2061 372L59.6253 338.592L58.114 337.081L23.1836 372Z" fill="#FFE69A"/>
<path d="M35.6611 372L38.8678 372L65.9562 344.921L64.3497 343.315L35.6611 372Z" fill="#FFE69A"/>
<path d="M48.1318 372L51.5353 372L72.2866 351.256L70.5848 349.555L48.1318 372Z" fill="#FFE69A"/>
<path d="M60.6016 372L64.2019 372L78.6224 357.584L76.8254 355.788L60.6016 372Z" fill="#FFE69A"/>
<path d="M73.0801 372L76.8646 372L84.9543 363.913L83.062 362.021L73.0801 372Z" fill="#FFE69A"/>
<path d="M85.5518 372L89.5331 372L91.2857 370.248L89.2982 368.255L85.5518 372Z" fill="#FFE69A"/>
<path d="M187.199 96.9612L187.199 98.2498L189.822 95.6282L189.174 94.9807L187.199 96.9612Z" fill="#FFE69A"/>
<path d="M187.199 109.428L187.199 110.913L196.152 101.957L195.416 101.214L187.199 109.428Z" fill="#FFE69A"/>
<path d="M187.199 121.901L187.199 123.577L202.49 108.285L201.651 107.454L187.199 121.901Z" fill="#FFE69A"/>
<path d="M187.199 134.368L187.199 136.234L208.82 114.62L207.887 113.687L187.199 134.368Z" fill="#FFE69A"/>
<path d="M187.199 146.841L187.199 148.898L215.158 120.949L214.122 119.92L187.199 146.841Z" fill="#FFE69A"/>
<path d="M187.199 159.308L187.199 161.561L221.488 127.277L220.364 126.154L187.199 159.308Z" fill="#FFE69A"/>
<path d="M187.199 171.781L187.199 174.219L227.819 133.613L226.6 132.388L187.199 171.781Z" fill="#FFE69A"/>
<path d="M187.199 184.248L187.199 186.013L188.069 186.013L234.156 139.941L232.835 138.627L187.199 184.248Z" fill="#FFE69A"/>
<path d="M197.905 186.013L200.737 186.013L240.487 146.276L239.071 144.861L197.905 186.013Z" fill="#FFE69A"/>
<path d="M210.382 186.013L213.398 186.013L246.817 152.605L245.312 151.094L210.382 186.013Z" fill="#FFE69A"/>
<path d="M222.853 186.013L226.066 186.013L253.154 158.933L251.547 157.327L222.853 186.013Z" fill="#FFE69A"/>
<path d="M235.33 186.013L238.734 186.013L259.485 165.268L257.783 163.567L235.33 186.013Z" fill="#FFE69A"/>
<path d="M247.802 186.013L251.396 186.013L265.816 171.597L264.019 169.801L247.802 186.013Z" fill="#FFE69A"/>
<path d="M260.273 186.013L264.064 186.013L272.154 177.926L270.255 176.034L260.273 186.013Z" fill="#FFE69A"/>
<path d="M272.751 186.013L276.732 186.013L278.485 184.261L276.497 182.268L272.751 186.013Z" fill="#FFE69A"/>
<path d="M186.387 279.324L93.6602 372L186.387 372L186.387 279.324Z" fill="#FFE69A"/>
<path d="M186.387 0.660188L93.6602 93.3364L186.387 93.3364L186.387 0.660188Z" fill="#FFE69A"/>
<path d="M279.323 279.33L186.615 186.635L186.615 279.33L279.323 279.33Z" fill="#FFE69A"/>
<mask id="mask0_1457_878" style="mask-type:luminance" maskUnits="userSpaceOnUse" x="186" y="186" width="94" height="94">
<path d="M279.323 279.33L186.615 186.635L186.615 279.33L279.323 279.33Z" fill="white"/>
</mask>
<g mask="url(#mask0_1457_878)">
<path d="M185.25 183.759L185.25 188.996L198.553 189.015L193.86 183.772L185.25 183.759Z" fill="#FFE69A"/>
<path d="M185.238 191.199L185.238 196.55L205.323 196.582L200.529 191.224L185.245 191.199L185.238 191.199Z" fill="#FFE69A"/>
<path d="M185.225 198.632L185.225 204.097L212.085 204.135L207.183 198.664L185.219 198.632L185.225 198.632Z" fill="#FFE69A"/>
<path d="M185.213 206.065L185.213 211.645L218.854 211.696L213.851 206.11L185.213 206.065Z" fill="#FFE69A"/>
<path d="M185.206 213.505L185.206 219.199L225.629 219.262L220.524 213.562L185.206 213.511L185.206 213.505Z" fill="#FFE69A"/>
<path d="M185.193 220.938L185.193 226.746L232.392 226.816L227.185 221.001L185.193 220.938Z" fill="#FFE69A"/>
<path d="M185.181 228.371L185.181 234.293L239.161 234.376L233.852 228.447L185.181 228.377L185.181 228.371Z" fill="#FFE69A"/>
<path d="M185.168 235.81L185.168 241.847L245.93 241.936L240.519 235.893L185.174 235.81L185.168 235.81Z" fill="#FFE69A"/>
<path d="M185.162 243.243L185.162 249.394L252.705 249.496L247.187 243.339L185.162 243.243Z" fill="#FFE69A"/>
<path d="M185.149 250.676L185.149 256.942L259.467 257.05L253.848 250.778L185.143 250.676L185.149 250.676Z" fill="#FFE69A"/>
<path d="M185.137 258.116L185.124 264.496L266.237 264.616L260.516 258.224L185.137 258.11L185.137 258.116Z" fill="#FFE69A"/>
<path d="M185.124 265.549L185.111 272.043L272.999 272.176L267.177 265.67L185.118 265.549L185.124 265.549Z" fill="#FFE69A"/>
<path d="M185.104 279.597L279.774 279.736L273.85 273.116L185.117 272.982L185.104 279.597Z" fill="#FFE69A"/>
</g>
<path d="M93.6856 92.7652L0.958984 185.441L93.6856 185.441L93.6856 92.7652Z" fill="#FFE69A"/>
<path d="M6.95831 6.65237L6.95831 92.6953L0.367188 92.6953L0.367189 7.62939e-06L6.95831 6.65237Z" fill="#FFE69A"/>
<path d="M16.5914 16.2819L16.5914 92.6953L9.32715 92.6953L9.32715 9.02013L16.5914 16.2819Z" fill="#FFE69A"/>
<path d="M26.2301 25.9177L26.2301 92.6953L18.8135 92.6953L18.8135 18.5035L26.2301 25.9177Z" fill="#FFE69A"/>
<path d="M35.8629 35.5471L35.8629 92.6953L28.3066 92.6953L28.3066 27.9934L35.8629 35.5471Z" fill="#FFE69A"/>
<path d="M45.5017 45.1829L45.5017 92.6953L37.793 92.6953L37.793 37.4768L45.5017 45.1829Z" fill="#FFE69A"/>
<path d="M55.1409 54.8186L55.1409 92.6953L47.2861 92.6953L47.2861 46.9665L55.1409 54.8186Z" fill="#FFE69A"/>
<path d="M64.7737 64.4481L64.7737 92.6953L56.7793 92.6953L56.7793 56.4564L64.7737 64.4481Z" fill="#FFE69A"/>
<path d="M74.4125 74.0839L74.4125 92.6953L66.2656 92.6953L66.2656 65.9398L74.4125 74.0839Z" fill="#FFE69A"/>
<path d="M84.0463 83.7133L84.0463 92.6953L75.7598 92.6953L75.7598 75.4296L84.0463 83.7133Z" fill="#FFE69A"/>
<path d="M93.03 92.6953L93.684 92.6953L85.2451 92.6953L85.2451 84.913L93.03 92.6953Z" fill="#FFE69A"/>
</svg>
