<?xml version="1.0" encoding="UTF-8"?>
<svg version="1.1" xmlns="http://www.w3.org/2000/svg" width="64" height="64">
<path d="M0 0 C4.03251523 0.58491155 5.97132725 3.03502095 8.61328125 5.90625 C9.11537109 6.43089844 9.61746094 6.95554687 10.13476562 7.49609375 C11.36840258 8.78847532 12.5861975 10.09594599 13.80078125 11.40625 C18.44733761 9.48862357 21.16804876 5.96129765 24.484375 2.3046875 C26.80078125 0.40625 26.80078125 0.40625 29.5234375 0.0703125 C31.80078125 0.40625 31.80078125 0.40625 32.80078125 1.40625 C33.20703125 3.60546875 33.20703125 3.60546875 32.80078125 6.40625 C31.01415106 8.5554269 29.33682622 10.34528847 27.30078125 12.21875 C26.77613281 12.72083984 26.25148438 13.22292969 25.7109375 13.74023438 C24.41855593 14.97387133 23.11108526 16.19166625 21.80078125 17.40625 C23.71840768 22.05280636 27.2457336 24.77351751 30.90234375 28.08984375 C32.80078125 30.40625 32.80078125 30.40625 33.13671875 33.12890625 C32.80078125 35.40625 32.80078125 35.40625 31.80078125 36.40625 C29.6015625 36.8125 29.6015625 36.8125 26.80078125 36.40625 C24.65160435 34.61961981 22.86174278 32.94229497 20.98828125 30.90625 C20.48619141 30.38160156 19.98410156 29.85695313 19.46679688 29.31640625 C18.23315992 28.02402468 17.015365 26.71655401 15.80078125 25.40625 C11.15422489 27.32387643 8.43351374 30.85120235 5.1171875 34.5078125 C2.80078125 36.40625 2.80078125 36.40625 0.078125 36.7421875 C-2.19921875 36.40625 -2.19921875 36.40625 -3.19921875 35.40625 C-3.60546875 33.20703125 -3.60546875 33.20703125 -3.19921875 30.40625 C-1.41258856 28.2570731 0.26473628 26.46721153 2.30078125 24.59375 C2.82542969 24.09166016 3.35007812 23.58957031 3.890625 23.07226562 C5.18300657 21.83862867 6.49047724 20.62083375 7.80078125 19.40625 C5.88315482 14.75969364 2.3558289 12.03898249 -1.30078125 8.72265625 C-3.19921875 6.40625 -3.19921875 6.40625 -3.53515625 3.68359375 C-3.09315987 0.68726945 -2.96730294 0.54813411 0 0 Z " fill="#FFFFFF" transform="translate(17.19921875,13.59375)"/>
</svg>
