<svg xmlns="http://www.w3.org/2000/svg" width="97" height="26" viewBox="0 0 97 26">
  <path fill="#FFF" fill-rule="evenodd" d="M0,0 L97,0 L97,26 L0,26 L0,0 Z M13,6 C9.13400675,6 6,9.13400675 6,13 C6,16.8659932 9.13400675,20 13,20 C16.8659932,20 20,16.8659932 20,13 C20,9.13400675 16.8659932,6 13,6 Z M61,6 C57.1340068,6 54,9.13400675 54,13 C54,16.8659932 57.1340068,20 61,20 C64.8659932,20 68,16.8659932 68,13 C68,9.13400675 64.8659932,6 61,6 Z M85,6 C81.1340068,6 78,9.13400675 78,13 C78,16.8659932 81.1340068,20 85,20 C88.8659932,20 92,16.8659932 92,13 C92,9.13400675 88.8659932,6 85,6 Z M37,6 C33.1340068,6 30,9.13400675 30,13 C30,16.8659932 33.1340068,20 37,20 C40.8659932,20 44,16.8659932 44,13 C44,9.13400675 40.8659932,6 37,6 Z"/>
</svg>
