<svg width="347" height="884" viewBox="0 0 347 884" fill="none" xmlns="http://www.w3.org/2000/svg">
<path d="M344.01 657.318L344.01 655.779L340.742 658.902L341.541 659.671L344.01 657.318Z" fill="#F7A9D5"/>
<path d="M344.01 642.493L344.01 640.735L332.846 651.38L333.772 652.255L344.01 642.493Z" fill="#F7A9D5"/>
<path d="M344.01 627.676L344.01 625.685L324.958 643.851L326.002 644.847L344.01 627.676Z" fill="#F7A9D5"/>
<path d="M344.01 612.852L344.01 610.634L317.07 636.329L318.233 637.438L344.01 612.852Z" fill="#F7A9D5"/>
<path d="M344.01 598.035L344.01 595.59L309.174 628.808L310.464 630.03L344.01 598.035Z" fill="#F7A9D5"/>
<path d="M344.01 583.218L344.01 580.54L301.286 621.279L302.686 622.621L344.01 583.218Z" fill="#F7A9D5"/>
<path d="M344.01 568.393L344.01 565.489L293.398 613.757L294.917 615.206L344.01 568.393Z" fill="#F7A9D5"/>
<path d="M344.01 553.576L344.01 551.479L342.926 551.479L285.502 606.235L287.147 607.797L344.01 553.576Z" fill="#F7A9D5"/>
<path d="M330.67 551.479L327.141 551.479L277.613 598.706L279.377 600.389L330.67 551.479Z" fill="#F7A9D5"/>
<path d="M315.123 551.479L311.365 551.479L269.725 591.185L271.6 592.98L315.123 551.479Z" fill="#F7A9D5"/>
<path d="M299.585 551.479L295.582 551.479L261.83 583.663L263.831 585.564L299.585 551.479Z" fill="#F7A9D5"/>
<path d="M284.038 551.479L279.797 551.479L253.941 576.134L256.062 578.156L284.038 551.479Z" fill="#F7A9D5"/>
<path d="M268.5 551.479L264.022 551.479L246.054 568.612L248.293 570.747L268.5 551.479Z" fill="#F7A9D5"/>
<path d="M252.951 551.479L248.236 551.479L238.156 561.083L240.522 563.339L252.951 551.479Z" fill="#F7A9D5"/>
<path d="M237.414 551.479L232.453 551.479L230.27 553.561L232.746 555.93L237.414 551.479Z" fill="#F7A9D5"/>
<path d="M347 547.179L347 545.647L343.724 548.763L344.532 549.532L347 547.179Z" fill="#F7A9D5"/>
<path d="M347 532.362L347 530.596L335.836 541.241L336.762 542.124L347 532.362Z" fill="#F7A9D5"/>
<path d="M347 517.537L347 515.546L327.948 533.72L328.993 534.708L347 517.537Z" fill="#F7A9D5"/>
<path d="M347 502.72L347 500.502L320.052 526.191L321.215 527.3L347 502.72Z" fill="#F7A9D5"/>
<path d="M347 487.896L347 485.451L312.164 518.669L313.446 519.891L347 487.896Z" fill="#F7A9D5"/>
<path d="M347 473.079L347 470.401L304.276 511.147L305.676 512.483L347 473.079Z" fill="#F7A9D5"/>
<path d="M347 458.254L347 455.357L296.38 503.618L297.907 505.074L347 458.254Z" fill="#F7A9D5"/>
<path d="M347 443.438L347 441.34L345.916 441.34L288.492 496.097L290.13 497.658L347 443.438Z" fill="#F7A9D5"/>
<path d="M333.652 441.34L330.132 441.34L280.603 488.567L282.36 490.25L333.652 441.34Z" fill="#F7A9D5"/>
<path d="M318.113 441.34L314.347 441.34L272.707 481.046L274.59 482.841L318.113 441.34Z" fill="#F7A9D5"/>
<path d="M302.567 441.34L298.572 441.34L264.82 473.524L266.822 475.433L302.567 441.34Z" fill="#F7A9D5"/>
<path d="M287.027 441.34L282.787 441.34L256.931 465.995L259.051 468.017L287.027 441.34Z" fill="#F7A9D5"/>
<path d="M271.491 441.34L267.005 441.34L249.037 458.473L251.276 460.608L271.491 441.34Z" fill="#F7A9D5"/>
<path d="M255.943 441.34L251.228 441.34L241.148 450.951L243.506 453.2L255.943 441.34Z" fill="#F7A9D5"/>
<path d="M240.403 441.34L235.443 441.34L233.259 443.422L235.735 445.791L240.403 441.34Z" fill="#F7A9D5"/>
<path d="M347 436.361L347 434.822L343.724 437.945L344.532 438.707L347 436.361Z" fill="#F7A9D5"/>
<path d="M347 421.536L347 419.779L335.836 430.416L336.762 431.299L347 421.536Z" fill="#F7A9D5"/>
<path d="M347 406.719L347 404.728L327.948 422.894L328.993 423.89L347 406.719Z" fill="#F7A9D5"/>
<path d="M347 391.895L347 389.677L320.052 415.373L321.215 416.482L347 391.895Z" fill="#F7A9D5"/>
<path d="M347 377.078L347 374.634L312.164 407.844L313.446 409.073L347 377.078Z" fill="#F7A9D5"/>
<path d="M347 362.253L347 359.583L304.276 400.322L305.676 401.657L347 362.253Z" fill="#F7A9D5"/>
<path d="M347 347.437L347 344.532L296.38 392.8L297.907 394.249L347 347.437Z" fill="#F7A9D5"/>
<path d="M347 332.612L347 330.522L345.916 330.522L288.492 385.271L290.13 386.84L347 332.612Z" fill="#F7A9D5"/>
<path d="M333.652 330.522L330.132 330.522L280.603 377.749L282.36 379.432L333.652 330.522Z" fill="#F7A9D5"/>
<path d="M318.113 330.522L314.347 330.522L272.707 370.228L274.59 372.016L318.113 330.522Z" fill="#F7A9D5"/>
<path d="M302.567 330.522L298.572 330.522L264.82 362.699L266.822 364.607L302.567 330.522Z" fill="#F7A9D5"/>
<path d="M287.027 330.522L282.787 330.522L256.931 355.177L259.051 357.199L287.027 330.522Z" fill="#F7A9D5"/>
<path d="M271.491 330.522L267.005 330.522L249.037 347.655L251.276 349.79L271.491 330.522Z" fill="#F7A9D5"/>
<path d="M255.943 330.522L251.228 330.522L241.148 340.126L243.506 342.382L255.943 330.522Z" fill="#F7A9D5"/>
<path d="M240.403 330.522L235.443 330.522L233.259 332.604L235.735 334.966L240.403 330.522Z" fill="#F7A9D5"/>
<path d="M347 215.985L347 214.454L343.724 217.569L344.532 218.339L347 215.985Z" fill="#F7A9D5"/>
<path d="M347 201.168L347 199.403L335.836 210.048L336.762 210.93L347 201.168Z" fill="#F7A9D5"/>
<path d="M347 186.344L347 184.352L327.948 202.526L328.993 203.514L347 186.344Z" fill="#F7A9D5"/>
<path d="M347 171.527L347 169.309L320.052 194.997L321.215 196.106L347 171.527Z" fill="#F7A9D5"/>
<path d="M347 156.702L347 154.258L312.164 187.475L313.446 188.697L347 156.702Z" fill="#F7A9D5"/>
<path d="M347 141.885L347 139.207L304.276 179.954L305.676 181.289L347 141.885Z" fill="#F7A9D5"/>
<path d="M347 127.061L347 124.164L296.38 172.424L297.907 173.88L347 127.061Z" fill="#F7A9D5"/>
<path d="M347 112.244L347 110.146L345.916 110.146L288.492 164.903L290.13 166.464L347 112.244Z" fill="#F7A9D5"/>
<path d="M333.652 110.146L330.132 110.146L280.603 157.374L282.36 159.056L333.652 110.146Z" fill="#F7A9D5"/>
<path d="M318.113 110.146L314.347 110.146L272.707 149.852L274.59 151.647L318.113 110.146Z" fill="#F7A9D5"/>
<path d="M302.567 110.146L298.572 110.146L264.82 142.33L266.822 144.239L302.567 110.146Z" fill="#F7A9D5"/>
<path d="M287.027 110.146L282.787 110.146L256.931 134.801L259.051 136.823L287.027 110.146Z" fill="#F7A9D5"/>
<path d="M271.49 110.146L267.004 110.146L249.036 127.279L251.275 129.414L271.49 110.146Z" fill="#F7A9D5"/>
<path d="M255.943 110.146L251.228 110.146L241.148 119.758L243.506 122.006L255.943 110.146Z" fill="#F7A9D5"/>
<path d="M240.403 110.146L235.443 110.146L233.259 112.229L235.735 114.598L240.403 110.146Z" fill="#F7A9D5"/>
<path d="M225.728 110.146L224.114 110.146L227.389 113.27L228.196 112.5L225.728 110.146Z" fill="#F7A9D5"/>
<path d="M210.181 110.146L208.338 110.146L219.501 120.791L220.419 119.909L210.181 110.146Z" fill="#F7A9D5"/>
<path d="M194.643 110.146L192.554 110.146L211.606 128.313L212.65 127.317L194.643 110.146Z" fill="#F7A9D5"/>
<path d="M179.096 110.146L176.77 110.146L203.718 135.842L204.881 134.733L179.096 110.146Z" fill="#F7A9D5"/>
<path d="M163.556 110.146L160.993 110.146L195.829 143.364L197.11 142.142L163.556 110.146Z" fill="#F7A9D5"/>
<path d="M148.017 110.146L145.209 110.146L187.933 150.886L189.341 149.55L148.017 110.146Z" fill="#F7A9D5"/>
<path d="M132.471 110.146L129.424 110.146L180.044 158.415L181.563 156.959L132.471 110.146Z" fill="#F7A9D5"/>
<path d="M116.933 110.146L114.733 110.146L114.733 111.18L172.157 165.936L173.795 164.375L116.933 110.146Z" fill="#F7A9D5"/>
<path d="M114.733 122.874L114.733 126.231L164.261 173.458L166.025 171.783L114.733 122.874Z" fill="#F7A9D5"/>
<path d="M114.733 137.691L114.733 141.282L156.373 180.987L158.256 179.192L114.733 137.691Z" fill="#F7A9D5"/>
<path d="M114.733 152.515L114.733 156.325L148.485 188.509L150.479 186.6L114.733 152.515Z" fill="#F7A9D5"/>
<path d="M114.734 167.332L114.734 171.376L140.59 196.03L142.71 194.009L114.734 167.332Z" fill="#F7A9D5"/>
<path d="M114.733 182.149L114.733 186.427L132.7 203.56L134.939 201.425L114.733 182.149Z" fill="#F7A9D5"/>
<path d="M114.732 196.974L114.732 201.47L124.803 211.081L127.169 208.833L114.732 196.974Z" fill="#F7A9D5"/>
<path d="M114.732 211.79L114.732 216.521L116.916 218.603L119.393 216.242L114.732 211.79Z" fill="#F7A9D5"/>
<path d="M115.662 768.226L115.662 766.694L112.395 769.81L113.202 770.58L115.662 768.226Z" fill="#F7A9D5"/>
<path d="M115.662 753.409L115.662 751.644L104.506 762.289L105.424 763.171L115.662 753.409Z" fill="#F7A9D5"/>
<path d="M115.662 738.585L115.662 736.593L96.6104 754.767L97.6548 755.755L115.662 738.585Z" fill="#F7A9D5"/>
<path d="M115.662 723.768L115.662 721.55L88.7223 747.238L89.8853 748.347L115.662 723.768Z" fill="#F7A9D5"/>
<path d="M115.662 708.943L115.662 706.499L80.8263 739.716L82.1159 740.938L115.662 708.943Z" fill="#F7A9D5"/>
<path d="M115.662 694.126L115.662 691.448L72.9382 732.195L74.3386 733.53L115.662 694.126Z" fill="#F7A9D5"/>
<path d="M115.662 679.302L115.662 676.405L65.0501 724.665L66.5692 726.121L115.662 679.302Z" fill="#F7A9D5"/>
<path d="M115.662 664.485L115.662 662.387L114.578 662.387L57.1541 717.144L58.7997 718.705L115.662 664.485Z" fill="#F7A9D5"/>
<path d="M102.321 662.387L98.7926 662.387L49.2645 709.615L51.0289 711.297L102.321 662.387Z" fill="#F7A9D5"/>
<path d="M86.7754 662.387L83.0173 662.387L41.3773 702.093L43.2524 703.888L86.7754 662.387Z" fill="#F7A9D5"/>
<path d="M71.2373 662.387L67.2339 662.387L33.482 694.571L35.4837 696.48L71.2373 662.387Z" fill="#F7A9D5"/>
<path d="M55.6904 662.387L51.4497 662.387L25.5938 687.042L27.7142 689.064L55.6904 662.387Z" fill="#F7A9D5"/>
<path d="M40.1523 662.387L35.6742 662.387L17.7065 679.52L19.9455 681.655L40.1523 662.387Z" fill="#F7A9D5"/>
<path d="M24.6113 662.387L19.888 662.387L9.80829 671.999L12.1739 674.247L24.6113 662.387Z" fill="#F7A9D5"/>
<path d="M9.06543 662.387L4.10472 662.387L1.92104 664.47L4.39745 666.839L9.06543 662.387Z" fill="#F7A9D5"/>
<path d="M0.730347 222.647L0.730347 224.178L4.00586 221.062L3.19884 220.293L0.730347 222.647Z" fill="#F7A9D5"/>
<path d="M0.72994 237.464L0.72994 239.229L11.8936 228.584L10.9758 227.701L0.72994 237.464Z" fill="#F7A9D5"/>
<path d="M0.729449 252.288L0.729449 254.28L19.7891 236.106L18.7447 235.11L0.729449 252.288Z" fill="#F7A9D5"/>
<path d="M0.729045 267.105L0.729045 269.323L27.6768 243.635L26.5137 242.526L0.729045 267.105Z" fill="#F7A9D5"/>
<path d="M0.729613 281.93L0.729613 284.374L35.5654 251.156L34.2837 249.934L0.729613 281.93Z" fill="#F7A9D5"/>
<path d="M0.729094 296.747L0.729094 299.425L43.4609 258.678L42.0526 257.343L0.729094 296.747Z" fill="#F7A9D5"/>
<path d="M0.730642 311.571L0.730642 314.468L51.3506 266.207L49.8315 264.751L0.730642 311.571Z" fill="#F7A9D5"/>
<path d="M0.729257 326.388L0.729257 328.485L1.8211 328.485L59.2373 273.729L57.5995 272.167L0.729257 326.388Z" fill="#F7A9D5"/>
<path d="M14.077 328.485L17.5978 328.485L67.1338 281.251L65.3695 279.576L14.077 328.485Z" fill="#F7A9D5"/>
<path d="M29.6164 328.485L33.3825 328.485L75.0225 288.78L73.1394 286.984L29.6164 328.485Z" fill="#F7A9D5"/>
<path d="M45.1638 328.485L49.1671 328.485L82.9111 296.301L80.9174 294.393L45.1638 328.485Z" fill="#F7A9D5"/>
<path d="M60.7011 328.485L64.9419 328.485L90.8057 303.823L88.6853 301.801L60.7011 328.485Z" fill="#F7A9D5"/>
<path d="M76.2475 328.485L80.7256 328.485L98.6934 311.352L96.4543 309.217L76.2475 328.485Z" fill="#F7A9D5"/>
<path d="M91.7869 328.485L96.5103 328.485L106.582 318.874L104.224 316.626L91.7869 328.485Z" fill="#F7A9D5"/>
<path d="M107.334 328.485L112.287 328.485L114.479 326.403L111.994 324.034L107.334 328.485Z" fill="#F7A9D5"/>
<path d="M347 105.839L347 104.307L343.724 107.423L344.532 108.192L347 105.839Z" fill="#F7A9D5"/>
<path d="M347 91.0217L347 89.2563L335.836 99.9013L336.762 100.784L347 91.0217Z" fill="#F7A9D5"/>
<path d="M347 76.1972L347 74.2055L327.948 92.3797L328.993 93.368L347 76.1972Z" fill="#F7A9D5"/>
<path d="M347 61.3802L347 59.1622L320.052 84.8505L321.215 85.9595L347 61.3802Z" fill="#F7A9D5"/>
<path d="M347 46.5558L347 44.1114L312.164 77.3289L313.446 78.551L347 46.5558Z" fill="#F7A9D5"/>
<path d="M347 31.7388L347 29.0605L304.276 69.8072L305.676 71.1425L347 31.7388Z" fill="#F7A9D5"/>
<path d="M347 16.9142L347 14.0172L296.38 62.278L297.907 63.734L347 16.9142Z" fill="#F7A9D5"/>
<path d="M347 2.09731L347 0L345.916 -4.73797e-08L288.492 54.7563L290.13 56.318L347 2.09731Z" fill="#F7A9D5"/>
<path d="M333.652 0L330.132 -1.53898e-07L280.603 47.2272L282.36 48.9095L333.652 0Z" fill="#F7A9D5"/>
<path d="M318.113 0L314.347 -1.64619e-07L272.707 39.7055L274.59 41.5011L318.113 0Z" fill="#F7A9D5"/>
<path d="M302.567 0L298.572 -1.74648e-07L264.82 32.1839L266.822 34.0926L302.567 0Z" fill="#F7A9D5"/>
<path d="M287.027 0L282.787 -1.85369e-07L256.931 24.6547L259.051 26.6766L287.027 0Z" fill="#F7A9D5"/>
<path d="M271.49 0L267.004 -1.9609e-07L249.036 17.133L251.275 19.2681L271.49 0Z" fill="#F7A9D5"/>
<path d="M255.943 0L251.228 -2.06119e-07L241.148 9.61141L243.506 11.8596L255.943 0Z" fill="#F7A9D5"/>
<path d="M240.403 0L235.443 -2.1684e-07L233.259 2.08222L235.735 4.45112L240.403 0Z" fill="#F7A9D5"/>
<path d="M114.764 551.486L230.301 441.34L114.764 441.34L114.764 551.486Z" fill="#F7A9D5"/>
<path d="M114.764 882.68L230.301 772.534L114.764 772.534L114.764 882.68Z" fill="#F7A9D5"/>
<path d="M114.764 330.439L230.301 220.293L114.764 220.293L114.764 330.439Z" fill="#F7A9D5"/>
<path d="M230.301 220.293L114.764 330.439L230.301 330.439L230.301 220.293Z" fill="#F7A9D5"/>
<path d="M0.149284 220.293L115.662 330.462L115.662 220.293L0.149284 220.293Z" fill="#F7A9D5"/>
<path d="M230.301 0L114.764 110.146L230.301 110.146L230.301 0Z" fill="#F7A9D5"/>
<path d="M230.301 110.146L114.764 220.293L230.301 220.293L230.301 110.146Z" fill="#F7A9D5"/>
<path d="M222.086 432.785L222.086 330.522L230.299 330.522L230.299 440.691L222.086 432.785Z" fill="#F7A9D5"/>
<path d="M210.076 421.34L210.076 330.522L219.135 330.522L219.135 429.971L210.076 421.34Z" fill="#F7A9D5"/>
<path d="M198.075 409.888L198.075 330.522L207.308 330.522L207.308 418.692L198.075 409.888Z" fill="#F7A9D5"/>
<path d="M186.063 398.436L186.063 330.522L195.486 330.522L195.486 407.421L186.063 398.436Z" fill="#F7A9D5"/>
<path d="M174.052 386.991L174.052 330.522L183.657 330.522L183.657 396.142L174.052 386.991Z" fill="#F7A9D5"/>
<path d="M162.052 375.539L162.052 330.522L171.831 330.522L171.831 384.871L162.052 375.539Z" fill="#F7A9D5"/>
<path d="M150.042 364.087L150.042 330.522L160.011 330.522L160.011 373.593L150.042 364.087Z" fill="#F7A9D5"/>
<path d="M138.04 352.642L138.04 330.522L148.183 330.522L148.183 362.314L138.04 352.642Z" fill="#F7A9D5"/>
<path d="M126.027 341.19L126.027 330.522L136.36 330.522L136.36 351.043L126.027 341.19Z" fill="#F7A9D5"/>
<path d="M114.835 330.522L114.02 330.522L124.535 330.522L124.535 339.764L114.835 330.522Z" fill="#F7A9D5"/>
<path d="M222.086 432.785L222.086 330.522L230.299 330.522L230.299 440.691L222.086 432.785Z" fill="#F7A9D5"/>
<path d="M210.076 421.34L210.076 330.522L219.135 330.522L219.135 429.971L210.076 421.34Z" fill="#F7A9D5"/>
<path d="M198.075 409.888L198.075 330.522L207.308 330.522L207.308 418.692L198.075 409.888Z" fill="#F7A9D5"/>
<path d="M186.063 398.436L186.063 330.522L195.486 330.522L195.486 407.421L186.063 398.436Z" fill="#F7A9D5"/>
<path d="M174.052 386.991L174.052 330.522L183.657 330.522L183.657 396.142L174.052 386.991Z" fill="#F7A9D5"/>
<path d="M162.052 375.539L162.052 330.522L171.831 330.522L171.831 384.871L162.052 375.539Z" fill="#F7A9D5"/>
<path d="M150.042 364.087L150.042 330.522L160.011 330.522L160.011 373.593L150.042 364.087Z" fill="#F7A9D5"/>
<path d="M138.04 352.642L138.04 330.522L148.183 330.522L148.183 362.314L138.04 352.642Z" fill="#F7A9D5"/>
<path d="M126.027 341.19L126.027 330.522L136.36 330.522L136.36 351.043L126.027 341.19Z" fill="#F7A9D5"/>
<path d="M114.835 330.522L114.02 330.522L124.535 330.522L124.535 339.764L114.835 330.522Z" fill="#F7A9D5"/>
<path d="M0.149284 551.479L115.662 661.648L115.662 551.479L0.149284 551.479Z" fill="#F7A9D5"/>
<mask id="mask0_584_893" style="mask-type:luminance" maskUnits="userSpaceOnUse" x="0" y="551" width="116" height="111">
<path d="M0.149284 551.479L115.662 661.648L115.662 551.479L0.149284 551.479Z" fill="white"/>
</mask>
<g mask="url(#mask0_584_893)">
<path d="M117.365 665.066L117.365 658.842L100.79 658.819L106.637 665.051L117.365 665.066Z" fill="#F7A9D5"/>
<path d="M117.382 656.224L117.382 649.864L92.3567 649.826L98.3301 656.193L117.374 656.224L117.382 656.224Z" fill="#F7A9D5"/>
<path d="M117.396 647.389L117.396 640.894L83.9293 640.848L90.0373 647.352L117.404 647.389L117.396 647.389Z" fill="#F7A9D5"/>
<path d="M117.411 638.555L117.411 631.924L75.4942 631.863L81.7287 638.502L117.411 638.555Z" fill="#F7A9D5"/>
<path d="M117.42 629.713L117.42 622.946L67.0532 622.87L73.4143 629.645L117.42 629.706L117.42 629.713Z" fill="#F7A9D5"/>
<path d="M117.436 620.879L117.436 613.976L58.6268 613.893L65.1146 620.803L117.436 620.879Z" fill="#F7A9D5"/>
<path d="M117.451 612.044L117.451 605.006L50.1926 604.908L56.8069 611.954L117.451 612.037L117.451 612.044Z" fill="#F7A9D5"/>
<path d="M117.467 603.202L117.467 596.028L41.7584 595.922L48.4993 603.104L117.459 603.202L117.467 603.202Z" fill="#F7A9D5"/>
<path d="M117.475 594.368L117.475 587.058L33.3164 586.937L40.1918 594.255L117.475 594.368Z" fill="#F7A9D5"/>
<path d="M117.492 585.534L117.492 578.088L24.892 577.959L31.8939 585.413L117.5 585.534L117.492 585.534Z" fill="#F7A9D5"/>
<path d="M117.508 576.692L117.523 569.11L16.4576 568.967L23.5862 576.564L117.508 576.699L117.508 576.692Z" fill="#F7A9D5"/>
<path d="M117.523 567.858L117.539 560.14L8.03131 559.981L15.2865 567.714L117.531 567.858L117.523 567.858Z" fill="#F7A9D5"/>
<path d="M117.547 551.162L-0.410698 550.996L6.97105 558.865L117.531 559.023L117.547 551.162Z" fill="#F7A9D5"/>
</g>
<path d="M0.14928 440.691L115.662 330.522L115.662 440.691L0.14928 440.691Z" fill="#F7A9D5"/>
<mask id="mask1_584_893" style="mask-type:luminance" maskUnits="userSpaceOnUse" x="0" y="330" width="116" height="111">
<path d="M0.14928 440.691L115.662 330.522L115.662 440.691L0.14928 440.691Z" fill="white"/>
</mask>
<g mask="url(#mask1_584_893)">
<path d="M106.645 327.12L100.799 333.351L117.382 333.329L117.382 327.105L106.645 327.12Z" fill="#F7A9D5"/>
<path d="M98.3388 335.969L92.3654 342.337L117.398 342.299L117.398 335.939L98.3388 335.969Z" fill="#F7A9D5"/>
<path d="M90.0293 344.811L83.9214 351.314L117.404 351.269L117.404 344.773L90.0293 344.811Z" fill="#F7A9D5"/>
<path d="M81.7208 353.661L75.4863 360.3L117.411 360.239L117.411 353.608L81.7129 353.661L81.7208 353.661Z" fill="#F7A9D5"/>
<path d="M73.422 362.51L67.0609 369.285L117.436 369.209L117.436 362.442L73.422 362.502L73.422 362.51Z" fill="#F7A9D5"/>
<path d="M65.1144 371.359L58.6267 378.27L117.451 378.187L117.451 371.284L65.1144 371.359Z" fill="#F7A9D5"/>
<path d="M56.8067 380.209L50.1924 387.255L117.467 387.157L117.467 380.118L56.8147 380.201L56.8067 380.209Z" fill="#F7A9D5"/>
<path d="M48.4992 389.058L41.7583 396.24L117.475 396.135L117.475 388.96L48.4992 389.058Z" fill="#F7A9D5"/>
<path d="M40.1927 397.908L33.3173 405.226L117.483 405.105L117.483 397.795L40.1927 397.908Z" fill="#F7A9D5"/>
<path d="M31.8928 406.757L24.8909 414.211L117.507 414.083L117.507 406.636L31.8928 406.757Z" fill="#F7A9D5"/>
<path d="M23.5852 415.607L16.4567 423.204L117.522 423.06L117.507 415.478L23.5852 415.614L23.5852 415.607Z" fill="#F7A9D5"/>
<path d="M15.2787 424.456L8.0235 432.189L117.531 432.03L117.515 424.313L15.2707 424.456L15.2787 424.456Z" fill="#F7A9D5"/>
<path d="M117.547 441.001L117.531 433.147L6.97105 433.298L-0.410698 441.167L117.547 441.001Z" fill="#F7A9D5"/>
</g>
<path d="M115.662 220.293L0.125542 110.146L115.662 110.146L115.662 220.293Z" fill="#F7A9D5"/>
<mask id="mask2_584_893" style="mask-type:luminance" maskUnits="userSpaceOnUse" x="0" y="110" width="116" height="111">
<path d="M115.662 220.293L0.125542 110.146L115.662 110.146L115.662 220.293Z" fill="white"/>
</mask>
<g mask="url(#mask2_584_893)">
<path d="M-3.44336 118.747L3.0918 124.322L3.06806 108.509L-3.4592 108.509L-3.44336 118.747Z" fill="#F7A9D5"/>
<path d="M5.83705 126.668L12.5146 132.364L12.4751 108.494L5.80543 108.494L5.83705 126.668Z" fill="#F7A9D5"/>
<path d="M15.1185 134.59L21.9385 140.414L21.891 108.487L15.0789 108.487L15.1185 134.59Z" fill="#F7A9D5"/>
<path d="M24.3979 142.504L31.3603 148.449L31.2971 108.472L24.3426 108.472L24.3979 142.511L24.3979 142.504Z" fill="#F7A9D5"/>
<path d="M33.6716 150.425L40.7764 156.491L40.6972 108.457L33.6003 108.457L33.6636 150.425L33.6716 150.425Z" fill="#F7A9D5"/>
<path d="M42.952 158.347L50.1992 164.533L50.1122 108.441L42.8728 108.441L42.952 158.347Z" fill="#F7A9D5"/>
<path d="M52.2314 166.268L59.6211 172.575L59.5182 108.427L52.1365 108.427L52.2235 166.261L52.2314 166.268Z" fill="#F7A9D5"/>
<path d="M61.5129 174.19L69.0449 180.618L68.9341 108.419L61.41 108.419L61.5129 174.19Z" fill="#F7A9D5"/>
<path d="M70.7933 182.104L78.4678 188.66L78.3412 108.404L70.6746 108.404L70.7933 182.104Z" fill="#F7A9D5"/>
<path d="M80.0737 190.025L87.8906 196.702L87.7561 108.389L79.9471 108.389L80.0737 190.025Z" fill="#F7A9D5"/>
<path d="M89.355 197.947L97.3223 204.744L97.1719 108.374L89.2206 108.389L89.363 197.947L89.355 197.947Z" fill="#F7A9D5"/>
<path d="M98.6345 205.868L106.744 212.786L106.578 108.366L98.4842 108.381L98.6345 205.876L98.6345 205.868Z" fill="#F7A9D5"/>
<path d="M115.985 108.351L107.749 108.358L107.915 213.79L116.159 220.828L115.985 108.351Z" fill="#F7A9D5"/>
</g>
<path d="M338.788 322.563L338.788 220.293L347 220.293L347 330.462L338.788 322.563Z" fill="#F7A9D5"/>
<path d="M326.786 311.111L326.786 220.293L335.837 220.293L335.837 319.741L326.786 311.111Z" fill="#F7A9D5"/>
<path d="M314.776 299.659L314.776 220.293L324.017 220.293L324.017 308.47L314.776 299.659Z" fill="#F7A9D5"/>
<path d="M302.764 288.214L302.765 220.293L312.188 220.293L312.187 297.192L302.764 288.214Z" fill="#F7A9D5"/>
<path d="M290.761 276.762L290.761 220.293L300.358 220.293L300.358 285.92L290.761 276.762Z" fill="#F7A9D5"/>
<path d="M278.752 265.317L278.752 220.293L288.539 220.293L288.539 274.642L278.752 265.317Z" fill="#F7A9D5"/>
<path d="M266.751 253.865L266.751 220.293L276.712 220.293L276.712 263.363L266.751 253.865Z" fill="#F7A9D5"/>
<path d="M254.74 242.413L254.74 220.293L264.891 220.293L264.891 252.092L254.74 242.413Z" fill="#F7A9D5"/>
<path d="M242.729 230.968L242.729 220.293L253.062 220.293L253.062 240.813L242.729 230.968Z" fill="#F7A9D5"/>
<path d="M231.544 220.293L230.729 220.293L241.236 220.293L241.236 229.542L231.544 220.293Z" fill="#F7A9D5"/>
<path d="M230.268 773.213L345.805 663.066L230.268 663.066L230.268 773.213Z" fill="#F7A9D5"/>
<path d="M338.33 875.558L338.33 773.296L346.542 773.296L346.542 883.465L338.33 875.558Z" fill="#F7A9D5"/>
<path d="M326.327 864.114L326.327 773.296L335.378 773.296L335.378 872.744L326.327 864.114Z" fill="#F7A9D5"/>
<path d="M314.318 852.661L314.318 773.296L323.559 773.296L323.559 861.473L314.318 852.661Z" fill="#F7A9D5"/>
<path d="M302.314 841.217L302.314 773.296L311.729 773.296L311.729 850.194L302.314 841.217Z" fill="#F7A9D5"/>
<path d="M290.304 829.765L290.304 773.296L299.909 773.296L299.909 838.923L290.304 829.765Z" fill="#F7A9D5"/>
<path d="M278.294 818.312L278.294 773.296L288.081 773.296L288.081 827.645L278.294 818.312Z" fill="#F7A9D5"/>
<path d="M266.293 806.868L266.293 773.296L276.254 773.296L276.254 816.366L266.293 806.868Z" fill="#F7A9D5"/>
<path d="M254.282 795.415L254.282 773.296L264.433 773.296L264.433 805.095L254.282 795.415Z" fill="#F7A9D5"/>
<path d="M242.279 783.971L242.279 773.296L252.604 773.296L252.604 793.816L242.279 783.971Z" fill="#F7A9D5"/>
<path d="M231.085 773.296L230.27 773.296L240.785 773.296L240.785 782.545L231.085 773.296Z" fill="#F7A9D5"/>
</svg>
