<?xml version="1.0" encoding="UTF-8"?>
<svg width="41px" height="41px" viewBox="0 0 41 41" version="1.1" xmlns="http://www.w3.org/2000/svg" xmlns:xlink="http://www.w3.org/1999/xlink">
    <!-- Generator: Sketch 53.2 (72643) - https://sketchapp.com -->
    <title>001-facebook-logo-in-circular-button-outlined-social-symbol</title>
    <desc>Created with Sketch.</desc>
    <g id="Symbols" stroke="none" stroke-width="1" fill="none" fill-rule="evenodd">
        <g id="Footer/Desktop" transform="translate(-763.000000, -123.000000)" fill-rule="nonzero">
            <g id="Footer">
                <g id="Social-buttons" transform="translate(764.000000, 123.735930)">
                    <g id="001-facebook-logo-in-circular-button-outlined-social-symbol" transform="translate(0.600050, 0.831828)">
                        <path d="M37.4322419,18.8855618 C37.4322419,8.5491253 29.0524963,0.169440863 18.716121,0.169440863 C8.37968444,0.169440863 0,8.5491253 0,18.8855618 C0,29.2219372 8.37968444,37.6016828 18.716121,37.6016828 C29.0524963,37.6016828 37.4322419,29.2219372 37.4322419,18.8855618 Z" id="Path" stroke="#E0DDE0" stroke-width="2"></path>
                        <path d="M19.4820465,27.6119265 L19.4820465,18.5998588 L22.4557936,18.5998588 L22.9256415,15.6133552 L19.4820465,15.6133552 L19.4820465,14.1158427 C19.4820465,13.3365729 19.737534,12.5927662 20.856076,12.5927662 L23.0916803,12.5927662 L23.0916803,9.6119265 L19.917809,9.6119265 C17.2492487,9.6119265 16.521056,11.3691616 16.521056,13.8049921 L16.521056,15.6119775 L14.6899862,15.6119775 L14.6899862,18.5998588 L16.521056,18.5998588 L16.521056,27.6119265 L19.4820465,27.6119265 L19.4820465,27.6119265 Z" id="Path" fill="#E0DDE0"></path>
                    </g>
                </g>
            </g>
        </g>
    </g>
</svg>