<svg xmlns="http://www.w3.org/2000/svg" width="334" height="334" viewBox="0 0 334 334">
    <g fill="none" fill-rule="nonzero" opacity=".91" transform="translate(-.028 -.028)">
        <circle cx="166.929" cy="167.025" r="166.703" fill="#EFEFEF"/>
        <g fill="#FFF">
            <path d="M315.812 91.965c-.464-.92-.937-1.84-1.421-2.75v74.754h1.42V91.965zM.255 163.97v1.42h14.63v-1.42H.256zM14.87 235.443c.459 1.024.935 2.044 1.416 3.06V165.39H14.87v70.052zM16.303 95.552c-.48 1.011-.957 2.035-1.417 3.06v65.357h1.417V95.552zM333.62 165.39c0-.476 0-.948-.021-1.42h-17.787v1.42h17.808zM314.39 244.836c.485-.911.958-1.831 1.422-2.75V165.39h-1.421v79.445zM83.295 163.97l-.08.18.544 1.253h79.868v-1.421zM165.048 163.969H240.1v1.421h-75.052zM81.18 163.97H16.303v1.42h64.576l.301-.685zM243.29 165.39h71.1v-1.42h-71.582l-.083.18z"/>
            <path d="M281.818 242.002c-12.16-19.815-24.245-45.845-37.028-73.405a485.694 485.694 0 0 1-1.488-3.206h-1.154l.577-1.254-.084-.18h.167l1.982-4.272c12.787-27.556 24.868-53.587 37.028-73.401 5.783-9.422 11.235-16.777 16.357-22.063-.346-.443-.698-.882-1.049-1.321-17.603 18.067-35.34 56.287-53.837 96.112l-1.467 3.18-.301-.651V17.908c-.472-.238-.949-.472-1.421-.702v141.291c-24.116-51.772-48.997-102.24-75.052-106.959V.338h-1.421V51.33c-.833-.1-1.67-.15-2.509-.15-28.362 0-53.887 54.342-78.5 110.295V23.2c-.477.276-.949.56-1.421.836v135.477l-1.844-4.21C63.786 119.773 48.8 85.549 33.923 66.542l-1.012 1.354a148.64 148.64 0 0 1 10.973 16.671c11.107 19.204 22.214 44.557 33.969 71.398l3.344 7.63v.375h.163c.029.059.054.122.08.18-.08.188-.16.372-.243.556v.686h-.301c-1.015 2.315-2.03 4.631-3.043 6.947-11.755 26.841-22.862 52.19-33.969 71.398-4.62 7.987-9.011 14.45-13.172 19.388.326.456.652.916.982 1.371 15.605-18.322 31.315-54.184 47.655-91.5l1.844-4.21V310.01l1.42.836V166.824c24.601 55.982 50.126 110.3 78.489 110.3a22.18 22.18 0 0 0 2.508-.15v56.72l1.421.022V276.76c26.055-4.72 50.936-55.179 75.052-106.963V316.86c.472-.23.949-.464 1.421-.702V166.745l.301-.648 1.484 3.202c19.38 41.756 37.94 81.744 56.383 98.574l1.007-1.338c-5.864-5.413-12.13-13.56-18.86-24.533zM165.048 275.1V165.39h-1.421v109.94c-.832.104-1.67.157-2.509.158-12.958 0-26.711-12.398-42.028-37.902-12.122-20.165-23.881-46.191-35.314-72.192h-1.087c.18-.418.36-.836.543-1.254l-.079-.18h.159c11.58-26.348 23.489-52.805 35.762-73.25 15.316-25.5 29.06-37.898 42.028-37.898.838.001 1.676.054 2.508.159v110.997h1.421V53.193c25.646 4.937 50.723 56.851 75.052 109.192v1.58h.736l.083.18-.577 1.254h-.242v.523c-24.312 52.328-49.39 104.246-75.035 109.179z"/>
        </g>
        <path fill="#BFBFBF" d="M215.227 236.99c-20.002-27.147-47.06-33.233-51.417-34.596-4.355-1.363-3.197-4.251-4.543-10.94-.924-4.598-.247-6.843.263-7.792 40.151-2.562 71.925-35.95 71.925-76.732-.873-41.845-35.045-75.312-76.9-75.312-41.854 0-76.026 33.467-76.899 75.312 0 38.784 28.714 70.863 66.048 76.139 0 0 6.065 12.093-4.072 19.011-10.233 6.986-28.977 7.525-49.118 33.442C71.88 259.538 66.27 286.02 66.27 302.406h171.887s-2.926-38.274-22.929-65.416z" opacity=".2"/>
        <path fill="#FF4AA0" d="M217.873 222.91c-19.952-19.124-34.921-20.738-41.948-25.01l-12.579.071-12.582-.07c-7.023 4.271-21.992 5.885-41.944 25.01C78.81 251.67 77.4 298.25 77.4 298.25h171.89s-1.404-46.58-31.418-75.34z"/>
        <circle cx="165.52" cy="102.75" r="77.723" fill="#FFAE00"/>
        <path fill="#723F33" d="M153.832 174.767c3.762 7.817 3.909 18.288-2.508 23.133 0 0 2.458 4.105 11.726 4.222 9.267.117 11.88-3.908 11.88-3.908s-4.536-3.127-4.536-10.94c0-8.047 1.723-12.507 1.723-12.507h-18.285z"/>
        <path fill="#542C1C" d="M170.474 179.516l-.418.69c-6.689 10.496-16.182 16.511-18.707 17.694 0 0 4.966-4.063 4.966-9.455 0-3.663-.442-7.312-1.316-10.869l8.473 5.1 7.002-3.16z" opacity=".28" style="mix-blend-mode:multiply"/>
        <ellipse cx="152.628" cy="168.685" fill="#603826" opacity=".6" rx="3.658" ry="5.376" style="mix-blend-mode:multiply"/>
        <path fill="#C40E50" d="M227.935 296.93c2.216-3.411 3.662-7.29 1.037-10.869a1.701 1.701 0 0 0-.251-.025c-5-.136-10-.265-15.003-.384-.836-14.631-.865-29.262-.81-43.939a1.56 1.56 0 0 0-1.535-1.521 161.35 161.35 0 0 0-4.494-.071c-1.254-1.213-3.93-.699-3.854 1.542.46 13.172 1.304 26.335 2.621 39.453.552 5.501.527 11.562 5.518 15.049 4.306 3.001 9.615 2.62 14.551 3.624.707-.978 1.464-1.919 2.22-2.86z"/>
        <path fill="#603826" d="M143.691 164.049V160.6c0-1.15.163-2.312-.15-3.39a.418.418 0 0 0-.026-.527 4.126 4.126 0 0 0-5.2-.986c-2.303 1.254-2.98 4.506-2.863 6.926.117 2.42 1.367 4.82 3.762 5.53a3.967 3.967 0 0 0 5.016-2.925.995.995 0 0 0-.539-1.18z"/>
        <path fill="#C40E50" d="M92.295 299.986v.63c0 .222.03.448.042.67l.794-.055a9.008 9.008 0 0 0-.836-1.245zM120.336 240.417a2.926 2.926 0 0 0-.196-.418h-3.625a1.555 1.555 0 0 1-.56-.113h-.643l-.063.1c-1.781 3.47-1.672 7.429-1.902 11.233-.255 4.301-.418 8.607-.644 12.913l-1.145 23.664a99.54 99.54 0 0 0-17.432.389c-.591.34-1.1.806-1.488 1.367a3.344 3.344 0 0 0-.368.86v1.623c.025.083.054.167.08.242.239.683.518 1.352.836 2.002.877 1.468 2.115 2.847 2.83 3.955a1.304 1.304 0 0 1-.138 1.672c.193.351.354.72.48 1.1l7.5-.494c1.07-.067 1.94-1.33 1.726-2.353a7.366 7.366 0 0 0-3.942-5.096c1.254.138 2.467.355 3.6.49 4.706.555 11.746 3.093 14.187-1.598 1.283-2.47-.092-8.423 0-11.136l.389-10.162c.256-6.658.474-13.32.652-19.986.05-1.985.117-3.975.142-5.965.03-1.375.23-2.955-.276-4.289z"/>
        <path fill="#723F33" d="M189.118 157.369a3.762 3.762 0 0 0-2.66-1.434 53.36 53.36 0 0 0-1.048-17.9c-1.254-5.564-4.845-7.971-4.845-7.971s-9.067 6.876-16.57 6.876c-7.504 0-16.567-6.876-16.567-6.876s-3.574 2.407-4.845 7.971c-2.508 10.944-2.144 25.395 5.468 33.605 7.612 8.21 15.943 11.257 15.943 11.257s8.332-3.043 15.944-11.257a21.6 21.6 0 0 0 3.156-4.431 2.73 2.73 0 0 0 2.755.523c1.877-.627 2.876-2.65 3.582-4.348.79-1.948 1.066-4.268-.313-6.015z"/>
        <path fill="#542C1C" d="M168.308 166.791l-4.782 2.203c-.037-.485-.305-2.951-.305-10.869 0-5.237-11.512-7.269-11.805-12.269-.292-5 .314-8.832 7.525-9.781 0 0-3.47-1.476-6.405-2.805a22.155 22.155 0 0 1-5.037-3.202s-3.097 1.672-4.452 6.542c-1.78 6.433-2.044 10.697-1.312 22.473.886 14.313 21.808 23.61 21.808 23.61s-1.04-1.28-3.934-7.06c-.046-.089-.083-.172-.125-.26a23.827 23.827 0 0 0 3.248-1.304c4.782-2.35 5.576-7.278 5.576-7.278z" opacity=".28" style="mix-blend-mode:multiply"/>
        <path fill="#FF4AA0" d="M183.186 159.927a11.149 11.149 0 0 0-1.764-3.791c-.627-.895-1.371-2.036-2.412-2.47-2.446-1.02-5.681-1.138-7.617 1.822a21.378 21.378 0 0 0-2.386 5.258c-3.035-2.136-6.944-2.575-10.196-.91 0-1.87-2.709-5.778-4.933-7.178-2.892-1.823-6.5-1.56-8.674 1.254-2.09 2.692-2.759 6.826-2.566 10.15.259 4.506 2.926 11.8 9.067 10.993 6.387-.836 7.904-8.686 7.394-13.623 0-.084-.02-.163-.029-.247 3.01-1.517 7.002-1.216 9.372 1.33.034.033.07.063.109.092-.836 4.439.13 9.271 3.219 12.085 3.089 2.813 7.524 1.58 9.685-1.764 2.27-3.512 2.684-9 1.73-13zm-33.63 13.134c-4.306-1.35-5.3-7.654-5.041-11.24.192-2.617.543-5.489 2.39-7.34 3.345-3.345 8.963 1.3 9.991 6.771.025.15 0 .297.059.418.723 6.02-2.517 12.921-7.4 11.391zm26.97 1.317c-4.731 1.028-6.575-5.76-6.483-9.221a14.133 14.133 0 0 1 1.555-5.949c.51-.944 1.068-1.86 1.672-2.746.293-.46 2.12-1.97 3.967-1.28a5.928 5.928 0 0 1 2.132 1.56c1.484 1.63 2.065 3.866 2.2 6.02.27 3.858-.348 10.592-5.042 11.612v.004z"/>
        <path fill="#603826" d="M142.165 159.078c-2.224-.614-4.694 1.2-5.217 3.345-.242.99 1.208 1.254 1.522.322.177-.557.489-1.06.907-1.468.255 1.33.113 2.588.159 3.934a.497.497 0 0 0 .945.138c.514-1.46.23-3.232-.176-4.699a5.087 5.087 0 0 1 1.768-.418.579.579 0 1 0 .092-1.154zM185.263 158.502c1.877-.193 3.457 1.93 3.437 4.013a.64.64 0 1 1-1.255.041 3.536 3.536 0 0 0-.418-1.525c-.468 1.2-.614 2.4-.923 3.649a.393.393 0 0 1-.778-.03c-.104-1.458.48-3.063 1.095-4.363a3.578 3.578 0 0 0-1.304-.707c-.53-.159-.384-1.024.146-1.078z" opacity=".4" style="mix-blend-mode:multiply"/>
        <path fill="#FFAE00" d="M184.13 148.841c-1.78-4.076-7.741-5.932-11.466-3.47-.543.364-.209 1.3.464 1.087 1.81-.568 3.578-.836 5.435-.23 2.019.678 2.842 2.266 4.33 3.587a.803.803 0 0 0 1.238-.974zM156.817 144.427c-1.806-.937-4.519-.448-6.408.062-2.178.586-4.344 1.622-5.899 3.286-.393.418.092 1.17.632.836 1.818-1.082 3.553-2.09 5.643-2.57 1.969-.448 3.913.033 5.852-.293a.736.736 0 0 0 .18-1.321z"/>
        <rect width="89.093" height="60.801" x="119.011" y="235.857" fill="#F4F4F4" rx="1.7"/>
        <rect width="83.717" height="59.811" x="121.787" y="238.465" fill="#000" rx="1.63"/>
        <path fill="#DBDDDC" d="M100.743 292.36h125.62a5.89 5.89 0 0 1-5.89 5.89H106.642a5.89 5.89 0 0 1-5.899-5.89z"/>
        <path fill="#B2B2B2" d="M106.642 298.25h113.831a5.852 5.852 0 0 0 4.992-2.78H101.646a5.877 5.877 0 0 0 4.996 2.78z"/>
        <path fill="#2146AD" d="M62.703 298.25c60.387 47.304 145.256 47.304 205.642 0H62.703z"/>
        <path fill="#E09220" d="M130.385 128.613c-1.112-.163-2.09.196-3.156.49-1.279.354-1.534.028-2.069-1.02-.874-1.727-1.747-3.345-3.842-3.713-1.09-.188-2.119.117-3.168.376-1.359.343-1.973.314-2.287-1.15-.418-1.985.418-4.15-1.183-5.793-1.6-1.643-4.075-1.066-5.823 0-.81.489-1.918 1.672-2.964 1.442-1.463-.343-1.496-2.424-1.4-3.587.213-2.554 1.254-5.333-.51-7.582-.648-.837-2.031-.368-1.756.765 1.012 4.121-2.95 10.45 2.09 13.121 2.053 1.091 4.005 0 5.757-1.087.886-.556 2.311-1.471 2.32.226a18.61 18.61 0 0 0 .075 3.014c.305 1.856 1.308 3.695 3.24 4.239.964.224 1.97.206 2.926-.055 1.116-.242 1.977-.836 2.721.218 1.054 1.475 1.254 3.164 3.052 4.055.949.42 2.01.513 3.018.267.35-.067 2.85-.798 2.872-.635.221 1.755 2.821 2.324 3.277.368.493-2.128-1.204-3.662-3.19-3.959zM128.333 153.372c-1.96-1.705-4.201-1.42-6.634-1.287-1.254.071-2.81.142-3.796-.815-.986-.957-.552-2.329-1.1-3.486a.598.598 0 0 0-.802-.214c-2.67 1.321-.271 5.573 1.51 6.555 2.925 1.597 6.462-.397 9.304 1.216 1.213.678 2.642-1.007 1.518-1.969zM211.75 150.517c-1.284 1.054-2.801 2.458-4.561 2.42-1.614-.037-2.508-1.713-4.097-2.023a4.928 4.928 0 0 0-3.612.883c-.74.476-3.616 3.365-4.477 1.793-.664-1.217-2.57-.38-1.977.903a3.449 3.449 0 0 0 3.762 2.01c2.015-.284 4.352-3.565 6.27-2.42.79.477 1.255 1.254 2.166 1.635a5.627 5.627 0 0 0 2.847.418c2.307-.26 4.075-1.672 5.706-3.228 1.442-1.366-.46-3.674-2.028-2.39z"/>
        <ellipse cx="175.636" cy="167.673" fill="#603826" opacity=".28" rx="3.658" ry="5.376" style="mix-blend-mode:multiply"/>
        <path fill="#C40E50" d="M110.061 226.92a66.403 66.403 0 0 0-8.753 10.228 1.108 1.108 0 0 0 1.672 1.447 67.72 67.72 0 0 0 8.732-10.597c.673-1.012-.903-1.768-1.65-1.079zM96.308 246.14c-2.031 1.371-3.465 3.98-4.46 6.162a19.726 19.726 0 0 0-1.81 7.683c-.038 1.563 2.303 1.927 2.466.305.205-2.323.75-4.603 1.618-6.768.924-2.215 2.45-3.912 3.616-5.952.552-.966-.414-2.12-1.43-1.43zM87.312 273.433a50.393 50.393 0 0 0-3.925 16.997c-.063 1.312 2.174 1.538 2.324.209a86.87 86.87 0 0 1 3.374-16.554c.322-1.012-1.359-1.651-1.773-.652zM221.26 230.89c-3.45-3.837-7.483-7.411-11.417-10.743a.983.983 0 0 0-1.375 1.405c3.47 3.762 7.232 7.662 11.178 10.956a1.142 1.142 0 1 0 1.613-1.617zM236.48 257.418c-.39-1.534-1.33-2.955-2.057-4.36-.765-1.475-1.522-2.96-2.3-4.43-1.513-2.864-2.925-5.895-4.752-8.562a.895.895 0 0 0-1.56.836c1.12 3.106 2.801 6.074 4.281 9.021.723 1.438 1.463 2.872 2.199 4.306.736 1.434 1.317 2.976 2.337 4.18a1.062 1.062 0 0 0 1.852-.99zM241.408 275.201c-.686-2.734-1.308-5.497-2.115-8.197-.418-1.367-2.379-.837-2.124.56.514 2.775 1.22 5.518 1.856 8.268.519 2.228.69 5.393 2.203 7.173a.907.907 0 0 0 1.51-.388c.551-2.283-.77-5.188-1.33-7.416zM245.342 299.175l-.757-9.118c-.105-1.279-2.06-1.166-1.994.122l.477 8.674c.756.113 1.517.221 2.274.322zM172.392 196.446c-1.571 1.111-2.926 2.386-4.677 3.248a15.078 15.078 0 0 1-5.786 1.504 16.763 16.763 0 0 1-5.68-.756c-1.844-.552-3.529-1.948-5.397-2.262-.72-.117-1.714.418-1.392 1.313.769 2.09 3.039 3.344 4.97 4.255a17.498 17.498 0 0 0 7.378 1.672c4.787 0 10.505-1.964 13.473-5.898 1.27-1.705-1.124-4.305-2.889-3.076z"/>
        <path fill="#FFF" d="M142.077 244.61c-4.966-.192-10.396-.451-15.312.339-.798.13-1.087 1.392-.138 1.546 5.017.811 10.501.556 15.55.36 1.468-.059 1.322-2.19-.1-2.245zM157.933 251.081c-7.328.184-14.63.297-21.971.326-1.22 0-1.33 1.898-.096 1.902 7.318.028 14.63.137 21.933.326 1.66.046 1.773-2.596.134-2.554zM143.561 258.43c-5.016-.142-10.25-.276-15.253.163-1.371.121-1.413 2.316 0 2.437 5.016.418 10.229.314 15.25.171 1.55-.046 1.588-2.73.003-2.771zM180.046 269.625c-7.035-.502-14.25-.155-21.319-.092l-10.655.092c-3.637.029-7.433-.163-11.027.392-1.075.168-1.158 1.769-.038 1.944 3.315.514 6.797.364 10.15.389l11.09.096c7.19.063 14.555.418 21.737-.08 1.538-.104 1.634-2.624.062-2.741zM142.128 279.28a64.217 64.217 0 0 0-12.42.252c-1.011.125-1.442 1.801-.221 1.956 4.208.504 8.456.596 12.682.276a1.254 1.254 0 0 0-.041-2.483zM169.353 279.657c-4.393-.038-8.853-.08-13.23.276-1.095.088-1.254 1.898-.096 1.99 4.49.36 9.046.322 13.548.284 1.655-.013 1.396-2.55-.222-2.55z"/>
        <path fill="#FF4AA0" d="M132.647 270.114c-2.111-.01-4.22.13-6.312.418-.924.133-1.192 1.6-.13 1.755 2.188.296 4.393.436 6.6.418 1.66.005 1.522-2.662-.158-2.591zM132.367 250.926c-1.777.056-3.54.328-5.25.811-.536.15-.79 1.025-.118 1.208 1.78.502 3.615.783 5.464.836 2.073.088 2.019-2.922-.096-2.855zM151.767 279.197a53.31 53.31 0 0 0-6.053.502c-.974.142-.836 1.526.067 1.672 1.908.274 3.83.44 5.756.497 1.74.038 1.92-2.725.23-2.67zM171.494 258.338c-3.804-.326-7.775.05-11.596.104-3.82.055-7.725.122-11.588.301-1.375.063-1.287 2.053.059 2.116 3.87.18 7.733.242 11.608.3 3.875.06 7.796.419 11.6.105 1.902-.15 1.764-2.755-.083-2.926z"/>
        <path fill="#E09220" d="M144.44 71.34a4.778 4.778 0 0 0-1.635-1.597c-1.07-.694-1.831-.903-1.016-2.157 1.798-2.767.707-4.95-1.693-6.208.269-.185.513-.402.727-.648.28-.399.462-.856.535-1.337a4.005 4.005 0 0 0-.693-2.897c-.74-1.125-1.806-1.647-2.927-2.287-.196-.1-.384-.205-.572-.313.69-.418 1.613-.874 1.785-.958 1.358-.668.61-2.805-.87-2.508-2.056.418-6.358 2.345-4.147 5.017.945 1.137 3.641 1.496 4.18 2.809.419 1.04-1.834 2.014-1.822 3.47 0 1.53 1.07 1.86 2.262 2.29.877.322 1.488.702 1.095 1.618-.243.56-.836.999-1.141 1.559a3.26 3.26 0 0 0 .213 3.461c.33.464 2.788 2.508 3.097 2.253-1.626 1.305.552 3.717 2.17 2.404 1.241-1.033 1.25-2.634.451-3.971zM184.039 72.268a4.912 4.912 0 0 0-.795-2.149c-.668-1.078-1.254-1.597 0-2.378 2.814-1.731 2.763-4.18 1.137-6.333.323-.054.637-.147.937-.276.422-.24.782-.576 1.053-.979a4.005 4.005 0 0 0 .619-2.926c-.188-1.329-.924-2.257-1.672-3.323a9.345 9.345 0 0 1-.38-.527c.798-.075 1.83-.1 2.023-.1 1.509-.02 1.755-2.27.284-2.63-2.04-.497-6.747-.61-5.89 2.739.368 1.433 2.65 2.926 2.562 4.322-.067 1.124-2.508 1.037-3.135 2.358-.648 1.383.172 2.136 1.062 3.039.656.664 1.04 1.254.293 1.93-.456.419-1.196.536-1.698.92a3.265 3.265 0 0 0-1.291 3.22c.1.555 1.446 3.448 1.83 3.344-2.027.484-1.095 3.599.929 3.105 1.605-.38 2.278-1.81 2.132-3.356zM145.346 112.344a18.21 18.21 0 0 0-6.02-4.578c-.89-.418-2.796-.719-3.03-1.705-.2-.836.376-2.053.285-2.96-.222-2.186-2.003-3.29-4.064-3.344-.585 0-2.382.313-2.566-.192-.15-.418.936-2.241.949-2.927.033-1.927-1.451-3.19-3.202-3.64a10.869 10.869 0 0 0-2.902-.193c-.418 0-1.329.167-1.697-.104-.777-.573-.3-1.522-.13-2.228.452-1.84.678-4.089-1.099-5.343-1.166-.836-2.734-.192-3.762-.907-1.363-.953-.15-3.202.38-4.372.531-1.17-1.137-2.162-1.96-1.167-1.635 1.978-3.018 4.406-1.701 6.969a3.971 3.971 0 0 0 2.115 1.89c.656.246 1.325.091 1.973.246 1.35.326 1.057.974.815 1.969-.535 2.199-.748 4.598 1.572 5.852 1.056.5 2.225.715 3.39.627.836 0 2.797-.372 2.725.723-.07 1.096-1.074 1.89-1.011 3.11a3.26 3.26 0 0 0 1.647 2.634 5.2 5.2 0 0 0 2.88.602c.418 0 1.78-.372 2.115-.067.335.305.063 1.22 0 1.593-.376 2.244-.033 4.159 2.25 5.133 1.446.619 2.863.987 4.217 1.84a20.483 20.483 0 0 1 3.428 2.871c1.37 1.35 3.64-.886 2.403-2.332zM202.912 76.674c-2.98.69-10.571 2.019-8.778 6.688.352.735.787 1.428 1.296 2.065.953 1.405.577 2.609-.61 3.762-1.593 1.53-3.742 2.324-5.113 4.122-1.145 1.497-1.434 2.926-.025 4.314.32.292.658.565 1.012.815l.342.255c.385.28.418.33.109.155-.559.356-1.09.75-1.593 1.183-.572.522-1.15 1.036-1.722 1.555-1.442 1.304-3.19 2.663-2.128 4.778.481.953 1.284 1.505.448 2.612-.836 1.108-2.534 1.255-3.683 1.693-1.722.682-1.133 3.458.773 3.198 2.324-.313 4.933-1.42 6.107-3.574a4.862 4.862 0 0 0 .582-3.252 4.527 4.527 0 0 0-.623-1.563c-.096-.122-.188-.247-.285-.372 1.066-1.254 2.43-2.304 3.625-3.407.898-.836 1.877-1.589 1.973-2.897.134-1.764-1.28-2.354-2.283-3.344 1.932-3.04 6.542-3.95 6.986-8.19.209-1.968-1.054-2.77-1.643-4.401-.268-.744-.494-.811.309-1.376a9.615 9.615 0 0 1 1.714-.769 38.646 38.646 0 0 1 3.888-1.375c1.454-.451.86-3.035-.678-2.675zM226.798 83.003c-.28.836-2.462.53-3.244.702A3.704 3.704 0 0 0 221 85.49c-.556 1.016-.175 2.207-.593 3.177-.289.669.1.543-.761.3-.502-.137-.97-.555-1.468-.74-1.94-.714-3.85.068-4.48 2.09-.419 1.255-.264 2.664-.302 3.976 0 .694-.296 6.233-1.38 5.602-1.458-.836-2.695 1.254-1.35 2.207 2.797 1.986 4.933-1.137 5.289-3.637.292-2.069.234-4.121.38-6.195.075-1.05.293-1.404 1.342-1.032.64.23 1.158.668 1.835.836a2.96 2.96 0 0 0 2.968-.836c.966-1.075.623-2.287.978-3.545.468-1.672 2.58-.978 3.959-1.534 1.296-.523 1.89-1.434 2.09-2.764.247-1.567-2.24-1.814-2.709-.392zM231.522 110.279c-.063-1.606-2.258-1.773-2.73-.306-.343 1.066-.418 2.509-1.175 3.345-.92 1.02-2.06.493-3.227.66a4.39 4.39 0 0 0-3.035 2.153c-.89 1.404-1.049 2.98-1.509 4.535-.275.937-.69 2.212-1.93 2.036-.908-.125-1.836-1.187-2.555-1.672-2.897-1.994-5.852-1.38-7.194 1.915a40.21 40.21 0 0 1-2.65 5.55c-.694 1.15-.983.933-2.09.44a9.949 9.949 0 0 0-2.563-.882c-1.714-.264-2.4 2.186-.669 2.663 1.798.493 3.27 2.09 5.271 1.693 1.91-.38 2.81-2.375 3.625-3.938a37.57 37.57 0 0 0 1.488-3.227c.447-1.1.58-2.462 1.94-2.195 2.119.418 3.252 2.776 5.647 2.843 4.51.13 4.18-4.925 5.656-7.734.786-1.484 1.822-.786 3.177-.961a4.41 4.41 0 0 0 2.17-.953c1.788-1.413 2.415-3.762 2.353-5.965z"/>
    </g>
</svg>
