<svg xmlns="http://www.w3.org/2000/svg" width="256" height="234" viewBox="0 0 256 234">
    <g fill="none" fill-rule="nonzero" opacity=".91">
        <circle cx="127.946" cy="128.019" r="127.773" fill="#EFEFEF"/>
        <g fill="#FFF">
            <path d="M242.06 70.488c-.356-.705-.718-1.41-1.09-2.108v57.297h1.09V70.488zM.195 125.677v1.09H11.41v-1.09H.195z"/>
            <path d="M11.397 180.46c.352.784.717 1.566 1.086 2.345v-56.039h-1.086v53.693zM12.496 73.237c-.369.776-.734 1.56-1.087 2.345v50.095h1.087v-52.44zM255.708 126.766c0-.365 0-.727-.016-1.089H242.06v1.09h13.65zM240.97 187.659c.372-.699.734-1.404 1.09-2.109v-58.784h-1.09v60.893zM63.843 125.677l-.06.138.416.961h61.215v-1.09zM126.504 125.677h57.525v1.089h-57.525zM62.222 125.677H12.496v1.09H61.99l.23-.526z"/>
            <path d="M186.473 126.766h54.497v-1.089h-54.865l-.064.138z"/>
            <path d="M216.004 185.486c-9.32-15.187-18.583-35.138-28.38-56.262-.383-.816-.763-1.635-1.141-2.458h-.885l.443-.96-.065-.139h.129l1.518-3.274c9.801-21.12 19.061-41.072 28.381-56.26 4.433-7.221 8.612-12.858 12.538-16.91-.266-.34-.535-.676-.805-1.012-13.492 13.847-27.086 43.142-41.264 73.666l-1.125 2.438-.23-.5V13.727a85.669 85.669 0 0 0-1.09-.538v108.295c-18.483-39.682-37.554-78.364-57.524-81.98V.26h-1.09v39.082a16.296 16.296 0 0 0-1.922-.115c-21.74 0-41.303 41.652-60.168 84.537V17.782c-.365.212-.727.43-1.09.641v103.839l-1.412-3.227C48.89 91.801 37.404 65.57 26 51.001l-.776 1.038a113.928 113.928 0 0 1 8.41 12.778c8.514 14.72 17.027 34.152 26.036 54.724l2.564 5.848v.288h.125c.022.045.041.093.06.138-.06.144-.121.285-.185.426v.525h-.231l-2.333 5.326c-9.01 20.572-17.522 40.002-26.035 54.724-3.542 6.122-6.907 11.075-10.096 14.86.25.35.5.702.753 1.051 11.96-14.043 24.001-41.53 36.525-70.132l1.413-3.227v108.244l1.09.641V127.865c18.855 42.908 38.419 84.541 60.158 84.541a17 17 0 0 0 1.923-.115v43.475l1.089.016v-43.654c19.97-3.618 39.04-42.293 57.525-81.985v112.72c.362-.176.727-.355 1.089-.538v-114.52l.23-.497 1.138 2.454c14.854 32.005 29.08 62.655 43.216 75.554l.772-1.025c-4.495-4.15-9.298-10.394-14.457-18.805zm-89.5 25.37v-84.09h-1.09v84.266c-.637.08-1.28.12-1.922.122-9.932 0-20.474-9.504-32.213-29.051-9.292-15.456-18.305-35.404-27.068-55.333h-.833c.138-.32.276-.641.417-.962l-.06-.137h.12c8.876-20.195 18.004-40.473 27.411-56.144 11.74-19.545 22.274-29.048 32.213-29.048.643.001 1.285.042 1.923.122v85.076h1.089V40.771c19.656 3.784 38.877 43.574 57.525 83.692v1.21h.564l.064.139-.443.96h-.185v.401c-18.635 40.108-37.856 79.902-57.512 83.683z"/>
        </g>
        <path fill="#BFBFBF" d="M164.965 181.645c-15.332-20.807-36.071-25.472-39.41-26.517-3.338-1.044-2.45-3.258-3.482-8.385-.708-3.524-.19-5.245.201-5.972 30.775-1.964 55.129-27.554 55.129-58.813-.67-32.073-26.861-57.724-58.941-57.724S60.19 49.885 59.52 81.958c0 29.727 22.008 54.315 50.623 58.358 0 0 4.65 9.27-3.12 14.572-7.844 5.354-22.21 5.767-37.648 25.632-14.283 18.407-18.583 38.704-18.583 51.264H182.54s-2.243-29.336-17.574-50.14z" opacity=".2"/>
        <path fill="#FF4AA0" d="M166.993 170.854c-15.293-14.659-26.767-15.896-32.152-19.17l-9.641.054-9.644-.054c-5.383 3.274-16.857 4.511-32.15 19.17-23 22.043-24.08 57.745-24.08 57.745h131.748s-1.077-35.702-24.081-57.745z"/>
        <circle cx="126.866" cy="78.754" r="59.572" fill="#FFAE00"/>
        <path fill="#723F33" d="M117.907 133.953c2.884 5.992 2.996 14.018-1.922 17.731 0 0 1.884 3.146 8.987 3.236 7.103.09 9.106-2.996 9.106-2.996s-3.476-2.396-3.476-8.385c0-6.167 1.32-9.586 1.32-9.586h-14.015z"/>
        <path fill="#542C1C" d="M130.663 137.593l-.32.528c-5.127 8.046-12.404 12.656-14.339 13.563 0 0 3.807-3.114 3.807-7.247 0-2.808-.34-5.605-1.01-8.33l6.495 3.908 5.367-2.422z" opacity=".28" style="mix-blend-mode:multiply"/>
        <ellipse cx="116.985" cy="129.291" fill="#603826" opacity=".6" rx="2.804" ry="4.12" style="mix-blend-mode:multiply"/>
        <path fill="#C40E50" d="M174.705 227.587c1.698-2.615 2.806-5.588.794-8.33a1.304 1.304 0 0 0-.192-.02c-3.832-.104-7.665-.203-11.499-.295-.64-11.214-.663-22.428-.622-33.677a1.195 1.195 0 0 0-1.175-1.166c-1.15-.035-2.298-.051-3.445-.055-.961-.929-3.012-.535-2.954 1.183.353 10.096 1 20.185 2.009 30.24.423 4.216.404 8.861 4.23 11.534 3.3 2.3 7.369 2.008 11.152 2.777.542-.75 1.122-1.47 1.702-2.191z"/>
        <path fill="#603826" d="M110.134 125.738v-2.643c0-.881.125-1.772-.115-2.599a.32.32 0 0 0-.02-.403 3.162 3.162 0 0 0-3.985-.757c-1.765.962-2.284 3.454-2.195 5.31.09 1.855 1.048 3.694 2.884 4.238a3.04 3.04 0 0 0 3.845-2.242.763.763 0 0 0-.414-.904z"/>
        <path fill="#C40E50" d="M70.741 229.929v.484c0 .17.023.343.032.512l.609-.041a6.905 6.905 0 0 0-.64-.955zM92.234 184.272a2.243 2.243 0 0 0-.15-.32h-2.779a1.192 1.192 0 0 1-.43-.087h-.493l-.048.077c-1.364 2.66-1.281 5.693-1.457 8.61-.196 3.296-.32 6.596-.494 9.896l-.878 18.138a76.294 76.294 0 0 0-13.36.298c-.454.26-.843.618-1.141 1.048-.125.206-.22.428-.282.66v1.243l.06.186c.184.523.398 1.036.642 1.535.673 1.124 1.62 2.181 2.169 3.03a1 1 0 0 1-.106 1.282c.148.27.272.551.369.843l5.748-.378c.82-.052 1.486-1.02 1.323-1.804a5.645 5.645 0 0 0-3.022-3.906c.962.106 1.89.273 2.759.375 3.608.426 9.003 2.371 10.874-1.224.984-1.893-.07-6.456 0-8.535l.298-7.79c.197-5.102.364-10.208.5-15.318.039-1.522.09-3.047.11-4.572.022-1.054.175-2.265-.212-3.287z"/>
        <path fill="#723F33" d="M144.952 120.618a2.884 2.884 0 0 0-2.037-1.099 40.9 40.9 0 0 0-.805-13.72c-.96-4.264-3.713-6.11-3.713-6.11s-6.95 5.271-12.7 5.271c-5.752 0-12.698-5.27-12.698-5.27s-2.74 1.845-3.714 6.11c-1.922 8.388-1.643 19.464 4.191 25.756 5.835 6.293 12.22 8.629 12.22 8.629s6.386-2.333 12.22-8.629a16.555 16.555 0 0 0 2.42-3.396 2.092 2.092 0 0 0 2.11.4c1.44-.48 2.205-2.03 2.747-3.331.605-1.494.817-3.272-.24-4.611z"/>
        <path fill="#542C1C" d="M129.003 127.84l-3.666 1.688c-.028-.371-.233-2.262-.233-8.33 0-4.015-8.824-5.572-9.049-9.404-.224-3.832.24-6.77 5.768-7.497 0 0-2.66-1.131-4.909-2.15a16.981 16.981 0 0 1-3.86-2.454s-2.375 1.281-3.413 5.014c-1.365 4.93-1.567 8.199-1.006 17.225.68 10.97 16.715 18.096 16.715 18.096s-.798-.98-3.015-5.412c-.035-.067-.064-.131-.096-.198a18.263 18.263 0 0 0 2.49-1c3.665-1.8 4.274-5.578 4.274-5.578z" opacity=".28" style="mix-blend-mode:multiply"/>
        <path fill="#FF4AA0" d="M140.406 122.579a8.545 8.545 0 0 0-1.352-2.906c-.48-.686-1.051-1.56-1.849-1.894-1.874-.782-4.354-.871-5.838 1.397a16.385 16.385 0 0 0-1.83 4.03c-2.325-1.636-5.32-1.973-7.814-.698 0-1.432-2.076-4.428-3.78-5.5-2.218-1.398-4.983-1.196-6.649.96-1.602 2.064-2.114 5.232-1.967 7.78.199 3.454 2.243 9.044 6.95 8.426 4.895-.64 6.058-6.658 5.667-10.442 0-.064-.016-.125-.022-.189 2.307-1.163 5.367-.932 7.183 1.02a.81.81 0 0 0 .084.07c-.641 3.402.099 7.106 2.467 9.262 2.368 2.157 5.767 1.211 7.423-1.352 1.74-2.691 2.057-6.898 1.327-9.964zm-25.776 10.067c-3.3-1.035-4.063-5.867-3.864-8.616.147-2.005.416-4.207 1.832-5.626 2.564-2.563 6.87.996 7.658 5.19.02.116 0 .228.045.32.554 4.615-1.929 9.904-5.671 8.732zm20.672 1.01c-3.627.787-5.04-4.416-4.97-7.069a10.833 10.833 0 0 1 1.192-4.56 23.61 23.61 0 0 1 1.282-2.104c.224-.353 1.624-1.51 3.04-.98.628.27 1.187.678 1.635 1.194 1.137 1.25 1.582 2.964 1.685 4.614.208 2.957-.266 8.12-3.864 8.9v.004z"/>
        <path fill="#603826" d="M108.965 121.928c-1.705-.47-3.598.92-3.999 2.564-.185.759.926.96 1.167.246a2.72 2.72 0 0 1 .695-1.124c.195 1.019.086 1.983.122 3.015a.381.381 0 0 0 .724.105c.394-1.118.176-2.476-.135-3.6a3.9 3.9 0 0 1 1.356-.321.444.444 0 0 0 .07-.885zM141.998 121.486c1.439-.147 2.65 1.48 2.634 3.076a.49.49 0 1 1-.961.032 2.71 2.71 0 0 0-.32-1.17c-.36.92-.472 1.84-.709 2.798a.301.301 0 0 1-.596-.023c-.08-1.118.369-2.348.84-3.345a2.743 2.743 0 0 0-1-.541c-.407-.122-.295-.785.112-.827z" opacity=".4" style="mix-blend-mode:multiply"/>
        <path fill="#FFAE00" d="M141.13 114.082c-1.365-3.124-5.934-4.547-8.789-2.66-.416.28-.16.997.356.834 1.387-.436 2.743-.641 4.165-.177 1.548.52 2.179 1.737 3.32 2.75a.615.615 0 0 0 .948-.747zM120.195 110.698c-1.384-.717-3.463-.342-4.912.048-1.669.449-3.329 1.244-4.52 2.519-.302.32.07.897.483.64 1.394-.83 2.724-1.601 4.326-1.97 1.509-.343 2.999.026 4.485-.224a.564.564 0 0 0 .138-1.013z"/>
        <rect width="68.287" height="46.602" x="91.218" y="180.776" fill="#F4F4F4" rx="1.7"/>
        <rect width="64.167" height="45.843" x="93.345" y="182.776" fill="#000" rx="1.63"/>
        <path fill="#DBDDDC" d="M77.217 224.085H173.5a4.514 4.514 0 0 1-4.514 4.514H81.737a4.514 4.514 0 0 1-4.52-4.514z"/>
        <path fill="#B2B2B2" d="M81.737 228.6h87.249a4.486 4.486 0 0 0 3.825-2.131H77.91a4.505 4.505 0 0 0 3.828 2.13z"/>
        <path fill="#2146AD" d="M48.06 228.6c46.284 36.256 111.334 36.256 157.618 0H48.06z"/>
        <path fill="#E09220" d="M99.936 98.578c-.852-.125-1.602.15-2.419.374-.98.273-1.176.023-1.586-.781-.67-1.324-1.34-2.563-2.944-2.845-.837-.145-1.625.09-2.429.288-1.041.263-1.512.24-1.753-.881-.32-1.522.32-3.182-.906-4.44-1.227-1.26-3.124-.818-4.464 0-.621.374-1.47 1.28-2.271 1.104-1.122-.262-1.147-1.858-1.073-2.749.163-1.957.96-4.088-.391-5.812-.497-.64-1.558-.282-1.346.587.775 3.159-2.262 8.01 1.602 10.057 1.573.836 3.07 0 4.412-.833.68-.426 1.772-1.128 1.778.173-.043.77-.024 1.543.058 2.31.234 1.423 1.003 2.832 2.483 3.249.74.172 1.51.158 2.243-.042.855-.186 1.515-.64 2.085.167.808 1.13.962 2.425 2.34 3.108.727.322 1.54.394 2.313.205.269-.051 2.185-.612 2.2-.487.17 1.346 2.164 1.781 2.513.282.378-1.631-.923-2.807-2.445-3.034zM98.363 117.555c-1.503-1.307-3.22-1.09-5.085-.987-.961.055-2.153.109-2.909-.625-.756-.733-.423-1.784-.843-2.672a.458.458 0 0 0-.615-.163c-2.047 1.012-.208 4.27 1.157 5.024 2.243 1.224 4.953-.305 7.132.932.93.52 2.025-.772 1.163-1.51zM162.299 115.367c-.984.807-2.147 1.884-3.496 1.855-1.236-.03-1.922-1.314-3.14-1.551a3.778 3.778 0 0 0-2.768.676c-.567.365-2.771 2.58-3.431 1.375-.51-.933-1.97-.292-1.516.692a2.643 2.643 0 0 0 2.884 1.54c1.544-.217 3.335-2.732 4.806-1.854.605.365.96.96 1.66 1.252.687.294 1.439.405 2.181.32 1.769-.198 3.124-1.28 4.374-2.473 1.105-1.047-.353-2.816-1.554-1.832z"/>
        <ellipse cx="134.619" cy="128.516" fill="#603826" opacity=".28" rx="2.804" ry="4.12" style="mix-blend-mode:multiply"/>
        <path fill="#C40E50" d="M84.358 173.926a50.896 50.896 0 0 0-6.709 7.84.85.85 0 0 0 1.282 1.109 51.905 51.905 0 0 0 6.693-8.122c.516-.776-.692-1.355-1.266-.827zM73.817 188.658c-1.557 1.051-2.656 3.05-3.419 4.723a15.12 15.12 0 0 0-1.387 5.889c-.029 1.198 1.765 1.477 1.89.234.158-1.78.575-3.528 1.24-5.188.708-1.698 1.878-2.998 2.772-4.562.423-.74-.317-1.624-1.096-1.096zM66.922 209.577a38.624 38.624 0 0 0-3.009 13.028c-.048 1.006 1.667 1.179 1.782.16a66.582 66.582 0 0 1 2.586-12.688c.246-.775-1.042-1.266-1.359-.5zM169.588 176.97c-2.643-2.941-5.735-5.68-8.75-8.234a.753.753 0 1 0-1.054 1.076c2.66 2.884 5.543 5.873 8.567 8.398a.876.876 0 0 0 1.237-1.24zM181.254 197.303c-.298-1.176-1.02-2.266-1.577-3.342-.586-1.131-1.166-2.269-1.762-3.396-1.16-2.195-2.243-4.518-3.643-6.562a.686.686 0 0 0-1.195.64c.859 2.381 2.147 4.656 3.281 6.915.554 1.102 1.121 2.201 1.685 3.3.564 1.099 1.01 2.281 1.791 3.204a.814.814 0 0 0 1.42-.76zM185.031 210.932c-.525-2.095-1.003-4.213-1.62-6.283-.321-1.047-1.824-.64-1.629.43.395 2.127.936 4.229 1.423 6.337.397 1.708.529 4.133 1.689 5.498a.695.695 0 0 0 1.156-.298c.423-1.749-.59-3.976-1.019-5.684zM188.046 229.307l-.58-6.988c-.08-.98-1.58-.893-1.528.093l.365 6.649c.58.086 1.163.17 1.743.246zM132.133 150.569c-1.205.852-2.243 1.83-3.585 2.49a11.557 11.557 0 0 1-4.434 1.153 12.848 12.848 0 0 1-4.355-.58c-1.413-.423-2.704-1.493-4.136-1.733-.551-.09-1.314.32-1.067 1.006.59 1.602 2.33 2.563 3.81 3.261 1.769.835 3.699 1.272 5.655 1.282 3.668 0 8.051-1.506 10.326-4.52.974-1.308-.862-3.301-2.214-2.359z"/>
        <path fill="#FFF" d="M108.898 187.486c-3.807-.148-7.969-.346-11.737.26-.612.098-.833 1.066-.105 1.185 3.845.621 8.048.426 11.919.275 1.124-.045 1.012-1.679-.077-1.72zM121.05 192.445c-5.616.141-11.214.228-16.84.25-.935 0-1.019 1.455-.073 1.458 5.609.021 11.213.105 16.811.25 1.272.035 1.358-1.99.103-1.958zM110.035 198.078c-3.845-.109-7.856-.211-11.691.125-1.051.093-1.083 1.775 0 1.868 3.845.32 7.84.24 11.688.131 1.189-.035 1.217-2.092.003-2.124zM138 206.658c-5.393-.384-10.923-.118-16.34-.07l-8.168.07c-2.787.023-5.696-.125-8.452.301-.823.129-.887 1.356-.029 1.49 2.541.394 5.21.28 7.78.298l8.5.074c5.51.048 11.156.32 16.66-.06 1.18-.081 1.253-2.013.049-2.103zM108.936 214.06a49.22 49.22 0 0 0-9.519.192c-.775.096-1.105 1.38-.17 1.5a50.03 50.03 0 0 0 9.721.21.961.961 0 0 0-.032-1.902zM129.804 214.348c-3.368-.029-6.786-.06-10.14.211-.84.068-.962 1.455-.075 1.526 3.442.275 6.934.246 10.385.217 1.268-.01 1.07-1.954-.17-1.954z"/>
        <path fill="#FF4AA0" d="M101.67 207.033c-1.619-.007-3.235.1-4.839.32-.708.103-.913 1.228-.099 1.346a35.59 35.59 0 0 0 5.06.32c1.271.004 1.165-2.04-.123-1.986zM101.455 192.327a16.722 16.722 0 0 0-4.024.621c-.41.116-.606.785-.09.926 1.364.385 2.77.6 4.188.641 1.589.067 1.547-2.24-.074-2.188zM116.325 213.995a40.86 40.86 0 0 0-4.64.385c-.746.109-.64 1.17.051 1.282 1.463.21 2.936.337 4.412.38 1.333.03 1.471-2.088.177-2.047zM131.444 198.008c-2.915-.25-5.96.038-8.888.08-2.928.041-5.92.093-8.881.23-1.054.048-.987 1.573.045 1.622 2.967.137 5.927.185 8.897.23 2.97.045 5.976.32 8.891.08 1.458-.115 1.352-2.111-.064-2.242z"/>
        <path fill="#E09220" d="M110.708 54.68a3.662 3.662 0 0 0-1.253-1.224c-.82-.532-1.403-.692-.778-1.654 1.377-2.12.541-3.793-1.298-4.758.206-.141.393-.308.558-.496.213-.306.353-.657.41-1.025a3.07 3.07 0 0 0-.532-2.22c-.567-.863-1.384-1.263-2.243-1.753a9.598 9.598 0 0 1-.439-.24c.529-.321 1.237-.67 1.368-.734 1.041-.513.468-2.15-.666-1.923-1.577.32-4.874 1.798-3.179 3.845.724.871 2.791 1.147 3.204 2.153.32.798-1.406 1.544-1.397 2.66 0 1.172.82 1.425 1.734 1.755.673.247 1.14.538.84 1.24-.187.43-.642.766-.875 1.195a2.5 2.5 0 0 0 .163 2.653c.253.356 2.137 1.922 2.374 1.727-1.246 1 .423 2.848 1.663 1.842.952-.791.958-2.018.346-3.043zM141.06 55.39a3.765 3.765 0 0 0-.61-1.646c-.512-.827-.96-1.224 0-1.823 2.157-1.327 2.119-3.204.872-4.854.247-.041.488-.112.718-.212.323-.184.6-.44.807-.75a3.07 3.07 0 0 0 .475-2.242c-.145-1.019-.709-1.73-1.282-2.547a7.163 7.163 0 0 1-.292-.404 22.055 22.055 0 0 1 1.551-.077c1.157-.016 1.346-1.74.218-2.015-1.564-.382-5.171-.468-4.514 2.098.282 1.1 2.03 2.243 1.964 3.313-.052.862-1.923.795-2.403 1.807-.497 1.06.131 1.638.813 2.33.503.51.798.96.225 1.48-.35.32-.917.41-1.301.705a2.502 2.502 0 0 0-.99 2.467c.077.426 1.108 2.643 1.403 2.563-1.554.372-.84 2.759.711 2.38 1.23-.29 1.747-1.387 1.635-2.572zM111.403 86.108a13.957 13.957 0 0 0-4.614-3.509c-.682-.32-2.143-.55-2.322-1.307-.154-.64.288-1.573.217-2.268-.17-1.676-1.534-2.522-3.114-2.564-.448 0-1.826.24-1.967-.147-.115-.32.718-1.717.727-2.243.026-1.477-1.112-2.444-2.454-2.79a8.33 8.33 0 0 0-2.224-.148c-.32 0-1.019.128-1.3-.08-.596-.439-.231-1.166-.1-1.708.346-1.41.52-3.133-.842-4.094-.894-.641-2.096-.148-2.884-.696-1.045-.73-.115-2.454.292-3.351.406-.897-.872-1.657-1.503-.894-1.253 1.515-2.313 3.377-1.304 5.341a3.044 3.044 0 0 0 1.621 1.448c.503.19 1.016.07 1.512.19 1.035.25.81.746.625 1.508-.41 1.686-.573 3.525 1.205 4.486.81.383 1.705.548 2.598.48.641 0 2.144-.285 2.09.555-.055.84-.824 1.448-.776 2.384a2.5 2.5 0 0 0 1.262 2.018 3.986 3.986 0 0 0 2.208.462c.32 0 1.365-.286 1.621-.052.256.234.048.936 0 1.221-.288 1.72-.026 3.188 1.724 3.935 1.108.474 2.195.756 3.233 1.41a15.7 15.7 0 0 1 2.627 2.2c1.05 1.035 2.79-.679 1.842-1.787zM155.526 58.768c-2.285.529-8.103 1.547-6.729 5.126.27.564.603 1.095.993 1.583.731 1.077.443 2-.467 2.884-1.221 1.172-2.868 1.781-3.919 3.159-.878 1.147-1.099 2.243-.02 3.306.246.224.505.433.776.625l.263.196c.295.214.32.253.083.118-.428.273-.836.576-1.22.907-.44.4-.881.794-1.32 1.192-1.106 1-2.445 2.04-1.631 3.662.368.73.983 1.153.343 2.002-.641.85-1.942.962-2.823 1.298-1.32.522-.868 2.65.593 2.451 1.781-.24 3.78-1.09 4.68-2.74a3.726 3.726 0 0 0 .446-2.492 3.47 3.47 0 0 0-.477-1.198c-.074-.093-.145-.19-.218-.285.817-.962 1.861-1.766 2.778-2.612.688-.64 1.438-1.217 1.512-2.22.102-1.352-.98-1.804-1.75-2.563 1.48-2.33 5.015-3.028 5.354-6.277.16-1.51-.807-2.124-1.259-3.374-.205-.57-.378-.621.237-1.054a7.37 7.37 0 0 1 1.314-.59 29.621 29.621 0 0 1 2.98-1.054c1.115-.346.66-2.326-.52-2.05zM173.833 63.619c-.214.64-1.887.407-2.486.538a2.839 2.839 0 0 0-1.958 1.368c-.426.779-.134 1.692-.455 2.435-.22.513.077.417-.583.23-.384-.105-.743-.425-1.124-.566-1.487-.548-2.951.051-3.435 1.602-.32.96-.202 2.04-.23 3.047 0 .532-.228 4.777-1.058 4.293-1.118-.64-2.067.961-1.035 1.692 2.144 1.522 3.78-.872 4.053-2.788.224-1.586.18-3.159.292-4.748.057-.804.224-1.077 1.028-.791.49.176.888.512 1.407.64a2.268 2.268 0 0 0 2.275-.64c.74-.824.477-1.753.75-2.717.358-1.282 1.976-.75 3.033-1.176.994-.4 1.449-1.1 1.602-2.118.19-1.202-1.717-1.39-2.076-.301zM177.454 84.525c-.048-1.23-1.73-1.359-2.092-.234-.263.817-.32 1.922-.9 2.563-.706.782-1.58.378-2.474.506a3.364 3.364 0 0 0-2.326 1.65c-.683 1.077-.805 2.285-1.157 3.477-.211.718-.529 1.695-1.48 1.56-.695-.096-1.407-.91-1.958-1.281-2.22-1.529-4.485-1.058-5.514 1.467a30.82 30.82 0 0 1-2.031 4.255c-.532.881-.753.714-1.602.336a7.626 7.626 0 0 0-1.964-.676c-1.314-.202-1.84 1.676-.513 2.041 1.378.378 2.506 1.602 4.04 1.298 1.464-.292 2.153-1.82 2.778-3.018.42-.805.798-1.631 1.14-2.474.344-.842.446-1.887 1.487-1.682 1.625.32 2.493 2.128 4.329 2.179 3.457.1 3.204-3.775 4.335-5.928.602-1.137 1.397-.602 2.435-.737a3.38 3.38 0 0 0 1.663-.73c1.371-1.083 1.852-2.884 1.804-4.572z"/>
    </g>
</svg>
