<svg xmlns="http://www.w3.org/2000/svg" xmlns:xlink="http://www.w3.org/1999/xlink" width="522" height="328"><style><![CDATA[.B{fill:#ff3369}.C{fill:#07174f}.D{fill:#ffb53f}.E{fill:#dbdddc}.F{fill:#723f33}.G{fill:#2146ad}.H{fill:#c40e50}.I{fill:#603826}.J{fill:#e09220}.K{opacity:.28}.L{fill:#db0e61}.M{fill:#ffbc85}.N{fill:#ea9e65}.O{fill:#b2b2b2}.P{fill:#dd604b}]]></style><g fill-rule="nonzero"><path d="M218.2 17.05C146.6 12 58.28 24.33 112.34 83.67 158.78 134.64-22.6 126.83 2.6 192.6c23.66 61.76 243.37 38.44 191.57 66.2s35.34 44.36 124.2 40.36c74.72-3.36 29.1-32.48 44.25-48.66 20-21.4 159.15-15.33 159.15-57.38 0-40.9-84.5-47.15-155.14-53.47-67.75-6.07 3.6-35.34-4-71.4-8.5-40.35-68.7-45.85-144.4-51.2z" fill="#000" opacity=".05"/><g fill="#fff"><use xlink:href="#B"/><use xlink:href="#B" y="44.9"/><path d="M81.52 117.83H61.8a2.9 2.9 0 1 1 0-5.84h19.73a2.9 2.9 0 1 1 0 5.84zm-3.9-66h19.73v5.84H77.62z"/><use xlink:href="#C"/><use xlink:href="#C" x="45.63" y="-18.23"/><use xlink:href="#C" x="108.13"/><use xlink:href="#C" x="133.33" y="-18.8"/><use xlink:href="#C" x="48.17" y="21.49"/><use xlink:href="#D"/><use xlink:href="#D" x="-35.15" y="-18.8"/><use xlink:href="#D" x="-33.1" y="21.49"/><use xlink:href="#D" x="25.22"/><use xlink:href="#D" x="48.92" y="-18.8"/><use xlink:href="#C" x="108.13" y="-39.82"/><use xlink:href="#D" y="-39.82"/><use xlink:href="#D" x="25.22" y="-39.82"/><use xlink:href="#C" y="40.66"/><use xlink:href="#C" x="108.13" y="40.66"/><use xlink:href="#D" y="40.66"/><use xlink:href="#D" x="25.22" y="40.66"/><use xlink:href="#C" y="79.51"/><use xlink:href="#D" y="79.51"/><use xlink:href="#D" x="25.22" y="79.51"/><use xlink:href="#D" x="46.64" y="20.84"/><use xlink:href="#C" x="49.84" y="60.61"/><use xlink:href="#D" x="-33.48" y="60.17"/><use xlink:href="#D" x="50.42" y="60.17"/><use xlink:href="#D" x="46.64" y="99.24"/></g><path d="M236.07 194.03c0 12.3 4.75 27.73 23.35 27.73l52.54-.27-.6-27.48-75.3.01z" class="B"/><path d="M290.58 39.8c-1.56 2.24-3.34 4.37-5.57 5.86.07-.53 1.25-8.95-.1-7.35-1.8 2.15-7.9 5.26-9.94 6.6.16-.45.33-.9.53-1.35.53-1.24 1.2-2.94 1-4.44-1.75 1.1-5.46 2.92-7.33 3.82-3.53 1.68-7 1.53-11 4.88-2.88 2.4-5.3 6.2-6.96 9.7-3.63 7.7-2.1 18.56 3 25.68 2.67 3.72 6.46 6.3 10.8 7.18a1.9 1.9 0 0 0 1.88-.62 3.9 3.9 0 0 0 1.95-1.82c.86-1.8.36-3.7-1.1-4.96l-.53-.5-.53-.6c-.2-.25-.4-.5-.58-.77 0 0-.44-.72-.4-.6a16.3 16.3 0 0 1-.77-1.63c-.12-.3-.23-.6-.35-.93-.05-.14-.05-.12-.05-.1 0-.03-.02-.1-.07-.27-.18-.72-.33-1.43-.43-2.16a21.6 21.6 0 0 1-.12-1l-.04-.77a21.4 21.4 0 0 1 .33-4.05c0-.07.02-.1.02-.15.02-.07.04-.16.07-.27.1-.36.18-.7.3-1.06a24.9 24.9 0 0 1 .79-2.29c.25-.64.53-1.28.83-1.9.03-.04.4-.76.4-.73l.53-.95c.03-.06.07-.1.1-.16 3-1.74 5.88-2.48 9.45-2.66 4.95-.25 9.97.72 14.84 1.58 1.34.23 2.36-.7 2.98-1.8.58-3.28.63-6.63.15-9.92-.54-3.63-3.22-10.7-4.06-9.47z" class="F"/><g fill="#f97e62"><path d="M263.4 107.93c.9-11.53.42-27.16.42-27.16-8.63-24.48 4.6-32.2 15.63-31.96 12.93.3 15.27 11.57 16.7 20.3s-2.75 24.05-10.33 25.3c-8.5 1.4-7.68.4-7.72 5.93 0 1.75.84 4.3 1.44 4.6 3.84 1.98 2.47 5.23 2.47 9.2 0 0 .3 4.22-9.75 4s-10.85-2.54-10.85-2.54 1.6-2.5 2-7.7z"/><ellipse transform="matrix(.9972 -.0743 .0743 .9972 217.0766 41.0782)" cx="39.92" cy="40.84" rx="5.65" ry="5.97"/></g><g class="C"><path d="M229.47 172.74s-2.13 28.32 9.72 35.63l68.97 10.7s.38-33.25-1.45-66.67l-78.3 20.35"/><path d="M263.63 102.86s-1.68 10.43 10.85 10.43 6.93-7.52 6.93-7.52c19.1 4.74 32.96 14.22 47.3 36.3 7.37 11.35 24.2 35.62 24.2 35.62H242.17l-13.78-53.6s2.14-9.14 9.5-13.08c8.66-4.63 24.74-8.37 25.74-8.14z"/></g><path d="M308.5 131.9v41.83c.01 1.04.85 1.87 1.88 1.86h64.83c.5 0 .97-.2 1.32-.54s.55-.82.56-1.32v-42.36c0-.5-.2-.97-.56-1.32s-.83-.54-1.32-.54l-64.83.53c-1.03-.01-1.87.83-1.88 1.86z" class="E"/><path d="M295.87 174.7v3.24c0 .08 1.17.14 2.62.14h90.66c1.45 0 2.64-.06 2.64-.14v-3.24c0-.08-1.18-.15-2.64-.15H298.5c-1.45 0-2.62.07-2.62.15z" class="O"/><path d="M310.95 174.62l6.96.3 8.36.04c10.1-.32 20.2-.1 30.3-.24 5.9-.1 11.8.1 17.7-.12 0-.76-.06-2.02-.05-2.53.05-2.22.04-4.44.02-6.65l-.45-30.55c0-2.05-1.32-2.13-3.13-2.1l-51.54.45c-1.87.05-3.75 0-5.6.27-1.8.27-2.64.3-2.67 2.43l-.44 33.47c.1.88.15 3.65.55 5.23z" fill="#000"/><path d="M237.9 111c-11.5 4.94-20.6 41.66-16.06 55.68 3.66 11.3 12.9 11.7 12.9 11.7l81.06-.4s-3.84-5.78-9.77-8.2-11.4 4.15-15.34 3.38c-10.54-2.03-27.5-5.28-45.02-14.07 0 0 .84-16.94.01-27.53-1.07-13.72-7.8-20.58-7.8-20.58z" fill="#f97e62"/><g class="P"><path d="M281.65 112.54a18.5 18.5 0 0 1-2.48.23c-1.96.05-4.5-.1-6.35-1.24-1.07-.22-2.03-.78-2.76-1.6-2.57-2.2-3.4-5.7-3.55-9.1-.2-4.8-.2-13.38-2.52-17.85-.05 1.56-.26 5.95-.15 7.5a32.5 32.5 0 0 1 .08 6l-.58 7-1.15.65c-.1.55.53 1.55.58 2.2.62.27 1.07.82 1.22 1.48 1.06 3.9 6.72 5.74 9.97 6.12a3 3 0 0 1 1.47.57c1.24-.17 2.5-.44 3.73-.63l1.64-.2c.76-.1 1-.6.84-1.14zm-22.2-33.84a2.4 2.4 0 0 0 .57-.2c.32-.17.35-.76-.04-.88-1.4-.44-3.03.93-3.85 2-.3.37.28.94.6.58.42-.47.92-.86 1.5-1.13.04.43.37.73.53 1.12.2.43.08.95.3 1.35.3.5 1.02.66 1.34.1.37-.65.1-1.48-.26-2.08-.18-.32-.4-.6-.68-.84z"/><path d="M279.9 77c-1.56-3.34-5.18-2.35-6.93.27-.93 1.38-1.16 3.1-.63 4.7 2.28 6.3 10.33 1 7.56-4.96zm14.7 6.94l1.5-6.06.02-1.95a5.8 5.8 0 0 0-1.5 1.29c-1.06 1.27-1.46 2.97-1.1 4.6a5 5 0 0 0 1.06 2.13z" opacity=".52"/><path d="M292.42 81.16c-.1-.2-.3-.3-.5-.3-1.97-1.02-4.58-.56-5.75 1.2-.24.37.12.84.65.74l5.2-1.02c.1-.02.17-.06.24-.1.23-.1.37-.35.16-.52z"/></g><path d="M281.18 65.45c-1.32-1.06-3.66.4-4.96 1.04-1.72.85-3.57 1.9-4.9 3.36-.64.7-.04 2.05.92 1.56l4.96-2.66a28.6 28.6 0 0 1 2.77-1.02c.77-.24 1.18-.38 1.5-1.2.13-.38.01-.8-.3-1.07zm16 .47c-.75-.55-1.67-.55-2.6-.57a9.3 9.3 0 0 0-2.73.27c-.64.18-.57 1.2.07 1.28l2.35.3c.77.14 1.54.5 2.3.37s1.3-1.1.6-1.64zm-1.38-22.5c-.1-.14-.26-.2-.42-.13s-.23.24-.18.4l.35 1.37c.08.46.1.94.17 1.4.04.16.2.28.36.28s.32-.1.36-.28c.2-1.06-.04-2.14-.64-3.03z" class="F"/><path d="M285.98 149.32c1.95-1.6 7.53-5.13 3.96-8.04-2.72-2.22-7.04 1.3-9.32 2.8-2.97 1.94-5.9 4.05-9.27 5.2a13.3 13.3 0 0 1-2.32.63c-.06 0-.38.05-.58.06-.02-.1.01-.22.06-.3.85-1.5 1.6-2.85 2.8-4.13 2.2-2.34 4.85-4.2 7.27-6.3 1.14-1 2.7-2.1 2.96-3.7.3-1.9-1.35-3.15-3.1-2.9-1.64.23-3.32 1.35-4.75 2.1a54.2 54.2 0 0 0-4.75 2.8 58.2 58.2 0 0 0-5.18 3.81l-1.06.9c-.17.13-.34.25-.53.36l.08-.18a20.2 20.2 0 0 1 .73-1.48 19.8 19.8 0 0 1 8.16-8.01c1.5-.8.03-2.94-1.45-2.2a22.6 22.6 0 0 0-8.29 7.13c-1 1.42-2.17 3.13-2.56 4.85-.42 1.82.76 3.43 2.64 3.5s3.23-1.53 4.6-2.6c1.62-1.3 3.3-2.5 5.05-3.6a55.7 55.7 0 0 1 4.25-2.44c-2.5 1.96-5.1 3.8-7.26 6.14-2 2.2-5.52 7.16-1.8 9.5 1.6 1 3.6.57 5.32.1 1.85-.55 3.64-1.32 5.32-2.28 3.04-1.66 5.8-3.75 8.73-5.6l-4.4 3.65c-.83.7-1.83 1.37-2.42 2.3-1.1 1.78-.34 4.2 1.87 4.47.98.12 1.94-.27 2.86-.57l3.64-1.24c1.85-.7.9-3.4-.98-2.9a54.9 54.9 0 0 0-2.77.83c-.12.04-.6.15-1.1.27.28-.24.58-.46.86-.7l2.75-2.25zm-3.73-44.15c-1.5-1.24-3.62.6-1.65 2.6 1.5 1.5-.4 3.36-1.68 3.86-2.1.82-4.92.53-7.1.04-2.1-.48-4.16-1.4-5.66-3.02-1.54-1.66-1.97-3.52-2.44-5.67a1 1 0 0 0-.93-.78c-.45-.02-.86.25-1 .68-.92 2.84.77 6.1 2.76 8.05 2.4 2.36 5.65 3.5 8.93 3.88 3.06.35 6.77.27 9.06-2.13 2.1-2.2 2.1-5.53-.3-7.5z" class="G"/><path d="M297.84 212.1c-15.15 2.46-8.93-18.37-4.7-21.5 6.6-4.9 27.75-4.22 35.6.58 12.86 7.87 4.18 47.9-5.25 74.97C316.2 287.02 307.9 308 307.9 308h-11.35s4.78-24.2 4.2-43.34c-.63-21.16-2.9-52.57-2.9-52.57z" fill="#e22b64"/><path d="M315.74 204.82c-.38-1.06.1-.25-.48-1.22-1.8-3.07-4.86-5.8-4.04-9.97.6-3.1 8.28-5.27 15.95-3.32-5.34-3.46-27.45-7.62-35.06-2.04-.35.25-.6.62-.68 1.04-.26.2-.42.53-.43.87-3.67 5.56-2.78 13.18-.44 19.2 1.4 3.6 3.3 6.93 4.85 10.45 1.55 3.5 2.68 7.2 3.36 10.98 1.42 7.7 1.4 15.64 1.3 23.5-.1 8.33-.22 16.68-.77 25-.6 9.45-1.03 17.94-3.45 27.03-.6 2.28 1.5 3.4 2.28 1.16 6.2-17.97 12.4-34.96 16.07-53.87 2.58-13.26 3.82-26.94 3.05-40.5-.16-2.8-.58-5.66-1.5-8.28z" class="H"/><path d="M302.04 201.08c-2.17-12.25-15.65-18.44-34.34-15.28-15.92 2.7-32.2 8.8-36.5 10.26 1.22 6.8 4.9 11.15 9.06 17.64 2.4 3.75 6.43 5.97 10.52 7.7 2.3.97 4.57 1.03 7.05 1.06 4.42.04 7.4.53 10.74-.7.03 0-.3 1.65-.3 1.65-6.8 33.75-6.47 84.67-6.47 84.67l11.53 1.15s3.28-10.37 9.18-26.95 21.7-68.97 19.54-81.2z" fill="#e22b64"/><path d="M312.7 176.92l-.65-.2-6.9-.6-12-.67-11.36-.87-8.6-.45c-.26-.13-.56-.2-.85-.16l-.78.07-.86-.05c-7.1-.4-14.4-.43-21.36-2.04-5.73-1.33-11.5-4.13-14.84-9.2-4.18-6.34-2.58-14.4-.83-21.32-1.65-.23-9.6-1.73-10.86-1.77-.37 0-3.63 12.92-2.15 21.27.62 3.5 2.53 12.4 5.87 14.3a22.9 22.9 0 0 0 7.19 2.56c5.9 1.12 12 1.24 17.97 1.1 6.26-.15 12.47-.92 18.7-1.62 6.15.35 12.32.7 18.47.72 9.08.03 18.14.32 27.22.76.3.03.6-.1.8-.34-1.4-.45-2.77-1.08-4.16-1.5z" class="P"/><path d="M278.8 235.07c-1.66-.27-3.52.04-5.2.07l-4.3.1 3.1-21.87a20.7 20.7 0 0 1-3.33.85l-3.47 12.74s-2 8.03-3.57 27.2-.28 53.9-.28 53.9l1.93-.06s0 4.1 1.02-24.2c.34-9.4 1.3-20.33 2.44-30.73a96.8 96.8 0 0 0 5.28-.11c1.52-.07 3.2 0 4.7-.4 1.43-.36 1.55-1.86 1.74-3.32l.8-6.2c.24-1.86.65-3.8.7-5.68.05-1.25-.5-2.15-1.57-2.32zm-9.73 2c2.25.1 4.5 0 6.76-.03-.06.27-.03.54.06.8a56.5 56.5 0 0 0-.25 6.24c-1.36-.37-2.92-.27-4.26-.3-1.06-.04-2.1-.03-3.15 0l.84-6.7zm6 13.75c-2.55.2-5.1.28-7.67.2l.65-5.65 3.45.14c1.34.08 2.82.45 4.2.34.06 1.66.17 3.3.3 4.95-.32.02-.68 0-.94.02zm-19.47-61c-.15-.95-1.67-1.1-1.85-.1-.43 2.4-.6 4.42-2.05 6.45a9.3 9.3 0 0 1-5.38 3.61c-1.08.27-.72 2.04.37 1.8 2.54-.54 4.8-1.95 6.43-4 1.6-2 2.88-5.12 2.47-7.78z" class="H"/><path d="M291.95 306.84c.34-7.16-6.63-12.2-13.77-11.94-8.06.3-12.8 4.2-16.4 10.53-.47.83-.8 3.9.12 3.94 9.58.46 19.17.47 28.75.13 1.35-.05 1.3-2.5 1.3-2.66zm20.65-11.94c-8.07 0-12.9 4.34-16.5 10.68-.47.83-.7 3.75.22 3.8 9.58.46 19.17.47 28.75.13 1.35-.05-.42-14.6-12.47-14.6z" class="C"/><path d="M285.4 87.8a24.5 24.5 0 0 1-3.19.04c-.98-.08-1.87-.36-2.84-.46-.42-.05-.8.4-.5.62 1.58 1.2 4.72 1.44 6.9.92.95-.23.46-1.16-.4-1.12z" opacity=".52" class="P"/><path d="M325.46 137.25c-1.88.1-3.74.6-5.63.7l-5.67.15c-.46-.02-.5.77-.04.82 1.97.2 3.83.44 5.8.34 1.88-.1 4-.18 5.77-.83.28-.1.44-.4.38-.7a.6.6 0 0 0-.62-.48z" class="B"/><path d="M316.64 144.8c-.7-.3-1.64-.56-2.4-.5-.48.04-.6.77-.2 1 .64.4 1.63.58 2.38.64.68.05.82-.9.22-1.15z" class="D"/><path d="M334.4 145.23l-12.73-.48c-.63-.02-.6.93 0 .97l12.73.58c.7.02.68-1.04 0-1.07zm-14.25 8.74c-.92-.13-1.9 0-2.8.04a15.9 15.9 0 0 0-2.57.17c-.67.14-.53 1.04.1 1.14.9.14 1.88.04 2.8.03.86 0 1.73.05 2.58-.12.74-.14.58-1.16-.1-1.25z" class="B"/><path d="M333.42 137.12a46.3 46.3 0 0 0-4.86.09c-.64.04-.6 1.1.04 1.12a46.4 46.4 0 0 0 4.86.08c.74-.03.7-1.26-.04-1.3zm-7.44 12.65c-3.96.02-7.9 0-11.84.22-.54.03-.58.95-.02.98 4 .17 8 .08 12 .04.8-.01.65-1.24-.13-1.24zm6.8 9.68l-9.32.15c-3.1.04-6.24-.08-9.3.27-.5.06-.6.88-.04.93 3.04.27 6.15.1 9.2.08l9.6-.04c.88 0 .77-1.4-.12-1.4zm-11.56 4.85c-2.17-.06-4.63-.22-6.77.16-.62.1-.53.96.05 1.06 2.1.37 4.5.22 6.6.15.86-.02 1-1.35.1-1.38zm15.8 5.2c-2.5-.3-5.08-.3-7.6-.35-2.64-.04-5.3-.12-7.93.13-.35.03-.63.32-.62.68s.28.65.64.67h7.67l7.67.3c.8.01 1-1.32.17-1.43z" class="E"/><path d="M318.66 169.37c-.64-.16-1.35-.1-2-.13-.65-.05-1.3-.01-1.95.13-.2.08-.34.27-.35.5s.1.43.3.52a6.8 6.8 0 0 0 1.94.31c.66.04 1.36.15 2 .05.33-.04.6-.32.6-.66s-.22-.64-.55-.7zm11-5.77c-1.75-.06-3.5.04-5.22.3-.6.1-.77 1.1-.07 1.16 1.8.2 3.6.2 5.4.05 1-.1.84-1.47-.1-1.52zm.75-9.6a32.3 32.3 0 0 0-8.04.13c-.53.08-.66.88-.07 1a32.6 32.6 0 0 0 7.99.5c.9-.05 1.05-1.54.1-1.63z" class="D"/><path d="M243.6 108.43c-15.6 3.64-20.8 25.27-20.8 31.25l26.02 4.55s4.04-21.65-.87-29.1c-2.26-3.42-3.43-6.73-4.34-6.7z" class="C"/><path d="M246.03 140.67c-3.9-.93-7.85-1.64-11.83-2.13-1.95-.23-3.9-.43-5.87-.55-1.9-.1-3.85-.27-5.7.27-.84.23-.74 1.56 0 1.84 1.75.67 3.7.74 5.54.95a128.8 128.8 0 0 1 5.83.8 130.2 130.2 0 0 1 11.54 2.36c2.18.53 2.7-3.03.5-3.54z" class="G"/><path d="M262.1 228.54c-6.96 1.28-14.2-.48-20.22-4.76-6.07-4.3-10.66-11.15-12.98-19.04-1.35-4.6-1.78-9.33-1.8-14.17 0-2.1-2.38-2.2-2.7-.2-1.43 9.2 1.1 19.12 5.4 26.77 4.06 7.22 10.3 12.56 17.28 15.2-2.17 12-3.6 24.26-5.3 36.38l-4.57 32.66c-.23 1.7-.53 3.27-.3 4.97a1.9 1.9 0 0 0 3.62.53c.64-1.5.73-3.15.93-4.8l8.44-68.86c4.27 1.16 8.73 1.36 13.08.57 2.88-.5 2-5.77-.88-5.24z" class="E"/><path d="M294.98 53.45c-.08-1.46-1.76.84-2.92 1.02.34-1.3.2-3.07-1.03-3.9-3.43-2.3-8.1-3.1-12.08-3.3-4.13-.2-8.13.35-11.95 2.05a2.2 2.2 0 0 0-1.23 2.23c-.8.13-1.6.32-2.4.57-4.54 1.46-7.34 6.06-7.6 10.95-.32 5.74 2.38 10.64 5.15 15.36 1 1.7 3.6 1.72 4.95.57 1.63-1.4 1.52-3.5.5-5.24-1.16-1.98-2.3-4-3.1-6.2a9.5 9.5 0 0 1-.58-4.77 6.1 6.1 0 0 1 .7-2.21c1.72-1.45 3.8-2.13 5.94-2.3h.03c1.45-.01 2.9.06 4.34.2 2.43.32 4.83.9 7.23 1.36.37.1.73.2 1.1.32 2.2.68 4.38 1.8 6.68 1.93 1.46.07 2.9-.3 4.17-1.05 2.97-1.74 2.1-7.3 2.1-7.65z" class="F"/><path d="M274.8 53.08a17.1 17.1 0 0 1-2.66 3.8c-.53.53.15 1.52.72.98 1.28-1.16 2.27-2.62 2.86-4.25.2-.55-.6-1.1-.92-.53zM279 53a6.7 6.7 0 0 1-2.71 4.11c-.53.38 0 1.4.57 1.06a7 7 0 0 0 3.37-5c.14-.83-1.06-.98-1.23-.17zm5.66-1.7c-.53 2.66-1.75 4.82-3.28 6.94-.37.53.34 1.22.8.78 2.06-1.94 3.2-4.77 3.62-7.6.12-.8-1-.86-1.14-.1zm6.04-1.92c-.3 3.97-1.86 7.03-4.08 10.15-.34.48.22 1.3.72.86 2.96-2.6 4.45-6.9 4.66-10.9.04-.78-1.24-.88-1.3-.1zm2.36 4.72c-.2 1.9-.5 3.63-1.4 5.32-.33.6.46 1.28.86.67 1.15-1.72 1.85-3.87 1.54-6-.03-.26-.25-.45-.5-.45s-.47.2-.5.45z" class="I"/><path d="M237.73 193.77l5.1-1.65-13.4-17.46a76.8 76.8 0 0 0 2.08 21.77c1.88-1.24 4.15-1.98 6.23-2.66z" class="C"/><path d="M247.48 207.5a30.9 30.9 0 0 1-7-8.11c-1.08-1.74-1.93-3.6-2.55-5.55-2.28.73-4.6 1.5-6.6 2.78 1.82 6.95 4.87 13.73 9.75 18.64 12.53 12.63 25.65 7.7 25.65 7.7l2.4-8.73c-11.2-.01-18-3.77-21.64-6.72z" class="H"/><ellipse cx="123.49" cy="55.54" rx="43.55" ry="41.28" class="D"/><path d="M156.98 185.07l-35.23 29.9s28.4.77 32.7 18.45c3.27 13.44-17.22 46.02-27.25 60.88a4.8 4.8 0 0 0-1.15-.53c-.1.08-.22.13-.34.16-.72.18-2 .23-2.52.83s-.67 1.97-.86 2.76c-.14.48-.63.76-1.1.63l-.54-.2c-.02.64.12 1.27.4 1.84.06.16.1.32.18.47 1.27 1.84 2.54 3.72 3.9 5.5a67.6 67.6 0 0 0 2.57 2.45c.53.48 2.3 1.86 2.97 1.92.26-.18-.57-1.48-.3-1.66 1.1-.84 3.32-.6 4.4-1.48.04-.27-1.06-1.68-1.1-1.96.3-.87.3-1.82-.02-2.7a7.1 7.1 0 0 0-.58-1.23 401.3 401.3 0 0 0 46.33-50.33c23.1-30.1 9.83-50.7-22.48-65.72z" class="C"/><path d="M202.15 301.4c-.6.38-1.1.9-1.44 1.5l.4 1.16a3.9 3.9 0 0 1 .53.39 14 14 0 0 1 2.72 3.43c4.68-2.34 9.47-4.44 14.32-6.4-.46-1.97-.88-3.94-1.22-5.93-.8-.42-1.68-.6-2.56-.5 1.6-18.9 3.63-67.15-14.6-86.54-21.55-22.9-45.6-26.8-45.6-26.8s-10.18 14.2-14.25 18.32c-6.34 6.42-28.15 22.55-28.15 22.55 30.3 11.75 52.44-4.18 73.04 20 14.7 17.24 17.73 44.62 18.26 58a20.6 20.6 0 0 0-1.43.82z" class="G"/><g class="B"><path d="M122.16 113.64c-.76 11.8-1.34 30.17 12.92 39.76 13.85 9.3 28.78 14.2 38.1 14.43l-.54 2.57-1.8 3.96s-37.36 10.5-57.78-1.86c-25.15-15.2-29.86-39.3-23.2-53.13 10.54-21.93 32.94-15.25 32.33-5.73z"/><path d="M120.64 118.22s-12.2 18.06 2.8 39.1c14.62 20.52 27.68 23.5 33.74 25 0 0-6.87 11.56-18.28 22.65-13.03 12.65-26.62 17.58-26.62 17.58S74.3 211.22 74.3 161.3c0-40.58 30.75-62.6 40.9-60.3 11.34 2.57 5.43 17.25 5.43 17.25z"/></g><path d="M174.67 174.54c8.5.22 12.72-7.53 18-7.4s5.35 2.33 8.9 2.42-8.03-7.7-9.78-8.57c-2.95-1.46-7.56.12-10.65 3.08-3.65 3.5-7.64 3.84-7.64 3.84l-1.9 6.5 3.06.13zm-22.7-90c3.7-8.88-.75-21.3-14.94-21.37-10.14-.04-13.6 11.84-14.12 15.92-.97 7.75 2.5 9.65-1.26 14.8a34.3 34.3 0 0 1-7.52 7.3s-1.46 1.74 1.2 6.33c1.32 2.26 6.84 5.35 6.84 5.35s-.02-6.83 4.54-9.7c6.4-4.05 6.57 1.96 12.34.53 5.9-1.46 7.9-6.94 7.9-6.94l3 1.2s-.4-7.65 2.02-13.4z" class="F"/><path d="M123.3 83.44c9.72 1.06 7.6-14.14 20.54-12.6a10 10 0 0 1 9.51 9.17s3.83-26.26-18.25-21.78-12.04 24.6-11.8 25.22z" class="D"/><ellipse cx="123.22" cy="82.76" rx="5.24" ry="5.27" class="F"/><path d="M101.68 93.03c-1.55-1.88-4.6-1.68-6-3.77-.46-.68-1.55-.23-1.46.57.16 1.4 1.46 2.2 2.57 2.8 1.25.68 2.7 1.44 4.13 1.65.65.1 1.23-.7.77-1.26zm66-24.76c-1.73 2.23-2.64 4.95-4.47 7.1-.6.72.37 1.86 1.14 1.25 2.4-1.94 3.3-4.82 4.86-7.37.55-.9-.9-1.8-1.53-1z" class="D"/><path d="M107.33 76.94c-.75-.27-2.36-.3-2.9-.88s-.47-1.86-.9-2.6c-.67-1.17-1.7-1.26-2.9-1.56-1.32-.34-1.42-.74-1.56-2.02-.1-.84-.2-1.6-.73-2.3s-1.4-1.06-2.13-1.56c-1.08-.74-.9-1.12-.6-2.42.2-.84-.95-1.68-1.47-.77-.9 1.57-1.2 3.16.3 4.44 1 .85 2.33 1.14 2.54 2.58.14 1 .03 1.92.67 2.77 1.2 1.6 3.72.7 4.5 2.43.4.92.7 1.9 1.6 2.5s2.1.56 3.08.78c.9.2 1.44-1.06.52-1.38zm15.47-16.27c-.4-.82-1.93-1.68-2.14-2.2-.35-.85.17-1.94-.26-2.9s-1.23-1.58-1.96-2.25c-1.12-1.02-1.56-1.67-.63-3.05.7-1.02 1.25-1.97 1.12-3.25s-1.05-1.95-1.78-2.9c-1.7-2.2-.1-4.08 1.6-5.63.92-.84-.2-2.32-1.2-1.54-2.1 1.64-4.15 4.06-3.04 6.9.5 1.3 2.68 2.7 2.17 4.16-.45 1.3-1.72 1.92-1.8 3.44-.13 2.47 2.2 3.06 3.3 4.8.6.95-.05 2 .35 3 .2.5 2.1 2.1 1.87 2.34-.98 1.03.62 2.25 1.64 1.62.94-.58 1.28-1.54.78-2.56zm24.54-16.3c.75-.78-.48-1.9-1.3-1.3-1.32.97-3.3 1.78-3.84 3.5a3.5 3.5 0 0 0 .26 2.5c.38.78 1.6 1.43 1.47 2.3s-1.55.98-2.17 1.57a3.1 3.1 0 0 0-.91 2.37c0 1.26.34 2.5.38 3.78.04 1.55-.98 2.23-1.63 3.53-.55 1.1 1.1 2.04 1.83 1.06 1.35-1.8 1.92-3.14 1.9-5.42 0-1.2-.65-3.2.24-4.06.58-.56 1.46-.6 2-1.28 1.3-1.6.08-2.92-.87-4.2-1.58-2.1 1.4-3 2.64-4.3zm-46.04-6.84c.43-.7-.42-1.75-1.18-1.24-1.1.73-2.24 1.54-2.45 2.92-.14.9.14 1.8.4 2.66.4 1.3.55 2.12.2 3.52-.2.86.94 1.78 1.6.98 1.16-1.4 1.04-2.87.55-4.55-.2-.72-.75-1.82-.5-2.57.2-.6 1.03-1.16 1.37-1.72zm14.4 51.72c-.53-1.7-2.33-3.8-4.23-2.66l-1.12.7c-.08.05-.17.08-.26.08a1.7 1.7 0 0 1-.04-.19c-.12-.7-.6-1.3-1.27-1.6-.87-.38-1.83.88-.96 1.47.46.3.26 1.12.55 1.6.4.7 1.2.94 1.97.88a3.6 3.6 0 0 0 1.47-.45c.16-.1.68-.63.82-.6.24.04.62 1 .77 1.22a1.8 1.8 0 0 0 1.17.85c.77.2 1.33-.62 1.12-1.3z" class="J"/><path d="M145.83 96.1a7 7 0 0 1 2.07.93c.2.05.42.01.6-.12s.26-.33.26-.54c.05-1.1.2-2.2.43-3.3.18-.7.58-1.45.55-2.2s-.5-.72-1.02-.48c-1.48.7-2.63 1.9-3.84 2.95-.54.47-1.12.9-1.73 1.28-.23.14-1.47.7-1.83 1.2 1.5-.06 3.04-.08 4.5.28z" style="mix-blend-mode:multiply" class="I K"/><path d="M161.33 53c-.64-.63-1.43.27-1.1.95.18.37-1.28.93-1.6 1.2a2.2 2.2 0 0 0-.85 1.8c.04.76 1.32 2.12.86 2.7-.37.45-1.78.53-2.34.9-.48.32-.62.96-.3 1.45.3.58 1.1 1.37.6 2.02-.26.34-1 .47-1.37.66-.93.5-1.5 1.04-1.66 2.1-.13.9 1 1.62 1.64.84.93-1.1 2.52-1.4 3.3-2.63.7-1.1.33-2.23-.24-3.27.83-.38 1.83-.45 2.35-1.37.74-1.3-.33-1.94-.53-3.12-.18-1.06 1.2-1.1 1.73-2 .5-.85.14-1.6-.5-2.25z" class="J"/><g class="I"><path d="M124.9 81.2c-1.54-.36-2.9.43-4.23 1.14-.4.22-.16.9.26.7l1.32-.64c.06.58.23 1.38-.1 1.75-.16.25-.14.57.05.8.2.22.52.3.8.16 1.06-.36.68-2.26.37-3.08a2.2 2.2 0 0 1 1.28.09c.63.26.95-.76.25-.9zm16.23 13c.84-.85 1.5-1.9 1.12-3.02-.65-1.84-3.36-1.8-4.64-.76a4.5 4.5 0 0 0-1.53 3.15c-.1.9.06 1.87.93 2.33.96.5 2 .03 2.8-.57l.2-.16a4 4 0 0 0 1.12-.97z" style="mix-blend-mode:multiply" class="K"/><path d="M150.34 90.46c-.4-.33-.95-.46-1.46-.33-.7.18-1.36.46-1.96.85-.18.1-.3.3-.33.5s.02.42.15.58a5.1 5.1 0 0 1 2.38-.57c.13-.05.27-.04.4.02.18.02.36.06.53.1.07-.4.17-.78.3-1.15z"/></g><path d="M153.56 88a6.9 6.9 0 0 0-2.91 1.43c-.2-.18-.45-.3-.72-.36a2.4 2.4 0 0 0-1.54.17l-.12.05.4-.9c.72-1.84-.4-3.35-2.24-3.66-3.6-.6-6.9 3.26-7.9 6.34-.85 2.56.72 5.8 3.7 4.54 1.87-.8 3.8-2.74 5.13-4.74.66-.53.66-.53 1.56-.73 1.16-.27.85.98 1.38 1.46.16-.06.2-.18.28-.34.18-.34.3-.72.35-1.1a7.1 7.1 0 0 1 2.49-1.22c.9-.24 2.17-.22 1.43.95a12.2 12.2 0 0 1-2.24 2.45c-.33.3-1.7 1.67-2.18 1.47-.6-.23-.9.75-.3.97 1.02.37 2.48-1.15 3.13-1.73.96-.86 2.58-2.22 2.8-3.6.25-1.46-1.47-1.7-2.5-1.46zm-10.83 6.17c-1.3.88-2.62 1.14-3.3-.5-.58-1.4.13-2.93.87-4.1 1.37-2.15 3.35-4.08 6.08-3.82.38.02.74.14 1.06.34 1.46 1.03-.6 3.65-1.3 4.62a15 15 0 0 1-3.4 3.47h0z" class="B"/><path d="M145.32 81.33c-2.07.1-4 1.03-5.37 2.6-.35.44.2.92.64.66 1.32-.78 2.78-1.74 4.36-1.86.5-.02 1 .03 1.5.14.26.04.5.1.76.18.17.06.45.3.32.1.32.45 1.15.27 1.2-.3.08-1.47-2.4-1.52-3.4-1.52z" class="D"/><path d="M126.78 85.65c-1.23 1.26-3.32 2.28-4.88 1.76l-.55.15c.57.53 1.35.78 2.1.66-.05.18-.07 1.04-.12 1.47a6.4 6.4 0 0 1-.81 2.8c-.65 1.17-1.9 2.36-2.62 3.48-.55.85-1.37 1.6-2.08 2.34-.77.8-1.6 1.54-2.45 2.23a10.1 10.1 0 0 1-1.71 1.18c-.35.17-.1 1.3-.07 1.6a9.9 9.9 0 0 0 1.52 4.2c1.02 1.47 2.57 2.47 3.96 3.58.7.56 1.46-.48.97-1.12-1.7-2.2-2.84-5.08-2.1-7.88.62-2.37 2.4-4.2 4.07-5.88 2.76-2.8 5.7-5.95 5.02-10.18-.03-.16-.12-.3-.25-.4z" style="mix-blend-mode:multiply" class="I K"/><path d="M173.5 167.82c-.7-1.06-2.38.03-1.65 1.1.1.13.17.27.24.4-3.36.33-6.67.74-10.06.9-.55.03-.53.9 0 .96a26 26 0 0 0 10.3-.75c-.02 1.78-2.16 3.2-3.8 3.72-2.1.7-4.4 1.06-6.6 1.5a130.1 130.1 0 0 1-15.12 2.16c-9.36.74-18.86.14-27.84-2.74-15.73-5.05-30.2-18.77-29.9-36.4a29.1 29.1 0 0 1 11.6-22.9c.6-.45 0-1.4-.65-1-7.2 4.5-11.54 12.88-12.44 21.22-.96 8.92 2.02 17.8 7.4 24.9 12.6 16.6 34.56 20.66 54.17 18.74a139.2 139.2 0 0 0 18.35-3.1c2.16-.5 4.43-1.26 5.77-3.15a4.8 4.8 0 0 0 .2-5.56zm-70.25-46.62a21.4 21.4 0 0 0-1.82 4.75c-.12.46.64.7.8.27l1.75-4.66c.1-.2.01-.44-.18-.54a.4.4 0 0 0-.53.19zm4.88 26.54c-1.96-2.58-3.5-4.92-4.17-8.15-.04-.26-.28-.45-.54-.4s-.45.28-.4.55c.33 3.2 1.9 6.68 4.64 8.5.32.2.74-.16.5-.5zm17.7 14.5c-3.23-1.23-6.15-2.4-8.9-4.56-.5-.4-1.04.4-.57.8 2.54 2.22 5.88 4.2 9.3 4.56.2.01.4-.13.43-.33s-.06-.4-.25-.5zm24.84 7.2c-2.13-.37-4.3-.4-6.44-.73a70.4 70.4 0 0 1-6.37-1.33c-.68-.17-.88.83-.24 1.05 3.98 1.37 8.7 2.56 12.95 2.06.56-.06.75-.95.1-1.06zm-20.78 42.96c-1.3-1.6-3.12-2.84-4.73-4.08-.67-.52-1.6.37-.93.97 1.53 1.43 3.12 3.06 4.94 4.1.65.37 1.13-.48.72-1zm6.05-4.12c-.6-.78-1.43-1.25-2.27-1.76l-2.87-1.67c-.67-.35-1.43.67-.8 1.14l2.6 1.73c.88.57 1.7 1.18 2.73 1.4.44.1.9-.45.6-.84zm5.02-4.83c-1.47-1.77-3.8-2.56-6.05-2.6-.7-.02-.7 1.13-.03 1.23 2 .3 3.54 1.12 5.23 2.2.52.33 1.3-.25.84-.8zm4.67-5.05c-.83-.56-1.85-.84-2.77-1.18a30.6 30.6 0 0 0-3.11-1.01c-.63-.15-1.12.76-.5 1.1a29.9 29.9 0 0 0 2.96 1.28c1 .4 2 .86 3.06 1 .67.1.82-.86.35-1.18z" class="H"/><path d="M215.63 294.3c-3.2 1.3-6.32 2.77-9.36 4.4.12-.35.17-.72.14-1.1-1.42-19.62-3.27-40.78-16.44-56.46-5.9-7.02-13.45-11.92-22.32-14.17-9.9-2.5-20.24-1.77-30.34-1.98-8.1-.16-16.5-1-23.85-4.43a52.1 52.1 0 0 1-3.93 1.61c14.1 9.98 33.38 6.2 49.65 8.05 9.2 1.06 17.62 4.3 24.27 10.93 6.08 6.07 10.18 13.93 12.78 22.08 3.6 11.27 4.4 23.22 5.25 34.95.02 1.1.85 2 1.93 2.1a99 99 0 0 0-1.92 1.15c.12.1.24.2.33.32.2.27.4.55.6.83a568.3 568.3 0 0 1 13.81-7.09c.8-.4.2-1.54-.6-1.2z" class="C"/><g class="H"><path d="M149.17 193.82l-6.3-1.2c-.27-.05-.55.1-.64.37s.01.56.25.7c1.95 1 4.38 1.6 6.57 1.4.68-.07.84-1.1.1-1.25z"/><path d="M156.98 185.07c-2.24-.73-4.76-1.1-7.1-1.46l1.76-2.64c.54-.9-.6-1.86-1.28-1-2.76 3.53-5.24 7.2-8.23 10.56a105.5 105.5 0 0 1-9.84 9.69c-6.9 5.97-14.53 10.8-22.6 15.04-.2.1-.34.32-.35.56s.1.46.3.6c-7.35-2.66-13.82-6.78-19.26-12.62-6.68-7.17-11.13-16.05-13.34-25.6-4.6-19.85-.63-43.3 11.87-59.58a107 107 0 0 1 13.79-13.92c-9.65 7.33-19.05 17.66-23.78 29.05-2.6 6.24-5.55 14.45-4.35 40.3 1.38 11.93 5.26 21.3 13 30.76 6.74 8.23 15.12 15.1 23.55 18.46 2.3.92 6.94-4.28 4.5-5-1.14-.33-4.72-1.4-5.83-1.8.12.02.24 0 .35-.05a84.2 84.2 0 0 0 5.62-2.82c0 .17.07.33.18.46.72.78 1.5 1.5 2.28 2.23.66.63 1.37 1.48 2.28 1.73.44.12.97-.32.8-.8-.36-.95-1.27-1.58-2.02-2.23-.8-.7-1.56-1.38-2.38-2.02l2.55-1.5.01.04c.8 1.67 2.5 3.58 4.45 3.68.22 0 .42-.13.5-.34s.04-.44-.1-.6c-.62-.55-1.36-.93-1.97-1.5a7.4 7.4 0 0 1-1.54-2.02l-.05-.07a107.5 107.5 0 0 0 12.46-9.25c3.35-2.88 6.53-5.97 9.5-9.24l2.66-2.96c2.33.73 4.9 1.33 7.3 1 .56-.08.53-1 0-1.1-2.1-.43-4.2-.6-6.3-1.06a71 71 0 0 0 2.62-3.23c.1.1.23.18.37.2 2.35.6 4.87 1.3 7.3 1.52.38.05.74-.2.82-.58s-.14-.76-.5-.87z"/></g><path d="M206.4 301.65a50.8 50.8 0 0 0-5.16 2.62c-.64.36-.1 1.5.58 1.17a51.1 51.1 0 0 0 5.08-2.75c.53-.36.1-1.28-.5-1.03zm11.55-3.05a20.6 20.6 0 0 0-2.3 1.27c-.5.32-.1 1.2.45.95.8-.35 1.57-.75 2.32-1.2.54-.32.1-1.3-.48-1z" fill="#000b3b"/><path d="M144.67 232.17c-1.88-.48-3.63-.12-5.54 0l-5.68.16c-3.8-.03-7.57-.38-11.3-1.02-7.48-1.3-14.72-3.76-21.44-7.3-12.77-6.77-23.05-17.43-29.88-30.18a71.9 71.9 0 0 1-4.78-10.98c-1.3-3.87-2.04-7.86-3.15-11.77-.4-1.44-2.68-1.33-2.67.3.06 7.37 2.78 15.06 5.72 21.73a75.1 75.1 0 0 0 12.12 18.95c7.7 8.83 17.55 15.62 28.4 19.92-2.4 5.15-3.85 10.87-5.63 16.25l-18.8 56.5c-.88 2.68-2.4 5.74-2.6 8.55-.18 2.44 2.74 3.4 4 1.3 1.4-2.32 1.92-5.53 2.74-8.1l2.62-8.32c1.7-5.43 9-27 10.72-32.42l5.1-16.28c1.67-5.37 3.8-10.82 4.84-16.36 2.9 1 5.85 1.84 8.85 2.5 4.32.94 8.7 1.5 13.13 1.7a71.1 71.1 0 0 0 6.94-.04c2.26-.12 4.68-.08 6.7-1.22 1.52-.87 1.38-3.38-.4-3.83z" class="E"/><path d="M246.23 119.4l-13.12 49.72a6 6 0 0 1-5.75 4.53c-3.15.3-6.4 0-9.57-.05l-34-.35c-1.53.02-1.72 2.33-.15 2.42 7.32.42 14.65.64 21.98.87l11 .35c3.4.1 6.85.4 10.25.25 2.75-.1 5.48-.74 7.4-2.85 2-2.2 2.62-5.24 3.36-8.03l12.08-45.66c.6-2.3-2.88-3.5-3.5-1.2z" class="O"/><path d="M181.75 242c-1.7 1.7-2.95 4.02-4.33 6l-4.37 6.1a416.4 416.4 0 0 1-9.14 12.05 435.5 435.5 0 0 1-19.44 22.91l-11.53 12.45c-.15.17-.25.38-.26.6l-2.95-2.8-4.97-4.65c-.8-.73-2 .43-1.2 1.2l5.1 4.9c1.63 1.54 3.22 3.17 5.02 4.5.7.5 1.32-.55.85-1.13l-.83-.95a1 1 0 0 0 .62-.27c7.53-6.64 14.3-14.3 20.9-21.9a396.2 396.2 0 0 0 18.76-23.33l5-6.86 2.5-3.57c.82-1.18 1.77-2.34 2.34-3.67.55-1.28-.92-2.73-2.05-1.6z" class="G"/><path d="M244.74 118.67c-1.25 4.2-2.76 8.06-3.96 12.34s-8.46 33.38-9.38 36.48c-.53 1.73.03 2.77.38 1.7.7-2.12 2.57-9.56 3.24-11.7 1.3-4.15 2.2-8.7 3.4-12.97s2.06-8.2 3.22-12.52c1.2-4.43 2.78-8.37 3.77-12.95.3-1.38-.33-1.55-.68-.37z" fill="#f8f8f8"/><path d="M176.54 161.3c-1.72.47-3.37 1.03-5.15 1.23-1.76.2-3.55.12-5.3-.23-.97-.2-1.2 1.27-.26 1.5 3.67.92 8.1.9 11.4-1.13.8-.5.1-1.6-.7-1.38z" class="B"/><path d="M240.8 121.03l-1.76-2.62c-.4-.58-1.3.02-.9.6l1.73 2.64c.4.6 1.33-.03.93-.62zm-1.7 3l-2.27-.88c-.6-.23-.96.7-.36.93l2.27.88c.6.23.96-.7.36-.93zm-.76 3.26l-3.14.5c-.7.12-.55 1.2.15 1.1l3.14-.53c.67-.15.54-1.16-.14-1.07z" fill="#f8f8f8"/><path d="M140.07 100.2c-.5-.3-1.03-.5-1.48-.88a5.8 5.8 0 0 1-1.13-1.31c-.38-.58-1.34-.1-1.1.55.5 1.3 1.8 2.75 3.28 2.85.3.05.6-.13.7-.43s-.03-.63-.3-.78z" style="mix-blend-mode:multiply" class="I K"/><path d="M242.15 318.92c-6.12-1.76-23-6.8-25.1-12.77 0-5.3-.44-4.27-.44-4.25-.1.05-8.9.6-11.2 3.6-1.98 2.58-1.17 15.5-1.17 15.5l36.6-.35c1-.04 2.3-1.44 1.3-1.73zm-98.93-1.02c-5.08-1.67-10.3-4.5-12.8-9.32a67 67 0 0 1-4.35-5.19c-1.16-1.54-2.14-3.23-3.3-4.78.03-.03.06-.06.08-.1.12-.14.16-.33.1-.5s-.2-.3-.4-.33c-3.47 2.03-7.13 3.84-10.38 6.15l6.77 12.33a11.4 11.4 0 0 0 2.63 2.28c3.4 2.12 8.1 1.68 12 1.78l12.6.07c.37.05 4.2.46 3.28-.9-.26-.4-.8-.45-1.26-.5a22 22 0 0 1-4.97-1zm302.56 4.97l33.38-.7s-1.86-17-3.75-19.7c-2.2-3.14-8.02-.33-8.12-.38 0 0-.44-1.1-.27 4.57-1.73 6.47-17.34 1.95-22.48 14.4a1.3 1.3 0 0 0 1.23 1.8zM426.16 194.5c-10.7 44.23-7.46 107.07-7.46 107.07l9.88 2.36s9.1-56.17 19.38-73.75 26.76-68.83 27.5-78.68-17.6-16.13-17.6-16.13l-11.13 7.5s-15.03 28.8-20.55 51.63z" class="C"/><path d="M482.96 67.67c13.83-13.83 18.45-28.13 11.64-44.2-8.05-18.98-34.8-29-51.64-20.3-11.17 5.78-18.22 18.88-20.6 28.83-1.6 6.74-2.26 23.38 2.36 29.77 5.94 8.22-12.56 13.88-5.52 27.3 5.77 11-4.9 29.1-4.9 29.1s27.8 9.23 53.63-7.36c20.53-13.2 9.1-37.25 15.04-43.18z" class="B"/><path d="M501.5 122.1c6.88 32.73-.38 66.15-16.58 107.27-16.62 42.2-7.73 78.12-7.73 78.12l-12.14 1.6s-14.23-63.8-11.87-97 6.36-52.5 6.36-52.5l41.97-37.5z" class="G"/><path d="M432.37 59.15c.68 2.12.22 4.43-.3 6.54-.53 2.23-1.17 4.44-1.12 6.76a24.7 24.7 0 0 0 1.08 6.08c.65 2.33 1.4 4.66 1.47 7.12a11 11 0 0 1-.03 1.16 12.6 12.6 0 0 1 .1 5.57c2.12-2.46 2.12-6.44 1.57-9.52-.83-4.68-3-8.83-2.06-13.74.74-3.87 2.46-8.36.24-12.03-1.03-1.7-2.83-2.6-4-4.15s-1.72-3.63-1.82-5.65c-.3-5.36 2.14-10.4 2.57-15.7.05-.58-.86-.67-.96-.1-1.26 7.22-6.23 16.63-.6 23.1 1.34 1.54 3.22 2.46 3.9 4.56zm-5.4 33.98a9.5 9.5 0 0 0-1.79-3.89 6.1 6.1 0 0 1-1.22-4.56c.36-2.94 1.57-5.64 1.34-8.65-.04-.57-.92-.46-.9.1.14 2.94-1.48 5.64-1.86 8.52a7.3 7.3 0 0 0 .36 3.64c.58 1.5 1.82 2.6 2.3 4.13.95 3 .04 6.6-.42 9.6-.25 1.7-.58 3.38-1 5.04-.44 1.72-1.25 3.33-1.65 5.04-.15.65.82 1.02 1.2.5 1-1.35 1.44-3.1 1.87-4.7a46.5 46.5 0 0 0 1.04-5.04c.5-3.1 1.27-6.6.7-9.76zm33.6-42.07c-.03-.14-.1-.27-.16-.4-.36-.56-1.13-.67-1.78-.58-2.08.28-3.66 1.92-5.46 3-3.2 1.92-6.12.4-7.1-3.04-.5-1.78-.1-4.03-1.18-5.6-.53-.74.43-1.97-.36-2.28-.65-.27.04-.72.2-1.43.15-.6-1.76.2-1.6-.4l3.83-15.38c.2-.88.94-2.46.6-3.33s-1.55-1.75-2.2-2.42c-1.1 2.37-4.94 1.64-6.47 3.75-5.57 7.66-7.76 18.37-1.68 26.42 1.35 1.8 3.04 3.35 4.2 5.3 2.3 3.84.42 7.6-.82 11.43-.6 1.87-.38 10 2.46 10.6.5.07.98 0 1.43-.2 2-.7 3.7-2.1 5.3-3.53 3.07-2.77 5.9-5.86 7.95-9.46s3.25-7.74 2.94-11.86a3.2 3.2 0 0 0-.12-.6z" class="L"/><path d="M457.9 64.3c-15.54 5.7-18.94 20.75-31.14 37.36-11.32 15.42-21.52 30.25-33.72 32.93l-.55 5.1s13.64 6.25 33.38-5.72 35.98-41.92 35.98-41.92L457.9 64.3z" class="D"/><path d="M443.63 25.6c-1.52 5.63-3.85 16.2-5.12 18.07l3.02.64s.44 3.4 4.47 7.44 8.75 2.3 10.14 1.65c1.83-.85 1.5-1.05 2.63-.7 2.4.75 1.7 9.8-3.15 12.26-1.55.8-2.72 1.3-3.4 1.97-2.12 2.1-.55 4.12 1.08 4.58 2.45.7 6.53.8 13.17-1.2 7.3-2.22 5.78-6.9 5.78-6.9s-6.24-2.1-6.25-12.92c0-8.05 7.95-9.28 7.44-21.43-.38-9.26-8.32-13.4-14.6-14.1-4.4-.5-12.38.1-15.23 10.64z" class="M"/><path d="M466.2 48.67c.4-1.43.9-2.82 1.48-4.18.27-.63-.44-.97-.93-.75l-1.14 4.48a92.8 92.8 0 0 0-.53 9.42V61c.02 2.7-.5 5.4-1.92 7.73a17.8 17.8 0 0 1-1.82 2.45c2 .55 6.08-.9 7.9-2.05 2.35-1.5 2.9-3.07 3.4-5.4a5.8 5.8 0 0 1-.8-.59c-2.36-1.33-4-3.6-4.95-6.07-.73-1.9-.97-4.18-.9-6.2.04-.8-.01-1.4.2-2.2z" class="N"/><path d="M441.23 95.7c-.17 6.8 6.13 20.3 5.55 33.66-.55 12.6-8.14 27.9-8.14 27.9l65.02 2.97s13.43-49.1-5.25-74.55c-15.6-21.26-28.63-23.8-28.63-23.8s1.17 6.63-9.3 7.9-8.03-3.1-8.03-3.1-10.88 15.77-11.2 29z" fill="#fff"/><path d="M503.63 157.2c-10.48-.5-20.96-.86-31.45-1.04-10.05-.17-20.1-.3-30.14.23.55-1.06 1.04-2.15 1.52-3.18a58.7 58.7 0 0 0 2.29-5.83 60.5 60.5 0 0 0 2.65-12.1 59 59 0 0 0-2.43-24.69c-.77-2.42-1.66-4.8-2.47-7.2s-1.33-4.86-1.98-7.3c-.14-.53-1-.53-1.02.06-.16 4.12 1.43 8.37 2.65 12.26s2.2 7.9 2.7 11.97c.97 8.17.23 16.46-2.2 24.33a60.4 60.4 0 0 1-2.41 6.53c-.93 2.12-2.17 4.1-3.1 6.23l-.02.04h-.2a1.4 1.4 0 0 0-.24.03c-.2.66-.4 1.33-.56 2 .26.32.65.5 1.06.47 21.74-.53 43.3 1.28 65.06 1.55 1.42.02 1.72-4.26.3-4.33z" class="E"/><path d="M470.84 61.64c2.63.28 5.7 1.04 18.25 10.5 12.07 9.1 33.46 51.8 7.06 78.53-20.64 20.9-38.9 24.1-38.9 24.1l-9.05-2.1s25.66-15 34.53-32.8c13.35-26.78-.37-49.27-.37-49.27s-6.75-9.93-8.33-13.56c-1.6-3.7-3.18-15.43-3.18-15.43z" class="D"/><path d="M440.46 21.88c7.75 11.6 17.95 14.9 26.24 16.67s2.56 7.43 2.56 7.43 19.88-10.2 8.1-24.96S460.12 4.04 453.5 8.2s-10.47 6.4-11.2 9.87c-.24 1.18-1.84 3.8-1.84 3.8z" class="B"/><path d="M392.8 134.75c-1.4-1.48-3.48-1.12-5.23-1.98a18.5 18.5 0 0 0-4.99-1.59c-2.77-.52-5.63-.3-8.3.6-.2.12-.32.3-.36.53.4.97 1.37 1.15 2.5 1.15.93.02 1.88-.08 2.8-.04.14 0 .26.1.3.23h.14c.05.13.03.28-.04.4s-.2.2-.34.2l-8.52.92c-.8.02-1.6 0-2.4-.05-.94-.06-1.92-.32-2.86-.2-.26.02-.47.2-.53.46s.05.5.27.65c1.5.98 3.83 1.05 5.57 1.1a23.2 23.2 0 0 0 3.45-.14c.02.1.03.07.05.16-1.17.17-2.36.27-3.54.3-1.97.04-3.82-.18-5.78-.2-.55 0-.8.9-.27 1.12 1.92.83 3.98.82 5.98.9 1.3.06 2.8-.1 4.15-.16 0 .03.16.2.17.24-1 .14-2.4.2-3.38.24-2.25.06-4.5-.05-6.75-.33-.53-.06-.94.8-.34 1.03 2.24.88 4.55.86 6.97.86 1.25 0 2.6-.23 3.85-.37.1 0 .1.27.2.27l.05.12c-.7.13-1.42.2-2.14.27l-4.9.2c-.63 0-.56.92-.05 1.08 1.55.47 3.27.53 4.88.53 3.03 0 6.02-.65 8.9-1.57 2.73-.87 6.3-2.7 9.2-2.5.5.04.2-.12.44-.53.4-.65.54-1.43.4-2.18.18-.01.35-.03.53-.06 0 0 .06-1.6-.06-1.72z" class="M"/><path d="M466.45 55.07l1.34 3.9c-.3-4.47 1.33-9.86 2.9-14.06-1.04 0-1.93-.6-2.98-.85a35.2 35.2 0 0 0-1.73 6.3c.02 1.75-.02 3.1.47 4.7zm.4-19.1c-7.06-.63-13.77-3.4-19.22-7.93-5.04-4.23-9.4-9.4-11.7-15.38-.24-.62-.14-.64 0 0 2.95 14 16.6 24.13 30.73 25.6 1.5.15 1.7-2.15.2-2.3z" class="L"/><ellipse transform="matrix(.2086 -.978 .978 .2086 409.7097 135.5791)" cx="106.63" cy="39.55" rx="5.35" ry="5.5" class="M"/><path d="M450.72 70c-3.8 3.53-8.8 12.98-9.7 18.6-1.13 7.14-1.02 11.38-1.67 18.55-.6 6.56-3.37 12.14-8.26 16.66-4.5 4.16-10.1 7.27-15.72 9.77-6.86 3.06-14.53 5.06-22.1 3.74.02-.85-.01-1.7-.08-2.54-.1-.94-1.54-1.3-1.8-.25-.17.8-.28 1.62-.36 2.45-.1.85-.27 1.72-.23 2.57.05.9 1.18 1.34 1.8.9 8.1 3.48 17.4 2.3 25.15-1.5 3.26-1.6 15.28-10.05 16.22-11.02 3.23-2.74 3.93-3.96 6.72-7.16 2.67-3.06 4.77-5.02 4.2-7.6-.5-2.28-2.34-7.76-2.82-10.05-.5-2.45-.78-4.94-.86-7.44a22.4 22.4 0 0 1 1.42-8.57C444.6 82 447.1 74.2 450.72 70z" class="J"/><g class="N"><path d="M473.4 39.1c-.1-1.1-1.33-1.84-2.36-1.94-1.1-.12-2.14.47-2.6 1.46-.2.5.48 1.1.94.7a2.5 2.5 0 0 1 1.09-.65c.06.6-.12 1.2-.5 1.64-.35.42-.86.66-1.25 1.04-.27.27 0 .75.34.8 1.64.18 2.57-1.77 2.5-3.2.22.2.4.43.62.65.47.46 1.32.23 1.25-.5z"/><path d="M449.58 38.02c-2.63-.32-2.97 2.54-2 4.67l.02.04.06.13c.56 1.17 1.53 2.12 2.7 2.17 3.68.15 2.26-6.64-.76-7z" opacity=".6"/><path d="M390.74 139.06c.01-.12.04-.24.08-.36-3.56-.35-7.26 1.2-10.47 2.57-.46.2-.93.4-1.4.56l-2.08.66-.06.03a12.2 12.2 0 0 1-2.75.41c-2.04.05-4.02-.45-6.05-.62-.27-.02-.1.38.14.46 1.44.48 2.94.77 4.45.87.76.05 1.52.03 2.27-.03 2.97-.27 5.83-1.04 8.7-1.86l6.8-1.96c.1-.01.2-.01.3 0a10.6 10.6 0 0 1 .04-.74z"/></g><path d="M493.86 117.3a46 46 0 0 0-13.52-30.5 50.7 50.7 0 0 1 8.54 29.97c-.57 14-7.7 26.45-16.6 37.02-1.92 2.27-3.5 3.37-5.64 5.4-1.94 1.42-4.4 3.8-6.42 5.1s-4.12 2.37-6.2 3.53c-.48.3-.96.57-1.46.83l-.12.07h-.01l-.37.18c1.2 1.16 2.98 3.3 3.25 4.8.2.5.36 1.03.53 1.6.36 1.17 2.24.92 2.18-.32-.1-2-1.56-4.15-3.45-5.36l8.45-4.84c2.16-1.26 17.96-13.45 22.1-19.5 5.68-8.3 9.1-17.9 8.74-27.98zm-25.73-56.02a11.6 11.6 0 0 1-6.22 6.7 11.8 11.8 0 0 1-4.6 1.03c-.88.02-1.84-.03-2.65-.4-1.15-.5-1.28-1.25-1.65-2.3a.8.8 0 0 0-.7-.52c-.3-.02-.6.16-.75.44-.97 1.93 1.08 3.9 2.8 4.5 2.12.76 4.58.57 6.72 0 4.27-1.14 7.9-4.33 9.44-8.37.58-1.54-1.83-2.65-2.38-1.1z" class="J"/><path d="M449.28 33.56c-1.64-1.87-4.57-2.92-7-2.4-.4.08-.3.7.07.77 1.1.16 2.17.3 3.2.7s1.88 1.1 2.77 1.76c.55.4 1.44-.25.94-.83z" class="L"/><path d="M398.85 315.84l21.3-.92a362 362 0 0 0 9.16-.43s.18-13.1-1.56-15.62c-2.02-2.92-8.24-3.07-8.34-3.1l-1.3 4.33c-1.52 6.15-15.76 3.83-20.38 14.1-.42.93.3 1.7 1.15 1.67z" class="C"/><path d="M477.77 59.44c-.14-1.98-.1-3.96.1-5.93.06-.53-.75-.6-.84-.08-.36 2.04-.44 4.12-.24 6.18.07.64 1.04.46 1-.17zm-64.1 40.26a17.3 17.3 0 0 1 .43 3.43c1.36-2.02 1.26-4.75.3-6.95-.34-.77-1.52-.22-1.2.55a6.2 6.2 0 0 1 .47 2.97z" class="B"/><path d="M474.88 33.54c-.8-3.13-4.04-4.87-6.86-6-3.38-1.37-8.38-2.8-8.8-7.06-.08-.86-1.45-.9-1.4 0 .23 3.47 3.07 5.8 6.1 7.18 3.7 1.7 7.6 2.6 9.54 6.47.4.78 1.6.2 1.4-.58z" class="L"/><path d="M395.85 129.82a10.3 10.3 0 0 1-3.02-.42h-.94c-.63 0-.94.95-.25 1.12 1.88.46 3.85.3 5.62-.48a8.6 8.6 0 0 1-1.42-.23zM502.5 82.47c-.57-.5-1.45.2-.94.8a14.2 14.2 0 0 1 3.1 6.6c.13.64 1.22.6 1.2-.1a9.9 9.9 0 0 0-3.37-7.3z" class="D"/><path d="M449.36 45.76c-1.17 1.06-2.47 1.57-3.93 2.08-.36.12-.16.62.18.6 1.6-.1 3.14-.97 4.35-1.94.47-.4-.16-1.15-.6-.75z" class="N"/><path d="M473.33 42.6c-.8-.34-1.2.74-.82 1.27.8 1.08 1.64 2.02 1.2 3.48-.4 1.4-1.95 2.33-3.4 2.16-1.4-.18-2.5-1.27-2.7-2.67-.18-1.55.85-2.68 2.1-3.47.55-.35.3-1.25-.4-1.1-5 1.08-3.9 8.42.82 8.95a5.1 5.1 0 0 0 5.16-3.04c.78-1.98.08-4.7-1.96-5.6z" fill="#fff"/><path d="M456.7 173.64c-.38-1.2-1.38-2.1-2.32-2.9a24.2 24.2 0 0 0-2.07-1.7c-3.53.8-5.36 2.12-8.98 2.02-4.8-.13-11.42 5.6-12.68 6.35 6.76.93 7.4-.23 10.77.1 1.78.18 5.97.13 7.76.2a16 16 0 0 0 4.73-.58c2.9-.9 3.05-2.68 2.8-3.5z" class="M"/><path d="M383.2 138.27c-.87-.85-1.58-1.86-2.08-2.97-.25-.57-.37-1.33-.82-1.76-.5-.48-1.08-.36-1.7-.36-1.22 0-2.36-.34-3.55-.6-.22-.05-.3.28-.15.46.53.62 1.5.64 2.3.8.98.2 2.37-.1 2.76.8.34.77.57 1.6 1.03 2.32a8.6 8.6 0 0 0 1.7 1.94c.33.26.82-.3.5-.63z" class="N"/><path d="M484.9 175.9c-.76 2.16-1.6 4.44-1.95 6.7-.12.77 1 1.06 1.3.34.88-2.12 1.34-4.5 1.83-6.75.15-.68-.95-.97-1.18-.3zm-3.63 14.15c-.67 1.82-1.6 3.74-1.86 5.67-.1.28.06.58.33.67s.58-.06.67-.33c.94-1.7 1.36-3.8 1.92-5.65.18-.6-.85-.97-1.08-.36zm-4.2 14.9l-.58 2.88c-.08.67.87.78 1.02.15.23-.95.34-1.93.48-2.9.08-.6-.8-.7-.92-.13zm-2.4 10.16c-.58 2.17-1.53 4.7-1.5 6.95 0 .3.22.57.52.63s.6-.1.7-.4c.88-2.08.93-4.77 1.2-7 .07-.53-.8-.7-.93-.17zm-3.14 13c-.02-.76-1.16-.7-1.17.05-.05 2.17-.32 4.4 0 6.57.08.62 1.06.82 1.17.1.3-2.2.05-4.5 0-6.72zm-2.68 16.07c-.08 1.04-.24 2.1-.17 3.15.03.53.82.62.93.1.23-1.06.24-2.2.3-3.28.05-.68-1.02-.64-1.07.04zm-.62 9.98c.03-.62-.87-.66-.96-.06-.25 1.7-1.08 3.95-.53 5.64.1.35.64.57.86.17.9-1.62.54-3.97.62-5.76zm-.52 12.42c-.27-.6-1.2-.3-.96.33.63 1.72.53 3.35.78 5.12.02.24.2.43.45.45s.46-.14.5-.38c.56-1.76-.07-3.88-.78-5.52zm1.23 13.63c-.2-.5-1.06-.23-.9.3.5 1.58.4 3.1.53 4.73.04.46.74.47.88.07.58-1.67.12-3.5-.52-5.1zm1.57 9.6c-.07-.82-1.3-.7-1.27.12.05 1.23-.06 2.64.36 3.8.1.23.32.37.57.34s.44-.2.5-.44c.26-1.2-.04-2.6-.15-3.83zm1.56 8.4c-.4-.9-1.78-.22-1.38.68a11.5 11.5 0 0 1 .82 4.34c.03.67 1.08 1.04 1.27.27.44-1.82.06-3.62-.7-5.3zm9.78-124.23a12.6 12.6 0 0 1-3.9-3.17c-1.08-1.37-1.62-2.88-2.22-4.5-.34-.94-1.65-.4-1.6.5.32 3.8 3.37 7.44 6.7 9.1 1.1.54 2.1-1.3 1.03-1.9zm7.54-15.6a52.6 52.6 0 0 0-.93 3.9c-.2.93 1.25 1.3 1.44.36l.7-3.98c.1-.76-.97-1.07-1.2-.28zm3.08.02a46.5 46.5 0 0 0-.9 6.29c-.07.95 1.33 1.27 1.5.28a47.3 47.3 0 0 0 .74-6.49c.03-.78-1.18-.8-1.34-.08z" class="C"/><path d="M441.04 177.25h-39.5c-2.72.25-5.46.2-8.2.2-4.27 0-8.53.26-12.8.43-15.53.62-31 .33-46.54.07-7.8-.13-15.6-.07-23.4-.15l-10.58-.2c-2.08.01-4.15-.1-6.2-.34h-121.1l3.68 5.76h268.13c.64-1.22.6-2.7-.13-3.86s-2-1.9-3.37-1.9z" class="E"/><path d="M444.86 181.6l-104.2-1.6c-35.57.75-71.15 1.26-106.73.5l-59.82-.88c-.93-.03-.6 3.64 4.93 3.83 11.63.4 20.1.15 28.67-.02-4.94 17.9-10.06 35.75-15.77 53.42s-11.96 35.16-18.7 52.45c-3.3 8.5-6.72 16.93-10.24 25.32-.52.13-.9.55-1 1.07l-.8 3.42c-.5 2.28 3 2.8 3.82.84a962.2 962.2 0 0 0 20.19-52.17c6.18-17.5 11.9-35.17 17-53.03a719.4 719.4 0 0 0 8.16-30.6 1.5 1.5 0 0 0-.02-.79c5.3-.1 10.77-.14 17.14.03a1759.5 1759.5 0 0 0 53.36.53l108.46.57a588.5 588.5 0 0 1 14.77.02c1.57 9.07 3.9 18.06 6 27l6.7 28.03 14.55 56.02 6.48 23.3c.75 2.64 1.4 5.38 2.44 7.93.8 1.93 4.04 1.28 3.65-.9-.84-4.73-2.57-9.38-3.9-14l-3.93-13.73-7.67-27.8-18.2-71.86c-1.1-4.66-2.12-9.36-3.36-13.98l38.12-.13c1.3-.1 1.2-2.78-.1-2.82z" class="O"/></g><defs ><path id="B" d="M61.8 57.66H42.05c-1.6 0-2.9-1.3-2.9-2.92s1.3-2.92 2.9-2.92H61.8c1.6 0 2.9 1.3 2.9 2.92s-1.3 2.92-2.9 2.92z"/><path id="C" d="M156.53 57.66h-40.9c-1.6 0-2.9-1.3-2.9-2.92s1.3-2.92 2.9-2.92h40.9c1.6 0 2.9 1.3 2.9 2.92s-1.3 2.92-2.9 2.92z"/><path id="D" d="M181.7 57.66h-9.15c-1.6 0-2.9-1.3-2.9-2.92s1.3-2.92 2.9-2.92h9.15c1.6 0 2.9 1.3 2.9 2.92s-1.3 2.92-2.9 2.92z"/></defs></svg>