<?xml version="1.0" encoding="UTF-8"?>
<svg width="334px" height="334px" viewBox="0 0 334 334" version="1.1" xmlns="http://www.w3.org/2000/svg" xmlns:xlink="http://www.w3.org/1999/xlink">
    <!-- Generator: Sketch 53.2 (72643) - https://sketchapp.com -->
    <title>illo_spot</title>
    <desc>Created with Sketch.</desc>
    <g id="Page-1" stroke="none" stroke-width="1" fill="none" fill-rule="evenodd" opacity="0.91">
        <g id="Homepage---Desktop" transform="translate(-581.000000, -1466.000000)" fill-rule="nonzero">
            <g id="illo_spot" transform="translate(580.000000, 1465.000000)">
                <g id="Layer_14" transform="translate(0.971660, 0.971660)">
                    <circle id="Oval" fill="#EFEFEF" cx="166.928936" cy="167.025081" r="166.703204"></circle>
                    <g id="Group" fill="#FFFFFF">
                        <path d="M315.81184,91.9649562 C315.347835,91.0453066 314.875469,90.1256571 314.390563,89.214368 L314.390563,163.969337 L315.81184,163.969337 L315.81184,91.9649562 Z" id="Path"></path>
                        <path d="M0.254993742,163.969337 C0.254993742,164.441702 0.254993742,164.914068 0.254993742,165.390613 L14.8857822,165.390613 L14.8857822,163.969337 L0.254993742,163.969337 Z" id="Path"></path>
                        <path d="M14.8690613,235.442829 C15.3288861,236.466984 15.8054318,237.486959 16.2861577,238.502753 L16.2861577,165.390613 L14.8690613,165.390613 L14.8690613,235.442829 Z" id="Path"></path>
                        <path d="M16.3028786,95.5515895 C15.8221527,96.563204 15.345607,97.5873592 14.8857822,98.6115144 L14.8857822,163.969337 L16.3028786,163.969337 L16.3028786,95.5515895 Z" id="Path"></path>
                        <path d="M333.619599,165.390613 C333.619599,164.914068 333.619599,164.441702 333.598698,163.969337 L315.81184,163.969337 L315.81184,165.390613 L333.619599,165.390613 Z" id="Path"></path>
                        <path d="M314.390563,244.835795 C314.875469,243.924506 315.347835,243.004856 315.81184,242.085207 L315.81184,165.390613 L314.390563,165.390613 L314.390563,244.835795 Z" id="Path"></path>
                        <polygon id="Path" points="83.295169 163.969337 83.2157447 164.149086 83.759174 165.403154 163.626558 165.403154 163.626558 163.981877"></polygon>
                        <rect id="Rectangle" x="165.047835" y="163.969337" width="75.0517647" height="1.4212766"></rect>
                        <polygon id="Path" points="81.179975 163.969337 16.3028786 163.969337 16.3028786 165.390613 80.8789987 165.390613 81.179975 164.705056"></polygon>
                        <polygon id="Path" points="243.289111 165.390613 314.390563 165.390613 314.390563 163.969337 242.808385 163.969337 242.724781 164.149086"></polygon>
                        <path d="M281.818248,242.001602 C269.657972,222.187334 257.572941,196.157071 244.789812,168.596846 C244.290972,167.532282 243.794919,166.463538 243.301652,165.390613 L242.14791,165.390613 L242.724781,164.136546 L242.641176,163.956796 L242.808385,163.956796 L244.789812,159.684606 C257.577121,132.128561 269.657972,106.098298 281.818248,86.28403 C287.600893,76.8618023 293.0533,69.5073926 298.175469,64.220801 C297.828511,63.7776971 297.477372,63.3387735 297.126233,62.8998498 C279.523304,80.9667835 261.786608,119.186583 243.289111,159.011589 L241.821852,162.192741 L241.520876,161.540626 L241.520876,17.9080851 C241.048511,17.6698123 240.571965,17.4357196 240.099599,17.2058073 L240.099599,158.497422 C215.98388,106.725332 191.103179,56.2574718 165.047835,51.5379975 L165.047835,0.338598248 L163.626558,0.338598248 L163.626558,51.3289862 C162.794211,51.229421 161.956704,51.1791706 161.118423,51.1784981 C132.755594,51.1784981 107.231139,105.521427 82.6179725,161.473742 L82.6179725,23.2002503 C82.1414268,23.4761452 81.6690613,23.7604005 81.1966959,24.0362954 L81.1966959,159.513217 L79.3532165,155.30373 C63.7860576,119.771815 48.7999499,85.5483104 33.9225282,66.540826 L32.9109136,67.895219 C36.9379658,73.2000187 40.6039244,78.7694827 43.884005,84.5659574 C54.9908636,103.769912 66.0977222,129.122979 77.8525156,155.964205 C78.9672424,158.505782 80.0819691,161.048753 81.1966959,163.593116 L81.1966959,163.969337 L81.3597247,163.969337 C81.3889862,164.02786 81.4140676,164.090563 81.4391489,164.149086 C81.3597247,164.337196 81.2803004,164.521126 81.1966959,164.705056 L81.1966959,165.390613 L80.8957196,165.390613 C79.8813183,167.706458 78.866917,170.022303 77.8525156,172.338148 C66.0977222,199.179374 54.9908636,224.52826 43.884005,243.736395 C39.2634627,251.723413 34.8728327,258.186041 30.7121151,263.12428 C31.0381727,263.579925 31.3642303,264.03975 31.6944681,264.495394 C47.2992491,246.173467 63.0085357,210.311314 79.3490363,172.994443 L81.1925156,168.784956 L81.1925156,310.009687 L82.6137922,310.845732 L82.6137922,166.824431 C107.214418,222.806008 132.738874,277.123855 161.101702,277.123855 C161.939919,277.121125 162.777307,277.070882 163.609837,276.973367 L163.609837,333.694844 L165.031114,333.715745 L165.031114,276.760175 C191.086458,272.040701 215.967159,221.581202 240.082879,169.796571 L240.082879,316.861076 C240.555244,316.631164 241.03179,316.397071 241.504155,316.158798 L241.504155,166.745006 L241.805131,166.097071 L243.289111,169.299124 C262.668636,211.055394 281.228836,251.043429 299.67199,267.873016 L300.679424,266.535344 C294.814568,261.121952 288.548411,252.974693 281.818248,242.001602 Z M165.047835,275.100626 L165.047835,165.390613 L163.626558,165.390613 L163.626558,275.330538 C162.794566,275.434922 161.956936,275.487972 161.118423,275.489387 C148.159725,275.489387 134.406783,263.090839 119.090438,237.587284 C106.967785,217.421877 95.208811,191.395795 83.7758949,165.394793 L82.6890363,165.394793 C82.868786,164.976771 83.0485357,164.558748 83.2324656,164.140726 L83.1530413,163.960976 L83.3118899,163.960976 C94.8911139,137.613016 106.800576,111.15637 119.073717,90.7108886 C134.390063,65.2115144 148.134643,52.8129662 161.101702,52.8129662 C161.940215,52.8143808 162.777846,52.8674307 163.609837,52.9718148 L163.609837,163.969337 L165.031114,163.969337 L165.031114,53.1933667 C190.676796,58.1302128 215.753967,110.044431 240.082879,162.385031 L240.082879,163.965156 L240.818598,163.965156 L240.902203,164.144906 L240.325332,165.398974 L240.082879,165.398974 L240.082879,165.921502 C215.770688,218.249562 190.693517,270.16796 165.047835,275.100626 Z" id="Shape"></path>
                    </g>
                    <g id="Group" opacity="0.2" transform="translate(66.047559, 31.351690)" fill="#BFBFBF">
                        <path d="M149.1797,205.637822 C129.177322,178.491439 102.118723,172.405031 97.7629287,171.042278 C93.4071339,169.679524 94.5650563,166.790989 93.2190238,160.102628 C92.295194,155.50438 92.9723905,153.259599 93.482378,152.310688 C133.633442,149.74821 165.407334,116.360751 165.407334,75.5784731 C164.534652,33.7329531 130.362529,0.266053238 88.5079099,0.266053238 C46.6532911,0.266053238 12.4811673,33.7329531 11.6084856,75.5784731 C11.6084856,114.362603 40.3224531,146.441652 77.6560451,151.717096 C77.6560451,151.717096 83.7215519,163.810488 73.5845056,170.728761 C63.3513141,177.713917 44.607184,178.253166 24.4668586,204.170563 C5.83141427,228.185957 0.22155194,254.667685 0.22155194,271.054168 L172.108235,271.054168 C172.108235,271.054168 169.182078,232.780025 149.1797,205.637822 Z" id="Path"></path>
                    </g>
                    <path d="M217.873342,222.910513 C197.921126,203.785982 182.95174,202.172416 175.924781,197.900225 L163.346483,197.971289 L150.764005,197.900225 C143.741227,202.172416 128.77184,203.785982 108.819625,222.910513 C78.8097872,251.670463 77.4010513,298.250713 77.4010513,298.250713 L249.291915,298.250713 C249.291915,298.250713 247.887359,251.670463 217.873342,222.910513 Z" id="Path" fill="#FF4AA0"></path>
                    <circle id="Oval" fill="#FFAE00" cx="165.5202" cy="102.749937" r="77.7229287"></circle>
                    <path d="M153.83229,174.766859 C157.594493,182.58388 157.740801,193.055344 151.324155,197.900225 C151.324155,197.900225 153.782128,202.005207 163.049687,202.122253 C172.317247,202.239299 174.929887,198.213742 174.929887,198.213742 C174.929887,198.213742 170.394343,195.086934 170.394343,187.274093 C170.394343,179.227159 172.116596,174.766859 172.116596,174.766859 L153.83229,174.766859 Z" id="Path" fill="#723F33"></path>
                    <path d="M170.473767,179.515594 L170.055745,180.205332 C163.367384,190.701877 153.874093,196.717222 151.349237,197.900225 C151.349237,197.900225 156.315344,193.837046 156.315344,188.444556 C156.314842,184.781938 155.872728,181.132741 154.998573,177.57597 L163.47189,182.675845 L170.473767,179.515594 Z" id="Path" fill="#542C1C" opacity="0.28" style="mix-blend-mode: multiply;"></path>
                    <ellipse id="Oval" fill="#603826" opacity="0.6" style="mix-blend-mode: multiply;" cx="152.628385" cy="168.684631" rx="3.65769712" ry="5.37576971"></ellipse>
                    <path d="M227.935144,296.929762 C230.150663,293.518698 231.597021,289.639449 228.97184,286.061176 C228.88897,286.046626 228.805136,286.038242 228.721026,286.036095 C223.721477,285.899541 218.720534,285.771348 213.718198,285.651514 C212.882153,271.020726 212.852891,256.389937 212.907234,241.713166 C212.887143,240.876411 212.209984,240.204787 211.373091,240.191564 C209.87239,240.145582 208.37587,240.124681 206.879349,240.120501 C205.625282,238.908235 202.949937,239.422403 203.025181,241.663004 C203.485006,254.834894 204.329412,267.998423 205.646183,281.11597 C206.197972,286.617146 206.172891,292.678473 211.16408,296.164781 C215.469712,299.166183 220.778598,298.785782 225.715444,299.789036 C226.421902,298.810864 227.178523,297.870313 227.935144,296.929762 Z" id="Path" fill="#C40E50"></path>
                    <path d="M143.691064,164.048761 C143.691064,162.900592 143.691064,161.75103 143.691064,160.600075 C143.691064,159.450513 143.854093,158.288411 143.540576,157.209912 C143.657969,157.050547 143.6475,156.830693 143.515494,156.683204 C142.249186,155.13934 140.059045,154.723847 138.315294,155.696671 C136.01199,156.950738 135.334793,160.202954 135.45184,162.623304 C135.568886,165.043655 136.818773,167.443104 139.214043,168.153742 C140.268471,168.471969 141.407737,168.337505 142.359106,167.78254 C143.310474,167.227575 143.988299,166.302069 144.230313,165.227584 C144.366352,164.755392 144.13727,164.254607 143.691064,164.048761 L143.691064,164.048761 Z" id="Path" fill="#603826"></path>
                    <path d="M92.295194,299.985507 L92.295194,300.616721 C92.295194,300.838273 92.3244556,301.064005 92.3369962,301.285557 L93.131239,301.231214 C92.8876789,300.793454 92.6080276,300.376774 92.295194,299.985507 L92.295194,299.985507 Z" id="Path" fill="#C40E50"></path>
                    <path d="M120.336145,240.417297 C120.281772,240.272997 120.216077,240.13322 120.139675,239.999274 C118.932983,239.999274 117.724898,239.999274 116.515419,239.999274 C116.323334,239.996574 116.133411,239.958307 115.955269,239.886408 L115.311514,239.886408 L115.248811,239.986733 C113.468035,243.45632 113.576721,247.414994 113.346809,251.218999 C113.091815,255.520451 112.928786,259.826083 112.703054,264.131715 C112.32126,272.018406 111.939466,279.906491 111.557672,287.79597 C105.746973,287.415428 99.9140887,287.545513 94.1261327,288.184731 C93.5348617,288.524397 93.026536,288.991314 92.6379725,289.551665 C92.475573,289.820034 92.3517393,290.109917 92.2701126,290.412791 C92.2701126,290.95204 92.2701126,291.495469 92.2701126,292.034718 C92.295194,292.118323 92.3244556,292.201927 92.3495369,292.277171 C92.5889584,292.960337 92.8681164,293.62892 93.185582,294.279499 C94.0634293,295.746758 95.300776,297.126233 96.0155945,298.233992 C96.3817839,298.750896 96.3235978,299.456181 95.8776471,299.906083 C96.0709979,300.257163 96.2319071,300.625155 96.358373,301.005482 L103.857697,300.512215 C104.927835,300.445332 105.797322,299.182904 105.58413,298.158748 C105.122043,295.945122 103.668723,294.066439 101.642178,293.063054 C102.896245,293.201001 104.108511,293.418373 105.241352,293.55214 C109.948285,294.10811 116.987785,296.645507 119.429036,291.955294 C120.712365,289.484781 119.337071,283.53214 119.429036,280.819174 L119.817797,270.657046 C120.074184,263.999341 120.291556,257.337455 120.469912,250.671389 C120.520075,248.685782 120.586959,246.695995 120.61204,244.706208 C120.641302,243.330914 120.841952,241.750788 120.336145,240.417297 Z" id="Path" fill="#C40E50"></path>
                    <path d="M189.117572,157.368761 C188.470561,156.540425 187.506537,156.020518 186.458949,155.934944 C187.12134,149.951898 186.766587,143.899901 185.409712,138.035219 C184.155645,132.471339 180.564831,130.063529 180.564831,130.063529 C180.564831,130.063529 171.497922,136.94 163.994418,136.94 C156.490914,136.94 147.428185,130.063529 147.428185,130.063529 C147.428185,130.063529 143.854093,132.471339 142.583304,138.035219 C140.075169,148.979049 140.438849,163.430088 148.051039,171.64005 C155.663229,179.850013 163.994418,182.897397 163.994418,182.897397 C163.994418,182.897397 172.325607,179.854193 179.937797,171.64005 C181.172364,170.301954 182.232797,168.813135 183.093867,167.209011 C183.845673,167.877521 184.90425,168.078314 185.848636,167.731539 C187.725557,167.104506 188.724631,165.081277 189.431089,163.384105 C190.221151,161.43612 190.497046,159.116095 189.117572,157.368761 Z" id="Path" fill="#723F33"></path>
                    <path d="M168.308411,166.790989 L163.526233,168.993967 C163.488611,168.509061 163.221076,166.042728 163.221076,158.125382 C163.221076,152.887559 151.708736,150.85597 151.41612,145.856421 C151.123504,140.856871 151.729637,137.023605 158.940526,136.074693 C158.940526,136.074693 155.470939,134.599074 152.536421,133.269762 C150.720616,132.434508 149.026185,131.357385 147.499249,130.06771 C147.499249,130.06771 144.401702,131.7398 143.047309,136.609762 C141.266533,143.043129 141.003179,147.306959 141.734718,159.082653 C142.620926,173.395745 163.542954,182.692566 163.542954,182.692566 C163.542954,182.692566 162.502078,181.413417 159.609362,175.632165 C159.563379,175.54438 159.525757,175.460776 159.483955,175.372991 C160.597143,175.018463 161.68275,174.582544 162.73199,174.068761 C167.514168,171.719474 168.308411,166.790989 168.308411,166.790989 Z" id="Path" fill="#542C1C" opacity="0.28" style="mix-blend-mode: multiply;"></path>
                    <path d="M183.185832,159.927059 C182.842223,158.563283 182.243677,157.276836 181.421777,156.135594 C180.794743,155.241026 180.050663,154.099825 179.009787,153.665081 C176.564355,152.645106 173.328861,152.52806 171.393417,155.48766 C170.363583,157.124535 169.560622,158.893581 169.006508,160.746383 C165.971665,158.610288 162.063154,158.171364 158.810939,159.835094 C158.810939,157.966533 156.102153,154.058023 153.878273,152.657647 C150.985557,150.835069 147.378023,151.098423 145.204305,153.911715 C143.114193,156.60378 142.445357,160.738023 142.637647,164.061302 C142.896821,168.567584 145.563805,175.862078 151.704556,175.055294 C158.09194,174.219249 159.609362,166.368786 159.099374,161.43194 C159.099374,161.348335 159.078473,161.268911 159.070113,161.185307 C162.079875,159.667885 166.07199,159.968861 168.442178,162.514618 C168.476299,162.54768 168.51261,162.578404 168.550864,162.606583 C167.714819,167.045982 168.680451,171.878323 171.769637,174.691615 C174.858824,177.504906 179.294043,176.27174 181.455219,172.927559 C183.725081,169.41617 184.138924,163.927534 183.185832,159.927059 Z M149.55592,173.061327 C145.250288,171.711114 144.255394,165.407334 144.514568,161.820701 C144.706859,159.20388 145.057997,156.332065 146.905657,154.480225 C150.249837,151.136045 155.86806,155.780275 156.896395,161.25219 C156.921477,161.402678 156.896395,161.548986 156.954919,161.670213 C157.678098,167.689737 154.438423,174.591289 149.55592,173.061327 Z M176.526733,174.378098 C171.794718,175.406433 169.951239,168.617747 170.043204,165.156521 C170.118757,163.083612 170.649666,161.052743 171.598248,159.20806 C172.10742,158.264106 172.665543,157.347388 173.270338,156.461652 C173.562954,156.001827 175.389712,154.492766 177.237372,155.182503 C178.056235,155.535288 178.784962,156.068259 179.369287,156.741727 C180.853267,158.372015 181.434318,160.608436 181.568085,162.761252 C181.8398,166.619599 181.221126,173.353942 176.526733,174.373917 L176.526733,174.378098 Z" id="Shape" fill="#FF4AA0"></path>
                    <path d="M142.165282,159.078473 C139.941402,158.46398 137.470889,160.278198 136.94836,162.422653 C136.705907,163.413367 138.156446,163.676721 138.469962,162.744531 C138.64706,162.188285 138.958633,161.684312 139.377071,161.277272 C139.632065,162.606583 139.489937,163.864831 139.53592,165.210864 C139.56675,165.429559 139.738082,165.60174 139.956622,165.633651 C140.175162,165.665561 140.388575,165.549559 140.480651,165.348811 C140.994819,163.889912 140.710563,162.117497 140.305081,160.650238 C140.864633,160.405917 141.463596,160.264318 142.073317,160.232215 C142.391914,160.257611 142.670775,160.019924 142.69617,159.701327 C142.721566,159.38273 142.483879,159.103869 142.165282,159.078473 L142.165282,159.078473 Z" id="Path" fill="#603826" opacity="0.4" style="mix-blend-mode: multiply;"></path>
                    <path d="M185.263404,158.501602 C187.140325,158.309312 188.720451,160.432866 188.699549,162.514618 C188.758217,162.766438 188.659491,163.02881 188.449369,163.179488 C188.239248,163.330166 187.959071,163.339505 187.739382,163.203154 C187.519693,163.066803 187.403714,162.811588 187.445482,162.556421 C187.423146,162.022785 187.28023,161.501141 187.027459,161.030638 C186.559274,162.230363 186.412966,163.430088 186.10363,164.679975 C186.068847,164.872525 185.897697,165.010145 185.702169,165.002787 C185.506641,164.995428 185.346319,164.845333 185.326108,164.650713 C185.221602,163.191815 185.806834,161.586608 186.421327,160.286558 C186.040698,159.962563 185.596411,159.721907 185.117096,159.5801 C184.586208,159.421252 184.732516,158.555945 185.263404,158.501602 Z" id="Path" fill="#603826" opacity="0.4" style="mix-blend-mode: multiply;"></path>
                    <path d="M184.130563,148.841101 C182.349787,144.765382 176.388786,142.909362 172.664205,145.371514 C172.120776,145.735194 172.455194,146.671564 173.12821,146.458373 C174.938248,145.889862 176.706483,145.622328 178.562503,146.228461 C180.581552,146.905657 181.405056,148.494143 182.893217,149.815094 C183.184175,150.064509 183.610872,150.07343 183.912001,149.836393 C184.213129,149.599356 184.30467,149.182498 184.130563,148.841101 L184.130563,148.841101 Z" id="Path" fill="#FFAE00"></path>
                    <path d="M156.816971,144.426783 C155.011114,143.490413 152.298148,143.979499 150.408686,144.489487 C148.230788,145.074718 146.065432,146.111414 144.510388,147.775144 C144.117447,148.193166 144.602353,148.945607 145.141602,148.611189 C146.96,147.528511 148.694793,146.521076 150.784906,146.04035 C152.753792,145.593066 154.697597,146.073792 156.637222,145.747735 C156.910037,145.662801 157.109003,145.427591 157.147529,145.14447 C157.186055,144.861349 157.057172,144.581527 156.816971,144.426783 L156.816971,144.426783 Z" id="Path" fill="#FFAE00"></path>
                    <rect id="Rectangle" fill="#F4F4F4" x="119.011014" y="235.856671" width="89.0931414" height="60.8013767" rx="1.7"></rect>
                    <rect id="Rectangle" fill="#000000" x="121.786683" y="238.465131" width="83.7173717" height="59.8106633" rx="1.63"></rect>
                    <path d="M100.743429,292.360776 L226.363379,292.360776 L226.363379,292.360776 C226.363379,295.613699 223.726364,298.250713 220.473442,298.250713 L106.641727,298.250713 C105.078171,298.252933 103.577893,297.633367 102.471507,296.528549 C101.36512,295.423731 100.743428,293.924334 100.743429,292.360776 L100.743429,292.360776 Z" id="Path" fill="#DBDDDC"></path>
                    <path d="M106.641727,298.250713 L220.473442,298.250713 C222.507167,298.25428 224.396927,297.201776 225.464631,295.470864 L101.646358,295.470864 C102.718307,297.199417 104.607773,298.250877 106.641727,298.250713 L106.641727,298.250713 Z" id="Path" fill="#B2B2B2"></path>
                    <path d="M62.7033792,298.250713 C123.089888,345.554111 207.958873,345.554111 268.345382,298.250713 L62.7033792,298.250713 Z" id="Path" fill="#2146AD"></path>
                    <path d="M130.385407,128.612991 C129.273467,128.449962 128.295294,128.809462 127.229337,129.102078 C125.950188,129.457397 125.695194,129.131339 125.160125,128.082103 C124.286458,126.35567 123.412791,124.737922 121.318498,124.370063 C120.227459,124.181952 119.199124,124.487109 118.149887,124.746283 C116.791314,125.089061 116.176821,125.0598 115.863304,123.596721 C115.445282,121.611114 116.281327,119.445757 114.6803,117.802929 C113.079274,116.1601 110.604581,116.736971 108.857247,117.802929 C108.046283,118.292015 106.938523,119.475019 105.893467,119.245106 C104.430388,118.902328 104.396946,116.820576 104.493091,115.658473 C104.706283,113.104355 105.747159,110.324506 103.983104,108.075544 C103.335169,107.239499 101.951514,107.707685 102.227409,108.840526 C103.239024,112.962228 99.2761702,119.291089 104.317522,121.962253 C106.370013,123.053292 108.322178,121.962253 110.073692,120.875394 C110.9599,120.319424 112.385357,119.403955 112.393717,121.101126 C112.337247,122.106156 112.362411,123.11411 112.468961,124.115069 C112.774118,125.971089 113.777372,127.810388 115.708636,128.353817 C116.673457,128.578443 117.678978,128.559769 118.634793,128.299474 C119.750914,128.057021 120.61204,127.463429 121.35612,128.516846 C122.409537,129.992466 122.610188,131.681277 124.407685,132.571665 C125.35666,132.991369 126.417802,133.085432 127.425807,132.839199 C127.776946,132.772315 130.276721,132.040776 130.297622,132.203805 C130.519174,133.959499 133.119274,134.52801 133.574919,132.571665 C134.068185,130.44393 132.371014,128.909787 130.385407,128.612991 Z" id="Path" fill="#E09220"></path>
                    <path d="M128.332916,153.372466 C126.37239,151.666934 124.13179,151.951189 121.698899,152.084956 C120.444831,152.15602 118.889787,152.227084 117.903254,151.269812 C116.916721,150.312541 117.351464,148.941427 116.803855,147.783504 C116.637401,147.507878 116.282541,147.413619 116.001252,147.570313 C113.330088,148.891264 115.729537,153.142553 117.510313,154.124906 C120.436471,155.721752 123.972941,153.727785 126.815494,155.341352 C128.02776,156.018548 129.457397,154.333917 128.332916,153.372466 Z" id="Path" fill="#E09220"></path>
                    <path d="M211.749312,150.517372 C210.465982,151.570788 208.948561,152.975344 207.188686,152.937722 C205.575119,152.9001 204.680551,151.22383 203.092065,150.914493 C201.819179,150.725726 200.522943,151.042284 199.48035,151.796521 C198.740451,152.273066 195.864456,155.161602 195.003329,153.589837 C194.338673,152.373392 192.432491,153.209437 193.026083,154.492766 C193.665506,155.951233 195.220398,156.782237 196.788285,156.503454 C198.803154,156.219199 201.1399,152.937722 203.058623,154.083104 C203.848686,154.55965 204.312691,155.337171 205.22398,155.717572 C206.120624,156.10128 207.10161,156.245331 208.070713,156.135594 C210.378198,155.876421 212.146433,154.463504 213.776721,152.908461 C215.218899,151.541527 213.316896,149.234043 211.749312,150.517372 Z" id="Path" fill="#E09220"></path>
                    <ellipse id="Oval" fill="#603826" opacity="0.28" style="mix-blend-mode: multiply;" cx="175.636345" cy="167.673016" rx="3.65769712" ry="5.37576971"></ellipse>
                    <path d="M110.061151,226.919349 C106.804344,230.023661 103.871476,233.450942 101.30776,237.14836 C100.955256,237.613823 101.024553,238.272979 101.466147,238.654959 C101.907742,239.036938 102.570007,239.010582 102.97985,238.594718 C106.242204,235.367425 109.168071,231.816887 111.71234,227.997847 C112.385357,226.986233 110.809412,226.229612 110.061151,226.919349 Z" id="Path" fill="#C40E50"></path>
                    <path d="M96.3082103,246.140025 C94.2766208,247.511139 92.8428035,250.119599 91.8479099,252.301677 C90.7330818,254.714658 90.117412,257.328055 90.0378723,259.984931 C90.0002503,261.548335 92.3411765,261.912015 92.5042053,260.290088 C92.7093668,257.96715 93.2544267,255.686912 94.1219524,253.522303 C95.0457822,251.306783 96.5715645,249.609612 97.7378473,247.569662 C98.289637,246.60403 97.324005,245.450288 96.3082103,246.140025 Z" id="Path" fill="#C40E50"></path>
                    <path d="M87.3123655,273.432716 C85.0258317,278.82705 83.6975237,284.578808 83.3871339,290.429512 C83.3244305,291.742103 85.5608511,291.967835 85.7113392,290.638523 C86.2953273,285.024129 87.4251493,279.480022 89.084781,274.084831 C89.4066583,273.073217 87.7262078,272.433642 87.3123655,273.432716 Z" id="Path" fill="#C40E50"></path>
                    <path d="M221.259324,230.890563 C217.810638,227.053116 213.776721,223.479024 209.843129,220.147384 C209.455272,219.767607 208.832981,219.774158 208.453204,220.162015 C208.073427,220.549872 208.079977,221.172163 208.467835,221.55194 C211.937422,225.314143 215.699625,229.214293 219.645757,232.50831 C220.092486,232.953885 220.81584,232.952949 221.261414,232.50622 C221.706988,232.059492 221.706053,231.336137 221.259324,230.890563 L221.259324,230.890563 Z" id="Path" fill="#C40E50"></path>
                    <path d="M236.479524,257.418273 C236.090763,255.88413 235.150213,254.462854 234.422854,253.058298 C233.657872,251.582678 232.901252,250.098698 232.12373,248.627259 C230.610488,245.763805 229.197572,242.733141 227.370814,240.066158 C227.105922,239.711507 226.621483,239.603915 226.231368,239.813092 C225.841253,240.022268 225.662783,240.485308 225.811589,240.902203 C226.93189,244.00811 228.61234,246.97607 230.09214,249.923129 C230.815319,251.361126 231.555219,252.794944 232.290939,254.228761 C233.026658,255.662578 233.60771,257.205081 234.627685,258.408986 C234.941535,258.830781 235.516808,258.959378 235.980386,258.711369 C236.443964,258.46336 236.656236,257.913435 236.479524,257.418273 L236.479524,257.418273 Z" id="Path" fill="#C40E50"></path>
                    <path d="M241.40801,275.200951 C240.722453,272.467084 240.099599,269.703955 239.292816,267.003529 C238.874793,265.636596 236.914268,266.167484 237.169262,267.56368 C237.683429,270.339349 238.389887,273.081577 239.025282,275.832165 C239.54363,278.060225 239.715019,281.224656 241.22826,283.005432 C241.455191,283.230416 241.783762,283.319401 242.093213,283.23968 C242.402665,283.15996 242.647343,282.923297 242.737322,282.616671 C243.289111,280.334268 241.96816,277.429011 241.40801,275.200951 Z" id="Path" fill="#C40E50"></path>
                    <path d="M245.341602,299.174543 L244.584981,290.057472 C244.480476,288.778323 242.52413,288.891189 242.591014,290.178698 L243.067559,298.852666 C243.82418,298.965532 244.584981,299.074218 245.341602,299.174543 Z" id="Path" fill="#C40E50"></path>
                    <path d="M172.392491,196.445507 C170.820726,197.557447 169.466333,198.832416 167.714819,199.693542 C165.906104,200.576261 163.938973,201.087943 161.929387,201.198423 C160.006351,201.2742 158.084628,201.018253 156.248461,200.441802 C154.404981,199.890013 152.72035,198.493817 150.85179,198.1803 C150.132791,198.063254 149.137897,198.598323 149.459775,199.492891 C150.228936,201.583004 152.498798,202.837071 154.430063,203.74836 C156.738081,204.837052 159.256291,205.407751 161.80816,205.420451 C166.594518,205.420451 172.313066,203.455745 175.281026,199.522153 C176.551815,197.816621 174.156546,195.216521 172.392491,196.445507 Z" id="Path" fill="#C40E50"></path>
                    <path d="M142.077497,244.610063 C137.111389,244.417772 131.681277,244.158598 126.765332,244.948661 C125.966909,245.078248 125.678473,246.340676 126.627384,246.495344 C131.643655,247.306308 137.12811,247.051314 142.177822,246.854844 C143.645081,246.79632 143.498773,244.664406 142.077497,244.610063 Z" id="Path" fill="#FFFFFF"></path>
                    <path d="M157.933091,251.081051 C150.605156,251.264981 143.302303,251.377847 135.961827,251.407109 C134.741202,251.407109 134.632516,253.304931 135.865682,253.309111 C143.183863,253.33698 150.495077,253.445665 157.799324,253.635169 C159.458874,253.681151 159.57174,251.039249 157.933091,251.081051 Z" id="Path" fill="#FFFFFF"></path>
                    <path d="M143.561477,258.429887 C138.545207,258.28776 133.311564,258.153992 128.307835,258.592916 C126.936721,258.714143 126.894919,260.908761 128.307835,261.029987 C133.324105,261.44801 138.536846,261.343504 143.557297,261.201377 C145.10816,261.155394 145.145782,258.47169 143.561477,258.429887 Z" id="Path" fill="#FFFFFF"></path>
                    <path d="M180.046483,269.624531 C173.011164,269.122904 165.796095,269.469862 158.727334,269.532566 L148.07194,269.624531 C144.435144,269.653792 140.639499,269.461502 137.044506,270.017472 C135.970188,270.184681 135.886583,271.785707 137.006884,271.961277 C140.321802,272.475444 143.80393,272.324956 147.156471,272.350038 L158.246608,272.446183 C165.436596,272.508886 172.802153,272.864205 179.98378,272.366758 C181.522103,272.262253 181.618248,269.741577 180.046483,269.624531 Z" id="Path" fill="#FFFFFF"></path>
                    <path d="M142.12766,279.280851 C137.989465,278.962918 133.830194,279.046915 129.70821,279.531665 C128.696596,279.657071 128.266033,281.333342 129.486658,281.48801 C133.695274,281.991541 137.94293,282.083942 142.169462,281.763905 C142.786474,281.665993 143.237322,281.12887 143.226807,280.504226 C143.216291,279.879581 142.747618,279.357939 142.12766,279.280851 Z" id="Path" fill="#FFFFFF"></path>
                    <path d="M169.353467,279.657071 C164.96005,279.619449 160.49975,279.577647 156.123054,279.932966 C155.027835,280.020751 154.868986,281.830788 156.026909,281.922753 C160.516471,282.282253 165.072916,282.244631 169.575019,282.207009 C171.230388,282.194468 170.971214,279.657071 169.353467,279.657071 Z" id="Path" fill="#FFFFFF"></path>
                    <path d="M132.646909,270.113617 C130.535649,270.104324 128.426365,270.244012 126.334768,270.53164 C125.410939,270.665407 125.143404,272.132666 126.205181,272.287334 C128.39264,272.583389 130.598426,272.723084 132.805757,272.705357 C134.465307,272.709537 134.327359,270.042553 132.646909,270.113617 Z" id="Path" fill="#FF4AA0"></path>
                    <path d="M132.366834,250.926383 C130.590211,250.981811 128.827021,251.254151 127.116471,251.737347 C126.581402,251.887835 126.326408,252.761502 126.999424,252.945432 C128.779397,253.44728 130.614384,253.728074 132.462979,253.781477 C134.53637,253.869262 134.482028,250.859499 132.366834,250.926383 Z" id="Path" fill="#FF4AA0"></path>
                    <path d="M151.767259,279.197247 C149.74171,279.249289 147.720776,279.41677 145.714293,279.698874 C144.7403,279.841001 144.878248,281.224656 145.781176,281.370964 C147.688979,281.645241 149.610775,281.811322 151.537347,281.868411 C153.27632,281.906033 153.45607,279.142904 151.767259,279.197247 Z" id="Path" fill="#FF4AA0"></path>
                    <path d="M171.493742,258.337922 C167.689737,258.011865 163.718523,258.388085 159.897797,258.442428 C156.077071,258.496771 152.172741,258.563655 148.310213,258.743404 C146.934919,258.806108 147.022703,260.795895 148.368736,260.858598 C152.239625,261.038348 156.102153,261.101051 159.977222,261.159574 C163.85229,261.218098 167.773342,261.577597 171.577347,261.26408 C173.479349,261.113592 173.341402,258.509312 171.493742,258.337922 Z" id="Path" fill="#FF4AA0"></path>
                    <path d="M144.439324,71.3397247 C144.031674,70.683081 143.470813,70.1351301 142.804856,69.7428786 C141.734718,69.0489612 140.973917,68.8399499 141.789061,67.5858824 C143.586558,64.8185732 142.495519,62.6364956 140.09607,61.3782478 C140.364539,61.1933766 140.608882,60.9757155 140.823429,60.7303129 C141.102134,60.3314233 141.285222,59.873702 141.358498,59.3926408 C141.508299,58.3737044 141.259783,57.3362243 140.664581,56.4957447 C139.924681,55.3712641 138.858723,54.8487359 137.738423,54.2091615 C137.541952,54.108836 137.353842,54.0043304 137.165732,53.8956446 C137.855469,53.477622 138.779299,53.0219775 138.950688,52.938373 C140.309262,52.2695369 139.561001,50.1334418 138.081202,50.4302378 C136.024531,50.8482603 131.723079,52.7753442 133.934418,55.4465081 C134.879149,56.5835294 137.575394,56.9430288 138.114643,58.2556195 C138.532666,59.2964956 136.279524,60.2704881 136.292065,61.7252065 C136.292065,63.255169 137.362203,63.5854068 138.553567,64.01597 C139.431414,64.3378473 140.041727,64.7182478 139.648786,65.6337171 C139.406333,66.1938673 138.812741,66.632791 138.507584,67.1929412 C137.908361,68.2919563 137.991208,69.6369984 138.720776,70.6541677 C139.051014,71.1181727 141.508986,73.1623029 141.818323,72.9073091 C140.192215,74.2115394 142.370113,76.6235294 143.98786,75.3109387 C145.229387,74.278423 145.237747,72.6773967 144.439324,71.3397247 Z" id="Path" fill="#E09220"></path>
                    <path d="M184.038598,72.2677347 C183.946898,71.4989342 183.674749,70.7627015 183.244355,70.1190989 C182.575519,69.0406008 181.990288,68.5222528 183.244355,67.7405507 C186.057647,66.0099374 186.007484,63.5603254 184.381377,61.4075094 C184.703536,61.3538689 185.017971,61.261223 185.317747,61.1316145 C185.739636,60.8911765 186.100176,60.5563891 186.371164,60.1534418 C186.947547,59.2945569 187.169249,58.2459658 186.989837,57.2272841 C186.801727,55.8979725 186.066008,54.9699625 185.317747,53.904005 C185.18398,53.7326158 185.058573,53.5570463 184.937347,53.3772966 C185.73577,53.3020526 186.768285,53.2769712 186.960576,53.2769712 C188.469637,53.2560701 188.71627,51.0071089 187.244831,50.6476095 C185.204881,50.1501627 180.497947,50.0372966 181.354894,53.3856571 C181.722753,54.8194743 184.005156,56.3118148 183.917372,57.70801 C183.850488,58.8324906 181.409237,58.7447059 180.782203,60.0656571 C180.134268,61.4493116 180.953592,62.2017522 181.84398,63.1046809 C182.500275,63.7693367 182.884856,64.3587484 182.136596,65.0359449 C181.680951,65.4539675 180.941051,65.5710138 180.439424,65.9555945 C179.427435,66.6921964 178.925673,67.9425428 179.147735,69.174368 C179.24806,69.7303379 180.594093,72.6230538 180.978673,72.5185482 C178.951264,73.0034543 179.883454,76.1177222 181.906683,75.6244556 C183.51189,75.2440551 184.184906,73.814418 184.038598,72.2677347 Z" id="Path" fill="#E09220"></path>
                    <path d="M145.346433,112.343554 C143.682352,110.413343 141.631627,108.853938 139.326909,107.766208 C138.436521,107.348185 136.530338,107.047209 136.296245,106.060676 C136.095594,105.224631 136.672466,104.008185 136.580501,103.101076 C136.358949,100.914819 134.578173,99.811239 132.517322,99.7568961 C131.93209,99.7568961 130.134593,100.070413 129.950663,99.5646058 C129.800175,99.1465832 130.887034,97.324005 130.899574,96.6384481 C130.933016,94.7113642 129.449036,93.4489362 127.697522,92.9974718 C126.743473,92.8037367 125.767719,92.7390614 124.796446,92.8051815 C124.378423,92.8051815 123.467134,92.9723905 123.099274,92.7006758 C122.321752,92.127985 122.798298,91.1790738 122.969687,90.4726158 C123.421151,88.6333166 123.646884,86.3843554 121.870288,85.1302879 C120.704005,84.2942428 119.136421,84.9379975 118.108085,84.223179 C116.745332,83.2700876 117.957597,81.0211264 118.488486,79.8506633 C119.019374,78.6802003 117.351464,77.6894869 116.52796,78.6843805 C114.893492,80.661627 113.509837,83.0903379 114.826608,85.652816 C115.275063,86.5215253 116.028199,87.1942872 116.941802,87.5422778 C117.598098,87.7889111 118.266934,87.6342428 118.914869,87.7889111 C120.265081,88.1149687 119.972466,88.7629036 119.730013,89.7577972 C119.194944,91.9565957 118.981752,94.3560451 121.301777,95.6101126 C122.358398,96.1093822 123.526642,96.3254569 124.69194,96.2371464 C125.527985,96.2371464 127.488511,95.8651064 127.417447,96.9603254 C127.346383,98.0555444 126.343129,98.8497872 126.405832,100.070413 C126.474569,101.170166 127.094109,102.160802 128.052841,102.703955 C128.934929,103.177698 129.935028,103.386718 130.933016,103.305907 C131.351039,103.305907 132.713792,102.933867 133.04821,103.239024 C133.382628,103.54418 133.110914,104.45965 133.04821,104.83169 C132.67199,107.076471 133.014768,108.991014 135.297171,109.965006 C136.743529,110.58368 138.160626,110.951539 139.515019,111.804305 C140.758997,112.633611 141.90844,113.59662 142.942804,114.67612 C144.313917,116.026333 146.58378,113.789912 145.346433,112.343554 Z" id="Path" fill="#E09220"></path>
                    <path d="M202.912315,76.6736921 C199.931815,77.3634293 192.340526,78.6927409 194.133842,83.3620526 C194.485756,84.0974954 194.920531,84.7903306 195.429712,85.4270839 C196.382804,86.8316395 196.006583,88.0355444 194.819399,89.1892866 C193.226733,90.7192491 191.078098,91.5134919 189.706984,93.3109887 C188.561602,94.8075094 188.273166,96.2371464 189.681902,97.6249812 C190.001994,97.9172746 190.339843,98.1895081 190.693517,98.4401252 L191.036295,98.6951189 C191.420876,98.975194 191.454318,99.0253567 191.144981,98.8497872 C190.586469,99.205504 190.054213,99.6008546 189.552315,100.032791 C188.979625,100.555319 188.402753,101.069487 187.830063,101.587835 C186.387885,102.892065 184.640551,104.250638 185.702328,106.365832 C186.183054,107.318924 186.985657,107.870713 186.149612,108.978473 C185.313567,110.086233 183.616395,110.232541 182.466834,110.671464 C180.744581,111.352841 181.333992,114.128511 183.240175,113.869337 C185.56438,113.55582 188.172841,112.44806 189.347484,110.295244 C189.914865,109.312235 190.120425,108.161691 189.928536,107.043029 C189.820456,106.487546 189.609188,105.95725 189.305682,105.479625 C189.209537,105.358398 189.117572,105.232991 189.021427,105.107584 L189.021427,105.107584 C190.087384,103.853517 191.450138,102.80428 192.645682,101.700701 C193.544431,100.864656 194.522603,100.112215 194.618748,98.8038048 C194.752516,97.0397497 193.339599,96.4503379 192.336345,95.4596245 C194.26761,92.4206008 198.878398,91.5093116 199.321502,87.2705632 C199.530513,85.3016771 198.268085,84.4990738 197.678673,82.868786 C197.411139,82.1247059 197.185407,82.0578223 197.98801,81.4934919 C198.53283,81.1817729 199.106867,80.9241564 199.701902,80.7243304 C200.972373,80.1970392 202.27009,79.7379544 203.589512,79.3490363 C205.04423,78.897572 204.450638,76.3141927 202.912315,76.6736921 Z" id="Path" fill="#E09220"></path>
                    <path d="M226.798123,83.0025532 C226.518048,83.8385982 224.33597,83.5334418 223.554268,83.704831 C222.481848,83.8953046 221.547638,84.5481809 221.00015,85.4897872 C220.44418,86.505582 220.824581,87.6969462 220.406558,88.6667584 C220.118123,89.3355945 220.506884,89.2101877 219.645757,88.9677347 C219.14413,88.8297872 218.675945,88.4117647 218.178498,88.2278348 C216.238874,87.5130163 214.328511,88.2947184 213.697297,90.3179474 C213.279274,91.572015 213.433942,92.9807509 213.39632,94.2933417 C213.39632,94.9872591 213.099524,100.526058 212.016846,99.8948436 C210.557947,99.0587985 209.320601,101.148911 210.666633,102.102003 C213.463204,104.08761 215.599299,100.964981 215.954618,98.4652065 C216.247234,96.395995 216.188711,94.3435044 216.335019,92.2701126 C216.410263,91.2208761 216.627635,90.8655569 217.676871,91.237597 C218.316446,91.4675094 218.834793,91.906433 219.51199,92.0736421 C220.579811,92.3730369 221.725405,92.0503344 222.47995,91.237597 C223.445582,90.1632791 223.102804,88.9510138 223.458123,87.692766 C223.926308,86.0206758 226.037322,86.7145932 227.416796,86.1586233 C228.712666,85.6360951 229.306258,84.724806 229.506909,83.3954944 C229.753542,81.8279099 227.266308,81.5812766 226.798123,83.0025532 Z" id="Path" fill="#E09220"></path>
                    <path d="M231.521777,110.278523 C231.459074,108.673317 229.264456,108.506108 228.79209,109.973367 C228.449312,111.039324 228.374068,112.481502 227.617447,113.317547 C226.697797,114.337522 225.556596,113.810814 224.390313,113.978023 C223.109528,114.210131 221.997827,114.998734 221.355469,116.130839 C220.465081,117.535394 220.306233,119.111339 219.846408,120.666383 C219.570513,121.602753 219.156671,122.877722 217.915144,122.702153 C217.008035,122.576746 216.080025,121.514969 215.361026,121.030063 C212.46413,119.036095 209.508711,119.650588 208.166859,122.944606 C207.426488,124.860012 206.540475,126.715888 205.516596,128.495945 C204.822678,129.645507 204.534243,129.428135 203.426483,128.934869 C202.616553,128.525357 201.754397,128.228595 200.864005,128.052841 C199.150113,127.789487 198.464556,130.239099 200.195169,130.715645 C201.992666,131.208911 203.464105,132.805757 205.466433,132.408636 C207.376796,132.028235 208.275544,130.034268 209.090688,128.470864 C209.638298,127.421627 210.131564,126.343129 210.578849,125.24373 C211.026133,124.14433 211.1599,122.781577 212.518473,123.049111 C214.637847,123.467134 215.770688,125.824781 218.165957,125.891665 C222.676421,126.021252 222.346183,120.967359 223.821802,118.158248 C224.607685,116.674268 225.64438,117.372365 226.998773,117.196796 C227.795361,117.082976 228.545625,116.75338 229.16831,116.243705 C230.957447,114.830788 231.584481,112.481502 231.521777,110.278523 Z" id="Path" fill="#E09220"></path>
                </g>
            </g>
        </g>
    </g>
</svg>
