<svg xmlns="http://www.w3.org/2000/svg" width="334" height="334" fill-rule="nonzero" opacity=".9"><circle fill="#efefef" cx="166.9" cy="167" r="166.7"/><g fill="#fff"><path d="M315.78 91.93l-1.42-2.75v74.75h1.42v-72zm-315.56 72v1.42h14.63v-1.42H.22zm14.62 71.46l1.42 3.06v-73.1h-1.42v70.05zm1.43-139.88l-1.42 3.06v65.36h1.42V95.52zm317.33 69.84l-.02-1.42h-17.8v1.42h17.8zm-19.24 79.44l1.42-2.75v-76.7h-1.42v79.45zm-231.1-80.86l-.08.18.54 1.25h79.87v-1.42zm81.75 0h75.05v1.42h-75.05zm-83.87 0H16.27v1.42h64.58l.3-.7zm162.1 1.42h71.1v-1.42l-71.67.18z"/><path d="M281.8 241.97c-12.16-19.8-24.25-45.84-37.03-73.4l-1.5-3.2h-1.15l.58-1.25-.08-.18h.17l1.98-4.27c12.8-27.56 24.87-53.6 37.03-73.4 5.78-9.42 11.24-16.78 16.36-22.06l-1.05-1.32c-17.6 18.07-35.34 56.3-53.84 96.1l-1.47 3.18-.3-.65V17.88l-1.42-.7v141.3c-24.12-51.77-49-102.24-75.05-106.96V.3h-1.42v51c-.83-.1-1.67-.15-2.5-.15-28.36 0-53.9 54.34-78.5 110.3V23.17l-1.42.84v135.48l-1.84-4.2C63.76 119.74 48.77 85.52 33.9 66.5l-1 1.35c4.03 5.3 7.7 10.87 10.97 16.67 11.1 19.2 22.2 44.56 33.97 71.4l3.34 7.63v.38h.16c.03.06.05.12.08.18l-.24.56v.7h-.3l-3.04 6.95c-11.75 26.84-22.86 52.2-33.97 71.4-4.62 8-9 14.45-13.17 19.4l.98 1.37c15.6-18.32 31.3-54.18 47.65-91.5l1.84-4.2v141.22l1.42.84V166.8c24.6 55.98 50.13 110.3 78.5 110.3a22.2 22.2 0 0 0 2.51-.15v56.72l1.42.02v-56.96c26.06-4.72 50.94-55.18 75.05-106.96v147.06l1.42-.7.3-150.06 1.48 3.2c19.38 41.76 37.94 81.74 56.38 98.57l1-1.34c-5.86-5.4-12.13-13.56-18.86-24.53zm-116.77 33.1v-109.7h-1.42V275.3a20.4 20.4 0 0 1-2.51.16c-12.96 0-26.7-12.4-42.03-37.9-12.12-20.17-23.88-46.2-35.3-72.2h-1.1l.54-1.25-.08-.18h.16c11.58-26.35 23.5-52.8 35.76-73.25 15.32-25.5 29.06-37.9 42.03-37.9a20.4 20.4 0 0 1 2.51.16v111H165V53.16c25.65 4.94 50.72 56.85 75.05 109.2v1.58h.74l.08.18-.58 1.25h-.24v.52c-24.3 52.33-49.4 104.25-75.04 109.18z"/></g><path d="M215.2 236.96c-20-27.15-47.06-33.23-51.42-34.6s-3.2-4.25-4.54-10.94c-.92-4.6-.25-6.84.26-7.8 40.15-2.56 71.92-35.95 71.92-76.73-.87-41.85-35.04-75.3-76.9-75.3s-76.03 33.47-76.9 75.3c0 38.78 28.7 70.86 66.05 76.14 0 0 6.07 12.1-4.07 19-10.23 7-28.98 7.52-49.12 33.44-18.64 24.02-24.25 50.5-24.25 66.88h171.9s-2.93-38.27-22.93-65.42z" opacity=".2" fill="#bfbfbf"/><path d="M217.84 222.88c-19.95-19.12-34.92-20.74-41.95-25h-25.16c-7.02 4.27-22 5.9-41.94 25-30 28.76-31.42 75.34-31.42 75.34h171.9s-1.4-46.58-31.42-75.34z" fill="#ff3369"/><circle fill="#ffae00" cx="165.49" cy="102.72" r="77.72"/><path d="M153.8 174.74c3.76 7.82 3.9 18.3-2.5 23.13 0 0 2.46 4.1 11.73 4.22s11.88-3.9 11.88-3.9-4.54-3.13-4.54-10.94c0-8.05 1.72-12.5 1.72-12.5H153.8z" fill="#723f33"/><path d="M170.44 179.5l-.42.7c-6.7 10.5-16.18 16.5-18.7 17.7 0 0 4.97-4.06 4.97-9.46 0-3.66-.44-7.3-1.32-10.87l8.47 5.1 7-3.16z" fill="#542c1c" opacity=".28" style="mix-blend-mode:multiply"/><ellipse fill="#603826" opacity=".6" style="mix-blend-mode:multiply" cx="152.6" cy="168.65" rx="3.66" ry="5.38"/><path d="M227.9 296.9c2.22-3.4 3.66-7.3 1.04-10.87a1.7 1.7 0 0 0-.25-.03l-15-.38c-.84-14.63-.87-29.26-.8-43.94-.02-.84-.7-1.5-1.53-1.52-1.5-.05-3-.07-4.5-.07-1.25-1.2-3.93-.7-3.85 1.54.46 13.17 1.3 26.34 2.62 39.45.55 5.5.53 11.56 5.52 15.05 4.3 3 9.6 2.62 14.55 3.62.7-.98 1.46-1.92 2.22-2.86z" fill="#c40e50"/><path d="M143.66 164.02v-3.45c0-1.15.16-2.3-.15-3.4.12-.16.1-.38-.03-.53-1.27-1.54-3.46-1.96-5.2-1-2.3 1.25-2.98 4.5-2.86 6.93s1.37 4.82 3.76 5.53c1.05.32 2.2.18 3.15-.37s1.63-1.48 1.87-2.55a1 1 0 0 0-.54-1.18z" fill="#603826"/><path d="M92.27 299.96v.63c0 .22.03.45.04.67l.8-.05a9 9 0 0 0-.84-1.25zm28.03-59.56c-.05-.14-.12-.28-.2-.42h-3.62c-.2 0-.38-.04-.56-.1h-.64l-.06.1c-1.78 3.47-1.67 7.43-1.9 11.23l-1.8 36.58c-5.8-.38-11.64-.25-17.43.4a4.6 4.6 0 0 0-1.49 1.37 3.1 3.1 0 0 0-.37.86V292c.03.08.05.17.08.24a18.4 18.4 0 0 0 .84 2c.88 1.47 2.12 2.85 2.83 3.95a1.3 1.3 0 0 1-.14 1.67 6.6 6.6 0 0 1 .48 1.1l7.5-.5c1.07-.07 1.94-1.33 1.73-2.35a7.4 7.4 0 0 0-3.94-5.1c1.25.14 2.47.36 3.6.5 4.7.56 11.75 3.1 14.2-1.6 1.28-2.47-.1-8.42 0-11.14l.4-10.16.8-25.95c.03-1.38.23-2.96-.28-4.3z" fill="#c40e50"/><path d="M189.1 157.34c-.65-.83-1.6-1.35-2.66-1.43.66-5.98.3-12.04-1.05-17.9-1.25-5.56-4.84-7.97-4.84-7.97s-9.07 6.88-16.57 6.88-16.57-6.88-16.57-6.88-3.57 2.4-4.84 7.97c-2.5 10.94-2.14 25.4 5.47 33.6s15.94 11.26 15.94 11.26 8.33-3.04 15.94-11.26a21.6 21.6 0 0 0 3.16-4.43c.75.67 1.8.87 2.75.52 1.88-.63 2.88-2.65 3.58-4.35.8-1.95 1.07-4.27-.3-6.02z" fill="#723f33"/><path d="M168.28 166.76l-4.78 2.2c-.04-.48-.3-2.95-.3-10.87 0-5.24-11.5-7.27-11.8-12.27s.3-8.83 7.52-9.78l-6.4-2.8c-1.82-.84-3.5-1.9-5.04-3.2 0 0-3.1 1.67-4.45 6.54-1.78 6.43-2.04 10.7-1.3 22.47.9 14.3 21.8 23.6 21.8 23.6s-1.04-1.28-3.93-7.06c-.05-.1-.08-.17-.13-.26 1.1-.35 2.2-.8 3.25-1.3 4.78-2.35 5.58-7.28 5.58-7.28z" fill="#542c1c" opacity=".28" style="mix-blend-mode:multiply"/><path d="M183.16 159.9c-.34-1.36-.94-2.65-1.76-3.8-.63-.9-1.37-2.04-2.4-2.47-2.45-1.02-5.68-1.14-7.62 1.82a21.4 21.4 0 0 0-2.39 5.26c-3.03-2.14-6.94-2.58-10.2-.9 0-1.87-2.7-5.78-4.93-7.18-2.9-1.82-6.5-1.56-8.67 1.25-2.1 2.7-2.76 6.83-2.57 10.15.26 4.5 2.93 11.8 9.07 11 6.4-.84 7.9-8.7 7.4-13.62 0-.08-.02-.16-.03-.25 3-1.52 7-1.22 9.37 1.33.03.03.07.06.1.1-.84 4.44.13 9.27 3.22 12.1s7.52 1.58 9.7-1.76c2.27-3.5 2.68-9 1.73-13zm-33.63 13.13c-4.3-1.35-5.3-7.65-5.04-11.24.2-2.62.54-5.5 2.4-7.34 3.34-3.34 8.96 1.3 10 6.77.03.15 0 .3.06.42.72 6.02-2.52 12.92-7.4 11.4zm26.97 1.32c-4.73 1.03-6.58-5.76-6.48-9.22.08-2.07.6-4.1 1.56-5.95a30.8 30.8 0 0 1 1.67-2.75c.3-.46 2.12-1.97 3.97-1.28.82.35 1.55.9 2.13 1.56 1.48 1.63 2.07 3.87 2.2 6.02.27 3.86-.35 10.6-5.04 11.6h0z" fill="#ff3369"/><path d="M142.14 159.05c-2.22-.6-4.7 1.2-5.22 3.34-.24 1 1.2 1.25 1.52.32.18-.56.5-1.06.9-1.47.25 1.33.1 2.6.16 3.93.03.22.2.4.42.42s.43-.08.52-.28c.5-1.46.23-3.23-.18-4.7a5.1 5.1 0 0 1 1.77-.42c.32.03.6-.2.62-.53s-.2-.6-.53-.62zm43.1-.58c1.88-.2 3.46 1.93 3.44 4 .06.25-.04.5-.25.66a.6.6 0 0 1-.7.02c-.2-.14-.34-.4-.3-.65-.02-.53-.17-1.06-.42-1.53-.47 1.2-.6 2.4-.92 3.65-.03.2-.2.33-.4.32s-.36-.16-.38-.35c-.1-1.46.48-3.06 1.1-4.36-.38-.32-.82-.56-1.3-.7-.53-.16-.38-1.02.15-1.08z" opacity=".4" style="mix-blend-mode:multiply" fill="#603826"/><path d="M184.1 148.8c-1.78-4.08-7.74-5.93-11.47-3.47-.54.36-.2 1.3.46 1.1 1.8-.57 3.58-.84 5.43-.23 2.02.68 2.84 2.27 4.33 3.6a.8.8 0 0 0 1.24-.97zm-27.3-4.4c-1.8-.94-4.52-.45-6.4.06-2.18.6-4.34 1.62-5.9 3.3-.4.42.1 1.17.63.84 1.82-1.08 3.55-2.1 5.64-2.57 1.97-.45 3.9.03 5.85-.3.27-.08.47-.32.5-.6s-.1-.56-.33-.72z" fill="#ffae00"/><rect fill="#f4f4f4" x="118.98" y="235.83" width="89.09" height="60.8" rx="1.7"/><rect fill="#000" x="121.76" y="238.44" width="83.72" height="59.81" rx="1.63"/><path d="M100.7 292.33h125.62a5.9 5.9 0 0 1-5.89 5.89H106.6a5.9 5.9 0 0 1-5.9-5.89z" fill="#dbdddc"/><path d="M106.6 298.22h113.83c2.03 0 3.92-1.05 5-2.78H101.62a5.9 5.9 0 0 0 5 2.78z" fill="#b2b2b2"/><path d="M62.67 298.22c60.4 47.3 145.26 47.3 205.64 0H62.67z" fill="#2146ad"/><path d="M130.36 128.58c-1.1-.16-2.1.2-3.16.5-1.28.36-1.53.03-2.07-1.02-.87-1.73-1.75-3.34-3.84-3.7-1.1-.2-2.12.12-3.17.38-1.36.34-1.97.3-2.3-1.15-.42-2 .42-4.15-1.18-5.8s-4.08-1.07-5.82 0c-.8.5-1.92 1.67-2.96 1.44-1.46-.34-1.5-2.42-1.4-3.6.2-2.55 1.25-5.33-.5-7.58-.65-.84-2.03-.37-1.76.76 1 4.12-2.95 10.45 2.1 13.12 2.05 1.1 4 0 5.76-1.1.9-.56 2.3-1.47 2.32.23a18.6 18.6 0 0 0 .08 3.01c.3 1.86 1.3 3.7 3.24 4.24a6 6 0 0 0 2.93-.05c1.12-.24 1.98-.84 2.72.22 1.05 1.48 1.25 3.16 3.05 4.05a4.7 4.7 0 0 0 3.02.27c.35-.07 2.85-.8 2.87-.64.22 1.76 2.82 2.32 3.28.37.5-2.13-1.2-3.66-3.2-3.96zm-2.06 24.76c-1.96-1.7-4.2-1.42-6.63-1.3-1.25.07-2.8.14-3.8-.82s-.55-2.33-1.1-3.5a.6.6 0 0 0-.8-.21c-2.67 1.32-.27 5.57 1.5 6.55 2.93 1.6 6.46-.4 9.3 1.22 1.2.68 2.64-1 1.52-1.97zm83.42-2.84c-1.28 1.05-2.8 2.46-4.56 2.42-1.6-.04-2.5-1.7-4.1-2.02-1.27-.2-2.57.13-3.6.88-.74.48-3.62 3.37-4.48 1.8-.66-1.22-2.57-.38-1.98.9.64 1.46 2.2 2.3 3.76 2 2-.28 4.35-3.57 6.27-2.42.8.48 1.25 1.25 2.17 1.63a5.7 5.7 0 0 0 2.85.42c2.3-.26 4.08-1.67 5.7-3.23 1.44-1.37-.46-3.67-2.03-2.4z" fill="#e09220"/><ellipse fill="#603826" opacity=".28" style="mix-blend-mode:multiply" cx="175.61" cy="167.64" rx="3.66" ry="5.38"/><path d="M110.03 226.9a66.4 66.4 0 0 0-8.75 10.23 1.1 1.1 0 0 0 .16 1.5c.44.38 1.1.36 1.5-.06a67.7 67.7 0 0 0 8.73-10.6c.67-1-.9-1.77-1.65-1.08zm-13.75 19.2c-2.03 1.37-3.47 3.98-4.46 6.16-1.1 2.4-1.73 5.03-1.8 7.68-.04 1.56 2.3 1.93 2.47.3.2-2.32.75-4.6 1.62-6.77.92-2.22 2.45-3.9 3.62-5.95.55-.97-.4-2.12-1.43-1.43zm-9 27.3a50.4 50.4 0 0 0-3.93 17c-.06 1.3 2.17 1.54 2.32.2.58-5.6 1.7-11.16 3.37-16.55.32-1-1.36-1.65-1.77-.65zm133.95-42.54c-3.45-3.84-7.48-7.4-11.42-10.74a1 1 0 0 0-1.4.01c-.4.38-.37 1 .01 1.4 3.47 3.76 7.23 7.66 11.18 10.96.45.45 1.17.44 1.62 0s.44-1.17 0-1.62zm15.22 26.54c-.4-1.53-1.33-2.96-2.06-4.36l-2.3-4.43c-1.5-2.86-2.93-5.9-4.75-8.56a.9.9 0 0 0-1.56.85c1.12 3.1 2.8 6.07 4.28 9.02l2.2 4.3c.74 1.43 1.32 2.98 2.34 4.18.3.42.9.55 1.35.3s.68-.8.5-1.3zm4.93 17.77l-2.12-8.2c-.42-1.37-2.38-.84-2.12.56l1.86 8.27c.52 2.23.7 5.4 2.2 7.17.23.22.56.3.86.23s.55-.32.64-.62c.55-2.28-.77-5.2-1.33-7.42zm3.92 23.97l-.76-9.12c-.1-1.28-2.06-1.17-2 .12l.48 8.67 2.27.32zm-72.94-102.72c-1.57 1.1-2.93 2.4-4.68 3.25a15.1 15.1 0 0 1-5.79 1.5 16.6 16.6 0 0 1-5.68-.76c-1.84-.55-3.53-1.95-5.4-2.26-.72-.12-1.7.42-1.4 1.3.77 2.1 3.04 3.34 4.97 4.26a17.5 17.5 0 0 0 7.38 1.67c4.8 0 10.5-1.96 13.47-5.9 1.27-1.7-1.12-4.3-2.9-3.08z" fill="#c40e50"/><path d="M142.05 244.58c-4.97-.2-10.4-.45-15.3.34-.8.13-1.1 1.4-.14 1.55 5.02.8 10.5.56 15.55.36 1.47-.06 1.32-2.2-.1-2.24zm15.85 6.47l-21.97.33c-1.22 0-1.33 1.9-.1 1.9l21.93.33c1.66.05 1.77-2.6.13-2.55zm-14.37 7.35c-5.02-.14-10.25-.28-15.25.16-1.37.12-1.4 2.32 0 2.44 5.02.42 10.23.3 15.25.17 1.55-.05 1.6-2.73 0-2.77zm36.5 11.2c-7.04-.5-14.25-.15-21.32-.1l-10.66.1c-3.64.03-7.43-.16-11.03.4-1.07.17-1.16 1.77-.04 1.94 3.3.5 6.8.36 10.15.4l11.1.1c7.2.06 14.56.42 21.74-.08 1.54-.1 1.63-2.63.06-2.74zm-37.92 9.65a64.2 64.2 0 0 0-12.42.25c-1 .13-1.44 1.8-.22 1.96 4.2.5 8.46.6 12.68.28.62-.1 1.07-.64 1.06-1.26s-.48-1.15-1.1-1.22zm27.22.38c-4.4-.04-8.85-.08-13.23.28-1.1.1-1.25 1.9-.1 2 4.5.36 9.05.32 13.55.28 1.66-.01 1.4-2.55-.22-2.55z" fill="#fff"/><path d="M132.62 270.08a44.9 44.9 0 0 0-6.31.42c-.92.13-1.2 1.6-.13 1.76a45.7 45.7 0 0 0 6.6.42c1.66 0 1.52-2.66-.16-2.6zm-.28-19.18a21.8 21.8 0 0 0-5.25.81c-.54.15-.8 1.02-.12 1.2 1.78.5 3.6.78 5.46.84 2.07.1 2.02-2.92-.1-2.86zm19.4 28.27a53.3 53.3 0 0 0-6.05.5c-.97.14-.84 1.53.07 1.67a51.1 51.1 0 0 0 5.76.5c1.74.04 1.92-2.73.23-2.67zm19.72-20.87c-3.8-.33-7.78.05-11.6.1l-11.6.3c-1.38.06-1.3 2.05.06 2.12a370.6 370.6 0 0 0 11.61.3c3.88.06 7.8.42 11.6.1 1.9-.15 1.76-2.75-.08-2.93z" fill="#ff3369"/><path d="M144.4 71.3a4.8 4.8 0 0 0-1.63-1.6c-1.07-.7-1.83-.9-1.02-2.16 1.8-2.77.7-4.95-1.7-6.2a3.9 3.9 0 0 0 .73-.65c.28-.4.46-.86.54-1.34a4 4 0 0 0-.69-2.9c-.74-1.12-1.8-1.65-2.93-2.3l-.57-.3a26.1 26.1 0 0 1 1.78-.96c1.36-.67.6-2.8-.87-2.5-2.06.42-6.36 2.35-4.15 5.02.94 1.14 3.64 1.5 4.18 2.8.42 1.04-1.84 2-1.82 3.47 0 1.53 1.07 1.86 2.26 2.3.88.32 1.5.7 1.1 1.62-.24.56-.84 1-1.14 1.56-.6 1.1-.52 2.44.2 3.46.33.46 2.8 2.5 3.1 2.25-1.63 1.3.55 3.72 2.17 2.4 1.24-1.03 1.25-2.63.45-3.97zm39.6.94a4.9 4.9 0 0 0-.79-2.15c-.67-1.08-1.25-1.6 0-2.38 2.8-1.73 2.76-4.18 1.14-6.33a3.9 3.9 0 0 0 .94-.28c.42-.24.78-.58 1.05-.98a4 4 0 0 0 .62-2.93c-.2-1.33-.92-2.26-1.67-3.32l-.38-.53 2.02-.1c1.5-.02 1.76-2.27.28-2.63-2.04-.5-6.75-.6-5.9 2.74.37 1.43 2.65 2.93 2.56 4.32-.07 1.12-2.5 1.04-3.14 2.36-.65 1.38.17 2.14 1.06 3.04.66.66 1.04 1.25.3 1.93-.46.42-1.2.54-1.7.92-1 .74-1.5 2-1.3 3.22.1.56 1.45 3.45 1.83 3.34-2.03.48-1.1 3.6.93 3.1 1.6-.38 2.28-1.8 2.13-3.36zm-38.68 40.06a18.2 18.2 0 0 0-6.02-4.58c-.9-.42-2.8-.72-3.03-1.7-.2-.84.38-2.05.28-2.96-.22-2.2-2-3.3-4.06-3.34-.6 0-2.38.3-2.57-.2-.15-.42.94-2.24.95-2.93.03-1.93-1.45-3.2-3.2-3.64-.95-.2-1.93-.26-2.9-.2-.42 0-1.33.17-1.7-.1-.78-.57-.3-1.52-.13-2.23.45-1.84.68-4.1-1.1-5.34-1.17-.84-2.73-.2-3.76-.9-1.36-.95-.15-3.2.38-4.37s-1.14-2.16-1.96-1.17c-1.63 1.98-3.02 4.4-1.7 6.97.45.87 1.2 1.54 2.12 1.9.66.25 1.33.1 1.97.25 1.35.33 1.06.97.82 1.97-.54 2.2-.75 4.6 1.57 5.85 1.06.5 2.22.72 3.4.63.84 0 2.8-.37 2.73.72s-1.07 1.9-1 3.1c.07 1.1.7 2.1 1.65 2.63a5.2 5.2 0 0 0 2.88.6c.42 0 1.78-.37 2.12-.07s.06 1.22 0 1.6c-.38 2.24-.03 4.16 2.25 5.13 1.45.62 2.86 1 4.22 1.84a20.5 20.5 0 0 1 3.43 2.87c1.37 1.35 3.64-.9 2.4-2.33zm57.56-35.66c-2.98.7-10.57 2.02-8.78 6.7a10.7 10.7 0 0 0 1.3 2.07c.95 1.4.58 2.6-.6 3.76-1.6 1.53-3.74 2.32-5.1 4.12-1.15 1.5-1.43 2.93-.03 4.3a10.5 10.5 0 0 0 1.01.82l.34.25c.38.28.42.33.1.15-.56.36-1.1.75-1.6 1.18l-1.72 1.56c-1.44 1.3-3.2 2.66-2.13 4.78.48.95 1.28 1.5.45 2.6s-2.53 1.25-3.68 1.7c-1.72.68-1.13 3.46.77 3.2 2.32-.3 4.93-1.42 6.1-3.57.57-.98.77-2.13.58-3.25-.1-.56-.32-1.1-.62-1.56a4.5 4.5 0 0 1-.28-.37c1.07-1.25 2.43-2.3 3.62-3.4.9-.84 1.88-1.6 1.97-2.9.13-1.76-1.28-2.35-2.28-3.34 1.93-3.04 6.54-3.95 7-8.2.2-1.97-1.05-2.77-1.64-4.4-.27-.74-.5-.8.3-1.38a9.6 9.6 0 0 1 1.71-.77c1.27-.53 2.57-1 3.9-1.38 1.45-.45.86-3.03-.68-2.68zm23.9 6.33c-.28.84-2.46.53-3.24.7a3.7 3.7 0 0 0-2.55 1.78c-.56 1.02-.18 2.2-.6 3.18-.3.67.1.54-.76.3-.5-.14-.97-.56-1.47-.74-1.94-.7-3.85.07-4.48 2.1-.42 1.25-.26 2.66-.3 3.98 0 .7-.3 6.23-1.38 5.6-1.46-.84-2.7 1.25-1.35 2.2 2.8 2 4.93-1.14 5.3-3.64.3-2.07.23-4.12.38-6.2.08-1.05.3-1.4 1.34-1.03.64.23 1.16.67 1.84.84 1.07.3 2.2-.02 2.97-.84.97-1.07.62-2.3.98-3.54.47-1.67 2.58-.98 3.96-1.53 1.3-.52 1.9-1.43 2.1-2.76.25-1.57-2.24-1.8-2.7-.4zm4.73 27.28c-.06-1.6-2.26-1.77-2.73-.3-.34 1.07-.42 2.5-1.17 3.34-.92 1.02-2.06.5-3.23.66a4.4 4.4 0 0 0-3.03 2.15c-.9 1.4-1.05 2.98-1.5 4.54-.28.94-.7 2.2-1.93 2.04-.9-.13-1.84-1.2-2.55-1.67-2.9-2-5.85-1.38-7.2 1.9a40.2 40.2 0 0 1-2.65 5.55c-.7 1.15-.98.93-2.1.44-.8-.4-1.67-.7-2.56-.88-1.7-.26-2.4 2.2-.67 2.66 1.8.5 3.27 2.1 5.27 1.7 1.9-.38 2.8-2.37 3.62-3.94l1.5-3.23c.45-1.1.58-2.46 1.94-2.2 2.12.42 3.25 2.78 5.65 2.84 4.5.13 4.18-4.92 5.66-7.73.8-1.48 1.82-.8 3.18-.96a4.4 4.4 0 0 0 2.17-.95c1.8-1.4 2.42-3.76 2.35-5.97z" fill="#e09220"/></svg>