<svg xmlns="http://www.w3.org/2000/svg" width="522" height="328" viewBox="0 0 522 328">
    <g fill="none" fill-rule="nonzero">
        <path fill="#000" d="M218.204 17.048c-71.59-5.037-159.928 7.28-105.863 66.617 46.444 50.971-134.943 43.17-109.747 108.936 23.665 61.762 243.372 38.439 191.571 66.195-51.801 27.757 35.335 44.355 124.194 40.361 74.718-3.356 29.11-32.48 44.249-48.663 20.013-21.398 159.149-15.33 159.149-57.377 0-40.89-84.5-47.15-155.14-53.473-67.754-6.066 3.596-35.343-4.01-71.407-8.508-40.348-68.694-45.855-144.403-51.19z" opacity=".05"/>
        <g fill="#FFF">
            <path d="M61.786 57.66H42.053a2.916 2.916 0 0 1-2.91-2.922 2.916 2.916 0 0 1 2.91-2.921h19.733a2.916 2.916 0 0 1 2.91 2.92 2.916 2.916 0 0 1-2.91 2.922zM61.786 102.559H42.053a2.916 2.916 0 0 1-2.91-2.922 2.916 2.916 0 0 1 2.91-2.92h19.733a2.916 2.916 0 0 1 2.91 2.92 2.916 2.916 0 0 1-2.91 2.922zM81.519 117.829H61.786a2.916 2.916 0 0 1-2.91-2.921 2.916 2.916 0 0 1 2.91-2.922h19.733a2.916 2.916 0 0 1 2.91 2.922 2.916 2.916 0 0 1-2.91 2.92zM77.616 51.817h19.733v5.842H77.616zM156.533 57.66h-40.902a2.916 2.916 0 0 1-2.91-2.922 2.916 2.916 0 0 1 2.91-2.921h40.902a2.916 2.916 0 0 1 2.91 2.92 2.916 2.916 0 0 1-2.91 2.922zM202.163 39.433h-40.902a2.916 2.916 0 0 1-2.91-2.921 2.916 2.916 0 0 1 2.91-2.921h40.902a2.916 2.916 0 0 1 2.91 2.92 2.916 2.916 0 0 1-2.91 2.922zM264.663 57.66h-40.902a2.916 2.916 0 0 1-2.91-2.922 2.916 2.916 0 0 1 2.91-2.921h40.902a2.916 2.916 0 0 1 2.91 2.92 2.916 2.916 0 0 1-2.91 2.922zM289.865 38.86h-40.902a2.916 2.916 0 0 1-2.91-2.922 2.916 2.916 0 0 1 2.91-2.921h40.902a2.916 2.916 0 0 1 2.91 2.921 2.916 2.916 0 0 1-2.91 2.922zM204.7 79.146h-40.899a2.916 2.916 0 0 1-2.91-2.921 2.916 2.916 0 0 1 2.91-2.921h40.9a2.916 2.916 0 0 1 2.91 2.92 2.916 2.916 0 0 1-2.91 2.922zM181.711 57.66h-9.147a2.916 2.916 0 0 1-2.91-2.922 2.916 2.916 0 0 1 2.91-2.921h9.147a2.916 2.916 0 0 1 2.91 2.92 2.916 2.916 0 0 1-2.91 2.922zM146.553 38.86h-9.15a2.916 2.916 0 0 1-2.91-2.922 2.916 2.916 0 0 1 2.91-2.921h9.15a2.916 2.916 0 0 1 2.91 2.921 2.916 2.916 0 0 1-2.91 2.922zM148.588 79.146h-9.15a2.916 2.916 0 0 1-2.91-2.921 2.916 2.916 0 0 1 2.91-2.921h9.15a2.916 2.916 0 0 1 2.91 2.92 2.916 2.916 0 0 1-2.91 2.922zM206.92 57.66h-9.149a2.916 2.916 0 0 1-2.91-2.922 2.916 2.916 0 0 1 2.91-2.921h9.15a2.916 2.916 0 0 1 2.91 2.92 2.916 2.916 0 0 1-2.91 2.922zM230.624 38.86h-9.149a2.916 2.916 0 0 1-2.91-2.922 2.916 2.916 0 0 1 2.91-2.921h9.15a2.916 2.916 0 0 1 2.91 2.921 2.916 2.916 0 0 1-2.91 2.922zM264.663 17.842h-40.902a2.916 2.916 0 0 1-2.91-2.92A2.916 2.916 0 0 1 223.76 12h40.902a2.916 2.916 0 0 1 2.91 2.921 2.916 2.916 0 0 1-2.91 2.921zM181.711 17.842h-9.147a2.916 2.916 0 0 1-2.91-2.92 2.916 2.916 0 0 1 2.91-2.922h9.147a2.916 2.916 0 0 1 2.91 2.921 2.916 2.916 0 0 1-2.91 2.921zM206.92 17.842h-9.149a2.916 2.916 0 0 1-2.91-2.92A2.916 2.916 0 0 1 197.77 12h9.15a2.916 2.916 0 0 1 2.91 2.921 2.916 2.916 0 0 1-2.91 2.921zM156.533 98.323h-40.902a2.916 2.916 0 0 1-2.91-2.921 2.916 2.916 0 0 1 2.91-2.922h40.902a2.916 2.916 0 0 1 2.91 2.922 2.916 2.916 0 0 1-2.91 2.92zM264.663 98.323h-40.902a2.916 2.916 0 0 1-2.91-2.921 2.916 2.916 0 0 1 2.91-2.922h40.902a2.916 2.916 0 0 1 2.91 2.922 2.916 2.916 0 0 1-2.91 2.92zM181.711 98.323h-9.147a2.916 2.916 0 0 1-2.91-2.921 2.916 2.916 0 0 1 2.91-2.922h9.147a2.916 2.916 0 0 1 2.91 2.922 2.916 2.916 0 0 1-2.91 2.92zM206.92 98.323h-9.149a2.916 2.916 0 0 1-2.91-2.921 2.916 2.916 0 0 1 2.91-2.922h9.15a2.916 2.916 0 0 1 2.91 2.922 2.916 2.916 0 0 1-2.91 2.92zM156.533 137.167h-40.902a2.916 2.916 0 0 1-2.91-2.92 2.916 2.916 0 0 1 2.91-2.922h40.902a2.916 2.916 0 0 1 2.91 2.921 2.916 2.916 0 0 1-2.91 2.921zM181.711 137.167h-9.147a2.916 2.916 0 0 1-2.91-2.92 2.916 2.916 0 0 1 2.91-2.922h9.147a2.916 2.916 0 0 1 2.91 2.921 2.916 2.916 0 0 1-2.91 2.921zM206.92 137.167h-9.149a2.916 2.916 0 0 1-2.91-2.92 2.916 2.916 0 0 1 2.91-2.922h9.15a2.916 2.916 0 0 1 2.91 2.921 2.916 2.916 0 0 1-2.91 2.921zM228.336 78.509h-9.155a2.916 2.916 0 0 1-2.91-2.921 2.916 2.916 0 0 1 2.91-2.922h9.155a2.916 2.916 0 0 1 2.91 2.922 2.916 2.916 0 0 1-2.91 2.92zM206.37 118.272h-40.9a2.916 2.916 0 0 1-2.91-2.921 2.916 2.916 0 0 1 2.91-2.921h40.9a2.916 2.916 0 0 1 2.91 2.921 2.916 2.916 0 0 1-2.91 2.921zM148.22 117.829h-9.147a2.916 2.916 0 0 1-2.91-2.921 2.916 2.916 0 0 1 2.91-2.922h9.147a2.916 2.916 0 0 1 2.91 2.922 2.916 2.916 0 0 1-2.91 2.92zM232.125 117.829h-9.15a2.916 2.916 0 0 1-2.91-2.921 2.916 2.916 0 0 1 2.91-2.922h9.15a2.916 2.916 0 0 1 2.91 2.922 2.916 2.916 0 0 1-2.91 2.92zM228.336 156.888h-9.155a2.916 2.916 0 0 1-2.91-2.92 2.916 2.916 0 0 1 2.91-2.922h9.155a2.916 2.916 0 0 1 2.91 2.921 2.916 2.916 0 0 1-2.91 2.921z"/>
        </g>
        <g transform="translate(220 38)">
            <path fill="#FF4AA0" d="M16.073 156.026c0 12.306 4.75 27.735 23.355 27.735 11.707 0 52.545-.266 52.545-.266l-.602-27.48-75.298.011z"/>
            <path fill="#723F33" d="M70.579 1.792c-1.557 2.244-3.342 4.369-5.574 5.863.074-.532 1.245-8.95-.095-7.35-1.806 2.15-7.886 5.263-9.937 6.613.156-.452.332-.9.528-1.345.528-1.242 1.209-2.943.987-4.44-1.753 1.103-5.458 2.924-7.332 3.818-3.534 1.68-6.989 1.526-11.008 4.881-2.88 2.393-5.305 6.198-6.957 9.7-3.635 7.71-2.099 18.556 3.003 25.682 2.674 3.722 6.464 6.288 10.797 7.179a1.908 1.908 0 0 0 1.877-.623 3.883 3.883 0 0 0 1.948-1.824c.857-1.786.356-3.687-1.09-4.961 0 0-.51-.505-.528-.51-.177-.197-.354-.394-.528-.601-.2-.25-.396-.508-.58-.771 0 0-.439-.716-.394-.615a16.313 16.313 0 0 1-.765-1.627 21.465 21.465 0 0 1-.346-.925c-.05-.144-.053-.125-.05-.104 0-.03-.024-.104-.066-.266a22.257 22.257 0 0 1-.433-2.164 21.62 21.62 0 0 1-.122-1.002s-.034-.745-.042-.769a21.425 21.425 0 0 1 .333-4.05c0-.068.018-.114.024-.145.018-.075.042-.163.07-.266.093-.357.186-.713.291-1.064.227-.776.491-1.54.792-2.29.253-.643.529-1.275.826-1.898.026-.04.396-.755.385-.733.174-.322.357-.641.528-.955.032-.056.066-.109.1-.165 3.001-1.741 5.883-2.483 9.452-2.659 4.946-.25 9.97.72 14.835 1.58 1.338.234 2.357-.708 2.985-1.798.581-3.277.631-6.629.148-9.922-.539-3.627-3.223-10.686-4.062-9.474z"/>
            <path fill="#F97E62" d="M43.4 69.928c.91-11.534.422-27.158.422-27.158C35.19 18.293 48.41 10.556 59.45 10.814c12.932.303 15.268 11.568 16.699 20.31 1.43 8.743-2.748 24.052-10.33 25.305-8.488 1.398-7.678.396-7.718 5.929 0 1.75.837 4.294 1.436 4.602 3.843 1.984 2.468 5.228 2.468 9.213 0 0 .293 4.22-9.75 4.012-10.042-.207-10.852-2.544-10.852-2.544s1.586-2.507 1.998-7.713z"/>
            <ellipse cx="39.921" cy="40.84" fill="#F97E62" rx="5.646" ry="5.969" transform="rotate(-4.26 39.92 40.84)"/>
            <path fill="#07174F" d="M9.467 134.742s-2.127 28.32 9.718 35.629l68.966 10.696s.383-33.251-1.45-66.67l-78.31 20.345"/>
            <path fill="#07174F" d="M43.63 64.857s-1.68 10.43 10.847 10.43c12.526 0 6.925-7.518 6.925-7.518 19.11 4.735 32.959 14.225 47.293 36.285 7.374 11.348 24.194 35.615 24.194 35.615H22.169L8.39 86.075s2.138-9.136 9.501-13.079c8.665-4.634 24.743-8.373 25.738-8.139z"/>
            <path fill="#DBDDDC" d="M88.497 93.91v41.827a1.87 1.87 0 0 0 1.876 1.861h64.83c.495.004.97-.19 1.322-.539.352-.349.552-.825.555-1.322V93.379a1.881 1.881 0 0 0-.555-1.323 1.854 1.854 0 0 0-1.321-.539l-64.83.532a1.87 1.87 0 0 0-1.877 1.861z"/>
            <path fill="#B2B2B2" d="M75.863 136.718v3.244c0 .08 1.174.143 2.623.143h90.656c1.448 0 2.639-.064 2.639-.143v-3.244c0-.08-1.177-.146-2.64-.146H78.487c-1.449 0-2.623.066-2.623.146z"/>
            <path fill="#000" d="M90.954 136.617c2.328.157 4.629.295 6.962.295 3.431 0 5.58.13 8.364.043 10.095-.322 20.193-.088 30.288-.242 5.904-.093 11.803.111 17.701-.117 0-.76-.06-2.016-.05-2.532.05-2.217.045-4.437.016-6.647-.045-3.38-.145-6.761-.206-10.138-.124-6.81-.248-14.209-.248-20.412 0-2.053-1.32-2.127-3.127-2.103-1.299.021-3.74.037-5.041.053-2.603.032-5.205.056-7.807.072-5.205.04-10.41.069-15.611.138-5.015.064-10.175.032-15.245.064-2.613.016-5.225.05-7.838.125-1.869.05-3.75 0-5.606.266-1.8.266-2.64.292-2.666 2.433-.15 8.774-.72 30.717-.44 33.47.09.877.145 3.645.554 5.232z"/>
            <path fill="#F97E62" d="M17.894 72.996C6.387 77.936-2.692 114.66 1.832 128.675c3.66 11.31 12.913 11.712 12.913 11.712l81.06-.401s-3.838-5.78-9.766-8.195c-5.927-2.414-11.401 4.145-15.339 3.382-10.538-2.034-27.49-5.283-45.02-14.068 0 0 .837-16.942.013-27.532-1.071-13.725-7.799-20.577-7.799-20.577z"/>
            <path fill="#DD604B" d="M61.653 74.535c-.82.133-1.648.21-2.478.232-1.956.05-4.487-.115-6.35-1.237a5.046 5.046 0 0 1-2.761-1.595c-2.57-2.204-3.4-5.703-3.547-9.101-.209-4.81-.2-13.385-2.518-17.854-.05 1.558-.264 5.95-.148 7.514.19 2.504.248 3.485.08 5.998-.106 1.54-.378 5.147-.579 6.99l-1.15.654c-.095.55.527 1.55.583 2.202a2.123 2.123 0 0 1 1.224 1.475c1.056 3.906 6.723 5.735 9.966 6.116.53.055 1.037.252 1.468.569 1.243-.173 2.486-.442 3.732-.63a64.059 64.059 0 0 0 1.636-.192c.763-.085.998-.588.842-1.14zM39.454 40.704c.197-.043.387-.11.568-.202.324-.17.35-.758-.037-.88-1.402-.444-3.033.928-3.846 1.994-.285.373.28.939.597.58a4.775 4.775 0 0 1 1.486-1.133c.04.428.37.731.527 1.12.193.433.077.949.31 1.35.29.5 1.015.665 1.343.093.37-.651.09-1.478-.264-2.082a3.361 3.361 0 0 0-.684-.84z"/>
            <path fill="#DD604B" d="M59.887 39.01c-1.557-3.344-5.183-2.352-6.925.266a5.373 5.373 0 0 0-.634 4.69c2.28 6.286 10.33.998 7.56-4.955zM74.606 45.945c.47-2.029 1.056-4.034 1.507-6.062.03-.652.035-1.3.024-1.95-.57.341-1.078.777-1.502 1.29a5.328 5.328 0 0 0-1.09 4.592c.177.786.541 1.517 1.061 2.13z" opacity=".52"/>
            <path fill="#DD604B" d="M72.424 43.158a.551.551 0 0 0-.51-.303c-1.974-1.018-4.579-.563-5.75 1.21-.243.367.12.838.654.737 1.726-.325 3.523-.57 5.207-1.019a.747.747 0 0 0 .24-.109c.227-.09.372-.35.159-.516z"/>
            <path fill="#723F33" d="M61.175 27.453c-1.32-1.064-3.66.396-4.956 1.04-1.716.853-3.571 1.914-4.899 3.36-.641.697-.042 2.053.921 1.563 1.676-.85 3.225-1.909 4.957-2.658.905-.39 1.829-.73 2.768-1.024.774-.245 1.18-.378 1.51-1.213a.967.967 0 0 0-.3-1.068zM77.177 27.918c-.75-.553-1.668-.545-2.587-.57a9.455 9.455 0 0 0-2.731.267c-.644.175-.57 1.186.074 1.279.791.114 1.583.162 2.349.3.765.138 1.538.497 2.309.367.77-.13 1.312-1.111.586-1.643zM75.807 5.43a.329.329 0 0 0-.416-.134.333.333 0 0 0-.183.4c.127.446.264.909.348 1.366.085.457.093.936.175 1.398a.37.37 0 0 0 .715 0 4.154 4.154 0 0 0-.639-3.03z"/>
            <path fill="#2146AD" d="M65.981 111.315c1.945-1.595 7.53-5.134 3.96-8.037-2.72-2.218-7.042 1.305-9.32 2.8-2.967 1.943-5.886 4.046-9.267 5.2-.753.28-1.529.49-2.32.63-.055 0-.38.053-.583.061a.436.436 0 0 1 .064-.305c.852-1.508 1.599-2.85 2.8-4.13 2.196-2.34 4.85-4.19 7.266-6.285 1.137-.987 2.694-2.087 2.956-3.693.311-1.904-1.352-3.154-3.101-2.906-1.637.228-3.32 1.348-4.751 2.108a58.127 58.127 0 0 0-4.75 2.792 58.18 58.18 0 0 0-5.179 3.813c-.356.292-.702.595-1.056.89-.167.131-.343.25-.527.357l.076-.184c.222-.503.464-.997.726-1.48a19.78 19.78 0 0 1 8.163-8.01c1.502-.797.026-2.94-1.452-2.195a22.59 22.59 0 0 0-8.292 7.13c-1 1.423-2.167 3.13-2.563 4.853-.42 1.819.763 3.43 2.64 3.496 1.876.067 3.23-1.534 4.59-2.613a58.458 58.458 0 0 1 5.05-3.592 55.7 55.7 0 0 1 4.25-2.444c-2.486 1.965-5.107 3.786-7.258 6.137-2.011 2.196-5.524 7.16-1.803 9.497 1.602 1.005 3.61.572 5.316.101a25.237 25.237 0 0 0 5.32-2.276c3.04-1.659 5.807-3.749 8.731-5.613-.488.402-.979.798-1.462 1.205l-2.94 2.449c-.834.696-1.832 1.369-2.418 2.313-1.103 1.776-.335 4.2 1.872 4.467.979.12 1.94-.266 2.855-.57a99.623 99.623 0 0 0 3.645-1.238c1.847-.694.89-3.396-.984-2.888-.932.253-1.848.532-2.766.835-.116.037-.597.149-1.098.266.28-.237.578-.457.857-.689l2.753-2.252zM62.25 67.165c-1.51-1.236-3.62.604-1.648 2.587 1.486 1.5-.414 3.364-1.68 3.856-2.112.821-4.923.531-7.092.04-2.112-.482-4.163-1.402-5.659-3.021-1.539-1.664-1.969-3.523-2.441-5.669a1.01 1.01 0 0 0-.929-.785 1.008 1.008 0 0 0-1.006.682c-.921 2.842.77 6.091 2.763 8.048 2.407 2.361 5.646 3.502 8.932 3.882 3.061.353 6.77.266 9.063-2.127 2.109-2.196 2.09-5.528-.304-7.493z"/>
            <path fill="#E22B64" d="M77.842 174.101c-15.155 2.465-8.931-18.37-4.714-21.497 6.598-4.902 27.75-4.224 35.598.583 12.859 7.873 4.178 47.91-5.252 74.966-7.273 20.87-15.571 41.853-15.571 41.853H76.554s4.777-24.196 4.194-43.34c-.628-21.164-2.906-52.565-2.906-52.565z"/>
            <path fill="#C40E50" d="M95.741 166.816c-.38-1.064.087-.25-.475-1.218-1.79-3.073-4.864-5.801-4.043-9.973.61-3.087 8.282-5.267 15.946-3.318-5.344-3.457-27.448-7.618-35.06-2.045-.347.251-.59.624-.68 1.045-.264.213-.421.534-.428.875-3.674 5.562-2.782 13.177-.438 19.191 1.404 3.606 3.286 6.935 4.846 10.45a48.567 48.567 0 0 1 3.357 10.98c1.422 7.711 1.401 15.64 1.296 23.489-.111 8.333-.225 16.676-.768 24.993-.615 9.452-1.027 17.942-3.453 27.027-.607 2.281 1.507 3.414 2.283 1.162 6.2-17.971 12.405-34.961 16.068-53.865 2.581-13.263 3.82-26.943 3.054-40.513-.156-2.803-.58-5.661-1.505-8.28z"/>
            <path fill="#E22B64" d="M82.036 163.075c-2.172-12.247-15.651-18.44-34.342-15.275-15.917 2.693-32.199 8.79-36.514 10.255 1.224 6.793 4.893 11.154 9.06 17.636 2.41 3.747 6.432 5.967 10.523 7.71 2.288.971 4.571 1.03 7.055 1.064 4.423.04 7.39.532 10.744-.686.027 0-.306 1.646-.306 1.646-6.799 33.752-6.474 84.666-6.474 84.666l11.528 1.146s3.28-10.37 9.182-26.947c5.901-16.578 21.713-68.971 19.544-81.215z"/>
            <path fill="#DD604B" d="M92.693 138.925c-.216-.067-.433-.125-.652-.189-.691-.07-1.385-.138-2.08-.2-1.604-.14-3.209-.275-4.814-.406-4.009-.154-8.012-.354-12.006-.668-3.795-.297-7.558-.686-11.364-.874-2.868-.144-5.737-.293-8.607-.447a1.547 1.547 0 0 0-.852-.157l-.776.07-.855-.046c-7.097-.39-14.408-.43-21.362-2.04-5.733-1.329-11.502-4.131-14.84-9.204-4.179-6.342-2.577-14.387-.835-21.319-1.647-.229-9.59-1.726-10.858-1.768-.372 0-3.631 12.925-2.15 21.27.622 3.516 2.533 12.399 5.866 14.308a22.887 22.887 0 0 0 7.195 2.56c5.886 1.117 12 1.237 17.973 1.096 6.258-.146 12.473-.92 18.689-1.625 6.155.351 12.322.702 18.475.72 9.084.03 18.142.317 27.22.764a.89.89 0 0 0 .792-.343c-1.393-.447-2.773-1.085-4.159-1.502z"/>
            <path fill="#C40E50" d="M58.813 197.068c-1.663-.265-3.515.038-5.194.07-1.428.029-2.866.026-4.297.1 1.658-12.677 3.112-21.866 3.112-21.866-1.085.375-2.2.659-3.33.848-1.133 4.268-3.469 12.742-3.469 12.742s-2.006 8.032-3.573 27.192c-1.568 19.16-.28 53.913-.28 53.913l1.935-.061s0 4.1 1.024-24.214c.34-9.405 1.303-20.332 2.438-30.734a96.779 96.779 0 0 0 5.279-.109c1.523-.069 3.201 0 4.692-.385 1.428-.362 1.555-1.862 1.745-3.316l.792-6.187c.24-1.861.646-3.802.699-5.677.053-1.252-.512-2.145-1.573-2.316zm-9.726 1.992c2.249.088 4.513 0 6.757-.035-.056.267-.034.544.063.798a58.348 58.348 0 0 0-.25 6.238c-1.357-.375-2.922-.266-4.258-.311a49.727 49.727 0 0 0-3.148 0c.28-2.298.56-4.536.839-6.69h-.003zm5.989 13.746a67.166 67.166 0 0 1-7.672.205c.216-1.912.432-3.8.654-5.65a93.23 93.23 0 0 1 3.45.135c1.343.08 2.824.452 4.19.338.059 1.66.17 3.313.315 4.948-.325.024-.676.003-.937.024zM35.606 151.82c-.148-.946-1.668-1.106-1.847-.1-.43 2.392-.594 4.418-2.046 6.452a9.297 9.297 0 0 1-5.379 3.61c-1.084.267-.72 2.038.375 1.804a11.136 11.136 0 0 0 6.432-3.989c1.592-2.005 2.882-5.118 2.465-7.777z"/>
            <path fill="#07174F" d="M71.954 268.839c.338-7.163-6.627-12.202-13.766-11.944-8.063.29-12.8 4.19-16.406 10.534-.472.827-.808 3.893.124 3.938 9.575.463 19.171.468 28.752.13 1.351-.047 1.288-2.494 1.296-2.658zM92.598 256.895c-8.066 0-12.898 4.337-16.503 10.68-.473.83-.71 3.747.222 3.792 9.575.463 19.171.468 28.751.13 1.354-.047-.42-14.613-12.47-14.602z"/>
            <path fill="#DD604B" d="M65.411 49.81c-1.06.084-2.124.098-3.185.043-.98-.082-1.874-.356-2.843-.462-.425-.048-.792.385-.493.62 1.583 1.212 4.719 1.443 6.91.917.952-.23.461-1.157-.389-1.117z" opacity=".52"/>
            <path fill="#FF4AA0" d="M105.46 99.247c-1.88.1-3.74.587-5.63.704-1.89.117-3.796.218-5.672.15-.46-.017-.499.768-.04.816 1.966.199 3.827.44 5.807.337 1.876-.098 3.998-.18 5.774-.835a.607.607 0 0 0-.24-1.172z"/>
            <path fill="#FFC000" d="M96.636 106.798c-.697-.293-1.642-.564-2.396-.497-.483.04-.586.77-.204 1.013.642.404 1.626.577 2.376.635.683.053.818-.901.224-1.151z"/>
            <path fill="#FF4AA0" d="M114.414 107.229c-4.241-.2-8.482-.386-12.726-.479-.626-.016-.615.933 0 .97 4.238.266 8.482.429 12.726.583.686.024.681-1.042 0-1.074zM100.146 115.966c-.916-.128-1.89 0-2.813.037a15.91 15.91 0 0 0-2.568.17c-.668.136-.528 1.042.09 1.135.913.136 1.884.04 2.81.03.858 0 1.734.045 2.579-.117.739-.141.575-1.162-.098-1.255z"/>
            <path fill="#DBDDDC" d="M113.424 99.12a46.303 46.303 0 0 0-4.859.092c-.64.037-.59 1.088.04 1.122 1.619.113 3.243.14 4.864.083.74-.035.686-1.263-.045-1.298zM105.976 111.767c-3.958.022-7.899 0-11.842.224-.544.032-.58.954-.021.975 3.998.168 7.994.083 11.995.04.797-.005.655-1.241-.132-1.239zM112.783 121.45c-3.106.043-6.213.112-9.322.15-3.109.037-6.242-.08-9.314.266-.499.055-.586.877-.042.925 3.043.266 6.152.106 9.203.082 3.196-.026 6.395-.018 9.591-.037.882.003.768-1.396-.116-1.385zM101.215 126.295c-2.175-.064-4.626-.215-6.775.162-.623.112-.528.963.053 1.064 2.111.367 4.487.215 6.614.154.86-.016 1.01-1.345.108-1.38zM117.035 131.485c-2.507-.31-5.078-.308-7.601-.35-2.64-.043-5.31-.123-7.931.13a.673.673 0 0 0-.621.681.673.673 0 0 0 .637.667c2.554.087 5.117-.038 7.675 0 2.557.037 5.117.287 7.67.297.794.014 1.002-1.321.17-1.425z"/>
            <path fill="#FFC000" d="M98.663 131.37c-.641-.156-1.354-.11-2.011-.132a6.847 6.847 0 0 0-1.95.128.553.553 0 0 0-.043 1.015c.628.196 1.28.3 1.937.309.658.042 1.36.151 2.012.053a.695.695 0 0 0 .601-.663.696.696 0 0 0-.546-.71zM109.653 125.607a27.652 27.652 0 0 0-5.218.308c-.604.088-.773 1.093-.071 1.16 1.792.186 3.599.203 5.394.05.99-.101.845-1.47-.105-1.518zM110.387 116.005a32.77 32.77 0 0 0-8.037.128c-.528.083-.657.878-.066.997 2.634.496 5.32.664 7.994.503.895-.046 1.05-1.537.109-1.628z"/>
            <path fill="#07174F" d="M23.595 70.43C8.007 74.07 2.792 95.705 2.792 101.677l26.02 4.552s4.044-21.651-.873-29.093c-2.256-3.42-3.428-6.727-4.344-6.706z"/>
            <path fill="#2146AD" d="M26.034 102.666a107.657 107.657 0 0 0-11.832-2.127c-1.95-.231-3.909-.428-5.867-.545-1.903-.112-3.854-.266-5.704.266-.836.231-.744 1.555 0 1.837 1.75.667 3.695.74 5.543.95 1.951.22 3.895.487 5.832.797 3.883.625 7.73 1.39 11.542 2.364 2.177.534 2.692-3.026.486-3.542z"/>
            <path fill="#DBDDDC" d="M42.085 190.54c-6.962 1.285-14.188-.483-20.219-4.764-6.07-4.307-10.657-11.146-12.977-19.04-1.349-4.594-1.784-9.332-1.813-14.169 0-2.087-2.375-2.201-2.695-.204-1.433 9.189 1.095 19.12 5.403 26.771 4.061 7.22 10.293 12.564 17.279 15.19-2.17 12.013-3.603 24.26-5.294 36.376l-2.603 18.612-1.28 9.16a5416.89 5416.89 0 0 1-.683 4.884c-.235 1.688-.528 3.265-.312 4.97.264 1.99 2.903 2.236 3.619.531.644-1.5.725-3.145.931-4.786l.615-4.905 1.156-9.2 2.346-18.708c1.505-11.983 3.276-23.993 4.326-36.048a29.754 29.754 0 0 0 13.083.572c2.885-.506 2.003-5.773-.882-5.241z"/>
            <path fill="#723F33" d="M74.978 15.445c-.081-1.457-1.76.838-2.924 1.019.343-1.311.188-3.074-1.03-3.888-3.43-2.289-8.091-3.108-12.079-3.291-4.133-.19-8.134.348-11.95 2.05a2.205 2.205 0 0 0-1.228 2.23c-.81.133-1.61.324-2.394.572-4.54 1.46-7.342 6.06-7.609 10.955-.316 5.737 2.376 10.635 5.152 15.36 1.008 1.712 3.61 1.717 4.954.574 1.626-1.385 1.518-3.515.507-5.235-1.161-1.978-2.299-4.007-3.085-6.19-.644-1.795-.792-3.19-.584-4.767.09-.776.328-1.527.7-2.213 1.723-1.451 3.79-2.127 5.935-2.286h.03c1.448-.009 2.897.06 4.338.205 2.426.324 4.828.885 7.235 1.36.366.102.733.211 1.095.323 2.19.683 4.378 1.792 6.68 1.925a7.455 7.455 0 0 0 4.172-1.05c2.967-1.737 2.104-7.304 2.085-7.653z"/>
            <path fill="#603826" d="M54.788 15.076a17.092 17.092 0 0 1-2.663 3.802c-.528.532.145 1.518.715.984a10.66 10.66 0 0 0 2.864-4.255c.198-.545-.61-1.098-.916-.531zM59.008 14.988a6.711 6.711 0 0 1-2.708 4.108c-.527.38 0 1.412.57 1.063a6.997 6.997 0 0 0 3.368-5.004c.137-.826-1.06-.978-1.23-.167zM64.662 13.294c-.528 2.66-1.748 4.818-3.276 6.937-.374.532.34 1.218.792.782 2.059-1.944 3.21-4.767 3.624-7.61.124-.792-.998-.861-1.14-.109zM70.7 11.383c-.3 3.974-1.863 7.032-4.077 10.146-.34.478.216 1.297.715.856 2.958-2.611 4.45-6.913 4.655-10.901.04-.777-1.235-.883-1.293-.101zM73.062 16.094c-.203 1.893-.504 3.627-1.396 5.318-.327.611.46 1.276.863.667 1.148-1.718 1.848-3.869 1.539-5.988a.508.508 0 0 0-.504-.445.508.508 0 0 0-.502.448z"/>
            <path fill="#07174F" d="M17.728 155.769a516.261 516.261 0 0 1 5.09-1.649L9.418 136.665c-.35 7.319.35 14.65 2.077 21.768 1.884-1.245 4.149-1.978 6.234-2.664z"/>
            <path fill="#C40E50" d="M27.477 169.504a30.891 30.891 0 0 1-7.002-8.112 24.736 24.736 0 0 1-2.55-5.549c-2.282.728-4.594 1.492-6.597 2.778 1.815 6.95 4.866 13.728 9.746 18.644 12.534 12.63 25.649 7.687 25.649 7.687l2.393-8.726c-11.211-.006-17.994-3.77-21.639-6.722z"/>
        </g>
        <g transform="translate(60 14)">
            <ellipse cx="63.493" cy="41.538" fill="#FFC000" rx="43.549" ry="41.28"/>
            <path fill="#07174F" d="M96.982 171.07l-35.225 29.895s28.389.773 32.699 18.452c3.274 13.44-17.222 46.021-27.248 60.882a4.822 4.822 0 0 0-1.155-.53.939.939 0 0 1-.343.159c-.716.175-1.987.225-2.524.826-.536.6-.666 1.965-.864 2.756a.906.906 0 0 1-1.102.63l-.544-.202c-.021.64.122 1.274.415 1.843.055.16.113.316.177.47 1.266 1.84 2.542 3.718 3.9 5.497a67.607 67.607 0 0 0 2.569 2.454c.528.476 2.288 1.86 2.967 1.923.265-.18-.568-1.482-.29-1.657 1.112-.845 3.319-.598 4.41-1.482.04-.266-1.057-1.676-1.089-1.957.299-.872.291-1.82-.02-2.688a7.093 7.093 0 0 0-.577-1.227c5.41-4.881 26.405-24.374 46.327-50.328 23.104-30.1 9.83-50.703-22.483-65.716z"/>
            <path fill="#2146AD" d="M142.154 287.398a4.422 4.422 0 0 0-1.443 1.495c.127.385.264.77.386 1.156.187.115.364.247.528.393a13.99 13.99 0 0 1 2.725 3.43c4.682-2.336 9.47-4.434 14.322-6.389a100.66 100.66 0 0 1-1.218-5.927 4.474 4.474 0 0 0-2.563-.51c1.585-18.914 3.628-67.15-14.613-86.545-21.55-22.91-45.603-26.798-45.603-26.798s-10.18 14.19-14.249 18.324c-6.342 6.424-28.146 22.55-28.146 22.55 30.31 11.754 52.442-4.178 73.043 19.99 14.698 17.24 17.73 44.615 18.26 58.008-.488.258-.964.528-1.43.823z"/>
            <path fill="#FF4AA0" d="M62.16 99.637c-.76 11.802-1.336 30.171 12.92 39.756 13.847 9.295 28.783 14.195 38.088 14.434l-.545 2.565-1.805 3.96s-37.363 10.49-57.784-1.86c-25.155-15.2-29.861-39.285-23.202-53.13 10.541-21.928 32.945-15.248 32.329-5.725z"/>
            <path fill="#FF4AA0" d="M60.641 104.223s-12.2 18.06 2.799 39.114c14.616 20.52 27.68 23.51 33.74 25.008 0 0-6.87 11.56-18.284 22.646-13.025 12.654-26.624 17.58-26.624 17.58s-37.96-11.35-37.96-61.285c0-40.582 30.746-62.606 40.899-60.309 11.337 2.566 5.43 17.246 5.43 17.246z"/>
            <path fill="#723F33" d="M114.669 160.538c8.503.217 12.72-7.532 18.006-7.397 5.285.136 5.346 2.332 8.905 2.422 3.56.09-8.033-7.701-9.777-8.567-2.952-1.463-7.56.12-10.655 3.078-3.652 3.487-7.637 3.84-7.637 3.84l-1.905 6.49 3.063.134zM91.961 70.552c3.7-8.884-.753-21.312-14.941-21.368-10.142-.04-13.614 11.836-14.124 15.915-.97 7.755 2.5 9.651-1.258 14.79-2.487 3.4-6.057 6.358-7.518 7.306 0 0-1.46 1.74 1.205 6.326 1.32 2.26 6.844 5.351 6.844 5.351s-.021-6.833 4.537-9.71c6.414-4.047 6.575 1.963 12.338.532 5.888-1.463 7.896-6.937 7.896-6.937l3 1.209s-.394-7.646 2.021-13.414z"/>
            <path fill="#FFC000" d="M63.303 69.441c9.716 1.063 7.607-14.144 20.537-12.614C93.031 57.913 93.354 66 93.354 66s3.826-26.265-18.255-21.777C53.018 48.71 63.054 68.813 63.303 69.44z"/>
            <ellipse cx="63.218" cy="68.762" fill="#723F33" rx="5.24" ry="5.266"/>
            <path fill="#FFC000" d="M41.684 79.034c-1.551-1.883-4.588-1.676-6.01-3.771-.46-.68-1.553-.229-1.46.568.158 1.39 1.455 2.207 2.573 2.813 1.247.677 2.709 1.442 4.125 1.649.648.095 1.229-.707.772-1.26zM107.676 54.275c-1.725 2.228-2.642 4.95-4.468 7.114-.608.72.37 1.86 1.136 1.246 2.394-1.939 3.29-4.82 4.865-7.372.55-.89-.901-1.806-1.533-.988z"/>
            <path fill="#E09220" d="M47.328 62.94c-.748-.265-2.36-.287-2.907-.879-.547-.592-.467-1.859-.89-2.589-.666-1.166-1.694-1.256-2.886-1.562-1.321-.337-1.419-.738-1.562-2.018-.095-.84-.198-1.607-.729-2.3-.531-.693-1.403-1.062-2.13-1.564-1.078-.744-.9-1.12-.597-2.417.198-.836-.951-1.675-1.472-.773-.906 1.573-1.208 3.16.29 4.436.997.847 2.334 1.139 2.538 2.58.14.989.034 1.921.666 2.77 1.194 1.594 3.72.7 4.492 2.428.415.922.69 1.912 1.585 2.486.896.573 2.099.558 3.079.78.909.194 1.44-1.056.523-1.378zM62.798 46.666c-.407-.823-1.93-1.68-2.143-2.204-.35-.847.169-1.944-.265-2.897-.433-.954-1.226-1.58-1.963-2.247-1.12-1.017-1.562-1.673-.629-3.046.69-1.017 1.253-1.974 1.12-3.254-.132-1.28-1.046-1.946-1.78-2.889-1.713-2.204-.106-4.076 1.585-5.63.917-.837-.19-2.316-1.194-1.54-2.115 1.638-4.152 4.058-3.04 6.904.51 1.307 2.68 2.69 2.167 4.162-.454 1.301-1.722 1.917-1.8 3.44-.129 2.472 2.192 3.056 3.307 4.795.613.951-.05 2 .354 3.001.198.497 2.09 2.109 1.868 2.343-.983 1.033.618 2.246 1.636 1.622.943-.579 1.282-1.537.777-2.56zM87.34 30.357c.747-.78-.48-1.906-1.298-1.309-1.322.967-3.314 1.78-3.843 3.487a3.423 3.423 0 0 0 .265 2.488c.375.779 1.585 1.43 1.474 2.29-.11.86-1.546.977-2.175 1.575a3.108 3.108 0 0 0-.909 2.368c0 1.257.339 2.507.376 3.777.045 1.55-.98 2.233-1.63 3.527-.556 1.096 1.109 2.04 1.83 1.062 1.35-1.806 1.919-3.142 1.9-5.423 0-1.2-.647-3.203.238-4.058.579-.558 1.462-.608 2.003-1.283 1.287-1.593.085-2.92-.872-4.198-1.577-2.098 1.409-3.015 2.64-4.303zM41.298 23.522c.433-.715-.418-1.753-1.176-1.243-1.086.727-2.24 1.543-2.452 2.921-.14.903.137 1.787.39 2.656.392 1.312.55 2.124.212 3.521-.209.855.936 1.777 1.602.983 1.162-1.386 1.043-2.874.552-4.547-.212-.717-.753-1.819-.5-2.573.204-.611 1.034-1.163 1.372-1.718zM55.713 75.236c-.528-1.71-2.328-3.8-4.228-2.655-.38.228-.737.48-1.115.693a.466.466 0 0 1-.264.077 1.694 1.694 0 0 1-.037-.189 2.123 2.123 0 0 0-1.266-1.593c-.87-.383-1.826.881-.96 1.471.46.313.265 1.12.55 1.607.394.703 1.2.937 1.966.881a3.439 3.439 0 0 0 1.475-.451c.164-.096.684-.63.824-.606.24.04.616 1.007.77 1.22.253.433.676.74 1.165.85.769.193 1.331-.617 1.12-1.305z"/>
            <path fill="#603826" d="M85.828 82.107a7.017 7.017 0 0 1 2.071.93.681.681 0 0 0 .846-.667c.045-1.108.19-2.21.433-3.29.185-.707.582-1.454.555-2.2-.026-.746-.504-.717-1.017-.478-1.48.688-2.627 1.886-3.84 2.948-.54.472-1.118.9-1.728 1.277-.232.144-1.47.699-1.834 1.203 1.506-.055 3.042-.085 4.514.277z" opacity=".28" style="mix-blend-mode:multiply"/>
            <path fill="#E09220" d="M101.329 39.004c-.637-.632-1.43.266-1.102.946.177.372-1.279.935-1.586 1.206a2.2 2.2 0 0 0-.848 1.8c.037.757 1.321 2.125.856 2.709-.37.446-1.778.531-2.338.9-.48.318-.619.961-.315 1.45.31.58 1.097 1.368.59 2.024-.265.337-1 .467-1.375.664-.93.488-1.511 1.038-1.664 2.111-.127.895.99 1.62 1.643.842.933-1.107 2.519-1.413 3.314-2.632.71-1.086.328-2.233-.235-3.269.83-.382 1.831-.452 2.354-1.373.743-1.304-.33-1.944-.528-3.123-.18-1.062 1.197-1.11 1.733-2.003.513-.85.143-1.614-.5-2.252z"/>
            <path fill="#603826" d="M64.893 67.19c-1.54-.356-2.906.432-4.228 1.139-.412.223-.158.897.264.69.423-.207.846-.433 1.322-.637.06.584.23 1.376-.098 1.75a.667.667 0 0 0 .048.797c.201.22.52.286.792.164 1.057-.36.68-2.262.37-3.08.425-.097.87-.066 1.277.09.631.26.946-.757.253-.914zM81.127 80.202c.837-.847 1.511-1.906 1.115-3.022-.65-1.84-3.362-1.803-4.643-.762a4.497 4.497 0 0 0-1.528 3.152c-.097.898.056 1.875.928 2.332.962.502 2.008.035 2.801-.566l.209-.159c.43-.252.809-.582 1.118-.975z" opacity=".28" style="mix-blend-mode:multiply"/>
            <path fill="#603826" d="M90.344 76.458a1.682 1.682 0 0 0-1.459-.335 6.742 6.742 0 0 0-1.963.847.733.733 0 0 0-.183 1.081 5.122 5.122 0 0 1 2.379-.568.46.46 0 0 1 .388.021c.179.02.355.056.529.104.065-.393.169-.778.309-1.15z"/>
            <path fill="#FF4AA0" d="M93.562 73.993a6.896 6.896 0 0 0-2.906 1.426 1.609 1.609 0 0 0-.717-.36 2.394 2.394 0 0 0-1.54.167l-.122.053c.154-.308.291-.611.405-.903.716-1.84-.389-3.352-2.241-3.665-3.613-.614-6.892 3.256-7.915 6.336-.85 2.563.72 5.811 3.7 4.539 1.87-.797 3.792-2.735 5.126-4.735.656-.531.656-.531 1.56-.728 1.162-.265.848.98 1.376 1.464.164-.064.212-.181.283-.34.185-.343.305-.716.354-1.103a7.086 7.086 0 0 1 2.492-1.218c.885-.245 2.172-.216 1.43.948a12.194 12.194 0 0 1-2.244 2.453c-.33.293-1.686 1.67-2.183 1.474-.6-.233-.9.747-.293.967 1.02.372 2.481-1.15 3.129-1.731.957-.864 2.579-2.218 2.801-3.586.251-1.455-1.472-1.691-2.495-1.458zm-10.834 6.17c-1.305.876-2.621 1.136-3.314-.5-.584-1.389.13-2.934.875-4.103 1.374-2.148 3.35-4.082 6.078-3.819.375.021.739.137 1.057.338 1.456 1.025-.603 3.649-1.3 4.618-.505.754-1.95 2.49-3.399 3.466h.003z"/>
            <path fill="#FFC000" d="M85.323 67.333a7.533 7.533 0 0 0-5.372 2.6c-.354.435.211.916.64.661 1.32-.78 2.782-1.745 4.362-1.859a6.049 6.049 0 0 1 1.496.138c.255.044.507.102.755.175.172.056.455.306.318.115.322.454 1.154.265 1.191-.311.077-1.474-2.394-1.524-3.39-1.52z"/>
            <path fill="#603826" d="M66.777 71.651c-1.226 1.259-3.324 2.284-4.875 1.755l-.555.154a2.542 2.542 0 0 0 2.114.664c-.048.184-.074 1.036-.119 1.469a6.397 6.397 0 0 1-.808 2.802c-.648 1.166-1.89 2.358-2.62 3.479-.552.852-1.37 1.614-2.084 2.342a26.472 26.472 0 0 1-2.455 2.234c-.528.45-1.1.845-1.707 1.179-.35.172-.111 1.312-.074 1.593a9.916 9.916 0 0 0 1.524 4.204c1.02 1.469 2.566 2.467 3.964 3.577.698.555 1.456-.48.968-1.118-1.692-2.201-2.841-5.077-2.115-7.882.621-2.374 2.405-4.188 4.073-5.877 2.756-2.791 5.692-5.946 5.02-10.182a.646.646 0 0 0-.25-.393z" opacity=".28" style="mix-blend-mode:multiply"/>
            <path fill="#C40E50" d="M113.506 153.824c-.714-1.062-2.378.035-1.654 1.094.09.131.169.269.237.412-3.36.332-6.667.738-10.06.897-.555.027-.528.893 0 .96 3.3.408 7.064.225 10.306-.752-.018 1.779-2.161 3.186-3.8 3.718-2.114.687-4.394 1.062-6.585 1.487a130.112 130.112 0 0 1-15.12 2.161c-9.358.739-18.858.144-27.843-2.735-15.726-5.046-30.188-18.77-29.892-36.402a29.098 29.098 0 0 1 11.6-22.897c.603-.452 0-1.394-.647-.988-7.206 4.515-11.54 12.877-12.436 21.216-.96 8.92 2.019 17.815 7.4 24.89 12.607 16.603 34.561 20.664 54.172 18.738a139.642 139.642 0 0 0 18.347-3.094c2.156-.507 4.426-1.256 5.766-3.15 1.19-1.67 1.369-3.829.209-5.555z"/>
            <path fill="#C40E50" d="M43.253 107.2a21.414 21.414 0 0 0-1.823 4.749c-.116.457.64.714.793.265.528-1.577 1.094-3.136 1.75-4.663a.402.402 0 0 0-.186-.537.399.399 0 0 0-.534.186zM48.134 133.736c-1.958-2.578-3.49-4.916-4.172-8.145a.482.482 0 1 0-.954.136c.33 3.186 1.913 6.681 4.637 8.498.317.212.74-.16.49-.489zM65.816 148.231c-3.227-1.232-6.155-2.39-8.903-4.56-.51-.403-1.041.399-.571.813 2.542 2.223 5.877 4.185 9.286 4.562a.425.425 0 0 0 .188-.815zM90.664 155.441c-2.128-.366-4.305-.39-6.443-.725a70.406 70.406 0 0 1-6.369-1.328c-.679-.172-.882.829-.243 1.05 3.98 1.365 8.705 2.557 12.949 2.063.557-.064.745-.948.106-1.06zM69.88 198.4c-1.295-1.593-3.121-2.842-4.733-4.082-.669-.515-1.586.37-.93.975 1.53 1.426 3.123 3.06 4.941 4.103.653.374 1.134-.483.722-.996zM75.934 194.278c-.613-.778-1.43-1.25-2.27-1.755-.946-.568-1.89-1.15-2.867-1.668-.671-.353-1.432.67-.793 1.142.848.611 1.728 1.169 2.606 1.734.877.566 1.71 1.177 2.732 1.387.439.09.898-.455.592-.84zM80.947 189.448c-1.472-1.766-3.803-2.56-6.046-2.614-.703-.015-.706 1.132-.032 1.23 2.008.295 3.544 1.118 5.235 2.196.518.33 1.308-.252.843-.812zM85.619 184.391c-.83-.563-1.85-.844-2.775-1.182a30.58 30.58 0 0 0-3.11-1.011c-.629-.152-1.118.756-.486 1.091.962.48 1.949.909 2.957 1.283.999.398 1.992.863 3.062 1.001.669.088.825-.858.352-1.182z"/>
            <path fill="#07174F" d="M155.63 280.286a95.77 95.77 0 0 0-9.356 4.406c.124-.35.172-.722.142-1.091-1.416-19.623-3.274-40.776-16.442-56.458-5.89-7.017-13.448-11.924-22.324-14.171-9.896-2.504-20.237-1.771-30.342-1.979-8.097-.164-16.492-.985-23.846-4.43a52.094 52.094 0 0 1-3.933 1.615c14.11 9.98 33.384 6.194 49.646 8.05 9.212 1.062 17.623 4.294 24.275 10.928 6.078 6.071 10.179 13.935 12.78 22.08 3.596 11.27 4.404 23.219 5.25 34.951a2.158 2.158 0 0 0 1.926 2.106c-.644.375-1.284.76-1.918 1.148.125.092.236.2.33.324.209.265.412.547.61.826 4.572-2.43 9.16-4.78 13.808-7.091.79-.385.203-1.538-.605-1.214z"/>
            <path fill="#C40E50" d="M89.168 179.818c-2.114-.4-4.194-.706-6.292-1.203a.575.575 0 0 0-.388 1.062c1.947 1.002 4.38 1.612 6.572 1.39.681-.067.843-1.108.108-1.249z"/>
            <path fill="#C40E50" d="M96.982 171.07c-2.244-.73-4.757-1.089-7.09-1.463a40.947 40.947 0 0 0 1.763-2.643c.544-.895-.614-1.859-1.282-1.011-2.764 3.526-5.243 7.202-8.234 10.564a105.517 105.517 0 0 1-9.839 9.693c-6.913 5.973-14.534 10.81-22.596 15.045a.67.67 0 0 0-.058 1.147c-7.347-2.655-13.818-6.777-19.257-12.622-6.677-7.17-11.13-16.051-13.344-25.599-4.604-19.851-.63-43.288 11.873-59.583 2.75-3.585 10.192-11.191 13.786-13.924-9.646 7.332-19.048 17.663-23.783 29.053-2.59 6.244-5.55 14.453-4.355 40.298 1.377 11.93 5.261 21.307 13.012 30.759 6.744 8.232 15.115 15.095 23.545 18.462 2.288.916 6.945-4.284 4.492-4.995-1.141-.33-4.725-1.403-5.827-1.796a.59.59 0 0 0 .352-.05 84.197 84.197 0 0 0 5.62-2.82c.004.17.068.332.183.456.719.781 1.509 1.495 2.278 2.228.663.635 1.371 1.482 2.275 1.73.439.119.97-.322.793-.797-.362-.948-1.274-1.578-2.019-2.229-.793-.685-1.562-1.378-2.378-2.015a98.626 98.626 0 0 0 2.55-1.5l.013.036c.793 1.666 2.487 3.58 4.45 3.681a.557.557 0 0 0 .396-.937c-.62-.55-1.358-.932-1.974-1.493a7.387 7.387 0 0 1-1.543-2.023l-.047-.067c4.37-2.778 8.535-5.869 12.462-9.25a109.042 109.042 0 0 0 9.513-9.244c.88-.964 1.773-1.952 2.661-2.959 2.326.733 4.897 1.328 7.312.986.563-.08.529-.988 0-1.097-2.114-.433-4.212-.587-6.3-1.062a70.981 70.981 0 0 0 2.622-3.235c.1.106.23.18.372.212 2.352.595 4.87 1.291 7.286 1.517a.747.747 0 0 0 .317-1.453z"/>
            <path fill="#000B3B" d="M146.398 287.645a50.798 50.798 0 0 0-5.156 2.616c-.64.356-.09 1.498.576 1.169a51.1 51.1 0 0 0 5.08-2.754c.533-.356.102-1.283-.5-1.03zM157.946 284.594c-.79.373-1.554.797-2.289 1.27-.489.318-.11 1.2.452.95.799-.35 1.574-.754 2.32-1.206.537-.324.103-1.298-.483-1.014z"/>
            <path fill="#DBDDDC" d="M84.67 218.17c-1.879-.482-3.63-.123-5.536 0-1.905.121-3.784.18-5.676.156a70.14 70.14 0 0 1-11.305-1.023 72.426 72.426 0 0 1-21.44-7.308c-12.768-6.772-23.05-17.43-29.879-30.177a71.907 71.907 0 0 1-4.777-10.979c-1.3-3.866-2.04-7.855-3.15-11.77-.407-1.44-2.685-1.328-2.674.287.055 7.367 2.78 15.063 5.718 21.726a75.12 75.12 0 0 0 12.124 18.954c7.693 8.83 17.555 15.616 28.4 19.918-2.394 5.147-3.853 10.867-5.629 16.25a5550.333 5550.333 0 0 0-5.314 16.216l-10.893 32.36-2.592 7.933c-.877 2.684-2.394 5.736-2.606 8.554-.185 2.438 2.738 3.399 4.014 1.298 1.406-2.316 1.924-5.526 2.738-8.113.88-2.773 1.754-5.546 2.619-8.32 1.707-5.429 9.008-26.993 10.715-32.419a6839.186 6839.186 0 0 0 5.108-16.284c1.67-5.368 3.787-10.822 4.842-16.36a75.375 75.375 0 0 0 8.85 2.492 77.253 77.253 0 0 0 13.128 1.702 71.1 71.1 0 0 0 6.937-.043c2.262-.122 4.68-.077 6.688-1.216 1.525-.871 1.385-3.375-.41-3.835z"/>
            <path fill="#B2B2B2" d="M186.234 105.408l-10.617 40.367c-.82 3.11-1.488 6.307-2.5 9.356-.957 2.876-2.746 4.249-5.75 4.53-3.153.287-6.409 0-9.57-.053l-10.358-.162c-7.88-.122-15.763-.265-23.643-.183-1.533.016-1.715 2.326-.148 2.417 7.323.42 14.653.642 21.983.873l10.996.346c3.401.106 6.852.39 10.253.25 2.746-.115 5.476-.74 7.4-2.848 2-2.193 2.62-5.242 3.363-8.028 1.919-7.189 3.806-14.386 5.708-21.58l6.369-24.082c.605-2.295-2.878-3.511-3.486-1.203z"/>
            <path fill="#2146AD" d="M121.75 227.993c-1.712 1.697-2.946 4.023-4.33 5.994a391.742 391.742 0 0 1-4.371 6.108 416.417 416.417 0 0 1-9.138 12.054c-6.2 7.877-12.716 15.485-19.442 22.913-3.797 4.194-7.777 8.217-11.532 12.448a1.02 1.02 0 0 0-.264.608c-.962-.953-1.977-1.86-2.952-2.789a304.295 304.295 0 0 0-4.973-4.647c-.809-.733-1.99.43-1.205 1.208a317.287 317.287 0 0 0 5.1 4.89c1.63 1.542 3.216 3.165 5.021 4.485.695.505 1.321-.552.854-1.126a20.227 20.227 0 0 0-.833-.953c.231-.015.45-.108.621-.266 7.531-6.64 14.31-14.306 20.892-21.888a396.18 396.18 0 0 0 26.262-33.762c.82-1.182 1.773-2.345 2.339-3.673.555-1.283-.92-2.73-2.048-1.604z"/>
            <path fill="#F8F8F8" d="M184.739 104.672c-1.25 4.215-2.76 8.058-3.964 12.341-1.205 4.284-8.456 33.377-9.384 36.479-.528 1.732.034 2.767.383 1.69.687-2.126 2.571-9.561 3.243-11.7 1.297-4.15 2.188-8.713 3.414-12.97 1.226-4.257 2.056-8.19 3.219-12.521 1.186-4.428 2.777-8.366 3.765-12.947.307-1.381-.325-1.548-.676-.372z"/>
            <path fill="#FF4AA0" d="M116.537 147.315c-1.72.467-3.367 1.033-5.15 1.23-1.763.195-3.546.119-5.286-.226-.967-.191-1.189 1.266-.264 1.503 3.665.921 8.089.905 11.405-1.126.809-.491.1-1.602-.705-1.381z"/>
            <path fill="#F8F8F8" d="M180.793 107.025l-1.757-2.624c-.388-.581-1.29.016-.904.603l1.734 2.64c.394.59 1.329-.03.927-.619zM179.113 110.015l-2.268-.876c-.6-.231-.962.701-.362.935l2.27.876c.597.231.962-.7.36-.935zM178.338 113.285c-1.057.135-2.098.329-3.144.51-.695.122-.553 1.208.148 1.094 1.057-.168 2.098-.327 3.14-.531.668-.147.543-1.164-.144-1.073z"/>
            <path fill="#603826" d="M80.07 86.21c-.492-.308-1.028-.505-1.478-.885a5.803 5.803 0 0 1-1.125-1.312c-.376-.581-1.338-.109-1.086.55.494 1.29 1.812 2.749 3.276 2.855a.65.65 0 0 0 .412-1.208z" opacity=".28" style="mix-blend-mode:multiply"/>
            <path fill="#07174F" d="M182.146 304.92c-6.12-1.757-22.99-6.79-25.104-12.768 0-5.293-.436-4.265-.444-4.25-.114.049-8.892.596-11.189 3.594-1.979 2.584-1.168 15.501-1.168 15.501 3.309 0 7.836-.02 11.007-.082 4.64-.093 20.95-.186 25.593-.266 1.012-.037 2.302-1.442 1.305-1.728zM83.22 303.898c-5.08-1.665-10.307-4.485-12.809-9.319a66.992 66.992 0 0 1-4.347-5.189c-1.16-1.543-2.143-3.23-3.311-4.78.026-.032.055-.061.08-.093a.506.506 0 0 0-.294-.837c-3.473 2.03-7.135 3.843-10.383 6.153 2.28 4.096 4.606 8.175 6.768 12.326.754.89 1.64 1.66 2.626 2.28 3.412 2.125 8.11 1.685 12.01 1.783 4.208.106 8.412.13 12.614.074.367.053 4.196.46 3.28-.9-.265-.388-.793-.452-1.261-.494a22.259 22.259 0 0 1-4.974-1.004z"/>
        </g>
        <g transform="translate(364)">
            <path fill="#07174F" d="M81.783 322.87c4.241-.04 19.11-.422 23.346-.461 2.892-.027 7.022-.138 10.039-.236 0 0-1.856-16.999-3.749-19.71-2.19-3.14-8.021-.325-8.124-.376 0 0-.44-1.095-.265 4.575-1.734 6.465-17.345 1.952-22.48 14.413a1.297 1.297 0 0 0 1.233 1.795zM62.156 194.487c-10.685 44.23-7.464 107.067-7.464 107.067l9.885 2.363s9.113-56.167 19.377-73.746c10.264-17.58 26.758-68.827 27.492-78.682.734-9.854-17.607-16.129-17.607-16.129l-11.133 7.497s-15.033 28.797-20.55 51.63z"/>
            <path fill="#FF4AA0" d="M118.956 67.674c13.826-13.827 18.447-28.134 11.642-44.186-8.048-18.98-34.805-29.01-51.64-20.306C67.786 8.961 60.732 22.058 58.35 32.014c-1.612 6.738-2.261 23.381 2.362 29.767 5.94 8.22-12.562 13.877-5.522 27.314 5.771 11-4.907 29.11-4.907 29.11s27.792 9.229 53.63-7.356c20.53-13.204 9.107-37.246 15.043-43.175z"/>
            <path fill="#2146AD" d="M137.506 122.093c6.876 32.735-.382 66.149-16.583 107.271-16.624 42.19-7.733 78.117-7.733 78.117l-12.143 1.591s-14.227-63.799-11.87-96.993c2.356-33.193 6.361-52.486 6.361-52.486l41.968-37.5z"/>
            <path fill="#DB0E61" d="M68.367 59.15c.676 2.122.22 4.429-.289 6.54-.53 2.23-1.171 4.442-1.12 6.757.047 2.076.53 4.105 1.083 6.078.647 2.334 1.4 4.66 1.469 7.123.01.386 0 .772-.03 1.156.45 1.826.48 3.73.093 5.57 2.121-2.456 2.121-6.445 1.567-9.518-.827-4.681-3.011-8.826-2.065-13.742.745-3.875 2.457-8.357.244-12.03-1.031-1.71-2.828-2.593-4.013-4.15-1.185-1.556-1.715-3.63-1.824-5.646-.286-5.364 2.144-10.395 2.566-15.699.045-.583-.859-.67-.96-.095-1.256 7.224-6.232 16.627-.607 23.092 1.336 1.544 3.218 2.464 3.886 4.564zM62.973 93.132c-.265-1.472-.923-2.67-1.787-3.888-1.02-1.445-1.434-2.811-1.22-4.556.356-2.938 1.568-5.635 1.342-8.645-.042-.568-.92-.464-.893.093.135 2.938-1.482 5.643-1.856 8.518a7.314 7.314 0 0 0 .356 3.643c.583 1.485 1.82 2.604 2.308 4.135.955 2.994.038 6.603-.421 9.613a50.367 50.367 0 0 1-.994 5.038c-.44 1.716-1.246 3.328-1.652 5.039-.153.647.822 1.02 1.204.506.997-1.347 1.44-3.105 1.871-4.696.44-1.66.786-3.341 1.04-5.039.493-3.105 1.272-6.598.702-9.761zM96.564 51.057a1.342 1.342 0 0 0-.164-.398c-.355-.557-1.13-.67-1.784-.58-2.076.283-3.661 1.917-5.458 2.996-3.202 1.923-6.121.387-7.086-3.037-.5-1.779-.087-4.033-1.182-5.59-.53-.742.427-1.97-.355-2.283-.655-.265.04-.724.212-1.432.146-.6-1.758.19-1.61-.408l1.923-7.69c.641-2.568 1.293-5.13 1.91-7.691.213-.875.94-2.461.61-3.326-.328-.864-1.548-1.747-2.208-2.416-1.102 2.366-4.936 1.64-6.47 3.753-5.567 7.656-7.76 18.372-1.684 26.423 1.355 1.798 3.036 3.352 4.191 5.285 2.301 3.84.422 7.593-.816 11.43-.602 1.87-.377 9.995 2.46 10.594.486.07.982.003 1.434-.19 2.012-.714 3.711-2.096 5.302-3.528 3.067-2.774 5.9-5.863 7.952-9.459 2.052-3.596 3.25-7.74 2.94-11.864a3.555 3.555 0 0 0-.117-.59z"/>
            <path fill="#FFC000" d="M93.903 64.29c-15.545 5.707-18.943 20.75-31.14 37.362C51.44 117.076 41.245 131.9 29.04 134.581l-.552 5.113s13.644 6.247 33.385-5.72c19.74-11.969 35.985-41.919 35.985-41.919L93.903 64.29z"/>
            <path fill="#FFBC85" d="M79.625 25.596c-1.521 5.633-3.854 16.195-5.116 18.073l3.025.644s.44 3.408 4.47 7.441c4.028 4.034 8.747 2.291 10.139 1.647 1.826-.846 1.505-1.047 2.63-.697 2.4.747 1.69 9.812-3.15 12.257-1.553.795-2.72 1.304-3.39 1.97-2.121 2.092-.554 4.121 1.081 4.58 2.455.687 6.534.811 13.175-1.207 7.305-2.225 5.779-6.895 5.779-6.895s-6.24-2.105-6.254-12.922c0-8.049 7.953-9.282 7.444-21.428-.385-9.255-8.324-13.389-14.606-14.1-4.4-.488-12.382.098-15.227 10.637z"/>
            <path fill="#EA9E65" d="M102.208 48.67a33.953 33.953 0 0 1 1.482-4.185c.265-.63-.443-.97-.928-.753-.353 1.488-.795 2.978-1.14 4.477a92.81 92.81 0 0 0-.53 9.417v3.367c.024 2.705-.512 5.402-1.925 7.733a17.788 17.788 0 0 1-1.816 2.453c2.004.555 6.079-.89 7.908-2.05 2.354-1.49 2.892-3.073 3.388-5.404a5.803 5.803 0 0 1-.796-.586c-2.364-1.326-4.008-3.612-4.946-6.068-.732-1.906-.973-4.18-.888-6.213.04-.796-.013-1.395.19-2.188z"/>
            <path fill="#FFF" d="M77.234 95.701c-.17 6.813 6.126 20.303 5.546 33.66-.546 12.613-8.138 27.901-8.138 27.901l65.022 2.973s13.432-49.11-5.249-74.55c-15.61-21.26-28.629-23.798-28.629-23.798s1.172 6.63-9.307 7.887c-10.478 1.257-8.032-3.087-8.032-3.087S77.563 82.455 77.234 95.701z"/>
            <path fill="#DBDDDC" d="M139.632 157.212c-10.48-.51-20.962-.857-31.447-1.042-10.049-.173-20.106-.287-30.14.225.555-1.06 1.042-2.145 1.522-3.182a58.706 58.706 0 0 0 2.29-5.834 60.484 60.484 0 0 0 2.651-12.104c.95-8.31.12-16.726-2.43-24.691-.775-2.419-1.663-4.803-2.468-7.21-.806-2.409-1.326-4.859-1.978-7.299-.143-.53-1-.53-1.023.064-.162 4.118 1.434 8.37 2.65 12.265 1.217 3.896 2.211 7.892 2.704 11.97a59.16 59.16 0 0 1-2.186 24.329 60.383 60.383 0 0 1-2.413 6.526c-.933 2.122-2.173 4.11-3.112 6.23l-.016.04h-.206a1.397 1.397 0 0 0-.244.028c-.197.663-.4 1.326-.56 2a1.28 1.28 0 0 0 1.06.47c21.737-.531 43.3 1.283 65.057 1.545 1.416.016 1.723-4.259.29-4.33z"/>
            <path fill="#FFC000" d="M106.844 61.635c2.63.284 5.7 1.042 18.248 10.515 12.067 9.104 33.456 51.794 7.062 78.528-20.64 20.902-38.909 24.095-38.909 24.095l-9.05-2.09s25.66-14.996 34.53-32.785c13.355-26.784-.371-49.27-.371-49.27s-6.752-9.926-8.326-13.564c-1.596-3.686-3.184-15.429-3.184-15.429z"/>
            <path fill="#FF4AA0" d="M76.463 21.878c7.746 11.597 17.949 14.896 26.243 16.667 8.295 1.772 2.556 7.425 2.556 7.425s19.88-10.188 8.1-24.962C101.582 6.235 96.116 4.036 89.505 8.197c-6.611 4.16-10.465 6.396-11.205 9.873-.244 1.183-1.837 3.808-1.837 3.808z"/>
            <path fill="#FFBC85" d="M28.812 134.753c-1.395-1.477-3.483-1.119-5.233-1.984a18.484 18.484 0 0 0-4.986-1.59 16.429 16.429 0 0 0-8.305.596.849.849 0 0 0-.363.53c.392.971 1.373 1.146 2.505 1.149.93.023 1.88-.083 2.791-.043.14 0 .264.094.3.23h.143a.462.462 0 0 1-.387.616c-1.448.194-2.9.35-4.353.507-1.386.153-2.77.379-4.164.41-.796.017-1.612 0-2.413-.047-.943-.064-1.919-.316-2.857-.188a.604.604 0 0 0-.265 1.113c1.51.982 3.825 1.048 5.566 1.109 1.15.04 2.303-.005 3.446-.135.019.095.035.066.053.161a30.128 30.128 0 0 1-3.544.297c-1.97.038-3.822-.177-5.784-.201-.546 0-.795.888-.265 1.12 1.92.832 3.976.824 5.983.911 1.307.059 2.805-.093 4.146-.161 0 .029.162.212.172.24-.991.136-2.385.21-3.38.242a43.456 43.456 0 0 1-6.749-.334c-.53-.064-.943.796-.344 1.032 2.24.883 4.554.859 6.974.864 1.251 0 2.603-.23 3.847-.366.1 0 .103.265.204.265.018.04.034.083.053.125-.708.126-1.422.215-2.14.265-1.659.082-3.252.223-4.904.204-.628 0-.562.923-.047 1.082 1.553.475 3.268.53 4.88.53 3.03 0 6.023-.652 8.915-1.572 2.725-.867 6.293-2.713 9.209-2.487.508.04.185-.122.437-.53.399-.653.539-1.43.392-2.18.178-.01.355-.03.53-.062 0 0 .064-1.585-.063-1.718z"/>
            <path fill="#DB0E61" d="M102.454 55.072c.318 1.04.915 2.9 1.344 3.898-.286-4.468 1.326-9.86 2.892-14.055-1.039 0-1.932-.613-2.977-.854a35.252 35.252 0 0 0-1.725 6.304c.018 1.753-.024 3.11.466 4.707zM102.852 35.968a34.85 34.85 0 0 1-19.221-7.932c-5.037-4.227-9.4-9.39-11.696-15.381-.238-.62-.135-.637 0 0 2.945 13.989 16.59 24.132 30.731 25.598 1.511.146 1.702-2.15.186-2.285z"/>
            <ellipse cx="106.628" cy="39.546" fill="#FFBC85" rx="5.349" ry="5.495" transform="rotate(-77.96 106.628 39.546)"/>
            <path fill="#E09220" d="M86.719 70.01c-3.801 3.535-8.798 12.976-9.697 18.613-1.134 7.142-1.015 11.38-1.672 18.548-.602 6.563-3.372 12.143-8.26 16.659-4.507 4.158-10.103 7.269-15.72 9.775-6.86 3.06-14.529 5.057-22.102 3.744a21.271 21.271 0 0 0-.085-2.535c-.09-.936-1.538-1.291-1.795-.25a20.971 20.971 0 0 0-.355 2.446c-.103.846-.265 1.724-.225 2.575.053.896 1.18 1.342 1.808.91 8.1 3.476 17.389 2.293 25.145-1.496 3.258-1.591 15.282-10.046 16.223-11.019 3.23-2.737 3.926-3.962 6.718-7.16 2.666-3.058 4.771-5.02 4.212-7.61-.499-2.284-2.344-7.763-2.82-10.046a45.171 45.171 0 0 1-.86-7.444c-.089-2.92.394-5.83 1.421-8.566 1.943-5.166 4.443-12.96 8.064-17.144z"/>
            <path fill="#EA9E65" d="M109.407 39.1c-.108-1.088-1.325-1.844-2.364-1.944a2.56 2.56 0 0 0-2.609 1.463c-.209.51.48 1.109.936.703.302-.306.677-.53 1.09-.65a2.186 2.186 0 0 1-.51 1.645c-.352.424-.86.657-1.253 1.042-.265.265 0 .75.34.795 1.635.178 2.573-1.771 2.504-3.2.218.185.395.427.618.647.474.461 1.32.23 1.248-.502z"/>
            <path fill="#EA9E65" d="M85.58 38.02c-2.628-.323-2.97 2.543-2.013 4.667l.016.038.064.132c.556 1.175 1.532 2.122 2.69 2.175 3.68.146 2.264-6.638-.758-7.012z" opacity=".6"/>
            <path fill="#EA9E65" d="M26.744 139.06c.013-.122.041-.24.082-.356-3.562-.347-7.258 1.202-10.468 2.575-.463.2-.928.388-1.394.565-.697.21-1.394.427-2.084.658l-.06.026a12.19 12.19 0 0 1-2.747.409c-2.044.05-4.021-.451-6.046-.618-.265-.019-.088.384.143.459 1.44.479 2.936.771 4.45.87.757.045 1.517.034 2.272-.032 2.972-.266 5.832-1.037 8.708-1.857 2.227-.628 4.446-1.291 6.672-1.92l.135-.037c.098-.01.197-.01.295 0 .008-.262.018-.506.042-.742z"/>
            <path fill="#E09220" d="M129.864 117.306c-.4-11.063-5.387-22.636-13.52-30.496 5.901 8.852 8.96 19.438 8.536 29.966-.567 14.005-7.687 26.45-16.604 37.023-1.917 2.27-3.497 3.365-5.644 5.394-1.935 1.416-4.393 3.805-6.423 5.089-2.03 1.283-4.12 2.368-6.195 3.53-.477.291-.96.572-1.455.832l-.125.074h-.013c-.122.064-.244.122-.366.183 1.193 1.162 2.985 3.286 3.253 4.808.201.502.355 1.032.53 1.591.355 1.173 2.237.923 2.181-.323-.09-2.008-1.561-4.15-3.446-5.365a638.512 638.512 0 0 0 8.454-4.842c2.163-1.257 17.962-13.448 22.097-19.486 5.678-8.298 9.103-17.89 8.74-27.978zM104.132 61.282a11.552 11.552 0 0 1-6.221 6.697 11.956 11.956 0 0 1-4.607 1.031c-.878.019-1.84-.034-2.651-.392-1.145-.504-1.28-1.247-1.646-2.286a.795.795 0 0 0-1.458-.077c-.973 1.93 1.081 3.887 2.812 4.508 2.12.758 4.58.57 6.717 0 4.27-1.143 7.905-4.325 9.437-8.375.578-1.538-1.834-2.652-2.383-1.106z"/>
            <path fill="#DB0E61" d="M85.28 33.565c-1.644-1.872-4.57-2.917-6.99-2.405-.398.085-.305.71.074.766 1.094.165 2.165.292 3.204.71 1.04.42 1.877 1.09 2.773 1.759.546.408 1.445-.25.939-.83z"/>
            <path fill="#07174F" d="M34.845 315.84c3.862-.127 17.427-.796 21.289-.923 2.65-.085 6.404-.265 9.156-.432 0 0 .18-13.106-1.564-15.625-2.023-2.917-8.242-3.066-8.337-3.11l-1.31 4.327c-1.524 6.147-15.759 3.827-20.38 14.095-.415.933.311 1.708 1.146 1.668z"/>
            <path fill="#FF4AA0" d="M113.765 59.44a34.671 34.671 0 0 1 .088-5.936c.058-.53-.753-.594-.843-.076-.36 2.039-.441 4.117-.241 6.178.066.637 1.039.457.996-.167zM49.668 99.711c.26 1.127.406 2.278.435 3.434 1.36-2.015 1.257-4.752.29-6.953-.34-.772-1.52-.22-1.199.549.401.935.564 1.956.474 2.97z"/>
            <path fill="#DB0E61" d="M110.881 33.536c-.795-3.13-4.04-4.872-6.86-6.012-3.383-1.371-8.38-2.792-8.79-7.06-.082-.856-1.448-.885-1.39 0 .231 3.472 3.076 5.787 6.098 7.182 3.692 1.697 7.608 2.61 9.543 6.473.39.78 1.6.212 1.4-.583z"/>
            <path fill="#FFC000" d="M31.852 129.82c-1.021.011-2.039-.13-3.019-.418h-.938c-.626 0-.941.946-.247 1.124 1.876.458 3.85.29 5.622-.477a8.612 8.612 0 0 1-1.418-.228zM138.495 82.474c-.573-.512-1.45.193-.936.795a14.225 14.225 0 0 1 3.096 6.6c.128.645 1.217.598 1.21-.097a9.901 9.901 0 0 0-3.37-7.298z"/>
            <path fill="#EA9E65" d="M85.356 45.756c-1.166 1.06-2.467 1.57-3.933 2.081-.363.125-.157.621.177.602 1.59-.087 3.139-.965 4.348-1.938.469-.387-.157-1.154-.592-.745z"/>
            <path fill="#FFF" d="M109.328 42.613c-.795-.342-1.214.743-.817 1.27.809 1.077 1.641 2.019 1.21 3.482-.412 1.398-1.95 2.329-3.402 2.159a3.126 3.126 0 0 1-2.706-2.668c-.18-1.554.853-2.68 2.102-3.468.554-.35.302-1.25-.406-1.096-5.012 1.085-3.907 8.42.822 8.953 2.14.241 4.384-1.06 5.161-3.042.777-1.98.085-4.712-1.964-5.59z"/>
        </g>
        <path fill="#FFBC85" d="M456.697 173.638c-.38-1.207-1.379-2.098-2.317-2.904a24.21 24.21 0 0 0-2.068-1.703c-3.53.796-5.36 2.122-8.983 2.016-4.79-.133-11.418 5.611-12.677 6.348 6.765.926 7.39-.23 10.77.114 1.78.18 5.976.13 7.76.213a15.992 15.992 0 0 0 4.726-.581c2.903-.9 3.046-2.681 2.789-3.503z"/>
        <path fill="#EA9E65" d="M383.21 138.27a9.77 9.77 0 0 1-2.075-2.973c-.247-.568-.369-1.326-.82-1.759-.5-.477-1.075-.355-1.696-.36-1.224 0-2.359-.342-3.552-.589-.22-.045-.307.281-.15.459.53.623 1.486.636 2.29.795.983.186 2.367-.114 2.762.796.336.77.572 1.591 1.028 2.315a8.615 8.615 0 0 0 1.705 1.941c.33.263.824-.307.509-.626z"/>
        <g fill="#07174F">
            <path d="M484.915 175.886c-.756 2.164-1.59 4.442-1.951 6.715-.12.77 1.012 1.06 1.306.342.88-2.121 1.344-4.508 1.827-6.746.146-.68-.954-.968-1.182-.31zM481.27 190.048c-.666 1.824-1.59 3.736-1.856 5.67a.532.532 0 0 0 1.007.339c.944-1.71 1.363-3.787 1.925-5.646.183-.61-.854-.97-1.076-.363zM477.068 204.935c-.212.958-.453 1.91-.578 2.883-.085.668.867.78 1.018.146.228-.955.34-1.928.48-2.899.085-.604-.798-.705-.92-.13zM474.661 215.09c-.575 2.169-1.535 4.685-1.495 6.947a.634.634 0 0 0 1.228.228c.88-2.084.925-4.773 1.2-7.003.067-.533-.79-.695-.933-.173zM471.52 228.089c-.016-.761-1.156-.698-1.174.05-.05 2.17-.316 4.413 0 6.572.085.615 1.06.82 1.174.098.302-2.21.048-4.498 0-6.72zM468.845 244.165c-.084 1.045-.236 2.105-.17 3.153.035.53.817.623.931.09.23-1.06.239-2.193.31-3.283.048-.682-1.015-.64-1.07.04zM468.225 254.152c.03-.624-.87-.658-.957-.056-.246 1.71-1.076 3.946-.53 5.64.114.348.641.573.864.173.912-1.615.536-3.973.623-5.757zM467.687 266.57c-.265-.59-1.188-.291-.96.33.631 1.72.53 3.354.777 5.12a.488.488 0 0 0 .962.069c.557-1.763-.069-3.88-.78-5.519zM468.93 280.199c-.199-.488-1.06-.226-.888.289.493 1.575.403 3.108.53 4.728.037.461.737.475.878.071.583-1.665.124-3.505-.52-5.088zM470.5 289.798c-.075-.824-1.305-.697-1.27.12.047 1.23-.056 2.636.358 3.81a.557.557 0 0 0 1.06-.1c.257-1.215-.037-2.61-.149-3.83zM472.058 298.194c-.413-.901-1.779-.22-1.376.682.62 1.392.758 2.835.82 4.344.026.673 1.081 1.036 1.27.265.442-1.822.058-3.62-.714-5.29zM481.845 173.964c-1.503-.843-2.823-1.798-3.902-3.166-1.079-1.369-1.625-2.883-2.221-4.509-.342-.938-1.652-.387-1.59.488.315 3.808 3.37 7.444 6.684 9.094 1.108.535 2.108-1.308 1.029-1.907zM489.384 158.373c-.369 1.284-.657 2.597-.928 3.907-.19.933 1.246 1.288 1.437.355.265-1.326.53-2.639.686-3.978.101-.76-.967-1.066-1.195-.284zM492.459 158.392a46.513 46.513 0 0 0-.896 6.288c-.072.949 1.325 1.273 1.495.283.395-2.145.641-4.315.737-6.494.032-.785-1.177-.798-1.336-.077z"/>
        </g>
        <g>
            <path fill="#DBDDDC" d="M441.044 177.249h-39.5c-2.716.248-5.457.203-8.188.203-4.266 0-8.532.265-12.792.429-15.531.616-31.009.33-46.542.066-7.799-.132-15.595-.072-23.393-.154-3.533-.037-7.065-.156-10.585-.203a54.246 54.246 0 0 1-6.21-.341h-121.1l3.68 5.76h268.128a3.938 3.938 0 0 0-3.498-5.76z"/>
            <path fill="#B2B2B2" d="M444.86 181.604c-8.87-.227-86.435-1.975-104.207-1.587-35.573.754-71.155 1.264-106.73.487-19.95-.436-39.88-.14-59.824-.875-.934-.035-.588 3.644 4.93 3.829 11.627.386 20.111.153 28.667-.019-4.936 17.909-10.056 35.754-15.77 53.419a950.173 950.173 0 0 1-18.695 52.453 1076.947 1076.947 0 0 1-10.238 25.324 1.35 1.35 0 0 0-1.003 1.073c-.225.966-.458 1.93-.678 2.91v.018l-.114.492c-.5 2.282 2.999 2.795 3.822.84a962.213 962.213 0 0 0 20.19-52.164c6.182-17.504 11.909-35.172 17-53.033 2.91-10.147 5.695-20.333 8.156-30.597a1.496 1.496 0 0 0-.022-.793c5.293-.092 10.77-.137 17.145.032 17.786.468 35.571.6 53.36.529 35.567-.151 72.893 1.378 108.455.566 3.028-.07 8.437-.037 14.774.018 1.572 9.068 3.914 18.057 5.994 27.014a2216.107 2216.107 0 0 0 6.703 28.031 2375.128 2375.128 0 0 0 21.038 79.31c.754 2.645 1.386 5.385 2.44 7.934.793 1.928 4.043 1.278 3.651-.91-.844-4.728-2.57-9.377-3.903-13.991a2352.305 2352.305 0 0 1-11.604-41.518 2434.82 2434.82 0 0 1-14.43-56.193 2107.493 2107.493 0 0 1-3.776-15.672c-1.106-4.657-2.117-9.358-3.363-13.984 14.133.135 31.63.336 38.124-.127 1.294-.1 1.186-2.784-.093-2.816z"/>
        </g>
    </g>
</svg>
