<?xml version="1.0" encoding="UTF-8"?>
<!DOCTYPE svg PUBLIC "-//W3C//DTD SVG 1.1//EN" "http://www.w3.org/Graphics/SVG/1.1/DTD/svg11.dtd">
<svg version="1.1" xmlns="http://www.w3.org/2000/svg" xmlns:xlink="http://www.w3.org/1999/xlink" x="0" y="0" width="768" height="768" viewBox="0, 0, 768, 768">
  <symbol id="icon" viewBox="0 0 768 768" xml:space="preserve">
    <g id="Layer_1">
      <path d="M383.766,767 L51.531,575.185 L51.531,191.553 L383.766,-0.262 L716,191.553 L716,575.184 z"/>
      <path d="M227,384 C227,417.413 199.913,444.5 166.5,444.5 C133.087,444.5 106,417.413 106,384 C106,350.587 133.087,323.5 166.5,323.5 C199.913,323.5 227,350.587 227,384 z" fill="#FFFFFF"/>
      <path d="M445,384 C445,417.413 417.913,444.5 384.5,444.5 C351.087,444.5 324,417.413 324,384 C324,350.587 351.087,323.5 384.5,323.5 C417.913,323.5 445,350.587 445,384 z" fill="#FFFFFF"/>
      <path d="M662,384 C662,417.413 634.913,444.5 601.5,444.5 C568.087,444.5 541,417.413 541,384 C541,350.587 568.087,323.5 601.5,323.5 C634.913,323.5 662,350.587 662,384 z" fill="#FFFFFF"/>
    </g>
  </symbol>
</svg>
