<?xml version="1.0" encoding="utf-8"?>
<!-- Generator: Adobe Illustrator 22.0.0, SVG Export Plug-In . SVG Version: 6.00 Build 0)  -->
<svg version="1.1" id="Layer_1" xmlns="http://www.w3.org/2000/svg" xmlns:xlink="http://www.w3.org/1999/xlink" x="0px" y="0px"
	 viewBox="0 0 20 20" style="enable-background:new 0 0 20 20;" xml:space="preserve">
<style type="text/css">
	.st0{fill:#FFFFFF;}
	.st1{fill:#3D7830;}
	.st2{fill:#020203;}
</style>
<g>
	<polygon class="st0" points="2.1,14.6 2.1,5.4 10,0.9 17.9,5.4 17.9,14.6 10,19.1 	"/>
	<path class="st1" d="M10,1.7l7.2,4.1v8.3L10,18.3l-7.2-4.1V5.9L10,1.7 M10,0L1.3,5v10l8.7,5l8.7-5V5L10,0L10,0z"/>
</g>
<path class="st2" d="M14,13l-3.1-3l3-3.1L13,6l-3,3.1L6.9,6L6,7l3.1,3l-3,3.1L7,14l3-3.1l3.1,3L14,13z"/>
</svg>
