<?xml version="1.0" encoding="utf-8"?>
<!-- Generator: Adobe Illustrator 22.0.0, SVG Export Plug-In . SVG Version: 6.00 Build 0)  -->
<svg version="1.1" xmlns="http://www.w3.org/2000/svg" xmlns:xlink="http://www.w3.org/1999/xlink" x="0px" y="0px"
	 viewBox="0 0 120 120" style="enable-background:new 0 0 120 120;" xml:space="preserve">
<style type="text/css">
	.st0{fill:#010202;}
	.st1{fill:#FFFFFF;}
</style>
<g id="hexagon">
	<polyline class="st0" points="8,90 60,120 112,90 112,30 60,0 8,30 	"/>
</g>
<g id="icon">
	<g>
		<path class="st1" d="M84.5,38.9c0.5,0.5,0.8,1.2,0.8,1.9v1.4c0,0.4-0.1,0.7-0.4,1c-0.3,0.3-0.6,0.4-1,0.4h-2.3v37.9
			c0,1.5-0.5,2.8-1.6,3.8c-1.1,1.1-2.3,1.6-3.8,1.6H43.7c-1.5,0-2.8-0.5-3.8-1.6c-1.1-1.1-1.6-2.3-1.6-3.8V43.5h-2.3
			c-0.4,0-0.7-0.1-1-0.4c-0.3-0.3-0.4-0.6-0.4-1v-1.4c0-0.8,0.3-1.4,0.8-1.9s1.2-0.8,1.9-0.8h8.4l3.8-6.4c0.5-0.8,1.2-1.5,2-1.9
			c0.8-0.5,1.7-0.7,2.7-0.7h11.3c1,0,1.9,0.2,2.7,0.7c0.8,0.5,1.5,1.1,2,1.9l3.8,6.4h8.4C83.3,38.1,84,38.4,84.5,38.9z M43.7,43.5
			v37.3c0,0.2,0.1,0.3,0.2,0.5c0.2,0.2,0.3,0.2,0.5,0.2h31.2c0.2,0,0.3-0.1,0.5-0.2c0.2-0.2,0.2-0.3,0.2-0.5V43.5H43.7z M56.4,74.7
			c0,0.4-0.1,0.7-0.4,1c-0.3,0.3-0.6,0.4-1,0.4h-2.7c-0.4,0-0.7-0.1-1-0.4c-0.3-0.3-0.4-0.6-0.4-1V50.3c0-0.4,0.1-0.7,0.4-1
			c0.3-0.3,0.6-0.4,1-0.4H55c0.4,0,0.7,0.1,1,0.4c0.3,0.3,0.4,0.6,0.4,1V74.7z M67.9,38.1l-2-3.3c-0.2-0.2-0.3-0.3-0.6-0.3H54.7
			c-0.2,0-0.4,0.1-0.6,0.3l-2,3.3H67.9z M65,49c-0.4,0-0.7,0.1-1,0.4c-0.3,0.3-0.4,0.6-0.4,1v24.4c0,0.4,0.1,0.7,0.4,1
			c0.3,0.3,0.6,0.4,1,0.4h2.7c0.4,0,0.7-0.1,1-0.4c0.3-0.3,0.4-0.6,0.4-1V50.3c0-0.4-0.1-0.7-0.4-1c-0.3-0.3-0.6-0.4-1-0.4H65z"/>
	</g>
</g>
</svg>
