<?xml version="1.0" encoding="utf-8"?>
<!-- Generator: Adobe Illustrator 24.0.1, SVG Export Plug-In . SVG Version: 6.00 Build 0)  -->
<svg version="1.1" id="Layer_1" xmlns="http://www.w3.org/2000/svg" xmlns:xlink="http://www.w3.org/1999/xlink" x="0px" y="0px"
	 viewBox="0 0 120 120" style="enable-background:new 0 0 120 120;" xml:space="preserve">
<style type="text/css">
	.st0{fill:#FFC000;}
</style>
<g id="hexagon">
	<polyline class="st0" points="8,90 60,120 112,90 112,30 60,0 8,30 	"/>
</g>
<g>
	<g>
		<path d="M61,36.3c5.2,0,9.1,0.9,11.7,2.7s3.8,4.6,3.8,8.5c0,2.1-0.4,3.9-1.3,5.5c-0.8,1.5-1.9,2.9-3.1,4.2
			c-1.2,1.3-2.5,2.6-3.7,3.9c-1.3,1.3-2.4,2.8-3.3,4.5c-0.9,1.7-1.5,3.8-1.7,6.2h-8.6c-0.1-2.5,0.2-4.8,0.8-6.7
			c0.6-1.9,1.5-3.6,2.5-5c1-1.4,2.1-2.7,3.1-3.9c1.1-1.2,2-2.3,2.7-3.3c0.7-1.1,1.2-2.1,1.3-3.2c0.1-1.7-0.3-2.9-1.4-3.6
			c-1.1-0.7-2.8-1.1-5.3-1.1c-2.4,0-4.4,0-5.9,0c-1.6,0-3,0.1-4.2,0.1c-1.3,0.1-2.7,0.1-4.4,0.2l-0.4-7.1c1.3-0.3,2.6-0.5,3.7-0.7
			c1.1-0.2,2.3-0.4,3.5-0.5c1.2-0.2,2.6-0.3,4.2-0.4C56.6,36.3,58.6,36.3,61,36.3z M60.3,76.6c1.4,0,2.4,0.3,2.9,0.8
			c0.5,0.6,0.8,1.5,0.8,2.9v3.5c0,1.4-0.3,2.4-0.8,2.9c-0.5,0.6-1.5,0.8-2.9,0.8h-2.6c-1.4,0-2.4-0.3-2.9-0.8
			c-0.5-0.6-0.8-1.5-0.8-2.9v-3.5c0-1.4,0.3-2.4,0.8-2.9c0.5-0.6,1.5-0.8,2.9-0.8H60.3z"/>
	</g>
</g>
</svg>
