<?xml version="1.0" encoding="UTF-8"?>
<svg width="40px" height="41px" viewBox="0 0 40 41" version="1.1" xmlns="http://www.w3.org/2000/svg" xmlns:xlink="http://www.w3.org/1999/xlink">
    <!-- Generator: Sketch 53.2 (72643) - https://sketchapp.com -->
    <title>003-instagram-logo-in-circular-button-outlined-social-symbol copy 2</title>
    <desc>Created with Sketch.</desc>
    <g id="Symbols" stroke="none" stroke-width="1" fill="none" fill-rule="evenodd">
        <g id="Footer/Desktop" transform="translate(-903.000000, -123.000000)" fill-rule="nonzero">
            <g id="Footer">
                <g id="Social-buttons" transform="translate(764.000000, 123.735930)">
                    <g id="003-instagram-logo-in-circular-button-outlined-social-symbol-copy-2" transform="translate(140.500000, 0.831828)">
                        <path d="M37.4322419,18.8855618 C37.4322419,8.5491253 29.0524963,0.169440863 18.716121,0.169440863 C8.37968444,0.169440863 0,8.5491253 0,18.8855618 C0,29.2219372 8.37968444,37.6016828 18.716121,37.6016828 C29.0524963,37.6016828 37.4322419,29.2219372 37.4322419,18.8855618 Z" id="Path" stroke="#E0DDE0" stroke-width="2"></path>
                        <path d="M18.716121,9.38953944 C21.653121,9.38953944 22.0014543,9.40053944 23.1619543,9.45370611 C26.1429543,9.58937278 27.535371,11.0037894 27.6710376,13.9627894 C27.7242043,15.1223728 27.7342876,15.4707061 27.7342876,18.4077061 C27.7342876,21.3456228 27.7232876,21.6930394 27.6710376,22.8526228 C27.5344543,25.8088728 26.1457043,27.2260394 23.1619543,27.3617061 C22.0014543,27.4148728 21.6549543,27.4258728 18.716121,27.4258728 C15.779121,27.4258728 15.4307876,27.4148728 14.2712043,27.3617061 C11.282871,27.2251228 9.89778764,25.8042894 9.76212097,22.8517061 C9.70895431,21.6921228 9.69795431,21.3447061 9.69795431,18.4067894 C9.69795431,15.4697894 9.70987097,15.1223728 9.76212097,13.9618728 C9.89870431,11.0037894 11.2874543,9.58845611 14.2712043,9.45278944 C15.4317043,9.40053944 15.779121,9.38953944 18.716121,9.38953944 L18.716121,9.38953944 Z M18.716121,7.40678944 C15.7287043,7.40678944 15.3547043,7.41962278 14.181371,7.47278944 C10.1865376,7.65612278 7.96637097,9.87262278 7.78303764,13.8711228 C7.72895431,15.0453728 7.71612097,15.4193728 7.71612097,18.4067894 C7.71612097,21.3942061 7.72895431,21.7691228 7.78212097,22.9424561 C7.96545431,26.9372894 10.1819543,29.1574561 14.1804543,29.3407894 C15.3547043,29.3939561 15.7287043,29.4067894 18.716121,29.4067894 C21.7035376,29.4067894 22.0784543,29.3939561 23.2517876,29.3407894 C27.2429543,29.1574561 29.468621,26.9409561 29.6492043,22.9424561 C29.7032876,21.7691228 29.716121,21.3942061 29.716121,18.4067894 C29.716121,15.4193728 29.7032876,15.0453728 29.650121,13.8720394 C29.4704543,9.88087278 27.2512043,7.65703944 23.2527043,7.47370611 C22.0784543,7.41962278 21.7035376,7.40678944 18.716121,7.40678944 Z M18.716121,12.7582894 C15.5967043,12.7582894 13.067621,15.2873728 13.067621,18.4067894 C13.067621,21.5262061 15.5967043,24.0562061 18.716121,24.0562061 C21.8355376,24.0562061 24.364621,21.5271228 24.364621,18.4067894 C24.364621,15.2873728 21.8355376,12.7582894 18.716121,12.7582894 Z M18.716121,22.0734561 C16.6912043,22.0734561 15.0494543,20.4326228 15.0494543,18.4067894 C15.0494543,16.3818728 16.6912043,14.7401228 18.716121,14.7401228 C20.7410376,14.7401228 22.3827876,16.3818728 22.3827876,18.4067894 C22.3827876,20.4326228 20.7410376,22.0734561 18.716121,22.0734561 Z M24.5882876,11.2155394 C23.858621,11.2155394 23.267371,11.8067894 23.267371,12.5355394 C23.267371,13.2642894 23.858621,13.8555394 24.5882876,13.8555394 C25.3170376,13.8555394 25.907371,13.2642894 25.907371,12.5355394 C25.907371,11.8067894 25.3170376,11.2155394 24.5882876,11.2155394 Z" id="Shape" fill="#E0DDE0"></path>
                    </g>
                </g>
            </g>
        </g>
    </g>
</svg>