<svg width="34" height="34" viewBox="0 0 34 34" fill="none" xmlns="http://www.w3.org/2000/svg">
<path d="M16.9469 6.01176C12.4639 6.01176 8.20687 5.61176 6.57987 9.78376C5.90787 11.5058 6.00487 13.7428 6.00487 16.9458C6.00487 19.7568 5.91587 22.3978 6.57987 24.1068C8.20287 28.2798 12.4949 27.8798 16.9449 27.8798C21.2379 27.8798 25.6649 28.3268 27.3109 24.1068C27.9829 22.3668 27.8849 20.1638 27.8849 16.9458C27.8849 12.6748 28.1209 9.91676 26.0479 7.84576C23.9479 5.74576 21.1099 6.01076 16.9429 6.01076L16.9469 6.01176ZM15.9659 7.98176C25.3189 7.96676 26.5089 6.92776 25.8519 21.3598C25.6189 26.4598 21.7289 25.9038 16.9519 25.9038C8.23387 25.9038 7.98287 25.6548 7.98287 16.9398C7.98287 8.12376 8.67387 7.98576 15.9689 7.97876L15.9659 7.98176ZM22.7869 9.79676C22.5274 9.79696 22.2739 9.87408 22.0582 10.0184C21.8426 10.1626 21.6746 10.3676 21.5755 10.6074C21.4763 10.8471 21.4505 11.1109 21.5012 11.3653C21.5519 11.6198 21.677 11.8535 21.8605 12.0368C22.044 12.2202 22.2778 12.3451 22.5323 12.3956C22.7867 12.4462 23.0505 12.4201 23.2902 12.3208C23.5299 12.2215 23.7347 12.0533 23.8788 11.8376C24.023 11.6218 24.0999 11.3682 24.0999 11.1088C24.0985 10.7616 23.9598 10.429 23.7139 10.1839C23.468 9.93879 23.1351 9.80102 22.7879 9.80076L22.7869 9.79676ZM16.9459 11.3308C15.8357 11.3314 14.7506 11.6611 13.8278 12.2783C12.905 12.8955 12.1859 13.7724 11.7614 14.7982C11.337 15.824 11.2262 16.9527 11.443 18.0415C11.6599 19.1303 12.1947 20.1303 12.9799 20.9152C13.765 21.7 14.7653 22.2345 15.8541 22.451C16.943 22.6675 18.0716 22.5563 19.0973 22.1314C20.1229 21.7066 20.9996 20.9872 21.6165 20.0641C22.2333 19.1411 22.5627 18.0559 22.5629 16.9458C22.5626 15.4564 21.9708 14.0281 20.9177 12.9749C19.8645 11.9218 18.4362 11.33 16.9469 11.3298L16.9459 11.3308ZM16.9459 13.3008C21.7679 13.3008 21.7739 20.5898 16.9459 20.5898C12.1179 20.5898 12.1179 13.3008 16.9459 13.3008Z" fill="white"/>
<rect x="1" y="1" width="32" height="32" rx="4" stroke="white" stroke-width="2"/>
</svg>