<svg width="283" height="96" viewBox="0 0 283 96" fill="none" xmlns="http://www.w3.org/2000/svg">
<g clip-path="url(#clip0_17_930)">
<path d="M0 0.0654297V64.0218L31.8717 96H95.615V64.0218H31.8717V0.0654297H0ZM63.7433 0.0654297H31.8717L63.7433 32.0436H95.615V0.0654297H63.7433Z" fill="#120540"/>
<path d="M0.225342 0V63.7064L31.9724 95.5596H95.4665V63.7064H31.9724V0H0.225342ZM63.7195 0H31.9724L63.7195 31.8532H95.4665V0H63.7195Z" fill="#120540"/>
<path d="M22.1138 85.6739L23.4543 87.019L31.9724 78.4724V78.1689H46.3749L45.6749 77.4666H31.9724V75.7942L22.1138 85.6858V85.6739ZM0.302455 63.7064L0.266865 63.7421L1.26934 64.7479L2.30741 63.7064H0.302455ZM4.67421 63.7064L2.44977 65.9383L3.48191 66.9739L6.73848 63.7064H4.66827H4.67421ZM9.04596 63.7064L4.63862 68.1285L5.70634 69.1998L11.1814 63.7064H9.04596ZM13.4177 63.7064L6.82153 70.3246L7.92484 71.4316L15.6184 63.7124H13.4177V63.7064ZM17.7895 63.7064L9.01037 72.5148L10.1433 73.6516L20.0554 63.7064H17.7835H17.7895ZM22.1612 63.7064L11.1992 74.705L12.3678 75.8775L24.4983 63.7064H22.1612ZM26.533 63.7064L13.3821 76.9012L14.5863 78.1094L28.9353 63.7064H26.533ZM63.7314 63.7064H30.9047L15.571 79.0914L16.8048 80.3294L31.9843 65.0991V63.7005L32.6368 64.3551H63.7314H64.3839L64.9178 64.8908H63.7314V64.4504H32.7317L33.9477 65.6704H31.9843V66.5513H34.8256L35.4841 67.2119H63.7314H67.2312L67.8125 67.7952H63.7373V67.3548H35.6324L36.8899 68.6165H31.9902V67.0096L17.7657 81.2816L19.0351 82.5553L31.9902 69.5509V69.4497H37.7204L38.3373 70.0687H63.7373H70.0844L70.7072 70.6936H63.7373V70.2532H38.5212L39.8202 71.5566H31.9843V71.39L19.9427 83.4718L21.2477 84.7812L31.9843 74.0087V72.3541H40.6092L41.1846 72.9315H63.7373H72.9317L73.602 73.598H63.7373V73.1576H41.4159L42.7565 74.5086H31.9902V75.2585H43.5039L44.0378 75.7942H63.7433H75.7849L76.4967 76.5084H63.7433V76.068H44.3106L46.885 78.651H63.7433H78.6321L79.3855 79.4068H63.7373V78.9664H47.1994L48.629 80.4008H31.9902V80.1687L24.3204 87.8641L25.6906 89.239L31.9902 82.9183V81.0614H49.2874L49.7323 81.5078H63.7373H81.4735L82.2743 82.3112H63.7373V81.8708H50.0882L51.5593 83.3468H31.9843V83.9599H52.1703L52.5737 84.3646H63.7314H84.3207L85.1631 85.2097H63.7314V84.7693H52.977L54.4956 86.2929H31.9843V84.555L26.4974 90.0603L27.9032 91.4708L31.9843 87.3761V86.8643H55.0591L55.4209 87.2273H63.7314H87.168L88.0519 88.1141H63.7314V87.6737H55.8658L57.4259 89.239H31.9784V88.9414L28.6803 92.2505L30.1158 93.6908L31.9784 91.822V89.7568H57.9479L58.2682 90.0781H63.7314H90.0153L90.9466 91.0126H63.7314V90.5721H58.7605L60.3621 92.1791H31.9843V92.6552H60.8426L61.1214 92.9349H63.7373H92.8685L93.8413 93.911H63.7373V93.4706H61.6553L63.2984 95.1192H31.9843V93.3158L30.8691 94.4347L31.9843 95.5537H95.4785V63.7005H63.7314V63.7064ZM0.225342 53.3029V54.2611H22.5527L21.5977 53.3029H0.225342ZM0.225342 41.6972V42.828H11.1636L10.0366 41.6972H0.225342ZM0.225342 38.7928V39.9653H8.31634L7.14184 38.7928H0.225342ZM0.225342 35.8884V37.1085H5.46907L4.25305 35.8884H0.225342ZM0.225342 32.99V34.2517H2.61586L1.35832 32.99H0.225342ZM30.964 30.8414L31.9724 31.8532V30.8414H30.964ZM94.2684 30.651L95.4666 31.8532V29.4428L94.2684 30.645V30.651ZM92.0855 28.4548L93.5922 29.9665L95.4726 28.0799V25.0624L92.0855 28.4608V28.4548ZM28.1523 28.0203L28.1939 28.062L24.4153 31.8532H24.3323L28.1523 28.0203ZM23.7153 23.5685L23.8221 23.6756L15.6718 31.8532H15.4583L23.7153 23.5685ZM0.225342 29.8118V31.8532L12.9254 44.5957H0.225342V45.6848H14.0109L16.348 48.0298L15.8201 47.5001H0.225342V48.5416H16.8582L18.7089 50.3985H0.225342V51.3984H19.7054L24.4924 56.2014H0.225342V57.112H25.4059L27.3871 59.0998H0.225342V59.9688H28.2532L30.2819 62.0042H0.225342V62.8256H31.1005L31.9724 63.7005V31.8472L30.3768 30.2463L28.7811 31.8472H28.7693L30.3708 30.2403L30.1217 29.9903H31.9724V27.937H28.0693L26.005 25.8658L20.0376 31.8532H19.8893L25.9279 25.7944L25.9991 25.8658L27.2626 27.1335H31.9606V25.0326H25.1686L24.4153 24.2768H31.9606V22.1342H22.2739L21.6214 21.4795L11.2882 31.8472H11.0035L21.479 21.3366L21.5621 21.42H31.9546V19.2298H19.3792L19.4326 19.2833L6.9105 31.8472H6.56053L19.2546 19.1107L17.2437 17.0931L2.55655 31.8532H2.14132L17.0539 16.8908L17.2615 17.0991L18.7267 18.5691H31.9724V16.3373H16.5023L15.8794 15.7123L15.0786 14.9089L0.225342 29.8118ZM0.225342 21.0391V24.8719L12.6228 12.433L12.9016 12.7127L0.225342 25.4254V29.3238L14.8413 14.6589L15.0846 14.9029L15.8853 15.7064H31.9784V13.4329H13.6194L13.0381 12.8496H31.9784V10.5285H10.7187L10.7069 10.5166L0.225342 21.0391ZM7.82993 7.63001L8.18584 7.98711L8.52989 8.3323L0.225342 16.6587V20.4201L10.3984 10.213L10.1849 9.99876H31.9724V7.63596H7.82993V7.63001ZM83.342 19.688L84.7122 21.0629L95.4666 10.2725V7.52288L83.342 19.688ZM4.93521 4.72561L5.96141 5.75524L6.34105 6.13615L0.225342 12.2723V15.9683L8.17991 7.98711L7.33759 7.14197H31.9724V4.73156H4.93521V4.72561ZM0.225342 7.88593V11.5164L5.96141 5.76119L4.15221 3.94594L0.225342 7.88593ZM2.04048 1.82715L3.74291 3.53528L4.49032 4.27923H31.9724V1.82715H2.04048ZM0.225342 3.49957V7.05865L3.74291 3.52933L2.04048 1.8212L1.9693 1.74383L0.225342 3.49957ZM0.225342 2.60682L1.52441 1.30341L0.225342 0V2.60682ZM67.9964 0L65.8609 2.14259L66.9642 3.2496L70.203 0H68.0023H67.9964ZM85.4775 0L74.5985 10.9153L73.6138 9.92734L83.514 0H81.1116L72.4156 8.72511L71.4013 7.70738L79.077 0.00595164H76.7399L70.2327 6.53491L69.1827 5.48146L74.64 0H72.3681L68.0438 4.33875L66.9583 3.2496L64.7398 1.02368L65.7601 0H62.3374L63.7195 1.38673V2.88655L60.8426 0H57.9657L63.7195 5.7731V7.33838L56.4056 0H53.5939L63.7195 10.1595V11.7962L51.9686 0H49.2281L63.7195 14.5399V16.242L47.5316 0H44.8564L63.7195 18.9262V20.6998L43.0887 0H40.4846L63.7195 23.3126V25.1516L38.6517 0H36.1129L63.7195 27.699V29.6035L34.2147 0H0.225342L1.64305 1.41649H31.9724V0L63.7195 31.8532H95.4666L94.2684 30.651L92.0855 28.4548L91.3737 27.7406L95.4726 23.628V20.676L89.9026 26.2646L89.1552 25.5147L95.4726 19.1762V16.2897L87.7137 24.0685L86.9307 23.2828L95.4666 14.7184V11.9033L85.5249 21.8782L82.4938 18.837L95.4666 5.82071V3.13652L81.1532 17.4978L81.8946 18.2418L78.9702 15.3076L76.7873 13.1174L75.8382 12.1652L87.951 0H85.4775ZM89.8492 0L76.7814 13.1115L78.0508 14.3851L92.388 0H89.8492ZM94.221 0L78.9702 15.3017L80.2752 16.611L95.4666 1.36888V0H94.221Z" fill="#FFC000"/>
<path d="M282.758 32.609H109.401V68.8009H282.758V32.609Z" fill="#FFC000"/>
<path d="M231.946 44.9944H238.068C238.305 44.9944 238.441 44.8218 238.441 44.6195V42.7209C238.441 42.5185 238.305 42.346 238.068 42.346H233.909C233.672 42.346 233.506 42.4114 233.334 42.584L231.679 44.2445C231.341 44.5838 231.507 44.9885 231.952 44.9885M238.779 54.2849L237.492 53.0291C237.356 52.8566 237.118 52.8566 236.952 53.0291L233.435 56.5585H231.981C231.204 56.5585 230.73 56.0823 230.73 55.3027V38.3405C230.73 38.1381 230.558 37.9655 230.356 37.9655H228.464C228.262 37.9655 228.09 38.1322 228.09 38.3405V42.346H225.86C225.658 42.346 225.486 42.5126 225.486 42.7209V44.6195C225.486 44.8218 225.652 44.9944 225.86 44.9944H228.09V54.6658C228.09 54.9039 228.155 55.0706 228.363 55.2789L232.047 58.9748C232.219 59.1415 232.385 59.2129 232.658 59.2129H234.075C234.348 59.2129 234.514 59.1474 234.716 58.9391L238.773 54.8325C238.94 54.6658 238.94 54.4575 238.773 54.2909M219.904 59.2129H221.797C221.998 59.2129 222.135 59.076 222.135 58.838V42.7209C222.135 42.5185 221.998 42.346 221.797 42.346H219.904C219.667 42.346 219.531 42.5126 219.531 42.7209V58.838C219.531 59.076 219.667 59.2129 219.904 59.2129ZM212.128 59.2129H216.286C216.559 59.2129 216.725 59.1772 216.897 58.9748L218.552 57.3143C218.89 56.9751 218.724 56.5704 218.279 56.5704H211.481C210.704 56.5704 210.194 56.0942 210.194 55.3146V42.7269C210.194 42.5245 210.058 42.3519 209.856 42.3519H207.964C207.726 42.3519 207.59 42.5185 207.59 42.7269V54.6658C207.59 54.9039 207.655 55.1063 207.827 55.2789L211.511 58.9748C211.683 59.1415 211.849 59.2129 212.122 59.2129M202.821 46.2859L199.137 42.59C198.965 42.4174 198.763 42.3519 198.526 42.3519H193.52C193.282 42.3519 193.116 42.4174 192.909 42.59L191.254 44.2505C190.916 44.5897 191.117 44.9944 191.556 44.9944H199.131C199.944 44.9944 200.418 45.5003 200.418 46.2859V55.3086C200.418 56.0883 199.944 56.5644 199.131 56.5644H191.592C190.779 56.5644 190.305 56.2252 190.305 55.3443V42.7269C190.305 42.5245 190.168 42.3519 189.966 42.3519H188.074C187.837 42.3519 187.7 42.5185 187.7 42.7269V65.6228C187.7 65.8609 187.837 65.9978 188.074 65.9978H189.966C190.168 65.9978 190.305 65.8609 190.305 65.6228V57.1417L192.132 58.9748C192.298 59.1415 192.47 59.2129 192.743 59.2129H198.526C198.763 59.2129 198.965 59.1474 199.137 58.9748L202.821 55.2789C202.993 55.1122 203.058 54.9396 203.058 54.6658V46.899C203.058 46.6252 202.993 46.4585 202.821 46.2859ZM180.879 59.2129H182.741C182.979 59.2129 183.115 59.076 183.115 58.838V46.899C183.115 46.6609 183.05 46.4585 182.878 46.2859L179.194 42.59C179.028 42.4174 178.856 42.3519 178.619 42.3519H173.921C173.684 42.3519 173.518 42.4174 173.345 42.59L171.691 44.2505C171.352 44.5897 171.518 44.9944 171.963 44.9944H179.23C180.007 44.9944 180.517 45.5003 180.517 46.2859V58.838C180.517 59.076 180.653 59.2129 180.891 59.2129M169.899 59.2129H171.791C171.993 59.2129 172.165 59.076 172.165 58.838V46.899C172.165 46.6609 172.1 46.4585 171.928 46.2859L168.244 42.59C168.078 42.4174 167.87 42.3519 167.633 42.3519H164.424C164.187 42.3519 164.021 42.4174 163.813 42.59L162.158 44.2505C161.82 44.5897 162.022 44.9944 162.461 44.9944H168.244C169.057 44.9944 169.531 45.5003 169.531 46.2859V58.838C169.531 59.076 169.703 59.2129 169.905 59.2129M158.949 59.2129H160.841C161.043 59.2129 161.179 59.076 161.179 58.838V42.7209C161.179 42.5185 161.043 42.346 160.841 42.346H158.949C158.712 42.346 158.575 42.5126 158.575 42.7209V58.838C158.575 59.076 158.712 59.2129 158.949 59.2129ZM143.158 56.5644C142.381 56.5644 141.907 56.0883 141.907 55.3086V46.2859C141.907 45.5063 142.381 44.9944 143.158 44.9944H150.733C151.51 44.9944 151.985 45.5003 151.985 46.2859V53.5469L149.043 56.5644H143.158ZM143.799 59.2129H149.612C149.885 59.2129 150.087 59.1474 150.253 58.9391L154.346 54.8682C154.512 54.6659 154.619 54.4933 154.619 54.2254V46.899C154.619 46.6252 154.553 46.4585 154.381 46.2859L150.698 42.59C150.526 42.4174 150.324 42.3519 150.087 42.3519H143.799C143.562 42.3519 143.36 42.4174 143.188 42.59L139.504 46.2859C139.338 46.4585 139.267 46.6609 139.267 46.899V54.6658C139.267 54.9039 139.332 55.1063 139.504 55.2789L143.188 58.9748C143.354 59.1415 143.562 59.2129 143.799 59.2129ZM120.641 59.2129H129.569C129.842 59.2129 130.008 59.1474 130.18 58.9748L135.453 53.6838C135.589 53.5469 135.589 53.3446 135.453 53.1779L134.136 51.8567C133.934 51.6841 133.762 51.7198 133.596 51.8924L128.928 56.5763H120.036C119.224 56.5763 118.749 56.1002 118.749 55.3205V42.5959L123.21 38.1203H131.461C132.238 38.1203 132.748 38.5964 132.748 39.3761V42.8697C132.748 43.1078 132.914 43.2447 133.122 43.2447H135.014C135.216 43.2447 135.388 43.1078 135.388 42.8697L135.352 40.0189C135.352 39.7808 135.287 39.5784 135.115 39.4058L131.431 35.7099C131.265 35.5373 131.058 35.4718 130.82 35.4718H122.569C122.296 35.4718 122.13 35.5373 121.958 35.7099L116.382 41.3044C116.216 41.4711 116.109 41.6437 116.109 41.9174V54.6718C116.109 54.9099 116.175 55.1122 116.347 55.2848L120.03 58.9808C120.196 59.1474 120.404 59.2189 120.641 59.2189" fill="#120540"/>
<path d="M231.946 44.9944H238.068C238.305 44.9944 238.441 44.8218 238.441 44.6195V42.7209C238.441 42.5185 238.305 42.346 238.068 42.346H233.909C233.672 42.346 233.506 42.4114 233.334 42.584L231.679 44.2445C231.341 44.5838 231.507 44.9885 231.952 44.9885L231.946 44.9944ZM238.774 54.2909L237.486 53.0351C237.35 52.8625 237.113 52.8625 236.947 53.0351L233.429 56.5644H231.976C231.199 56.5644 230.724 56.0883 230.724 55.3086V38.3464C230.724 38.1441 230.552 37.9715 230.35 37.9715H228.458C228.256 37.9715 228.084 38.1381 228.084 38.3464V42.3519H225.854C225.652 42.3519 225.48 42.5185 225.48 42.7269V44.6254C225.48 44.8278 225.646 45.0004 225.854 45.0004H228.084V54.6718C228.084 54.9099 228.15 55.0765 228.357 55.2848L232.041 58.9808C232.213 59.1474 232.379 59.2189 232.652 59.2189H234.07C234.343 59.2189 234.509 59.1534 234.71 58.9451L238.768 54.8384C238.934 54.6718 238.934 54.4635 238.768 54.2969L238.774 54.2909ZM219.904 59.2129H221.797C221.998 59.2129 222.135 59.076 222.135 58.838V42.7209C222.135 42.5185 221.998 42.346 221.797 42.346H219.904C219.667 42.346 219.531 42.5126 219.531 42.7209V58.838C219.531 59.076 219.667 59.2129 219.904 59.2129ZM212.128 59.2129H216.286C216.559 59.2129 216.725 59.1772 216.897 58.9748L218.552 57.3143C218.89 56.9751 218.724 56.5704 218.279 56.5704H211.481C210.704 56.5704 210.194 56.0942 210.194 55.3146V42.7269C210.194 42.5245 210.058 42.3519 209.856 42.3519H207.964C207.726 42.3519 207.59 42.5185 207.59 42.7269V54.6659C207.59 54.9039 207.655 55.1063 207.827 55.2789L211.511 58.9748C211.683 59.1415 211.849 59.2129 212.122 59.2129H212.128ZM202.827 46.2859L199.143 42.59C198.971 42.4174 198.769 42.3519 198.532 42.3519H193.526C193.288 42.3519 193.122 42.4174 192.915 42.59L191.26 44.2505C190.922 44.5897 191.123 44.9944 191.562 44.9944H199.137C199.95 44.9944 200.424 45.5003 200.424 46.2859V55.3086C200.424 56.0883 199.95 56.5644 199.137 56.5644H191.598C190.785 56.5644 190.311 56.2252 190.311 55.3443V42.7269C190.311 42.5245 190.174 42.3519 189.973 42.3519H188.08C187.843 42.3519 187.707 42.5185 187.707 42.7269V65.6228C187.707 65.8609 187.843 65.9978 188.08 65.9978H189.973C190.174 65.9978 190.311 65.8609 190.311 65.6228V57.1417L192.138 58.9748C192.304 59.1415 192.476 59.2129 192.749 59.2129H198.532C198.769 59.2129 198.971 59.1474 199.143 58.9748L202.827 55.2789C202.999 55.1122 203.064 54.9396 203.064 54.6659V46.899C203.064 46.6252 202.999 46.4585 202.827 46.2859ZM180.885 59.2129H182.748C182.985 59.2129 183.121 59.076 183.121 58.838V46.899C183.121 46.6609 183.056 46.4585 182.884 46.2859L179.2 42.59C179.034 42.4174 178.862 42.3519 178.625 42.3519H173.927C173.69 42.3519 173.524 42.4174 173.352 42.59L171.697 44.2505C171.358 44.5897 171.525 44.9944 171.969 44.9944H179.236C180.013 44.9944 180.523 45.5003 180.523 46.2859V58.838C180.523 59.076 180.66 59.2129 180.897 59.2129H180.885ZM169.893 59.2129H171.786C171.987 59.2129 172.159 59.076 172.159 58.838V46.899C172.159 46.6609 172.094 46.4585 171.922 46.2859L168.238 42.59C168.072 42.4174 167.865 42.3519 167.627 42.3519H164.418C164.181 42.3519 164.015 42.4174 163.807 42.59L162.152 44.2505C161.814 44.5897 162.016 44.9944 162.455 44.9944H168.238C169.051 44.9944 169.526 45.5003 169.526 46.2859V58.838C169.526 59.076 169.698 59.2129 169.899 59.2129H169.893ZM158.937 59.2129H160.829C161.031 59.2129 161.168 59.076 161.168 58.838V42.7209C161.168 42.5185 161.031 42.346 160.829 42.346H158.937C158.7 42.346 158.564 42.5126 158.564 42.7209V58.838C158.564 59.076 158.7 59.2129 158.937 59.2129ZM143.147 56.5644C142.37 56.5644 141.895 56.0883 141.895 55.3086V46.2859C141.895 45.5063 142.37 44.9944 143.147 44.9944H150.722C151.499 44.9944 151.973 45.5003 151.973 46.2859V53.5469L149.031 56.5644H143.147ZM143.787 59.2129H149.601C149.873 59.2129 150.075 59.1474 150.241 58.9391L154.334 54.8682C154.5 54.6659 154.607 54.4933 154.607 54.2254V46.899C154.607 46.6252 154.542 46.4585 154.37 46.2859L150.686 42.59C150.514 42.4174 150.312 42.3519 150.075 42.3519H143.787C143.55 42.3519 143.348 42.4174 143.176 42.59L139.493 46.2859C139.327 46.4585 139.255 46.6609 139.255 46.899V54.6659C139.255 54.9039 139.321 55.1063 139.493 55.2789L143.176 58.9748C143.342 59.1415 143.55 59.2129 143.787 59.2129ZM120.63 59.2129H129.557C129.83 59.2129 129.996 59.1474 130.168 58.9748L135.441 53.6838C135.578 53.5469 135.578 53.3446 135.441 53.1779L134.124 51.8567C133.923 51.6841 133.751 51.7198 133.585 51.8924L128.916 56.5763H120.025C119.212 56.5763 118.737 56.1002 118.737 55.3205V42.5959L123.198 38.1203H131.449C132.226 38.1203 132.736 38.5964 132.736 39.3761V42.8697C132.736 43.1078 132.902 43.2447 133.11 43.2447H135.002C135.204 43.2447 135.376 43.1078 135.376 42.8697L135.34 40.0189C135.34 39.7808 135.275 39.5784 135.103 39.4058L131.42 35.7099C131.253 35.5373 131.046 35.4718 130.809 35.4718H122.557C122.285 35.4718 122.118 35.5373 121.946 35.7099L116.371 41.3044C116.204 41.4711 116.098 41.6437 116.098 41.9174V54.6718C116.098 54.9099 116.163 55.1122 116.335 55.2848L120.019 58.9808C120.185 59.1474 120.392 59.2189 120.63 59.2189V59.2129Z" stroke="#120540" stroke-width="0.35" stroke-miterlimit="1.34"/>
<path d="M273.03 50.208H274.922C275.124 50.208 275.296 50.0354 275.296 49.8331V46.8454C275.296 46.6073 275.23 46.4049 275.023 46.2323L271.369 42.5364C271.167 42.3697 270.995 42.2983 270.758 42.2983H268.563C268.326 42.2983 268.16 42.3638 267.952 42.5364L266.327 44.1969C265.989 44.5361 266.161 44.9408 266.6 44.9408H271.369C272.146 44.9408 272.656 45.4527 272.656 46.2323V49.8271C272.656 50.0295 272.792 50.2021 273.03 50.2021M263.123 59.1593H265.016C265.217 59.1593 265.354 59.0224 265.354 58.7844V42.6673C265.354 42.465 265.217 42.2924 265.016 42.2924H263.123C262.886 42.2924 262.75 42.465 262.75 42.6673V58.7844C262.75 59.0224 262.886 59.1593 263.123 59.1593ZM248.887 52.2733H253.419C253.692 52.2733 253.894 52.2078 254.06 51.9995L258.081 47.994C258.283 47.756 258.354 47.5893 258.354 47.3513V46.8097C258.354 46.5716 258.289 46.4049 258.117 46.2323L254.433 42.5364C254.267 42.3697 254.06 42.2983 253.822 42.2983H247.564C247.291 42.2983 247.125 42.3638 246.953 42.5364L243.27 46.2323C243.068 46.4347 242.997 46.6073 242.997 46.8454V54.648C242.997 54.886 243.062 55.0527 243.234 55.2253L246.918 58.9213C247.09 59.0879 247.291 59.1593 247.529 59.1593H253.716C253.988 59.1593 254.155 59.0938 254.327 58.9213L258.01 55.2253C258.212 55.0229 258.283 54.8503 258.283 54.6123V53.4576C258.283 53.2553 258.117 53.0827 257.909 53.0827H256.017C255.78 53.0827 255.643 53.2493 255.643 53.4576V55.255C255.643 56.0347 255.139 56.5108 254.356 56.5108H246.882C246.105 56.5108 245.631 56.0347 245.631 55.255V46.2323C245.631 45.4527 246.105 44.9408 246.882 44.9408H254.457C255.234 44.9408 255.709 45.4527 255.709 46.2323V46.9763L253.069 49.6248H246.918C246.479 49.6248 246.307 50.0295 246.645 50.3687L248.27 52.0292C248.472 52.2018 248.644 52.2673 248.881 52.2673" fill="#120540"/>
<path d="M273.03 50.208H274.922C275.124 50.208 275.296 50.0354 275.296 49.833V46.8453C275.296 46.6072 275.23 46.4049 275.023 46.2323L271.369 42.5363C271.167 42.3696 270.995 42.2982 270.758 42.2982H268.563C268.326 42.2982 268.16 42.3637 267.952 42.5363L266.327 44.1968C265.989 44.536 266.161 44.9407 266.6 44.9407H271.369C272.146 44.9407 272.656 45.4526 272.656 46.2323V49.827C272.656 50.0294 272.792 50.202 273.03 50.202V50.208ZM263.123 59.1652H265.016C265.217 59.1652 265.354 59.0283 265.354 58.7902V42.6732C265.354 42.4708 265.217 42.2982 265.016 42.2982H263.123C262.886 42.2982 262.75 42.4708 262.75 42.6732V58.7902C262.75 59.0283 262.886 59.1652 263.123 59.1652ZM248.887 52.2791H253.419C253.692 52.2791 253.894 52.2137 254.06 52.0053L258.081 47.9999C258.283 47.7618 258.354 47.5952 258.354 47.3571V46.8155C258.354 46.5775 258.289 46.4108 258.117 46.2382L254.433 42.5422C254.267 42.3756 254.06 42.3042 253.822 42.3042H247.564C247.291 42.3042 247.125 42.3696 246.953 42.5422L243.27 46.2382C243.068 46.4406 242.997 46.6132 242.997 46.8512V54.6538C242.997 54.8919 243.062 55.0585 243.234 55.2311L246.918 58.9271C247.09 59.0938 247.291 59.1652 247.529 59.1652H253.716C253.988 59.1652 254.155 59.0997 254.327 58.9271L258.01 55.2311C258.212 55.0288 258.283 54.8562 258.283 54.6181V53.4635C258.283 53.2611 258.117 53.0885 257.909 53.0885H256.017C255.78 53.0885 255.643 53.2552 255.643 53.4635V55.2609C255.643 56.0406 255.139 56.5167 254.356 56.5167H246.882C246.105 56.5167 245.631 56.0406 245.631 55.2609V46.2382C245.631 45.4585 246.105 44.9467 246.882 44.9467H254.457C255.234 44.9467 255.709 45.4585 255.709 46.2382V46.9822L253.069 49.6306H246.918C246.479 49.6306 246.307 50.0354 246.645 50.3746L248.27 52.0351C248.472 52.2077 248.644 52.2732 248.881 52.2732L248.887 52.2791Z" stroke="#120540" stroke-width="0.35" stroke-miterlimit="1.34"/>
<path d="M207.827 84.7037C208.088 81.4005 209.998 79.5138 213.16 79.5138C215.989 79.5138 217.769 81.4303 217.935 84.7037H207.827ZM213.16 94.3513C217.146 94.3513 219.81 92.3039 220.468 89.3638C220.504 89.2329 220.403 89.1317 220.207 89.1317H218.101C217.935 89.1317 217.84 89.1971 217.805 89.3638C217.247 91.0481 215.598 92.1075 213.16 92.1075C209.933 92.1075 208.023 90.0899 207.827 86.757H220.308C220.474 86.757 220.569 86.6558 220.569 86.4951V85.8345C220.569 80.5137 217.769 77.276 213.16 77.276C208.219 77.276 205.027 80.6149 205.027 85.8345C205.027 91.0541 208.189 94.3572 213.16 94.3572M195.643 94.3572C199.564 94.3572 202.293 92.1789 202.922 88.9412C202.951 88.7746 202.821 88.7091 202.661 88.7091H200.555C200.389 88.7091 200.294 88.7746 200.258 88.9412C199.635 91.0898 198.087 92.1135 195.649 92.1135C192.292 92.1135 190.251 89.7685 190.251 85.8345C190.251 81.9004 192.292 79.5257 195.649 79.5257C198.022 79.5257 199.6 80.6149 200.092 82.698C200.157 82.8944 200.223 82.9598 200.389 82.9598H202.53C202.696 82.9598 202.827 82.8586 202.791 82.6622C202.234 79.4245 199.463 77.276 195.643 77.276C190.738 77.276 187.475 80.7101 187.475 85.8345C187.475 90.9588 190.667 94.3572 195.643 94.3572ZM170.813 94.1906H173.049C173.18 94.1906 173.28 94.0894 173.28 93.9287V84.6441C173.28 81.341 174.829 79.621 177.723 79.621C180.618 79.621 181.97 81.2398 181.97 84.6441V93.9287C181.97 94.0954 182.071 94.1906 182.231 94.1906H184.438C184.604 94.1906 184.699 94.0894 184.699 93.9287V84.6441C184.699 79.8233 182.593 77.276 178.738 77.276C176.3 77.276 174.425 78.3652 173.268 80.3471H173.168V77.7045C173.168 77.5379 173.067 77.4426 172.907 77.4426H170.801C170.67 77.4426 170.57 77.5438 170.57 77.7045V93.9287C170.57 94.0954 170.67 94.1906 170.801 94.1906M154.732 84.7096C154.993 81.4064 156.903 79.5198 160.064 79.5198C162.894 79.5198 164.673 81.4362 164.839 84.7096H154.732ZM160.064 94.3572C164.05 94.3572 166.714 92.3099 167.372 89.3697C167.408 89.2388 167.307 89.1376 167.111 89.1376H165.005C164.839 89.1376 164.744 89.2031 164.709 89.3697C164.151 91.0541 162.502 92.1135 160.064 92.1135C156.837 92.1135 154.927 90.0958 154.732 86.7629H167.212C167.378 86.7629 167.473 86.6617 167.473 86.5011V85.8404C167.473 80.5196 164.673 77.282 160.064 77.282C155.123 77.282 151.932 80.6208 151.932 85.8404C151.932 91.06 155.093 94.3632 160.064 94.3632M145.804 73.8121C145.804 73.9431 145.905 74.0443 146.065 74.0443H148.966C149.096 74.0443 149.197 73.9431 149.197 73.8121V70.9077C149.197 70.7411 149.096 70.6459 148.966 70.6459H146.065C145.899 70.6459 145.804 70.7471 145.804 70.9077V73.8121ZM146.362 94.1965H148.604C148.735 94.1965 148.835 94.0954 148.835 93.9347V77.7105C148.835 77.5438 148.735 77.4486 148.604 77.4486H146.362C146.231 77.4486 146.13 77.5498 146.13 77.7105V93.9347C146.13 94.1013 146.231 94.1965 146.362 94.1965ZM135.762 94.3632C139.677 94.3632 142.411 92.1849 143.04 88.9472C143.076 88.7805 142.939 88.7151 142.779 88.7151H140.673C140.507 88.7151 140.412 88.7805 140.377 88.9472C139.748 91.0957 138.206 92.1194 135.768 92.1194C132.41 92.1194 130.37 89.7745 130.37 85.8404C130.37 81.9064 132.41 79.5317 135.768 79.5317C138.14 79.5317 139.718 80.6208 140.21 82.7039C140.276 82.9003 140.341 82.9658 140.507 82.9658H142.648C142.815 82.9658 142.945 82.8646 142.909 82.6682C142.352 79.4305 139.582 77.282 135.762 77.282C130.856 77.282 127.594 80.7161 127.594 85.8404C127.594 90.9648 130.785 94.3632 135.762 94.3632ZM117.254 94.3632C122.13 94.3632 125.191 91.8873 125.191 87.8521C125.191 84.1204 123.477 82.3349 118.838 81.4779L116.4 81.0493C113.072 80.3887 111.726 79.2639 111.726 76.9844C111.726 74.7049 113.47 73.2825 116.566 73.2825C119.663 73.2825 121.442 74.6394 121.869 77.3772C121.935 77.6093 122.035 77.6391 122.166 77.6391H124.402C124.568 77.6391 124.699 77.5379 124.663 77.3772C124.171 73.3122 121.175 70.9018 116.56 70.9018C111.945 70.9018 108.92 73.2824 108.92 77.1808C108.92 80.7458 110.961 82.7337 115.504 83.5907L117.942 84.0192C121.3 84.6798 122.356 85.6381 122.356 87.9175C122.356 90.4589 120.416 91.9825 117.254 91.9825C113.666 91.9825 111.785 90.5601 111.228 87.2569C111.198 87.0605 111.127 86.995 110.967 86.995H108.695C108.529 86.995 108.434 87.0962 108.463 87.2926C109.057 91.8516 112.183 94.3632 117.254 94.3632Z" fill="white"/>
<path d="M177.895 23.4316C181.816 23.4316 184.545 21.2533 185.174 18.0156C185.203 17.8489 185.073 17.7835 184.913 17.7835H182.807C182.641 17.7835 182.546 17.8489 182.51 18.0156C181.881 20.1641 180.339 21.1878 177.901 21.1878C174.544 21.1878 172.503 18.8429 172.503 14.9088C172.503 10.9748 174.544 8.60008 177.901 8.60008C180.274 8.60008 181.852 9.68923 182.344 11.7723C182.409 11.9687 182.475 12.0342 182.641 12.0342H184.782C184.948 12.0342 185.079 11.933 185.043 11.7366C184.485 8.4989 181.715 6.35036 177.895 6.35036C172.99 6.35036 169.727 9.78446 169.727 14.9088C169.727 20.0332 172.924 23.4316 177.895 23.4316ZM152.869 14.9088C152.869 11.0462 154.909 8.60008 158.136 8.60008C161.363 8.60008 163.439 11.076 163.439 14.9088C163.439 18.7417 161.399 21.1878 158.136 21.1878C154.874 21.1878 152.869 18.7774 152.869 14.9088ZM157.448 23.4316C159.951 23.4316 162.188 22.2115 163.344 20.1582H163.445V21.2473C163.445 22.5686 164.234 23.2649 165.782 23.2649H168.09C168.256 23.2649 168.351 23.1638 168.351 23.0031V21.3187C168.351 21.1878 168.25 21.0866 168.09 21.0866H166.079V6.77888C166.079 6.61223 165.978 6.517 165.818 6.517H163.611C163.445 6.517 163.35 6.61818 163.35 6.77888V9.68328H163.25C162.034 7.57044 159.892 6.34441 157.454 6.34441C152.976 6.34441 150.111 9.71304 150.111 14.9029C150.111 20.0927 152.976 23.4256 157.454 23.4256M133.252 14.9029C133.252 11.0403 135.293 8.59413 138.52 8.59413C141.747 8.59413 143.823 11.07 143.823 14.9029C143.823 18.7357 141.782 21.1819 138.52 21.1819C135.257 21.1819 133.252 18.7714 133.252 14.9029ZM137.832 23.4256C140.335 23.4256 142.571 22.2055 143.728 20.1522H143.829V21.2414C143.829 22.5626 144.618 23.259 146.166 23.259H148.473C148.64 23.259 148.734 23.1578 148.734 22.9971V21.3128C148.734 21.1819 148.634 21.0807 148.473 21.0807H146.463V6.77888C146.463 6.61223 146.362 6.517 146.202 6.517H143.995C143.829 6.517 143.734 6.61818 143.734 6.77888V9.68328H143.633C142.417 7.57044 140.276 6.34441 137.838 6.34441C133.359 6.34441 130.494 9.71304 130.494 14.9029C130.494 20.0927 133.359 23.4256 137.838 23.4256M122.332 23.4256C126.217 23.4256 128.388 21.6401 128.388 18.5334C128.388 15.7897 127.332 14.5339 123.613 13.8435L121.703 13.4804C119.467 13.0162 118.737 12.3258 118.737 10.9391C118.737 9.4214 119.924 8.49295 121.934 8.49295C123.945 8.49295 124.995 9.25476 125.327 11.0045C125.363 11.1355 125.428 11.2724 125.624 11.2724H127.765C127.932 11.2724 128.026 11.1712 127.997 10.9748C127.599 8.03467 125.428 6.35036 121.94 6.35036C118.453 6.35036 116.08 8.23108 116.08 11.1057C116.08 13.784 117.527 15.1707 120.92 15.8313L122.7 16.1646C125.007 16.6288 125.731 17.224 125.731 18.6762C125.731 20.2951 124.444 21.289 122.338 21.289C119.965 21.289 118.714 20.3665 118.322 18.3489C118.286 18.1822 118.257 18.087 118.061 18.087H115.955C115.789 18.087 115.694 18.1882 115.724 18.3846C116.086 21.658 118.423 23.4375 122.344 23.4375M109.697 23.2709H112.005C112.171 23.2709 112.266 23.1697 112.266 23.009V0.398713C112.266 0.232067 112.165 0.136841 112.005 0.136841H109.697C109.567 0.136841 109.466 0.238019 109.466 0.398713V22.9971C109.466 23.1637 109.567 23.259 109.697 23.259" fill="white"/>
</g>
<defs>
<clipPath id="clip0_17_930">
<rect width="282.764" height="96" fill="white"/>
</clipPath>
</defs>
</svg>
