<svg xmlns="http://www.w3.org/2000/svg" width="160" height="70" viewBox="0 0 130 58">
  <path fill="#FFF" d="M59.4802048,18.8664442 C59.4816363,18.9819886 59.4352365,19.0929842 59.3519984,19.1731339 C59.2734842,19.2557233 59.1642876,19.3021318 59.0503364,19.3013403 L58.4595817,19.3013403 C58.3456305,19.3021318 58.2364339,19.2557233 58.1579197,19.1731339 C58.0750013,19.0932849 58.0286293,18.9828104 58.0297133,18.8677011 L58.0297133,11.3776851 C58.0297133,11.2607911 58.0724488,11.1589801 58.1579197,11.0722523 C58.2364339,10.989663 58.3456305,10.9432544 58.4595817,10.944046 L59.0503364,10.944046 C59.1672304,10.944046 59.2677844,10.9867814 59.3519984,11.0722523 C59.4374693,11.1589801 59.4802048,11.2607911 59.4802048,11.3776851 L59.4802048,18.8677011 L59.4802048,18.8664442 Z M59.6398342,9.24091259 C59.6409183,9.35602184 59.5945462,9.46649637 59.5116279,9.54634536 C59.4331136,9.62893471 59.323917,9.67534326 59.2099659,9.67455171 L58.3012091,9.67455171 C58.187258,9.67534326 58.0780614,9.62893471 57.9995471,9.54634536 C57.9166288,9.46649637 57.8702568,9.35602184 57.8713408,9.24091259 L57.8713408,8.32461426 C57.8713408,8.20646331 57.9128193,8.10465239 57.9982902,8.01918149 C58.0768045,7.93659214 58.186001,7.89018359 58.2999522,7.89097514 L59.208709,7.89097514 C59.325603,7.89097514 59.4274139,7.93371059 59.5116279,8.01918149 C59.5970988,8.10465239 59.6398342,8.20772024 59.6398342,8.32461426 L59.6398342,9.24091259 Z M66.5856018,16.9873414 C66.5925264,16.8038963 66.5331854,16.6240884 66.4184308,16.4808006 C66.2800776,16.3279646 66.1079046,16.2095957 65.9156608,16.1351462 C65.639352,16.021571 65.3543717,15.9303605 65.0634656,15.8623935 C64.6641277,15.7640806 64.2631078,15.6727302 63.8605884,15.5883838 C63.0008517,15.4061297 62.3975277,15.1044677 62.0531302,14.680884 C61.7095176,14.2624002 61.5259596,13.7353394 61.5352771,13.1939417 C61.5312383,12.5466485 61.8104285,11.9299504 62.2994875,11.5058914 C62.5546433,11.2821588 62.8764161,11.1049324 63.263549,10.976726 C63.6519388,10.8472627 64.1056888,10.7831596 64.6260557,10.7831596 C65.1464227,10.7831596 65.6001726,10.842235 65.9885624,10.9591291 C66.3756953,11.0785369 66.7024958,11.228111 66.967707,11.4103651 C67.2329182,11.5926193 67.4352831,11.7874426 67.5735448,11.9973491 C67.7118066,12.2059987 67.7859652,12.4071067 67.7960206,12.6006731 C67.8072644,12.7153421 67.7628618,12.828452 67.6766127,12.904849 C67.5942338,12.9870814 67.4825499,13.0332019 67.3661522,13.0330553 L66.8407576,13.0330553 C66.7621562,13.0306109 66.6842948,13.0170698 66.6094834,12.9928337 C66.509354,12.959225 66.4225923,12.8944841 66.3618691,12.8080657 C66.1986059,12.6069568 65.9877926,12.4497107 65.7484897,12.350545 C65.4782509,12.2273664 65.1036872,12.1657771 64.6260557,12.1657771 C64.1371119,12.1657771 63.7411805,12.2562757 63.4395185,12.4385298 C63.1365996,12.6207839 62.9845117,12.8721689 62.9845117,13.1939417 C62.9845117,13.3975636 63.0272471,13.5609638 63.112718,13.6841425 C63.2205587,13.8257313 63.3635505,13.9366583 63.5275033,14.0059153 C63.7172989,14.0964139 63.9699409,14.1793709 64.2829152,14.2547864 C64.5971464,14.3302019 64.9867932,14.4207005 65.4543693,14.5275391 C65.9433131,14.6356347 66.3518137,14.7713826 66.6811281,14.9372967 C67.0104424,15.1044677 67.2756536,15.2917495 67.4780185,15.5003991 C67.6791265,15.7090486 67.822416,15.9403228 67.9078869,16.1917078 C67.9921009,16.4430928 68.0348363,16.708304 68.0348363,16.9873414 C68.0348363,17.3078572 67.9581639,17.6195746 67.8035621,17.9187228 C67.6433182,18.2265095 67.4176586,18.4954992 67.1424196,18.7068147 C66.8279833,18.9465827 66.4752599,19.1314438 66.0991718,19.2535771 C65.6491203,19.3991222 65.1781851,19.4696139 64.705242,19.4622267 C64.184875,19.4622267 63.7235836,19.3981235 63.3188537,19.2686602 C62.9543009,19.1579336 62.6063479,18.9985433 62.2844044,18.7947995 C62.0272943,18.6349271 61.8029287,18.4276236 61.6232619,18.183934 C61.4686601,17.965229 61.38696,17.7578364 61.3756477,17.5655269 C61.3635189,17.4518728 61.4048484,17.3390292 61.487514,17.2600941 C61.571146,17.1751042 61.6863219,17.1286697 61.805516,17.1318877 L62.3799307,17.1318877 C62.442777,17.1318877 62.5181925,17.1394293 62.6024065,17.1557693 C62.6878774,17.1721093 62.7670636,17.2336987 62.8412222,17.3405373 C63.0109071,17.5768392 63.2446951,17.7578364 63.5425864,17.8872997 C63.8404776,18.015506 64.2276105,18.0796092 64.705242,18.0796092 C64.93903,18.0796092 65.1703042,18.0532138 65.3990646,17.999166 C65.626568,17.9463751 65.8289329,17.8709596 66.0036455,17.7741764 C66.179615,17.6773932 66.3203906,17.563013 66.4259723,17.428522 C66.5287061,17.3044072 66.5851322,17.1484578 66.5856018,16.9873414 Z M69.3420383,17.1959909 C69.3420383,16.7673795 69.4262523,16.3915589 69.5959372,16.071043 C69.766879,15.7492702 69.9994101,15.4765175 70.2973013,15.2515279 C70.5951925,15.0252814 70.9421038,14.8442842 71.3405491,14.7047656 C71.7389943,14.5665038 72.1613211,14.4584083 72.6075295,14.3829928 L74.8536544,14.0134568 L74.8536544,13.8048073 C74.8536544,13.2580449 74.676428,12.8495443 74.3194613,12.5755346 C73.9637515,12.3027819 73.5213139,12.1657771 72.9896347,12.1657771 C72.5220586,12.1657771 72.1688626,12.251248 71.9300469,12.4221898 C71.6912311,12.5943885 71.4863524,12.7980103 71.3166675,13.0330553 C71.2643469,13.1093609 71.1928043,13.1704973 71.1092749,13.2102817 C71.0128556,13.2459443 70.910333,13.2621771 70.8076129,13.2580449 L70.3299814,13.2580449 C70.2131484,13.2585258 70.1009506,13.21238 70.018264,13.1298385 C69.9316351,13.0531712 69.8871953,12.939499 69.8988561,12.8244058 C69.9202238,12.5893608 70.0132363,12.3467743 70.1778934,12.1016739 C70.3425506,11.8553166 70.5650263,11.6353547 70.8465775,11.4430452 C71.1281287,11.2494787 71.4524154,11.0911062 71.8194375,10.9679275 C72.1852027,10.8447489 72.5761063,10.7831596 72.9896347,10.7831596 C73.4672662,10.7831596 73.9109607,10.8535474 74.3194613,10.993066 C74.7292188,11.1313278 75.0799009,11.3349496 75.3715075,11.6026747 C75.6631141,11.8703997 75.8918745,12.2034848 76.0565316,12.5994162 C76.2211888,12.9953476 76.3028889,13.4516113 76.3028889,13.9656937 L76.3028889,18.8677011 C76.3046308,18.9824373 76.2591906,19.092857 76.1771964,19.1731339 C76.0980842,19.2563662 75.9878428,19.3028315 75.8730206,19.3013403 L75.2835228,19.3013403 C75.1695716,19.3021318 75.060375,19.2557233 74.9818608,19.1731339 C74.8989424,19.0932849 74.8525704,18.9828104 74.8536544,18.8677011 L74.8536544,18.2078155 C74.7506071,18.4209273 74.5975131,18.6059339 74.407446,18.7470363 C74.1950767,18.9083349 73.9621747,19.0406367 73.7148804,19.1404539 C73.4546969,19.2472925 73.1832011,19.3289926 72.9016499,19.3817835 C72.6420456,19.4331797 72.3781926,19.4601121 72.1135579,19.4622267 C71.7268605,19.4667621 71.3420758,19.4073031 70.9747839,19.2862572 C70.6562375,19.182613 70.3593287,19.0215922 70.0987072,18.8111395 C69.6171957,18.413346 69.3394859,17.8205599 69.3420383,17.1959909 Z M72.2731874,18.0796092 C72.6552926,18.0796092 73.0059747,18.0205337 73.3239767,17.9036397 C73.6432356,17.7854887 73.9159884,17.6220885 74.1447487,17.4134389 C74.3735091,17.2035325 74.5482216,16.9546613 74.6701434,16.6655686 C74.7920651,16.3764758 74.8536544,16.054703 74.8536544,15.7015071 L74.8536544,15.2992911 L72.9732946,15.6047239 C72.3046105,15.7115625 71.7741882,15.8837612 71.3807707,16.1200631 C70.9873531,16.3551081 70.7912728,16.6605409 70.7912728,17.0351045 C70.7921503,17.1571396 70.8191511,17.2775718 70.8704591,17.3883004 C70.9245069,17.5064514 71.0087209,17.6195746 71.1256149,17.7264133 C71.2425089,17.8332519 71.3945968,17.9187228 71.5793648,17.982826 C71.7653897,18.0481861 71.9966639,18.0796092 72.2731874,18.0796092 Z M78.0399593,17.1959909 C78.0399593,16.7673795 78.1254302,16.3915589 78.2951151,16.071043 C78.4647999,15.7492702 78.6973311,15.4765175 78.9964792,15.2515279 C79.2931135,15.0252814 79.6412817,14.8442842 80.039727,14.7047656 C80.4381722,14.5665038 80.8592421,14.4584083 81.3054504,14.3829928 L83.5528323,14.0134568 L83.5528323,13.8048073 C83.5528323,13.2580449 83.374349,12.8495443 83.0186392,12.5755346 C82.6629294,12.3027819 82.2192349,12.1657771 81.6888126,12.1657771 C81.2212365,12.1657771 80.8680405,12.251248 80.6292248,12.4221898 C80.390409,12.5943885 80.1855303,12.7980103 80.0158454,13.0330553 C79.9635249,13.1093609 79.8919823,13.1704973 79.8084528,13.2102817 C79.7120335,13.2459443 79.6095109,13.2621771 79.5067908,13.2580449 L79.0279023,13.2580449 C78.9115046,13.2581914 78.7998207,13.212071 78.7174419,13.1298385 C78.630813,13.0531712 78.5863732,12.939499 78.598034,12.8244058 C78.6194017,12.5893608 78.7111572,12.3467743 78.8758144,12.1016739 C79.0404716,11.8553166 79.2642042,11.6353547 79.5457554,11.4430452 C79.8273066,11.2494787 80.1503364,11.0911062 80.5173585,10.9679275 C80.8843806,10.8447489 81.2740273,10.7831596 81.6888126,10.7831596 C82.1664441,10.7831596 82.6101386,10.8535474 83.0186392,10.993066 C83.4271398,11.1313278 83.7778219,11.3349496 84.0694285,11.6026747 C84.362292,11.8703997 84.5910524,12.2034848 84.7544526,12.5994162 C84.9191098,12.9953476 85.0020669,13.4516113 85.0020669,13.9656937 L85.0020669,18.8677011 C85.0034794,18.9826235 84.9575735,19.0930705 84.8751174,19.1731339 C84.7963039,19.256044 84.6865854,19.3024808 84.5721985,19.3013403 L83.9814438,19.3013403 C83.8674926,19.3021318 83.758296,19.2557233 83.6797818,19.1731339 C83.5973257,19.0930705 83.5514198,18.9826235 83.5528323,18.8677011 L83.5528323,18.2078155 C83.449785,18.4209273 83.296691,18.6059339 83.106624,18.7470363 C82.8938645,18.9084317 82.6605342,19.0407367 82.4128014,19.1404539 C82.1526179,19.2472925 81.882379,19.3289926 81.6008278,19.3817835 C81.3408113,19.4332579 81.0765338,19.4601907 80.8114789,19.4622267 C80.4247815,19.4667621 80.0399968,19.4073031 79.6727049,19.2862572 C79.3541584,19.182613 79.0572497,19.0215922 78.7966281,18.8111395 C78.3151167,18.413346 78.0374068,17.8205599 78.0399593,17.1959909 Z M80.9711084,18.0796092 C81.3532136,18.0796092 81.7038957,18.0205337 82.0231546,17.9036397 C82.3411566,17.7854887 82.6139094,17.6220885 82.8439266,17.4134389 C83.0714301,17.2035325 83.2461426,16.9546613 83.3693213,16.6655686 C83.491243,16.3764758 83.5528323,16.054703 83.5528323,15.7015071 L83.5528323,15.2992911 L81.6724725,15.6047239 C81.0037884,15.7115625 80.4721092,15.8837612 80.0786916,16.1200631 C79.686531,16.3551081 79.4891938,16.6605409 79.4891938,17.0351045 C79.4904652,17.1572317 79.5178956,17.2776682 79.569637,17.3883004 C79.6224279,17.5064514 79.7078988,17.6195746 79.8247928,17.7264133 C79.9416868,17.8332519 80.0925178,17.9187228 80.2772858,17.982826 C80.4645676,18.0481861 80.6958418,18.0796092 80.9711084,18.0796092 Z M88.3957644,15.6851671 C88.4372429,16.1137785 88.5302553,16.4770298 88.6748017,16.7786918 C88.8180912,17.07784 88.9928037,17.3241973 89.2001964,17.5177637 C89.407589,17.7100732 89.6376063,17.8521058 89.892762,17.9426044 C90.1479178,18.0343599 90.4081013,18.0808661 90.6733125,18.0808661 C91.183624,18.0808661 91.6185201,17.982826 91.9805145,17.7905164 C92.3412519,17.5982069 92.6215462,17.2751772 92.8239111,16.826455 C92.8993266,16.6542562 92.9747421,16.5398761 93.0551853,16.4808006 C93.1413421,16.4198955 93.2451221,16.3889823 93.3505627,16.3928158 L93.8281942,16.3928158 C93.9450882,16.3928158 94.0481561,16.4355513 94.1386547,16.5210222 C94.2291533,16.6064931 94.2681179,16.7095609 94.2580625,16.826455 C94.236663,17.1218731 94.1526866,17.4093635 94.0117052,17.6698516 C93.8412998,17.9959867 93.6085628,18.2855201 93.3266811,18.5220468 C93.0237622,18.7847441 92.6517124,19.0059629 92.2105317,19.188217 C91.770608,19.3704711 91.2577826,19.4622267 90.6733125,19.4622267 C90.1412078,19.4722772 89.6126252,19.3739163 89.1197532,19.1731339 C88.6871185,18.9927949 88.29674,18.7244097 87.9734376,18.385042 C87.6553791,18.0454023 87.4064867,17.647089 87.2406503,17.2123309 C87.0625983,16.7498212 86.962775,16.2608995 86.9452729,15.7656103 C86.9331147,15.5542067 86.9251526,15.3425826 86.9213913,15.1308631 C86.9163636,14.8794781 86.9239052,14.6620301 86.9465298,14.479776 C86.9880084,13.9644367 87.0973608,13.4830345 87.2733303,13.0343122 C87.4480429,12.5830762 87.6881156,12.1921725 87.9973191,11.8603443 C88.3052658,11.5285161 88.6823433,11.2658188 89.1285516,11.0722523 C89.57476,10.8799428 90.0888423,10.7831596 90.6745694,10.7831596 C91.2577826,10.7831596 91.770608,10.8749151 92.2105317,11.0571692 C92.6517124,11.2394233 93.0237622,11.4606421 93.3266811,11.7233395 C93.6283431,11.9872937 93.8571035,12.2701018 94.0117052,12.5755346 C94.1650501,12.8809674 94.2480071,13.1625186 94.2580625,13.4189313 C94.2697233,13.5340246 94.2252836,13.6476968 94.1386547,13.7243641 C94.0562758,13.8065965 93.9445919,13.8527169 93.8281942,13.8525704 L93.3505627,13.8525704 C93.2451221,13.856404 93.1413421,13.8254908 93.0551853,13.7645857 C92.975999,13.7055102 92.8980697,13.59113 92.8239111,13.4189313 C92.6228031,12.9689521 92.3412519,12.6471793 91.9805145,12.4548698 C91.6185201,12.2625603 91.183624,12.1657771 90.6733125,12.1657771 C90.4081013,12.1657771 90.145404,12.2110264 89.8852205,12.3027819 C89.6243282,12.3938598 89.385409,12.5385815 89.1838563,12.7276225 C88.9764637,12.921189 88.8017511,13.1675463 88.6584617,13.4679514 C88.5036822,13.8125829 88.4141831,14.1829389 88.3945074,14.5602192 C88.3626205,14.9345239 88.3626205,15.3108623 88.3945074,15.6851671 L88.3957644,15.6851671 Z M59.0980996,29.1958539 C59.1395781,29.6232084 59.2325905,29.9877166 59.37588,30.2893786 C59.5204264,30.5885268 59.6951389,30.8348841 59.9025316,31.0284505 C60.1086673,31.22076 60.3399415,31.3627926 60.5950972,31.4532912 C60.850253,31.5450467 61.1104365,31.5915529 61.3756477,31.5915529 C61.8859592,31.5915529 62.3208553,31.4935128 62.6828497,31.3012032 C63.0435871,31.1088937 63.3238814,30.785864 63.5262463,30.3371418 C63.6016618,30.164943 63.6770773,30.0505629 63.7575205,29.9914874 C63.8436773,29.9305823 63.9474573,29.8996691 64.0528979,29.9035026 L64.5305294,29.9035026 C64.6474234,29.9035026 64.7504913,29.9462381 64.8409899,30.031709 C64.9314885,30.1171799 64.9704532,30.2189908 64.9603978,30.3371418 C64.9389982,30.6325599 64.8550219,30.9200503 64.7140405,31.1805384 C64.543635,31.5066735 64.310898,31.796207 64.0290163,32.0327336 C63.7260974,32.2954309 63.3540476,32.5166497 62.9128669,32.6989038 C62.4729432,32.881158 61.9601178,32.9729135 61.3756477,32.9729135 C60.843543,32.982964 60.3149604,32.8846031 59.8220884,32.6838207 C59.3894537,32.5034817 58.9990752,32.2350965 58.6757728,31.8957288 C58.3577144,31.5560891 58.1088219,31.1577758 57.9429855,30.7230177 C57.7649335,30.260508 57.6651102,29.7715864 57.6476081,29.2762971 C57.6354499,29.0648935 57.6274878,28.8532694 57.6237265,28.6415499 C57.6186988,28.3901649 57.6262404,28.1727169 57.648865,27.9904628 C57.6903436,27.4751235 57.799696,26.9937213 57.9756655,26.544999 C58.1491212,26.093763 58.3904508,25.7028593 58.6996543,25.3710311 C59.007601,25.0392029 59.3846785,24.7765056 59.8308868,24.5829391 C60.2770952,24.3906296 60.7911775,24.2938464 61.3769046,24.2938464 C61.9601178,24.2938464 62.4729432,24.3856019 62.9128669,24.567856 C63.3527907,24.7501101 63.7260974,24.9713289 64.0290163,25.2340263 C64.3306783,25.4979805 64.5594387,25.7807886 64.7140405,26.0862214 C64.8673853,26.3916542 64.9503424,26.6732054 64.9603978,26.9296181 C64.9720585,27.0447114 64.9276188,27.1583836 64.8409899,27.2350509 C64.758611,27.3172833 64.6469271,27.3634038 64.5305294,27.3632572 L64.0528979,27.3632572 C63.9474573,27.3670908 63.8436773,27.3361776 63.7575205,27.2752725 C63.6783343,27.216197 63.6004049,27.1018168 63.5262463,26.9296181 C63.3251383,26.4796389 63.0435871,26.1578661 62.6815927,25.9655566 C62.3208553,25.7732471 61.8859592,25.6764639 61.3756477,25.6764639 C61.1104365,25.6764639 60.8477392,25.7217132 60.5875557,25.8134687 C60.3266634,25.9045467 60.0877442,26.0492683 59.8861915,26.2383093 C59.6787989,26.4318758 59.5040863,26.6782331 59.3607969,26.9786382 C59.2060175,27.3232697 59.1165183,27.6936257 59.0968426,28.070906 C59.0649557,28.4452107 59.0649557,28.8215491 59.0968426,29.1958539 L59.0980996,29.1958539 Z M70.3852861,24.2938464 C70.9584439,24.2938464 71.4687554,24.3818311 71.9149638,24.5590575 C72.3599152,24.735027 72.7432774,24.9801274 73.0612794,25.2905879 C73.3805383,25.6010484 73.6319233,25.9793828 73.8179482,26.4230773 C74.0039731,26.8680288 74.1183533,27.3532018 74.1610887,27.8785965 C74.1711441,27.9741228 74.1761718,28.0897599 74.1761718,28.2229939 L74.1761718,29.058849 C74.1761718,29.19334 74.1711441,29.3026925 74.1610887,29.3881634 C74.1157431,29.8904021 73.997175,30.3833069 73.8091497,30.8512241 C73.6294095,31.2911478 73.3805383,31.6657115 73.0612794,31.976172 C72.7318008,32.2940448 72.3420435,32.5427715 71.9149638,32.7077023 C71.4687554,32.8836718 70.9597008,32.9716566 70.3852861,32.9716566 C69.8108713,32.9716566 69.3018167,32.8836718 68.8556083,32.7077023 C68.4280811,32.5429201 68.0378842,32.2941857 67.7080358,31.976172 C67.3828764,31.6557668 67.1255421,31.2731851 66.951367,30.8512241 C66.7593469,30.3851349 66.6438979,29.8910813 66.6094834,29.3881634 C66.5966775,29.2787748 66.5882912,29.1689139 66.5843449,29.058849 C66.5733106,28.7803399 66.5733106,28.501503 66.5843449,28.2229939 C66.5887882,28.1079413 66.5971727,27.9930748 66.6094834,27.8785965 C66.645703,27.3783885 66.7611003,26.8871015 66.951367,26.4230773 C67.1241584,25.9981619 67.3816039,25.612849 67.7080358,25.2905879 C68.0378842,24.9725742 68.4280811,24.7238397 68.8556083,24.5590575 C69.3018167,24.383088 69.8108713,24.2951033 70.3852861,24.2951033 L70.3852861,24.2938464 Z M72.7105973,29.3089771 C72.731965,29.126723 72.7432774,28.9042473 72.7432774,28.6415499 C72.7432774,28.3788526 72.731965,28.1513492 72.7105973,27.9577827 C72.6821856,27.6499689 72.612863,27.3473167 72.5044616,27.0578244 C72.3093023,26.5120121 71.8924573,26.0741651 71.3568891,25.8524334 C71.0482251,25.7287756 70.7177131,25.6689157 70.3852861,25.6764639 C70.0132363,25.6764639 69.6889496,25.7355393 69.413683,25.8524334 C68.8778559,26.0744466 68.4609698,26.5127934 68.2661105,27.0590814 C68.1605288,27.3368618 68.090141,27.6372669 68.0587179,27.9577827 C68.0359359,28.1849728 68.0254463,28.4132279 68.0272948,28.6415499 C68.0272948,28.9042473 68.0373502,29.126723 68.0587179,29.3077202 C68.0913979,29.629493 68.1592719,29.9298981 68.2661105,30.2076785 C68.4612698,30.7534908 68.8781148,31.1913379 69.413683,31.4130696 C69.6902065,31.5312205 70.0132363,31.590296 70.3852861,31.590296 C70.7573359,31.590296 71.0803656,31.5312205 71.3568891,31.4143265 C71.8927162,31.1923132 72.3096023,30.7539664 72.5044616,30.2076785 C72.6100433,29.9298981 72.6791742,29.629493 72.7105973,29.3077202 L72.7105973,29.3089771 Z M77.7533804,25.3873711 C77.8567565,25.2491829 77.9684084,25.1173834 78.0877224,24.9926967 C78.3659012,24.7023646 78.7185368,24.4940879 79.1070886,24.3906296 C79.3308213,24.3265264 79.5910047,24.2938464 79.887639,24.2938464 C80.5362123,24.2938464 81.0716624,24.4145112 81.496503,24.6558408 C81.9213437,24.8971704 82.2569427,25.2428247 82.5007861,25.6928039 C82.6390479,25.4992374 82.7848512,25.3169833 82.9394529,25.1460415 C83.2697707,24.7787466 83.702158,24.5183514 84.1812948,24.3981711 C84.4414783,24.3290403 84.7469111,24.2938464 85.0975932,24.2938464 C86.1697502,24.2938464 86.9515575,24.618133 87.4392444,25.2667063 C87.9281883,25.9140227 88.1720317,26.8001548 88.1720317,27.9263596 L88.1720317,32.378388 C88.1734443,32.4933103 88.1275383,32.6037573 88.0450823,32.6838207 C87.9662687,32.7667308 87.8565502,32.8131677 87.7421634,32.8120271 L87.1526655,32.8120271 C87.0387144,32.8128186 86.9295178,32.7664101 86.8510035,32.6838207 C86.7680852,32.6039717 86.7217132,32.4934972 86.7227972,32.378388 L86.7227972,28.087246 C86.7227972,27.2614463 86.5631677,26.6543515 86.2451657,26.2634478 C85.9259067,25.8712872 85.4583306,25.6764639 84.8424374,25.6764639 C84.279335,25.6764639 83.8255851,25.8637457 83.4811876,26.2383093 C83.1355332,26.6141299 82.9633345,27.1923154 82.9633345,27.9741228 L82.9633345,32.378388 C82.9644185,32.4934972 82.9180465,32.6039717 82.8351282,32.6838207 C82.7566139,32.7664101 82.6474173,32.8128186 82.5334662,32.8120271 L81.9427114,32.8120271 C81.8287603,32.8128186 81.7195637,32.7664101 81.6410494,32.6838207 C81.5581311,32.6039717 81.511759,32.4934972 81.5128431,32.378388 L81.5128431,28.087246 C81.5128431,27.2614463 81.3532136,26.6543515 81.0352116,26.2634478 C80.7159526,25.8712872 80.2496334,25.6764639 79.6337402,25.6764639 C79.0706378,25.6764639 78.6156309,25.8637457 78.2712335,26.2383093 C77.9255791,26.6141299 77.7533804,27.1923154 77.7533804,27.9741228 L77.7533804,32.378388 C77.7544644,32.4934972 77.7080924,32.6039717 77.625174,32.6838207 C77.5466598,32.7664101 77.4374632,32.8128186 77.323512,32.8120271 L76.7327573,32.8120271 C76.6188061,32.8128186 76.5096096,32.7664101 76.4310953,32.6838207 C76.348177,32.6039717 76.3018049,32.4934972 76.3028889,32.378388 L76.3028889,24.887115 C76.3028889,24.7702209 76.3456244,24.66841 76.4310953,24.5816822 C76.5096096,24.4990928 76.6188061,24.4526843 76.7327573,24.4534758 L77.323512,24.4534758 C77.4404061,24.4534758 77.5409601,24.4962113 77.625174,24.5816822 C77.7106449,24.66841 77.7533804,24.7702209 77.7533804,24.887115 L77.7533804,25.3861142 L77.7533804,25.3873711 Z M94.5207599,32.9729135 C93.8621312,32.9729135 93.3367365,32.8572764 92.943319,32.6272591 C92.5511584,32.3972418 92.2532672,32.1471138 92.0509022,31.8793887 L92.0509022,35.4314588 C92.0526441,35.546195 92.0072039,35.6566146 91.9252098,35.7368916 C91.8460975,35.8201238 91.7358561,35.8665892 91.6210339,35.8650979 L91.0315361,35.8650979 C90.9175849,35.8658895 90.8083883,35.8194809 90.7298741,35.7368916 C90.6469557,35.6570426 90.6005837,35.546568 90.6016677,35.4314588 L90.6016677,24.8883719 C90.6016677,24.7714779 90.6444032,24.6696669 90.7298741,24.5829391 C90.8083883,24.5003498 90.9175849,24.4539412 91.0315361,24.4547328 L91.6222908,24.4547328 C91.7379279,24.4547328 91.8397389,24.4974682 91.9239528,24.5829391 C92.0094237,24.6696669 92.0521592,24.7714779 92.0521592,24.8883719 L92.0521592,25.3873711 C92.2645795,25.0982784 92.5674984,24.8431226 92.959659,24.6231607 C93.3530765,24.4044558 93.8734435,24.2938464 94.5207599,24.2938464 C95.0197591,24.2938464 95.4848213,24.3818311 95.9159466,24.5590575 C96.344558,24.735027 96.7203786,24.9901828 97.0383806,25.3232679 C97.3563827,25.6550961 97.6115384,26.0560552 97.802591,26.5274021 C97.9936436,27.0000059 98.10551,27.5291713 98.1369331,28.1186691 C98.1598223,28.4664612 98.1598223,28.8153818 98.1369331,29.1631738 C98.10551,29.7539286 97.9936436,30.283094 97.802591,30.7544409 C97.628486,31.19978 97.3688649,31.6067189 97.0383806,31.9522904 C96.7198318,32.278476 96.3372525,32.5352406 95.9146897,32.7064454 C95.4848213,32.8836718 95.0197591,32.9729135 94.5207599,32.9729135 Z M92.0521592,27.9426996 C92.0400353,28.1540574 92.0345859,28.3657452 92.0358191,28.5774468 C92.0358191,28.8401441 92.0408468,29.0513075 92.0521592,29.2121939 C92.0835823,29.9726335 92.3085719,30.5596175 92.7283848,30.9718889 C93.1481978,31.3841603 93.6924463,31.590296 94.3623873,31.590296 C95.0624945,31.590296 95.6155415,31.3653064 96.0190145,30.9153273 C96.4212305,30.4653481 96.6449631,29.8544826 96.6876986,29.0827306 C96.697754,28.7835825 96.697754,28.4831774 96.6876986,28.1827723 C96.6449631,27.4122773 96.4224874,26.8001548 96.0190145,26.3514326 C95.6155415,25.9014534 95.0637515,25.6764639 94.3611304,25.6764639 C93.7037586,25.6764639 93.1620239,25.8800857 92.7371833,26.2873294 C92.3123426,26.6945731 92.0835823,27.2463632 92.0521592,27.9426996 Z M100.168124,24.8883719 C100.168124,24.7714779 100.210859,24.6696669 100.29633,24.5829391 C100.374845,24.5003498 100.484041,24.4539412 100.597992,24.4547328 L101.188747,24.4547328 C101.305641,24.4547328 101.406195,24.4974682 101.490409,24.5829391 C101.57588,24.6696669 101.618615,24.7714779 101.618615,24.8883719 L101.618615,29.1317507 C101.618615,29.9562935 101.802126,30.5721867 102.167892,30.9794304 C102.534914,31.3866741 103.06785,31.590296 103.769214,31.590296 C104.437898,31.590296 104.963293,31.3866741 105.346655,30.9794304 C105.72876,30.5721867 105.919813,29.9562935 105.919813,29.1317507 L105.919813,24.887115 C105.919813,24.7702209 105.962548,24.66841 106.046762,24.5816822 C106.125576,24.4987722 106.235294,24.4523353 106.349681,24.4534758 L106.940436,24.4534758 C107.056073,24.4534758 107.156627,24.4962113 107.242098,24.5816822 C107.327569,24.66841 107.369047,24.7702209 107.369047,24.887115 L107.369047,32.377131 C107.370789,32.4918672 107.325349,32.6022869 107.243355,32.6825638 C107.164242,32.7657961 107.054001,32.8122614 106.939179,32.8107702 L106.349681,32.8107702 C106.23573,32.8115617 106.126533,32.7651532 106.048019,32.6825638 C105.965101,32.6027148 105.918729,32.4922403 105.919813,32.377131 L105.919813,31.8781318 C105.718705,32.1458568 105.430869,32.3959849 105.060076,32.6260022 C104.688026,32.8560195 104.177715,32.9716566 103.530398,32.9716566 C103.031399,32.9716566 102.575135,32.8886995 102.16035,32.7227854 C101.75824,32.5650047 101.394118,32.3238272 101.091964,32.0151366 C100.785395,31.6939953 100.552113,31.3101937 100.408197,30.8901888 C100.241856,30.4015692 100.161066,29.8879135 100.169381,29.3718234 L100.169381,24.887115 L100.168124,24.8883719 Z M112.046065,29.9990289 C112.046065,30.2026508 112.063662,30.3937034 112.10137,30.5696729 C112.139078,30.7456424 112.204438,30.8989872 112.299964,31.0284505 C112.405041,31.1637345 112.546216,31.2665651 112.707208,31.3250848 C112.88192,31.3954726 113.108167,31.4294096 113.383433,31.4294096 L114.228087,31.4294096 C114.344981,31.4294096 114.445535,31.472145 114.529749,31.5588729 C114.61522,31.6443438 114.657955,31.7461547 114.657955,31.8630487 L114.657955,32.378388 C114.659368,32.4933103 114.613462,32.6037573 114.531006,32.6838207 C114.452192,32.7667308 114.342474,32.8131677 114.228087,32.8120271 L113.223804,32.8120271 C112.299964,32.8120271 111.63128,32.5706975 111.216495,32.0880383 C110.801709,31.606636 110.595574,30.9102996 110.595574,29.9990289 L110.595574,25.8373503 L109.416578,25.8373503 C109.302438,25.8378154 109.193213,25.7909397 109.114916,25.707887 C109.031998,25.628038 108.985626,25.5175635 108.98671,25.4024542 L108.98671,24.8883719 C108.98671,24.7714779 109.029445,24.6696669 109.113659,24.5829391 C109.192473,24.5000291 109.302191,24.4535922 109.416578,24.4547328 L110.595574,24.4547328 L110.595574,21.8353011 C110.595574,21.7171501 110.638309,21.6153392 110.72378,21.5298683 C110.802294,21.4472789 110.911491,21.4008704 111.025442,21.4016619 L111.616197,21.4016619 C111.731834,21.4016619 111.833645,21.4443974 111.917859,21.5298683 C112.00333,21.6153392 112.046065,21.718407 112.046065,21.8353011 L112.046065,24.4547328 L114.069714,24.4547328 C114.185351,24.4547328 114.285905,24.4974682 114.371376,24.5829391 C114.456847,24.6696669 114.498326,24.7714779 114.498326,24.8883719 L114.498326,25.4037111 C114.499722,25.5180129 114.454309,25.6279127 114.372633,25.707887 C114.29374,25.7915825 114.18347,25.8385156 114.068457,25.8373503 L112.044808,25.8373503 L112.044808,29.9990289 L112.046065,29.9990289 Z M115.989039,27.8295764 C116.030517,27.3368618 116.147411,26.8768272 116.338464,26.4469589 C116.530774,26.0196044 116.779645,25.6437838 117.087591,25.3232679 C117.395538,25.0014951 117.765074,24.7501101 118.194942,24.567856 C118.652101,24.3801967 119.142507,24.2869896 119.636635,24.2938464 C120.209793,24.2938464 120.722618,24.3881157 121.173854,24.5753976 C121.626347,24.7639363 122.010967,25.0329183 122.330225,25.3873711 C122.648227,25.740567 122.892071,26.1691785 123.061756,26.6732054 C123.231441,27.1759754 123.316912,27.7390778 123.316912,28.3599987 L123.316912,28.7936379 C123.318324,28.9085603 123.272418,29.0190072 123.189962,29.0990706 C123.111367,29.182444 123.001619,29.2293483 122.887043,29.2285339 L117.40685,29.2285339 L117.40685,29.3240602 C117.428218,30.0530767 117.64818,30.6124083 118.067993,31.003312 C118.486549,31.3954726 119.010687,31.590296 119.636635,31.590296 C120.221105,31.590296 120.658515,31.5073389 120.951379,31.3414248 C121.242985,31.1755107 121.479287,30.9894858 121.660284,30.7871209 C121.724983,30.7174057 121.800019,30.6580554 121.88276,30.6111514 C121.973368,30.5733199 122.071265,30.5561451 122.169339,30.5608744 L122.646971,30.5608744 C122.76604,30.5615673 122.880307,30.6079042 122.96623,30.6903377 C123.057411,30.7634272 123.100502,30.8810789 123.078096,30.9957705 C123.031507,31.2235525 122.939142,31.4394995 122.8066,31.6305176 C122.634951,31.8844203 122.416035,32.10291 122.161798,32.2740632 C121.880246,32.4714004 121.529564,32.6385714 121.111008,32.7718055 C120.691195,32.9050395 120.199738,32.9729135 119.636635,32.9729135 C119.106213,32.9729135 118.627324,32.8786441 118.203741,32.6913623 C117.786884,32.5098132 117.410102,32.2475183 117.095133,31.9196103 C116.782159,31.5928098 116.529517,31.2069339 116.338464,30.7632393 C116.143221,30.3004249 116.02518,29.8087301 115.989039,29.3077202 C115.935959,28.8164351 115.935959,28.3208614 115.989039,27.8295764 Z M117.40685,27.8785965 L121.88276,27.8785965 L121.88276,27.8295764 C121.88276,27.1759754 121.679138,26.6543515 121.269381,26.2634478 C120.86088,25.8712872 120.316632,25.6764639 119.636635,25.6764639 C119.328689,25.6764639 119.04211,25.7267409 118.776898,25.8285518 C118.517214,25.9268526 118.279036,26.0745397 118.075534,26.2634478 C117.874426,26.4507297 117.714797,26.6782331 117.597903,26.9459581 C117.478542,27.2256475 117.413696,27.5255595 117.40685,27.8295764 L117.40685,27.8785965 Z M129.570113,24.4547328 C129.687007,24.4547328 129.787561,24.4974682 129.871775,24.5829391 C129.957246,24.6696669 129.999982,24.7714779 129.999982,24.8883719 L129.999982,25.4037111 C130.001049,25.5181986 129.95517,25.6281255 129.873032,25.707887 C129.794437,25.7912603 129.68469,25.8381647 129.570113,25.8373503 L128.646274,25.8373503 C127.424542,25.8373503 126.813677,26.4532435 126.813677,27.68503 L126.813677,32.378388 C126.815089,32.4933103 126.769184,32.6037573 126.686728,32.6838207 C126.607914,32.7667308 126.498195,32.8131677 126.383809,32.8120271 L125.793054,32.8120271 C125.679103,32.8128186 125.569906,32.7664101 125.491392,32.6838207 C125.408936,32.6037573 125.36303,32.4933103 125.364442,32.378388 L125.364442,24.887115 C125.364442,24.7702209 125.407178,24.66841 125.491392,24.5816822 C125.569906,24.4990928 125.679103,24.4526843 125.793054,24.4534758 L126.383809,24.4534758 C126.500703,24.4534758 126.601257,24.4962113 126.685471,24.5816822 C126.770941,24.66841 126.813677,24.7702209 126.813677,24.887115 L126.813677,25.3861142 C127.027354,25.0643414 127.281253,24.8280395 127.579144,24.6784654 C127.875779,24.5276344 128.264168,24.4534758 128.7418,24.4534758 L129.570113,24.4534758 L129.570113,24.4547328 Z M62.3334245,44.5592481 C62.3400447,44.3762303 62.2807209,44.1969207 62.1662535,44.0539643 C62.0282586,43.901289 61.856532,43.7829311 61.6647404,43.7083099 C61.3884689,43.5943067 61.1034877,43.5026756 60.8125453,43.4343002 C60.4131997,43.3364079 60.0121798,43.2454765 59.609668,43.1615475 C58.7499313,42.9792934 58.1466073,42.6763745 57.8022099,42.2540477 C57.4585972,41.8355639 57.2750393,41.3085031 57.2843568,40.7671054 C57.2803179,40.1198122 57.5595082,39.5031141 58.0485672,39.0790551 C58.303723,38.8540655 58.6242388,38.6768391 59.0126287,38.5486328 C59.3997616,38.4204264 59.8547684,38.3563232 60.3738784,38.3563232 C60.8955023,38.3563232 61.3492522,38.4153987 61.7363851,38.5322927 C62.124775,38.6504437 62.4503185,38.8012747 62.7167866,38.9835288 C62.9807409,39.1657829 63.1831058,39.3606063 63.3213676,39.5692559 C63.4596293,39.7791623 63.5350448,39.9790134 63.5451002,40.1725799 C63.556761,40.2876732 63.5123212,40.4013454 63.4256923,40.4780126 C63.3433135,40.5602451 63.2316296,40.6063655 63.1152319,40.606219 L62.5885803,40.606219 C62.5104019,40.6036569 62.4329718,40.5901172 62.358563,40.5659974 C62.2584336,40.5323887 62.171672,40.4676478 62.1109488,40.3812294 C61.9476856,40.1801205 61.7368722,40.0228744 61.4975694,39.9237087 C61.2273305,39.8005301 60.8527669,39.7389407 60.3738784,39.7389407 C59.8861915,39.7389407 59.4902602,39.8294393 59.1873412,40.0116935 C58.8856792,40.1939476 58.7335913,40.4453326 58.7335913,40.7658485 C58.7335913,40.9707272 58.7763268,41.1341275 58.8605407,41.2560492 C58.9682218,41.3980993 59.111228,41.5094708 59.275326,41.5790789 C59.4663786,41.6695775 59.7190205,41.7525346 60.0319948,41.8279501 C60.3462261,41.9033656 60.7358728,41.9938642 61.2034489,42.1007028 C61.6911358,42.2075414 62.1008934,42.3445463 62.4302077,42.5104604 C62.7582652,42.6763745 63.0247333,42.8649132 63.2258413,43.0735628 C63.4269493,43.2822123 63.5714956,43.5134865 63.6569665,43.7648715 C63.7411805,44.0162565 63.782659,44.2802108 63.782659,44.5592481 C63.782659,44.8810209 63.7072435,45.1914814 63.5526418,45.4918865 C63.3923978,45.7996732 63.1667382,46.0686628 62.8914992,46.2799784 C62.5769741,46.5193022 62.2242558,46.7037357 61.8482515,46.8254839 C61.3977997,46.9711655 60.9264285,47.0416589 60.4530647,47.0341334 C59.9339547,47.0341334 59.4726632,46.9712872 59.0679334,46.8418239 C58.7029451,46.7312025 58.354563,46.5718092 58.0322272,46.3679632 C57.775117,46.2080908 57.5507514,46.0007872 57.3710846,45.7570976 C57.2177398,45.5371358 57.1347827,45.3310001 57.1247273,45.1386905 C57.1125985,45.0250365 57.1539281,44.9121929 57.2365936,44.8332578 C57.3202257,44.7482679 57.4354016,44.7018334 57.5545957,44.7050514 L58.1277535,44.7050514 C58.1918566,44.7050514 58.2660152,44.712593 58.3514861,44.728933 C58.4357001,44.7440161 58.5148864,44.8056054 58.5903019,44.913701 C58.7599867,45.1487459 58.9937748,45.3310001 59.291666,45.4592064 C59.5883003,45.5886697 59.9766901,45.6527729 60.4543216,45.6527729 C60.6881097,45.6527729 60.9193839,45.6263774 61.1468873,45.5723297 C61.3756477,45.5182819 61.5767557,45.4441233 61.7527252,45.3460832 C61.9286947,45.2505569 62.0682133,45.1361767 62.175052,45.0016857 C62.2776075,44.8770656 62.3336003,44.7206413 62.3334245,44.5592481 Z M66.8658961,43.2583307 C66.9086315,43.6856852 67.001644,44.0501935 67.1449334,44.3518555 C67.2882229,44.6510036 67.4641924,44.8973609 67.671585,45.0896705 C67.8777207,45.2832369 68.1089949,45.4252694 68.3628937,45.517025 C68.6193064,45.6075236 68.878233,45.6527729 69.1447011,45.6527729 C69.6550126,45.6527729 70.0899087,45.5559896 70.4519031,45.3636801 C70.8126406,45.1701137 71.0929348,44.8483409 71.2952998,44.3996186 C71.3707153,44.2274199 71.4461308,44.1130397 71.526574,44.0539643 C71.6123846,43.9933233 71.7156794,43.9624231 71.8206944,43.9659795 L72.2983259,43.9659795 C72.4164769,43.9659795 72.5195447,44.007458 72.6100433,44.0941859 C72.7005419,44.1796568 72.7395066,44.2814677 72.7294512,44.3996186 C72.7074871,44.6947005 72.6230861,44.9817499 72.481837,45.2417584 C72.3115688,45.5683444 72.0788237,45.8583148 71.7968128,46.0952105 C71.4951508,46.3566509 71.123101,46.5791266 70.6819204,46.7613807 C70.2419966,46.9436348 69.7291712,47.0341334 69.1447011,47.0341334 C68.6125964,47.0441839 68.0840138,46.9458231 67.5911418,46.7450407 C67.1586185,46.5650716 66.7682487,46.2971203 66.4448262,45.9582056 C66.12663,45.6181941 65.8777303,45.2194423 65.7120389,44.7842377 C65.5341233,44.3221245 65.4343024,43.8336389 65.4166615,43.3387739 C65.4045033,43.1273704 65.3965412,42.9157463 65.39278,42.7040268 C65.3877523,42.4526418 65.3952938,42.2351938 65.4179185,42.0529397 C65.459397,41.5376004 65.5687495,41.0561981 65.743462,40.6074759 C65.9194315,40.1562398 66.1607611,39.7653362 66.4687078,39.433508 C66.7766544,39.1004228 67.1537319,38.8389824 67.5999403,38.645416 C68.0448917,38.4531065 68.560231,38.3563232 69.1447011,38.3563232 C69.7291712,38.3563232 70.2407397,38.4468218 70.6819204,38.629076 C71.1218441,38.8113301 71.4951508,39.0338058 71.7968128,39.2965031 C72.0997318,39.5592005 72.3284921,39.8432655 72.481837,40.1486983 C72.6364387,40.4541311 72.7181389,40.7344253 72.7294512,40.990838 C72.741531,41.1063551 72.6970539,41.2205909 72.6100433,41.2975277 C72.5276644,41.3797602 72.4159805,41.4258806 72.2995828,41.4257341 L71.8219513,41.4257341 C71.7165107,41.4295677 71.6127307,41.3986545 71.526574,41.3377493 C71.4473877,41.2786739 71.3694583,41.1630368 71.2952998,40.992095 C71.0941918,40.5421158 70.8126406,40.220343 70.4506462,40.0280335 C70.0899087,39.834467 69.6550126,39.7389407 69.1447011,39.7389407 C68.8794899,39.7389407 68.6167926,39.78419 68.3566091,39.8746886 C68.095501,39.9665106 67.8565651,40.1120987 67.655245,40.3020431 C67.4478523,40.4943527 67.2731398,40.74071 67.1298503,41.0398581 C66.97492,41.38488 66.8854175,41.7556761 66.8658961,42.1333829 C66.8340091,42.5076876 66.8340091,42.884026 66.8658961,43.2583307 Z M76.2098765,46.4396079 C76.2112891,46.5545303 76.1653831,46.6649773 76.0829271,46.7450407 C76.0046301,46.8280934 75.8954051,46.8749691 75.7812651,46.874504 L75.1905103,46.874504 C75.0763703,46.8749691 74.9671453,46.8280934 74.8888483,46.7450407 C74.80593,46.6651917 74.759558,46.5547172 74.760642,46.4396079 L74.760642,38.9521057 C74.760642,38.8339547 74.8033774,38.7321438 74.8875914,38.6466729 C74.966405,38.5637629 75.0761235,38.517326 75.1905103,38.5184666 L75.7812651,38.5184666 C75.8969022,38.5184666 75.9974562,38.561202 76.0829271,38.6466729 C76.168398,38.7321438 76.2098765,38.8352117 76.2098765,38.9521057 L76.2098765,46.4408648 L76.2098765,46.4396079 Z M76.369506,36.8140763 C76.3705729,36.9285637 76.3246943,37.0384906 76.2425565,37.1182521 C76.1639609,37.2016254 76.0542139,37.2485298 75.9396376,37.2477154 L75.0308808,37.2477154 C74.9167408,37.2481805 74.8075158,37.2013048 74.7292188,37.1182521 C74.6466188,37.0387044 74.6002744,36.92875 74.6010125,36.8140763 L74.6010125,35.896521 C74.6010125,35.779627 74.6437479,35.6778161 74.7292188,35.5923452 C74.8077331,35.5097558 74.9169297,35.4633473 75.0308808,35.4641388 L75.9396376,35.4641388 C76.0565316,35.4641388 76.1570856,35.5068743 76.2412996,35.5923452 C76.3267705,35.6778161 76.369506,35.779627 76.369506,35.897778 L76.369506,36.8140763 Z M78.3365936,41.8920533 C78.379329,41.3993387 78.4962231,40.9380472 78.6885326,40.5094358 C78.8783283,40.0820813 79.1284563,39.7062607 79.436403,39.3844879 C79.7443496,39.063972 80.1138855,38.8113301 80.542497,38.6303329 C81.0000458,38.4425068 81.4908963,38.3492965 81.9854469,38.3563232 C82.5586047,38.3563232 83.0714301,38.4505926 83.5226661,38.6378744 C83.9751591,38.8251563 84.3585213,39.0953951 84.6777802,39.4485911 C84.9957822,39.8030439 85.2408826,40.2316553 85.4105675,40.7344253 C85.5802524,41.2384523 85.6657233,41.8002977 85.6657233,42.4224756 L85.6657233,42.8561147 C85.6668073,42.971224 85.6204353,43.0816985 85.5375169,43.1615475 C85.4590026,43.2441369 85.3498061,43.2905454 85.2358549,43.2897539 L79.7556619,43.2897539 L79.7556619,43.3865371 C79.7757727,44.1155536 79.9969915,44.6748852 80.4155475,45.0657889 C80.8353605,45.4566926 81.3582413,45.6527729 81.9854469,45.6527729 C82.569917,45.6527729 83.0073269,45.5698158 83.3001904,45.4039017 C83.591797,45.2379876 83.8280989,45.0519627 84.0090961,44.8495978 C84.0737025,44.7794362 84.1487431,44.7196581 84.2315718,44.6723714 C84.3223751,44.6353986 84.4202646,44.6190837 84.5181507,44.6246082 L84.9957822,44.6246082 C85.1146777,44.6249622 85.2289224,44.67084 85.3150412,44.7528146 C85.4062229,44.8259041 85.4493134,44.9435558 85.4269075,45.0582473 C85.3803187,45.2860293 85.2879532,45.5019764 85.1554117,45.6929945 C84.9836373,45.946445 84.7647287,46.1645001 84.5106092,46.3352831 C84.229058,46.5338773 83.8783759,46.6997914 83.458563,46.8342824 C83.0400069,46.9675164 82.5485493,47.0353904 81.9854469,47.0353904 C81.4537676,47.0353904 80.9761361,46.941121 80.5525524,46.7538392 C80.1356958,46.5722901 79.758914,46.3099952 79.4439445,45.9820872 C79.1309702,45.6552867 78.8783283,45.2694107 78.6872757,44.8257162 C78.4916008,44.3629756 78.3731348,43.8712782 78.3365936,43.3701971 C78.2835142,42.878912 78.2835142,42.3833383 78.3365936,41.8920533 Z M79.754405,41.9398164 L84.2315718,41.9398164 L84.2315718,41.8920533 C84.2315718,41.2384523 84.0266931,40.7155715 83.6181924,40.3246678 C83.2096918,39.935021 82.6654433,39.7389407 81.9841899,39.7389407 C81.6775002,39.7389407 81.3909213,39.7892177 81.1244532,39.8910287 C80.8653152,39.989098 80.6275832,40.1363468 80.424346,40.3246678 C80.223238,40.5132065 80.0636085,40.739453 79.9467145,41.008435 C79.8269221,41.288039 79.7616489,41.5879543 79.754405,41.8920533 L79.754405,41.9398164 Z M95.0725499,46.4396079 C95.0739625,46.5545303 95.0280566,46.6649773 94.9456005,46.7450407 C94.8673035,46.8280934 94.7580786,46.8749691 94.6439385,46.874504 L94.0531838,46.874504 C93.9390437,46.8749691 93.8298188,46.8280934 93.7515218,46.7450407 C93.6686034,46.6651917 93.6222314,46.5547172 93.6233154,46.4396079 L93.6233154,42.197486 C93.6233154,41.3729432 93.4272351,40.7557931 93.0338176,40.3498063 C92.6404001,39.9425626 92.0936377,39.7389407 91.3922736,39.7389407 C90.7235895,39.7389407 90.1856256,39.9425626 89.775868,40.3485494 C89.3673674,40.7557931 89.1624886,41.3729432 89.1624886,42.1962291 L89.1624886,46.4396079 C89.1639012,46.5545303 89.1179952,46.6649773 89.0355392,46.7450407 C88.9569436,46.828414 88.8471965,46.8753184 88.7326203,46.874504 L88.1418655,46.874504 C88.0277255,46.8749691 87.9185005,46.8280934 87.8402035,46.7450407 C87.7577475,46.6649773 87.7118415,46.5545303 87.7132541,46.4396079 L87.7132541,38.9521057 C87.7132541,38.8339547 87.7547326,38.7321438 87.8389466,38.6466729 C87.9180589,38.5634407 88.0283002,38.5169753 88.1431224,38.5184666 L88.7326203,38.5184666 C88.8495143,38.5184666 88.9500683,38.561202 89.0342823,38.6466729 C89.1197532,38.7321438 89.1624886,38.8352117 89.1624886,38.9521057 L89.1624886,39.449848 C89.3635966,39.182123 89.6652586,38.9345087 90.0624469,38.7032345 C90.4608921,38.4732173 90.9837729,38.3575802 91.6323462,38.3575802 C92.1313454,38.3575802 92.5926369,38.4405372 93.0174776,38.6064513 C93.4423182,38.7723654 93.8068265,39.0086673 94.1097454,39.3141001 C94.4114074,39.6195329 94.6477093,39.9966104 94.8186511,40.4465895 C94.988336,40.8965687 95.0725499,41.4005956 95.0725499,41.9574134 L95.0725499,46.4408648 L95.0725499,46.4396079 Z M98.5693153,43.2583307 C98.6120507,43.6856852 98.7050632,44.0501935 98.8483526,44.3518555 C98.9916421,44.6510036 99.1676116,44.8973609 99.3750042,45.0896705 C99.5811399,45.2832369 99.8124141,45.4252694 100.066313,45.517025 C100.322726,45.6075236 100.581652,45.6527729 100.84812,45.6527729 C101.358432,45.6527729 101.793328,45.5559896 102.155322,45.3636801 C102.51606,45.1701137 102.796354,44.8483409 102.998719,44.3996186 C103.074134,44.2274199 103.14955,44.1130397 103.229993,44.0539643 C103.315804,43.9933233 103.419099,43.9624231 103.524114,43.9659795 L104.001745,43.9659795 C104.119896,43.9659795 104.222964,44.007458 104.313463,44.0941859 C104.403961,44.1796568 104.442926,44.2814677 104.43287,44.3996186 C104.410906,44.6947005 104.326505,44.9817499 104.185256,45.2417584 C104.014988,45.5683444 103.782243,45.8583148 103.500232,46.0952105 C103.19857,46.3566509 102.82652,46.5791266 102.38534,46.7613807 C101.945416,46.9436348 101.43259,47.0341334 100.84812,47.0341334 C100.316016,47.0441839 99.787433,46.9458231 99.294561,46.7450407 C98.8620377,46.5650716 98.4716679,46.2971203 98.1482454,45.9582056 C97.8300492,45.6181941 97.5811495,45.2194423 97.4154581,44.7842377 C97.2375426,44.3221245 97.1377216,43.8336389 97.1200808,43.3387739 C97.1079225,43.1273704 97.0999605,42.9157463 97.0961992,42.7040268 C97.0911715,42.4526418 97.098713,42.2351938 97.1213377,42.0529397 C97.1628162,41.5376004 97.2721687,41.0561981 97.4468813,40.6074759 C97.6228508,40.1562398 97.8641804,39.7653362 98.172127,39.433508 C98.4800736,39.1004228 98.8571511,38.8389824 99.3033595,38.645416 C99.7483109,38.4531065 100.26365,38.3563232 100.84812,38.3563232 C101.43259,38.3563232 101.944159,38.4468218 102.38534,38.629076 C102.825263,38.8113301 103.19857,39.0338058 103.500232,39.2965031 C103.803151,39.5592005 104.031911,39.8432655 104.185256,40.1486983 C104.339858,40.4541311 104.421558,40.7344253 104.43287,40.990838 C104.44495,41.1063551 104.400473,41.2205909 104.313463,41.2975277 C104.231084,41.3797602 104.1194,41.4258806 104.003002,41.4257341 L103.525371,41.4257341 C103.41993,41.4295677 103.31615,41.3986545 103.229993,41.3377493 C103.14955,41.2786739 103.072878,41.1630368 102.998719,40.992095 C102.797611,40.5421158 102.51606,40.220343 102.154065,40.0280335 C101.793328,39.834467 101.358432,39.7389407 100.84812,39.7389407 C100.582909,39.7389407 100.320212,39.78419 100.060028,39.8746886 C99.7989203,39.9665106 99.5599844,40.1120987 99.3586642,40.3020431 C99.1512716,40.4943527 98.976559,40.74071 98.8332695,41.0398581 C98.6783392,41.38488 98.5888367,41.7556761 98.5693153,42.1333829 C98.5374283,42.5076876 98.5374283,42.884026 98.5693153,43.2583307 Z M106.081956,41.8920533 C106.123435,41.3993387 106.240329,40.9380472 106.432638,40.5094358 C106.623691,40.0820813 106.872562,39.7062607 107.180508,39.3844879 C107.488455,39.063972 107.857991,38.8113301 108.287859,38.6303329 C108.745018,38.4426736 109.235424,38.3494665 109.729552,38.3563232 C110.303967,38.3563232 110.815536,38.4505926 111.266772,38.6378744 C111.719265,38.8251563 112.103884,39.0953951 112.423143,39.4485911 C112.741145,39.8030439 112.984988,40.2316553 113.154673,40.7344253 C113.325615,41.2384523 113.409829,41.8002977 113.409829,42.4224756 L113.409829,42.8561147 C113.411241,42.9710371 113.365335,43.0814841 113.282879,43.1615475 C113.204066,43.2444576 113.094347,43.2908944 112.97996,43.2897539 L107.499767,43.2897539 L107.499767,43.3865371 C107.521135,44.1155536 107.741097,44.6748852 108.16091,45.0657889 C108.580723,45.4566926 109.103604,45.6527729 109.729552,45.6527729 C110.314022,45.6527729 110.752689,45.5698158 111.044296,45.4039017 C111.335902,45.2379876 111.572204,45.0519627 111.753202,44.8495978 C111.817808,44.7794362 111.892849,44.7196581 111.975677,44.6723714 C112.066868,44.6352138 112.165208,44.6188954 112.263513,44.6246082 L112.741145,44.6246082 C112.859605,44.6252826 112.973343,44.6711375 113.059147,44.7528146 C113.150328,44.8259041 113.193419,44.9435558 113.171013,45.0582473 C113.124806,45.2859341 113.032871,45.5018747 112.900774,45.6929945 C112.72863,45.9465629 112.509286,46.1646259 112.254715,46.3352831 C111.973163,46.5338773 111.622481,46.6997914 111.203925,46.8342824 C110.784112,46.9675164 110.292655,47.0353904 109.729552,47.0353904 C109.19913,47.0353904 108.720242,46.941121 108.296658,46.7538392 C107.88025,46.5721463 107.503907,46.3098593 107.189307,45.9820872 C106.875076,45.6552867 106.623691,45.2694107 106.432638,44.8257162 C106.236531,44.3630494 106.11764,43.8713494 106.080699,43.3701971 C106.02762,42.878912 106.02762,42.3833383 106.080699,41.8920533 L106.081956,41.8920533 Z M107.499767,41.9398164 L111.975677,41.9398164 L111.975677,41.8920533 C111.975677,41.2384523 111.772055,40.7155715 111.362298,40.3246678 C110.953797,39.935021 110.409549,39.7389407 109.729552,39.7389407 C109.421606,39.7389407 109.135027,39.7892177 108.869816,39.8910287 C108.610231,39.9889537 108.372061,40.1362095 108.168452,40.3246678 C107.967344,40.5132065 107.807714,40.739453 107.69082,41.008435 C107.571459,41.2881244 107.506613,41.5880364 107.499767,41.8920533 L107.499767,41.9398164 Z M24.5527729,57.1435812 L0.016340025,42.8737117 L0,14.3000357 L24.5213498,0 L49.0565258,14.2711264 L49.0741227,42.8435455 L24.5527729,57.1435812 Z M43.3387739,19.1216 C42.3118662,19.1216 41.4797819,19.9612259 41.4797819,20.9944182 C41.4797819,22.0313814 42.3118662,22.8710073 43.3400309,22.8710073 C44.3644247,22.8710073 45.1965091,22.0313814 45.1965091,20.9944182 C45.1965091,19.9612259 44.3644247,19.1216 43.3400309,19.1216 L43.3387739,19.1216 Z M35.9028057,19.1216 C34.8771549,19.1216 34.0463274,19.9612259 34.0463274,20.9944182 C34.0463274,22.0313814 34.8758979,22.8710073 35.9028057,22.8710073 C36.9309703,22.8710073 37.7617977,22.0313814 37.7617977,20.9944182 C37.7617977,19.9612259 36.9309703,19.1216 35.9028057,19.1216 Z M43.3387739,26.8290641 C42.3118662,26.8290641 41.4810388,27.66869 41.4810388,28.7031393 C41.4810388,29.7388455 42.3106093,30.5772144 43.3387739,30.5772144 C44.3644247,30.5772144 45.1965091,29.7388455 45.1965091,28.7043962 C45.1965091,27.66869 44.3644247,26.8290641 43.3387739,26.8290641 Z M21.0346398,26.8290641 C20.0077321,26.8290641 19.1743908,27.66869 19.1743908,28.7031393 C19.1743908,29.7388455 20.0077321,30.5772144 21.0346398,30.5772144 C22.0615476,30.5772144 22.8948888,29.7388455 22.8948888,28.7043962 C22.8948888,27.66869 22.0615476,26.8290641 21.0346398,26.8290641 Z M35.9040626,26.8290641 L28.4680943,26.8290641 C27.4399296,26.8290641 26.6103591,27.66869 26.6103591,28.7031393 C26.6103591,29.7388455 27.4399296,30.5772144 28.4680943,30.5772144 L35.9040626,30.5772144 C36.9284564,30.5772144 37.7605408,29.7388455 37.7605408,28.7043962 C37.7605408,27.66869 36.9284564,26.8290641 35.9040626,26.8290641 Z M13.5999285,26.8290641 L6.16396019,26.8290641 C5.13956632,26.8290641 4.30622504,27.66869 4.30622504,28.7031393 C4.30622504,29.7388455 5.13956632,30.5772144 6.16396019,30.5772144 L13.5999285,30.5772144 C14.6255793,30.5772144 15.4576636,29.7388455 15.4576636,28.7043962 C15.4576636,27.66869 14.6255793,26.8290641 13.5999285,26.8290641 Z M43.3412878,34.5352713 C42.3131231,34.5352713 41.4810388,35.3748972 41.4810388,36.4093464 C41.4810388,37.4463095 42.3131231,38.2846785 43.3412878,38.2846785 C44.3644247,38.2846785 45.1965091,37.4463095 45.1965091,36.4093464 C45.1965091,35.3748972 44.3644247,34.5365282 43.3412878,34.5365282 L43.3412878,34.5352713 Z M35.9040626,38.2846785 C36.9309703,38.2846785 37.7617977,37.4463095 37.7617977,36.4093464 C37.7617977,35.3748972 36.9309703,34.5365282 35.9040626,34.5365282 C34.8771549,34.5365282 34.0450705,35.3748972 34.0450705,36.4093464 C34.0450705,37.4463095 34.8771549,38.2846785 35.9053195,38.2846785 L35.9040626,38.2846785 Z M28.4693512,38.2846785 C29.4975159,38.2846785 30.3296002,37.4463095 30.3296002,36.4093464 C30.3296002,35.3748972 29.4975159,34.5365282 28.4693512,34.5365282 C27.4424435,34.5365282 26.612873,35.3748972 26.612873,36.4093464 C26.612873,37.4463095 27.4424435,38.2846785 28.4693512,38.2846785 Z"/>
</svg>
