<svg id="ARTWORK" xmlns="http://www.w3.org/2000/svg" width="208.97" height="70" viewBox="0 0 208.97 70">
  <g id="Group_17" data-name="Group 17">
    <path id="Path_144" data-name="Path 144" d="M0,0V46.67L23.33,70H70V46.67H23.33V0ZM46.67,0H23.34L46.67,23.33H70V0Z" fill="#ffc000"/>
    <g id="Group_16" data-name="Group 16" transform="translate(80.057 0.11)">
      <rect id="Rectangle_13" data-name="Rectangle 13" width="128.22" height="26.68" transform="translate(0.693 23.93)" fill="#ffc000"/>
      <g id="Group_15" data-name="Group 15">
        <path id="Path_145" data-name="Path 145" d="M171.39,33.17h4.53a.268.268,0,0,0,.28-.28v-1.4a.267.267,0,0,0-.28-.28h-3.08a.546.546,0,0,0-.43.18l-1.23,1.23c-.25.25-.13.55.2.55m5.05,6.85-.95-.93a.254.254,0,0,0-.4,0l-2.6,2.6H171.4a.857.857,0,0,1-.93-.93V28.26a.286.286,0,0,0-.28-.28h-1.4a.286.286,0,0,0-.28.28v2.95h-1.65a.286.286,0,0,0-.28.28v1.4a.286.286,0,0,0,.28.28h1.65V40.3a.568.568,0,0,0,.2.45l2.73,2.73a.561.561,0,0,0,.45.18h1.05a.6.6,0,0,0,.48-.2l3-3.03a.254.254,0,0,0,0-.4m-13.95,3.63h1.4a.245.245,0,0,0,.25-.28V31.5a.261.261,0,0,0-.25-.28h-1.4a.268.268,0,0,0-.28.28V43.38a.253.253,0,0,0,.28.28m-5.75,0h3.08a.5.5,0,0,0,.45-.18l1.23-1.23c.25-.25.13-.55-.2-.55h-5.03a.872.872,0,0,1-.95-.93V31.49a.261.261,0,0,0-.25-.28h-1.4a.267.267,0,0,0-.28.28v8.8a.574.574,0,0,0,.18.45l2.73,2.73a.561.561,0,0,0,.45.18m-6.88-9.53-2.73-2.73a.6.6,0,0,0-.45-.18h-3.7a.618.618,0,0,0-.45.18l-1.23,1.23a.306.306,0,0,0,.23.55h5.6a.882.882,0,0,1,.95.95v6.65a.863.863,0,0,1-.95.93h-5.58c-.6,0-.95-.25-.95-.9V31.5a.261.261,0,0,0-.25-.28h-1.4a.268.268,0,0,0-.28.28V48.38a.253.253,0,0,0,.28.28h1.4a.245.245,0,0,0,.25-.28V42.13l1.35,1.35a.561.561,0,0,0,.45.18h4.28a.574.574,0,0,0,.45-.18l2.73-2.73a.561.561,0,0,0,.18-.45V34.57a.548.548,0,0,0-.18-.45m-16.23,9.53H135a.253.253,0,0,0,.28-.28v-8.8a.574.574,0,0,0-.18-.45l-2.73-2.73a.546.546,0,0,0-.43-.18h-3.48a.546.546,0,0,0-.43.18l-1.23,1.23c-.25.25-.13.55.2.55h5.38a.892.892,0,0,1,.95.95v9.25a.253.253,0,0,0,.28.28m-8.13,0h1.4a.267.267,0,0,0,.28-.28v-8.8a.574.574,0,0,0-.18-.45l-2.73-2.73a.6.6,0,0,0-.45-.18h-2.38a.618.618,0,0,0-.45.18l-1.23,1.23a.306.306,0,0,0,.23.55h4.28a.882.882,0,0,1,.95.95v9.25a.267.267,0,0,0,.28.28m-8.1,0h1.4a.245.245,0,0,0,.25-.28V31.49a.261.261,0,0,0-.25-.28h-1.4a.267.267,0,0,0-.28.28V43.37a.253.253,0,0,0,.28.28M105.7,41.7a.857.857,0,0,1-.93-.93V34.12a.872.872,0,0,1,.93-.95h5.6a.877.877,0,0,1,.93.95v5.35l-2.18,2.23H105.7Zm.48,1.95h4.3a.576.576,0,0,0,.48-.2l3.03-3a.673.673,0,0,0,.2-.48v-5.4a.548.548,0,0,0-.18-.45l-2.73-2.73a.6.6,0,0,0-.45-.18h-4.65a.574.574,0,0,0-.45.18L103,34.12a.6.6,0,0,0-.18.45V40.3a.574.574,0,0,0,.18.45l2.73,2.73a.6.6,0,0,0,.45.18m-17.13,0h6.6a.548.548,0,0,0,.45-.18l3.9-3.9a.278.278,0,0,0,0-.38l-.98-.98a.254.254,0,0,0-.4.03L95.17,41.7H88.59a.863.863,0,0,1-.95-.93V31.39l3.3-3.3h6.1a.872.872,0,0,1,.95.93V31.6a.267.267,0,0,0,.28.28h1.4a.267.267,0,0,0,.28-.28l-.03-2.1a.574.574,0,0,0-.18-.45l-2.73-2.73a.6.6,0,0,0-.45-.18h-6.1a.548.548,0,0,0-.45.18l-4.13,4.13a.577.577,0,0,0-.2.45v9.4a.574.574,0,0,0,.18.45l2.73,2.73a.6.6,0,0,0,.45.18" transform="translate(-80.057 -0.11)" fill="#120540"/>
        <path id="Path_146" data-name="Path 146" d="M171.39,33.17h4.53a.268.268,0,0,0,.28-.28v-1.4a.268.268,0,0,0-.28-.28h-3.08a.546.546,0,0,0-.43.18l-1.23,1.23c-.25.25-.13.55.2.55Zm5.05,6.85-.95-.93a.254.254,0,0,0-.4,0l-2.6,2.6h-1.08a.857.857,0,0,1-.93-.93V28.26a.286.286,0,0,0-.28-.28h-1.4a.286.286,0,0,0-.28.28v2.95h-1.65a.286.286,0,0,0-.28.28v1.4a.286.286,0,0,0,.28.28h1.65V40.3a.568.568,0,0,0,.2.45l2.73,2.73a.561.561,0,0,0,.45.18h1.05a.6.6,0,0,0,.48-.2l3-3.03a.254.254,0,0,0,0-.4Zm-13.95,3.63h1.4a.245.245,0,0,0,.25-.28V31.49a.261.261,0,0,0-.25-.28h-1.4a.268.268,0,0,0-.28.28V43.37A.253.253,0,0,0,162.49,43.65Zm-5.75,0h3.08a.5.5,0,0,0,.45-.18l1.23-1.23c.25-.25.13-.55-.2-.55h-5.03a.872.872,0,0,1-.95-.93V31.48a.261.261,0,0,0-.25-.28h-1.4a.267.267,0,0,0-.28.28v8.8a.574.574,0,0,0,.18.45l2.73,2.73a.561.561,0,0,0,.45.18Zm-6.88-9.53-2.73-2.73a.6.6,0,0,0-.45-.18h-3.7a.618.618,0,0,0-.45.18l-1.23,1.23a.306.306,0,0,0,.23.55h5.6a.882.882,0,0,1,.95.95v6.65a.863.863,0,0,1-.95.93h-5.58c-.6,0-.95-.25-.95-.9V31.5a.261.261,0,0,0-.25-.28h-1.4a.268.268,0,0,0-.28.28V48.38a.253.253,0,0,0,.28.28h1.4a.245.245,0,0,0,.25-.28V42.13l1.35,1.35a.561.561,0,0,0,.45.18h4.28a.574.574,0,0,0,.45-.18l2.73-2.73a.561.561,0,0,0,.18-.45V34.57a.548.548,0,0,0-.18-.45Zm-16.23,9.53h1.38a.253.253,0,0,0,.28-.28v-8.8a.574.574,0,0,0-.18-.45l-2.73-2.73a.546.546,0,0,0-.43-.18h-3.48a.546.546,0,0,0-.43.18l-1.23,1.23c-.25.25-.13.55.2.55h5.38a.892.892,0,0,1,.95.95v9.25a.253.253,0,0,0,.28.28Zm-8.13,0h1.4a.267.267,0,0,0,.28-.28v-8.8a.574.574,0,0,0-.18-.45l-2.73-2.73a.6.6,0,0,0-.45-.18h-2.38a.618.618,0,0,0-.45.18l-1.23,1.23a.306.306,0,0,0,.23.55h4.28a.882.882,0,0,1,.95.95v9.25A.267.267,0,0,0,125.5,43.65Zm-8.1,0h1.4a.245.245,0,0,0,.25-.28V31.49a.261.261,0,0,0-.25-.28h-1.4a.267.267,0,0,0-.28.28V43.37A.253.253,0,0,0,117.4,43.65ZM105.72,41.7a.857.857,0,0,1-.93-.93V34.12a.872.872,0,0,1,.93-.95h5.6a.877.877,0,0,1,.93.95v5.35l-2.18,2.23h-4.35Zm.48,1.95h4.3a.576.576,0,0,0,.48-.2l3.03-3a.673.673,0,0,0,.2-.48v-5.4a.548.548,0,0,0-.18-.45l-2.73-2.73a.6.6,0,0,0-.45-.18H106.2a.574.574,0,0,0-.45.18l-2.73,2.73a.6.6,0,0,0-.18.45V40.3a.574.574,0,0,0,.18.45l2.73,2.73a.6.6,0,0,0,.45.18Zm-17.13,0h6.6a.548.548,0,0,0,.45-.18l3.9-3.9a.278.278,0,0,0,0-.38l-.98-.98a.254.254,0,0,0-.4.03l-3.45,3.45H88.61a.863.863,0,0,1-.95-.93V31.38l3.3-3.3h6.1a.872.872,0,0,1,.95.93v2.58a.267.267,0,0,0,.28.28h1.4a.267.267,0,0,0,.28-.28l-.03-2.1a.574.574,0,0,0-.18-.45l-2.73-2.73a.6.6,0,0,0-.45-.18h-6.1a.548.548,0,0,0-.45.18L85.9,30.44a.577.577,0,0,0-.2.45v9.4a.574.574,0,0,0,.18.45l2.73,2.73a.6.6,0,0,0,.45.18Z" transform="translate(-80.057 -0.11)" fill="none" stroke="#120540" stroke-miterlimit="1.34" stroke-width="0.15"/>
        <path id="Path_147" data-name="Path 147" d="M201.78,37.01h1.4a.286.286,0,0,0,.28-.28v-2.2a.531.531,0,0,0-.2-.45l-2.7-2.73a.634.634,0,0,0-.45-.18h-1.63a.618.618,0,0,0-.45.18l-1.2,1.23c-.25.25-.13.55.2.55h3.53a.892.892,0,0,1,.95.95v2.65a.267.267,0,0,0,.28.28m-7.33,6.6h1.4a.245.245,0,0,0,.25-.28V31.45a.261.261,0,0,0-.25-.28h-1.4a.267.267,0,0,0-.28.28V43.33a.253.253,0,0,0,.28.28m-10.53-5.08h3.35a.576.576,0,0,0,.48-.2l2.98-2.95a.673.673,0,0,0,.2-.48v-.4a.546.546,0,0,0-.18-.43l-2.73-2.73a.6.6,0,0,0-.45-.18h-4.63a.548.548,0,0,0-.45.18l-2.73,2.73a.582.582,0,0,0-.2.45v5.75a.546.546,0,0,0,.18.43l2.73,2.73a.6.6,0,0,0,.45.18h4.58a.548.548,0,0,0,.45-.18l2.73-2.73a.582.582,0,0,0,.2-.45V39.4a.286.286,0,0,0-.28-.28h-1.4a.268.268,0,0,0-.28.28v1.33a.877.877,0,0,1-.95.93h-5.53a.857.857,0,0,1-.93-.93V34.08a.872.872,0,0,1,.93-.95h5.6a.877.877,0,0,1,.93.95v.55l-1.95,1.95h-4.55c-.33,0-.45.3-.2.55l1.2,1.23a.634.634,0,0,0,.45.18" transform="translate(-80.057 -0.11)" fill="#120540"/>
        <path id="Path_148" data-name="Path 148" d="M201.78,37.01h1.4a.286.286,0,0,0,.28-.28v-2.2a.531.531,0,0,0-.2-.45l-2.7-2.73a.634.634,0,0,0-.45-.18h-1.63a.618.618,0,0,0-.45.18l-1.2,1.23c-.25.25-.13.55.2.55h3.53a.892.892,0,0,1,.95.95v2.65a.267.267,0,0,0,.28.28Zm-7.33,6.6h1.4a.245.245,0,0,0,.25-.28V31.45a.261.261,0,0,0-.25-.28h-1.4a.267.267,0,0,0-.28.28V43.33A.253.253,0,0,0,194.45,43.61Zm-10.53-5.08h3.35a.576.576,0,0,0,.48-.2l2.98-2.95a.673.673,0,0,0,.2-.48v-.4a.546.546,0,0,0-.18-.43l-2.73-2.73a.6.6,0,0,0-.45-.18h-4.63a.548.548,0,0,0-.45.18l-2.73,2.73a.582.582,0,0,0-.2.45v5.75a.546.546,0,0,0,.18.43l2.73,2.73a.6.6,0,0,0,.45.18h4.58a.548.548,0,0,0,.45-.18l2.73-2.73a.582.582,0,0,0,.2-.45V39.4a.286.286,0,0,0-.28-.28h-1.4a.268.268,0,0,0-.28.28v1.33a.877.877,0,0,1-.95.93h-5.53a.857.857,0,0,1-.93-.93V34.08a.872.872,0,0,1,.93-.95h5.6a.877.877,0,0,1,.93.95v.55l-1.95,1.95h-4.55c-.33,0-.45.3-.2.55l1.2,1.23a.634.634,0,0,0,.45.18Z" transform="translate(-80.057 -0.11)" fill="none" stroke="#120540" stroke-miterlimit="1.34" stroke-width="0.15"/>
        <path id="Path_149" data-name="Path 149" d="M153.55,62.44c.19-2.44,1.61-3.82,3.95-3.82,2.09,0,3.41,1.41,3.53,3.82Zm3.95,7.11c2.95,0,4.92-1.51,5.41-3.68.02-.1-.05-.17-.19-.17h-1.56a.2.2,0,0,0-.22.17c-.41,1.24-1.63,2.02-3.43,2.02-2.39,0-3.8-1.49-3.95-3.95h9.23a.174.174,0,0,0,.19-.19v-.49c0-3.92-2.07-6.31-5.48-6.31-3.65,0-6.02,2.46-6.02,6.31s2.34,6.28,6.02,6.28m-12.96,0c2.9,0,4.92-1.61,5.38-3.99.02-.12-.07-.17-.19-.17h-1.56a.2.2,0,0,0-.22.17,3.15,3.15,0,0,1-3.41,2.34c-2.48,0-3.99-1.73-3.99-4.63s1.51-4.65,3.99-4.65a3.026,3.026,0,0,1,3.29,2.34c.05.15.1.19.22.19h1.58a.173.173,0,0,0,.19-.22c-.41-2.39-2.46-3.97-5.29-3.97-3.63,0-6.04,2.53-6.04,6.31s2.36,6.28,6.04,6.28m-18.36-.12h1.66a.169.169,0,0,0,.17-.19V62.39c0-2.44,1.14-3.7,3.29-3.7s3.14,1.19,3.14,3.7v6.84a.174.174,0,0,0,.19.19h1.63a.174.174,0,0,0,.19-.19V62.39c0-3.56-1.56-5.43-4.41-5.43a4.435,4.435,0,0,0-4.04,2.26h-.07V57.27a.174.174,0,0,0-.19-.19h-1.56a.169.169,0,0,0-.17.19V69.23a.169.169,0,0,0,.17.19m-11.88-6.99c.19-2.44,1.61-3.82,3.95-3.82,2.09,0,3.41,1.41,3.53,3.82h-7.48Zm3.95,7.11c2.95,0,4.92-1.51,5.41-3.68.02-.1-.05-.17-.19-.17H121.9a.2.2,0,0,0-.22.17c-.41,1.24-1.63,2.02-3.43,2.02-2.39,0-3.8-1.49-3.95-3.95h9.23a.174.174,0,0,0,.19-.19v-.49c0-3.92-2.07-6.31-5.48-6.31-3.65,0-6.02,2.46-6.02,6.31s2.34,6.28,6.02,6.28M107.69,54.38a.169.169,0,0,0,.19.17h2.14a.163.163,0,0,0,.17-.17V52.24a.169.169,0,0,0-.17-.19h-2.14a.174.174,0,0,0-.19.19Zm.41,15.03h1.66a.169.169,0,0,0,.17-.19V57.26a.169.169,0,0,0-.17-.19H108.1a.169.169,0,0,0-.17.19V69.22a.169.169,0,0,0,.17.19m-7.84.12c2.9,0,4.92-1.61,5.38-3.99.02-.12-.07-.17-.2-.17h-1.56a.2.2,0,0,0-.22.17,3.15,3.15,0,0,1-3.41,2.34c-2.48,0-3.99-1.73-3.99-4.63s1.51-4.65,3.99-4.65a3.026,3.026,0,0,1,3.29,2.34c.05.15.1.19.22.19h1.58a.173.173,0,0,0,.19-.22c-.41-2.39-2.46-3.97-5.28-3.97-3.63,0-6.04,2.53-6.04,6.31s2.36,6.28,6.04,6.28m-13.69,0c3.6,0,5.87-1.83,5.87-4.8,0-2.75-1.27-4.07-4.7-4.7l-1.8-.32c-2.46-.49-3.46-1.32-3.46-3s1.29-2.73,3.58-2.73,3.6,1,3.92,3.02c.05.17.12.19.22.19h1.66c.12,0,.22-.07.19-.19-.37-3-2.58-4.77-5.99-4.77s-5.65,1.75-5.65,4.63c0,2.63,1.51,4.09,4.87,4.72l1.8.32c2.48.49,3.26,1.19,3.26,2.87,0,1.88-1.44,3-3.77,3-2.65,0-4.04-1.05-4.46-3.48-.02-.15-.07-.19-.19-.19H80.23c-.12,0-.19.07-.17.22.44,3.36,2.75,5.21,6.5,5.21" transform="translate(-80.057 -0.11)" fill="#fff"/>
        <path id="Path_150" data-name="Path 150" d="M131.41,17.27c2.9,0,4.92-1.61,5.38-3.99.02-.12-.07-.17-.19-.17h-1.56a.2.2,0,0,0-.22.17,3.15,3.15,0,0,1-3.41,2.34c-2.48,0-3.99-1.73-3.99-4.63s1.51-4.65,3.99-4.65a3.026,3.026,0,0,1,3.29,2.34c.05.15.1.19.22.19h1.58a.173.173,0,0,0,.19-.22c-.41-2.39-2.46-3.97-5.29-3.97-3.63,0-6.04,2.53-6.04,6.31s2.36,6.28,6.04,6.28m-18.51-6.28c0-2.85,1.51-4.65,3.9-4.65s3.92,1.83,3.92,4.65-1.51,4.63-3.92,4.63-3.9-1.78-3.9-4.63m3.39,6.28a4.919,4.919,0,0,0,4.36-2.41h.07v.8c0,.97.58,1.49,1.73,1.49h1.7a.174.174,0,0,0,.19-.19V15.72a.169.169,0,0,0-.19-.17h-1.49V5a.174.174,0,0,0-.19-.19h-1.63a.174.174,0,0,0-.19.19V7.14h-.07a4.852,4.852,0,0,0-4.29-2.46c-3.31,0-5.43,2.48-5.43,6.31s2.12,6.28,5.43,6.28m-17.9-6.28c0-2.85,1.51-4.65,3.9-4.65s3.92,1.83,3.92,4.65-1.51,4.63-3.92,4.63-3.9-1.78-3.9-4.63m3.39,6.28a4.919,4.919,0,0,0,4.36-2.41h.07v.8c0,.97.58,1.49,1.73,1.49h1.7a.174.174,0,0,0,.19-.19V15.72a.169.169,0,0,0-.19-.17h-1.49V5a.174.174,0,0,0-.19-.19h-1.63a.181.181,0,0,0-.2.19V7.14h-.07a4.852,4.852,0,0,0-4.29-2.46c-3.31,0-5.43,2.48-5.43,6.31s2.12,6.28,5.43,6.28m-11.47,0c2.87,0,4.48-1.32,4.48-3.6,0-2.02-.78-2.95-3.53-3.46l-1.41-.27c-1.66-.34-2.19-.85-2.19-1.88,0-1.12.88-1.8,2.36-1.8s2.27.56,2.51,1.85a.212.212,0,0,0,.22.2h1.58c.12,0,.2-.07.17-.22-.29-2.17-1.9-3.41-4.48-3.41s-4.34,1.39-4.34,3.51c0,1.97,1.07,3,3.58,3.48l1.32.24c1.7.34,2.24.78,2.24,1.85,0,1.19-.95,1.92-2.51,1.92-1.75,0-2.68-.68-2.97-2.17-.02-.12-.05-.19-.19-.19H85.57c-.12,0-.19.07-.17.22.27,2.41,2,3.73,4.9,3.73m-9.35-.12h1.7a.174.174,0,0,0,.19-.19V.3a.174.174,0,0,0-.19-.19h-1.7a.169.169,0,0,0-.17.19V16.96a.169.169,0,0,0,.17.19" transform="translate(-80.057 -0.11)" fill="#fff"/>
      </g>
    </g>
  </g>
</svg>
