<svg id="Layer_1-2" xmlns="http://www.w3.org/2000/svg" width="173.155" height="58" viewBox="0 0 173.155 58">
  <path id="Path_139" data-name="Path 139" d="M0,0V38.669L19.331,58H58V38.669H19.331V0ZM38.669,0H19.331L38.661,19.331H57.992V0H38.661Z" fill="#120540"/>
  <path id="Path_140" data-name="Path 140" d="M140.957,60.655a3.08,3.08,0,0,1,3.273-3.165c1.732,0,2.825,1.168,2.925,3.165Zm3.273,5.891c2.444,0,4.077-1.251,4.483-3.049.025-.083-.041-.141-.166-.141h-1.293a.161.161,0,0,0-.182.141,2.72,2.72,0,0,1-2.842,1.674,3.109,3.109,0,0,1-3.273-3.273h7.648a.152.152,0,0,0,.166-.166v-.406c0-3.248-1.715-5.228-4.541-5.228-3.024,0-4.988,2.038-4.988,5.228s1.939,5.2,4.988,5.2m-10.738,0a4.2,4.2,0,0,0,4.458-3.306c.017-.1-.058-.141-.157-.141H136.5a.166.166,0,0,0-.182.141,2.61,2.61,0,0,1-2.825,1.939c-2.063,0-3.306-1.433-3.306-3.836s1.251-3.853,3.306-3.853a2.507,2.507,0,0,1,2.726,1.939c.041.124.083.166.182.166h1.309a.151.151,0,0,0,.166-.182,4.1,4.1,0,0,0-4.375-3.289c-3.008,0-5,2.1-5,5.228s1.955,5.2,5,5.2m-15.213-.1h1.375c.083,0,.141-.058.141-.166V60.606c0-2.022.945-3.066,2.726-3.066s2.6.986,2.6,3.066v5.667a.152.152,0,0,0,.166.166h1.351a.152.152,0,0,0,.166-.166V60.606c0-2.95-1.293-4.5-3.654-4.5a3.674,3.674,0,0,0-3.347,1.873h-.058V56.363a.15.15,0,0,0-.157-.166H118.3c-.083,0-.141.058-.141.166v9.91a.147.147,0,0,0,.141.166m-9.852-5.792a3.08,3.08,0,0,1,3.273-3.165c1.732,0,2.825,1.168,2.925,3.165h-6.2Zm3.273,5.891c2.444,0,4.077-1.251,4.483-3.049.025-.083-.041-.141-.166-.141H114.75a.161.161,0,0,0-.182.141,2.72,2.72,0,0,1-2.842,1.674,3.109,3.109,0,0,1-3.273-3.273H116.1a.152.152,0,0,0,.166-.166v-.406c0-3.248-1.715-5.228-4.541-5.228-3.024,0-4.988,2.038-4.988,5.228s1.939,5.2,4.988,5.2m-8.741-12.553c0,.083.058.141.166.141h1.773a.135.135,0,0,0,.141-.141V52.2a.147.147,0,0,0-.141-.166H103.15a.152.152,0,0,0-.166.166Zm.34,12.453H104.7c.083,0,.141-.058.141-.166v-9.91a.147.147,0,0,0-.141-.166h-1.375c-.083,0-.141.058-.141.166v9.91a.147.147,0,0,0,.141.166m-6.5.1a4.2,4.2,0,0,0,4.458-3.306c.017-.1-.058-.141-.157-.141H99.835a.161.161,0,0,0-.182.141,2.61,2.61,0,0,1-2.825,1.939c-2.055,0-3.306-1.433-3.306-3.836s1.251-3.853,3.306-3.853A2.507,2.507,0,0,1,99.554,59.4c.041.124.083.166.182.166h1.309a.151.151,0,0,0,.166-.182c-.34-1.98-2.038-3.289-4.383-3.289-3.008,0-5,2.1-5,5.228s1.955,5.2,5,5.2m-11.343,0c2.983,0,4.864-1.516,4.864-3.977,0-2.279-1.052-3.372-3.894-3.894l-1.491-.265C82.924,57.987,82.1,57.3,82.1,55.908s1.069-2.262,2.966-2.262,2.983.829,3.248,2.5c.041.141.1.157.182.157h1.375c.1,0,.182-.058.166-.157C89.727,53.662,87.9,52.2,85.07,52.2s-4.681,1.45-4.681,3.836c0,2.179,1.251,3.389,4.035,3.919l1.491.265c2.055.406,2.7.986,2.7,2.378,0,1.558-1.193,2.477-3.124,2.477-2.2,0-3.347-.87-3.7-2.883-.017-.124-.058-.166-.166-.166H80.24c-.1,0-.166.058-.141.182.365,2.784,2.279,4.317,5.386,4.317" transform="translate(-13.73 -8.919)" fill="#120540"/>
  <path id="Path_141" data-name="Path 141" d="M122.725,14.327a4.2,4.2,0,0,0,4.458-3.306c.017-.1-.058-.141-.166-.141h-1.293a.166.166,0,0,0-.182.141,2.61,2.61,0,0,1-2.825,1.939c-2.055,0-3.306-1.433-3.306-3.836s1.251-3.853,3.306-3.853a2.507,2.507,0,0,1,2.726,1.939c.041.124.083.166.182.166h1.309a.143.143,0,0,0,.157-.182A4.1,4.1,0,0,0,122.717,3.9c-3.008,0-5,2.1-5,5.228s1.955,5.2,5,5.2m-15.337-5.2c0-2.361,1.251-3.853,3.231-3.853s3.248,1.516,3.248,3.853-1.251,3.836-3.248,3.836-3.231-1.475-3.231-3.836m2.809,5.2a4.076,4.076,0,0,0,3.613-2h.058V13c0,.8.481,1.235,1.433,1.235H116.7a.15.15,0,0,0,.166-.157V13.051c0-.083-.058-.141-.166-.141h-1.235V4.16a.152.152,0,0,0-.166-.166h-1.351a.146.146,0,0,0-.157.166V5.933h-.058a4.021,4.021,0,0,0-3.555-2.038c-2.743,0-4.5,2.055-4.5,5.228s1.757,5.2,4.5,5.2m-14.831-5.2c0-2.361,1.251-3.853,3.231-3.853s3.248,1.516,3.248,3.853-1.251,3.836-3.248,3.836-3.231-1.475-3.231-3.836m2.809,5.2a4.076,4.076,0,0,0,3.613-2h.058v.663c0,.8.481,1.235,1.433,1.235h1.409a.144.144,0,0,0,.157-.157V13.042a.14.14,0,0,0-.157-.141h-1.235V4.16a.152.152,0,0,0-.166-.166H101.92a.152.152,0,0,0-.166.166V5.933H101.7a4.021,4.021,0,0,0-3.555-2.038c-2.743,0-4.5,2.055-4.5,5.228s1.757,5.2,4.5,5.2m-9.5,0c2.378,0,3.712-1.094,3.712-2.983,0-1.674-.646-2.444-2.925-2.867l-1.168-.224c-1.375-.282-1.815-.7-1.815-1.558,0-.928.729-1.491,1.955-1.491s1.873.464,2.08,1.533a.176.176,0,0,0,.182.166h1.309c.1,0,.166-.058.141-.182-.24-1.8-1.574-2.825-3.712-2.825S84.8,5.047,84.8,6.8c0,1.632.887,2.486,2.966,2.883l1.094.2c1.409.282,1.856.646,1.856,1.533,0,.986-.787,1.591-2.08,1.591-1.45,0-2.221-.563-2.461-1.8-.025-.1-.041-.166-.166-.166H84.719c-.1,0-.157.058-.141.182.224,2,1.657,3.091,4.06,3.091m-7.747-.1H82.3a.15.15,0,0,0,.166-.157V.266A.152.152,0,0,0,82.3.1H80.891c-.083,0-.141.058-.141.166v13.8a.14.14,0,0,0,.141.157" transform="translate(-13.843 -0.017)" fill="#120540"/>
  <path id="Path_142" data-name="Path 142" d="M80.75,24.04V46.146H187V24.04Zm74.936,7.109,1.011-1.011a.384.384,0,0,1,.157-.108.461.461,0,0,1,.191-.033H159.6a.215.215,0,0,1,.224.232v1.16a.22.22,0,0,1-.224.232h-3.753c-.273,0-.373-.249-.166-.456ZM96.717,36.908l-3.231,3.231a.36.36,0,0,1-.166.108.518.518,0,0,1-.207.033H87.644a.5.5,0,0,1-.2-.033.552.552,0,0,1-.174-.108l-2.262-2.262A.385.385,0,0,1,84.9,37.7a.528.528,0,0,1-.033-.2h0V29.716a.512.512,0,0,1,.041-.207.542.542,0,0,1,.124-.166l3.422-3.422a.476.476,0,0,1,.373-.141h5.054a.5.5,0,0,1,.373.141l2.254,2.262a.385.385,0,0,1,.108.174.831.831,0,0,1,.033.2l.025,1.74h0a.217.217,0,0,1-.232.232h-1.16a.222.222,0,0,1-.232-.232h0V28.158a.743.743,0,0,0-.215-.563.8.8,0,0,0-.572-.207H89.21l-2.734,2.734v7.772a1.016,1.016,0,0,0,.05.323.724.724,0,0,0,.737.447h5.452l2.859-2.859a.221.221,0,0,1,.331-.025l.812.812a.23.23,0,0,1,0,.315Zm11.749.331a.559.559,0,0,1-.166.389l-2.511,2.486a.467.467,0,0,1-.4.166h-3.563a.5.5,0,0,1-.2-.033.552.552,0,0,1-.174-.108l-2.262-2.262a.385.385,0,0,1-.108-.174.528.528,0,0,1-.033-.2h0V32.757a.5.5,0,0,1,.033-.2.663.663,0,0,1,.108-.174l2.262-2.262a.385.385,0,0,1,.174-.108.528.528,0,0,1,.2-.033h3.853a.5.5,0,0,1,.2.033.663.663,0,0,1,.174.108l2.262,2.262a.36.36,0,0,1,.108.166.518.518,0,0,1,.033.207v4.474Zm4.019,2.817a.2.2,0,0,1-.207.224h-1.16a.211.211,0,0,1-.232-.224V30.213a.222.222,0,0,1,.232-.232h1.16a.212.212,0,0,1,.207.232Zm6.736,0a.211.211,0,0,1-.232.224h-1.16a.22.22,0,0,1-.232-.224V32.392a.791.791,0,0,0-.207-.572.769.769,0,0,0-.58-.215h-3.546a.254.254,0,0,1-.191-.456l1.019-1.011a.527.527,0,0,1,.182-.108.486.486,0,0,1,.191-.033h1.972a.5.5,0,0,1,.2.033.663.663,0,0,1,.174.108l2.262,2.262a.385.385,0,0,1,.108.174.557.557,0,0,1,.033.2v7.291Zm6.711,0a.2.2,0,0,1-.232.224h-1.143a.2.2,0,0,1-.224-.224V32.392a.762.762,0,0,0-.215-.572.775.775,0,0,0-.572-.215h-4.458c-.273,0-.373-.249-.166-.456l1.019-1.011a.384.384,0,0,1,.157-.108.461.461,0,0,1,.191-.033h2.883a.46.46,0,0,1,.191.033.486.486,0,0,1,.157.108l2.262,2.262a.494.494,0,0,1,.116.174.557.557,0,0,1,.033.2v7.291ZM138.153,37.5h0a.518.518,0,0,1-.033.207.627.627,0,0,1-.108.166l-2.262,2.262a.385.385,0,0,1-.174.108.832.832,0,0,1-.2.033h-3.546a.518.518,0,0,1-.207-.033.627.627,0,0,1-.166-.108l-1.119-1.119V44.2h0a.2.2,0,0,1-.207.232h-1.16a.21.21,0,0,1-.232-.232h0V30.213a.222.222,0,0,1,.232-.232h1.16a.212.212,0,0,1,.207.232v7.706a.727.727,0,0,0,.207.572.866.866,0,0,0,.58.174h4.623a.724.724,0,0,0,.737-.447.946.946,0,0,0,.05-.323v-5.51a.791.791,0,0,0-.207-.572.769.769,0,0,0-.58-.215h-4.64a.254.254,0,0,1-.191-.456l1.019-1.011a.527.527,0,0,1,.182-.108.486.486,0,0,1,.191-.033h3.066a.5.5,0,0,1,.2.033.663.663,0,0,1,.174.108l2.262,2.262a.36.36,0,0,1,.108.166.518.518,0,0,1,.033.207v4.748Zm9.487,1.616-1.011,1.011a.307.307,0,0,1-.166.116.527.527,0,0,1-.207.025h-2.544a.518.518,0,0,1-.207-.033.627.627,0,0,1-.166-.108l-2.262-2.262a.385.385,0,0,1-.108-.174.528.528,0,0,1-.033-.2h0V30.2a.222.222,0,0,1,.232-.232h1.16a.212.212,0,0,1,.207.232v7.689a.83.83,0,0,0,.058.323.727.727,0,0,0,.729.447h4.168c.273,0,.373.249.166.456Zm2.2.928a.2.2,0,0,1-.207.224h-1.16a.211.211,0,0,1-.232-.224V30.2a.222.222,0,0,1,.232-.232h1.16a.212.212,0,0,1,.207.232ZM160.028,37.6l-1.243,1.251-1.243,1.251a.492.492,0,0,1-.389.166h-.87a.518.518,0,0,1-.207-.033.627.627,0,0,1-.166-.108l-2.262-2.262a.54.54,0,0,1-.133-.182.486.486,0,0,1-.033-.191h0V31.588h-1.367a.232.232,0,0,1-.232-.232V30.2a.232.232,0,0,1,.232-.232h1.367V27.52a.232.232,0,0,1,.232-.232h1.16a.232.232,0,0,1,.232.232V37.877a1.016,1.016,0,0,0,.05.323.7.7,0,0,0,.713.447h.895l2.154-2.154a.21.21,0,0,1,.331,0l.787.762a.21.21,0,0,1,0,.331Zm12-4.565a.558.558,0,0,1-.166.4l-2.469,2.444a.467.467,0,0,1-.4.166h-2.776a.539.539,0,0,1-.373-.141l-.994-1.011c-.207-.207-.1-.456.166-.456h3.77l1.616-1.616v-.456a.723.723,0,0,0-.771-.787h-4.64a.727.727,0,0,0-.771.787v5.51a.708.708,0,0,0,.771.762h4.582a.72.72,0,0,0,.787-.762v-1.1a.215.215,0,0,1,.232-.224h1.16a.23.23,0,0,1,.232.224v.7a.471.471,0,0,1-.166.373l-2.262,2.262a.481.481,0,0,1-.373.149h-3.795a.476.476,0,0,1-.373-.149l-2.262-2.262a.456.456,0,0,1-.141-.348V32.74a.482.482,0,0,1,.166-.373l2.262-2.262a.481.481,0,0,1,.373-.149h3.836a.476.476,0,0,1,.373.149l2.262,2.262a.462.462,0,0,1,.141.356v.331Zm4.292,6.985a.2.2,0,0,1-.207.232h-1.16a.207.207,0,0,1-.224-.232V30.18a.22.22,0,0,1,.224-.232h1.16a.212.212,0,0,1,.207.232Zm6.09-5.469a.23.23,0,0,1-.224.232h-1.16a.215.215,0,0,1-.224-.232v-2.2a.739.739,0,0,0-.787-.787h-2.925c-.265,0-.373-.249-.166-.456l.994-1.011a.548.548,0,0,1,.373-.149h1.342a.525.525,0,0,1,.373.149l2.237,2.262a.45.45,0,0,1,.166.373v1.823Z" transform="translate(-13.843 -4.121)" fill="#120540"/>
  <path id="Path_143" data-name="Path 143" d="M105.562,40.239a.7.7,0,0,1-.762-.762v-5.51a.72.72,0,0,1,.762-.787h4.64a.72.72,0,0,1,.762.787V38.4l-1.806,1.839h-3.6Z" transform="translate(-17.966 -5.688)" fill="#120540"/>
</svg>
