<svg width="387" height="146" viewBox="0 0 387 146" fill="none" xmlns="http://www.w3.org/2000/svg">
  <g clip-path="url(#clip0_1029_12027)">
    <path d="M121.604 71.8482C120.595 69.9764 119.154 68.5366 117.425 67.5287C115.696 66.5208 113.823 66.0889 111.662 66.0889C109.645 66.0889 107.628 66.5208 105.899 67.5287C104.17 68.5366 102.873 69.9764 101.721 71.8482C100.712 73.72 100.136 75.8798 100.136 78.4715C100.136 81.0632 100.712 83.223 101.721 85.0948C102.729 86.9666 104.17 88.4064 105.899 89.4143C107.628 90.4222 109.501 90.8541 111.662 90.8541C113.679 90.8541 115.696 90.2782 117.425 89.4143C119.154 88.4064 120.595 86.9666 121.604 85.0948C122.612 83.223 123.189 80.9192 123.189 78.4715C123.045 75.8798 122.612 73.72 121.604 71.8482Z" fill="black"/>
    <path d="M84.5754 71.8482C83.5668 69.9764 82.126 68.5366 80.3971 67.5287C78.6681 66.5208 76.7951 66.0889 74.6339 66.0889C72.6167 66.0889 70.5996 66.5208 68.8706 67.5287C67.1417 68.5366 65.845 69.9764 64.6923 71.8482C63.6837 73.72 63.1074 75.8798 63.1074 78.4715C63.1074 81.0632 63.6837 83.223 64.6923 85.0948C65.7009 86.9666 67.1417 88.4064 68.8706 89.4143C70.5996 90.4222 72.4726 90.8541 74.6339 90.8541C76.7951 90.8541 78.6681 90.2782 80.3971 89.4143C82.126 88.4064 83.5668 86.9666 84.5754 85.0948C85.584 83.223 86.1603 80.9192 86.1603 78.4715C86.1603 75.8798 85.7281 73.72 84.5754 71.8482Z" fill="black"/>
    <path d="M41.2068 73.8637C40.4864 70.1202 39.3337 67.6724 37.8929 66.2326C36.4521 64.7927 34.8673 64.2168 33.1383 64.2168C31.6975 64.2168 30.5448 64.6488 29.5363 65.3687C28.5277 66.2326 27.6632 67.2405 27.0869 68.6803C26.5106 70.1202 25.9343 71.704 25.6461 73.5758C25.3579 75.4476 25.2139 77.4633 25.2139 79.6231C25.2139 83.6547 25.9343 86.8223 27.5192 89.1261C28.96 91.5738 31.2652 92.7257 34.1469 92.7257C35.8758 92.7257 37.6048 92.0058 39.3337 90.5659C40.9186 89.1261 42.5035 87.3983 43.8002 85.2385C43.368 83.7987 42.9358 82.0708 42.6476 80.0551C42.2154 78.3272 41.7831 76.1675 41.2068 73.8637Z" fill="black"/>
    <path d="M139.47 0H6.6277C3.02569 0 0 3.02367 0 6.62327V139.377C0 142.976 3.02569 146 6.6277 146H139.47C143.072 146 146.098 142.976 146.098 139.377V6.62327C146.098 3.02367 143.072 0 139.47 0ZM91.2029 94.7416H86.1601V87.9744L85.7278 88.6943C84.7193 90.5661 83.1344 92.1499 80.9732 93.4458C78.9561 94.7416 76.3626 95.3176 73.6251 95.3176C70.7435 95.3176 68.15 94.5976 65.8447 93.1578C63.9717 92.0059 62.3868 90.5661 61.2342 88.6943C60.6578 89.2702 60.0815 89.9901 59.217 90.7101C58.4966 91.43 57.6322 92.1499 56.7677 92.8698C55.9032 93.5897 55.0387 94.1657 54.1742 94.5976C53.3097 95.0296 52.4453 95.3176 51.5808 95.3176C50.4281 95.3176 49.4196 94.8856 48.411 93.8777C47.4025 93.0138 46.682 91.8619 45.9616 90.7101L44.9531 88.9822C43.2241 90.998 41.3511 92.4379 39.334 93.5897C37.3168 94.7416 35.1556 95.3176 32.9944 95.3176C30.8332 95.3176 28.8161 94.8856 26.943 94.1657C25.07 93.4458 23.4851 92.4379 22.0443 91.142C20.6035 89.8462 19.5949 88.2623 18.7305 86.5345C18.01 84.8067 17.5778 82.7909 17.5778 80.6312C17.5778 77.6075 18.01 74.8718 18.7305 72.568C19.5949 70.2643 20.6035 68.2485 22.0443 66.6647C23.4851 65.0809 25.07 63.785 27.0871 63.0651C28.9602 62.2012 31.1214 61.7692 33.2826 61.7692C35.0115 61.7692 36.5964 62.0572 37.8931 62.4892C39.1899 62.9211 40.1984 63.641 41.0629 64.6489C41.9274 65.6568 42.6478 66.8087 43.2241 68.1045C43.8004 69.5444 44.2327 71.1282 44.6649 72.856C44.9531 74.2959 45.2412 75.5917 45.5294 76.8876C45.8176 78.0395 46.1057 79.1913 46.3939 80.0552C47.6906 77.0316 48.5551 74.0079 49.2755 71.1282C49.8518 68.2485 50.14 65.6568 50.14 63.497H57.1999C56.9118 64.9369 56.4795 66.6647 56.0473 68.3925C55.615 70.1203 54.8946 71.9921 54.1742 73.8639C53.4538 75.7357 52.5893 77.6075 51.5808 79.4793C50.5722 81.3511 49.5637 83.0789 48.411 84.8067C48.6992 85.3826 49.1314 86.1026 49.4196 86.8225C49.8518 87.5424 50.2841 88.1183 50.7163 88.6943C51.2926 89.2702 51.8689 89.7022 52.5893 90.1341C53.3097 90.5661 54.0301 90.7101 54.8946 90.7101C56.0473 90.7101 57.0558 90.4221 57.9203 89.7022C58.7848 89.1262 59.6493 88.4063 60.3697 87.8304L60.5138 87.6864C60.3697 87.5424 60.3697 87.3984 60.2256 87.2544C58.9289 84.6627 58.2085 81.783 58.2085 78.4714C58.2085 75.1598 58.9289 72.2801 60.2256 69.6884C61.5223 67.2406 63.3954 65.2249 65.7007 63.929C68.0059 62.4892 70.7435 61.9132 73.6251 61.9132C76.0744 61.9132 78.5238 62.4892 80.685 63.641C82.8462 64.7929 84.5752 66.3767 85.5838 68.2485L86.016 68.9684V50.6824H91.0588V94.7416H91.2029ZM128.232 94.7416H123.189V87.9744L122.757 88.6943C121.748 90.5661 120.163 92.1499 118.002 93.4458C115.841 94.7416 113.391 95.3176 110.654 95.3176C107.772 95.3176 105.179 94.5976 102.873 93.1578C100.568 91.7179 98.6951 89.7022 97.3983 87.1105C96.1016 84.5187 95.3812 81.6391 95.3812 78.3274C95.3812 75.0158 96.1016 72.1361 97.3983 69.5444C98.6951 67.0966 100.568 65.0809 102.873 63.785C105.179 62.3452 107.916 61.7692 110.654 61.7692C113.535 61.7692 115.985 62.3452 118.002 63.641C120.019 64.7929 121.604 66.3767 122.612 68.2485L123.045 68.9684V62.3452H128.232V94.7416Z" fill="black"/>
    <path d="M180.245 47.2269C181.974 48.2348 183.847 48.8108 185.864 48.8108C187.737 48.8108 189.322 48.3788 190.763 47.6589C192.204 46.939 193.356 45.9311 194.221 44.7792V48.3788H199.12V24.6214H194.221V28.077C193.356 26.9252 192.204 26.0612 190.907 25.3413C189.466 24.6214 187.881 24.1895 186.008 24.1895C183.991 24.1895 181.974 24.7654 180.389 25.7733C178.804 26.7812 177.363 28.221 176.355 30.0928C175.346 31.9646 174.914 34.1244 174.914 36.4281C174.914 38.7319 175.346 40.8916 176.355 42.9074C177.219 44.7792 178.516 46.219 180.245 47.2269ZM180.821 32.2526C181.542 31.1007 182.406 30.0928 183.415 29.5169C184.567 28.9409 185.72 28.653 187.017 28.653C188.314 28.653 189.466 28.9409 190.619 29.6609C191.771 30.2368 192.636 31.2447 193.212 32.3966C193.933 33.5484 194.221 34.9883 194.221 36.7161C194.221 38.4439 193.933 39.7397 193.212 41.0356C192.492 42.1875 191.627 43.1954 190.619 43.7713C189.466 44.3472 188.314 44.7792 187.017 44.7792C185.72 44.7792 184.567 44.4912 183.559 43.7713C182.406 43.0514 181.542 42.1875 180.821 40.8916C180.101 39.5958 179.813 38.1559 179.813 36.5721C179.813 34.8443 180.101 33.4044 180.821 32.2526Z" fill="black"/>
    <path d="M209.637 47.2272C211.366 48.2351 213.239 48.8111 215.256 48.8111C217.129 48.8111 218.714 48.3791 220.155 47.6592C221.595 46.9393 222.748 45.9314 223.468 44.7795V48.3791H228.367V16.5586H223.468V28.0773C222.604 26.9255 221.307 26.0616 219.866 25.3416C218.426 24.6217 216.841 24.3337 215.256 24.3337C213.095 24.3337 211.222 24.9097 209.493 25.9176C207.764 26.9255 206.467 28.3653 205.458 30.2371C204.45 32.1089 204.018 34.2687 204.018 36.5724C204.018 38.8761 204.45 41.0359 205.458 43.0517C206.467 44.7795 207.908 46.2193 209.637 47.2272ZM210.069 32.2529C210.789 31.101 211.654 30.0931 212.662 29.5172C213.815 28.9412 214.968 28.6533 216.264 28.6533C217.561 28.6533 218.714 28.9412 219.866 29.6612C221.019 30.2371 221.884 31.245 222.46 32.3969C223.18 33.5487 223.468 34.9886 223.468 36.7164C223.468 38.4442 223.18 39.7401 222.46 41.0359C221.739 42.1878 220.875 43.1957 219.866 43.7716C218.714 44.3475 217.561 44.7795 216.264 44.7795C214.968 44.7795 213.815 44.4915 212.806 43.7716C211.654 43.0517 210.789 42.1878 210.069 40.8919C209.349 39.5961 209.06 38.1562 209.06 36.5724C209.06 34.8446 209.493 33.4047 210.069 32.2529Z" fill="black"/>
    <path d="M238.886 47.2269C240.615 48.2348 242.488 48.8108 244.505 48.8108C246.378 48.8108 247.963 48.3788 249.404 47.6589C250.844 46.939 251.997 45.9311 252.861 44.7792V48.3788H257.76V24.6214H252.861V28.077C251.997 26.9252 250.844 26.0612 249.548 25.3413C248.107 24.6214 246.522 24.1895 244.649 24.1895C242.632 24.1895 240.615 24.7654 239.03 25.7733C237.445 26.7812 236.004 28.221 234.995 30.0928C233.987 31.9646 233.555 34.1244 233.555 36.4281C233.555 38.7319 233.987 40.8916 234.995 42.9074C235.86 44.7792 237.157 46.219 238.886 47.2269ZM239.462 32.2526C240.182 31.1007 241.047 30.0928 242.055 29.5169C243.208 28.9409 244.361 28.653 245.657 28.653C246.954 28.653 248.107 28.9409 249.259 29.6609C250.412 30.2368 251.277 31.2447 251.853 32.3966C252.573 33.5484 252.861 34.9883 252.861 36.7161C252.861 38.4439 252.573 39.7397 251.853 41.0356C251.132 42.1875 250.268 43.1954 249.259 43.7713C248.107 44.3472 246.954 44.7792 245.657 44.7792C244.361 44.7792 243.208 44.4912 242.2 43.7713C241.047 43.0514 240.182 42.1875 239.462 40.8916C238.742 39.5958 238.453 38.1559 238.453 36.5721C238.453 34.8443 238.742 33.4044 239.462 32.2526Z" fill="black"/>
    <path d="M186.44 68.6804C187.88 68.6804 189.033 68.9684 190.042 69.6883C191.05 70.4082 191.626 71.2721 192.059 72.424H197.39C196.669 69.8323 195.517 67.9605 193.5 66.5207C191.482 65.0808 189.177 64.5049 186.296 64.5049C183.99 64.5049 181.973 64.9368 180.244 65.9447C178.515 66.9526 177.074 68.3925 176.066 70.2643C175.057 72.136 174.625 74.2958 174.625 76.7435C174.625 79.1913 175.057 81.351 176.066 83.2228C177.074 85.0946 178.371 86.5345 180.244 87.5424C182.117 88.5502 183.99 89.1262 186.296 89.1262C189.177 89.1262 191.482 88.4063 193.355 86.9664C195.228 85.5266 196.525 83.6548 197.246 81.2071H191.915C191.05 83.6548 189.033 84.9506 186.296 84.9506C184.278 84.9506 182.694 84.2307 181.541 82.7909C180.388 81.351 179.812 79.3353 179.812 76.7435C179.812 74.1518 180.388 72.136 181.541 70.6962C182.838 69.4003 184.422 68.6804 186.44 68.6804Z" fill="black"/>
    <path d="M223.468 70.4078C222.46 68.536 220.875 67.0962 219.146 66.0883C217.417 65.0804 215.256 64.6484 212.95 64.6484C210.645 64.6484 208.628 65.0804 206.755 66.0883C204.882 67.0962 203.441 68.536 202.433 70.4078C201.424 72.2796 200.848 74.4394 200.848 76.8871C200.848 79.3348 201.424 81.4946 202.433 83.3664C203.441 85.2382 204.882 86.678 206.755 87.6859C208.628 88.6938 210.645 89.2697 212.806 89.2697C215.112 89.2697 217.129 88.6938 219.002 87.6859C220.875 86.678 222.316 85.2382 223.468 83.3664C224.621 81.4946 225.053 79.3348 225.053 76.8871C225.053 74.4394 224.477 72.2796 223.468 70.4078ZM218.858 81.2066C218.137 82.3585 217.273 83.3664 216.12 83.9423C214.968 84.5183 213.815 84.8062 212.518 84.8062C210.501 84.8062 208.916 84.0863 207.619 82.6465C206.323 81.2066 205.602 79.3348 205.602 76.7431C205.602 75.0153 205.89 73.5755 206.611 72.4236C207.331 71.2717 208.052 70.2638 209.204 69.6879C210.357 69.1119 211.51 68.824 212.662 68.824C213.815 68.824 215.112 69.1119 216.264 69.6879C217.417 70.2638 218.281 71.1277 218.858 72.4236C219.434 73.7194 219.866 75.0153 219.866 76.7431C219.866 78.4709 219.578 80.0547 218.858 81.2066Z" fill="black"/>
    <path d="M263.667 88.8378H268.566V74.7273C268.566 72.5676 268.134 70.6958 267.269 69.2559C266.405 67.6721 265.252 66.5202 263.812 65.8003C262.371 65.0804 260.642 64.6484 258.769 64.6484C257.04 64.6484 255.311 65.0804 253.87 65.9443C252.429 66.8082 251.276 67.9601 250.556 69.3999C249.692 67.8161 248.539 66.6642 247.098 65.9443C245.657 65.0804 243.928 64.7924 242.055 64.7924C240.615 64.7924 239.318 65.0804 238.021 65.6563C236.724 66.2323 235.716 66.9522 234.995 67.9601V65.2244H230.097V88.9818H234.995V75.7352C234.995 73.5755 235.572 71.9916 236.58 70.8398C237.733 69.6879 239.174 69.1119 240.903 69.1119C242.632 69.1119 244.217 69.6879 245.225 70.8398C246.234 71.9916 246.81 73.5755 246.81 75.7352V88.9818H251.709V75.7352C251.709 73.5755 252.285 71.9916 253.294 70.8398C254.446 69.6879 255.887 69.1119 257.616 69.1119C259.489 69.1119 260.93 69.6879 261.938 70.8398C262.947 71.9916 263.523 73.5755 263.523 75.7352V88.8378H263.667Z" fill="black"/>
    <path d="M297.814 83.2228C298.823 81.351 299.255 79.1913 299.255 76.7435C299.255 74.2958 298.823 72.28 297.814 70.4082C296.805 68.5364 295.509 67.0966 293.78 66.0887C292.051 65.0808 290.178 64.5049 288.161 64.5049C286.288 64.5049 284.703 64.9368 283.262 65.6568C281.821 66.3767 280.668 67.3846 279.804 68.3925V64.9368H274.905V100.069H279.804V85.3826C280.668 86.5345 281.821 87.3984 283.262 88.1183C284.703 88.8382 286.288 89.2702 288.161 89.2702C290.178 89.2702 292.195 88.6942 293.78 87.6863C295.365 86.5345 296.805 85.0946 297.814 83.2228ZM290.466 83.9428C289.313 84.6627 288.161 84.9506 286.864 84.9506C285.567 84.9506 284.415 84.6627 283.406 83.9428C282.253 83.3668 281.389 82.3589 280.668 81.2071C279.948 79.9112 279.66 78.6153 279.66 76.8875C279.66 75.1597 279.948 73.8639 280.668 72.568C281.389 71.4161 282.253 70.4082 283.406 69.8323C284.559 69.2564 285.711 68.8244 286.864 68.8244C288.161 68.8244 289.313 69.1124 290.466 69.6883C291.619 70.2643 292.483 71.2721 293.203 72.424C293.924 73.5759 294.212 75.0157 294.212 76.7435C294.212 78.3274 293.924 79.7672 293.203 81.0631C292.483 82.3589 291.619 83.2228 290.466 83.9428Z" fill="black"/>
    <path d="M320.723 85.9582V88.8379H325.622V64.9365H320.723V78.1831C320.723 80.3428 320.147 81.9267 319.138 83.0785C318.13 84.2304 316.545 84.8064 314.816 84.8064C312.943 84.8064 311.502 84.2304 310.493 83.0785C309.485 81.9267 308.908 80.3428 308.908 78.1831V64.9365H304.01V78.903C304.01 81.0628 304.442 82.9346 305.306 84.3744C306.171 85.9582 307.324 87.1101 308.764 87.83C310.205 88.5499 311.934 88.9819 313.807 88.9819C315.248 88.9819 316.545 88.6939 317.841 88.118C318.994 87.686 320.003 86.9661 320.723 85.9582Z" fill="black"/>
    <path d="M337.869 59.0332H332.826V64.9366H329.944V68.9681H332.826V82.2147C332.826 84.5184 333.402 86.2462 334.555 87.2541C335.708 88.262 337.437 88.8379 339.598 88.8379H343.488V84.6624H340.462C339.454 84.6624 338.733 84.5184 338.301 84.0865C337.869 83.6545 337.725 83.0786 337.725 82.2147V68.9681H343.488V64.9366H337.725V59.0332H337.869Z" fill="black"/>
    <path d="M364.523 66.0883C362.794 65.0804 360.777 64.6484 358.472 64.6484C356.167 64.6484 354.005 65.0804 352.276 66.0883C350.403 67.0962 349.107 68.536 348.098 70.4078C347.089 72.2796 346.657 74.4394 346.657 76.8871C346.657 79.3348 347.234 81.4946 348.242 83.3664C349.251 85.2382 350.691 86.678 352.42 87.6859C354.149 88.6938 356.311 89.2697 358.472 89.2697C361.209 89.2697 363.659 88.5498 365.532 87.11C367.405 85.6701 368.702 83.9423 369.422 81.7826H364.091C362.938 83.9423 361.065 85.0942 358.472 85.0942C356.599 85.0942 355.014 84.5183 353.861 83.3664C352.565 82.2145 351.844 80.6307 351.7 78.7589H369.854C369.998 78.039 369.998 77.1751 369.998 76.3112C369.998 74.0074 369.566 71.9916 368.557 70.2638C367.549 68.392 366.252 67.0962 364.523 66.0883ZM351.7 74.7273C351.988 72.8555 352.709 71.4157 353.861 70.4078C355.014 69.2559 356.455 68.824 358.184 68.824C360.057 68.824 361.642 69.3999 362.938 70.4078C364.235 71.5597 364.811 72.9995 364.811 74.7273H351.7Z" fill="black"/>
    <path d="M382.678 65.6567C381.525 66.3767 380.517 67.2406 379.796 68.5364V65.0808H374.897V88.8382H379.796V76.3116C379.796 73.8638 380.228 72.136 381.237 71.2721C382.246 70.2642 383.686 69.8323 385.559 69.8323H386.856V64.7928C385.271 64.6488 383.975 64.9368 382.678 65.6567Z" fill="black"/>
    <path d="M190.042 116.627C188.889 116.195 187.448 115.619 185.719 115.187C184.423 114.755 183.414 114.467 182.838 114.323C182.117 114.035 181.541 113.747 181.109 113.315C180.677 112.884 180.389 112.308 180.389 111.732C180.389 110.868 180.677 110.292 181.397 109.86C182.117 109.428 183.126 109.14 184.423 109.14C185.719 109.14 186.728 109.428 187.593 110.148C188.313 110.724 188.745 111.588 188.889 112.74H193.788C193.644 110.436 192.779 108.564 191.195 107.124C189.466 105.684 187.304 105.108 184.711 105.108C182.838 105.108 181.253 105.396 179.956 105.972C178.66 106.548 177.507 107.412 176.787 108.42C176.066 109.428 175.634 110.58 175.634 111.876C175.634 113.459 176.066 114.755 176.931 115.619C177.795 116.627 178.66 117.347 179.812 117.779C180.965 118.211 182.406 118.787 184.135 119.219C186.008 119.795 187.304 120.227 188.169 120.659C189.033 121.091 189.466 121.811 189.466 122.674C189.466 123.538 189.033 124.258 188.313 124.69C187.593 125.122 186.44 125.554 185.143 125.554C183.846 125.554 182.694 125.266 181.829 124.546C180.965 123.826 180.533 122.962 180.389 121.955H175.346C175.346 123.394 175.922 124.69 176.787 125.842C177.651 126.994 178.804 128.002 180.244 128.578C181.685 129.298 183.414 129.586 185.287 129.586C187.16 129.586 188.745 129.298 190.042 128.722C191.339 128.146 192.491 127.282 193.212 126.274C193.932 125.266 194.364 123.97 194.364 122.674C194.364 121.091 193.932 119.939 193.068 119.075C192.059 117.923 191.195 117.203 190.042 116.627Z" fill="black"/>
    <path d="M209.493 108.996C210.934 108.996 212.087 109.284 213.095 110.004C214.104 110.724 214.68 111.588 215.112 112.739H220.443C219.723 110.148 218.57 108.276 216.553 106.836C214.536 105.396 212.231 104.82 209.349 104.82C207.044 104.82 205.027 105.252 203.298 106.26C201.569 107.268 200.128 108.708 199.12 110.58C198.111 112.451 197.679 114.611 197.679 117.059C197.679 119.507 198.111 121.666 199.12 123.538C200.128 125.41 201.425 126.85 203.298 127.858C205.171 128.866 207.044 129.442 209.349 129.442C212.231 129.442 214.536 128.722 216.409 127.282C218.282 125.842 219.579 123.97 220.299 121.522H214.968C214.104 123.97 212.087 125.266 209.349 125.266C207.332 125.266 205.747 124.546 204.595 123.106C203.442 121.666 202.866 119.651 202.866 117.059C202.866 114.467 203.442 112.451 204.595 111.012C205.891 109.716 207.476 108.996 209.493 108.996Z" fill="black"/>
    <path d="M227.935 95.8936C227.071 95.8936 226.351 96.1815 225.63 96.7575C225.054 97.3334 224.766 98.0533 224.766 99.0612C224.766 100.069 225.054 100.645 225.63 101.365C226.206 101.941 226.927 102.229 227.935 102.229C228.8 102.229 229.52 101.941 230.097 101.365C230.673 100.789 230.961 100.069 230.961 99.0612C230.961 98.0533 230.673 97.4774 230.097 96.7575C229.52 96.1815 228.8 95.8936 227.935 95.8936Z" fill="black"/>
    <path d="M230.241 105.253H225.342V129.01H230.241V105.253Z" fill="black"/>
    <path d="M253.006 106.405C251.277 105.397 249.26 104.965 246.954 104.965C244.649 104.965 242.488 105.397 240.759 106.405C238.886 107.413 237.589 108.852 236.58 110.724C235.572 112.596 235.14 114.756 235.14 117.204C235.14 119.651 235.716 121.811 236.725 123.683C237.733 125.555 239.174 126.994 240.903 128.002C242.632 129.01 244.793 129.586 246.954 129.586C249.692 129.586 252.141 128.866 254.014 127.426C255.887 125.987 257.184 124.259 257.904 122.099H252.573C251.421 124.259 249.548 125.411 246.954 125.411C245.081 125.411 243.496 124.835 242.344 123.683C241.047 122.531 240.327 120.947 240.182 119.075H258.337C258.481 118.355 258.481 117.491 258.481 116.628C258.481 114.324 258.048 112.308 257.04 110.58C256.175 108.708 254.879 107.413 253.006 106.405ZM240.327 115.044C240.615 113.172 241.335 111.732 242.488 110.724C243.64 109.572 245.081 109.14 246.81 109.14C248.683 109.14 250.268 109.716 251.565 110.724C252.862 111.876 253.438 113.316 253.582 115.044H240.327Z" fill="black"/>
    <path d="M280.525 106.117C279.084 105.397 277.355 104.965 275.482 104.965C274.041 104.965 272.745 105.253 271.448 105.829C270.151 106.405 269.143 107.125 268.422 108.132V105.397H263.523V129.154H268.422V115.908C268.422 113.748 268.998 112.164 270.007 111.012C271.16 109.86 272.601 109.284 274.329 109.284C276.058 109.284 277.643 109.86 278.652 111.012C279.66 112.164 280.237 113.748 280.237 115.908V129.154H285.135V115.044C285.135 112.884 284.703 111.012 283.839 109.572C283.118 107.989 281.966 106.837 280.525 106.117Z" fill="black"/>
    <path d="M301.561 108.996C303.001 108.996 304.154 109.284 305.163 110.004C306.171 110.724 306.748 111.588 307.18 112.739H312.511C311.79 110.148 310.638 108.276 308.621 106.836C306.603 105.396 304.298 104.82 301.417 104.82C299.111 104.82 297.094 105.252 295.365 106.26C293.636 107.268 292.195 108.708 291.187 110.58C290.178 112.451 289.746 114.611 289.746 117.059C289.746 119.507 290.178 121.666 291.187 123.538C292.195 125.41 293.492 126.85 295.365 127.858C297.238 128.866 299.111 129.442 301.417 129.442C304.298 129.442 306.604 128.722 308.477 127.282C310.35 125.842 311.646 123.97 312.367 121.522H307.036C306.171 123.97 304.154 125.266 301.417 125.266C299.399 125.266 297.815 124.546 296.662 123.106C295.509 121.666 294.933 119.651 294.933 117.059C294.933 114.467 295.509 112.451 296.662 111.012C297.959 109.716 299.544 108.996 301.561 108.996Z" fill="black"/>
    <path d="M333.69 106.405C331.961 105.397 329.944 104.965 327.639 104.965C325.334 104.965 323.172 105.397 321.443 106.405C319.57 107.413 318.274 108.852 317.265 110.724C316.256 112.596 315.824 114.756 315.824 117.204C315.824 119.651 316.401 121.811 317.409 123.683C318.418 125.555 319.858 126.994 321.587 128.002C323.316 129.01 325.478 129.586 327.639 129.586C330.376 129.586 332.826 128.866 334.699 127.426C336.572 125.987 337.869 124.259 338.589 122.099H333.258C332.105 124.259 330.232 125.411 327.639 125.411C325.766 125.411 324.181 124.835 323.028 123.683C321.732 122.531 321.011 120.947 320.867 119.075H339.021C339.165 118.355 339.165 117.491 339.165 116.628C339.165 114.324 338.733 112.308 337.724 110.58C336.86 108.708 335.419 107.413 333.69 106.405ZM321.011 115.044C321.299 113.172 322.02 111.732 323.172 110.724C324.325 109.572 325.766 109.14 327.495 109.14C329.368 109.14 330.953 109.716 332.249 110.724C333.546 111.876 334.122 113.316 334.122 115.044H321.011Z" fill="black"/>
  </g>
  <defs>
    <clipPath id="clip0_1029_12027">
      <rect width="387" height="146" fill="white"/>
    </clipPath>
  </defs>
</svg>
