<svg width="190" height="64" viewBox="0 0 190 64" fill="none" xmlns="http://www.w3.org/2000/svg">
<path d="M100.984 30.1345H95.9013C95.3799 30.1345 95.0615 30.4733 95.0615 30.9995V37.0423C95.0615 37.5645 95.3799 37.8834 95.9013 37.8834H99.8494L101.823 35.8625V30.9995C101.823 30.4773 101.505 30.1345 100.984 30.1345Z" fill="#120540"/>
<path d="M73.2549 21.8396V46.0787H189.569V21.8396H73.2549ZM155.294 29.6363L156.404 28.5242C156.52 28.4086 156.631 28.3647 156.79 28.3647H159.58C159.739 28.3647 159.831 28.4803 159.831 28.6159V29.8874C159.831 30.0229 159.739 30.1385 159.58 30.1385H155.473C155.178 30.1385 155.063 29.8675 155.29 29.6403L155.294 29.6363ZM90.7309 35.9542L87.1927 39.4978C87.0813 39.6134 86.9659 39.6572 86.7828 39.6572H80.7929C80.6337 39.6572 80.4984 39.6134 80.383 39.4978L77.9114 37.0224C77.8 36.9108 77.7522 36.7713 77.7522 36.6119V28.0698C77.7522 27.8864 77.8199 27.7748 77.9353 27.6592L81.6805 23.9083C81.7919 23.7927 81.9073 23.7489 82.0904 23.7489H87.6265C87.7857 23.7489 87.921 23.7927 88.0365 23.9083L90.508 26.3837C90.6234 26.4993 90.6672 26.6348 90.6672 26.7942L90.6911 28.7035C90.6911 28.863 90.5797 28.9547 90.4404 28.9547H89.1708C89.0354 28.9547 88.92 28.863 88.92 28.7035V26.3637C88.92 25.8416 88.5817 25.5227 88.0564 25.5227H82.5202L79.5273 28.5202V37.0424C79.5273 37.5645 79.8457 37.8834 80.391 37.8834H86.3569L89.4892 34.7464C89.6046 34.6308 89.716 34.6109 89.8513 34.7225L90.7349 35.6074C90.8264 35.719 90.8264 35.8585 90.7349 35.9462L90.7309 35.9542ZM103.594 36.3169C103.594 36.5003 103.526 36.6119 103.411 36.7474L100.665 39.4738C100.549 39.6094 100.414 39.6572 100.235 39.6572H96.3347C96.1755 39.6572 96.0402 39.6134 95.9248 39.4978L93.4532 37.0224C93.3418 36.9108 93.294 36.7713 93.294 36.6119V31.4101C93.294 31.2506 93.3378 31.1151 93.4532 30.9995L95.9248 28.5242C96.0362 28.4086 96.1755 28.3647 96.3347 28.3647H100.553C100.713 28.3647 100.848 28.4086 100.963 28.5242L103.435 30.9995C103.546 31.1151 103.594 31.2267 103.594 31.4101V36.3169ZM107.996 39.4061C107.996 39.5655 107.904 39.6572 107.769 39.6572H106.5C106.34 39.6572 106.249 39.5655 106.249 39.4061V28.6119C106.249 28.4763 106.34 28.3607 106.5 28.3607H107.769C107.904 28.3607 107.996 28.4763 107.996 28.6119V39.4061ZM115.371 39.4061C115.371 39.5655 115.259 39.6572 115.12 39.6572H113.851C113.715 39.6572 113.6 39.5655 113.6 39.4061V30.9995C113.6 30.4773 113.281 30.1345 112.736 30.1345H108.856C108.561 30.1345 108.426 29.8635 108.653 29.6363L109.763 28.5242C109.898 28.4086 110.014 28.3647 110.173 28.3647H112.326C112.485 28.3647 112.621 28.4086 112.736 28.5242L115.208 30.9995C115.319 31.1151 115.367 31.2506 115.367 31.4101V39.4061H115.371ZM122.722 39.4061C122.722 39.5655 122.63 39.6572 122.471 39.6572H121.221C121.062 39.6572 120.971 39.5655 120.971 39.4061V30.9995C120.971 30.4773 120.632 30.1345 120.107 30.1345H115.228C114.933 30.1345 114.818 29.8635 115.044 29.6363L116.155 28.5242C116.27 28.4086 116.382 28.3647 116.541 28.3647H119.693C119.852 28.3647 119.964 28.4086 120.079 28.5242L122.551 30.9995C122.666 31.1151 122.71 31.2506 122.71 31.4101V39.4061H122.722ZM136.106 36.6119C136.106 36.7952 136.063 36.9068 135.947 37.0224L133.476 39.4978C133.36 39.6134 133.225 39.6572 133.066 39.6572H129.185C129.002 39.6572 128.891 39.6134 128.775 39.4978L127.55 38.2701V43.9502C127.55 44.1096 127.458 44.2013 127.323 44.2013H126.053C125.894 44.2013 125.802 44.1096 125.802 43.9502V28.6159C125.802 28.4803 125.894 28.3647 126.053 28.3647H127.323C127.458 28.3647 127.55 28.4803 127.55 28.6159V37.0663C127.55 37.6562 127.868 37.8834 128.413 37.8834H133.472C134.017 37.8834 134.335 37.5645 134.335 37.0424V30.9995C134.335 30.4773 134.017 30.1345 133.472 30.1345H128.389C128.095 30.1345 127.959 29.8635 128.186 29.6363L129.297 28.5242C129.432 28.4086 129.547 28.3647 129.707 28.3647H133.066C133.225 28.3647 133.36 28.4086 133.476 28.5242L135.947 30.9995C136.063 31.1151 136.106 31.2267 136.106 31.4101V36.6119ZM146.498 38.3857L145.388 39.4978C145.272 39.6333 145.161 39.6572 144.978 39.6572H142.188C142.005 39.6572 141.893 39.6134 141.778 39.4978L139.306 37.0224C139.191 36.9108 139.147 36.7713 139.147 36.6119V28.6159C139.147 28.4803 139.239 28.3647 139.398 28.3647H140.667C140.803 28.3647 140.894 28.4803 140.894 28.6159V37.0463C140.894 37.5685 141.233 37.8874 141.758 37.8874H146.319C146.614 37.8874 146.729 38.1585 146.502 38.3857H146.498ZM148.902 39.4101C148.902 39.5695 148.81 39.6612 148.675 39.6612H147.406C147.246 39.6612 147.155 39.5695 147.155 39.4101V28.6159C147.155 28.4803 147.246 28.3647 147.406 28.3647H148.675C148.81 28.3647 148.902 28.4803 148.902 28.6159V39.4101ZM160.062 36.7275L157.34 39.4778C157.204 39.6134 157.089 39.6612 156.91 39.6612H155.959C155.775 39.6612 155.664 39.6173 155.549 39.5017L153.077 37.0264C152.942 36.8909 152.894 36.7753 152.894 36.6159V30.1385H151.397C151.262 30.1385 151.147 30.0269 151.147 29.8874V28.6159C151.147 28.4803 151.258 28.3647 151.397 28.3647H152.894V25.6821C152.894 25.5466 153.009 25.431 153.145 25.431H154.414C154.55 25.431 154.665 25.5466 154.665 25.6821V37.0424C154.665 37.5645 154.983 37.8834 155.505 37.8834H156.48L158.84 35.5197C158.955 35.4041 159.111 35.4041 159.202 35.5197L160.066 36.3607C160.177 36.4763 160.177 36.6119 160.066 36.7235L160.062 36.7275ZM173.2 31.721C173.2 31.8804 173.156 31.992 173.017 32.1515L170.318 34.8341C170.207 34.9696 170.067 35.0174 169.888 35.0174H166.848C166.688 35.0174 166.577 34.9736 166.438 34.858L165.347 33.7459C165.12 33.5187 165.232 33.2476 165.53 33.2476H169.658L171.429 31.4738V30.9756C171.429 30.4534 171.11 30.1106 170.589 30.1106H165.506C164.985 30.1106 164.667 30.4494 164.667 30.9756V37.0184C164.667 37.5406 164.985 37.8595 165.506 37.8595H170.521C171.043 37.8595 171.385 37.5406 171.385 37.0184V35.8147C171.385 35.6791 171.476 35.5635 171.636 35.5635H172.905C173.041 35.5635 173.156 35.6791 173.156 35.8147V36.5879C173.156 36.7474 173.112 36.859 172.973 36.9985L170.501 39.4738C170.39 39.5894 170.274 39.6333 170.091 39.6333H165.94C165.781 39.6333 165.646 39.5894 165.53 39.4738L163.059 36.9985C162.947 36.8829 162.9 36.7713 162.9 36.6119V31.3862C162.9 31.2267 162.943 31.1151 163.083 30.9756L165.554 28.5003C165.666 28.3847 165.781 28.3408 165.964 28.3408H170.159C170.318 28.3408 170.454 28.3847 170.569 28.5003L173.041 30.9756C173.152 31.0872 173.2 31.2028 173.2 31.3622V31.725V31.721ZM177.896 39.3782C177.896 39.5376 177.805 39.6293 177.669 39.6293H176.4C176.24 39.6293 176.149 39.5376 176.149 39.3782V28.584C176.149 28.4484 176.24 28.3328 176.4 28.3328H177.669C177.805 28.3328 177.896 28.4484 177.896 28.584V39.3782ZM184.566 33.3792C184.566 33.5147 184.455 33.6303 184.316 33.6303H183.046C182.887 33.6303 182.795 33.5187 182.795 33.3792V30.9716C182.795 30.4494 182.453 30.1066 181.932 30.1066H178.732C178.437 30.1066 178.322 29.8356 178.549 29.6084L179.639 28.4963C179.775 28.3807 179.89 28.3368 180.049 28.3368H181.526C181.685 28.3368 181.796 28.3807 181.936 28.4963L184.387 30.9716C184.523 31.0832 184.57 31.2227 184.57 31.3822V33.3832L184.566 33.3792Z" fill="#120540"/>
<path d="M139.291 56.7295C139.466 54.5172 140.748 53.2576 142.869 53.2576C144.767 53.2576 145.961 54.5411 146.073 56.7295H139.291ZM142.869 63.1908C145.543 63.1908 147.33 61.8196 147.772 59.8505C147.796 59.7628 147.728 59.6951 147.597 59.6951H146.184C146.073 59.6951 146.009 59.7389 145.985 59.8505C145.611 60.9786 144.505 61.6881 142.869 61.6881C140.704 61.6881 139.422 60.3368 139.291 58.1046H147.665C147.776 58.1046 147.84 58.0369 147.84 57.9293V57.4868C147.84 53.9233 145.961 51.7549 142.869 51.7549C139.554 51.7549 137.412 53.991 137.412 57.4868C137.412 60.9826 139.534 63.1948 142.869 63.1948M131.116 63.1948C133.747 63.1948 135.578 61.7359 136 59.5675C136.019 59.4559 135.932 59.4121 135.824 59.4121H134.412C134.3 59.4121 134.236 59.4559 134.213 59.5675C133.795 61.0065 132.756 61.6921 131.12 61.6921C128.867 61.6921 127.498 60.1216 127.498 57.4868C127.498 54.852 128.867 53.2616 131.12 53.2616C132.712 53.2616 133.771 53.991 134.101 55.3862C134.145 55.5177 134.189 55.5615 134.3 55.5615H135.737C135.848 55.5615 135.936 55.4938 135.912 55.3622C135.538 53.1938 133.679 51.7549 131.116 51.7549C127.825 51.7549 125.636 54.0548 125.636 57.4868C125.636 60.9188 127.781 63.1948 131.116 63.1948ZM114.46 63.0832H115.96C116.048 63.0832 116.116 63.0155 116.116 62.9078V56.6896C116.116 54.4773 117.154 53.3254 119.097 53.3254C121.039 53.3254 121.946 54.4096 121.946 56.6896V62.9078C121.946 63.0194 122.014 63.0832 122.121 63.0832H123.602C123.713 63.0832 123.777 63.0155 123.777 62.9078V56.6896C123.777 53.4569 122.364 51.7549 119.777 51.7549C118.141 51.7549 116.884 52.4843 116.112 53.8117H116.044V52.0419C116.044 51.9303 115.976 51.8665 115.869 51.8665H114.456C114.368 51.8665 114.301 51.9342 114.301 52.0419V62.9078C114.301 63.0194 114.368 63.0832 114.456 63.0832M103.674 56.7334C103.849 54.5212 105.131 53.2616 107.252 53.2616C109.151 53.2616 110.345 54.5451 110.456 56.7334H103.674ZM107.252 63.1948C109.927 63.1948 111.714 61.8236 112.156 59.8545C112.179 59.7668 112.112 59.6991 111.98 59.6991H110.568C110.456 59.6991 110.392 59.7429 110.369 59.8545C109.994 60.9826 108.888 61.6921 107.252 61.6921C105.087 61.6921 103.806 60.3408 103.674 58.1086H112.048C112.16 58.1086 112.223 58.0409 112.223 57.9332V57.4908C112.223 53.9273 110.345 51.7589 107.252 51.7589C103.937 51.7589 101.796 53.995 101.796 57.4908C101.796 60.9866 103.917 63.1988 107.252 63.1988M97.6844 49.435C97.6844 49.5227 97.7521 49.5904 97.8596 49.5904H99.8058C99.8933 49.5904 99.961 49.5227 99.961 49.435V47.4858C99.961 47.3742 99.8933 47.3104 99.8058 47.3104H97.8596C97.7481 47.3104 97.6844 47.3782 97.6844 47.4858V49.435ZM98.0586 63.0872H99.559C99.6466 63.0872 99.7142 63.0194 99.7142 62.9118V52.0459C99.7142 51.9342 99.6466 51.8705 99.559 51.8705H98.0586C97.971 51.8705 97.9033 51.9382 97.9033 52.0459V62.9118C97.9033 63.0234 97.971 63.0872 98.0586 63.0872ZM90.9464 63.1988C93.5731 63.1988 95.4079 61.7399 95.8298 59.5715C95.8497 59.4599 95.7621 59.4161 95.6507 59.4161H94.2378C94.1263 59.4161 94.0627 59.4599 94.0388 59.5715C93.6209 61.0105 92.5821 61.6961 90.9464 61.6961C88.6937 61.6961 87.3246 60.1256 87.3246 57.4908C87.3246 54.856 88.6937 53.2656 90.9464 53.2656C92.5383 53.2656 93.597 53.995 93.9274 55.3901C93.9711 55.5217 94.0149 55.5655 94.1264 55.5655H95.5631C95.6746 55.5655 95.7621 55.4978 95.7382 55.3662C95.3641 53.1978 93.5055 51.7589 90.9464 51.7589C87.6549 51.7589 85.466 54.0588 85.466 57.4908C85.466 60.9228 87.6072 63.1988 90.9464 63.1988ZM78.5289 63.1988C81.8004 63.1988 83.8541 61.5406 83.8541 58.8381C83.8541 56.3388 82.7039 55.143 79.5915 54.569L77.9558 54.282C75.723 53.8396 74.8195 53.0862 74.8195 51.5596C74.8195 50.0329 75.9897 49.0802 78.0672 49.0802C80.1447 49.0802 81.3387 49.989 81.6253 51.8226C81.6691 51.9781 81.7367 51.998 81.8243 51.998H83.3247C83.4362 51.998 83.5237 51.9303 83.4998 51.8226C83.1695 49.1002 81.1596 47.4858 78.0632 47.4858C74.9668 47.4858 72.937 49.0802 72.937 51.6911C72.937 54.0787 74.3061 55.4101 77.3548 55.9841L78.9905 56.2711C81.2432 56.7135 81.9516 57.3553 81.9516 58.8819C81.9516 60.584 80.6502 61.6044 78.5289 61.6044C76.121 61.6044 74.8593 60.6517 74.4852 58.4395C74.4653 58.3079 74.4176 58.2641 74.3101 58.2641H72.7858C72.6743 58.2641 72.6107 58.3318 72.6306 58.4634C73.0286 61.5167 75.126 63.1988 78.5289 63.1988Z" fill="#120540"/>
<path d="M119.208 15.6931C121.839 15.6931 123.669 14.2342 124.091 12.0658C124.111 11.9542 124.024 11.9103 123.916 11.9103H122.503C122.392 11.9103 122.328 11.9542 122.304 12.0658C121.882 13.5047 120.848 14.1903 119.212 14.1903C116.959 14.1903 115.59 12.6198 115.59 9.98505C115.59 7.35027 116.959 5.75984 119.212 5.75984C120.804 5.75984 121.863 6.48928 122.193 7.8844C122.237 8.01594 122.28 8.05979 122.392 8.05979H123.829C123.94 8.05979 124.028 7.99202 124.004 7.86048C123.63 5.69207 121.771 4.25311 119.208 4.25311C115.916 4.25311 113.728 6.55306 113.728 9.98505C113.728 13.417 115.869 15.6931 119.208 15.6931ZM102.416 9.98505C102.416 7.3981 103.786 5.75984 105.951 5.75984C108.116 5.75984 109.509 7.41803 109.509 9.98505C109.509 12.5521 108.14 14.1903 105.951 14.1903C103.762 14.1903 102.416 12.576 102.416 9.98505ZM105.489 15.6931C107.169 15.6931 108.669 14.8759 109.445 13.5007H109.513V14.2302C109.513 15.1151 110.042 15.5815 111.081 15.5815H112.629C112.74 15.5815 112.804 15.5137 112.804 15.4061V14.278C112.804 14.1903 112.736 14.1226 112.629 14.1226H111.28V4.54011C111.28 4.4285 111.212 4.36472 111.105 4.36472H109.624C109.513 4.36472 109.449 4.43248 109.449 4.54011V6.48928H109.381C108.565 5.07424 107.129 4.25311 105.493 4.25311C102.488 4.25311 100.566 6.50921 100.566 9.98505C100.566 13.4609 102.488 15.6931 105.493 15.6931M89.2547 9.98505C89.2547 7.3981 90.6238 5.75984 92.7889 5.75984C94.954 5.75984 96.347 7.41803 96.347 9.98505C96.347 12.5521 94.9779 14.1903 92.7889 14.1903C90.5999 14.1903 89.2547 12.576 89.2547 9.98505ZM92.3272 15.6931C94.0068 15.6931 95.5072 14.8759 96.2833 13.5007H96.351V14.2302C96.351 15.1151 96.8803 15.5815 97.9191 15.5815H99.4673C99.5787 15.5815 99.6424 15.5137 99.6424 15.4061V14.278C99.6424 14.1903 99.5748 14.1226 99.4673 14.1226H98.1181V4.54011C98.1181 4.4285 98.0504 4.36472 97.943 4.36472H96.4624C96.351 4.36472 96.2833 4.43248 96.2833 4.54011V6.48928H96.2157C95.3998 5.07424 93.963 4.25311 92.3272 4.25311C89.3224 4.25311 87.4001 6.50921 87.4001 9.98505C87.4001 13.4609 89.3224 15.6931 92.3272 15.6931ZM81.9196 15.6931C84.5265 15.6931 85.9832 14.4973 85.9832 12.4165C85.9832 10.579 85.2748 9.73791 82.7793 9.27553L81.4978 9.03238C79.9973 8.72147 79.5078 8.25909 79.5078 7.32635C79.5078 6.30991 80.3038 5.68809 81.653 5.68809C83.0022 5.68809 83.7067 6.1983 83.9295 7.3702C83.9494 7.45789 83.9972 7.54957 84.1285 7.54957H85.5653C85.6767 7.54957 85.7444 7.48181 85.7205 7.35027C85.4539 5.38116 83.9972 4.25311 81.657 4.25311C79.3168 4.25311 77.7248 5.51669 77.7248 7.43796C77.7248 9.23168 78.6959 10.1604 80.9724 10.6029L82.1664 10.8221C83.7146 11.133 84.2002 11.5316 84.2002 12.5042C84.2002 13.5884 83.3365 14.2501 81.9236 14.2501C80.3316 14.2501 79.4919 13.6323 79.2292 12.281C79.2053 12.1694 79.1854 12.1056 79.0541 12.1056H77.6412C77.5298 12.1056 77.4661 12.1734 77.486 12.3049C77.7287 14.4973 79.2969 15.6891 81.9276 15.6891M73.4423 15.5775H74.9905C75.102 15.5775 75.1657 15.5097 75.1657 15.4021V0.267061C75.1657 0.155452 75.098 0.0916748 74.9905 0.0916748H73.4423C73.3548 0.0916748 73.2871 0.159438 73.2871 0.267061V15.4021C73.2871 15.5137 73.3548 15.5775 73.4423 15.5775Z" fill="#120540"/>
<path d="M14.6861 57.3792L15.5816 58.28L21.2968 52.5561V52.3488H30.9601L30.4905 51.8784H21.2968V50.7583L14.6821 57.3832L14.6861 57.3792ZM0.0517395 42.6667L0.0278597 42.6906L0.700473 43.3642L1.39697 42.6667H0.0517395ZM2.98497 42.6667L1.49249 44.1614L2.185 44.855L4.37 42.6667H2.98099H2.98497ZM5.9182 42.6667L2.96109 45.6283L3.67749 46.3458L7.35099 42.6667H5.9182ZM8.85144 42.6667L4.42572 47.0992L5.16201 47.8406L10.324 42.6707H8.84746L8.85144 42.6667ZM11.7847 42.6667L5.89433 48.566L6.6545 49.3274L13.305 42.6667H11.7807H11.7847ZM14.7179 42.6667L7.36293 50.0329L8.14698 50.8181L16.286 42.6667H14.7179ZM17.6511 42.6667L8.82756 51.5037L9.63549 52.3129L19.267 42.6667H17.6551H17.6511ZM42.6095 42.6667H20.5804L10.2922 52.9706L11.12 53.7997L21.3008 43.5994V42.6627L21.7386 43.1011H42.6015H43.0393L43.3975 43.4599H42.6015V43.1649H21.8022L22.6181 43.9821H21.3008V44.572H23.2072L23.6489 45.0145H42.6015H44.9497L45.3397 45.4051H42.6015V45.1101H23.7445L24.5882 45.9552H21.3008V44.8789L11.7568 54.4375L12.6085 55.2905L21.3008 46.585V46.5172H25.1454L25.5593 46.9317H42.6015H46.8601L47.278 47.3503H42.6015V47.0553H25.6827L26.5543 47.9282H21.2968V47.8166L13.2175 55.9083L14.093 56.7853L21.2968 49.5705V48.4624H27.0837L27.4697 48.849H42.6015H48.7705L49.2202 49.2955H42.6015V49.0005H27.6249L28.5244 49.9013H21.3008V50.4036H29.0259L29.3841 50.7623H42.6055H50.6848L51.1624 51.2407H42.6055V50.9457H29.5671L31.2944 52.6756H42.6015H52.5912L53.0967 53.1819H42.5975V52.8869H31.5014L32.4606 53.8475H21.2968V53.6921L16.1507 58.846L17.0701 59.7668L21.2968 55.5336V54.29H32.8984L33.1969 54.5889H42.5936H54.4937L55.031 55.1271H42.5936V54.8321H33.4357L34.4227 55.8206H21.3008V56.2312H34.8446L35.1152 56.5022H42.6015H56.416L56.9811 57.0683H42.6015V56.7733H35.3859L36.4047 57.7937H21.3008V56.6298L17.6193 60.3169L18.5625 61.2616L21.3008 58.5192V58.1764H36.7828L37.0256 58.4195H42.6015H58.3264L58.9194 59.0135H42.6015V58.7185H37.3241L38.3708 59.7668H21.3008V59.5675L19.0879 61.7838L20.0511 62.7484L21.3008 61.4968V60.1136H38.725L38.94 60.3289H42.6055H60.2407L60.8656 60.9547H42.6055V60.6597H39.2703L40.3449 61.7359H21.3008V62.0548H40.6633L40.8503 62.2422H42.6055H62.1511L62.8038 62.8959H42.6055V62.6009H41.2085L42.315 63.709H21.3008V62.5013L20.5525 63.2506L21.3008 64H63.9023V42.6667H42.6015H42.6095ZM0 35.6991V36.3408H14.9806L14.3398 35.6991H0ZM0 27.9263V28.6836H7.33905L6.58286 27.9263H0ZM0 25.9811V26.7703H5.42867L4.64064 25.9811H0ZM0 24.0359V24.853H3.51829L2.70239 24.0359H0ZM0 22.0947V22.9397H1.60393L0.760173 22.0947H0ZM20.6242 20.6557L21.3008 21.3333V20.6557H20.6242ZM63.0983 20.5282L63.9023 21.3333V19.719L63.0983 20.5242V20.5282ZM61.6337 19.0613L62.6446 20.0737L63.9063 18.8102V16.7892L61.6337 19.0653V19.0613ZM18.7377 18.7703L18.7655 18.7982L16.2303 21.3373H16.1746L18.7377 18.7703ZM15.7607 15.7887L15.8323 15.8605L10.3638 21.3373H10.2205L15.7607 15.7887ZM0 19.9661V21.3333L8.5211 29.8675H0V30.5969H9.24943L10.8175 32.1674L10.4633 31.8127H0V32.5142H11.1598L12.4016 33.7579H0V34.4275H13.0702L16.282 37.6442H0V38.2541H16.8949L18.2243 39.5855H0V40.1674H18.8053L20.1665 41.5306H0V42.0847H20.7157L21.3008 42.6707V21.3333L20.2302 20.2611L19.1595 21.3333H19.1516L20.2262 20.2571L20.059 20.0897H21.3008V18.7105H18.6819L17.2969 17.3234L13.2971 21.3333H13.1976L17.2492 17.2755L17.2969 17.3234L18.1486 18.1724H21.3008V16.7653H16.7437L16.2382 16.2591H21.3008V14.8241H14.8015L14.3637 14.3857L7.43059 21.3293H7.23955L14.2682 14.29L14.3239 14.3458H21.2968V12.8789H12.8593L12.8951 12.9148L4.50134 21.3333H4.26652L12.7836 12.8032L11.4344 11.4519L1.56811 21.3333H1.28951L11.2951 11.3124L11.4344 11.4519L12.4135 12.4365H21.3008V10.9417H10.921L10.5031 10.5232L9.96583 9.98505L0 19.9661ZM0 14.0907V16.6577L8.31812 8.32686L8.5012 8.5142L0 17.0284V19.6393L9.80663 9.82162L9.96981 9.98505L10.5071 10.5232H21.3047V9.0005H8.98278L8.59274 8.60987H21.3008V7.05531H7.04056L7.03259 7.04733L0 14.0907ZM5.10231 5.11011L5.34111 5.34928L5.57195 5.58047L0 11.157V13.6761L6.82564 6.83607L6.68236 6.69258H21.3008V5.11011H5.10231ZM55.7672 13.1859L56.6866 14.1066L63.9023 6.87992V5.03837L55.7672 13.1859ZM3.16009 3.16492L3.84862 3.85451L4.09936 4.10962L0 8.21923V10.6946L5.33713 5.34529L4.768 4.77927H21.3008V3.16492H3.16009ZM0 5.28151V7.71301L3.84862 3.85451L2.63474 2.63876L0 5.28151ZM1.22185 1.22372L2.3641 2.36771L2.86557 2.86597H21.3008V1.22372H1.22185ZM0 2.3438V4.72745L2.36012 2.36373L1.22185 1.22372L1.17409 1.1719L0 2.3438ZM0 1.74589L0.871612 0.872945L0 0V1.74589ZM45.4711 0L44.0343 1.43896L44.7746 2.18037L46.9476 0.00398605H45.4711V0ZM57.2 0L49.9008 7.31041L49.2401 6.64873L55.8827 0H54.2708L48.4361 5.84355L47.7556 5.16193L52.9056 0H51.3375L46.9715 4.3727L46.2671 3.66717L49.9286 0H48.4043L45.5029 2.90583L44.7746 2.17638L43.2861 0.6856L43.9706 0H41.6742L42.6015 0.928749V1.93323L40.6712 0H38.741L42.6015 3.86647V4.9148L37.6942 0H35.8077L42.6015 6.80419V7.90035L34.7172 0H32.8785L42.6015 9.73792V10.8779L31.7402 0H29.9452L42.6015 12.6756V13.8635L28.7632 0H27.016L42.6055 15.6134V16.845L25.7822 0H24.0788L42.6015 18.5511V19.8266L22.8052 0H0L0.951211 0.952666H21.3008V0L42.6015 21.3333H63.9023L63.0983 20.5282L61.6337 19.0613L61.1561 18.583L63.9063 15.8286V13.8515L60.1691 17.5944L59.6676 17.0922L63.9063 12.847V10.9138L58.7005 16.1276L58.1751 15.6014L63.9023 9.86547V7.98007L57.2319 14.6607L55.1981 12.6238L63.9023 3.90633V2.10065L54.2986 11.719L54.7961 12.2172L52.834 10.2521L51.3694 8.78525L50.7326 8.14748L58.8597 0H57.2ZM60.1333 0L51.3654 8.78127L52.2171 9.63428L61.8407 0H60.1372H60.1333ZM63.0665 0L52.834 10.2481L53.7096 11.1251L63.9023 0.912805V0H63.0665Z" fill="#120540"/>
</svg>
