<svg xmlns="http://www.w3.org/2000/svg" width="621" height="621" viewBox="0 0 621 621">
    <defs>
        <linearGradient id="a" x1="50%" x2="50%" y1="31.653%" y2="91.369%">
            <stop offset="0%" stop-color="#FFF"/>
            <stop offset="100%"/>
        </linearGradient>
    </defs>
    <path fill="none" fill-rule="evenodd" stroke="url(#a)" stroke-width=".2" d="M363 1443v-19.968h19.968V1443h39.935v-19.968h-19.968v-19.967h19.968v-19.968h-39.935v19.968H363v-39.936h19.968v-19.968H363v-39.935h19.968v19.968h19.967v-19.968h19.968v39.935h-19.968v19.968h59.904v-19.968H442.87v-39.935h19.968v19.968h19.967v-19.968h19.968v39.935h-19.968v19.968h19.968v39.936h-19.968v-19.968h-39.935v19.968h19.968v19.967H442.87V1443h39.935v-19.968h19.968V1443h39.936v-19.968h-19.968v-39.935h19.968v19.968h19.967v-19.968h19.968v39.935h-19.968V1443h39.936v-19.968h19.968V1443h39.935v-19.968h-19.968v-19.967h19.968v-19.968h-39.935v19.968h-19.968v-59.904h19.968v19.968h39.935v-19.968h-19.968v-19.967h19.968v-19.968h-39.935v19.968h-19.968v-19.968h-39.936v19.968h19.968v39.935h-19.968v-19.968H542.71v19.968h-19.968v-39.935h19.968v-19.968h-19.968v-19.968h19.968v-19.968h-19.968v-39.935h19.968v19.968h19.967v-19.968h19.968v39.935h-19.968v19.968h39.936v-19.968h19.968v19.968h39.935v-19.968h-19.968v-19.967h19.968v-19.968h-39.935v19.968h-19.968v-59.904h19.968v19.968h39.935v-19.968h-19.968v-19.967h19.968v-19.968h-39.935v19.968h-19.968v-19.968h-39.936v19.968h19.968v39.935h-19.968v-19.968H542.71v19.968h-19.968v-39.935h19.968v-19.968h-39.936v19.968h-19.968v-19.968h-39.935v19.968h19.968v19.967H442.87v19.968h39.935v-19.968h19.968v39.936h-19.968v19.968h19.968v39.935h-19.968v-19.968H462.84v19.968H442.87v-39.935h19.968v-19.968h-59.904v19.968h19.968v39.935h-19.968v-19.968h-19.967v19.968H363v-39.935h19.968v-19.968H363v-39.936h19.968v19.968h39.935v-19.968h-19.968v-19.967h19.968v-19.968h-39.935v19.968H363v-39.936h19.968v-19.968H363v-39.935h19.968v19.968h19.967v-19.968h19.968v39.935h-19.968v19.968h39.936v-19.968h19.968v19.968h39.935v-19.968h-19.968v-19.967h19.968v-19.968H462.84v19.968H442.87v-59.904h19.968v19.968h39.935v-19.968h-19.968v-19.967h19.968v-19.968H462.84v19.968H442.87v-19.968h-39.936v19.968h19.968v39.935h-19.968v-19.968h-19.967v19.968H363v-39.935h19.968v-19.968H363v-39.936h19.968v19.968h39.935v-19.968h-19.968V923.84h19.968V903.87h-39.935v19.968H363v-39.936h19.968v-19.968H363V824h19.968v19.968h19.967V824h19.968v39.935h-19.968v19.968h59.904v-19.968H442.87V824h19.968v19.968h19.967V824h19.968v39.935h-19.968v19.968h19.968v39.936h-19.968V903.87h-39.935v19.968h19.968v19.967H442.87v19.968h39.935v-19.968h19.968v19.968h19.968v-19.968h19.968v19.968h39.935v-19.968h-19.968V923.84h19.968V903.87H542.71v19.968h-19.968v-39.936h19.968v-19.968h-19.968V824h19.968v19.968h19.967V824h19.968v39.935h-19.968v19.968h59.904v-19.968h-19.968V824h19.968v19.968h19.967V824h19.968v39.935h-19.968v19.968h19.968v39.936h-19.968V903.87h-39.935v19.968h19.968v19.967h-19.968v19.968h39.935v-19.968h19.968v39.936h-19.968v19.968h19.968v39.935h-19.968v-19.968h-19.967v19.968h-19.968v-39.935h19.968v-19.968h-39.936v19.968h-19.968v-19.968h-39.935v19.968h19.968v19.967h-19.968v19.968h39.935v-19.968h19.968v59.904h-19.968v-19.968h-39.935v19.968h19.968v19.967h-19.968v19.968h39.935v-19.968h19.968v19.968h39.936v-19.968h-19.968v-39.935h19.968v19.968h19.967v-19.968h19.968v39.935h-19.968v19.968h59.904v-19.968h-19.968v-39.935h19.968v19.968h19.967v-19.968h19.968v39.935H722.42v19.968h39.936v-19.968h19.968v19.968h39.935v-19.968H802.29v-19.967h19.968v-19.968h-39.935v19.968h-19.968v-59.904h19.968v19.968h39.935v-19.968H802.29v-19.967h19.968v-19.968h-39.935v19.968h-19.968v-19.968h-39.936v19.968h19.968v39.935H722.42v-19.968h-19.967v19.968h-19.968v-39.935h19.968v-19.968h-19.968v-39.936h19.968v19.968h39.935v-19.968H722.42V923.84h19.968V903.87h-39.935v19.968h-19.968v-39.936h19.968v-19.968h-19.968V824h19.968v19.968h19.967V824h19.968v39.935H722.42v19.968h59.904v-19.968h-19.968V824h19.968v19.968h19.967V824h19.968v39.935H802.29v19.968h19.968v39.936H802.29V903.87h-39.935v19.968h19.968v19.967h-19.968v19.968h39.935v-19.968h19.968v19.968h19.968v-19.968h19.968v19.968h39.935v-19.968h-19.968V923.84h19.968V903.87h-39.935v19.968h-19.968v-39.936h19.968v-19.968h-19.968V824h19.968v19.968h19.967V824h19.968v39.935h-19.968v19.968h59.904v-19.968h-19.968V824h19.968v19.968h19.967V824H982v39.935h-19.968v19.968H982v39.936h-19.968V903.87h-39.935v19.968h19.968v19.967h-19.968v19.968h39.935v-19.968H982v39.936h-19.968v19.968H982v39.935h-19.968v-19.968h-19.967v19.968h-19.968v-39.935h19.968v-19.968h-39.936v19.968h-19.968v-19.968h-39.935v19.968h19.968v19.967h-19.968v19.968h39.935v-19.968h19.968v59.904h-19.968v-19.968h-39.935v19.968h19.968v19.967h-19.968v19.968h39.935v-19.968h19.968v19.968h39.936v-19.968h-19.968v-39.935h19.968v19.968h19.967v-19.968H982v39.935h-19.968v19.968H982v39.936h-19.968v-19.968h-39.935v19.968h19.968v19.967h-19.968v19.968h39.935v-19.968H982v39.936h-19.968v19.968H982v39.935h-19.968v-19.968h-19.967v19.968h-19.968v-39.935h19.968v-19.968H882.16v19.968h19.968v39.935h-19.968v-19.968h-19.967v19.968h-19.968v-39.935h19.968v-19.968h-19.968v-39.936h19.968v19.968h39.935v-19.968h-19.968v-19.967h19.968v-19.968h-39.935v19.968h-19.968v-19.968H802.29v19.968h19.968v39.935H802.29v-19.968h-19.967v19.968h-19.968v-39.935h19.968v-19.968h-39.936v19.968H722.42v-19.968h-39.935v19.968h19.968v19.967h-19.968v19.968h39.935v-19.968h19.968v59.904H722.42v-19.968h-39.935v19.968h19.968v19.967h-19.968v19.968h39.935v-19.968h19.968v19.968h39.936v-19.968h-19.968v-39.935h19.968v19.968h19.967v-19.968h19.968v39.935H802.29v19.968h19.968v19.968H802.29v19.968h19.968v39.935H802.29v-19.968h-19.967v19.968h-19.968v-39.935h19.968v-19.968h-39.936v19.968H722.42v-19.968h-39.935v19.968h19.968v19.967h-19.968v19.968h39.935v-19.968h19.968v59.904H722.42v-19.968h-39.935v19.968h19.968v19.967h-19.968V1443h39.935v-19.968h19.968V1443h39.936v-19.968h-19.968v-39.935h19.968v19.968h19.967v-19.968h19.968v39.935H802.29V1443h39.936v-19.968h19.968V1443h39.935v-19.968h-19.968v-19.967h19.968v-19.968h-39.935v19.968h-19.968v-39.936h19.968v-19.968h-19.968v-39.935h19.968v19.968h19.967v-19.968h19.968v39.935h-19.968v19.968h59.904v-19.968h-19.968v-39.935h19.968v19.968h19.967v-19.968H982v39.935h-19.968v19.968H982v39.936h-19.968v-19.968h-39.935v19.968h19.968v19.967h-19.968V1443h39.935v-19.968H982V1443" transform="translate(-362 -823)"/>
</svg>
