<svg xmlns="http://www.w3.org/2000/svg" width="375" height="377" viewBox="0 0 375 377">
    <defs>
        <linearGradient id="a" x1="50%" x2="50%" y1="31.653%" y2="91.369%">
            <stop offset="0%"/>
            <stop offset="100%" stop-color="#FFF"/>
        </linearGradient>
    </defs>
    <path fill="none" fill-rule="evenodd" stroke="url(#a)" stroke-width=".2" d="M0 1183v-12.097h12.097V1183H36.29v-12.097H24.194v-12.097H36.29v-12.096H12.097v12.096H0v-24.193h12.097v-12.097H0v-24.193h12.097v12.096h12.097v-12.096H36.29v24.193H24.194v12.097h36.29v-12.097H48.387v-24.193h12.097v12.096H72.58v-12.096h12.096v24.193H72.581v12.097h12.096v24.193H72.581v-12.096H48.387v12.096h12.097v12.097H48.387V1183h24.194v-12.097h12.096V1183h24.194v-12.097H96.774v-24.193h12.097v12.096h12.097v-12.096h12.097v24.193h-12.097V1183h24.193v-12.097h12.097V1183h24.194v-12.097h-12.097v-12.097h12.097v-12.096h-24.194v12.096h-12.097v-36.29h12.097v12.097h24.194v-12.097h-12.097v-12.097h12.097v-12.096h-24.194v12.096h-12.097v-12.096h-24.193v12.096h12.097v24.194h-12.097v-12.097H108.87v12.097H96.774v-24.194h12.097v-12.096H96.774v-12.097h12.097v-12.097H96.774v-24.194h12.097v12.097h12.097v-12.097h12.097v24.194h-12.097v12.097h24.193v-12.097h12.097v12.097h24.194v-12.097h-12.097v-12.097h12.097v-12.097h-24.194v12.097h-12.097v-36.29h12.097v12.097h24.194v-12.097h-12.097v-12.097h12.097v-12.097h-24.194v12.097h-12.097v-12.097h-24.193v12.097h12.097v24.194h-12.097v-12.097H108.87v12.097H96.774v-24.194h12.097v-12.097H84.677v12.097H72.581v-12.097H48.387v12.097h12.097v12.097H48.387v12.097h24.194v-12.097h12.096v24.193H72.581v12.097h12.096v24.194H72.581v-12.097H60.484v12.097H48.387v-24.194h12.097v-12.097h-36.29v12.097H36.29v24.194H24.194v-12.097H12.097v12.097H0v-24.194h12.097v-12.097H0v-24.193h12.097v12.097H36.29v-12.097H24.194v-12.097H36.29v-12.097H12.097v12.097H0v-24.193h12.097v-12.097H0V953.16h12.097v12.097h12.097v-12.097H36.29v24.194H24.194v12.097h24.193v-12.097h12.097v12.097h24.193v-12.097H72.581v-12.097h12.096v-12.097H60.484v12.097H48.387v-36.29h12.097v12.097h24.193v-12.097H72.581V916.87h12.096v-12.097H60.484v12.097H48.387v-12.097H24.194v12.097H36.29v24.194H24.194v-12.097H12.097v12.097H0V916.87h12.097v-12.097H0v-24.193h12.097v12.096H36.29v-12.096H24.194v-12.097H36.29v-12.097H12.097v12.097H0V844.29h12.097v-12.096H0V808h12.097v12.097h12.097V808H36.29v24.194H24.194v12.096h36.29v-12.096H48.387V808h12.097v12.097H72.58V808h12.096v24.194H72.581v12.096h12.096v24.194H72.581v-12.097H48.387v12.097h12.097v12.097H48.387v12.096h24.194v-12.096h12.096v12.096h12.097v-12.096h12.097v12.096h24.194v-12.096h-12.097v-12.097h12.097v-12.097H108.87v12.097H96.774V844.29h12.097v-12.096H96.774V808h12.097v12.097h12.097V808h12.097v24.194h-12.097v12.096h36.29v-12.096h-12.097V808h12.097v12.097h12.097V808h12.097v24.194h-12.097v12.096h12.097v24.194h-12.097v-12.097H145.16v12.097h12.097v12.097h-12.097v12.096h24.194v-12.096h12.097v24.193h-12.097v12.097h12.097v24.194h-12.097v-12.097h-12.097v12.097h-12.097V916.87h12.097v-12.097h-24.193v12.097h-12.097v-12.097H96.774v12.097h12.097v12.097H96.774v12.097h24.194v-12.097h12.097v36.29h-12.097v-12.097H96.774v12.097h12.097v12.097H96.774v12.097h24.194v-12.097h12.097v12.097h24.193v-12.097h-12.097V953.16h12.097v12.097h12.097v-12.097h12.097v24.194h-12.097v12.097h36.29v-12.097h-12.097V953.16h12.097v12.097h12.097v-12.097h12.097v24.194h-12.097v12.097h24.193v-12.097h12.097v12.097h24.194v-12.097h-12.097v-12.097h12.097v-12.097h-24.194v12.097h-12.097v-36.29h12.097v12.097h24.194v-12.097h-12.097V916.87h12.097v-12.097h-24.194v12.097h-12.097v-12.097h-24.193v12.097h12.097v24.194h-12.097v-12.097h-12.097v12.097h-12.097V916.87h12.097v-12.097h-12.097v-24.193h12.097v12.096h24.194v-12.096h-12.097v-12.097h12.097v-12.097h-24.194v12.097h-12.097V844.29h12.097v-12.096h-12.097V808h12.097v12.097h12.097V808h12.097v24.194h-12.097v12.096h36.29v-12.096h-12.097V808h12.097v12.097h12.097V808h12.097v24.194h-12.097v12.096h12.097v24.194h-12.097v-12.097h-24.194v12.097h12.097v12.097h-12.097v12.096h24.194v-12.096h12.097v12.096h12.097v-12.096h12.096v12.096h24.194v-12.096h-12.097v-12.097h12.097v-12.097h-24.194v12.097h-12.096V844.29h12.096v-12.096h-12.096V808h12.096v12.097h12.097V808h12.097v24.194h-12.097v12.096h36.29v-12.096H338.71V808h12.096v12.097h12.097V808H375v24.194h-12.097v12.096H375v24.194h-12.097v-12.097H338.71v12.097h12.096v12.097H338.71v12.096h24.193v-12.096H375v24.193h-12.097v12.097H375v24.194h-12.097v-12.097h-12.097v12.097H338.71V916.87h12.096v-12.097h-24.193v12.097h-12.097v-12.097h-24.193v12.097h12.096v12.097h-12.096v12.097h24.193v-12.097h12.097v36.29h-12.097v-12.097h-24.193v12.097h12.096v12.097h-12.096v12.097h24.193v-12.097h12.097v12.097h24.193v-12.097H338.71V953.16h12.096v12.097h12.097v-12.097H375v24.194h-12.097v12.097H375v24.193h-12.097v-12.097H338.71v12.097h12.096v12.097H338.71v12.097h24.193v-12.097H375v24.193h-12.097v12.097H375v24.194h-12.097v-12.097h-12.097v12.097H338.71v-24.194h12.096v-12.097h-36.29v12.097h12.097v24.194h-12.097v-12.097H302.42v12.097h-12.096v-24.194h12.096v-12.097h-12.096v-24.193h12.096v12.097h24.194v-12.097h-12.097v-12.097h12.097v-12.097h-24.194v12.097h-12.096v-12.097h-24.194v12.097h12.097v24.194h-12.097v-12.097h-12.097v12.097h-12.097v-24.194h12.097v-12.097H229.84v12.097h-12.097v-12.097h-24.194v12.097h12.097v12.097h-12.097v12.097h24.194v-12.097h12.097v36.29h-12.097v-12.097h-24.194v12.097h12.097v12.097h-12.097v12.097h24.194v-12.097h12.097v12.097h24.193v-12.097h-12.097v-24.194h12.097v12.097h12.097v-12.097h12.097v24.194h-12.097v12.097h12.097v12.097h-12.097v12.096h12.097v24.194h-12.097v-12.097h-12.097v12.097h-12.097v-24.194h12.097v-12.096H229.84v12.096h-12.097v-12.096h-24.194v12.096h12.097v12.097h-12.097v12.097h24.194v-12.097h12.097v36.29h-12.097v-12.096h-24.194v12.096h12.097v12.097h-12.097V1183h24.194v-12.097h12.097V1183h24.193v-12.097h-12.097v-24.193h12.097v12.096h12.097v-12.096h12.097v24.193h-12.097V1183h24.194v-12.097h12.096V1183h24.194v-12.097h-12.097v-12.097h12.097v-12.096h-24.194v12.096h-12.096v-24.193h12.096v-12.097h-12.096v-24.193h12.096v12.096h12.097v-12.096h12.097v24.193h-12.097v12.097h36.29v-12.097H338.71v-24.193h12.096v12.096h12.097v-12.096H375v24.193h-12.097v12.097H375v24.193h-12.097v-12.096H338.71v12.096h12.096v12.097H338.71V1183h24.193v-12.097H375V1183" transform="translate(0 -807)"/>
</svg>
