<svg xmlns="http://www.w3.org/2000/svg" width="358" height="538" viewBox="0 0 358 538">
    <defs>
        <linearGradient id="a" x1="50%" x2="50%" y1="31.653%" y2="65.472%">
            <stop offset="0%"/>
            <stop offset="100%" stop-color="#FFF"/>
        </linearGradient>
    </defs>
    <path fill="none" fill-rule="evenodd" stroke="url(#a)" stroke-width=".2" d="M.17 537.566v-17.34h17.34v17.34h34.682v-17.34h-17.34v-17.342h17.34v-17.34H17.51v17.34H.17v-34.681h17.34v-17.341H.17V416.18h17.34v17.341h17.341v-17.34h17.341v34.68h-17.34v17.342h52.022v-17.341H69.533V416.18h17.34v17.341h17.341v-17.34h17.341v34.68h-17.34v17.342h17.34v34.681h-17.34v-17.34H69.532v17.34h17.34v17.341h-17.34v17.341h34.681v-17.34h17.341v17.34h34.682v-17.34h-17.34v-34.682h17.34v17.34h17.34v-17.34h17.342v34.681h-17.341v17.341h34.682v-17.34h17.34v17.34h34.682v-17.34h-17.34v-17.342h17.34v-17.34H225.6v17.34h-17.34v-52.022h17.34v17.34h34.682v-17.34h-17.34V433.52h17.34v-17.34H225.6v17.34h-17.34v-17.34h-34.682v17.34h17.34v34.682h-17.34v-17.341h-17.341v17.34h-17.34v-34.681h17.34v-17.34h-17.34v-17.342h17.34V381.5h-17.34v-34.682h17.34v17.34h17.34v-17.34h17.342v34.682h-17.341v17.34h34.682V381.5h17.34v17.34h34.682V381.5h-17.34v-17.341h17.34v-17.341H225.6v17.34h-17.34v-52.022h17.34v17.341h34.682v-17.34h-17.34v-17.342h17.34v-17.34H225.6v17.34h-17.34v-17.34h-34.682v17.34h17.34v34.682h-17.34v-17.34h-17.341v17.34h-17.34v-34.682h17.34v-17.34h-34.682v17.34h-17.34v-17.34H69.532v17.34h17.34v17.341h-17.34v17.341h34.681v-17.34h17.341v34.68h-17.34v17.342h17.34v34.681h-17.34V381.5H86.873v17.34H69.533v-34.681h17.34v-17.341H34.852v17.34h17.341v34.682h-17.34V381.5H17.51v17.34H.17v-34.681h17.34v-17.341H.17v-34.682h17.34v17.341h34.682v-17.34h-17.34v-17.342h17.34v-17.34H17.51v17.34H.17v-34.681h17.34v-17.341H.17V208.09h17.34v17.34h17.341v-17.34h17.341v34.682h-17.34v17.34h34.68v-17.34h17.342v17.34h34.681v-17.34h-17.34V225.43h17.34v-17.34H86.874v17.34H69.533v-52.023h17.34v17.341h34.682v-17.34h-17.34v-17.341h17.34v-17.341H86.874v17.34H69.533v-17.34H34.85v17.34h17.341v34.682h-17.34v-17.34H17.51v17.34H.17v-34.681h17.34v-17.341H.17v-34.682h17.34v17.34h34.682v-17.34h-17.34v-17.34h17.34V69.362H17.51v17.341H.17V52.023h17.34V34.682H.17V0h17.34v17.34h17.341V0h17.341v34.682h-17.34v17.34h52.022v-17.34H69.533V0h17.34v17.34h17.341V0h17.341v34.682h-17.34v17.34h17.34v34.682h-17.34v-17.34H69.532v17.34h17.34v17.341h-17.34v17.34h34.681v-17.34h17.341v17.34h17.341v-17.34h17.341v17.34h34.682v-17.34h-17.341v-17.34h17.34V69.362h-34.681v17.341h-17.34V52.023h17.34V34.682h-17.34V0h17.34v17.34h17.34V0h17.342v34.682h-17.341v17.34H225.6v-17.34h-17.34V0h17.34v17.34h17.341V0h17.341v34.682h-17.34v17.34h17.34v34.682h-17.34v-17.34H208.26v17.34h17.34v17.341h-17.34v17.34h34.681v-17.34h17.341v34.682h-17.34v17.34h17.34v34.682h-17.34v-17.34H225.6v17.34h-17.34v-34.681h17.34v-17.341H190.92v17.34h-17.341v-17.34h-34.682v17.34h17.341v17.341h-17.34v17.341h34.68v-17.34h17.342v52.022h-17.341v-17.34h-34.682v17.34h17.341v17.34h-17.34v17.342h34.68v-17.341h17.342v17.34H225.6v-17.34h-17.34V208.09h17.34v17.34h17.341v-17.34h17.341v34.682h-17.34v17.34h52.022v-17.34h-17.341V208.09h17.34v17.34h17.342v-17.34h17.34v34.682h-17.34v17.34h34.681v-17.34h17.341v17.34h34.682v-17.34h-17.341V225.43h17.34v-17.34h-34.68v17.34h-17.342v-52.023h17.341v17.341h34.682v-17.34h-17.341v-17.341h17.34v-17.341h-34.68v17.34h-17.342v-17.34h-34.681v17.34h17.34v34.682h-17.34v-17.34h-17.341v17.34h-17.341v-34.681h17.34v-17.341h-17.34v-34.682h17.34v17.34h34.682v-17.34h-17.34v-17.34h17.34V69.362h-34.681v17.341h-17.341V52.023h17.34V34.682h-17.34V0h17.34v17.34h17.342V0h17.34v34.682h-17.34v17.34h52.022v-17.34h-17.34V0h17.34v17.34h17.341V0h17.34v34.682h-17.34v17.34h17.34v34.682h-17.34v-17.34h-34.682v17.34h17.341v17.341h-17.34v17.34h34.681v-17.34h17.34v17.34h17.342v-17.34h17.34v17.34h34.682v-17.34h-17.34v-17.34h17.34V69.362H433.69v17.341h-17.34V52.023h17.34V34.682h-17.34V0h17.34v17.34h17.341V0h17.341v34.682h-17.34v17.34h52.022v-17.34h-17.341V0h17.34v17.34h17.342V0h17.34v34.682h-17.34v17.34h17.34v34.682h-17.34v-17.34h-34.682v17.34h17.34v17.341h-17.34v17.34h34.682v-17.34h17.34v34.682h-17.34v17.34h17.34v34.682h-17.34v-17.34h-17.341v17.34h-17.341v-34.681h17.34v-17.341h-34.68v17.34H451.03v-17.34H416.35v17.34h17.34v17.341h-17.34v17.341h34.681v-17.34h17.341v52.022h-17.34v-17.34H416.35v17.34h17.34v17.34h-17.34v17.342h34.681v-17.341h17.341v17.34h34.682v-17.34h-17.341V208.09h17.34v17.34h17.342v-17.34h17.34v34.682h-17.34v17.34h17.34v34.682h-17.34v-17.34h-34.682v17.34h17.34v17.341h-17.34v17.341h34.682v-17.34h17.34v34.68h-17.34v17.342h17.34v34.681h-17.34V381.5h-17.341v17.34h-17.341v-34.681h17.34v-17.341h-52.022v17.34h17.341v34.682h-17.34V381.5H433.69v17.34h-17.34v-34.681h17.34v-17.341h-17.34v-34.682h17.34v17.341h34.682v-17.34h-17.34v-17.342h17.34v-17.34H433.69v17.34h-17.34v-17.34h-34.682v17.34h17.34v34.682h-17.34v-17.34h-17.34v17.34h-17.342v-34.682h17.341v-17.34h-34.682v17.34h-17.34v-17.34h-34.682v17.34h17.34v17.341h-17.34v17.341h34.682v-17.34h17.34v52.022h-17.34v-17.341h-34.682v17.34h17.34V381.5h-17.34v17.34h34.682V381.5h17.34v17.34h34.682V381.5h-17.34v-34.682h17.34v17.34h17.341v-17.34h17.34v34.682h-17.34v17.34h17.34v17.341h-17.34v17.341h17.34v34.682h-17.34v-17.341h-17.34v17.34h-17.342v-34.681h17.341v-17.34h-34.682v17.34h-17.34v-17.34h-34.682v17.34h17.34v17.34h-17.34v17.342h34.682v-17.341h17.34v52.022h-17.34v-17.34h-34.682v17.34h17.34v17.341h-17.34v17.341h34.682v-17.34h17.34v17.34h34.682v-17.34h-17.34v-34.682h17.34v17.34h17.341v-17.34h17.34v34.681h-17.34v17.341h34.682v-17.34h17.34v17.34h34.682v-17.34h-17.34v-17.342h17.34v-17.34H433.69v17.34h-17.34v-34.681h17.34v-17.341h-17.34V416.18h17.34v17.341h17.341v-17.34h17.341v34.68h-17.34v17.342h52.022v-17.341h-17.341V416.18h17.34v17.341h17.342v-17.34h17.34v34.68h-17.34v17.342h17.34v34.681h-17.34v-17.34h-34.682v17.34h17.34v17.341h-17.34v17.341h34.682v-17.34h17.34v17.34" opacity=".501" transform="rotate(90 178.5 178.5)"/>
</svg>
