<svg xmlns="http://www.w3.org/2000/svg" width="373" height="723" viewBox="0 0 373 723">
  <defs>
    <linearGradient id="pattern_sm-a" x1="50%" x2="50%" y1="31.653%" y2="91.369%">
      <stop offset="0%"/>
      <stop offset="100%" stop-color="#FFF"/>
    </linearGradient>
  </defs>
  <g fill="none" fill-rule="evenodd" transform="translate(-1 58)">
    <polyline stroke="url(#pattern_sm-a)" stroke-width=".2" points="0 665 0 652.903 12.097 652.903 12.097 665 36.29 665 36.29 652.903 24.194 652.903 24.194 640.806 36.29 640.806 36.29 628.71 12.097 628.71 12.097 640.806 0 640.806 0 616.613 12.097 616.613 12.097 604.516 0 604.516 0 580.323 12.097 580.323 12.097 592.419 24.194 592.419 24.194 580.323 36.29 580.323 36.29 604.516 24.194 604.516 24.194 616.613 60.484 616.613 60.484 604.516 48.387 604.516 48.387 580.323 60.484 580.323 60.484 592.419 72.58 592.419 72.58 580.323 84.676 580.323 84.676 604.516 72.581 604.516 72.581 616.613 84.677 616.613 84.677 640.806 72.581 640.806 72.581 628.71 48.387 628.71 48.387 640.806 60.484 640.806 60.484 652.903 48.387 652.903 48.387 665 72.581 665 72.581 652.903 84.677 652.903 84.677 665 108.871 665 108.871 652.903 96.774 652.903 96.774 628.71 108.871 628.71 108.871 640.806 120.968 640.806 120.968 628.71 133.065 628.71 133.065 652.903 120.968 652.903 120.968 665 145.161 665 145.161 652.903 157.258 652.903 157.258 665 181.452 665 181.452 652.903 169.355 652.903 169.355 640.806 181.452 640.806 181.452 628.71 157.258 628.71 157.258 640.806 145.161 640.806 145.161 604.516 157.258 604.516 157.258 616.613 181.452 616.613 181.452 604.516 169.355 604.516 169.355 592.419 181.452 592.419 181.452 580.323 157.258 580.323 157.258 592.419 145.161 592.419 145.161 580.323 120.968 580.323 120.968 592.419 133.065 592.419 133.065 616.613 120.968 616.613 120.968 604.516 108.87 604.516 108.87 616.613 96.774 616.613 96.774 592.419 108.871 592.419 108.871 580.323 96.774 580.323 96.774 568.226 108.871 568.226 108.871 556.129 96.774 556.129 96.774 531.935 108.871 531.935 108.871 544.032 120.968 544.032 120.968 531.935 133.065 531.935 133.065 556.129 120.968 556.129 120.968 568.226 145.161 568.226 145.161 556.129 157.258 556.129 157.258 568.226 181.452 568.226 181.452 556.129 169.355 556.129 169.355 544.032 181.452 544.032 181.452 531.935 157.258 531.935 157.258 544.032 145.161 544.032 145.161 507.742 157.258 507.742 157.258 519.839 181.452 519.839 181.452 507.742 169.355 507.742 169.355 495.645 181.452 495.645 181.452 483.548 157.258 483.548 157.258 495.645 145.161 495.645 145.161 483.548 120.968 483.548 120.968 495.645 133.065 495.645 133.065 519.839 120.968 519.839 120.968 507.742 108.87 507.742 108.87 519.839 96.774 519.839 96.774 495.645 108.871 495.645 108.871 483.548 84.677 483.548 84.677 495.645 72.581 495.645 72.581 483.548 48.387 483.548 48.387 495.645 60.484 495.645 60.484 507.742 48.387 507.742 48.387 519.839 72.581 519.839 72.581 507.742 84.677 507.742 84.677 531.935 72.581 531.935 72.581 544.032 84.677 544.032 84.677 568.226 72.581 568.226 72.581 556.129 60.484 556.129 60.484 568.226 48.387 568.226 48.387 544.032 60.484 544.032 60.484 531.935 24.194 531.935 24.194 544.032 36.29 544.032 36.29 568.226 24.194 568.226 24.194 556.129 12.097 556.129 12.097 568.226 0 568.226 0 544.032 12.097 544.032 12.097 531.935 0 531.935 0 507.742 12.097 507.742 12.097 519.839 36.29 519.839 36.29 507.742 24.194 507.742 24.194 495.645 36.29 495.645 36.29 483.548 12.097 483.548 12.097 495.645 0 495.645 0 471.452 12.097 471.452 12.097 459.355 0 459.355 0 435.16 12.097 435.16 12.097 447.257 24.194 447.257 24.194 435.16 36.29 435.16 36.29 459.354 24.194 459.354 24.194 471.451 48.387 471.451 48.387 459.354 60.484 459.354 60.484 471.451 84.677 471.451 84.677 459.354 72.581 459.354 72.581 447.257 84.677 447.257 84.677 435.16 60.484 435.16 60.484 447.257 48.387 447.257 48.387 410.967 60.484 410.967 60.484 423.064 84.677 423.064 84.677 410.967 72.581 410.967 72.581 398.87 84.677 398.87 84.677 386.773 60.484 386.773 60.484 398.87 48.387 398.87 48.387 386.773 24.194 386.773 24.194 398.87 36.29 398.87 36.29 423.064 24.194 423.064 24.194 410.967 12.097 410.967 12.097 423.064 0 423.064 0 398.87 12.097 398.87 12.097 386.773 0 386.773 0 362.58 12.097 362.58 12.097 374.676 36.29 374.676 36.29 362.58 24.194 362.58 24.194 350.483 36.29 350.483 36.29 338.386 12.097 338.386 12.097 350.483 0 350.483 0 326.29 12.097 326.29 12.097 314.194 0 314.194 0 290 12.097 290 12.097 302.097 24.194 302.097 24.194 290 36.29 290 36.29 314.194 24.194 314.194 24.194 326.29 60.484 326.29 60.484 314.194 48.387 314.194 48.387 290 60.484 290 60.484 302.097 72.58 302.097 72.58 290 84.676 290 84.676 314.194 72.581 314.194 72.581 326.29 84.677 326.29 84.677 350.484 72.581 350.484 72.581 338.387 48.387 338.387 48.387 350.484 60.484 350.484 60.484 362.581 48.387 362.581 48.387 374.677 72.581 374.677 72.581 362.581 84.677 362.581 84.677 374.677 96.774 374.677 96.774 362.581 108.871 362.581 108.871 374.677 133.065 374.677 133.065 362.581 120.968 362.581 120.968 350.484 133.065 350.484 133.065 338.387 108.87 338.387 108.87 350.484 96.774 350.484 96.774 326.29 108.871 326.29 108.871 314.194 96.774 314.194 96.774 290 108.871 290 108.871 302.097 120.968 302.097 120.968 290 133.065 290 133.065 314.194 120.968 314.194 120.968 326.29 157.258 326.29 157.258 314.194 145.161 314.194 145.161 290 157.258 290 157.258 302.097 169.355 302.097 169.355 290 181.452 290 181.452 314.194 169.355 314.194 169.355 326.29 181.452 326.29 181.452 350.484 169.355 350.484 169.355 338.387 145.16 338.387 145.16 350.484 157.257 350.484 157.257 362.581 145.16 362.581 145.16 374.677 169.354 374.677 169.354 362.581 181.451 362.581 181.451 386.774 169.354 386.774 169.354 398.871 181.451 398.871 181.451 423.065 169.354 423.065 169.354 410.968 157.257 410.968 157.257 423.065 145.16 423.065 145.16 398.87 157.257 398.87 157.257 386.773 133.064 386.773 133.064 398.87 120.967 398.87 120.967 386.773 96.774 386.773 96.774 398.87 108.871 398.87 108.871 410.967 96.774 410.967 96.774 423.064 120.968 423.064 120.968 410.967 133.065 410.967 133.065 447.257 120.968 447.257 120.968 435.16 96.774 435.16 96.774 447.257 108.871 447.257 108.871 459.354 96.774 459.354 96.774 471.451 120.968 471.451 120.968 459.354 133.065 459.354 133.065 471.451 157.258 471.451 157.258 459.354 145.161 459.354 145.161 435.16 157.258 435.16 157.258 447.257 169.355 447.257 169.355 435.16 181.452 435.16 181.452 459.354 169.355 459.354 169.355 471.451 205.645 471.451 205.645 459.354 193.548 459.354 193.548 435.16 205.645 435.16 205.645 447.257 217.742 447.257 217.742 435.16 229.839 435.16 229.839 459.354 217.742 459.354 217.742 471.451 241.935 471.451 241.935 459.354 254.032 459.354 254.032 471.451 278.226 471.451 278.226 459.354 266.129 459.354 266.129 447.257 278.226 447.257 278.226 435.16 254.032 435.16 254.032 447.257 241.935 447.257 241.935 410.967 254.032 410.967 254.032 423.064 278.226 423.064 278.226 410.967 266.129 410.967 266.129 398.87 278.226 398.87 278.226 386.773 254.032 386.773 254.032 398.87 241.935 398.87 241.935 386.773 217.742 386.773 217.742 398.87 229.839 398.87 229.839 423.064 217.742 423.064 217.742 410.967 205.645 410.967 205.645 423.064 193.548 423.064 193.548 398.87 205.645 398.87 205.645 386.773 193.548 386.773 193.548 362.58 205.645 362.58 205.645 374.676 229.839 374.676 229.839 362.58 217.742 362.58 217.742 350.483 229.839 350.483 229.839 338.386 205.645 338.386 205.645 350.483 193.548 350.483 193.548 326.29 205.645 326.29 205.645 314.194 193.548 314.194 193.548 290 205.645 290 205.645 302.097 217.742 302.097 217.742 290 229.839 290 229.839 314.194 217.742 314.194 217.742 326.29 254.032 326.29 254.032 314.194 241.935 314.194 241.935 290 254.032 290 254.032 302.097 266.129 302.097 266.129 290 278.226 290 278.226 314.194 266.129 314.194 266.129 326.29 278.226 326.29 278.226 350.484 266.129 350.484 266.129 338.387 241.935 338.387 241.935 350.484 254.032 350.484 254.032 362.581 241.935 362.581 241.935 374.677 266.129 374.677 266.129 362.581 278.226 362.581 278.226 374.677 290.323 374.677 290.323 362.581 302.419 362.581 302.419 374.677 326.613 374.677 326.613 362.581 314.516 362.581 314.516 350.484 326.613 350.484 326.613 338.387 302.419 338.387 302.419 350.484 290.323 350.484 290.323 326.29 302.419 326.29 302.419 314.194 290.323 314.194 290.323 290 302.419 290 302.419 302.097 314.516 302.097 314.516 290 326.613 290 326.613 314.194 314.516 314.194 314.516 326.29 350.806 326.29 350.806 314.194 338.71 314.194 338.71 290 350.806 290 350.806 302.097 362.903 302.097 362.903 290 375 290 375 314.194 362.903 314.194 362.903 326.29 375 326.29 375 350.484 362.903 350.484 362.903 338.387 338.71 338.387 338.71 350.484 350.806 350.484 350.806 362.581 338.71 362.581 338.71 374.677 362.903 374.677 362.903 362.581 375 362.581 375 386.774 362.903 386.774 362.903 398.871 375 398.871 375 423.065 362.903 423.065 362.903 410.968 350.806 410.968 350.806 423.065 338.71 423.065 338.71 398.87 350.806 398.87 350.806 386.773 326.613 386.773 326.613 398.87 314.516 398.87 314.516 386.773 290.323 386.773 290.323 398.87 302.419 398.87 302.419 410.967 290.323 410.967 290.323 423.064 314.516 423.064 314.516 410.967 326.613 410.967 326.613 447.257 314.516 447.257 314.516 435.16 290.323 435.16 290.323 447.257 302.419 447.257 302.419 459.354 290.323 459.354 290.323 471.451 314.516 471.451 314.516 459.354 326.613 459.354 326.613 471.451 350.806 471.451 350.806 459.354 338.71 459.354 338.71 435.16 350.806 435.16 350.806 447.257 362.903 447.257 362.903 435.16 375 435.16 375 459.354 362.903 459.354 362.903 471.451 375 471.451 375 495.644 362.903 495.644 362.903 483.547 338.71 483.547 338.71 495.644 350.806 495.644 350.806 507.741 338.71 507.741 338.71 519.838 362.903 519.838 362.903 507.741 375 507.741 375 531.934 362.903 531.934 362.903 544.031 375 544.031 375 568.225 362.903 568.225 362.903 556.128 350.806 556.128 350.806 568.225 338.71 568.225 338.71 544.031 350.806 544.031 350.806 531.934 314.516 531.934 314.516 544.031 326.613 544.031 326.613 568.225 314.516 568.225 314.516 556.128 302.42 556.128 302.42 568.225 290.324 568.225 290.324 544.031 302.42 544.031 302.42 531.934 290.324 531.934 290.324 507.741 302.42 507.741 302.42 519.838 326.614 519.838 326.614 507.741 314.517 507.741 314.517 495.644 326.614 495.644 326.614 483.547 302.42 483.547 302.42 495.644 290.324 495.644 290.324 483.547 266.13 483.547 266.13 495.644 278.227 495.644 278.227 519.838 266.13 519.838 266.13 507.741 254.033 507.741 254.033 519.838 241.936 519.838 241.936 495.644 254.033 495.644 254.033 483.547 229.84 483.547 229.84 495.644 217.743 495.644 217.743 483.547 193.549 483.547 193.549 495.644 205.646 495.644 205.646 507.741 193.549 507.741 193.549 519.838 217.743 519.838 217.743 507.741 229.84 507.741 229.84 544.031 217.743 544.031 217.743 531.934 193.549 531.934 193.549 544.031 205.646 544.031 205.646 556.128 193.549 556.128 193.549 568.225 217.743 568.225 217.743 556.128 229.84 556.128 229.84 568.225 254.033 568.225 254.033 556.128 241.936 556.128 241.936 531.934 254.033 531.934 254.033 544.031 266.13 544.031 266.13 531.934 278.227 531.934 278.227 556.128 266.13 556.128 266.13 568.225 278.227 568.225 278.227 580.322 266.13 580.322 266.13 592.418 278.227 592.418 278.227 616.612 266.13 616.612 266.13 604.515 254.033 604.515 254.033 616.612 241.936 616.612 241.936 592.418 254.033 592.418 254.033 580.322 229.84 580.322 229.84 592.418 217.743 592.418 217.743 580.322 193.549 580.322 193.549 592.418 205.646 592.418 205.646 604.515 193.549 604.515 193.549 616.612 217.743 616.612 217.743 604.515 229.84 604.515 229.84 640.805 217.743 640.805 217.743 628.709 193.549 628.709 193.549 640.805 205.646 640.805 205.646 652.902 193.549 652.902 193.549 665 217.743 665 217.743 652.903 229.84 652.903 229.84 665 254.033 665 254.033 652.903 241.936 652.903 241.936 628.71 254.033 628.71 254.033 640.806 266.13 640.806 266.13 628.71 278.227 628.71 278.227 652.903 266.13 652.903 266.13 665 290.324 665 290.324 652.903 302.42 652.903 302.42 665 326.614 665 326.614 652.903 314.517 652.903 314.517 640.806 326.614 640.806 326.614 628.71 302.42 628.71 302.42 640.806 290.324 640.806 290.324 616.613 302.42 616.613 302.42 604.516 290.324 604.516 290.324 580.323 302.42 580.323 302.42 592.419 314.517 592.419 314.517 580.323 326.614 580.323 326.614 604.516 314.517 604.516 314.517 616.613 350.807 616.613 350.807 604.516 338.71 604.516 338.71 580.323 350.806 580.323 350.806 592.419 362.903 592.419 362.903 580.323 375 580.323 375 604.516 362.903 604.516 362.903 616.613 375 616.613 375 640.806 362.903 640.806 362.903 628.71 338.71 628.71 338.71 640.806 350.806 640.806 350.806 652.903 338.71 652.903 338.71 665 362.903 665 362.903 652.903 375 652.903 375 665"/>
    <rect width="374" height="288" x="1.5" y=".5"/>
  </g>
</svg>
