<svg xmlns="http://www.w3.org/2000/svg" width="1140" height="1938" viewBox="0 0 1140 1938">
  <defs>
    <linearGradient id="pattern01a-a" x1="50%" x2="50%" y1="31.653%" y2="91.369%">
      <stop offset="0%"/>
      <stop offset="100%" stop-color="#FFF"/>
    </linearGradient>
  </defs>
  <g fill="none" fill-rule="evenodd">
    <polyline stroke="url(#pattern01a-a)" stroke-width=".2" points="2 968 2 948.71 21.29 948.71 21.29 968 59.871 968 59.871 948.71 40.581 948.71 40.581 929.42 59.871 929.42 59.871 910.129 21.291 910.129 21.291 929.419 2 929.419 2 890.839 21.29 890.839 21.29 871.549 2 871.549 2 832.968 21.29 832.968 21.29 852.258 40.58 852.258 40.58 832.968 59.871 832.968 59.871 871.548 40.581 871.548 40.581 890.838 98.451 890.838 98.451 871.548 79.161 871.548 79.161 832.968 98.451 832.968 98.451 852.258 117.741 852.258 117.741 832.968 137.032 832.968 137.032 871.548 117.742 871.548 117.742 890.838 137.032 890.838 137.032 929.419 117.742 929.419 117.742 910.129 79.162 910.129 79.162 929.419 98.452 929.419 98.452 948.709 79.162 948.709 79.162 968 117.742 968 117.742 948.71 137.032 948.71 137.032 968 175.612 968 175.612 948.71 156.322 948.71 156.322 910.129 175.612 910.129 175.612 929.419 194.903 929.419 194.903 910.129 214.193 910.129 214.193 948.709 194.903 948.709 194.903 968 233.483 968 233.483 948.71 252.774 948.71 252.774 968 291.354 968 291.354 948.71 272.064 948.71 272.064 929.42 291.354 929.42 291.354 910.129 252.774 910.129 252.774 929.419 233.484 929.419 233.484 871.549 252.774 871.549 252.774 890.839 291.354 890.839 291.354 871.549 272.064 871.549 272.064 852.259 291.354 852.259 291.354 832.968 252.774 832.968 252.774 852.258 233.484 852.258 233.484 832.968 194.904 832.968 194.904 852.258 214.194 852.258 214.194 890.838 194.904 890.838 194.904 871.548 175.613 871.548 175.613 890.838 156.323 890.838 156.323 852.258 175.613 852.258 175.613 832.968 156.323 832.968 156.323 813.678 175.613 813.678 175.613 794.388 156.323 794.388 156.323 755.806 175.613 755.806 175.613 775.096 194.903 775.096 194.903 755.806 214.193 755.806 214.193 794.387 194.903 794.387 194.903 813.677 233.483 813.677 233.483 794.387 252.774 794.387 252.774 813.677 291.354 813.677 291.354 794.387 272.064 794.387 272.064 775.097 291.354 775.097 291.354 755.807 252.774 755.807 252.774 775.097 233.484 775.097 233.484 717.226 252.774 717.226 252.774 736.516 291.354 736.516 291.354 717.226 272.064 717.226 272.064 697.936 291.354 697.936 291.354 678.646 252.774 678.646 252.774 697.936 233.484 697.936 233.484 678.646 194.904 678.646 194.904 697.936 214.194 697.936 214.194 736.516 194.904 736.516 194.904 717.226 175.613 717.226 175.613 736.516 156.323 736.516 156.323 697.936 175.613 697.936 175.613 678.646 137.033 678.646 137.033 697.936 117.742 697.936 117.742 678.646 79.162 678.646 79.162 697.936 98.452 697.936 98.452 717.226 79.162 717.226 79.162 736.516 117.742 736.516 117.742 717.226 137.032 717.226 137.032 755.806 117.742 755.806 117.742 775.096 137.032 775.096 137.032 813.677 117.742 813.677 117.742 794.387 98.452 794.387 98.452 813.677 79.162 813.677 79.162 775.097 98.452 775.097 98.452 755.807 40.58 755.807 40.58 775.097 59.87 775.097 59.87 813.677 40.58 813.677 40.58 794.387 21.29 794.387 21.29 813.677 2 813.677 2 775.097 21.29 775.097 21.29 755.807 2 755.807 2 717.226 21.29 717.226 21.29 736.516 59.871 736.516 59.871 717.226 40.581 717.226 40.581 697.936 59.871 697.936 59.871 678.646 21.291 678.646 21.291 697.936 2 697.936 2 659.355 21.29 659.355 21.29 640.065 2 640.065 2 601.484 21.29 601.484 21.29 620.774 40.58 620.774 40.58 601.484 59.871 601.484 59.871 640.064 40.581 640.064 40.581 659.354 79.161 659.354 79.161 640.064 98.451 640.064 98.451 659.354 137.032 659.354 137.032 640.064 117.742 640.064 117.742 620.774 137.032 620.774 137.032 601.484 98.452 601.484 98.452 620.774 79.162 620.774 79.162 562.904 98.452 562.904 98.452 582.194 137.032 582.194 137.032 562.904 117.742 562.904 117.742 543.613 137.032 543.613 137.032 524.323 98.452 524.323 98.452 543.613 79.162 543.613 79.162 524.323 40.58 524.323 40.58 543.613 59.87 543.613 59.87 582.193 40.58 582.193 40.58 562.903 21.29 562.903 21.29 582.193 2 582.193 2 543.613 21.29 543.613 21.29 524.323 2 524.323 2 485.742 21.29 485.742 21.29 505.032 59.871 505.032 59.871 485.742 40.581 485.742 40.581 466.452 59.871 466.452 59.871 447.162 21.291 447.162 21.291 466.452 2 466.452 2 427.87 21.29 427.87 21.29 408.58 2 408.58 2 370 21.29 370 21.29 389.29 40.58 389.29 40.58 370 59.871 370 59.871 408.58 40.581 408.58 40.581 427.871 98.451 427.871 98.451 408.581 79.161 408.581 79.161 370 98.451 370 98.451 389.29 117.741 389.29 117.741 370 137.032 370 137.032 408.58 117.742 408.58 117.742 427.871 137.032 427.871 137.032 466.451 117.742 466.451 117.742 447.161 79.162 447.161 79.162 466.451 98.452 466.451 98.452 485.741 79.162 485.741 79.162 505.032 117.742 505.032 117.742 485.742 137.032 485.742 137.032 505.032 156.322 505.032 156.322 485.742 175.612 485.742 175.612 505.032 214.194 505.032 214.194 485.742 194.904 485.742 194.904 466.452 214.194 466.452 214.194 447.162 175.613 447.162 175.613 466.452 156.323 466.452 156.323 427.87 175.613 427.87 175.613 408.58 156.323 408.58 156.323 370 175.613 370 175.613 389.29 194.903 389.29 194.903 370 214.193 370 214.193 408.58 194.903 408.58 194.903 427.871 252.774 427.871 252.774 408.581 233.484 408.581 233.484 370 252.774 370 252.774 389.29 272.064 389.29 272.064 370 291.354 370 291.354 408.58 272.064 408.58 272.064 427.871 291.354 427.871 291.354 466.451 272.064 466.451 272.064 447.161 233.484 447.161 233.484 466.451 252.774 466.451 252.774 485.741 233.484 485.741 233.484 505.032 272.064 505.032 272.064 485.742 291.354 485.742 291.354 524.322 272.064 524.322 272.064 543.612 291.354 543.612 291.354 582.194 272.064 582.194 272.064 562.904 252.774 562.904 252.774 582.194 233.484 582.194 233.484 543.613 252.774 543.613 252.774 524.323 214.194 524.323 214.194 543.613 194.904 543.613 194.904 524.323 156.323 524.323 156.323 543.613 175.613 543.613 175.613 562.903 156.323 562.903 156.323 582.193 194.903 582.193 194.903 562.903 214.193 562.903 214.193 620.774 194.903 620.774 194.903 601.484 156.323 601.484 156.323 620.774 175.613 620.774 175.613 640.064 156.323 640.064 156.323 659.354 194.903 659.354 194.903 640.064 214.193 640.064 214.193 659.354 252.774 659.354 252.774 640.064 233.484 640.064 233.484 601.484 252.774 601.484 252.774 620.774 272.064 620.774 272.064 601.484 291.354 601.484 291.354 640.064 272.064 640.064 272.064 659.354 329.935 659.354 329.935 640.064 310.645 640.064 310.645 601.484 329.935 601.484 329.935 620.774 349.225 620.774 349.225 601.484 368.516 601.484 368.516 640.064 349.226 640.064 349.226 659.354 387.806 659.354 387.806 640.064 407.096 640.064 407.096 659.354 445.677 659.354 445.677 640.064 426.387 640.064 426.387 620.774 445.677 620.774 445.677 601.484 407.097 601.484 407.097 620.774 387.807 620.774 387.807 562.904 407.097 562.904 407.097 582.194 445.677 582.194 445.677 562.904 426.387 562.904 426.387 543.613 445.677 543.613 445.677 524.323 407.097 524.323 407.097 543.613 387.807 543.613 387.807 524.323 349.226 524.323 349.226 543.613 368.516 543.613 368.516 582.193 349.226 582.193 349.226 562.903 329.936 562.903 329.936 582.193 310.646 582.193 310.646 543.613 329.936 543.613 329.936 524.323 310.646 524.323 310.646 485.742 329.936 485.742 329.936 505.032 368.516 505.032 368.516 485.742 349.226 485.742 349.226 466.452 368.516 466.452 368.516 447.162 329.936 447.162 329.936 466.452 310.646 466.452 310.646 427.87 329.936 427.87 329.936 408.58 310.646 408.58 310.646 370 329.936 370 329.936 389.29 349.226 389.29 349.226 370 368.516 370 368.516 408.58 349.226 408.58 349.226 427.871 407.096 427.871 407.096 408.581 387.806 408.581 387.806 370 407.096 370 407.096 389.29 426.387 389.29 426.387 370 445.677 370 445.677 408.58 426.387 408.58 426.387 427.871 445.677 427.871 445.677 466.451 426.387 466.451 426.387 447.161 387.807 447.161 387.807 466.451 407.097 466.451 407.097 485.741 387.807 485.741 387.807 505.032 426.387 505.032 426.387 485.742 445.677 485.742 445.677 505.032 464.967 505.032 464.967 485.742 484.258 485.742 484.258 505.032 522.838 505.032 522.838 485.742 503.548 485.742 503.548 466.452 522.838 466.452 522.838 447.162 484.258 447.162 484.258 466.452 464.968 466.452 464.968 427.87 484.258 427.87 484.258 408.58 464.968 408.58 464.968 370 484.258 370 484.258 389.29 503.548 389.29 503.548 370 522.838 370 522.838 408.58 503.548 408.58 503.548 427.871 561.419 427.871 561.419 408.581 542.129 408.581 542.129 370 561.419 370 561.419 389.29 580.709 389.29 580.709 370 600 370 600 408.58 580.71 408.58 580.71 427.871 600 427.871 600 466.451 580.71 466.451 580.71 447.161 542.129 447.161 542.129 466.451 561.419 466.451 561.419 485.741 542.129 485.741 542.129 505.032 580.709 505.032 580.709 485.742 600 485.742 600 524.322 580.71 524.322 580.71 543.612 600 543.612 600 582.194 580.71 582.194 580.71 562.904 561.42 562.904 561.42 582.194 542.129 582.194 542.129 543.613 561.419 543.613 561.419 524.323 522.839 524.323 522.839 543.613 503.549 543.613 503.549 524.323 464.968 524.323 464.968 543.613 484.258 543.613 484.258 562.903 464.968 562.903 464.968 582.193 503.548 582.193 503.548 562.903 522.838 562.903 522.838 620.774 503.548 620.774 503.548 601.484 464.968 601.484 464.968 620.774 484.258 620.774 484.258 640.064 464.968 640.064 464.968 659.354 503.548 659.354 503.548 640.064 522.838 640.064 522.838 659.354 561.419 659.354 561.419 640.064 542.129 640.064 542.129 601.484 561.419 601.484 561.419 620.774 580.709 620.774 580.709 601.484 600 601.484 600 640.064 580.71 640.064 580.71 659.354 600 659.354 600 697.935 580.71 697.935 580.71 678.645 542.129 678.645 542.129 697.935 561.419 697.935 561.419 717.225 542.129 717.225 542.129 736.516 580.709 736.516 580.709 717.226 600 717.226 600 755.806 580.71 755.806 580.71 775.096 600 775.096 600 813.677 580.71 813.677 580.71 794.387 561.42 794.387 561.42 813.677 542.129 813.677 542.129 775.097 561.419 775.097 561.419 755.807 503.549 755.807 503.549 775.097 522.839 775.097 522.839 813.677 503.549 813.677 503.549 794.387 484.259 794.387 484.259 813.677 464.968 813.677 464.968 775.097 484.258 775.097 484.258 755.807 464.968 755.807 464.968 717.226 484.258 717.226 484.258 736.516 522.838 736.516 522.838 717.226 503.548 717.226 503.548 697.936 522.838 697.936 522.838 678.646 484.258 678.646 484.258 697.936 464.968 697.936 464.968 678.646 426.388 678.646 426.388 697.936 445.678 697.936 445.678 736.516 426.388 736.516 426.388 717.226 407.097 717.226 407.097 736.516 387.807 736.516 387.807 697.936 407.097 697.936 407.097 678.646 368.517 678.646 368.517 697.936 349.226 697.936 349.226 678.646 310.646 678.646 310.646 697.936 329.936 697.936 329.936 717.226 310.646 717.226 310.646 736.516 349.226 736.516 349.226 717.226 368.516 717.226 368.516 775.096 349.226 775.096 349.226 755.806 310.646 755.806 310.646 775.096 329.936 775.096 329.936 794.387 310.646 794.387 310.646 813.677 349.226 813.677 349.226 794.387 368.516 794.387 368.516 813.677 407.096 813.677 407.096 794.387 387.806 794.387 387.806 755.807 407.096 755.807 407.096 775.097 426.387 775.097 426.387 755.807 445.677 755.807 445.677 794.387 426.387 794.387 426.387 813.677 445.677 813.677 445.677 832.967 426.387 832.967 426.387 852.258 445.677 852.258 445.677 890.838 426.387 890.838 426.387 871.548 407.097 871.548 407.097 890.838 387.807 890.838 387.807 852.258 407.097 852.258 407.097 832.968 368.517 832.968 368.517 852.258 349.226 852.258 349.226 832.968 310.646 832.968 310.646 852.258 329.936 852.258 329.936 871.548 310.646 871.548 310.646 890.838 349.226 890.838 349.226 871.548 368.516 871.548 368.516 929.419 349.226 929.419 349.226 910.129 310.646 910.129 310.646 929.419 329.936 929.419 329.936 948.709 310.646 948.709 310.646 968 349.226 968 349.226 948.71 368.516 948.71 368.516 968 407.096 968 407.096 948.71 387.806 948.71 387.806 910.129 407.096 910.129 407.096 929.419 426.387 929.419 426.387 910.129 445.677 910.129 445.677 948.709 426.387 948.709 426.387 968 464.967 968 464.967 948.71 484.258 948.71 484.258 968 522.838 968 522.838 948.71 503.548 948.71 503.548 929.42 522.838 929.42 522.838 910.129 484.258 910.129 484.258 929.419 464.968 929.419 464.968 890.839 484.258 890.839 484.258 871.549 464.968 871.549 464.968 832.968 484.258 832.968 484.258 852.258 503.548 852.258 503.548 832.968 522.838 832.968 522.838 871.548 503.548 871.548 503.548 890.838 561.419 890.838 561.419 871.548 542.129 871.548 542.129 832.968 561.419 832.968 561.419 852.258 580.709 852.258 580.709 832.968 600 832.968 600 871.548 580.71 871.548 580.71 890.838 600 890.838 600 929.419 580.71 929.419 580.71 910.129 542.129 910.129 542.129 929.419 561.419 929.419 561.419 948.709 542.129 948.709 542.129 968 580.709 968 580.709 948.71 600 948.71 600 968"/>
    <polyline stroke="url(#pattern01a-a)" stroke-width=".2" points="540 1938 540 1918.71 559.29 1918.71 559.29 1938 597.871 1938 597.871 1918.71 578.581 1918.71 578.581 1899.42 597.871 1899.42 597.871 1880.129 559.291 1880.129 559.291 1899.419 540 1899.419 540 1860.839 559.29 1860.839 559.29 1841.549 540 1841.549 540 1802.968 559.29 1802.968 559.29 1822.258 578.58 1822.258 578.58 1802.968 597.871 1802.968 597.871 1841.548 578.581 1841.548 578.581 1860.838 636.451 1860.838 636.451 1841.548 617.161 1841.548 617.161 1802.968 636.451 1802.968 636.451 1822.258 655.741 1822.258 655.741 1802.968 675.032 1802.968 675.032 1841.548 655.742 1841.548 655.742 1860.838 675.032 1860.838 675.032 1899.419 655.742 1899.419 655.742 1880.129 617.162 1880.129 617.162 1899.419 636.452 1899.419 636.452 1918.709 617.162 1918.709 617.162 1938 655.742 1938 655.742 1918.71 675.032 1918.71 675.032 1938 713.612 1938 713.612 1918.71 694.322 1918.71 694.322 1880.129 713.612 1880.129 713.612 1899.419 732.903 1899.419 732.903 1880.129 752.193 1880.129 752.193 1918.709 732.903 1918.709 732.903 1938 771.483 1938 771.483 1918.71 790.774 1918.71 790.774 1938 829.354 1938 829.354 1918.71 810.064 1918.71 810.064 1899.42 829.354 1899.42 829.354 1880.129 790.774 1880.129 790.774 1899.419 771.484 1899.419 771.484 1841.549 790.774 1841.549 790.774 1860.839 829.354 1860.839 829.354 1841.549 810.064 1841.549 810.064 1822.259 829.354 1822.259 829.354 1802.968 790.774 1802.968 790.774 1822.258 771.484 1822.258 771.484 1802.968 732.904 1802.968 732.904 1822.258 752.194 1822.258 752.194 1860.838 732.904 1860.838 732.904 1841.548 713.613 1841.548 713.613 1860.838 694.323 1860.838 694.323 1822.258 713.613 1822.258 713.613 1802.968 694.323 1802.968 694.323 1783.678 713.613 1783.678 713.613 1764.388 694.323 1764.388 694.323 1725.806 713.613 1725.806 713.613 1745.096 732.903 1745.096 732.903 1725.806 752.193 1725.806 752.193 1764.387 732.903 1764.387 732.903 1783.677 771.483 1783.677 771.483 1764.387 790.774 1764.387 790.774 1783.677 829.354 1783.677 829.354 1764.387 810.064 1764.387 810.064 1745.097 829.354 1745.097 829.354 1725.807 790.774 1725.807 790.774 1745.097 771.484 1745.097 771.484 1687.226 790.774 1687.226 790.774 1706.516 829.354 1706.516 829.354 1687.226 810.064 1687.226 810.064 1667.936 829.354 1667.936 829.354 1648.646 790.774 1648.646 790.774 1667.936 771.484 1667.936 771.484 1648.646 732.904 1648.646 732.904 1667.936 752.194 1667.936 752.194 1706.516 732.904 1706.516 732.904 1687.226 713.613 1687.226 713.613 1706.516 694.323 1706.516 694.323 1667.936 713.613 1667.936 713.613 1648.646 675.033 1648.646 675.033 1667.936 655.742 1667.936 655.742 1648.646 617.162 1648.646 617.162 1667.936 636.452 1667.936 636.452 1687.226 617.162 1687.226 617.162 1706.516 655.742 1706.516 655.742 1687.226 675.032 1687.226 675.032 1725.806 655.742 1725.806 655.742 1745.096 675.032 1745.096 675.032 1783.677 655.742 1783.677 655.742 1764.387 636.452 1764.387 636.452 1783.677 617.162 1783.677 617.162 1745.097 636.452 1745.097 636.452 1725.807 578.58 1725.807 578.58 1745.097 597.87 1745.097 597.87 1783.677 578.58 1783.677 578.58 1764.387 559.29 1764.387 559.29 1783.677 540 1783.677 540 1745.097 559.29 1745.097 559.29 1725.807 540 1725.807 540 1687.226 559.29 1687.226 559.29 1706.516 597.871 1706.516 597.871 1687.226 578.581 1687.226 578.581 1667.936 597.871 1667.936 597.871 1648.646 559.291 1648.646 559.291 1667.936 540 1667.936 540 1629.355 559.29 1629.355 559.29 1610.065 540 1610.065 540 1571.484 559.29 1571.484 559.29 1590.774 578.58 1590.774 578.58 1571.484 597.871 1571.484 597.871 1610.064 578.581 1610.064 578.581 1629.354 617.161 1629.354 617.161 1610.064 636.451 1610.064 636.451 1629.354 675.032 1629.354 675.032 1610.064 655.742 1610.064 655.742 1590.774 675.032 1590.774 675.032 1571.484 636.452 1571.484 636.452 1590.774 617.162 1590.774 617.162 1532.904 636.452 1532.904 636.452 1552.194 675.032 1552.194 675.032 1532.904 655.742 1532.904 655.742 1513.613 675.032 1513.613 675.032 1494.323 636.452 1494.323 636.452 1513.613 617.162 1513.613 617.162 1494.323 578.58 1494.323 578.58 1513.613 597.87 1513.613 597.87 1552.193 578.58 1552.193 578.58 1532.903 559.29 1532.903 559.29 1552.193 540 1552.193 540 1513.613 559.29 1513.613 559.29 1494.323 540 1494.323 540 1455.742 559.29 1455.742 559.29 1475.032 597.871 1475.032 597.871 1455.742 578.581 1455.742 578.581 1436.452 597.871 1436.452 597.871 1417.162 559.291 1417.162 559.291 1436.452 540 1436.452 540 1397.87 559.29 1397.87 559.29 1378.58 540 1378.58 540 1340 559.29 1340 559.29 1359.29 578.58 1359.29 578.58 1340 597.871 1340 597.871 1378.58 578.581 1378.58 578.581 1397.871 636.451 1397.871 636.451 1378.581 617.161 1378.581 617.161 1340 636.451 1340 636.451 1359.29 655.741 1359.29 655.741 1340 675.032 1340 675.032 1378.58 655.742 1378.58 655.742 1397.871 675.032 1397.871 675.032 1436.451 655.742 1436.451 655.742 1417.161 617.162 1417.161 617.162 1436.451 636.452 1436.451 636.452 1455.741 617.162 1455.741 617.162 1475.032 655.742 1475.032 655.742 1455.742 675.032 1455.742 675.032 1475.032 694.322 1475.032 694.322 1455.742 713.612 1455.742 713.612 1475.032 752.194 1475.032 752.194 1455.742 732.904 1455.742 732.904 1436.452 752.194 1436.452 752.194 1417.162 713.613 1417.162 713.613 1436.452 694.323 1436.452 694.323 1397.87 713.613 1397.87 713.613 1378.58 694.323 1378.58 694.323 1340 713.613 1340 713.613 1359.29 732.903 1359.29 732.903 1340 752.193 1340 752.193 1378.58 732.903 1378.58 732.903 1397.871 790.774 1397.871 790.774 1378.581 771.484 1378.581 771.484 1340 790.774 1340 790.774 1359.29 810.064 1359.29 810.064 1340 829.354 1340 829.354 1378.58 810.064 1378.58 810.064 1397.871 829.354 1397.871 829.354 1436.451 810.064 1436.451 810.064 1417.161 771.484 1417.161 771.484 1436.451 790.774 1436.451 790.774 1455.741 771.484 1455.741 771.484 1475.032 810.064 1475.032 810.064 1455.742 829.354 1455.742 829.354 1494.322 810.064 1494.322 810.064 1513.612 829.354 1513.612 829.354 1552.194 810.064 1552.194 810.064 1532.904 790.774 1532.904 790.774 1552.194 771.484 1552.194 771.484 1513.613 790.774 1513.613 790.774 1494.323 752.194 1494.323 752.194 1513.613 732.904 1513.613 732.904 1494.323 694.323 1494.323 694.323 1513.613 713.613 1513.613 713.613 1532.903 694.323 1532.903 694.323 1552.193 732.903 1552.193 732.903 1532.903 752.193 1532.903 752.193 1590.774 732.903 1590.774 732.903 1571.484 694.323 1571.484 694.323 1590.774 713.613 1590.774 713.613 1610.064 694.323 1610.064 694.323 1629.354 732.903 1629.354 732.903 1610.064 752.193 1610.064 752.193 1629.354 790.774 1629.354 790.774 1610.064 771.484 1610.064 771.484 1571.484 790.774 1571.484 790.774 1590.774 810.064 1590.774 810.064 1571.484 829.354 1571.484 829.354 1610.064 810.064 1610.064 810.064 1629.354 867.935 1629.354 867.935 1610.064 848.645 1610.064 848.645 1571.484 867.935 1571.484 867.935 1590.774 887.225 1590.774 887.225 1571.484 906.516 1571.484 906.516 1610.064 887.226 1610.064 887.226 1629.354 925.806 1629.354 925.806 1610.064 945.096 1610.064 945.096 1629.354 983.677 1629.354 983.677 1610.064 964.387 1610.064 964.387 1590.774 983.677 1590.774 983.677 1571.484 945.097 1571.484 945.097 1590.774 925.807 1590.774 925.807 1532.904 945.097 1532.904 945.097 1552.194 983.677 1552.194 983.677 1532.904 964.387 1532.904 964.387 1513.613 983.677 1513.613 983.677 1494.323 945.097 1494.323 945.097 1513.613 925.807 1513.613 925.807 1494.323 887.226 1494.323 887.226 1513.613 906.516 1513.613 906.516 1552.193 887.226 1552.193 887.226 1532.903 867.936 1532.903 867.936 1552.193 848.646 1552.193 848.646 1513.613 867.936 1513.613 867.936 1494.323 848.646 1494.323 848.646 1455.742 867.936 1455.742 867.936 1475.032 906.516 1475.032 906.516 1455.742 887.226 1455.742 887.226 1436.452 906.516 1436.452 906.516 1417.162 867.936 1417.162 867.936 1436.452 848.646 1436.452 848.646 1397.87 867.936 1397.87 867.936 1378.58 848.646 1378.58 848.646 1340 867.936 1340 867.936 1359.29 887.226 1359.29 887.226 1340 906.516 1340 906.516 1378.58 887.226 1378.58 887.226 1397.871 945.096 1397.871 945.096 1378.581 925.806 1378.581 925.806 1340 945.096 1340 945.096 1359.29 964.387 1359.29 964.387 1340 983.677 1340 983.677 1378.58 964.387 1378.58 964.387 1397.871 983.677 1397.871 983.677 1436.451 964.387 1436.451 964.387 1417.161 925.807 1417.161 925.807 1436.451 945.097 1436.451 945.097 1455.741 925.807 1455.741 925.807 1475.032 964.387 1475.032 964.387 1455.742 983.677 1455.742 983.677 1475.032 1002.967 1475.032 1002.967 1455.742 1022.258 1455.742 1022.258 1475.032 1060.838 1475.032 1060.838 1455.742 1041.548 1455.742 1041.548 1436.452 1060.838 1436.452 1060.838 1417.162 1022.258 1417.162 1022.258 1436.452 1002.968 1436.452 1002.968 1397.87 1022.258 1397.87 1022.258 1378.58 1002.968 1378.58 1002.968 1340 1022.258 1340 1022.258 1359.29 1041.548 1359.29 1041.548 1340 1060.838 1340 1060.838 1378.58 1041.548 1378.58 1041.548 1397.871 1099.419 1397.871 1099.419 1378.581 1080.129 1378.581 1080.129 1340 1099.419 1340 1099.419 1359.29 1118.709 1359.29 1118.709 1340 1138 1340 1138 1378.58 1118.71 1378.58 1118.71 1397.871 1138 1397.871 1138 1436.451 1118.71 1436.451 1118.71 1417.161 1080.129 1417.161 1080.129 1436.451 1099.419 1436.451 1099.419 1455.741 1080.129 1455.741 1080.129 1475.032 1118.709 1475.032 1118.709 1455.742 1138 1455.742 1138 1494.322 1118.71 1494.322 1118.71 1513.612 1138 1513.612 1138 1552.194 1118.71 1552.194 1118.71 1532.904 1099.42 1532.904 1099.42 1552.194 1080.129 1552.194 1080.129 1513.613 1099.419 1513.613 1099.419 1494.323 1060.839 1494.323 1060.839 1513.613 1041.549 1513.613 1041.549 1494.323 1002.968 1494.323 1002.968 1513.613 1022.258 1513.613 1022.258 1532.903 1002.968 1532.903 1002.968 1552.193 1041.548 1552.193 1041.548 1532.903 1060.838 1532.903 1060.838 1590.774 1041.548 1590.774 1041.548 1571.484 1002.968 1571.484 1002.968 1590.774 1022.258 1590.774 1022.258 1610.064 1002.968 1610.064 1002.968 1629.354 1041.548 1629.354 1041.548 1610.064 1060.838 1610.064 1060.838 1629.354 1099.419 1629.354 1099.419 1610.064 1080.129 1610.064 1080.129 1571.484 1099.419 1571.484 1099.419 1590.774 1118.709 1590.774 1118.709 1571.484 1138 1571.484 1138 1610.064 1118.71 1610.064 1118.71 1629.354 1138 1629.354 1138 1667.935 1118.71 1667.935 1118.71 1648.645 1080.129 1648.645 1080.129 1667.935 1099.419 1667.935 1099.419 1687.225 1080.129 1687.225 1080.129 1706.516 1118.709 1706.516 1118.709 1687.226 1138 1687.226 1138 1725.806 1118.71 1725.806 1118.71 1745.096 1138 1745.096 1138 1783.677 1118.71 1783.677 1118.71 1764.387 1099.42 1764.387 1099.42 1783.677 1080.129 1783.677 1080.129 1745.097 1099.419 1745.097 1099.419 1725.807 1041.549 1725.807 1041.549 1745.097 1060.839 1745.097 1060.839 1783.677 1041.549 1783.677 1041.549 1764.387 1022.259 1764.387 1022.259 1783.677 1002.968 1783.677 1002.968 1745.097 1022.258 1745.097 1022.258 1725.807 1002.968 1725.807 1002.968 1687.226 1022.258 1687.226 1022.258 1706.516 1060.838 1706.516 1060.838 1687.226 1041.548 1687.226 1041.548 1667.936 1060.838 1667.936 1060.838 1648.646 1022.258 1648.646 1022.258 1667.936 1002.968 1667.936 1002.968 1648.646 964.388 1648.646 964.388 1667.936 983.678 1667.936 983.678 1706.516 964.388 1706.516 964.388 1687.226 945.097 1687.226 945.097 1706.516 925.807 1706.516 925.807 1667.936 945.097 1667.936 945.097 1648.646 906.517 1648.646 906.517 1667.936 887.226 1667.936 887.226 1648.646 848.646 1648.646 848.646 1667.936 867.936 1667.936 867.936 1687.226 848.646 1687.226 848.646 1706.516 887.226 1706.516 887.226 1687.226 906.516 1687.226 906.516 1745.096 887.226 1745.096 887.226 1725.806 848.646 1725.806 848.646 1745.096 867.936 1745.096 867.936 1764.387 848.646 1764.387 848.646 1783.677 887.226 1783.677 887.226 1764.387 906.516 1764.387 906.516 1783.677 945.096 1783.677 945.096 1764.387 925.806 1764.387 925.806 1725.807 945.096 1725.807 945.096 1745.097 964.387 1745.097 964.387 1725.807 983.677 1725.807 983.677 1764.387 964.387 1764.387 964.387 1783.677 983.677 1783.677 983.677 1802.967 964.387 1802.967 964.387 1822.258 983.677 1822.258 983.677 1860.838 964.387 1860.838 964.387 1841.548 945.097 1841.548 945.097 1860.838 925.807 1860.838 925.807 1822.258 945.097 1822.258 945.097 1802.968 906.517 1802.968 906.517 1822.258 887.226 1822.258 887.226 1802.968 848.646 1802.968 848.646 1822.258 867.936 1822.258 867.936 1841.548 848.646 1841.548 848.646 1860.838 887.226 1860.838 887.226 1841.548 906.516 1841.548 906.516 1899.419 887.226 1899.419 887.226 1880.129 848.646 1880.129 848.646 1899.419 867.936 1899.419 867.936 1918.709 848.646 1918.709 848.646 1938 887.226 1938 887.226 1918.71 906.516 1918.71 906.516 1938 945.096 1938 945.096 1918.71 925.806 1918.71 925.806 1880.129 945.096 1880.129 945.096 1899.419 964.387 1899.419 964.387 1880.129 983.677 1880.129 983.677 1918.709 964.387 1918.709 964.387 1938 1002.967 1938 1002.967 1918.71 1022.258 1918.71 1022.258 1938 1060.838 1938 1060.838 1918.71 1041.548 1918.71 1041.548 1899.42 1060.838 1899.42 1060.838 1880.129 1022.258 1880.129 1022.258 1899.419 1002.968 1899.419 1002.968 1860.839 1022.258 1860.839 1022.258 1841.549 1002.968 1841.549 1002.968 1802.968 1022.258 1802.968 1022.258 1822.258 1041.548 1822.258 1041.548 1802.968 1060.838 1802.968 1060.838 1841.548 1041.548 1841.548 1041.548 1860.838 1099.419 1860.838 1099.419 1841.548 1080.129 1841.548 1080.129 1802.968 1099.419 1802.968 1099.419 1822.258 1118.709 1822.258 1118.709 1802.968 1138 1802.968 1138 1841.548 1118.71 1841.548 1118.71 1860.838 1138 1860.838 1138 1899.419 1118.71 1899.419 1118.71 1880.129 1080.129 1880.129 1080.129 1899.419 1099.419 1899.419 1099.419 1918.709 1080.129 1918.709 1080.129 1938 1118.709 1938 1118.709 1918.71 1138 1918.71 1138 1938"/>
    <rect width="1139" height="369" x=".5" y=".5"/>
    <rect width="1139" height="369" x=".5" y="968.5"/>
  </g>
</svg>
