<svg xmlns="http://www.w3.org/2000/svg" width="600" height="600" viewBox="0 0 600 600">
    <defs>
        <linearGradient id="a" x1="50%" x2="50%" y1="31.653%" y2="91.369%">
            <stop offset="0%"/>
            <stop offset="100%" stop-color="#FFF"/>
        </linearGradient>
    </defs>
    <path fill="none" fill-rule="evenodd" stroke="url(#a)" stroke-width=".2" d="M42 1061v-19.29h19.29V1061h38.581v-19.29h-19.29v-19.29h19.29v-19.291h-38.58v19.29H42v-38.58h19.29v-19.29H42v-38.581h19.29v19.29h19.29v-19.29h19.291v38.58h-19.29v19.29h57.87v-19.29h-19.29v-38.58h19.29v19.29h19.29v-19.29h19.291v38.58h-19.29v19.29h19.29v38.581h-19.29v-19.29h-38.58v19.29h19.29v19.29h-19.29V1061h38.58v-19.29h19.29V1061h38.58v-19.29h-19.29v-38.581h19.29v19.29h19.291v-19.29h19.29v38.58h-19.29V1061h38.58v-19.29h19.291V1061h38.58v-19.29h-19.29v-19.29h19.29v-19.291h-38.58v19.29h-19.29v-57.87h19.29v19.29h38.58v-19.29h-19.29v-19.29h19.29v-19.291h-38.58v19.29h-19.29v-19.29h-38.58v19.29h19.29v38.58h-19.29v-19.29h-19.291v19.29h-19.29v-38.58h19.29v-19.29h-19.29v-19.29h19.29v-19.29h-19.29v-38.582h19.29v19.29h19.29v-19.29h19.29v38.581h-19.29v19.29h38.58v-19.29h19.291v19.29h38.58v-19.29h-19.29v-19.29h19.29v-19.29h-38.58v19.29h-19.29v-57.871h19.29v19.29h38.58v-19.29h-19.29v-19.29h19.29v-19.29h-38.58v19.29h-19.29v-19.29h-38.58v19.29h19.29v38.58h-19.29v-19.29h-19.291v19.29h-19.29v-38.58h19.29v-19.29h-38.58v19.29h-19.291v-19.29h-38.58v19.29h19.29v19.29h-19.29v19.29h38.58v-19.29h19.29v38.58h-19.29v19.29h19.29v38.581h-19.29v-19.29h-19.29v19.29h-19.29v-38.58h19.29v-19.29H80.58v19.29h19.29v38.58h-19.29v-19.29H61.29v19.29H42v-38.58h19.29v-19.29H42v-38.581h19.29v19.29h38.581v-19.29h-19.29v-19.29h19.29v-19.29h-38.58v19.29H42v-38.581h19.29v-19.29H42v-38.581h19.29v19.29h19.29v-19.29h19.291v38.58h-19.29v19.29h38.58v-19.29h19.29v19.29h38.581v-19.29h-19.29v-19.29h19.29v-19.29h-38.58v19.29h-19.29v-57.87h19.29v19.29h38.58v-19.29h-19.29v-19.291h19.29v-19.29h-38.58v19.29h-19.29v-19.29H80.58v19.29h19.29v38.58h-19.29v-19.29H61.29v19.29H42v-38.58h19.29v-19.29H42v-38.581h19.29v19.29h38.581v-19.29h-19.29v-19.29h19.29v-19.29h-38.58v19.29H42V520.87h19.29v-19.29H42V463h19.29v19.29h19.29V463h19.291v38.58h-19.29v19.291h57.87v-19.29h-19.29V463h19.29v19.29h19.29V463h19.291v38.58h-19.29v19.291h19.29v38.58h-19.29v-19.29h-38.58v19.29h19.29v19.29h-19.29v19.291h38.58v-19.29h19.29v19.29h19.29v-19.29h19.29v19.29h38.582v-19.29h-19.29v-19.29h19.29v-19.29h-38.581v19.29h-19.29V520.87h19.29v-19.29h-19.29V463h19.29v19.29h19.29V463h19.29v38.58h-19.29v19.291h57.871v-19.29h-19.29V463h19.29v19.29h19.29V463h19.29v38.58h-19.29v19.291h19.29v38.58h-19.29v-19.29h-38.58v19.29h19.29v19.29h-19.29v19.291h38.58v-19.29h19.29v38.58h-19.29v19.29h19.29v38.582h-19.29v-19.29h-19.29v19.29h-19.29v-38.581h19.29v-19.29h-38.58v19.29h-19.29v-19.29h-38.581v19.29h19.29v19.29h-19.29v19.29h38.58v-19.29h19.29v57.871h-19.29v-19.29h-38.58v19.29h19.29v19.29h-19.29v19.29h38.58v-19.29h19.29v19.29h38.581v-19.29h-19.29v-38.58h19.29v19.29h19.29v-19.29h19.29v38.58h-19.29v19.29h57.871v-19.29h-19.29v-38.58h19.29v19.29h19.29v-19.29h19.291v38.58h-19.29v19.29h38.58v-19.29h19.29v19.29h38.581v-19.29h-19.29v-19.29h19.29v-19.29h-38.58v19.29h-19.29v-57.87h19.29v19.29h38.58v-19.29h-19.29v-19.291h19.29v-19.29h-38.58v19.29h-19.29v-19.29h-38.581v19.29h19.29v38.58h-19.29v-19.29h-19.29v19.29h-19.29v-38.58h19.29v-19.29h-19.29v-38.581h19.29v19.29h38.58v-19.29h-19.29v-19.29h19.29v-19.29h-38.58v19.29h-19.29V520.87h19.29v-19.29h-19.29V463h19.29v19.29h19.29V463h19.29v38.58h-19.29v19.291h57.87v-19.29h-19.29V463h19.29v19.29h19.291V463h19.29v38.58h-19.29v19.291h19.29v38.58h-19.29v-19.29h-38.58v19.29h19.29v19.29h-19.29v19.291h38.58v-19.29h19.29v19.29h19.29v-19.29h19.291v19.29h38.58v-19.29h-19.29v-19.29h19.29v-19.29h-38.58v19.29h-19.29V520.87h19.29v-19.29h-19.29V463h19.29v19.29h19.29V463h19.29v38.58h-19.29v19.291h57.871v-19.29h-19.29V463h19.29v19.29h19.29V463H640v38.58h-19.29v19.291H640v38.58h-19.29v-19.29h-38.581v19.29h19.29v19.29h-19.29v19.291h38.58v-19.29H640v38.58h-19.29v19.29H640v38.582h-19.29v-19.29h-19.29v19.29h-19.291v-38.581h19.29v-19.29h-38.58v19.29h-19.29v-19.29h-38.581v19.29h19.29v19.29h-19.29v19.29h38.58v-19.29h19.29v57.871h-19.29v-19.29h-38.58v19.29h19.29v19.29h-19.29v19.29h38.58v-19.29h19.29v19.29h38.581v-19.29h-19.29v-38.58h19.29v19.29h19.29v-19.29H640v38.58h-19.29v19.29H640v38.581h-19.29v-19.29h-38.581v19.29h19.29v19.29h-19.29v19.291h38.58v-19.29H640v38.58h-19.29v19.29H640v38.581h-19.29v-19.29h-19.29v19.29h-19.291v-38.58h19.29v-19.29h-57.87v19.29h19.29v38.58h-19.29v-19.29h-19.29v19.29h-19.291v-38.58h19.29v-19.29h-19.29v-38.581h19.29v19.29h38.58v-19.29h-19.29v-19.29h19.29v-19.29h-38.58v19.29h-19.29v-19.29h-38.58v19.29h19.29v38.58h-19.29v-19.29h-19.291v19.29h-19.29v-38.58h19.29v-19.29h-38.58v19.29h-19.291v-19.29h-38.58v19.29h19.29v19.29h-19.29v19.29h38.58v-19.29h19.29v57.87h-19.29v-19.29h-38.58v19.29h19.29v19.291h-19.29v19.29h38.58v-19.29h19.29v19.29h38.58v-19.29h-19.29v-38.58h19.29v19.29h19.291v-19.29h19.29v38.58h-19.29v19.29h19.29v19.29h-19.29v19.291h19.29v38.58h-19.29v-19.29h-19.29v19.29h-19.29v-38.58h19.29v-19.29h-38.58v19.29h-19.291v-19.29h-38.58v19.29h19.29v19.29h-19.29v19.29h38.58v-19.29h19.29v57.871h-19.29v-19.29h-38.58v19.29h19.29v19.29h-19.29V1061h38.58v-19.29h19.29V1061h38.58v-19.29h-19.29v-38.581h19.29v19.29h19.291v-19.29h19.29v38.58h-19.29V1061h38.58v-19.29h19.291V1061h38.58v-19.29h-19.29v-19.29h19.29v-19.291h-38.58v19.29h-19.29v-38.58h19.29v-19.29h-19.29v-38.581h19.29v19.29h19.29v-19.29h19.29v38.58h-19.29v19.29h57.871v-19.29h-19.29v-38.58h19.29v19.29h19.29v-19.29H640v38.58h-19.29v19.29H640v38.581h-19.29v-19.29h-38.581v19.29h19.29v19.29h-19.29V1061h38.58v-19.29H640V1061" transform="translate(-41 -462)"/>
</svg>
