<svg xmlns="http://www.w3.org/2000/svg" width="309" height="369" viewBox="0 0 309 369">
  <defs>
    <linearGradient id="pattern05-a" x1="50%" x2="50%" y1="0%" y2="100%">
      <stop offset="0%" stop-color="#FFF"/>
      <stop offset="100%" stop-color="#FFF" stop-opacity="0"/>
    </linearGradient>
  </defs>
  <polyline fill="none" stroke="url(#pattern05-a)" stroke-width="2" points="716.763 378.572 716.763 366.728 727.864 366.728 727.864 378.572 750.066 378.572 750.066 366.728 738.965 366.728 738.965 354.885 750.066 354.885 750.066 343.041 727.864 343.041 727.864 354.885 716.763 354.885 716.763 331.197 727.864 331.197 727.864 319.353 716.763 319.353 716.763 295.665 727.864 295.665 727.864 307.509 738.965 307.509 738.965 295.665 750.066 295.665 750.066 319.353 738.965 319.353 738.965 331.197 772.269 331.197 772.269 319.353 761.168 319.353 761.168 295.665 772.269 295.665 772.269 307.509 783.37 307.509 783.37 295.665 794.472 295.665 794.472 319.353 783.37 319.353 783.37 331.197 794.472 331.197 794.472 354.885 783.37 354.885 783.37 343.041 761.168 343.041 761.168 354.885 772.269 354.885 772.269 366.728 761.168 366.728 761.168 378.572 783.37 378.572 783.37 366.728 794.472 366.728 794.472 378.572 816.674 378.572 816.674 366.728 805.573 366.728 805.573 343.041 816.674 343.041 816.674 354.885 827.775 354.885 827.775 343.041 838.877 343.041 838.877 366.728 827.775 366.728 827.775 378.572 849.978 378.572 849.978 366.728 861.079 366.728 861.079 378.572 883.282 378.572 883.282 366.728 872.181 366.728 872.181 354.885 883.282 354.885 883.282 343.041 861.079 343.041 861.079 354.885 849.978 354.885 849.978 319.353 861.079 319.353 861.079 331.197 883.282 331.197 883.282 319.353 872.181 319.353 872.181 307.509 883.282 307.509 883.282 295.665 861.079 295.665 861.079 307.509 849.978 307.509 849.978 295.665 827.775 295.665 827.775 307.509 838.877 307.509 838.877 331.197 827.775 331.197 827.775 319.353 816.674 319.353 816.674 331.197 805.573 331.197 805.573 307.509 816.674 307.509 816.674 295.665 805.573 295.665 805.573 283.821 816.674 283.821 816.674 271.978 805.573 271.978 805.573 248.29 816.674 248.29 816.674 260.134 827.775 260.134 827.775 248.29 838.877 248.29 838.877 271.978 827.775 271.978 827.775 283.821 849.978 283.821 849.978 271.978 861.079 271.978 861.079 283.821 883.282 283.821 883.282 271.978 872.181 271.978 872.181 260.134 883.282 260.134 883.282 248.29 861.079 248.29 861.079 260.134 849.978 260.134 849.978 224.602 861.079 224.602 861.079 236.446 883.282 236.446 883.282 224.602 872.181 224.602 872.181 212.758 883.282 212.758 883.282 200.915 861.079 200.915 861.079 212.758 849.978 212.758 849.978 200.915 827.775 200.915 827.775 212.758 838.877 212.758 838.877 236.446 827.775 236.446 827.775 224.602 816.674 224.602 816.674 236.446 805.573 236.446 805.573 212.758 816.674 212.758 816.674 200.915 794.472 200.915 794.472 212.758 783.37 212.758 783.37 200.915 761.168 200.915 761.168 212.758 772.269 212.758 772.269 224.602 761.168 224.602 761.168 236.446 783.37 236.446 783.37 224.602 794.472 224.602 794.472 248.29 783.37 248.29 783.37 260.134 794.472 260.134 794.472 283.821 783.37 283.821 783.37 271.978 772.269 271.978 772.269 283.821 761.168 283.821 761.168 260.134 772.269 260.134 772.269 248.29 738.965 248.29 738.965 260.134 750.066 260.134 750.066 283.821 738.965 283.821 738.965 271.978 727.864 271.978 727.864 283.821 716.763 283.821 716.763 260.134 727.864 260.134 727.864 248.29 716.763 248.29 716.763 224.602 727.864 224.602 727.864 236.446 750.066 236.446 750.066 224.602 738.965 224.602 738.965 212.758 750.066 212.758 750.066 200.915 727.864 200.915 727.864 212.758 716.763 212.758 716.763 189.071 727.864 189.071 727.864 177.227 716.763 177.227 716.763 153.539 727.864 153.539 727.864 165.383 738.965 165.383 738.965 153.539 750.066 153.539 750.066 177.227 738.965 177.227 738.965 189.071 761.168 189.071 761.168 177.227 772.269 177.227 772.269 189.071 794.472 189.071 794.472 177.227 783.37 177.227 783.37 165.383 794.472 165.383 794.472 153.539 772.269 153.539 772.269 165.383 761.168 165.383 761.168 129.851 772.269 129.851 772.269 141.695 794.472 141.695 794.472 129.851 783.37 129.851 783.37 118.008 794.472 118.008 794.472 106.164 772.269 106.164 772.269 118.008 761.168 118.008 761.168 106.164 738.965 106.164 738.965 118.008 750.066 118.008 750.066 141.695 738.965 141.695 738.965 129.851 727.864 129.851 727.864 141.695 716.763 141.695 716.763 118.008 727.864 118.008 727.864 106.164 716.763 106.164 716.763 82.476 727.864 82.476 727.864 94.32 750.066 94.32 750.066 82.476 738.965 82.476 738.965 70.632 750.066 70.632 750.066 58.788 727.864 58.788 727.864 70.632 716.763 70.632 716.763 46.945 727.864 46.945 727.864 35.101 716.763 35.101 716.763 11.413 727.864 11.413 727.864 23.257 738.965 23.257 738.965 11.413 750.066 11.413 750.066 35.101 738.965 35.101 738.965 46.945 772.269 46.945 772.269 35.101 761.168 35.101 761.168 11.413 772.269 11.413 772.269 23.257 783.37 23.257 783.37 11.413 794.472 11.413 794.472 35.101 783.37 35.101 783.37 46.945 794.472 46.945 794.472 70.632 783.37 70.632 783.37 58.788 761.168 58.788 761.168 70.632 772.269 70.632 772.269 82.476 761.168 82.476 761.168 94.32 783.37 94.32 783.37 82.476 794.472 82.476 794.472 94.32 805.573 94.32 805.573 82.476 816.674 82.476 816.674 94.32 838.877 94.32 838.877 82.476 827.775 82.476 827.775 70.632 838.877 70.632 838.877 58.788 816.674 58.788 816.674 70.632 805.573 70.632 805.573 46.945 816.674 46.945 816.674 35.101 805.573 35.101 805.573 11.413 816.674 11.413 816.674 23.257 827.775 23.257 827.775 11.413 838.877 11.413 838.877 35.101 827.775 35.101 827.775 46.945 861.079 46.945 861.079 35.101 849.978 35.101 849.978 11.413 861.079 11.413 861.079 23.257 872.181 23.257 872.181 11.413 883.282 11.413 883.282 35.101 872.181 35.101 872.181 46.945 883.282 46.945 883.282 70.632 872.181 70.632 872.181 58.788 849.978 58.788 849.978 70.632 861.079 70.632 861.079 82.476 849.978 82.476 849.978 94.32 872.181 94.32 872.181 82.476 883.282 82.476 883.282 106.164 872.181 106.164 872.181 118.008 883.282 118.008 883.282 141.695 872.181 141.695 872.181 129.851 861.079 129.851 861.079 141.695 849.978 141.695 849.978 118.008 861.079 118.008 861.079 106.164 838.877 106.164 838.877 118.008 827.775 118.008 827.775 106.164 805.573 106.164 805.573 118.008 816.674 118.008 816.674 129.851 805.573 129.851 805.573 141.695 827.775 141.695 827.775 129.851 838.877 129.851 838.877 165.383 827.775 165.383 827.775 153.539 805.573 153.539 805.573 165.383 816.674 165.383 816.674 177.227 805.573 177.227 805.573 189.071 827.775 189.071 827.775 177.227 838.877 177.227 838.877 189.071 861.079 189.071 861.079 177.227 849.978 177.227 849.978 153.539 861.079 153.539 861.079 165.383 872.181 165.383 872.181 153.539 883.282 153.539 883.282 177.227 872.181 177.227 872.181 189.071 905.484 189.071 905.484 177.227 894.383 177.227 894.383 153.539 905.484 153.539 905.484 165.383 916.586 165.383 916.586 153.539 927.687 153.539 927.687 177.227 916.586 177.227 916.586 189.071 938.788 189.071 938.788 177.227 949.89 177.227 949.89 189.071 972.092 189.071 972.092 177.227 960.991 177.227 960.991 165.383 972.092 165.383 972.092 153.539 949.89 153.539 949.89 165.383 938.788 165.383 938.788 129.851 949.89 129.851 949.89 141.695 972.092 141.695 972.092 129.851 960.991 129.851 960.991 118.008 972.092 118.008 972.092 106.164 949.89 106.164 949.89 118.008 938.788 118.008 938.788 106.164 916.586 106.164 916.586 118.008 927.687 118.008 927.687 141.695 916.586 141.695 916.586 129.851 905.484 129.851 905.484 141.695 894.383 141.695 894.383 118.008 905.484 118.008 905.484 106.164 894.383 106.164 894.383 82.476 905.484 82.476 905.484 94.32 927.687 94.32 927.687 82.476 916.586 82.476 916.586 70.632 927.687 70.632 927.687 58.788 905.484 58.788 905.484 70.632 894.383 70.632 894.383 46.945 905.484 46.945 905.484 35.101 894.383 35.101 894.383 11.413 905.484 11.413 905.484 23.257 916.586 23.257 916.586 11.413 927.687 11.413 927.687 35.101 916.586 35.101 916.586 46.945 949.89 46.945 949.89 35.101 938.788 35.101 938.788 11.413 949.89 11.413 949.89 23.257 960.991 23.257 960.991 11.413 972.092 11.413 972.092 35.101 960.991 35.101 960.991 46.945 972.092 46.945 972.092 70.632 960.991 70.632 960.991 58.788 938.788 58.788 938.788 70.632 949.89 70.632 949.89 82.476 938.788 82.476 938.788 94.32 960.991 94.32 960.991 82.476 972.092 82.476 972.092 94.32 983.193 94.32 983.193 82.476 994.295 82.476 994.295 94.32 1016.497 94.32 1016.497 82.476 1005.396 82.476 1005.396 70.632 1016.497 70.632 1016.497 58.788 994.295 58.788 994.295 70.632 983.193 70.632 983.193 46.945 994.295 46.945 994.295 35.101 983.193 35.101 983.193 11.413 994.295 11.413 994.295 23.257 1005.396 23.257 1005.396 11.413 1016.497 11.413 1016.497 35.101 1005.396 35.101 1005.396 46.945 1038.7 46.945 1038.7 35.101 1027.599 35.101 1027.599 11.413 1038.7 11.413 1038.7 23.257 1049.801 23.257 1049.801 11.413 1060.902 11.413 1060.902 35.101 1049.801 35.101 1049.801 46.945 1060.902 46.945 1060.902 70.632 1049.801 70.632 1049.801 58.788 1027.599 58.788 1027.599 70.632 1038.7 70.632 1038.7 82.476 1027.599 82.476 1027.599 94.32 1049.801 94.32 1049.801 82.476 1060.902 82.476 1060.902 106.164 1049.801 106.164 1049.801 118.008 1060.902 118.008 1060.902 141.695 1049.801 141.695 1049.801 129.851 1038.7 129.851 1038.7 141.695 1027.599 141.695 1027.599 118.008 1038.7 118.008 1038.7 106.164 1016.497 106.164 1016.497 118.008 1005.396 118.008 1005.396 106.164 983.193 106.164 983.193 118.008 994.295 118.008 994.295 129.851 983.193 129.851 983.193 141.695 1005.396 141.695 1005.396 129.851 1016.497 129.851 1016.497 165.383 1005.396 165.383 1005.396 153.539 983.193 153.539 983.193 165.383 994.295 165.383 994.295 177.227 983.193 177.227 983.193 189.071 1005.396 189.071 1005.396 177.227 1016.497 177.227 1016.497 189.071 1038.7 189.071 1038.7 177.227 1027.599 177.227 1027.599 153.539 1038.7 153.539 1038.7 165.383 1049.801 165.383 1049.801 153.539 1060.902 153.539 1060.902 177.227 1049.801 177.227 1049.801 189.071 1060.902 189.071 1060.902 212.758 1049.801 212.758 1049.801 200.915 1027.599 200.915 1027.599 212.758 1038.7 212.758 1038.7 224.602 1027.599 224.602 1027.599 236.446 1049.801 236.446 1049.801 224.602 1060.902 224.602 1060.902 248.29 1049.801 248.29 1049.801 260.134 1060.902 260.134 1060.902 283.821 1049.801 283.821 1049.801 271.978 1038.7 271.978 1038.7 283.821 1027.599 283.821 1027.599 260.134 1038.7 260.134 1038.7 248.29 1005.396 248.29 1005.396 260.134 1016.497 260.134 1016.497 283.821 1005.396 283.821 1005.396 271.978 994.295 271.978 994.295 283.821 983.193 283.821 983.193 260.134 994.295 260.134 994.295 248.29 983.193 248.29 983.193 224.602 994.295 224.602 994.295 236.446 1016.497 236.446 1016.497 224.602 1005.396 224.602 1005.396 212.758 1016.497 212.758 1016.497 200.915 994.295 200.915 994.295 212.758 983.193 212.758 983.193 200.915 960.991 200.915 960.991 212.758 972.092 212.758 972.092 236.446 960.991 236.446 960.991 224.602 949.89 224.602 949.89 236.446 938.788 236.446 938.788 212.758 949.89 212.758 949.89 200.915 927.687 200.915 927.687 212.758 916.586 212.758 916.586 200.915 894.383 200.915 894.383 212.758 905.484 212.758 905.484 224.602 894.383 224.602 894.383 236.446 916.586 236.446 916.586 224.602 927.687 224.602 927.687 260.134 916.586 260.134 916.586 248.29 894.383 248.29 894.383 260.134 905.484 260.134 905.484 271.978 894.383 271.978 894.383 283.821 916.586 283.821 916.586 271.978 927.687 271.978 927.687 283.821 949.89 283.821 949.89 271.978 938.788 271.978 938.788 248.29 949.89 248.29 949.89 260.134 960.991 260.134 960.991 248.29 972.092 248.29 972.092 271.978 960.991 271.978 960.991 283.821 972.092 283.821 972.092 295.665 960.991 295.665 960.991 307.509 972.092 307.509 972.092 331.197 960.991 331.197 960.991 319.353 949.89 319.353 949.89 331.197 938.788 331.197 938.788 307.509 949.89 307.509 949.89 295.665 927.687 295.665 927.687 307.509 916.586 307.509 916.586 295.665 894.383 295.665 894.383 307.509 905.484 307.509 905.484 319.353 894.383 319.353 894.383 331.197 916.586 331.197 916.586 319.353 927.687 319.353 927.687 354.885 916.586 354.885 916.586 343.041 894.383 343.041 894.383 354.885 905.484 354.885 905.484 366.728 894.383 366.728 894.383 378.572 916.586 378.572 916.586 366.728 927.687 366.728 927.687 378.572 949.89 378.572 949.89 366.728 938.788 366.728 938.788 343.041 949.89 343.041 949.89 354.885 960.991 354.885 960.991 343.041 972.092 343.041 972.092 366.728 960.991 366.728 960.991 378.572 983.193 378.572 983.193 366.728 994.295 366.728 994.295 378.572 1016.497 378.572 1016.497 366.728 1005.396 366.728 1005.396 354.885 1016.497 354.885 1016.497 343.041 994.295 343.041 994.295 354.885 983.193 354.885 983.193 331.197 994.295 331.197 994.295 319.353 983.193 319.353 983.193 295.665 994.295 295.665 994.295 307.509 1005.396 307.509 1005.396 295.665 1016.497 295.665 1016.497 319.353 1005.396 319.353 1005.396 331.197 1038.7 331.197 1038.7 319.353 1027.599 319.353 1027.599 295.665 1038.7 295.665 1038.7 307.509 1049.801 307.509 1049.801 295.665 1060.902 295.665 1060.902 319.353 1049.801 319.353 1049.801 331.197 1060.902 331.197 1060.902 354.885 1049.801 354.885 1049.801 343.041 1027.599 343.041 1027.599 354.885 1038.7 354.885 1038.7 366.728 1027.599 366.728 1027.599 378.572 1049.801 378.572 1049.801 366.728 1060.902 366.728 1060.902 378.572" opacity=".145" transform="translate(-715 -10)"/>
</svg>
