<?xml version="1.0" encoding="UTF-8"?>
<svg xmlns="http://www.w3.org/2000/svg" viewBox="0 83.717 612 708.283">
   <path stroke="#000" stroke-miterlimit="10" d="M615 613.542L308.712 789.959 3 613.542V260.133L308.712 83.717 615 260.133z" />
   <g fill="#fff">
      <path stroke="#fff" stroke-width=".151" stroke-miterlimit="2.6131" d="M206.11 603.246h151.074l63.528-67.65v-91.23h-22.506v72.477H332.99v62.607H228.615V444.365H206.11v158.881h0zm214.588-184.301V270.43H206.11v148.516h22.52V294.213h169.592v124.732h22.476z" />
      <path d="M421.139 368.893h50.625v12.463h-50.625z" />
      <path d="M420.698 344.502h60.599v171.664h-60.599v-71.801h.071v61.317h1.067H443.4v-86.737h-.042-22.589-.071zm-192.083 0h169.592v74.442H228.615zm-91.912 0h69.407v74.443h-.072-20.362-2.246v86.737h21.534 1.074v-61.317h.072v71.801h-69.407z" stroke="#fff" stroke-miterlimit="2.6131" stroke-width=".101" />
   </g>
</svg>