<svg width="30" height="30" viewBox="0 0 30 30" fill="none" xmlns="http://www.w3.org/2000/svg">
<path d="M17.5 18.75C17.8542 18.75 18.1615 18.6198 18.4219 18.3594C18.6823 18.099 18.8125 17.7917 18.8125 17.4375C18.8125 17.0833 18.6823 16.776 18.4219 16.5156C18.1615 16.2552 17.8542 16.125 17.5 16.125C17.1458 16.125 16.8385 16.2552 16.5781 16.5156C16.3177 16.776 16.1875 17.0833 16.1875 17.4375C16.1875 17.7917 16.3177 18.099 16.5781 18.3594C16.8385 18.6198 17.1458 18.75 17.5 18.75ZM16.5625 14.75H18.4375C18.4375 14.1458 18.5 13.7031 18.625 13.4219C18.75 13.1406 19.0417 12.7708 19.5 12.3125C20.125 11.6875 20.5417 11.1823 20.75 10.7969C20.9583 10.4115 21.0625 9.95833 21.0625 9.4375C21.0625 8.5 20.7344 7.73438 20.0781 7.14062C19.4219 6.54688 18.5625 6.25 17.5 6.25C16.6458 6.25 15.901 6.48958 15.2656 6.96875C14.6302 7.44792 14.1875 8.08333 13.9375 8.875L15.625 9.5625C15.8125 9.04167 16.0677 8.65104 16.3906 8.39062C16.7135 8.13021 17.0833 8 17.5 8C18 8 18.4062 8.14062 18.7188 8.42188C19.0312 8.70312 19.1875 9.08333 19.1875 9.5625C19.1875 9.85417 19.1042 10.1302 18.9375 10.3906C18.7708 10.651 18.4792 10.9792 18.0625 11.375C17.375 11.9792 16.9531 12.4531 16.7969 12.7969C16.6406 13.1406 16.5625 13.7917 16.5625 14.75ZM10 22.5C9.3125 22.5 8.72396 22.2552 8.23438 21.7656C7.74479 21.276 7.5 20.6875 7.5 20V5C7.5 4.3125 7.74479 3.72396 8.23438 3.23438C8.72396 2.74479 9.3125 2.5 10 2.5H25C25.6875 2.5 26.276 2.74479 26.7656 3.23438C27.2552 3.72396 27.5 4.3125 27.5 5V20C27.5 20.6875 27.2552 21.276 26.7656 21.7656C26.276 22.2552 25.6875 22.5 25 22.5H10ZM10 20H25V5H10V20ZM5 27.5C4.3125 27.5 3.72396 27.2552 3.23438 26.7656C2.74479 26.276 2.5 25.6875 2.5 25V7.5H5V25H22.5V27.5H5Z" fill="#1C0F5F"/>
</svg>
