<?xml version="1.0" encoding="utf-8"?>
<!-- Generator: Adobe Illustrator 24.1.3, SVG Export Plug-In . SVG Version: 6.00 Build 0)  -->
<svg version="1.1" id="Layer_1" xmlns="http://www.w3.org/2000/svg" xmlns:xlink="http://www.w3.org/1999/xlink" style="display: none">
	<symbol id="icon" viewBox="0 0 768 768" xml:space="preserve">
		<circle cx="384" cy="384" r="384"/>
		<g>
			<g>
				<path fill="#FFFFFF" d="M383.8,186.4c37.2,0,65.9,4.6,86.3,13.8c20.4,9.2,35.4,25.5,45.1,48.9c9.7,23.4,14.5,56.7,14.5,99.9
					c0,43.2-4.8,76.5-14.5,99.9c-9.7,23.4-24.7,39.7-45.1,48.9c-20.4,9.2-49.2,13.8-86.3,13.8c-36.9,0-65.5-4.6-85.9-13.8
					c-20.4-9.2-35.4-25.5-45.1-48.9c-9.7-23.4-14.5-56.7-14.5-99.9c0-43.2,4.8-76.5,14.5-99.9c9.7-23.4,24.7-39.7,45.1-48.9
					C318.3,191,346.9,186.4,383.8,186.4z M336.2,563.9l20.8-46.7c33.8,12.7,83.5,23.9,149.1,33.5l-24,79.3
					C422.3,612.9,373.7,590.8,336.2,563.9z M417.5,277.3c-5.6-11.9-16.8-17.9-33.8-17.9c-16.9,0-28.2,6-33.8,17.9
					c-5.6,11.9-8.4,35.9-8.4,71.8c0,36,2.8,59.9,8.4,71.8c5.6,11.9,16.8,17.9,33.8,17.9c16.9,0,28.2-6,33.8-17.9
					c5.6-11.9,8.4-35.9,8.4-71.8C425.9,313.2,423.1,289.2,417.5,277.3z"/>
			</g>
		</g>
	</symbol>
</svg>
