<?xml version="1.0" encoding="UTF-8"?>
<!DOCTYPE svg PUBLIC "-//W3C//DTD SVG 1.1//EN" "http://www.w3.org/Graphics/SVG/1.1/DTD/svg11.dtd">
<svg version="1.1" xmlns="http://www.w3.org/2000/svg" xmlns:xlink="http://www.w3.org/1999/xlink" x="0" y="0" width="768" height="768" viewBox="0, 0, 768, 768">
  <symbol id="icon" viewBox="0 0 768 768" xml:space="preserve">
    <g id="Layer_1">
      <path d="M384,767.631 L51.766,575.816 L51.766,192.185 L384,0.369 L716.234,192.184 L716.234,575.815 z"/>
      <path d="M383.8,162.2 C421,162.2 449.7,166.8 470.1,176 C490.5,185.2 505.5,201.5 515.2,224.9 C524.9,248.3 529.7,281.6 529.7,324.8 C529.7,368 524.9,401.3 515.2,424.7 C505.5,448.1 490.5,464.4 470.1,473.6 C449.7,482.8 420.9,487.4 383.8,487.4 C346.9,487.4 318.3,482.8 297.9,473.6 C277.5,464.4 262.5,448.1 252.8,424.7 C243.1,401.3 238.3,368 238.3,324.8 C238.3,281.6 243.1,248.3 252.8,224.9 C262.5,201.5 277.5,185.2 297.9,176 C318.3,166.8 346.9,162.2 383.8,162.2 z M336.2,539.7 L357,493 C390.8,505.7 440.5,516.9 506.1,526.5 L482.1,605.8 C422.3,588.7 373.7,566.6 336.2,539.7 z M417.5,253.1 C411.9,241.2 400.7,235.2 383.7,235.2 C366.8,235.2 355.5,241.2 349.9,253.1 C344.3,265 341.5,289 341.5,324.9 C341.5,360.9 344.3,384.8 349.9,396.7 C355.5,408.6 366.7,414.6 383.7,414.6 C400.6,414.6 411.9,408.6 417.5,396.7 C423.1,384.8 425.9,360.8 425.9,324.9 C425.9,289 423.1,265 417.5,253.1 z" fill="#FFFFFF"/>
    </g>
  </symbol>
</svg>
