<?xml version="1.0" encoding="utf-8"?>
<!-- Generator: Adobe Illustrator 17.1.0, SVG Export Plug-In . SVG Version: 6.00 Build 0)  -->
<!DOCTYPE svg PUBLIC "-//W3C//DTD SVG 1.1//EN" "http://www.w3.org/Graphics/SVG/1.1/DTD/svg11.dtd">
<svg version="1.1" id="Layer_1" xmlns="http://www.w3.org/2000/svg" xmlns:xlink="http://www.w3.org/1999/xlink" x="0px" y="0px"
	 viewBox="497.7 360.3 515.9 595.4" enable-background="new 497.7 360.3 515.9 595.4" xml:space="preserve">
<polygon stroke="#000000" stroke-miterlimit="10" points="1013.2,806.7 755.9,955.1 498.2,806.7 498.2,509.3 755.9,360.9 
	1013.2,509.3 "/>
<path fill="#FFFFFF" d="M795.1,707.1c-11.6,0-22.7,3.4-31.9,9.2l-34.3-34.3c2.9-7.3,4.8-15,4.8-23.7c0-8.2-1.9-16.4-4.8-23.7
	l34.8-34.8c9.2,5.8,20.3,9.2,31.9,9.2c34.3,0,61.9-27.6,61.9-61.9c0-34.3-27.6-61.9-61.9-61.9c-34.3,0-61.9,27.6-61.9,61.9
	c0,9.2,1.9,18.4,5.8,26.1l-33.4,33.4c-9.7-6.3-21.8-10.2-34.3-10.2c-34.3,0-61.9,27.6-61.9,61.9c0,34.3,27.6,61.9,61.9,61.9
	c12.6,0,24.7-3.9,34.3-10.2l33.4,33.4c-3.9,7.7-5.8,16.4-5.8,26.1c0,34.3,27.6,61.9,61.9,61.9c34.3,0,61.9-27.6,61.9-61.9
	C857,735.1,829.4,707.1,795.1,707.1z"/>
</svg>
