<svg xmlns="http://www.w3.org/2000/svg" width="209" height="11" viewBox="0 0 209 11">
    <g fill="#FF3369" fill-rule="evenodd">
        <path d="M24.605 9.917A4.92 4.92 0 1 1 24.6.077a4.92 4.92 0 0 1 .005 9.84zm-19.688 0A4.918 4.918 0 0 1 0 5a4.919 4.919 0 1 1 9.838 0c0 2.713-2.2 4.917-4.92 4.917zM142.76 9.917a4.917 4.917 0 0 1-4.917-4.921 4.919 4.919 0 0 1 9.836 0 4.92 4.92 0 0 1-4.919 4.92zm-59.05 0a4.924 4.924 0 0 1-4.925-4.921A4.922 4.922 0 0 1 83.71.076a4.922 4.922 0 0 1 4.923 4.92 4.924 4.924 0 0 1-4.923 4.92zm39.366 0H103.39a4.918 4.918 0 0 1-4.919-4.921 4.916 4.916 0 0 1 4.92-4.92h19.685a4.918 4.918 0 0 1 4.915 4.92 4.92 4.92 0 0 1-4.915 4.92zm-59.048 0H44.34a4.921 4.921 0 0 1 0-9.84h19.688a4.92 4.92 0 1 1 0 9.84zM204.054 10.17a4.923 4.923 0 0 1-4.927-4.92 4.922 4.922 0 0 1 4.927-4.92c2.711 0 4.913 2.2 4.913 4.92a4.917 4.917 0 0 1-4.913 4.92zM184.366.33c2.717 0 4.917 2.2 4.917 4.92A4.92 4.92 0 1 1 184.366.33zm-19.684 0a4.92 4.92 0 0 1 0 9.84 4.916 4.916 0 0 1-4.917-4.92 4.915 4.915 0 0 1 4.917-4.92z"/>
    </g>
</svg>
