<svg xmlns="http://www.w3.org/2000/svg" width="250" height="10" viewBox="0 0 250 10">
  <g id="morse-ics" style="fill:#ff3369;fill-rule:evenodd;">
    <g id="i">
      <path d="M 25,10 A 5,5 0 1 1 25,0 5,5 0 0 1 25,10 Z" />
      <path d="M 5,10 A 5,5 0 0 1 0,5 5,5 0 1 1 10,5 c 0,2.75 -2.25,5 -5,5 z" />
    </g>
    <g id="c">
      <path d="M 165,10 A 5,5 0 0 1 160,5 a 5,5 0 0 1 10,0 5,5 0 0 1 -5,5 z" />
      <path d="M 105,10 A 5,5 0 0 1 100,5 5,5 0 0 1 105,0 5,5 0 0 1 110,5 a 5,5 0 0 1 -5,5 z" />
      <path d="m 145,10 h -20 A 5,5 0 0 1 120,5 5,5 0 0 1 125,0 h 20 A 5,5 0 0 1 150,5 a 5,5 0 0 1 -5,5 z" />
      <path d="M 85,10 H 65 a 5,5 0 0 1 0,-10 h 20 a 5,5 0 1 1 0,10 z" />
    </g>
    <g id="s">
      <path d="M 245,10 A 5,5 0 0 1 240,5 5,5 0 0 1 245,0 C 247.75,0 250,2.25 250,5 a 5,5 0 0 1 -5,5 z" />
      <path d="M 225,0 C 227.75,0 230,2.25 230,5 A 5,5 0 1 1 225,0 Z" />
      <path d="m 205,0 a 5,5 0 0 1 0,10 A 5,5 0 0 1 200,5 5,5 0 0 1 205,0 Z" />
    </g>
   </g>
</svg>