<?xml version="1.0" encoding="UTF-8"?>
<svg width="40px" height="41px" viewBox="0 0 40 41" version="1.1" xmlns="http://www.w3.org/2000/svg" xmlns:xlink="http://www.w3.org/1999/xlink">
    <!-- Generator: Sketch 53.2 (72643) - https://sketchapp.com -->
    <title>002-twitter-logo-in-circular-button-outlined-social-symbol copy</title>
    <desc>Created with Sketch.</desc>
    <g id="Symbols" stroke="none" stroke-width="1" fill="none" fill-rule="evenodd">
        <g id="Footer/Desktop" transform="translate(-831.000000, -123.000000)" fill-rule="nonzero">
            <g id="Footer">
                <g id="Social-buttons" transform="translate(764.000000, 123.735930)">
                    <g id="002-twitter-logo-in-circular-button-outlined-social-symbol-copy" transform="translate(68.439182, 0.831828)">
                        <path d="M37.4322419,18.8855618 C37.4322419,8.5491253 29.0524963,0.169440863 18.716121,0.169440863 C8.37968444,0.169440863 0,8.5491253 0,18.8855618 C0,29.2219372 8.37968444,37.6016828 18.716121,37.6016828 C29.0524963,37.6016828 37.4322419,29.2219372 37.4322419,18.8855618 Z" id="Path" stroke="#E0DDE0" stroke-width="2"></path>
                        <path d="M26.6942295,15.5588098 C26.6942295,15.380868 26.6910026,15.2045397 26.6829929,15.0298248 C27.4444317,14.4623472 28.1048563,13.752251 28.6274451,12.9395272 C27.9285279,13.2537489 27.1783258,13.4637294 26.389631,13.551836 C27.1943451,13.0565032 27.8114943,12.2646391 28.1032428,11.3140795 C27.3498137,11.7709197 26.5162877,12.0979339 25.6298056,12.267866 C24.9197095,11.4599249 23.9066282,10.9454034 22.7860789,10.9261571 C20.6348731,10.8908914 18.8908359,12.7086869 18.8908359,14.9864918 C18.8908359,15.3102791 18.9244881,15.6245008 18.9917925,15.9274283 C15.7521914,15.7190612 12.8812663,14.0327053 10.9608431,11.4904078 C10.6258193,12.0995473 10.4334716,12.8112569 10.4334716,13.5743092 C10.4334716,15.0170323 11.1211521,16.2993889 12.1662721,17.0559873 C11.5267073,17.0271755 10.9271909,16.8332143 10.4014328,16.5157657 C10.4014328,16.5333985 10.4014328,16.5510313 10.4014328,16.5686642 C10.4014328,18.5852611 11.7447552,20.2747863 13.5272273,20.6691049 C13.2002131,20.7620518 12.8555661,20.8101676 12.501296,20.8086118 C12.2496535,20.8069983 12.0059631,20.7797423 11.7687266,20.7283996 C12.2640594,22.3811033 13.7035556,23.5881458 15.4074867,23.6281942 C14.0737875,24.7342224 12.3938855,25.3946469 10.5696938,25.3898642 C10.2554721,25.3898642 9.94453495,25.369062 9.63993638,25.3305695 C11.3647849,26.5135828 13.4117495,27.2028192 15.6126269,27.2028192 C22.7764557,27.2044903 26.6942295,20.9688631 26.6942295,15.5588098 Z" id="Path" fill="#E0DDE0"></path>
                    </g>
                </g>
            </g>
        </g>
    </g>
</svg>