<svg width="34" height="34" viewBox="0 0 34 34" fill="none" xmlns="http://www.w3.org/2000/svg">
<path d="M26.1647 12.144C26.0526 11.731 25.8344 11.3545 25.5318 11.0519C25.2292 10.7492 24.8527 10.5311 24.4396 10.419C22.9086 10 16.7826 10 16.7826 10C16.7826 10 10.6566 10 9.12564 10.4C8.71284 10.5177 8.33729 10.7397 8.03517 11.0446C7.73304 11.3495 7.51452 11.7271 7.40065 12.141C7.12392 13.6945 6.99002 15.2701 7.00064 16.848C6.98949 18.4259 7.12339 20.0016 7.40065 21.555C7.51272 21.968 7.73089 22.3445 8.0335 22.6471C8.33611 22.9498 8.71262 23.1679 9.12564 23.28C10.6726 23.699 16.7826 23.699 16.7826 23.699C16.7826 23.699 22.9076 23.699 24.4396 23.299C24.8527 23.1869 25.2292 22.9688 25.5318 22.6661C25.8344 22.3635 26.0526 21.987 26.1647 21.574C26.4414 20.0205 26.5753 18.4449 26.5646 16.867C26.5841 15.2834 26.4502 13.7017 26.1647 12.144Z" fill="white"/>
<path d="M19.9235 16.851L14.8325 13.913V19.781L19.9235 16.851Z" fill="#120540"/>
<rect x="1" y="1" width="32" height="32" rx="4" stroke="white" stroke-width="2"/>
</svg>
