<?xml version="1.0" encoding="UTF-8"?>
<svg width="40px" height="41px" viewBox="0 0 40 41" version="1.1" xmlns="http://www.w3.org/2000/svg" xmlns:xlink="http://www.w3.org/1999/xlink">
    <!-- Generator: Sketch 53.2 (72643) - https://sketchapp.com -->
    <title>004-you tube</title>
    <desc>Created with Sketch.</desc>
    <g id="Symbols" stroke="none" stroke-width="1" fill="none" fill-rule="evenodd">
        <g id="Footer/Desktop" transform="translate(-943.000000, -123.000000)" fill-rule="nonzero">
            <g id="Footer">
                <g id="Social-buttons" transform="translate(764.000000, 123.735930)">
                    <g id="004-you-tube" transform="translate(180.000000, 0.831828)">
                        <path d="M37.4322419,18.8855618 C37.4322419,8.5491253 29.0524963,0.169440863 18.716121,0.169440863 C8.37968444,0.169440863 0,8.5491253 0,18.8855618 C0,29.2219372 8.37968444,37.6016828 18.716121,37.6016828 C29.0524963,37.6016828 37.4322419,29.2219372 37.4322419,18.8855618 Z" id="Path" stroke="#E0DDE0" stroke-width="2"></path>
                        <path d="M12.3868,6.93224194 L13.6828,6.93224194 L14.572,10.2640419 L15.3964,6.93224194 L16.705,6.93224194 L15.2065,11.8867419 L15.2065,15.2680419 L13.9186,15.2680419 L13.9186,11.8867419 L12.3868,6.93224194 Z M18.3214,9.06794194 C17.3143,9.06794194 16.6465,9.73394194 16.6465,10.7194419 L16.6465,13.7335419 C16.6465,14.8171419 17.2126,15.3814419 18.3214,15.3814419 C19.2412,15.3814419 19.9648,14.7667419 19.9648,13.7335419 L19.9648,10.7194419 C19.9648,9.75734194 19.2475,9.06794194 18.3214,9.06794194 Z M18.7993,13.6822419 C18.7993,14.0170419 18.6283,14.2636419 18.3205,14.2636419 C18.0046,14.2636419 17.8219,14.0053419 17.8219,13.6822419 L17.8219,10.8211419 C17.8219,10.4845419 17.9767,10.2352419 18.298,10.2352419 C18.649,10.2352419 18.7993,10.4773419 18.7993,10.8211419 L18.7993,13.6822419 L18.7993,13.6822419 Z M23.0554,9.11924194 L23.0554,13.7866419 C22.9159,13.9612419 22.6054,14.2474419 22.3831,14.2474419 C22.1392,14.2474419 22.0789,14.0800419 22.0789,13.8334419 L22.0789,9.11924194 L20.9359,9.11924194 L20.9359,14.2582419 C20.9359,14.8657419 21.1213,15.3562419 21.7342,15.3562419 C22.0798,15.3562419 22.5604,15.1762419 23.0554,14.5885419 L23.0554,15.2671419 L24.1984,15.2671419 L24.1984,9.11924194 L23.0554,9.11924194 Z M25.0381,21.5914419 C24.6349,21.5914419 24.5512,21.8749419 24.5512,22.2781419 L24.5512,22.8712419 L25.5133071,22.8712419 L25.5133,22.2772419 C25.5142,21.8812419 25.4305,21.5914419 25.0381,21.5914419 Z M20.8054,21.6274419 C20.7298,21.6661419 20.6551,21.7255419 20.5804,21.8056419 L20.5804,25.4551419 C20.6695,25.5505419 20.755,25.6189419 20.8387,25.6612419 C21.016,25.7512419 21.2752,25.7575419 21.3958,25.6009419 C21.4588,25.5181419 21.4903,25.3840419 21.4903,25.1968419 L21.4903,22.1737419 C21.4903,21.9757419 21.4516,21.8263419 21.3742,21.7237419 C21.2419,21.5500419 20.9962,21.5311419 20.8054,21.6274419 L20.8054,21.6274419 Z M25.1497,16.9519419 C22.8061,16.7926419 15.1903,16.7926419 12.8503,16.9519419 C10.3177,17.1247419 10.0189,18.6547419 10,22.6822419 C10.0189,26.7025419 10.315,28.2397419 12.8503,28.4125419 C15.1903,28.5718419 22.8061,28.5718419 25.1497,28.4125419 C27.6823,28.2397419 27.9811,26.7088419 28,22.6822419 C27.9811,18.6619419 27.685,17.1247419 25.1497,16.9519419 Z M14.0581,26.5693419 L12.8314,26.5693419 L12.8314,19.7833419 L11.5624,19.7833419 L11.5624,18.6313419 L15.3262,18.6313419 L15.3262,19.7833419 L14.0572,19.7833419 L14.0572,26.5693419 L14.0581,26.5693419 Z M18.4195,26.5693419 L17.3305,26.5693419 L17.3305,25.9231419 C17.1298,26.1616419 16.921,26.3434419 16.7041,26.4676419 C16.1173,26.8042419 15.3118,26.7961419 15.3118,25.6081419 L15.3118,20.7139419 L16.3999,20.7139419 L16.3999,25.2031419 C16.3999,25.4389419 16.4566,25.5973419 16.6897,25.5973419 C16.9021,25.5973419 17.1973,25.3246419 17.3296,25.1590419 L17.3296,20.7139419 L18.4186,20.7139419 L18.4186,26.5693419 L18.4195,26.5693419 Z M22.6108,25.3561419 C22.6108,26.0806419 22.3399,26.6440419 21.6154,26.6440419 C21.2167,26.6440419 20.8846,26.4982419 20.5813,26.1193419 L20.5813,26.5693419 L19.4824,26.5693419 L19.4824,18.6313419 L20.5813,18.6313419 L20.5813,21.1873419 C20.827,20.8876419 21.1609,20.6401419 21.5497,20.6401419 C22.3471,20.6401419 22.6117,21.3142419 22.6117,22.1080419 L22.6117,25.3561419 L22.6108,25.3561419 Z M26.6347,23.7793419 L24.5521,23.7793419 L24.5521,24.8845419 C24.5521,25.3237419 24.5899,25.7035419 25.0273,25.7035419 C25.4872,25.7035419 25.5142,25.3939419 25.5142,24.8845419 L25.5142,24.4777419 L26.6347,24.4777419 L26.6347,24.9178419 C26.6347,26.0455419 26.1505,26.7295419 25.003,26.7295419 C23.9635,26.7295419 23.4316,25.9717419 23.4316,24.9178419 L23.4316,22.2889419 C23.4316,21.2728419 24.103,20.5663419 25.0849,20.5663419 C26.1298,20.5663419 26.6338,21.2305419 26.6338,22.2889419 L26.6338,23.7793419 L26.6347,23.7793419 Z" id="Shape" fill="#E0DDE0"></path>
                    </g>
                </g>
            </g>
        </g>
    </g>
</svg>
