<svg width="24" height="24" viewBox="0 0 24 24" fill="none" xmlns="http://www.w3.org/2000/svg">
<g clip-path="url(#clip0_2340_946)">
<path d="M18.85 10.39L19.91 9.33C20.69 8.55 20.69 7.28 19.91 6.5L18.5 5.09C17.72 4.31 16.45 4.31 15.67 5.09L14.61 6.15L18.85 10.39ZM13.19 7.56L4.14 16.61C4.05 16.7 4 16.83 4 16.96V20.5C4 20.78 4.22 21 4.5 21H8.04C8.17 21 8.3 20.95 8.39 20.85L17.44 11.8L13.19 7.56ZM19 17.5C19 19.69 16.46 21 14 21C13.45 21 13 20.55 13 20C13 19.45 13.45 19 14 19C15.54 19 17 18.27 17 17.5C17 17.03 16.52 16.63 15.77 16.3L17.25 14.82C18.32 15.45 19 16.29 19 17.5ZM4.58 13.35C3.61 12.79 3 12.06 3 11C3 9.2 4.89 8.37 6.56 7.64C7.59 7.18 9 6.56 9 6C9 5.59 8.22 5 7 5C5.74 5 5.2 5.61 5.17 5.64C4.82 6.05 4.19 6.1 3.77 5.76C3.36 5.42 3.28 4.81 3.62 4.38C3.73 4.24 4.76 3 7 3C9.24 3 11 4.32 11 6C11 7.87 9.07 8.72 7.36 9.47C6.42 9.88 5 10.5 5 11C5 11.31 5.43 11.6 6.07 11.86L4.58 13.35Z" fill="black"/>
</g>
<defs>
<clipPath id="clip0_2340_946">
<rect width="24" height="24" fill="white"/>
</clipPath>
</defs>
</svg>
