<svg width="24" height="24" viewBox="0 0 24 24" fill="none" xmlns="http://www.w3.org/2000/svg">
<path d="M10.3668 17.3663L18.5918 9.14134L16.9585 7.50801L10.3668 14.0997L7.04183 10.7747L5.4085 12.408L10.3668 17.3663ZM12.0002 23.6663C10.3863 23.6663 8.86961 23.3601 7.45016 22.7476C6.03072 22.1351 4.796 21.3038 3.746 20.2538C2.696 19.2038 1.86475 17.9691 1.25225 16.5497C0.639746 15.1302 0.333496 13.6136 0.333496 11.9997C0.333496 10.3858 0.639746 8.86912 1.25225 7.44967C1.86475 6.03023 2.696 4.79551 3.746 3.74551C4.796 2.69551 6.03072 1.86426 7.45016 1.25176C8.86961 0.639258 10.3863 0.333008 12.0002 0.333008C13.6141 0.333008 15.1307 0.639258 16.5502 1.25176C17.9696 1.86426 19.2043 2.69551 20.2543 3.74551C21.3043 4.79551 22.1356 6.03023 22.7481 7.44967C23.3606 8.86912 23.6668 10.3858 23.6668 11.9997C23.6668 13.6136 23.3606 15.1302 22.7481 16.5497C22.1356 17.9691 21.3043 19.2038 20.2543 20.2538C19.2043 21.3038 17.9696 22.1351 16.5502 22.7476C15.1307 23.3601 13.6141 23.6663 12.0002 23.6663Z" fill="#348338"/>
</svg>
