<svg width="24" height="24" viewBox="0 0 24 24" fill="none" xmlns="http://www.w3.org/2000/svg">
<path d="M6.16683 13.7497C6.65294 13.7497 7.06613 13.5795 7.40641 13.2393C7.74669 12.899 7.91683 12.4858 7.91683 11.9997C7.91683 11.5136 7.74669 11.1004 7.40641 10.7601C7.06613 10.4198 6.65294 10.2497 6.16683 10.2497C5.68072 10.2497 5.26752 10.4198 4.92725 10.7601C4.58697 11.1004 4.41683 11.5136 4.41683 11.9997C4.41683 12.4858 4.58697 12.899 4.92725 13.2393C5.26752 13.5795 5.68072 13.7497 6.16683 13.7497ZM12.0002 13.7497C12.4863 13.7497 12.8995 13.5795 13.2397 13.2393C13.58 12.899 13.7502 12.4858 13.7502 11.9997C13.7502 11.5136 13.58 11.1004 13.2397 10.7601C12.8995 10.4198 12.4863 10.2497 12.0002 10.2497C11.5141 10.2497 11.1009 10.4198 10.7606 10.7601C10.4203 11.1004 10.2502 11.5136 10.2502 11.9997C10.2502 12.4858 10.4203 12.899 10.7606 13.2393C11.1009 13.5795 11.5141 13.7497 12.0002 13.7497ZM17.8335 13.7497C18.3196 13.7497 18.7328 13.5795 19.0731 13.2393C19.4134 12.899 19.5835 12.4858 19.5835 11.9997C19.5835 11.5136 19.4134 11.1004 19.0731 10.7601C18.7328 10.4198 18.3196 10.2497 17.8335 10.2497C17.3474 10.2497 16.9342 10.4198 16.5939 10.7601C16.2536 11.1004 16.0835 11.5136 16.0835 11.9997C16.0835 12.4858 16.2536 12.899 16.5939 13.2393C16.9342 13.5795 17.3474 13.7497 17.8335 13.7497ZM12.0002 23.6663C10.3863 23.6663 8.86961 23.3601 7.45016 22.7476C6.03072 22.1351 4.796 21.3038 3.746 20.2538C2.696 19.2038 1.86475 17.9691 1.25225 16.5497C0.639746 15.1302 0.333496 13.6136 0.333496 11.9997C0.333496 10.3858 0.639746 8.86912 1.25225 7.44967C1.86475 6.03023 2.696 4.79551 3.746 3.74551C4.796 2.69551 6.03072 1.86426 7.45016 1.25176C8.86961 0.639258 10.3863 0.333008 12.0002 0.333008C13.6141 0.333008 15.1307 0.639258 16.5502 1.25176C17.9696 1.86426 19.2043 2.69551 20.2543 3.74551C21.3043 4.79551 22.1356 6.03023 22.7481 7.44967C23.3606 8.86912 23.6668 10.3858 23.6668 11.9997C23.6668 13.6136 23.3606 15.1302 22.7481 16.5497C22.1356 17.9691 21.3043 19.2038 20.2543 20.2538C19.2043 21.3038 17.9696 22.1351 16.5502 22.7476C15.1307 23.3601 13.6141 23.6663 12.0002 23.6663Z" fill="#FE8E16"/>
</svg>
