<?xml version="1.0" encoding="utf-8"?>
<!-- Generator: Adobe Illustrator 24.1.3, SVG Export Plug-In . SVG Version: 6.00 Build 0)  -->
<svg version="1.1" id="Layer_1" xmlns="http://www.w3.org/2000/svg" xmlns:xlink="http://www.w3.org/1999/xlink" x="0px" y="0px"
	 viewBox="0 0 768 768" style="enable-background:new 0 0 768 768;" xml:space="preserve">
<style type="text/css">
	.st0{fill:none;stroke:#000000;stroke-width:35;stroke-linecap:round;stroke-miterlimit:10;}
	.st1{fill:#FFFFFF;stroke:#000000;stroke-width:35;stroke-linecap:round;stroke-miterlimit:10;}
</style>
<path class="st0" d="M751,730.8c0,10.8-8.9,19.7-19.7,19.7H96.1c-10.8,0-19.6-8.8-19.6-19.6V96.2c0-10.8,8.9-19.7,19.7-19.7
	L730.8,76c10.8,0,19.7,8.8,19.7,19.7L751,730.8z"/>
<path d="M81,84v132h663V84H81z M158.8,177.7c-15.3,0-27.7-12.4-27.7-27.7s12.4-27.7,27.7-27.7s27.7,12.4,27.7,27.7
	S174.1,177.7,158.8,177.7z M241.9,177.7c-15.3,0-27.7-12.4-27.7-27.7s12.4-27.7,27.7-27.7s27.7,12.4,27.7,27.7
	S257.2,177.7,241.9,177.7z M325.1,177.7c-15.3,0-27.7-12.4-27.7-27.7s12.4-27.7,27.7-27.7s27.7,12.4,27.7,27.7
	S340.4,177.7,325.1,177.7z"/>
<rect x="390.3" y="288.3" transform="matrix(6.123234e-17 -1 1 6.123234e-17 -61.1462 922.6057)" width="80.9" height="407.1"/>
<path class="st1" d="M672.9,653.4c0,10.5-8.6,19.1-19.1,19.1H36.6c-10.5,0-19.1-8.6-19.1-19.1V36.6c0-10.5,8.6-19.1,19.1-19.1
	l616.8-0.4c10.5,0,19.1,8.6,19.1,19.1L672.9,653.4z"/>
<path d="M22,25v103h663V25H22z M99.8,96.7c-15.3,0-27.7-12.4-27.7-27.7s12.4-27.7,27.7-27.7s27.7,12.4,27.7,27.7
	S115.1,96.7,99.8,96.7z M182.9,96.7c-15.3,0-27.7-12.4-27.7-27.7s12.4-27.7,27.7-27.7s27.7,12.4,27.7,27.7S198.2,96.7,182.9,96.7z
	 M266.1,96.7c-15.3,0-27.7-12.4-27.7-27.7s12.4-27.7,27.7-27.7s27.7,12.4,27.7,27.7S281.4,96.7,266.1,96.7z"/>
<rect x="304" y="186" transform="matrix(6.123234e-17 -1 1 6.123234e-17 -45 734)" width="81" height="407"/>
<rect x="304" y="187" width="81" height="407"/>
</svg>
