<svg width="24" height="24" viewBox="0 0 24 24" fill="none" xmlns="http://www.w3.org/2000/svg">
<path d="M11.9417 19.0002C12.35 19.0002 12.6951 18.8592 12.9771 18.5772C13.259 18.2953 13.4 17.9502 13.4 17.5418C13.4 17.1335 13.259 16.7884 12.9771 16.5064C12.6951 16.2245 12.35 16.0835 11.9417 16.0835C11.5333 16.0835 11.1882 16.2245 10.9062 16.5064C10.6243 16.7884 10.4833 17.1335 10.4833 17.5418C10.4833 17.9502 10.6243 18.2953 10.9062 18.5772C11.1882 18.8592 11.5333 19.0002 11.9417 19.0002ZM10.8917 14.5085H13.05C13.05 13.8668 13.1229 13.3613 13.2687 12.9918C13.4146 12.6224 13.8278 12.1168 14.5083 11.4752C15.0139 10.9696 15.4125 10.4884 15.7042 10.0314C15.9958 9.57447 16.1417 9.02516 16.1417 8.3835C16.1417 7.29461 15.7431 6.4585 14.9458 5.87516C14.1486 5.29183 13.2056 5.00016 12.1167 5.00016C11.0083 5.00016 10.109 5.29183 9.41875 5.87516C8.72847 6.4585 8.24722 7.1585 7.975 7.97516L9.89999 8.7335C9.99722 8.3835 10.216 8.00433 10.5562 7.596C10.8965 7.18766 11.4167 6.9835 12.1167 6.9835C12.7389 6.9835 13.2056 7.15364 13.5167 7.49391C13.8278 7.83419 13.9833 8.2085 13.9833 8.61683C13.9833 9.00572 13.8667 9.3703 13.6333 9.71058C13.4 10.0509 13.1083 10.3668 12.7583 10.6585C11.9028 11.4168 11.3778 11.9904 11.1833 12.3793C10.9889 12.7682 10.8917 13.4779 10.8917 14.5085ZM12 23.6668C10.3861 23.6668 8.86944 23.3606 7.45 22.7481C6.03055 22.1356 4.79583 21.3043 3.74583 20.2543C2.69583 19.2043 1.86458 17.9696 1.25208 16.5502C0.639578 15.1307 0.333328 13.6141 0.333328 12.0002C0.333328 10.3863 0.639578 8.86961 1.25208 7.45016C1.86458 6.03072 2.69583 4.796 3.74583 3.746C4.79583 2.696 6.03055 1.86475 7.45 1.25225C8.86944 0.639746 10.3861 0.333496 12 0.333496C13.6139 0.333496 15.1306 0.639746 16.55 1.25225C17.9694 1.86475 19.2042 2.696 20.2542 3.746C21.3042 4.796 22.1354 6.03072 22.7479 7.45016C23.3604 8.86961 23.6667 10.3863 23.6667 12.0002C23.6667 13.6141 23.3604 15.1307 22.7479 16.5502C22.1354 17.9696 21.3042 19.2043 20.2542 20.2543C19.2042 21.3043 17.9694 22.1356 16.55 22.7481C15.1306 23.3606 13.6139 23.6668 12 23.6668Z" fill="#333333"/>
</svg>
