<?xml version="1.0" encoding="UTF-8"?>
<svg xmlns="http://www.w3.org/2000/svg" viewBox="497.7 360.3 515.9 595.4">
   <path stroke="#000" stroke-miterlimit="10" d="M1013.2 806.7L755.9 955.1 498.2 806.7V509.3l257.7-148.4 257.3 148.4z" />
   <path fill="#fff" d="M795.1 707.1c-11.6 0-22.7 3.4-31.9 9.2L728.9 682c2.9-7.3 4.8-15 4.8-23.7 0-8.2-1.9-16.4-4.8-23.7l34.8-34.8c9.2 5.8 20.3 9.2 31.9 9.2a61.76 61.76 0 1 0 0-123.8 61.76 61.76 0 0 0-61.9 61.9c0 9.2 1.9 18.4 5.8 26.1l-33.4 33.4c-9.7-6.3-21.8-10.2-34.3-10.2a61.76 61.76 0 1 0 0 123.8c12.6 0 24.7-3.9 34.3-10.2l33.4 33.4c-3.9 7.7-5.8 16.4-5.8 26.1a61.76 61.76 0 1 0 123.8 0c-.5-34.4-28.1-62.4-62.4-62.4z" />
</svg>