<svg width="20" height="20" viewBox="0 0 20 20" fill="none" xmlns="http://www.w3.org/2000/svg">
<path d="M3.77765 12.5085L2.82659 12.8176" stroke="#23272C" stroke-width="2" stroke-linecap="round"/>
<path d="M6.13892 5.24146L5.55113 4.43244" stroke="#23272C" stroke-width="2" stroke-linecap="round"/>
<path d="M13.7801 5.24146L14.3679 4.43244" stroke="#23272C" stroke-width="2" stroke-linecap="round"/>
<path d="M16.1414 12.5085L17.0924 12.8176" stroke="#23272C" stroke-width="2" stroke-linecap="round"/>
<path d="M9.9595 17.2V18.2" stroke="#23272C" stroke-width="2" stroke-linecap="round"/>
<path d="M10.0017 14.384L6.58505 16.4256C6.43227 16.509 6.28296 16.5437 6.13713 16.5298C5.9913 16.5159 5.86282 16.4673 5.75171 16.384C5.6406 16.3006 5.55727 16.186 5.50171 16.0402C5.44616 15.8944 5.43921 15.7451 5.48088 15.5923L6.37671 11.7798L3.35588 9.21729C3.23088 9.10617 3.15449 8.9777 3.12671 8.83187C3.09894 8.68604 3.10588 8.54367 3.14755 8.40479C3.18921 8.2659 3.2656 8.15131 3.37671 8.06104C3.48782 7.97076 3.62671 7.91867 3.79338 7.90479L7.75171 7.55062L9.31421 3.92562C9.38366 3.77284 9.48088 3.65826 9.60588 3.58187C9.73088 3.50548 9.86282 3.46729 10.0017 3.46729C10.1406 3.46729 10.2725 3.50548 10.3975 3.58187C10.5225 3.65826 10.6198 3.77284 10.6892 3.92562L12.2517 7.57145L16.21 7.90479C16.3767 7.91867 16.5156 7.97423 16.6267 8.07145C16.7378 8.16867 16.8142 8.28673 16.8559 8.42562C16.8975 8.56451 16.901 8.7034 16.8663 8.84229C16.8316 8.98117 16.7517 9.10617 16.6267 9.21729L13.6267 11.7798L14.5225 15.5923C14.5642 15.7451 14.5573 15.8944 14.5017 16.0402C14.4462 16.186 14.3628 16.3006 14.2517 16.384C14.1406 16.4673 14.0121 16.5159 13.8663 16.5298C13.7205 16.5437 13.5712 16.509 13.4184 16.4256L10.0017 14.384Z" fill="#23272C"/>
</svg>
