<svg width="16" height="16" viewBox="0 0 16 16" fill="none" xmlns="http://www.w3.org/2000/svg">
    <path d="M5.225 11.75L7.89167 10.1667L10.5792 11.75L9.87083 8.75L12.1833 6.77083L9.12083 6.5L7.89167 3.64583L6.6625 6.5L3.6 6.77083L5.93333 8.75L5.225 11.75ZM7.89167 11.9167L4.475 13.9583C4.32222 14.0417 4.17292 14.0764 4.02708 14.0625C3.88125 14.0486 3.75278 14 3.64167 13.9167C3.53056 13.8333 3.44722 13.7188 3.39167 13.5729C3.33611 13.4271 3.32917 13.2778 3.37083 13.125L4.26667 9.3125L1.24583 6.75C1.12083 6.63889 1.04444 6.51042 1.01667 6.36458C0.988889 6.21875 0.995833 6.07639 1.0375 5.9375C1.07917 5.79861 1.15556 5.68403 1.26667 5.59375C1.37778 5.50347 1.51667 5.45139 1.68333 5.4375L5.64167 5.08333L7.20417 1.45833C7.27361 1.30556 7.37083 1.19097 7.49583 1.11458C7.62083 1.03819 7.75278 1 7.89167 1C8.03056 1 8.1625 1.03819 8.2875 1.11458C8.4125 1.19097 8.50972 1.30556 8.57917 1.45833L10.1417 5.10417L14.1 5.4375C14.2667 5.45139 14.4056 5.50694 14.5167 5.60417C14.6278 5.70139 14.7042 5.81944 14.7458 5.95833C14.7875 6.09722 14.791 6.23611 14.7563 6.375C14.7215 6.51389 14.6417 6.63889 14.5167 6.75L11.5167 9.3125L12.4125 13.125C12.4542 13.2778 12.4472 13.4271 12.3917 13.5729C12.3361 13.7188 12.2528 13.8333 12.1417 13.9167C12.0306 14 11.9021 14.0486 11.7563 14.0625C11.6104 14.0764 11.4611 14.0417 11.3083 13.9583L7.89167 11.9167Z" fill="#23272C"/>
</svg>
