<?xml version="1.0" encoding="UTF-8"?><svg id="a" xmlns="http://www.w3.org/2000/svg" width="512" height="512" viewBox="0 0 512 512"><defs><style>.b{fill:#ff326a;}.c{fill:#feb62e;}.d{fill:#6ba3b6;}.e{fill:#c40e50;}.f{fill:#e09220;}.g{stroke:#0f6579;stroke-width:17px;}.g,.h{fill:#e6e6e6;stroke-miterlimit:10;}.h{stroke:#6ba3b6;stroke-linecap:round;stroke-width:14px;}</style></defs><rect class="g" x="127.5" y="96.4" width="257" height="319.1" rx="16.6" ry="16.6"/><rect class="c" x="198.4" y="73.4" width="115.2" height="39.5" rx="10.9" ry="10.9"/><rect class="c" x="219.7" y="59.7" width="72.6" height="19.8" rx="6.1" ry="6.1"/><line class="h" x1="177.1" y1="168.1" x2="333.6" y2="168.1"/><line class="h" x1="177.1" y1="215" x2="333.6" y2="215"/><line class="h" x1="177.1" y1="261.8" x2="333.6" y2="261.8"/><line class="h" x1="177.1" y1="308.7" x2="333.6" y2="308.7"/><line class="h" x1="177.1" y1="355.5" x2="258.6" y2="355.5"/><g><path class="b" d="M346.1,135.8h33.2c6.2,0,11.3,5.1,11.3,11.3v193.2h-55.9V147.1c0-6.2,5.1-11.3,11.3-11.3Z" transform="translate(226 -173.7) rotate(38.4)"/><path class="e" d="M369.5,147.8h7.3c5.3,0,9.6,4.3,9.6,9.6v194.9h-16.9V147.8h0Z" transform="translate(236.8 -180.6) rotate(38.4)"/><path class="c" d="M321.2,335.5l-46.7,19.5c-2.8,1.2-5.8-1.2-5.3-4.2l8.2-49.9,43.8,34.7Z"/><path class="f" d="M307.9,325.1l-37.1,15.5-1.7,10.2c-.5,3,2.5,5.4,5.3,4.2l46.7-19.5-13.3-10.5Z"/><path class="d" d="M271.1,340.5h-.2l-1.7,10.3c-.5,3,2.5,5.4,5.3,4.2l9.8-4.1-13.2-10.5Z"/></g></svg>