<?xml version="1.0" encoding="utf-8"?>
<svg viewBox="0 0 128 147.8" xmlns="http://www.w3.org/2000/svg">
  <path fill="#448525" d="M 64.007 0 L 128.005 36.955 L 128 110.856 L 63.997 147.802 L 0 110.848 L 0.005 36.947 L 64.007 0 Z"/>
  <g>
    <path d="M 62.06 104.648 C 59.566 104.648 57.806 104.951 56.779 105.557 C 55.752 106.162 55.239 107.245 55.239 108.804 L 55.239 115.817 C 55.239 117.375 55.752 118.457 56.779 119.063 C 57.806 119.669 59.566 119.972 62.06 119.972 L 66.9 119.972 C 69.393 119.972 71.191 119.669 72.291 119.063 C 73.391 118.457 73.941 117.375 73.941 115.817 L 73.941 108.804 C 73.941 107.245 73.391 106.162 72.291 105.557 C 71.191 104.951 69.393 104.648 66.9 104.648 L 62.06 104.648 Z" style="fill: rgb(255, 255, 255);"/>
    <path d="M 55.019 29.715 L 55.019 69.455 L 56.999 92.571 L 71.96 92.571 L 73.721 69.455 L 73.721 29.715 L 55.019 29.715 Z" style="fill: rgb(255, 255, 255);"/>
  </g>
</svg>