<svg id="eMrQzcNGEKx1" xmlns="http://www.w3.org/2000/svg" xmlns:xlink="http://www.w3.org/1999/xlink" viewBox="110.1 0 310.4 322.2" shape-rendering="geometricPrecision" text-rendering="geometricPrecision"><style><![CDATA[#eMrQzcNGEKx3_to {animation: eMrQzcNGEKx3_to__to 3300ms linear infinite normal forwards}@keyframes eMrQzcNGEKx3_to__to { 0% {offset-distance: 0%} 48.484848% {offset-distance: 0%;animation-timing-function: step-end} 51.515152% {offset-distance: 5.138428%;animation-timing-function: cubic-bezier(0.545,0,0.49,1)} 60.606061% {offset-distance: 21.124265%;animation-timing-function: cubic-bezier(0.545,0,0.49,1)} 69.69697% {offset-distance: 39.627068%;animation-timing-function: cubic-bezier(0.545,0,0.49,1)} 78.787879% {offset-distance: 57.306343%;animation-timing-function: cubic-bezier(0.545,0,0.49,1)} 87.878788% {offset-distance: 78.493617%;animation-timing-function: cubic-bezier(0.545,0,0.49,1)} 96.969697% {offset-distance: 100%} 100% {offset-distance: 100%}} #eMrQzcNGEKx3_tr {animation: eMrQzcNGEKx3_tr__tr 3300ms linear infinite normal forwards}@keyframes eMrQzcNGEKx3_tr__tr { 0% {transform: rotate(-88.67768deg)} 16.666667% {transform: rotate(-88.67768deg);animation-timing-function: cubic-bezier(0.61,-0.02,0.425,1.355)} 39.393939% {transform: rotate(0deg)} 54.545455% {transform: rotate(0deg);animation-timing-function: cubic-bezier(0.545,0,0.49,1)} 63.636364% {transform: rotate(-81.094582deg);animation-timing-function: cubic-bezier(0.545,0,0.49,1)} 72.727273% {transform: rotate(-5.634594deg)} 81.818182% {transform: rotate(-84.447597deg)} 90.909091% {transform: rotate(-24.451215deg)} 96.363636% {transform: rotate(-16.926079deg)} 100% {transform: rotate(-16.926079deg)}} #eMrQzcNGEKx3_ts {animation: eMrQzcNGEKx3_ts__ts 3300ms linear infinite normal forwards}@keyframes eMrQzcNGEKx3_ts__ts { 0% {transform: scale(-0.004783,-0.004783)} 15.151515% {transform: scale(-0.004783,-0.004783)} 39.393939% {transform: scale(1,1)} 100% {transform: scale(1,1)}} #eMrQzcNGEKx3 {animation: eMrQzcNGEKx3__tt 3300ms linear infinite normal forwards}@keyframes eMrQzcNGEKx3__tt { 0% {transform: translate(-256.3px,-75.5px)} 48.484848% {transform: translate(-256.3px,-75.5px);animation-timing-function: step-end} 51.515152% {transform: translate(-224.166943px,-59.082854px)} 100% {transform: translate(-224.166943px,-59.082854px)}} #eMrQzcNGEKx4_to {animation: eMrQzcNGEKx4_to__to 3300ms linear infinite normal forwards}@keyframes eMrQzcNGEKx4_to__to { 0% {transform: translate(264.3px,79.905327px)} 3.030303% {transform: translate(264.3px,79.905327px)} 45.454545% {transform: translate(264.9px,78.149982px);animation-timing-function: cubic-bezier(0.63,-0.37,0.495,1)} 72.727273% {transform: translate(264.9px,400px)} 100% {transform: translate(264.9px,400px)}} #eMrQzcNGEKx4_tr {animation: eMrQzcNGEKx4_tr__tr 3300ms linear infinite normal forwards}@keyframes eMrQzcNGEKx4_tr__tr { 0% {transform: rotate(13.259932deg)} 3.030303% {transform: rotate(13.259932deg);animation-timing-function: cubic-bezier(0,0,0.58,1)} 12.121212% {transform: rotate(-20.362791deg);animation-timing-function: cubic-bezier(0,0,0.58,1)} 18.181818% {transform: rotate(3.730131deg);animation-timing-function: cubic-bezier(0,0,0.58,1)} 24.242424% {transform: rotate(-3.359139deg);animation-timing-function: cubic-bezier(0,0,0.58,1)} 30.30303% {transform: rotate(0deg)} 100% {transform: rotate(0deg)}} #eMrQzcNGEKx4_ts {animation: eMrQzcNGEKx4_ts__ts 3300ms linear infinite normal forwards}@keyframes eMrQzcNGEKx4_ts__ts { 0% {transform: scale(0,0)} 3.030303% {transform: scale(0,0);animation-timing-function: cubic-bezier(0.61,-0.02,0.425,1.355)} 36.363636% {transform: scale(1,1)} 100% {transform: scale(1,1)}}]]></style><path id="eMrQzcNGEKx2" d="M264.9,75.5C265.3,73.2,265.3,47.3,288.3,28.2C288.3,28.2,303.3,15.6,304.1,28.2C304.9,40.8,302.4,33.1,288.4,44.4C274.4,55.7,270.6,75.5,270.6,75.5L264.9,75.5Z" fill="rgb(16,12,8)" stroke="none" stroke-width="1"/><g id="eMrQzcNGEKx3_to" style="offset-path:path('M256.3,75.5Q280.195456,81.753274,224.166943,59.082854C248.062399,65.336128,312.824916,130.764398,368.202546,98.59967Q321.632275,206.064725,223.326946,161.659762C224.897709,169.700367,253.136978,275.277831,355.833812,221.524729C362.740014,246.561191,280.96646,347.398111,192.703214,299.166152Q313.281087,433.513345,365.787551,379.437083');offset-rotate:0deg"><g id="eMrQzcNGEKx3_tr" transform="rotate(-88.67768)"><g id="eMrQzcNGEKx3_ts" transform="scale(-0.004783,-0.004783)"><path id="eMrQzcNGEKx3" d="M256.3,75C236.6,14.4,206.8,24.3,193.5,28.1C180.2,31.9,178.1,30.2,178.1,30.2C198.7,96.6,251.9,77.3,251.9,77.3C251.9,77.3,222.7,75.6,206,46.6L256.3,75Z" transform="translate(-256.3,-75.5)" fill="rgb(78,153,52)" stroke="none" stroke-width="1"/></g></g></g><g id="eMrQzcNGEKx4_to" transform="translate(264.3,79.905327)"><g id="eMrQzcNGEKx4_tr" transform="rotate(13.259932)"><g id="eMrQzcNGEKx4_ts" transform="scale(0,0)"><g id="eMrQzcNGEKx4" transform="translate(-264.3,-79.905327)"><polygon id="eMrQzcNGEKx5" points="357.1,240.3 264.7,293.7 172.2,240.3 172.2,133.7 264.5,80.3 357.1,133.5" transform="matrix(1 0 0 1 0 -2.150018)" fill="rgb(78,153,52)" stroke="none" stroke-width="1"/><g id="eMrQzcNGEKx6" transform="matrix(1 0 0 1 0.000006 -0.000018)"><path id="eMrQzcNGEKx7" d="M198.4,153.1C198.5,156.5,196.5,158.8,193,158.8C190.2,158.8,188,156.5,188,153.1C188,149.7,190.3,147.4,193.2,147.4C196.2,147.4,198.4,149.7,198.4,153.1ZM188.9,222.3L188.9,167.3L197.7,167.3L197.7,222.3L188.9,222.3Z" fill="rgb(255,255,255)" stroke="none" stroke-width="1"/><path id="eMrQzcNGEKx8" d="M205.6,213.3C207.5,214.5,211,216.1,214.5,216.1C219.5,216.1,222.6,213.1,222.6,208.2C222.6,203.9,221.1,201.1,215.5,197.5C208.3,192.9,204.4,188.3,204.4,181.8C204.4,172.9,211.1,166.5,219.5,166.5C223.9,166.5,227,168,229.4,169.3L227,176C225.1,174.7,222.6,173.6,219.7,173.6C215,173.6,212.5,177,212.5,180.5C212.5,184.3,213.8,186.3,219.3,190.1C225.6,194.2,230.7,199.1,230.7,206.9C230.7,218,223.3,223.2,214.3,223.2C210.2,223.2,205.8,222,203.5,220L205.6,213.3Z" fill="rgb(255,255,255)" stroke="none" stroke-width="1"/><path id="eMrQzcNGEKx9" d="M260.3,222.3L259.8,216.5L259.4,216.5C257,220.8,253.2,223.2,248.5,223.2C241.1,223.2,235.5,217,235.5,207.5C235.5,193.6,246.6,187.6,258.9,187.4L258.9,185.7C258.9,178.3,257.1,173.2,250.1,173.2C246.7,173.2,243.7,174.4,241.1,176L239.2,169.9C241.5,168.2,246.6,166.4,252.1,166.4C263.2,166.4,267.9,173.7,267.9,186.1L267.9,209.8C267.9,214.1,267.9,218.8,268.4,222.3L260.3,222.3ZM259.2,193.9C254.7,193.9,244.1,194.8,244.1,206.7C244.1,213.9,247.6,216.6,250.9,216.6C254.8,216.6,258.1,213.8,259.2,208.3C259.4,207.2,259.4,206.2,259.4,205.3L259.4,194L259.2,194L259.2,193.9Z" fill="rgb(255,255,255)" stroke="none" stroke-width="1"/><path id="eMrQzcNGEKx10" d="M298.8,222.3L298.3,216.5L298,216.5C295.6,220.8,291.8,223.2,287.1,223.2C279.7,223.2,274.1,217,274.1,207.5C274.1,193.6,285.2,187.6,297.5,187.4L297.5,185.7C297.5,178.3,295.7,173.2,288.7,173.2C285.3,173.2,282.3,174.4,279.7,176L277.8,169.9C280.1,168.2,285.2,166.4,290.7,166.4C301.8,166.4,306.5,173.7,306.5,186.1L306.5,209.8C306.5,214.1,306.5,218.8,307,222.3L298.8,222.3ZM297.6,193.9C293.1,193.9,282.5,194.8,282.5,206.7C282.5,213.9,286,216.6,289.3,216.6C293.2,216.6,296.5,213.8,297.6,208.3C297.8,207.2,297.8,206.2,297.8,205.3L297.8,194L297.6,194L297.6,193.9Z" fill="rgb(255,255,255)" stroke="none" stroke-width="1"/><path id="eMrQzcNGEKx11" d="M342.5,221C340.6,222.2,337.3,222.9,333.5,222.9C321.5,222.9,313.3,213.2,313.3,195C313.3,179.2,321.2,166.3,335.1,166.3C338,166.3,341.2,167.2,342.8,168L341.1,175.2C339.9,174.7,337.7,173.7,334.9,173.7C326.1,173.7,322.1,184.2,322.1,195C322.1,207.9,327,215.6,335.1,215.6C337.5,215.6,339.5,215.1,341.4,214.1L342.5,221Z" fill="rgb(255,255,255)" stroke="none" stroke-width="1"/></g></g></g></g></g></svg>