<?xml version="1.0" encoding="UTF-8" standalone="no"?>
<svg xmlns="http://www.w3.org/2000/svg" version="1.1">
  <view id="teacher-hat" viewBox="0 0 64 64" />
  <view id="groups" viewBox="64 0 64 64" />
  <view id="question" viewBox="128 0 64 64" />
  <view id="triple" viewBox="0 64 64 64" />
  <view id="lightning" viewBox="64 64 64 64" />
  <view id="skills-book-cover" viewBox="128 64 64 64" />
  <filter
     id="greyscale">
    <feColorMatrix
       type="matrix"
       values="0.3333 0.3333 0.3333 0 0 0.3333 0.3333 0.3333 0 0 0.3333 0.3333 0.3333 0 0 0 0 0 1 0"
       id="feColorMatrix2" />
  </filter>
  <g transform="translate(-2.510894,-0.36220095)">
    <path
       style="fill:none;fill-opacity:1;stroke:none;stroke-width:0.10734707;stroke-linecap:square;stroke-linejoin:miter;stroke-miterlimit:4;stroke-dasharray:none;stroke-dashoffset:3.49999976"
       d="m 130.34988,0.41587448 h 63.89266 V 64.308529 h -63.89266 z" />
    <path
       style="fill:none;fill-opacity:1;stroke:none;stroke-width:0.10734707;stroke-linecap:square;stroke-linejoin:miter;stroke-miterlimit:4;stroke-dasharray:none;stroke-dashoffset:3.49999976"
       d="m 130.34988,64.308525 h 63.89266 v 63.892655 h -63.89266 z" />
  </g>
  <g>
    <path
       d="M 2.5645707,0.41588011 H 66.457225 V 64.308535 H 2.5645707 Z"
       style="fill:none;fill-opacity:1;stroke:none;stroke-width:0.10734707;stroke-linecap:square;stroke-linejoin:miter;stroke-miterlimit:4;stroke-dasharray:none;stroke-dashoffset:3.49999976"
       transform="translate(-2.510894,-0.36220095)" />
    <path
       d="M 66.457222,0.41588011 H 130.34988 V 64.308535 H 66.457222 Z"
       style="fill:none;fill-opacity:1;stroke:none;stroke-width:0.10734707;stroke-linecap:square;stroke-linejoin:miter;stroke-miterlimit:4;stroke-dasharray:none;stroke-dashoffset:3.49999976"
       transform="translate(-2.510894,-0.36220095)" />
    <path
       d="M 2.5645676,64.308533 H 66.457222 V 128.20119 H 2.5645676 Z"
       style="fill:none;fill-opacity:1;stroke:none;stroke-width:0.10734707;stroke-linecap:square;stroke-linejoin:miter;stroke-miterlimit:4;stroke-dasharray:none;stroke-dashoffset:3.49999976"
       transform="translate(-2.510894,-0.36220095)" />
    <path
       d="M 66.457222,64.308533 H 130.34988 V 128.20119 H 66.457222 Z"
       style="fill:none;fill-opacity:1;stroke:none;stroke-width:0.10734707;stroke-linecap:square;stroke-linejoin:miter;stroke-miterlimit:4;stroke-dasharray:none;stroke-dashoffset:3.49999976"
       transform="translate(-2.510894,-0.36220095)" />
    <path
       style="fill:#509e2e"
       d="m 15.850228,34.277537 v 8.903077 c 0,0 8.488981,-3.519821 16.149768,-3.519821 7.660798,0 16.356837,3.519821 16.356837,3.519821 v -9.110125 c 0,0 -8.281943,-4.348014 -16.356837,-4.348014 -8.281932,0 -16.149768,4.555062 -16.149768,4.555062 z m 41.616731,-2.277531 3.312772,-1.656387 -3.312772,-1.863434 v -0.828193 c 0,0 1.035241,-4.555063 -4.140977,-2.277542 -0.414086,0.207058 -0.414086,0.414096 -0.621135,0.414096 L 31.378862,13.986793 3.2202707,30.136571 13.986783,34.898682 v -1.449338 c 0,0 8.903088,-5.176218 18.013213,-5.176218 9.110136,0 18.220261,4.96917 18.220261,4.96917 v 2.691628 L 56.01762,32.82821 c 0,3.726859 0,11.387646 0,12.836995 h -1.863434 v 4.348014 l 2.691628,-1.656386 2.898676,1.656386 V 45.665205 H 57.466959 Z M 56.01762,26.823798 c 0,0.207049 0,0.414097 0,0.828194 l -1.656386,-0.828194 c 0.621145,-0.414096 1.656386,-1.035252 1.656386,0 z m -0.414096,4.96916 c -0.828193,0 -1.449338,-0.621145 -1.449338,-1.24229 0,-0.828193 0.621145,-1.449338 1.449338,-1.449338 0.621145,0 1.24229,0.621145 1.24229,1.449338 0,0.621145 -0.621145,1.24229 -1.24229,1.24229 z" />
    <g
       style="fill:#509e2e;stroke:none"
       transform="matrix(0.07440443,0,0,0.07440443,69.83726,58.13616)">
      <path
         style="fill:#509e2e;stroke:none"
         d="m 180.91644,-338.55561 c -16.9728,-4.84811 -31.09417,-13.20131 -43.83027,-25.92685 -20.19354,-20.17679 -29.12053,-42.14376 -29.14421,-71.71629 -0.0158,-19.67739 2.21128,-28.99911 10.99722,-46.03109 11.50536,-22.30371 32.20259,-39.45936 58.47209,-48.4667 9.68986,-3.32248 12.92431,-3.74791 28.67034,-3.77103 13.31089,-0.0195 19.74479,0.59022 25.73364,2.43884 62.19971,19.1997 90.90829,84.64907 62.39567,142.24863 -12.53114,25.31468 -35.93358,44.13273 -63.72299,51.24007 -13.89324,3.55329 -37.10274,3.546 -49.57149,-0.0156 l 0,-2e-5 z"
         transform="translate(150.10001,0)" />
      <path
         style="fill:#509e2e;stroke:none"
         d="m 8.840967,-443.01867 c -32.88763,-7.46758 -57.352449,-26.72276 -71.12809,-55.98177 -22.864602,-48.56367 -2.331591,-107.52312 45.650404,-131.0827 16.34645441,-8.02625 26.980192,-10.60681 43.870018,-10.6462 16.449983,-0.0384 27.297237,2.50709 42.322883,9.93164 20.312062,10.03671 36.351468,25.85757 45.968088,45.34178 6.72737,13.6303 9.32258,22.90765 10.26224,36.6855 l 0.79567,11.66646 -9.40239,10.17761 c -20.594372,22.29232 -28.110903,36.41464 -36.840434,69.21704 -0.752992,2.8295 -8.378757,6.71182 -22.217371,11.311 -15.957969,5.30352 -35.043761,6.6124 -49.281018,3.37964 z"
         transform="translate(150.10001,0)" />
      <path
         style="fill:#509e2e;stroke:none"
         d="m -13.041703,-168.89118 c -34.46236,-3.80752 -94.768247,-16.44725 -126.820187,-26.5807 l -4.62994,-1.46378 0.74432,-60.92561 c 0.81072,-66.35998 1.08768,-69.03407 9.37602,-90.52646 2.24001,-5.80854 7.17744,-15.34777 10.97207,-21.19829 9.25233,-14.26514 29.097348,-33.50081 42.983875,-41.66402 12.057025,-7.08774 36.475455,-15.88543 46.59059,-16.78606 3.546446,-0.31577 30.1992609,-0.88319 59.228472,-1.26093 l 52.780389,-0.6868 0.893819,7.13195 c 3.044503,24.29281 12.594143,47.82563 27.148385,66.9007 l 8.61739,11.29412 -9.68775,3.67326 c -37.297808,14.14204 -72.66255,49.2437 -86.956803,86.30992 -8.3095247,21.54736 -9.650614,29.16324 -10.4071014,59.1012 l -0.698587,27.6464 -7.67828569,-0.21849 c -4.22305921,-0.12017 -9.82856091,-0.45607 -12.45667591,-0.74641 z"
         transform="translate(150.10001,0)" />
      <path
         style="fill:#509e2e;stroke:none"
         d="m 183.55491,-62.23154 c -2.62811,-0.299059 -11.53639,-1.215199 -19.79618,-2.035853 C 130.03748,-67.617837 58.392276,-82.305624 40.132759,-89.611646 l -5.390562,-2.15687 0.03982,-47.294344 c 0.0483,-57.36042 1.332459,-77.20587 6.044708,-93.41515 11.993558,-41.25567 41.814131,-72.20081 83.469635,-86.61737 l 14.88779,-5.15251 66.21483,0 c 65.61781,0 66.31331,0.0291 77.13687,3.22668 36.51736,10.78827 64.69207,34.449 80.69503,67.76654 11.29982,23.52581 11.57638,25.68126 12.44579,97.00102 l 0.76638,62.86967 -8.04384,3.589294 c -26.39788,11.779141 -55.26673,19.417507 -94.73751,25.066451 -13.59287,1.945365 -79.02017,3.758231 -90.10679,2.496695 z"
         transform="translate(150.10001,0)" />
      <path
         style="fill:#509e2e;stroke:none"
         d="m 404.72611,-191.69813 c 0,-14.87394 -0.72603,-27.56646 -1.93967,-33.90961 -4.23009,-22.10868 -14.9533,-46.5831 -27.99532,-63.89591 -15.71023,-20.85476 -42.39914,-41.69582 -64.78034,-50.58621 -6.10053,-2.42329 -11.32327,-4.58692 -11.60608,-4.80807 -0.28281,-0.22115 1.93915,-3.34492 4.93769,-6.94171 16.58929,-19.89904 27.30072,-44.93256 29.91075,-69.90392 l 0.85491,-8.1794 49.30289,0.69066 c 54.11707,0.7581 61.14203,1.43342 77.86792,7.48556 38.27957,13.85117 69.5789,48.41095 80.30258,88.66772 2.98069,11.18954 3.07988,13.55264 3.08153,73.42507 l 10e-4,61.86343 -10.72412,4.73152 c -28.93359,12.76576 -87.96099,25.13272 -119.95787,25.13272 l -9.25623,0 0,-23.77185 z"
         transform="translate(150.10001,0)" />
      <path
         style="fill:#509e2e;stroke:none"
         d="m 353.52907,-443.23606 c -5.25623,-1.11997 -12.09298,-3.15249 -15.19278,-4.51674 -5.48375,-2.41343 -5.67908,-2.72782 -7.23092,-11.63917 -4.95222,-28.43776 -22.76067,-57.72337 -45.90091,-75.4831 l -10.18071,-7.81351 0.7564,-6.82627 c 3.82924,-34.5577 25.87737,-65.61901 57.11489,-80.4632 15.24804,-7.24593 26.61531,-9.41131 45.49138,-8.66578 12.75684,0.50384 18.36839,1.40614 27.02232,4.34499 30.23347,10.2672 52.67272,32.70645 62.93991,62.93992 2.92797,8.62186 3.84168,14.27494 4.3386,26.8428 0.79607,20.13362 -1.71599,32.21256 -10.24078,49.24165 -5.06787,10.12358 -8.41574,14.60444 -18.04238,24.14822 -6.50094,6.445 -15.27134,13.75835 -19.48977,16.2519 -20.358,12.03371 -48.21479,16.57535 -71.38525,11.63829 z"
         transform="translate(150.10001,0)" />
    </g>
    <g
       transform="matrix(0.16276335,0,0,0.16276335,-11.950698,70.840382)">
      <g
         transform="matrix(0.90975742,0,0,0.90975742,1367.0334,-201.15539)">
        <path
           style="fill:#509e2e;stroke-width:6.14388943;stroke-miterlimit:4;stroke-dasharray:none;stroke-dashoffset:0"
           d="m -236.37408,309.32061 5.16331,-144.31695 127.5638,-67.686913 122.400491,76.630033 -5.163311,144.31695 -127.5638,67.68692 z"
           transform="matrix(1.1340988,-0.02774929,0.02774929,1.1340988,-230.31968,-343.80613)" />
        <g
           style="font-style:normal;font-variant:normal;font-weight:normal;font-stretch:normal;font-size:224.81030273px;line-height:1.25;font-family:Arial;-inkscape-font-specification:Arial;letter-spacing:0px;word-spacing:0px;fill:#ffffff;fill-opacity:1;stroke:none;stroke-width:20.43730164">
          <path
             d="m -346.90371,-172.63589 c -49.00864,0 -66.54385,18.20964 -66.54385,80.482091 0,62.272453 17.53521,80.482088 66.54385,80.482088 49.00865,0 66.31904,-18.209635 66.31904,-80.482088 0,-62.272451 -17.31039,-80.482091 -66.31904,-80.482091 z m 0,27.65167 c 23.38027,0 30.34939,11.69014 30.34939,52.830421 0,41.140285 -6.96912,52.830421 -30.34939,52.830421 -23.38027,0 -30.34939,-11.690136 -30.34939,-52.830421 0,-41.140281 6.96912,-52.830421 30.34939,-52.830421 z m -19.33368,156.46797 c 17.31039,10.341274 38.89218,20.907358 65.86942,27.651667 l 9.66684,-30.5742008 c -25.17876,-3.5969648 -46.98536,-8.09317087 -67.44309,-15.2871006 z"
             style="font-style:normal;font-variant:normal;font-weight:bold;font-stretch:normal;font-family:'Exo 2.0';-inkscape-font-specification:'Exo 2.0 Bold';fill:#ffffff;stroke-width:20.43730164" />
        </g>
      </g>
    </g>
    <path
       style="fill:#991846;fill-opacity:1;stroke-width:0.11807214"
       d="m 160.34135,97.73329 0.3765,0.0776 c 0.20626,0.04347 0.68859,0.238941 1.07375,0.432903 l 0.70173,0.353266 0.0446,0.402279 c 0.0242,0.221594 0.0135,0.402268 -0.0222,0.402268 -0.0357,0 -0.39984,-0.140851 -0.80866,-0.314467 -0.40882,-0.173659 -0.77164,-0.291225 -0.80643,-0.259337 -0.0348,0.03189 0.29473,0.401943 0.73069,0.820891 l 0.79084,0.761667 v 0.56155 0.56155 l -0.16708,0.15315 c -0.0925,0.0848 -0.27206,0.15519 -0.39876,0.15519 -0.12669,0 -0.63382,-0.18912 -1.12722,-0.41861 l -0.89778,-0.41657 -0.0423,-0.41657 c -0.0241,-0.22949 -0.008,-0.41861 0.0379,-0.41861 0.046,0 0.3952,0.14611 0.77524,0.32263 0.38005,0.17654 0.77033,0.32061 0.86659,0.32061 h 0.17376 l -0.71286,-0.67387 c -0.39297,-0.370702 -0.78516,-0.801422 -0.87104,-0.955655 -0.0859,-0.154233 -0.15595,-0.452212 -0.15595,-0.663644 v -0.385938 l 0.22055,-0.20012 z m -1.9381,-2.182899 h 0.11361 c 0.0619,0 0.27161,0.06712 0.46782,0.149067 l 0.35643,0.149065 0.002,0.140899 c 0.001,0.07693 -0.075,0.940645 -0.1693,1.919482 l -0.17153,1.778578 0.21609,0.147036 0.21608,0.144982 0.0891,0.41655 0.0914,0.41863 -0.24283,-0.008 c -0.13288,-0.005 -0.37624,-0.0594 -0.54134,-0.12047 -0.16507,-0.061 -0.40195,-0.24231 -0.52574,-0.40431 l -0.22481,-0.294138 v -0.581969 c -5.6e-4,-0.319695 0.0712,-1.317324 0.1604,-2.217614 z m -3.47302,-0.08576 0.47228,0.177654 0.47227,0.177654 -0.0847,0.604432 c -0.0462,0.331688 -0.127,1.079646 -0.17821,1.662188 l -0.0914,1.057758 -0.15593,-0.0084 c -0.0852,-0.0052 -0.30432,-0.07329 -0.48565,-0.153157 l -0.3297,-0.147018 0.10023,-1.161902 c 0.0551,-0.639084 0.14243,-1.396409 0.19159,-1.68465 z m 1.66856,-0.65344 c 0.0195,-0.01797 0.23538,0.0304 0.47896,0.108226 l 0.44333,0.14294 -0.005,0.212368 c -0.002,0.11666 -0.0911,0.962742 -0.20049,1.880682 l -0.19827,1.668316 0.27179,0.214413 0.27178,0.212363 v 0.396147 0.396145 h -0.26064 -0.26287 l -0.37871,-0.273615 -0.37872,-0.273632 -0.12697,-0.304263 -0.12699,-0.306301 0.21832,-2.021579 c 0.12062,-1.111078 0.23445,-2.034238 0.25396,-2.05221 z m -1.5995,-0.673861 h 0.22054 c 0.12062,0 0.3411,0.05964 0.49011,0.13273 l 0.26955,0.134773 v 0.443114 0.445156 l -0.31411,-0.01025 c -0.17332,-0.0055 -0.39383,-0.0379 -0.4901,-0.07351 l -0.17599,-0.06534 v -0.502333 z m -3.18118,-1.355888 c 0.0163,-0.01073 0.23895,0.06124 0.49456,0.159276 l 0.46559,0.177654 -0.0869,0.73512 c -0.0471,0.403848 -0.12037,1.020462 -0.16485,1.370183 l -0.0825,0.635063 0.32523,-0.196033 c 0.17845,-0.108611 0.39095,-0.309961 0.47228,-0.445156 0.0813,-0.135195 0.15809,-0.263792 0.17155,-0.287922 0.0135,-0.02413 0.24282,0.02649 0.50791,0.114352 l 0.48118,0.161318 -0.0713,0.267502 c -0.0389,0.148099 -0.22458,0.458736 -0.41212,0.690196 l -0.34084,0.422694 0.30296,0.861724 c 0.16566,0.474658 0.3241,0.934805 0.35422,1.023045 l 0.0556,0.161311 -0.17154,-0.0063 c -0.0939,-0.0031 -0.33234,-0.08521 -0.5302,-0.183779 l -0.35866,-0.17969 -0.23613,-0.778004 -0.23614,-0.778001 h -0.20941 -0.20941 v 0.492122 c 0,0.270675 -0.0408,0.527503 -0.0891,0.571759 l -0.0869,0.08167 -0.40321,-0.191947 -0.40099,-0.189907 v -0.363326 c 0,-0.200127 0.0953,-1.250429 0.21385,-2.334007 0.11856,-1.083571 0.22875,-1.980213 0.24506,-1.99095 z m -3.25024,-1.08226 h 0.40098 0.40323 l 0.88885,0.424736 0.88664,0.424736 -0.029,0.361434 c -0.0158,0.198436 -0.065,0.394485 -0.10914,0.434947 l -0.0802,0.07351 -0.75074,-0.338972 -0.75297,-0.33693 -0.0847,0.0776 c -0.0465,0.04269 -0.0847,0.171127 -0.0847,0.285879 V 93.3144 l 0.64158,0.57176 c 0.35283,0.314798 0.7327,0.728226 0.84209,0.9189 l 0.19825,0.347139 v 0.657526 0.655482 l -0.14479,0.249123 -0.1448,0.249124 h -0.40322 -0.40321 l -0.88886,-0.420651 -0.88664,-0.420653 -0.0423,-0.477829 -0.0446,-0.47987 h 0.0824 c 0.0457,0 0.39521,0.14611 0.77526,0.322638 0.38004,0.176527 0.78634,0.320592 0.90445,0.320592 h 0.21609 v -0.294047 -0.294049 l -0.64159,-0.573801 c -0.35282,-0.314799 -0.73047,-0.728227 -0.83985,-0.9189 l -0.20049,-0.347141 v -0.592178 -0.59218 l 0.14479,-0.249124 z m 11.87352,-4.662581 0.68098,0.372652 0.68098,0.370433 v 0.461378 0.463596 L 161.444,88.567133 c -0.19692,-0.07487 -0.48858,-0.20645 -0.64992,-0.292797 l -0.29502,-0.15749 -0.18411,0.255089 -0.18632,0.252871 v 0.521268 0.521267 l 0.36156,0.281707 c 0.19808,0.155813 0.49476,0.327462 0.66101,0.379307 0.16626,0.05185 0.34959,0.162893 0.40593,0.248434 0.0563,0.08554 0.10312,0.297671 0.10425,0.47025 l 0.002,0.312762 -0.24399,-0.01113 c -0.13423,-0.006 -0.43312,-0.0759 -0.66324,-0.15749 -0.2301,-0.08159 -0.59667,-0.274235 -0.81628,-0.428105 l -0.39927,-0.281707 -0.19519,-0.461378 -0.19299,-0.463596 v -0.667666 c 0,-0.367307 0.0622,-0.882014 0.13753,-1.144573 0.0753,-0.262559 0.21543,-0.528283 0.31276,-0.590031 0.0973,-0.06175 0.32659,-0.114229 0.50796,-0.115345 z m -3.37382,-0.47025 -0.0887,0.08873 c -0.0488,0.04885 -0.12075,0.37108 -0.1597,0.716467 l -0.071,0.629959 0.0821,0.215161 0.0821,0.215162 h 0.26617 0.26619 l 0.14418,-0.175235 0.14196,-0.173017 0.0488,-0.623304 0.0488,-0.623304 -0.38153,-0.135308 z m -0.0289,-1.078027 0.67432,0.343814 c 0.37048,0.19004 0.78774,0.432017 0.92719,0.536797 l 0.25287,0.190761 -0.17079,1.772313 c -0.0946,0.975174 -0.21023,1.768664 -0.25509,1.76344 -0.0449,-0.0052 -0.22226,-0.07647 -0.39484,-0.159708 l -0.31276,-0.150835 v -0.239561 -0.237345 l -0.34604,0.06654 c -0.19034,0.03639 -0.5076,0.02469 -0.70315,-0.02439 l -0.35491,-0.08873 -0.27504,-0.450288 -0.27284,-0.448069 0.009,-0.838465 0.0114,-0.836247 0.16636,-0.55676 0.16858,-0.558977 0.4392,-0.04215 z m -3.4315,-0.403706 -0.0843,0.314979 c -0.0462,0.172581 -0.0834,0.535117 -0.0843,0.807412 l -0.002,0.494649 0.16637,0.166363 0.16635,0.16858 0.28614,-0.190761 0.28615,-0.190762 0.091,-0.609996 0.0887,-0.612212 -0.2196,-0.173017 c -0.12161,-0.09588 -0.32714,-0.175235 -0.45693,-0.175235 z m 0.10641,-1.133482 0.66324,0.363779 c 0.36445,0.200389 0.77528,0.450806 0.91387,0.554541 l 0.25288,0.188544 -0.1708,1.756785 c -0.0937,0.966316 -0.20801,1.753137 -0.25287,1.747912 -0.0449,-0.0052 -0.22225,-0.07869 -0.39483,-0.161925 l -0.31276,-0.150835 V 88.023683 87.79743 l -0.5368,0.05102 -0.53457,0.05102 -0.40371,-0.346034 -0.40149,-0.346033 -0.0466,-1.02701 -0.0488,-1.024792 0.19742,-0.558976 0.1974,-0.55676 0.4392,-0.04436 z m -3.74425,-1.517223 0.37264,0.08651 c 0.2054,0.04722 0.68786,0.259545 1.07138,0.47025 l 0.6965,0.381525 0.0444,0.439195 c 0.0241,0.24071 0.0156,0.436979 -0.02,0.436979 -0.0356,0 -0.39813,-0.155216 -0.8052,-0.343815 -0.40707,-0.188594 -0.76834,-0.314116 -0.80298,-0.279489 -0.0346,0.03463 0.29127,0.436613 0.72534,0.891701 l 0.78968,0.827376 v 0.609994 0.609996 l -0.16859,0.166362 c -0.092,0.09205 -0.27455,0.166361 -0.40592,0.166361 -0.13135,0 -0.6363,-0.203615 -1.12239,-0.454722 l -0.88283,-0.456942 -0.0444,-0.450287 -0.0444,-0.450288 h 0.0843 c 0.0462,0 0.31656,0.118181 0.60113,0.261744 0.28458,0.143564 0.67555,0.307358 0.8673,0.363779 l 0.34825,0.102031 -0.71646,-0.74752 c -0.3939,-0.410915 -0.78622,-0.883872 -0.87174,-1.05141 -0.0855,-0.167537 -0.15527,-0.49345 -0.15527,-0.723121 v -0.417014 l 0.2196,-0.219599 z m -1.62591,-2.204854 c 0.0246,-0.02483 0.23966,0.05478 0.4769,0.177453 l 0.43032,0.221816 -0.002,0.381524 c -0.001,0.208961 -0.0943,1.227044 -0.20628,2.262526 -0.11198,1.035483 -0.20516,1.992991 -0.20629,2.127219 -0.001,0.134228 -0.0489,0.236648 -0.10642,0.228471 h -0.002 c -0.0576,-0.0082 -0.27706,-0.08301 -0.488,-0.166362 l -0.38374,-0.150836 v -0.297234 c 0,-0.163335 0.10028,-1.298157 0.22181,-2.519833 0.12157,-1.221676 0.24143,-2.239918 0.26619,-2.264744 z m 2.68191,-7.701714 h 0.51367 0.51563 l 10.29492,4.167968 10.29492,4.167969 0.27735,0.322266 0.27539,0.320312 v 14.390625 c 3e-4,7.915016 0.032,15.165806 0.0684,16.111326 l 0.0645,1.71875 -2.84375,2.45508 c -1.56477,1.35076 -2.89413,2.47555 -2.95313,2.49805 l -0.10742,0.041 V 101.88086 85.042969 l -0.24609,-0.484375 -0.24805,-0.484375 -0.27539,-0.175781 c -0.15109,-0.09734 -4.61236,-1.955885 -9.91406,-4.128907 -5.3017,-2.173022 -9.67846,-3.98659 -9.72657,-4.03125 l -0.0879,-0.08203 2.04883,-1.564453 z m 1.26367,-1.634766 -0.69336,0.0059 -0.6914,0.0078 -0.42774,0.181641 -0.42578,0.179687 -2.15625,1.644531 c -1.18557,0.903725 -2.40091,1.853872 -2.70117,2.111329 l -0.54492,0.466796 0.0469,17.275391 0.0469,17.277347 0.21484,0.42969 c 0.11887,0.23638 0.31993,0.5205 0.44531,0.63281 0.12537,0.11231 4.97146,2.36095 10.76954,4.99609 l 10.54296,4.79102 0.20118,-0.0703 c 0.11145,-0.0385 0.27302,-0.155 0.35742,-0.25977 l 0.15234,-0.19141 v -0.46093 -0.46094 l 2.88281,-2.52344 c 1.58572,-1.38789 2.91207,-2.52344 2.94727,-2.52344 0.0352,0 0.0644,0.16419 0.0644,0.36524 v 0.36523 l 0.30078,0.19727 0.29883,0.19531 0.27149,-0.0391 0.27148,-0.041 0.23047,-0.31054 0.23047,-0.3086 -0.0957,-16.882813 -0.0957,-16.880859 -0.33789,-0.574219 -0.33789,-0.576172 -0.33789,-0.238281 -0.33594,-0.240234 -10.54687,-4.269532 z" />
    <g
       style="fill:#509e2e"
       transform="translate(81.278726,-20.37237)">
      <path
         style="fill:#509e2e;stroke-width:1;stroke-miterlimit:4;stroke-dasharray:none;stroke-dashoffset:0"
         d="m -37.951017,100.57276 v 12.98076 l -11.241663,6.49038 -11.241664,-6.49038 v -12.98076 l 11.241664,-6.490374 z m 12.507076,21.11574 v 12.98076 l -11.241663,6.49037 -11.241664,-6.49037 V 121.6885 l 11.241664,-6.49038 z m -25.186241,0.10539 v 12.98076 l -11.241663,6.49038 -11.241664,-6.49038 v -12.98076 l 11.241664,-6.49037 z" />
    </g>
    <path
       d="M 109.28904,76.081276 82.681641,99.161559 h 13.721602 l -8.639881,14.977701 0.93133,0.76894 23.858778,-20.637324 h -1.64058 -9.98434 l 9.30137,-17.43976 z"
       style="color:#000000;font-style:normal;font-variant:normal;font-weight:normal;font-stretch:normal;font-size:medium;line-height:normal;font-family:sans-serif;font-variant-ligatures:normal;font-variant-position:normal;font-variant-caps:normal;font-variant-numeric:normal;font-variant-alternates:normal;font-feature-settings:normal;text-indent:0;text-align:start;text-decoration:none;text-decoration-line:none;text-decoration-style:solid;text-decoration-color:#000000;letter-spacing:normal;word-spacing:normal;text-transform:none;writing-mode:lr-tb;direction:ltr;text-orientation:mixed;dominant-baseline:auto;baseline-shift:baseline;text-anchor:start;white-space:normal;shape-padding:0;clip-rule:nonzero;display:inline;overflow:visible;visibility:visible;opacity:1;isolation:auto;mix-blend-mode:normal;color-interpolation:sRGB;color-interpolation-filters:linearRGB;solid-color:#000000;solid-opacity:1;vector-effect:none;fill:#509e2e;fill-opacity:1;fill-rule:nonzero;stroke:none;stroke-width:1.22266972px;stroke-linecap:butt;stroke-linejoin:miter;stroke-miterlimit:4;stroke-dasharray:none;stroke-dashoffset:0;stroke-opacity:1;color-rendering:auto;image-rendering:auto;shape-rendering:auto;text-rendering:auto;enable-background:accumulate"
       />
  </g>
</svg>
