<?xml version="1.0" encoding="UTF-8"?>
<!DOCTYPE svg  PUBLIC '-//W3C//DTD SVG 1.1//EN'  'http://www.w3.org/Graphics/SVG/1.1/DTD/svg11.dtd'>
<svg version="1.1" viewBox="-2 0 973.8 453.6" xml:space="preserve" xmlns="http://www.w3.org/2000/svg">
<polyline points="318.8 0 319.1 358.7 159.7 451.2 0 359.3 0 0.5" fill="#fff" stroke="#CCCBCB" stroke-miterlimit="10" stroke-width="4"/>

	<path d="m148.3 105.3c-27.6-85-69.5-71.2-87.9-65.9-18.8 5.3-21.7 2.9-21.7 2.9 28.7 93.2 103.4 65.9 103.4 65.9s-41-2.4-64.3-43l70.5 40.1z" fill="#4E9934"/>
	<path d="m160.4 106c0.5-3.2 0.5-39.6 32.8-66.4 0 0 21-17.7 22.2 0s-2.4 6.8-22 22.7-25 43.7-25 43.7h-8z" fill="#100C08"/>

<polygon points="289.8 337.2 160.3 412.2 30.4 337.2 30.4 187.6 160.1 112.6 289.8 187.4" fill="#4E9934"/>

	<g fill="#fff">
		<path d="m67.1 214.9c0.2 4.8-2.7 8-7.5 8-3.9 0-7-3.2-7-8s3.2-8 7.3-8c4.1-0.1 7.2 3.2 7.2 8zm-13.3 97.1v-77.1h12.2v77.1h-12.2z"/>
		<path d="m77.1 299.3c2.7 1.7 7.5 3.9 12.5 3.9 7 0 11.4-4.3 11.4-11.1 0-6-2-9.9-9.9-15-10.1-6.5-15.5-13-15.5-22 0-12.5 9.4-21.5 21.2-21.5 6.1 0 10.6 2 13.8 3.9l-3.4 9.4c-2.7-1.9-6.1-3.4-10.2-3.4-6.7 0-10.1 4.8-10.1 9.7 0 5.3 1.9 8.2 9.6 13.5 8.9 5.8 16 12.6 16 23.6 0 15.5-10.4 22.9-23 22.9-5.8 0-11.9-1.7-15.4-4.4l3-9.5z"/>
		<path d="m154.1 312-0.7-8.2h-0.5c-3.4 6-8.7 9.4-15.2 9.4-10.4 0-18.3-8.7-18.3-22 0-19.5 15.5-28 32.8-28.2v-2.4c0-10.4-2.6-17.6-12.3-17.6-4.8 0-9 1.7-12.6 3.9l-2.7-8.5c3.2-2.4 10.4-4.9 18.1-4.9 15.5 0 22.2 10.2 22.2 27.6v33.3c0 6 0 12.6 0.7 17.6h-11.5zm-1.7-40c-6.3 0-21.2 1.2-21.2 17.9 0 10.1 4.9 13.8 9.6 13.8 5.5 0 10.1-3.9 11.6-11.6 0.3-1.5 0.3-2.9 0.3-4.3v-15.8h-0.3z"/>
		<path d="m208 312-0.7-8.2h-0.5c-3.4 6-8.7 9.4-15.2 9.4-10.4 0-18.3-8.7-18.3-22 0-19.5 15.5-28 32.8-28.2v-2.4c0-10.4-2.6-17.6-12.3-17.6-4.8 0-9 1.7-12.6 3.9l-2.7-8.5c3.2-2.4 10.4-4.9 18.1-4.9 15.5 0 22.2 10.2 22.2 27.6v33.3c0 6 0 12.6 0.7 17.6h-11.1c-0.4-0.2-0.4 0-0.4 0zm-1.7-40c-6.3 0-21.2 1.2-21.2 17.9 0 10.1 4.9 13.8 9.6 13.8 5.5 0 10.1-3.9 11.6-11.6 0.3-1.5 0.3-2.9 0.3-4.3v-15.8h-0.3z"/>
		<path d="m269.3 310.1c-2.7 1.7-7.3 2.7-12.6 2.7-16.9 0-28.3-13.7-28.3-39.1 0-22.2 11.1-40.3 30.5-40.3 4.1 0 8.5 1.2 10.8 2.4l-2.4 10.1c-1.7-0.7-4.8-2-8.7-2-12.3 0-17.9 14.7-17.9 29.9 0 18.1 6.8 28.8 18.3 28.8 3.4 0 6.1-0.7 8.9-2l1.4 9.5z"/>
	</g>


	<path d="m792.1 302.4c-0.7 0-1.4 0.2-1.9 0-0.9-0.3-1.7 0-2.6 0-1.2 0-2.2-0.2-3.2-0.5-1.2-0.5-2.4-0.5-3.2-1.7-0.3-0.5-0.9-1-1.2-1.5-0.2-0.3-0.5-0.7-0.7-1.2-0.2-0.3-0.5-0.9-0.7-1.2-0.3-0.7-0.7-1.5-1.2-2.2-0.3-0.5-0.3-0.9 0.2-1 0.5-0.3 1.2-0.5 1.7-0.7 0.9-0.3 1.9-0.5 2.7-1s1.9-0.9 2.7-1.4c0.5-0.3 1.2-0.5 1.4-1.2 0.2-0.5 0.3-1 0.5-1.5 0-0.2 0.3-0.5 0.2-0.5-0.7-0.5 0-1.2-0.3-1.7s-0.5-1.4-0.7-2c-0.2-0.3-1.5-1.5-1.9-1.5h-0.2c-1 0.3-2.2 0.7-3.2 1.4-0.9 0.5-1.7 0.9-2.7 1.4-0.9 0.5-1.9 0.9-2.9 1.4-0.7 0.3-1.5 0.9-2.4 1h0.2c-0.9 0.3-1.7 0.9-2.6 1.2-0.7 0.3-1.2 0.9-2 0.7v-1.7c0.2-2 0.2-3.8 0.3-5.8 0-0.9 0.2-1.5 0.3-2.4 0-0.7 0.2-1.4 0.2-2.2 0.2-1.4 0.3-2.7 0.9-3.9 0.3-1 0.5-2.2 0.7-3.2 0.2-0.7 0-1.4 0.2-2 0-0.5 0.2-1 0-1.5-0.2-0.7-0.5-1.4-0.9-1.9-0.3-0.5-1-0.7-1.4-1.4l-0.2-0.2c-0.5 0-1.2-0.3-1.7 0.3-0.3 0.5-0.7 0.9-1 1.4-0.2 0.2-0.2 0.5-0.3 0.9-0.2 0.7-0.5 1.4-0.7 2.2-0.2 0.9-0.5 1.5-0.7 2.4s-0.3 1.5-0.5 2.4c-0.3 1-0.5 2-0.9 2.9v0.2c-0.5 0.7-0.9 1.4-1.4 1.9-0.5 0.3-0.9 0.7-1.4 0.9-0.5 0.3-1.4 0.3-2 0.7-0.5 0.2-1.2 0.3-1.4 1-0.2 0-0.3 0-0.3 0.2-0.5 0.5-0.9 1-1.4 1.4-0.9 0.7-1.2 1.9-2.2 2.4-0.2 0.2-0.3 0.7-0.5 0.9-0.3 0.3-0.7 0.9-0.9 1.2l-0.2-0.2v0.5h-0.2v-0.2c-0.7 0.9-1.2 1.9-2 3.1-0.2-0.3-0.5-0.5-0.7-0.9-0.5-1-1.2-2-2-2.9-1-1-2.2-1.5-3.4-2.2-0.9-0.5-1.7-0.2-2.6 0.3-0.5 0.2-0.9 0.7-1.2 1s-0.7 0.5-1 0.9c-0.5-1-1-2-1.5-2.9-0.5-0.7-1.2-1.4-1.9-2-0.9-0.9-1.7-1.7-2.7-2.2-1.4-0.9-2.7-1.4-4.1-1.2-1 0-2.2 0.2-3.2 0.5s-2.2 0.5-3.2 0.9c-0.3 0.2-0.7 0.3-1 0.5-0.9 0.5-1.7 0.9-2.6 1.4-1.2 0.7-2 1.7-3.1 2.6-0.2 0.2-0.3 0.2-0.3 0.2-0.3 0.7-0.9 1.4-1.2 2-0.5 0.9-0.9 1.7-1.4 2.6-0.2-0.3-0.3-0.7-0.5-1-0.2-0.5-0.3-1-0.7-1.5-0.3-0.7-1-1.2-1.4-1.9-0.5-0.7-0.9-1.5-1.5-2-0.9-0.9-1.9-1.5-2.9-2-0.7-0.3-1.4-0.5-2-0.5s-1.4 0.2-2 0.3c-0.2 0.3-0.2 0.9-0.3 1-0.5 0.2-0.3 0.5-0.3 0.7v1.4c0 0.5 0.3 1.2 0.7 1.7 0.2-0.3 0.2-0.3 0.3-0.5 0.2 1.5 1.2 2 2 2.4 0.9 0.2 1.2 0.9 1.9 1.4 0.3 0.2 0.7 0.5 1 0.9 0.5 1 1.2 2 1.5 3.1 0.3 1.2 0.5 2.6 0.7 3.6 0.2 1.4 0 2.9-0.7 3.9-0.3 1-0.9 2-1.7 2.9-0.2 0.2-0.3 0.5-0.5 0.7-0.5 0.3-0.9 0.9-1.4 1.2-0.7 0.3-1.5 0.3-2.2 0.7-0.7 0.3-1.4-0.3-2.2 0-0.7 0.2-1.2-0.2-1.7-0.5-1.7-0.7-2.7-1.9-3.4-3.4-0.5-1.2-0.7-2.7-0.9-3.9s-0.2-2.9 0.2-4.3c0.2-0.7 0-1.5 0-2.2 0-0.5 0-1-0.2-1.5 0-0.3-0.2-0.7-0.2-1 0-0.2 0.2-0.3 0-0.5-0.2-0.5-0.5-1-0.9-1.5l-1.7-1.7c-0.3-0.3-1-0.5-1.4-0.3-0.7 0.2-0.9 0.7-1.4 1.2-0.3 0.5-0.5 1.2-0.5 1.9-0.2 0.5 0 1-0.2 1.5 0 0.5-0.2 1-0.3 1.4-0.2 0.3 0.3 0.7-0.2 1v0.3c-0.2 0.7-0.3 1.4-0.7 1.9-0.2 0.3-0.2 0.7-0.3 1.2-0.5 0.9-1 1.7-1.4 2.6-0.7 1.7-1.7 3.2-3.1 4.4-0.9 0.7-1.7 1.4-2.7 1.7-0.7 0.2-1.4 0.3-2 0.5-0.5 0.2-1.2 0.3-1.7 0.3 0-0.2 0.2-0.3 0-0.3-0.2-0.2-0.3-0.2-0.3-0.2-0.3-0.7-0.7-1.4-0.5-2.2 0.2-1 0.3-2 0.5-3.1 0.3-1.2 0.5-2.6 0.9-3.6 0.2-0.9 0.5-1.5 0.7-2.4 0.3-1.2 0.7-2.4 0.7-3.4v-0.3c0.2-0.9 0.5-1.9 0.3-2.7-0.2-1.2 0-2.6-1-3.4-0.3-0.3-0.3-0.9-0.7-1.4-0.9-1-1.9-1.5-2.9-1-0.3 0.2-0.7 0.3-0.9 0.7-0.3 0.5-0.3 1.2-0.5 1.9s-0.3 1.4-0.3 1.9c0 0.3 0 0.5-0.2 0.9-0.2 0.5-0.2 0.9-0.3 1.4-0.3 1-0.5 2-0.9 3.1s-0.7 2-0.9 3.1c-0.3 1.4-0.7 2.9-0.9 4.3-0.2 1 0 2 0 3.1-0.2 1.7 0.2 3.2 0.7 4.6 0.5 1.5 1.5 3.1 2.6 4.1 0.9 1 2.2 1.5 3.2 2 0.9 0.5 1.9 0.7 3.1 0.7 1.2-0.2 2.6-0.2 3.6-0.7h0.2c1.2-0.7 2.4-1.4 3.4-2.2 0.7-0.5 1.7-0.9 1.9-1.9 0-0.2 0.3-0.3 0.5-0.5 0.5-0.7 1.2-1.5 1.7-2.2 0.2 0.2 0.5 0.3 0.5 0.5 0.7 1.5 1.9 2.7 2.9 3.9 0.7 0.9 1.5 1.4 2.4 2 0.2 0.2 0.5 0.5 0.7 0.5 0.7 0.3 1.4 0.5 2.2 0.7 1.4 0.5 2.7 1 4.1 1 0.9 0 1.9 0.2 2.7-0.2s1.9-0.9 2.7-1.4c1.9-1.2 3.6-2.6 4.6-4.6 0.5-0.9 0.9-1.7 1.4-2.6 0.2 0.2 0.2 0.3 0.3 0.5 0.5 0.7 1 1.5 1.5 2.2l1.5 1.5c0.9 0.7 1.9 1.4 2.7 2 0.5 0.3 1.2 0.3 1.5 0.7 0.5 0.5 1.4 0.7 2 0.9 1.5 0.3 3.1 0.7 4.4 0.3 0.9-0.2 1.7-0.5 2.4-0.9 0.9-0.3 1.7-0.9 2.6-1.4s1.5-1.4 2.4-2c0.7-0.7 1.2-1.5 1.7-2.4s1-1.7 1.5-2.6 0.9-1.9 1.4-2.7c0.2-0.3 0.2-0.7 0.3-1 0.2-0.7 0.3-1.5 0.7-2.2 0.3-1 0.9-2.2 1.4-3.2 0.3-0.7 0.7-1.2 1.2-1.9 0.3 0.5 0.5 0.7 0.7 1 0.3 1 0.7 2.2 0.9 3.2 0.2 0.7 0.5 1.4 0 2.2-0.2 0.3-0.3 0.9-0.3 1.4-0.2 2.2 0.2 4.3 0.9 6.3 0.2 0.3 0.3 0.7 0.3 1.2 0.2 1 0.7 1.7 1.7 1.9 0.2 0 0.2 0.3 0.3 0.5 0.9 0.5 1.5 1 2.6 0.3 0.7-0.3 1.4-1 1.4-1.9s0-1.5 0-2.4c0-0.7 0.2-1.5 0.2-2.2 0-0.5-0.3-1.2-0.2-1.7 0.2-0.5-0.3-1 0-1.7s0.5-1.5 0.9-2.4c0.5-1 1-2.2 1.5-3.2 0.3-0.5 0.9-1 0.9-1.7 0-0.5 0.5-0.9 0.9-1.4 0.3-0.7 0.9-1.2 1.2-1.9s1-1 1-1.9l0.2-0.2c0.3-0.2 0.7-0.3 1-0.5 0.9-0.5 1.5-1.2 2.7-1.2 0.7 0 0.7 0 0.7 0.7v1.2 2.7s0 1.9 0 2.7-0.3 1.7 0 2.4c0 0.2 0 0.3-0.2 0.3 0 0.2-0.2 0.3-0.2 0.5 0 2.2 0 4.3-0.2 6.5 0 0.2-0.2 0.5-0.2 0.7 0.2 0.7 0.2 1.4 0.3 2 0.2 1 0.7 2 1.4 2.9 0.3 0.5 0.9 0.9 1.4 1.2 0.7 0.5 1.9 0.5 2.2-0.2 0.5-0.7 0.7-1.5 1-2.4l-0.2-0.3c0.3-0.3 0.2-0.7 0-1.2s-0.3-1-0.3-1.5c0-1.5 0.2-3.1 0.2-4.4v-0.9h0.3c0.5 0.5 0.9 0.3 1.5 0.2 0.7-0.2 1.5 0 2.4 0l0.2 0.2c0.7 0.5 1 1.2 1.4 1.9 1 1.7 2.2 3.4 3.2 4.9 0.7 1.2 1.7 2 2.7 3.1 0.5 0.5 1.4 0.9 1.9 1.4 1.2 1.2 2.7 1.5 4.1 1.9 0.9 0.2 1.9 0 2.9 0 0.9 0 1.7 0 2.4-0.2 0.2 0 0.3 0 0.5-0.2 0.5-0.3 1-0.7 1.7-0.9 0.5-0.2 0.9-0.7 0.7-1-0.3-0.3 0.2-0.3 0.2-0.7 0.7-0.2 0.5-0.7 0.5-1.2 0-0.2 0.2-0.3 0.2-0.5v-0.3c-0.2-0.5-0.2-1.2-0.3-1.7 0.3-1.7-0.7-2.3-1-2.2zm-55.7-12.1c-0.2 0.2-0.3 0.3-0.3 0.5-0.2 1-0.9 1.9-1 2.7-0.2 0.9-0.9 1.4-1 2.2-0.2 0.7-0.7 1.2-1 1.7-0.3 0.3-0.5 0.9-0.9 1.2-0.5 0.5-0.9 1.2-1.4 1.7-0.3 0.3-0.5 0.7-1 0.9-0.5 0.3-1 0.5-1.5 0.7s-1 0.5-1.7 0.7-1.4 0-2 0c-0.3 0-0.7-0.2-1.2-0.2-1-0.3-1.9-0.7-2.9-1.2-0.5-0.3-0.9-0.9-1.2-1.2-0.5-0.3-0.9-0.7-1.2-1.4-0.5-1.2-1-2.4-0.9-3.4-0.2-1.4 0.3-2.6 0.9-3.4 0.3-0.7 0.5-1.5 0.9-2.2 0.2-0.5 0.7-0.9 1-1.2 0.7-0.7 1.5-1.4 2.2-2 0.5-0.3 1.2-0.7 1.7-1 0.3-0.2 0.9-0.3 1.4-0.7 1.2-0.5 2.6-0.9 3.8-0.9 0.7 0 1.2 0 1.7 0.2 1 0.2 1.5 1 2 1.7 0.9 0.9 1.5 1.7 2.2 2.6 0.3 0.3 0.5 0.7 1 0.7 0.9-0.2 0.8 1 0.4 1.3z" fill="#4E9934"/>
	<path d="m945.2 299.2z" fill="#4E9934"/>
	<path d="m965.6 279.6c0.3 0 0.7-0.5 0.7-0.9 0-0.9 0.3-1.7-0.5-2.4 0 0-0.2-0.2-0.2-0.3 0.2-0.7-0.3-0.9-0.7-1.2-0.3-0.2-0.7-0.3-1-0.5l-0.2-0.2c-1.2 0-2.2-0.2-3.4 0-1.2 0-2.4 0.2-3.4 0.2-0.3 0-0.5-0.2-0.9-0.2-0.3 0-0.7 0.2-1 0.2h-0.3c-1.4-0.5-2.9-0.2-4.1-0.3-1 0-1.9 0-2.7-0.2 0-0.5 0.2-1 0.2-1.4v-1.4c0.2-0.9 0.3-1.7 0.5-2.6 0-0.9 0.2-1.9 0.3-2.7 0.2-0.9 0-1.7-0.7-2.4 0 0-0.2-0.2-0.2-0.3-0.2-0.3-0.2-0.9-0.3-1.2-0.2-0.3-0.5-0.7-0.9-0.7-0.5 0-0.9-0.3-1.4-0.2-0.7 0.2-1 0.5-1.4 1-0.5 0.9-1 1.5-1.4 2.4-0.5 0.9-1 1.7-1.4 2.7-0.3 0.5-0.5 1-0.9 1.5v0.2c-0.9 0.5-0.9 1.5-1.4 2.4-0.2 0.3-0.3 0.9-0.5 1.2-0.3 0.7-0.5 1.5-0.7 2h-1-0.3c-1.2 0-2.2-0.2-3.4 0-0.5 0-1 0.3-1.4 0.7-0.7 0.5-0.7 1.5-0.9 2.2s-0.3 1.5 0.3 2l0.2 0.2c-0.2 0.7 0.3 1 0.7 1.4 0.9 1.2 2 1.5 3.4 1.5 0.3 0 0.3 0.2 0.3 0.5s-0.2 0.9-0.2 1.2c0 1-0.2 2-0.2 3.1v0.9c0 0.5 0 1.2 0.2 1.7 0 0.9 0 1.5 0.2 2.4 0.2 1.2 0.5 2.2-0.3 3.2-0.2 0.3-0.5 0.5-0.7 0.9-0.2 0.3-0.3 0.7-0.7 1s-0.7 0.7-0.7 1c-0.3 0.5-0.7 1-1.2 1.4-0.7 0.5-1.4 1-2.2 1 0.2 0 0.2 0 0.3 0.2-0.9 0-1.5 0.2-2 0-1-0.3-1.5-1.4-2.2-2.2-0.2-0.2-0.3-0.3-0.3-0.7-0.2-0.3-0.2-0.9-0.3-1.2-0.2-0.5-0.3-1-0.5-1.5v-0.2c0-0.3 0.2-0.9 0.2-1.2s-0.2-0.9-0.2-1.2c0.2-0.9 0.3-1.5 0.5-2.4 0.2-0.7 0-1.5 0.2-2.4s0.3-1.7 0.5-2.7c0.2-0.9 0-1.5 0.3-2.4 0.3-1 0.3-1.9 0-2.7-0.3-1-0.7-1.9-1-2.7-0.2-0.5-0.3-1-1-1-0.2 0-0.2-0.2-0.3-0.3-0.5-0.5-1.4-0.3-2 0.2-1.4 1-1.4 2.6-1.7 3.9 0 0.3 0 0.7-0.2 0.9-0.2 0.7-0.3 1.5-0.5 2.2-0.2 1.4-0.3 2.9-0.7 4.1-0.2 0.9-0.3 1.9-0.5 2.7-0.2 0.9-0.5 2.2-1.2 3.2-0.5 0.9-0.9 1.9-1.4 2.7-0.3 0.5-0.7 1.2-1.2 1.7-0.5 0.7-1.2 1.2-2 1.5-0.7 0.2-1.5 0.5-2.2 0.7-1.4 0.2-2.7 0-3.9-0.3-0.9-0.2-1.4-0.7-1.4-1.7s0-1.9 0.5-2.9c0.3-0.5 0.2-1.4 0.3-1.9 0.2-0.9 0.5-1.5 0.7-2.4 0.3-1 0.5-2 0.7-3.1v-0.3c0.3-0.9 0.7-1.5 0.9-2.4 0.2-0.7 0.2-1.5 0.2-2.2 0-0.9-0.2-1.9-0.2-2.7 0-0.5-0.2-1-0.3-1.4-0.3-0.7-0.7-1.5-1-2.2-0.3-0.5-0.7-1.2-1.2-1.5s-1.2-0.5-1.9-0.9c-1.5-0.7-2.9-1-4.4-1-2-0.2-4.1-0.3-6.1 0.2-1 0.2-2 0.3-2.9 1-0.3 0.3-0.7 0.5-1.2 0.9-0.5-1-1.7-1-2.6-1.2-0.7-0.2-1.4 0.3-2 0.2-1.2-0.2-2.2 0.9-3.4 0.7-0.5 0.7-1.4 0.9-2 1.2-0.9 0.5-1.7 1-2.6 1.5s-1.7 1-2.4 1.9c-0.9 0.5-1.5 1.2-2 2-0.5 0.7-1.2 1.4-1.7 2-0.2 0.2-0.5 0.5-0.5 0.7 0 0.7-0.7 1-0.9 1.5-0.3 0.9-0.7 1.5-1 2.4-0.2 0.5-0.2 1.2-0.3 1.7-0.2 0.7-0.3 1.5-0.5 2.2-0.2 0.5 0 1.2-0.2 1.5-0.3 0.7 0 1.4 0.2 1.9 0.3 1.4 0.9 2.6 1.4 3.6 0.5 1.5 1.5 2.7 2.6 3.8 1 1 2 1.9 3.2 2.7 0.5 0.3 1.2 0.7 1.7 0.9 0.2 0.2 0.5 0.2 0.9 0.3 0.2 0.2 0.5 0.2 0.7 0.3 0.9 0.2 1.5 0.5 2.4 0.7 0.5 0.2 1 0.3 1.5 0.3 0.7 0 1.4-0.2 2-0.2h2.9c0.9-0.2 1.7-0.3 2.6-0.7 0.7-0.3 1.4-1 1.9-1.5 0.2-0.2 0.2-0.7 0.3-1 0.2-0.3 0.5-0.5 0.7-0.9 0.2-0.5 0.3-1.2 0.5-1.7 0.3-1.5 0.9-2.9 0.9-4.3v-3.6s0-2.2 0-3.4c0-0.9-0.3-1.7 0-2.6 0.2-0.3-0.2-0.9-0.2-1.2 0-0.5 0.2-1 0.2-1.5 0-0.7-0.3-1.2 0-1.9 0.3-0.5 0.3-1.2 0.5-1.9 0 0 0.2 0 0.2-0.2 0.3-0.2 0.7-0.3 1-0.5 0.5-0.2 1-0.3 1.5-0.3 1.5 0.2 2.9-0.2 4.3 0.3 0.2 0.2 0.5 0.2 0.7 0.2 1 0.2 1.4 0.9 1 1.7-0.3 0.7-0.7 1.5-0.7 2.4-0.2 0.9-0.9 1.4-0.7 2.4 0 0.2-0.2 0.3-0.2 0.5-0.2 0.7-0.3 1.4-0.7 2-0.2 0.7-0.2 1.4-0.5 1.9-0.2 0.3-0.2 0.9-0.3 1.4-0.2 0.9-0.3 1.7-0.3 2.6 0 1.4 0.2 2.9 0.3 4.1l0.2 0.2c0.3 0.7 0.7 1.5 1 2.2 0.7 1.2 1.2 2.7 3.1 2.9 0 0 0.2 0 0.2 0.2 0.3 0.7 1 0.9 1.5 1 1 0.3 2 0.9 3.1 1 1 0.2 2 0.3 3.2 0.2h0.5c0.7-0.2 1.4-0.2 2-0.3 0.7-0.2 1.4-0.5 2-0.7 0 0 0-0.2 0.2-0.3 0.3-0.2 0.7-0.3 1-0.7 0.5-0.3 1.2-0.9 1.7-1.4 0.2-0.2 0.3-0.5 0.5-0.7 0.3-0.5 1-0.7 1-1.4 0-0.2 0.3-0.5 0.5-0.7 0.5 0.9 0.9 1.5 1.4 2.2 0.3 0.5 0.5 1.2 1 1.5 1 0.9 1.9 1.7 3.1 2.2 1 0.5 2.2 1.2 3.4 1.4 1.4 0.2 2.4 0 3.4-0.7 0.7-0.3 1.2-0.7 1.9-1.2 0.5-0.3 1-0.7 1.4-1 0.7-0.9 1.5-1.5 1.9-2.6 0.2-0.3 0.3-0.5 0.5-0.9 0.2-0.2 0.2-0.3 0.3-0.3 0.2 0 0.5 0.2 0.7 0.3 0.2 0.2 0.2 0.3 0.3 0.5 0.9 0.7 1.5 1.5 2.4 2.2 0.5 0.5 1.2 0.7 1.9 1 0.7 0.5 1.4 1 2 1.4 0.9 0.3 1.9 0.5 2.7 0.7 0.9 0.2 1.9 0.2 2.7 0.3s1.5-0.2 2.4 0c0.5-0.2 1-0.5 1.7-0.7s1.4-0.3 2-0.7c0.2 0 0.2-0.5 0.3-0.7 0.2-0.2 0.3-0.3 0.5-0.7 0.2-0.3 0.3-0.5 0.3-0.9 0.2-0.3 0.2-0.5 0.3-0.9 0.2-0.2 0.2-0.3 0.3-0.5s0.2-0.3 0.3-0.5c0.2-0.7 0.5-1.4 0.3-1.7-0.3-0.5 0-1-0.2-1.4l0.2 0.2s0.2 0 0.2-0.2c-0.3-0.7-0.5-1.4-1-2.2-0.2 0.3-0.3 0.5-0.5 0.7 0-0.2-0.2-0.3-0.2-0.5l-0.3 0.3v-0.2c-0.2 0-0.3 0-0.5 0.2-0.5 0.2-1 0.5-1.4 0.9-0.2 0-0.2 0.3-0.3 0.3-1 0.2-1.9 0.9-3.1 0.9-1 0-2 0.2-3.1 0-0.9-0.2-1.7-0.5-2.4-0.7-0.3 0-0.7 0-0.9-0.2-0.5-0.3-1-0.7-1.5-0.9-0.3-0.5-0.9-1-1.2-1.5s-0.5-1-0.7-1.5c-0.5-1.4-1-2.7-0.2-4.1 0.3-0.5 0.3-1.2 0.5-1.9h0.2c0.2-0.9 0.3-1.5 0.5-2.4 0.2-0.3 0.3-0.9 0.3-1.2 0.3-1 0.5-1.9 0.7-2.9 0.2-0.5 0.2-0.9 0.3-1.2 0.2-0.2 0.3-0.3 0.7-0.3 0.5-0.2 1.2 0 1.7-0.2 1.7-0.3 3.4 0.2 4.9-0.3 0.3 0.7 0.9 0 1.2 0 1.2 0.2 2.6 0 3.6-0.2 0.5 0 1.2-0.2 1.7-0.2h1.2c0.7-0.2 1.5 0 2.4-0.2 0.3 0 0.9-0.3 1.2-0.5s1-0.7 1-1c-0.6 0.9-0.6 0.9-0.1 0.9zm-76.8 15.3c-0.3 0.7 0 1.4-0.3 2-0.2 0.5-0.3 1-0.5 1.5-0.3 0.5-0.7 1.2-1 1.7-0.5 0.7-1.4 0.7-2.2 0.7-0.3 0-0.7-0.2-0.9 0-0.5 0.3-0.9 0-1.4 0-0.7 0-1.4 0.3-2-0.2h-0.5c-0.5-0.2-1.2-0.3-1.7-0.7-0.3-0.3-1-0.3-1.4-0.5-0.7-0.3-1.4-0.9-1.9-1.4s-1-2-0.9-2.7c0-1.9 0.9-3.4 1.7-4.9l0.2-0.2c0.3-0.5 0.5-1 0.9-1.4 0.5-0.3 0.9-1 1.4-1.4 0.5-0.5 1.2-1 1.7-1.4 0.9-0.7 1.7-1.2 2.6-1.7 0.9-0.3 1.7-0.9 2.7-1.2 0.5-0.2 1-0.3 1.5-0.3 0.2 0 0.5-0.2 0.7-0.2 0.5 0 1.2 0.7 0.9 1-0.3 0.7 0 1 0 1.5v5.1 0.3c0.3 0.9 0.2 1.7 0.2 2.6 0.2 0.6 0.4 1.3 0.2 1.8z" fill="#4E9934"/>
	<path d="m958 298.7z" fill="#4E9934"/>
	<path d="m657.2 302.4c-0.2-0.2-0.5-0.3-0.7-0.7-0.5-1-1-2-1.2-3.2-0.3-1.4-0.3-2.7-0.5-3.8 0-1 0.2-2 0.2-2.9s0.2-1.7 0.3-2.6c0.2-1.2 0.2-2.6 0.5-3.6 0.2-0.7 0.3-1.5-0.2-2.4-0.2-0.2-0.2-0.7-0.3-1.2-0.5-1-0.9-2.4-2-3.1-0.7-0.3-2.2-0.3-2.7 0.3-0.5 0.9-0.7 1.7-0.9 2.6-0.2 0.7-0.2 1.4-0.3 2-0.2 1.2-0.5 2.4-0.9 3.4-0.2 0.9-0.2 1.7-0.3 2.4-0.2 0.9-0.3 1.5-0.5 2.4 0 0.2-0.2 0.3-0.2 0.5-0.3 0.7-0.7 1.5-1 2.2s-0.9 1.4-1.2 2c-0.5 0.7-1.2 1.2-1.7 1.7-0.3 0.3-0.7 0.5-0.9 0.9-0.3 0.2-0.7 0.3-0.9 0.5-0.5 0.3-1 0.7-1.5 0.9-1 0.3-1.9 0.5-2.9 0.9-0.3 0-0.9 0.2-0.9-0.5 0-0.9-0.2-1.5-0.2-2.4 0-0.7 0-1.2 0.2-1.9 0.2-1.2 0.3-2.4 0.5-3.4 0.2-0.9 0.3-1.7 0.5-2.6 0.3-1 0.2-2 0.3-3.1 0-0.3 0-0.9 0.2-1.2 0-0.7 0.2-1.2 0.2-1.9s-0.2-1.4-0.3-1.9c-0.2-0.7-0.2-1.4-0.3-2 0-0.3-0.2-0.7-0.3-1-0.3-0.9-0.9-1.7-1.4-2.6s-1-1.7-1.7-2.2c-1-0.7-2-0.9-3.4-0.7-1 0.2-2 0.3-2.9 0.9-0.7 0.5-1.5 1-2 1.7l-1.7 1.7c-0.7 0.5-1 1.4-1.5 2-0.5 0.7-0.9 1.4-1.2 2l-0.5-0.5c-0.5-0.7-0.9-1.4-1.5-1.9-0.5-0.5-1-0.7-1.5-0.9-1-0.3-2.2-0.7-3.4-0.9-0.5-0.2-1.2 0-1.7 0-1 0-2 0.3-2.9 0.7-0.5 0.2-0.9 0.5-1.4 0.7s-1 0.3-1.5 0.7c-1 0.9-2.2 1.7-3.2 2.7-0.9 0.9-1.5 1.9-2.2 2.7-0.5 0.7-0.9 1.5-1.4 2.2-0.3 0.7-0.5 1.4-0.9 1.9-0.2 0.5-0.5 1-0.5 1.5-0.2 0.9-0.3 1.7-0.5 2.6s-0.2 1.7-0.3 2.6v3.4c0 0.3 0.2 0.5 0.2 0.9 0.2 0.5 0.2 1 0.3 1.4 0.2 0.7 0.3 1.5 0.7 2.2 0.5 0.9 1 1.9 1.7 2.6 0.7 0.9 1.4 1.7 2.2 2.6 0.7 0.7 1.5 1 2.4 1.5 1.2 0.9 2.6 1 3.6 1 0.9 0 1.9-0.5 2.7-1 0.9-0.5 1.4-1 2.2-1.5 1.4-1 2.4-2.2 3.4-3.4 0.7-0.7 1.2-1.4 1.7-2.2 0.3-0.5 0.5-1 0.7-1.5 0.2-0.3 0.5-0.7 0.7-1.2s0.3-1 0.7-1.5c0.2-0.5 0.3-1 0.7-1.5 0.7-1 0.7-2 0.9-3.1v-0.3l0.2 0.2c0.2-0.5 0.2-1 0.3-1.5 0.2-0.5 0.5-1.2 0.9-1.7 0.2-0.3 0.3-0.7 0.3-0.9s0-0.3 0-0.3c0-0.2 0-0.3 0.2-0.3 0.2-0.2 0.3-0.3 0.3-0.5 0.2-1.2 0.9-2 1.4-2.9 0.7-1 1.4-1.9 2.2-2.7 0.3-0.5 0.9-0.9 1.2-1.2 0.3-0.5 1.2-0.7 1.9-1 0.2 0.7 0.2 1.2 0.2 1.7 0.2 1.4 0 2.9-0.3 4.1-0.2 1-0.5 2-0.7 3.1-0.2 0.9-0.3 1.7-0.5 2.6-0.2 1.2-0.3 2.2-0.3 3.4 0 1 0 2 0.2 3.2 0.3 1.5 0.3 3.1 1.4 4.3 0.2 0.3 0.5 0.7 0.7 1 0.5 1.5 1.9 2.4 3.1 3.1 0.9 0.5 1.9 0.5 2.7 0.5 1.4 0.2 2.7-0.3 3.9-0.7 1.5-0.5 3.2-1.2 4.3-2.4 1-0.9 1.9-2 2.7-3.1 0.2-0.3 0.3-0.7 0.5-0.9s0.5-0.2 0.5 0c0.9 1.4 1.7 2.7 2.7 3.9 0.2 0.2 0.5 0.2 0.9 0.3v-0.2c0.5 0.3 0.9 0.7 1.4 1 0.9 0.7 1.5 0.9 2.4 0.2 0.3-0.2 0.7-0.2 0.9-0.3 0.3-0.3 0.5-0.9 0.7-1.4 0-0.2 0.2-0.3 0.2-0.5-0.2-0.5-0.2-1-0.5-1.5-0.8-0.2-1.3-0.7-1.7-1.2zm-37.9-11.8c-0.7 1-0.7 2.2-1.4 3.4-0.7 1.4-1.4 2.7-2 3.9-0.3 0.5-0.7 1.2-1 1.7l-1 1s-0.5 0.7-0.7 1c-0.2 0.5-1 0.5-1 1.2 0 0.2-0.3 0.2-0.7 0.3-0.7 0.3-1.2 0.9-1.9 1.2-0.2 0.2-0.3 0-0.5 0.2-0.9 0.5-1.9 0.3-2.9 0-0.2 0-0.3-0.5-0.7-0.5-0.7-0.2-0.5-0.9-0.9-1.2-0.2-0.5-0.2-1-0.3-1.5v-1c0-1.4 0.3-2.6 0.7-3.6 0.2-0.5 0.3-1.2 0.5-1.7s0.7-1.2 0.9-1.7 0.5-0.9 0.7-1.4c0.3-0.5 0.9-1.2 1.2-1.7l0.5-0.5c0.7-0.9 1.7-1.4 2.6-1.9s1.9-1 2.9-1.4c0.5-0.2 1-0.2 1.5-0.2 0.9 0.2 1.7 0.5 2.6 0.9 0.5 0.2 1 0.5 1.5 0.9-0.2 0.8-0.2 1.8-0.6 2.6z" fill="#4E9934"/>
	<path d="m859.6 277c-0.3-0.3-0.3-0.7-0.5-1.2 0-0.2 0.2-0.3 0.2-0.5-0.2 0-0.3 0-0.3-0.2-0.3-0.7-0.9-0.5-1.4-0.5-0.9-0.2-1.4 0.3-2 0.5-1.4 0.3-2.7 0.5-3.9 0.7h-1.2c-0.9 0.2-1.9 0.5-2.7 0.5-1.5 0.2-3.1 0-4.4 0-0.5 0-1 0.2-1.5 0.2 0.2-1.2 0.2-2.2 0.3-3.2 0-1 0.2-2.2 0.2-3.2 0-0.9 0-1.7 0.2-2.6 0-1.9 0.3-3.6 0.2-5.5 0-0.9-0.3-2-1-2.7-0.2-0.3-0.5-0.5-0.7-0.9-0.2-0.3-0.2-0.9-0.7-0.9 0 0-0.2 0-0.2-0.2-0.2-0.2-0.5-0.3-0.7-0.3-0.5 0-1.2 0.2-1.7 0.3-0.3 0.7-0.7 1.4-0.9 2-0.3 1-0.7 2-0.9 3.1-0.2 0.9-0.3 1.9-0.5 2.7-0.2 1.2-0.5 2.4-0.9 3.4-0.3 1.5-0.9 3.1-1.2 4.6-0.2 1.2-0.3 2.6-0.5 3.8-0.9 0-1.5-0.2-2.4-0.2-1.5 0-2.4 0.2-2.6 2 0 0.2-0.3 0.5-0.2 0.7 0 0.3 0.2 0.9 0.2 1.2v0.5c0.7 1 1.4 1.9 1.9 2.7h0.7c0.3 0.2 0.7 0.3 0.9 0.7 0.2 0.2 0.3 0.3 0.3 0.5v1.4 4.9c0 0.2 0.2 0.3 0.2 0.5-0.2 0.3-0.5 0.7-0.7 1.2-0.5 1-1.2 1.9-2 2.7-0.3 0.3-0.9 0.7-1.2 1.2-0.9 0.9-1.9 1.4-2.7 2-0.3 0.2-0.7 0.3-0.9 0.5-0.3 0.2-0.7 0.3-1 0.5-0.7 0.2-1.4 0.2-2 0.3-0.3 0.2-0.5 0-0.7 0s-0.5 0.2-0.7 0.2c-0.5 0-0.9-0.2-1.4-0.3-0.5-0.2-1.2-0.2-1.7-0.2-0.3 0-0.5-0.2-0.7-0.3-0.3-0.3-0.9-0.9-1-1.4-0.3-0.7-0.5-1.4-0.5-2s0-1.4 0.2-2c0.2-0.9 0.2-1.5 0.3-2.4 0.2-1 0.3-2 0.5-2.9v-0.2c0.3-0.7 0.5-1.4 0.7-2.2 0.2-0.5 0.2-1 0.3-1.7 0-0.3 0.2-0.7 0.3-0.9 0.3-0.7 0.7-1.5 0.5-2.4-0.2-1-0.5-1.9-0.9-2.7-0.5-1.2-1.4-2.2-2.6-2.7-0.7-0.3-2 0.2-2.2 0.9-0.3 1-0.7 2-1.2 3.1-0.2 0.3-0.2 0.7-0.3 1-0.2 0.5-0.3 1-0.3 1.5-0.2 0.9-0.5 1.5-0.7 2.4-0.2 0.7-0.3 1.5-0.5 2.2-0.2 1.4-0.5 2.6-0.7 3.8-0.2 1-0.2 2-0.2 3.1 0.2 1.4 0.2 2.9 0.5 4.1s0.9 2.2 1.4 3.2c0.3 0.7 0.7 1.5 1.5 1.9 0.3 0.2 0.5 0.3 0.7 0.7 0.2 0.5 0.9 0.5 0.9 1 0 0.2 0.3 0.2 0.5 0.3 0.9 0.5 1.4 1.2 2.2 1.5 0.5 0.2 1 0.3 1.4 0.7 0.5 0.5 1.2 0.5 1.9 0.5 1.4 0.2 2.6 0.2 3.8 0 0.5 0 0.9-0.2 1.4-0.3 0.3 0 0.5-0.2 0.9-0.3h0.5c0.9-0.3 1.7-0.7 2.6-1.2 0.5-0.3 1-0.7 1.5-1 0.7-0.5 1.2-1 1.7-1.7 0.5-0.5 1.2-1 1.7-1.5 0.3-0.3 0.9-0.9 1.4-1.2 0.5 0.7 0.9 1.4 1.2 1.9 0.2 0.3 0.5 0.9 0.9 1 0.5 0.2 0.9 0.5 1.2 0.7l0.5 0.5c1 0.9 2 1.9 3.4 2.2s2.6 0.7 3.8 0.9c0.9 0 1.5-0.3 2.4-0.5 0.7-0.2 1.2-0.5 1.7-0.9 0.5-0.3 1-0.7 1.4-1.2 0.2-0.2 0.3-0.3 0.3-0.5 0.2-0.3 0-0.9 0.3-1 0.9-0.7 0.3-1.9 1-2.6-0.3-0.5-0.3-0.9-0.3-1.4 0-0.7-0.5-1.4-0.9-2l-0.2-0.2c-0.2 0-0.3 0.2-0.5 0.2v-0.9c-0.3 0.2-0.9 0.2-1.2 0.3h-0.2v0.2h-0.7l-0.7 0.7c-0.2 0.2-0.5 0.3-0.7 0.5-0.5 0.2-1 0.5-1.5 0.5-0.9 0.2-1.9 0.3-2.7 0.2-0.7 0-1.5-0.2-2-0.7-0.7-0.5-1.2-1.4-1.7-2-0.3-0.5-0.5-1-0.5-1.7-0.2-0.9-0.3-1.5-0.3-2.4s0.3-1.5 0.7-2.2c0.2-0.3 0.3-0.7 0.5-0.9 0.2-0.5 0.2-0.9 0.3-1.4 0.3-1 0.5-2 0.7-3.1 0-0.3 0-0.9 0.2-1 0.2-0.3 0.5-0.5 1-0.2 0.9-0.2 1.9-0.3 2.7-0.5 1.2-0.2 2.6 0 3.6-0.2 1.2-0.3 2.4-0.2 3.4-0.3 0.9-0.2 1.7-0.2 2.4-0.3 0.7-0.2 1.2-0.3 1.9-0.5s1.2-0.5 1.9-0.7c0.3-0.2 0.7-0.3 1-0.5 0.3-0.3 0.9-0.5 1-1 0.3-0.3 0.3-1 0.5-1.5 0-0.2 0-0.7-0.2-1-0.5 0.5 0 0.2-0.4-0.3z" fill="#4E9934"/>
	<path d="m601.1 266.2c0.3-1.4 0.9-2.7 1.2-3.9s0.9-2.7 1.2-4.1c0.2-1.2 0.7-2.4 0-3.4-0.2-0.3-0.5-0.9-0.5-1.2 0-0.5-0.7-0.7-0.7-1 0-0.5-0.2-0.7-0.7-0.9-0.3-0.2-0.7-0.3-1-0.7-0.7-0.5-1.7-0.2-2 0.5-0.3 0.9-0.9 1.5-1.2 2.4-0.2 0.5-0.2 1.2-0.3 1.7-0.2 0.5-0.2 1-0.3 1.4-0.3 0.9-0.7 1.7-1 2.7-0.5 1.2-1 2.2-1.4 3.4-0.2 0.7-0.3 1.4-0.5 1.9-0.2 0.3-0.3 0.7-0.5 1.2s-0.3 1-0.3 1.5c-0.2 0.3-0.7 0.7-0.3 1.2h-0.2c-0.2 0.2-0.2 0.5-0.3 0.7-0.3 0.7-0.5 1.4-0.9 2-0.2 0.3-0.5 0.7-0.9 1-0.5 0.5-1.2 1-1.7 1.5-0.3 0.3-0.9 0.5-1.4 0.9-0.7 0.5-1.5 1.2-2.2 1.5-0.9 0.5-1.9 1.2-2.9 1.5-1.2 0.3-2.4 0.7-3.4 0.9s-2-0.2-3.1-0.2-1.7-0.5-2.4-1.5c-0.5-0.7-0.9-1.5-0.9-2.4s-0.3-1.7-0.5-2.7c0-0.3 0.2-0.9 0.2-1.4-0.2-0.7 0-1.4 0-2.2 0.2-1.5 0.2-3.1 0.3-4.3 0-0.2 0.2-0.5 0-0.7-0.2-0.3 0.2-0.3 0.2-0.3v-0.9c0-0.7 0.2-1.4 0-2.2 0-0.7-0.3-1.4-0.5-2s-0.5-1.4-0.9-1.9c-0.5-0.7-1.4-1.2-1.9-1.9-0.7-0.7-2-0.7-2.6 0-0.5 0.7-0.7 1.4-0.7 2 0 0.3-0.2 0.9-0.2 1.2 0 0.5 0.2 1 0.2 1.5 0 1.4-0.2 2.7-0.2 3.9s-0.2 2.4 0 3.4c0 2 0 4.1 0.2 6.1 0.3 2.2 0.9 4.1 1.9 6.1 1 1.7 2 3.2 3.4 4.3 0.9 0.7 1.7 1.2 2.7 1.5 0.7 0.3 1.4 0.3 2.2 0.5 0.7 0.2 1.2 0.3 1.9 0.3s1.4 0 2-0.2h1.2c0.9-0.2 1.5-0.5 2.4-0.9 0.7-0.2 1.4-0.5 2.2-0.9 0 0.2 0.2 0.3 0.2 0.3-0.5 0.5-0.2 1.2-0.9 1.9-0.3 0.3-0.5 1.2-0.7 1.7-0.2 0.3-0.2 0.5-0.2 0.9-0.3 1.2-0.9 2.4-1.2 3.4-0.2 0.7-0.2 1.4-0.3 2-0.2 0.7-0.3 1.5-0.5 2.2s-0.2 1.2-0.3 1.9c-0.2 0.9-0.3 1.7-0.5 2.6 0 0.5 0 0.9-0.2 1.4-0.2 0.9-0.3 1.7-0.5 2.4v3.8c0 0.2 0 0.5 0.2 0.7 0.3 0.7 0.9 1.4 1.4 2 0.2 0.3 0.3 0.7 0.7 0.9 0.5 0.3 1.2 0.3 1.9 0.5 0.3 0 0.7 0.2 0.9 0.2 0.5-0.2 0.9-0.5 1.2-0.9 0.3-0.3 0.7-0.7 0.5-1.2 0-0.2 0-0.3 0.2-0.3 0.5-0.9 0.5-1.9 0.3-2.9 0-0.3-0.3-0.9-0.2-0.9 0.5-0.2-0.3-0.7 0.2-1-0.5-0.5 0-1.2 0-1.7s0.2-1.2 0.2-1.7 0-1.2 0.2-1.7c0.2-1.2 0.5-2.2 0.9-3.4v-0.3c0.2-0.5 0.3-1 0.5-1.5 0.2-0.7 0.3-1.4 0.7-2 0.2-0.7 0.5-1.4 0.7-2.2 0.2-0.7 0.3-1.5 0.7-2.2 0.2-0.3 0.3-0.7 0.3-1 0.3-0.9 0.7-1.5 1-2.4 0.3-0.7 0.5-1.4 0.9-2 0.2-0.7 0.5-1.4 0.7-1.9 0.2-0.3 0.2-0.7 0.3-1 0.2-0.5 0.5-0.9 0.9-1.4 0.3-1.2 0.7-2.4 1.2-3.4 0.2-0.3 0.3-0.9 0.5-1.2s0.3-0.7 0.3-1.2c0-0.2 0-0.5 0.2-0.7 0.5-1 1.2-2 1.7-3.1 0.5-0.2 0.6-1.3 1-2.5z" fill="#4E9934"/>
	<path d="m971.6 302.9c0-0.2 0-0.5-0.2-0.7-0.5-0.9-1-1.7-1.9-2.2l-0.5-0.5c-0.3-0.2-0.7-0.5-0.9-0.5-0.5 0-1.2 0.2-1.5 0.7-0.5 0.7-1.5 1.2-1.5 2.4 0 0.9-0.2 1.7 0 2.6 0.2 0.3 0.2 0.7 0.3 1 0.2 0.3 0.5 0.9 0.9 1.2 0.3 0.3 0.9 0.9 1.4 1s1 0.2 1.7 0.2c1.4 0.3 2.4-0.5 2.4-1.7-0.2-1.2-0.2-2.3-0.2-3.5z" fill="#4E9934"/>
	<path d="m562.3 302.9c0-0.2 0-0.5-0.2-0.7-0.5-0.9-1-1.7-1.9-2.2l-0.5-0.5c-0.3-0.2-0.7-0.5-0.9-0.5-0.5 0-1.2 0.2-1.5 0.7-0.5 0.7-1.5 1.2-1.5 2.4 0 0.9-0.2 1.7 0 2.6 0.2 0.3 0.2 0.7 0.3 1 0.2 0.3 0.5 0.9 0.9 1.2 0.3 0.3 0.9 0.9 1.4 1 0.5 0.2 1 0.2 1.7 0.2 1.4 0.3 2.4-0.5 2.4-1.7-0.2-1.2-0.2-2.3-0.2-3.5z"/>
	<path d="m818.3 270c0.3 0.2 0.9 0.3 1.2 0 0.2-0.2 0.5-0.3 0.9-0.3h0.7l-0.2-0.2c0.3-0.5 0.7-1.2 0.9-1.7h0.3c-0.2-0.3-0.5-0.7-0.7-1l-0.2-0.2c-0.2-0.9-0.5-1.7-1.2-2.4-0.3-0.3-0.9-0.9-1.2-1-0.9-0.5-1.4 0.2-2 0.5-0.9 0.5-1 1-1 1.9 0 0.3-0.2 0.9-0.2 1.2 0 0.5 0 1 0.2 1.5 0.8 0.7 1.5 1.4 2.5 1.7z" fill="#4E9934"/>
	<path d="m448.2 284.7c0.3-0.2 0.7-0.3 0.2-0.7-0.2-0.2 0.2-0.5 0.2-0.9 0-0.7 0-1.5 0.2-2.2 0.2-1.2 0.9-2 1.7-2.6 0.7-0.3 1.5-0.3 2.2 0.2 0.7 0.3 1.2 1 1.7 1.5 0.2 0.2 0.3 0.2 0.5 0.3 0.2 0.2 0.5 0.3 0.5 0.5 0 1.7 0.2 3.4 0 4.9-0.2 1.4-0.2 2.7-0.5 3.9-0.2 1.2-0.3 2.2-0.3 3.4 0 0.7-0.3 1.4-0.3 1.9 0 0.3 0.2 0.9 0.2 1.2v0.2 0.5c-0.2 0.3-0.3 0.7-0.3 1 0 1.2 0 2.4-0.2 3.4-0.3 1.7-0.3 3.4-0.3 5.1 0 0.3-0.2 0.5-0.3 0.7 0 0.3 0.2 0.7 0.2 1-0.2 0.7-0.3 1.5-0.3 2.2-0.2 1.2-0.2 2.4-0.5 3.4-0.3 0.9-0.2 1.7-0.2 2.4-0.2 0.5-0.3 1.2-0.5 1.7 0 0.3-0.2 0.5-0.2 0.9-0.2 1-0.5 2-0.7 3.1-0.2 0.9-0.7 1.5-0.9 2.4-0.2 0.3-0.3 0.7-0.3 1.2-0.2 1.4-0.9 2.4-1.5 3.4-0.3 0.7-0.7 1.4-1 2 0 0.2 0 0.2-0.2 0.3-0.7 0.5-0.9 1.2-1.2 1.7-0.3 0.7-0.7 1.5-1.2 2-0.7 0.9-1.4 1.4-2 2.2-0.5 0.5-0.7 1.2-1.2 1.7-0.3 0.3-0.7 0.5-1 0.9-0.2 0.2-0.3 0.2-0.5 0.3-0.5 0.5-0.9 1-1.7 1-0.5 0-1 0.5-1.5 0.9h-0.5c-0.5 0-1 0-1.5 0.2s-1 0.3-1.5 0.5c-0.2 0-0.2-0.2-0.3-0.2-0.2-0.2-0.5-0.2-0.7-0.3-1.4-0.2-2.7-0.3-3.6-1.5 0 0-0.2 0-0.2-0.2-0.5-0.2-0.9-0.5-1.2-0.9-0.3-0.5-0.9-0.7-1.4-1.2-1-1-1.9-2-2.4-3.2-0.2-0.5-0.5-0.9-0.7-1.4 0-0.2 0.2-0.9 0.3-1 0.2-0.9 1-2.6 1.2-2.4 0-0.3 1.4 0 1.4 0.7 0.3 0.5 0.7 0.7 1 1.2 0-0.2 0.2-0.3 0.2-0.3 0.7 0.7 1.2 1.4 1.7 1.9 0.9 0.7 1.5 1.5 2.7 1.5 0.3 0 0.9 0.3 1 0.2 0.5-0.2 0.9 0 1.2-0.2s0.9-0.3 1.2-0.5c0.5-0.3 1.2-0.7 1.7-1.2 0.7-0.7 1.4-1.4 1.9-2.2 0.9-1 1.4-2.2 2.2-3.1s1.4-2 1.9-3.1c0.5-1 1-1.9 1.4-2.9 0.2-0.5 0.2-1.2 0.3-1.7 0.2-0.5 0.3-1 0.5-1.5 0.2-0.7 0.3-1.4 0.5-2 0.2-0.9 0.5-1.9 0.7-2.7 0.2-0.7 0-1.5 0.2-2 0.5-0.9-0.3-2 0.5-2.9 0 0 0-0.5-0.2-0.7s-0.5 0-0.7 0c-0.9 0.9-1.9 0.9-2.7 1.4-1 0.5-2 0-3.1 0-0.7 0-1.4-0.5-1.9-0.9-0.3-0.2-0.7-0.3-0.9-0.3-0.5-0.2-1.2-0.3-1.5-0.7-0.9-0.9-1.7-1.7-2.6-2.7-0.5-0.5-1-1-1.4-1.7-0.3-0.5-0.7-1.2-1-1.9-0.3 0.5-0.7 1.2-1 1.9v0.2c-1.4 1.4-2.7 2.7-3.9 3.8-0.7 0.5-1.5 0.9-2.4 1.4-1.2 0.5-2.4 0.5-3.4 0.3-0.5 0-1.2-0.3-1.7-0.7-0.5-0.3-1.2-0.5-1.7-0.9-0.3-0.2-0.7-0.3-0.9-0.7-0.5-0.3-1-0.9-1.5-1.4-0.3-0.3-0.7-0.9-1-1.4-0.3-0.7-0.9-1.2-1.2-1.9-0.9-1.5-1.5-3.1-2.2-4.3-0.2-0.3-0.7-0.7-0.5-1.2 0-0.3-0.2-0.9-0.3-1.2-0.2-0.3-0.3-0.7-0.3-1 0-0.2-0.2-0.3-0.2-0.3 0-0.3 0-0.9-0.2-1.2-0.2-0.7-0.3-1.4-0.5-1.9 0-0.2 0-0.5 0.2-0.7 0 0-0.2 0-0.2-0.2-0.3 0.5-0.9 0.9-1 1.4-0.5 1-0.7 2.2-1.2 3.2s-0.7 2.2-1 3.4c-0.2 0.5-0.5 1.2-0.9 1.7 0 0.2-0.2 0.3-0.2 0.3 0 0.9-0.2 1.5-0.7 2v0.5c0 0.5-0.2 1-0.5 1.5-0.2 0.3-0.2 0.7-0.3 1-0.5 0.7-0.2 1.5-0.9 2.2-0.2 0.2-0.3 0.5-0.3 0.7-0.2 0.5-0.9 0.7-1.2 0.9-0.7 0.3-1.4-0.2-2-0.3-1-0.3-1.4-1-1.7-1.9 0-0.2-0.3-0.2-0.3-0.3-0.3-0.9-0.7-1.5-0.9-2.4-0.2-0.5 0-1.2 0-1.7s0.3-1-0.2-1.4c-0.3-0.2 0.2-0.5 0.2-0.9-0.2-0.7 0-1.4 0-2.2 0-1.5-0.2-3.1 0.2-4.3 0.3-1.4 0-2.6 0.3-3.6s0.3-2 0.3-3.1c0-0.7 0.5-1.4 0.7-1.9v-0.9c0-0.5-0.2-1 0.3-1.5 0.3-0.2 0.3-0.9 0.3-1.4 0.2-1 0.3-2 0.5-3.1 0-0.3 0.2-0.7 0.3-1 0.3-1.4 0.7-2.7 0.7-3.9 0-0.5 0.3-1 0.5-1.4 0.2-0.3 0.2-0.5 0.2-0.9 0.2-0.9 0.3-1.5 0.5-2.4 0.2-0.7 0.2-1.5 0.3-2.2 0-0.2 0.2-0.3 0.2-0.5 0.2-0.3 0.2-0.7 0.3-1 0.2-0.5 0.2-0.9 0.2-1.4 0-0.3-0.2-1 0.3-1.2v-0.2c0.2-0.7 0.2-1.4 0.3-2 0-0.5-0.2-1 0.3-1.4v-0.3c0.2-1.2 0.3-2.4 0.5-3.4s0.2-2.2 0.3-3.2c0.2-0.9 0.3-1.9 0.3-2.7 0-0.3-0.2-0.7-0.2-1 0-0.2-0.2-0.2 0-0.2 0.2-1-0.2-2-0.2-3.1 0-0.2 0-0.2-0.2-0.3-0.7-0.7-0.5-1.5-0.2-2.2 0.3-0.5 0.3-1 0.7-1.5 0.9-0.9 1.9-1 3.1-0.3 0.3 0.2 0.5 0.3 0.9 0.5 0.2 0 0.2 0 0.3 0.2 0.5 0.7 0.9 1.4 1.4 2 0.2 0.3 0.3 0.7 0.3 1 0 0.9 0.7 1.7 0.2 2.7-0.2 0.3 0.2 0.9 0.2 1.4 0 1.2 0 2.6-0.2 3.6s-0.5 1.9-0.7 2.9c-0.2 0.7-0.2 1.4-0.2 2 0 0.9 0 1.7-0.3 2.4-0.3 1-0.5 2.2-0.7 3.2-0.3 1.2-0.5 2.6-0.7 3.6 0 0.5-0.5 1-0.7 1.5 0 0.9-0.2 1.7-0.3 2.7-0.2 0.7 0 1.5-0.3 2.2-0.3 1-0.7 2-0.7 3.2 0 0.7-0.2 1.4-0.5 1.9-0.2 0.3-0.2 0.7-0.2 1-0.2 1-0.5 2-0.7 3.1v0.5c0 0.5 0 0.9-0.3 1.4-0.3 0.7-0.3 1.5-0.2 2.6 0.3-0.5 0.7-1 0.9-1.7 0.3-0.9 0.9-1.5 1.2-2.4 0.3-0.7 1-1.2 1.2-2 0.3-1.2 1.4-1.9 2-2.7 0.3-0.3 1.9-0.5 2.2-0.2 0.5 0.3 0.9 0.7 1.4 0.9 1 0.5 1.7 1.4 2 2.6 0 0.2 0.2 0.5 0.3 0.7 0.2 0.7 0.3 1.4 0.5 2 0 0.3 0.2 0.5 0.2 0.9v0.7c-0.2 0.7-0.2 1.4 0.2 2.2 0.2 0.5-0.2 1.2 0 1.9 0.2 1.4 0.5 2.6 0.7 3.6 0.2 0.7 0.2 1.4 0.5 2 0.2 0.7 0.5 1.5 0.7 2.2s0.5 1.4 0.9 1.9c0.5 0.9 1 1.9 1.9 2.4 0.5 0.3 0.9 0.5 1.4 0.9 0.2 0 0.5 0 0.7-0.2 1.7-0.7 3.1-1.9 4.3-3.1 0.7-0.7 1-1.5 1.5-2.4 0-0.2 0.2-0.2 0.2-0.3 0.3-0.5 0.9-1 1-1.5 0.3-0.7 0.5-1.5 0.9-2.4 0.5-0.9 0.5-1.7 0.7-2.6 0.2-0.5 0.5-1 0.7-1.5v-0.7c0.2-1.4 0.3-2.9 0.5-4.1 0-0.5 0-1.2 0.3-1.5 0.3-0.5 0.2-1 0.3-1.4 0.2-0.9 0.2-1.7 0.5-2.6 0.2-0.5 0.7-0.9 1-1.2 0.3-0.5 0.9-0.5 1.5-0.5 1.4-0.2 2.2 0.7 3.2 1.5 0.7 0.5 0.9 1.2 0.9 1.9 0 0.3 0.2 0.7 0.2 1.2 0 0.3-0.2 0.7-0.3 1 0 0.2-0.2 0.2-0.2 0.2-0.2 0.9-0.2 1.7-0.3 2.6 0 0.3-0.2 0.5-0.3 0.7 0 0 0 0.2-0.2 0.2-0.2 1.4-0.3 2.7-0.5 3.9s-0.3 2.6-0.3 3.8c0 0.9 0 1.9 0.2 2.7 0.3 1.5 0.7 3.1 1.5 4.3 0.7 1.4 1.9 1.7 3.2 1.9 1 0 1.9-0.9 2.6-1.4 1.2-0.9 2-2 2.7-3.4 0.5-0.9 1.2-1.9 1.2-3.1 0-0.7 0.5-1.4 0.7-2v-0.5c0-1.2 0-2.2 0.2-3.4 0.2-1.4 0.3-2.9 0.3-4.1 0-0.3 0.2-0.7 0.2-1-1.2 1.7-1.2 1.7-1.2 1.6z"/>
	<path d="m549.2 306.3c-0.5 0.2-0.9 0.3-1.2 0.5-0.5 0.2-0.9 0.7-1.2 0.9s-0.7 0.2-0.9 0.3c-0.9 0-1.5 0.7-2.4 0.7-0.7 0-1.4 0.7-2.2 0.7h-0.5c-0.2 0-0.2-0.2-0.3 0-1.4 0.9-2.7 0.3-3.9 0.3-0.9 0-1.9-0.3-2.7-0.9-0.9-0.3-1.4-0.9-1.9-1.4-0.2-0.2-0.5-0.2-0.7-0.3-0.9-0.7-1.5-1.7-1.7-2.9-0.2-0.7 0-1.5-0.3-2-0.3-0.7-0.3-1.4-0.2-2 0.2-1.5 0.7-2.9 1.9-3.6 0.2-0.2 0.7 0 1 0 0.2 0 0.3-0.2 0.2-0.2 0.7 0.2 1.2 0.3 1.7 0.5 0.2 0.5 0 1.2 0.3 1.5 0.9 0.7 0.5 1.5 0.9 2.2 0.3 0.7 0.9 0.7 1.5 1 1 0.5 1.9 0.2 2.9 0.2 0.7-0.2 1.4-0.2 2-0.3 0.3-0.2 0.9-0.3 1.2-0.5l0.2-0.2c0.7 0.2 1.2-0.3 1.9-0.5 0.5-0.2 1-0.5 1-0.9 0-0.3-0.5-0.9-0.9-1-0.5-0.3-1.2-0.7-1.9-0.9-1-0.3-2-0.7-3.2-1.2-0.5-0.2-1-0.7-1.7-1-0.5-0.3-1.2-0.5-1.7-0.9l-0.5-0.5c-0.5-0.5-1.2-0.9-1.7-1.4-0.9-0.7-1.7-1.5-2.4-2.4-0.5-0.7-1-1.5-1.2-2.4-0.3-1-0.3-2.2-0.3-3.2 0-0.2 0.2-0.5 0.2-0.7s0.2-0.2 0.2-0.3c-0.2-1.5 0.2-2.4 1-3.6 0.3-0.7 0.7-1 1.4-1.2 0.5-0.2 1-0.7 1.5-0.9 0.3-0.2 0.7-0.2 1-0.2 0.7-0.2 3.4-0.3 4.1-0.2 1.4 0 3.1 0.7 4.1 1.2 1 0.3 1.7 1.2 2.6 2 0.9 0.9 1.7 1.9 2.4 2.9 0 0.2 0.3 0.2 0.3 0.2 0.7 1.4 1.5 2.7 1.4 4.1-0.2 0.2-0.5 0.2-0.9 0.3l0.3 0.3c-0.3 0.3-0.7 0.7-1 0.9-0.3 0.3-0.9 0.7-1.4 0.2-0.3-0.3-0.7-0.5-1.2-0.5-0.7 0-0.9-0.5-1.2-0.9-0.3-0.5-0.9-0.9-1.4-1.2-0.2-0.2-0.5-0.2-0.7-0.5-0.7-0.9-1.5-1-2.2-1.5s-1.5-0.2-2.2-0.7c-0.5-0.3-1 0.5-1.7 0.7-0.2 0-0.5 0.3-0.2 0.7 0.5 0.3 0.9 0.9 1.4 1.4 0.2 0.2 0.2 0.2 0.3 0.2 0.7-0.2 1 0.3 1.5 0.9 0.7 0.7 1.5 0.9 2.4 1.4 1 0.5 2 1.2 3.1 1.7 0.5 0.3 1 0.5 1.4 0.9 1.4 0.9 2.4 1.7 3.4 3.1 0.9 1 1.5 2 2 3.2 0.3 0.7 0.9 1.7 0.2 2.6v0.3c0.2 0.7-0.2 1.4-0.5 2-0.2 0.3-0.2 0.7-0.3 1-0.5 1-1 1.9-1.9 2.6-0.5-0.7-0.5-0.6-0.5-0.6z"/>
	<path d="m462.8 292.9s2-0.3 2 0.9v0.3c0.3 0.2 0.7 0.5 0.7 0.5-0.2 1.2-0.9 2-1.5 2.9 0 0.2 0 0.3-0.2 0.3l-0.2 0.2c0 0.3 0.3 0.7 0.2 1-0.2 0.9 0.2 1.7 0.5 2.6 0.2 0.3 0.3 0.7 1 0.9 0.5 0.2 0.9 0.7 1.5 0.7 0.5 0 1 0.2 1.5 0.2 0.3 0 0.5 0 0.9-0.2 0.3 0 0.9-0.2 1.2-0.3 0.7-0.2 1.4-0.5 2-0.7 0.3-0.2 0.7-0.5 0.9-0.7l0.3-0.3c0.5 0 0.7-0.3 0.7-0.9 0-0.5-0.2-0.7-0.5-1-0.5-0.5-1-1.2-1.5-1.5-1.2-0.9-2-2.2-3.4-2.6-0.2 0-0.3-0.2-0.3-0.3-0.7-0.9-1.9-1.2-2.7-1.7-0.5-0.3-1.2-0.5-1.5-1.2-0.3-0.5-0.9-0.7-1.4-1l-0.5-0.5c-0.5-0.3-1-0.7-1.4-1.2-0.9-0.7-1.4-1.5-1.5-2.6-0.2-0.5-0.5-1-0.7-1.4-0.2-0.7-0.2-1.5 0-2.2 0-0.7 0.2-1.4 0.3-2 0.2-0.7 0.5-1.2 1-1.7 0.7-0.7 1.5-1.4 2.2-1.9 0.5-0.3 1.4-0.3 2-0.7 0.7-0.2 1.4-0.3 2.2-0.5h0.7c0.3 0 0.7-0.2 1.2-0.2h0.5c1.2 0.2 2.2 0.5 3.4 0.7 0.2 0 0.2 0.2 0.3 0.2 0.2 0.2 0.2 0.3 0.2 0.3 1.2 0.2 2.2 1.4 2.6 2.4 0.3 0.9 0.3 1 0.7 1.9 0.2 0.5 0.2 1.2 0.3 1.7 0 0.3-0.2 0.7-0.2 1 0.2 0-0.7 1.7-1 2.6 0 0.2-0.2 0.3-0.3 0.5-0.2 0.2-0.3 0.5-0.5 0.7-0.9 0-1.9 0.3-2.4-0.5-0.5-1-1.7-2-0.7-3.4-0.5-0.5-1.2-0.7-1.9-0.3h-0.2c-0.7 0.2-1.4 0.3-2 0.3-0.3 0-0.5 0.2-0.9 0.2 0 0-0.2 0.3 0 0.5 0.5 0.7 1.4 1 1.9 1.5 0.9 1 2 1.5 3.2 2.2 1.4 0.9 2.6 1.9 3.6 2.7 1.4 0.9 2.4 2.2 3.2 3.4 0.9 1 1.4 2.2 2 3.4 0.2 0.5 0.5 0.9 0.3 1.5 0 0.7 0.2 1.2 0.2 1.9 0 0.3-0.2 0.5-0.2 0.9v0.9c0 0.3-0.2 0.7-0.3 1 0 0.2-0.2 0.3-0.2 0.3 0.2 0.7-0.3 1.4-0.7 1.5-0.7 0.5-1 1.4-1.7 1.7-0.3 0.2-0.3 0.7-0.9 0.5l-0.2 0.2c-0.7 1.2-1.9 1.4-3.1 1.9s-2.4 0.9-3.6 1c-0.9 0.2-1.9 0-2.7 0s-1.7-0.2-2.4-0.5c-0.5-0.3-1-0.5-1.5-0.9-1.2-0.7-2.4-1.4-3.2-2.7-0.5-0.9-1-1.7-1.2-2.7-0.3-1.2-1.5-4.4-1-4.9 0.2-0.2 0.3-2.2 0.5-2.9 0-0.3 0.3-0.5 0.5-0.9 0.7-0.9 1.4-1.9 2-2.6 0.9-0.8 2.1-0.6 1.9-0.4z"/>
	<path d="m516.8 303.3c0.2 0 0.3-0.2 0.5-0.2 0.9 0 1.7 0.2 2.6 0.2 0.7 0 1.5-0.2 2.2-0.3l0.2-0.2c0.9 0.5 1.7-0.2 2.7 0 0.3 0 1.2 0.7 1.5 0.7l-0.3 2c-0.2 0.2-0.3 0.5-0.5 0.7 0 0.2-0.3 0.2-0.3 0.2-0.3 0.5-0.7 0.5-1.2 0.5-0.3 0-0.7 0.3-0.7 0.5-0.2 0.3-0.3 0.5-0.9 0.5-0.9 0-1.5 0.3-2.2 0.9-0.5 0.3-1 0.5-1.5 0.5-0.9 0-1.7-0.2-2.7-0.2-0.3 0-0.7 0.2-1 0.2-1.2 0.3-2-0.3-3.1-0.9-0.9-0.3-1.5-0.7-2.4-0.9 0 0-0.2 0-0.2-0.2-0.5-0.5-1-1.2-1.7-1.7-0.5-0.5-1-0.9-1.5-1.4s-0.9-1.2-1.2-1.9-0.9-1.5-1.2-2.4c-0.2-0.3-0.3-0.9-0.3-1.2-0.2-0.7-0.2-1.5-0.5-2s0-1-0.2-1.5c0-0.5-0.3-0.9-0.2-1.4 0-1-0.2-2 0.3-3.1v-0.5c0.2-0.9 0.5-1.5 0.7-2.4 0.3-1.2 1.2-2.4 1.5-3.4 0.3-0.9 0.9-1.7 1.2-2.4 1-1.4 2-2.6 3.4-3.4 1.2-0.9 2.6-1.7 3.8-2.2 0.7-0.2 1.4-0.3 2-0.5 0.7-0.2 1.4-0.5 1.9-0.5s1 0.2 1.5 0.2c0.2 0 0.2 0.2 0.3 0.2 0.9-0.2 1.5 0.3 2 0.7 0.5 0.5 1.7 0.9 1.7 1.9 0.5 0 0.5 0.3 0.7 0.7 0.3 0.5 0.7 1.2 1 1.7 0.5 0.7 0.3 1.5 0.5 2.2 0 0.2 0.2 0.3 0.2 0.7-0.3 0.2-0.3 0.5-0.2 0.9 0.2 0.5-0.2 1.2-0.2 1.7-0.3-0.2-0.5-0.2-0.9-0.3v0.5c0 0.7-0.3 0.7-0.9 0.5-0.5-0.3-1.2-0.5-1.9-0.9-0.5-0.3-0.9-0.9-1.2-1.2-0.7-0.9-1.5-1.7-2.6-1.7-0.5 0-1 0.3-1.5 0.5s-1 0.5-1.5 0.7-0.9 0.5-1.4 1-1 0.7-1.5 1.2c-0.2 0.2-0.2 0.3-0.3 0.5-0.3 0.7-0.9 1.2-1 1.9-0.3 0.5-0.5 1.2-0.7 1.9s-0.3 1.4-0.5 1.9v0.3c0 0.5 0 1.2 0.2 1.7 0.2 1.2 0 2.2 0.7 3.4 0.3 0.9 0.7 1.7 1.4 2.2s1.2 1.2 1.9 1.5c0.2 0.2 0.7 0.2 0.9 0.3 0.5 0.2 1.2 0.2 1.7 0.3 0.2 0.6 0.5 0.8 0.9 0.8z"/>
	<path d="m498.7 298.5c0.2 0.3 0.3 0.7 0.5 1 0.3 0.5 0.9 1 0.7 1.9-0.2 0.2 0.3 0.7 0.3 1 0 0.2 0 0.2-0.2 0.3-0.2 0.3-0.7 0.7-0.2 1.2 0 0-0.3 0.7-0.7 0.7-0.5 0.2-0.9 0.3-0.9 1s-0.7 0.7-1.2 0.9c-0.3 0.2-0.5 0.3-0.9 0.3-0.9 0.2-1.5 0.5-2.4 0.5-0.7 0-1.4-0.2-2-0.3-0.7-0.2-1.2-0.5-1.7-0.9-0.5-0.3-1-0.5-1.5-1-0.7-0.5-1.2-1.2-1.9-1.7-0.5-0.5-0.9-1-1.2-1.7-0.3-0.5-0.5-1.2-0.9-1.7-0.2-0.3-0.3-0.7-0.5-1.2 0-0.2-0.2-0.2-0.2-0.3 0-0.3-0.2-0.9-0.2-1.2-0.2-1.5-0.2-2.9-0.5-4.3 0-0.5 0-0.9 0.2-1.2v-0.5-1.7c0-0.3 0.2-0.5 0.2-0.9 0.2-0.9 0.2-1.7 0.3-2.6 0-0.3 0.2-0.7 0.3-0.9 0-0.2 0-0.2 0.2-0.3 0.2-0.7 0.2-1.4 0.3-2 0-0.3 0.3-0.7 0.7-0.9 0.3-0.2 0.3-0.9 1-0.5 0.3 0.2 0.9 0 1.2-0.3 0.3-0.2 0.5 0 0.9 0 1.2 0.3 1.9 1.2 2.4 2.2 0.2 0.2 0.2 0.3 0.3 0.5 0.5 0.3 0.5 0.9 0.5 1.2 0 0.5 0 0.9-0.2 1.4-0.2 0.7-0.3 1.4-0.5 1.9 0 0.2-0.2 0.3-0.2 0.5-0.2 1.5-0.3 3.1-0.3 4.4 0 1.2 0.2 2.2 0.7 3.4 0.2 0.5 0.7 0.7 0.5 1.4 0 0.2 0.5 0.3 0.9 0.7 0.9 0.5 1.7 0.9 2.7 0.7 0.7-0.2 1.4-0.3 1.9-0.7 0.9 0 1.2-0.3 1.6-0.3z"/>
	<path d="m494.1 275.8c0-0.2 0-0.2-0.2-0.3-0.2 0.3-0.3 0.7-0.7 0.9-0.5 0.2-0.9 0.2-1.4-0.2-0.2-0.2-0.5-0.2-0.9-0.3-0.2 0-0.3-0.2-0.5-0.2-0.5-0.5-0.9-1.2-1.2-1.7-0.3-0.9-0.9-1.7-1-2.6-0.2-0.7-0.2-1.4-0.2-1.9 0-0.3 0.2-0.7 0.3-0.9 0.2-0.2 0.2-0.5 0.5-0.5 0.3-0.2 0.5-0.9 1.2-0.3 0.2 0.2 0.5 0 0.7 0 0.9-0.2 1.4 0.2 1.9 0.9 0.2 0.3 0.3 0.7 0.5 0.9 0.5 0.5 0.5 1 0.7 1.7 0.2 0.9 0.3 1.9 0.5 2.9 0 0.2 0.2 0.2 0.2 0.3 0 0.2 0.2 0.5 0 0.7 0.1-0.3-0.1-0.1-0.4 0.6z"/>
	
		<path d="m353.8 284c0.2 0.2 0.5 0.5 1.2 0.9 0.2-2.4 0.3-4.3 0.5-6.1h-0.3c-0.9 1.4-1.4 3.1-1.4 5.2z"/>
		<path d="m396.6 258.4c0.3-1 0.5-3.2 0.7-4.1s0.3-1.7 0-2.4v-0.2c0.2-1.5-1.5-5.3-2.6-6.7-3.4-4.3-6.8-4.9-7.7-5.5-0.7-0.5-1.7-0.7-2.4-1-0.5-0.3-1.2-0.3-1.5-0.5-0.5-0.2-1.2-0.5-1.9-0.7-0.9-0.2-1.5-0.3-2.4-0.5-1-0.2-2-0.3-3.1-0.3-1.5 0-2.9 0.2-4.3 0.3-0.3 0-0.9 0.2-1.4 0.3 0 0-0.3-0.2-0.5 0-1 0.3-2 0.3-3.1 0.9-0.9 0.3-1.9 0.5-2.7 0.7-1.2 0.3-2.2 0.9-3.2 1.2-0.9 0.2-1.7 0.7-2.4 1.4-0.5 0.3-1.2 0.5-1.7 0.9-1.2 1-2.2 2.2-3.4 3.2-0.2 0.2-0.5 0.3-0.7 0.5-0.3 0.5-0.5 1-0.7 1.5s-0.3 1-0.3 1.5c-0.2 1.2-0.3 2.4-0.3 3.4 0 0.7 0.2 1.5 0.7 2 0.7 0.7 1.5 1.4 2 2.2 0.2 0.2 0.7 0.5 1 0.3 0.5-0.2 0.7-1.2 1.5-1v-0.2c0.2-0.5 0.2-0.9 0.3-1.4 0.2-0.5 0.3-1 0.7-1.5 0.5-0.9 1.2-1.7 1.9-2.2 1-0.9 1.9-1.7 3.2-2 0.7-0.2 1.5-0.7 2.2-0.9 0.9-0.3 1.5-0.7 2.4-1 0.7-0.3 1.4-0.7 2.2-0.7 1.2 0 2.6-0.5 3.6-0.7 0.7-0.2 1.5 0 2.4-0.2 1.5-0.3 2.9-0.3 4.3 0.2 0.2 0 0.5 0 0.7-0.2h0.3c0.5 0.2 0.9 0.3 1.4 0.5 1.5 0.3 2.9 1.2 3.9 2.2 0.5 0.3 0.9 0.7 1.2 1.2 1 1.9 1.9 3.6 1.5 5.6-0.3 1.5-0.7 3.2-1.2 4.6-0.2 0.9-0.7 1.7-1 2.4-0.2 0.3-0.5 0.3-0.5 0.7-0.2 0.5-0.3 0.9-0.5 1.4-0.3 0.7-0.9 1.2-1.2 1.9s-0.7 1.5-1.2 2c-0.7 0.5-1 1.2-1.4 1.7 0 0 0 0.2-0.2 0.2-0.7 0.7-1.2 1.4-1.9 2-0.9 0.9-1.5 1.7-2.4 2.4-0.7 0.7-1.4 1.2-2 1.7-0.3 0.3-0.9 0.5-0.9 0.9-0.2 0.5-0.9 0.2-0.9 0.9-0.2 0.3-1 0.5-1.5 0.9-0.3 0.2-0.7 0.5-1 0.7-1 0.7-1.9 1.5-2.9 2.2-0.2 0.2-0.3 0.2-0.5 0.3-1 0.5-2.2 1.2-3.4 1.5-0.7 0.3-1.4 1-2.2 0.9l-0.2 0.2c-0.3 0.2-0.9 0.2-1 0.3 0-2.7 0.2-5.1 0.2-7.7 0 0 0 0.2 0.2 0.3v-1.9c0-1-0.2-1.9-0.2-2.9v-3.9c0-0.9-0.2-1.5-0.3-2.4-0.2-0.5-0.3-1-0.3-1.5-0.2-1-0.2-2-0.2-3.1 0-0.3-0.2-1-0.3-1.2-0.9-0.3-0.9-1.2-1.4-1.7-0.3 0-0.7-0.2-1.2-0.2-0.3 0-0.7-0.2-1 0-0.9 0.3-1 1.4-1 2-0.2 2.2 0 4.4 0 6.7v3.8c0 0.2-0.2 0.2-0.2 0.3-0.5 0.5-1.2 0.7-1.9 0.7-0.3 0-0.7 0.3-1.2 0.7-0.2 0.2-0.3 0.2-0.5 0.3-0.3 0.2-0.9 0.3-1 1-0.3 0.9-0.9 1.5-1.2 2.4-0.5 0.9-1.2 1.7-1.5 2.7-0.3 0.7-0.3 1.5-0.3 2.4 0 1.5-0.5 2.9 0.2 4.3 0.5 1.2 0.7 2.7 1.5 3.6 0.3 0.3 0.5 0.7 0.7 1 0.7 1.4 1.9 2.2 3.1 2.9 0.2 0 0.3 0.2 0.3 0.3 0 0.5-0.2 1-0.2 1.5-0.2 1.4-0.2 2.7-0.3 3.9-0.2 1.5-0.3 3.1-0.5 4.6 0 0.9-0.2 1.7 0 2.6 0.2 1 0.5 2 1 3.1 0.2 0.5 0.7 0.7 1 1.2 0.3 0.3 0.5 0.9 0.9 1.2 0.2 0.2 0.5 0.3 0.7 0.3 0.5 0 1-0.2 1.5-0.3 0 0 0-0.3 0.2-0.5 0.9-0.5 0.9-1.4 1-2 0.2-1.2 0.2-2.6 0.3-3.6 0.2-2.7 0.3-5.5 0.5-8.2 0-0.9 0.3-1.7 0.2-2.6-0.2-0.7 0.3-1 0.7-1.2 0.5-0.3 1.2-0.3 1.9-0.5 1.4-0.3 2.6-0.5 3.6-1.2 0.9-0.5 1.9-0.7 2.9-1 0.3-0.2 0.7-0.3 1-0.5 0.5-0.3 1-0.9 1.5-1 0.9-0.5 1.9-0.9 2.7-1.4 1.2-0.9 2.4-1.9 3.4-2.7 0.7-0.5 1.4-1 1.9-1.7l1.4-1.4c0.3-0.5 1-0.7 1.4-1.2 0.3-0.3 0.9-0.7 1-1 0.3-0.9 1.2-1.4 1.7-2 0.3-0.3 0.5-0.7 0.9-1.2 0.8-0.1 8.4-7.8 11.4-18zm-41.6 26.4c-0.5-0.5-1-0.7-1.2-0.9 0-2 0.5-3.8 1.4-5.3h0.3c-0.2 2-0.3 3.9-0.5 6.2z"/>
	

</svg>
