<svg width="190" height="73" viewBox="0 0 190 73" fill="none" xmlns="http://www.w3.org/2000/svg">
<path d="M130.903 50.5217C130.674 50.5217 130.446 50.5869 130.284 50.5217C129.99 50.4239 129.73 50.5217 129.437 50.5217C129.046 50.5217 128.72 50.4565 128.394 50.3587C128.003 50.1957 127.612 50.1957 127.352 49.8045C127.254 49.6415 127.059 49.4785 126.961 49.3155C126.896 49.2177 126.798 49.0873 126.733 48.9243C126.668 48.8265 126.57 48.6309 126.505 48.5331C126.407 48.3049 126.277 48.0441 126.114 47.8159C126.016 47.6529 126.016 47.5225 126.179 47.4899C126.342 47.3921 126.57 47.3269 126.733 47.2617C127.026 47.1639 127.352 47.0987 127.612 46.9357C127.873 46.7727 128.231 46.6423 128.492 46.4793C128.655 46.3815 128.883 46.3163 128.948 46.0881C129.013 45.9251 129.046 45.7621 129.111 45.5991C129.111 45.5339 129.209 45.4361 129.176 45.4361C128.948 45.2731 129.176 45.0449 129.078 44.8819C128.981 44.7189 128.915 44.4255 128.85 44.2299C128.785 44.1321 128.362 43.7409 128.231 43.7409H128.166C127.841 43.8387 127.45 43.9691 127.124 44.1973C126.831 44.3603 126.57 44.4907 126.244 44.6537C125.951 44.8167 125.625 44.9471 125.3 45.1101C125.072 45.2079 124.811 45.4035 124.518 45.4361H124.583C124.29 45.5339 124.029 45.7295 123.736 45.8273C123.508 45.9251 123.345 46.1207 123.085 46.0555V45.5013C123.15 44.8493 123.15 44.2625 123.182 43.6105C123.182 43.3171 123.248 43.1215 123.28 42.8281C123.28 42.5999 123.345 42.3716 123.345 42.1108C123.41 41.6544 123.443 41.2306 123.638 40.8394C123.736 40.5134 123.801 40.1222 123.866 39.7962C123.932 39.568 123.866 39.3398 123.932 39.1442C123.932 38.9812 123.997 38.8182 123.932 38.6552C123.866 38.427 123.769 38.1988 123.638 38.0358C123.541 37.8728 123.313 37.8076 123.182 37.5794L123.117 37.5142C122.954 37.5142 122.726 37.4164 122.563 37.612C122.466 37.775 122.335 37.9054 122.238 38.0684C122.173 38.1336 122.173 38.2314 122.14 38.3618C122.075 38.59 121.977 38.8182 121.912 39.079C121.847 39.3724 121.749 39.568 121.684 39.8614C121.619 40.1548 121.586 40.3504 121.521 40.6438C121.423 40.9698 121.358 41.2958 121.228 41.5892V41.6544C121.065 41.8826 120.935 42.1108 120.772 42.2738C120.609 42.3716 120.479 42.5021 120.316 42.5673C120.153 42.6651 119.86 42.6651 119.664 42.7955C119.501 42.8607 119.273 42.8933 119.208 43.1215C119.143 43.1215 119.111 43.1215 119.111 43.1867C118.948 43.3497 118.817 43.5127 118.655 43.6431C118.361 43.8713 118.264 44.2625 117.938 44.4255C117.873 44.4907 117.84 44.6537 117.775 44.7189C117.677 44.8167 117.547 45.0123 117.482 45.1101L117.417 45.0449V45.2079H117.352V45.1427C117.124 45.4361 116.961 45.7621 116.7 46.1533C116.635 46.0555 116.537 45.9903 116.472 45.8599C116.309 45.5339 116.081 45.2079 115.821 44.9145C115.495 44.5885 115.104 44.4255 114.713 44.1973C114.42 44.0343 114.159 44.1321 113.866 44.2951C113.703 44.3603 113.573 44.5233 113.475 44.6211C113.377 44.7189 113.247 44.7841 113.149 44.9145C112.987 44.5885 112.824 44.2625 112.661 43.9691C112.498 43.7409 112.27 43.5127 112.042 43.3171C111.749 43.0237 111.488 42.7629 111.162 42.5998C110.706 42.3064 110.283 42.1434 109.827 42.2086C109.501 42.2086 109.11 42.2738 108.784 42.3716C108.459 42.4694 108.068 42.5347 107.742 42.6651C107.644 42.7303 107.514 42.7629 107.416 42.8281C107.123 42.9911 106.863 43.1215 106.569 43.2845C106.179 43.5127 105.918 43.8387 105.56 44.1321C105.494 44.1973 105.462 44.1973 105.462 44.1973C105.364 44.4255 105.169 44.6537 105.071 44.8493C104.908 45.1427 104.778 45.4035 104.615 45.6969C104.55 45.5991 104.517 45.4687 104.452 45.3709C104.387 45.2079 104.354 45.0449 104.224 44.8819C104.126 44.6537 103.898 44.4907 103.768 44.2625C103.605 44.0343 103.475 43.7735 103.279 43.6105C102.986 43.3171 102.661 43.1215 102.335 42.9585C102.107 42.8607 101.879 42.7955 101.683 42.7955C101.488 42.7955 101.227 42.8607 101.032 42.8933C100.967 42.9911 100.967 43.1867 100.934 43.2193C100.771 43.2845 100.836 43.3823 100.836 43.4475V43.9039C100.836 44.0669 100.934 44.2951 101.064 44.4581C101.108 44.3929 101.14 44.3385 101.162 44.2951C101.227 44.7841 101.553 44.9471 101.814 45.0775C102.107 45.1427 102.204 45.3709 102.432 45.5339C102.53 45.5991 102.66 45.6969 102.758 45.8273C102.921 46.1533 103.149 46.4793 103.247 46.8379C103.345 47.2291 103.41 47.6855 103.475 48.0115C103.54 48.4679 103.475 48.9569 103.247 49.2829C103.149 49.6089 102.954 49.9349 102.693 50.2283C102.628 50.2935 102.595 50.3913 102.53 50.4565C102.367 50.5543 102.237 50.7499 102.074 50.8477C101.846 50.9455 101.586 50.9455 101.358 51.0759C101.13 51.1737 100.901 50.9781 100.641 51.0759C100.413 51.1411 100.25 51.0107 100.087 50.9129C99.5333 50.6847 99.2076 50.2935 98.9796 49.8045C98.8167 49.4133 98.7516 48.9243 98.6864 48.5331C98.6213 48.1419 98.6213 47.5877 98.7516 47.1313C98.8167 46.9031 98.7516 46.6423 98.7516 46.4141C98.7516 46.2511 98.7516 46.0881 98.6864 45.9251C98.6864 45.8273 98.6213 45.6969 98.6213 45.5991C98.6213 45.5339 98.6864 45.5013 98.6213 45.4361C98.5561 45.2731 98.4584 45.1101 98.3281 44.9471L97.7743 44.3929C97.6766 44.2951 97.4486 44.2299 97.3183 44.2951C97.0903 44.3603 97.0251 44.5233 96.8623 44.6863C96.7645 44.8493 96.6994 45.0775 96.6994 45.3057C96.6342 45.4687 96.6994 45.6317 96.6342 45.7947C96.6342 45.9577 96.5691 46.1207 96.5365 46.2511C96.4714 46.3489 96.6342 46.4793 96.4714 46.5771V46.6749C96.4062 46.9031 96.3736 47.1313 96.2433 47.2943C96.1782 47.3921 96.1782 47.5225 96.1456 47.6855C95.9827 47.9789 95.8199 48.2397 95.6896 48.5331C95.4615 49.0873 95.1358 49.5763 94.6798 49.9675C94.3866 50.1957 94.126 50.4239 93.8003 50.5217C93.5722 50.5869 93.3442 50.6195 93.1488 50.6847C92.9859 50.7499 92.7579 50.7825 92.595 50.7825C92.595 50.7173 92.6601 50.6847 92.595 50.6847C92.5299 50.6195 92.4973 50.6195 92.4973 50.6195C92.3996 50.3913 92.2693 50.1631 92.3344 49.9023C92.3996 49.5763 92.4321 49.2503 92.4973 48.8917C92.595 48.5005 92.6602 48.0441 92.7905 47.7181C92.8556 47.4247 92.9533 47.2291 93.0185 46.9357C93.1162 46.5445 93.2465 46.1533 93.2465 45.8273V45.7295C93.3116 45.4361 93.4094 45.1101 93.3442 44.8493C93.2791 44.4581 93.3442 44.0017 93.0185 43.7409C92.9208 43.6431 92.9208 43.4475 92.7905 43.2845C92.4973 42.9585 92.1715 42.7955 91.8458 42.9585C91.7481 43.0237 91.6178 43.0563 91.5526 43.1867C91.4549 43.3497 91.4549 43.5779 91.3898 43.8061C91.3246 44.0343 91.292 44.2625 91.292 44.4255C91.292 44.5233 91.292 44.5885 91.2269 44.7189C91.1617 44.8819 91.1617 45.0123 91.1292 45.1753C91.0314 45.5013 90.9663 45.8273 90.836 46.1859C90.7057 46.5445 90.608 46.8379 90.5428 47.1965C90.4451 47.6529 90.3148 48.1419 90.2497 48.5983C90.1845 48.9243 90.2497 49.2503 90.2497 49.6089C90.1845 50.1631 90.3148 50.6521 90.4777 51.1085C90.6405 51.5976 90.9663 52.1192 91.3246 52.4452C91.6178 52.7712 92.0413 52.9342 92.367 53.0972C92.6602 53.2602 92.9859 53.3254 93.3768 53.3254C93.7677 53.2602 94.2237 53.2602 94.5495 53.0972H94.6146C95.0055 52.869 95.3964 52.6408 95.7222 52.38C95.9502 52.217 96.2759 52.0866 96.3411 51.7606C96.3411 51.6954 96.4388 51.6628 96.5039 51.5976C96.6668 51.3693 96.8948 51.1085 97.0577 50.8803C97.1228 50.9455 97.2206 50.9781 97.2206 51.0433C97.4486 51.5323 97.8395 51.9236 98.1652 52.3148C98.3933 52.6082 98.6538 52.7712 98.947 52.9668C99.0122 53.032 99.1099 53.1298 99.175 53.1298C99.4031 53.2276 99.6311 53.2928 99.8917 53.358C100.348 53.521 100.771 53.684 101.227 53.684C101.52 53.684 101.846 53.7492 102.107 53.6188C102.367 53.4884 102.726 53.3254 102.986 53.1624C103.605 52.7712 104.159 52.3148 104.485 51.6628C104.648 51.3694 104.778 51.1085 104.941 50.8151C105.006 50.8803 105.006 50.9129 105.038 50.9781C105.201 51.2063 105.364 51.4671 105.527 51.6953L106.016 52.1844C106.309 52.4126 106.635 52.6408 106.895 52.8364C107.058 52.9342 107.286 52.9342 107.384 53.0646C107.547 53.2276 107.84 53.2928 108.035 53.358C108.524 53.4558 109.045 53.5862 109.469 53.4558C109.762 53.3906 110.022 53.2928 110.25 53.1624C110.544 53.0646 110.804 52.869 111.097 52.706C111.39 52.543 111.586 52.2496 111.879 52.054C112.107 51.8258 112.27 51.565 112.433 51.2715C112.596 50.9781 112.759 50.7173 112.921 50.4239C113.084 50.1305 113.215 49.8045 113.377 49.5437C113.443 49.4459 113.443 49.3155 113.475 49.2177C113.54 48.9895 113.573 48.7287 113.703 48.5005C113.801 48.1745 113.996 47.7833 114.159 47.4573C114.257 47.2291 114.387 47.0661 114.55 46.8379C114.648 47.0009 114.713 47.0661 114.778 47.1639C114.876 47.4899 115.006 47.8811 115.071 48.2071C115.136 48.4353 115.234 48.6635 115.071 48.9243C115.006 49.0221 114.974 49.2177 114.974 49.3807C114.908 50.0979 115.039 50.7825 115.267 51.4346C115.332 51.5324 115.365 51.6628 115.365 51.8258C115.43 52.1518 115.593 52.38 115.918 52.4452C115.983 52.4452 115.983 52.543 116.016 52.6082C116.309 52.7712 116.505 52.9342 116.863 52.706C117.091 52.6082 117.319 52.38 117.319 52.0866V51.3042C117.319 51.0759 117.384 50.8151 117.384 50.5869C117.384 50.4239 117.286 50.1957 117.319 50.0327C117.384 49.8697 117.221 49.7067 117.319 49.4785C117.417 49.2503 117.482 48.9895 117.612 48.6961C117.775 48.3701 117.938 47.9789 118.101 47.6529C118.199 47.4899 118.394 47.3269 118.394 47.0987C118.394 46.9357 118.557 46.8053 118.687 46.6423C118.785 46.4141 118.98 46.2511 119.078 46.0229C119.176 45.7947 119.404 45.6969 119.404 45.4035L119.469 45.3383C119.567 45.2731 119.697 45.2405 119.795 45.1753C120.088 45.0123 120.283 44.7841 120.674 44.7841C120.826 44.7841 120.902 44.8601 120.902 45.0123V47.1639C120.902 47.4247 120.804 47.7181 120.902 47.9463C120.902 48.0115 120.902 48.0441 120.837 48.0441C120.837 48.1093 120.772 48.1419 120.772 48.2071C120.772 48.9243 120.772 49.6089 120.707 50.3261C120.707 50.3913 120.642 50.4891 120.642 50.5543C120.707 50.7825 120.707 51.0107 120.739 51.2063C120.804 51.5323 120.967 51.8584 121.195 52.1518C121.293 52.3148 121.489 52.4452 121.651 52.543C121.879 52.706 122.27 52.706 122.368 52.4778C122.531 52.2496 122.596 51.9888 122.694 51.6953L122.629 51.5976C122.726 51.4998 122.694 51.3693 122.629 51.2063C122.563 51.0433 122.531 50.8803 122.531 50.7173C122.531 50.2283 122.596 49.7067 122.596 49.2829V48.9895H122.694C122.857 49.1525 122.987 49.0873 123.182 49.0547C123.41 48.9895 123.671 49.0547 123.964 49.0547L124.029 49.1199C124.257 49.2829 124.355 49.5111 124.485 49.7393C124.811 50.2935 125.202 50.8477 125.528 51.3368C125.756 51.728 126.082 51.9888 126.407 52.3474C126.57 52.5104 126.863 52.6408 127.026 52.8038C127.417 53.195 127.906 53.2928 128.362 53.4232C128.655 53.4884 128.981 53.4232 129.306 53.4232C129.6 53.4232 129.86 53.4232 130.088 53.358C130.153 53.358 130.186 53.358 130.251 53.2928C130.414 53.195 130.577 53.0646 130.805 52.9994C130.968 52.9342 131.098 52.7712 131.033 52.6734C130.935 52.5756 131.098 52.5756 131.098 52.4452C131.326 52.38 131.261 52.217 131.261 52.054C131.261 51.9888 131.326 51.9562 131.326 51.891V51.7932C131.261 51.6302 131.261 51.4019 131.228 51.2389C131.326 50.6847 131 50.4891 130.903 50.5217ZM112.759 46.5771C112.693 46.6423 112.661 46.6749 112.661 46.7401C112.596 47.0661 112.368 47.3595 112.335 47.6203C112.27 47.9137 112.042 48.0767 112.009 48.3375C111.944 48.5657 111.781 48.7287 111.684 48.8917C111.586 48.9895 111.521 49.1851 111.39 49.2829C111.228 49.4459 111.097 49.6741 110.934 49.8371C110.837 49.9349 110.772 50.0653 110.609 50.1305C110.446 50.2283 110.283 50.2935 110.12 50.3587C109.957 50.4239 109.794 50.5217 109.566 50.5869C109.338 50.6521 109.11 50.5869 108.915 50.5869C108.817 50.5869 108.687 50.5217 108.524 50.5217C108.198 50.4239 107.905 50.2935 107.579 50.1305C107.416 50.0327 107.286 49.8371 107.188 49.7393C107.025 49.6415 106.895 49.5111 106.797 49.2829C106.635 48.8917 106.472 48.5005 106.504 48.1745C106.439 47.7181 106.602 47.3269 106.797 47.0661C106.895 46.8379 106.96 46.5771 107.091 46.3489C107.156 46.1859 107.319 46.0555 107.416 45.9577C107.644 45.7295 107.905 45.5013 108.133 45.3057C108.296 45.2079 108.524 45.0775 108.687 44.9797C108.784 44.9145 108.98 44.8819 109.143 44.7515C109.534 44.5885 109.99 44.4581 110.381 44.4581C110.609 44.4581 110.772 44.4581 110.934 44.5233C111.26 44.5885 111.423 44.8493 111.586 45.0775C111.879 45.3709 112.074 45.6317 112.303 45.9251C112.4 46.0229 112.465 46.1533 112.628 46.1533C112.921 46.0881 112.889 46.4793 112.759 46.5771Z" fill="#23272C"/>
<path d="M187.237 43.0206C187.335 43.0206 187.466 42.8574 187.466 42.7269C187.466 42.4331 187.563 42.172 187.302 41.9435C187.302 41.9435 187.237 41.8783 187.237 41.8456C187.302 41.6172 187.139 41.5519 187.009 41.454C186.911 41.3887 186.781 41.3561 186.683 41.2908L186.617 41.2255C186.226 41.2255 185.9 41.1602 185.508 41.2255C185.117 41.2255 184.725 41.2908 184.399 41.2908C184.301 41.2908 184.236 41.2255 184.105 41.2255C184.008 41.2255 183.877 41.2908 183.779 41.2908H183.681C183.225 41.1276 182.735 41.2255 182.344 41.1929C182.018 41.1929 181.724 41.1929 181.463 41.1276C181.463 40.9644 181.528 40.8012 181.528 40.6707V40.2137C181.594 39.92 181.626 39.6589 181.691 39.3651C181.691 39.0714 181.757 38.745 181.789 38.4839C181.854 38.1902 181.789 37.9291 181.561 37.7006C181.561 37.7006 181.496 37.6353 181.496 37.6027C181.43 37.5048 181.43 37.309 181.398 37.211C181.333 37.1131 181.235 36.9826 181.104 36.9826C180.941 36.9826 180.811 36.8847 180.647 36.9173C180.419 36.9826 180.321 37.0805 180.191 37.2437C180.028 37.5374 179.865 37.7333 179.734 38.027C179.571 38.3207 179.408 38.5818 179.277 38.9082C179.179 39.0714 179.114 39.2346 178.984 39.3978V39.4631C178.69 39.6263 178.69 39.9526 178.527 40.2464C178.462 40.3443 178.429 40.5401 178.364 40.638C178.266 40.8665 178.201 41.1276 178.135 41.2908H177.711C177.32 41.2908 176.994 41.2255 176.602 41.2908C176.439 41.2908 176.276 41.3887 176.146 41.5193C175.917 41.6824 175.917 42.0088 175.852 42.2373C175.787 42.4658 175.754 42.7269 175.95 42.89L176.015 42.9553C175.95 43.1838 176.113 43.2817 176.243 43.4123C176.537 43.8039 176.896 43.9018 177.353 43.9018C177.45 43.9018 177.45 43.9671 177.45 44.065C177.45 44.1629 177.385 44.3588 177.385 44.4567C177.385 44.783 177.32 45.1094 177.32 45.4684V45.7622C177.32 45.9254 177.32 46.1538 177.385 46.317C177.385 46.6108 177.385 46.8066 177.45 47.1003C177.516 47.492 177.614 47.8184 177.353 48.1448C177.287 48.2427 177.189 48.3079 177.124 48.4385C177.059 48.5364 177.026 48.667 176.896 48.7649C176.765 48.8628 176.667 48.9933 176.667 49.0913C176.57 49.2544 176.439 49.4176 176.276 49.5482C176.048 49.7114 175.819 49.8746 175.558 49.8746C175.602 49.8746 175.634 49.8963 175.656 49.9398C175.363 49.9398 175.167 50.0051 175.004 49.9398C174.677 49.8419 174.514 49.4829 174.286 49.2218C174.221 49.1565 174.188 49.1239 174.188 48.9933C174.123 48.8954 174.123 48.6996 174.09 48.6017C174.025 48.4385 173.992 48.2753 173.927 48.1121V48.0468C173.927 47.9489 173.992 47.7531 173.992 47.6552C173.992 47.5573 173.927 47.3614 173.927 47.2635C173.992 46.9698 174.025 46.774 174.09 46.4802C174.156 46.2518 174.09 45.9907 174.156 45.6969C174.221 45.4032 174.253 45.1421 174.319 44.8157C174.384 44.5219 174.319 44.3261 174.417 44.0324C174.514 43.706 174.514 43.4123 174.417 43.1512C174.319 42.8248 174.188 42.531 174.09 42.2699C174.025 42.1067 173.992 41.9435 173.764 41.9435C173.699 41.9435 173.699 41.8783 173.666 41.8456C173.503 41.6824 173.209 41.7477 173.014 41.9109C172.557 42.2373 172.557 42.7595 172.459 43.1838C172.459 43.2817 172.459 43.4123 172.394 43.4775C172.329 43.706 172.296 43.9671 172.231 44.1956C172.166 44.6525 172.133 45.1421 172.002 45.5337C171.937 45.8275 171.905 46.1538 171.839 46.4149C171.774 46.7087 171.676 47.133 171.448 47.4594C171.285 47.7531 171.154 48.0795 170.991 48.3406C170.893 48.5038 170.763 48.7322 170.6 48.8954C170.437 49.1239 170.208 49.2871 169.947 49.385C169.719 49.4503 169.458 49.5482 169.23 49.6135C168.773 49.6787 168.349 49.6135 167.957 49.5155C167.664 49.4503 167.501 49.2871 167.501 48.9607C167.501 48.6343 167.501 48.3406 167.664 48.0142C167.761 47.851 167.729 47.5573 167.761 47.3941C167.827 47.1003 167.925 46.9045 167.99 46.6108C168.088 46.2844 168.153 45.958 168.218 45.599V45.5011C168.316 45.2073 168.447 45.0115 168.512 44.7178C168.577 44.4893 168.577 44.2282 168.577 43.9997C168.577 43.706 168.512 43.3796 168.512 43.1185C168.512 42.9553 168.447 42.7921 168.414 42.6616C168.316 42.4331 168.186 42.172 168.088 41.9435C167.99 41.7804 167.859 41.5519 167.696 41.454C167.533 41.3561 167.305 41.2908 167.076 41.1602C166.587 40.9318 166.13 40.8339 165.641 40.8339C164.989 40.7686 164.303 40.7359 163.651 40.8991C163.325 40.9644 162.999 40.997 162.705 41.2255C162.607 41.3234 162.477 41.3887 162.314 41.5193C162.15 41.1929 161.759 41.1929 161.465 41.1276C161.237 41.0623 161.009 41.2255 160.813 41.1929C160.421 41.1276 160.095 41.4866 159.704 41.4213C159.541 41.6498 159.247 41.7151 159.051 41.813C158.758 41.9762 158.497 42.1394 158.203 42.3026C157.909 42.4658 157.648 42.6289 157.42 42.9227C157.126 43.0859 156.931 43.3143 156.768 43.5754C156.605 43.8039 156.376 44.0324 156.213 44.2282C156.148 44.2935 156.05 44.3914 156.05 44.4567C156.05 44.6851 155.822 44.783 155.756 44.9462C155.658 45.24 155.528 45.4358 155.43 45.7296C155.365 45.8927 155.365 46.1212 155.332 46.2844C155.267 46.5129 155.234 46.774 155.169 47.0024C155.104 47.1656 155.169 47.3941 155.104 47.492C155.006 47.7205 155.104 47.9489 155.169 48.1121C155.267 48.569 155.463 48.9607 155.626 49.2871C155.789 49.7767 156.115 50.1683 156.474 50.5273C156.8 50.8537 157.126 51.1474 157.518 51.4085C157.681 51.5065 157.909 51.637 158.073 51.7023C158.138 51.7676 158.236 51.7676 158.366 51.8002C158.431 51.8655 158.529 51.8655 158.595 51.8981C158.888 51.9634 159.084 52.0613 159.377 52.1266C159.541 52.1919 159.704 52.2245 159.867 52.2245C160.095 52.2245 160.324 52.1592 160.519 52.1592H161.465C161.759 52.0939 162.02 52.0613 162.314 51.9308C162.542 51.8328 162.77 51.6044 162.933 51.4412C162.999 51.3759 162.999 51.2127 163.031 51.1148C163.096 51.0169 163.194 50.9516 163.26 50.8211C163.325 50.6579 163.357 50.4294 163.423 50.2662C163.521 49.7767 163.716 49.3197 163.716 48.8628V46.5781C163.716 46.2844 163.618 46.0233 163.716 45.7296C163.782 45.6316 163.651 45.4358 163.651 45.3379C163.651 45.1747 163.716 45.0115 163.716 44.8483C163.716 44.6199 163.618 44.4567 163.716 44.2282C163.814 44.065 163.814 43.8365 163.879 43.6081C163.879 43.6081 163.945 43.6081 163.945 43.5428C164.043 43.4775 164.173 43.4449 164.271 43.3796C164.434 43.3143 164.597 43.2817 164.76 43.2817C165.25 43.347 165.706 43.2164 166.163 43.3796C166.228 43.4449 166.326 43.4449 166.391 43.4449C166.718 43.5102 166.848 43.7386 166.718 43.9997C166.62 44.2282 166.489 44.4893 166.489 44.783C166.424 45.0768 166.196 45.24 166.261 45.5664C166.261 45.6316 166.196 45.6643 166.196 45.7296C166.13 45.958 166.098 46.1865 165.967 46.3823C165.902 46.6108 165.902 46.8392 165.804 47.0024C165.739 47.1003 165.739 47.2962 165.706 47.4594C165.641 47.7531 165.608 48.0142 165.608 48.3079C165.608 48.7649 165.674 49.2544 165.706 49.6461L165.772 49.7114C165.869 49.9398 166 50.2009 166.098 50.4294C166.326 50.8211 166.489 51.3106 167.109 51.3759C167.109 51.3759 167.174 51.3759 167.174 51.4412C167.272 51.6697 167.501 51.7349 167.664 51.7676C167.99 51.8655 168.316 52.0613 168.675 52.0939C169.001 52.1592 169.327 52.1919 169.719 52.1592H169.882C170.11 52.0939 170.339 52.0939 170.534 52.0613C170.763 51.996 170.991 51.8981 171.187 51.8328C171.187 51.8328 171.187 51.7676 171.252 51.7349C171.35 51.6697 171.48 51.637 171.578 51.5065C171.741 51.4085 171.97 51.2127 172.133 51.0495C172.198 50.9843 172.231 50.8863 172.296 50.8211C172.394 50.6579 172.622 50.5926 172.622 50.3641C172.622 50.2989 172.72 50.2009 172.785 50.1357C172.949 50.4294 173.079 50.6252 173.242 50.8537C173.34 51.0169 173.405 51.2454 173.568 51.3433C173.895 51.637 174.188 51.8981 174.58 52.0613C174.906 52.2245 175.297 52.453 175.689 52.5182C176.146 52.5835 176.472 52.5182 176.798 52.2898C177.026 52.1919 177.189 52.0613 177.418 51.8981C177.581 51.8002 177.744 51.6697 177.875 51.5717C178.103 51.278 178.364 51.0822 178.494 50.7232C178.56 50.6252 178.592 50.56 178.657 50.4294C178.723 50.3641 178.723 50.3315 178.755 50.3315C178.821 50.3315 178.918 50.3968 178.984 50.4294C179.049 50.4947 179.049 50.5273 179.082 50.5926C179.375 50.8211 179.571 51.0822 179.864 51.3106C180.028 51.4738 180.256 51.5391 180.484 51.637C180.713 51.8002 180.941 51.9634 181.137 52.0939C181.43 52.1919 181.757 52.2571 182.018 52.3224C182.311 52.3877 182.637 52.3877 182.898 52.4203C183.159 52.453 183.388 52.3551 183.681 52.4203C183.844 52.3551 184.008 52.2571 184.236 52.1919C184.464 52.1266 184.693 52.0939 184.888 51.9634C184.954 51.9634 184.954 51.8002 184.986 51.7349C185.051 51.6697 185.084 51.637 185.149 51.5065C185.215 51.4085 185.247 51.3433 185.247 51.2127C185.312 51.1148 185.312 51.0495 185.345 50.919C185.41 50.8537 185.41 50.8211 185.443 50.7558C185.476 50.6905 185.508 50.6579 185.541 50.5926C185.606 50.3641 185.704 50.1357 185.639 50.0378C185.541 49.8746 185.639 49.7114 185.573 49.5808L185.639 49.6461C185.639 49.6461 185.704 49.6461 185.704 49.5808C185.606 49.3524 185.541 49.1239 185.378 48.8628C185.312 48.9607 185.28 49.026 185.215 49.0913C185.215 49.026 185.149 48.9933 185.149 48.9281L185.052 49.026V48.9607C184.986 48.9607 184.954 48.9607 184.888 49.026C184.725 49.0913 184.562 49.1892 184.432 49.3197C184.366 49.3197 184.366 49.4176 184.334 49.4176C184.008 49.4829 183.714 49.7114 183.323 49.7114C182.996 49.7114 182.67 49.7766 182.311 49.7114C182.018 49.6461 181.757 49.5482 181.528 49.4829C181.43 49.4829 181.3 49.4829 181.235 49.4176C181.072 49.3197 180.908 49.1892 180.745 49.1239C180.647 48.9607 180.452 48.7975 180.354 48.6343C180.256 48.4711 180.191 48.3079 180.125 48.1448C179.962 47.6878 179.799 47.2635 180.06 46.8066C180.158 46.6434 180.158 46.4149 180.223 46.1865H180.289C180.354 45.8927 180.386 45.6969 180.452 45.4032C180.517 45.3053 180.55 45.1094 180.55 45.0115C180.647 44.6851 180.713 44.3914 180.778 44.065C180.843 43.9018 180.843 43.7713 180.876 43.6734C180.941 43.6081 180.974 43.5754 181.104 43.5754C181.267 43.5102 181.496 43.5754 181.659 43.5102C182.213 43.4123 182.768 43.5754 183.257 43.4123C183.355 43.6407 183.551 43.4123 183.649 43.4123C184.04 43.4775 184.497 43.4123 184.823 43.347C184.986 43.347 185.215 43.2817 185.378 43.2817H185.769C185.998 43.2164 186.259 43.2817 186.552 43.2164C186.65 43.2164 186.846 43.1185 186.944 43.0532C187.041 42.988 187.27 42.8248 187.27 42.7269C187.139 42.9227 187.128 43.0206 187.237 43.0206ZM162.183 48.0142C162.085 48.2427 162.183 48.4711 162.085 48.667C162.02 48.8302 161.987 48.9933 161.922 49.1565C161.824 49.3197 161.694 49.5482 161.596 49.7114C161.433 49.9398 161.139 49.9398 160.878 49.9398C160.78 49.9398 160.65 49.8746 160.585 49.9398C160.421 50.0378 160.291 49.9398 160.128 49.9398C159.899 49.9398 159.671 50.0378 159.475 49.8746H159.312C159.149 49.8093 158.921 49.7767 158.758 49.6461C158.66 49.5482 158.431 49.5482 158.301 49.4829C158.073 49.385 157.844 49.1892 157.681 49.026C157.518 48.8628 157.355 48.3732 157.387 48.1448C157.387 47.5246 157.681 47.0351 157.942 46.5455L158.007 46.4802C158.105 46.317 158.17 46.1538 158.301 46.0233C158.464 45.9254 158.595 45.6969 158.758 45.5664C158.921 45.4032 159.149 45.24 159.312 45.1094C159.606 44.881 159.867 44.7178 160.16 44.5546C160.454 44.4567 160.715 44.2608 161.041 44.1629C161.204 44.0976 161.367 44.065 161.531 44.065C161.596 44.065 161.694 43.9997 161.759 43.9997C161.922 43.9997 162.15 44.2282 162.053 44.3261C161.955 44.5546 162.053 44.6525 162.053 44.8157V46.5781C162.15 46.8719 162.118 47.133 162.118 47.4267C162.183 47.6225 162.248 47.851 162.183 48.0142Z" fill="#23272C"/>
<path d="M86.8985 50.4964C86.8333 50.431 86.7355 50.3983 86.6704 50.2675C86.5074 49.9406 86.3445 49.6137 86.2794 49.2214C86.1816 48.7637 86.1816 48.3386 86.1165 47.979C86.1165 47.6521 86.1816 47.3252 86.1816 47.0309C86.1816 46.7367 86.2468 46.4751 86.2794 46.1809C86.3445 45.7886 86.3445 45.3309 86.4423 45.004C86.5075 44.7751 86.54 44.5136 86.3771 44.2193C86.312 44.1539 86.312 43.9905 86.2794 43.827C86.1165 43.5001 85.9861 43.0424 85.6277 42.8135C85.3996 42.7155 84.9109 42.7155 84.7479 42.9116C84.585 43.2058 84.5199 43.4674 84.4547 43.7616C84.3895 43.9905 84.3895 44.2193 84.3569 44.4155C84.2918 44.8078 84.194 45.2001 84.0637 45.5271C83.9985 45.8213 83.9985 46.0828 83.9659 46.3117C83.9008 46.6059 83.8682 46.8021 83.803 47.0963C83.803 47.1617 83.7378 47.1944 83.7378 47.2598C83.6401 47.4886 83.5098 47.7502 83.412 47.979C83.3143 48.2079 83.1188 48.4367 83.021 48.6329C82.8581 48.8617 82.63 49.0252 82.4671 49.1887C82.3694 49.2868 82.239 49.3521 82.1738 49.4829C82.0761 49.5483 81.9458 49.581 81.8806 49.6464C81.7177 49.7445 81.5548 49.8752 81.3918 49.9406C81.066 50.0387 80.7728 50.1041 80.4469 50.2348C80.3492 50.2348 80.1537 50.3002 80.1537 50.0714C80.1537 49.7771 80.0885 49.581 80.0885 49.2867C80.0885 49.0579 80.0885 48.8944 80.1537 48.6656C80.2188 48.2733 80.2514 47.881 80.3166 47.554C80.3817 47.2598 80.4143 46.9982 80.4795 46.704C80.5772 46.3771 80.5447 46.0501 80.5773 45.6905C80.5773 45.5924 80.5772 45.3963 80.6424 45.2982C80.6424 45.0694 80.7076 44.9059 80.7076 44.677C80.7076 44.4482 80.6424 44.2193 80.6098 44.0559C80.5447 43.827 80.5447 43.5982 80.5121 43.402C80.5121 43.3039 80.4469 43.1732 80.4143 43.0751C80.3166 42.7808 80.1211 42.5193 79.9582 42.2251C79.7952 41.9308 79.6323 41.6693 79.4042 41.5058C79.0784 41.277 78.7526 41.2116 78.2964 41.277C77.9706 41.3423 77.6447 41.375 77.3515 41.5712C77.1234 41.7347 76.8627 41.8981 76.6998 42.127L76.1459 42.6828C75.9178 42.8462 75.8201 43.1405 75.6571 43.3366C75.4942 43.5655 75.3639 43.7943 75.2661 43.9905L75.1032 43.827C74.9403 43.5982 74.81 43.3693 74.6145 43.2058C74.4515 43.0424 74.2886 42.977 74.1257 42.9116C73.7999 42.8135 73.4089 42.6828 73.0179 42.6174C72.855 42.552 72.6269 42.6174 72.464 42.6174C72.1381 42.6174 71.8123 42.7155 71.519 42.8462C71.3561 42.9116 71.2258 43.0097 71.0629 43.0751C70.9 43.1405 70.737 43.1732 70.5741 43.3039C70.2483 43.5982 69.8573 43.8597 69.5314 44.1866C69.2382 44.4809 69.0427 44.8078 68.8146 45.0694C68.6517 45.2982 68.5214 45.5597 68.3584 45.7886C68.2607 46.0174 68.1955 46.2463 68.0652 46.4098C68 46.5732 67.9023 46.7367 67.9023 46.9002C67.8371 47.1944 67.8045 47.4559 67.7393 47.7502C67.6742 48.0444 67.6742 48.306 67.6416 48.6002V49.7118C67.6416 49.8098 67.7068 49.8752 67.7068 50.006C67.7719 50.1695 67.7719 50.3329 67.8045 50.4637C67.8697 50.6925 67.9023 50.9541 68.0326 51.1829C68.1955 51.4772 68.3584 51.8041 68.5865 52.033C68.8146 52.3272 69.0427 52.5887 69.3034 52.883C69.5314 53.1118 69.7921 53.2099 70.0854 53.3734C70.4764 53.6676 70.9325 53.7003 71.2584 53.7003C71.5516 53.7003 71.8775 53.5368 72.1381 53.3734C72.4314 53.2099 72.5943 53.0464 72.855 52.883C73.3111 52.556 73.637 52.1637 73.9628 51.7714C74.1909 51.5426 74.3538 51.3137 74.5167 51.0522C74.6145 50.8887 74.6796 50.7252 74.7448 50.5618C74.81 50.4637 74.9077 50.3329 74.9729 50.1695C75.0381 50.006 75.0706 49.8425 75.201 49.6791C75.2661 49.5156 75.2987 49.3521 75.429 49.1887C75.6571 48.8617 75.6571 48.5348 75.7223 48.1752V48.0771L75.7875 48.1425C75.8526 47.979 75.8526 47.8156 75.8852 47.6521C75.9504 47.4886 76.0482 47.2598 76.1785 47.0963C76.2437 46.9982 76.2762 46.8675 76.2762 46.8021V46.704C76.2762 46.6386 76.2762 46.6059 76.3414 46.6059C76.4066 46.5405 76.4392 46.5078 76.4392 46.4425C76.5043 46.0501 76.7324 45.7886 76.8953 45.4944C77.1234 45.1674 77.3515 44.8732 77.6122 44.6116C77.7099 44.4482 77.9054 44.3174 78.0032 44.2193C78.1009 44.0559 78.3942 43.9905 78.6223 43.8924C78.6874 44.1213 78.6874 44.2847 78.6874 44.4482C78.7526 44.9059 78.6874 45.3963 78.5897 45.7886C78.5245 46.1155 78.4267 46.4425 78.3616 46.8021C78.2964 47.0963 78.2638 47.3579 78.1986 47.6521C78.1335 48.0444 78.1009 48.3713 78.1009 48.7637C78.1009 49.0906 78.1009 49.4175 78.1661 49.8098C78.2638 50.3002 78.2638 50.8233 78.6223 51.2156C78.6874 51.3137 78.7852 51.4445 78.8503 51.5426C79.0132 52.033 79.4694 52.3272 79.8604 52.556C80.1537 52.7195 80.4795 52.7195 80.7402 52.7195C81.1963 52.7849 81.6199 52.6214 82.0109 52.4907C82.4997 52.3272 83.0536 52.0983 83.412 51.706C83.7378 51.4118 84.0311 51.0522 84.2918 50.6925C84.3569 50.5945 84.3895 50.4637 84.4547 50.3983C84.5199 50.3329 84.6176 50.3329 84.6176 50.3983C84.9109 50.856 85.1715 51.281 85.4974 51.6733C85.5625 51.7387 85.6603 51.7387 85.7906 51.7714V51.706C85.9535 51.8041 86.0839 51.9349 86.2468 52.033C86.54 52.2618 86.7355 52.3272 87.0288 52.0983C87.1265 52.033 87.2569 52.033 87.322 52.0003C87.4198 51.9022 87.485 51.706 87.5501 51.5426C87.5501 51.4772 87.6153 51.4445 87.6153 51.3791C87.5501 51.2156 87.5501 51.0522 87.4524 50.8887C87.1917 50.8233 87.0288 50.6599 86.8985 50.4964ZM74.5493 46.6386C74.3212 46.9655 74.3212 47.3579 74.0931 47.7502C73.865 48.2079 73.637 48.6329 73.4415 49.0252C73.3437 49.1887 73.2134 49.4175 73.1156 49.581L72.7898 49.9079C72.7898 49.9079 72.6269 50.1368 72.5617 50.2348C72.4965 50.3983 72.2359 50.3983 72.2359 50.6272C72.2359 50.6925 72.1381 50.6925 72.0078 50.7252C71.7797 50.8233 71.6168 51.0195 71.3887 51.1176C71.3235 51.1829 71.291 51.1176 71.2258 51.1829C70.9325 51.3464 70.6067 51.281 70.2809 51.1829C70.2157 51.1829 70.1831 51.0195 70.0528 51.0195C69.8247 50.9541 69.8899 50.7252 69.7595 50.6272C69.6944 50.4637 69.6944 50.3002 69.6618 50.1368V49.8098C69.6618 49.3521 69.7595 48.9598 69.8899 48.6329C69.955 48.4694 69.9876 48.2406 70.0528 48.0771C70.1179 47.9136 70.2809 47.6848 70.346 47.5213C70.4112 47.3579 70.509 47.2271 70.5741 47.0636C70.6719 46.9002 70.8674 46.6713 70.9651 46.5078L71.128 46.3444C71.3561 46.0501 71.682 45.8867 71.9752 45.7232C72.2685 45.5597 72.5943 45.3963 72.9201 45.2655C73.0831 45.2001 73.246 45.2001 73.4089 45.2001C73.7021 45.2655 73.9628 45.3636 74.2561 45.4944C74.419 45.5597 74.5819 45.6578 74.7448 45.7886C74.6796 46.0501 74.6796 46.3771 74.5493 46.6386Z" fill="#23272C"/>
<path d="M152.841 42.2045C152.743 42.1078 152.743 41.9787 152.678 41.8175C152.678 41.7529 152.743 41.7207 152.743 41.6562C152.678 41.6562 152.645 41.6562 152.645 41.5916C152.547 41.3658 152.351 41.4303 152.188 41.4303C151.894 41.3658 151.731 41.5271 151.535 41.5916C151.078 41.6884 150.653 41.7529 150.261 41.8175H149.869C149.575 41.882 149.249 41.9787 148.988 41.9787C148.498 42.0433 147.975 41.9787 147.551 41.9787C147.388 41.9787 147.224 42.0433 147.061 42.0433C147.126 41.6562 147.126 41.3336 147.159 41.011C147.159 40.6884 147.224 40.3013 147.224 39.9787C147.224 39.6884 147.224 39.4304 147.29 39.14C147.29 38.5271 147.388 37.9787 147.355 37.3658C147.355 37.0755 147.257 36.7207 147.028 36.4949C146.963 36.3981 146.865 36.3336 146.8 36.2045C146.734 36.1078 146.734 35.9142 146.571 35.9142C146.571 35.9142 146.506 35.9142 146.506 35.8497C146.44 35.7852 146.343 35.7529 146.277 35.7529C146.114 35.7529 145.885 35.8174 145.722 35.8497C145.624 36.0755 145.493 36.3013 145.428 36.4949C145.33 36.8174 145.2 37.14 145.134 37.4949C145.069 37.7852 145.036 38.1078 144.971 38.3658C144.906 38.7529 144.808 39.14 144.677 39.4626C144.579 39.9465 144.383 40.4626 144.285 40.9465C144.22 41.3336 144.187 41.7852 144.122 42.1723C143.828 42.1723 143.632 42.1078 143.338 42.1078C142.848 42.1078 142.554 42.1723 142.489 42.7529C142.489 42.8174 142.391 42.9142 142.424 42.9787C142.424 43.0755 142.489 43.2691 142.489 43.3658V43.5271C142.718 43.8497 142.946 44.14 143.11 44.3981H143.338C143.436 44.4626 143.567 44.4949 143.632 44.6239C143.697 44.6884 143.73 44.7207 143.73 44.7852V46.8175C143.73 46.882 143.795 46.9142 143.795 46.9787C143.73 47.0755 143.632 47.2045 143.567 47.3658C143.404 47.6884 143.175 47.9787 142.914 48.2368C142.816 48.3336 142.62 48.4626 142.522 48.6239C142.228 48.9142 141.901 49.0755 141.64 49.2691C141.542 49.3336 141.412 49.3658 141.346 49.4304C141.248 49.4949 141.118 49.5271 141.02 49.5917C140.791 49.6562 140.562 49.6562 140.367 49.6884C140.269 49.7529 140.203 49.6884 140.138 49.6884C140.073 49.6884 139.975 49.7529 139.909 49.7529C139.746 49.7529 139.615 49.6884 139.452 49.6562C139.289 49.5916 139.06 49.5917 138.897 49.5917C138.799 49.5917 138.734 49.5271 138.668 49.4949C138.57 49.3981 138.375 49.2045 138.342 49.0433C138.244 48.8175 138.179 48.5916 138.179 48.3981C138.179 48.2045 138.179 47.9465 138.244 47.7529C138.309 47.4626 138.309 47.2691 138.342 46.9787C138.407 46.6562 138.44 46.3336 138.505 46.0433V45.9787C138.603 45.7529 138.668 45.5271 138.734 45.2691C138.799 45.1078 138.799 44.9465 138.832 44.7207C138.832 44.6239 138.897 44.4949 138.93 44.4304C139.028 44.2045 139.158 43.9465 139.093 43.6562C139.028 43.3336 138.93 43.0433 138.799 42.7852C138.636 42.3981 138.342 42.0755 137.95 41.9142C137.721 41.8174 137.297 41.9787 137.232 42.2045C137.134 42.5271 137.003 42.8497 136.84 43.2045C136.774 43.3013 136.774 43.4304 136.742 43.5271C136.676 43.6884 136.644 43.8497 136.644 44.011C136.578 44.3013 136.481 44.4949 136.415 44.7852C136.35 45.011 136.317 45.2691 136.252 45.4949C136.187 45.9465 136.089 46.3336 136.023 46.7207C135.958 47.0433 135.958 47.3658 135.958 47.7207C136.023 48.1723 136.023 48.6562 136.121 49.0433C136.219 49.4304 136.415 49.7529 136.578 50.0755C136.676 50.3013 136.807 50.5594 137.068 50.6884C137.166 50.7529 137.232 50.7852 137.297 50.9142C137.362 51.0755 137.591 51.0755 137.591 51.2368C137.591 51.3013 137.689 51.3013 137.754 51.3336C138.048 51.4949 138.211 51.7207 138.473 51.8175C138.636 51.882 138.799 51.9142 138.93 52.0433C139.093 52.2045 139.322 52.2045 139.55 52.2045C140.007 52.2691 140.399 52.2691 140.791 52.2045C140.954 52.2045 141.085 52.14 141.248 52.1078C141.346 52.1078 141.412 52.0433 141.542 52.011H141.705C141.999 51.9142 142.261 51.7852 142.554 51.6239C142.718 51.5271 142.881 51.3981 143.044 51.3013C143.273 51.14 143.436 50.9787 143.599 50.7529C143.763 50.5916 143.991 50.4304 144.155 50.2691C144.253 50.1723 144.449 49.9787 144.612 49.882C144.775 50.1078 144.906 50.3336 145.004 50.4949C145.069 50.5916 145.167 50.7852 145.298 50.8175C145.461 50.882 145.591 50.9787 145.689 51.0433L145.853 51.2046C146.179 51.4949 146.506 51.8175 146.963 51.9142C147.42 52.011 147.812 52.14 148.204 52.2045C148.498 52.2045 148.694 52.1078 148.988 52.0433C149.216 51.9787 149.38 51.882 149.543 51.7529C149.706 51.6562 149.869 51.5271 150 51.3658C150.065 51.3013 150.098 51.2691 150.098 51.2046C150.163 51.1078 150.098 50.9142 150.196 50.882C150.49 50.6562 150.294 50.2691 150.522 50.0433C150.424 49.882 150.425 49.7529 150.425 49.5917C150.425 49.3658 150.261 49.14 150.131 48.9465L150.065 48.882C150 48.882 149.967 48.9465 149.902 48.9465V48.6562C149.804 48.7207 149.608 48.7207 149.51 48.7529H149.445V48.8174H149.216L148.988 49.0433C148.922 49.1078 148.824 49.14 148.759 49.2045C148.596 49.2691 148.433 49.3658 148.269 49.3658C147.975 49.4304 147.649 49.4626 147.388 49.4304C147.159 49.4304 146.898 49.3658 146.734 49.2045C146.506 49.0433 146.343 48.7529 146.179 48.5594C146.081 48.3981 146.016 48.2368 146.016 48.011C145.951 47.7207 145.918 47.5271 145.918 47.2368C145.918 46.9465 146.016 46.7529 146.147 46.5271C146.212 46.4304 146.245 46.3013 146.31 46.2368C146.375 46.0755 146.375 45.9465 146.408 45.7852C146.506 45.4626 146.571 45.14 146.636 44.7852C146.636 44.6884 146.636 44.4949 146.702 44.4626C146.767 44.3658 146.865 44.3013 147.028 44.3981C147.322 44.3336 147.649 44.3013 147.91 44.2368C148.302 44.1723 148.759 44.2368 149.086 44.1723C149.477 44.0755 149.869 44.1078 150.196 44.0755C150.49 44.011 150.751 44.011 150.98 43.9787C151.208 43.9142 151.372 43.882 151.6 43.8175C151.829 43.7529 151.992 43.6562 152.221 43.5916C152.319 43.5271 152.449 43.4949 152.547 43.4304C152.645 43.3336 152.841 43.2691 152.874 43.1078C152.972 43.011 152.972 42.7852 153.037 42.6239C153.037 42.5594 153.037 42.3981 152.972 42.3013C152.808 42.4626 152.972 42.3658 152.841 42.2045Z" fill="#23272C"/>
<path d="M68.765 38.7726C68.8632 38.3153 69.0595 37.8907 69.1576 37.4987C69.2557 37.1068 69.452 36.6168 69.5501 36.1595C69.6156 35.7675 69.7791 35.3756 69.5501 35.0489C69.4847 34.9509 69.3866 34.7549 69.3866 34.6569C69.3866 34.4936 69.1576 34.4283 69.1576 34.3303C69.1576 34.167 69.0922 34.1016 68.9286 34.0363C68.8305 33.971 68.6996 33.9383 68.6015 33.8077C68.3725 33.6443 68.0453 33.7423 67.9472 33.971C67.849 34.265 67.6528 34.4609 67.5546 34.7549C67.4892 34.9182 67.4892 35.1469 67.4565 35.3102C67.391 35.4735 67.3911 35.6369 67.3583 35.7675C67.2602 36.0615 67.1293 36.3228 67.0312 36.6495C66.8676 37.0414 66.7041 37.3681 66.5732 37.76C66.5078 37.9887 66.4751 38.2174 66.4096 38.3807C66.3442 38.4787 66.3115 38.6093 66.2461 38.7726C66.1806 38.936 66.1479 39.0993 66.1479 39.2626C66.0825 39.3606 65.9189 39.4913 66.0498 39.6546H65.9844C65.9189 39.7199 65.9189 39.8179 65.8862 39.8832C65.7881 40.1119 65.7226 40.3405 65.5918 40.5365C65.5264 40.6345 65.4282 40.7652 65.2974 40.8632C65.1338 41.0265 64.9048 41.1898 64.7412 41.3531C64.6431 41.4511 64.4468 41.5164 64.2832 41.6471C64.0542 41.8104 63.7925 42.0391 63.5635 42.1371C63.2691 42.3004 62.942 42.529 62.6148 42.627C62.2223 42.725 61.8297 42.8557 61.5026 42.921C61.1754 42.9863 60.8483 42.8557 60.4885 42.8557C60.1286 42.8557 59.9323 42.6924 59.7033 42.3657C59.5397 42.1371 59.4089 41.8758 59.4089 41.5818C59.4089 41.2878 59.3107 41.0265 59.2453 40.6998C59.2453 40.6018 59.3107 40.4059 59.3107 40.2425C59.2453 40.0139 59.3107 39.7852 59.3107 39.5239C59.3762 39.034 59.3762 38.5113 59.4089 38.1194C59.4089 38.054 59.4743 37.956 59.4089 37.8907C59.3435 37.7927 59.4743 37.7927 59.4743 37.7927V37.4987C59.4743 37.2701 59.5397 37.0414 59.4743 36.7801C59.4743 36.5515 59.3762 36.3228 59.3107 36.1268C59.2453 35.9308 59.1472 35.6695 59.0163 35.5062C58.8528 35.2776 58.5583 35.1142 58.3948 34.8856C58.1658 34.6569 57.7405 34.6569 57.5442 34.8856C57.3806 35.1142 57.3152 35.3429 57.3152 35.5389C57.3152 35.6369 57.2498 35.8329 57.2498 35.9308C57.2498 36.0942 57.3152 36.2575 57.3152 36.4208C57.3152 36.8781 57.2498 37.3027 57.2498 37.6947C57.2498 38.0867 57.1844 38.4787 57.2498 38.8053C57.2498 39.4586 57.2498 40.1445 57.3152 40.7978C57.4134 41.5164 57.6096 42.1371 57.9368 42.7904C58.2639 43.3457 58.591 43.8356 59.049 44.1949C59.3435 44.4236 59.6052 44.5869 59.9323 44.6849C60.1613 44.7829 60.3903 44.7829 60.652 44.8482C60.881 44.9135 61.0446 44.9462 61.2736 44.9462C61.5026 44.9462 61.7316 44.9462 61.9278 44.8809H62.3204C62.6148 44.8155 62.8111 44.7176 63.1056 44.5869C63.3345 44.5216 63.5635 44.4236 63.8252 44.2929C63.8252 44.3582 63.8907 44.3909 63.8907 44.3909C63.7271 44.5542 63.8253 44.7829 63.5963 45.0115C63.4981 45.1095 63.4327 45.4035 63.3673 45.5668C63.3018 45.6648 63.3018 45.7302 63.3018 45.8608C63.2037 46.2528 63.0074 46.6448 62.9093 46.9714C62.8438 47.2 62.8438 47.4287 62.8111 47.6247C62.7457 47.8533 62.713 48.1146 62.6476 48.3433C62.5821 48.5719 62.5821 48.7353 62.5494 48.9639C62.484 49.2579 62.4513 49.5192 62.3858 49.8132C62.3858 49.9765 62.3858 50.1072 62.3204 50.2705C62.255 50.5645 62.2223 50.8258 62.1568 51.0544V52.2957C62.1568 52.361 62.1568 52.459 62.2223 52.5243C62.3204 52.753 62.5167 52.9816 62.6803 53.1776C62.7457 53.2756 62.7784 53.4063 62.9093 53.4716C63.0728 53.5696 63.3018 53.5696 63.5308 53.6349C63.629 53.6349 63.7598 53.7003 63.8252 53.7003C63.9888 53.6349 64.1197 53.5369 64.2178 53.4063C64.3159 53.3083 64.4468 53.1776 64.3814 53.0143C64.3814 52.949 64.3814 52.9163 64.4468 52.9163C64.6104 52.6223 64.6104 52.2957 64.5449 51.969C64.5449 51.871 64.4468 51.6751 64.4795 51.6751C64.6431 51.6097 64.3814 51.4464 64.5449 51.3484C64.3814 51.1851 64.5449 50.9564 64.5449 50.7931C64.5449 50.6298 64.6104 50.4012 64.6104 50.2378C64.6104 50.0745 64.6104 49.8459 64.6758 49.6825C64.7412 49.2906 64.8394 48.9639 64.9702 48.5719V48.474C65.0356 48.3106 65.0684 48.1473 65.1338 47.984C65.1992 47.7553 65.2319 47.5267 65.3628 47.3307C65.4282 47.1021 65.5264 46.8734 65.5918 46.6121C65.6572 46.3834 65.6899 46.1221 65.8208 45.8935C65.8862 45.7955 65.9189 45.6648 65.9189 45.5668C66.0171 45.2729 66.1479 45.0769 66.2461 44.7829C66.3442 44.5542 66.4096 44.3256 66.5405 44.1296C66.6059 43.9009 66.704 43.6723 66.7695 43.509C66.8349 43.411 66.8349 43.2803 66.8676 43.1823C66.9331 43.019 67.0312 42.8884 67.162 42.725C67.2602 42.3331 67.391 41.9411 67.5546 41.6144C67.62 41.5164 67.6528 41.3205 67.7182 41.2225C67.7836 41.1245 67.8163 40.9938 67.8163 40.8305C67.8163 40.7652 67.8163 40.6672 67.8818 40.6018C68.0453 40.2752 68.2743 39.9486 68.4379 39.5893C68.6015 39.5239 68.6342 39.1646 68.765 38.7726Z" fill="#23272C"/>
<path d="M189.153 50.5904C189.153 50.5273 189.153 50.4325 189.085 50.3693C188.914 50.085 188.743 49.8323 188.436 49.6743L188.266 49.5164C188.164 49.4532 188.027 49.3584 187.959 49.3584C187.788 49.3584 187.55 49.4216 187.447 49.5795C187.277 49.8007 186.936 49.9586 186.936 50.3377C186.936 50.622 186.867 50.8748 186.936 51.1591C187.004 51.2538 187.004 51.3802 187.038 51.475C187.106 51.5697 187.208 51.7593 187.345 51.8541C187.447 51.9488 187.652 52.1384 187.822 52.17C187.993 52.2016 188.164 52.2331 188.402 52.2331C188.88 52.3279 189.221 52.0752 189.221 51.6961C189.153 51.317 189.153 50.9695 189.153 50.5904Z" fill="#23272C"/>
<path d="M139.404 40.0339C139.498 40.0985 139.685 40.1309 139.778 40.0339C139.841 39.9692 139.934 39.9369 140.059 39.9369H140.277L140.215 39.8723C140.308 39.7106 140.433 39.4844 140.495 39.3228H140.589C140.526 39.2258 140.433 39.0965 140.371 38.9995L140.308 38.9349C140.246 38.644 140.152 38.3854 139.934 38.1591C139.841 38.0621 139.654 37.8682 139.56 37.8359C139.28 37.6742 139.124 37.9005 138.937 37.9975C138.656 38.1591 138.625 38.3207 138.625 38.6116C138.625 38.7086 138.562 38.9026 138.562 38.9995C138.562 39.1611 138.563 39.3228 138.625 39.4844C138.874 39.7106 139.092 39.9369 139.404 40.0339Z" fill="#23272C"/>
<path d="M22.3424 13.9656C17.1193 -2.11989 9.19012 0.49163 5.70809 1.49461C2.15036 2.49758 1.60156 2.04341 1.60156 2.04341C7.03278 19.6807 21.1691 14.5144 21.1691 14.5144C21.1691 14.5144 13.4102 14.0602 9.00088 6.37702L22.3424 13.9656Z" fill="#4E9934"/>
<path d="M24.6309 14.0987C24.7255 13.4931 24.7255 6.60478 30.838 1.53313C30.838 1.53313 34.812 -1.81643 35.0391 1.53313C35.2662 4.88269 34.5849 2.81997 30.8758 5.8289C27.1667 8.83782 26.1448 14.0987 26.1448 14.0987H24.6309Z" fill="#100C08"/>
<path d="M49.1194 57.8512L24.6127 72.0442L0.0302734 57.8512V29.5407L24.5748 15.3477L49.1194 29.5029V57.8512Z" fill="#4E9934"/>
<path d="M49.1194 57.8512L24.6127 72.0442L0.0302734 57.8512V29.5407L24.5748 15.3477L49.1194 29.5029V57.8512Z" fill="#4E9934"/>
<path d="M6.97544 34.7062C7.01329 35.6146 6.46449 36.2202 5.55613 36.2202C4.81809 36.2202 4.23145 35.6146 4.23145 34.7062C4.23145 33.7979 4.83702 33.1923 5.6129 33.1923C6.38879 33.1734 6.97544 33.7979 6.97544 34.7062ZM4.45853 53.0815V38.4911H6.76727V53.0815H4.45853Z" fill="white"/>
<path d="M8.86753 50.6782C9.37848 51 10.2868 51.4163 11.233 51.4163C12.5577 51.4163 13.3904 50.6025 13.3904 49.3157C13.3904 48.1803 13.0119 47.4422 11.5169 46.4771C9.60557 45.247 8.58367 44.017 8.58367 42.3138C8.58367 39.9483 10.3625 38.2451 12.5956 38.2451C13.7499 38.2451 14.6015 38.6236 15.2071 38.9832L14.5637 40.762C14.0527 40.4025 13.4093 40.1186 12.6334 40.1186C11.3655 40.1186 10.7221 41.027 10.7221 41.9542C10.7221 42.9572 11.0816 43.506 12.5388 44.509C14.223 45.6066 15.5667 46.8934 15.5667 48.9751C15.5667 51.9083 13.5985 53.3087 11.2141 53.3087C10.1165 53.3087 8.96215 52.987 8.2998 52.476L8.86753 50.6782Z" fill="white"/>
<path d="M23.4397 53.0815L23.3072 51.5297H23.2126C22.5692 52.6652 21.5662 53.3086 20.3362 53.3086C18.3681 53.3086 16.873 51.6622 16.873 49.1453C16.873 45.4551 19.8063 43.8465 23.0801 43.8087V43.3545C23.0801 41.3864 22.5881 40.0239 20.7525 40.0239C19.8441 40.0239 19.0493 40.3456 18.3681 40.7619L17.8571 39.1534C18.4627 38.6992 19.8252 38.2261 21.2824 38.2261C24.2156 38.2261 25.4835 40.1563 25.4835 43.4491V49.7508C25.4835 50.8863 25.4835 52.1353 25.616 53.0815H23.4397ZM23.118 45.5118C21.9258 45.5118 19.1061 45.7389 19.1061 48.8993C19.1061 50.8106 20.0334 51.5108 20.9228 51.5108C21.9636 51.5108 22.8341 50.7727 23.118 49.3156C23.1748 49.0317 23.1748 48.7668 23.1748 48.5019V45.5118H23.118Z" fill="white"/>
<path d="M33.6399 53.0815L33.5074 51.5297H33.4128C32.7694 52.6652 31.7664 53.3086 30.5364 53.3086C28.5682 53.3086 27.0732 51.6622 27.0732 49.1453C27.0732 45.4551 30.0065 43.8465 33.2803 43.8087V43.3545C33.2803 41.3864 32.7883 40.0239 30.9527 40.0239C30.0443 40.0239 29.2495 40.3456 28.5682 40.7619L28.0573 39.1534C28.6629 38.6992 30.0254 38.2261 31.4826 38.2261C34.4158 38.2261 35.6837 40.1563 35.6837 43.4491V49.7508C35.6837 50.8863 35.6837 52.1353 35.8162 53.0815H33.7156C33.6399 53.0436 33.6399 53.0815 33.6399 53.0815ZM33.3182 45.5118C32.126 45.5118 29.3063 45.7389 29.3063 48.8993C29.3063 50.8106 30.2336 51.5108 31.123 51.5108C32.1638 51.5108 33.0343 50.7727 33.3182 49.3156C33.375 49.0317 33.375 48.7668 33.375 48.5019V45.5118H33.3182Z" fill="white"/>
<path d="M45.2399 52.7218C44.729 53.0435 43.8585 53.2328 42.8555 53.2328C39.6573 53.2328 37.5 50.6402 37.5 45.8334C37.5 41.6323 39.6006 38.207 43.2718 38.207C44.0477 38.207 44.8804 38.4341 45.3156 38.6612L44.8615 40.5725C44.5398 40.4401 43.9531 40.1941 43.2151 40.1941C40.8874 40.1941 39.8277 42.9759 39.8277 45.8524C39.8277 49.2776 41.1145 51.3025 43.2908 51.3025C43.9342 51.3025 44.4451 51.17 44.975 50.924L45.2399 52.7218Z" fill="white"/>
</svg>
