<svg width="42" height="61" viewBox="0 0 42 61" fill="none" xmlns="http://www.w3.org/2000/svg">
<path d="M18.7887 11.7235C14.3903 -1.82218 7.71312 0.376998 4.78088 1.22161C1.7849 2.06622 1.32275 1.68376 1.32275 1.68376C5.89641 16.5362 17.8007 12.1856 17.8007 12.1856C17.8007 12.1856 11.2669 11.8032 7.55376 5.33312L18.7887 11.7235Z" fill="#4E9934"/>
<path d="M20.7168 11.8352C20.7965 11.3252 20.7965 5.52451 25.9438 1.25364C25.9438 1.25364 29.2904 -1.56705 29.4816 1.25364C29.6729 4.07432 29.0992 2.33729 25.9757 4.87113C22.8522 7.40496 21.9917 11.8352 21.9917 11.8352H20.7168Z" fill="#100C08"/>
<path d="M41.3382 48.6791L20.701 60.6312L0 48.6791V24.8388L20.6691 12.8867L41.3382 24.8069V48.6791Z" fill="#4E9934"/>
<path d="M41.3382 48.6791L20.701 60.6312L0 48.6791V24.8388L20.6691 12.8867L41.3382 24.8069V48.6791Z" fill="#4E9934"/>
<path d="M5.84833 29.1893C5.8802 29.9542 5.41805 30.4642 4.65312 30.4642C4.03162 30.4642 3.5376 29.9542 3.5376 29.1893C3.5376 28.4244 4.04755 27.9144 4.70093 27.9144C5.35431 27.8985 5.84833 28.4244 5.84833 29.1893ZM3.72883 44.6632V32.3765H5.67303V44.6632H3.72883Z" fill="white"/>
<path d="M7.44195 42.6389C7.87222 42.9099 8.63715 43.2605 9.43396 43.2605C10.5495 43.2605 11.2507 42.5752 11.2507 41.4915C11.2507 40.5354 10.9319 39.9139 9.673 39.1011C8.06346 38.0653 7.20291 37.0294 7.20291 35.5952C7.20291 33.6032 8.7009 32.1689 10.5814 32.1689C11.5535 32.1689 12.2706 32.4877 12.7805 32.7905L12.2387 34.2884C11.8084 33.9857 11.2666 33.7466 10.6132 33.7466C9.54551 33.7466 9.00368 34.5115 9.00368 35.2924C9.00368 36.137 9.30647 36.5992 10.5335 37.4438C11.9519 38.3681 13.0833 39.4517 13.0833 41.2047C13.0833 43.6748 11.426 44.8541 9.41802 44.8541C8.49373 44.8541 7.52163 44.5831 6.96387 44.1529L7.44195 42.6389Z" fill="white"/>
<path d="M19.7129 44.6631L19.6014 43.3564H19.5217C18.9799 44.3125 18.1353 44.8544 17.0994 44.8544C15.4421 44.8544 14.1831 43.4679 14.1831 41.3484C14.1831 38.2409 16.6532 36.8863 19.4101 36.8545V36.472C19.4101 34.8146 18.9958 33.6672 17.45 33.6672C16.6851 33.6672 16.0158 33.9382 15.4421 34.2888L15.0118 32.9342C15.5217 32.5517 16.6691 32.1533 17.8962 32.1533C20.3663 32.1533 21.434 33.7788 21.434 36.5517V41.8584C21.434 42.8146 21.434 43.8663 21.5456 44.6631H19.7129ZM19.442 38.2887C18.438 38.2887 16.0636 38.4799 16.0636 41.1413C16.0636 42.7508 16.8444 43.3404 17.5934 43.3404C18.4699 43.3404 19.203 42.7189 19.442 41.4919C19.4898 41.2528 19.4898 41.0297 19.4898 40.8066V38.2887H19.442Z" fill="white"/>
<path d="M28.3023 44.6631L28.1907 43.3564H28.111C27.5692 44.3125 26.7246 44.8544 25.6888 44.8544C24.0314 44.8544 22.7725 43.4679 22.7725 41.3484C22.7725 38.2409 25.2426 36.8863 27.9995 36.8545V36.472C27.9995 34.8146 27.5852 33.6672 26.0394 33.6672C25.2744 33.6672 24.6051 33.9382 24.0314 34.2888L23.6011 32.9342C24.1111 32.5517 25.2585 32.1533 26.4856 32.1533C28.9557 32.1533 30.0234 33.7788 30.0234 36.5517V41.8584C30.0234 42.8146 30.0234 43.8663 30.1349 44.6631H28.366C28.3023 44.6313 28.3023 44.6631 28.3023 44.6631ZM28.0314 38.2887C27.0274 38.2887 24.6529 38.4799 24.6529 41.1413C24.6529 42.7508 25.4338 43.3404 26.1828 43.3404C27.0593 43.3404 27.7923 42.7189 28.0314 41.4919C28.0792 41.2528 28.0792 41.0297 28.0792 40.8066V38.2887H28.0314Z" fill="white"/>
<path d="M38.0711 44.3607C37.6408 44.6316 36.9077 44.7909 36.0631 44.7909C33.3699 44.7909 31.5532 42.6077 31.5532 38.5599C31.5532 35.0221 33.3221 32.1377 36.4137 32.1377C37.0671 32.1377 37.7683 32.3289 38.1348 32.5202L37.7524 34.1297C37.4814 34.0182 36.9874 33.811 36.3659 33.811C34.4058 33.811 33.5134 36.1536 33.5134 38.5759C33.5134 41.4603 34.597 43.1655 36.4297 43.1655C36.9715 43.1655 37.4018 43.0539 37.848 42.8467L38.0711 44.3607Z" fill="white"/>
</svg>
