<?xml version="1.0" encoding="UTF-8"?>
<!DOCTYPE svg  PUBLIC '-//W3C//DTD SVG 1.1//EN'  'http://www.w3.org/Graphics/SVG/1.1/DTD/svg11.dtd'>
<svg enable-background="new 150.1 0 228.4 322.2" version="1.1" viewBox="150.1 0 228.4 322.2" xml:space="preserve" xmlns="http://www.w3.org/2000/svg" width="106" height="150">
<polyline points="378 0 378 255.7 264.3 321.6 150.6 256 150.6 0" fill="#fff" stroke="#CCCBCB" stroke-miterlimit="10"/>

	<path d="m256.3 75c-19.7-60.6-49.5-50.7-62.8-46.9s-15.4 2.1-15.4 2.1c20.6 66.4 73.8 47.1 73.8 47.1s-29.2-1.7-45.9-30.7l50.3 28.4z" fill="#4E9934"/>
	<path d="m264.9 75.5c0.4-2.3 0.4-28.2 23.4-47.3 0 0 15-12.6 15.8 0s-1.7 4.9-15.7 16.2-17.8 31.1-17.8 31.1h-5.7z" fill="#100C08"/>

<polygon points="357.1 240.3 264.7 293.7 172.2 240.3 172.2 133.7 264.5 80.3 357.1 133.5" fill="#4E9934"/>

	<g fill="#fff">
		<path d="m198.4 153.1c0.1 3.4-1.9 5.7-5.4 5.7-2.8 0-5-2.3-5-5.7s2.3-5.7 5.2-5.7c3 0 5.2 2.3 5.2 5.7zm-9.5 69.2v-55h8.8v55h-8.8z"/>
		<path d="m205.6 213.3c1.9 1.2 5.4 2.8 8.9 2.8 5 0 8.1-3 8.1-7.9 0-4.3-1.5-7.1-7.1-10.7-7.2-4.6-11.1-9.2-11.1-15.7 0-8.9 6.7-15.3 15.1-15.3 4.4 0 7.5 1.5 9.9 2.8l-2.4 6.7c-1.9-1.3-4.4-2.4-7.3-2.4-4.7 0-7.2 3.4-7.2 6.9 0 3.8 1.3 5.8 6.8 9.6 6.3 4.1 11.4 9 11.4 16.8 0 11.1-7.4 16.3-16.4 16.3-4.1 0-8.5-1.2-10.8-3.2l2.1-6.7z"/>
		<path d="m260.3 222.3-0.5-5.8h-0.4c-2.4 4.3-6.2 6.7-10.9 6.7-7.4 0-13-6.2-13-15.7 0-13.9 11.1-19.9 23.4-20.1v-1.7c0-7.4-1.8-12.5-8.8-12.5-3.4 0-6.4 1.2-9 2.8l-1.9-6.1c2.3-1.7 7.4-3.5 12.9-3.5 11.1 0 15.8 7.3 15.8 19.7v23.7c0 4.3 0 9 0.5 12.5h-8.1zm-1.1-28.4c-4.5 0-15.1 0.9-15.1 12.8 0 7.2 3.5 9.9 6.8 9.9 3.9 0 7.2-2.8 8.3-8.3 0.2-1.1 0.2-2.1 0.2-3v-11.3h-0.2v-0.1z"/>
		<path d="m298.8 222.3-0.5-5.8h-0.3c-2.4 4.3-6.2 6.7-10.9 6.7-7.4 0-13-6.2-13-15.7 0-13.9 11.1-19.9 23.4-20.1v-1.7c0-7.4-1.8-12.5-8.8-12.5-3.4 0-6.4 1.2-9 2.8l-1.9-6.1c2.3-1.7 7.4-3.5 12.9-3.5 11.1 0 15.8 7.3 15.8 19.7v23.7c0 4.3 0 9 0.5 12.5h-8.2zm-1.2-28.4c-4.5 0-15.1 0.9-15.1 12.8 0 7.2 3.5 9.9 6.8 9.9 3.9 0 7.2-2.8 8.3-8.3 0.2-1.1 0.2-2.1 0.2-3v-11.3h-0.2v-0.1z"/>
		<path d="m342.5 221c-1.9 1.2-5.2 1.9-9 1.9-12 0-20.2-9.7-20.2-27.9 0-15.8 7.9-28.7 21.8-28.7 2.9 0 6.1 0.9 7.7 1.7l-1.7 7.2c-1.2-0.5-3.4-1.5-6.2-1.5-8.8 0-12.8 10.5-12.8 21.3 0 12.9 4.9 20.6 13 20.6 2.4 0 4.4-0.5 6.3-1.5l1.1 6.9z"/>
	</g>

</svg>
