<?xml version="1.0" encoding="UTF-8" standalone="no"?>
<svg
   xmlns:dc="http://purl.org/dc/elements/1.1/"
   xmlns:cc="http://creativecommons.org/ns#"
   xmlns:rdf="http://www.w3.org/1999/02/22-rdf-syntax-ns#"
   xmlns:svg="http://www.w3.org/2000/svg"
   xmlns="http://www.w3.org/2000/svg"
   xmlns:sodipodi="http://sodipodi.sourceforge.net/DTD/sodipodi-0.dtd"
   xmlns:inkscape="http://www.inkscape.org/namespaces/inkscape"
   inkscape:version="1.0beta2 (2b71d25, 2019-12-03)"
   sodipodi:docname="social_dots.svg"
   id="svg951"
   version="1.1"
   viewBox="0 0 370 10.480856"
   height="10.480856"
   width="370">
  <metadata
     id="metadata957">
    <rdf:RDF>
      <cc:Work
         rdf:about="">
        <dc:format>image/svg+xml</dc:format>
        <dc:type
           rdf:resource="http://purl.org/dc/dcmitype/StillImage" />
        <dc:title></dc:title>
      </cc:Work>
    </rdf:RDF>
  </metadata>
  <defs
     id="defs955" />
  <sodipodi:namedview
     inkscape:current-layer="morse-ics"
     inkscape:window-maximized="0"
     inkscape:window-y="23"
     inkscape:window-x="0"
     inkscape:cy="8.379407"
     inkscape:cx="153.50242"
     inkscape:zoom="2.07"
     fit-margin-bottom="0"
     fit-margin-right="0"
     fit-margin-left="0"
     fit-margin-top="0"
     showgrid="false"
     id="namedview953"
     inkscape:window-height="799"
     inkscape:window-width="1369"
     inkscape:pageshadow="2"
     inkscape:pageopacity="0"
     guidetolerance="10"
     gridtolerance="10"
     objecttolerance="10"
     borderopacity="1"
     inkscape:document-rotation="0"
     bordercolor="#666666"
     pagecolor="#ffffff" />
  <g
     transform="translate(0,0.48085623)"
     style="fill:#ff3369;fill-rule:evenodd"
     id="morse-ics">
    <g
       style="fill:#509e2e;fill-opacity:1"
       transform="translate(-60)"
       id="p">
      <path
         style="fill:#509e2e;fill-opacity:1"
         inkscape:connector-curvature="0"
         id="path934"
         d="m 165,10 a 5,5 0 0 1 -5,-5 5,5 0 0 1 10,0 5,5 0 0 1 -5,5 z" />
      <path
         style="fill:#509e2e;fill-opacity:1"
         inkscape:connector-curvature="0"
         id="path936"
         d="m 65,10 a 5,5 0 0 1 -5,-5 5,5 0 0 1 5,-5 5,5 0 0 1 5,5 5,5 0 0 1 -5,5 z" />
      <path
         style="fill:#509e2e;fill-opacity:1"
         inkscape:connector-curvature="0"
         id="path938"
         d="m 145,10 h -20 a 5,5 0 0 1 -5,-5 5,5 0 0 1 5,-5 h 20 a 5,5 0 0 1 5,5 5,5 0 0 1 -5,5 z" />
      <path
         style="fill:#509e2e;fill-opacity:1"
         inkscape:connector-curvature="0"
         id="path940"
         d="M 105,9.9999999 H 85 A 5,5 0 0 1 85,-1.4009662e-7 h 20 A 5,5 0 1 1 105,9.9999999 Z" />
    </g>
    <g
       style="fill:#509e2e;fill-opacity:1"
       transform="translate(-40)"
       id="h">
      <path
         style="fill:#509e2e;fill-opacity:1"
         inkscape:connector-curvature="0"
         id="path943"
         d="m 245,10 a 5,5 0 0 1 -5,-5 5,5 0 0 1 5,-5 c 2.75,0 5,2.25 5,5 a 5,5 0 0 1 -5,5 z" />
      <path
         style="fill:#509e2e;fill-opacity:1"
         inkscape:connector-curvature="0"
         id="path945"
         d="m 225,0 c 2.75,0 5,2.25 5,5 a 5,5 0 1 1 -5,-5 z" />
      <path
         style="fill:#509e2e;fill-opacity:1"
         inkscape:connector-curvature="0"
         id="path947"
         d="m 205,0 a 5,5 0 0 1 0,10 5,5 0 0 1 -5,-5 5,5 0 0 1 5,-5 z" />
      <path
         inkscape:connector-curvature="0"
         style="fill:#509e2e;fill-rule:evenodd;fill-opacity:1"
         d="M 185,0 A 5,5 0 0 1 185,9.9999996 5,5 0 0 1 180,5 5,5 0 0 1 185,0 Z"
         id="path947-2" />
    </g>
    <g
       style="fill:#509e2e;fill-rule:evenodd;fill-opacity:1"
       id="y"
       transform="translate(180)">
      <path
         style="fill:#509e2e;fill-opacity:1"
         d="m 105,9.5169082 a 5,5 0 0 1 -5,-5 5.0000005,5.0000005 0 0 1 10,0 5,5 0 0 1 -5,5 z"
         id="path934-4"
         inkscape:connector-curvature="0" />
      <path
         style="fill:#509e2e;fill-opacity:1"
         d="m 145,10 h -20 a 5,5 0 0 1 -5,-5 5,5 0 0 1 5,-5 h 20 a 5,5 0 0 1 5,5 5,5 0 0 1 -5,5 z"
         id="path938-1"
         inkscape:connector-curvature="0" />
      <path
         style="fill:#509e2e;fill-opacity:1"
         d="M 85,9.9999999 H 65 A 5,5 0 0 1 65,-1.4009662e-7 H 85 A 5,5 0 1 1 85,9.9999999 Z"
         id="path940-3"
         inkscape:connector-curvature="0" />
      <path
         style="fill:#509e2e;fill-rule:evenodd;fill-opacity:1"
         inkscape:connector-curvature="0"
         id="path938-1-3"
         d="M 185,9.9999996 H 165 A 5,5 0 0 1 160,5 5,5 0 0 1 165,0 h 20 a 5,5 0 0 1 5,5 5,5 0 0 1 -5,4.9999996 z" />
    </g>
  </g>
</svg>
