<?xml version="1.0" encoding="UTF-8" standalone="no"?>
<svg xmlns="http://www.w3.org/2000/svg" version="1.1">
  <view id="teacher-hat" viewBox="0 0 64 64" />
  <view id="groups" viewBox="64 0 64 64" />
  <view id="set-assignments" viewBox="128 0 64 64" />
  <view id="track-progress" viewBox="192 0 64 64" />
  <view id="use-with-class" viewBox="0 64 64 64" />
  <view id="calendar" viewBox="64 64 64 64" />
  <view id="skills-book-cover" viewBox="128 64 64 64" />
  <view id="teacher-forum" viewBox="192 64 64 64" />  
  <filter id="greyscale">
    <feColorMatrix type="matrix" values="0.3333 0.3333 0.3333 0 0 0.3333 0.3333 0.3333 0 0 0.3333 0.3333 0.3333 0 0 0 0 0 1 0"/>
  </filter>
  <g transform="translate(-2.510894,-0.36220095)">
    <rect
       style="fill:none;fill-opacity:1;stroke:none;stroke-width:0.10734707;stroke-linecap:square;stroke-linejoin:miter;stroke-miterlimit:4;stroke-dasharray:none;stroke-dashoffset:3.49999976"
       width="63.892654"
       height="63.892654"
       x="2.5645707"
       y="0.41588011" />
    <g>
      <path
         d="m 151.74973,29.244776 -9.46509,5.464674 -9.4651,-5.464674 0,-10.929348 9.4651,-5.464674 9.46509,5.464674 z"
         style="opacity:1;fill:#509e2e;fill-opacity:1;fill-rule:evenodd;stroke:#509e2e;stroke-width:0.38574171;stroke-miterlimit:4;stroke-dasharray:none;stroke-dashoffset:0;stroke-opacity:1" />
      <path
         d="m 181.66788,46.408979 -9.46509,5.464674 -9.46509,-5.464674 0,-10.929348 9.46509,-5.464674 9.46509,5.464674 z"
         id="path4173-3"
         style="opacity:1;fill:none;fill-opacity:1;fill-rule:evenodd;stroke:#509e2e;stroke-width:0.38574171;stroke-miterlimit:4;stroke-dasharray:none;stroke-dashoffset:0;stroke-opacity:1" />
      <path
         d="m 191.77288,29.244776 -9.4651,5.464674 -9.46509,-5.464674 0,-10.929348 9.4651,-5.464674 9.46509,5.464674 z"
         style="opacity:1;fill:#509e2e;fill-opacity:1;fill-rule:evenodd;stroke:#509e2e;stroke-width:0.38574171;stroke-miterlimit:4;stroke-dasharray:none;stroke-dashoffset:0;stroke-opacity:1" />
      <path
         d="m 161.63932,46.408979 -9.4651,5.464674 -9.46509,-5.464674 0,-10.929348 9.46509,-5.464674 9.4651,5.464674 z"
         style="opacity:1;fill:#509e2e;fill-opacity:1;fill-rule:evenodd;stroke:#509e2e;stroke-width:0.38574171;stroke-miterlimit:4;stroke-dasharray:none;stroke-dashoffset:0;stroke-opacity:1" />
      <path
         d="m 171.7613,29.244776 -9.4651,5.464674 -9.46509,-5.464674 0,-10.929348 9.46509,-5.464674 9.4651,5.464674 z"
         style="opacity:1;fill:#509e2e;fill-opacity:1;fill-rule:evenodd;stroke:#509e2e;stroke-width:0.38574171;stroke-miterlimit:4;stroke-dasharray:none;stroke-dashoffset:0;stroke-opacity:1" />
    </g>
    <rect
       style="fill:none;fill-opacity:1;stroke:none;stroke-width:0.10734707;stroke-linecap:square;stroke-linejoin:miter;stroke-miterlimit:4;stroke-dasharray:none;stroke-dashoffset:3.49999976"
       width="63.892654"
       height="63.892654"
       x="66.457222"
       y="0.41588011" />
    <rect
       style="fill:none;fill-opacity:1;stroke:none;stroke-width:0.10734707;stroke-linecap:square;stroke-linejoin:miter;stroke-miterlimit:4;stroke-dasharray:none;stroke-dashoffset:3.49999976"
       width="63.892654"
       height="63.892654"
       x="130.34988"
       y="0.41587448" />
    <rect
       style="fill:none;fill-opacity:1;stroke:none;stroke-width:0.10734707;stroke-linecap:square;stroke-linejoin:miter;stroke-miterlimit:4;stroke-dasharray:none;stroke-dashoffset:3.49999976"
       width="63.892654"
       height="63.892654"
       x="194.24254"
       y="0.41588211" />
    <rect
       style="fill:none;fill-opacity:1;stroke:none;stroke-width:0.10734707;stroke-linecap:square;stroke-linejoin:miter;stroke-miterlimit:4;stroke-dasharray:none;stroke-dashoffset:3.49999976"
       width="63.892654"
       height="63.892654"
       x="2.5645676"
       y="64.308533" />
    <rect
       style="fill:none;fill-opacity:1;stroke:none;stroke-width:0.10734707;stroke-linecap:square;stroke-linejoin:miter;stroke-miterlimit:4;stroke-dasharray:none;stroke-dashoffset:3.49999976"
       width="63.892654"
       height="63.892654"
       x="66.457222"
       y="64.308533" />
    <rect
       style="fill:none;fill-opacity:1;stroke:none;stroke-width:0.10734707;stroke-linecap:square;stroke-linejoin:miter;stroke-miterlimit:4;stroke-dasharray:none;stroke-dashoffset:3.49999976"
       id="rect4183-9-0-7"
       width="63.892654"
       height="63.892654"
       x="130.34988"
       y="64.308525" />
    <rect
       style="fill:none;fill-opacity:1;stroke:none;stroke-width:0.10734707;stroke-linecap:square;stroke-linejoin:miter;stroke-miterlimit:4;stroke-dasharray:none;stroke-dashoffset:3.49999976"
       width="63.892654"
       height="63.892654"
       x="194.24254"
       y="64.308533" />
  </g>
  <path
     d="m 15.850231,34.277537 0,8.903077 c 0,0 8.488981,-3.519821 16.149768,-3.519821 7.660798,0 16.356837,3.519821 16.356837,3.519821 l 0,-9.110125 c 0,0 -8.281943,-4.348014 -16.356837,-4.348014 -8.281932,0 -16.149768,4.555062 -16.149768,4.555062 z m 41.616731,-2.277531 3.312772,-1.656387 -3.312772,-1.863434 0,-0.828193 c 0,0 1.035241,-4.555063 -4.140977,-2.277542 -0.414086,0.207058 -0.414086,0.414096 -0.621135,0.414096 L 31.378865,13.986793 3.2202739,30.136571 l 10.7665121,4.762111 0,-1.449338 c 0,0 8.903088,-5.176218 18.013213,-5.176218 9.110136,0 18.220261,4.96917 18.220261,4.96917 l 0,2.691628 5.797363,-3.105714 c 0,3.726859 0,11.387646 0,12.836995 l -1.863434,0 0,4.348014 2.691628,-1.656386 2.898676,1.656386 0,-4.348014 -2.277531,0 z m -1.449339,-5.176208 c 0,0.207049 0,0.414097 0,0.828194 l -1.656386,-0.828194 c 0.621145,-0.414096 1.656386,-1.035252 1.656386,0 z m -0.414096,4.96916 c -0.828193,0 -1.449338,-0.621145 -1.449338,-1.24229 0,-0.828193 0.621145,-1.449338 1.449338,-1.449338 0.621145,0 1.24229,0.621145 1.24229,1.449338 0,0.621145 -0.621145,1.24229 -1.24229,1.24229 z"
     style="fill:#509e2e" />
  <g
     transform="matrix(0.07440443,0,0,0.07440443,69.83726,58.13616)"
     style="fill:#509e2e;stroke:none">
    <path
       transform="translate(150.10001,0)"
       d="m 180.91644,-338.55561 c -16.9728,-4.84811 -31.09417,-13.20131 -43.83027,-25.92685 -20.19354,-20.17679 -29.12053,-42.14376 -29.14421,-71.71629 -0.0158,-19.67739 2.21128,-28.99911 10.99722,-46.03109 11.50536,-22.30371 32.20259,-39.45936 58.47209,-48.4667 9.68986,-3.32248 12.92431,-3.74791 28.67034,-3.77103 13.31089,-0.0195 19.74479,0.59022 25.73364,2.43884 62.19971,19.1997 90.90829,84.64907 62.39567,142.24863 -12.53114,25.31468 -35.93358,44.13273 -63.72299,51.24007 -13.89324,3.55329 -37.10274,3.546 -49.57149,-0.0156 l 0,-2e-5 z"
       style="fill:#509e2e;stroke:none" />
    <path
       transform="translate(150.10001,0)"
       d="m 8.840967,-443.01867 c -32.88763,-7.46758 -57.352449,-26.72276 -71.12809,-55.98177 -22.864602,-48.56367 -2.331591,-107.52312 45.650404,-131.0827 16.34645441,-8.02625 26.980192,-10.60681 43.870018,-10.6462 16.449983,-0.0384 27.297237,2.50709 42.322883,9.93164 20.312062,10.03671 36.351468,25.85757 45.968088,45.34178 6.72737,13.6303 9.32258,22.90765 10.26224,36.6855 l 0.79567,11.66646 -9.40239,10.17761 c -20.594372,22.29232 -28.110903,36.41464 -36.840434,69.21704 -0.752992,2.8295 -8.378757,6.71182 -22.217371,11.311 -15.957969,5.30352 -35.043761,6.6124 -49.281018,3.37964 z"
       style="fill:#509e2e;stroke:none" />
    <path
       transform="translate(150.10001,0)"
       d="m -13.041703,-168.89118 c -34.46236,-3.80752 -94.768247,-16.44725 -126.820187,-26.5807 l -4.62994,-1.46378 0.74432,-60.92561 c 0.81072,-66.35998 1.08768,-69.03407 9.37602,-90.52646 2.24001,-5.80854 7.17744,-15.34777 10.97207,-21.19829 9.25233,-14.26514 29.097348,-33.50081 42.983875,-41.66402 12.057025,-7.08774 36.475455,-15.88543 46.59059,-16.78606 3.546446,-0.31577 30.1992609,-0.88319 59.228472,-1.26093 l 52.780389,-0.6868 0.893819,7.13195 c 3.044503,24.29281 12.594143,47.82563 27.148385,66.9007 l 8.61739,11.29412 -9.68775,3.67326 c -37.297808,14.14204 -72.66255,49.2437 -86.956803,86.30992 -8.3095247,21.54736 -9.650614,29.16324 -10.4071014,59.1012 l -0.698587,27.6464 -7.67828569,-0.21849 c -4.22305921,-0.12017 -9.82856091,-0.45607 -12.45667591,-0.74641 z"
       style="fill:#509e2e;stroke:none" />
    <path
       transform="translate(150.10001,0)"
       d="m 183.55491,-62.23154 c -2.62811,-0.299059 -11.53639,-1.215199 -19.79618,-2.035853 C 130.03748,-67.617837 58.392276,-82.305624 40.132759,-89.611646 l -5.390562,-2.15687 0.03982,-47.294344 c 0.0483,-57.36042 1.332459,-77.20587 6.044708,-93.41515 11.993558,-41.25567 41.814131,-72.20081 83.469635,-86.61737 l 14.88779,-5.15251 66.21483,0 c 65.61781,0 66.31331,0.0291 77.13687,3.22668 36.51736,10.78827 64.69207,34.449 80.69503,67.76654 11.29982,23.52581 11.57638,25.68126 12.44579,97.00102 l 0.76638,62.86967 -8.04384,3.589294 c -26.39788,11.779141 -55.26673,19.417507 -94.73751,25.066451 -13.59287,1.945365 -79.02017,3.758231 -90.10679,2.496695 z"
       style="fill:#509e2e;stroke:none" />
    <path
       transform="translate(150.10001,0)"
       d="m 404.72611,-191.69813 c 0,-14.87394 -0.72603,-27.56646 -1.93967,-33.90961 -4.23009,-22.10868 -14.9533,-46.5831 -27.99532,-63.89591 -15.71023,-20.85476 -42.39914,-41.69582 -64.78034,-50.58621 -6.10053,-2.42329 -11.32327,-4.58692 -11.60608,-4.80807 -0.28281,-0.22115 1.93915,-3.34492 4.93769,-6.94171 16.58929,-19.89904 27.30072,-44.93256 29.91075,-69.90392 l 0.85491,-8.1794 49.30289,0.69066 c 54.11707,0.7581 61.14203,1.43342 77.86792,7.48556 38.27957,13.85117 69.5789,48.41095 80.30258,88.66772 2.98069,11.18954 3.07988,13.55264 3.08153,73.42507 l 10e-4,61.86343 -10.72412,4.73152 c -28.93359,12.76576 -87.96099,25.13272 -119.95787,25.13272 l -9.25623,0 0,-23.77185 z"
       style="fill:#509e2e;stroke:none" />
    <path
       transform="translate(150.10001,0)"
       d="m 353.52907,-443.23606 c -5.25623,-1.11997 -12.09298,-3.15249 -15.19278,-4.51674 -5.48375,-2.41343 -5.67908,-2.72782 -7.23092,-11.63917 -4.95222,-28.43776 -22.76067,-57.72337 -45.90091,-75.4831 l -10.18071,-7.81351 0.7564,-6.82627 c 3.82924,-34.5577 25.87737,-65.61901 57.11489,-80.4632 15.24804,-7.24593 26.61531,-9.41131 45.49138,-8.66578 12.75684,0.50384 18.36839,1.40614 27.02232,4.34499 30.23347,10.2672 52.67272,32.70645 62.93991,62.93992 2.92797,8.62186 3.84168,14.27494 4.3386,26.8428 0.79607,20.13362 -1.71599,32.21256 -10.24078,49.24165 -5.06787,10.12358 -8.41574,14.60444 -18.04238,24.14822 -6.50094,6.445 -15.27134,13.75835 -19.48977,16.2519 -20.358,12.03371 -48.21479,16.57535 -71.38525,11.63829 z"
       style="fill:#509e2e;stroke:none" />
  </g>
  <g>
    <path
       style="fill:#509e2e"
       d="m 218.773,19.500008 -14.99997,14.999997 -4.99999,-4.999997 -5.00003,4.999997 10.00002,10.000003 20,-19.999998 z" />
    <path
       style="fill:#509e2e"
       d="m 238.2689,32.309924 -8.36777,12.190084 6.09504,0 5.68182,-8.78099 5.78512,8.78099 5.99174,0 -8.47107,-12.190084 8.88429,-12.809916 -5.99173,0 -6.19835,9.400821 -6.19835,-9.400821 -5.99173,0 z" />
  </g>
  <g
     transform="matrix(0.16276335,0,0,0.16276335,-11.950698,70.840382)">
    <g
       transform="matrix(1.0207807,0,0,1.0207807,120.08698,-29.78619)">
      <g>
        <path
           style="fill:#4e9934"
           d="M 92.8,68.8 C 78,23.1 55.5,30.6 45.6,33.4 35.6,36.2 34,35 34,35 c 15.4,50 55.5,35.4 55.5,35.4 0,0 -22,-1.3 -34.5,-23.1 l 37.8,21.5 z" />
        <path
           style="fill:#100c08"
           d="m 99.3,69.1 c 0.3,-1.7 0.3,-21.3 17.6,-35.6 0,0 11.3,-9.5 11.9,0 0.6,9.5 -1.3,3.7 -11.8,12.2 -10.5,8.5 -13.4,23.4 -13.4,23.4 l -4.3,0 z" />
      </g>
      <polygon
         style="fill:#4e9934"
         points="168.8,193.3 99.2,233.5 29.5,193.3 29.5,112.9 99.1,72.7 168.8,112.8 " />
      <g>
        <g>
          <path
             style="fill:#ffffff"
             d="m 49.2,127.6 c 0.1,2.6 -1.5,4.3 -4,4.3 -2.1,0 -3.8,-1.7 -3.8,-4.3 0,-2.6 1.7,-4.3 3.9,-4.3 2.3,0 3.9,1.7 3.9,4.3 z m -7.1,52.1 0,-41.4 6.6,0 0,41.4 -6.6,0 z" />
          <path
             style="fill:#ffffff"
             d="m 54.6,172.9 c 1.5,0.9 4,2.1 6.7,2.1 3.8,0 6.1,-2.3 6.1,-6 0,-3.2 -1.1,-5.3 -5.3,-8.1 -5.4,-3.5 -8.3,-7 -8.3,-11.8 0,-6.7 5,-11.5 11.4,-11.5 3.3,0 5.7,1.1 7.4,2.1 l -1.8,5 c -1.5,-1 -3.3,-1.8 -5.5,-1.8 -3.6,0 -5.4,2.6 -5.4,5.2 0,2.8 1,4.4 5.1,7.2 4.8,3.1 8.6,6.8 8.6,12.6 0,8.3 -5.6,12.3 -12.4,12.3 -3.1,0 -6.4,-0.9 -8.2,-2.4 l 1.6,-4.9 z" />
          <path
             style="fill:#ffffff"
             d="m 95.9,179.7 -0.4,-4.4 -0.3,0 c -1.8,3.2 -4.7,5 -8.2,5 -5.6,0 -9.8,-4.7 -9.8,-11.8 0,-10.4 8.3,-15 17.6,-15.1 l 0,-1.3 c 0,-5.6 -1.4,-9.4 -6.6,-9.4 -2.6,0 -4.9,0.9 -6.8,2.1 l -1.5,-4.6 c 1.7,-1.3 5.6,-2.7 9.7,-2.7 8.3,0 11.9,5.5 11.9,14.8 l 0,17.9 c 0,3.2 0,6.8 0.4,9.4 l -6,0 z M 95,158.3 c -3.4,0 -11.4,0.6 -11.4,9.6 0,5.4 2.7,7.4 5.1,7.4 2.9,0 5.4,-2.1 6.2,-6.2 0.2,-0.8 0.2,-1.6 0.2,-2.3 l 0,-8.5 z" />
          <path
             style="fill:#ffffff"
             d="m 124.9,179.7 -0.4,-4.4 -0.3,0 c -1.8,3.2 -4.7,5 -8.2,5 -5.6,0 -9.8,-4.7 -9.8,-11.8 0,-10.4 8.3,-15 17.6,-15.1 l 0,-1.3 c 0,-5.6 -1.4,-9.4 -6.6,-9.4 -2.6,0 -4.9,0.9 -6.8,2.1 l -1.5,-4.6 c 1.7,-1.3 5.6,-2.7 9.7,-2.7 8.3,0 11.9,5.5 11.9,14.8 l 0,17.9 c 0,3.2 0,6.8 0.4,9.4 l -6,0 z M 124,158.3 c -3.4,0 -11.4,0.6 -11.4,9.6 0,5.4 2.7,7.4 5.1,7.4 2.9,0 5.4,-2.1 6.2,-6.2 0.2,-0.8 0.2,-1.6 0.2,-2.3 l 0,-8.5 z" />
          <path
             style="fill:#ffffff"
             d="m 157.8,178.7 c -1.5,0.9 -3.9,1.5 -6.8,1.5 -9.1,0 -15.2,-7.3 -15.2,-21 0,-11.9 6,-21.6 16.4,-21.6 2.2,0 4.6,0.6 5.8,1.3 l -1.3,5.4 c -0.9,-0.4 -2.6,-1.1 -4.7,-1.1 -6.6,0 -9.6,7.9 -9.6,16 0,9.7 3.7,15.5 9.8,15.5 1.8,0 3.3,-0.4 4.8,-1.1 l 0.8,5.1 z" />
        </g>
      </g>
    </g>
    <g
       style="fill:#fea100;stroke:none"
       transform="matrix(0.255124,0,0,0.255124,212.60548,323.50686)">
      <path
         style="fill:#fea100;stroke:none"
         d="m 180.91644,-338.55561 c -16.9728,-4.84811 -31.09417,-13.20131 -43.83027,-25.92685 -20.19354,-20.17679 -29.12053,-42.14376 -29.14421,-71.71629 -0.0158,-19.67739 2.21128,-28.99911 10.99722,-46.03109 11.50536,-22.30371 32.20259,-39.45936 58.47209,-48.4667 9.68986,-3.32248 12.92431,-3.74791 28.67034,-3.77103 13.31089,-0.0195 19.74479,0.59022 25.73364,2.43884 62.19971,19.1997 90.90829,84.64907 62.39567,142.24863 -12.53114,25.31468 -35.93358,44.13273 -63.72299,51.24007 -13.89324,3.55329 -37.10274,3.546 -49.57149,-0.0156 l 0,-2e-5 z"
         transform="translate(150.10001,0)" />
      <path
         style="fill:#fea100;stroke:none"
         d="m 8.840967,-443.01867 c -32.88763,-7.46758 -57.352449,-26.72276 -71.12809,-55.98177 -22.864602,-48.56367 -2.331591,-107.52312 45.650404,-131.0827 16.34645441,-8.02625 26.980192,-10.60681 43.870018,-10.6462 16.449983,-0.0384 27.297237,2.50709 42.322883,9.93164 20.312062,10.03671 36.351468,25.85757 45.968088,45.34178 6.72737,13.6303 9.32258,22.90765 10.26224,36.6855 l 0.79567,11.66646 -9.40239,10.17761 c -20.594372,22.29232 -28.110903,36.41464 -36.840434,69.21704 -0.752992,2.8295 -8.378757,6.71182 -22.217371,11.311 -15.957969,5.30352 -35.043761,6.6124 -49.281018,3.37964 z"
         transform="translate(150.10001,0)" />
      <path
         style="fill:#fea100;stroke:none"
         d="m -13.041703,-168.89118 c -34.46236,-3.80752 -94.768247,-16.44725 -126.820187,-26.5807 l -4.62994,-1.46378 0.74432,-60.92561 c 0.81072,-66.35998 1.08768,-69.03407 9.37602,-90.52646 2.24001,-5.80854 7.17744,-15.34777 10.97207,-21.19829 9.25233,-14.26514 29.097348,-33.50081 42.983875,-41.66402 12.057025,-7.08774 36.475455,-15.88543 46.59059,-16.78606 3.546446,-0.31577 30.1992609,-0.88319 59.228472,-1.26093 l 52.780389,-0.6868 0.893819,7.13195 c 3.044503,24.29281 12.594143,47.82563 27.148385,66.9007 l 8.61739,11.29412 -9.68775,3.67326 c -37.297808,14.14204 -72.66255,49.2437 -86.956803,86.30992 -8.3095247,21.54736 -9.650614,29.16324 -10.4071014,59.1012 l -0.698587,27.6464 -7.67828569,-0.21849 c -4.22305921,-0.12017 -9.82856091,-0.45607 -12.45667591,-0.74641 z"
         transform="translate(150.10001,0)" />
      <path
         style="fill:#fea100;stroke:none"
         d="m 183.55491,-62.23154 c -2.62811,-0.299059 -11.53639,-1.215199 -19.79618,-2.035853 C 130.03748,-67.617837 58.392276,-82.305624 40.132759,-89.611646 l -5.390562,-2.15687 0.03982,-47.294344 c 0.0483,-57.36042 1.332459,-77.20587 6.044708,-93.41515 11.993558,-41.25567 41.814131,-72.20081 83.469635,-86.61737 l 14.88779,-5.15251 66.21483,0 c 65.61781,0 66.31331,0.0291 77.13687,3.22668 36.51736,10.78827 64.69207,34.449 80.69503,67.76654 11.29982,23.52581 11.57638,25.68126 12.44579,97.00102 l 0.76638,62.86967 -8.04384,3.589294 c -26.39788,11.779141 -55.26673,19.417507 -94.73751,25.066451 -13.59287,1.945365 -79.02017,3.758231 -90.10679,2.496695 z"
         transform="translate(150.10001,0)" />
      <path
         style="fill:#fea100;stroke:none"
         d="m 404.72611,-191.69813 c 0,-14.87394 -0.72603,-27.56646 -1.93967,-33.90961 -4.23009,-22.10868 -14.9533,-46.5831 -27.99532,-63.89591 -15.71023,-20.85476 -42.39914,-41.69582 -64.78034,-50.58621 -6.10053,-2.42329 -11.32327,-4.58692 -11.60608,-4.80807 -0.28281,-0.22115 1.93915,-3.34492 4.93769,-6.94171 16.58929,-19.89904 27.30072,-44.93256 29.91075,-69.90392 l 0.85491,-8.1794 49.30289,0.69066 c 54.11707,0.7581 61.14203,1.43342 77.86792,7.48556 38.27957,13.85117 69.5789,48.41095 80.30258,88.66772 2.98069,11.18954 3.07988,13.55264 3.08153,73.42507 l 10e-4,61.86343 -10.72412,4.73152 c -28.93359,12.76576 -87.96099,25.13272 -119.95787,25.13272 l -9.25623,0 0,-23.77185 z"
         transform="translate(150.10001,0)" />
      <path
         style="fill:#fea100;stroke:none"
         d="m 353.52907,-443.23606 c -5.25623,-1.11997 -12.09298,-3.15249 -15.19278,-4.51674 -5.48375,-2.41343 -5.67908,-2.72782 -7.23092,-11.63917 -4.95222,-28.43776 -22.76067,-57.72337 -45.90091,-75.4831 l -10.18071,-7.81351 0.7564,-6.82627 c 3.82924,-34.5577 25.87737,-65.61901 57.11489,-80.4632 15.24804,-7.24593 26.61531,-9.41131 45.49138,-8.66578 12.75684,0.50384 18.36839,1.40614 27.02232,4.34499 30.23347,10.2672 52.67272,32.70645 62.93991,62.93992 2.92797,8.62186 3.84168,14.27494 4.3386,26.8428 0.79607,20.13362 -1.71599,32.21256 -10.24078,49.24165 -5.06787,10.12358 -8.41574,14.60444 -18.04238,24.14822 -6.50094,6.445 -15.27134,13.75835 -19.48977,16.2519 -20.358,12.03371 -48.21479,16.57535 -71.38525,11.63829 z"
         transform="translate(150.10001,0)" />
    </g>
  </g>
  <path
     d="m 76.263759,117.27937 8.007811,0 0,-8.00781 -8.007811,0 z m 9.765625,0 8.984372,0 0,-8.00781 -8.984372,0 z m -9.765625,-9.76562 8.007811,0 0,-8.98438 -8.007811,0 z m 9.765625,0 8.984372,0 0,-8.98438 -8.984372,0 z m -9.765625,-10.742193 8.007811,0 0,-8.007805 -8.007811,0 z m 20.507803,20.507813 8.984368,0 0,-8.00781 -8.984368,0 z m -10.742178,-20.507813 8.984372,0 0,-8.007805 -8.984372,0 z m 21.484356,20.507813 8.0078,0 0,-8.00781 -8.0078,0 z m -10.742178,-9.76562 8.984368,0 0,-8.98438 -8.984368,0 z m -9.765618,-24.121094 0,-8.007812 c 0,-0.292964 -0.09766,-0.48828 -0.292973,-0.683587 -0.195307,-0.195315 -0.390623,-0.195315 -0.683587,-0.195315 l -1.757814,0 c -0.195314,0 -0.390629,0 -0.585937,0.195315 -0.195314,0.195307 -0.292972,0.390623 -0.292972,0.683587 l 0,8.007812 c 0,0.195315 0.09766,0.48828 0.292972,0.585938 0.195308,0.195314 0.390623,0.292972 0.585937,0.292972 l 1.757814,0 c 0.292964,0 0.48828,-0.09766 0.683587,-0.292972 0.195315,-0.09766 0.292973,-0.390623 0.292973,-0.585938 z m 20.507796,24.121094 8.0078,0 0,-8.98438 -8.0078,0 z m -10.742178,-10.742193 8.984368,0 0,-8.007805 -8.984368,0 z m 10.742178,0 8.0078,0 0,-8.007805 -8.0078,0 z m 0.8789,-13.378901 0,-8.007812 c 0,-0.292964 -0.0977,-0.48828 -0.29297,-0.683587 -0.19531,-0.195315 -0.39061,-0.195315 -0.58593,-0.195315 l -1.75781,0 c -0.29297,0 -0.48827,0 -0.68358,0.195315 -0.19533,0.195307 -0.29298,0.390623 -0.29298,0.683587 l 0,8.007812 c 0,0.195315 0.0977,0.48828 0.29298,0.585938 0.19531,0.195314 0.39061,0.292972 0.68358,0.292972 l 1.75781,0 c 0.19532,0 0.39062,-0.09766 0.58593,-0.292972 0.19533,-0.09766 0.29297,-0.390623 0.29297,-0.585938 z m 10.74219,-1.757812 0,35.644526 c 0,0.97657 -0.39062,1.85547 -1.07421,2.53906 -0.6836,0.68361 -1.56251,1.07423 -2.53908,1.07423 l -39.257781,0 c -0.97656,0 -1.85547,-0.39062 -2.539065,-1.07423 -0.683589,-0.68359 -1.074218,-1.56249 -1.074218,-2.53906 l 0,-35.644526 c 0,-0.976561 0.390629,-1.855465 1.074218,-2.539059 0.683595,-0.683594 1.562505,-1.074218 2.539065,-1.074218 l 3.515625,0 0,-2.636723 c 0,-1.269526 0.488281,-2.343744 1.367184,-3.222653 0.87891,-0.878903 1.953128,-1.269532 3.125002,-1.269532 l 1.757814,0 c 1.269526,0 2.343743,0.390629 3.222653,1.269532 0.878903,0.878909 1.269532,1.953127 1.269532,3.222653 l 0,2.636723 10.742171,0 0,-2.636723 c 0,-1.269526 0.39063,-2.343744 1.26953,-3.222653 0.87892,-0.878903 1.95314,-1.269532 3.22266,-1.269532 l 1.75781,0 c 1.17187,0 2.2461,0.390629 3.125,1.269532 0.87891,0.878909 1.36718,1.953127 1.36718,3.222653 l 0,2.636723 3.51562,0 c 0.97657,0 1.85548,0.390624 2.53908,1.074218 0.68359,0.683594 1.07421,1.562498 1.07421,2.539059 z"
     style="fill:#509e2e" />
  <g
     transform="matrix(0.12279561,0,0,0.12279561,145.75153,65.956214)">
    <path
       d="m 172.36038,446.81102 -1.65028,0.57009 -85.849716,-39.01744 c -47.21734,-21.45959 -86.6850897,-39.76574 -87.7061197,-40.68035 -1.02102,-0.9146 -2.64842,-3.23791 -3.61643,-5.16291 l -1.76002,-3.5 -0.38357,-140.68796 -0.38357,-140.687958 4.44582,-3.812037 c 2.4452,-2.096621 12.3452,-9.83352 21.9999997,-17.193109 l 17.55418,-13.381071 3.47365,-1.475797 3.47365,-1.475797 5.63896,-0.05312 5.63897,-0.05312 85.887376,34.77948 85.88739,34.779479 2.74614,1.94585 2.74614,1.94585 2.75386,4.68466 2.75386,4.68465 0.77504,137.47797 0.77504,137.47797 -1.87536,2.52203 -1.87537,2.52202 -2.20749,0.32713 -2.20749,0.32712 -2.44219,-1.60018 -2.44218,-1.60018 0,-2.97694 c 0,-1.63732 -0.2344,-2.97695 -0.52089,-2.97695 -0.28649,0 -11.08649,9.24745 -24,20.54989 l -23.47911,20.54989 0,3.75898 0,3.75898 -1.25,1.55139 c -0.6875,0.85327 -1.99263,1.80794 -2.90029,2.12148 z m 5.02357,-17.45728 c 0.4803,-0.18333 11.29931,-9.33333 24.04224,-20.33333 l 23.16895,-20 -0.53858,-14 c -0.29621,-7.7 -0.54022,-66.73741 -0.54223,-131.19424 l -0.004,-117.19423 -2.25184,-2.61792 -2.25185,-2.61792 -83.84106,-33.937843 -83.841066,-33.93784 -4.18727,0 -4.18728,0 L 26.267334,66.2576 9.5847043,78.994784 10.297514,79.655982 c 0.39205,0.363659 36.03782,15.139949 79.21282,32.836198 43.174996,17.69625 79.506706,32.82356 80.737136,33.61625 l 2.23713,1.44124 2.01287,3.94554 2.01286,3.94553 0,137.12317 0,137.12317 0.87328,-0.33334 z m -36.48169,-21.83333 1.39159,0 0.62746,-2.5 0.62746,-2.5 1.98095,0 1.98095,0 0,-1.49713 0,-1.49713 -3.25,-1.36333 c -1.7875,-0.74982 -3.5875,-1.17456 -4,-0.94385 l -0.75,0.41947 0,4.94099 0,4.94098 1.39159,0 z m -3.60641,-2.06339 1.28519,0.0634 -1.03789,-1.93931 -1.03789,-1.93931 1.00271,-0.61971 1.0027,-0.6197 0,-2.45717 0,-2.45716 -3.5949,-1.71428 -3.59489,-1.71429 -1.40511,1.92159 c -0.7728,1.05688 -1.4051,2.63546 -1.4051,3.50796 0,0.8725 0.72315,2.61881 1.607,3.88068 0.88385,1.26187 2.57135,2.68347 3.75,3.15912 1.17865,0.47564 2.72133,0.89333 3.42818,0.92819 z m -2.78518,-3.93661 -1.33333,0 0.66666,-0.66667 0.66667,-0.66666 0.66667,0.66666 0.66666,0.66667 -1.33333,0 z m -0.58333,-4.07895 -1.91667,-0.0789 1.3125,-0.52522 1.3125,-0.52522 0.60417,0.60416 0.60416,0.60417 -1.91666,-0.079 z m -6.16667,4.01556 c 0.4125,0.0349 0.75,-0.35447 0.75,-0.86518 0,-0.51072 -0.67371,-1.60228 -1.49713,-2.4257 l -1.49712,-1.49713 0.60411,-1.5743 0.60412,-1.5743 1.39301,0 1.39301,0 0,-1.03138 c 0,-0.56727 -0.675,-1.29041 -1.5,-1.60699 l -1.5,-0.57561 0,-1.33399 c 0,-0.7337 -0.50031,-1.64321 -1.1118,-2.02113 l -1.11181,-0.68713 -0.76102,1.23136 -0.76102,1.23136 -2.06143,-1.10324 c -1.13379,-0.60679 -2.31602,-1.10325 -2.62718,-1.10325 -0.31116,0 -0.56574,0.87344 -0.56574,1.94098 0,1.06754 -0.45,2.2191 -1,2.55902 l -1,0.61803 0,-3.45202 0,-3.45203 -1.58179,-0.60699 c -0.86998,-0.33385 -1.99498,-0.60699 -2.5,-0.60699 l -0.91821,0 0,2.05902 0,2.05901 -1,-0.61803 -1,-0.61803 0,-2.44099 c 0,-1.34254 -0.1882,-2.44098 -0.41821,-2.44098 -0.23002,0 -1.05745,-0.2453 -1.83875,-0.54511 l -1.42053,-0.54511 0.76512,5.63815 c 0.42081,3.10098 0.91074,5.76537 1.08874,5.92088 0.178,0.1555 1.33907,0.59489 2.58016,0.97642 l 2.25653,0.69369 0.93008,-2.31946 0.93009,-2.31946 0.0634,3.18261 0.0634,3.18261 2.1738,0.68994 2.17381,0.68994 1.32619,-1.81368 c 0.72941,-0.99752 1.33309,-2.74017 1.34151,-3.87255 l 0.0153,-2.05887 0.96937,1.5 0.96937,1.5 0.0153,3.78222 0.0153,3.78223 2.25,0.90439 c 1.2375,0.49741 2.5875,0.93291 3,0.96777 z m -26.81514,-11.93661 c 0.64083,0 1.70514,-0.54 2.36514,-1.2 l 1.2,-1.2 0,-2.8 0,-2.8 -2,-2 -2,-2 -1.749996,-0.11848 c -0.9625,-0.0652 -2.3125,-0.0454 -3,0.0438 l -1.25,0.16232 0,-1.54383 0,-1.54384 -1.8,0 c -0.99,0 -2.3325,-0.5325 -2.98333,-1.18333 l -1.18334,-1.18334 -0.66134,0.66135 c -0.36374,0.36374 -0.88281,2.96609 -1.15348,5.783 l -0.49212,5.12166 1.8868,-0.35989 1.88681,-0.35985 0.31955,-2.23979 0.31955,-2.23978 1.93045,0 1.93045,0 0,3.42742 0,3.42742 2.63486,2.07258 c 1.44917,1.13992 3.159166,2.07258 3.799996,2.07258 z m -1.375836,-4 c -0.51754,0 -1.194,-0.40939 -1.50325,-0.90976 l -0.56226,-0.90976 0.60803,-1.58449 0.60803,-1.5845 0.89521,0.55327 c 0.492366,0.3043 0.895216,1.42672 0.895216,2.49426 l 0,1.94098 -0.940976,0 z m -15.30902,-4.01474 1.25,0.0147 -0.006,-1.25 -0.006,-1.25 -2.99368,-1.70349 -2.99372,-1.70349 0.0153,-1.79651 c 0.008,-0.98808 0.4262,-2.44592 0.92839,-3.23965 l 0.91307,-1.44315 2.57161,1.17171 2.57162,1.1717 0,-1.85724 0,-1.85724 -2.9209,-1.20988 -2.92091,-1.20987 -1.79318,0.34533 -1.79319,0.34534 -0.87046,3.68067 -0.87045,3.68067 1.33454,2.78328 1.33455,2.78329 2.5,1.26452 c 1.375,0.69549 3.0625,1.27116 3.75,1.27927 z m 52.017016,-1.78633 c 0.15956,-0.47866 -0.11094,-1.95441 -0.6011,-3.27944 l -0.8912,-2.40914 1.39853,-2.13441 1.39852,-2.13442 -1.66263,-0.63801 -1.66264,-0.63802 -1.37325,1.1397 -1.37325,1.1397 0,-3.56343 0,-3.56343 -1.06653,-0.65915 -1.06653,-0.65915 -0.5988,0.59879 c -0.32933,0.32934 -0.97945,3.38222 -1.44469,6.78418 l -0.84591,6.18539 1.26123,0.80064 c 0.69368,0.44035 1.59873,0.80754 2.01123,0.81596 0.4125,0.008 0.76368,-0.77219 0.78041,-1.73469 l 0.0304,-1.75 1.09391,2 c 0.60166,1.1 1.82028,2.57807 2.70806,3.28461 l 1.61414,1.28461 0.29009,-0.87029 z m -67.207996,-5.19893 1.44098,0 0,-1.44098 c 0,-0.79254 -0.48921,-1.74333 -1.08713,-2.11287 l -1.08713,-0.67189 -1.02574,1.02574 -1.02573,1.02574 0.67188,1.08713 c 0.36954,0.59792 1.32033,1.08713 2.11287,1.08713 z m 54.575836,0 1.86514,0 0,-1.42668 0,-1.42667 -1.75,-0.45732 -1.75,-0.45733 2.25,-0.116 2.25,-0.116 0,-2.47695 0,-2.47694 -2.44218,-1.60018 -2.44219,-1.60018 -2.30781,0.32712 -2.30782,0.32713 -0.30353,3.63531 -0.30353,3.63532 2.68839,2.11468 2.68839,2.11469 1.86514,0 z m -2.63486,-4 c -0.275,0 -0.5,-0.225 -0.5,-0.5 0,-0.275 0.225,-0.5 0.5,-0.5 0.275,0 0.5,0.225 0.5,0.5 0,0.275 -0.225,0.5 -0.5,0.5 z m 1.05902,-3 c -0.24254,0 -0.76207,-0.51953 -1.15451,-1.15451 l -0.71353,-1.15451 1.15451,0.71353 c 0.63498,0.39244 1.15451,0.91197 1.15451,1.15451 0,0.24254 -0.19844,0.44098 -0.44098,0.44098 z m -58.426906,5 c 0.41242,0 1.04368,-0.47541 1.40279,-1.05647 0.35912,-0.58106 0.98845,-3.52888 1.39852,-6.55071 l 0.74559,-5.49424 -1.72024,-0.92064 -1.72023,-0.92064 -0.61927,3.09635 c -0.3406,1.70299 -0.61927,4.19166 -0.61927,5.53037 l 0,2.43401 -0.9309,-0.57532 -0.9309,-0.57533 -0.72188,1.16801 -0.72187,1.16802 1.8439,1.34829 c 1.01415,0.74157 2.18134,1.3483 2.59376,1.3483 z m 50.502746,-2 1.36514,0 0,-1.5 c 0,-0.825 -0.36399,-1.5 -0.80887,-1.5 -0.44488,0 -1.59437,-0.57437 -2.55443,-1.27638 l -1.74555,-1.27638 0.65439,-1.70531 0.65438,-1.7053 1.98569,1.0627 c 1.09212,0.58449 2.22773,0.82066 2.52357,0.52482 0.29585,-0.29584 0.27657,-1.21889 -0.0428,-2.05122 l -0.58072,-1.51333 -2.54058,-0.63765 -2.54059,-0.63764 -1.50223,0.57646 -1.50224,0.57646 0,3.45881 0,3.4588 2.63486,2.07258 c 1.44917,1.13992 3.24917,2.07258 4,2.07258 z m -59.398636,-2 0.90288,0 -0.31955,-2.17167 -0.31955,-2.17167 -1.25,-0.41167 -1.25,-0.41166 0,1.91667 c 0,1.05417 0.3,2.21667 0.66667,2.58333 0.36666,0.36667 1.07296,0.66667 1.56955,0.66667 z m 50.943486,-3.89065 c 0.37385,-0.88514 0.71135,-3.24872 0.75,-5.2524 l 0.0703,-3.64304 -3.75,-1.50637 -3.749996,-1.50637 -1.25,1.02186 -1.25,1.02186 0,3.91856 0,3.91856 4.249996,1.81835 4.25,1.81834 0.67971,-1.60935 z m -3.93406,-3.955 -1.01991,1.01991 -0.66699,-1.07921 -0.666986,-1.07921 0.986866,-1.75792 0.98687,-1.75792 0.70003,1.81722 0.70004,1.81721 -1.01992,1.01992 z m -53.090956,4.84565 1.75468,0 0.52811,-3.25 c 0.29045,-1.7875 0.64835,-4.81164 0.79531,-6.7203 l 0.26721,-3.47031 -1.70693,-0.34472 -1.70693,-0.34473 -0.6719,5.06503 -0.6719,5.06503 -1.37117,0 c -0.75414,0 -1.37117,0.36 -1.37117,0.8 0,0.44 0.54,1.34 1.2,2 0.66,0.66 1.98961,1.2 2.95469,1.2 z m -9.17527,-4 0.86139,0 0.70417,-6.57543 0.70417,-6.57542 -1.16622,-1.16622 -1.16621,-1.16621 -0.9179,1.4852 -0.91791,1.4852 -2.94661,-0.30908 -2.94661,-0.30909 -0.68222,3.10617 -0.68223,3.10616 1.61143,2.45936 1.61144,2.45936 1.91793,0 c 1.05486,0 2.19604,0.45 2.53596,1 0.33992,0.55 1.00566,1 1.47942,1 z m -2.6633,-5.91612 -0.94945,0.94945 -0.68334,-0.68333 c -0.37583,-0.37583 -0.68333,-1.50833 -0.68333,-2.51667 l 0,-1.83333 1.03139,0 c 0.56726,0 1.30201,0.70525 1.63278,1.56722 l 0.6014,1.56721 -0.94945,0.94945 z m 57.93388,5.22216 0.75,-0.42407 0,-4.24099 0,-4.24098 -1.2,-1.2 c -0.66,-0.66 -1.91524,-1.2 -2.78942,-1.2 l -1.58942,0 0.0394,-2.72254 0.0394,-2.72253 -1.66432,-0.33429 -1.66432,-0.33429 -0.71026,6.63225 -0.71025,6.63225 1.16622,1.16622 1.16621,1.16621 0.94305,-1.49164 c 0.51867,-0.8204 0.94993,-2.27914 0.95836,-3.24164 l 0.0153,-1.75 1,0 1,0 0,3.91667 0,3.91666 1.25,0.44839 c 0.6875,0.24661 1.5875,0.25756 2,0.0243 z m -66.11354,-4.38499 c 0.35005,0.0434 0.95341,-2.0347 1.34081,-4.61806 l 0.70436,-4.69701 -1.78194,-1.30299 c -0.98007,-0.71664 -2.50594,-1.30299 -3.39082,-1.30299 -0.88488,0 -2.14137,-0.5325 -2.7922,-1.18333 -0.65084,-0.65084 -1.37113,-0.98834 -1.60066,-0.75 -0.22953,0.23833 -0.57453,2.6708 -0.76667,5.40549 l -0.34934,4.97217 1.67784,0.33726 1.67785,0.33727 0.32215,-2.73231 0.32216,-2.73231 1.39953,-0.4603 1.39953,-0.46029 -0.54774,4.08377 -0.54775,4.08377 1.14821,0.47046 c 0.63152,0.25875 1.43463,0.50598 1.78468,0.5494 z m 55.11354,0 c 0.4125,0.0434 0.75,-0.60719 0.75,-1.4458 l 0,-1.52475 -2.57276,-0.97816 -2.57277,-0.97817 0.38216,-1.74708 0.38215,-1.74709 1.19061,0.25 c 0.65484,0.1375 1.69686,0.3625 2.31561,0.5 l 1.125,0.25 0.43878,-1.19134 0.43878,-1.19134 -3.01412,-1.55866 c -1.65777,-0.85726 -3.4976,-1.55866 -4.08853,-1.55866 l -1.07441,0 -1.02041,2.68387 -1.0204,2.68388 1.14586,2.76636 1.14587,2.76636 2.64929,0.97082 c 1.45711,0.53395 2.98679,1.00634 3.39929,1.04976 z m -9.11831,-6.81352 c 0.34742,-1.43414 0.68492,-3.77669 0.75,-5.20566 l 0.11831,-2.59812 -3.91313,-1.76458 -3.91314,-1.76458 -1.08686,0.67172 -1.08687,0.67172 0,4.48199 0,4.48199 4.25,1.81653 4.25,1.81652 0.63169,-2.60753 z m -4.70501,-3.10753 -1.57333,0 0.32333,-1.66713 c 0.17782,-0.91693 0.88582,-1.85443 1.57332,-2.08334 l 1.25,-0.4162 0,2.08334 0,2.08333 -1.57332,0 z m -52.36766,5 c 0.51754,0 0.94593,-0.5625 0.95199,-1.25 0.006,-0.6875 0.28364,-2.89875 0.61686,-4.91389 l 0.60587,-3.66388 -3.06721,-1.58612 c -1.68697,-0.87236 -3.93331,-1.58611 -4.99187,-1.58611 l -1.9246597,0 -0.63274,3.16371 -0.63274,3.16371 1.5307897,2.33629 1.5308,2.33629 1.91793,0 c 1.05486,0 2.19604,0.45 2.53596,1 0.33992,0.55 1.04148,1 1.55902,1 z m -3.80902,-5.24953 -1.25,0.4162 0,-2.08334 0,-2.08333 1.57332,0 1.57333,0 -0.32333,1.66713 c -0.17782,0.91693 -0.88582,1.85443 -1.57332,2.08334 z m 49.94237,-2.65845 c 0.3808,-1.97561 0.7183,-5.23138 0.75,-7.23503 l 0.0576,-3.64301 -1.58179,-0.60699 c -0.86998,-0.33385 -2.18248,-0.60699 -2.91666,-0.60699 l -1.33488,0 -0.97641,2.75 -0.9764,2.75 -0.73691,-4.26357 -0.73691,-4.26357 -2.41659,-0.60653 c -1.32912,-0.33359 -2.61962,-0.40349 -2.86777,-0.15535 -0.24815,0.24815 -0.56469,3.29192 -0.70343,6.76392 l -0.25225,6.31274 1.13965,0.40273 1.13965,0.40273 1.007,-3.79655 1.007,-3.79655 0.10335,3.05 0.10335,3.05 1.2,1.2 c 0.66,0.66 1.7995,1.2 2.53222,1.2 l 1.33223,0 0.90439,-2.25 0.90439,-2.25 0.0634,4.16667 0.0634,4.16666 1.25,0.42535 1.25,0.42535 0.69237,-3.59201 z m -21.56003,-6.09202 1.51431,0 -0.35453,-1.75 -0.35454,-1.75 -2.21879,0.0794 -2.21879,0.0794 0,-0.85415 c 0,-0.46978 -1.125,-1.28188 -2.5,-1.80465 l -2.5,-0.9505 0,-3.52475 0,-3.52475 1.06574,0 c 0.58616,0 1.89118,0.44176 2.90004,0.98169 l 1.8343,0.98168 0.55807,-1.45432 0.55808,-1.45432 -2.18062,-1.52736 -2.18062,-1.52737 -2.67051,0 -2.6705,0 -0.60699,1.58179 c -0.33384,0.86998 -0.60699,3.34498 -0.60699,5.5 l 0,3.91821 2.03125,2.03125 2.03125,2.03125 2.98956,0.59791 c 1.64426,0.32885 3.23175,0.98979 3.52777,1.46875 0.29601,0.47896 1.21964,0.87084 2.05251,0.87084 z m -19.88234,-9.06768 1.25,0.0677 0,-2.11663 0,-2.11663 -1.93233,0.50531 -1.93232,0.50532 -0.68726,-6.4175 -0.68726,-6.4175 -1.81467,-0.97119 c -0.99807,-0.53415 -2.31902,-0.97118 -2.93545,-0.97118 l -1.12077,0 -2.5013997,5.65611 -2.5014,5.65611 1.30643,0.82858 c 0.71854,0.45571 1.5957897,0.83547 1.9494397,0.84389 0.35366,0.008 0.90948,-0.6791 1.23517,-1.52781 l 0.59215,-1.54313 2.01483,1.07831 2.01484,1.07831 0,1.812 0,1.812 2.25,1.08514 c 1.2375,0.59682 2.8125,1.11559 3.5,1.15281 z m -7.19098,-9.93232 c -0.24254,0 -0.66285,-0.35899 -0.93402,-0.79775 -0.27117,-0.43876 -0.0796,-1.45126 0.42567,-2.25 l 0.9187,-1.45225 0.0153,2.25 c 0.008,1.2375 -0.18312,2.25 -0.42567,2.25 z m 94.396136,-10 c 0.90466,0 2.18484,-0.54 2.84484,-1.2 l 1.2,-1.2 0,-4.37424 0,-4.37423 -5.65927,-5.93316 c -3.1126,-3.26324 -5.45613,-6.1363 -5.20784,-6.38459 0.24829,-0.24829 2.83965,0.65503 5.75857,2.00739 2.91892,1.35236 5.51596,2.45883 5.7712,2.45883 0.25523,0 0.32305,-1.4122 0.1507,-3.13822 l -0.31336,-3.13823 -5,-2.74704 c -2.75,-1.51087 -6.20495,-3.02407 -7.67767,-3.36267 l -2.677666,-0.61564 -1.57233,1.57233 -1.57233,1.57233 0,2.99431 c 0,1.64687 0.50156,3.97723 1.11458,5.17857 0.61302,1.20134 3.410146,4.54676 6.215836,7.43426 l 5.10126,5.25 -1.24908,0 c -0.687,0 -3.46917,-1.125 -6.1826,-2.5 -2.713426,-1.375 -5.201976,-2.5 -5.530106,-2.5 -0.32814,0 -0.4556,1.4625 -0.28325,3.25 l 0.31336,3.25 6.405156,3.25 c 3.52284,1.7875 7.14534,3.25 8.05,3.25 z m -17.730156,-8.06339 1.725,0.0634 -0.64355,-3.25 -0.64356,-3.25 -1.53807,-1.13767 -1.53807,-1.13767 1.22337,-13.86233 c 0.67286,-7.62428 1.21584,-14.3526 1.20663,-14.95181 l -0.0167,-1.08949 -2.54705,-1.16051 c -1.40088,-0.63829 -2.90828,-1.16052 -3.34979,-1.16052 l -0.80272,0 -1.15743,12.75 c -0.63659,7.0125 -1.15419,14.78737 -1.15022,17.27749 l 0.007,4.5275 1.607,2.29431 c 0.88385,1.26187 2.57135,2.68347 3.75,3.15912 1.17865,0.47564 2.91925,0.89333 3.868,0.92819 z m -14.09014,-5.93661 1.86514,0 0,-3.08971 0,-3.0897 -1.94169,-1.6603 -1.94169,-1.66029 1.41946,-13 c 0.7807,-7.15 1.42946,-13.74348 1.44169,-14.65217 l 0.0222,-1.65218 -3.16216,-1.10233 c -1.73918,-0.60629 -3.27596,-0.98781 -3.41505,-0.84783 -0.13909,0.13998 -0.95751,7.33537 -1.8187,15.98975 l -1.56581,15.73524 0.90618,2.38344 0.90618,2.38343 2.70954,2.13133 2.70954,2.13132 1.86514,0 z m -14.52864,-7.06768 1.10623,0.0677 0.66538,-8.25 c 0.36596,-4.5375 0.93549,-10.36383 1.26563,-12.94741 l 0.60025,-4.69741 -3.37186,-1.3847 -3.37185,-1.38471 -0.63815,4.08212 c -0.35099,2.24516 -0.96028,8.15496 -1.35399,13.1329 l -0.71583,9.05078 2.35399,1.13154 c 1.29469,0.62234 2.85178,1.16199 3.4602,1.19921 z m -8.8876,-3.97236 1.21861,0.04 -0.39036,-1.25 c -0.2147,-0.6875 -1.35807,-4.27491 -2.54084,-7.97203 l -2.15048,-6.72203 2.43457,-3.27797 c 1.33901,-1.80288 2.66142,-4.2218 2.9387,-5.37537 l 0.50413,-2.09739 -3.44134,-1.24441 c -1.89274,-0.68442 -3.52015,-1.09059 -3.61648,-0.9026 -0.0963,0.18799 -0.64994,1.20339 -1.23027,2.25644 -0.58033,1.05306 -2.09761,2.60681 -3.37173,3.4528 l -2.31659,1.53816 0.57806,-4.9528 c 0.31793,-2.72404 0.85337,-7.5265 1.18986,-10.67213 l 0.61179,-5.71934 -3.31812,-1.38834 c -1.82497,-0.76359 -3.41311,-1.31991 -3.5292,-1.23626 -0.11609,0.0836 -0.90359,7.05764 -1.75,15.49777 -0.84641,8.44018 -1.53893,16.62114 -1.53893,18.17996 l 0,2.83422 2.87322,1.4858 2.87321,1.4858 0.62679,-0.62679 c 0.34473,-0.34473 0.62678,-2.35178 0.62678,-4.46012 l 0,-3.83333 1.4958,0 1.49581,0 1.68571,6.06317 1.68571,6.06316 2.56848,1.3968 c 1.41267,0.76824 3.11687,1.41481 3.78711,1.43683 z m -27.66643,-12.95996 2.87744,0 1.03519,-1.93426 1.03518,-1.93426 0,-5.1154 0,-5.1154 -1.41979,-2.70034 c -0.78089,-1.48519 -3.48089,-4.70653 -6,-7.15855 l -4.58021,-4.45821 0,-1.62512 c 0,-0.89382 0.27204,-1.89717 0.60453,-2.22966 l 0.60454,-0.60453 5.36752,2.63248 5.36752,2.63247 0.57304,-0.57303 c 0.31516,-0.31517 0.66524,-1.83766 0.77794,-3.38331 l 0.20491,-2.81027 -6.33737,-3.3113 -6.33737,-3.31131 -2.87745,0 -2.87744,0 -1.03519,1.93426 -1.03518,1.93426 0,4.6154 0,4.6154 1.4198,2.70034 c 0.78088,1.48519 3.48088,4.70653 6,7.15855 l 4.5802,4.45821 0,2.29179 0,2.29179 -1.53324,0 c -0.84329,0 -3.75333,-1.125 -6.46676,-2.5 -2.71343,-1.375 -5.20064,-2.5 -5.52712,-2.5 l -0.59361,0 0.31037,3.72599 0.31036,3.726 6.33737,3.274 6.33738,3.27401 2.87744,0 z m 123.407526,0 2.14028,0 1.2,-1.2 1.2,-1.2 0,-3.43197 0,-3.43196 -1.95945,-3.17046 c -1.0777,-1.74375 -3.6344,-4.69463 -5.68157,-6.55751 l -3.72212,-3.38705 1.10687,-0.36896 1.10687,-0.36896 4.03486,2.05844 c 2.21918,1.13214 4.50279,2.05843 5.0747,2.05843 l 1.03984,0 0,-2.86067 0,-2.86068 -5.88998,-3.13932 -5.88997,-3.13933 -3.00304,0 -3.00303,0 -0.60699,1.58179 c -0.33385,0.86998 -0.60699,3.15339 -0.60699,5.07423 l 0,3.49245 5.65927,5.93316 5.65928,5.93316 -0.57617,0.57616 -0.57616,0.57617 -4.71023,-2.08356 c -2.59062,-1.14596 -5.10302,-2.08356 -5.58311,-2.08356 l -0.87288,0 0,2.92195 0,2.92195 6.15972,3.07805 6.15972,3.07805 2.14028,0 z m -19.33602,-9.00079 2.6237,7.9e-4 -0.6237,-2.98447 -0.6237,-2.98446 -4.5,-2.26554 -4.5,-2.26553 -0.30265,-5.26118 -0.30264,-5.26118 1.64354,-0.63069 1.64354,-0.63069 3.44303,1.64187 c 1.89367,0.90303 3.87777,1.64187 4.40911,1.64187 l 0.96607,0 0,-2.95785 0,-2.95784 -4.31861,-2.53088 c -2.37524,-1.39198 -5.64808,-2.79677 -7.27298,-3.12175 l -2.95437,-0.59087 -1.97702,2.18387 -1.97702,2.18387 -0.2996,8.14573 -0.2996,8.14572 1.93767,3.09012 1.93768,3.09012 4.36192,2.15909 4.36193,2.15909 2.6237,7.9e-4 z m -65.373696,-4.07816 2.25,0.0789 0,-3.46482 0,-3.46481 -1.93426,-1.03519 c -1.06384,-0.56935 -2.63884,-1.03518 -3.5,-1.03518 l -1.56574,0 0,3.91667 0,3.91666 1.25,0.50439 c 0.6875,0.27741 2.2625,0.53991 3.5,0.58333 z m 44.420536,-4.96109 c 0.3688,0.022 0.90776,-1.19746 1.19769,-2.70996 0.28993,-1.5125 0.8079,-6.575 1.15106,-11.25 0.34315,-4.675 0.82006,-9.20255 1.05978,-10.06122 l 0.43588,-1.56123 -3.41428,-1.62815 -3.41428,-1.62816 -0.51515,2.18938 c -0.28333,1.20416 -0.81052,6.23938 -1.17155,11.18938 -0.36102,4.95 -0.86824,9.76155 -1.12714,10.69234 l -0.47073,1.69235 2.79909,1.51762 c 1.5395,0.83469 3.10084,1.53563 3.46963,1.55765 z m -12.455716,-5.96973 2.21481,0.01 1.035186,-1.93426 c 0.56935,-1.06384 1.03221,-3.20134 1.02859,-4.75 l -0.007,-2.81574 -1.792476,-2.71811 c -0.98587,-1.49497 -3.75784,-4.53253 -6.15995,-6.75014 l -4.36746,-4.03202 0.5671,-0.5671 0.5671,-0.5671 5.23694,2.65376 5.236936,2.65376 0.84718,-1.33652 c 0.46595,-0.73509 0.85408,-2.06133 0.8625,-2.9472 l 0.0153,-1.61068 -6.007756,-3.2021 -6.00777,-3.20211 -3.24223,0.31278 -3.24182,0.31255 -0.30545,4.7661 -0.30545,4.76611 5.71472,5.99129 5.71473,5.99129 -0.59524,0.59523 -0.59523,0.59523 -5.46657,-2.50268 -5.46657,-2.50268 -0.53557,2.65006 -0.53557,2.65005 1.6881,1.35935 c 0.92846,0.74765 3.9381,2.43075 6.6881,3.74023 2.75,1.30949 5.99667,2.38528 7.21482,2.39065 z m -30.28044,-4.58298 2.93439,-0.431 1.92202,-1.73813 c 1.05712,-0.95596 2.83476,-3.5265 3.95032,-5.71231 1.11555,-2.1858 2.86767,-6.90937 3.89359,-10.49681 1.02591,-3.58745 1.8653,-7.52501 1.8653,-8.75014 l 0,-2.2275 -2.95034,-1.52568 c -1.62269,-0.83912 -3.15813,-1.52568 -3.4121,-1.52568 -0.25397,0 -0.76617,1.9125 -1.13823,4.25 -0.37206,2.3375 -1.35662,6.65749 -2.18792,9.59998 l -1.51145,5.34997 -0.78993,-0.84997 c -0.43446,-0.46749 -1.28945,-5.20168 -1.89998,-10.52042 -0.61053,-5.31874 -1.11005,-10.14468 -1.11005,-10.72432 l 0,-1.05388 -3.09293,-1.59942 -3.09293,-1.59941 -0.55256,0.55255 -0.55255,0.55256 1.81076,13.18645 1.81076,13.18646 1.95276,1.95276 1.95276,1.95276 -1.36804,0.86665 c -0.75241,0.47666 -2.42867,0.87355 -3.72502,0.88197 l -2.35699,0.0153 0.60699,1.58179 c 0.33385,0.86998 0.60699,2.18698 0.60699,2.92667 l 0,1.34489 1.75,0.49246 c 0.9625,0.27084 3.07047,0.2985 4.68438,0.0614 z m -12.25944,-15.23233 c 0.37122,-0.37121 0.99253,-5.92407 1.38069,-12.33969 l 0.70574,-11.66476 -2.68508,-2.68509 -2.68508,-2.68508 -3.86806,0.36888 -3.86806,0.36888 0.5594,-6.67253 0.5594,-6.67253 -3.22987,-1.67023 c -1.77644,-0.91863 -3.34218,-1.52455 -3.47944,-1.3465 -0.13725,0.17806 -0.99458,8.35559 -1.90516,18.1723 -0.91059,9.81671 -1.4323,18.2099 -1.15936,18.65153 0.27295,0.44163 1.81906,1.2641 3.43581,1.8277 l 2.93955,1.02473 0.68218,-7.82037 0.68218,-7.82038 2.2222,-1.0125 2.2222,-1.0125 1.22904,0.75958 1.22904,0.75959 -0.70081,9.54715 -0.7008,9.54714 2.87967,1.5248 2.87968,1.52479 0.67494,-0.67491 z m 56.788076,-4.17492 1.82016,0 0.65698,-2.61759 0.65697,-2.6176 -1.70355,-1.8824 -1.70356,-1.88241 -1.73802,0 -1.73802,0 -0.60699,1.58179 c -0.33385,0.86998 -0.60699,2.18784 -0.60699,2.92857 0,0.74073 0.70714,2.05393 1.57143,2.91821 l 1.57143,1.57143 1.82016,0 z m -94.713016,-12.04004 0.75,0.04 0,-3.375 c 0,-1.85625 0.2777,-4.76351 0.61712,-6.46058 l 0.61711,-3.08557 3.84305,1.96057 3.84304,1.96058 2.50466,0 2.50465,0 1.21982,-2.25 1.21982,-2.25 0.053,-6.5 0.053,-6.49999 -1.94254,-2.88727 -1.94255,-2.88728 -7.01683,-3.36272 c -3.85925,-1.8495 -7.59202,-3.36273 -8.29504,-3.36273 -0.70301,0 -1.29153,0.3375 -1.30781,0.75 -0.0163,0.4125 -0.68193,7.05 -1.47923,14.74999 -0.79729,7.7 -1.45897,15.44813 -1.4704,17.21806 l -0.0208,3.21807 2.75,1.4919 c 1.5125,0.82054 3.0875,1.50991 3.5,1.53193 z m 8.52475,-17.03891 c -0.15111,-0.0434 -1.51225,-0.53092 -3.02475,-1.08333 l -2.75,-1.00439 0,-5.40048 0,-5.40048 3.42966,1.63549 3.42966,1.63549 0.57197,2.27892 0.57198,2.27893 -0.97688,2.5694 c -0.53729,1.41317 -1.10053,2.53387 -1.25164,2.49045 z m 81.475246,1 1.75,0.0789 -0.0153,-2.25 c -0.008,-1.2375 -0.34592,-2.75185 -0.75,-3.36522 -0.40408,-0.61337 -1.71008,-1.41942 -2.90223,-1.79121 -1.19214,-0.3718 -3.32964,-1.59011 -4.75,-2.70737 l -2.582466,-2.0313 0,-3.73629 0,-3.73629 1.32917,-1.81774 1.329156,-1.81774 2.10352,1.12577 c 1.15693,0.61917 3.25881,1.56501 4.67083,2.10186 l 2.56732,0.97609 0,-3.31632 0,-3.31632 -4.88533,-2.65893 -4.885326,-2.65893 -2.36467,0.0153 c -1.30057,0.008 -2.93539,0.37756 -3.63294,0.82031 -0.69755,0.44275 -1.71005,2.34539 -2.25,4.22809 -0.53995,1.8827 -0.98173,5.57801 -0.98173,8.21181 l 0,4.78872 1.38686,3.31921 1.38686,3.31923 2.86314,2.00607 c 1.57473,1.10334 4.213136,2.48471 5.863136,3.06971 1.65,0.585 3.7875,1.09916 4.75,1.14258 z m -21.164766,-8.98873 c 0.32188,0.0372 1.13996,-5.65348 1.81796,-12.64603 l 1.23273,-12.71372 -1.81796,-1.36605 c -0.99988,-0.75132 -3.99146,-2.48098 -6.64797,-3.84367 l -4.83001,-2.47762 -3.14379,0.30739 -3.14378,0.30739 -1.19935,4 -1.19936,4 -0.0731,6 -0.0731,6 1.96525,3.22316 1.96524,3.22317 2.54949,0.63988 c 1.40223,0.35193 3.66619,0.42641 5.03102,0.16551 l 2.48152,-0.47438 0,1.70852 0,1.70851 2.25,1.08513 c 1.2375,0.59682 2.51335,1.11559 2.83523,1.15281 z m -9.23906,-11.93231 -1.90894,0 -0.59343,-1.54646 -0.59343,-1.54645 0.50755,-4.50294 c 0.27915,-2.47662 0.79409,-4.7895 1.14432,-5.13973 l 0.63679,-0.63678 2.73048,0.96861 2.73049,0.9686 -0.35094,4.46758 -0.35094,4.46757 -1.0215,1.25 -1.02151,1.25 -1.90894,0 z m -14.76094,0.93232 c 0.32188,0.0372 1.13492,-5.60153 1.80677,-12.53057 l 1.22153,-12.59825 -1.80676,-1.35245 c -0.99373,-0.74384 -3.94496,-2.52809 -6.5583,-3.96499 l -4.75153,-2.61255 -3.15432,0.31325 -3.15431,0.31324 -1.41132,4 -1.41132,4 0.34205,7.35799 0.34205,7.35799 2.88524,2.48178 2.88523,2.48177 3.83988,-0.36619 3.83988,-0.36619 0,1.62361 0,1.62361 2.25,1.08514 c 1.2375,0.59682 2.51335,1.11559 2.83523,1.15281 z m -7.64173,-12.30736 -2.05651,1.36203 -1.19349,-1.19349 -1.1935,-1.1935 0.0136,-3.55 c 0.007,-1.9525 0.28499,-4.5625 0.61663,-5.8 l 0.60298,-2.25 1.69224,0 c 0.93073,0 2.40572,0.5625 3.27776,1.25 l 1.58552,1.25 -0.64439,4.38147 -0.64439,4.38147 -2.05651,1.36202 z m -18.55613,0.37504 c 0.94195,0 2.25263,-0.54 2.91263,-1.2 l 1.2,-1.2 0,-4.37424 0,-4.37423 -5.65927,-5.93316 c -3.1126,-3.26324 -5.45613,-6.13631 -5.20784,-6.3846 0.24829,-0.24829 2.83965,0.65504 5.75857,2.0074 2.91892,1.35236 5.51596,2.45883 5.7712,2.45883 0.25523,0 0.32305,-1.4122 0.1507,-3.13822 l -0.31336,-3.13823 -5,-2.74704 c -2.75,-1.51087 -6.20495,-3.02408 -7.67767,-3.36268 l -2.67767,-0.61563 -1.57233,1.57233 -1.57233,1.57232 0,2.99432 c 0,1.64687 0.50156,3.97723 1.11458,5.17857 0.61302,1.20134 3.42552,4.59502 6.25,7.54151 l 5.13542,5.35724 -2.5,-0.73555 c -1.375,-0.40456 -4.16957,-1.57782 -6.21016,-2.60725 -2.04059,-1.02943 -3.9816,-1.87169 -4.31336,-1.87169 l -0.6032,0 0.31336,3.22619 0.31336,3.22618 6.33737,3.27382 c 3.48556,1.80059 7.10806,3.27381 8.05,3.27381 z m -19.63737,-9.10638 c 0.4125,0.0585 0.75895,-0.68112 0.76988,-1.64362 0.0109,-0.9625 0.67699,-7.825 1.48012,-15.25 0.80313,-7.425 1.46919,-14.72595 1.48012,-16.22432 l 0.0199,-2.72432 -3.09293,-1.59942 c -1.70111,-0.87968 -3.23789,-1.45373 -3.41505,-1.27568 -0.17717,0.17806 -1.03535,7.4911 -1.90707,16.25121 -0.87172,8.76012 -1.5849497,16.88575 -1.5849497,18.05696 l 0,2.12949 2.7499997,1.08666 c 1.5125,0.59766 3.0875,1.13453 3.5,1.19304 z"
       style="fill:#991846;fill-opacity:1" />
  </g>
  <g
     transform="matrix(0.23429962,0,0,0.23429962,166.8486,70.89289)">
    <polygon
       transform="translate(-22.099994,-80.3)"
       style="fill:#509e2e"
       points="264.5,80.3 357.1,133.5 357.1,240.3 264.7,293.7 172.2,240.3 172.2,133.7 " />
    <path
       d="m 186.14593,165.84954 c -0.4695,-0.75966 2.49497,-4.72981 6.5877,-8.82254 10.01413,-10.01413 10.83014,-13.66115 4.52655,-20.2307 -2.67015,-2.78281 -6.62068,-8.46906 -8.77894,-12.63611 -3.5046,-6.76645 -3.92483,-8.97553 -3.93074,-20.66303 -0.006,-12.299979 0.27159,-13.583415 4.62194,-21.351818 5.77462,-10.311707 9.96884,-14.880973 19.00896,-20.7087 10.15876,-6.548875 18.76481,-9.207053 32.20479,-9.947207 23.85236,-1.313574 42.91059,7.768181 56.02998,26.699775 11.9265,17.210229 8.93475,43.47461 -6.78882,59.59859 -13.02135,13.35294 -25.37559,18.20187 -47.47336,18.63289 -8.46961,0.16521 -16.21825,0.94599 -17.2192,1.73507 -6.23778,4.91747 -36.76275,10.9721 -38.78886,7.69378 z m 44.46028,-38.73717 c 7.54017,-5.4634 8.78886,-8.76586 9.45835,-25.01484 l 0.62845,-15.25316 -10.85537,0.40556 -10.85537,0.40556 0,9.642751 0,9.642759 4.60208,0.44099 c 4.23424,0.40574 4.52941,0.73605 3.69293,4.1326 -0.50003,2.0304 -2.72593,5.5808 -4.94646,7.88981 -3.85618,4.00984 -5.17133,8.67274 -3.04565,10.79843 1.40484,1.40483 7.36095,-0.22109 11.32104,-3.09046 l 0,0 z m 29.402,2.04674 c 9.85953,-4.20109 13.36651,-12.2818 13.37905,-30.827721 l 0.008,-11.364671 -10.33152,0 -10.33151,0 0,10.331523 0,10.331519 4.1326,0 c 3.18987,0 4.13261,0.61757 4.13261,2.70714 0,1.48893 -1.85967,4.82519 -4.13261,7.41392 -2.7018,3.07719 -4.1326,6.19385 -4.1326,9.00192 0,4.81177 0.91832,5.11546 7.27631,2.40637 z"
       style="fill:#ffffff;fill-opacity:1;stroke:none" />
  </g>
</svg>
