<svg width="34" height="34" viewBox="0 0 34 34" fill="none" xmlns="http://www.w3.org/2000/svg">
<mask id="mask0_8098_30854" style="mask-type:alpha" maskUnits="userSpaceOnUse" x="0" y="0" width="34" height="34">
<rect width="34" height="34" fill="#D9D9D9"/>
</mask>
<g mask="url(#mask0_8098_30854)">
<path d="M13.4734 16.982C12.5172 16.0257 12.0391 14.8511 12.0391 13.458C12.0391 12.065 12.5172 10.8903 13.4734 9.93405C14.4297 8.9778 15.6043 8.49967 16.9974 8.49967C18.3905 8.49967 19.5651 8.9778 20.5214 9.93405C21.4776 10.8903 21.9557 12.065 21.9557 13.458C21.9557 14.8511 21.4776 16.0257 20.5214 16.982C19.5651 17.9382 18.3905 18.4163 16.9974 18.4163C15.6043 18.4163 14.4297 17.9382 13.4734 16.982ZM18.5203 14.9809C18.9217 14.5795 19.1224 14.0719 19.1224 13.458C19.1224 12.8441 18.9217 12.3365 18.5203 11.9351C18.1189 11.5337 17.6113 11.333 16.9974 11.333C16.3835 11.333 15.8759 11.5337 15.4745 11.9351C15.0731 12.3365 14.8724 12.8441 14.8724 13.458C14.8724 14.0719 15.0731 14.5795 15.4745 14.9809C15.8759 15.3823 16.3835 15.583 16.9974 15.583C17.6113 15.583 18.1189 15.3823 18.5203 14.9809ZM16.9974 31.1663C13.7155 30.34 11.0061 28.457 8.86927 25.5174C6.73247 22.5778 5.66406 19.3136 5.66406 15.7247V7.08301L16.9974 2.83301L28.3307 7.08301V15.7247C28.3307 19.3136 27.2623 22.5778 25.1255 25.5174C22.9887 28.457 20.2793 30.34 16.9974 31.1663ZM16.9974 5.84342L8.4974 9.03092V15.7247C8.4974 16.9997 8.67448 18.2393 9.02865 19.4434C9.38281 20.6476 9.86684 21.7809 10.4807 22.8434C11.4724 22.3476 12.5113 21.958 13.5974 21.6747C14.6835 21.3913 15.8168 21.2497 16.9974 21.2497C18.178 21.2497 19.3113 21.3913 20.3974 21.6747C21.4835 21.958 22.5224 22.3476 23.5141 22.8434C24.128 21.7809 24.612 20.6476 24.9661 19.4434C25.3203 18.2393 25.4974 16.9997 25.4974 15.7247V9.03092L16.9974 5.84342ZM14.5182 24.3663C13.7155 24.5552 12.9481 24.815 12.2161 25.1455C12.9009 25.8538 13.6446 26.4677 14.4474 26.9872C15.2502 27.5066 16.1002 27.908 16.9974 28.1913C17.8946 27.908 18.7446 27.5066 19.5474 26.9872C20.3502 26.4677 21.0939 25.8538 21.7786 25.1455C21.0467 24.815 20.2793 24.5552 19.4766 24.3663C18.6738 24.1775 17.8474 24.083 16.9974 24.083C16.1474 24.083 15.321 24.1775 14.5182 24.3663Z" fill="black"/>
</g>
</svg>
