<svg width="44" height="44" viewBox="0 0 44 44" fill="none" xmlns="http://www.w3.org/2000/svg">
<circle cx="22" cy="22" r="14" fill="white"/>
<g clip-path="url(#clip0_333_6264)">
<path d="M26.532 15.8847C24.6977 17.2664 22.7246 20.0676 22 21.571C21.276 20.0676 19.3023 17.2664 17.468 15.8847C16.1446 14.8881 14 14.1167 14 16.571C14 17.0607 14.28 20.6887 14.4446 21.2779C15.0154 23.3253 17.0966 23.8476 18.948 23.5316C15.712 24.0841 14.8891 25.9139 16.6669 27.7441C20.0429 31.2201 21.5194 26.8721 21.8977 25.7579C21.968 25.5521 22 25.4567 22 25.5413C22 25.4567 22.0326 25.5521 22.1023 25.7579C22.4806 26.8716 23.9566 31.2196 27.3331 27.7441C29.1109 25.9139 28.288 24.0841 25.052 23.5316C26.9034 23.8476 28.9846 23.3253 29.5554 21.2779C29.72 20.6887 30 17.0607 30 16.571C30 14.1167 27.8554 14.8881 26.532 15.8847Z" fill="#23272C"/>
</g>
<defs>
<clipPath id="clip0_333_6264">
<rect width="16" height="16" fill="white" transform="translate(14 14)"/>
</clipPath>
</defs>
</svg>
