<?xml version="1.0" encoding="UTF-8" standalone="no"?>
<svg
   width="44"
   height="44"
   viewBox="0 0 44 44"
   fill="none"
   version="1.1"
   id="svg1"
   sodipodi:docname="linkedin_icon.svg"
   inkscape:version="1.4 (e7c3feb1, 2024-10-09)"
   xmlns:inkscape="http://www.inkscape.org/namespaces/inkscape"
   xmlns:sodipodi="http://sodipodi.sourceforge.net/DTD/sodipodi-0.dtd"
   xmlns="http://www.w3.org/2000/svg"
   xmlns:svg="http://www.w3.org/2000/svg">
  <defs
     id="defs1" />
  <sodipodi:namedview
     id="namedview1"
     pagecolor="#ffffff"
     bordercolor="#000000"
     borderopacity="0.25"
     inkscape:showpageshadow="2"
     inkscape:pageopacity="0.0"
     inkscape:pagecheckerboard="0"
     inkscape:deskcolor="#d1d1d1"
     inkscape:zoom="22.931818"
     inkscape:cx="22.021804"
     inkscape:cy="22"
     inkscape:window-width="2064"
     inkscape:window-height="1288"
     inkscape:window-x="64"
     inkscape:window-y="25"
     inkscape:window-maximized="0"
     inkscape:current-layer="svg1" />
  <circle
     cx="22"
     cy="22"
     r="14"
     fill="white"
     id="circle1" />
  <g
     id="box"
     transform="matrix(0.44391,0,0,0.44391,8.5048692,6.3681004)"
     style="clip-rule:evenodd;fill:#23272c;fill-opacity:1;fill-rule:evenodd;stroke-linejoin:round;stroke-miterlimit:2">
    <path
       d="m 16.077106,53.531805 c -2.260043,0 -4.092427,-1.822609 -4.092427,-4.070597 V 20.96703 c 0,-2.247988 1.832384,-4.070597 4.092427,-4.070597 h 28.64699 c 2.260042,0 4.092427,1.822609 4.092427,4.070597 v 28.494178 c 0,2.247988 -1.832385,4.070597 -4.092427,4.070597 z M 43.700989,48.44356 V 37.275367 c 0,-4.725454 -2.692817,-7.010077 -6.454269,-7.010077 -3.763498,0 -5.347267,2.915057 -5.347267,2.915057 V 30.804136 H 26.631987 V 48.44356 h 5.267466 v -9.259591 c 0,-2.481029 1.148437,-3.95713 3.34607,-3.95713 2.020124,0 2.99003,1.418603 2.99003,3.95713 v 9.259591 z m -26.072342,0 h 5.492038 V 30.804136 h -5.492038 z m 2.719419,-19.948979 c 1.794528,0 3.24734,-1.457274 3.24734,-3.254951 0,-1.797678 -1.452812,-3.254952 -3.24734,-3.254952 -1.794018,0 -3.247853,1.457274 -3.247853,3.254952 0,1.797677 1.453835,3.254951 3.247853,3.254951 z"
       style="fill:#23272c;fill-opacity:1;stroke-width:0.510187"
       id="path2" />
  </g>
</svg>
