<svg xmlns="http://www.w3.org/2000/svg" shape-rendering="geometricPrecision" viewBox="0 0 50 50"><g><path d="M24.879 19.276c-.576 0-1.064-.136-1.464-.408-.384-.288-.576-.728-.576-1.32 0-.608.192-1.048.576-1.32.4-.272.888-.408 1.464-.408.56 0 1.04.136 1.44.408.416.272.624.712.624 1.32 0 .592-.208 1.032-.624 1.32-.4.272-.88.408-1.44.408zM21.183 34.3v-1.272h.288c.24 0 .488-.032.744-.096.272-.08.496-.232.672-.456.192-.224.288-.56.288-1.008v-7.296c0-.416-.096-.728-.288-.936a1.29 1.29 0 0 0-.696-.432c-.256-.064-.496-.096-.72-.096h-.288v-1.272h5.64v10.032c0 .448.088.784.264 1.008.192.224.416.376.672.456a3.36 3.36 0 0 0 .768.096h.288V34.3z"/><path d="M24.879 15.804c-.579 0-1.07.136-1.473.41-.389.275-.582.723-.582 1.334 0 .595.194 1.041.582 1.332v.002c.403.274.894.41 1.473.41.563 0 1.046-.136 1.449-.41.42-.291.631-.738.631-1.334 0-.612-.21-1.059-.631-1.334-.403-.274-.887-.41-1.449-.41zm0 .031c.557 0 1.035.136 1.432.406.411.269.617.702.617 1.307 0 .588-.205 1.022-.617 1.307-.397.27-.874.406-1.432.406-.573 0-1.056-.137-1.453-.406-.38-.285-.57-.718-.57-1.307 0-.605.189-1.038.568-1.307.397-.27.882-.406 1.455-.406zm-3.711 5.584v1.305h.303c.222 0 .462.032.717.096.269.063.497.206.688.428.188.204.285.51.285.924v7.297c0 .446-.097.778-.285.998-.174.222-.395.372-.664.451a3.05 3.05 0 0 1-.74.096h-.303v1.303h.016 7.648v-1.303h-.305a3.34 3.34 0 0 1-.764-.096c-.253-.079-.474-.229-.664-.451-.173-.22-.26-.552-.26-.998V21.419zm.031.033h5.607v10.016c0 .45.088.79.268 1.018h.002c.194.226.419.38.678.461h.002v.002a3.37 3.37 0 0 0 .771.096h.271v1.24h-7.6v-1.24h.271a3.08 3.08 0 0 0 .748-.096v-.002h.002a1.32 1.32 0 0 0 .68-.461c.195-.228.291-.567.291-1.018v-7.297c0-.418-.097-.733-.293-.945-.194-.225-.428-.373-.703-.437-.257-.064-.499-.096-.725-.096h-.271z"/></g><path d="M7.5 25c0-9.665 7.835-17.5 17.5-17.5S42.5 15.335 42.5 25 34.665 42.5 25 42.5 7.5 34.665 7.5 25" fill="none" stroke="#000" stroke-width="3"/></svg>