<?xml version="1.0" encoding="utf-8"?>
<!-- Generator: Adobe Illustrator 24.0.1, SVG Export Plug-In . SVG Version: 6.00 Build 0)  -->
<svg version="1.1" id="Layer_1" xmlns="http://www.w3.org/2000/svg" xmlns:xlink="http://www.w3.org/1999/xlink" x="0px" y="0px"
	 viewBox="0 0 120 120" style="enable-background:new 0 0 120 120;" xml:space="preserve">
<style type="text/css">
	.st0{fill:#870C5A;}
</style>
<g id="hexagon">
	<circle class="st0" r="50" cx="60" cy="60"/>
</g>
<g>
	<g fill="white">
		<path d="M60,29.9c3.6,0,6.7,0.4,9.2,1.3c2.5,0.9,4.5,2.3,6,4.3c1.5,2,2.6,4.6,3.3,8c0.7,3.3,1,7.4,1,12.2c0,4.8-0.3,8.9-1,12.2
			c-0.7,3.3-1.8,6-3.3,8c-1.5,2-3.5,3.4-6,4.3c-2.5,0.9-5.6,1.3-9.2,1.3c-3.6,0-6.7-0.4-9.2-1.3c-2.5-0.9-4.5-2.3-6-4.3
			c-1.5-2-2.7-4.6-3.3-8c-0.7-3.3-1-7.4-1-12.2c0-4.8,0.3-8.9,1-12.2c0.7-3.3,1.8-6,3.3-8c1.5-2,3.6-3.4,6-4.3
			C53.3,30.3,56.4,29.9,60,29.9z M60,35.6c-3.3,0-5.8,0.6-7.7,1.9c-1.9,1.2-3.2,3.3-4,6.2c-0.8,2.9-1.2,6.9-1.2,12c0,5,0.4,9,1.2,12
			c0.8,2.9,2.1,5,4,6.3s4.5,1.9,7.7,1.9c3.3,0,5.8-0.6,7.7-1.9c1.9-1.2,3.2-3.3,4-6.3c0.8-2.9,1.2-6.9,1.2-12c0-5.1-0.4-9.1-1.2-12
			c-0.8-2.9-2.2-5-4-6.2C65.9,36.2,63.3,35.6,60,35.6z M57.1,83.6c2.8,1.2,5.8,2.2,9,3c3.2,0.8,6.5,1.5,10.1,2l-2,6.3
			c-3.7-0.8-7.2-1.8-10.3-3.2c-3.1-1.4-6-2.8-8.6-4.4L57.1,83.6z"/>
	</g>
</g>
</svg>
