<svg id="eJy4xoRZ7Bv1" xmlns="http://www.w3.org/2000/svg" xmlns:xlink="http://www.w3.org/1999/xlink" viewBox="0 0 151.44 151.44" shape-rendering="geometricPrecision" text-rendering="geometricPrecision"><rect width="137.633605" height="65.560487" rx="0" ry="0" transform="translate(6.902697 48.663707)" fill="#fff" stroke-width="0"/><path d="M126.05,74.5698c-1.046-1.9427-2.539-3.4371-4.331-4.4831-1.793-1.0461-3.734-1.4944-5.974-1.4944-2.091,0-4.182.4483-5.974,1.4944s-3.137,2.5404-4.331,4.4831c-1.046,1.9427-1.643,4.1843-1.643,6.8742s.597,4.9314,1.643,6.8741c1.045,1.9427,2.539,3.4371,4.331,4.4832s3.734,1.4943,5.974,1.4943c2.091,0,4.181-.5977,5.974-1.4943c1.792-1.0461,3.285-2.5405,4.331-4.4832c1.045-1.9427,1.643-4.3337,1.643-6.8741-.15-2.6899-.598-4.9315-1.643-6.8742Z"/><path d="M87.667,74.5698c-1.0455-1.9427-2.539-3.4371-4.3312-4.4831s-3.7337-1.4944-5.9739-1.4944c-2.0909,0-4.1817.4483-5.9739,1.4944s-3.1363,2.5404-4.3311,4.4831c-1.0454,1.9427-1.6428,4.1843-1.6428,6.8742s.5974,4.9314,1.6428,6.8741s2.5389,3.4371,4.3311,4.4832s3.7337,1.4943,5.9739,1.4943s4.1818-.5977,5.9739-1.4943c1.7922-1.0461,3.2857-2.5405,4.3312-4.4832c1.0454-1.9427,1.6428-4.3337,1.6428-6.8741c0-2.6899-.4481-4.9315-1.6428-6.8742Z"/><path d="M42.7144,76.6618c-.7468-3.8854-1.9416-6.4259-3.435-7.9202-1.4935-1.4944-3.1363-2.0922-4.9285-2.0922-1.4935,0-2.6883.4483-3.7337,1.1955-1.0455.8967-1.9416,1.9427-2.539,3.4371s-1.1947,3.1382-1.4934,5.0809-.4481,4.0348-.4481,6.2764c0,4.1843.7468,7.4719,2.3896,9.8629c1.4935,2.5405,3.883,3.736,6.87,3.736c1.7922,0,3.5844-.7472,5.3765-2.2416c1.6429-1.4944,3.2857-3.2876,4.6298-5.5292-.448-1.4944-.8961-3.2877-1.1947-5.3798-.4481-1.7932-.8961-4.0348-1.4935-6.4258Z"/><path d="M144.569,0L6.87002,0C3.13631,0,0,3.136336,0,6.870067v137.700016C0,148.303864,3.13631,151.44,6.87002,151.44h137.69898c3.734,0,6.87-3.136136,6.87-6.869917v-137.700016C151.439,3.136336,148.303,0,144.569,0ZM94.5374,98.271898h-5.2272v-7.019428l-.448.746756c-1.0454,1.941546-2.6883,3.58437-4.9285,4.928571-2.0909,1.344101-4.7791,1.941446-7.6168,1.941446-2.9869,0-5.6752-.746656-8.0648-2.240169-1.9415-1.19479-3.5843-2.688302-4.7791-4.629849-.5974.597345-1.1948,1.344101-2.0909,2.090857-.7467.746756-1.6428,1.493512-2.5389,2.240269s-1.7922,1.344101-2.6883,1.792235-1.7921.746656-2.6882.746656c-1.1948,0-2.2403-.448034-3.2857-1.493412-1.0454-.896167-1.7922-2.090957-2.5389-3.285747l-1.0455-1.792135c-1.7921,2.090857-3.7337,3.58437-5.8245,4.77916-2.0909,1.19479-4.3311,1.792135-6.5714,1.792135-2.2402,0-4.3311-.448034-6.2726-1.19479s-3.5843-1.792135-5.0778-3.136336-2.5389-2.986925-3.435-4.77916c-.7468-1.792135-1.1948-3.883092-1.1948-6.123261c0-3.136336.448-5.97405,1.1948-8.36363.8961-2.38958,1.9415-4.480437,3.435-6.123261s3.1363-2.987025,5.2272-3.733781c1.9415-.896067,4.1817-1.344101,6.4219-1.344101c1.7922,0,3.435.298623,4.7792.746756s2.3896,1.19479,3.2856,2.240169s1.6429,2.240269,2.2403,3.58437c.5974,1.493512,1.0454,3.136336,1.4935,4.928571.2986,1.493512.5973,2.837614.896,4.181815.2987,1.19479.5974,2.38958.8961,3.285647c1.3442-3.136336,2.2403-6.272672,2.987-9.259697.5974-2.986925.8961-5.675227.8961-7.915496h7.318c-.2987,1.493512-.7467,3.285747-1.1947,5.077882s-1.1948,3.733781-1.9416,5.675327c-.7467,1.941546-1.6428,3.883092-2.6882,5.824638-1.0455,1.941446-2.0909,3.733681-3.2857,5.525916.2987.597345.7467,1.344101,1.0454,2.090857.4481.746756.8961,1.344101,1.3442,1.941546.5974.597345,1.1948,1.045479,1.9415,1.493512s1.4935.597345,2.3896.597345c1.1948,0,2.2402-.298623,3.1363-1.045379.8961-.597445,1.7922-1.344201,2.5389-1.941546l.1494-.149411c-.1494-.149311-.1494-.298623-.2987-.448034-1.3442-2.688302-2.0909-5.675227-2.0909-9.110286s.7467-6.421983,2.0909-9.110286c1.3441-2.538991,3.2856-4.629849,5.6752-5.97405c2.3896-1.493412,5.2272-2.090857,8.2141-2.090857c2.539,0,5.0779.597445,7.3181,1.792235s4.0324,2.837614,5.0778,4.77916l.4481.746756v-18.967428h5.2272v45.70094h.1493Zm38.3826,0h-5.227v-7.019428l-.448.746756c-1.046,1.941546-2.689,3.58437-4.929,4.928571s-4.779,1.941446-7.617,1.941446c-2.987,0-5.675-.746656-8.064-2.240169-2.39-1.493512-4.331-3.58437-5.676-6.272672-1.3437-2.688302-2.0905-5.675327-2.0905-9.110386s.7468-6.421983,2.0905-9.110286c1.345-2.538891,3.286-4.629849,5.676-5.97395c2.389-1.493512,5.227-2.090857,8.064-2.090857c2.987,0,5.526.597345,7.617,1.941546c2.091,1.19479,3.734,2.837614,4.779,4.77916l.448.746756v-6.870117h5.377v33.60363Z"/></svg>
