<?xml version="1.0" encoding="utf-8"?>
<!-- Generator: Adobe Illustrator 27.2.0, SVG Export Plug-In . SVG Version: 6.00 Build 0)  -->
<svg version="1.1" id="Layer_1" xmlns="http://www.w3.org/2000/svg" xmlns:xlink="http://www.w3.org/1999/xlink" x="0px" y="0px"
	 viewBox="0 0 101.4 101.4" style="enable-background:new 0 0 101.4 101.4;" xml:space="preserve">
<style type="text/css">
	.st0{fill:#0AFFE7;}
</style>
<g>
	<path class="st0" d="M96.8,0H4.6C2.1,0,0,2.1,0,4.6v92.2c0,2.5,2.1,4.6,4.6,4.6h92.2c2.5,0,4.6-2.1,4.6-4.6V4.6
		C101.4,2.1,99.3,0,96.8,0z"/>
</g>
<g>
	<path d="M85.4,43.3v4.6l-0.3-0.5c-0.7-1.3-1.8-2.4-3.2-3.2c-1.4-0.9-3.1-1.3-5.1-1.3c-1.9,0-3.8,0.4-5.4,1.4
		c-1.6,0.9-2.9,2.3-3.8,4c-0.9,1.8-1.4,3.8-1.4,6.1s0.5,4.3,1.4,6.1c0.9,1.8,2.2,3.2,3.8,4.2c1.6,1,3.4,1.5,5.4,1.5
		c1.9,0,3.6-0.4,5.1-1.3c1.5-0.9,2.6-2,3.3-3.3l0.3-0.5v4.7H89V43.3H85.4z M84.4,59.1c-0.7,1.3-1.7,2.3-2.9,3c-1.2,0.6-2.6,1-4,1
		c-1.5,0-2.8-0.3-4-1c-1.2-0.7-2.2-1.7-2.9-3c-0.7-1.3-1.1-2.8-1.1-4.6s0.4-3.3,1.1-4.6c0.8-1.3,1.7-2.3,2.9-3s2.6-1,4-1
		c1.5,0,2.8,0.3,4,1s2.2,1.7,2.9,3c0.7,1.3,1,2.8,1.1,4.6C85.5,56.2,85.1,57.8,84.4,59.1z"/>
	<path d="M59.7,35.2v12.7l-0.3-0.5c-0.7-1.3-1.9-2.4-3.4-3.2S52.8,43,51.1,43c-2,0-3.9,0.4-5.5,1.4c-1.6,0.9-2.9,2.3-3.8,4
		c-0.9,1.8-1.4,3.8-1.4,6.1s0.5,4.3,1.4,6.1c0.1,0.1,0.1,0.2,0.2,0.3L41.9,61c-0.5,0.4-1.1,0.9-1.7,1.3c-0.6,0.5-1.3,0.7-2.1,0.7
		c-0.6,0-1.1-0.1-1.6-0.4c-0.5-0.3-0.9-0.6-1.3-1c-0.3-0.4-0.6-0.8-0.9-1.3c-0.2-0.5-0.5-1-0.7-1.4c0.8-1.2,1.5-2.4,2.2-3.7
		s1.3-2.6,1.8-3.9c0.5-1.3,1-2.6,1.3-3.8c0.3-1.2,0.6-2.4,0.8-3.4h-4.9c0,1.5-0.2,3.3-0.6,5.3c-0.5,2-1.1,4.1-2,6.2
		c-0.2-0.6-0.4-1.4-0.6-2.2c-0.2-0.9-0.4-1.8-0.6-2.8c-0.3-1.2-0.6-2.3-1-3.3c-0.4-0.9-0.9-1.7-1.5-2.4s-1.3-1.2-2.2-1.5
		c-0.9-0.3-2-0.5-3.2-0.5c-1.5,0-3,0.3-4.3,0.9c-1.4,0.5-2.5,1.4-3.5,2.5c-1,1.1-1.7,2.5-2.3,4.1c-0.5,1.6-0.8,3.5-0.8,5.6
		c0,1.5,0.3,2.9,0.8,4.1c0.6,1.2,1.3,2.3,2.3,3.2c1,0.9,2.1,1.6,3.4,2.1s2.7,0.8,4.2,0.8s3-0.4,4.4-1.2c1.4-0.8,2.7-1.8,3.9-3.2
		l0.7,1.2c0.5,0.8,1,1.6,1.7,2.2c0.7,0.7,1.4,1,2.2,1c0.6,0,1.2-0.2,1.8-0.5c0.6-0.3,1.2-0.7,1.8-1.2c0.6-0.5,1.2-1,1.7-1.5
		c0.6-0.5,1-1,1.4-1.4c0.8,1.3,1.9,2.3,3.2,3.1c1.6,1,3.4,1.5,5.4,1.5c1.9,0,3.7-0.4,5.1-1.3c1.5-0.9,2.6-2,3.3-3.3l0.3-0.5v4.7h3.5
		l-0.1-30.6H59.7z M27.3,62.9c-1.2,1-2.4,1.5-3.6,1.5c-2,0-3.6-0.8-4.6-2.5c-1.1-1.6-1.6-3.8-1.6-6.6c0-1.5,0.1-2.9,0.3-4.2
		c0.2-1.3,0.6-2.4,1-3.4c0.4-1,1-1.7,1.7-2.3c0.7-0.5,1.5-0.8,2.5-0.8c1.2,0,2.3,0.4,3.3,1.4s1.8,2.7,2.3,5.3c0.4,1.6,0.7,3.1,1,4.3
		c0.2,1.4,0.5,2.6,0.8,3.6C29.5,60.7,28.4,61.9,27.3,62.9z M58.7,59.1c-0.7,1.3-1.7,2.3-2.9,3c-1.2,0.6-2.5,1-4,1s-2.8-0.3-4-1
		c-1.2-0.7-2.2-1.7-2.9-3c-0.7-1.3-1.1-2.8-1.1-4.6s0.4-3.3,1.1-4.6c0.8-1.3,1.7-2.3,2.9-3s2.6-1,4-1c1.5,0,2.8,0.3,4,1
		s2.2,1.7,2.9,3c0.8,1.3,1.1,2.8,1.1,4.6C59.8,56.2,59.4,57.8,58.7,59.1z"/>
</g>
</svg>
