<?xml version="1.0" encoding="utf-8"?>
<!-- Generator: Adobe Illustrator 27.2.0, SVG Export Plug-In . SVG Version: 6.00 Build 0)  -->
<svg version="1.1" id="Layer_1" xmlns="http://www.w3.org/2000/svg" xmlns:xlink="http://www.w3.org/1999/xlink" x="0px" y="0px"
	 viewBox="0 0 268.6 101.4" style="enable-background:new 0 0 268.6 101.4;" xml:space="preserve">
<style type="text/css">
	.st0{fill:#0AFFE7;}
	.st1{fill:#010202;}
</style>
<g>
	<path class="st0" d="M96.8,0H4.6C2.1,0,0,2.1,0,4.6v92.2c0,2.5,2.1,4.6,4.6,4.6h92.2c2.5,0,4.6-2.1,4.6-4.6V4.6
		C101.4,2.1,99.3,0,96.8,0z"/>
	<path class="st1" d="M125.1,32.8c1.2,0.7,2.5,1.1,3.9,1.1c1.3,0,2.4-0.3,3.4-0.8s1.8-1.2,2.4-2v2.5h3.4V17.1h-3.4v2.4
		c-0.6-0.8-1.4-1.4-2.3-1.9c-1-0.5-2.1-0.8-3.4-0.8c-1.4,0-2.8,0.4-3.9,1.1s-2.1,1.7-2.8,3s-1,2.8-1,4.4s0.3,3.1,1,4.5
		C123,31.1,123.9,32.1,125.1,32.8z M125.5,22.4c0.5-0.8,1.1-1.5,1.8-1.9c0.8-0.4,1.6-0.6,2.5-0.6s1.7,0.2,2.5,0.7
		c0.8,0.4,1.4,1.1,1.8,1.9c0.5,0.8,0.7,1.8,0.7,3s-0.2,2.1-0.7,3c-0.5,0.8-1.1,1.5-1.8,1.9c-0.8,0.4-1.6,0.7-2.5,0.7
		s-1.7-0.2-2.4-0.7c-0.8-0.5-1.4-1.1-1.9-2s-0.7-1.9-0.7-3C124.8,24.2,125,23.2,125.5,22.4z"/>
	<path class="st1" d="M145.5,32.8c1.2,0.7,2.5,1.1,3.9,1.1c1.3,0,2.4-0.3,3.4-0.8s1.8-1.2,2.3-2v2.5h3.4V11.5h-3.4v8
		c-0.6-0.8-1.5-1.4-2.5-1.9s-2.1-0.7-3.2-0.7c-1.5,0-2.8,0.4-4,1.1s-2.1,1.7-2.8,3s-1,2.8-1,4.4s0.3,3.1,1,4.5
		C143.3,31.1,144.3,32.1,145.5,32.8z M145.8,22.4c0.5-0.8,1.1-1.5,1.8-1.9c0.8-0.4,1.6-0.6,2.5-0.6s1.7,0.2,2.5,0.7
		c0.8,0.4,1.4,1.1,1.8,1.9c0.5,0.8,0.7,1.8,0.7,3s-0.2,2.1-0.7,3c-0.5,0.8-1.1,1.5-1.8,1.9c-0.8,0.4-1.6,0.7-2.5,0.7
		s-1.7-0.2-2.4-0.7c-0.8-0.5-1.4-1.1-1.9-2s-0.7-1.9-0.7-3C145.1,24.2,145.4,23.2,145.8,22.4z"/>
	<path class="st1" d="M165.8,32.8c1.2,0.7,2.5,1.1,3.9,1.1c1.3,0,2.4-0.3,3.4-0.8s1.8-1.2,2.4-2v2.5h3.4V17.1h-3.4v2.4
		c-0.6-0.8-1.4-1.4-2.3-1.9c-1-0.5-2.1-0.8-3.4-0.8c-1.4,0-2.8,0.4-3.9,1.1s-2.1,1.7-2.8,3s-1,2.8-1,4.4s0.3,3.1,1,4.5
		C163.7,31.1,164.6,32.1,165.8,32.8z M166.2,22.4c0.5-0.8,1.1-1.5,1.8-1.9c0.8-0.4,1.6-0.6,2.5-0.6s1.7,0.2,2.5,0.7
		c0.8,0.4,1.4,1.1,1.8,1.9c0.5,0.8,0.7,1.8,0.7,3s-0.2,2.1-0.7,3c-0.5,0.8-1.1,1.5-1.8,1.9c-0.8,0.4-1.6,0.7-2.5,0.7
		s-1.7-0.2-2.4-0.7c-0.8-0.5-1.4-1.1-1.9-2s-0.7-1.9-0.7-3C165.5,24.2,165.7,23.2,166.2,22.4z"/>
	<path class="st1" d="M129.4,47.7c1,0,1.8,0.2,2.5,0.7s1.1,1.1,1.4,1.9h3.7c-0.5-1.8-1.3-3.1-2.7-4.1s-3-1.4-5-1.4
		c-1.6,0-3,0.3-4.2,1s-2.2,1.7-2.9,3s-1,2.8-1,4.5s0.3,3.2,1,4.5s1.6,2.3,2.9,3s2.6,1.1,4.2,1.1c2,0,3.6-0.5,4.9-1.5
		c1.3-1,2.2-2.3,2.7-4h-3.7c-0.6,1.7-2,2.6-3.9,2.6c-1.4,0-2.5-0.5-3.3-1.5s-1.2-2.4-1.2-4.2s0.4-3.2,1.2-4.2
		C126.9,48.2,128,47.7,129.4,47.7z"/>
	<path class="st1" d="M155.1,48.9c-0.7-1.3-1.8-2.3-3-3s-2.7-1-4.3-1s-3,0.3-4.3,1s-2.3,1.7-3,3s-1.1,2.8-1.1,4.5s0.4,3.2,1.1,4.5
		c0.7,1.3,1.7,2.3,3,3s2.7,1.1,4.2,1.1c1.6,0,3-0.4,4.3-1.1c1.3-0.7,2.3-1.7,3.1-3s1.1-2.8,1.1-4.5S155.8,50.2,155.1,48.9z
		 M151.9,56.4c-0.5,0.8-1.1,1.5-1.9,1.9c-0.8,0.4-1.6,0.6-2.5,0.6c-1.4,0-2.5-0.5-3.4-1.5s-1.4-2.3-1.4-4.1c0-1.2,0.2-2.2,0.7-3
		s1-1.5,1.8-1.9s1.6-0.6,2.4-0.6s1.7,0.2,2.5,0.6c0.8,0.4,1.4,1,1.8,1.9s0.7,1.8,0.7,3S152.4,55.6,151.9,56.4z"/>
	<path class="st1" d="M183,61.7h3.4v-9.8c0-1.5-0.3-2.8-0.9-3.8c-0.6-1.1-1.4-1.9-2.4-2.4s-2.2-0.8-3.5-0.8c-1.2,0-2.4,0.3-3.4,0.9
		s-1.8,1.4-2.3,2.4c-0.6-1.1-1.4-1.9-2.4-2.4c-1-0.6-2.2-0.8-3.5-0.8c-1,0-1.9,0.2-2.8,0.6c-0.9,0.4-1.6,0.9-2.1,1.6v-1.9h-3.4v16.5
		h3.4v-9.2c0-1.5,0.4-2.6,1.1-3.4c0.8-0.8,1.8-1.2,3-1.2s2.3,0.4,3,1.2s1.1,1.9,1.1,3.4v9.2h3.4v-9.2c0-1.5,0.4-2.6,1.1-3.4
		c0.8-0.8,1.8-1.2,3-1.2c1.3,0,2.3,0.4,3,1.2s1.1,1.9,1.1,3.4L183,61.7L183,61.7z"/>
	<path class="st1" d="M206.7,57.8c0.7-1.3,1-2.8,1-4.5s-0.3-3.1-1-4.4c-0.7-1.3-1.6-2.3-2.8-3s-2.5-1.1-3.9-1.1
		c-1.3,0-2.4,0.3-3.4,0.8s-1.8,1.2-2.4,1.9v-2.4h-3.4v24.4h3.4V59.3c0.6,0.8,1.4,1.4,2.4,1.9s2.1,0.8,3.4,0.8c1.4,0,2.8-0.4,3.9-1.1
		C205,60.1,206,59.1,206.7,57.8z M201.6,58.3c-0.8,0.5-1.6,0.7-2.5,0.7s-1.7-0.2-2.4-0.7c-0.8-0.4-1.4-1.1-1.9-1.9
		c-0.5-0.9-0.7-1.8-0.7-3s0.2-2.1,0.7-3c0.5-0.8,1.1-1.5,1.9-1.9c0.8-0.4,1.6-0.7,2.4-0.7c0.9,0,1.7,0.2,2.5,0.6
		c0.8,0.4,1.4,1.1,1.9,1.9c0.5,0.8,0.7,1.8,0.7,3c0,1.1-0.2,2.1-0.7,3C203,57.2,202.4,57.8,201.6,58.3z"/>
	<path class="st1" d="M222.6,59.7v2h3.4V45.1h-3.4v9.2c0,1.5-0.4,2.6-1.1,3.4s-1.8,1.2-3,1.2c-1.3,0-2.3-0.4-3-1.2s-1.1-1.9-1.1-3.4
		v-9.2H211v9.7c0,1.5,0.3,2.8,0.9,3.8c0.6,1.1,1.4,1.9,2.4,2.4s2.2,0.8,3.5,0.8c1,0,1.9-0.2,2.8-0.6
		C221.4,60.9,222.1,60.4,222.6,59.7z"/>
	<path class="st1" d="M234.5,41H231v4.1h-2v2.8h2v9.2c0,1.6,0.4,2.8,1.2,3.5s2,1.1,3.5,1.1h2.7v-2.9h-2.1c-0.7,0-1.2-0.1-1.5-0.4
		c-0.3-0.3-0.4-0.7-0.4-1.3v-9.2h4v-2.8h-4V41H234.5z"/>
	<path class="st1" d="M253,45.9c-1.2-0.7-2.6-1-4.2-1c-1.6,0-3.1,0.3-4.3,1c-1.3,0.7-2.2,1.7-2.9,3s-1,2.8-1,4.5s0.4,3.2,1.1,4.5
		s1.7,2.3,2.9,3s2.7,1.1,4.2,1.1c1.9,0,3.6-0.5,4.9-1.5c1.3-1,2.2-2.2,2.7-3.7h-3.7c-0.8,1.5-2.1,2.3-3.9,2.3
		c-1.3,0-2.4-0.4-3.2-1.2c-0.9-0.8-1.4-1.9-1.5-3.2h12.6c0.1-0.5,0.1-1.1,0.1-1.7c0-1.6-0.3-3-1-4.2C255.1,47.5,254.2,46.6,253,45.9
		z M244.1,51.9c0.2-1.3,0.7-2.3,1.5-3c0.8-0.8,1.8-1.1,3-1.1c1.3,0,2.4,0.4,3.3,1.1c0.9,0.8,1.3,1.8,1.3,3H244.1z"/>
	<path class="st1" d="M265.6,45.6c-0.8,0.5-1.5,1.1-2,2v-2.4h-3.4v16.5h3.4V53c0-1.7,0.3-2.9,1-3.5c0.7-0.7,1.7-1,3-1h0.9V45
		C267.4,44.9,266.5,45.1,265.6,45.6z"/>
	<path class="st1" d="M131.9,81c-0.8-0.3-1.8-0.7-3-1c-0.9-0.3-1.6-0.5-2-0.6c-0.5-0.2-0.9-0.4-1.2-0.7s-0.5-0.7-0.5-1.1
		c0-0.6,0.2-1,0.7-1.3s1.2-0.5,2.1-0.5s1.6,0.2,2.2,0.7c0.5,0.4,0.8,1,0.9,1.8h3.4c-0.1-1.6-0.7-2.9-1.8-3.9c-1.2-1-2.7-1.4-4.5-1.4
		c-1.3,0-2.4,0.2-3.3,0.6s-1.7,1-2.2,1.7s-0.8,1.5-0.8,2.4c0,1.1,0.3,2,0.9,2.6c0.6,0.7,1.2,1.2,2,1.5s1.8,0.7,3,1
		c1.3,0.4,2.2,0.7,2.8,1c0.6,0.3,0.9,0.8,0.9,1.4s-0.3,1.1-0.8,1.4s-1.3,0.6-2.2,0.6c-0.9,0-1.7-0.2-2.3-0.7c-0.6-0.5-0.9-1.1-1-1.8
		h-3.5c0,1,0.4,1.9,1,2.7c0.6,0.8,1.4,1.5,2.4,1.9c1,0.5,2.2,0.7,3.5,0.7c1.3,0,2.4-0.2,3.3-0.6c0.9-0.4,1.7-1,2.2-1.7
		s0.8-1.6,0.8-2.5c0-1.1-0.3-1.9-0.9-2.5C133.3,81.9,132.7,81.4,131.9,81z"/>
	<path class="st1" d="M145.4,75.7c1,0,1.8,0.2,2.5,0.7s1.1,1.1,1.4,1.9h3.7c-0.5-1.8-1.3-3.1-2.7-4.1s-3-1.4-5-1.4
		c-1.6,0-3,0.3-4.2,1s-2.2,1.7-2.9,3s-1,2.8-1,4.5s0.3,3.2,1,4.5s1.6,2.3,2.9,3s2.6,1.1,4.2,1.1c2,0,3.6-0.5,4.9-1.5
		c1.3-1,2.2-2.3,2.7-4h-3.7c-0.6,1.7-2,2.6-3.9,2.6c-1.4,0-2.5-0.5-3.3-1.5s-1.2-2.4-1.2-4.2s0.4-3.2,1.2-4.2
		C142.9,76.2,144,75.7,145.4,75.7z"/>
	<path class="st1" d="M158.2,66.6c-0.6,0-1.1,0.2-1.6,0.6c-0.4,0.4-0.6,0.9-0.6,1.6s0.2,1.1,0.6,1.6c0.4,0.4,0.9,0.6,1.6,0.6
		c0.6,0,1.1-0.2,1.5-0.6s0.6-0.9,0.6-1.6s-0.2-1.1-0.6-1.6C159.3,66.8,158.8,66.6,158.2,66.6z"/>
	<rect x="156.4" y="73.1" class="st1" width="3.4" height="16.5"/>
	<path class="st1" d="M175.6,73.9c-1.2-0.7-2.6-1-4.2-1c-1.6,0-3.1,0.3-4.3,1c-1.3,0.7-2.2,1.7-2.9,3s-1,2.8-1,4.5s0.4,3.2,1.1,4.5
		s1.7,2.3,2.9,3s2.7,1.1,4.2,1.1c1.9,0,3.6-0.5,4.9-1.5c1.3-1,2.2-2.2,2.7-3.7h-3.7c-0.8,1.5-2.1,2.3-3.9,2.3
		c-1.3,0-2.4-0.4-3.2-1.2c-0.9-0.8-1.4-1.9-1.5-3.2h12.6c0.1-0.5,0.1-1.1,0.1-1.7c0-1.6-0.3-3-1-4.2
		C177.8,75.5,176.9,74.6,175.6,73.9z M166.8,79.9c0.2-1.3,0.7-2.3,1.5-3c0.8-0.8,1.8-1.1,3-1.1c1.3,0,2.4,0.4,3.3,1.1
		c0.9,0.8,1.3,1.8,1.4,3H166.8z"/>
	<path class="st1" d="M194.7,73.7c-1-0.5-2.2-0.8-3.5-0.8c-1,0-1.9,0.2-2.8,0.6c-0.9,0.4-1.6,0.9-2.1,1.6v-1.9h-3.4v16.5h3.4v-9.2
		c0-1.5,0.4-2.6,1.1-3.4c0.8-0.8,1.8-1.2,3-1.2s2.3,0.4,3,1.2c0.7,0.8,1.1,1.9,1.1,3.4v9.2h3.4v-9.8c0-1.5-0.3-2.8-0.9-3.8
		C196.5,75,195.7,74.2,194.7,73.7z"/>
	<path class="st1" d="M209.3,75.7c1,0,1.8,0.2,2.5,0.7s1.1,1.1,1.4,1.9h3.7c-0.5-1.8-1.3-3.1-2.7-4.1s-3-1.4-5-1.4
		c-1.6,0-3,0.3-4.2,1s-2.2,1.7-2.9,3s-1,2.8-1,4.5s0.3,3.2,1,4.5s1.6,2.3,2.9,3s2.6,1.1,4.2,1.1c2,0,3.6-0.5,4.9-1.5
		c1.3-1,2.2-2.3,2.7-4h-3.7c-0.6,1.7-2,2.6-3.9,2.6c-1.4,0-2.5-0.5-3.3-1.5s-1.2-2.4-1.2-4.2s0.4-3.2,1.2-4.2
		C206.8,76.2,207.9,75.7,209.3,75.7z"/>
	<path class="st1" d="M231.6,73.9c-1.2-0.7-2.6-1-4.2-1c-1.6,0-3.1,0.3-4.3,1c-1.3,0.7-2.2,1.7-2.9,3s-1,2.8-1,4.5s0.4,3.2,1.1,4.5
		s1.7,2.3,2.9,3s2.7,1.1,4.2,1.1c1.9,0,3.6-0.5,4.9-1.5c1.3-1,2.2-2.2,2.7-3.7h-3.7c-0.8,1.5-2.1,2.3-3.9,2.3
		c-1.3,0-2.4-0.4-3.2-1.2c-0.9-0.8-1.4-1.9-1.5-3.2h12.6c0.1-0.5,0.1-1.1,0.1-1.7c0-1.6-0.3-3-1-4.2
		C233.8,75.5,232.8,74.6,231.6,73.9z M222.8,79.9c0.2-1.3,0.7-2.3,1.5-3c0.8-0.8,1.8-1.1,3-1.1c1.3,0,2.4,0.4,3.3,1.1
		c0.9,0.8,1.3,1.8,1.3,3H222.8z"/>
</g>
<g>
	<path d="M59.7,35.2v12.7l-0.3-0.5c-0.7-1.3-1.9-2.4-3.4-3.2S52.8,43,51.1,43c-2,0-3.9,0.4-5.5,1.4c-1.6,0.9-2.9,2.3-3.8,4
		c-0.9,1.8-1.4,3.8-1.4,6.1s0.5,4.3,1.4,6.1c0.1,0.1,0.1,0.2,0.2,0.3L41.9,61c-0.5,0.4-1.1,0.9-1.7,1.3c-0.6,0.5-1.3,0.7-2.1,0.7
		c-0.6,0-1.1-0.1-1.6-0.4c-0.5-0.3-0.9-0.6-1.3-1c-0.3-0.4-0.6-0.8-0.9-1.3c-0.2-0.5-0.5-1-0.7-1.4c0.8-1.2,1.5-2.4,2.2-3.7
		s1.3-2.6,1.8-3.9s1-2.6,1.3-3.8c0.3-1.2,0.6-2.4,0.8-3.4h-4.9c0,1.5-0.2,3.3-0.6,5.3c-0.5,2-1.1,4.1-2,6.2
		c-0.2-0.6-0.4-1.4-0.6-2.2c-0.2-0.9-0.4-1.8-0.6-2.8c-0.3-1.2-0.6-2.3-1-3.3c-0.4-0.9-0.9-1.7-1.5-2.4c-0.6-0.7-1.3-1.2-2.2-1.5
		c-0.9-0.3-2-0.5-3.2-0.5c-1.5,0-3,0.3-4.3,0.9c-1.4,0.5-2.5,1.4-3.5,2.5c-1,1.1-1.7,2.5-2.3,4.1c-0.5,1.6-0.8,3.5-0.8,5.6
		c0,1.5,0.3,2.9,0.8,4.1c0.6,1.2,1.3,2.3,2.3,3.2c1,0.9,2.1,1.6,3.4,2.1s2.7,0.8,4.2,0.8s3-0.4,4.4-1.2c1.4-0.8,2.7-1.8,3.9-3.2
		l0.7,1.2c0.5,0.8,1,1.6,1.7,2.2c0.7,0.7,1.4,1,2.2,1c0.6,0,1.2-0.2,1.8-0.5c0.6-0.3,1.2-0.7,1.8-1.2c0.6-0.5,1.2-1,1.7-1.5
		c0.6-0.5,1-1,1.4-1.4c0.8,1.3,1.9,2.3,3.2,3.1c1.6,1,3.4,1.5,5.4,1.5c1.9,0,3.7-0.4,5.1-1.3c1.5-0.9,2.6-2,3.3-3.3l0.3-0.5v4.7h3.5
		l-0.1-30.6H59.7z M27.3,62.9c-1.2,1-2.4,1.5-3.6,1.5c-2,0-3.6-0.8-4.6-2.5c-1.1-1.6-1.6-3.8-1.6-6.6c0-1.5,0.1-2.9,0.3-4.2
		c0.2-1.3,0.6-2.4,1-3.4c0.4-1,1-1.7,1.7-2.3c0.7-0.5,1.5-0.8,2.5-0.8c1.2,0,2.3,0.4,3.3,1.4s1.8,2.7,2.3,5.3c0.4,1.6,0.7,3.1,1,4.3
		c0.2,1.4,0.5,2.6,0.8,3.6C29.5,60.7,28.4,61.9,27.3,62.9z M58.7,59.1c-0.7,1.3-1.7,2.3-2.9,3c-1.2,0.6-2.5,1-4,1s-2.8-0.3-4-1
		c-1.2-0.7-2.2-1.7-2.9-3c-0.7-1.3-1.1-2.8-1.1-4.6s0.4-3.3,1.1-4.6c0.8-1.3,1.7-2.3,2.9-3s2.6-1,4-1c1.5,0,2.8,0.3,4,1
		s2.2,1.7,2.9,3c0.8,1.3,1.1,2.8,1.1,4.6C59.8,56.2,59.4,57.8,58.7,59.1z"/>
	<path d="M85.4,43.3v4.6l-0.3-0.5c-0.7-1.3-1.8-2.4-3.2-3.2c-1.4-0.9-3.1-1.3-5.1-1.3c-1.9,0-3.8,0.4-5.4,1.4
		c-1.6,0.9-2.9,2.3-3.8,4c-0.9,1.8-1.4,3.8-1.4,6.1s0.5,4.3,1.4,6.1c0.9,1.8,2.2,3.2,3.8,4.2c1.6,1,3.4,1.5,5.4,1.5
		c1.9,0,3.6-0.4,5.1-1.3c1.5-0.9,2.6-2,3.3-3.3l0.3-0.5v4.7H89V43.3H85.4z M84.4,59.1c-0.7,1.3-1.7,2.3-2.9,3c-1.2,0.6-2.6,1-4,1
		c-1.5,0-2.8-0.3-4-1c-1.2-0.7-2.2-1.7-2.9-3c-0.7-1.3-1.1-2.8-1.1-4.6s0.4-3.3,1.1-4.6c0.8-1.3,1.7-2.3,2.9-3s2.6-1,4-1
		c1.5,0,2.8,0.3,4,1s2.2,1.7,2.9,3c0.7,1.3,1,2.8,1.1,4.6C85.5,56.2,85.1,57.8,84.4,59.1z"/>
</g>
</svg>
