<?xml version="1.0" encoding="UTF-8"?>
<svg xmlns="http://www.w3.org/2000/svg" width="64" height="64" viewBox="0 0 64 64" fill="none" version="1.1">
  <rect width="64" height="64" rx="32" fill="#333333"/>
  <path style="fill:#ffffff;" d="m 23.176316,50.437295 c -0.759854,-0.202574 -2.011185,-0.856404 -2.85572,-1.492131 -0.905194,-0.68139 -2.304038,-2.05261 -2.839838,-2.783761 -0.483528,-0.659819 -0.964513,-1.577885 -1.159547,-2.213244 -0.765151,-2.492627 0.700877,-4.767647 3.949291,-6.128612 0.871187,-0.364996 2.018917,-0.714436 3.022254,-0.920166 0.415383,-0.08517 0.778428,-0.178045 0.806767,-0.206386 0.02834,-0.02833 -0.02405,-0.03422 -0.116441,-0.01308 -0.448873,0.102717 -1.405352,0.1741 -2.317948,0.172987 -4.439888,-0.0054 -7.583813,-2.000978 -8.741953,-5.548843 -0.274183,-0.839945 -0.590171,-3.482677 -0.940374,-7.864713 -0.332463,-4.16005 -0.341694,-5.035073 -0.06442,-6.105136 0.400686,-1.5463 1.490146,-2.347323 3.055805,-2.246777 2.603919,0.167224 5.852506,2.223955 9.131342,5.781195 2.805543,3.043756 5.606688,6.895291 7.273505,10.00096 0.228262,0.425307 0.438913,0.798085 0.468112,0.828399 0.02921,0.03032 0.272059,-0.345305 0.53969,-0.834707 1.286255,-2.352112 3.12725,-5.055226 5.101969,-7.491176 3.758753,-4.636672 7.140417,-7.330777 10.173805,-8.10527 1.861418,-0.475262 3.228229,-0.0304 3.88126,1.263245 0.429229,0.850298 0.570593,1.922736 0.474631,3.600736 -0.154556,2.702634 -0.599007,7.71277 -0.842288,9.494797 -0.214747,1.573029 -0.563532,2.569016 -1.275363,3.641926 -1.539268,2.320061 -4.281798,3.581072 -7.797684,3.585358 -0.909294,0.0011 -1.860538,-0.0696 -2.318086,-0.17228 -0.0997,-0.02238 -0.140742,-0.01366 -0.100862,0.02141 0.03699,0.03254 0.354701,0.114122 0.70604,0.181324 2.457621,0.47008 4.648997,1.477921 5.87609,2.702485 1.211137,1.208641 1.623371,2.638053 1.219281,4.227842 -0.147572,0.580583 -0.706996,1.678536 -1.187103,2.329866 -0.562874,0.763615 -1.95021,2.128241 -2.848756,2.802126 -0.869313,0.65196 -2.117752,1.297232 -2.885352,1.491336 -0.63687,0.161042 -1.631743,0.177518 -2.225041,0.03685 -1.830213,-0.43394 -3.445639,-2.073375 -4.839949,-4.911884 -0.412838,-0.840446 -0.782163,-1.761975 -1.468712,-3.66469 -0.04671,-0.12944 -0.11227,-0.235348 -0.145698,-0.235348 -0.03342,0 -0.276544,0.590049 -0.540262,1.31122 -1.541215,4.214665 -3.254671,6.531371 -5.433446,7.346376 -0.483529,0.180871 -0.650742,0.208405 -1.390167,0.22891 -0.680984,0.01887 -0.936248,-0.0022 -1.344839,-0.111141 z"/>
</svg>
