<svg xmlns="http://www.w3.org/2000/svg" fill="#fff" viewBox="0 0 755.90668 157.08"><path d="M213.302 2.772v1.953h-1.277c-1.908 0-5.1 0-5.1 5.948v24.422c0 14.94-6.503 22.195-19.884 22.195-15.097 0-22.131-6.018-22.131-18.945V10.674c0-5.948-3.225-5.948-6.073-5.948h-.6V2.772h22.584v1.953h-.605c-2.803 0-6.297 0-6.297 5.948v26.432c0 11.393 4.761 16.93 14.548 16.93 9.517 0 14.553-5.964 14.553-17.237V10.674c0-5.948-3.293-5.948-5.699-5.948h-1.205V2.772h17.187m24.399 51.409v1.953h-19.053v-1.953h.755c6.244 0 7.048-4.768 7.048-10.128V11.986c0-5.117-2.957-7.26-7.125-7.26h-.677V2.77h14.991l32.428 39.755V12.299c0-6.839-4.771-7.573-6.82-7.573h-1.355V2.77h19.255v1.956h-.832c-3.371 0-6.973.781-6.973 10.123V56.4l-2.831.013-36.791-44.515.011 32.125c0 5.357.768 10.159 7.225 10.159m102.961-9.363l11.727-32.799c2.101-5.587.753-7.297-4.103-7.297h-.981V2.772h15.189v1.951h-.335c-1.647 0-3.589.492-5.028 4.161l-17.787 47.451h-3.384L315.911 9.322c-1.535-3.913-3.344-4.599-6.58-4.599h-.452V2.772h22.063v1.951h-1.433c-3.775 0-4.503 2.364-3.431 5.24l13.841 34.856m89.044-39.533l-.012 23.62h4.569c8.311 0 11.973-3.698 11.973-12.365 0-7.044-4.531-11.593-11.368-11.593-1.596 0-3.783.125-5.163.339zm8.195-2.516c11.813 0 17.679 4.355 17.679 13.305 0 7.588-5.92 11.435-10.595 13.323l-.34.141 13.084 19.927c2.093 3.229 3.803 4.477 7.408 4.672v1.997h-13.661L434.86 31.083h-5.908V47.69c0 6.026 2.68 6.492 6.463 6.492h1.057v1.953H413.27v-1.953h1.053c2.593 0 5.619-1.177 5.619-4.482V10.906c0-6.18-3.657-6.18-5.619-6.18h-1.053V2.77h23.888m55.445 43.239c0-6.503-5.576-9.065-10.781-11.771-6.085-3.172-13.101-6.448-13.101-16.297 0-9.541 7.257-15.697 17.632-15.697 4.237 0 9.055.845 11.157 1.273l.727 10.383-1.999.287c-.927-5.464-3.761-9.655-9.904-9.655-5.772 0-10.047 3.545-10.047 9.928 0 6.017 5.553 8.484 10.732 11.091 6.337 3.193 13.608 6.497 13.608 16.437 0 11.005-9.807 15.932-18.88 15.932-3.596 0-8.613-.732-12.636-3.01l-1.275-11.555 1.939-.341c1.48 7.669 6.344 12.115 12.763 12.115 6.145 0 10.065-3.747 10.065-9.12m38.061-43.237v1.953h-.751c-3.043 0-5.848.571-5.848 4.711v40.031c0 4.143 2.805 4.714 5.848 4.714h.751v1.951h-22.288v-1.951h.753c3.041 0 5.848-.57 5.848-4.714V9.436c0-4.14-2.807-4.711-5.848-4.711h-.753V2.772h22.288"/><path d="M305.785 2.772v1.953h-.751c-3.04 0-5.848.571-5.848 4.711v40.031c0 4.143 2.808 4.714 5.848 4.714h.751v1.951h-22.284v-1.951h.753c3.035 0 5.848-.57 5.848-4.714V9.436c0-4.14-2.813-4.711-5.848-4.711h-.753V2.772h22.284M749.943 79.83l.183 14.164-2.263.581c-.507-6.19-1.909-11.245-11.812-11.245h-13.305v26.18h11.421c5.603 0 7.125-3.135 7.759-8.542h2.273v21.893l-2.267.034c-.351-5.237-1.583-9.302-7.719-9.302h-11.468v22.987c0 6.681 5.755 6.681 11.851 6.681 10.936 0 16.005-.684 19.063-11.749a131.49 131.49 0 0 0 2.243.497l-3.063 14.755h-49.683v-2.451h.947c3.812 0 7.336-.71 7.336-5.91V88.192c0-5.195-3.524-5.914-7.336-5.914h-.947V79.83h46.787m-281.032 3.151l-.005 29.633h5.719c10.419 0 15.012-4.643 15.012-15.521 0-8.826-5.688-14.536-14.255-14.536-2.007 0-4.572.117-6.471.425zm10.276-3.151c14.819 0 22.175 5.458 22.175 16.682 0 9.521-7.435 14.341-13.289 16.714l-.433.177 16.42 24.997c2.627 4.052 4.771 5.618 9.289 5.864v2.5h-17.135l-19.916-31.432h-7.392v20.844c0 7.555 3.348 8.137 8.085 8.137h1.327v2.451h-29.095v-2.451h1.321c3.255 0 7.053-1.468 7.053-5.615V90.033c0-7.755-4.585-7.755-7.053-7.755h-1.321V79.83h29.964m66.2-.013v2.448h-.947c-3.812 0-7.337.721-7.337 5.914v50.216c0 5.195 3.525 5.908 7.337 5.908h.947v2.448h-27.96v-2.448h.943c3.816 0 7.337-.714 7.337-5.908V88.179c0-5.193-3.521-5.914-7.337-5.914h-.943v-2.448h27.96"/><path d="M542.259 2.772h35.303c1.768 0 4.052-.448 4.408-2.771l1.717-.005-1.356 13.92-1.892-.003c-.117-3.215-.587-7.885-5.745-7.885h-10.775v41.197c0 6.419 3.089 6.956 6.528 6.956h1.125v1.951H547.26v-1.951h1.129c4.048 0 6.524-.331 6.524-6.802V6.028h-10.892c-5.549 0-6.079 2.432-7.153 7.825h-1.916L536.179.111h1.564c.715 2.221 2.639 2.667 4.516 2.661m96.013 0v1.981c-3.075.167-4.923 2.269-6.315 4.227 0 .003-13.547 20.878-13.547 20.878v17.055c0 6.779 2.464 7.268 6.521 7.268h1.133v1.951h-24.321v-1.951h1.131c4.229 0 6.528-1.057 6.528-6.646V31.129l-14.705-21.021c-2.251-3.243-3.933-5.383-7.504-5.383h-.447V2.772h22.044v1.953h-.68c-4.229 0-4.541 2.243-2.735 4.804l11.396 17.665 10.081-15.95c2.309-3.48 2.976-6.519-2.736-6.519h-.875l.003-1.953h15.027m26.09 24.36c0 13.182 5.823 27.367 18.604 27.367 11.703 0 17.395-8.117 17.395-24.815 0-12.256-6.547-25.278-18.673-25.278-16.075 0-17.325 17.399-17.325 22.726zm-9.907 2.708c0-15.828 12.028-28.229 27.387-28.229 16.741 0 28.427 10.844 28.427 26.372 0 16.982-11.796 29.307-28.053 29.307-16.084 0-27.76-11.542-27.76-27.45m85.688 26.284v-1.945h-.675c-3.521 0-7.499 0-7.499-4.713V29.689h9.476c5.48 0 6.257 4.234 6.296 7.578h1.756V20.182v-.011h-1.76c-.039 2.779-.679 6.263-5.093 6.263H731.97V5.562h12.175c6.375 0 7.421 4.377 7.839 8.967.428-.12 1.487-.376 1.795-.461l-.139-11.287h-37.285v1.943h.76c3.035 0 5.845.571 5.845 4.713v40.029c0 4.143-2.811 4.713-5.845 4.713h-.76v1.945h23.789m-577.68 57.117c0-9.951 4.036-19.724 10.988-25.95 6.448-5.781 14.911-9.026 24.469-9.026 8.56 0 15.695 1.547 22.672 4.807l.709 15.492-2.2.284c-2.523-8.984-6.723-17.208-20.903-17.208-14.568 0-23.62 11.534-23.62 30.107 0 16.534 7.319 32.167 25.044 32.167 9.961 0 17.067-3.732 22.428-10.625l1.752 3.279c-6.04 7.807-15.368 11.968-25.985 11.968-21.585 0-35.355-12.736-35.355-35.294m144.334-20.47l-2.22 41.341c-.404 9.153 2.436 9.956 8.585 10.188h.572v2.432h-22.563v-2.432h.86c7.603-.303 8.068-4.532 8.421-10.712l2.621-42.314c.341-5.773-2.823-9.049-8.141-9.049h-.775v-2.437h18.945c.227.536 22.733 50.726 22.733 50.726l21.507-50.734h18.575l-.003 2.466h-.356c-7.528 0-8.863 2.339-8.295 11.799l2.589 44.396c.396 5.195 3.119 5.664 8.243 5.857v2.416H350.32v-2.416c.077-.008.183-.014.183-.014 4.523-.273 7.792-.461 7.792-5.005l-.097-4.8c0-.012-2.037-42.801-2.037-42.801l-23.144 55.544h-2.02c-.229-.541-24.201-54.45-24.201-54.45m268.783-9.766l-.005 52.56c0 7.096 3.001 8.242 10.18 8.242 16.912 0 24.611-14.562 24.611-28.833 0-22.182-9.156-32.284-27.981-32.284-1.659 0-5.201.148-6.804.315zm-19.655 63.744v-2.452h.948c3.811 0 7.335-.715 7.335-5.915V88.179c0-5.195-3.524-5.911-7.335-5.911h-.948v-2.451l29.924-.026c11.123 0 20.44 2.797 26.948 8.854 6.411 5.971 9.805 14.424 9.805 24.464 0 9.378-3.735 18.461-10.241 24.919-6.552 6.491-15.72 8.706-25.001 8.706l-31.435.018m123.642-3.444V126.9c0-3.591-2.611-5.489-7.556-5.489h-.783v-2.388h25.729v2.388h-.779c-3.597 0-5.5 1.898-5.5 5.489l-.011 18.266c-6.141 1.976-14.379 3.536-23.532 3.536-22.092 0-36.375-14.323-36.375-36.481 0-23.573 18.833-34.312 36.555-34.312 7.937 0 16.097 1.581 21.269 3.31l1.065 15.979-2.244.141c-2.775-11.508-7.907-16.021-19.432-16.021-15.551 0-24.977 11.466-24.977 29.917 0 16.953 7.959 33.752 25.731 33.752 4.096.092 8.333-.536 10.839-1.677m-258.574-32.999c8.425.615 12.908 2.469 16.679 6.333 2.916 2.982 4.457 6.763 4.457 11.167 0 10.505-9.631 18.922-22.151 18.922l-32.791-.005v-2.425h1.324c3.245 0 7.048-1.547 7.048-5.703V90.038c0-7.753-4.589-7.753-7.048-7.753h-1.324v-2.448l29.715-.016c13.952 0 21.633 5.057 21.633 14.638 0 10.601-9.329 14.523-17.543 15.851m-13.719-28.026v26.88h5.035c9.221 0 14.301-4.471 14.301-13.029 0-9.456-4.467-13.852-13.276-13.852zm0 29.805v23.552c0 6.543 2.084 8.415 8.873 8.415 8.153 0 14.305-6.711 14.305-15.851 0-10.281-6.259-16.115-16.747-16.115h-6.432M252.325 93.468l9.351 26.073h-18.727zm1.161-13.659l-21.244 57.778c-1.576 4.104-4.357 6.638-8.479 6.638h-.228l-.008 2.511h20.371l-.007-2.511h-.885c-4.904 0-8.241-1.568-6.107-7.898l4.861-13.497h21.092l5.275 14.713c1.513 4.644-.46 6.751-5.499 6.751h-.588l.003 2.468h25.915l.007-2.468h-.204c-3.455 0-5.819-1.811-7.435-6.402l-21.799-58.073-5.041-.01"/><path d="M402.643 2.767l.145 11.287-1.801.464c-.404-4.935-1.521-8.959-9.413-8.959h-10.601v20.854h9.1c4.464 0 5.679-2.497 6.179-6.805h1.82v17.445l-1.813.026c-.279-4.169-1.256-7.411-6.152-7.411h-9.133v18.315c0 5.331 4.585 5.331 9.443 5.331 8.712 0 12.749-.549 15.191-9.37.353.094 1.783.399 1.783.399l-2.439 11.76h-39.595v-1.951h.755c3.035 0 5.849-.57 5.849-4.714V9.428c0-4.137-2.815-4.708-5.849-4.708h-.755V2.767h37.288M130.973 56.154H80.552V4.699h50.421zm-9.016 4.749l-1.042-1.237 1.316-1.561 1.315 1.561-1.041 1.237c-.016.625-.055 6.081 3.161 8.031 0 0-1.071.206-2.51-.07 0 0-.25 1.42-.926 3.044-.676-1.624-.926-3.044-.926-3.044-1.437.276-2.51.07-2.51.07 3.218-1.951 3.179-7.406 3.163-8.031zm-8.211 9.268l-1.042-1.237 1.315-1.562 1.316 1.562-1.041 1.237c-.017.625-.056 6.081 3.161 8.031 0 0-1.071.206-2.512-.073 0 0-.25 1.423-.924 3.047-.676-1.624-.924-3.047-.924-3.047-1.439.279-2.512.073-2.512.073 3.218-1.951 3.179-7.406 3.163-8.031zm-8.211-9.268l-1.043-1.237 1.316-1.561 1.316 1.561-1.042 1.237c-.014.625-.055 6.081 3.163 8.031 0 0-1.071.206-2.512-.07 0 0-.25 1.42-.924 3.044-.676-1.624-.924-3.044-.924-3.044-1.441.276-2.512.07-2.512.07 3.218-1.951 3.179-7.406 3.163-8.031zm-8.211 9.268l-1.043-1.237 1.316-1.562 1.316 1.562-1.042 1.237c-.015.625-.055 6.081 3.163 8.031 0 0-1.071.206-2.511-.073 0 0-.25 1.423-.925 3.047-.675-1.624-.924-3.047-.924-3.047-1.441.279-2.512.073-2.512.073 3.216-1.951 3.177-7.406 3.163-8.031zm-8.213-9.268l-1.042-1.237 1.315-1.561 1.317 1.561-1.042 1.237c-.015.625-.054 6.081 3.163 8.031 0 0-1.073.206-2.511-.07 0 0-.25 1.42-.926 3.044-.676-1.624-.925-3.044-.925-3.044-1.439.276-2.512.07-2.512.07 3.218-1.951 3.179-7.406 3.163-8.031zm12.508 75.572c-1.029.558-11.798 5.933-21.068 10.549V83.392h50.414c-.286 36.883-19.202 47.568-29.346 53.083zm-69.372 0c-10.146-5.515-29.06-16.2-29.348-53.083h50.414v63.631l-21.067-10.548zM11.362 60.903l-1.042-1.237 1.315-1.561 1.317 1.561-1.043 1.237c-.014.625-.054 6.081 3.162 8.031 0 0-1.071.206-2.511-.07 0 0-.248 1.42-.924 3.044-.674-1.624-.924-3.044-.924-3.044-1.44.276-2.512.07-2.512.07 3.218-1.951 3.179-7.406 3.163-8.031zm8.211 9.268l-1.042-1.237 1.315-1.562 1.315 1.562-1.041 1.237c-.016.625-.055 6.081 3.163 8.031 0 0-1.073.206-2.512-.073 0 0-.251 1.423-.925 3.047-.675-1.624-.925-3.047-.925-3.047-1.439.279-2.512.073-2.512.073 3.218-1.951 3.179-7.406 3.163-8.031zm8.213-9.268l-1.042-1.237 1.314-1.561 1.315 1.561-1.041 1.237c-.016.625-.055 6.081 3.163 8.031 0 0-1.073.206-2.512-.07 0 0-.25 1.42-.925 3.044-.675-1.624-.923-3.044-.923-3.044-1.441.276-2.514.07-2.514.07 3.219-1.951 3.18-7.406 3.165-8.031zm8.211 9.268l-1.043-1.237 1.316-1.562 1.314 1.562-1.041 1.237c-.014.625-.056 6.081 3.163 8.031 0 0-1.073.206-2.512-.073 0 0-.25 1.423-.924 3.047-.676-1.624-.926-3.047-.926-3.047-1.439.279-2.51.073-2.51.073 3.216-1.951 3.177-7.406 3.163-8.031zm8.211-9.268l-1.042-1.237 1.316-1.561 1.315 1.561-1.042 1.237c-.014.625-.055 6.081 3.163 8.031 0 0-1.073.206-2.512-.07 0 0-.25 1.42-.924 3.044-.674-1.624-.926-3.044-.926-3.044-1.439.276-2.51.07-2.51.07 3.218-1.951 3.177-7.406 3.163-8.031zm31.329-39.308s-.25 1.423-.926 3.045c-.674-1.622-.923-3.045-.923-3.045-1.44.277-2.513.072-2.513.072 3.219-1.952 3.178-7.408 3.162-8.029l-1.041-1.24 1.315-1.561 1.317 1.561-1.043 1.24c-.015.621-.054 6.077 3.163 8.029 0 0-1.072.205-2.511-.072zm-1.199 19.922l-1.041-1.239 1.315-1.561 1.317 1.561-1.043 1.239c-.015.622-.054 6.078 3.163 8.03 0 0-1.072.205-2.511-.071 0 0-.25 1.422-.926 3.044-.674-1.622-.923-3.044-.923-3.044-1.44.276-2.513.071-2.513.071 3.219-1.952 3.178-7.407 3.162-8.03zm-7.612-13.94l-1.043-1.24 1.315-1.561 1.315 1.561-1.04 1.24c-.017.622-.056 6.078 3.163 8.03 0 0-1.073.205-2.513-.071 0 0-.25 1.422-.925 3.044-.674-1.622-.924-3.044-.924-3.044-1.439.276-2.511.071-2.511.071 3.217-1.952 3.178-7.407 3.164-8.03zm-7.7 13.94l-1.042-1.239 1.315-1.561 1.317 1.561-1.043 1.239c-.014.622-.053 6.078 3.163 8.03 0 0-1.071.205-2.511-.071 0 0-.249 1.422-.925 3.044-.674-1.622-.924-3.044-.924-3.044-1.439.276-2.512.071-2.512.071 3.219-1.952 3.179-7.407 3.163-8.03zm0-27.88l-1.042-1.24 1.315-1.561 1.317 1.561-1.043 1.24c-.014.621-.053 6.077 3.163 8.029 0 0-1.071.205-2.511-.072 0 0-.249 1.423-.925 3.045-.674-1.622-.924-3.045-.924-3.045-1.439.277-2.512.072-2.512.072 3.219-1.952 3.179-7.408 3.163-8.029zm18.661 66.654v8.491h-4.911v-8.491h-12.41v8.491H55.45v-8.577h-4.178V58.14h4.525c.511-1.077 1.208-1.552 2.287-1.552 1.072 0 1.756.451 2.37 1.552h3.706a2.57 2.57 0 0 1 2.43-1.555c1.007 0 1.977.655 2.309 1.555h3.449c.519-1.004 1.316-1.555 2.257-1.555.959 0 1.738.44 2.308 1.297l.175.258h4.783v22.152zm-2.15 32.676s-.25 1.422-.926 3.047c-.674-1.625-.923-3.047-.923-3.047-1.44.279-2.513.073-2.513.073 3.219-1.951 3.178-7.408 3.162-8.031l-1.041-1.237 1.315-1.562 1.317 1.562-1.043 1.237c-.015.623-.054 6.081 3.163 8.031 0 0-1.072.206-2.511-.073zm-1.199 19.92l-1.041-1.237 1.315-1.561 1.317 1.561-1.043 1.237c-.015.624-.054 6.08 3.163 8.031 0 0-1.072.207-2.511-.07 0 0-.25 1.421-.926 3.045-.674-1.624-.923-3.045-.923-3.045-1.44.277-2.513.07-2.513.07 3.219-1.951 3.178-7.407 3.162-8.031zm-7.612-41.819l-1.043-1.237 1.315-1.563 1.315 1.563-1.04 1.237c-.017.623-.056 6.078 3.163 8.029 0 0-1.073.208-2.513-.07 0 0-.25 1.422-.925 3.047-.674-1.625-.924-3.047-.924-3.047-1.439.279-2.511.07-2.511.07 3.217-1.951 3.178-7.405 3.164-8.029zm-3.164 35.911c3.217-1.951 3.178-7.409 3.164-8.031l-1.043-1.239 1.315-1.561 1.315 1.561-1.04 1.239c-.017.622-.056 6.081 3.163 8.031 0 0-1.073.206-2.513-.073 0 0-.25 1.422-.925 3.045-.674-1.623-.924-3.045-.924-3.045-1.439.279-2.511.073-2.511.073zm-4.536 5.907l-1.042-1.237 1.315-1.561 1.317 1.561-1.043 1.237c-.014.624-.053 6.08 3.163 8.031 0 0-1.071.207-2.511-.07 0 0-.249 1.421-.925 3.045-.674-1.624-.924-3.045-.924-3.045-1.439.277-2.512.07-2.512.07 3.219-1.951 3.179-7.407 3.163-8.031zm0-27.879l-1.042-1.237 1.315-1.562 1.317 1.562-1.043 1.237c-.014.623-.053 6.081 3.163 8.031 0 0-1.071.206-2.511-.073 0 0-.249 1.422-.925 3.047-.674-1.625-.924-3.047-.924-3.047-1.439.279-2.512.073-2.512.073 3.219-1.951 3.179-7.408 3.163-8.031zM2.893 4.699h50.421v51.455H2.893zM0 1.807v80.739c0 39.696 20.846 51.026 30.864 56.472 1.84 1 32.756 16.367 34.737 17.351l1.332.712 1.33-.712 34.738-17.351c10.018-5.445 30.865-16.775 30.865-56.472V1.807H0m19.902 18.725c-.39-.963-.563-1.547-.563-1.9 0-.324.251-.537.637-.537a1.21 1.21 0 0 1 .61.171l.515.304.493.044.231-.001.899-.043.684-.432.398.095c.472 0 .586.139.586.659 0 .76-.476 1.077-1.33 3.225-.378.944-.453 1.493-1.014 1.493-.629 0-1.102-.508-1.59-1.711zm-1.623-7.133l-.005-.111c0-.235.074-.323.259-.323.114 0 .326.096.473.22l1.155.937.722.387c.2.105.309.244.309.411l-.051.269c-.105.36-.021.761-.028.911-.037.764-.617.756-.851.756-.141 0-.067-.088-.402-.472l-.941-1.067c-.29-.328-.541-1.076-.642-1.919zm4.786.764c.845-.315 1.113-.461 1.454-.768l.471-.427.043-.013c.125 0 .214.137.214.319 0 .545-.582 1.545-1.185 2.573-.444.751-.651 1.224-.83 1.224-.21 0-.417-.329-.462-.723l-.087-.515-.213-.6-.06-.343c0-.352.174-.544.657-.728zm24.404 11.474c0-1.323-.693-2.821-1.75-3.781-.604-.539-1.203-.943-1.412-.943-.121 0-.216.099-.216.227l.043.545.003.051c0 .213-.125.38-.292.38-.217 0-.459-.281-.737-.856-.809-1.683-2.091-2.683-3.419-2.683-.225 0-.381.095-.381.227 0 .088.069.297.21.619l.341.769c.09.203.139.336.139.393 0 .047-.082.095-.182.095-.198 0-.509-.175-.725-.401l-.637-.685-.557-.856c-.447-.683-.804-.993-1.754-1.493l-1.025-.557c-.197-.112-.379-.172-.531-.172s-.229.072-.229.223c0 .137.059.3.163.463.316.489.439.731.439.857 0 .135-.1.252-.221.252-.329 0-1.021-.672-1.63-1.579-.503-.753-.771-1.591-.771-2.401 0-1.837 1.341-3.201 3.156-3.201.937 0 2.121.397 3.214 1.069l2.007 1.241c.699.432 1.725.769 2.337.769.271 0 .835-.096 1.253-.215.187-.051.36-.123.513-.212.118-.072.202-.168.202-.241 0-.085-.047-.163-.118-.187l-.255-.084-.94-.175c-.243-.043-.633-.187-1.151-.428l-2.14-1.067c-.703-.46-1.175-.731-1.409-.809-.348-.117-.565-.273-.565-.407 0-.128.066-.188.192-.188.12 0 .28.056.455.163.63.393 1.178.601 1.581.601l1.839.64c.913.319 2.242.597 2.842.597.775 0 1.403-.631 1.403-1.412 0-.501-.299-1.255-.741-1.875-.099-.14-.201-.219-.287-.219-.172 0-.266.123-.266.343l.039.344.067.511c0 .555-.373.989-.847.989-.174 0-.399-.045-.672-.135l-2.776-.893c-2.33-.753-3.405-.985-4.573-.985-3.323.005-5.857 2.285-5.857 5.287 0 3.4 2.389 5.595 8.292 7.619 5.809 1.995 6.625 2.479 6.625 3.977 0 .857-.87 1.624-1.84 1.624a5.7 5.7 0 0 1-1.025-.086 297.66 297.66 0 0 1-2.904-.682c-1.755-.422-3.349-.602-5.32-.602-4.193 0-6.517.734-8.529 2.695-.501.49-.67.564-1.248.564l-.288-.011-.598-.042-.077-.001c-.504 0-.872.233-1.205.771l-.727 1.155c-.119.161-.302.255-.488.255-.384 0-.613-.29-1.049-1.323a3.63 3.63 0 0 0-.897-1.287l-.855-.769c-.14-.124-.216-.24-.216-.326 0-.095.06-.232.17-.398.41-.595.552-.861.601-1.115.113-.568.131-.595.364-.595.266 0 .342.263.361 1.241.007.282.121.675.344 1.152l.471 1.026c.059.133.21.216.385.216.442 0 1.001-1.039 1.153-2.139.122-.918.22-1.2.409-1.2.08 0 .148.032.187.089.043.063.175.318.384.768.113.237.302.457.557.642.246.181.42.282.513.3l.052.005c.346 0 .464-.227.546-1.034l.042-.426-.086-.601-.06-.413c0-.275.097-.44.253-.44.094 0 .208.06.32.171l.428.43c.284.281.572.425.845.425.355 0 .573-.144.573-.379 0-.206-.079-.408-.395-.989l-.297-.555c-.343-.644-.615-.899-.936-.899l-.432.041-.51.213c-.157.064-.27.099-.336.099-.081 0-.136-.072-.136-.169 0-.383.249-.987.726-1.741.337-.541.571-1.697.683-3.356.146-2.232.445-3.679.756-3.679.214 0 .292.18.292.656l-.021.588-.016.408c0 .4.088.721.192.721.366 0 .8-.545 1.146-1.429.144-.371.221-.665.221-.871l-.048-.2-.853-1.583-.856-.253c-.158-.048-.266-.12-.299-.192v-.577-.468l-.085-.516-.173-.427-.21-.469c-.937.508-1.381.841-1.711 1.281-.334.447-.524.619-.691.619-.111 0-.207-.105-.207-.225 0-.107.042-.335.128-.695l.027-.239c0-.92-.56-1.824-1.479-2.408l-.255.341-.301.427-.513.6c-.163.189-.31.48-.429.853-.057.181-.087.347-.087.488l.002.067.005.156c0 .355-.039.447-.198.447l-.106-.047-.299-.425-.468-.513-.727-.471-.384-.297-.171.383c-.133.297-.205.529-.213.685l-.046.683-.042.724.005.127c0 .375-.091.519-.318.519-.076 0-.292-.091-.499-.215a1.23 1.23 0 0 0-.618-.175c-.666 0-1.093.46-1.093 1.181 0 .852.252 1.672.687 2.24l.553.727c.154.195.436.361.45.255l.106-.895-.129-.725-.026-.328c0-.273.096-.445.254-.445.242 0 .387.265.542.984l.34 1.583.344 2.008c.091.54.264 1.113.511 1.709.339.805.583 1.307.727 1.495.476.611.527.692.527.828 0 .105-.085.199-.183.199-.091 0-.223-.045-.385-.128a1.82 1.82 0 0 0-.513-.172l-.334-.048c-.687 0-.827.589-.827 3.442 0 1.742.368 4.104.82 5.24l.895 2.267a2.84 2.84 0 0 1 .214 1.06c0 3.117-4.132 8.008-8.673 10.264-1.69.835-2.229 1.64-2.35 3.501l-.042.558c.688-.359.969-.477 1.451-.599 1.274-.332 1.521-.492 1.712-1.113l.168-.556c.066-.209.173-.285 1.155-.811.337-.177.573-.371.685-.554.215-.36.393-.552.508-.552.105 0 .165.049.165.138l-.035.153-.426 1.221-.051.299c0 .905.495 1.642 1.42 2.113.152-.988.255-1.327.557-1.792L16.613 46c.286-.445.405-.984.405-1.829a7.88 7.88 0 0 0-.106-1.335l-.029-.339c0-.216.113-.342.301-.342.148 0 .267.052.283.126l.173.813c.033.176.211.301.415.301.411 0 .946-.535 1.508-1.496.206-.358.318-.747.318-1.131l-.065-.58-.127-.638-.01-.125c0-.28.156-.477.378-.477.098 0 .177.037.19.083l.254.987c.086.327.316.556.555.556.287 0 .78-.495 1.069-1.07.259-.509.386-1.087.386-1.747 0-.913.094-1.173.428-1.173.107 0 .194.038.213.102l.171.556c.066.203.187.339.306.339.177 0 .656-.517.977-1.067.086-.142.131-.282.131-.397 0-.184-.122-.367-.386-.587-.447-.368-.473-.426-.473-.983 0-.537.088-.819.473-1.494a30.91 30.91 0 0 0 .555-1.027c.54-1.057.732-1.328.93-1.328.164 0 .312.178.312.376a.79.79 0 0 1-.089.353c-.116.241-.173.411-.173.508 0 .168.142.307.317.307.197 0 .458-.09.753-.257.115-.068.515-.22 1.195-.471l1.414-.511c.232-.085.521-.13.855-.13a3.41 3.41 0 0 1 .767.086c.504.115.834.174.985.174.386 0 .729-.333.729-.713 0-.285-.294-.844-.687-1.298-.146-.172-.22-.301-.22-.39l.05-.169c.056-.105.143-.172.227-.172.287 0 .963.72 1.568 1.672 3.678 5.792 4.998 7.194 7.479 7.947 2.513.766 3.169 1.353 3.169 2.845 0 .817-.418 1.767-1.332 3.049-1.861 2.603-2.311 3.655-2.311 5.372l.002.317a7.2 7.2 0 0 0 .471-.216c.348-.176.58-.28.682-.299l1.067-.213c.321-.066.607-.478.607-.873l-.007-.108-.128-.941-.01-.125c0-.333.166-.715.394-.903.071-.053.146-.091.223-.091.118 0 .263.112.335.265l.683 1.451c.281.594.606.875 1.493 1.282-.116-.514-.157-.779-.157-1.031l.03-.336.128-.685.046-.552c0-.594-.101-1.016-.301-1.282l-.514-.685c-.167-.228-.317-.503-.426-.815-.059-.154-.087-.279-.087-.359 0-.194.116-.314.309-.314.115 0 .161.021.547.249.166.097.31.146.418.146.254 0 .395-.413.395-1.138 0-.825-.076-1.284-.256-1.489l-.644-.725-.555-.47c-.134-.116-.227-.26-.227-.372 0-.183.142-.313.349-.313.193 0 .604.093.946.216l.195.041c.177 0 .244-.102.244-.354l-.01-.156-.129-.9-.254-.939c-.084-.306-.132-.353-.325-.353l-.107.013-1.065.211-.171.017c-1.4 0-2.881-1.182-3.334-2.666l-.854-2.777c-.264-.858-.904-1.672-2.053-2.611-.345-.282-.643-.443-.853-.465l-.772-.089c-.141-.016-.232-.096-.232-.213 0-.175.165-.255.532-.255l1.409.126c.515.048 1.291.249 2.308.599 1.279.44 2.142.629 2.868.629 2.136 0 3.417-1.156 3.417-3.089m-35.536-4.032c.274 0 .701-.521.914-1.117.131-.361.194-.675.194-.997 0-.283-.069-.625-.194-.967-.155-.435-.393-.681-.649-.681-.312 0-.472.268-.504.855l-.084.811-.105 1.033c0 .611.181 1.064.428 1.064m5.276 10.083l-.084-.899-.087-.81-.086-.94c-.008-.242-.075-.353-.21-.353-.105 0-.277.142-.386.309-.672 1.024-1.138 1.367-1.856 1.367-2.279 0-4.002-4.008-4.002-9.307 0-.461.032-1.048.086-1.761.109-1.356.133-1.696.133-2.201 0-2.3-.481-3.917-1.457-4.893l-.598-.597-.385-.424.007.368c0 .531-.128 1.163-.561 2.796-.081.301-.128.592-.128.776 0 .287.104.597.341.972.14.22.272.375.386.427l.511.256.084.599c-.02.235.026.555.128.943a4.74 4.74 0 0 1 .178 1.273c0 .36-.03.501-.111.501-.16 0-.446-.44-.704-1.093-.414-1.033-.783-1.416-1.366-1.416-.468 0-.772.08-1.332.348.136.167.22.28.259.343.033.051.161.296.386.725l.598 1.153.724 1.368a1.87 1.87 0 0 0 .598.601 70.31 70.31 0 0 1 .683.384c.21.113.353.276.353.393 0 .192-.16.329-.368.329h-.027l-.555-.083-.311-.035c-.168 0-.247.155-.247.477 0 1.154.921 2.493 2.526 3.657.19.143.343.346.343.463 0 .142-.148.269-.316.269-.101 0-.351-.079-.541-.172-.122-.063-.223-.094-.297-.094-.21 0-.348.175-.348.438 0 .304.245.909.775 1.922.346.66.86 1.159 1.452 1.406l1.922.815c.103.041.173.142.173.254a.3.3 0 0 1-.258.301l-.387.041-.341.043-.553-.043h-.083c-.27 0-.375.052-.375.187 0 .215.236.745.626 1.396.458.766.857 1.198 1.105 1.198.1 0 .201-.086.267-.213l.469-.985c.079-.169.466-.468 1.111-.854.408-.249.815-.41 1.196-.47l.768-.131c.203-.034.307-.169.307-.406l-.008-.103-.128-.812m-6.836 11.918a1.13 1.13 0 0 0 .704.259c.837 0 1.565-.392 2.713-1.455-.597-.087-.876-.155-1.24-.301l-.811-.339c-.689-.294-1.204-.432-1.635-.432-.645 0-1.173.219-1.781.73l.383.297.854.599.814.641m24.523-6.071a1.26 1.26 0 0 1 .089-.465l.299-.728c.088-.204.131-.435.131-.681 0-.445-.146-.892-.43-1.327l-.557-.897c-.251-.676-.381-.865-.592-.865l-.216.052-.299.169-.472.259-.555.686-.598.295c-.358.18-.696.942-.696 1.57 0 1.111.125 1.417 1.589 3.945.572.975.871 1.82.871 2.443 0 1.75-1.568 2.997-4.715 3.752l-1.965.47c-1.447.349-2.301 1.341-2.608 3.036.6-.31.835-.354 1.894-.354l.629.008.099.002c.57 0 .649-.039 1.01-.556.424-.591.839-.943 1.412-1.191l.684-.302.556-.299.17-.044c.153 0 .235.063.235.175 0 .167-.156.447-.405.724-.493.547-.684 1.007-.684 1.655 0 .411.1.652.471 1.123.233-.531.344-.677.855-1.113 1.193-1.025 1.749-1.785 1.749-2.392v-.428-.513c0-.548.093-.728.379-.728.127 0 .23.049.263.13l.212.509c.05.121.193.198.361.198s.41-.195.624-.497l.429-.595c.213-.298.309-.556.309-.834a1.38 1.38 0 0 0-.096-.492l-.299-.681c-.098-.22-.176-.514-.176-.669 0-.28.141-.445.383-.445a.38.38 0 0 1 .304.134l.343.423c.074.093.195.15.325.15.156 0 .338-.15.443-.361l.342-.685c.089-.173.135-.306.135-.381 0-.133-.139-.271-.389-.387l-.556-.259c-.732-.336-1.287-1.513-1.287-2.739m-8.754 7.184c.408.557.467.6.869.6.173 0 .384-.03.625-.09l.383-.083c.706-.137.945-.24.945-.413 0-.103-.078-.234-.217-.357l-.468-.426-.469-.43c-.303-.276-.899-.479-1.41-.479s-.812.104-1.542.523c.492.307.992.752 1.284 1.154m15.638-.528c0-.293-.267-.456-.753-.456-1.152 0-1.875.663-2.322 2.141l.255-.046.386-.042.385.042.188.013c.949 0 1.86-.805 1.86-1.652M21.313 22.07c.095.493.276.685.644.685.418 0 .678-.287.724-.812l.085-.941.084-.976c0-.092-.047-.185-.128-.261-.062-.059-.14-.092-.215-.092l-.04.005-.684.129h-.556c-.081 0-.165.047-.214.127l-.084.213.211 1.028.171.895"/><path d="M98.274 12.966c.114 0 .328.096.478.22l1.151.937.728.387c.204.107.323.292.323.5l-.025.18-.211.772-.133.855c-.014.103-.107.175-.223.175l-.03-.004c-.177-.053-.631-.245-.929-.588l-.645-1.081c-.099-.108-.351-.516-.562-1.195a4.92 4.92 0 0 1-.168-.724l-.01-.124c0-.215.077-.309.258-.309zm3.068 5.648l.227-.001.942-.043.64-.432.249-.049c.467 0 1.015.471 1.015.961 0 .421-.565.671-.792 1.269l-.472 1.925c-.347.909-.793 1.364-1.346 1.364-.644 0-1.133-.515-1.601-1.709l-.557-1.367c-.353-.84-.544-1.46-.544-1.783 0-.412.235-.655.627-.655a1.18 1.18 0 0 1 .6.171l.516.304zm1.51-4.448c.546-.197 1.136-.519 1.41-.767l.469-.433.047-.013c.119 0 .212.14.212.32 0 .547-.501 1.404-1.106 2.435-.445.751-.728 1.364-.909 1.364-.21 0-.417-.327-.465-.723l.055-.375-.355-.737-.063-.345c0-.363.16-.529.704-.725zm-5.299 2.864l.341 2.008c.093.54.266 1.113.515 1.709.336.805.579 1.307.724 1.495.474.611.529.692.529.828 0 .105-.087.199-.186.199-.091 0-.222-.045-.387-.128-.147-.076-.316-.137-.511-.172l-.312-.047c-.708 0-.852.569-.852 3.408 0 1.769.367 4.129.822 5.272l.897 2.267a2.86 2.86 0 0 1 .218 1.063c0 3.125-4.228 8.118-8.678 10.261-1.732.831-2.245 1.699-2.393 4.06.741-.354 1.039-.47 1.496-.599 1.26-.353 1.531-.532 1.707-1.113l.171-.556c.076-.237.236-.354 1.114-.811.329-.171.564-.362.683-.554.223-.368.394-.551.507-.551.123 0 .187.082.187.221l-.01.068-.473 1.221-.052.301c0 .897.502 1.642 1.422 2.112a14.36 14.36 0 0 0 .127-.51c.151-.654.297-1.083.427-1.281l.815-1.198c.292-.432.346-.717.346-1.82l-.049-1.344-.025-.342c0-.223.106-.343.299-.343.148 0 .272.056.282.13l.127.813c.03.173.207.301.418.301.415 0 .943-.529 1.508-1.496.215-.378.303-.672.303-1.021 0-.271-.056-.868-.135-1.328l-.018-.253c0-.212.125-.346.326-.346.108 0 .192.034.206.081l.299.987c.101.328.328.556.561.556.656 0 1.335-1.343 1.405-2.778.043-.902.155-1.216.431-1.216.106 0 .188.039.211.104l.169.556c.063.203.186.339.306.339.108 0 .325-.19.594-.511.148-.185.28-.369.385-.556a.95.95 0 0 0 .127-.451c0-.216-.044-.275-.385-.534-.313-.235-.469-.537-.469-.896 0-.62.263-1.285 1.023-2.608.698-1.199.792-1.339.961-1.339.159 0 .284.159.284.365a.87.87 0 0 1-.091.375c-.114.25-.175.419-.175.511 0 .167.153.304.339.304.209 0 .473-.09.777-.257.183-.103.57-.261 1.154-.471l1.451-.511c.268-.085.573-.132.88-.132a3.28 3.28 0 0 1 .745.088c.487.115.818.174.984.174.388 0 .69-.297.69-.676 0-.17-.117-.493-.265-.74-.22-.354-.349-.56-.383-.595-.189-.198-.262-.306-.262-.385l.047-.173c.053-.105.144-.172.24-.172.338 0 .999.69 1.595 1.672 3.351 5.471 4.975 7.201 7.439 7.947 2.568.779 3.17 1.32 3.17 2.852 0 .811-.429 1.793-1.333 3.043-1.709 2.372-2.31 3.76-2.31 5.338l.005.351a7.14 7.14 0 0 0 .469-.216c.351-.176.578-.28.685-.299l1.064-.213c.336-.068.605-.467.605-.897l-.005-.085-.082-.941-.01-.148c0-.53.258-.966.578-.966.119 0 .255.108.327.26l.684 1.451c.278.594.604.875 1.495 1.282-.1-.389-.134-.575-.134-.785l.049-.582c.105-.799.138-1.182.138-1.662 0-.314-.092-.567-.309-.857l-.515-.685c-.334-.448-.467-.784-.467-1.167 0-.246.057-.33.227-.33l.198.042a42.33 42.33 0 0 0 .383.215c.173.097.32.146.427.146.258 0 .387-.401.387-1.202 0-1.112-.208-1.644-.854-2.149l-.597-.47c-.106-.083-.175-.222-.175-.349 0-.206.121-.339.314-.339.12 0 .288.034.497.089l.473.13.182.041c.145 0 .211-.114.211-.362l-.009-.148-.128-.9c-.136-.932-.289-1.287-.565-1.287l-.076.009-1.111.211-.188.017c-1.335 0-2.909-1.266-3.318-2.666l-.812-2.777c-.242-.831-.967-1.747-2.054-2.611-.355-.276-.665-.441-.896-.465l-.767-.089c-.14-.016-.234-.101-.234-.21 0-.177.147-.26.463-.26 1.084 0 2.242.221 3.787.727 1.403.461 2.17.629 2.856.629 2.14 0 3.428-1.116 3.428-2.965a5.78 5.78 0 0 0-.814-2.835c-.417-.64-1.119-1.299-2.011-1.879-.131-.087-.248-.133-.336-.133-.121 0-.219.095-.219.216l.044.556.002.051c0 .209-.121.38-.272.38-.237 0-.482-.277-.755-.856-.787-1.669-2.056-2.677-3.363-2.677-.286 0-.448.101-.448.276 0 .131.077.328.222.564.137.215.265.476.385.769.067.167.103.291.103.365s-.068.123-.195.123c-.191 0-.506-.175-.719-.401l-.643-.685-.554-.856c-.431-.66-.906-1.079-1.708-1.493l-1.072-.557c-.213-.112-.401-.172-.546-.172-.133 0-.2.065-.2.195 0 .135.066.305.194.491.226.335.394.696.394.852 0 .145-.094.257-.215.257-.3 0-.835-.537-1.59-1.579-.541-.748-.817-1.561-.817-2.401 0-1.8 1.387-3.201 3.173-3.201.916 0 2.063.384 3.196 1.069l2.053 1.241c.733.443 1.725.769 2.345.769.339 0 .439-.019 1.203-.215.224-.057.409-.128.555-.212.093-.056.157-.156.157-.252 0-.167-.103-.241-.374-.26-.951-.072-2.925-.851-4.227-1.669-.76-.476-1.232-.748-1.411-.809-.353-.125-.587-.308-.587-.455 0-.067.072-.103.184-.103l.249.044 1.862.683 1.793.64c.881.313 2.247.597 2.872.597.81 0 1.372-.56 1.372-1.371 0-.408-.101-.871-.27-1.189-.26-.511-.601-.943-.741-.943-.167 0-.259.168-.259.457l.018.227.054.549c0 .577-.318.952-.807.952-.191 0-.427-.047-.699-.136l-2.778-.893c-2.413-.78-3.353-.985-4.54-.985-3.357 0-5.89 2.267-5.89 5.287 0 3.405 2.337 5.543 8.336 7.619 5.82 2.017 6.577 2.479 6.577 4.013 0 .882-.824 1.588-1.858 1.588-.382 0-.718-.033-1.002-.086-.252-.052-1.22-.279-2.907-.682-1.783-.432-3.296-.602-5.312-.602-4.239 0-6.279.647-8.491 2.695-.51.477-.717.564-1.289.564l-.289-.011-.674-.043c-.512 0-.899.245-1.208.771l-.684 1.155c-.094.159-.281.255-.489.255-.444 0-.679-.293-1.094-1.323-.216-.548-.51-.988-.853-1.287l-.899-.769c-.134-.117-.212-.227-.212-.313s.077-.229.212-.411a4.2 4.2 0 0 0 .385-.596c.132-.241.202-.417.213-.518l.042-.383c.033-.125.158-.213.306-.213.284 0 .333.189.339 1.241 0 .269.115.663.34 1.152l.468 1.026c.064.133.212.216.387.216.445 0 1.005-1.04 1.153-2.139.122-.91.22-1.2.408-1.2.176 0 .254.11.618.858a2.03 2.03 0 0 0 .513.642c.208.174.387.281.511.3l.047.002c.353 0 .471-.22.553-1.03l.041-.426-.084-.601-.058-.413c0-.275.096-.44.254-.44.092 0 .207.06.319.171l.427.43c.284.286.575.428.861.428.366 0 .593-.16.593-.42 0-.215-.048-.317-.426-.95-.039-.061-.139-.246-.299-.555-.38-.722-.558-.899-.893-.899l-.434.041-.556.213c-.165.064-.279.099-.34.099-.072 0-.131-.075-.131-.173 0-.385.253-.992.728-1.737.293-.463.54-1.612.725-3.356l.217-2.008c.129-1.233.263-1.671.512-1.671.09 0 .161.04.171.092l.126.639v.513c0 .624.067 1.129.146 1.129.182 0 .447-.213.709-.575a3.07 3.07 0 0 0 .427-.855c.142-.459.216-.835.216-1.121 0-.988-.417-1.412-1.755-1.785-.135-.04-.224-.083-.254-.129l-.046-.385v-.723l-.087-.516-.166-.427-.217-.469-.34.211c-.873.551-1.085.712-1.371 1.071-.388.492-.522.613-.684.613-.118 0-.21-.081-.21-.185l.17-.729.015-.124c0-.936-.526-1.843-1.467-2.523l-.299.341-.301.427-.511.6c-.297.348-.475.823-.475 1.268l.004.14.005.144c0 .336-.051.453-.21.453l-.094-.041-.342-.425-.426-.513-.77-.471-.384-.297c-.413.896-.429.991-.429 2.14l.001.359c0 .385-.127.619-.332.619-.101 0-.281-.073-.521-.212a1.31 1.31 0 0 0-.635-.175c-.622 0-1.079.527-1.079 1.248 0 .784.169 1.321.687 2.173.335.555.778 1.004.981 1.004.023 0 .079-.396.131-.917l-.131-.725-.028-.328c0-.273.098-.445.258-.445.241 0 .387.265.54.984l.343 1.583m-5.879 4.566c.284 0 .728-.529.927-1.112.122-.361.219-.865.219-1.157 0-.207-.053-.397-.219-.809-.193-.468-.389-.684-.628-.684-.367 0-.536.469-.612 1.668l-.043.685-.012.416c0 .693.108.993.368.993m-2.963.898c.235.116.393.273.393.396 0 .199-.158.331-.392.331-.091 0-.368-.04-.601-.087l-.316-.031c-.164 0-.24.152-.24.485 0 1.136.968 2.511 2.568 3.645.211.156.341.317.341.439 0 .065-.047.141-.13.206-.075.055-.156.087-.229.087-.09 0-.287-.07-.501-.172-.123-.068-.233-.096-.315-.096-.204 0-.334.195-.334.5 0 .388.287 1.073.78 1.862.453.715.947 1.211 1.408 1.406l1.923.815c.104.041.172.137.172.24 0 .154-.107.281-.255.315l-.344.041-.384.043-.512-.043-.088-.002c-.265 0-.371.056-.371.193 0 .203.194.638.627 1.392.472.819.805 1.198 1.055 1.198.105 0 .21-.086.272-.213l.471-.985c.061-.134.447-.429 1.11-.854.404-.26.812-.422 1.195-.47 1.025-.138 1.112-.185 1.112-.615 0-.146-.045-.427-.129-.839-.046-.219-.086-.518-.13-.899l-.082-.81-.088-.94c-.01-.239-.079-.353-.212-.353-.09 0-.232.132-.343.309-.506.819-1.244 1.371-1.842 1.371-2.388 0-4.014-3.808-4.014-9.391l.044-1.681.128-2.008.022-.709c0-1.721-.6-3.5-1.473-4.377l-.601-.597-.383-.424.004.368c0 .393-.118 1.115-.303 1.809l-.259.987a3.38 3.38 0 0 0-.085.773c0 .601.292 1.167.727 1.401l.473.256.086.599c-.025.235.021.552.126.943a4.89 4.89 0 0 1 .177 1.281c0 .357-.034.493-.11.493-.164 0-.447-.44-.707-1.093-.412-1.033-.78-1.416-1.365-1.416-.467 0-.77.08-1.328.348.447.577.718 1.06 1.239 2.221.68 1.515.943 1.821 2.008 2.353m1.419 21.108c.206.167.461.259.716.259.839 0 1.544-.383 2.698-1.455-.899-.152-1.038-.196-2.048-.639-.701-.311-1.155-.434-1.605-.434-.675 0-1.196.214-1.816.732l.383.297.857.599.815.641m24.525-5.982c0-.129.045-.317.128-.555l.258-.728c.085-.238.128-.48.128-.709 0-.421-.129-.824-.427-1.298l-.514-.897c-.246-.637-.395-.846-.605-.846-.151 0-.294.055-.548.203l-.427.259-.599.686-.6.295c-.357.181-.697.955-.697 1.599 0 .923.203 1.425 1.596 3.917.591 1.055.869 1.836.869 2.432 0 1.74-1.775 3.172-4.673 3.762-3.462.711-4.217 1.281-4.615 3.506.599-.31.837-.354 1.894-.354l.627.008.099.002c.572 0 .648-.039 1.013-.556.419-.591.835-.943 1.411-1.191l.684-.302.555-.299.171-.044c.155 0 .237.063.237.178 0 .147-.139.392-.408.721-.414.502-.653 1.017-.653 1.409 0 .572.094.859.439 1.37.239-.531.348-.677.856-1.113 1.195-1.025 1.752-1.785 1.752-2.392v-.428-.513c0-.548.09-.728.376-.728.128 0 .232.049.266.13l.214.509c.049.12.188.191.361.191.304 0 .521-.219 1.048-1.086.223-.367.313-.604.313-.846a1.29 1.29 0 0 0-.101-.48l-.299-.681c-.096-.22-.175-.514-.175-.669 0-.28.143-.445.383-.445.129 0 .242.049.309.134l.337.423c.078.093.096.15.226.15.158 0 .438-.15.545-.361l.342-.685c.086-.169.131-.306.131-.388 0-.144-.136-.29-.346-.38l-.598-.259c-.701-.299-1.282-1.504-1.282-2.648m-8.761 7.091c.409.557.466.6.873.6.168 0 .382-.03.623-.09l.385-.083c.728-.138.948-.243.948-.438 0-.118-.067-.237-.18-.332l-.512-.426-.47-.43c-.29-.261-.888-.474-1.347-.474-.531 0-.965.141-1.602.518.493.307.99.752 1.282 1.154m15.473-.044c.11-.184.168-.351.168-.484 0-.288-.264-.456-.731-.456-1.173 0-1.892.655-2.346 2.141l.255-.046.431-.042.342.042.232.015c.433 0 .657-.047.836-.187.266-.199.535-.522.814-.982"/><path d="M100.67 20.147l.214 1.028.172.895c.097.493.178.685.545.685.419 0 .777-.287.822-.812l.086-.941.085-.976c0-.092-.047-.185-.126-.261a.33.33 0 0 0-.221-.092l-.038.005-.682.129h-.515c-.078 0-.156.047-.214.127-.084.12-.13.199-.13.213M20.075 99.421c-.2-.382-.327-.841-.327-1.189 0-.539.238-.823.691-.823.186 0 .36.044.49.133l.384.258c.336.22.716.34 1.088.34a1.68 1.68 0 0 0 .749-.169l.683-.341c.122-.06.231-.093.325-.093.333 0 .58.246.58.695 0 .489-.382 1.145-.905 2.086-.565 1.022-.99 1.715-1.426 1.715-.614 0-1.486-.978-2.333-2.612zm-.984-5.427l-.213-.638-.047-.189c0-.066.08-.117.176-.117s.333.119.511.259c.189.152.308.141.597.217 1.167.302 1.414.516 1.414 1.078l-.046.712-.17.644c-.072.276-.144.37-.271.37-.093 0-.833-.534-.927-.668l-.423-.601zm4.614-.214c.433-.077.725-.16.857-.254l.683-.472.072-.013c.115 0 .196.081.196.209l-.014.059-.297.73-.94 1.018-.558.99-.213.234-.042.007c-.227 0-.456-.52-.473-1.057l-.081-.851c.066-.352.274-.508.809-.6zm24.124 12.053c0-1.459-.695-2.945-1.945-4.146-.34-.333-.71-.549-1.068-.642l-.082-.007-.217.072.088.617.168.431.047.179c0 .091-.088.162-.201.162a.38.38 0 0 1-.315-.173l-.768-1.155c-.609-.911-1.946-1.673-2.935-1.673-.352 0-.574.156-.574.405 0 .121.117.341.26.5.218.247.389.543.389.682l-.047.172c-.045.096-.108.163-.171.171l-.042.004c-.207 0-.308-.094-1.239-1.155-.761-.871-2.316-1.718-3.15-1.718-.119 0-.23.052-.313.135-.052.056-.086.119-.086.164 0 .132.113.301.301.477.264.244.475.531.475.655 0 .084-.112.16-.24.16-.244 0-.793-.354-1.817-1.157-1.595-1.252-2.306-2.435-2.306-3.805 0-1.654 1.178-2.949 2.691-2.949.885 0 2.06.426 2.864 1.029l2.094 1.578c.958.729 2.133 1.115 3.363 1.115.268 0 .52-.06.739-.173.187-.094.301-.206.301-.287 0-.051-.159-.127-.387-.185-.756-.18-1.365-.442-1.795-.768l-2.136-1.621-1.669-1.155c-1.126-.593-1.346-.732-1.346-.862 0-.067.107-.122.245-.122a.96.96 0 0 1 .375.086l1.112.472c.357.148.956.507 1.795 1.068 2.288 1.529 3.451 2.018 4.794 2.018 1.278 0 2.22-.906 2.22-2.138 0-.242-.062-.51-.179-.738l-.214-.424c-.074-.153-.212-.267-.255-.215l-.128.171-.128.899c-.005.034-.051.138-.131.299a1.51 1.51 0 0 1-.296.426c-.233.228-.427.302-.785.302-.66 0-1.403-.354-3.403-1.629-2.023-1.287-3.85-1.961-5.299-1.961-3.076 0-5.556 2.477-5.556 5.544 0 4.279 2.61 6.213 10.809 8 3.12.679 4.49 1.593 4.49 2.979 0 1.267-1.022 2.064-2.647 2.064-.491 0-.878-.029-1.156-.085s-1.744-.456-4.404-1.201c-1.833-.508-3.89-.795-5.704-.795-3.217 0-5.383.956-6.859 3.021-.172.245-.341.388-.455.388-.087 0-.215-.06-.358-.173l-.596-.471c-.422-.329-1.089-.584-1.534-.584-.324 0-.632.129-.905.373-.211.193-.369.296-.435.296-.24 0-.679-.536-1.015-1.237-.48-1.002-.73-1.997-.73-2.909 0-.427.135-.724.323-.724.148 0 .26.113.321.339l.341 1.24c.191.694.578 1.24.872 1.24.131 0 .361-.187.621-.511.16-.195.274-.398.345-.601.267-.782.332-.896.543-.896.25 0 .378.154.546.936.034.144.081.36.279.733.173.323.346.585.513.768.128.14.289.219.442.219.375 0 .72-.628.72-1.319l-.007-.182-.053-.793c0-.307.048-.399.22-.399.101 0 .178.053.299.208a2.24 2.24 0 0 0 .728.597c.26.142.469.215.608.215.125 0 .272-.08.415-.215.116-.108.18-.229.18-.334 0-.127-.153-.32-.607-.775-.241-.246-.534-.831-.855-1.707-.12-.336-.281-.564-.402-.564-.033 0-.131.031-.281.091l-.555.211-.385.171-.146.031c-.182 0-.328-.13-.328-.293s.388-.625.859-1.016a1.57 1.57 0 0 0 .555-1.154c.027-.719.159-1.285.298-1.285l.13-1.495a15.34 15.34 0 0 1 .641-2.945c.052-.158.121-.263.171-.263.119 0 .227.323.227.678l-.013.221-.024.432c0 .542.087.822.255.822.186 0 .396-.27.583-.741l.382-.982c.113-.29.172-.56.172-.798 0-.831-.498-1.435-1.189-1.435l-.309.053c-.164.057-.267.086-.302.086-.225 0-.414-.247-.414-.537l.033-.616-.041-.855-.172-.896-.045-.43-.383.212-.472.385-.681.554-.557.471c-.098.084-.209.131-.317.131-.327 0-.367-.089-.367-.754v-.167c0-.539-.234-.96-1.109-1.987l-.217-.257-.168.301-.471.768-.47 1.195-.088.768c-.021.22-.107.392-.193.392s-.236-.112-.403-.306c-.653-.747-.86-.883-1.839-1.237l-.084.297c-.156.506-.242.806-.257.901l-.045.81v.341l.004.272c0 .236-.087.375-.232.375l-.028-.006c-.015-.005-.101-.08-.256-.213-.099-.09-.281-.133-.518-.133-.794 0-1.302.431-1.302 1.115 0 .512.175.893.963 2.093.349.532.753.951.913.951.106 0 .194-.281.194-.608l-.079-.514a2.13 2.13 0 0 1-.121-.654c0-.237.069-.369.201-.369.384 0 .781 1.108.947 2.65l.168 1.581a5.29 5.29 0 0 0 .514 1.709c.39.797.772 1.34 1.111 1.58.411.287.662.571.662.729 0 .133-.108.256-.225.256-.013 0-.304-.104-.864-.303l-.359-.051c-.854 0-1.14.489-1.14 1.957 0 1.779 1.199 4.336 2.526 5.404l1.965 1.583c.998.798 1.753 2.129 1.753 3.078 0 1.25-1.37 2.478-3.718 3.332l-1.411.509c-1.094.399-1.535 1.107-1.965 3.163.558-.172.804-.216 1.178-.216l.19.005.635.013c.573 0 .989-.345.989-.825v-.385c0-.116.159-.273.384-.386l.596-.299.473-.384c.073-.06.158-.096.238-.096.128 0 .234.123.234.266 0 .105-.032.24-.087.385-.147.378-.227.893-.227 1.469 0 1.047.167 1.61.696 2.378.049-.284.092-.468.128-.555.087-.216.332-.603.727-1.153.645-.905 1.121-2.008 1.121-2.602l-.013-.181-.127-.981c0-.178.079-.345.213-.47a.46.46 0 0 1 .292-.125c.182 0 .295.108.437.425.101.238.222.384.304.384.149 0 .443-.392.632-.854.143-.339.215-.644.215-.904a1.48 1.48 0 0 0-.128-.549c-.087-.214-.136-.38-.136-.485s.035-.163.178-.283c.07-.053.143-.087.217-.087a.49.49 0 0 1 .253.087l.383.257c.131.086.247.131.343.131.173 0 .417-.193.6-.475.37-.57.605-1.039.605-1.216 0-.115-.07-.195-.308-.362-.85-.601-1.41-1.509-1.41-2.287a1.8 1.8 0 0 1 .128-.619l.427-1.155.341-.9.126-.047c.146 0 .234.121.234.33a1.45 1.45 0 0 1-.101.487c-.104.281-.179.621-.179.813 0 .307.157.472.446.472.211 0 .455-.058.714-.17 1.294-.56 2.316-.861 2.934-.861.582 0 .943.128 1.554.559.161.113.297.173.394.173.074 0 .167-.065.247-.173a.38.38 0 0 0 .086-.213c0-.155-.091-.354-.257-.556-.22-.271-.303-.437-.303-.604 0-.135.089-.22.23-.22.671 0 1.721 2.121 2.725 5.483.787 2.654 1.008 2.922 3.544 4.36 2.146 1.211 2.961 2.411 2.961 4.363 0 1.919-.531 4.379-1.639 7.602-.348 1.019-.501 1.709-.501 2.277 0 .452.087.89.42 2.038.155.548.254.88.298.982a5.35 5.35 0 0 0 .341.643l.256-.516.6-.642c.505-.541.778-1.309.778-2.209a4.69 4.69 0 0 0-.223-1.381c-.108-.341-.177-.633-.177-.754 0-.271.202-.526.409-.526.085 0 .201.075.322.215l.64.724c.399.449.531.532 1.027.642l.044-.597.043-.702c0-1.021-.374-2.167-.942-2.889-.339-.432-.494-.699-.494-.851s.113-.303.232-.303c.042 0 .104.032.177.086.412.307.625.433.737.433.207 0 .393-.516.393-1.079 0-.81-.339-1.742-.872-2.388-.274-.331-.446-.543-.512-.639a.41.41 0 0 1-.086-.245c0-.183.149-.314.37-.314.161 0 .261.042.527.215.127.082.242.128.328.128.333 0 .453-.469.453-1.738l-.013-.526-.044-.771c-.048-.904-.128-1.064-.511-1.064h-.341c-2.085 0-3.055-1.32-3.593-4.876-.386-2.569-1.346-4.395-2.52-4.788-.703-.233-.955-.387-.955-.573 0-.118.195-.235.406-.235.153 0 .514.095.807.215 1.703.687 3.141 1.025 4.392 1.025 2.047 0 3.663-1.507 3.663-3.418m-10.906 12.564c-.047-1.203-.114-1.99-.214-2.351-.025-.081-.281-.693-.771-1.834a11.68 11.68 0 0 1-.515-1.539c-.101-.395-.223-.516-.531-.516-1.164 0-2.04.992-2.04 2.303 0 .773.321 1.986.907 3.469.822 2.074 1.041 2.814 1.041 3.548 0 1.569-.627 2.253-2.794 3.031-2.448.878-3.595 2.139-4.017 4.401l.427-.171.595-.215.685-.169c.588-.145 1.059-.478 1.153-.811l.173-.596a.43.43 0 0 1 .257-.299l.385-.17.385-.173.084.173-.169.556c-.059.184-.088.516-.088.996 0 .935.184 1.485.728 2.165.254-.592.334-.732.81-1.456.693-1.043.941-1.596.941-2.091v-.686c0-.643.116-.94.372-.94a.26.26 0 0 1 .227.131l.216.34a.35.35 0 0 0 .3.173c.126 0 .357-.167.482-.358.308-.468.499-1.064.499-1.525l-.044-.471-.042-.482c0-.259.106-.371.351-.371.167 0 .236.066.379.385.09.207.216.342.322.342.117 0 .251-.095.359-.258l.34-.513.259-.387.064-.206c0-.117-.092-.227-.322-.392-.792-.57-1.138-1.448-1.193-3.035m-18.978-11.617c0-.531-.138-.904-.333-.904-.079 0-.211.132-.351.345-.35.54-.95.901-1.495.901-1.48 0-3.262-2.317-4.146-5.387a8.52 8.52 0 0 1-.314-2.306c0-.804.108-1.708.314-2.611l.469-2.094.056-.579c0-1.06-.976-2.423-2.491-3.481l.087.479c0 .134-.059.504-.173 1.103l-.076.867c0 .764.136 1.579.374 2.253.219.615.274.808.274.975l-.015.18c-.04.177-.106.306-.166.306-.084 0-.237-.095-.435-.268-.491-.424-1.023-.645-1.579-.645-.179 0-.427.031-.728.089l.214.471.64 1.585.899 1.365.935.644c.095.06.18.147.259.253.086.12.13.218.13.283 0 .078-.074.141-.17.147l-.857.041c-.132.006-.236.086-.236.181 0 .146.124.577.365 1.272l.429 1.241.726.681.767.558c.227.163.364.348.364.484 0 .119-.073.236-.15.244l-.426.04c-.14.013-.219.135-.219.344 0 .319.299.899.859 1.664.661.901 1.127 1.198 1.881 1.198h.642c.306 0 .493.15.493.392 0 .201-.128.318-.41.379-.592.122-.77.242-.77.516 0 .109.076.272.216.466l.344.471c.282.391.604.647.81.647.116 0 .385-.12.624-.393.381-.44.82-.798 1.384-.937 1.484-.377 1.795-.531 1.795-.877 0-.121-.057-.292-.17-.491-.473-.848-.641-1.396-.641-2.093m-5.442-6.496c.069 0 .156-.081.23-.213l.47-.858.306-.522c.17-.253.296-.5.296-.634 0-.507-.468-1.133-1.072-1.449-.315.596-.604 1.935-.604 2.784 0 .499.163.893.373.893m6.848 17.097c.372 0 1.149-.212 1.589-.432.185-.094.297-.208.297-.295 0-.057-.154-.231-.425-.473l-.469-.431c-.358-.32-.886-.621-1.137-.621-.49 0-.994.218-1.77.752l.213.213.343.34c.832.864.958.948 1.36.948m9.534 7.085c.131.056.364.086.678.086a1.46 1.46 0 0 0 .519-.086l.901-.34.854-.299c.23-.082.386-.213.386-.331 0-.061-.193-.155-.472-.226a5.14 5.14 0 0 1-.642-.212c-1.052-.426-1.205-.484-1.578-.484-.837 0-1.681.406-2.181 1.039.457.191.618.268.855.428l.68.425m12.769 3.283c-.054 0-.155.049-.29.141l-.639.381-1.24.554c-.828.368-1.555 1.474-1.555 2.344 0 .292.057.539.231 1.036.283-.687.482-.805 1.451-.858 1.098-.06 2.141-2.025 2.141-3.355 0-.132-.044-.242-.101-.242M22.323 101.4c.278 0 .472-.526.614-1.38l.127-.64.011-.122c0-.264-.079-.354-.294-.354l-.101.007-.512.083-.472-.083-.071-.005c-.272 0-.407.155-.407.462 0 .432.336 1.229.777 1.852a.41.41 0 0 0 .327.181"/><path d="M97.765 97.88c0-.452.235-.766.573-.766.139 0 .309-.034.496.082l.64.474a1.13 1.13 0 0 0 .573.144c.26 0 .646-.103 1.009-.273l.557-.254c.128-.059.241-.091.331-.091.343 0 .612.36.612.815 0 .631-.456 1.279-1.117 2.22l-.467.987c-.374.534-.621.727-.926.727-.508 0-.753-.289-1.513-1.799-.547-1.079-.769-1.741-.769-2.266zm-.664-4.946c0-.104.063-.166.183-.166l.096.031.6.385a5.63 5.63 0 0 0 .853.468c.66.272.899.368.899.622 0 .094-.027.319-.085.487a2.63 2.63 0 0 0-.128.6c-.061.581-.413.728-.645.728-.288 0-.59-.447-1.066-1.283-.212-.38-.517-1.141-.682-1.707zm3.741 1.487a.44.44 0 0 1 .378-.474l.908-.252.936-.472c.273-.133.357-.169.405-.169.109 0 .201.113.201.247 0 .061-.033.154-.092.268l-.429.72-.981.989c-.348.462-.348.862-.427.94-.066.06-.168.108-.302.128l-.063.005a.44.44 0 0 1-.449-.431l-.04-.727-.046-.729zm-8.933 24.532l-2.734.809c-1.704.506-2.542 1.629-2.777 3.717.438-.347.571-.402 1.241-.509l.808-.128c.344-.057.59-.132.728-.215.077-.047.234-.207.472-.472l.726-.809c.274-.31.522-.484.673-.484.101 0 .183.114.183.246 0 .156-.106.406-.302.707-.201.315-.313.697-.313 1.101 0 .544.145.891.698 1.677.07-.259.127-.43.173-.515.071-.135.284-.435.64-.896.592-.766 1.017-1.565 1.023-1.926.012-.661.07-.877.239-.877.143 0 .169.033.234.408a.54.54 0 0 0 .128.259c.099.108.195.171.26.171.054 0 .171-.06.34-.171.293-.198.522-.399.68-.597a2.76 2.76 0 0 0 .427-.77c.143-.375.218-.648.218-.808l-.005-.552c0-.147.061-.266.142-.266.101 0 .319.224.459.472.094.166.153.215.274.215h.025c.155-.017.288-.08.383-.173.521-.509.859-1.135.859-1.603l-.045-.788-.171-.646-.008-.055c0-.134.097-.246.207-.246.192 0 .405.274.697.901.137.297.263.432.39.432.204 0 .363-.153.765-.733l.384-.553a.75.75 0 0 0 .128-.431.76.76 0 0 0-.128-.422l-.344-.514c-.055-.089-.085-.236-.085-.429 0-.581.211-1.238.643-2.006l.555-1.07c.067-.177.142-.259.237-.259.075 0 .146.103.146.215l-.04.472v.343.339c.057.157.161.219.368.219.131 0 .28-.033.444-.087l1.067-.385a7.35 7.35 0 0 0 .983-.472c1.675-.927 2.192-1.12 3.017-1.12.492 0 1.125.191 2.027.607.185.086.334.133.44.133.125 0 .259-.08.373-.215a.51.51 0 0 0 .126-.326c0-.156-.058-.34-.171-.53-.137-.236-.261-.534-.261-.638 0-.116.074-.188.196-.188.098 0 .244.103.322.227l.982 1.707c.795 1.417 1.833 2.404 2.736 2.608l1.879.43c.582.131.73.357.73 1.082 0 1.327-.629 2.495-1.711 3.189l-1.54.987c-.559.354-1.027 1.339-1.027 2.155 0 .529.128 1.461.299 2.201l.299-.297.728-.428.642-.642.342-.941.34-.856c.168-.413.365-.683.497-.683.149 0 .233.233.233.654l-.005.117-.001.16c0 .615.083.884.558 1.806l.171-.47.173-.602c.033-.108.192-.352.469-.721.434-.571.654-1.288.654-2.125 0-.264-.067-.509-.227-.827-.084-.168-.13-.302-.13-.396 0-.059.032-.127.089-.199s.115-.12.172-.128l.027-.005c.109 0 .294.127.44.301.182.22.341.344.436.344.193 0 .395-.325.506-.811l.086-.428c0-.207-.173-.744-.385-1.197-.083-.172-.123-.318-.123-.433 0-.153.1-.276.235-.276.125 0 .328.133.568.365.118.113.234.173.325.173.267 0 .46-.273.662-.941l.171-.668c0-.125-.054-.198-.152-.198l-.149.012-.507.053c-.78 0-1.882-.537-2.399-1.161l-1.197-1.453-1.067-1.413-.985-.641c-.159-.106-.255-.234-.255-.348 0-.161.161-.268.407-.268.227 0 .926.249 2.202.788 1.23.521 3.168.946 4.331.946 2.044 0 3.727-1.654 3.727-3.659 0-1.097-.49-2.111-1.692-3.526-.225-.266-.611-.524-.79-.524-.14 0-.237.104-.237.253 0 .117.046.282.131.482a1.06 1.06 0 0 1 .083.392c0 .195-.072.309-.204.309-.269 0-.549-.44-.778-1.21-.282-.954-.841-1.521-2.14-2.18-.494-.255-1.142-.482-1.351-.482-.084 0-.14.075-.14.188 0 .161.06.335.169.507.189.288.308.566.345.815l.001.039c0 .167-.085.259-.238.259-.275 0-.336-.071-.961-1.027-.322-.491-1.182-1.141-1.925-1.453a2.17 2.17 0 0 0-.727-.173l-.025-.001c-.155 0-.274.074-.274.168 0 .034.067.172.191.392l.065.241c0 .132-.087.232-.202.232-.256 0-1.051-.651-1.677-1.37-.679-.784-1.113-1.777-1.113-2.558 0-1.634 1.561-3.087 3.309-3.087.441 0 .813.078 1.094.219l1.494.768 1.755 1.158c1.008.66 2.39 1.156 3.225 1.156.312 0 .546-.043 1.346-.266.42-.113.679-.28.679-.432l-.017-.035-.148-.086-.941-.081c-.523-.053-1.709-.587-2.648-1.203l-1.967-1.279-1.751-.729c-.133-.052-.219-.139-.219-.224s.092-.163.201-.163c.002 0 .166.034.486.087l1.624.473c.41.116 1.066.417 1.967.896 1.782.948 2.943 1.367 3.797 1.367.988 0 1.714-.679 1.714-1.599 0-.309-.069-.814-.168-1.221a1.7 1.7 0 0 0-.259-.556c-.074-.108-.154-.168-.209-.168-.123 0-.193.129-.193.347l.02.293.017.248c0 .789-.308 1.067-1.179 1.067-.711 0-1.663-.285-3.839-1.147-2.035-.8-3.309-1.109-4.574-1.109-3.219 0-6.038 2.625-6.038 5.619 0 2.584 1.718 4.563 5.228 6.006l3.63 1.495c3.005 1.234 4.109 2.121 4.109 3.289 0 .974-.907 1.6-2.319 1.6-.61 0-1.37-.168-2.771-.616-3.401-1.083-5.611-1.532-7.557-1.532-3.171 0-5.428.867-7.23 2.772-.239.252-.379.328-.589.328-.145 0-.291-.057-.61-.243s-.682-.307-.939-.307c-.313 0-.798.268-1.027.565l-.427.555c-.125.162-.264.26-.378.26-.309 0-.857-.528-1.203-1.158-.211-.384-.354-.759-.426-1.112-.056-.269-.089-.707-.089-1.172l.043-.794.13-.851.129-.728c.032-.103.115-.169.205-.169.222 0 .319.202.319.669l-.012.269-.008.193c0 1.216.482 2.331 1.012 2.331.417 0 .784-.747 1.09-2.227.062-.297.181-.469.327-.469.171 0 .274.219.402.856.079.414.349.988.64 1.367.166.215.343.344.487.344.349 0 .575-.525.749-1.754.071-.478.211-.775.376-.775a.23.23 0 0 1 .18.092c.031.034.13.192.302.47.104.175.267.319.469.425.213.111.385.172.496.172.136 0 .279-.063.4-.172.192-.17.299-.299.299-.35 0-.062-.087-.197-.255-.377-.281-.301-.497-.704-.768-1.413l-.383-.981c-.067-.156-.141-.259-.216-.298l-.136-.035-.251.035-.895.253-.28.044c-.121 0-.199-.08-.199-.203 0-.115.153-.322.351-.478 1.081-.86 1.725-2.303 1.965-4.402.146-1.276.311-1.76.854-2.522.115-.159.213-.255.268-.255.167 0 .257.129.257.377 0 .165-.047.371-.139.607a1.49 1.49 0 0 0-.093.518l.007.163.086.259.471-.173.51-.595c.306-.354.561-1.159.561-1.752 0-.409-.099-.695-.343-.984-.27-.32-.458-.449-.65-.449l-.293.021-.303.022c-.276 0-.414-.083-.414-.253l.074-.325.045-.47-.255-1.067-.214-.516-.131-.427-.299.214-.641.383c-.166.101-.339.26-.515.471-.606.737-.645.772-.889.772-.155 0-.243-.056-.243-.163l.023-.181c.087-.392.128-.688.128-.887 0-.745-.541-1.868-1.195-2.488-.893.853-1.372 1.793-1.372 2.694v.513c0 .195-.064.297-.194.297h-.015c-.106-.016-.213-.097-.302-.215l-.511-.682c-.039-.052-.267-.237-.687-.557l-.34-.296-.173.339c-.422.848-.57 1.356-.596 2.052-.02.57-.067.736-.201.736-.065 0-.157-.031-.27-.096-.648-.362-.708-.387-.988-.387-.768 0-1.294.551-1.294 1.359 0 .315.178.794.531 1.422.39.698.98 1.336 1.235 1.336.075 0 .089-.051.089-.263l-.001-.089-.041-.727-.087-.558-.005-.073c0-.164.064-.239.193-.239.386 0 .725 1.132 1.011 3.39.249 1.985.797 3.355 1.664 4.147.221.202.348.367.348.462 0 .071-.075.137-.17.137-.126 0-.32-.077-.561-.215-.156-.09-.313-.137-.464-.137-.427 0-.904.499-.99 1.035l-.385 2.433-.299 3.422c-.056.647.031 1.515.256 2.563.199.922.301 1.601.301 2.023 0 2.561-1.595 4.589-4.234 5.37m17.236-6.79c-.153 0-.313.048-.518.163-.156.083-.272.127-.325.127-.077 0-.177-.064-.274-.174l-.299-.339-.21-.343c-.085-.134-.22-.215-.358-.215-.019 0-.134.027-.329.089l-.385.039c-.443.019-.608.178-.608.6l.012.254.007.193c0 .373-.331.949-.776 1.349l-.811.727c-1.001.889-1.779 2.323-1.779 3.269 0 .406.133 1.067.368 1.856.384 1.281.519 1.888.519 2.302 0 2.052-3.132 4.754-8.939 7.699-2.944 1.494-3.682 2.38-3.682 4.415l.05.757c.52-.481.607-.519 2.054-.815 1.168-.236 1.716-.768 1.963-1.918.185-.852.301-1.01 1.068-1.453.247-.147.434-.289.555-.43.096-.108.173-.168.213-.168.085 0 .153.083.153.189 0 .144-.097.389-.276.709-.119.199-.176.458-.176.812a2.74 2.74 0 0 0 .517 1.706c.257-.571.402-.725 1.067-1.198.848-.594 1.17-1.287 1.325-2.821.063-.647.191-.987.365-.987.081 0 .153.053.189.131l.3.643c.041.086.147.141.271.141s.348-.129.541-.314l.601-.551c.254-.238.422-.825.509-1.794.038-.359.158-.6.301-.6.091 0 .176.087.214.212l.258.856c.06.206.182.342.305.342.055 0 .175-.075.336-.216a3.56 3.56 0 0 0 .598-.639c.195-.266.301-.567.301-.854v-.727a.76.76 0 0 1 .169-.469c.082-.107.154-.177.187-.177.094 0 .192.087.241.22l.17.466c.075.208.234.346.402.346.225 0 .453-.194.793-.685a4.9 4.9 0 0 1 .259-.344c.194-.233.299-.425.299-.539 0-.058-.062-.168-.172-.315-.621-.807-.941-1.785-.941-2.899 0-1.422.539-2.616 2.178-4.836.983-1.325 1.54-2.565 1.54-3.423 0-.248-.112-.368-.336-.368M87.724 99.251c.762.689.834.776.834 1.023 0 .194-.133.345-.294.345l-.283-.044-.168-.017c-.232 0-.446.427-.446.904 0 .273.109.707.273 1.078.105.251.208.426.296.516l.429.426a.61.61 0 0 1 .173.437c0 .208-.12.382-.259.382-.086 0-.218-.051-.384-.138a.69.69 0 0 0-.3-.085c-.19 0-.282.117-.282.352l.069.635.259 1.107c.056.25.215.528.468.817.219.247.44.419.641.511l.857.385c.08.06.126.186.126.341 0 .16-.126.298-.284.298-.047 0-.195-.031-.442-.086l-.434-.042c-.435 0-.464.023-.464.359a2.71 2.71 0 0 0 .086.664l.171.683c.182.723.416 1.115.672 1.115.055 0 .164-.064.309-.173.618-.474 1.861-.897 2.641-.897.802 0 1.717.098 2.062.213.195.068.334.104.409.104.105 0 .139-.105.146-.485l.088-.77.171-1.325.127-.983v-.557l-.345.299c-.725.682-1.183.896-1.935.896-1.966 0-3.094-2.208-3.094-6.063 0-1.59.234-3.839.672-6.417.093-.542.134-.919.134-1.185 0-1.405-.89-2.779-2.441-3.771v.428l.005.633c0 .227-.021.387-.092.693-.137.594-.17.798-.17.966 0 .818.113 1.221.596 2.064.267.467.441 1.03.441 1.436 0 .172-.07.273-.187.273-.071 0-.153-.043-.208-.123L88.026 96c-.273-.375-.531-.474-1.226-.474l-.741.047c.296.729.392 1.007.512 1.495.346 1.396.395 1.497 1.155 2.181"/><path d="M91.653 98.953c.32-.28.576-.875.576-1.314a1.35 1.35 0 0 0-.146-.608c-.148-.32-.434-.607-.607-.607-.146 0-.276.352-.333.904l-.087.642-.127.641-.044.641v.427l.384-.382.384-.344m-3.547 18.974c.593.689.921.853 1.708.853a2.18 2.18 0 0 0 .605-.082l.551-.172.428-.131c.204-.056.342-.147.342-.216 0-.09-.336-.374-.854-.721a8.2 8.2 0 0 0-1.025-.599c-.369-.181-.675-.266-.98-.266-.601 0-1.181.186-1.756.566.439.161.53.234.982.768m6.71 10.814l1.24-.685c.79-.419 1.155-.716 1.155-.935 0-.281-.481-.447-1.308-.447-1.654 0-3.01 1.133-3.01 2.512l.042.493 1.881-.939m17.862-10.515l.598-.426c.856-.583.902-.622.902-.807 0-.238-.347-.353-1.067-.353-1.346 0-2.167.631-2.824 2.182.607-.124.81-.281 1.111-.293l.77.039c.094-.032.267-.152.511-.342"/><path d="M99.434 100.366c.018.367.325.732.621.732.394 0 .675-.596.829-1.5l.097-.594c0-.314-.106-.4-.509-.4l-.226.008h-.3l-.192-.008c-.268 0-.37.21-.37.753l.007.195.043.814M55.881 66.629a1.12 1.12 0 0 0 1.121-1.121 1.12 1.12 0 0 0-1.121-1.116 1.12 1.12 0 0 0-1.117 1.116 1.12 1.12 0 0 0 1.117 1.121"/><path d="M77.215 66.629a1.12 1.12 0 0 0 1.119-1.121 1.12 1.12 0 0 0-1.119-1.116 1.12 1.12 0 0 0-1.119 1.116 1.12 1.12 0 0 0 1.119 1.121M55.929 76.754c.592 0 1.073-.5 1.073-1.115a1.12 1.12 0 0 0-1.121-1.117 1.12 1.12 0 0 0-1.117 1.117c0 .615.522 1.115 1.165 1.115m21.286 0a1.12 1.12 0 0 0 1.119-1.115 1.12 1.12 0 0 0-1.119-1.117 1.12 1.12 0 0 0-1.119 1.117 1.12 1.12 0 0 0 1.119 1.115m-15.99-6.331c1.806-1.403 3.332-1.984 5.216-1.984 1.901 0 3.32.556 5.173 2.026-1.613 1.6-3.031 2.201-5.204 2.201-1.931 0-3.689-.763-5.185-2.242zm11.723 0c-2.043-2.096-3.944-2.974-6.445-2.974-2.627 0-4.996 1.074-6.569 2.974 1.752 2.193 3.963 3.277 6.695 3.277 2.53 0 4.272-.906 6.319-3.277"/><path d="M66.415 69.258c-1.075 0-2.087.247-2.99.736 1.081.674 1.937.945 2.945.945 1.184 0 2.175-.297 3.132-.945-1.01-.484-2.059-.736-3.088-.736m-7.125-7.454v-2.069c0-1.014-.415-1.642-1.079-1.642-.133 0-.342.053-.519.134-.144.067-.244.125-.301.169-.101.09-.19.205-.257.349-.113.231-.173.396-.173.476v.472.265.896.115.836.084.03.444c0 .637.497 1.121 1.149 1.121.753 0 1.18-.403 1.18-1.121v-.558m8.401-.001v-2.069c0-1.005-.415-1.646-1.07-1.646-.767 0-1.259.627-1.259 1.604v.265.896.115.836.087.028.444c0 .635.501 1.121 1.149 1.121.753 0 1.18-.403 1.18-1.121v-.558m8.147-.002v-2.069c0-1.014-.415-1.642-1.077-1.642-.131 0-.343.053-.518.134a1.56 1.56 0 0 0-.302.169 1.1 1.1 0 0 0-.259.349c-.112.231-.173.396-.173.476v.472.265.896.115.836.084.03.444c0 .637.499 1.121 1.15 1.121.753 0 1.179-.403 1.179-1.121v-.558M56.355 85.503h2.543v-3.272h-2.543v3.272m0 1.772h2.543v-1.034h-2.543v1.034m17.325-1.772h2.543v-3.272H73.68v3.272m0 1.772h2.543v-1.034H73.68v1.034"/></svg>