<svg xmlns="http://www.w3.org/2000/svg" width="755" height="157" viewBox="0 0 755.90668 157.08">
    <style>
        <![CDATA[.B{fill:#fddd04}.C{fill:#241d10}.D{fill:#231f20}.E{stroke-miterlimit:10}.F{stroke-width:.321}]]></style>
    <g fill="none" class="E F">
        <path d="M127.674 86.606c-.282 6.993-1.307 13.34-3.055 18.9-1.693 5.384-4.112 10.179-7.193 14.25-5.745 7.59-12.725 11.383-17.342 13.894-.404.219-3.142 1.612-16.318 8.179V86.606h43.907m-77.574 0v55.224l-16.317-8.179c-4.618-2.511-11.597-6.305-17.342-13.894-3.081-4.071-5.502-8.866-7.193-14.25-1.748-5.561-2.773-11.907-3.055-18.9h43.906"
              stroke="#fddd04"/>
        <path d="M127.758 7.914H83.767v45.025h43.991V7.914zm-77.659 0H6.108v45.025h43.99V7.914z" stroke="#1d1717"/>
    </g>
    <g fill="#fff">
        <path d="M66.934 157.08l-1.332-.712-34.737-17.351C20.846 133.571 0 122.242 0 82.544V1.807h133.866v80.737c0 39.697-20.847 51.027-30.865 56.473-1.844 1.003-32.948 16.461-34.737 17.351l-1.331.712"/>
        <path d="M80.552 56.153V4.699H53.314v51.454H2.893v26.391h0l.006.846h50.414v63.632l13.613 6.773c.012 0 6.357-3.155 13.625-6.772V83.391h50.414l.007-.846V56.153H80.552"/>
    </g>
    <path d="M53.314 56.153V4.699H2.893v51.454h50.421m27.238 0h50.421V4.699H80.552v51.454M53.314 83.391H2.899c.288 36.884 19.202 47.569 29.348 53.083 1.028.56 11.799 5.933 21.067 10.549V83.391m27.238 0v63.633l21.068-10.551c10.145-5.513 29.06-16.198 29.346-53.083H80.552"
          fill="#ef2e31"/>
    <g class="C">
        <path d="M97.871 70.171l1.042-1.239-1.315-1.561-1.317 1.561 1.043 1.239c.014.623.053 6.08-3.163 8.031 0 0 1.071.206 2.512-.072a16 16 0 0 0 .924 3.045c.675-1.623.925-3.045.925-3.045 1.44.278 2.511.072 2.511.072-3.218-1.951-3.178-7.407-3.163-8.031m8.212-9.268l1.042-1.237-1.315-1.562-1.317 1.562 1.043 1.237c.016.625.055 6.08-3.163 8.03 0 0 1.071.207 2.512-.07 0 0 .248 1.421.924 3.045.674-1.624.924-3.045.924-3.045 1.441.277 2.512.07 2.512.07-3.218-1.949-3.177-7.405-3.163-8.03m8.213 9.268l1.041-1.239-1.315-1.561-1.315 1.561 1.042 1.239c.016.623.055 6.08-3.163 8.031 0 0 1.073.206 2.512-.072a16 16 0 0 0 .924 3.045c.674-1.623.924-3.045.924-3.045 1.441.278 2.512.072 2.512.072-3.218-1.951-3.179-7.407-3.161-8.031m8.21-9.268l1.041-1.237-1.315-1.562-1.315 1.562 1.042 1.237c.016.625.055 6.08-3.163 8.03 0 0 1.073.207 2.51-.07 0 0 .25 1.421.926 3.045.676-1.624.926-3.045.926-3.045 1.439.277 2.51.07 2.51.07-3.216-1.949-3.177-7.405-3.161-8.03m-32.846 0l1.042-1.237-1.317-1.562-1.315 1.562 1.042 1.237c.016.625.055 6.08-3.163 8.03 0 0 1.073.207 2.512-.07 0 0 .249 1.421.925 3.045.676-1.624.926-3.045.926-3.045 1.439.277 2.511.07 2.511.07-3.217-1.949-3.178-7.405-3.163-8.03m-69.539 9.268l1.04-1.239-1.315-1.561-1.315 1.561 1.042 1.239c.016.623.055 6.08-3.163 8.031 0 0 1.073.206 2.512-.072a16.14 16.14 0 0 0 .925 3.045c.674-1.623.925-3.045.925-3.045 1.439.278 2.512.072 2.512.072-3.218-1.951-3.179-7.407-3.163-8.031"/>
        <path d="M28.332 60.903l1.04-1.237-1.315-1.562-1.314 1.562 1.042 1.237c.016.625.055 6.08-3.164 8.03 0 0 1.072.207 2.513-.07a16.06 16.06 0 0 0 .923 3.045c.675-1.624.925-3.045.925-3.045 1.439.277 2.512.07 2.512.07-3.218-1.949-3.179-7.405-3.163-8.03m8.212 9.268l1.04-1.239-1.314-1.561-1.317 1.561 1.043 1.239c.014.623.053 6.08-3.163 8.031 0 0 1.071.206 2.51-.072a16.1 16.1 0 0 0 .926 3.045c.674-1.623.924-3.045.924-3.045 1.439.278 2.512.072 2.512.072-3.219-1.951-3.177-7.407-3.163-8.031m8.213-9.268l1.042-1.237-1.315-1.562-1.315 1.562 1.042 1.237c.014.625.055 6.08-3.163 8.03 0 0 1.071.207 2.51-.07a16.27 16.27 0 0 0 .926 3.045c.674-1.624.924-3.045.924-3.045 1.439.277 2.512.07 2.512.07-3.218-1.949-3.177-7.405-3.163-8.03m-32.845 0l1.043-1.237-1.317-1.562-1.315 1.562 1.042 1.237c.016.625.055 6.08-3.163 8.03 0 0 1.072.207 2.512-.07 0 0 .25 1.421.924 3.045.676-1.624.924-3.045.924-3.045 1.44.277 2.511.07 2.511.07-3.216-1.949-3.177-7.405-3.162-8.03m55.364 30.165l1.04-1.237-1.315-1.562-1.315 1.562 1.043 1.237c.014.625.053 6.08-3.164 8.03 0 0 1.073.207 2.511-.071a16.18 16.18 0 0 0 .924 3.046c.675-1.624.925-3.046.925-3.046 1.44.278 2.513.071 2.513.071-3.219-1.951-3.18-7.406-3.163-8.03m.001 27.881l1.04-1.239-1.315-1.562-1.315 1.562 1.043 1.239c.014.623.053 6.08-3.164 8.03 0 0 1.073.206 2.511-.072 0 0 .25 1.422.924 3.045.675-1.623.925-3.045.925-3.045 1.44.278 2.513.072 2.513.072-3.219-1.951-3.18-7.407-3.163-8.03m7.613-13.941l1.043-1.237-1.317-1.561-1.315 1.561 1.042 1.237c.016.625.056 6.081-3.163 8.031 0 0 1.073.206 2.513-.072 0 0 .249 1.422.923 3.046.676-1.624.926-3.046.926-3.046 1.439.278 2.511.072 2.511.072-3.216-1.951-3.177-7.407-3.163-8.031m-15.313 0l1.043-1.237-1.316-1.561-1.316 1.561 1.042 1.237c.016.625.056 6.081-3.163 8.031 0 0 1.073.206 2.512-.072 0 0 .25 1.422.924 3.046.676-1.624.925-3.046.925-3.046 1.44.278 2.511.072 2.511.072-3.216-1.951-3.177-7.407-3.163-8.031m15.314 27.879l1.043-1.237-1.317-1.562-1.315 1.562 1.042 1.237c.016.624.056 6.081-3.163 8.031 0 0 1.073.205 2.513-.072a16.15 16.15 0 0 0 .923 3.045c.676-1.624.926-3.045.926-3.045 1.439.277 2.511.072 2.511.072-3.216-1.951-3.177-7.407-3.163-8.031m-15.313 0l1.043-1.237-1.316-1.562-1.316 1.562 1.042 1.237c.016.624.056 6.081-3.163 8.031 0 0 1.073.205 2.512-.072 0 0 .25 1.421.924 3.045.676-1.624.925-3.045.925-3.045 1.44.277 2.511.072 2.511.072-3.216-1.951-3.177-7.407-3.163-8.031m7.702-105.311l1.04-1.238-1.315-1.562-1.315 1.562 1.043 1.238c.014.623.053 6.08-3.164 8.031 0 0 1.073.205 2.511-.071 0 0 .25 1.422.924 3.045.675-1.623.925-3.045.925-3.045 1.44.277 2.513.071 2.513.071-3.219-1.951-3.18-7.407-3.163-8.031m7.613-13.941l1.043-1.237-1.317-1.563-1.315 1.563 1.042 1.237c.016.624.056 6.08-3.163 8.031 0 0 1.073.207 2.513-.072 0 0 .249 1.423.923 3.046.676-1.623.926-3.046.926-3.046 1.439.279 2.511.072 2.511.072-3.216-1.951-3.177-7.407-3.163-8.031"/>
        <path d="M59.571 13.635l1.043-1.237-1.316-1.563-1.316 1.563 1.042 1.237c.016.624.056 6.08-3.163 8.031 0 0 1.073.207 2.512-.072 0 0 .25 1.423.924 3.046.676-1.623.925-3.046.925-3.046 1.44.279 2.511.072 2.511.072-3.216-1.951-3.177-7.407-3.163-8.031m15.314 27.881l1.043-1.238-1.317-1.562-1.315 1.562 1.042 1.238c.016.624.056 6.08-3.163 8.031 0 0 1.073.205 2.513-.072 0 0 .249 1.423.923 3.045.676-1.622.926-3.045.926-3.045 1.439.277 2.511.072 2.511.072-3.216-1.951-3.177-7.407-3.163-8.031m-15.313 0l1.043-1.238-1.316-1.562-1.316 1.562 1.042 1.238c.016.624.056 6.08-3.163 8.031 0 0 1.073.205 2.512-.072 0 0 .25 1.423.924 3.045.676-1.622.925-3.045.925-3.045 1.44.277 2.511.072 2.511.072-3.216-1.951-3.177-7.407-3.163-8.031M42.424 30.105l.171.641.343 1.368c.537 2.442.991 3.081 2.175 3.081.678 0 1.24-.376 1.412-.943l.259-.857c.056-.196.207-.312.408-.312.463 0 .679.48.699 1.554.009.307.108 1.005.303 2.092.113.643.168 1.268.168 1.865 0 .551-.042.776-.254 1.34.146.839.257 1.969.257 2.617 0 1.058-.198 2.039-.514 2.553.178.708.217.992.217 1.609 0 .457-.046.953-.133 1.426l-.227 1.477a1.82 1.82 0 0 0 .099.574c.083.246.128.417.128.512 0 .121-.056.215-.128.215l-.854-.342-.941-.512c-.303-.167-.515-.331-.982-.767-.831.747-1.079.858-3.248 1.453-.433.115-.755.247-.941.385-.267.193-.467.295-.568.295-.367 0-.544-.59-.544-1.811 0-.904.092-1.746.258-2.379-.639-.245-1.181-.383-1.528-.383-.066 0-.283.03-.652.083l-.16.015c-.124 0-.23-.188-.23-.41 0-.167.116-.578.262-.927l.425-1.024c.156-.371.509-.798 1.027-1.237.422-.362.807-.582 1.111-.646l1.539-.296c.914-.178 1.459-.664 1.459-1.298 0-.615-.412-1.03-1.331-1.353l-1.837-.641c-.473-.164-1.033-.44-1.669-.811-1.019-.604-1.19-.685-1.434-.685-.367 0-.578.277-.578.76 0 .76.494 1.292 1.199 1.292a1.19 1.19 0 0 0 .428-.086c.208-.083.358-.13.441-.13.193 0 .299.113.299.326l-.011.187-.086.727c-.074.622-.475 1.373-1.368 2.566l-.381.513c-.349 1.375-1.205 2.629-2.307 3.377l-.473.34c-.037.039-.151.244-.342.598-.086.165-.374.506-.854 1.027-.36.393-.719.719-1.069.982-.477.362-.766.625-.853.771l-.427.728c-.079.132-.207.213-.345.213-.377 0-.725-.393-.939-1.066-.155-.5-.296-.645-.619-.645-.167 0-.417.044-.746.13l-.598.082h-1.541c-.768 0-1.854.2-2.349.432-.198.091-.346.134-.441.134-.108 0-.171-.056-.286-.263a.61.61 0 0 1-.094-.342c0-.783.558-2.252 1.289-3.421.468-.738.613-.909 1.153-1.367-.173-.724-.635-1.286-1.193-1.451l-.728-.214c-.101-.03-.173-.116-.173-.207 0-.222.348-.526.987-.862.834-.44 1.674-.685 2.347-.685.71 0 1.396.281 2.183.9 1.16.905 1.469 1.071 2.035 1.071.914 0 1.783-.837 1.783-1.715 0-.585-.31-1.211-1.128-2.266-1.19-1.541-1.548-2.341-1.548-3.471 0-.702.217-1.599.479-1.999l.429-.636c.091-.145.143-.285.143-.413 0-.286-.329-.492-.773-.492-.674 0-1.971.482-3.004 1.115-.511.314-.86.681-.86.911 0 .134.067.257.177.33l.472.299c.056.035.092.103.092.178 0 .06-.072.195-.178.333l-.855 1.111c-.44.577-1.121 1.287-1.794 1.88-.227.199-.368.341-.428.43-.005.005-.119.219-.34.642-.306.569-1.115 1.396-1.883 1.922-.314.216-.514.374-.597.47-.063.071-.177.273-.341.597-.107.208-.295.509-.559.896-.417.62-.763 1.063-1.023 1.325l-1.198 1.198c-.369.366-.691 1.083-1.196 2.646-.3.947-.574 1.503-.733 1.503-.072 0-.189-.095-.334-.261-.847-.966-1.575-1.541-1.959-1.541-.088 0-.249.075-.476.216-.313.195-.703.345-1.155.43l-1.579.295c-1.195.227-1.668.486-2.352 1.284-.164.189-.299.297-.373.297-.131 0-.227-.212-.227-.496l.043-.399.217-1.152c.227-1.234.509-2.153.854-2.78l.722-1.325c.144-.258.216-.493.216-.693 0-.986-1.017-1.887-2.262-2.001-.317-.026-.437-.102-.437-.279 0-.216.347-.645.822-1.002.855-.649 1.973-1.113 2.691-1.113.432 0 1.101.182 1.921.513l.941.385c.349.146.672.22.953.22.995 0 1.959-.907 3.148-2.951.537-.926.769-1.594.769-2.195 0-1.079-.511-1.738-1.356-1.738-.64 0-1.341.306-1.847.807-.43.435-.657.889-.657 1.324l.015.475.005.105c0 .4-.133.622-.372.622-.405 0-.99-.575-2.667-2.608-1.251-1.516-1.53-2.164-1.582-3.679-1.451-1.847-1.81-2.631-1.81-3.945l.059-.881c-1.004-1.207-1.286-1.866-1.286-2.973 0-.404.065-.643.303-1.128-.51-.749-.675-1.085-.813-1.667l-.214-.9c-.146-.611-.377-1.14-.684-1.581-.39-.552-.428-.628-.428-.817 0-.495.341-.692 1.84-1.063a7 7 0 0 1-.088-.948c0-.247.029-.489.129-1.019l.297-1.583c.121-.639.183-1.095.183-1.368 0-.296-.047-.505-.313-1.364-.148-.487-.278-.819-.382-.984-.141-.219-.26-.488-.26-.587 0-.148.106-.235.294-.235.426 0 1.543.68 2.699 1.635 2.452 2.029 2.958 2.841 3.293 5.297l.128.859c1.177.864 1.795 1.908 1.795 3.029 0 .881-.323 1.909-.855 2.737l-.856 1.327c-.251.387-.384.876-.384 1.412 0 .805.232 1.543.811 2.559.655 1.154 1.214 1.627 1.905 1.627 1.125 0 2.113-1.961 2.113-4.19v-.298l-.007-.769a10.91 10.91 0 0 1 .093-1.407l.126-1.24.045-1.028.014-.675c0-.239-.126-.48-.444-.819l-.936-1.027c-1.361-1.483-2.107-2.876-2.107-3.919 0-1.299.934-2.275 2.182-2.275.248 0 .474.043.906.167v-.291c0-1.884.386-3.277.904-3.277l.205.065.771.683.938.6.258.255c0-.529.027-.585.558-1.197.128-.147.324-.417.597-.811l.424-.64.217-.385c.113-.219.227-.32.354-.32.119 0 .217.156.371.621.101.291.168.369.901 1.023.254.231.429.419.509.559.072.115.187.401.344.851l.128.344c.317-.401.472-.545.854-.772l.642-.383c.239-.144.405-.22.474-.22.053 0 .136.103.21.26.067.153.183.364.341.641.454.795.607 1.176.607 1.548l-.011.421v.512c1.404.441 1.929 1.167 1.929 2.676 0 1.088-.57 2.336-1.671 3.648-.734.875-.818 1.048-.818 1.657 0 3.163 2.201 4.994 6.075 5.051l2.862.043c1.842.029 2.941.211 4.657.768 2.033.662 2.623.815 3.212.815.197 0 .392-.063.553-.175s.254-.253.254-.379c0-.599-1.051-1.079-4.485-2.055-7.049-1.996-10.042-4.835-10.042-9.503 0-3.608 3-6.401 6.879-6.401 1.25 0 3.171.329 4.272.731l1.749.641a2.67 2.67 0 0 0 .922.18c.595 0 .898-.495.918-1.505.013-.537.135-.724.487-.724.493 0 1.254.615 1.949 1.581.704.975 1.157 2.073 1.157 2.805 0 .973-.458 1.648-1.499 2.239-.959 1.46-2.139 2.135-3.724 2.135-1.235 0-2.99-.699-5.891-2.348-1.012-.575-1.527-.768-2.06-.768-.754 0-1.247.437-1.247 1.108 0 .616.477 1.016 1.728 1.452 1.845.647 2.301.899 3.033 1.669 2.177.377 3.125.755 4.489 1.793 3.75 1.191 6.076 3.747 6.076 6.68 0 2.853-1.931 4.904-4.613 4.904-.637 0-1.031-.048-2.02-.259"/>
    </g>
    <g class="B">
        <path d="M46.654 48.822c-.116-.515-.157-.779-.157-1.031l.03-.336.128-.685.046-.552c0-.594-.101-1.016-.301-1.283l-.514-.684c-.167-.228-.317-.503-.425-.816-.059-.153-.088-.278-.088-.359 0-.194.116-.314.309-.314.115 0 .16.021.547.249.166.097.31.146.418.146.254 0 .395-.413.395-1.139 0-.824-.076-1.283-.256-1.488l-.643-.725-.555-.47c-.134-.116-.228-.26-.228-.372 0-.183.142-.313.349-.313.193 0 .604.093.946.216l.195.041c.177 0 .244-.102.244-.354l-.01-.157-.129-.899-.254-.939c-.084-.306-.132-.353-.325-.353l-.107.013-1.065.211-.171.017c-1.4 0-2.881-1.182-3.334-2.666l-.854-2.777c-.264-.858-.904-1.672-2.053-2.611-.345-.282-.643-.443-.853-.465l-.772-.089c-.141-.016-.232-.096-.232-.213 0-.175.165-.255.532-.255l1.41.126c.514.048 1.291.249 2.307.599 1.279.44 2.142.629 2.868.629 2.136 0 3.417-1.156 3.417-3.088 0-1.323-.693-2.82-1.75-3.782-.604-.537-1.203-.943-1.412-.943-.121 0-.216.099-.216.227l.043.545.004.051c0 .215-.126.381-.293.381-.217 0-.459-.281-.737-.856-.808-1.683-2.091-2.683-3.419-2.683-.225 0-.381.093-.381.227 0 .087.069.297.21.619l.341.768c.09.204.139.336.139.393 0 .048-.082.095-.182.095-.198 0-.509-.175-.725-.401l-.637-.684-.557-.857c-.447-.683-.804-.993-1.753-1.493l-1.025-.556c-.197-.112-.379-.173-.531-.173s-.229.073-.229.223c0 .139.059.301.163.464.316.488.439.729.439.856 0 .136-.1.253-.221.253-.329 0-1.021-.672-1.63-1.58-.503-.752-.771-1.591-.771-2.4 0-1.837 1.34-3.203 3.156-3.203.938 0 2.121.396 3.214 1.071l2.008 1.24c.698.433 1.725.771 2.337.771.271 0 .835-.097 1.253-.216.187-.051.36-.121.513-.212.118-.072.202-.167.202-.24 0-.085-.047-.163-.118-.187l-.255-.085-.94-.173c-.243-.043-.633-.187-1.151-.429L40.419 11.6c-.703-.46-1.175-.729-1.409-.808-.348-.117-.565-.275-.565-.407s.066-.189.192-.189c.12 0 .281.057.455.164.63.393 1.178.6 1.581.6l1.839.64c.913.32 2.242.599 2.842.599.775 0 1.403-.632 1.403-1.412 0-.503-.299-1.255-.741-1.875-.1-.14-.202-.219-.288-.219-.172 0-.266.123-.266.343l.039.344.067.509c0 .555-.373.991-.847.991-.174 0-.4-.047-.673-.135l-2.776-.895c-2.33-.753-3.405-.985-4.573-.985-3.323.005-5.857 2.287-5.857 5.288 0 3.4 2.389 5.593 8.292 7.619 5.809 1.994 6.625 2.479 6.625 3.976 0 .857-.87 1.624-1.84 1.624a5.68 5.68 0 0 1-1.025-.086 307.59 307.59 0 0 1-2.904-.683c-1.755-.421-3.349-.601-5.32-.601-4.193 0-6.517.734-8.529 2.695-.501.489-.67.564-1.248.564l-.288-.01-.598-.042-.077-.001c-.504 0-.872.233-1.205.771l-.727 1.155c-.119.161-.302.255-.488.255-.384 0-.613-.29-1.049-1.323a3.65 3.65 0 0 0-.897-1.287l-.855-.769c-.14-.124-.216-.24-.216-.326 0-.095.06-.232.17-.398.41-.595.552-.861.601-1.115.113-.568.131-.595.365-.595.266 0 .341.263.361 1.241.007.282.121.674.345 1.152l.47 1.026c.059.133.21.216.385.216.442 0 1.001-1.039 1.153-2.139.122-.918.22-1.201.409-1.201.08 0 .148.032.187.09s.175.318.384.768c.113.237.302.457.557.642.246.181.42.282.513.301l.052.005c.346 0 .464-.227.546-1.034l.042-.426-.086-.601-.06-.413c0-.275.097-.44.253-.44.094 0 .208.06.32.171l.429.43c.284.281.571.425.845.425.355 0 .573-.144.573-.379 0-.206-.079-.408-.395-.989l-.297-.555c-.343-.644-.615-.9-.936-.9l-.432.041-.51.215c-.157.063-.27.099-.336.099-.081 0-.136-.073-.136-.169 0-.384.249-.987.726-1.741.337-.541.571-1.697.683-3.357.146-2.231.445-3.677.756-3.677.214 0 .293.18.293.656l-.022.587-.016.409c0 .4.088.72.192.72.366 0 .8-.544 1.146-1.428.145-.371.221-.665.221-.872l-.048-.199-.853-1.584-.856-.253c-.158-.047-.266-.119-.299-.192v-.576-.468l-.085-.516-.173-.428-.21-.469c-.937.509-1.381.843-1.711 1.281-.334.448-.524.619-.691.619-.11 0-.207-.104-.207-.225 0-.105.042-.333.128-.693l.027-.24c0-.919-.56-1.823-1.479-2.408l-.255.341-.301.427-.513.601c-.163.189-.31.479-.429.853-.057.18-.087.347-.087.488l.002.067.005.156c0 .355-.039.447-.198.447l-.106-.047-.299-.425-.468-.513-.727-.471-.384-.297-.171.383c-.133.297-.205.527-.213.685l-.046.683-.042.724.005.125c0 .375-.091.519-.318.519-.076 0-.292-.092-.499-.215-.188-.109-.405-.175-.618-.175-.666 0-1.093.461-1.093 1.18 0 .855.252 1.675.687 2.243l.553.727c.154.193.435.36.451.255l.106-.896-.129-.725-.026-.327c0-.276.096-.447.254-.447.242 0 .387.267.542.985l.34 1.583.344 2.008c.091.54.264 1.113.511 1.708.339.807.583 1.308.727 1.495.476.611.527.693.527.828 0 .105-.086.2-.184.2-.091 0-.223-.045-.385-.128a1.74 1.74 0 0 0-.513-.172l-.334-.048c-.687 0-.827.588-.827 3.441 0 1.742.368 4.104.82 5.24l.895 2.267a2.84 2.84 0 0 1 .214 1.06c0 3.117-4.132 8.007-8.673 10.264-1.69.835-2.229 1.64-2.349 3.502l-.043.558c.688-.359.97-.477 1.451-.599 1.274-.332 1.521-.492 1.712-1.113l.168-.556c.066-.209.173-.285 1.155-.811.337-.177.573-.371.685-.554.215-.36.393-.552.508-.552.105 0 .165.049.165.138l-.035.153-.425 1.221-.052.299c0 .905.495 1.642 1.42 2.113.152-.988.255-1.327.557-1.792l.767-1.198c.286-.445.405-.984.405-1.829a7.88 7.88 0 0 0-.106-1.335l-.029-.339c0-.216.113-.342.301-.342.148 0 .267.052.283.126l.173.813c.033.176.211.301.415.301.411 0 .946-.535 1.508-1.496a2.28 2.28 0 0 0 .318-1.132l-.065-.579-.127-.638-.01-.125c0-.28.156-.477.378-.477.098 0 .177.037.19.083l.254.987c.086.327.316.556.555.556.287 0 .78-.495 1.069-1.07.259-.509.386-1.087.386-1.747 0-.913.094-1.173.428-1.173.107 0 .194.038.213.102l.171.556c.066.203.187.339.306.339.177 0 .656-.517.977-1.067.086-.142.131-.282.131-.397 0-.184-.122-.367-.386-.587-.447-.368-.472-.426-.472-.983 0-.537.087-.819.472-1.494a30.91 30.91 0 0 0 .555-1.027c.54-1.057.732-1.328.93-1.328.164 0 .312.178.312.376a.79.79 0 0 1-.089.353c-.116.241-.173.411-.173.507 0 .168.142.308.317.308.197 0 .458-.09.753-.257.115-.068.515-.22 1.195-.471l1.414-.511c.232-.085.521-.13.855-.13a3.41 3.41 0 0 1 .767.086c.504.115.834.174.985.174.386 0 .729-.333.729-.712 0-.285-.294-.844-.687-1.298-.146-.172-.22-.301-.22-.39l.05-.169c.056-.105.143-.172.227-.172.287 0 .963.72 1.568 1.672 3.678 5.792 4.998 7.194 7.479 7.947 2.513.766 3.169 1.353 3.169 2.845 0 .817-.418 1.767-1.332 3.049-1.861 2.603-2.31 3.655-2.31 5.372l.002.317a7.13 7.13 0 0 0 .471-.216c.348-.176.58-.28.682-.299l1.067-.213c.321-.066.607-.478.607-.873l-.007-.108-.128-.941-.01-.125c0-.333.166-.715.394-.903a.38.38 0 0 1 .222-.091c.118 0 .263.112.335.265l.683 1.451c.281.594.606.875 1.493 1.282M12.2 17.84c-.312 0-.472.268-.504.856l-.084.811-.105 1.033c0 .611.181 1.064.428 1.064.274 0 .701-.523.914-1.117.131-.363.194-.675.194-.997 0-.283-.069-.625-.194-.967-.155-.435-.393-.683-.649-.683M8.664 11.6l.598.597c.976.976 1.457 2.592 1.457 4.893 0 .505-.023.844-.133 2.2l-.086 1.763c0 5.299 1.723 9.307 4.002 9.307.718 0 1.183-.343 1.856-1.367.109-.167.281-.309.386-.309.135 0 .202.111.21.353l.086.94.087.81.084.899.128.813.008.103c0 .237-.104.372-.307.407l-.768.131c-.381.06-.789.221-1.196.47-.645.386-1.032.685-1.111.854l-.469.985c-.066.127-.167.213-.267.213-.247 0-.646-.433-1.104-1.198-.39-.652-.626-1.181-.626-1.396 0-.135.105-.187.375-.187h.083l.553.043.341-.043.387-.041a.3.3 0 0 0 .258-.301c0-.112-.07-.213-.173-.254l-1.922-.815c-.592-.247-1.106-.746-1.452-1.406-.53-1.013-.775-1.618-.775-1.922 0-.263.137-.438.348-.438.074 0 .175.031.297.094.19.092.44.172.541.172.168 0 .316-.128.316-.269 0-.116-.153-.319-.343-.463-1.606-1.164-2.526-2.503-2.526-3.657 0-.321.079-.476.246-.476l.311.033.555.084h.027c.208 0 .369-.137.369-.331 0-.117-.143-.279-.353-.393l-.683-.383c-.239-.149-.442-.352-.598-.603-.069-.113-.311-.567-.724-1.367l-.598-1.153-.386-.725c-.039-.063-.123-.176-.259-.343.56-.268.864-.348 1.332-.348.583 0 .953.381 1.366 1.416.257.653.543 1.093.704 1.093.081 0 .111-.143.111-.501 0-.423-.06-.855-.178-1.273-.103-.388-.148-.708-.128-.943l-.084-.599-.51-.257c-.115-.052-.248-.205-.387-.425-.238-.375-.341-.687-.341-.972a3.37 3.37 0 0 1 .128-.777c.434-1.632.561-2.265.561-2.795l-.007-.368.385.424m5.125 30.815c-.597-.087-.876-.155-1.24-.301l-.811-.339c-.689-.295-1.204-.432-1.635-.432-.645 0-1.173.219-1.781.73l.383.297.853.599.814.641a1.13 1.13 0 0 0 .704.259c.838 0 1.565-.392 2.713-1.455m16.455 7.779c.233-.531.344-.677.855-1.113 1.193-1.025 1.749-1.785 1.749-2.392v-.428-.513c0-.548.093-.728.379-.728.127 0 .23.049.263.13l.212.509c.05.121.193.198.361.198s.41-.195.624-.497l.429-.595c.213-.298.309-.556.309-.834a1.4 1.4 0 0 0-.095-.493l-.3-.681c-.098-.22-.176-.514-.176-.669 0-.28.141-.445.383-.445a.38.38 0 0 1 .304.134l.343.423c.073.093.194.15.324.15.156 0 .338-.15.443-.361l.342-.685c.089-.173.135-.306.135-.381 0-.133-.14-.271-.39-.387l-.556-.259c-.732-.336-1.287-1.513-1.287-2.739 0-.164.033-.325.089-.465l.299-.728c.088-.204.131-.435.131-.681 0-.445-.146-.892-.43-1.327l-.556-.897c-.252-.676-.382-.865-.592-.865l-.216.052-.299.169-.472.259-.555.686-.598.295c-.358.18-.696.942-.696 1.57 0 1.111.125 1.417 1.59 3.945.571.976.87 1.82.87 2.443 0 1.75-1.568 2.997-4.714 3.752l-1.965.47c-1.447.349-2.301 1.341-2.608 3.036.599-.31.835-.354 1.894-.354l.629.008.099.002c.57 0 .649-.039 1.01-.556.424-.591.839-.943 1.412-1.191l.684-.302.556-.3.169-.044c.153 0 .235.063.235.175 0 .167-.156.447-.405.724-.493.547-.684 1.007-.684 1.655 0 .411.1.652.471 1.123m-5.386-6.623c.492.307.992.752 1.284 1.154.408.557.467.601.869.601.173 0 .384-.03.625-.09l.383-.083c.706-.137.945-.24.945-.413 0-.103-.078-.234-.217-.357l-.469-.426-.469-.43c-.303-.276-.899-.479-1.41-.479s-.812.104-1.542.523"/>
        <path d="M38.707 45.876l.255-.046.386-.042.385.042.188.013c.949 0 1.86-.805 1.86-1.652 0-.293-.267-.456-.753-.456-1.152 0-1.875.663-2.322 2.141"/>
    </g>
    <path d="M22.769 16.347c.046.395.252.723.462.723.18 0 .387-.473.83-1.224.603-1.027 1.185-2.027 1.185-2.572 0-.183-.09-.32-.214-.32l-.043.013-.471.428c-.341.307-.608.453-1.454.768-.482.183-.657.376-.657.727l.06.343.213.6.087.515m-2.606-2.226l.722.387c.2.105.309.245.309.412l-.051.269c-.106.36-.022.76-.028.911-.037.764-.617.756-.851.756-.141 0-.067-.088-.402-.472l-.941-1.067c-.29-.328-.542-1.076-.643-1.92l-.005-.111c0-.233.075-.321.259-.321.114 0 .326.096.473.219l1.155.937m1.666 4.489l-.231.003-.493-.045a30.25 30.25 0 0 1-.515-.303 1.21 1.21 0 0 0-.61-.171c-.387 0-.637.213-.637.536 0 .355.173.937.563 1.901l.558 1.365c.487 1.204.961 1.711 1.59 1.711.561 0 .635-.549 1.014-1.492.854-2.149 1.33-2.465 1.33-3.227 0-.519-.115-.659-.586-.659l-.398-.095-.684.432-.899.043"
          class="C"/>
    <path d="M21.784 19.806h-.556c-.081 0-.165.047-.214.128l-.084.213.212 1.027.171.895c.095.493.276.687.644.687.418 0 .678-.287.724-.813l.085-.94.084-.976c0-.092-.047-.185-.128-.263-.062-.057-.14-.092-.215-.092l-.04.005-.684.129"
          class="B"/>
    <path d="M122.166 30.105l.173.641.345 1.368c.536 2.442.99 3.081 2.175 3.081.677 0 1.241-.376 1.413-.943l.256-.857c.058-.196.206-.308.406-.308.465 0 .713.51.748 1.549.011.394.099 1.093.254 2.092.117.72.172 1.382.172 1.977 0 .435-.054.689-.255 1.228l.083.513c.144.842.179 1.173.179 1.569 0 1.835-.089 2.375-.52 3.089.178.701.225 1.03.225 1.531 0 .323-.044.784-.138 1.504l-.173 1.282.043.768c.115.283.17.458.17.512 0 .121-.076.215-.17.215l-.854-.342-.939-.512c-.305-.167-.518-.331-.982-.767-.827.73-.946.798-1.928 1.066-1.416.392-1.94.569-2.22.772-.276.193-.481.295-.592.295-.331 0-.563-.642-.563-1.583 0-1.368.08-2.073.299-2.607-.832-.281-1.252-.383-1.555-.383-.114 0-.183.008-.625.083l-.192.018c-.123 0-.195-.152-.195-.407 0-.417.294-1.254.687-1.958.534-.955 1.419-1.749 2.094-1.883l1.539-.296c.911-.178 1.455-.664 1.455-1.298 0-.615-.399-1.02-1.33-1.353l-1.794-.641c-.605-.216-1.176-.487-1.711-.811l-.937-.559a1.03 1.03 0 0 0-.466-.126c-.38 0-.612.277-.612.732 0 .722.561 1.321 1.24 1.321a1.16 1.16 0 0 0 .434-.087c.195-.083.327-.13.393-.13.195 0 .334.189.334.458 0 .76-.476 2.074-.984 2.703l-.512.644-.386.513c-.142 1.101-1.221 2.676-2.305 3.377-.263.167-.423.28-.472.34-.036.039-.148.244-.341.598-.089.165-.377.506-.857 1.027-.359.39-.716.719-1.067.982-.477.362-.765.624-.854.771l-.429.728c-.088.147-.195.22-.334.22-.381 0-.733-.398-.948-1.074-.155-.5-.295-.645-.619-.645-.166 0-.417.044-.747.13l-.597.082h-1.498c-.807 0-1.89.194-2.394.432-.193.091-.341.134-.44.134-.22 0-.333-.221-.333-.653 0-1.355 1.044-3.411 2.399-4.741-.202-.786-.615-1.312-1.154-1.451l-.77-.214c-.079-.042-.129-.12-.129-.203 0-.273.304-.543.985-.866 1.213-.573 1.569-.685 2.247-.685.774 0 1.429.263 2.239.9 1.157.901 1.477 1.071 2.035 1.071.912 0 1.785-.833 1.785-1.711 0-.591-.327-1.247-1.129-2.269-1.138-1.453-1.54-2.401-1.54-3.632 0-.827.166-1.279.9-2.475.115-.193.18-.352.18-.458 0-.233-.39-.447-.82-.447-.457 0-1.025.167-1.795.518-1.286.59-2.052 1.141-2.052 1.476 0 .133.079.267.214.362l.43.299c.054.037.09.104.09.178s-.081.221-.179.333c-.084.096-.37.466-.856 1.111-.596.793-1.166 1.392-1.789 1.88-.231.177-.374.321-.433.43l-.339.642c-.285.534-1.129 1.417-1.84 1.922l-.596.47c-.088.096-.216.297-.386.597-.436.784-1.124 1.747-1.578 2.221l-1.155 1.198c-.332.34-.797 1.33-1.24 2.646-.351 1.038-.576 1.503-.735 1.503-.072 0-.192-.095-.333-.261-.83-.948-1.575-1.541-1.939-1.541-.094 0-.261.078-.499.216-.328.198-.716.345-1.151.43l-1.539.295c-1.286.252-1.801.527-2.393 1.284-.149.189-.274.297-.34.297-.151 0-.264-.22-.264-.52l.043-.375a48.06 48.06 0 0 0 .219-1.152c.22-1.216.53-2.224.853-2.78l.772-1.325c.136-.24.214-.48.214-.689 0-.986-.919-1.785-2.311-2.005-.283-.042-.429-.147-.429-.309 0-.196.334-.573.858-.971.908-.683 1.905-1.11 2.612-1.11.474 0 1.113.168 1.96.51l.939.385c.347.146.673.22.952.22.996 0 1.958-.907 3.15-2.951.537-.931.77-1.593.77-2.201 0-1.082-.503-1.733-1.346-1.733-.661 0-1.294.28-1.817.807-.466.472-.709.944-.709 1.366l.023.434.018.228c0 .345-.117.5-.372.5-.323 0-.7-.313-1.437-1.201l-1.198-1.407c-1.299-1.52-1.569-2.129-1.624-3.679-1.451-1.847-1.809-2.874-1.809-3.945l.056-.881c-1.039-1.249-1.24-1.729-1.24-2.959 0-.553.032-.697.258-1.142-.51-.749-.674-1.085-.811-1.667l-.214-.9c-.147-.611-.373-1.133-.684-1.581-.385-.551-.431-.632-.431-.793 0-.447.427-.733 1.499-1l.341-.087-.087-.948c0-.247.032-.489.129-1.019l.299-1.583c.115-.616.175-1.087.175-1.401 0-.365-.057-.66-.26-1.331-.131-.436-.278-.765-.427-.984-.165-.236-.257-.433-.257-.563 0-.147.146-.259.339-.259.105 0 .284.055.43.139 1.442.787 3.02 2.035 4.145 3.291.967 1.073 1.277 1.969 1.497 4.361 1.311.972 1.798 1.856 1.798 3.243 0 .823-.269 1.619-.858 2.524l-.854 1.327a2.82 2.82 0 0 0-.387 1.446c0 .771.234 1.497.814 2.524.637 1.133 1.209 1.627 1.89 1.627 1.12 0 2.135-1.937 2.135-4.068l-.008-.421v-1.154l.129-1.023.084-1.24.084-1.028.034-.572c0-.421-.087-.541-1.402-1.948-1.451-1.555-2.136-2.865-2.136-4.083 0-1.149.988-2.111 2.173-2.111.249 0 .471.043.904.167v-.511l.044-.901.255-1.108c.205-.887.299-1.048.605-1.048l.209.065.771.683.936.6.259.255c.061-.535.107-.64.555-1.197l.596-.811.427-.64.258-.385c.172-.257.245-.324.355-.324.116 0 .197.148.33.625.055.193.189.387.383.553l.558.469c.451.381.749.945.938 1.753.338-.421.503-.573.854-.772l.685-.383c.252-.144.407-.217.453-.217s.119.103.19.257a4.51 4.51 0 0 0 .343.641c.551.887.598 1.013.598 1.612l-.003.357v.512c1.388.381 1.927 1.128 1.927 2.663 0 1.149-.525 2.335-1.627 3.661-.73.877-.855 1.151-.855 1.812 0 3.013 2.271 4.839 6.111 4.896l2.819.043c1.845.029 2.968.216 4.66.768 1.978.649 2.623.815 3.223.815.435 0 .795-.245.795-.534 0-.618-1.034-1.096-4.488-2.074-7.039-1.988-10.043-4.837-10.043-9.5 0-3.612 3.014-6.401 6.913-6.401 1.229 0 3.148.328 4.242.728l1.749.641c.321.119.631.18.919.18.603 0 .833-.377.921-1.505.039-.503.199-.724.52-.724.449 0 1.323.704 1.955 1.581.653.901 1.115 2.091 1.115 2.865 0 .911-.475 1.603-1.499 2.179-.956 1.46-2.136 2.135-3.722 2.135-1.217 0-3.284-.824-5.89-2.348-1.025-.601-1.477-.768-2.045-.768-.769 0-1.264.429-1.264 1.108 0 .619.455 1.003 1.726 1.452 2.023.721 2.457.957 3.035 1.669 2.178.377 3.123.755 4.488 1.793 3.903 1.251 6.07 3.661 6.07 6.743 0 2.81-1.902 4.838-4.551 4.838-.705 0-1.071-.042-2.078-.255"
          class="C"/>
    <g class="B">
        <path d="M126.399 48.822c-.1-.389-.134-.575-.134-.785l.049-.582.138-1.662c0-.314-.092-.567-.309-.857l-.515-.684c-.334-.448-.467-.784-.467-1.167 0-.246.057-.33.227-.33l.198.042.383.215c.173.097.32.146.427.146.258 0 .387-.401.387-1.202 0-1.112-.208-1.644-.854-2.149l-.597-.47c-.106-.083-.175-.222-.175-.349 0-.206.121-.339.314-.339.12 0 .288.034.497.089l.473.13.182.041c.146 0 .211-.113.211-.362l-.009-.149-.128-.899c-.136-.932-.289-1.287-.565-1.287l-.076.009-1.111.211-.188.017c-1.335 0-2.909-1.266-3.318-2.666l-.812-2.777c-.242-.831-.967-1.747-2.054-2.611-.355-.276-.665-.441-.896-.465l-.767-.089c-.14-.016-.234-.101-.234-.21 0-.177.147-.26.463-.26 1.084 0 2.242.221 3.787.727 1.403.461 2.17.629 2.856.629 2.141 0 3.428-1.116 3.428-2.965 0-.927-.336-2.092-.814-2.834-.417-.64-1.119-1.3-2.011-1.879-.131-.088-.248-.135-.336-.135-.121 0-.219.095-.219.217l.044.555.002.051c0 .209-.121.381-.272.381-.237 0-.482-.279-.755-.856-.787-1.669-2.056-2.677-3.363-2.677-.286 0-.448.1-.448.275 0 .132.077.328.222.565a4.9 4.9 0 0 1 .385.768c.067.167.103.292.103.365 0 .079-.068.123-.195.123-.191 0-.506-.175-.719-.401l-.643-.684-.554-.857c-.431-.66-.906-1.077-1.707-1.493l-1.072-.556c-.213-.112-.401-.173-.546-.173-.133 0-.2.067-.2.196s.066.304.194.491c.226.335.394.695.394.852 0 .145-.094.257-.215.257-.3 0-.835-.537-1.59-1.58-.541-.747-.817-1.561-.817-2.4 0-1.8 1.387-3.203 3.173-3.203.916 0 2.063.385 3.196 1.071l2.053 1.24c.733.444 1.725.771 2.345.771.339 0 .439-.019 1.203-.216a2.17 2.17 0 0 0 .555-.212c.093-.055.157-.156.157-.252 0-.167-.103-.24-.374-.26-.951-.071-2.925-.849-4.227-1.669l-1.411-.808c-.353-.125-.587-.308-.587-.456 0-.065.072-.103.185-.103l.249.044 1.862.683 1.793.64c.881.312 2.247.599 2.872.599.81 0 1.372-.56 1.372-1.372 0-.408-.101-.871-.27-1.189-.26-.511-.601-.941-.741-.941-.167 0-.259.168-.259.457l.018.227.054.549c0 .576-.318.952-.807.952-.191 0-.427-.048-.699-.136l-2.778-.895c-2.413-.78-3.353-.985-4.54-.985-3.358 0-5.89 2.268-5.89 5.288 0 3.404 2.337 5.541 8.336 7.619 5.82 2.017 6.578 2.479 6.578 4.012 0 .882-.825 1.588-1.859 1.588-.382 0-.718-.033-1.002-.086a176.91 176.91 0 0 1-2.907-.683c-1.783-.432-3.296-.601-5.312-.601-4.239 0-6.279.647-8.491 2.695-.51.477-.717.564-1.289.564l-.289-.01-.673-.043c-.513 0-.899.245-1.208.771l-.684 1.155c-.094.159-.281.255-.489.255-.444 0-.679-.293-1.094-1.323-.216-.548-.51-.988-.852-1.287l-.899-.769c-.134-.118-.212-.227-.212-.313s.077-.229.212-.411a4.19 4.19 0 0 0 .385-.596c.132-.241.202-.417.213-.518l.042-.383c.033-.125.158-.213.306-.213.284 0 .333.189.339 1.241 0 .269.115.662.34 1.152l.469 1.026c.064.133.211.216.387.216.445 0 1.005-1.04 1.153-2.139.122-.911.22-1.201.408-1.201.176 0 .254.11.618.858a2.03 2.03 0 0 0 .513.642c.208.174.387.281.511.301l.047.001c.353 0 .471-.22.553-1.03l.041-.426-.084-.601-.058-.413c0-.275.096-.44.254-.44.092 0 .207.06.319.171l.427.43c.284.287.575.428.861.428.366 0 .593-.16.593-.42 0-.215-.048-.317-.426-.949-.039-.061-.138-.246-.299-.555-.38-.721-.558-.9-.893-.9l-.434.041-.556.215c-.165.063-.279.099-.339.099-.073 0-.132-.075-.132-.173 0-.385.253-.992.728-1.737.293-.464.54-1.612.725-3.357l.217-2.007c.129-1.233.263-1.671.512-1.671.09 0 .161.037.171.089l.126.641v.512c0 .624.067 1.129.146 1.129.182 0 .447-.212.709-.575.185-.259.328-.545.427-.853.142-.459.216-.836.216-1.121 0-.988-.417-1.413-1.755-1.787-.134-.039-.224-.083-.254-.129l-.046-.385v-.721l-.087-.516-.166-.428-.217-.469-.34.212c-.873.548-1.085.712-1.371 1.069-.388.492-.522.615-.684.615-.118 0-.21-.081-.21-.185l.17-.729.015-.125c0-.936-.526-1.841-1.467-2.523l-.299.341-.301.427-.511.601a2.01 2.01 0 0 0-.475 1.267l.004.141.005.143c0 .337-.051.453-.21.453l-.094-.04-.342-.425-.427-.513-.77-.471-.384-.297c-.413.895-.429.991-.429 2.14l.001.357c0 .387-.127.62-.332.62-.101 0-.281-.075-.521-.213a1.33 1.33 0 0 0-.635-.175c-.622 0-1.079.528-1.079 1.249 0 .783.169 1.319.687 2.173.335.555.778 1.004.981 1.004.023 0 .08-.396.131-.919l-.131-.725-.028-.327c0-.276.098-.447.259-.447.24 0 .387.267.54.985l.343 1.583.34 2.008a7.97 7.97 0 0 0 .515 1.708c.336.807.579 1.308.724 1.495.474.611.529.693.529.828 0 .105-.087.2-.186.2-.091 0-.222-.045-.387-.128-.147-.077-.316-.139-.511-.172l-.312-.047c-.708 0-.852.569-.852 3.408 0 1.769.367 4.129.822 5.272l.897 2.267a2.86 2.86 0 0 1 .218 1.063c0 3.125-4.228 8.118-8.678 10.261-1.732.831-2.245 1.699-2.393 4.06.741-.354 1.039-.47 1.496-.599 1.26-.353 1.531-.532 1.707-1.113l.171-.556c.076-.237.236-.354 1.114-.811.329-.171.564-.362.683-.554.223-.368.394-.551.507-.551.123 0 .187.082.187.221l-.01.068-.473 1.221-.052.301c0 .897.502 1.642 1.422 2.112a14.36 14.36 0 0 0 .127-.51c.151-.654.297-1.083.427-1.281l.815-1.198c.292-.432.346-.717.346-1.82l-.049-1.344-.025-.342c0-.223.106-.343.299-.343.148 0 .272.056.283.13l.126.813c.03.173.207.301.418.301.414 0 .943-.528 1.508-1.496.215-.378.303-.672.303-1.021 0-.271-.055-.868-.135-1.328l-.018-.253c0-.212.125-.346.326-.346.108 0 .192.034.206.081l.3.987c.101.328.327.556.561.556.656 0 1.335-1.343 1.405-2.778.042-.903.155-1.216.43-1.216.106 0 .188.039.211.104l.169.556c.063.203.186.339.307.339.108 0 .325-.191.594-.51.147-.185.279-.369.384-.556a.95.95 0 0 0 .127-.451c0-.216-.044-.275-.385-.534-.313-.235-.469-.537-.469-.896 0-.62.263-1.285 1.023-2.608.698-1.2.792-1.339.961-1.339.159 0 .284.159.284.365a.88.88 0 0 1-.091.375c-.114.25-.175.419-.175.511 0 .167.153.304.34.304.208 0 .472-.09.777-.257.183-.103.57-.262 1.154-.471l1.452-.511a2.95 2.95 0 0 1 .879-.132 3.28 3.28 0 0 1 .745.088c.487.115.818.174.984.174.388 0 .69-.297.69-.676 0-.17-.117-.493-.264-.74-.22-.354-.349-.56-.383-.595-.189-.198-.263-.306-.263-.385l.047-.173c.053-.105.144-.172.24-.172.338 0 .999.69 1.595 1.672 3.351 5.471 4.975 7.201 7.439 7.947 2.568.779 3.17 1.32 3.17 2.852 0 .811-.429 1.793-1.333 3.043-1.709 2.372-2.31 3.761-2.31 5.338l.005.351a6.9 6.9 0 0 0 .469-.216c.351-.176.578-.28.685-.299l1.064-.213c.336-.068.605-.467.605-.897l-.005-.085-.082-.941-.01-.149c0-.53.258-.966.578-.966.119 0 .255.108.328.26l.684 1.451c.278.594.604.875 1.495 1.282M91.356 19.507l-.043.684-.012.417c0 .693.108.993.368.993.284 0 .728-.531.927-1.112.122-.363.219-.867.219-1.157 0-.208-.053-.397-.219-.811-.193-.468-.389-.684-.628-.684-.367 0-.536.471-.612 1.669M88.407 11.6l.601.597c.873.876 1.473 2.656 1.473 4.376l-.022.709-.128 2.008-.043 1.681c0 5.583 1.625 9.392 4.013 9.392.598 0 1.336-.552 1.842-1.371.111-.177.253-.309.343-.309.133 0 .201.115.212.353l.088.94.082.81a10.68 10.68 0 0 0 .13.899c.084.411.13.693.13.839 0 .43-.087.477-1.113.615-.383.048-.792.21-1.195.47-.664.425-1.049.72-1.11.854l-.471.985c-.062.127-.167.213-.272.213-.251 0-.583-.379-1.056-1.198-.433-.754-.627-1.189-.627-1.392 0-.137.106-.193.371-.193l.088.002.512.043.383-.043.344-.041c.148-.034.255-.161.255-.315 0-.103-.069-.199-.172-.24l-1.923-.815c-.461-.195-.956-.691-1.408-1.406-.493-.789-.78-1.474-.78-1.862 0-.305.131-.5.335-.5a.69.69 0 0 1 .314.096c.213.101.41.172.501.172.072 0 .153-.032.228-.087.082-.065.13-.141.13-.206 0-.122-.13-.283-.341-.439-1.6-1.134-2.568-2.509-2.568-3.644 0-.333.076-.487.24-.487l.316.031c.233.048.51.087.601.087.234 0 .392-.131.392-.331 0-.121-.158-.279-.393-.396-1.066-.532-1.328-.837-2.008-2.352-.521-1.161-.792-1.645-1.239-2.221.558-.268.861-.348 1.328-.348.585 0 .953.381 1.365 1.416.26.653.543 1.093.707 1.093.076 0 .11-.137.11-.493a4.88 4.88 0 0 0-.177-1.281c-.104-.391-.151-.708-.126-.943l-.086-.599-.473-.257c-.435-.233-.727-.799-.727-1.4 0-.267.028-.531.085-.775.011-.051.097-.377.259-.987.185-.693.303-1.415.303-1.808l-.004-.368.383.424m5.125 30.816c-.899-.152-1.038-.196-2.048-.639-.701-.311-1.155-.434-1.605-.434-.675 0-1.196.214-1.816.732l.383.297.857.599.815.641c.206.167.461.259.716.259.839 0 1.544-.383 2.698-1.455m16.454 7.778c.239-.531.348-.677.856-1.113 1.195-1.025 1.752-1.785 1.752-2.392v-.428-.513c0-.548.09-.728.376-.728.128 0 .232.049.266.13l.214.509c.049.12.188.191.361.191.304 0 .521-.219 1.048-1.086.223-.367.313-.604.313-.846a1.29 1.29 0 0 0-.101-.481l-.299-.681c-.096-.22-.175-.514-.175-.669 0-.28.143-.445.383-.445.129 0 .242.049.309.134l.337.423c.078.093.096.15.226.15.158 0 .438-.15.545-.361l.342-.685c.086-.169.131-.306.131-.388 0-.145-.136-.29-.346-.38l-.598-.259c-.701-.3-1.282-1.504-1.282-2.648 0-.129.045-.317.128-.555l.258-.728c.085-.238.128-.48.128-.709 0-.421-.129-.824-.427-1.298l-.514-.897c-.246-.637-.395-.846-.605-.846-.151 0-.294.054-.548.203l-.427.259-.599.686-.6.295c-.357.181-.697.955-.697 1.599 0 .923.203 1.425 1.596 3.917.591 1.055.869 1.836.869 2.432 0 1.74-1.775 3.172-4.673 3.762-3.462.711-4.217 1.281-4.615 3.506.599-.31.837-.354 1.894-.354l.627.008.099.002c.572 0 .648-.039 1.013-.556.419-.591.835-.943 1.411-1.191l.684-.302.555-.3.171-.044c.155 0 .237.063.237.178 0 .147-.139.392-.408.721-.414.502-.653 1.017-.653 1.409 0 .572.094.859.439 1.37m-5.386-6.626c.493.307.99.752 1.282 1.154.409.557.466.601.873.601.168 0 .382-.03.623-.09l.384-.083c.728-.138.948-.243.948-.437 0-.118-.067-.237-.18-.332l-.512-.426-.47-.43c-.29-.261-.887-.474-1.347-.474-.531 0-.965.141-1.602.518"/>
        <path d="M118.448 45.876l.255-.046.431-.042.342.042.232.015c.433 0 .657-.047.836-.187.266-.199.535-.522.814-.982.11-.184.168-.351.168-.484 0-.288-.264-.456-.731-.456-1.173 0-1.892.655-2.346 2.141"/>
    </g>
    <path d="M102.51 16.347c.048.397.255.723.466.723.181 0 .464-.613.909-1.363.605-1.032 1.106-1.889 1.106-2.435 0-.181-.093-.32-.212-.32l-.047.013-.469.432c-.275.248-.864.569-1.41.768s-.704.361-.704.724l.063.345.355.739-.055.373m-3.761-3.162c-.15-.123-.364-.219-.478-.219-.181 0-.258.093-.258.309l.01.123c.034.235.092.477.168.724.211.68.463 1.088.562 1.196l.645 1.08a2.22 2.22 0 0 0 .929.589l.03.004c.116 0 .21-.073.223-.175l.133-.856.211-.771.025-.181c0-.207-.119-.392-.323-.5l-.728-.387-1.151-.937m2.819 5.428l-.227.003-.498-.045c-.017-.007-.19-.111-.516-.303a1.18 1.18 0 0 0-.6-.171c-.392 0-.627.243-.627.655 0 .321.191.941.544 1.783l.557 1.365c.469 1.196.957 1.711 1.601 1.711.553 0 .999-.455 1.346-1.364l.472-1.925c.227-.599.792-.849.792-1.269 0-.492-.549-.961-1.015-.961l-.249.048-.64.432-.942.043"
          class="C"/>
    <path d="M101.528 19.806h-.515c-.077 0-.156.047-.214.128-.084.12-.129.199-.129.213l.214 1.027.172.895c.097.493.178.687.545.687.419 0 .777-.287.822-.813l.086-.94.085-.976c0-.092-.047-.185-.126-.263-.065-.057-.142-.092-.22-.092l-.039.005-.682.129"
          class="B"/>
    <path d="M43.237 110.787c.373.941.499 1.406.555 2.013l.084 1.792c.069 1.798.664 2.691 1.795 2.691.41 0 .749-.107.941-.298l.471-.469.187-.055c.3 0 .463.195.463.556l-.051.695c-.034.311.021.974.171 1.963a11.64 11.64 0 0 1 .129 1.725c0 .913-.065 1.262-.386 2.082.297.839.47 1.787.47 2.58 0 .93-.152 1.555-.512 2.079.17.734.214 1.031.214 1.452s-.059.966-.172 1.627c-.153.889-.21 1.579-.173 2.045l.005.111c0 .269-.081.403-.246.403-.16 0-.356-.127-.527-.34-.26-.335-.428-.456-.627-.456-.293 0-.386.156-.827 1.437-.134.397-.48.932-1.023 1.584-.425.508-.691.929-.769 1.24l-.255.897c-.05.113-.149.198-.259.21l-.054.004c-.704 0-1.51-1.509-2.337-4.36-.232-.807-.531-1.165-.966-1.165-.308 0-.626.206-.744.48l-.256.599c-.046.101-.133.172-.226.172-.341 0-.862-.624-1.185-1.413-.266-.653-.417-1.361-.417-1.966 0-1.339.986-2.338 3.963-4.019 1.297-.728 1.798-1.656 1.798-3.329 0-1.325-.399-2.086-1.539-2.951-.903-.682-1.423-.943-1.904-.943-.405 0-.724.271-.724.613 0 .401.234.646.792.839.656.236.943.468.943.763 0 .271-.279.854-.729 1.547-.484.74-.694.955-1.368 1.413-.204 1.175-.756 1.927-2.052 2.777-.26.737-.405.999-.856 1.581l-.898 1.156c-.28.357-.594 1.008-.64 1.325-.094.649-.156.768-.405.768-.339 0-1.036-.603-1.733-1.495-.413-.533-.513-.779-.554-1.413-.447.352-.585.397-1.454.51-.521.075-.911.171-1.153.305-.658.344-.869.438-.989.438-.178 0-.237-.094-.251-.396l-.044-.944c0-1.289.509-2.797 1.284-3.801-.748-.649-1.495-1.044-2.093-1.112-.254-.027-.32-.06-.32-.152 0-.158.167-.492.404-.789.319-.403.576-.687.769-.853a4.24 4.24 0 0 1 2.479-.898c.556 0 1.375.205 2.435.601.38.144.725.212 1.02.212.471 0 .737-.305.737-.842 0-.776-.382-1.991-1.245-3.945-.582-1.322-.844-2.208-.844-2.819 0-1.482.699-3.019 1.573-3.459-.414-.208-.596-.26-.953-.26-.427 0-.765.109-1.315.431-.633.369-.985.694-.985.911 0 .083.131.216.346.371.333.232.388.318.388.631 0 1.055-.874 2.466-2.097 3.385-.269 1.496-.959 2.401-2.309 3.034-.177.814-.288 1.049-.94 1.968-1.116 1.565-1.377 2.062-1.58 2.948-.106.458-.21.649-.353.649-.182 0-.558-.285-.971-.735l-.684-.818c-.183-.28-.276-.554-.469-1.364-.311.087-.393.103-.612.103l-.628-.017-.427-.011c-.936 0-1.929.212-2.437.522-.185.115-.311.172-.372.172-.275 0-.499-.58-.499-1.295 0-1.542.427-2.819 1.428-4.215-.367-.306-.487-.422-.814-.768-.141-.157-.256-.258-.341-.302l-.469-.256c-.163-.086-.258-.194-.258-.279 0-.227.625-.823 1.368-1.302.822-.53 1.473-.771 2.07-.771.7 0 1.073.18 1.947.941.607.53 1.02.771 1.314.771.207 0 .434-.143.608-.388.143-.196.221-.415.221-.635 0-.818-.977-2.196-2.057-2.91-.806-.529-1.687-.813-2.546-.813-1.19 0-2.211.592-2.666 1.54l-.472.983c-.111.229-.249.347-.406.347-.274 0-.419-.123-1.389-1.245l-1.109-1.285c-.343-.393-.574-.772-.686-1.107-.101-.317-.171-.507-.214-.556-.038-.057-.185-.172-.425-.345-.857-.607-1.482-1.809-1.84-3.544l-.129-.555c-1.047-1.284-1.67-2.872-1.67-4.25 0-.184.01-.266.093-.583-.611-.614-.679-.759-1.156-2.396-.342-1.161-.559-1.657-.984-2.216-.113-.151-.171-.267-.171-.332 0-.231.358-.422.983-.525l.858-.098.853.057-.054-1.171c0-.687.054-1.134.226-1.949.082-.408.127-.705.127-.892 0-.076-.029-.323-.087-.734-.045-.315-.086-.531-.127-.639-.063-.16-.092-.283-.092-.363 0-.139.092-.212.255-.212.122 0 .297.06.563.187.743.366 1.358.74 1.835 1.112 1.473 1.155 2.632 2.93 2.632 4.03l-.022.334-.088.625c0 .187.106.432.3.693l.47.645c.417.568.687 1.232.687 1.676 0 .4-.084.575-.771 1.573-.518.746-.731 1.302-.731 1.911 0 .771.307 1.742.859 2.705.503.885 1.084 1.372 1.642 1.372.955 0 1.369-.844 1.519-3.128l.344-3.245.043-.585c0-.267-.082-.422-.426-.832l-1.286-1.491c-1.222-1.427-1.59-2.161-1.59-3.187 0-1.175.772-1.988 1.891-1.988l.513.047-.005-.333c0-.272.073-.66.219-1.161.268-.918.607-1.622.783-1.622.057 0 .199.069.413.214.067.042.327.143.772.297.238.087.407.172.85.424.207-.733.36-1.073.687-1.494.551-.712 1.178-1.281 1.399-1.281.133 0 .382.182.692.513l.814.857c.134.138.294.417.47.81l.171.383.513-.295.683-.386.813-.385c.22-.143.373-.22.439-.22.143 0 .223.257.543 1.672.218.969.249 1.175.301 1.883 1.365.192 2.006.974 2.006 2.439 0 1.379-.676 2.747-2.134 4.307-.399.43-.494.631-.494 1.031 0 3.777 1.315 4.971 6.051 5.47 2.906.305 3.77.49 7.262 1.541 1.839.548 2.894.777 3.575.777.805 0 1.258-.294 1.258-.813 0-.793-.573-1.042-3.977-1.762-7.918-1.667-11.029-4.371-11.029-9.595 0-3.724 2.785-6.518 6.503-6.518 1.639 0 3.104.5 5.422 1.836 2.15 1.247 2.595 1.459 3.087 1.459.575 0 .802-.368.802-1.294 0-.597.181-.891.555-.891.34 0 .86.353 1.325.898.709.84.983 1.268.983 2.427 0 1.547-.823 2.557-2.435 3.004l-.383.425c-.879.993-1.654 1.324-3.054 1.324-1.216 0-2.743-.496-3.788-1.239l-2.051-1.451c-.885-.629-1.532-.896-2.152-.896-.875 0-1.397.522-1.397 1.398 0 .859.568 1.559 1.497 1.846l1.926.601c.68.215 1.005.346 1.835.768.475-.069.694-.091.958-.091 1.195 0 2.484.321 3.614.899.359.185.619.302.77.346l1.071.299c2.427.68 4.404 3.393 4.404 6.044 0 3.023-1.959 4.897-5.126 4.897l-.989-.047"
          class="C"/>
    <g class="B">
        <path d="M42.51 136.175l.256-.515.6-.643c.506-.54.778-1.308.778-2.208 0-.44-.077-.915-.222-1.381-.108-.341-.178-.633-.178-.754 0-.271.202-.526.409-.526.085 0 .201.075.322.215l.64.724c.399.449.531.532 1.028.642l.043-.597.043-.702c0-1.021-.374-2.167-.942-2.889-.339-.432-.494-.699-.494-.851s.113-.303.232-.303c.042 0 .104.032.177.086.412.307.625.433.737.433.207 0 .393-.516.393-1.079a3.98 3.98 0 0 0-.871-2.388l-.513-.639a.41.41 0 0 1-.086-.245c0-.183.149-.314.37-.314.161 0 .261.042.527.215.127.082.242.128.328.128.333 0 .453-.469.453-1.738l-.013-.526-.044-.771c-.048-.904-.128-1.064-.511-1.064h-.341c-2.085 0-3.055-1.32-3.593-4.876-.387-2.569-1.346-4.395-2.521-4.788-.703-.233-.955-.387-.955-.573 0-.118.195-.235.406-.235.153 0 .514.095.807.215 1.703.687 3.141 1.025 4.392 1.025 2.047 0 3.663-1.507 3.663-3.418 0-1.459-.695-2.945-1.945-4.146-.34-.333-.71-.549-1.068-.642l-.082-.007-.217.072.088.617.168.431.047.179c0 .091-.088.163-.201.163a.38.38 0 0 1-.315-.173l-.768-1.155c-.609-.911-1.946-1.673-2.935-1.673-.352 0-.574.156-.574.405 0 .121.117.341.261.5.217.247.389.543.389.682l-.047.172c-.045.096-.108.163-.171.171l-.042.004c-.207 0-.308-.094-1.239-1.155-.761-.871-2.316-1.718-3.15-1.718-.119 0-.23.052-.313.135-.052.056-.086.118-.086.164 0 .132.113.301.301.477.264.244.475.531.475.655 0 .084-.112.16-.24.16-.244 0-.793-.354-1.817-1.157-1.595-1.252-2.306-2.435-2.306-3.805 0-1.654 1.178-2.949 2.691-2.949.885 0 2.06.426 2.864 1.029l2.094 1.578c.958.729 2.133 1.115 3.363 1.115.268 0 .52-.06.739-.173.187-.094.301-.206.301-.287 0-.051-.159-.127-.387-.185-.756-.18-1.365-.442-1.795-.768l-2.136-1.621-1.669-1.155c-1.126-.593-1.346-.732-1.346-.862 0-.067.107-.122.245-.122a.96.96 0 0 1 .375.086l1.112.472c.357.148.956.506 1.795 1.068 2.287 1.529 3.45 2.018 4.793 2.018 1.278 0 2.22-.906 2.22-2.138a1.66 1.66 0 0 0-.179-.738l-.214-.424c-.074-.153-.212-.267-.255-.215l-.128.171-.128.899c-.005.034-.051.138-.131.299a1.51 1.51 0 0 1-.296.426c-.233.228-.427.302-.785.302-.66 0-1.403-.354-3.403-1.629-2.023-1.287-3.85-1.961-5.299-1.961-3.076 0-5.556 2.477-5.556 5.544 0 4.279 2.61 6.213 10.809 8 3.12.678 4.49 1.593 4.49 2.979 0 1.267-1.022 2.064-2.647 2.064-.491 0-.878-.029-1.156-.085s-1.743-.456-4.404-1.201c-1.833-.508-3.889-.795-5.704-.795-3.217 0-5.383.956-6.859 3.021-.172.245-.341.388-.454.388-.087 0-.215-.06-.358-.173l-.596-.471c-.422-.329-1.089-.584-1.534-.584-.324 0-.632.129-.905.373-.211.193-.369.296-.434.296-.241 0-.679-.536-1.015-1.237-.48-1.002-.73-1.997-.73-2.909 0-.427.134-.724.323-.724.147 0 .26.113.321.34l.341 1.239c.191.694.578 1.24.872 1.24.131 0 .361-.187.621-.511.16-.195.274-.398.345-.601.267-.782.333-.896.543-.896.25 0 .379.154.546.936.034.144.081.36.279.733.173.323.346.585.513.768.128.14.289.219.442.219.375 0 .721-.628.721-1.319l-.008-.182-.053-.793c0-.307.048-.4.22-.4.101 0 .178.053.299.208a2.24 2.24 0 0 0 .728.597c.26.142.469.215.608.215.125 0 .272-.08.415-.215.116-.108.18-.229.18-.334 0-.127-.153-.32-.607-.775-.241-.246-.534-.831-.855-1.707-.12-.336-.281-.564-.402-.564-.033 0-.131.031-.281.091l-.555.211-.385.171-.146.031c-.182 0-.328-.13-.328-.293s.388-.625.859-1.016a1.57 1.57 0 0 0 .555-1.154c.027-.719.159-1.285.299-1.285l.129-1.495a15.34 15.34 0 0 1 .641-2.945c.052-.158.121-.263.171-.263.119 0 .227.323.227.678l-.013.221-.024.432c0 .542.087.822.255.822.186 0 .396-.27.583-.741l.382-.982c.113-.29.172-.56.172-.798 0-.831-.498-1.435-1.189-1.435l-.309.053c-.164.057-.267.086-.302.086-.225 0-.414-.247-.414-.538l.033-.616-.041-.855-.172-.896-.045-.43-.383.212-.472.385-.681.554-.557.471c-.098.084-.209.131-.317.131-.327 0-.367-.089-.367-.754v-.167c0-.539-.234-.96-1.109-1.987l-.217-.257-.168.301-.471.768-.47 1.195-.088.769c-.021.22-.107.392-.193.392s-.236-.112-.403-.306c-.653-.747-.86-.883-1.839-1.237l-.084.297c-.156.506-.242.806-.257.901l-.046.81v.341l.004.272c0 .236-.087.375-.232.375l-.028-.006c-.015-.005-.101-.08-.256-.213-.099-.09-.281-.133-.518-.133-.794 0-1.302.431-1.302 1.115 0 .512.175.893.963 2.093.349.532.753.95.913.95.106 0 .194-.281.194-.608l-.079-.514c-.081-.245-.121-.468-.121-.654 0-.237.069-.369.201-.369.384 0 .781 1.108.947 2.65l.168 1.581c.064.563.237 1.139.515 1.709.39.797.771 1.34 1.11 1.579.411.288.662.572.662.73 0 .133-.108.256-.225.256-.013 0-.304-.104-.864-.303l-.359-.051c-.854 0-1.14.489-1.14 1.957 0 1.779 1.199 4.336 2.527 5.404l1.964 1.583c.998.798 1.753 2.129 1.753 3.078 0 1.25-1.37 2.478-3.717 3.332l-1.411.509c-1.095.399-1.535 1.107-1.966 3.163.558-.172.804-.216 1.178-.216l.19.005.635.013c.573 0 .989-.345.989-.825v-.385c0-.116.159-.273.385-.386l.596-.298.473-.384c.073-.06.158-.097.238-.097.128 0 .234.124.234.266 0 .105-.032.24-.087.385-.147.378-.227.893-.227 1.469 0 1.046.167 1.611.696 2.378.049-.284.092-.468.128-.555.087-.216.332-.603.727-1.153.645-.905 1.121-2.008 1.121-2.602l-.013-.181-.127-.981c0-.178.08-.345.213-.47a.46.46 0 0 1 .292-.125c.182 0 .295.108.437.425.101.238.222.384.304.384.15 0 .443-.392.632-.854.143-.339.215-.644.215-.904a1.48 1.48 0 0 0-.128-.549c-.087-.214-.136-.38-.136-.485s.035-.163.178-.283c.071-.053.143-.087.217-.087a.49.49 0 0 1 .253.087l.383.257c.131.086.247.131.343.131.173 0 .417-.193.6-.475.37-.57.605-1.04.605-1.216 0-.115-.07-.196-.307-.363-.851-.6-1.41-1.509-1.41-2.286a1.8 1.8 0 0 1 .128-.619l.427-1.155.341-.9.126-.047c.146 0 .234.121.234.33a1.45 1.45 0 0 1-.101.487c-.104.281-.179.621-.179.812 0 .308.157.473.446.473.211 0 .455-.058.714-.17 1.294-.56 2.316-.861 2.934-.861.582 0 .943.128 1.554.558.161.114.297.173.394.173.074 0 .167-.065.247-.173.054-.072.086-.148.086-.212 0-.155-.091-.354-.257-.556-.22-.271-.303-.438-.303-.605 0-.135.089-.22.23-.22.671 0 1.721 2.121 2.725 5.483.787 2.653 1.008 2.922 3.544 4.36 2.146 1.211 2.961 2.411 2.961 4.363 0 1.919-.531 4.379-1.639 7.602-.348 1.019-.501 1.709-.501 2.277 0 .452.087.889.42 2.039.155.548.254.88.297.982.049.127.163.339.341.642m-9.906-5.98c.254-.592.334-.732.81-1.456.693-1.043.941-1.596.941-2.091v-.686c0-.643.116-.941.372-.941a.26.26 0 0 1 .227.132l.216.34a.35.35 0 0 0 .3.173c.127 0 .357-.167.482-.358.308-.468.499-1.064.499-1.525l-.044-.471-.042-.482c0-.259.106-.371.351-.371.167 0 .236.066.379.385.091.207.216.342.322.342.117 0 .251-.095.359-.258l.34-.513.259-.386.064-.206c0-.117-.092-.227-.322-.392-.792-.57-1.138-1.448-1.193-3.035-.047-1.203-.114-1.989-.214-2.35-.025-.081-.281-.693-.771-1.834a11.68 11.68 0 0 1-.515-1.539c-.101-.395-.223-.516-.531-.516-1.164 0-2.04.992-2.04 2.303 0 .773.321 1.986.907 3.469.822 2.074 1.041 2.814 1.041 3.548 0 1.569-.627 2.253-2.794 3.031-2.448.878-3.595 2.139-4.017 4.401l.427-.171.595-.215.685-.17c.588-.144 1.059-.478 1.153-.811l.173-.596a.43.43 0 0 1 .257-.299l.385-.17.385-.173.084.173-.169.556c-.059.184-.088.516-.088.996 0 .935.184 1.485.728 2.165M9.646 90.661l.087.479c0 .134-.059.504-.173 1.103l-.076.867c0 .764.136 1.579.374 2.253.219.615.274.808.274.975l-.015.18c-.039.177-.106.306-.166.306-.084 0-.237-.095-.435-.268-.491-.424-1.024-.645-1.579-.645-.179 0-.427.031-.728.089l.214.471.64 1.585.899 1.365.935.644c.095.06.18.147.259.253.086.12.13.218.13.283 0 .078-.074.141-.17.147l-.857.041c-.132.006-.236.086-.236.181 0 .146.124.577.365 1.272l.429 1.241.726.681.767.558c.228.163.364.348.364.484 0 .119-.073.236-.15.244l-.426.04c-.14.013-.219.135-.219.344 0 .319.299.898.858 1.664.661.901 1.127 1.198 1.881 1.198h.642c.306 0 .493.15.493.392 0 .201-.128.318-.41.379-.592.122-.77.242-.77.516 0 .109.076.272.216.466l.344.471c.282.391.604.647.81.647.116 0 .385-.12.624-.393.381-.44.82-.798 1.384-.937 1.484-.377 1.795-.531 1.795-.877 0-.121-.057-.292-.17-.491-.473-.848-.641-1.396-.641-2.093 0-.531-.138-.904-.333-.904-.079 0-.211.132-.351.345-.35.54-.949.901-1.495.901-1.48 0-3.262-2.317-4.146-5.387a8.54 8.54 0 0 1-.314-2.306c0-.804.109-1.708.314-2.611l.469-2.094.056-.579c0-1.06-.976-2.423-2.491-3.481m3.08 5.941c-.315.596-.604 1.935-.604 2.784 0 .499.163.893.373.893.069 0 .156-.081.231-.213l.47-.858.306-.522c.17-.253.296-.5.296-.634 0-.507-.468-1.133-1.072-1.449m4.7 19.274l.213.213.343.34c.832.864.958.948 1.36.948.372 0 1.149-.212 1.589-.432.185-.094.297-.208.297-.295 0-.057-.154-.231-.425-.473l-.469-.431c-.358-.32-.886-.621-1.137-.621-.49 0-.994.218-1.77.752"/>
        <path d="M27.341 123.61c.457.191.618.268.855.428l.681.425c.131.056.363.086.678.086a1.47 1.47 0 0 0 .519-.086l.901-.34.854-.299c.23-.082.386-.213.386-.331 0-.061-.193-.155-.472-.226a5.14 5.14 0 0 1-.642-.212c-1.051-.426-1.205-.484-1.578-.484-.837 0-1.681.406-2.181 1.039m10.811 8.591c.284-.687.482-.805 1.451-.858 1.098-.06 2.141-2.025 2.141-3.355 0-.132-.044-.242-.101-.242s-.155.049-.29.141l-.639.381-1.24.554c-.828.368-1.555 1.474-1.555 2.344 0 .292.057.539.231 1.036"/>
    </g>
    <path d="M19.692 95.062l.423.601c.094.134.833.668.927.668.127 0 .199-.094.271-.37l.17-.644.046-.713c0-.563-.247-.776-1.414-1.078-.289-.077-.408-.065-.597-.217-.178-.141-.41-.259-.511-.259s-.176.051-.176.117l.047.189.213.638.601 1.069m4.571-.006l-.558.99-.213.234-.042.007c-.227 0-.456-.52-.473-1.058l-.081-.85c.066-.352.274-.508.809-.6.433-.077.726-.16.857-.254l.683-.472.072-.013c.115 0 .196.081.196.209l-.014.059-.297.73-.94 1.018M23.15 97.97l.683-.341c.122-.06.231-.093.325-.093.333 0 .58.246.58.695 0 .489-.382 1.145-.905 2.086-.564 1.022-.99 1.715-1.426 1.715-.614 0-1.486-.978-2.333-2.612-.2-.382-.326-.841-.326-1.189 0-.539.237-.823.691-.823a.87.87 0 0 1 .49.133l.384.258c.336.22.716.34 1.088.34a1.68 1.68 0 0 0 .749-.169"
          class="C"/>
    <path d="M22.169 98.993l-.472-.083-.07-.005c-.273 0-.407.155-.407.462 0 .432.336 1.229.777 1.852a.41.41 0 0 0 .327.181c.278 0 .472-.526.614-1.381l.127-.639.011-.122c0-.264-.079-.354-.294-.354l-.101.007"
          class="B"/>
    <path d="M117.595 110.148c.744.986 1.79 1.628 2.65 1.628.265 0 .726-.068 1.151-.175.234-.06.422-.084.568-.084.209 0 .295.078.295.269 0 .147-.101.513-.22.801-.133.321-.221.579-.255.768l-.169.896-.43.768-.597.556-.171.175v.382.193c0 1.045-.308 1.635-1.154 2.202a3.49 3.49 0 0 0-.299.213l-.087.346-.427 1.491c-.107.228-.381.628-.812 1.198-.517.677-.854 1.228-1.068 1.752-.175.43-.309.552-.59.552-.421 0-.836-.528-.909-1.15a1.83 1.83 0 0 1-.214.258l-.509.34-.817.553-.68.512-.47.472c-.083.083-.169.129-.246.129-.215 0-.44-.366-.652-1.072l-.427-1.405c-.116-.378-.173-.844-.173-1.382 0-.708.047-.959.301-1.527-.855.09-1.096.141-1.538.302a1.45 1.45 0 0 1-.372.083c-.143 0-.228-.098-.228-.263 0-.094.075-.39.169-.634l.558-1.451c.433-1.128 1.822-2.154 2.928-2.154.262 0 .627.076 1.091.229.279.091.501.135.646.135.496 0 .892-.365.892-.816 0-.228-.151-.473-.343-.557-.07-.037-.584-.192-1.535-.471-.72-.213-1.076-.478-1.883-1.413-.586-.677-.815-.868-1.029-.868-.164 0-.252.107-.252.301l.041.568.015.265c0 1.186-.354 2.32-1.21 3.884l-1.198 2.176c-.569 1.035-.81 1.82-.81 2.608 0 .861.37 1.622.852 1.754l.644.168a.46.46 0 0 1 .212.133c.082.085.132.175.132.245 0 .091-.079.236-.216.396-.076.082-.331.414-.772.981-.737.962-1.198 1.308-2.093 1.581-.516 1.254-1.359 1.983-2.863 2.48l-.17.296c-.509.899-1.639 1.714-2.36 1.714h-.162c-.096.78-.654 1.595-1.496 2.181l-.982.721c-.052.06-.124.187-.211.385-.193.427-.37.603-.61.603-.457 0-.833-.427-1.099-1.243l-.387.255-.813.555c-.195.095-.696.24-1.495.429-1.048.245-1.956.691-2.181 1.071l-.384.637-.176.074c-.208 0-.449-.293-.552-.672-.236-.887-.386-1.809-.386-2.4 0-1.518.502-2.504 2.055-4.054l-.005-.368c0-2.358 1.801-3.958 4.45-3.958l.427.012 1.452.087.137.005c.784 0 1.511-.299 2.298-.948 1.044-.854 1.348-1.379 1.348-2.337 0-.304-.084-.651-.41-1.721-.21-.707-.315-1.369-.315-2.009 0-1.764 1.294-3.958 3.053-5.17.453-.317.789-.728.789-.969 0-.099-.053-.179-.12-.179-.113 0-.306.117-.543.333-.205.187-.551.404-1.027.645l-.682.34-.77.302c-.235.089-.355.22-.355.38 0 .095.037.228.099.388.055.14.085.246.085.313 0 .095-.073.267-.217.497l-.595.983c-.586.964-1.008 1.375-1.755 1.708-.48 1.408-1.168 2.121-2.175 2.269-.807 1.626-1.52 2.19-2.95 2.347-.198.628-.541 1.145-1.281 1.967-.306.332-.492.563-.555.685-.334.599-.365.639-.519.639-.195 0-.643-.294-.98-.639-.153-.163-.283-.332-.384-.516l-.386-.681c-.124-.222-.253-.322-.412-.322l-.272.017-.94.132c-.59.079-1.43.566-1.71.983l-.513.771c-.054.078-.128.127-.205.127-.384 0-.617-.843-.617-2.241 0-1.228.188-2.043.61-2.63l1.197-1.667c.166-.232.257-.462.257-.651s-.075-.383-.213-.548c-.255-.299-.497-.483-.684-.515l-.898-.122c-.161-.026-.227-.065-.227-.134 0-.077.047-.179.14-.294a4.09 4.09 0 0 1 1.069-.943c1.059-.647 1.755-.903 2.467-.903.724 0 1.513.26 2.235.733l1.239.81c.175.117.38.177.597.177.573 0 1.005-.34 1.408-1.115.393-.745.564-1.346.564-1.981 0-1.607-1.147-2.763-2.74-2.763-.741 0-1.498.289-2.223.854-.22.169-.363.33-.428.47l-.341.771c-.079.183-.204.297-.306.297-.215 0-.699-.617-1.104-1.411-.21-.415-.416-.928-.597-1.54-.254-.835-.365-1.463-.365-2.13l.064-1.158c-.581-.907-.773-1.569-.773-2.646 0-.391.059-.691.303-1.502-.358-.592-.469-1.039-.469-1.903l.041-.535.128-.595.086-.512c-.411-.538-.53-.901-.941-2.776-.226-1.061-.368-1.523-.549-1.797-.087-.121-.131-.212-.131-.256 0-.249.595-.475 1.279-.475l.602.047c-.151-.396-.181-.549-.181-.862 0-.527.107-1.116.309-1.702.225-.653.272-.833.272-1.047 0-.505-.078-1.021-.187-1.302l-.341-.854c-.078-.194-.111-.327-.111-.442 0-.087.057-.117.213-.117.839 0 2.441.906 3.697 2.094 1.251 1.182 1.658 2.135 1.658 3.895l-.073.936c1.163 1.021 1.671 1.865 1.671 2.779 0 .669-.217 1.115-.86 1.746-1.152 1.147-1.412 1.746-1.412 3.221 0 2.269.678 3.495 1.93 3.495 1.102 0 1.949-1.194 2.089-2.948l.128-1.627c.034-.422.106-.933.213-1.537.072-.385.131-.899.131-1.115 0-.577-.378-1.304-1.497-2.607-1.198-1.405-1.606-2.159-1.606-3.254 0-1.315.908-2.276 2.144-2.276.306 0 .46.046.829.234.018-.743.052-.881.472-1.927.333-.821.687-1.406.855-1.406.054 0 .146.061.254.172.185.182.372.339.558.466l.427.301c.094.077.222.207.383.386.266-.956.54-1.409 1.327-2.181.598-.586.82-.768.936-.768.091 0 .2.079.305.213l.513.68.724.815c.278.307.378.577.514 1.321l.426-.254.682-.384a4.84 4.84 0 0 0 .517-.344c.117-.083.212-.133.269-.133.071 0 .152.125.201.306l.254.982.558 1.113c.166.331.215.589.215 1.099l-.001.267.287-.009c.84 0 1.568.996 1.568 2.143 0 1.523-1.213 3.491-2.795 4.533-.146.514-.18.721-.18 1.135 0 3.398.894 4.112 6.118 4.891 1.307.196 2.479.436 3.504.725l3.378 1.113c1.155.385 1.931.556 2.531.556.635 0 .989-.183.989-.518 0-.583-.856-1.107-3.476-2.133l-3.719-1.452c-3.781-1.479-5.565-3.787-5.565-7.182 0-3.956 2.967-6.925 6.93-6.925 1.493 0 2.949.31 5.047 1.072l3.13 1.025c.521 0 .807-.355.887-1.109.068-.641.241-.901.594-.901.524 0 1.095.487 1.501 1.285.351.694.555 1.504.555 2.217 0 1.41-.741 2.335-2.093 2.608-.904 1.183-2.049 1.771-3.442 1.771-1.702 0-2.546-.338-5.451-2.153-1.038-.654-1.482-.811-2.245-.811-1.018 0-1.773.631-1.773 1.488 0 .783.633 1.297 2.054 1.675.847.221.97.285 1.411.723.344-.081.496-.104.71-.104 1.389 0 3.1.748 4.546 1.987 2.635.813 4.977 3.654 4.977 6.039 0 2.635-2.284 4.996-4.837 4.996-.687 0-2.062-.216-3.302-.523"
          class="C"/>
    <g class="B">
        <path d="M116.055 121.985l.171-.47.173-.602c.033-.108.192-.352.469-.721.434-.571.654-1.287.654-2.125 0-.264-.067-.509-.227-.827-.084-.168-.13-.302-.13-.396 0-.059.032-.127.089-.199s.115-.12.172-.128l.027-.005c.109 0 .294.127.44.301.182.22.341.344.436.344.193 0 .395-.325.506-.811l.086-.428c0-.207-.173-.744-.385-1.197-.083-.172-.123-.318-.123-.433 0-.153.101-.276.235-.276.125 0 .328.133.568.365.118.113.234.173.325.173.267 0 .46-.273.662-.941l.171-.668c0-.125-.054-.198-.152-.198l-.149.012-.507.053c-.78 0-1.882-.538-2.399-1.161l-1.197-1.453-1.067-1.413-.985-.641c-.159-.106-.255-.234-.255-.348 0-.161.161-.268.407-.268.227 0 .926.249 2.202.788 1.23.521 3.168.946 4.331.946 2.044 0 3.727-1.654 3.727-3.659 0-1.097-.49-2.11-1.692-3.526-.225-.266-.611-.524-.79-.524-.14 0-.237.104-.237.253 0 .117.046.282.131.482a1.06 1.06 0 0 1 .083.392c0 .195-.072.309-.204.309-.269 0-.549-.44-.778-1.21-.282-.954-.841-1.521-2.14-2.18-.494-.255-1.142-.482-1.351-.482-.084 0-.141.074-.141.188 0 .161.06.335.169.507.188.288.308.566.344.815l.001.039c0 .167-.085.259-.238.259-.275 0-.336-.071-.961-1.027-.322-.491-1.182-1.141-1.925-1.453a2.17 2.17 0 0 0-.727-.173l-.025-.001c-.155 0-.274.074-.274.168 0 .034.067.172.192.392l.064.241c0 .132-.087.232-.202.232-.256 0-1.051-.651-1.677-1.37-.679-.784-1.113-1.777-1.113-2.558 0-1.634 1.561-3.087 3.308-3.087.441 0 .814.078 1.094.219l1.494.768 1.755 1.158c1.008.66 2.39 1.156 3.225 1.156.312 0 .546-.043 1.346-.266.42-.114.679-.28.679-.432l-.017-.035-.148-.086-.941-.081c-.523-.053-1.709-.587-2.648-1.203l-1.967-1.279-1.751-.729c-.133-.052-.219-.139-.219-.224s.091-.163.201-.163c.001 0 .166.034.485.087l1.624.473c.41.116 1.066.417 1.967.896 1.782.948 2.943 1.367 3.797 1.367.988 0 1.714-.679 1.714-1.599 0-.309-.069-.814-.168-1.221a1.7 1.7 0 0 0-.259-.556c-.074-.108-.154-.168-.209-.168-.123 0-.193.129-.193.347l.02.293.017.248c0 .789-.308 1.067-1.179 1.067-.711 0-1.663-.285-3.839-1.147-2.035-.801-3.309-1.109-4.574-1.109-3.219 0-6.038 2.625-6.038 5.619 0 2.584 1.718 4.563 5.228 6.006l3.63 1.495c3.005 1.234 4.11 2.121 4.11 3.289 0 .974-.908 1.601-2.32 1.601-.61 0-1.37-.168-2.771-.616-3.401-1.083-5.611-1.532-7.557-1.532-3.171 0-5.428.867-7.23 2.772-.239.252-.379.328-.589.328-.145 0-.291-.057-.61-.243s-.682-.307-.939-.307c-.313 0-.798.268-1.027.565l-.427.555c-.125.163-.264.26-.378.26-.309 0-.857-.527-1.203-1.157-.211-.384-.354-.759-.426-1.112-.056-.27-.089-.707-.089-1.172l.043-.794.13-.851.13-.728c.032-.103.115-.169.205-.169.222 0 .319.202.319.669l-.012.269-.008.193c0 1.216.482 2.331 1.012 2.331.417 0 .784-.747 1.09-2.227.062-.297.181-.469.327-.469.171 0 .274.219.402.856.079.414.349.988.64 1.367.166.215.343.344.487.344.349 0 .575-.525.749-1.754.071-.478.211-.775.376-.775a.23.23 0 0 1 .18.092c.031.034.13.192.302.47.104.175.267.319.469.425.213.111.385.172.496.172a.62.62 0 0 0 .4-.172c.192-.17.299-.299.299-.35 0-.062-.087-.197-.255-.377-.281-.301-.497-.705-.768-1.413l-.383-.981c-.067-.156-.141-.259-.216-.298l-.136-.035-.251.035-.895.253-.279.044c-.121 0-.2-.08-.2-.203 0-.115.153-.322.351-.478 1.081-.86 1.725-2.303 1.965-4.402.146-1.276.311-1.76.854-2.522.115-.159.213-.255.268-.255.167 0 .257.129.257.377 0 .165-.047.371-.139.607a1.5 1.5 0 0 0-.093.518l.007.163.086.259.471-.173.51-.595c.306-.355.561-1.159.561-1.751 0-.409-.099-.695-.343-.984-.27-.32-.458-.449-.65-.449l-.292.021-.303.022c-.275 0-.414-.083-.414-.253l.074-.325.045-.47-.255-1.067-.214-.516-.131-.427-.299.214-.641.383a2.15 2.15 0 0 0-.514.471c-.607.737-.645.772-.889.772-.155 0-.243-.056-.243-.163l.023-.181c.087-.392.128-.687.128-.887 0-.745-.541-1.868-1.195-2.488-.893.853-1.372 1.793-1.372 2.694v.513c0 .195-.064.297-.194.297h-.015c-.106-.016-.213-.097-.302-.215l-.511-.682c-.039-.052-.267-.237-.687-.557l-.34-.296-.173.339c-.422.848-.57 1.356-.596 2.052-.02.57-.067.736-.201.736-.065 0-.157-.031-.27-.096-.648-.362-.707-.387-.988-.387-.768 0-1.294.551-1.294 1.359 0 .315.178.794.531 1.422.39.698.98 1.336 1.235 1.336.075 0 .089-.051.089-.263l-.001-.089-.041-.727-.087-.558-.005-.073c0-.165.064-.239.193-.239.386 0 .725 1.132 1.011 3.39.249 1.985.797 3.355 1.664 4.147.221.202.348.367.348.463 0 .071-.075.136-.17.136-.126 0-.32-.077-.561-.215-.156-.09-.313-.137-.464-.137-.427 0-.904.499-.99 1.035l-.385 2.433-.299 3.422c-.056.647.031 1.515.256 2.563.198.922.301 1.601.301 2.023 0 2.561-1.595 4.589-4.234 5.37l-2.734.809c-1.704.506-2.542 1.629-2.777 3.717.438-.347.572-.402 1.241-.509l.808-.128c.344-.057.59-.132.728-.215.077-.047.234-.207.472-.472l.726-.809c.274-.31.522-.484.673-.484.101 0 .183.114.183.246 0 .156-.106.406-.302.707-.201.315-.313.697-.313 1.101 0 .544.145.891.698 1.677.07-.259.127-.43.173-.515.071-.135.284-.435.641-.896.592-.766 1.017-1.565 1.023-1.926.012-.661.071-.877.239-.877.143 0 .169.033.234.408a.54.54 0 0 0 .128.259c.099.108.195.171.26.171.054 0 .171-.06.34-.171.293-.198.522-.4.68-.597a2.76 2.76 0 0 0 .427-.77c.143-.375.219-.648.219-.808l-.005-.552c0-.147.06-.266.141-.266.101 0 .32.224.459.472.094.166.153.215.274.215h.025c.155-.017.288-.08.383-.173.521-.509.859-1.135.859-1.603l-.045-.788-.171-.646-.008-.055c0-.134.097-.246.207-.246.192 0 .405.275.697.902.137.297.263.432.39.432.204 0 .363-.152.765-.733l.384-.553a.75.75 0 0 0 .128-.431.76.76 0 0 0-.128-.422l-.344-.514c-.055-.089-.085-.236-.085-.429 0-.581.211-1.238.643-2.006l.555-1.07c.067-.177.142-.259.237-.259.075 0 .146.103.146.215l-.04.472v.343.339c.057.157.161.219.368.219a1.45 1.45 0 0 0 .444-.088l1.067-.385a7.35 7.35 0 0 0 .983-.472c1.675-.927 2.192-1.12 3.017-1.12.492 0 1.125.191 2.027.607.185.086.334.133.44.133.125 0 .259-.08.373-.215a.51.51 0 0 0 .126-.326c0-.156-.058-.339-.171-.53-.136-.236-.261-.534-.261-.638 0-.116.074-.188.196-.188.098 0 .244.103.322.227l.982 1.707c.795 1.417 1.833 2.404 2.737 2.608l1.879.43c.582.131.73.357.73 1.082 0 1.327-.629 2.495-1.711 3.189l-1.54.987c-.559.354-1.027 1.339-1.027 2.155 0 .529.128 1.461.299 2.201l.299-.297.728-.428.642-.642.341-.941.34-.856c.168-.413.365-.683.497-.683.149 0 .233.233.233.654l-.005.117-.002.16c0 .615.083.884.558 1.806M90.75 134.176c0-2.033.737-2.92 3.682-4.414 5.807-2.945 8.94-5.647 8.94-7.699 0-.413-.135-1.02-.519-2.302-.235-.789-.368-1.449-.368-1.856 0-.946.778-2.38 1.779-3.269l.811-.727c.445-.4.776-.976.776-1.349l-.007-.193-.011-.254c0-.422.165-.581.608-.6l.385-.039c.195-.061.309-.089.329-.089.138 0 .273.081.358.215l.21.343.299.339c.097.11.198.174.274.174.053 0 .169-.043.325-.127.205-.115.365-.163.518-.163.224 0 .336.12.336.368 0 .858-.557 2.099-1.54 3.423-1.639 2.22-2.178 3.414-2.178 4.836 0 1.115.319 2.092.941 2.899.11.147.172.257.172.315 0 .115-.106.306-.3.539a4.9 4.9 0 0 0-.259.344c-.341.491-.568.685-.793.685-.168 0-.328-.138-.403-.346l-.17-.466c-.05-.133-.147-.22-.241-.22-.033 0-.105.07-.187.177-.111.142-.169.307-.169.469v.727c0 .287-.105.589-.301.854a3.58 3.58 0 0 1-.598.639c-.161.141-.281.216-.336.216-.122 0-.244-.137-.305-.342l-.258-.856c-.037-.125-.123-.212-.214-.212-.143 0-.263.241-.301.6-.087.969-.255 1.556-.509 1.794l-.601.551c-.193.185-.418.314-.541.314s-.231-.055-.271-.141l-.3-.643c-.035-.078-.108-.131-.189-.131-.173 0-.301.34-.365.987-.154 1.535-.476 2.228-1.325 2.821-.665.473-.81.628-1.067 1.197a2.73 2.73 0 0 1-.518-1.705c0-.354.056-.613.176-.812.179-.32.276-.565.276-.709 0-.106-.068-.189-.153-.189-.039 0-.116.06-.213.168-.12.141-.307.282-.555.43-.768.443-.883.601-1.068 1.453-.247 1.149-.795 1.683-1.963 1.917-1.447.297-1.534.333-2.054.816l-.05-.759M87.98 90.105v.428l.005.633c0 .227-.021.387-.092.693-.137.594-.17.798-.17.966 0 .818.114 1.221.596 2.064.268.467.441 1.03.441 1.436 0 .172-.07.273-.187.273-.071 0-.152-.043-.208-.123l-.341-.473c-.273-.375-.531-.474-1.225-.474l-.741.047c.296.729.392 1.007.512 1.495.346 1.396.395 1.497 1.155 2.181s.834.776.834 1.023c0 .194-.133.345-.294.345l-.284-.044-.168-.017c-.232 0-.446.427-.446.904 0 .273.109.707.273 1.078.105.251.208.426.297.516l.428.426a.61.61 0 0 1 .173.437c0 .208-.121.382-.26.382-.086 0-.218-.051-.384-.138a.69.69 0 0 0-.3-.085c-.19 0-.282.117-.282.352l.069.635.259 1.107c.056.25.215.528.468.817.219.247.44.419.642.511l.857.385c.081.06.126.187.126.341 0 .16-.126.298-.284.298-.047 0-.195-.031-.442-.086l-.434-.042c-.434 0-.464.024-.464.36a2.72 2.72 0 0 0 .086.664l.171.683c.182.723.416 1.115.672 1.115.056 0 .164-.063.309-.173.619-.474 1.861-.897 2.641-.897.802 0 1.718.098 2.062.213.195.068.334.104.409.104.105 0 .139-.105.146-.486l.088-.769.171-1.326.127-.983v-.557l-.345.299c-.725.682-1.183.896-1.935.896-1.966 0-3.094-2.208-3.094-6.063 0-1.59.234-3.839.673-6.417.092-.542.134-.919.134-1.185 0-1.405-.89-2.779-2.441-3.771m2.902 9.575l.384-.382.384-.344c.32-.28.576-.875.576-1.314a1.35 1.35 0 0 0-.146-.608c-.148-.32-.434-.607-.607-.607-.146 0-.276.352-.333.904l-.087.642-.127.641-.044.641v.427m-3.761 17.48c.439.161.53.234.982.768.593.689.921.853 1.708.853a2.18 2.18 0 0 0 .605-.082l.551-.172.427-.131c.204-.056.342-.147.342-.216 0-.09-.336-.374-.854-.721a8.15 8.15 0 0 0-1.025-.599c-.369-.181-.675-.266-.98-.266-.601 0-1.181.186-1.756.566m5.77 12.027c0-1.379 1.357-2.511 3.01-2.511.827 0 1.308.166 1.308.447 0 .219-.365.516-1.155.935l-1.24.685-1.881.939-.043-.494"/>
        <path d="M110.288 118.821c.607-.124.81-.281 1.11-.293l.77.039c.094-.032.267-.152.511-.342l.598-.426c.856-.583.902-.622.902-.807 0-.238-.346-.353-1.067-.353-1.346 0-2.167.631-2.823 2.182"/>
    </g>
    <path d="M97.38 92.799l.6.385a5.63 5.63 0 0 0 .853.468c.66.272.899.368.899.622 0 .094-.027.319-.085.487a2.63 2.63 0 0 0-.128.6c-.061.581-.413.728-.645.728-.288 0-.59-.447-1.066-1.283a9.9 9.9 0 0 1-.682-1.707l-.025-.167c0-.104.063-.166.183-.166m5.865 1.522l-.981.989c-.348.462-.348.862-.427.94a.57.57 0 0 1-.302.128l-.063.005a.44.44 0 0 1-.449-.431l-.04-.727-.045-.729v-.043a.44.44 0 0 1 .378-.474l.908-.252.936-.472c.273-.133.357-.169.405-.169.109 0 .201.113.201.247a.68.68 0 0 1-.093.268l-.429.72m-4.314 2.908l.64.474c.159.094.358.144.573.144.26 0 .646-.103 1.009-.273l.557-.254c.128-.059.241-.091.331-.091.343 0 .612.36.612.815 0 .631-.456 1.279-1.117 2.22l-.467.987c-.374.534-.62.727-.926.727-.508 0-.753-.289-1.513-1.799-.547-1.079-.769-1.741-.769-2.266 0-.452.235-.766.573-.766.139 0 .309-.034.496.082"
          class="C"/>
    <path d="M99.392 99.551l.042.814c.018.367.325.732.621.732.394 0 .675-.596.829-1.5l.097-.594c0-.314-.105-.4-.509-.4l-.226.008h-.3l-.192-.008c-.268 0-.37.209-.37.753"
          class="B"/>
    <path d="M51.271 80.205h4.178v8.577h4.916v-8.491h12.41v8.491h4.911v-8.491h4.183V58.139h-4.783l-.175-.258c-.57-.857-1.348-1.297-2.308-1.297-.942 0-1.738.551-2.257 1.555h-3.449c-.333-.9-1.303-1.555-2.309-1.555a2.57 2.57 0 0 0-2.43 1.555h-3.706c-.614-1.101-1.298-1.552-2.37-1.552-1.079 0-1.776.475-2.287 1.552h-4.525v22.066"
          class="C"/>
    <path d="M53.058 78.582h27.174V59.957H53.058v18.625" fill="#ef2e31"/>
    <path d="M55.882 64.217c-.713 0-1.293.581-1.293 1.29s.58 1.296 1.293 1.296a1.3 1.3 0 0 0 1.295-1.296c0-.709-.58-1.29-1.295-1.29"
          class="B"/>
    <path d="M55.882 64.392c-.616 0-1.117.5-1.117 1.115a1.12 1.12 0 0 0 1.117 1.12 1.12 1.12 0 0 0 1.12-1.12 1.12 1.12 0 0 0-1.12-1.115zm0 2.586a1.47 1.47 0 0 1-1.468-1.471 1.47 1.47 0 0 1 1.468-1.466 1.47 1.47 0 0 1 1.47 1.466c0 .81-.66 1.471-1.47 1.471"
          class="D"/>
    <path d="M77.215 64.217c-.713 0-1.294.581-1.294 1.29a1.3 1.3 0 0 0 1.294 1.296 1.3 1.3 0 0 0 1.294-1.296c0-.709-.58-1.29-1.294-1.29"
          class="B"/>
    <path d="M77.215 64.392a1.12 1.12 0 0 0-1.119 1.115 1.12 1.12 0 0 0 1.119 1.12 1.12 1.12 0 0 0 1.119-1.12 1.12 1.12 0 0 0-1.119-1.115zm0 2.586c-.81 0-1.469-.66-1.469-1.471a1.47 1.47 0 0 1 1.469-1.466 1.47 1.47 0 0 1 1.469 1.466c0 .81-.659 1.471-1.469 1.471"
          class="D"/>
    <path d="M55.882 74.346c-.713 0-1.293.578-1.293 1.293s.598 1.29 1.34 1.29c.687 0 1.248-.575 1.248-1.29s-.58-1.293-1.295-1.293"
          class="B"/>
    <path d="M55.882 74.521a1.12 1.12 0 0 0-1.117 1.118c0 .615.522 1.115 1.164 1.115.592 0 1.073-.5 1.073-1.115a1.12 1.12 0 0 0-1.12-1.118zm.047 2.583c-.835 0-1.515-.657-1.515-1.465a1.47 1.47 0 0 1 1.468-1.468 1.47 1.47 0 0 1 1.47 1.468c0 .808-.639 1.465-1.423 1.465"
          class="D"/>
    <path d="M77.215 74.346c-.713 0-1.294.578-1.294 1.293s.582 1.29 1.294 1.29a1.29 1.29 0 0 0 1.294-1.29c0-.715-.58-1.293-1.294-1.293"
          class="B"/>
    <path d="M77.215 74.521a1.12 1.12 0 0 0-1.119 1.118 1.12 1.12 0 0 0 1.119 1.115 1.12 1.12 0 0 0 1.119-1.115 1.12 1.12 0 0 0-1.119-1.118zm0 2.583a1.47 1.47 0 0 1-1.469-1.465 1.47 1.47 0 0 1 1.469-1.468 1.47 1.47 0 0 1 1.469 1.468 1.47 1.47 0 0 1-1.469 1.465"
          class="D"/>
    <path d="M59.934 70.423c1.753 2.193 3.963 3.277 6.695 3.277 2.53 0 4.272-.906 6.319-3.277-2.043-2.096-3.944-2.974-6.445-2.974-2.627 0-4.996 1.074-6.569 2.974"
          class="B"/>
    <path d="M61.225 70.423c1.805-1.403 3.331-1.984 5.215-1.984 1.901 0 3.32.556 5.173 2.026-1.613 1.6-3.031 2.201-5.204 2.201-1.931 0-3.689-.763-5.184-2.242"
          class="C"/>
    <path d="M63.426 69.993c1.081.674 1.936.945 2.944.945a5.33 5.33 0 0 0 3.132-.945c-1.01-.484-2.059-.736-3.087-.736-1.075 0-2.087.247-2.99.736"
          class="B"/>
    <path d="M52.676 61.861h27.935v-.951H52.676v.951" class="C"/>
    <path d="M52.734 61.803h27.821v-.836H52.734zm27.935.115h-28.05v-1.066h28.05v1.066" class="D"/>
    <path d="M56.96 59.692v2.669c0 .637.497 1.121 1.149 1.121.753 0 1.18-.403 1.18-1.121v-.474-2.154c0-1.014-.415-1.642-1.079-1.642-.133 0-.342.053-.519.134-.143.067-.244.125-.301.169-.101.09-.19.205-.257.349-.113.23-.173.396-.173.476m8.402 2.671v.471c0 .635.501 1.121 1.149 1.121.754 0 1.18-.403 1.18-1.121v-.471-2.156c0-1.005-.415-1.646-1.069-1.646-.767 0-1.259.627-1.259 1.604m8.145 0v2.669c0 .637.499 1.121 1.15 1.121.753 0 1.18-.403 1.18-1.121v-.474-2.154c0-1.014-.415-1.642-1.077-1.642-.131 0-.343.053-.518.134a1.56 1.56 0 0 0-.302.169 1.09 1.09 0 0 0-.259.349c-.113.23-.173.396-.173.476M56.355 85.502h2.543V82.23h-2.543v3.272m0 1.772h2.543V86.24h-2.543v1.034m17.326-1.772h2.543V82.23h-2.543v3.272m0 1.772h2.543V86.24h-2.543v1.034"
          class="B"/>
    <g fill="#fff">
        <path d="M213.302 2.772v1.952h-1.277c-1.908 0-5.1 0-5.1 5.949v24.422c0 14.939-6.503 22.195-19.884 22.195-15.097 0-22.131-6.018-22.131-18.946v-27.67c0-5.949-3.225-5.949-6.073-5.949h-.6V2.772h22.584v1.952h-.605c-2.803 0-6.297 0-6.297 5.949v26.433c0 11.393 4.761 16.93 14.548 16.93 9.517 0 14.553-5.964 14.553-17.237V10.674c0-5.949-3.293-5.949-5.699-5.949h-1.205V2.772h17.187m24.399 51.41v1.952h-19.053v-1.952h.755c6.244 0 7.048-4.768 7.048-10.128V11.987c0-5.119-2.957-7.263-7.125-7.263h-.677V2.771h14.991l32.428 39.755V12.299c0-6.837-4.771-7.575-6.82-7.575h-1.355V2.771h19.255v1.953h-.832c-3.371 0-6.973.783-6.973 10.125V56.4l-2.831.014-36.791-44.517.011 32.127c0 5.357.768 10.159 7.225 10.159m102.961-9.363l11.727-32.801c2.101-5.585.753-7.296-4.103-7.296h-.981V2.772h15.189v1.951h-.333c-1.648 0-3.591.492-5.029 4.163l-17.787 47.45h-3.384L315.911 9.322c-1.535-3.913-3.344-4.599-6.58-4.599h-.452V2.772h22.063v1.951h-1.433c-3.775 0-4.503 2.364-3.431 5.24m102.885-4.677l-.012 23.619h4.569c8.311 0 11.973-3.697 11.973-12.365 0-7.044-4.531-11.593-11.368-11.593-1.596 0-3.783.124-5.163.339zm8.195-2.515c11.812 0 17.679 4.353 17.679 13.304 0 7.588-5.92 11.434-10.595 13.323l-.34.141 13.084 19.927c2.093 3.229 3.803 4.477 7.408 4.671v1.997h-13.661L434.86 31.082h-5.908v16.607c0 6.026 2.68 6.493 6.463 6.493h1.056v1.952h-23.2v-1.952h1.053c2.595 0 5.619-1.178 5.619-4.482V10.906c0-6.181-3.657-6.181-5.619-6.181h-1.053V2.771h23.888m55.444 43.238c0-6.503-5.577-9.064-10.781-11.771-6.085-3.171-13.101-6.448-13.101-16.296 0-9.541 7.257-15.699 17.632-15.699 4.237 0 9.055.848 11.157 1.275l.727 10.383-1.999.285c-.927-5.463-3.761-9.652-9.904-9.652-5.772 0-10.047 3.543-10.047 9.927 0 6.017 5.553 8.484 10.732 11.09 6.337 3.193 13.608 6.497 13.608 16.438 0 11.005-9.807 15.933-18.88 15.933-3.596 0-8.613-.733-12.636-3.011l-1.275-11.555 1.939-.341c1.48 7.669 6.344 12.116 12.763 12.116 6.145 0 10.065-3.748 10.065-9.121m38.061-43.238v1.952h-.751c-3.043 0-5.848.571-5.848 4.712v40.032c0 4.142 2.805 4.714 5.848 4.714h.751v1.951h-22.288v-1.951h.753c3.041 0 5.848-.571 5.848-4.714V9.436c0-4.141-2.807-4.712-5.848-4.712h-.753V2.772h22.288"/>
        <path d="M305.785 2.772v1.952h-.751c-3.04 0-5.848.571-5.848 4.712v40.032c0 4.142 2.808 4.714 5.848 4.714h.751v1.951h-22.284v-1.951h.753c3.035 0 5.848-.571 5.848-4.714V9.436c0-4.141-2.813-4.712-5.848-4.712h-.753V2.772h22.284M749.943 79.83l.183 14.163-2.263.582c-.507-6.19-1.909-11.246-11.812-11.246h-13.305v26.18h11.421c5.603 0 7.125-3.134 7.759-8.541h2.273v21.892l-2.267.034c-.351-5.236-1.583-9.301-7.719-9.301h-11.468v22.987c0 6.683 5.755 6.683 11.851 6.683 10.936 0 16.005-.687 19.063-11.752.445.113 2.243.499 2.243.499l-3.063 14.756h-49.683v-2.451h.947c3.812 0 7.336-.711 7.336-5.912V88.192c0-5.195-3.524-5.915-7.336-5.915h-.947V79.83h46.787m-281.032 3.15l-.005 29.633h5.719c10.419 0 15.012-4.643 15.012-15.52 0-8.826-5.688-14.536-14.255-14.536-2.007 0-4.572.117-6.471.423zm10.276-3.149c14.819 0 22.175 5.458 22.175 16.681 0 9.521-7.435 14.342-13.289 16.715l-.433.177 16.42 24.996c2.627 4.053 4.771 5.619 9.289 5.865v2.502h-17.135l-19.916-31.433h-7.392v20.842c0 7.556 3.348 8.14 8.085 8.14h1.327v2.451h-29.095v-2.451h1.321c3.255 0 7.053-1.47 7.053-5.616V90.032c0-7.755-4.585-7.755-7.053-7.755h-1.321V79.83h29.964m66.2-.013v2.448h-.947c-3.812 0-7.337.72-7.337 5.913v50.216c0 5.196 3.525 5.91 7.337 5.91h.947v2.448h-27.96v-2.448h.943c3.816 0 7.337-.715 7.337-5.91V88.178c0-5.193-3.521-5.913-7.337-5.913h-.943v-2.448h27.96"/>
        <path d="M542.259 2.772h35.303c1.768 0 4.052-.447 4.408-2.771l1.717-.004-1.356 13.917-1.892-.001c-.117-3.213-.587-7.885-5.745-7.885h-10.775v41.196c0 6.42 3.089 6.957 6.528 6.957h1.125v1.951H547.26v-1.951h1.129c4.048 0 6.524-.332 6.524-6.802V6.028h-10.892c-5.549 0-6.079 2.433-7.153 7.825h-1.916L536.179.111h1.564c.715 2.223 2.639 2.667 4.516 2.661m96.013 0v1.981c-3.075.168-4.923 2.269-6.315 4.227 0 .003-13.547 20.878-13.547 20.878v17.055c0 6.779 2.464 7.269 6.521 7.269h1.133v1.951h-24.321v-1.951h1.131c4.229 0 6.528-1.058 6.528-6.646V31.129l-14.705-21.02c-2.251-3.241-3.933-5.384-7.504-5.384h-.447V2.772h22.044v1.952h-.68c-4.229 0-4.541 2.244-2.735 4.807l11.396 17.664 10.081-15.95c2.309-3.481 2.976-6.52-2.736-6.52h-.875l.003-1.952m41.117 24.359c0 13.181 5.823 27.366 18.604 27.366 11.703 0 17.395-8.117 17.395-24.814 0-12.256-6.547-25.28-18.673-25.28-16.075 0-17.325 17.4-17.325 22.728zm-9.907 2.707c0-15.827 12.028-28.229 27.387-28.229 16.741 0 28.427 10.844 28.427 26.372 0 16.982-11.796 29.308-28.053 29.308-16.084 0-27.76-11.543-27.76-27.452m61.899 26.287v-1.946h.76c3.035 0 5.845-.569 5.845-4.712V9.438c0-4.144-2.811-4.715-5.845-4.715h-.76V2.78h37.287l.137 11.288-1.795.46c-.417-4.589-1.464-8.967-7.839-8.967H731.97v20.873h10.675c4.415 0 5.055-3.485 5.093-6.263h1.76v.009 17.086h-1.756c-.039-3.343-.816-7.577-6.296-7.577h-9.476v19.776c0 4.712 3.977 4.712 7.499 4.712h.675v1.946m-577.68 57.119c0-9.952 4.036-19.725 10.988-25.952 6.448-5.781 14.911-9.026 24.469-9.026 8.56 0 15.695 1.548 22.672 4.807l.709 15.493-2.2.284c-2.523-8.984-6.723-17.208-20.903-17.208-14.568 0-23.62 11.534-23.62 30.107 0 16.533 7.319 32.165 25.044 32.165 9.961 0 17.067-3.73 22.428-10.623l1.752 3.277c-6.04 7.809-15.368 11.971-25.985 11.971-21.585 0-35.355-12.739-35.355-35.295m144.334-20.47l-2.22 41.342c-.404 9.155 2.436 9.956 8.585 10.186h.572v2.432h-22.563V144.3h.86c7.603-.301 8.068-4.53 8.421-10.709l2.621-42.316c.341-5.773-2.823-9.05-8.141-9.05h-.775v-2.436h18.945c.227.537 22.733 50.727 22.733 50.727l21.507-50.734h18.575l-.003 2.465h-.356c-7.528 0-8.863 2.34-8.295 11.801l2.589 44.396c.396 5.193 3.119 5.664 8.243 5.855v2.418H350.32v-2.418c.077-.008.183-.012.183-.012 4.523-.273 7.792-.461 7.792-5.005l-.097-4.8c0-.014-2.037-42.802-2.037-42.802l-23.144 55.546h-2.02c-.229-.544-24.201-54.452-24.201-54.452m268.783-9.768l-.005 52.559c0 7.097 3.001 8.244 10.18 8.244 16.912 0 24.611-14.562 24.611-28.834 0-22.182-9.156-32.283-27.981-32.283-1.659 0-5.201.147-6.804.314zm-19.655 63.746v-2.455h.948c3.811 0 7.335-.712 7.335-5.913V88.178c0-5.195-3.524-5.911-7.335-5.911h-.948v-2.45l29.924-.026c11.121 0 20.44 2.797 26.948 8.854 6.411 5.971 9.805 14.424 9.805 24.464 0 9.379-3.735 18.461-10.243 24.92-6.551 6.49-15.719 8.705-25 8.705m92.208-3.425v-16.41c0-3.59-2.611-5.49-7.556-5.49h-.783v-2.388h25.729v2.388h-.779c-3.597 0-5.5 1.899-5.5 5.49l-.011 18.267c-6.141 1.976-14.379 3.536-23.532 3.536-22.092 0-36.375-14.323-36.375-36.483 0-23.572 18.833-34.311 36.555-34.311 7.937 0 16.097 1.58 21.269 3.31l1.065 15.978-2.244.141c-2.775-11.508-7.907-16.02-19.432-16.02-15.551 0-24.977 11.465-24.977 29.917 0 16.952 7.959 33.753 25.731 33.753 4.096.089 8.333-.538 10.839-1.678m-258.574-32.998c8.425.616 12.908 2.47 16.679 6.333 2.916 2.982 4.457 6.764 4.457 11.167 0 10.505-9.631 18.921-22.151 18.921l-32.791-.004v-2.424h1.324c3.245 0 7.048-1.548 7.048-5.703V90.038c0-7.753-4.589-7.753-7.048-7.753h-1.324v-2.448l29.715-.015c13.952 0 21.633 5.057 21.633 14.637 0 10.603-9.329 14.524-17.543 15.851m-13.719-28.026v26.88h5.036c9.22 0 14.3-4.471 14.3-13.029 0-9.455-4.467-13.852-13.276-13.852zm0 29.805v23.553c0 6.54 2.084 8.415 8.873 8.415 8.153 0 14.305-6.712 14.305-15.853 0-10.28-6.259-16.115-16.747-16.115M252.325 93.467l9.351 26.074h-18.727zm1.161-13.658l-21.244 57.777c-1.576 4.105-4.357 6.637-8.479 6.637h-.228l-.009 2.511h20.372l-.007-2.511h-.885c-4.904 0-8.241-1.565-6.107-7.896l4.861-13.498h21.092l5.275 14.712c1.513 4.643-.46 6.751-5.499 6.751h-.588l.003 2.469h25.915l.007-2.469h-.204c-3.455 0-5.819-1.809-7.435-6.402l-21.8-58.073"/>
        <path d="M402.643 2.767l.145 11.287-1.801.465c-.404-4.936-1.521-8.96-9.413-8.96h-10.601v20.855h9.1c4.464 0 5.679-2.498 6.179-6.805h1.82v17.445l-1.813.027c-.279-4.17-1.256-7.413-6.152-7.413h-9.133v18.316c0 5.331 4.585 5.331 9.443 5.331 8.712 0 12.749-.551 15.191-9.371.353.094 1.783.398 1.783.398l-2.439 11.76h-39.595v-1.95h.755c3.035 0 5.849-.57 5.849-4.713V9.43c0-4.139-2.815-4.709-5.849-4.709h-.755V2.767h37.288"/>
    </g>
</svg>