<?xml version="1.0" encoding="utf-8"?>
<!-- Generator: Adobe Illustrator 24.1.3, SVG Export Plug-In . SVG Version: 6.00 Build 0)  -->
<svg version="1.1" id="Layer_1" xmlns="http://www.w3.org/2000/svg" xmlns:xlink="http://www.w3.org/1999/xlink" x="0px" y="0px"
	 viewBox="0 0 768 768" style="enable-background:new 0 0 768 768;" xml:space="preserve">
<style type="text/css">
	.st0{fill:none;stroke:#000000;stroke-width:35;stroke-miterlimit:10;}
	.st1{fill:none;stroke:#000000;stroke-width:35;stroke-linecap:round;stroke-miterlimit:10;}
	.st2{fill:none;stroke:#000000;stroke-width:35.1205;stroke-miterlimit:10;}
</style>
<path class="st0" d="M626.9,263.7c0-161-155-285.8-323.9-233.3c-74,23-132.1,81.3-154.9,155.4c-37.8,122.7,17.8,237.9,112.7,291.7
	c15.9,9,25.7,26,25.7,44.3v148.2c0,10.8,8.8,19.6,19.6,19.6h150.9c10.8,0,19.6-8.8,19.6-19.6V521.8c0-18.3,9.8-35.3,25.7-44.3
	C576.6,435.4,626.9,355.4,626.9,263.7z"/>
<line class="st1" x1="286.5" y1="538.5" x2="462.5" y2="538.5"/>
<line class="st1" x1="286.5" y1="635.5" x2="410.5" y2="635.5"/>
<line class="st1" x1="286.5" y1="591.5" x2="362.5" y2="591.5"/>
<line class="st0" x1="380.5" y1="535" x2="380.5" y2="307"/>
<circle class="st2" cx="382" cy="261" r="48.5"/>
<path class="st0" d="M439.6,690.9c0,33-26.7,59.7-59.7,59.7s-59.7-26.7-59.7-59.7"/>
<line class="st1" x1="380.5" y1="69.5" x2="380.5" y2="161.5"/>
<line class="st1" x1="189.5" y1="260.5" x2="282.5" y2="260.5"/>
<line class="st1" x1="448.8" y1="194" x2="514.1" y2="128.7"/>
<line class="st1" x1="309.9" y1="194" x2="244.6" y2="128.7"/>
<line class="st1" x1="480.5" y1="260.5" x2="573.5" y2="260.5"/>
</svg>
