<svg id="eoDv1qrVU0t1" xmlns="http://www.w3.org/2000/svg" xmlns:xlink="http://www.w3.org/1999/xlink" viewBox="0 0 120 120" shape-rendering="geometricPrecision" text-rendering="geometricPrecision"><g transform="matrix(-1 0 0 1 120 0)"><polyline points="8,90 60,120 112,90 112,30 60,0 8,30" fill="#509e2e"/></g><g transform="matrix(-1.120663 0 0 1.120663 127.239785-7.683491)"><ellipse rx="22.856101" ry="22.856101" transform="matrix(1.364179 0 0 1.364179 56.24056 69.999991)" fill="#fff" stroke-width="0"/><ellipse rx="21.002036" ry="21.002036" transform="matrix(1.100569 0 0 1.148183 48.174928 69.999991)" fill="#509e2e" stroke-width="0"/><rect width="75.589678" height="31.179804" rx="0" ry="0" transform="matrix(1.025145 0 0 0.850121 21.25481 65.158526)" fill="#509e2e" stroke-width="0"/><rect width="75.589678" height="31.179804" rx="0" ry="0" transform="matrix(.397124 0.22881-.342869 0.595087 40.223847 73.739956)" fill="#509e2e" stroke-width="0"/><rect width="75.589678" height="31.179804" rx="0" ry="0" transform="matrix(.401427-.221175 0.331428 0.601534 51.244242 89.637057)" fill="#509e2e" stroke-width="0"/><path d="M35.117976,94.764818Q58.633634,71.64876,58.633634,71.64876v23.515656l-23.515658-.399598" transform="matrix(1.041209 0.577617-.577617 1.041209 76.403401-53.803338)" fill="#fff" stroke-width="0.5"/></g></svg>
