<svg xmlns="http://www.w3.org/2000/svg" width="100" height="100" viewBox="0 0 10 10">
  <view id="chem"    viewBox="0  0 10 10" />
  <view id="cloze"   viewBox="10 0 10 10" />
  <view id="graph"   viewBox="20 0 10 10" />
  <view id="item"    viewBox="30 0 10 10" />
  <view id="mcq"     viewBox="40 0 10 10" />
  <view id="num"     viewBox="0  10 10 10" />
  <view id="org"     viewBox="10 10 10 10" />
  <view id="reorder" viewBox="20 10 10 10" />
  <view id="sym"     viewBox="30 10 10 10" />
  <view id="text"    viewBox="40 10 10 10" />
  <view id="quick"   viewBox="0  20 10 10" />
  <style>
    <![CDATA[.B{fill:#666}.C{fill:#f5f5f5}.D{stroke:#f5f5f5}.E{fill-rule:evenodd}.F{stroke-width:.564}]]>
  </style>
  <path d="M5 9.619L1 7.31V2.691l4-2.31 4 2.309V7.31z" class="B"/>
  <path d="M4.312 5.237c0-.727-.52-1.25-1.225-1.25a1.2 1.2 0 0 0-1.26 1.253c0 .727.512 1.239 1.239 1.239s1.246-.512 1.246-1.243zm-.621.025c0 .723-.214 1.102-.618 1.102s-.625-.369-.625-1.109.221-1.151.607-1.151c.411 0 .635.411.635 1.158zm3.406 1.151v-.088c-.253-.032-.309-.07-.309-.256V4.387c0-.189.07-.242.309-.26V4.04h-1.19v.088c.246.018.312.063.312.26v.716h-.846v-.716c0-.197.067-.242.312-.26V4.04h-1.18v.088c.235.021.299.067.299.26v1.681c0 .186-.053.225-.299.256v.088h1.18v-.088c-.256-.028-.312-.07-.312-.256v-.8h.846v.8c0 .179-.056.228-.312.256v.088zm1.077-2.627v-.265h-.912v.265z" class="C"/>
  <g transform="matrix(.26347 0 0 .26347 11 .3815)">
    <path d="M15.182 35.062L0 26.296V8.765L15.182 0l15.182 8.765v17.531z" class="B"/>
    <g stroke-width=".929" class="D">
      <rect rx=".661" y="12.201" x="7.56" height="8.563" width="18.417" class="C"/>
      <rect width="18.417" height="8.563" x="4.385" y="13.788" rx=".661" class="B"/>
    </g>
    <path d="M10.116 17.45v10.428l1.982-2.327 1.896 3.878 2.068-1.12-2.068-3.361h3.275z" class="C"/>
  </g>
  <g transform="matrix(.263461 0 0 .263461 21 .3815)">
    <path d="M15.183 35.061L0 26.296V8.765L15.183 0l15.182 8.765v17.531z" class="B"/>
    <g class="C">
      <path d="M13.204 9.054V28.37h1V9.054z"/>
      <path d="M3.75 18.197v1h20.277v-1z"/>
      <path stroke-width=".29" d="M24.15 18.697l-1.234 1.699 4.319-1.699-4.319-1.699zm-10.448-9.81l1.699 1.234-1.699-4.319-1.699 4.319z" class="D E"/>
    </g>
    <path stroke-width="1.058" fill="none" d="M5.992 26.181c8.473-.719 14.799-8.666 15.622-16.78" class="D"/>
  </g>
  <path d="M35 9.619L31 7.31V2.691l4-2.31 4 2.309V7.31z" class="B"/>
  <path d="M33.827 2.131h2.346v2.346h-2.346z" class="C"/>
  <path stroke="#666" fill="none" d="M34.112 3.399l.647.498 1.078-1.412" class="F"/>
  <path d="M33.827 5.524h2.346V7.87h-2.346z" class="C"/>
  <path stroke="#666" fill="none" d="M34.112 6.792l.647.498 1.078-1.412" class="F"/>
  <g transform="matrix(.26347 0 0 .26347 41 .3815)">
    <path d="M15.182 35.062L0 26.297V8.766L15.182 0l15.182 8.765v17.531z" class="B"/>
    <g class="C">
      <circle cx="15.183" cy="10.061" r="5.622"/>
      <circle r="5.622" cy="25.001" cx="15.183"/>
    </g>
    <circle r="1.748" cy="10.061" cx="15.183" class="B"/>
  </g>
  <path d="M5 19.619L1 17.31v-4.619l4-2.309 4 2.309v4.619z" class="B"/>
  <path d="M3.923 16.769v-.126c-.477-.011-.561-.094-.561-.493v-2.987h-.094l-1.315.571v.136l.105-.042c.147-.058.272-.084.341-.084.131 0 .189.121.189.367v1.981c0 .456-.1.545-.618.55v.126zm1.41-.372a.45.45 0 0 0-.44-.446c-.118 0-.232.047-.315.13s-.13.197-.13.315a.43.43 0 0 0 .44.44.44.44 0 0 0 .446-.44zm2.715-.734h-.131c-.136.377-.257.409-.802.409h-.734l.849-.807c.414-.393.598-.744.598-1.143 0-.592-.388-.959-.954-.959-.524 0-.922.335-1.169 1.069h.147c.163-.325.388-.472.639-.472.414 0 .624.309.624.666 0 .231-.1.519-.267.776-.267.409-.451.629-1.216 1.446v.121h2.175z" class="C"/>
  <g transform="matrix(.263461 0 0 .263461 11 10.381805)">
    <path d="M15.183 35.062L0 26.296V8.766L15.183 0l15.182 8.765v17.531z" class="B"/>
    <g fill="none" class="D">
      <path stroke-width="1.77" d="M24.424 22.834l-9.241 5.303-9.241-5.303V12.228l9.241-5.303 9.241 5.303z"/>
      <path stroke-width="1.499" d="M8.734 13.053v8.956m13.54-1.213l-7.756 4.478m7.756-10.961l-7.756-4.478"/>
    </g>
  </g>
  <g transform="matrix(.26347 0 0 .26347 21 10.3815)">
    <path d="M15.182 35.062L0 26.297V8.766L15.182 0l15.182 8.765v17.531z" class="B"/>
    <g transform="matrix(.954333 0 0 .954333 -61.58859 -64.359701)" class="C">
      <path d="M72.416 91.548v3.969h9.285v-3.969zm0-7.723v3.969h9.285v-3.969zm.096-7.723v3.969h9.285v-3.969z"/>
      <g transform="matrix(1.074554 -.051067 .051067 1.074554 -26.26299 -83.449009)">
        <path d="M98.603 156.584l-.936.541c1.879 3.251 1.832 5.833 1.351 7.631s-1.386 2.768-1.386 2.768l.795.737s1.094-1.185 1.638-3.224.548-4.975-1.462-8.452z"/>
        <path stroke-width=".329" d="M98.243 157.432l2.245.6-4.3-4.156 1.456 5.8zm.031 9.917l-.088-2.322-2.704 5.334 5.114-3.1z" class="D E"/>
      </g>
    </g>
  </g>
  <path d="M35 19.619l-4-2.309v-4.619l4-2.309 4 2.309v4.619z" class="B"/>
  <path d="M32.817 14.115v.192l.248-.014c.227 0 .34.142.404.49l.206 1.078-.312.504c-.149.241-.206.284-.333.284-.149 0-.227-.156-.44-.156-.22 0-.383.177-.383.404 0 .248.177.419.447.419.355 0 .511-.142.929-.823l.17-.277c.156.816.333 1.099.688 1.099.34 0 .638-.241 1.071-.865l-.149-.099c-.277.355-.348.419-.475.419-.135 0-.206-.099-.262-.376l-.227-1.114c.227-.404.49-.667.653-.667s.234.142.404.142c.213 0 .397-.17.397-.376 0-.227-.192-.433-.412-.433-.333 0-.567.17-1.121.979-.114-.603-.199-.78-.333-.979zm4.977.08h-.079c-.082.228-.155.247-.484.247h-.443l.512-.487c.25-.237.361-.449.361-.69a.54.54 0 0 0-.576-.579c-.316 0-.557.202-.706.645h.089c.098-.196.234-.285.386-.285.25 0 .376.187.376.402 0 .139-.06.313-.161.468-.161.247-.272.38-.734.873v.073h1.313z" class="C"/>
  <path d="M45 19.619l-4-2.309v-4.619l4-2.31 4 2.309v4.619z" class="B"/>
  <path d="M41.853 14.79l.864-.042c.295 0 .375.059.38.295v.126h-.776c-.388 0-.612.19-.612.519v.211c0 .388.274.599.654.599.371 0 .641-.198.789-.363l.055.316h.405v-1.404c0-.552-.266-.721-.776-.721a6.85 6.85 0 0 0-1.033.101zm.367.962c0-.139.051-.223.219-.232h.658v.321c-.211.173-.447.245-.607.245-.185 0-.27-.076-.27-.253zm2.457-2.252h-.515v2.847c.266.105.717.156 1.008.156.772 0 .97-.434.97-1.097 0-.772-.24-1.08-.755-1.08-.274 0-.544.122-.759.35.042-.152.051-.304.051-.481zm0 1.489c.185-.135.329-.232.515-.232.35 0 .418.16.422.649-.004.523-.126.683-.456.687-.162.003-.323-.014-.481-.051zm3.568 1.05c-.206.028-.413.042-.62.042-.422 0-.565-.148-.565-.666s.143-.658.565-.658l.574.008.059-.321c-.215-.089-.519-.118-.721-.118-.738 0-1.012.291-1.012 1.088s.27 1.088 1.008 1.088c.261 0 .544-.038.759-.126z" class="C"/>
  <path d="M5 29.62L1 27.31v-4.619l4-2.309 4 2.309v4.619z" class="B"/>
  <path d="M6.284 22.376l-3.537 3.092h1.806L3.39 27.62l3.265-2.77H5.146z" class="C"/>
</svg>