<?xml version="1.0" encoding="UTF-8"?><svg id="a" xmlns="http://www.w3.org/2000/svg" width="512" height="512" viewBox="0 0 512 512"><defs><style>.b{fill:none;stroke:#000;stroke-miterlimit:10;stroke-width:9px;}</style></defs><path d="M283.1,393.2c4,0,7.2,3.2,7.2,7.2s-3.2,7.2-7.2,7.2h-105.5c-4,0-7.2-3.2-7.2-7.2s3.2-7.2,7.2-7.2h105.5m0-9h-105.5c-8.9,0-16.2,7.3-16.2,16.2h0c0,8.9,7.3,16.2,16.2,16.2h105.5c8.9,0,16.2-7.3,16.2-16.2h0c0-8.9-7.3-16.2-16.2-16.2h0Z"/><path class="b" d="M183.4,437.4c5.9,20.4,24.7,35.4,47,35.4s41.3-15.1,47.1-35.6"/><path d="M277.7,416.7c3.6,0,6.5,2.9,6.5,6.5v1.5c0,3.6-2.9,6.5-6.5,6.5h-94.8c-3.6,0-6.5-2.9-6.5-6.5v-1.5c0-3.6,2.9-6.5,6.5-6.5h94.8m0-9h-94.8c-8.5,0-15.5,7-15.5,15.5v1.5c0,8.5,7,15.5,15.5,15.5h94.8c8.5,0,15.5-7,15.5-15.5v-1.5c0-8.5-7-15.5-15.5-15.5h0Z"/><path class="b" d="M101.5,226.5h40.4v-1.5c0-14.2,11.5-25.6,25.6-25.6s25.6,11.5,25.6,25.6v1.5h77.8v-1.5c0-14.2,11.5-25.6,25.6-25.6s25.6,11.5,25.6,25.6v1.5h36.9c-1.5,39.5-20.5,74.4-49.4,97.2-18.8,14.9-29.5,37.9-29.5,62"/><path class="b" d="M231.6,385.7v-69.1c-14.2,0-25.6-11.5-25.6-25.6s11.5-25.6,25.6-25.6v-77.8c-14.2,0-25.6-11.5-25.6-25.6s11.5-25.6,25.6-25.6v-44.9c-70.3-.7-128.6,56.4-130,127.2-.8,42.4,18.4,80.2,48.8,104.5,18.8,15.1,30.1,37.7,30.1,62"/><path class="b" d="M410.4,174.3c0-1.7,0-3.4,0-5.1,0-71.3-57-129.2-127.6-129.9v44.9c-14.2,0-25.6,11.5-25.6,25.6s11.5,25.6,25.6,25.6v38.9h39.3v-.9c0-14.4,11.8-26.5,26.1-26.2,13.9,.3,25.1,11.6,25.1,25.6v1.5h36.9Z"/></svg>