<?xml version="1.0" encoding="utf-8"?>
<svg viewBox="0 0 128 147.8" xmlns="http://www.w3.org/2000/svg">
  <path fill="#ff3369" d="M 64.007 0 L 128.005 36.955 L 128 110.856 L 63.997 147.802 L 0 110.847 L 0.005 36.946 L 64.007 0 Z"/>
  <g>
    <path d="M 62.559 101.86 C 60.77 101.913 58.764 102.586 57.563 103.476 C 56.579 104.678 55.821 106.729 55.759 108.542 L 55.759 114.782 C 55.821 116.595 56.579 118.645 57.563 119.847 C 58.764 120.737 60.77 121.41 62.559 121.463 L 65.392 121.463 C 67.181 121.41 69.186 120.737 70.387 119.848 C 71.369 118.649 72.13 116.596 72.192 114.782 L 72.192 108.542 C 72.13 106.728 71.371 104.677 70.389 103.477 C 69.188 102.588 67.181 101.913 65.392 101.86 L 62.559 101.86 Z" style="fill: rgb(255, 255, 255);"/>
    <path d="M 56.573 33.392 C 54.021 33.51 51.712 33.692 49.758 33.931 C 47.846 34.164 45.993 34.422 44.243 34.696 C 42.499 34.968 40.537 35.301 38.388 35.689 L 35.708 36.172 L 36.82 48.894 L 39.78 48.648 C 42.576 48.416 45.031 48.204 47.133 48.01 C 49.176 47.821 51.422 47.691 53.966 47.617 C 56.525 47.541 59.787 47.502 63.791 47.502 C 69.128 47.502 72.386 48.112 74.429 49.719 C 76.51 50.938 77.1 52.512 76.817 55.716 C 76.808 57.846 76.335 59.345 75.133 60.956 C 73.837 62.834 72.305 64.594 70.347 66.459 C 68.246 68.473 66.12 70.709 64.065 73.069 C 61.908 75.577 60 78.669 58.584 81.947 C 57.171 85.366 56.436 89.64 56.498 94.153 L 56.539 97.078 L 71.358 97.078 L 71.451 94.217 C 71.571 90.517 72.246 87.769 73.665 85.317 C 75.114 82.673 76.738 80.494 78.778 78.455 C 80.939 76.274 83.085 74.165 85.246 72.099 C 87.566 69.88 89.637 67.258 91.233 64.582 C 92.873 61.68 93.863 57.935 93.863 54.111 C 93.863 47.326 91.016 41.575 86.367 38.084 C 81.707 34.966 74.636 33.215 66.007 33.215 C 62.285 33.215 59.118 33.275 56.573 33.392 Z" style="fill: rgb(255, 255, 255);"/>
  </g>
</svg>