<svg width="401" height="152" viewBox="0 0 401 152" fill="none" xmlns="http://www.w3.org/2000/svg">
<path d="M126.05 74.5698C125.004 72.6271 123.511 71.1327 121.719 70.0867C119.926 69.0406 117.985 68.5923 115.745 68.5923C113.654 68.5923 111.563 69.0406 109.771 70.0867C107.979 71.1327 106.634 72.6271 105.44 74.5698C104.394 76.5125 103.797 78.7541 103.797 81.444C103.797 84.1339 104.394 86.3754 105.44 88.3181C106.485 90.2608 107.979 91.7552 109.771 92.8013C111.563 93.8473 113.505 94.2956 115.745 94.2956C117.836 94.2956 119.926 93.6979 121.719 92.8013C123.511 91.7552 125.004 90.2608 126.05 88.3181C127.095 86.3754 127.693 83.9844 127.693 81.444C127.543 78.7541 127.095 76.5125 126.05 74.5698Z" fill="#0AFFE7"/>
<path d="M87.667 74.5698C86.6215 72.6271 85.128 71.1327 83.3358 70.0867C81.5437 69.0406 79.6021 68.5923 77.3619 68.5923C75.271 68.5923 73.1802 69.0406 71.388 70.0867C69.5958 71.1327 68.2517 72.6271 67.0569 74.5698C66.0115 76.5125 65.4141 78.7541 65.4141 81.444C65.4141 84.1339 66.0115 86.3754 67.0569 88.3181C68.1023 90.2608 69.5958 91.7552 71.388 92.8013C73.1802 93.8473 75.1217 94.2956 77.3619 94.2956C79.6021 94.2956 81.5437 93.6979 83.3358 92.8013C85.128 91.7552 86.6215 90.2608 87.667 88.3181C88.7124 86.3754 89.3098 83.9844 89.3098 81.444C89.3098 78.7541 88.8617 76.5125 87.667 74.5698Z" fill="#0AFFE7"/>
<path d="M42.7144 76.6618C41.9676 72.7764 40.7728 70.2359 39.2794 68.7416C37.7859 67.2472 36.1431 66.6494 34.3509 66.6494C32.8574 66.6494 31.6626 67.0977 30.6172 67.8449C29.5717 68.7416 28.6756 69.7876 28.0782 71.282C27.4809 72.7764 26.8835 74.4202 26.5848 76.3629C26.2861 78.3056 26.1367 80.3977 26.1367 82.6393C26.1367 86.8236 26.8835 90.1112 28.5263 92.5022C30.0198 95.0427 32.4093 96.2382 35.3963 96.2382C37.1885 96.2382 38.9807 95.491 40.7728 93.9966C42.4157 92.5022 44.0585 90.709 45.4026 88.4674C44.9546 86.973 44.5065 85.1797 44.2079 83.0876C43.7598 81.2944 43.3118 79.0528 42.7144 76.6618Z" fill="#0AFFE7"/>
<path d="M144.569 0H6.87002C3.13631 0 0 3.1382 0 6.87415V144.656C0 148.392 3.13631 151.53 6.87002 151.53H144.569C148.303 151.53 151.439 148.392 151.439 144.656V6.87415C151.439 3.1382 148.303 0 144.569 0ZM94.5374 98.3303H89.3102V91.3067L88.8622 92.0539C87.8168 93.9966 86.1739 95.6404 83.9337 96.9854C81.8428 98.3303 79.1546 98.928 76.3169 98.928C73.33 98.928 70.6417 98.1809 68.2521 96.6865C66.3106 95.491 64.6678 93.9966 63.473 92.0539C62.8756 92.6516 62.2782 93.3988 61.3821 94.146C60.6354 94.8932 59.7393 95.6404 58.8432 96.3876C57.9471 97.1348 57.051 97.7325 56.1549 98.1809C55.2588 98.6292 54.3628 98.928 53.4667 98.928C52.2719 98.928 51.2264 98.4797 50.181 97.4337C49.1356 96.537 48.3888 95.3415 47.6421 94.146L46.5966 92.3528C44.8045 94.4449 42.8629 95.9393 40.7721 97.1348C38.6812 98.3303 36.441 98.928 34.2007 98.928C31.9605 98.928 29.8696 98.4797 27.9281 97.7325C25.9866 96.9854 24.3438 95.9393 22.8503 94.5943C21.3568 93.2494 20.3114 91.6056 19.4153 89.8123C18.6685 88.0191 18.2205 85.9269 18.2205 83.6854C18.2205 80.5472 18.6685 77.7078 19.4153 75.3168C20.3114 72.9258 21.3568 70.8337 22.8503 69.1899C24.3438 67.546 25.9866 66.2011 28.0775 65.4539C30.019 64.5573 32.2592 64.109 34.4994 64.109C36.2916 64.109 37.9344 64.4078 39.2786 64.8562C40.6227 65.3045 41.6682 66.0517 42.5642 67.0977C43.4603 68.1438 44.2071 69.3393 44.8045 70.6842C45.4019 72.1786 45.8499 73.8224 46.298 75.6157C46.5966 77.1101 46.8953 78.455 47.194 79.8C47.4927 80.9955 47.7914 82.191 48.0901 83.0876C49.4343 79.9494 50.3304 76.8112 51.0771 73.8224C51.6745 70.8337 51.9732 68.1438 51.9732 65.9022H59.2912C58.9925 67.3966 58.5445 69.1899 58.0965 70.9831C57.6484 72.7764 56.9017 74.7191 56.1549 76.6618C55.4082 78.6045 54.5121 80.5472 53.4667 82.4899C52.4212 84.4325 51.3758 86.2258 50.181 88.0191C50.4797 88.6168 50.9277 89.364 51.2264 90.1112C51.6745 90.8584 52.1225 91.4561 52.5706 92.0539C53.168 92.6516 53.7654 93.1 54.5121 93.5483C55.2588 93.9966 56.0056 94.146 56.9017 94.146C58.0965 94.146 59.1419 93.8472 60.038 93.1C60.9341 92.5022 61.8302 91.755 62.5769 91.1573L62.7263 91.0078C62.5769 90.8584 62.5769 90.709 62.4276 90.5595C61.0834 87.8696 60.3367 84.8809 60.3367 81.4438C60.3367 78.0067 61.0834 75.018 62.4276 72.3281C63.7717 69.7876 65.7132 67.6955 68.1028 66.3505C70.4924 64.8562 73.33 64.2584 76.3169 64.2584C78.8559 64.2584 81.3948 64.8562 83.635 66.0517C85.8752 67.2472 87.6674 68.891 88.7128 70.8337L89.1609 71.5809V52.6022H94.3881V98.3303H94.5374ZM132.92 98.3303H127.693V91.3067L127.245 92.0539C126.199 93.9966 124.556 95.6404 122.316 96.9854C120.076 98.3303 117.537 98.928 114.699 98.928C111.712 98.928 109.024 98.1809 106.635 96.6865C104.245 95.1921 102.304 93.1 100.959 90.4101C99.6153 87.7202 98.8685 84.7314 98.8685 81.2943C98.8685 77.8573 99.6153 74.8685 100.959 72.1786C102.304 69.6382 104.245 67.546 106.635 66.2011C109.024 64.7067 111.862 64.109 114.699 64.109C117.686 64.109 120.225 64.7067 122.316 66.0517C124.407 67.2472 126.05 68.891 127.095 70.8337L127.543 71.5809V64.7067H132.92V98.3303Z" fill="#0AFFE7"/>
<path d="M186.834 49.0156C188.627 50.0616 190.568 50.6594 192.659 50.6594C194.601 50.6594 196.243 50.2111 197.737 49.4639C199.23 48.7167 200.425 47.6706 201.321 46.4751V50.2111H206.399V25.5538H201.321V29.1403C200.425 27.9448 199.23 27.0482 197.886 26.301C196.393 25.5538 194.75 25.1055 192.808 25.1055C190.718 25.1055 188.627 25.7032 186.984 26.7493C185.341 27.7954 183.848 29.2897 182.802 31.2324C181.757 33.1751 181.309 35.4167 181.309 37.8077C181.309 40.1987 181.757 42.4403 182.802 44.5324C183.698 46.4751 185.042 47.9695 186.834 49.0156ZM187.432 33.474C188.179 32.2785 189.075 31.2324 190.12 30.6347C191.315 30.0369 192.51 29.7381 193.854 29.7381C195.198 29.7381 196.393 30.0369 197.588 30.7841C198.782 31.3819 199.678 32.4279 200.276 33.6234C201.023 34.8189 201.321 36.3133 201.321 38.1066C201.321 39.8998 201.023 41.2448 200.276 42.5897C199.529 43.7852 198.633 44.8313 197.588 45.4291C196.393 46.0268 195.198 46.4751 193.854 46.4751C192.51 46.4751 191.315 46.1762 190.269 45.4291C189.075 44.6819 188.179 43.7852 187.432 42.4403C186.685 41.0954 186.386 39.601 186.386 37.9571C186.386 36.1639 186.685 34.6695 187.432 33.474Z" fill="white"/>
<path d="M217.301 49.0159C219.093 50.0619 221.035 50.6597 223.126 50.6597C225.067 50.6597 226.71 50.2114 228.204 49.4642C229.697 48.717 230.892 47.6709 231.639 46.4754V50.2114H236.716V17.1855H231.639V29.1406C230.742 27.9451 229.398 27.0485 227.905 26.3013C226.411 25.5541 224.769 25.2552 223.126 25.2552C220.885 25.2552 218.944 25.853 217.152 26.899C215.36 27.9451 214.015 29.4395 212.97 31.3822C211.925 33.3249 211.477 35.5664 211.477 37.9574C211.477 40.3485 211.925 42.59 212.97 44.6822C214.015 46.4754 215.509 47.9698 217.301 49.0159ZM217.749 33.4743C218.496 32.2788 219.392 31.2327 220.437 30.635C221.632 30.0372 222.827 29.7383 224.171 29.7383C225.515 29.7383 226.71 30.0372 227.905 30.7844C229.1 31.3822 229.996 32.4282 230.593 33.6237C231.34 34.8192 231.639 36.3136 231.639 38.1069C231.639 39.9001 231.34 41.2451 230.593 42.59C229.846 43.7855 228.95 44.8316 227.905 45.4294C226.71 46.0271 225.515 46.4754 224.171 46.4754C222.827 46.4754 221.632 46.1765 220.587 45.4294C219.392 44.6822 218.496 43.7855 217.749 42.4406C217.002 41.0956 216.704 39.6013 216.704 37.9574C216.704 36.1642 217.152 34.6698 217.749 33.4743Z" fill="white"/>
<path d="M247.62 49.0156C249.412 50.0616 251.353 50.6594 253.444 50.6594C255.386 50.6594 257.029 50.2111 258.522 49.4639C260.016 48.7167 261.21 47.6706 262.106 46.4751V50.2111H267.184V25.5538H262.106V29.1403C261.21 27.9448 260.016 27.0482 258.671 26.301C257.178 25.5538 255.535 25.1055 253.594 25.1055C251.503 25.1055 249.412 25.7032 247.769 26.7493C246.126 27.7954 244.633 29.2897 243.587 31.2324C242.542 33.1751 242.094 35.4167 242.094 37.8077C242.094 40.1987 242.542 42.4403 243.587 44.5324C244.483 46.4751 245.827 47.9695 247.62 49.0156ZM248.217 33.474C248.964 32.2785 249.86 31.2324 250.905 30.6347C252.1 30.0369 253.295 29.7381 254.639 29.7381C255.983 29.7381 257.178 30.0369 258.373 30.7841C259.567 31.3819 260.464 32.4279 261.061 33.6234C261.808 34.8189 262.106 36.3133 262.106 38.1066C262.106 39.8998 261.808 41.2448 261.061 42.5897C260.314 43.7852 259.418 44.8313 258.373 45.4291C257.178 46.0268 255.983 46.4751 254.639 46.4751C253.295 46.4751 252.1 46.1762 251.055 45.4291C249.86 44.6819 248.964 43.7852 248.217 42.4403C247.47 41.0954 247.172 39.601 247.172 37.9571C247.172 36.1639 247.47 34.6695 248.217 33.474Z" fill="white"/>
<path d="M193.256 71.282C194.75 71.282 195.945 71.5808 196.99 72.328C198.035 73.0752 198.633 73.9718 199.081 75.1673H204.607C203.86 72.4775 202.665 70.5348 200.574 69.0404C198.484 67.546 196.094 66.9482 193.107 66.9482C190.717 66.9482 188.627 67.3966 186.834 68.4426C185.042 69.4887 183.549 70.9831 182.503 72.9258C181.458 74.8685 181.01 77.11 181.01 79.6505C181.01 82.1909 181.458 84.4325 182.503 86.3752C183.549 88.3179 184.893 89.8123 186.834 90.8583C188.776 91.9044 190.717 92.5022 193.107 92.5022C196.094 92.5022 198.484 91.755 200.425 90.2606C202.367 88.7662 203.711 86.8235 204.457 84.2831H198.932C198.035 86.8235 195.945 88.1685 193.107 88.1685C191.016 88.1685 189.373 87.4213 188.178 85.9269C186.984 84.4325 186.386 82.3404 186.386 79.6505C186.386 76.9606 186.984 74.8685 188.178 73.3741C189.523 72.0291 191.165 71.282 193.256 71.282Z" fill="white"/>
<path d="M231.639 73.0752C230.594 71.1325 228.951 69.6381 227.159 68.592C225.366 67.546 223.126 67.0977 220.737 67.0977C218.347 67.0977 216.256 67.546 214.315 68.592C212.373 69.6381 210.88 71.1325 209.834 73.0752C208.789 75.0179 208.191 77.2594 208.191 79.7999C208.191 82.3403 208.789 84.5819 209.834 86.5246C210.88 88.4673 212.373 89.9617 214.315 91.0078C216.256 92.0538 218.347 92.6516 220.587 92.6516C222.977 92.6516 225.068 92.0538 227.009 91.0078C228.951 89.9617 230.444 88.4673 231.639 86.5246C232.834 84.5819 233.282 82.3403 233.282 79.7999C233.282 77.2594 232.685 75.0179 231.639 73.0752ZM226.86 84.283C226.113 85.4785 225.217 86.5246 224.022 87.1224C222.828 87.7201 221.633 88.019 220.289 88.019C218.198 88.019 216.555 87.2718 215.211 85.7774C213.867 84.283 213.12 82.3403 213.12 79.6505C213.12 77.8572 213.419 76.3628 214.165 75.1673C214.912 73.9718 215.659 72.9257 216.854 72.328C218.048 71.7302 219.243 71.4314 220.438 71.4314C221.633 71.4314 222.977 71.7302 224.172 72.328C225.366 72.9257 226.263 73.8224 226.86 75.1673C227.457 76.5123 227.905 77.8572 227.905 79.6505C227.905 81.4437 227.607 83.0875 226.86 84.283Z" fill="white"/>
<path d="M273.308 92.2033H278.386V77.5583C278.386 75.3168 277.938 73.3741 277.042 71.8797C276.146 70.2359 274.951 69.0404 273.457 68.2932C271.964 67.546 270.172 67.0977 268.23 67.0977C266.438 67.0977 264.646 67.546 263.152 68.4426C261.659 69.3392 260.464 70.5347 259.717 72.0291C258.821 70.3853 257.626 69.1898 256.133 68.4426C254.639 67.546 252.847 67.2471 250.906 67.2471C249.412 67.2471 248.068 67.546 246.724 68.1437C245.38 68.7415 244.334 69.4887 243.588 70.5347V67.6954H238.51V92.3527H243.588V78.6044C243.588 76.3628 244.185 74.719 245.23 73.5235C246.425 72.328 247.919 71.7302 249.711 71.7302C251.503 71.7302 253.146 72.328 254.191 73.5235C255.237 74.719 255.834 76.3628 255.834 78.6044V92.3527H260.912V78.6044C260.912 76.3628 261.509 74.719 262.555 73.5235C263.75 72.328 265.243 71.7302 267.035 71.7302C268.977 71.7302 270.47 72.328 271.516 73.5235C272.561 74.719 273.159 76.3628 273.159 78.6044V92.2033H273.308Z" fill="white"/>
<path d="M308.703 86.3752C309.749 84.4325 310.197 82.1909 310.197 79.6505C310.197 77.11 309.749 75.0179 308.703 73.0752C307.658 71.1325 306.314 69.6381 304.522 68.5921C302.729 67.546 300.788 66.9482 298.697 66.9482C296.756 66.9482 295.113 67.3966 293.619 68.1437C292.126 68.8909 290.931 69.937 290.035 70.9831V67.3966H284.957V103.859H290.035V88.6168C290.931 89.8123 292.126 90.7089 293.619 91.4561C295.113 92.2033 296.756 92.6516 298.697 92.6516C300.788 92.6516 302.879 92.0539 304.522 91.0078C306.164 89.8123 307.658 88.3179 308.703 86.3752ZM301.087 87.1224C299.892 87.8696 298.697 88.1685 297.353 88.1685C296.009 88.1685 294.814 87.8696 293.769 87.1224C292.574 86.5246 291.678 85.4786 290.931 84.2831C290.184 82.9381 289.886 81.5932 289.886 79.7999C289.886 78.0067 290.184 76.6617 290.931 75.3168C291.678 74.1213 292.574 73.0752 293.769 72.4775C294.963 71.8797 296.158 71.4314 297.353 71.4314C298.697 71.4314 299.892 71.7303 301.087 72.328C302.281 72.9258 303.178 73.9718 303.924 75.1673C304.671 76.3628 304.97 77.8572 304.97 79.6505C304.97 81.2943 304.671 82.7887 303.924 84.1336C303.178 85.4786 302.281 86.3752 301.087 87.1224Z" fill="white"/>
<path d="M332.449 89.2149V92.2037H337.527V67.397H332.449V81.1453C332.449 83.3869 331.852 85.0307 330.807 86.2262C329.761 87.4217 328.118 88.0194 326.326 88.0194C324.385 88.0194 322.891 87.4217 321.846 86.2262C320.8 85.0307 320.203 83.3869 320.203 81.1453V67.397H315.125V81.8925C315.125 84.134 315.573 86.0767 316.469 87.5711C317.365 89.2149 318.56 90.4104 320.053 91.1576C321.547 91.9048 323.339 92.3531 325.281 92.3531C326.774 92.3531 328.118 92.0543 329.462 91.4565C330.657 91.0082 331.703 90.261 332.449 89.2149Z" fill="white"/>
<path d="M350.222 61.2695H344.995V67.3965H342.008V71.5808H344.995V85.3291C344.995 87.7201 345.592 89.5133 346.787 90.5594C347.982 91.6055 349.774 92.2032 352.014 92.2032H356.047V87.8695H352.91C351.865 87.8695 351.118 87.7201 350.67 87.2718C350.222 86.8235 350.073 86.2257 350.073 85.3291V71.5808H356.047V67.3965H350.073V61.2695H350.222Z" fill="white"/>
<path d="M377.851 68.592C376.059 67.546 373.968 67.0977 371.579 67.0977C369.189 67.0977 366.949 67.546 365.157 68.592C363.215 69.6381 361.871 71.1325 360.826 73.0752C359.78 75.0179 359.332 77.2594 359.332 79.7999C359.332 82.3403 359.929 84.5819 360.975 86.5246C362.02 88.4673 363.514 89.9617 365.306 91.0078C367.098 92.0538 369.338 92.6516 371.579 92.6516C374.416 92.6516 376.955 91.9044 378.897 90.41C380.838 88.9156 382.182 87.1224 382.929 84.8808H377.403C376.208 87.1224 374.267 88.3179 371.579 88.3179C369.637 88.3179 367.994 87.7201 366.799 86.5246C365.455 85.3291 364.709 83.6853 364.559 81.7426H383.377C383.526 80.9954 383.526 80.0988 383.526 79.2021C383.526 76.8111 383.078 74.719 382.033 72.9257C380.988 70.983 379.643 69.6381 377.851 68.592ZM364.559 77.5583C364.858 75.6156 365.605 74.1212 366.799 73.0752C367.994 71.8797 369.488 71.4314 371.28 71.4314C373.221 71.4314 374.864 72.0291 376.208 73.0752C377.552 74.2707 378.15 75.7651 378.15 77.5583H364.559Z" fill="white"/>
<path d="M396.668 68.1439C395.474 68.8911 394.428 69.7878 393.681 71.1327V67.5462H388.604V92.2035H393.681V79.2024C393.681 76.6619 394.129 74.8687 395.175 73.972C396.22 72.926 397.714 72.4777 399.655 72.4777H400.999V67.2473C399.357 67.0979 398.012 67.3968 396.668 68.1439Z" fill="white"/>
<path d="M196.989 121.045C195.795 120.597 194.301 119.999 192.509 119.551C191.165 119.102 190.119 118.803 189.522 118.654C188.775 118.355 188.178 118.056 187.73 117.608C187.282 117.159 186.983 116.562 186.983 115.964C186.983 115.067 187.282 114.47 188.028 114.021C188.775 113.573 189.821 113.274 191.165 113.274C192.509 113.274 193.554 113.573 194.45 114.32C195.197 114.918 195.645 115.815 195.795 117.01H200.872C200.723 114.619 199.827 112.676 198.184 111.182C196.392 109.688 194.152 109.09 191.463 109.09C189.522 109.09 187.879 109.389 186.535 109.986C185.191 110.584 183.996 111.481 183.249 112.527C182.503 113.573 182.055 114.768 182.055 116.113C182.055 117.757 182.503 119.102 183.399 119.999C184.295 121.045 185.191 121.792 186.386 122.24C187.58 122.689 189.074 123.286 190.866 123.735C192.808 124.333 194.152 124.781 195.048 125.229C195.944 125.677 196.392 126.425 196.392 127.321C196.392 128.218 195.944 128.965 195.197 129.413C194.45 129.862 193.256 130.31 191.912 130.31C190.567 130.31 189.373 130.011 188.477 129.264C187.58 128.517 187.132 127.62 186.983 126.574H181.756C181.756 128.068 182.353 129.413 183.249 130.609C184.145 131.804 185.34 132.851 186.834 133.448C188.327 134.195 190.119 134.494 192.061 134.494C194.002 134.494 195.645 134.195 196.989 133.598C198.334 133 199.528 132.103 200.275 131.057C201.022 130.011 201.47 128.666 201.47 127.321C201.47 125.677 201.022 124.482 200.126 123.585C199.08 122.39 198.184 121.643 196.989 121.045Z" fill="white"/>
<path d="M217.153 113.125C218.646 113.125 219.841 113.424 220.887 114.171C221.932 114.918 222.529 115.815 222.977 117.01H228.503C227.757 114.32 226.562 112.378 224.471 110.883C222.38 109.389 219.99 108.791 217.003 108.791C214.614 108.791 212.523 109.239 210.731 110.285C208.939 111.331 207.445 112.826 206.4 114.769C205.354 116.711 204.906 118.953 204.906 121.493C204.906 124.034 205.354 126.275 206.4 128.218C207.445 130.161 208.789 131.655 210.731 132.701C212.672 133.747 214.614 134.345 217.003 134.345C219.99 134.345 222.38 133.598 224.322 132.103C226.263 130.609 227.607 128.666 228.354 126.126H222.828C221.932 128.666 219.841 130.011 217.003 130.011C214.913 130.011 213.27 129.264 212.075 127.77C210.88 126.275 210.283 124.183 210.283 121.493C210.283 118.803 210.88 116.711 212.075 115.217C213.419 113.872 215.062 113.125 217.153 113.125Z" fill="white"/>
<path d="M236.268 99.5259C235.372 99.5259 234.625 99.8248 233.879 100.423C233.281 101.02 232.982 101.767 232.982 102.814C232.982 103.86 233.281 104.457 233.879 105.205C234.476 105.802 235.223 106.101 236.268 106.101C237.164 106.101 237.911 105.802 238.508 105.205C239.106 104.607 239.404 103.86 239.404 102.814C239.404 101.767 239.106 101.17 238.508 100.423C237.911 99.8248 237.164 99.5259 236.268 99.5259Z" fill="white"/>
<path d="M238.658 109.239H233.58V133.897H238.658V109.239Z" fill="white"/>
<path d="M262.256 110.435C260.463 109.389 258.372 108.94 255.983 108.94C253.593 108.94 251.353 109.389 249.561 110.435C247.619 111.481 246.275 112.975 245.23 114.918C244.184 116.861 243.736 119.102 243.736 121.643C243.736 124.183 244.334 126.425 245.379 128.367C246.425 130.31 247.918 131.804 249.71 132.851C251.502 133.897 253.743 134.494 255.983 134.494C258.82 134.494 261.359 133.747 263.301 132.253C265.242 130.758 266.587 128.965 267.333 126.724H261.807C260.613 128.965 258.671 130.161 255.983 130.161C254.041 130.161 252.399 129.563 251.204 128.367C249.86 127.172 249.113 125.528 248.964 123.585H267.781C267.931 122.838 267.931 121.942 267.931 121.045C267.931 118.654 267.483 116.562 266.437 114.769C265.541 112.826 264.197 111.481 262.256 110.435ZM249.113 119.401C249.412 117.458 250.158 115.964 251.353 114.918C252.548 113.722 254.041 113.274 255.834 113.274C257.775 113.274 259.418 113.872 260.762 114.918C262.106 116.113 262.704 117.608 262.853 119.401H249.113Z" fill="white"/>
<path d="M290.781 110.136C289.288 109.389 287.496 108.94 285.554 108.94C284.061 108.94 282.716 109.239 281.372 109.837C280.028 110.435 278.983 111.182 278.236 112.228V109.389H273.158V134.046H278.236V120.298C278.236 118.056 278.833 116.412 279.879 115.217C281.074 114.021 282.567 113.424 284.359 113.424C286.151 113.424 287.794 114.021 288.84 115.217C289.885 116.412 290.483 118.056 290.483 120.298V134.046H295.56V119.401C295.56 117.16 295.112 115.217 294.216 113.722C293.47 112.079 292.275 110.883 290.781 110.136Z" fill="white"/>
<path d="M312.586 113.125C314.08 113.125 315.275 113.424 316.32 114.171C317.366 114.918 317.963 115.815 318.411 117.01H323.937C323.19 114.32 321.995 112.378 319.904 110.883C317.814 109.389 315.424 108.791 312.437 108.791C310.047 108.791 307.957 109.239 306.164 110.285C304.372 111.331 302.879 112.826 301.833 114.769C300.788 116.711 300.34 118.953 300.34 121.493C300.34 124.034 300.788 126.275 301.833 128.218C302.879 130.161 304.223 131.655 306.164 132.701C308.106 133.747 310.047 134.345 312.437 134.345C315.424 134.345 317.814 133.598 319.755 132.103C321.697 130.609 323.041 128.666 323.788 126.126H318.262C317.366 128.666 315.275 130.011 312.437 130.011C310.346 130.011 308.703 129.264 307.509 127.77C306.314 126.275 305.716 124.183 305.716 121.493C305.716 118.803 306.314 116.711 307.509 115.217C308.853 113.872 310.496 113.125 312.586 113.125Z" fill="white"/>
<path d="M345.89 110.435C344.098 109.389 342.007 108.94 339.618 108.94C337.228 108.94 334.988 109.389 333.196 110.435C331.254 111.481 329.91 112.975 328.865 114.918C327.819 116.861 327.371 119.102 327.371 121.643C327.371 124.183 327.968 126.425 329.014 128.367C330.059 130.31 331.553 131.804 333.345 132.851C335.137 133.897 337.377 134.494 339.618 134.494C342.455 134.494 344.994 133.747 346.936 132.253C348.877 130.758 350.221 128.965 350.968 126.724H345.442C344.247 128.965 342.306 130.161 339.618 130.161C337.676 130.161 336.033 129.563 334.839 128.367C333.494 127.172 332.748 125.528 332.598 123.585H351.416C351.566 122.838 351.566 121.942 351.566 121.045C351.566 118.654 351.117 116.562 350.072 114.769C349.176 112.826 347.682 111.481 345.89 110.435ZM332.748 119.401C333.046 117.458 333.793 115.964 334.988 114.918C336.183 113.722 337.676 113.274 339.468 113.274C341.41 113.274 343.053 113.872 344.397 114.918C345.741 116.113 346.338 117.608 346.338 119.401H332.748Z" fill="white"/>
</svg>
