<svg width="64" height="64" viewBox="0 0 64 64" fill="none" xmlns="http://www.w3.org/2000/svg">
<rect width="64" height="64" rx="32" fill="#333333"/>
<path d="M49.1126 23.4101C48.9085 22.6534 48.5093 21.9635 47.9549 21.4095C47.4006 20.8555 46.7104 20.4567 45.9536 20.2531C43.1676 19.4941 31.9986 19.4941 31.9986 19.4941C31.9986 19.4941 20.8286 19.4941 18.0466 20.2411C17.2883 20.4457 16.5973 20.8464 16.043 21.4029C15.4888 21.9594 15.091 22.652 14.8896 23.4111C14.1436 26.1931 14.1436 32.0061 14.1436 32.0061C14.1436 32.0061 14.1436 37.8181 14.8906 40.6021C15.0941 41.3588 15.4928 42.0487 16.0469 42.6028C16.601 43.1569 17.2909 43.5556 18.0476 43.7591C20.8316 44.5061 31.9996 44.5061 31.9996 44.5061C31.9996 44.5061 43.1706 44.5061 45.9546 43.7591C46.7112 43.5553 47.4011 43.1565 47.9552 42.6025C48.5094 42.0485 48.9085 41.3587 49.1126 40.6021C49.8566 37.8181 49.8566 32.0061 49.8566 32.0061C49.8566 32.0061 49.8466 26.1941 49.1126 23.4101ZM28.4286 37.3621V26.6501L37.7056 32.0061L28.4286 37.3621Z" fill="white"/>
</svg>
