<svg width="64" height="64" viewBox="0 0 64 64" fill="none" xmlns="http://www.w3.org/2000/svg">
<rect width="64" height="64" rx="32" fill="#333333"/>
<g clip-path="url(#clip0_382_3529)">
<path d="M48 32.0981C48 23.2075 40.8363 16 32 16C23.1637 16 16 23.2075 16 32.0981C16 40.1323 21.8507 46.7925 29.4997 48V36.7509H25.4379V32.0981H29.4997V28.5515C29.4997 24.5163 31.8891 22.288 35.5435 22.288C37.2928 22.288 39.1253 22.6027 39.1253 22.6027V26.5643H37.1072C35.12 26.5643 34.5003 27.8048 34.5003 29.0795V32.0981H38.9376L38.2283 36.7509H34.5003V48C42.1483 46.7925 48 40.1323 48 32.0981Z" fill="white"/>
</g>
<defs>
<clipPath id="clip0_382_3529">
<rect width="32" height="32" fill="white" transform="translate(16 16)"/>
</clipPath>
</defs>
</svg>
