<svg width="58" height="58" viewBox="0 0 58 58" fill="none" xmlns="http://www.w3.org/2000/svg">
<circle cx="29" cy="29" r="29" fill="#333333"/>
<path d="M33.1429 28.8274L27.1012 32.2798V25.375L33.1429 28.8274Z" fill="white" stroke="white" stroke-width="1.12346" stroke-linecap="round" stroke-linejoin="round"/>
<path d="M12.4286 30.0487V27.606C12.4286 22.608 12.4286 20.1091 13.9916 18.5012C15.5547 16.8933 18.0155 16.8237 22.9371 16.6845C25.2693 16.6186 27.6515 16.5713 29.6905 16.5713C31.7295 16.5713 34.1118 16.6186 36.4439 16.6845C41.3654 16.8237 43.8263 16.8933 45.3893 18.5012C46.9524 20.1091 46.9524 22.608 46.9524 27.606V30.0487C46.9524 35.0465 46.9524 37.5455 45.3893 39.1533C43.8263 40.7613 41.3656 40.8308 36.444 40.9701C34.1118 41.0361 31.7295 41.0834 29.6905 41.0834C27.6515 41.0834 25.2692 41.0361 22.9369 40.9701C18.0154 40.8308 15.5547 40.7613 13.9916 39.1533C12.4286 37.5455 12.4286 35.0465 12.4286 30.0487Z" stroke="white" stroke-width="1.12346"/>
</svg>
