<svg width="113" height="34" viewBox="0 0 113 34" fill="none" xmlns="http://www.w3.org/2000/svg">
<g clip-path="url(#clip0_148_2104)">
<path d="M36.5266 10.8955H34.8467V14.4273C34.8467 14.4531 34.8416 14.4786 34.8316 14.5025C34.8216 14.5263 34.8069 14.5479 34.7884 14.566C34.77 14.5841 34.7481 14.5985 34.7241 14.6081C34.7 14.6178 34.6743 14.6226 34.6483 14.6222H32.9357C32.9098 14.6226 32.8841 14.6178 32.86 14.6081C32.836 14.5985 32.8141 14.5841 32.7956 14.566C32.7772 14.5479 32.7625 14.5263 32.7525 14.5025C32.7425 14.4786 32.7374 14.4531 32.7374 14.4273V4.63443C32.7374 4.60861 32.7425 4.58306 32.7525 4.55924C32.7625 4.53542 32.7772 4.51382 32.7956 4.49568C32.8141 4.47754 32.836 4.46323 32.86 4.45359C32.8841 4.44394 32.9098 4.43914 32.9357 4.43947H36.5392C37.7495 4.43947 38.682 4.70691 39.3366 5.24179C39.9911 5.77667 40.3192 6.53484 40.3209 7.51629C40.3466 8.13141 40.1885 8.74029 39.8664 9.2659C39.5278 9.76192 39.0501 10.1479 38.4928 10.3757L40.6072 14.3473C40.6206 14.3769 40.6263 14.4095 40.6239 14.4419C40.6214 14.4744 40.6109 14.5057 40.5931 14.533C40.5754 14.5603 40.5511 14.5828 40.5224 14.5984C40.4937 14.614 40.4616 14.6222 40.4289 14.6222H38.5832C38.54 14.6208 38.4979 14.6084 38.4609 14.5861C38.424 14.5637 38.3935 14.5323 38.3723 14.4948L36.5266 10.8955ZM34.8467 9.19592H36.5467C36.9934 9.22256 37.4334 9.07864 37.7772 8.79351C37.9247 8.64989 38.0397 8.47663 38.1146 8.28526C38.1895 8.0939 38.2226 7.88884 38.2116 7.68375C38.2234 7.47733 38.1932 7.27065 38.1229 7.07611C38.0525 6.88156 37.9435 6.70313 37.8023 6.5515C37.6308 6.40349 37.4316 6.29083 37.216 6.22003C37.0005 6.14924 36.773 6.12173 36.5467 6.13909H34.8542L34.8467 9.19592Z" fill="white"/>
<path d="M45.9533 14.5097C45.8796 14.3284 45.829 14.1386 45.8026 13.9448C45.5626 14.2126 45.2663 14.4247 44.9348 14.5659C44.6032 14.7071 44.2446 14.7741 43.8842 14.7621C43.2073 14.7872 42.5457 14.5579 42.031 14.1198C41.7966 13.9199 41.61 13.6707 41.4844 13.3901C41.3589 13.1095 41.2977 12.8047 41.3053 12.4976C41.2872 12.1399 41.3596 11.7834 41.5158 11.4607C41.672 11.138 41.9069 10.8595 42.1992 10.6505C42.7969 10.2156 43.6607 9.99816 44.7907 9.99816H45.7248V9.56576C45.7393 9.262 45.6419 8.96341 45.4511 8.72594C45.341 8.61388 45.2074 8.52751 45.0597 8.47305C44.9121 8.4186 44.7542 8.39741 44.5973 8.41101C44.308 8.39594 44.0229 8.48462 43.7938 8.66096C43.6405 8.78668 43.5401 8.96505 43.5125 9.16085C43.5047 9.20608 43.481 9.24705 43.4455 9.27638C43.4101 9.30571 43.3653 9.32147 43.3192 9.32081H41.6844C41.6563 9.32068 41.6286 9.31462 41.603 9.30301C41.5775 9.29141 41.5547 9.27453 41.5362 9.2535C41.5176 9.23247 41.5038 9.20777 41.4956 9.18102C41.4874 9.15427 41.485 9.1261 41.4886 9.09836C41.5287 8.73623 41.6648 8.39121 41.8828 8.09858C42.1792 7.70674 42.5778 7.4033 43.0354 7.22128C43.5628 7.00765 44.1284 6.90305 44.6978 6.91384C45.6336 6.91384 46.3777 7.14879 46.9301 7.61869C47.2083 7.86466 47.4271 8.16999 47.5702 8.5119C47.7132 8.8538 47.7768 9.22345 47.7563 9.59325V12.875C47.734 13.375 47.8143 13.8742 47.9923 14.3422C48.0068 14.3719 48.0134 14.4047 48.0116 14.4377C48.0099 14.4706 47.9997 14.5025 47.9822 14.5305C47.9646 14.5585 47.9402 14.5816 47.9112 14.5976C47.8823 14.6136 47.8497 14.6221 47.8166 14.6221H46.1316C46.0941 14.6229 46.0571 14.6127 46.0254 14.5927C45.9937 14.5727 45.9686 14.5438 45.9533 14.5097ZM44.3261 13.2175C44.6146 13.2195 44.8992 13.1508 45.1548 13.0175C45.3923 12.9 45.5885 12.7135 45.7173 12.4826V11.1804H44.9639C43.9478 11.1804 43.4062 11.5303 43.3392 12.2302V12.3501C43.3361 12.4671 43.3585 12.5833 43.4048 12.6907C43.4512 12.7982 43.5205 12.8943 43.6079 12.9725C43.8098 13.1429 44.0693 13.2305 44.3337 13.2175H44.3261Z" fill="white"/>
<path d="M53.2883 12.5326C53.2879 12.4105 53.2531 12.2909 53.1879 12.1875C53.1226 12.0841 53.0295 12.001 52.9192 11.9477C52.5438 11.7618 52.1426 11.6329 51.7289 11.5653C49.9226 11.187 49.0203 10.4222 49.0219 9.27079C49.0199 8.9444 49.0949 8.62209 49.2411 8.3299C49.3872 8.0377 49.6003 7.78379 49.8631 7.58866C50.4933 7.11596 51.2696 6.87726 52.0579 6.91381C53.0238 6.91381 53.7955 7.14042 54.3731 7.59366C54.6232 7.77466 54.8307 8.00773 54.9812 8.27664C55.1317 8.54555 55.2215 8.84385 55.2445 9.15081C55.2458 9.17746 55.2417 9.2041 55.2323 9.22909C55.2229 9.25408 55.2085 9.27688 55.1899 9.2961C55.1713 9.31531 55.1489 9.33052 55.1242 9.34078C55.0995 9.35105 55.0729 9.35615 55.0461 9.35577H53.4038C53.3573 9.35633 53.3122 9.34022 53.2767 9.31039C53.2412 9.28056 53.2177 9.23899 53.2105 9.19331C53.1841 8.98362 53.0887 8.78852 52.9393 8.63843C52.819 8.53556 52.6793 8.4576 52.5284 8.4091C52.3775 8.36061 52.2184 8.34255 52.0604 8.35599C51.7771 8.33887 51.4966 8.42014 51.2669 8.58594C51.176 8.65475 51.1024 8.74361 51.0518 8.84553C51.0013 8.94745 50.9752 9.05965 50.9756 9.17331C50.9758 9.284 51.0058 9.39261 51.0623 9.48795C51.1188 9.58329 51.1998 9.6619 51.297 9.71569C51.6323 9.89656 51.9969 10.0175 52.3743 10.0731C52.8093 10.1536 53.2374 10.2672 53.6549 10.413C54.728 10.803 55.2637 11.4811 55.262 12.4476C55.2669 12.7788 55.1878 13.1059 55.032 13.3986C54.8762 13.6914 54.6487 13.9402 54.3706 14.1222C53.6901 14.574 52.8826 14.7982 52.0654 14.7621C51.4817 14.773 50.9026 14.6579 50.3679 14.4247C49.9092 14.2217 49.5125 13.9018 49.2178 13.4974C48.9899 13.189 48.8486 12.8258 48.8085 12.4451C48.8049 12.4173 48.8073 12.3892 48.8155 12.3624C48.8237 12.3357 48.8376 12.311 48.8561 12.2899C48.8746 12.2689 48.8974 12.252 48.9229 12.2404C48.9485 12.2288 48.9763 12.2228 49.0043 12.2226H50.5462C50.5914 12.2214 50.6355 12.2363 50.6706 12.2648C50.7056 12.2932 50.7292 12.3333 50.737 12.3776C50.7533 12.509 50.7956 12.6359 50.8616 12.7509C50.9276 12.8659 51.0158 12.9667 51.1212 13.0475C51.4143 13.2523 51.768 13.3535 52.1257 13.3349C52.4357 13.3559 52.7445 13.278 53.0071 13.1124C53.0983 13.0463 53.1717 12.9588 53.2207 12.8576C53.2698 12.7564 53.293 12.6448 53.2883 12.5326Z" fill="white"/>
<path d="M63.3252 10.9075C63.3252 12.0739 63.059 13.0078 62.5267 13.7093C62.2814 14.0467 61.9567 14.319 61.5811 14.5025C61.2054 14.6859 60.7903 14.7749 60.3722 14.7616C60.0216 14.7749 59.6724 14.7102 59.3501 14.5723C59.0278 14.4344 58.7404 14.2267 58.5089 13.9643V17.336C58.5089 17.362 58.5038 17.3877 58.4938 17.4116C58.4838 17.4356 58.4692 17.4573 58.4508 17.4757C58.4324 17.494 58.4105 17.5085 58.3864 17.5185C58.3624 17.5284 58.3366 17.5335 58.3105 17.5335H56.6758C56.6236 17.5328 56.5738 17.5118 56.5371 17.4748C56.5005 17.4378 56.4799 17.388 56.4799 17.336V7.24827C56.4796 7.22246 56.4844 7.19684 56.4941 7.1729C56.5038 7.14895 56.5182 7.12717 56.5364 7.1088C56.5546 7.09043 56.5763 7.07584 56.6003 7.06589C56.6242 7.05594 56.6499 7.05081 56.6758 7.05082H58.1825C58.2318 7.05056 58.2794 7.0686 58.3161 7.10141C58.3528 7.13422 58.3759 7.17945 58.3808 7.22828L58.4336 7.79315C58.6647 7.5084 58.9587 7.28062 59.2928 7.12758C59.6269 6.97454 59.992 6.90037 60.3596 6.91085C60.7813 6.89174 61.2013 6.9764 61.5824 7.15732C61.9634 7.33824 62.2938 7.60985 62.5443 7.94812C63.0632 8.63797 63.3235 9.58859 63.3252 10.8V10.9075ZM61.2937 10.7625C61.3274 10.1938 61.1967 9.62742 60.9171 9.13036C60.8018 8.94763 60.6401 8.79847 60.4482 8.69796C60.2564 8.59745 60.0413 8.54916 59.8247 8.55798C59.1869 8.55798 58.7491 8.80043 58.5114 9.28532V12.3846C58.631 12.6284 58.8219 12.8305 59.059 12.9643C59.296 13.0981 59.5682 13.1574 59.8398 13.1345C60.8091 13.1328 61.2937 12.3421 61.2937 10.7625Z" fill="white"/>
<path d="M71.3658 10.9074C71.3658 12.1204 71.1063 13.066 70.5874 13.7442C70.3344 14.0773 70.0038 14.344 69.624 14.5213C69.2442 14.6985 68.8267 14.781 68.4077 14.7615C68.027 14.7733 67.6489 14.6938 67.3055 14.5299C66.962 14.3659 66.6631 14.1222 66.434 13.8192L66.3612 14.4491C66.3556 14.4968 66.3325 14.5408 66.2964 14.5726C66.2602 14.6044 66.2136 14.6219 66.1653 14.6215H64.7114C64.6856 14.6215 64.6602 14.6165 64.6364 14.6067C64.6127 14.5969 64.5911 14.5825 64.5729 14.5644C64.5547 14.5463 64.5403 14.5248 64.5304 14.5012C64.5206 14.4775 64.5155 14.4522 64.5155 14.4266V4.07386C64.5155 4.02216 64.5361 3.97257 64.5729 3.93601C64.6096 3.89945 64.6594 3.87891 64.7114 3.87891H66.3486C66.4006 3.87891 66.4504 3.89945 66.4871 3.93601C66.5238 3.97257 66.5445 4.02216 66.5445 4.07386V7.73306C66.7699 7.46579 67.0534 7.25307 67.3736 7.11104C67.6938 6.969 68.0423 6.90136 68.3927 6.91324C68.8121 6.89515 69.2297 6.97847 69.6097 7.15606C69.9897 7.33366 70.3209 7.60024 70.5748 7.93301C71.1021 8.6112 71.3658 9.56599 71.3658 10.7974V10.9074ZM69.3343 10.7624C69.3343 9.99756 69.213 9.43851 68.9702 9.08526C68.8494 8.91157 68.6856 8.77181 68.4947 8.67944C68.3038 8.58706 68.0923 8.5452 67.8804 8.55787C67.6029 8.53518 67.3252 8.59903 67.0858 8.74056C66.8464 8.8821 66.6572 9.09429 66.5445 9.3477V12.347C66.659 12.6028 66.8505 12.8169 67.0925 12.9597C67.3345 13.1025 67.615 13.1671 67.8955 13.1444C68.1906 13.1608 68.4822 13.0731 68.7188 12.8966C68.9553 12.7201 69.1217 12.4662 69.1887 12.1796C69.3049 11.7165 69.354 11.2393 69.3343 10.7624Z" fill="white"/>
<path d="M76.0163 14.7618C75.5175 14.7826 75.0195 14.7035 74.5519 14.5292C74.0843 14.3549 73.6567 14.0889 73.2943 13.747C72.5929 13.0655 72.2421 12.1582 72.2421 11.0251V10.8301C72.2304 10.1255 72.3817 9.42771 72.6841 8.79057C72.9577 8.21678 73.3942 7.73538 73.9397 7.40587C74.4994 7.07613 75.14 6.90741 75.7903 6.91848C76.8333 6.91848 77.6527 7.24507 78.2487 7.89826C78.8447 8.55145 79.1427 9.47708 79.1427 10.6752V11.305C79.1427 11.3567 79.122 11.4063 79.0853 11.4429C79.0486 11.4794 78.9988 11.5 78.9468 11.5H74.3013C74.3465 11.9557 74.5583 12.3791 74.8964 12.6897C75.2411 12.9947 75.6911 13.155 76.1519 13.1371C76.4672 13.1494 76.7815 13.0941 77.0734 12.9751C77.3654 12.8561 77.6283 12.6761 77.8444 12.4473C77.8628 12.4273 77.8851 12.4114 77.9099 12.4005C77.9348 12.3897 77.9617 12.384 77.9888 12.384C78.016 12.384 78.0428 12.3897 78.0677 12.4005C78.0925 12.4114 78.1149 12.4273 78.1332 12.4473L78.8715 13.2671C78.9 13.3025 78.9155 13.3466 78.9155 13.3921C78.9155 13.4375 78.9 13.4816 78.8715 13.517C78.566 13.8934 78.1753 14.1923 77.7314 14.3893C77.1939 14.6367 76.6085 14.7638 76.0163 14.7618ZM75.7853 8.54312C75.6018 8.53671 75.4191 8.56979 75.2497 8.6401C75.0802 8.71041 74.928 8.8163 74.8035 8.95053C74.5299 9.28261 74.3643 9.68975 74.3289 10.1178H77.1539V9.95531C77.1693 9.57412 77.0382 9.2014 76.7873 8.91304C76.6556 8.78493 76.4984 8.68579 76.3258 8.62206C76.1532 8.55833 75.969 8.53144 75.7853 8.54312Z" fill="white"/>
<path d="M84.5591 8.73325C84.5589 8.76009 84.5531 8.78659 84.542 8.81105C84.5309 8.8355 84.5148 8.85738 84.4947 8.87527C84.4746 8.89316 84.4509 8.90666 84.4253 8.91492C84.3996 8.92318 84.3725 8.926 84.3457 8.92321C84.1731 8.90424 83.9996 8.89423 83.8259 8.89322C83.0575 8.89322 82.5553 9.14316 82.3192 9.67055V14.4195C82.3192 14.4712 82.2986 14.5208 82.2619 14.5574C82.2251 14.5939 82.1753 14.6145 82.1234 14.6145H80.4811C80.4292 14.6145 80.3793 14.5939 80.3426 14.5574C80.3059 14.5208 80.2852 14.4712 80.2852 14.4195V7.24858C80.2849 7.22277 80.2897 7.19715 80.2994 7.17321C80.3091 7.14926 80.3235 7.12747 80.3417 7.10911C80.3599 7.09074 80.3816 7.07615 80.4056 7.0662C80.4295 7.05625 80.4552 7.05112 80.4811 7.05112H82.0179C82.068 7.05165 82.116 7.07102 82.1523 7.10532C82.1886 7.13963 82.2106 7.18634 82.2138 7.23608L82.259 7.95342C82.4151 7.63914 82.6568 7.37481 82.9564 7.19055C83.2561 7.00628 83.6017 6.90947 83.954 6.91115C84.1161 6.91049 84.2779 6.9281 84.4361 6.96364C84.479 6.97436 84.517 6.99921 84.5439 7.03416C84.5708 7.0691 84.585 7.11208 84.5843 7.1561L84.5591 8.73325Z" fill="white"/>
<path d="M89.6944 8.73325C89.6938 8.7602 89.6877 8.78675 89.6763 8.81121C89.6649 8.83567 89.6486 8.85752 89.6283 8.87537C89.608 8.89322 89.5842 8.90669 89.5584 8.91492C89.5326 8.92316 89.5054 8.92598 89.4784 8.92321C89.3058 8.90424 89.1323 8.89423 88.9586 8.89321C88.1902 8.89321 87.688 9.15232 87.452 9.67054V14.4195C87.4513 14.4714 87.4301 14.521 87.393 14.5575C87.3559 14.594 87.3058 14.6145 87.2536 14.6145H85.6164C85.5644 14.6145 85.5146 14.5939 85.4779 14.5574C85.4411 14.5208 85.4205 14.4712 85.4205 14.4195V7.24858C85.4202 7.22276 85.425 7.19714 85.4347 7.1732C85.4444 7.14926 85.4587 7.12747 85.477 7.1091C85.4952 7.09073 85.5169 7.07615 85.5408 7.0662C85.5647 7.05624 85.5904 7.05112 85.6164 7.05112H87.1532C87.2034 7.05105 87.2518 7.07022 87.2882 7.10464C87.3247 7.13907 87.3464 7.18613 87.349 7.23608L87.3942 7.95342C87.8035 7.25857 88.366 6.91115 89.0892 6.91115C89.2514 6.91049 89.4131 6.92809 89.5714 6.96364C89.6143 6.97436 89.6522 6.99921 89.6791 7.03416C89.706 7.0691 89.7203 7.11208 89.7195 7.1561L89.6944 8.73325Z" fill="white"/>
<path d="M93.7875 11.7627L95.151 7.19368C95.1638 7.15322 95.1892 7.11785 95.2235 7.09269C95.2578 7.06753 95.2993 7.05388 95.3419 7.05371H97.0997C97.1312 7.05395 97.1622 7.06167 97.1902 7.07622C97.2181 7.09078 97.2421 7.11176 97.2603 7.13741C97.2785 7.16307 97.2902 7.19267 97.2946 7.22375C97.299 7.25484 97.2959 7.28651 97.2855 7.31615L94.3148 15.7993L94.1466 16.1967C93.6929 17.1865 92.9396 17.6805 91.8866 17.6789C91.6326 17.6787 91.3797 17.6476 91.1333 17.5864C91.0908 17.5749 91.0533 17.5498 91.0265 17.5151C90.9998 17.4803 90.9852 17.4377 90.9851 17.3939V16.2192C90.9851 16.1926 90.9905 16.1663 91.0009 16.1419C91.0113 16.1174 91.0266 16.0953 91.0458 16.0768C91.0651 16.0584 91.0878 16.044 91.1128 16.0346C91.1377 16.0251 91.1643 16.0207 91.191 16.0217H91.3919C91.6562 16.0393 91.9194 15.9746 92.1452 15.8368C92.3536 15.697 92.5106 15.4934 92.5922 15.2569L92.8308 14.6345L90.282 7.31615C90.2716 7.28651 90.2685 7.25484 90.2729 7.22375C90.2772 7.19267 90.289 7.16307 90.3072 7.13741C90.3253 7.11176 90.3494 7.09078 90.3773 7.07622C90.4053 7.06167 90.4363 7.05395 90.4678 7.05371H92.2256C92.2682 7.05388 92.3097 7.06753 92.344 7.09269C92.3783 7.11785 92.4037 7.15322 92.4164 7.19368L93.7875 11.7627Z" fill="white"/>
<path d="M104 11.0356V14.4273C104 14.4531 103.995 14.4787 103.985 14.5025C103.975 14.5263 103.96 14.5479 103.942 14.566C103.923 14.5842 103.902 14.5985 103.878 14.6081C103.853 14.6178 103.828 14.6226 103.802 14.6223H102.087C102.061 14.6223 102.036 14.6172 102.012 14.6074C101.988 14.5976 101.966 14.5833 101.948 14.5652C101.93 14.5471 101.916 14.5256 101.906 14.5019C101.896 14.4783 101.891 14.4529 101.891 14.4273V4.63446C101.891 4.58276 101.912 4.53317 101.948 4.49661C101.985 4.46004 102.035 4.4395 102.087 4.4395H105.884C106.582 4.42478 107.275 4.56837 107.91 4.85941C108.467 5.11536 108.936 5.53031 109.256 6.05165C109.572 6.58026 109.735 7.18601 109.726 7.80126C109.747 8.24672 109.665 8.69104 109.486 9.10007C109.308 9.50911 109.037 9.87196 108.696 10.1607C108.01 10.7389 107.06 11.0272 105.848 11.0256L104 11.0356ZM104 9.33592H105.884C106.343 9.3667 106.797 9.22689 107.159 8.94351C107.309 8.79949 107.426 8.62477 107.501 8.43144C107.577 8.2381 107.609 8.03076 107.596 7.82376C107.606 7.60307 107.572 7.38256 107.497 7.17494C107.421 6.96731 107.304 6.77668 107.154 6.61402C106.994 6.45566 106.803 6.33179 106.592 6.25009C106.382 6.1684 106.157 6.13063 105.931 6.13913H104V9.33592Z" fill="white"/>
<path d="M110.722 5.09675C110.718 4.95741 110.743 4.81872 110.796 4.68959C110.849 4.56046 110.928 4.44374 111.029 4.34692C111.264 4.15782 111.557 4.05469 111.86 4.05469C112.162 4.05469 112.456 4.15782 112.691 4.34692C112.792 4.44352 112.872 4.56014 112.925 4.68929C112.978 4.81843 113.004 4.95723 113 5.09675C113.003 5.23664 112.977 5.37566 112.923 5.50483C112.869 5.63399 112.788 5.75042 112.686 5.84658C112.453 6.03557 112.162 6.13878 111.861 6.13878C111.561 6.13878 111.269 6.03557 111.036 5.84658C110.934 5.75042 110.853 5.63399 110.799 5.50483C110.745 5.37566 110.719 5.23664 110.722 5.09675ZM112.684 14.6221H111.039C111.013 14.6221 110.988 14.6171 110.964 14.6073C110.94 14.5975 110.918 14.5831 110.9 14.565C110.882 14.5469 110.868 14.5255 110.858 14.5018C110.848 14.4781 110.843 14.4528 110.843 14.4272V7.24878C110.843 7.22296 110.847 7.19734 110.857 7.1734C110.867 7.14946 110.881 7.12767 110.899 7.1093C110.918 7.09093 110.939 7.07635 110.963 7.06639C110.987 7.05644 111.013 7.05132 111.039 7.05132H112.684C112.71 7.05132 112.735 7.05644 112.759 7.06639C112.783 7.07635 112.805 7.09093 112.823 7.1093C112.841 7.12767 112.856 7.14946 112.865 7.1734C112.875 7.19734 112.88 7.22296 112.879 7.24878V14.4272C112.879 14.4528 112.874 14.4781 112.865 14.5018C112.855 14.5255 112.84 14.5469 112.822 14.565C112.804 14.5831 112.782 14.5975 112.759 14.6073C112.735 14.6171 112.709 14.6221 112.684 14.6221Z" fill="white"/>
<path d="M26.5575 19.5554C26.4043 17.9807 25.6937 16.581 24.6842 15.8437C24.5143 15.2286 24.2185 14.655 23.8154 14.1591C23.6827 12.806 23.0195 11.5595 21.9697 10.6898C22.1402 10.5425 22.2845 10.3676 22.3966 10.1724C23.622 9.62507 24.4858 8.48282 24.5863 7.63051C25.2023 7.05939 25.5805 6.27889 25.646 5.44349C25.6648 5.10485 25.6002 4.76677 25.4576 4.45871C25.7162 4.21733 25.9006 3.90788 25.9895 3.56632C26.0784 3.22476 26.0681 2.8651 25.9599 2.52913C25.5957 1.47436 24.3126 0.779518 22.5899 0.717032C22.0651 0.272483 21.3899 0.0436754 20.7016 0.0771727C20.3632 0.0795167 20.0261 0.120611 19.6971 0.199646C19.3813 0.0597465 19.0383 -0.00855178 18.6927 -0.000310222C18.0253 0.0072275 17.371 0.184468 16.7918 0.514576C16.7194 0.504957 16.6464 0.499948 16.5733 0.49958C15.717 0.49958 14.8633 1.08695 14.4288 1.43687C14.0058 1.77704 13.6278 2.16925 13.3039 2.60412C12.9791 2.1692 12.6002 1.777 12.1764 1.43687C11.7344 1.08695 10.8781 0.49958 10.0243 0.49958C9.94709 0.49952 9.86992 0.50453 9.79332 0.514576C9.21518 0.184155 8.56155 0.00687641 7.89492 -0.000310222C7.54937 -0.00838507 7.20633 0.0599059 6.89048 0.199646C6.5615 0.120568 6.22446 0.0794724 5.88603 0.0771727C5.20467 0.0495389 4.53779 0.27794 4.01777 0.717032C2.29514 0.789516 1.00443 1.46687 0.647856 2.52913C0.540182 2.86516 0.530203 3.22466 0.61907 3.56609C0.707938 3.90753 0.892028 4.21698 1.15008 4.45871C1.00958 4.76735 0.945837 5.10514 0.964256 5.44349C1.02334 6.27742 1.3964 7.05845 2.00888 7.63051C2.10681 8.48282 2.97314 9.63007 4.19857 10.1724C4.30974 10.3682 4.45418 10.5432 4.62546 10.6898C3.56819 11.5557 2.8983 12.803 2.76221 14.1591C2.35857 14.6547 2.06272 15.2283 1.89337 15.8437C0.888923 16.5935 0.170745 17.9807 0.0200782 19.5554C-0.130588 21.13 0.308856 22.5822 1.18774 23.507C1.34505 24.294 1.67047 25.0382 2.14197 25.689C2.24924 26.917 2.75519 28.0769 3.58335 28.9933C4.41171 29.9421 5.52438 30.601 6.75739 30.8729C7.49056 31.5568 8.35138 32.0909 9.2911 32.445C9.82273 32.953 10.4501 33.3513 11.1371 33.6168C11.8241 33.8824 12.5571 34.0099 13.2938 33.9922C14.0298 34.0079 14.7617 33.8787 15.4473 33.6119C16.133 33.3451 16.7589 32.946 17.289 32.4375C18.2325 32.089 19.0984 31.56 19.8378 30.8804C21.0691 30.6052 22.1791 29.9437 23.0043 28.9933C23.8343 28.0753 24.3396 26.9122 24.4431 25.6815C24.9156 25.0312 25.2411 24.2868 25.3974 23.4995C26.2763 22.5822 26.7082 21.12 26.5575 19.5554ZM20.6263 14.7689C19.5649 14.1852 18.6269 13.4027 17.864 12.4644C16.8721 11.2897 17.515 10.7698 19.0769 11.0498C19.6753 11.2081 20.2313 11.4955 20.7056 11.8915C21.18 12.2876 21.5609 12.7827 21.8215 13.3417C22.374 14.8114 21.9421 15.5188 20.6263 14.7689ZM16.5131 2.27169C16.5342 2.2653 16.5567 2.26427 16.5783 2.26868C16.6 2.27309 16.6202 2.2828 16.6372 2.29694C16.6541 2.31108 16.6672 2.32921 16.6754 2.34967C16.6835 2.37014 16.6864 2.3923 16.6838 2.41416C16.6411 2.81907 16.8872 2.76908 16.9349 2.69659C17.5778 1.91427 18.2633 1.73431 18.871 1.7868C18.8951 1.78926 18.9181 1.79812 18.9376 1.81244C18.9571 1.82677 18.9724 1.84603 18.9819 1.86824C18.9914 1.89044 18.9947 1.91477 18.9916 1.93869C18.9884 1.96261 18.9788 1.98525 18.9639 2.00425C18.7128 2.36167 18.9815 2.42915 19.0769 2.36417C20.0613 1.7493 21.0004 1.7493 21.362 1.99925C21.3777 2.0119 21.3904 2.02789 21.3991 2.04606C21.4079 2.06422 21.4124 2.0841 21.4124 2.10423C21.4124 2.12435 21.4079 2.14423 21.3991 2.16239C21.3904 2.18056 21.3777 2.19655 21.362 2.2092C20.9979 2.51663 21.2013 2.6716 21.3319 2.62411C22.3363 2.27419 23.7099 2.58412 24.192 2.98903C24.2069 3.0017 24.2188 3.01742 24.227 3.03511C24.2352 3.0528 24.2394 3.07204 24.2394 3.09151C24.2394 3.11098 24.2352 3.13022 24.227 3.14791C24.2188 3.1656 24.2069 3.18131 24.192 3.19399C23.906 3.41241 23.6665 3.68537 23.4876 3.99692C23.3086 4.30848 23.1939 4.65239 23.1499 5.00859C23.1223 5.25853 23.5191 5.19604 23.6873 5.15355C23.7068 5.14872 23.7271 5.14826 23.7468 5.1522C23.7665 5.15614 23.7851 5.16439 23.8012 5.17635C23.8173 5.18831 23.8305 5.20368 23.8399 5.22135C23.8493 5.23902 23.8547 5.25855 23.8555 5.27853C23.8706 5.8509 23.3257 6.48076 22.5171 7.02814C22.4091 7.10062 22.4242 7.27809 22.6703 7.27809C22.6939 7.27842 22.7171 7.28489 22.7374 7.29688C22.7578 7.30886 22.7746 7.32593 22.7863 7.34639C22.798 7.36685 22.8041 7.39 22.804 7.41353C22.8039 7.43706 22.7976 7.46016 22.7858 7.48054C22.497 8.01292 22.1053 8.51531 20.7769 8.86024C20.7511 8.86849 20.7284 8.88425 20.7117 8.90547C20.695 8.92669 20.6851 8.9524 20.6832 8.97929C20.6813 9.00618 20.6875 9.03302 20.7011 9.05635C20.7147 9.07968 20.735 9.09843 20.7593 9.11018C20.7829 9.11714 20.8041 9.13047 20.8205 9.14868C20.8369 9.16689 20.848 9.18928 20.8524 9.21336C20.8568 9.23743 20.8545 9.26226 20.8456 9.28508C20.8367 9.3079 20.8216 9.32782 20.802 9.34263C19.4686 10.4974 16.0937 10.0425 15.6643 8.1254C15.6606 8.10634 15.6609 8.08671 15.6652 8.06778C15.6696 8.04885 15.6778 8.03102 15.6894 8.01542C17.1208 6.10751 19.0595 4.63579 21.2867 3.76636C21.3097 3.75589 21.3283 3.73769 21.3392 3.71494C21.3502 3.6922 21.3527 3.66635 21.3464 3.64193C21.3401 3.61751 21.3254 3.59606 21.3049 3.58134C21.2843 3.56662 21.2592 3.55956 21.2339 3.5614C20.0277 3.73657 18.8687 4.14955 17.8248 4.77615C16.7809 5.40276 15.8731 6.2304 15.1545 7.2106C15.135 7.23651 15.1067 7.25456 15.0749 7.26144C15.0431 7.26832 15.0099 7.26359 14.9813 7.24809C12.8067 6.14583 14.5946 2.86406 16.5131 2.28169V2.27169ZM13.2938 10.7698C14.2479 10.7674 15.1737 11.0922 15.9154 11.6896C17.7962 13.2468 15.6392 14.349 13.2938 14.349C10.9484 14.349 8.78888 13.2468 10.6722 11.6896C11.4138 11.092 12.3397 10.7672 13.2938 10.7698ZM3.78926 7.48304C3.77743 7.46266 3.77117 7.43956 3.77108 7.41603C3.771 7.3925 3.77709 7.36935 3.78877 7.34889C3.80044 7.32843 3.81729 7.31136 3.83764 7.29938C3.85799 7.28739 3.88113 7.28092 3.90477 7.28058C4.15588 7.28058 4.16843 7.10312 4.06046 7.03064C3.24937 6.49076 2.70446 5.8609 2.71952 5.28102C2.72033 5.26078 2.72571 5.24097 2.73526 5.22307C2.74481 5.20517 2.75829 5.18965 2.77469 5.17764C2.79109 5.16564 2.81 5.15746 2.83001 5.15372C2.85002 5.14999 2.87062 5.15078 2.89028 5.15605C3.05601 5.19854 3.45528 5.24853 3.42766 5.01108C3.38314 4.65478 3.26786 4.31084 3.08852 3.99931C2.90918 3.68778 2.66936 3.41487 2.38303 3.19648C2.36818 3.18381 2.35626 3.16809 2.34809 3.15041C2.33991 3.13272 2.33568 3.11348 2.33568 3.09401C2.33568 3.07454 2.33991 3.0553 2.34809 3.03761C2.35626 3.01992 2.36818 3.0042 2.38303 2.99153C2.86266 2.58662 4.24377 2.27669 5.24319 2.62661C5.37126 2.6741 5.57466 2.51913 5.21055 2.2117C5.19482 2.19905 5.18213 2.18306 5.17341 2.16489C5.1647 2.14673 5.16017 2.12685 5.16017 2.10672C5.16017 2.0866 5.1647 2.06672 5.17341 2.04856C5.18213 2.03039 5.19482 2.0144 5.21055 2.00175C5.5847 1.7493 6.52888 1.7493 7.50821 2.36417C7.60614 2.42915 7.86479 2.36417 7.62372 2.00425C7.60878 1.98525 7.59923 1.96261 7.59607 1.93869C7.5929 1.91477 7.59623 1.89044 7.60572 1.86824C7.61521 1.84603 7.6305 1.82677 7.65001 1.81244C7.66951 1.79812 7.69252 1.78926 7.71663 1.7868C8.32432 1.73431 8.99981 1.91427 9.64015 2.70659C9.6979 2.77908 9.94399 2.82907 9.89126 2.42415C9.88912 2.40218 9.89244 2.38001 9.90091 2.3596C9.90939 2.33919 9.92276 2.32117 9.93987 2.30711C9.95697 2.29304 9.97728 2.28337 9.99901 2.27894C10.0207 2.27451 10.0432 2.27545 10.0645 2.28169C11.983 2.86406 13.7584 6.14583 11.5963 7.25809C11.5673 7.27375 11.5337 7.27858 11.5014 7.27171C11.4692 7.26483 11.4405 7.2467 11.4205 7.2206C10.7022 6.2402 9.79447 5.41242 8.75053 4.78579C7.70659 4.15916 6.54747 3.74629 5.34112 3.5714C5.31586 3.56956 5.29076 3.57662 5.27019 3.59134C5.24963 3.60606 5.23492 3.62751 5.22864 3.65193C5.22236 3.67635 5.2249 3.70219 5.23582 3.72494C5.24674 3.74768 5.26535 3.76588 5.28839 3.77636C7.51627 4.6445 9.45528 6.11646 10.8857 8.02542C10.8984 8.04041 10.9073 8.05822 10.9117 8.07736C10.9161 8.0965 10.9157 8.1164 10.9108 8.1354C10.4914 10.0425 7.11648 10.4974 5.77555 9.35263C5.75597 9.33781 5.7409 9.31789 5.73201 9.29507C5.72312 9.27225 5.72076 9.24743 5.72518 9.22336C5.7296 9.19928 5.74063 9.17689 5.75706 9.15868C5.77349 9.14047 5.79466 9.12714 5.81823 9.12018C5.84156 9.10742 5.86068 9.08823 5.8733 9.06491C5.88592 9.04159 5.89151 9.01514 5.88939 8.98874C5.88727 8.96234 5.87753 8.93711 5.86134 8.91608C5.84515 8.89506 5.82321 8.87914 5.79814 8.87023C4.47228 8.51781 4.07803 8.01542 3.78926 7.48304ZM4.7711 13.3417C5.03117 12.7828 5.41166 12.2877 5.88557 11.8916C6.35948 11.4955 6.91518 11.2081 7.51323 11.0498C9.07514 10.7698 9.7205 11.2997 8.72861 12.4644C7.96517 13.4021 7.02733 14.1845 5.96639 14.7689C4.64555 15.5188 4.21363 14.8114 4.7711 13.3417ZM2.04403 21.5074C1.8281 20.9264 1.74426 20.3049 1.79854 19.6878C1.85281 19.0706 2.04386 18.4731 2.35792 17.9382C3.0535 16.7585 3.7541 16.806 4.03032 17.8033C4.38467 19.1797 4.25712 20.6353 3.66872 21.9299C3.15394 22.9471 2.5111 22.6022 2.04403 21.5074ZM7.06626 29.1358C5.39888 28.7858 3.9801 27.1112 3.91481 25.4141C4.16843 19.3679 12.9247 30.1655 7.05872 29.1358H7.06626ZM7.24454 21.6049C5.77555 20.7601 5.3813 18.6931 6.37068 16.9959C7.36006 15.2988 9.35137 14.594 10.8204 15.4363C12.2894 16.2786 12.6761 18.3481 11.6867 20.0528C10.6973 21.7574 8.70601 22.4472 7.23701 21.6049H7.24454ZM15.7421 31.4428C15.0289 31.9546 14.1719 32.2301 13.2926 32.2301C12.4132 32.2301 11.5562 31.9546 10.843 31.4428C9.38903 30.443 10.843 29.2932 13.2938 29.2932C15.7447 29.2932 17.1986 30.443 15.7421 31.4428ZM13.2938 27.7786C11.4105 27.7786 9.88372 26.4764 9.88372 24.8692C9.88372 23.2621 11.4105 21.9623 13.2938 21.9623C15.1771 21.9623 16.7014 23.2646 16.7014 24.8692C16.7014 26.4739 15.1746 27.7786 13.2938 27.7786ZM14.8984 20.0453C13.909 18.3406 14.2983 16.2736 15.7673 15.4288C17.2363 14.584 19.2276 15.2838 20.2169 16.9959C21.2063 18.7081 20.8171 20.7676 19.3481 21.6124C17.8791 22.4572 15.8878 21.7449 14.8984 20.0453ZM19.5264 29.1358C13.6604 30.1655 22.4167 19.3679 22.6778 25.4141C22.6151 27.1112 21.1963 28.7858 19.5264 29.1358ZM24.5486 21.5074C24.0841 22.6022 23.4412 22.9471 22.9264 21.9299C22.3392 20.635 22.2108 19.1802 22.5623 17.8033C22.8411 16.8035 23.5417 16.7585 24.2372 17.9382C24.5492 18.4741 24.7382 19.0719 24.7907 19.689C24.8432 20.306 24.758 20.927 24.5411 21.5074H24.5486Z" fill="white"/>
<path d="M38.4325 25.4248H34.1511V29.9238H32.8001V19.7461H39.1407V20.8459H34.1511V24.3451H38.4451L38.4325 25.4248Z" fill="white"/>
<path d="M39.8187 26.0689C39.8089 25.3777 39.9593 24.6934 40.2581 24.0694C40.5261 23.5054 40.9504 23.0293 41.481 22.6972C42.0203 22.3719 42.6409 22.2046 43.2715 22.2148C43.7435 22.1986 44.2133 22.2863 44.6474 22.4716C45.0815 22.657 45.4691 22.9354 45.7826 23.2871C46.4221 24.0002 46.7418 24.9492 46.7418 26.1339V26.2239C46.7525 26.9088 46.6074 27.5872 46.3174 28.2085C46.053 28.772 45.6299 29.2469 45.0996 29.5757C44.5547 29.9113 43.9247 30.0848 43.284 30.0756C42.812 30.0933 42.3419 30.0066 41.9077 29.8216C41.4734 29.6366 41.0859 29.358 40.7729 29.0058C40.1317 28.291 39.8112 27.3462 39.8112 26.1714L39.8187 26.0689ZM41.127 26.2214C41.0908 26.9418 41.2977 27.6535 41.7146 28.2435C41.9001 28.4831 42.1385 28.6771 42.4112 28.8106C42.684 28.9441 42.9838 29.0136 43.2878 29.0136C43.5917 29.0136 43.8916 28.9441 44.1644 28.8106C44.4371 28.6771 44.6754 28.4831 44.861 28.2435C45.2477 27.7286 45.4436 27.0062 45.4436 26.0789C45.4772 25.3585 45.2677 24.6476 44.8484 24.0594C44.6638 23.8208 44.4267 23.6276 44.1552 23.4947C43.8838 23.3618 43.5853 23.2926 43.2828 23.2926C42.9802 23.2926 42.6818 23.3618 42.4103 23.4947C42.1389 23.6276 41.9017 23.8208 41.7171 24.0594C41.3228 24.5468 41.127 25.2766 41.127 26.2214Z" fill="white"/>
<path d="M52.8689 29.176C52.3667 29.7676 51.6242 30.0633 50.6416 30.0633C49.8313 30.0633 49.2136 29.8292 48.7884 29.361C48.364 28.8911 48.1505 28.1987 48.1455 27.279V22.3525H49.4463V27.244C49.4463 28.392 49.915 28.9661 50.8525 28.9661C51.8452 28.9661 52.5056 28.597 52.8338 27.8588V22.36H54.1345V29.9309H52.8965L52.8689 29.176Z" fill="white"/>
<path d="M57.1253 22.3526L57.1654 23.3049C57.4312 22.9565 57.7762 22.6758 58.1721 22.4859C58.5681 22.296 59.0036 22.2024 59.443 22.2127C61.0518 22.2127 61.8629 23.1158 61.8763 24.9221V29.921H60.5755V24.9221C60.6061 24.4862 60.4718 24.0546 60.1989 23.7124C60.0454 23.5713 59.8641 23.4636 59.6665 23.3961C59.4689 23.3285 59.2594 23.3026 59.0513 23.3199C58.6544 23.3127 58.2652 23.4299 57.9389 23.6549C57.6156 23.8794 57.3561 24.1834 57.1855 24.5372V29.931H55.8848V22.3526H57.1253Z" fill="white"/>
<path d="M63.28 26.0768C63.28 24.9104 63.5571 23.9756 64.1112 23.2724C64.3649 22.9547 64.6848 22.6956 65.0488 22.5128C65.4128 22.3301 65.8123 22.228 66.2197 22.2138C66.6271 22.1995 67.0328 22.2734 67.4089 22.4302C67.7849 22.5871 68.1222 22.8233 68.3977 23.1224V19.1758H69.6984V29.9234H68.5031L68.4404 29.1136C68.1771 29.4288 67.8438 29.6786 67.4669 29.8435C67.0899 30.0083 66.6795 30.0836 66.2683 30.0634C65.8483 30.0711 65.4328 29.977 65.0574 29.7893C64.6821 29.6017 64.3583 29.326 64.1137 28.9861C63.5579 28.2696 63.28 27.3323 63.28 26.1742V26.0768ZM64.5808 26.2217C64.5808 27.0815 64.7591 27.7514 65.1157 28.2388C65.2815 28.4728 65.5034 28.6619 65.7612 28.7889C66.0191 28.9159 66.3047 28.9768 66.5922 28.9661C66.9697 28.9813 67.3431 28.8841 67.6647 28.6868C67.9864 28.4896 68.2416 28.2013 68.3977 27.8589V24.3821C68.2354 24.0504 67.9798 23.7726 67.662 23.5827C67.3442 23.3928 66.9777 23.2989 66.6073 23.3124C66.3167 23.3009 66.0279 23.3621 65.7673 23.4905C65.5067 23.6189 65.2827 23.8103 65.1157 24.0472C64.7658 24.5371 64.5908 25.2619 64.5908 26.2217H64.5808Z" fill="white"/>
<path d="M76.2348 29.9232C76.1336 29.6682 76.0718 29.3993 76.0515 29.1259C75.777 29.4246 75.4424 29.6624 75.0695 29.8239C74.6965 29.9853 74.2936 30.0669 73.887 30.0632C73.2138 30.0904 72.555 29.8647 72.0413 29.4308C71.8089 29.2329 71.6237 28.986 71.4991 28.708C71.3744 28.4301 71.3134 28.128 71.3206 27.8237C71.3051 27.467 71.3798 27.1122 71.5377 26.7917C71.6956 26.4712 71.9318 26.1952 72.2246 25.9891C72.8273 25.5525 73.6743 25.3342 74.7658 25.3342H76.0214V24.7443C76.031 24.5459 75.9999 24.3476 75.93 24.1615C75.86 23.9754 75.7527 23.8055 75.6146 23.6621C75.4532 23.5177 75.2647 23.4066 75.06 23.3349C74.8554 23.2633 74.6385 23.2326 74.4218 23.2447C74.0046 23.2307 73.5943 23.3537 73.2542 23.5946C73.1121 23.6869 72.9949 23.8124 72.9126 23.96C72.8303 24.1077 72.7855 24.2731 72.7821 24.4419H71.4763C71.4846 24.0423 71.6269 23.657 71.8806 23.3472C72.169 22.9809 72.5456 22.6929 72.9754 22.5098C73.4559 22.301 73.9754 22.1962 74.4997 22.2024C75.376 22.2024 76.0616 22.4224 76.5588 22.8573C76.8126 23.0855 77.014 23.3655 77.1492 23.6782C77.2844 23.9909 77.3503 24.329 77.3422 24.6694V28.1536C77.3194 28.7181 77.4099 29.2815 77.6084 29.8107V29.9232H76.2348ZM74.0778 28.9384C74.4858 28.9381 74.8863 28.8293 75.2379 28.6235C75.5793 28.436 75.8559 28.1502 76.0314 27.8037V26.244H75.0119C73.4165 26.244 72.6197 26.7081 72.6214 27.6362C72.612 27.8149 72.6438 27.9934 72.7143 28.158C72.7848 28.3226 72.8922 28.469 73.0282 28.586C73.3234 28.8266 73.6965 28.9518 74.0778 28.9384Z" fill="white"/>
<path d="M80.9909 20.5205V22.3526H82.4096V23.3524H80.9909V28.0513C80.9723 28.2948 81.0398 28.537 81.1817 28.7362C81.2657 28.8192 81.3672 28.8827 81.4787 28.922C81.5903 28.9613 81.7093 28.9756 81.8271 28.9636C82.0354 28.9566 82.2424 28.9281 82.4448 28.8787V29.9209C82.118 30.0132 81.78 30.0603 81.4404 30.0609C81.1954 30.0782 80.9497 30.04 80.7218 29.9491C80.4939 29.8582 80.2896 29.7169 80.1245 29.536C79.8019 29.1048 79.6451 28.5727 79.6826 28.0364V23.3549H78.299V22.3551H79.6826V20.5205H80.9909Z" fill="white"/>
<path d="M83.7933 20.3455C83.7872 20.15 83.8564 19.9596 83.9866 19.8131C84.0602 19.7374 84.1497 19.6786 84.2486 19.641C84.3475 19.6035 84.4536 19.588 84.5592 19.5957C84.6651 19.5885 84.7713 19.6042 84.8706 19.6417C84.9699 19.6792 85.0598 19.7377 85.1342 19.8131C85.2661 19.9589 85.337 20.1494 85.3326 20.3455C85.3378 20.4464 85.321 20.5472 85.2835 20.6411C85.2459 20.7349 85.1885 20.8196 85.1151 20.8894C85.0417 20.9591 84.954 21.0123 84.8581 21.0453C84.7621 21.0782 84.6602 21.0902 84.5592 21.0803C84.4542 21.0881 84.3488 21.0734 84.25 21.0372C84.1512 21.001 84.0614 20.9441 83.9866 20.8704C83.8566 20.7268 83.7873 20.5387 83.7933 20.3455ZM85.197 29.9234H83.8987V22.3526H85.197V29.9234Z" fill="white"/>
<path d="M86.789 26.0689C86.7792 25.3777 86.9296 24.6934 87.2285 24.0694C87.4964 23.5054 87.9207 23.0293 88.4514 22.6972C88.9907 22.3719 89.6113 22.2046 90.2418 22.2148C90.7138 22.1986 91.1837 22.2863 91.6177 22.4716C92.0518 22.657 92.4394 22.9354 92.7529 23.2871C93.3907 24.0002 93.7105 24.9492 93.7122 26.1339V26.2239C93.7236 26.9092 93.5776 27.5879 93.2853 28.2085C93.0219 28.7719 92.5996 29.2469 92.0699 29.5757C91.5243 29.9117 90.8934 30.0851 90.2519 30.0756C89.7799 30.0928 89.31 30.0058 88.8758 29.8208C88.4417 29.6359 88.054 29.3575 87.7407 29.0058C87.1029 28.291 86.7832 27.3462 86.7815 26.1714L86.789 26.0689ZM88.0973 26.2214C88.0612 26.9418 88.268 27.6535 88.6849 28.2435C88.8705 28.4831 89.1088 28.6771 89.3815 28.8106C89.6543 28.9441 89.9542 29.0136 90.2581 29.0136C90.5621 29.0136 90.862 28.9441 91.1347 28.8106C91.4075 28.6771 91.6458 28.4831 91.8313 28.2435C92.2181 27.7286 92.4139 27.0062 92.4139 26.0789C92.4475 25.3585 92.238 24.6476 91.8188 24.0594C91.6342 23.8208 91.397 23.6276 91.1256 23.4947C90.8541 23.3618 90.5556 23.2926 90.2531 23.2926C89.9506 23.2926 89.6521 23.3618 89.3806 23.4947C89.1092 23.6276 88.872 23.8208 88.6874 24.0594C88.2932 24.5468 88.0973 25.2766 88.0973 26.2214Z" fill="white"/>
<path d="M96.3438 22.3526L96.3865 23.3049C96.6522 22.9565 96.9972 22.6758 97.3932 22.4859C97.7891 22.296 98.2247 22.2024 98.6641 22.2127C100.271 22.2127 101.082 23.1158 101.097 24.9221V29.921H99.7966V24.9221C99.8272 24.4862 99.6928 24.0546 99.4199 23.7124C99.2664 23.5713 99.0851 23.4636 98.8876 23.3961C98.69 23.3285 98.4805 23.3026 98.2723 23.3199C97.8754 23.3127 97.4863 23.4299 97.1599 23.6549C96.8369 23.8797 96.5774 24.1836 96.4066 24.5372V29.931H95.1083V22.3526H96.3438Z" fill="white"/>
</g>
<defs>
<clipPath id="clip0_148_2104">
<rect width="113" height="34" fill="white"/>
</clipPath>
</defs>
</svg>
