<svg width="58" height="58" viewBox="0 0 58 58" fill="none" xmlns="http://www.w3.org/2000/svg">
<circle cx="29" cy="29" r="29" fill="#333333"/>
<path d="M22.2193 42.1199C24.5165 42.1967 26.8059 41.8123 28.9521 40.9893C31.0982 40.1663 33.0576 38.9215 34.7145 37.3284C36.3714 35.7352 37.6921 33.8261 38.5985 31.7139C39.505 29.6016 39.9789 27.3291 39.9921 25.0306C41.0449 23.7278 41.8267 22.2277 42.2914 20.6184C42.3261 20.4913 42.3233 20.3568 42.2834 20.2312C42.2434 20.1057 42.168 19.9943 42.0662 19.9106C41.9644 19.8268 41.8406 19.7743 41.7097 19.7593C41.5788 19.7444 41.4463 19.7675 41.3282 19.8261C40.7774 20.0912 40.1574 20.1769 39.5553 20.071C38.9533 19.9651 38.3997 19.6729 37.9725 19.2358C37.4271 18.6385 36.7674 18.1568 36.0325 17.8192C35.2975 17.4817 34.5023 17.295 33.6939 17.2704C32.8855 17.2458 32.0804 17.3836 31.3262 17.6759C30.5721 17.9681 29.8843 18.4087 29.3036 18.9716C28.5084 19.7417 27.926 20.7043 27.613 21.766C27.2999 22.8277 27.2668 23.9523 27.517 25.0306C22.3125 25.3413 18.7393 22.8711 15.8807 19.4843C15.7948 19.3871 15.6825 19.3169 15.5574 19.2825C15.4323 19.248 15.2999 19.2507 15.1764 19.2902C15.0528 19.3298 14.9434 19.4045 14.8616 19.5051C14.7797 19.6058 14.729 19.7281 14.7155 19.8572C14.171 22.878 14.5638 25.9931 15.8413 28.7841C17.1188 31.5751 19.2197 33.9084 21.862 35.4706C20.0903 37.5024 17.6024 38.7714 14.9175 39.0127C14.7737 39.0366 14.6409 39.1048 14.5377 39.2079C14.4346 39.3109 14.3662 39.4436 14.3423 39.5875C14.3183 39.7313 14.3399 39.879 14.404 40.01C14.4682 40.1409 14.5717 40.2485 14.7 40.3177C17.0358 41.485 19.6081 42.1015 22.2193 42.1199Z" fill="white"/>
</svg>
