<svg width="58" height="58" viewBox="0 0 58 58" fill="none" xmlns="http://www.w3.org/2000/svg">
<circle cx="29" cy="29" r="29" fill="#333333"/>
<path d="M35.6011 19.9611C35.6011 19.7804 35.5293 19.607 35.4014 19.4792C35.2736 19.3514 35.1003 19.2795 34.9195 19.2795H31.5116C29.7956 19.1941 28.1154 19.7913 26.8383 20.9407C25.5612 22.09 24.791 23.6982 24.6958 25.4137V29.0942H21.288C21.1072 29.0942 20.9338 29.1661 20.806 29.2939C20.6782 29.4217 20.6064 29.5951 20.6064 29.7758V33.32C20.6064 33.5008 20.6782 33.6741 20.806 33.802C20.9338 33.9298 21.1072 34.0016 21.288 34.0016H24.6958V43.1347C24.6958 43.3155 24.7677 43.4888 24.8955 43.6167C25.0233 43.7445 25.1967 43.8163 25.3774 43.8163H29.4669C29.6476 43.8163 29.821 43.7445 29.9488 43.6167C30.0766 43.4888 30.1485 43.3155 30.1485 43.1347V34.0016H33.7199C33.8715 34.0038 34.0195 33.9554 34.1404 33.864C34.2614 33.7727 34.3485 33.6436 34.3879 33.4972L35.3693 29.953C35.3964 29.8523 35.4001 29.7467 35.38 29.6444C35.3599 29.5421 35.3166 29.4457 35.2533 29.3627C35.1901 29.2798 35.1087 29.2124 35.0154 29.1659C34.9221 29.1193 34.8193 29.0948 34.715 29.0942H30.1485V25.4137C30.1824 25.0763 30.3408 24.7637 30.5929 24.5368C30.8449 24.31 31.1725 24.1852 31.5116 24.1869H34.9195C35.1003 24.1869 35.2736 24.1151 35.4014 23.9873C35.5293 23.8594 35.6011 23.6861 35.6011 23.5053V19.9611Z" fill="white"/>
</svg>
