<svg width="58" height="58" viewBox="0 0 58 58" fill="none" xmlns="http://www.w3.org/2000/svg">
<circle cx="29" cy="29" r="29" fill="#333333"/>
<path d="M35.0923 22.2334C33.9457 22.2295 32.8095 22.4517 31.7489 22.8873C30.6882 23.3229 29.7238 23.9634 28.911 24.7721C28.0981 25.5808 27.4526 26.5419 27.0116 27.6003C26.5705 28.6587 26.3425 29.7937 26.3405 30.9404V39.737C26.3405 40.0941 26.4824 40.4366 26.7349 40.6891C26.9874 40.9416 27.3298 41.0834 27.6869 41.0834H30.8286C31.1857 41.0834 31.5282 40.9416 31.7807 40.6891C32.0332 40.4366 32.175 40.0941 32.175 39.737V30.9404C32.1747 30.5325 32.2604 30.1292 32.4264 29.7567C32.5924 29.3843 32.8351 29.0509 33.1386 28.7785C33.4421 28.5061 33.7995 28.3007 34.1877 28.1757C34.5759 28.0507 34.9861 28.0089 35.3915 28.053C36.1186 28.1446 36.7868 28.4998 37.2693 29.0513C37.7519 29.6028 38.0153 30.3123 38.0096 31.0451V39.737C38.0096 40.0941 38.1514 40.4366 38.4039 40.6891C38.6564 40.9416 38.9989 41.0834 39.356 41.0834H42.4977C42.8548 41.0834 43.1972 40.9416 43.4497 40.6891C43.7022 40.4366 43.8441 40.0941 43.8441 39.737V30.9404C43.8421 29.7937 43.6141 28.6587 43.173 27.6003C42.732 26.5419 42.0865 25.5808 41.2737 24.7721C40.4608 23.9634 39.4964 23.3229 38.4357 22.8873C37.3751 22.4517 36.2389 22.2295 35.0923 22.2334Z" fill="white"/>
<path d="M22.3023 23.5801H18.2631C17.5194 23.5801 16.9166 24.1829 16.9166 24.9265V39.7372C16.9166 40.4808 17.5194 41.0837 18.2631 41.0837H22.3023C23.046 41.0837 23.6488 40.4808 23.6488 39.7372V24.9265C23.6488 24.1829 23.046 23.5801 22.3023 23.5801Z" fill="white"/>
<path d="M20.2827 20.8874C22.1417 20.8874 23.6488 19.3804 23.6488 17.5213C23.6488 15.6623 22.1417 14.1553 20.2827 14.1553C18.4237 14.1553 16.9166 15.6623 16.9166 17.5213C16.9166 19.3804 18.4237 20.8874 20.2827 20.8874Z" fill="white"/>
</svg>
