<svg xmlns="http://www.w3.org/2000/svg" width="69.032" height="57" viewBox="0 0 69.032 57">
  <g id="Group_1137" data-name="Group 1137" transform="translate(-4190 -726)">
    <g id="dfecoloursquare" transform="translate(4190 742.42)">
      <rect id="Rectangle_577" data-name="Rectangle 577" width="0.933" height="40.58" fill="#005187"/>
      <g id="Group_1135" data-name="Group 1135" transform="translate(4.928)">
        <path id="Path_308" data-name="Path 308" d="M2.139.4c-.067.2-.2.267-.133.4,0,.133.133.267.2.4A.947.947,0,0,0,2.339.8c0-.133-.2-.333-.2-.4" transform="translate(6.327 2.265)"/>
        <path id="Path_309" data-name="Path 309" d="M2.555.4c.067.2.2.267.133.4,0,.133-.133.267-.2.4-.067-.2-.2-.267-.133-.4a.76.76,0,0,1,.2-.4" transform="translate(8.309 2.265)"/>
        <path id="Path_310" data-name="Path 310" d="M1.913.607A.143.143,0,0,0,2.047.473.143.143,0,0,0,1.913.34.143.143,0,0,0,1.78.473a.143.143,0,0,0,.133.133" transform="translate(5.153 1.926)"/>
        <path id="Path_311" data-name="Path 311" d="M2.047.533A.143.143,0,0,0,1.913.4.143.143,0,0,0,1.78.533c0,.067,0,.133.133.133A.143.143,0,0,0,2.047.533" transform="translate(5.153 2.265)"/>
        <path id="Path_312" data-name="Path 312" d="M2.057.593A.143.143,0,0,0,1.923.46.143.143,0,0,0,1.79.593a.143.143,0,0,0,.133.133A.143.143,0,0,0,2.057.593" transform="translate(5.209 2.605)"/>
        <path id="Path_313" data-name="Path 313" d="M2.075.5A.143.143,0,0,0,2.209.363a.133.133,0,0,0-.267,0C1.876.43,1.942.5,2.075.5" transform="translate(5.924 1.303)"/>
        <path id="Path_314" data-name="Path 314" d="M2.015.517A.143.143,0,0,0,2.149.383a.133.133,0,1,0-.267,0c-.067.067,0,.133.133.133" transform="translate(5.584 1.416)"/>
        <path id="Path_315" data-name="Path 315" d="M1.943.557A.143.143,0,0,0,2.077.423.143.143,0,0,0,1.943.29.143.143,0,0,0,1.81.423a.143.143,0,0,0,.133.133" transform="translate(5.323 1.642)"/>
        <path id="Path_316" data-name="Path 316" d="M2.113.5A.143.143,0,0,0,2.247.363a.133.133,0,1,0-.267,0A.143.143,0,0,0,2.113.5" transform="translate(6.286 1.303)"/>
        <path id="Path_317" data-name="Path 317" d="M2.173.517A.143.143,0,0,0,2.307.383a.133.133,0,0,0-.267,0,.143.143,0,0,0,.133.133" transform="translate(6.625 1.416)"/>
        <path id="Path_318" data-name="Path 318" d="M2.255.547A.143.143,0,0,0,2.389.413a.133.133,0,0,0-.267,0c-.067.067,0,.133.133.133" transform="translate(6.943 1.586)"/>
        <path id="Path_319" data-name="Path 319" d="M2.55.473a.133.133,0,1,0,.267,0,.133.133,0,1,0-.267,0" transform="translate(9.514 1.926)"/>
        <path id="Path_320" data-name="Path 320" d="M2.693.39A.143.143,0,0,0,2.56.523a.133.133,0,1,0,.267,0c.067,0,0-.133-.133-.133" transform="translate(9.57 2.209)"/>
        <path id="Path_321" data-name="Path 321" d="M2.683.45A.143.143,0,0,0,2.55.583a.133.133,0,1,0,.267,0A.143.143,0,0,0,2.683.45" transform="translate(9.514 2.548)"/>
        <path id="Path_322" data-name="Path 322" d="M2.553.5A.143.143,0,0,0,2.687.363a.133.133,0,1,0-.267,0A.143.143,0,0,0,2.553.5" transform="translate(8.777 1.303)"/>
        <path id="Path_323" data-name="Path 323" d="M2.613.517A.143.143,0,0,0,2.747.383a.133.133,0,0,0-.267,0,.143.143,0,0,0,.133.133" transform="translate(9.117 1.416)"/>
        <path id="Path_324" data-name="Path 324" d="M2.685.557A.143.143,0,0,0,2.819.423a.133.133,0,1,0-.267,0c-.067.067,0,.133.133.133" transform="translate(9.378 1.642)"/>
        <path id="Path_325" data-name="Path 325" d="M2.515.5A.143.143,0,0,0,2.649.363a.133.133,0,1,0-.267,0C2.316.43,2.382.5,2.515.5" transform="translate(8.415 1.303)"/>
        <path id="Path_326" data-name="Path 326" d="M2.455.517A.143.143,0,0,0,2.589.383a.133.133,0,1,0-.267,0c-.067.067,0,.133.133.133" transform="translate(8.076 1.416)"/>
        <path id="Path_327" data-name="Path 327" d="M2.24.4a.133.133,0,0,0,.267,0A.133.133,0,0,0,2.24.4" transform="translate(7.758 1.529)"/>
        <path id="Path_328" data-name="Path 328" d="M2.15,1.053h.2V.387A.245.245,0,0,1,2.15.32Z" transform="translate(7.248 1.812)"/>
        <path id="Path_329" data-name="Path 329" d="M2.4.31c-.067,0-.133.067-.2.067v.666h.2Z" transform="translate(7.531 1.756)"/>
        <path id="Path_330" data-name="Path 330" d="M2.51.54V.14c-.2,0-.333.2-.4.4Z" transform="translate(7.022 0.793)"/>
        <path id="Path_331" data-name="Path 331" d="M2.2.54h.4a.43.43,0,0,0-.4-.4Z" transform="translate(7.531 0.793)"/>
        <path id="Path_332" data-name="Path 332" d="M2.11.23a.572.572,0,0,0,.466.4.446.446,0,0,0,.466-.4Z" transform="translate(7.022 1.303)"/>
        <path id="Path_333" data-name="Path 333" d="M2.853.866a.576.576,0,0,1-.2-.4c.133,0,.267.133.4.267v-.6C2.92.267,2.786.4,2.653.4a.576.576,0,0,1,.2-.4H2.32a.576.576,0,0,1,.2.4c-.133,0-.267-.133-.4-.267V.666c.067-.133.267-.2.4-.267a.567.567,0,0,1-.2.333h.533Z" transform="translate(7.078)"/>
        <path id="Path_334" data-name="Path 334" d="M5.288,4.645a.177.177,0,0,1-.2-.2.2.2,0,1,1,.4,0,.213.213,0,0,1-.2.2m-.933-.333a.177.177,0,0,1-.2-.2.177.177,0,0,1,.2-.2.177.177,0,0,1,.2.2.177.177,0,0,1-.2.2m-.333-.933h0c-.133-.133-.267-.133-.333-.067,0,.067-.067.067-.133.133v.067h.067c.133.067.133.2.067.2a.065.065,0,0,1-.067.067.245.245,0,0,1-.2-.067H3.356v.067h0v.067c-.133.067-.133.133-.133.2v.067c0,.067.067.067.133.133h0a.233.233,0,0,1,.133.067.2.2,0,0,1-.267,0,.455.455,0,0,1-.2-.333.947.947,0,0,1,.133-.4h0c0-.067-.067-.067-.067-.133h.133c.133-.133.333-.333.533-.333a.505.505,0,0,1,.267.133.245.245,0,0,1,.067.2l-.067-.067m1.866.733a8.354,8.354,0,0,1-1.666-.6h0c0-.133,0-.267-.133-.333-.067-.133-.2-.133-.333-.133H3.622l-.267-.267a2.66,2.66,0,0,1-.466-.866,1.255,1.255,0,0,1-.133-.533.524.524,0,0,1-.533.4V1.647a.48.48,0,0,1-.533.067,2.538,2.538,0,0,0,.2.666,2.788,2.788,0,0,0,.733,1.2l.333.333v.067a.548.548,0,0,0,.267.4.314.314,0,0,0,.4-.067,3.042,3.042,0,0,0,.933.333,2.954,2.954,0,0,0,1,.2,1.569,1.569,0,0,0,.866-.333,1.454,1.454,0,0,0,.333-.267h.067a2.428,2.428,0,0,1-.933-.133" transform="translate(4.643 7.815)"/>
        <path id="Path_335" data-name="Path 335" d="M3.716,3.176a.206.206,0,0,0-.133-.067c-.2,0-.133.533-.4.533-.133,0-.133-.067-.133-.133s.067-.067.067-.133-.067-.067-.133-.067-.133,0-.133.067.067.067.067.133a.143.143,0,0,1-.133.133c-.267,0-.133-.533-.4-.533a.143.143,0,0,0-.133.133.5.5,0,0,1-.067-.267A.244.244,0,0,1,2.45,2.71c.267,0,.2.4.333.4a.233.233,0,0,0,.133-.067c0-.133-.2-.2-.2-.333s.133-.267.267-.4a.443.443,0,0,1,.267.333c0,.133-.2.267-.2.333s.067.067.133.067c.133,0,.067-.4.333-.4a.287.287,0,0,1,.267.267c0,.133-.067.2-.067.267m-.733.8a.133.133,0,1,1,.133-.133.143.143,0,0,1-.133.133m.533-1.333H3.383v-.6a3.9,3.9,0,0,1-.866-.133v.733H2.383a.357.357,0,0,0-.333.333.475.475,0,0,0,.2.4c.067-.133.067-.2.133-.2.133,0,.067.533.4.533v.067a.287.287,0,0,0,.267.267.287.287,0,0,0,.267-.267V3.709c.333,0,.267-.533.333-.533s.067.067.133.2a.76.76,0,0,0,.2-.4c-.133-.133-.267-.333-.466-.333" transform="translate(6.682 10.817)"/>
        <path id="Path_336" data-name="Path 336" d="M16.366,3.772,16.3,3.706c-.666.2-1.6-.4-2.465-.933a4.447,4.447,0,0,0-2-.933,1.946,1.946,0,0,0-.6.133,1.84,1.84,0,0,0-.4.533,3.956,3.956,0,0,1-.267.533.947.947,0,0,0-.133.4c0,.133.067.2.133.333.067.067.2.133.333.267.067,0,.067.067.133.067a.346.346,0,0,1,.267.133,4.145,4.145,0,0,1-1.066.267,5.68,5.68,0,0,1-1.533.2A10.937,10.937,0,0,1,7.17,4.572,4.023,4.023,0,0,1,6.1,4.239c0-.133.067-.133.267-.267.067,0,.067-.067.133-.067a.366.366,0,0,0,.333-.2c.133-.067.133-.133.133-.267a.576.576,0,0,0-.2-.4,2.743,2.743,0,0,0-.2-.533A1.234,1.234,0,0,0,6.1,1.973a1.946,1.946,0,0,0-.6-.133,4.447,4.447,0,0,0-2,.933c-.8.533-1.732,1.133-2.4.933a.067.067,0,0,0,0,.133,3.7,3.7,0,0,0,.533.4c.267.2.466.4.733.4a1.613,1.613,0,0,0,.866-.267,6.083,6.083,0,0,0,.866-.533,3.21,3.21,0,0,1,1.666-.8l-.133.133a.692.692,0,0,0-.267.533,1.568,1.568,0,0,0,.133.533c0,.067.067.133.067.2.067.133.067.267.133.4,0,.067.067.133.067.2a1.024,1.024,0,0,0,.533.6,6.549,6.549,0,0,0,2.4.333,6.549,6.549,0,0,0,2.4-.333,1.024,1.024,0,0,0,.533-.6c0-.067.067-.133.067-.2.067-.133.067-.267.133-.4,0-.133.067-.2.067-.267a.963.963,0,0,0,.133-.466.593.593,0,0,0-.333-.533c0-.067-.067-.133-.133-.2a4.684,4.684,0,0,1,1.732.866,3.778,3.778,0,0,0,.866.533,1.613,1.613,0,0,0,.866.267,1.515,1.515,0,0,0,.8-.4l.6-.4c-.067,0,0-.067-.067-.067" transform="translate(0.962 10.421)"/>
        <path id="Path_337" data-name="Path 337" d="M4.918,6.114V3.448a1.774,1.774,0,0,1,.8.2,3.348,3.348,0,0,1,.8.533,4.071,4.071,0,0,1,.466.933,2.674,2.674,0,0,1,.2,1Zm-.067-3.8a3.1,3.1,0,0,0-1.6.4.443.443,0,0,1-.267-.333c0-.4,1.2-.466,1.866-.466h0c.6,0,1.866.067,1.866.466,0,.133-.067.2-.267.333a3.1,3.1,0,0,0-1.6-.4m-.067,3.8H2.52a2.674,2.674,0,0,1,.2-1,4.071,4.071,0,0,1,.466-.933,2.083,2.083,0,0,1,.733-.6,4.586,4.586,0,0,1,.866-.133Zm3.465-.2a.721.721,0,0,1-.267-.333c-.067-.133-.4-.866-.466-.933a.245.245,0,0,1-.067-.2c0-.067.067-.133.067-.2,0,0,.067-.133.133-.133a.065.065,0,0,1,.067-.067,2.075,2.075,0,0,0-.466-.6,2.708,2.708,0,0,0-.666-.6.45.45,0,0,0,.267-.4c0-.133-.067-.2-.133-.333A4.485,4.485,0,0,1,7.317.85L6.851.65a.9.9,0,0,1,.133.533A.443.443,0,0,1,6.717.85a.72.72,0,0,1-.2.466.425.425,0,0,1,.4,0,.637.637,0,0,1-.6.2c-.133-.067-.333-.133-.267-.267a.143.143,0,0,1,.133-.133.128.128,0,0,1,.067.2c.133-.067.267-.466.067-.533a.428.428,0,0,0-.333.333c0-.2-.133-.4-.267-.4-.2,0-.133.4-.067.533,0-.133.067-.2.133-.2s.133.067.133.2-.2.2-.4.2-.533-.067-.533-.466a.548.548,0,0,1,.4.267V.65a.72.72,0,0,1-.466.2.979.979,0,0,1,.333-.4h-.8a1.767,1.767,0,0,1,.333.4.482.482,0,0,1-.4-.267v.6c.067-.133.267-.2.4-.267,0,.4-.4.4-.533.4-.2,0-.4-.067-.4-.2s.067-.133.133-.2c.067,0,.133.067.133.2.067.067.133-.333-.133-.333-.133,0-.267.2-.267.4-.067-.2-.2-.4-.333-.4-.2.067-.067.466.067.533,0-.067,0-.2.067-.2.133,0,.133.067.133.133,0,.133-.133.2-.333.267a.574.574,0,0,1-.533-.2c.133-.067.267,0,.4,0a.72.72,0,0,1-.2-.466.665.665,0,0,1-.267.333A.9.9,0,0,1,2.853.65l-.466.2a4.485,4.485,0,0,1,.6,1.266.505.505,0,0,0-.133.267.45.45,0,0,0,.267.4,3.159,3.159,0,0,0-.666.666,2.788,2.788,0,0,0-.733,1.2,2.9,2.9,0,0,1,.4.466.947.947,0,0,1,.133.4.714.714,0,0,0,.133.4.509.509,0,0,1,.133.333H4.785V8.713a.266.266,0,0,0-.267.133,5.061,5.061,0,0,0,.733.267.509.509,0,0,1,.133-.333,2.143,2.143,0,0,1-.533-.067V6.247h2.2a2.674,2.674,0,0,1-.2,1,1.229,1.229,0,0,1-.333.8,2.3,2.3,0,0,1-.8.6.065.065,0,0,0-.067.067c0,.067-.067.133-.133.2,0,.067-.067.133-.067.2.133,0,.133.067.267.067.8.267,1,.2,1.066.133h0a1.557,1.557,0,0,0,.466-.466,2.788,2.788,0,0,0,.733-1.2A3.8,3.8,0,0,0,8.25,6.18V5.914" transform="translate(4.813 2.548)"/>
        <path id="Path_338" data-name="Path 338" d="M3.466,1.763h0c0,.067,0,.133.067.133l-.067.067H3.6V2.03h.067A2.239,2.239,0,0,1,4,2.962H3.932c0,.067,0,.067.067.133H3.4c0-.067,0-.067-.067-.067H3.266A.065.065,0,0,0,3.2,2.962l-.067.067s-.067-.067-.067,0L3,3.1H2.6a.065.065,0,0,1,.067-.067c-.067,0-.067,0-.067.067V2.163c.067,0,.067,0,.067-.067V2.03a.065.065,0,0,0,.067-.067L2.666,1.9s.067-.067,0-.067L2.6,1.763V1.1a.065.065,0,0,1,.067.067V1.1A1.454,1.454,0,0,0,3,1.363a2.9,2.9,0,0,1,.466.4m.6,1.133c.067,0,0,.067,0,.067a2.544,2.544,0,0,0-.4-1.066h0c.067,0,.067-.067.067-.133-.067,0-.133,0-.133.067a.065.065,0,0,0-.067-.067A1.557,1.557,0,0,0,3.066,1.3a1.339,1.339,0,0,0-.533-.267c0-.067.067-.067.067,0C2.6.963,2.533.9,2.533.963a.065.065,0,0,0-.067.067A.233.233,0,0,0,2.333.963V1.1H2.267a.206.206,0,0,0,.067.133c-.067,0,0-.067,0-.067V2.03c-.067,0-.067,0-.133.067a.5.5,0,0,1,.267-.067v.933c-.067,0-.067-.067,0-.067-.067,0-.133.067-.067.067a.065.065,0,0,0,.067.067L2.4,3.1c.067,0,.067,0,.067-.067,0,.067,0,.067.067.067A.065.065,0,0,0,2.6,3.029c0,.067-.067,0-.067,0H3.2c0,.067,0,.067.067.133a.206.206,0,0,0,.067-.133h.733c0,.067-.067.067-.067,0a.065.065,0,0,0,.067.067l.067-.067a.233.233,0,0,0,.133.067c0-.067,0-.067-.067-.067.067,0,.067,0,.067-.067-.067,0-.067-.067-.2-.067" transform="translate(7.531 5.3)"/>
        <path id="Path_339" data-name="Path 339" d="M3.619,2.276h0c0-.067.067-.067,0-.133,0-.067-.067-.067-.067,0,0,0-.2,0-.2-.133l.067.067h.067c.067,0,.067,0,.067-.067s-.067-.133-.133-.2l-.067-.067c0-.067,0-.067-.067-.2V1.476a.2.2,0,0,0,0,.267c.067.067.2.133.2.2l-.067.067h0a.065.065,0,0,1-.067-.067c-.067-.067-.133-.133-.133-.2a.2.2,0,0,1,0-.267c.067-.067,0-.2-.067-.267V1.143H3.086L3.02,1.077,2.953,1.01l-.067.067H2.753V1.21h0v.067h.133c0,.067-.067.067-.133.2a.065.065,0,0,1-.067-.067L2.62,1.343l-.067-.067V1.143H2.487a.065.065,0,0,0-.067-.067h0s0-.067-.067,0h0v.067h0V1.21H2.287c0,.067,0,.067.067.067v.067h0V1.41c0,.067.067.133.133.2-.067,0-.067.067-.133.133l-.067.067h0s-.067.067,0,.067h.067v.067h0s.067.067.067,0h0V1.876h.133A.065.065,0,0,1,2.62,1.81h.067a.065.065,0,0,1,.067-.067c0,.133.2.133.2.2-.067,0-.133-.067-.133,0a.143.143,0,0,0-.133.133.233.233,0,0,0,.067.133H2.62a.065.065,0,0,1-.067-.067h0a.065.065,0,0,0-.067.067h0a.065.065,0,0,0-.067.067h.067s0,.067.067,0H2.62s0-.067.067,0h.067V2.209c0-.067,0-.067-.067-.067,0-.067.067-.133.133-.067q0,.1.2.2c.067,0,.067-.067.133-.067h0v.067H3.086a.065.065,0,0,0-.067.067h.067s.067.067.067,0h0s-.067.067,0,.067h0v.067h0V2.409h0v.067h.067V2.409c.333-.067.4-.067.4-.133Z" transform="translate(7.645 5.72)"/>
        <path id="Path_340" data-name="Path 340" d="M3.309,1.607h0c-.067,0-.133,0-.133.067s0,.067.067.067h0a.725.725,0,0,1-.067.333l-.333-.466a2.62,2.62,0,0,1,.4-.133c.067,0,.067.067.067.133m-.133.866-.533-.8a.245.245,0,0,0,.2-.067l.333.6v.267m-.067.333L2.31,1.74h.2l.6.866v.2M2.243,1.74l.8,1.2a1.249,1.249,0,0,1-.8-1.2m1.2-.133h0a.244.244,0,0,0-.267-.267,1.963,1.963,0,0,1-.666.2.714.714,0,0,1-.4-.133l-.067.067h0a.067.067,0,1,0-.067.067h.067l-.067.133h.067a1.391,1.391,0,0,0,1,1.4c.133,0,.2,0,.2.067a.065.065,0,0,1-.067.067c-.067,0-.067,0-.067-.067s.067,0,.067-.067,0-.067-.067-.067-.133,0-.133.133a.143.143,0,0,0,.133.133c.067,0,.267-.067.2-.2.067,0,.067,0,.067-.067V2.873H3.309v-1.2h0c.067,0,.067,0,.067-.067.2.067.133,0,.067,0" transform="translate(5.889 7.589)"/>
        <path id="Path_341" data-name="Path 341" d="M2.7,1.4h0c.067-.067.067,0,0,0V1.33h.067c0,.067,0,.067-.067.067h0c.067,0,.067.067,0,0h0m.067-.067h0m.067,0h0m-.133,0h0m.466.2c.133,0,.267-.067.267-.133,0-.2-.466-.067-.466-.2V1.13h0c.2,0,.2-.2.4-.2-.2,0-.2.133-.333.133A.065.065,0,0,0,3.1,1a.143.143,0,0,1-.133.133h0L2.9,1.2c0,.2.466.067.466.2,0,.067-.067.133-.2.133a1.356,1.356,0,0,0-.333-.067A.233.233,0,0,0,2.9,1.33V1.263H2.7V1.33L2.632,1.4h0a.065.065,0,0,1-.067.067h0V1.6H2.5V1.463H2.432V1.4H2.3v.067h0V1.53h0c0,.067-.067,0-.067,0-.067.067,0,.067.067.067h0l.067.067h-.2a.092.092,0,0,1-.133,0H1.965l.067.067H1.965s-.067,0,0,.067h0s0,.067.067,0h0s-.067.067,0,.067h0a.065.065,0,0,0,.067.067V1.863h0V1.8h0V1.73h0V1.8l.067-.067h.067V1.8A.065.065,0,0,1,2.3,1.73h0a.065.065,0,0,0,.067-.067h.067A.065.065,0,0,0,2.5,1.6c.067,0-.067-.067.133-.067H2.7V1.6h0a.065.065,0,0,1-.067-.067h0a.065.065,0,0,0-.067.067h0a.065.065,0,0,0-.067.067h.067s0,.067.067,0h0V1.6H2.7V1.463h.133V1.53H2.765s-.067,0,0,.067h.067s-.067,0,0,.067h0V1.6h0v.067H2.9V1.53h0V1.463H2.831c.466.133.4.067.333.067h0" transform="translate(6.034 5.267)"/>
        <path id="Path_342" data-name="Path 342" d="M2.69,1.546h0M2.556,1.28h0l.067-.067H2.69c-.067,0-.067,0-.133.067h0c.067,0,.067.067,0,0h0m.067-.133h0m.067,0h0m-.267.267h0M3.689,1.28c0-.067-.067-.067-.2-.067s-.533.067-.533,0,.067-.067.133-.067h.067c.2.067.466-.067.6,0-.133-.133-.267,0-.4,0,.067,0,.133,0,.133-.067-.067.067-.2,0-.267,0h0c-.133,0-.2,0-.2.067,0,.133.4.067.533.067,0,.067.067.067.133.067-.067,0-.2.067-.267.067a2.221,2.221,0,0,0-.666,0c0-.067.067-.067.067-.133V1.147H2.556v.067L2.49,1.28h0a.065.065,0,0,1-.067.067h0v.067H2.356L2.29,1.347V1.213H2.223V1.147h0s0-.067-.067,0h0v.067h0V1.28h0c0,.067-.067.067-.067,0-.067.067,0,.067.067.067h0a.065.065,0,0,0,.067.067s.067.067.067,0V1.48H2.157s-.133.067-.133,0V1.413H1.957l.067.067h0s0-.067-.067,0h0a.065.065,0,0,0-.067.067h0s0,.067.067,0h0s-.067.067,0,.067h0a.065.065,0,0,0,.067.067V1.613h0V1.546h0a.067.067,0,1,0,.133,0h0v.067a.065.065,0,0,0,.067-.067H2.29v.067a.065.065,0,0,1,.067-.067h0A.233.233,0,0,0,2.49,1.48h.067c.133,0,.067-.133.267-.067h.067V1.48h0a.065.065,0,0,1-.067-.067h0a.065.065,0,0,0-.067.067h0a.065.065,0,0,0-.067.067h.067s0,.067.067,0h.067c.067,0,0-.067,0-.067h.067V1.347h.267v.067H3.156a.065.065,0,0,0-.067.067h0s0,.067.067,0h0s-.067.067,0,.067h0v.067h0V1.546h0v.067h.067V1.546a.065.065,0,0,0,.067-.067h0V1.413h0V1.347H3.023c.466.067.666,0,.666-.067" transform="translate(5.776 6.116)"/>
        <path id="Path_343" data-name="Path 343" d="M2.536,1.292h0c0-.067.067-.067,0-.067H2.6a.065.065,0,0,1-.067.067h0c-.067.067,0,.067,0,0m0-.067h0m.067,0h0m1.133.133c0-.067-.067-.067-.2-.067s-.6.067-.6,0,.133,0,.267,0h.067c.2.067.4-.067.533,0-.133-.133-.267,0-.4,0,.067,0,.2,0,.2-.067-.067.067-.267,0-.333,0h0c-.133,0-.333,0-.333.067,0,.133.533.067.666.067,0-.067.067-.067.133,0-.067,0-.2.067-.267.067a3.2,3.2,0,0,0-.8,0c0-.067.067-.067.067-.133V1.225H2.47v.067L2.4,1.358h0a.065.065,0,0,1-.067.067h0v.067h0L2.27,1.425V1.292H2.2V1.225h0s0-.067-.067,0h0v.067h0v.067h0c0,.067-.067.067-.067,0,0,.067,0,.067.067.067h0l.067.067H2.27v.067H2.137a.092.092,0,0,1-.133,0V1.492H1.937L2,1.558H1.937a.065.065,0,0,0-.067.067h0s0,.067.067,0h0s-.067.067,0,.067h0A.065.065,0,0,0,2,1.758V1.692H2V1.625H2a.065.065,0,0,0,.067-.067h0v.067a.065.065,0,0,0,.067-.067H2.2v.067c0-.067.067,0,.133-.067h.2c.267,0,.133-.133.4-.067h0v.067h0a.065.065,0,0,1-.067-.067h0a.065.065,0,0,0-.067.067h0a.065.065,0,0,0-.067.067H2.8s0,.067.067,0h.067V1.558H3V1.425h.267v.067H3.2a.065.065,0,0,0-.067.067h0s0,.067.067,0h0s-.067.067,0,.067h0V1.558h0v.067h.067V1.558a.065.065,0,0,0,.067-.067h0V1.425h0V1.358h-.2q.6.1.6,0" transform="translate(5.663 6.771)"/>
        <path id="Path_344" data-name="Path 344" d="M2.943,1.74h0m-.2-.333h0m0,.067Zm0,.067h0c0-.067.067-.067,0-.067H2.81l-.067.067h0m.067-.133h0m.067,0h0m1.066.267h0a.4.4,0,0,0-.267-.067h0c.067,0,.267,0,.267-.067s-.067-.067-.2-.067-.6.067-.6,0,.133,0,.267,0h.067c.2.067.4-.067.533-.067-.133-.067-.267.067-.4,0,.067,0,.2,0,.2-.067-.067.067-.267,0-.333,0h0c-.133,0-.333,0-.333.067,0,.133.533.067.666.067s.133,0,.133.067-.133.067-.2.067a3.2,3.2,0,0,0-.8,0c0-.067.067-.067.067-.133V1.407H2.743v.067l-.067.067h0a.065.065,0,0,1-.067.067h0v.067h0l-.067-.067V1.473H2.477V1.407h0s0-.067-.067,0h0v.067h0V1.54h0c0,.067-.067.067-.067,0,0,.067,0,.067.067.067h0l.067.067h.067V1.74H2.477a.092.092,0,0,1-.133,0V1.673H2.277l.067.067H2.277a.065.065,0,0,0-.067.067h0s0,.067.067,0h0s-.067.067,0,.067h0a.065.065,0,0,0,.067.067V1.873h0V1.806h0A.065.065,0,0,0,2.41,1.74h0v.067a.065.065,0,0,0,.067-.067h.067v.067A.065.065,0,0,1,2.61,1.74h0a.065.065,0,0,0,.067-.067H2.81c.267.067.133-.133.4-.067h0v.067h0a.065.065,0,0,1-.067-.067h0a.065.065,0,0,0-.067.067h0a.065.065,0,0,0-.067.067h.067s0,.067.067,0h.067V1.673h.067V1.54h.267v.067H3.476a.065.065,0,0,0-.067.067h.067s-.067.067,0,.067h0V1.673h0V1.74h.067V1.673a.065.065,0,0,0,.067-.067c.333.133.333.133.333.067h0" transform="translate(7.588 7.589)"/>
        <path id="Path_345" data-name="Path 345" d="M2.845,1.573c-.067,0-.067-.067,0,0-.067-.067,0-.067,0,0h0m-.067,0h0l-.067.067V1.573h.067c-.067-.067-.067,0-.067-.067l.067.067h0m0-.067h0m.466,0h0c.2.067.4-.067.533,0-.133-.067-.267.067-.4,0,.067,0,.2,0,.2-.067-.067.067-.267,0-.333.067h0c-.067-.067-.2-.067-.2,0,0,.133.4.067.533.067s.133,0,.133.067-.133.067-.2.067a1.8,1.8,0,0,0-.6,0s.067-.067,0-.067V1.573h-.2V1.64l-.067.067h0a.065.065,0,0,1-.067.067h0V1.84H2.512V1.707H2.445V1.64h0s0-.067-.067,0h0v.067h0v.067h0c0,.067-.067,0-.067,0,0,.067,0,.067.067.067h.133v.067H2.445a.092.092,0,0,1-.133,0H2.245l.067.067H2.245s-.067,0,0,.067h0s0,.067.067,0h0s-.067.067,0,.067h0a.065.065,0,0,0,.067.067V2.106h0V2.04h0s.067,0,0-.067h0V2.04a.065.065,0,0,0,.067-.067h.067V2.04a.065.065,0,0,1,.067-.067h0c.067,0,.067,0,.133-.067h.067c.133,0,0-.133.2-.067h.067v.067h0a.065.065,0,0,1-.067-.067h0a.065.065,0,0,0-.067.067h0a.065.065,0,0,0-.067.067h.067s0,.067.067,0h.067V1.906h.067V1.773h.267V1.84H3.311a.065.065,0,0,0-.067.067h.133s-.067,0,0,.067h0l.067-.067h0v.067h.067V1.906a.065.065,0,0,0,.067-.067h0V1.773h0V1.707H3.311c.067,0,.267,0,.267-.067s0-.067-.133-.067-.466.067-.466,0a.5.5,0,0,1,.267-.067" transform="translate(7.62 8.155)"/>
        <path id="Path_346" data-name="Path 346" d="M2.815,1.74h0V1.673h.067l-.067.067h0c0-.067.067-.067,0,0h0m.067-.133h0m0,0h0m.333,0h0c.2.067.4-.067.533,0-.133-.067-.267.067-.4,0,.067,0,.2,0,.2-.067,0,.067-.2,0-.333.067h0c-.067,0-.133,0-.133.067,0,.133.466,0,.466.067a.292.292,0,0,1-.2.067,1.052,1.052,0,0,0-.466,0h0c0-.067.067-.067.067-.133V1.607H2.815v.067a.065.065,0,0,1-.067.067h0a.065.065,0,0,1-.067.067h0V1.94l-.133-.133V1.673H2.482V1.607H2.348v.067h0V1.74h0c0,.067-.067,0-.067,0,0,.067,0,.067.067.067h0a.065.065,0,0,0,.067.067l.067.067v.067H2.215l.067.067H2.215s-.067,0,0,.067h0s0,.067.067,0h0s-.067.067,0,.067h0a.065.065,0,0,0,.067.067V2.206h0V2.14h0s.067,0,0-.067h0V2.14l.067-.067h.067V2.14a.065.065,0,0,1,.067-.067h0a.065.065,0,0,0,.067-.067.206.206,0,0,1,.067-.133h0c.067,0,.067-.067.133-.067v.067l.067.067H2.815a.065.065,0,0,1-.067-.067h0a.065.065,0,0,0-.067.067h0a.065.065,0,0,0-.067.067h.067s0,.067.067,0h.067V1.94h.067V1.873a.206.206,0,0,0-.067-.133h.133a.065.065,0,0,1,.067.067h-.2v.067h.067V1.94h0V1.873h.067V1.807h.067s.067,0,0-.067l-.067-.067h.067a.689.689,0,0,0,.267-.067c0-.133-.466,0-.466-.067a3.03,3.03,0,0,0,.4.067" transform="translate(7.45 8.722)"/>
        <path id="Path_347" data-name="Path 347" d="M1.407.413A.143.143,0,0,0,1.273.28.143.143,0,0,0,1.14.413a.143.143,0,0,0,.133.133C1.34.48,1.407.48,1.407.413" transform="translate(1.528 1.586)"/>
        <path id="Path_348" data-name="Path 348" d="M1.4.363A.143.143,0,0,0,1.263.23.143.143,0,0,0,1.13.363.143.143,0,0,0,1.263.5C1.4.5,1.4.43,1.4.363" transform="translate(1.472 1.303)"/>
        <path id="Path_349" data-name="Path 349" d="M1.293.457A.143.143,0,0,0,1.427.323.143.143,0,0,0,1.293.19.143.143,0,0,0,1.16.323c.067.067.067.133.133.133" transform="translate(1.642 1.076)"/>
        <path id="Path_350" data-name="Path 350" d="M1.343.457A.143.143,0,0,0,1.477.323.143.143,0,0,0,1.343.19.143.143,0,0,0,1.21.323a.143.143,0,0,0,.133.133" transform="translate(1.925 1.076)"/>
        <path id="Path_351" data-name="Path 351" d="M1.472.346c.067.067.133.067.133,0,.067-.067.067-.133,0-.133-.067-.067-.133-.067-.133,0-.067.067-.067.133,0,.133" transform="translate(3.128 0.92)"/>
        <path id="Path_352" data-name="Path 352" d="M1.576.316c.067-.067.067-.133,0-.133-.067-.067-.133-.067-.133,0-.067.067-.067.133,0,.133h.133" transform="translate(2.958 0.75)"/>
        <path id="Path_353" data-name="Path 353" d="M1.536.306C1.6.239,1.6.172,1.536.172,1.469.106,1.4.106,1.4.172c-.067.067-.067.133,0,.133,0,.067.067.067.133,0" transform="translate(2.732 0.694)"/>
        <path id="Path_354" data-name="Path 354" d="M1.5.336C1.562.269,1.562.2,1.5.2,1.429.136,1.362.136,1.362.2,1.3.269,1.3.336,1.362.336H1.5" transform="translate(2.505 0.864)"/>
        <path id="Path_355" data-name="Path 355" d="M1.23.32,1.3.52,1.43.387h0V.653a.143.143,0,0,0,.133.133A.143.143,0,0,0,1.7.653C1.7.586,1.7.52,1.63.52L1.5.387h.2L1.63.187,1.5.32h0V.12L1.23.187,1.363.32H1.23Z" transform="translate(2.038 0.68)"/>
        <path id="Path_356" data-name="Path 356" d="M2.9.323a.206.206,0,0,1,.067.133C2.9.457,2.9.39,2.9.323V.656A.065.065,0,0,1,2.969.59c0,.2-.067.267-.133.267A.233.233,0,0,1,2.7.79c0-.067.067-.133.133-.067,0-.133-.133-.133-.2-.067A.382.382,0,0,0,2.5.19a.409.409,0,0,0,.067.4C2.5.523,2.369.59,2.5.723c0-.133.133-.067.133,0s-.067.133-.133.2C2.3.99,2.236.856,2.169.79a.245.245,0,0,1,.2.067L2.3.59a.143.143,0,0,1-.133.133.671.671,0,0,1,.067-.2L1.9.59a.959.959,0,0,1,.2.133c-.067,0-.133.067-.2,0L2.036.99c0-.133.067-.2.133-.2a.367.367,0,0,1-.133.333c-.133.067-.2.067-.267,0s0-.133.067-.067c0-.133-.133-.133-.2-.067,0-.133-.067-.267-.2-.267-.067.133,0,.267.2.333-.067,0-.2.067-.067.2,0-.067.067-.133.133-.067,0,.067,0,.133-.067.133-.067.067-.133,0-.267-.067H1.5L1.37.99v.133C1.3,1.056,1.3,1.056,1.3.99l-.133.067a2.126,2.126,0,0,1,.466.4,3.571,3.571,0,0,1,.733-.333c.133-.067.466-.133.666-.2a1.762,1.762,0,0,1,0-.6Z" transform="translate(1.698 1.076)"/>
        <path id="Path_357" data-name="Path 357" d="M5.673,1.233c-.133.133-.4,0-.466-.133A3.113,3.113,0,0,0,5.873.766c-.133.267-.067.333-.2.466m0,1.666a.264.264,0,0,1-.4-.2c-.067-.133-.067-.2,0-.267.067-.133.067-.2,0-.267-.067-.133-.2-.067-.333,0q.1-.2,0-.2c-.133,0-.133.2-.2.2s0-.133,0-.2a.143.143,0,0,1,.133-.133l.6-.2c.067,0,.133-.067.2,0,0-.067.133,0,.067.067,0,.067-.133-.067-.267,0-.067.067,0,.133.133.133-.133.067-.267.133-.2.267a.213.213,0,0,0,.2.2q.1,0,.2.2a.267.267,0,0,1-.133.4M4.541,1.7c-.133,0-.133-.133-.466-.2.2-.067.466-.133.666-.2.067.133,0,.4-.2.4M7.872,7.1c.067-.133-.2-.267-.2-.466a.805.805,0,0,0-.2-.6c-.2-.2-.933-.933-1.133-1.2a.338.338,0,0,1,.333.067c.067.067.2.267.333.4a4.464,4.464,0,0,1,.733-1.2l.133-.133a.947.947,0,0,0-.4.133c0-.2,0-.4-.133-.466.067-.267,0-.6-.666-1.066.333.067.533.4.8.133-.2,0-.2-.466-1.066-.933.333,0,.533.466.933.2-.333-.067-.466-.666-1.066-.8.2,0,.4.133.6-.133C6.673,1.1,6.54.9,6.34.9a.919.919,0,0,0,0-.6,1.235,1.235,0,0,0-.466.133C5.873.3,5.673.3,5.54.3c0,.067.067.133,0,.133a6.453,6.453,0,0,0-.733.2c-.267.133-.6.333-.733.4C4.008,1.1,4.008.966,3.941.966c-.067.067-.2.133-.133.267a.72.72,0,0,0-.466.2c0,.2.133.333.4.466-.4.333-.067.666-.4,1,.466,0,.4-.6.6-.733,0,.466-.267.533-.267,1,0,.267.133.533,0,.733.466-.067.333-.933.6-1.2.067.133,0,.267,0,.466-.133.4,0,.933-.2,1.133.333-.067.4-.666.733-.933a18.318,18.318,0,0,1-1,2.4c-.666.933-1.066,2-1.732,2a.475.475,0,0,1-.466-.533c0-1.066,1.8-1.732,1.8-2.865A.663.663,0,0,0,2.742,3.7a.757.757,0,0,0-.533.2c-.067,0-.133-.067-.2-.067-.6,0-.466,1.133-1,1.133.2.2.6,0,.8-.333-.067.733-1.133.533-1.066,1.4.133-.666,1.866-.6,1.866-1.666-.067-.067-.133-.2-.2-.267a1.126,1.126,0,0,1,.333-.133c.2,0,.4.133.4.466,0,.933-1.8,1.732-1.8,2.865a.963.963,0,0,0,.133.466A.293.293,0,0,1,1.142,7.7c0,.267.4.466.666.333a.245.245,0,0,1,.2.067.366.366,0,0,1-.466.2c.466.333,1.2-.133,1.133-.466a6.363,6.363,0,0,0,.8-1.066.245.245,0,0,1-.067.2A4.618,4.618,0,0,0,2.941,8.5c-.067.466-.333.933-.733.933-.067,0-.2-.133-.267-.067-.133.067,0,.2,0,.267,0,.133-.267.267-.267.733,0,.2.133.466.067.6a.85.85,0,0,0,.333-.466c.133.6-.267.533,0,1.066.067-.2.2-.267.333-.2.133.133.067.2,0,.267s-.133.466.2.4c-.067,0-.067-.133.067-.133.267-.067.333.067.6.067.133,0,.2-.2.333-.2s.133.133.067.2c.267-.133.267-.267.267-.333,0-.133-.067-.2,0-.267s.333,0,.2.2c.133,0,.2-.133.2-.267a.255.255,0,0,0-.333-.2c0-.067-.2-.133-.267-.133-.267,0-.267.2-.466.2-.333,0-.6-.4-.6-1.133,0-.4.4-.466.666-.6A2.239,2.239,0,0,0,4.407,8.5a1.8,1.8,0,0,0,.2-1.333.816.816,0,0,1,.466.8c0,.333-.133.466-.267.466-.133.067-.133,0-.133.067a.233.233,0,0,0,.067.133c.133.2.067.333.133.466a1.4,1.4,0,0,0,.4.533V9.162c.333.133.067.8.666.8-.133-.067-.067-.2,0-.267.067,0,.133.067.267.2s.067.133.4.133c.267,0,.133-.067.333-.067.133,0,.133.2.067.333a.382.382,0,0,0,.133-.466c.2-.133.333.067.4.2.2-.2,0-.466-.2-.533,0-.067-.067-.2-.133-.2H6.939c-.133,0-.133.133-.267.133-.4,0-1.133-.666-1.133-1,0-.267.733-.466.733-.933,0-.6-.6-.8-1.066-1.2a1.453,1.453,0,0,1,.933,0c0-.133.133-.133.2-.4.133.267,0,.466.133.6,0-.133.2-.133.2-.466.067.2-.067.466.067.6a.213.213,0,0,1,.2-.2.143.143,0,0,1,.133.133c0,.267-.267.133-.267.4,0,.133.133.133.133.2a.151.151,0,0,1-.267.067c.067.133.133.2.267.2a.443.443,0,0,0,.333-.267.3.3,0,0,1-.133.4c.133.067.466,0,.4-.4.2,0,.267.133.133.333.133.133.267.067.267-.133,0-.067-.133-.133-.067-.267" transform="translate(-0.74 1.699)"/>
        <path id="Path_358" data-name="Path 358" d="M3.653,2.2a.43.43,0,0,1,.4-.4.43.43,0,0,1,.4.4.384.384,0,0,1-.4.4q-.4-.1-.4-.4m-.133,0a.533.533,0,1,0,.533-.533A.526.526,0,0,0,3.52,2.2" transform="translate(15.007 9.458)"/>
        <path id="Path_359" data-name="Path 359" d="M3.553,2.333c-.133,0-.267-.133-.2-.267,0-.067.067-.067.067-.133a.245.245,0,0,1,.2-.067.213.213,0,0,1,.2.2h0c0,.267-.133.333-.267.267m-.2-.4c-.067,0-.133.067-.133.2a.4.4,0,0,0,.067.267c.067,0,.133.067.267.067s.2,0,.267-.067.133-.133.133-.2a.422.422,0,0,0-.333-.4c-.067.067-.2.067-.267.133" transform="translate(13.308 10.194)"/>
        <path id="Path_360" data-name="Path 360" d="M2.938,1.15c0-.067.067-.133.133-.2a.245.245,0,0,1,.2-.067A.065.065,0,0,1,3.338.95v.133c0,.067-.067.133-.133.2a.2.2,0,0,1-.267,0V1.15m0-.333a.329.329,0,0,0-.067.466h0a.322.322,0,0,0,.466,0,.346.346,0,0,0,.133-.267A.245.245,0,0,0,3.4.817.233.233,0,0,0,3.272.75a.6.6,0,0,0-.333.067" transform="translate(10.924 4.247)"/>
        <path id="Path_361" data-name="Path 361" d="M3.463,2.48Zm0-.133h0c-.067,0-.067,0-.133-.067a.245.245,0,0,1-.067-.2.245.245,0,0,1,.067-.2.233.233,0,0,1,.133-.067c.133,0,.2.133.2.267a.245.245,0,0,1-.067.2c-.067,0-.067.067-.133.067m-.2-.6a.509.509,0,0,0-.133.333h0a.346.346,0,0,0,.133.267c.067.067.133.133.2.133a.245.245,0,0,0,.2-.067A.509.509,0,0,0,3.8,2.08c0-.133,0-.2-.067-.267a.505.505,0,0,0-.267-.133.245.245,0,0,0-.2.067" transform="translate(12.798 9.514)"/>
        <path id="Path_362" data-name="Path 362" d="M3.1,1.613a.366.366,0,0,1-.2-.333.065.065,0,0,1,.067-.067h.2c.067.067.133.067.133.133V1.48a.065.065,0,0,1-.067.067c0,.067-.067.067-.133.067M2.971,1.08c-.067,0-.133.067-.2.133a.39.39,0,0,0,.2.466.3.3,0,0,0,.333,0c.067,0,.133-.067.2-.133,0-.067.067-.133,0-.2,0-.067-.133-.133-.2-.2a.6.6,0,0,0-.333-.067" transform="translate(10.625 6.116)"/>
        <path id="Path_363" data-name="Path 363" d="M7.634,9.157c-.133.067-.267.133-.333.067a.3.3,0,0,1,0-.333c.067-.133.2-.133.333-.067a.3.3,0,0,1,0,.333m-.6.933c-.133.067-.267.133-.333.067a.3.3,0,0,1,0-.333.165.165,0,0,1,.267-.067c.133.067.133.2.067.333M4.969,4.959c.067-.2.2-.666.2-.666l.267.133c-.067,0-.133.067-.2.133h.2l-.133.2a.143.143,0,0,0-.133-.133c-.067.2.067.267.133.333.133.067.267.067.267,0,.067-.067,0-.2-.133-.133,0-.133.067-.2.133-.2a.143.143,0,0,1,.133.133.365.365,0,0,1,.267-.4.412.412,0,0,1-.133.466h.2c.067.067,0,.133-.067.2,0-.133-.2-.133-.2-.067-.067.067,0,.133.133.2s.267.067.333-.067a.245.245,0,0,0-.2.067l.133-.267a.245.245,0,0,0,.067.2c0-.067.067-.2,0-.267l.333.133c-.133,0-.2.067-.2.133h.2l-.2.267c0-.067,0-.2-.067-.2a.314.314,0,0,0,.067.4c.133.067.2.067.267,0s0-.2-.133-.133c0-.133.067-.2.133-.2a.143.143,0,0,1,.133.133c.067-.2.133-.333.333-.333a.324.324,0,0,1-.2.4.245.245,0,0,1,.2.067c.067.067,0,.133-.067.2,0-.133-.133-.133-.2-.067s0,.133.133.2a.22.22,0,0,0,.333,0c-.067,0-.2-.067-.267-.067l.133-.2c0,.067.067.133.067.2,0-.067.067-.2,0-.267l.2.133-.466.466Zm2.465,2.8A.206.206,0,0,1,7.5,7.625h.133c.067,0,.133.067.2.067a.245.245,0,0,1,.067.2.206.206,0,0,1-.067.133h0a.233.233,0,0,1-.133.067c-.067,0-.133-.067-.2-.133,0-.067-.067-.133-.067-.2m.933,4.131c0-.067.067-.133.133-.2a.245.245,0,0,1,.2-.067.206.206,0,0,1,.133.067h0v.133c0,.067-.067.133-.133.2a.3.3,0,0,1-.333,0,.092.092,0,0,1,0-.133M4.036,5.626a.245.245,0,0,1-.067.2L3.9,5.892c-.067,0-.133-.133-.133-.2h0a.245.245,0,0,1,.067-.2L3.9,5.426c.067,0,.067,0,.067.067.067,0,.133.067.067.133M5.369,2.96c.067-.133,0-.333.267-.333.133,0,.2.133.4.2a.775.775,0,0,0-.666.133m3.865,3.4c.2.4.466.6.733.466-.533-.067-.067-1-.8-1H9.033a.6.6,0,0,0-.466-.2.824.824,0,0,0-.8.866c0,1.266,1.533,1.4,1.533,2.532a.526.526,0,0,1-.533.533c-.267,0-.466-.267-.666-.733-.133-.133-.333-.4-.6-.733a.267.267,0,0,0,.466-.2h0a.346.346,0,0,0-.133-.267c0-.133-.133-.133-.2-.133a.245.245,0,0,0-.2.067c-.067.067-.133.133-.133.2h0v.133a3.611,3.611,0,0,1-.6-1.066.921.921,0,0,1,.333-.6H7.1l.067-.067.466-.466h0V5.626L7.5,5.492c.067-.067.067-.2.133-.333.067.2.133.333.333.267-.067-.2.067-.533,0-1,.133.2.267.333.4.267-.333-.267.067-.733-.333-1.333.133.067.267,0,.267-.067-.466,0-.267-.466-.933-.666.2,0,.267-.133.267-.2-.2.067-.4-.267-1-.267a.8.8,0,0,0-.466-.6.547.547,0,0,1-.067.466L4.169.1C4.1.1,4.1.029,4.036.1V.162L5.768,2.294a.947.947,0,0,0-.4.133c-.067,0-.133.133-.133.2a2.316,2.316,0,0,0-.733.466c-.067.133-.2.133-.067.333.067.067-.067.267.2.133.133-.067.466-.267.533-.133,0,.067-.133.133-.267.2a.465.465,0,0,0-.267.133c0,.067.133,0,.133.067a.233.233,0,0,0,.067.133c.067,0,.133-.133.133-.067.067.067,0,.267-.067.333a.357.357,0,0,0,.333-.333.292.292,0,0,1,.067-.2.322.322,0,0,1,0,.267q.2,0,.2-.4a.206.206,0,0,1,.133-.067c.067,0,.2.2.4.2a.524.524,0,0,0,.533-.4c0-.133,0-.2-.067-.267a.244.244,0,0,1,.267.267c0,.466-.866.666-1.2,1L5.5,4.36l-.4-.133V4.36a6.29,6.29,0,0,0-.2.6v.067h.067a3.376,3.376,0,0,0-.466,1c-.133-.067-.2-.2-.333-.267V5.626c0-.133,0-.2-.067-.267-.067,0-.133-.067-.2-.067a.245.245,0,0,0-.2.067l-.067.067H3.569c-.067-.133-.2-.267-.267-.4-.067,0-.133-.067-.2-.067H2.9c-.067,0-.067.067-.133.133a.5.5,0,0,0-.2.2l.133.133.067.067.067-.067c.067-.067.067-.067.133-.067s.133.067.2.133a5.769,5.769,0,0,0,.6.8H3.7a.736.736,0,0,1-.533,0c-.067,0-.133,0-.2.133a.143.143,0,0,1-.133.133c-.067.067-.067.067,0,.2a2.9,2.9,0,0,1,.533,1c.067.2.2.267.4.333s.466.267.533.267v-.2a.949.949,0,0,1-.267-.133c-.067,0-.067-.067,0-.067a2.716,2.716,0,0,1,.466.133.979.979,0,0,0-.333-.4.3.3,0,0,0-.333,0c0,.067,0,.067-.067.067A.065.065,0,0,1,3.7,7.691c0-.067.067-.067.067-.2,0-.067-.133-.133-.2-.133-.133-.133-.267-.4-.333-.466s0-.133,0-.2c.067-.067.267.067.666.067h.466a1.124,1.124,0,0,0,.866,1.066.982.982,0,0,1,.733.6c-1.266,0-1.466.466-1.466.933,0,.533.466.533.466.933,0,.333-1.066.466-1.4.533a1.074,1.074,0,0,0-.466.267l-.533.533h.2l.2-.267c.067-.067.067-.133.133-.133s0,.067,0,.133l-.2.267c.666.067.666-.2.666-.267s-.133-.133-.067-.2.2,0,.267.067.067.133.267.067c0,0,1.4-.6,1.533-.666s.133-.133,0-.2c-.067-.067-.067-.2-.067-.4,0-.4.267-.533.733-.533v.2c0,.666,1,1.266,1.266,1.266.133,0,.267-.067.267.333a3.2,3.2,0,0,1,0,.8.7.7,0,0,1-.4.6c-.2.133-.4.6-.466.666.067.067.2.067.267-.133s.133-.333.2-.333a2.06,2.06,0,0,0-.133.533c.267.067.666-.2.666-.333,0-.2-.133-.133-.133-.267a.143.143,0,0,1,.133-.133c.133,0,.2.067.2.133a.4.4,0,0,0,.2-.4v-.267c.067.067.133.133.2.133a.4.4,0,0,0,.267-.067c.067-.067.2-.133.2-.267v-.067c0-.067,0-.133-.067-.133,0-.2-.067-.2-.2-.267a.6.6,0,0,0-.333.067.505.505,0,0,0-.133.267c0-.333-.067-.666-.067-.8,0-.2,0-.267-.067-.333-.067,0-.133.067-.267.067a.711.711,0,0,1-.4-.533c0-.267.333-.666.267-1.066,0-.133.067-.2.133-.067a2.025,2.025,0,0,1,.333.466c-.067.466.466,1,.933.6a.5.5,0,0,1-.466-.333h.2a.486.486,0,0,0,.8-.267,1.235,1.235,0,0,1-.466.133.723.723,0,0,0,.267-.6c0-1.2-1.466-1.4-1.466-2.465a.659.659,0,0,1,.6-.666c.067,0,.2,0,.2.067a1.356,1.356,0,0,0-.067.333c0,.933,1.466.866,1.466,1.266.2-.6-.866-.4-.933-1.266" transform="translate(9.627 0.371)"/>
      </g>
      <g id="Group_1136" data-name="Group 1136" transform="translate(4.997 20.257)">
        <path id="Path_364" data-name="Path 364" d="M.87,3.04h2.8C6.2,3.04,7.6,4.306,7.6,6.9c0,2.732-1.2,4.265-3.931,4.265H.87ZM1.936,10.3h1.8c.733,0,2.732-.2,2.732-3.2,0-1.932-.733-3.132-2.732-3.132h-1.8Z" transform="translate(-0.07 -3.04)"/>
        <path id="Path_365" data-name="Path 365" d="M7.3,7.548a2.353,2.353,0,0,1-2.532,2c-1.866,0-2.8-1.333-2.8-3.132a2.806,2.806,0,0,1,2.8-3.065c2.066,0,2.732,1.932,2.665,3.4H2.969a1.75,1.75,0,0,0,1.866,2A1.457,1.457,0,0,0,6.368,7.615H7.3Zm-.933-1.6A1.707,1.707,0,0,0,4.635,4.283,1.65,1.65,0,0,0,2.969,5.949Z" transform="translate(6.159 -1.284)"/>
        <path id="Path_366" data-name="Path 366" d="M2.91,3.493h1v.8h0A1.889,1.889,0,0,1,5.775,3.36c1.8,0,2.732,1.466,2.732,3.132S7.641,9.557,5.842,9.557A2.263,2.263,0,0,1,3.91,8.624h0v3h-1Zm2.732.733c-1.333,0-1.8,1.133-1.8,2.2,0,1.133.533,2.266,1.866,2.266s1.8-1.133,1.8-2.266C7.441,5.292,6.841,4.226,5.642,4.226Z" transform="translate(11.483 -1.228)"/>
        <path id="Path_367" data-name="Path 367" d="M9.361,9.357a1.2,1.2,0,0,1-.733.2c-.533,0-.8-.267-.8-.933a2.732,2.732,0,0,1-2.066.933C4.7,9.557,3.83,9.09,3.83,7.891c0-1.333,1-1.6,2-1.8,1.066-.2,2-.133,2-.866,0-.866-.666-1-1.333-1-.866,0-1.466.267-1.533,1.133H4.03c.067-1.466,1.2-2,2.532-2,1.066,0,2.2.267,2.2,1.6V8.024c0,.466,0,.666.333.666a.4.4,0,0,0,.267-.067Zm-1.6-3a6.032,6.032,0,0,1-1.732.4c-.666.133-1.2.333-1.2,1.066,0,.666.533.866,1.133.866,1.266,0,1.8-.8,1.8-1.333v-1Z" transform="translate(16.693 -1.228)"/>
        <path id="Path_368" data-name="Path 368" d="M4.76,3.493h.933V4.759h0a2.25,2.25,0,0,1,2.2-1.4v1c-1.533,0-2.132.866-2.132,2.4v2.6h-1Z" transform="translate(21.96 -1.228)"/>
        <path id="Path_369" data-name="Path 369" d="M7.289,4.909h1.2v.866h-1.2V9.44c0,.466.133.533.733.533h.466v.866H7.755c-1,0-1.4-.2-1.4-1.266v-3.8H5.29V4.909h1V3.11h1Z" transform="translate(24.961 -2.644)"/>
        <path id="Path_370" data-name="Path 370" d="M5.89,3.493h.933V4.36h0a2.258,2.258,0,0,1,1.932-1,1.48,1.48,0,0,1,1.6,1,2.215,2.215,0,0,1,1.866-1c1.2,0,1.932.466,1.932,1.732V9.424H13.22V5.492c0-.733-.2-1.333-1.133-1.333a1.434,1.434,0,0,0-1.533,1.533V9.357h-1V5.492c0-.733-.267-1.333-1.133-1.333a1.639,1.639,0,0,0-1.6,1.533V9.357H5.89Z" transform="translate(28.359 -1.228)"/>
        <path id="Path_371" data-name="Path 371" d="M12.6,7.548a2.353,2.353,0,0,1-2.532,2c-1.866,0-2.8-1.333-2.8-3.132a2.806,2.806,0,0,1,2.8-3.065c2.066,0,2.732,1.932,2.665,3.4H8.27a1.734,1.734,0,0,0,1.8,2A1.457,1.457,0,0,0,11.6,7.615h1Zm-.933-1.6A1.751,1.751,0,0,0,9.935,4.283,1.65,1.65,0,0,0,8.27,5.949Z" transform="translate(36.175 -1.284)"/>
        <path id="Path_372" data-name="Path 372" d="M8.2,3.493h.933v.933h0A2.034,2.034,0,0,1,11.065,3.36c1.533,0,2,.866,2,2.132V9.357h-.933v-4a1.12,1.12,0,0,0-1.2-1.2A1.648,1.648,0,0,0,9.2,6.025V9.357h-1Z" transform="translate(41.442 -1.228)"/>
        <path id="Path_373" data-name="Path 373" d="M11.009,4.909h1.2v.866h-1.2V9.44c0,.466.133.533.733.533h.466v.866h-.8c-1,0-1.4-.2-1.4-1.266v-3.8h-1V4.909h1V3.11h1v1.8Z" transform="translate(46.029 -2.644)"/>
        <path id="Path_374" data-name="Path 374" d="M1.749,8.028h-1V7.162h1V6.3a1.406,1.406,0,0,1,1.6-1.466c.2,0,.466.067.6.067v.866A1.134,1.134,0,0,0,3.482,5.7c-.466,0-.733.133-.733.666v.8H3.882v.866H2.749v5.064h-1Z" transform="translate(-0.75 7.097)"/>
        <path id="Path_375" data-name="Path 375" d="M4.105,5.16A2.782,2.782,0,0,1,6.97,8.225,2.782,2.782,0,0,1,4.105,11.29,2.782,2.782,0,0,1,1.24,8.225,2.782,2.782,0,0,1,4.105,5.16Zm0,5.331a1.962,1.962,0,0,0,1.866-2.2c0-1.466-.8-2.266-1.866-2.266-1,0-1.866.8-1.866,2.266C2.306,9.691,3.106,10.491,4.105,10.491Z" transform="translate(2.025 8.966)"/>
        <path id="Path_376" data-name="Path 376" d="M2.22,5.293h.933V6.559h0a2.25,2.25,0,0,1,2.2-1.4v1c-1.533,0-2.132.866-2.132,2.4v2.6h-1Z" transform="translate(7.575 8.966)"/>
        <path id="Path_377" data-name="Path 377" d="M3.26,4.84h5.6v.933H4.393v2.6H8.657v.866H4.393v2.8h4.6v.933H3.26Z" transform="translate(13.465 7.154)"/>
        <path id="Path_378" data-name="Path 378" d="M9.767,12.969H8.834v-.8h0a2.106,2.106,0,0,1-1.932,1c-1.8,0-2.732-1.466-2.732-3.132s.866-3.065,2.665-3.065a2.263,2.263,0,0,1,1.932.933h0V4.84h1ZM7.035,12.3c1.333,0,1.8-1.133,1.8-2.2,0-1.133-.533-2.266-1.866-2.266s-1.8,1.133-1.8,2.266C5.236,11.237,5.769,12.3,7.035,12.3Z" transform="translate(18.619 7.154)"/>
        <path id="Path_379" data-name="Path 379" d="M10,11.044H9.131v-.933h0A2.237,2.237,0,0,1,7.2,11.244c-1.533,0-2-.866-2-2.132V5.18h1v4a1.12,1.12,0,0,0,1.2,1.2A1.648,1.648,0,0,0,9.131,8.512V5.18h1v5.864Z" transform="translate(24.452 9.08)"/>
        <path id="Path_380" data-name="Path 380" d="M10.391,7.1A1.394,1.394,0,0,0,8.925,5.9c-1.4,0-1.866,1.133-1.866,2.332,0,1.066.466,2.132,1.732,2.132a1.508,1.508,0,0,0,1.6-1.466h1a2.434,2.434,0,0,1-2.6,2.4c-1.8,0-2.732-1.266-2.732-3,0-1.8.933-3.132,2.8-3.132a2.229,2.229,0,0,1,2.532,2h-1Z" transform="translate(29.322 9.023)"/>
        <path id="Path_381" data-name="Path 381" d="M12.481,11.157a1.1,1.1,0,0,1-.666.133c-.533,0-.8-.267-.8-.933a2.813,2.813,0,0,1-2.132,1c-1.066,0-1.932-.466-1.932-1.666,0-1.333,1-1.6,2-1.8,1.066-.2,2-.133,2-.866,0-.866-.666-1-1.333-1-.8,0-1.4.267-1.466,1.133h-1c.067-1.466,1.2-2,2.532-2,1.066,0,2.2.267,2.2,1.6V9.824c0,.466,0,.666.333.666a.4.4,0,0,0,.267-.067Zm-1.6-3a6.032,6.032,0,0,1-1.732.4c-.666.067-1.2.333-1.2,1.066,0,.666.533.866,1.133.866,1.266,0,1.8-.8,1.8-1.333Z" transform="translate(34.363 8.966)"/>
        <path id="Path_382" data-name="Path 382" d="M9.769,6.709h1.2v.866h-1.2V11.24c0,.466.133.533.733.533h.466v.866h-.8c-1,0-1.4-.2-1.4-1.266v-3.8h-1V6.709h1V4.91h1Z" transform="translate(39.007 7.55)"/>
        <path id="Path_383" data-name="Path 383" d="M9.36,6.039h-1V4.84h1v1.2Zm-1,1.066h1v5.93h-1Z" transform="translate(42.348 7.154)"/>
        <path id="Path_384" data-name="Path 384" d="M11.505,5.16A2.782,2.782,0,0,1,14.37,8.225a2.782,2.782,0,0,1-2.865,3.065A2.782,2.782,0,0,1,8.64,8.225,2.782,2.782,0,0,1,11.505,5.16Zm0,5.331a1.962,1.962,0,0,0,1.866-2.2c0-1.466-.8-2.266-1.866-2.266-1,0-1.866.8-1.866,2.266C9.706,9.691,10.506,10.491,11.505,10.491Z" transform="translate(43.934 8.966)"/>
        <path id="Path_385" data-name="Path 385" d="M9.63,5.293h.933v.933h0A2.034,2.034,0,0,1,12.5,5.16c1.533,0,2,.866,2,2.132v3.865h-1v-4a1.12,1.12,0,0,0-1.2-1.2,1.648,1.648,0,0,0-1.732,1.866v3.332H9.63Z" transform="translate(49.54 8.966)"/>
      </g>
    </g>
    <text id="Funded_by" data-name="Funded by" transform="translate(4190 733)" fill="#0b0c0c" font-size="7" font-family="Roboto-Regular, Roboto"><tspan x="0" y="0">Funded by</tspan></text>
  </g>
</svg>
