<svg width="64" height="64" viewBox="0 0 64 64" fill="none" xmlns="http://www.w3.org/2000/svg">
<rect width="64" height="64" rx="32" fill="#333333"/>
<g clip-path="url(#clip0_382_3535)">
<mask id="mask0_382_3535" style="mask-type:luminance" maskUnits="userSpaceOnUse" x="16" y="16" width="32" height="32">
<path d="M16 16H48V48H16V16Z" fill="white"/>
</mask>
<g mask="url(#mask0_382_3535)">
<path d="M32 18.8832C36.272 18.8832 36.7765 18.8992 38.4651 18.976C40.0256 19.0475 40.8725 19.3088 41.4368 19.5275C42.1323 19.7835 42.7616 20.1931 43.2789 20.7243C43.8101 21.2413 44.2187 21.8708 44.4747 22.5664C44.6944 23.1296 44.9547 23.9765 45.0261 25.5371C45.1029 27.2235 45.1189 27.7301 45.1189 32.0011C45.1189 36.2741 45.1029 36.7797 45.0261 38.4672C44.9547 40.0277 44.6944 40.8747 44.4747 41.4389C44.2084 42.1287 43.8008 42.7552 43.278 43.278C42.7552 43.8008 42.1287 44.2084 41.4389 44.4747C40.8736 44.6944 40.0277 44.9547 38.4672 45.0261C36.7808 45.1029 36.2741 45.1189 32.0021 45.1189C27.7291 45.1189 27.2235 45.1029 25.5371 45.0261C23.9765 44.9547 23.1296 44.6944 22.5664 44.4747C21.8706 44.2185 21.2411 43.8096 20.7243 43.2779C20.1925 42.7611 19.7835 42.1316 19.5275 41.4357C19.3088 40.8715 19.0475 40.0245 18.976 38.4651C18.8992 36.7776 18.8832 36.272 18.8832 31.9989C18.8832 27.7269 18.8992 27.2224 18.976 25.5328C19.0475 23.9755 19.3099 23.1275 19.5275 22.5643C19.7838 21.8685 20.1927 21.2391 20.7243 20.7221C21.2412 20.1906 21.8707 19.7817 22.5664 19.5253C23.1275 19.3088 23.9744 19.0475 25.5349 18.976C27.2224 18.8992 27.728 18.8832 32 18.8832ZM32 16C27.6555 16 27.1093 16.0181 25.4037 16.096C23.6971 16.1749 22.5376 16.4448 21.52 16.8405C20.4523 17.2416 19.4848 17.872 18.6859 18.6859C17.8722 19.4849 17.2425 20.4517 16.8405 21.5189C16.4448 22.5387 16.1739 23.7013 16.096 25.4059C16.0192 27.1104 16 27.6565 16 32.0021C16 36.3477 16.0181 36.8928 16.096 38.5984C16.1749 40.3051 16.4448 41.4656 16.8405 42.4832C17.2421 43.5506 17.8719 44.5175 18.6859 45.3163C19.485 46.1303 20.4522 46.7601 21.52 47.1616C22.5365 47.5584 23.7003 47.8283 25.4027 47.9061C27.1072 47.984 27.6555 48.0021 32 48.0021C36.3445 48.0021 36.8907 47.984 38.5973 47.9061C40.304 47.8283 41.4635 47.5584 42.48 47.1627C43.543 46.7516 44.5084 46.123 45.3144 45.3172C46.1204 44.5114 46.7492 43.5461 47.1605 42.4832C47.5552 41.4667 47.8261 40.3019 47.904 38.5984C47.9819 36.896 48 36.3477 48 32.0021C48 27.6565 47.9819 27.1115 47.904 25.4059C47.8261 23.6992 47.5563 22.5397 47.1605 21.5211C46.7591 20.4527 46.1293 19.4847 45.3152 18.6848C44.5155 17.8724 43.5484 17.2441 42.4811 16.8437C41.4645 16.448 40.2987 16.1771 38.5973 16.0992C36.8939 16.0224 36.3456 16.0032 32 16.0032V16Z" fill="white"/>
<path d="M32 23.7844C29.8208 23.7844 27.7309 24.6501 26.19 26.191C24.6491 27.7319 23.7834 29.8218 23.7834 32.0009C23.7834 34.1801 24.6491 36.27 26.19 37.8109C27.7309 39.3518 29.8208 40.2175 32 40.2175C34.1791 40.2175 36.269 39.3518 37.8099 37.8109C39.3508 36.27 40.2165 34.1801 40.2165 32.0009C40.2165 29.8218 39.3508 27.7319 37.8099 26.191C36.269 24.6501 34.1791 23.7844 32 23.7844ZM32 37.3332C30.5852 37.3332 29.2284 36.7712 28.228 35.7708C27.2276 34.7704 26.6656 33.4136 26.6656 31.9988C26.6656 30.584 27.2276 29.2272 28.228 28.2268C29.2284 27.2264 30.5852 26.6644 32 26.6644C33.4148 26.6644 34.7716 27.2264 35.772 28.2268C36.7724 29.2272 37.3344 30.584 37.3344 31.9988C37.3344 33.4136 36.7724 34.7704 35.772 35.7708C34.7716 36.7712 33.4148 37.3332 32 37.3332ZM40.5408 25.3791C41.05 25.3791 41.5384 25.1768 41.8984 24.8167C42.2585 24.4566 42.4608 23.9683 42.4608 23.4591C42.4608 22.9498 42.2585 22.4615 41.8984 22.1014C41.5384 21.7413 41.05 21.5391 40.5408 21.5391C40.0316 21.5391 39.5432 21.7413 39.1831 22.1014C38.8231 22.4615 38.6208 22.9498 38.6208 23.4591C38.6208 23.9683 38.8231 24.4566 39.1831 24.8167C39.5432 25.1768 40.0316 25.3791 40.5408 25.3791Z" fill="white"/>
</g>
</g>
<defs>
<clipPath id="clip0_382_3535">
<rect width="32" height="32" fill="white" transform="translate(16 16)"/>
</clipPath>
</defs>
</svg>
