<svg id="ARTWORK" xmlns="http://www.w3.org/2000/svg" width="203.669" height="57" viewBox="0 0 203.669 57">
  <g id="Group_19" data-name="Group 19">
    <rect id="Rectangle_14" data-name="Rectangle 14" width="112.807" height="21.721" transform="translate(90.862 19.717)" fill="#59ff69"/>
    <path id="Path_151" data-name="Path 151" d="M95.756,40.56h1.331a.142.142,0,0,0,.155-.155V31.916h3.649a.142.142,0,0,0,.155-.155V30.667a.142.142,0,0,0-.155-.155H97.8a1.982,1.982,0,0,0-2.2,2.2v7.7a.142.142,0,0,0,.155.155m-10.113-5.02c0-2.318,1.249-3.787,3.249-3.787s3.273,1.469,3.273,3.787-1.265,3.771-3.273,3.771-3.249-1.445-3.249-3.771m3.249,5.118a4.775,4.775,0,0,0,4.938-5.118,4.934,4.934,0,1,0-9.86,0,4.762,4.762,0,0,0,4.922,5.118m-9.8-.1h1.33a.142.142,0,0,0,.155-.155V31.842H83.21a.155.155,0,0,0,.155-.155V30.675a.142.142,0,0,0-.155-.155H80.573V27.606H83.21a.138.138,0,0,0,.155-.139V26.455a.142.142,0,0,0-.155-.155H81.128a1.982,1.982,0,0,0-2.2,2.2v2.024H77.039a.138.138,0,0,0-.139.155V31.7a.147.147,0,0,0,.139.155h1.886v8.571a.142.142,0,0,0,.155.155" transform="translate(-14.302 -4.902)" fill="#120540"/>
    <path id="Path_152" data-name="Path 152" d="M209.833,8.587a3.017,3.017,0,0,1,3.216-3.11c1.706,0,2.775,1.151,2.873,3.11Zm3.216,5.787c2.4,0,4.008-1.233,4.4-3,.016-.082-.041-.139-.155-.139h-1.265a.163.163,0,0,0-.18.139,2.68,2.68,0,0,1-2.8,1.649,3.054,3.054,0,0,1-3.216-3.216h7.518a.142.142,0,0,0,.155-.155v-.4c0-3.192-1.681-5.134-4.465-5.134-2.971,0-4.9,2-4.9,5.134s1.9,5.118,4.9,5.118m-11.126-.1h1.33a.142.142,0,0,0,.155-.155V5.632h3.649a.142.142,0,0,0,.155-.155V4.383a.142.142,0,0,0-.155-.155h-3.094a1.982,1.982,0,0,0-2.2,2.2v7.7a.142.142,0,0,0,.155.155m-4.261,0h2.081a.142.142,0,0,0,.155-.155V13.117a.138.138,0,0,0-.155-.139h-2.637V5.551h2.637a.155.155,0,0,0,.155-.155V4.383a.142.142,0,0,0-.155-.155h-2.637V1.4a.142.142,0,0,0-.155-.155h-1.331a.142.142,0,0,0-.155.155V4.22h-1.886a.138.138,0,0,0-.139.155V5.387a.147.147,0,0,0,.139.155h1.886v6.522a1.982,1.982,0,0,0,2.2,2.2m-13.86,0h1.347a.138.138,0,0,0,.139-.155V8.538c0-1.984.931-3.012,2.677-3.012s2.555.971,2.555,3.012v5.575a.142.142,0,0,0,.155.155H192a.142.142,0,0,0,.155-.155V8.538c0-2.9-1.265-4.424-3.592-4.424a3.607,3.607,0,0,0-3.29,1.845h-.057V4.375a.142.142,0,0,0-.155-.155h-1.265a.138.138,0,0,0-.139.155v9.738a.138.138,0,0,0,.139.155m-9.681-5.689a3.017,3.017,0,0,1,3.216-3.11c1.706,0,2.775,1.151,2.873,3.11Zm3.216,5.787c2.4,0,4.008-1.233,4.4-3,.016-.082-.041-.139-.155-.139h-1.265a.163.163,0,0,0-.18.139,2.68,2.68,0,0,1-2.8,1.649A3.054,3.054,0,0,1,174.113,9.8h7.518a.142.142,0,0,0,.155-.155v-.4c0-3.192-1.69-5.134-4.465-5.134-2.971,0-4.9,2-4.9,5.134s1.9,5.118,4.9,5.118m-12.015,0a5.516,5.516,0,0,0,5.755-4.383c.041-.139-.041-.18-.122-.18h-1.371c-.122,0-.139.041-.18.139a3.854,3.854,0,0,1-4.081,2.971c-3,0-4.816-2.106-4.816-5.591s1.845-5.591,4.816-5.591a3.738,3.738,0,0,1,3.967,3,.171.171,0,0,0,.18.155H170.8a.141.141,0,0,0,.155-.18A5.43,5.43,0,0,0,165.306.278c-3.967,0-6.546,2.816-6.546,7.036s2.555,7.036,6.546,7.036m-13.819-.1h1.567a.138.138,0,0,0,.139-.155V13.085a.133.133,0,0,0-.139-.139h-2.122V.155A.138.138,0,0,0,150.793,0h-1.347a.138.138,0,0,0-.139.155V12.072a1.974,1.974,0,0,0,2.179,2.2m-13.027-5.02c0-2.318,1.233-3.787,3.175-3.787s3.192,1.486,3.192,3.787-1.233,3.771-3.192,3.771-3.175-1.445-3.175-3.771m2.759,5.118a4,4,0,0,0,3.551-1.967h.057v.653c0,.792.473,1.208,1.4,1.208h1.388a.142.142,0,0,0,.155-.155V13.1a.138.138,0,0,0-.155-.139h-1.208V4.383a.142.142,0,0,0-.155-.155h-1.331a.142.142,0,0,0-.155.155V6.13h-.057a3.966,3.966,0,0,0-3.494-2c-2.694,0-4.424,2.024-4.424,5.134s1.722,5.118,4.424,5.118m-14.358-.1h1.347a.138.138,0,0,0,.139-.155V8.554c0-1.984.931-3.012,2.677-3.012s2.555.971,2.555,3.012v5.575a.142.142,0,0,0,.155.155h1.331a.142.142,0,0,0,.155-.155V8.554c0-2.9-1.265-4.424-3.592-4.424a3.607,3.607,0,0,0-3.29,1.845h-.057V4.391a.142.142,0,0,0-.155-.155H126.86a.138.138,0,0,0-.139.155v9.738a.138.138,0,0,0,.139.155m-10.073-5.02c0-2.318,1.249-3.787,3.249-3.787s3.273,1.469,3.273,3.787-1.265,3.771-3.273,3.771-3.249-1.445-3.249-3.771m3.249,5.118a4.775,4.775,0,0,0,4.938-5.118,4.93,4.93,0,1,0-9.852,0,4.761,4.761,0,0,0,4.914,5.118M111.531,2.049a.138.138,0,0,0,.155.139h1.747a.133.133,0,0,0,.139-.139V.294a.138.138,0,0,0-.139-.155h-1.747a.142.142,0,0,0-.155.155V2.041Zm.335,12.236h1.347a.138.138,0,0,0,.139-.155V4.383a.138.138,0,0,0-.139-.155h-1.347a.138.138,0,0,0-.139.155v9.738a.138.138,0,0,0,.139.155m-4.22,0h2.081a.142.142,0,0,0,.155-.155V13.109a.138.138,0,0,0-.155-.139H107.09V5.551h2.637a.155.155,0,0,0,.155-.155V4.383a.142.142,0,0,0-.155-.155H107.09V1.4a.142.142,0,0,0-.155-.155H105.6a.142.142,0,0,0-.155.155V4.22h-1.886a.138.138,0,0,0-.139.155V5.387a.147.147,0,0,0,.139.155h1.886v6.522a1.982,1.982,0,0,0,2.2,2.2M93.671,9.248c0-2.318,1.233-3.787,3.175-3.787s3.192,1.486,3.192,3.787-1.233,3.771-3.192,3.771-3.175-1.445-3.175-3.771m2.759,5.118A4,4,0,0,0,99.981,12.4h.057v.653c0,.792.473,1.208,1.4,1.208h1.388a.142.142,0,0,0,.155-.155V13.093a.138.138,0,0,0-.155-.139h-1.208V4.383a.142.142,0,0,0-.155-.155h-1.331a.142.142,0,0,0-.155.155V6.13h-.057a3.966,3.966,0,0,0-3.494-2c-2.694,0-4.424,2.024-4.424,5.134s1.722,5.118,4.424,5.118m-16.913-.1h1.347A.138.138,0,0,0,81,14.129V2.971h.082L88.1,14.154a.209.209,0,0,0,.2.122h1.706a.142.142,0,0,0,.155-.155V.555A.142.142,0,0,0,90.006.4H88.675a.142.142,0,0,0-.155.155V11.681h-.082L81.411.514a.189.189,0,0,0-.18-.122H79.509a.138.138,0,0,0-.139.155V14.113a.138.138,0,0,0,.139.155" transform="translate(-15.077 0)" fill="#120540"/>
    <path id="Path_153" data-name="Path 153" d="M157.755,66.665H159.1a.138.138,0,0,0,.139-.155V60.934c0-1.984.931-3.012,2.677-3.012s2.555.971,2.555,3.012v5.575a.142.142,0,0,0,.155.155h1.33a.142.142,0,0,0,.155-.155V60.934c0-2.9-1.265-4.424-3.592-4.424a3.607,3.607,0,0,0-3.29,1.845h-.057V56.771a.142.142,0,0,0-.155-.155h-1.265a.138.138,0,0,0-.139.155v9.738a.138.138,0,0,0,.139.155m-10.171-5.02c0-2.318,1.249-3.787,3.249-3.787s3.273,1.469,3.273,3.787-1.265,3.771-3.273,3.771-3.249-1.445-3.249-3.771m3.249,5.118a4.775,4.775,0,0,0,4.938-5.118,4.93,4.93,0,1,0-9.852,0,4.761,4.761,0,0,0,4.914,5.118m-8.6-12.334a.138.138,0,0,0,.155.139h1.747a.133.133,0,0,0,.139-.139V52.682a.138.138,0,0,0-.139-.155h-1.747a.142.142,0,0,0-.155.155Zm.335,12.236h1.347a.138.138,0,0,0,.139-.155V56.771a.138.138,0,0,0-.139-.155h-1.347a.138.138,0,0,0-.139.155v9.738a.138.138,0,0,0,.139.155m-4.326,0h2.081a.142.142,0,0,0,.155-.155V65.5a.138.138,0,0,0-.155-.139h-2.637v-7.42h2.637a.155.155,0,0,0,.155-.155V56.771a.142.142,0,0,0-.155-.155h-2.637V53.8a.142.142,0,0,0-.155-.155H136.2a.142.142,0,0,0-.155.155v2.816h-1.886a.138.138,0,0,0-.139.155v1.012a.147.147,0,0,0,.139.155h1.886v6.522a1.982,1.982,0,0,0,2.2,2.2m-14.08-5.02c0-2.318,1.233-3.787,3.175-3.787s3.192,1.486,3.192,3.787-1.233,3.771-3.192,3.771-3.175-1.445-3.175-3.771m2.759,5.118a4,4,0,0,0,3.551-1.967h.057v.653c0,.792.473,1.208,1.4,1.208h1.388a.142.142,0,0,0,.155-.155V65.489a.138.138,0,0,0-.155-.139h-1.208V56.763a.142.142,0,0,0-.155-.155h-1.331a.142.142,0,0,0-.155.155V58.51h-.057a3.966,3.966,0,0,0-3.494-2c-2.694,0-4.424,2.024-4.424,5.134s1.722,5.118,4.424,5.118m-10.073,0a4.123,4.123,0,0,0,4.383-3.249c.016-.1-.057-.139-.155-.139h-1.265a.163.163,0,0,0-.18.139,2.556,2.556,0,0,1-2.775,1.9c-2.024,0-3.249-1.4-3.249-3.771s1.233-3.787,3.249-3.787a2.457,2.457,0,0,1,2.677,1.9c.041.122.082.155.18.155h1.29a.141.141,0,0,0,.155-.18,4.033,4.033,0,0,0-4.3-3.232c-2.955,0-4.922,2.065-4.922,5.134s1.926,5.118,4.922,5.118m-10.807,0c2.759,0,4.22-1.469,4.22-4.261v-5.73a.142.142,0,0,0-.155-.155h-1.33a.142.142,0,0,0-.155.155v5.951a2.582,2.582,0,1,1-5.159,0V56.763a.138.138,0,0,0-.139-.155h-1.347a.138.138,0,0,0-.139.155v5.73c0,2.8,1.445,4.261,4.2,4.261M91.638,61.636c0-2.318,1.249-3.787,3.192-3.787s3.192,1.486,3.192,3.787-1.233,3.771-3.192,3.771-3.192-1.445-3.192-3.771M94.4,66.754a4.048,4.048,0,0,0,3.567-1.967h.057v1.706a.142.142,0,0,0,.155.155h1.265a.138.138,0,0,0,.139-.155V52.535a.138.138,0,0,0-.139-.155H98.095a.138.138,0,0,0-.139.155V58.5h-.082a3.938,3.938,0,0,0-3.494-2c-2.677,0-4.424,2.024-4.424,5.134s1.747,5.118,4.424,5.118m-14.872-.1h8.767a.142.142,0,0,0,.155-.155V65.35a.138.138,0,0,0-.155-.139H81.06V60.4h6.62a.142.142,0,0,0,.155-.155V59.09a.138.138,0,0,0-.155-.139H81.06V54.233h7.02a.142.142,0,0,0,.155-.155V52.943a.142.142,0,0,0-.155-.155H79.509a.138.138,0,0,0-.139.155V66.509a.138.138,0,0,0,.139.155" transform="translate(-14.856 -9.762)" fill="#120540"/>
    <path id="Path_154" data-name="Path 154" d="M220.968,30.492h-1.143a.219.219,0,0,0-.22.22v1l-1.077-1.077a.469.469,0,0,0-.367-.139h-3.485a.517.517,0,0,0-.367.139l-2.22,2.22a.469.469,0,0,0-.139.367v4.661a.48.48,0,0,0,.139.367l2.22,2.22a.492.492,0,0,0,.367.139h3.012a.449.449,0,0,0,.367-.139l.979-1c.2-.2.1-.449-.163-.449h-4.579a.7.7,0,0,1-.751-.751v-5.42a.714.714,0,0,1,.751-.775h4.563c.49,0,.751.2.751.735v9.526a.7.7,0,0,1-.751.751h-4.563a.7.7,0,0,1-.751-.751v-1.02a.21.21,0,0,0-.22-.22h-1.143a.21.21,0,0,0-.22.22v.629a.475.475,0,0,0,.163.367l2.22,2.22a.469.469,0,0,0,.367.139h3.763a.45.45,0,0,0,.343-.139l2.22-2.22a.464.464,0,0,0,.163-.367V30.7a.21.21,0,0,0-.22-.22M208.292,40.606h1.143a.21.21,0,0,0,.22-.22V33.218a.453.453,0,0,0-.163-.367l-2.2-2.22a.531.531,0,0,0-.367-.139H204.2a.545.545,0,0,0-.367.139l-.98,1c-.2.2-.1.449.163.449H207.3a.728.728,0,0,1,.775.775v7.534a.2.2,0,0,0,.22.22m-7.371,0h1.143a.2.2,0,0,0,.2-.22V30.713a.206.206,0,0,0-.2-.22h-1.143a.21.21,0,0,0-.22.22v9.673a.2.2,0,0,0,.22.22m-7.9,0h2.155a.21.21,0,0,0,.22-.22V39.242a.219.219,0,0,0-.22-.22H193.02a.21.21,0,0,0-.22.22v1.143a.2.2,0,0,0,.22.22m4.645,0h.775a.21.21,0,0,0,.22-.22V39.242a.219.219,0,0,0-.22-.22h-1.159a.7.7,0,0,1-.751-.751V33.218a.475.475,0,0,0-.163-.367l-2.22-2.22a.469.469,0,0,0-.367-.139h-.751a.21.21,0,0,0-.22.22v1.143a.21.21,0,0,0,.22.22h1.143a.728.728,0,0,1,.775.775v5.028a.475.475,0,0,0,.163.367l2.22,2.22a.416.416,0,0,0,.343.139m-2.645-13.64a.236.236,0,0,0-.245.245v1.363a.236.236,0,0,0,.245.245h1.347a.217.217,0,0,0,.22-.245V27.211a.221.221,0,0,0-.22-.245Zm-8.367,5.11h3.689a.21.21,0,0,0,.22-.22V30.713a.21.21,0,0,0-.22-.22h-2.506a.45.45,0,0,0-.343.139l-1,1c-.2.2-.1.449.163.449m4.114,5.583-.775-.751a.218.218,0,0,0-.326,0l-2.114,2.114h-.873a.7.7,0,0,1-.751-.751V28.092a.219.219,0,0,0-.22-.22H184.58a.219.219,0,0,0-.22.22v2.4h-1.347a.219.219,0,0,0-.22.22v1.143a.219.219,0,0,0,.22.22h1.347v5.8a.475.475,0,0,0,.163.367l2.22,2.22a.469.469,0,0,0,.367.139h.857a.474.474,0,0,0,.384-.163l2.441-2.465a.218.218,0,0,0,0-.327m-11.362,2.955h1.143a.2.2,0,0,0,.2-.22V30.713a.206.206,0,0,0-.2-.22h-1.143a.21.21,0,0,0-.22.22v9.673a.2.2,0,0,0,.22.22m-4.685,0h2.506a.407.407,0,0,0,.367-.139l1-1c.2-.2.1-.449-.163-.449H174.36a.714.714,0,0,1-.775-.751v-7.55a.206.206,0,0,0-.2-.22h-1.143a.21.21,0,0,0-.22.22v7.167a.517.517,0,0,0,.139.367l2.22,2.22a.468.468,0,0,0,.367.139m-5.6-7.754-2.22-2.22a.492.492,0,0,0-.367-.139h-3.012a.545.545,0,0,0-.367.139l-1,1a.249.249,0,0,0,.18.449h4.563a.716.716,0,0,1,.775.775v5.42a.7.7,0,0,1-.775.751h-4.538c-.49,0-.775-.2-.775-.735V30.721a.206.206,0,0,0-.2-.22h-1.143a.21.21,0,0,0-.22.22V44.466a.2.2,0,0,0,.22.22h1.143a.2.2,0,0,0,.2-.22V39.373l1.1,1.1a.468.468,0,0,0,.367.139h3.485a.517.517,0,0,0,.367-.139l2.22-2.22a.469.469,0,0,0,.139-.367V33.227a.48.48,0,0,0-.139-.367m-13.215,7.754h1.118a.2.2,0,0,0,.22-.22V33.227a.517.517,0,0,0-.139-.367l-2.22-2.22a.45.45,0,0,0-.343-.139h-2.832a.45.45,0,0,0-.343.139l-1,1c-.2.2-.1.449.163.449h4.375a.728.728,0,0,1,.775.775v7.534a.2.2,0,0,0,.22.22m-6.62,0h1.143a.21.21,0,0,0,.22-.22V33.227a.517.517,0,0,0-.139-.367l-2.22-2.22a.492.492,0,0,0-.367-.139H146.02a.545.545,0,0,0-.367.139l-1,1a.249.249,0,0,0,.18.449h3.485a.716.716,0,0,1,.775.775v7.534a.21.21,0,0,0,.22.22m-6.6,0h1.143a.2.2,0,0,0,.2-.22V30.721a.206.206,0,0,0-.2-.22h-1.143a.21.21,0,0,0-.22.22v9.673a.2.2,0,0,0,.22.22m-9.509-1.592a.7.7,0,0,1-.751-.751v-5.42a.714.714,0,0,1,.751-.775h4.563a.71.71,0,0,1,.751.775V37.21l-1.771,1.812h-3.543Zm.384,1.592h3.5a.445.445,0,0,0,.384-.163l2.465-2.441a.566.566,0,0,0,.163-.384v-4.4a.48.48,0,0,0-.139-.367l-2.22-2.22a.492.492,0,0,0-.367-.139H133.6a.517.517,0,0,0-.367.139l-2.22,2.22a.492.492,0,0,0-.139.367v4.661a.518.518,0,0,0,.139.367l2.22,2.22a.492.492,0,0,0,.367.139m-13.95,0h5.379a.48.48,0,0,0,.367-.139l3.175-3.175a.217.217,0,0,0,0-.3l-.792-.792a.218.218,0,0,0-.327.016l-2.808,2.808h-5.355a.7.7,0,0,1-.775-.751V30.647l2.685-2.685h4.971a.714.714,0,0,1,.775.751v2.1a.21.21,0,0,0,.22.22h1.143a.21.21,0,0,0,.22-.22l-.016-1.714a.517.517,0,0,0-.139-.367l-2.22-2.22a.492.492,0,0,0-.367-.139h-4.971a.48.48,0,0,0-.367.139l-3.363,3.363a.485.485,0,0,0-.163.367V37.9a.517.517,0,0,0,.139.367l2.22,2.22a.492.492,0,0,0,.367.139" transform="translate(-21.976 -4.922)" fill="#120540"/>
    <path id="Path_155" data-name="Path 155" d="M220.959,30.494h-1.143a.219.219,0,0,0-.22.22v1l-1.077-1.077a.469.469,0,0,0-.367-.139h-3.485a.517.517,0,0,0-.367.139l-2.22,2.22a.469.469,0,0,0-.139.367v4.661a.48.48,0,0,0,.139.367l2.22,2.22a.492.492,0,0,0,.367.139h3.012a.449.449,0,0,0,.367-.139l.979-1c.2-.2.1-.449-.163-.449h-4.579a.7.7,0,0,1-.751-.751v-5.42a.714.714,0,0,1,.751-.775h4.563c.49,0,.751.2.751.735v9.526a.7.7,0,0,1-.751.751h-4.563a.7.7,0,0,1-.751-.751v-1.02a.21.21,0,0,0-.22-.22h-1.143a.21.21,0,0,0-.22.22v.629a.475.475,0,0,0,.163.367l2.22,2.22a.469.469,0,0,0,.367.139h3.763a.45.45,0,0,0,.343-.139l2.22-2.22a.464.464,0,0,0,.163-.367V30.706a.21.21,0,0,0-.22-.22ZM208.275,40.616h1.143a.21.21,0,0,0,.22-.22V33.228a.453.453,0,0,0-.163-.367l-2.2-2.22a.531.531,0,0,0-.367-.139h-2.726a.545.545,0,0,0-.367.139l-.98,1c-.2.2-.1.449.163.449h4.277a.728.728,0,0,1,.775.775V40.4a.2.2,0,0,0,.22.22Zm-7.371,0h1.143a.2.2,0,0,0,.2-.22V30.722a.206.206,0,0,0-.2-.22H200.9a.21.21,0,0,0-.22.22V40.4A.2.2,0,0,0,200.9,40.616Zm-7.9,0h2.155a.21.21,0,0,0,.22-.22V39.252a.219.219,0,0,0-.22-.22H193a.21.21,0,0,0-.22.22V40.4A.2.2,0,0,0,193,40.616Zm4.645,0h.775a.21.21,0,0,0,.22-.22V39.252a.219.219,0,0,0-.22-.22h-1.159a.7.7,0,0,1-.751-.751V33.228a.475.475,0,0,0-.163-.367l-2.22-2.22a.468.468,0,0,0-.367-.139h-.751a.21.21,0,0,0-.22.22v1.143a.21.21,0,0,0,.22.22h1.143a.728.728,0,0,1,.775.775v5.028a.475.475,0,0,0,.163.367l2.22,2.22a.416.416,0,0,0,.343.139ZM195,26.976a.236.236,0,0,0-.245.245v1.363a.236.236,0,0,0,.245.245h1.347a.217.217,0,0,0,.22-.245V27.221a.221.221,0,0,0-.22-.245Zm-8.367,5.11h3.689a.21.21,0,0,0,.22-.22V30.722a.21.21,0,0,0-.22-.22h-2.506a.45.45,0,0,0-.343.139l-1,1c-.2.2-.1.449.163.449Zm4.114,5.583-.775-.751a.218.218,0,0,0-.326,0l-2.114,2.114h-.873a.7.7,0,0,1-.751-.751V28.1a.219.219,0,0,0-.22-.22h-1.143a.219.219,0,0,0-.22.22v2.4h-1.347a.219.219,0,0,0-.22.22v1.143a.219.219,0,0,0,.22.22h1.347v5.8a.475.475,0,0,0,.163.367l2.22,2.22a.468.468,0,0,0,.367.139h.857a.474.474,0,0,0,.384-.163l2.441-2.465a.218.218,0,0,0,0-.326Zm-11.362,2.955h1.143a.2.2,0,0,0,.2-.22V30.731a.206.206,0,0,0-.2-.22h-1.143a.21.21,0,0,0-.22.22V40.4A.2.2,0,0,0,179.387,40.624Zm-4.685,0h2.506a.407.407,0,0,0,.367-.139l1-1c.2-.2.1-.449-.163-.449h-4.089a.714.714,0,0,1-.775-.751v-7.55a.206.206,0,0,0-.2-.22H172.2a.21.21,0,0,0-.22.22v7.167a.517.517,0,0,0,.139.367l2.22,2.22a.468.468,0,0,0,.367.139Zm-5.6-7.754-2.22-2.22a.492.492,0,0,0-.367-.139H163.5a.545.545,0,0,0-.367.139l-1,1a.249.249,0,0,0,.18.449h4.563a.716.716,0,0,1,.775.775v5.42a.7.7,0,0,1-.775.751h-4.538c-.49,0-.775-.2-.775-.735V30.731a.206.206,0,0,0-.2-.22h-1.143a.21.21,0,0,0-.22.22V44.476a.2.2,0,0,0,.22.22h1.143a.2.2,0,0,0,.2-.22V39.383l1.1,1.1a.469.469,0,0,0,.367.139h3.485a.517.517,0,0,0,.367-.139l2.22-2.22a.469.469,0,0,0,.139-.367V33.237a.48.48,0,0,0-.139-.367Zm-13.215,7.754h1.118a.2.2,0,0,0,.22-.22V33.237a.517.517,0,0,0-.139-.367l-2.22-2.22a.45.45,0,0,0-.343-.139h-2.832a.45.45,0,0,0-.343.139l-1,1c-.2.2-.1.449.163.449h4.375a.728.728,0,0,1,.775.775V40.4A.2.2,0,0,0,155.887,40.624Zm-6.62,0h1.143a.21.21,0,0,0,.22-.22V33.237a.517.517,0,0,0-.139-.367l-2.22-2.22a.492.492,0,0,0-.367-.139H145.97a.545.545,0,0,0-.367.139l-1,1a.249.249,0,0,0,.18.449h3.485a.716.716,0,0,1,.775.775V40.4A.21.21,0,0,0,149.267,40.624Zm-6.6,0h1.143a.2.2,0,0,0,.2-.22V30.731a.206.206,0,0,0-.2-.22h-1.143a.21.21,0,0,0-.22.22V40.4A.2.2,0,0,0,142.672,40.624Zm-9.509-1.592a.7.7,0,0,1-.751-.751v-5.42a.714.714,0,0,1,.751-.775h4.563a.71.71,0,0,1,.751.775V37.22l-1.771,1.812h-3.543Zm.384,1.592h3.5a.445.445,0,0,0,.384-.163L139.9,38.02a.566.566,0,0,0,.163-.384v-4.4a.48.48,0,0,0-.139-.367l-2.22-2.22a.492.492,0,0,0-.367-.139h-3.787a.517.517,0,0,0-.367.139l-2.22,2.22a.492.492,0,0,0-.139.367V37.9a.517.517,0,0,0,.139.367l2.22,2.22a.492.492,0,0,0,.367.139Zm-13.95,0h5.379a.48.48,0,0,0,.367-.139l3.175-3.175a.217.217,0,0,0,0-.3l-.792-.792a.218.218,0,0,0-.326.016l-2.808,2.808h-5.355a.7.7,0,0,1-.775-.751V30.657l2.685-2.685h4.971a.714.714,0,0,1,.775.751v2.1a.21.21,0,0,0,.22.22h1.143a.21.21,0,0,0,.22-.22l-.016-1.714a.517.517,0,0,0-.139-.367l-2.22-2.22a.492.492,0,0,0-.367-.139h-4.971a.48.48,0,0,0-.367.139l-3.363,3.363a.485.485,0,0,0-.163.367v7.656a.517.517,0,0,0,.139.367l2.22,2.22a.492.492,0,0,0,.367.139Z" transform="translate(-21.967 -4.924)" fill="none" stroke="#120540" stroke-miterlimit="1.34" stroke-width="0.15"/>
    <g id="Group_18" data-name="Group 18" transform="translate(0 0.31)">
      <rect id="Rectangle_15" data-name="Rectangle 15" width="18.839" height="18.839" transform="translate(37.678)" fill="#59ff69"/>
      <path id="Path_156" data-name="Path 156" d="M23.08.38,41.919,19.219V.38Z" transform="translate(-4.241 -0.38)" fill="#59ff69"/>
      <rect id="Rectangle_16" data-name="Rectangle 16" width="18.839" height="18.839" transform="translate(18.839 37.54)" fill="#59ff69"/>
      <rect id="Rectangle_17" data-name="Rectangle 17" width="18.839" height="18.839" fill="#59ff69"/>
      <path id="Path_157" data-name="Path 157" d="M0,46.54,18.839,65.379V46.54Z" transform="translate(0 -9)" fill="#59ff69"/>
      <rect id="Rectangle_18" data-name="Rectangle 18" width="18.839" height="18.839" transform="translate(0 18.77)" fill="#59ff69"/>
      <rect id="Rectangle_19" data-name="Rectangle 19" width="18.839" height="18.839" transform="translate(37.678 37.54)" fill="#120540"/>
      <path id="Path_158" data-name="Path 158" d="M46.16.38V19.219H65Z" transform="translate(-8.482 -0.38)" fill="#120540"/>
      <path id="Path_159" data-name="Path 159" d="M0,.38V19.219H18.839Z" transform="translate(0 -0.38)" fill="#120540"/>
      <path id="Path_160" data-name="Path 160" d="M0,23.46H0L18.839,42.3V23.46Z" transform="translate(0 -4.69)" fill="#120540"/>
      <path id="Path_161" data-name="Path 161" d="M23.08,46.54,41.919,65.379V46.54Z" transform="translate(-4.241 -9)" fill="#120540"/>
    </g>
  </g>
</svg>
