<svg width="200" height="56" viewBox="0 0 200 56" fill="none" xmlns="http://www.w3.org/2000/svg">
<g clip-path="url(#clip0_17_988)">
<path d="M200.008 19.4H89.4966V40.688H200.008V19.4Z" fill="#59FF69"/>
<path d="M79.9648 35.016H81.2682C81.3642 35.016 81.4201 34.96 81.4201 34.864V26.544H84.9946C85.0905 26.544 85.1465 26.488 85.1465 26.392V25.32C85.1465 25.224 85.0905 25.168 84.9946 25.168H81.9639C80.5645 25.168 79.8049 25.928 79.8049 27.328V34.872C79.8049 34.968 79.8608 35.024 79.9568 35.024M70.0492 30.104C70.0492 27.832 71.2726 26.392 73.2318 26.392C75.1909 26.392 76.4383 27.832 76.4383 30.104C76.4383 32.376 75.1989 33.8 73.2318 33.8C71.2646 33.8 70.0492 32.384 70.0492 30.104ZM73.2318 35.12C76.1105 35.12 78.0696 33.096 78.0696 30.104C78.0696 27.112 76.1105 25.072 73.2318 25.072C70.353 25.072 68.4099 27.112 68.4099 30.104C68.4099 33.096 70.353 35.12 73.2318 35.12ZM63.636 35.024H64.9394C65.0354 35.024 65.0913 34.968 65.0913 34.872V26.472H67.6742C67.7702 26.472 67.8261 26.392 67.8261 26.32V25.328C67.8261 25.232 67.7702 25.176 67.6742 25.176H65.0913V22.32H67.6742C67.7702 22.32 67.8261 22.264 67.8261 22.184V21.192C67.8261 21.096 67.7702 21.04 67.6742 21.04H65.6351C64.2357 21.04 63.476 21.8 63.476 23.2V25.184H61.6289C61.5489 25.184 61.4929 25.24 61.4929 25.336V26.328C61.4929 26.408 61.5489 26.48 61.6289 26.48H63.476V34.88C63.476 34.976 63.532 35.032 63.628 35.032" fill="#120540"/>
<path d="M191.276 8.416C191.428 6.472 192.555 5.368 194.426 5.368C196.098 5.368 197.145 6.496 197.241 8.416H191.276ZM194.426 14.088C196.777 14.088 198.353 12.88 198.737 11.152C198.753 11.072 198.697 11.016 198.585 11.016H197.345C197.249 11.016 197.193 11.056 197.169 11.152C196.841 12.144 195.866 12.768 194.426 12.768C192.523 12.768 191.396 11.584 191.276 9.616H198.641C198.737 9.616 198.792 9.56 198.792 9.464V9.072C198.792 5.944 197.145 4.04 194.418 4.04C191.508 4.04 189.621 6 189.621 9.072C189.621 12.144 191.484 14.088 194.418 14.088M183.519 13.992H184.823C184.919 13.992 184.975 13.936 184.975 13.84V5.52H188.549C188.645 5.52 188.701 5.464 188.701 5.368V4.296C188.701 4.2 188.645 4.144 188.549 4.144H185.518C184.119 4.144 183.359 4.904 183.359 6.304V13.848C183.359 13.944 183.415 14 183.511 14M179.337 14H181.376C181.472 14 181.528 13.944 181.528 13.848V12.856C181.528 12.776 181.472 12.72 181.376 12.72H178.793V5.44H181.376C181.472 5.44 181.528 5.36 181.528 5.288V4.296C181.528 4.2 181.472 4.144 181.376 4.144H178.793V1.376C178.793 1.28 178.737 1.224 178.641 1.224H177.338C177.242 1.224 177.186 1.28 177.186 1.376V4.136H175.339C175.259 4.136 175.203 4.192 175.203 4.288V5.28C175.203 5.36 175.259 5.432 175.339 5.432H177.186V11.824C177.186 13.224 177.946 13.984 179.345 13.984M165.767 13.984H167.086C167.166 13.984 167.222 13.928 167.222 13.832V8.368C167.222 6.424 168.134 5.416 169.845 5.416C171.556 5.416 172.348 6.368 172.348 8.368V13.832C172.348 13.928 172.404 13.984 172.5 13.984H173.803C173.899 13.984 173.955 13.928 173.955 13.832V8.368C173.955 5.528 172.716 4.032 170.437 4.032C168.998 4.032 167.894 4.672 167.214 5.84H167.158V4.288C167.158 4.192 167.102 4.136 167.006 4.136H165.767C165.687 4.136 165.631 4.192 165.631 4.288V13.832C165.631 13.928 165.687 13.984 165.767 13.984ZM156.283 8.408C156.435 6.464 157.563 5.36 159.434 5.36C161.105 5.36 162.153 6.488 162.249 8.408H156.283ZM159.434 14.08C161.785 14.08 163.36 12.872 163.744 11.144C163.76 11.064 163.704 11.008 163.592 11.008H162.353C162.257 11.008 162.201 11.048 162.177 11.144C161.849 12.136 160.873 12.76 159.434 12.76C157.531 12.76 156.403 11.576 156.283 9.608H163.648C163.744 9.608 163.8 9.552 163.8 9.456V9.064C163.8 5.936 162.145 4.032 159.426 4.032C156.515 4.032 154.628 5.992 154.628 9.064C154.628 12.136 156.491 14.08 159.426 14.08M147.655 14.08C150.63 14.08 152.765 12.352 153.292 9.784C153.332 9.648 153.253 9.608 153.173 9.608H151.829C151.709 9.608 151.693 9.648 151.653 9.744C151.093 11.728 149.67 12.656 147.655 12.656C144.72 12.656 142.937 10.592 142.937 7.176C142.937 3.76 144.744 1.696 147.655 1.696C149.734 1.696 151.093 2.768 151.541 4.632C151.557 4.728 151.621 4.784 151.717 4.784H153.037C153.133 4.784 153.213 4.728 153.189 4.608C152.701 1.984 150.526 0.272 147.655 0.272C143.769 0.272 141.242 3.032 141.242 7.168C141.242 11.304 143.745 14.064 147.655 14.064M134.117 13.968H135.652C135.732 13.968 135.788 13.912 135.788 13.816V12.824C135.788 12.744 135.732 12.688 135.652 12.688H133.573V0.152C133.573 0.056 133.517 0 133.437 0H132.118C132.038 0 131.982 0.056 131.982 0.152V11.832C131.982 13.232 132.742 13.992 134.117 13.992M121.355 9.072C121.355 6.8 122.562 5.36 124.465 5.36C126.368 5.36 127.592 6.816 127.592 9.072C127.592 11.328 126.384 12.768 124.465 12.768C122.546 12.768 121.355 11.352 121.355 9.072ZM124.057 14.088C125.537 14.088 126.856 13.368 127.536 12.16H127.592V12.8C127.592 13.576 128.056 13.984 128.967 13.984H130.327C130.423 13.984 130.479 13.928 130.479 13.832V12.84C130.479 12.76 130.423 12.704 130.327 12.704H129.143V4.296C129.143 4.2 129.087 4.144 128.991 4.144H127.688C127.592 4.144 127.536 4.2 127.536 4.296V6.008H127.48C126.76 4.768 125.497 4.048 124.057 4.048C121.419 4.048 119.723 6.032 119.723 9.08C119.723 12.128 121.411 14.096 124.057 14.096M109.992 14H111.311C111.391 14 111.447 13.944 111.447 13.848V8.384C111.447 6.44 112.358 5.432 114.07 5.432C115.781 5.432 116.573 6.384 116.573 8.384V13.848C116.573 13.944 116.629 14 116.725 14H118.028C118.124 14 118.18 13.944 118.18 13.848V8.384C118.18 5.544 116.94 4.048 114.661 4.048C113.222 4.048 112.119 4.688 111.439 5.856H111.383V4.304C111.383 4.208 111.327 4.152 111.231 4.152H109.992C109.912 4.152 109.856 4.208 109.856 4.304V13.848C109.856 13.944 109.912 14 109.992 14ZM100.124 9.08C100.124 6.808 101.347 5.368 103.306 5.368C105.266 5.368 106.513 6.808 106.513 9.08C106.513 11.352 105.274 12.776 103.306 12.776C101.339 12.776 100.124 11.36 100.124 9.08ZM103.306 14.096C106.185 14.096 108.144 12.072 108.144 9.08C108.144 6.088 106.185 4.048 103.306 4.048C100.428 4.048 98.4926 6.088 98.4926 9.08C98.4926 12.072 100.436 14.096 103.306 14.096ZM94.9741 2.008C94.9741 2.088 95.0301 2.144 95.1261 2.144H96.8373C96.9173 2.144 96.9733 2.088 96.9733 2.008V0.288C96.9733 0.192 96.9173 0.136 96.8373 0.136H95.1261C95.0301 0.136 94.9741 0.192 94.9741 0.288V2V2.008ZM95.302 14H96.6214C96.7014 14 96.7574 13.944 96.7574 13.848V4.296C96.7574 4.2 96.7014 4.144 96.6214 4.144H95.302C95.222 4.144 95.1661 4.2 95.1661 4.296V13.84C95.1661 13.936 95.222 13.992 95.302 13.992M91.1678 13.992H93.2069C93.3029 13.992 93.3589 13.936 93.3589 13.84V12.848C93.3589 12.768 93.3029 12.712 93.2069 12.712H90.6241V5.44H93.2069C93.3029 5.44 93.3589 5.36 93.3589 5.288V4.296C93.3589 4.2 93.3029 4.144 93.2069 4.144H90.6241V1.376C90.6241 1.28 90.5681 1.224 90.4721 1.224H89.1687C89.0728 1.224 89.0168 1.28 89.0168 1.376V4.136H87.1696C87.0896 4.136 87.0336 4.192 87.0336 4.288V5.28C87.0336 5.36 87.0896 5.432 87.1696 5.432H89.0168V11.824C89.0168 13.224 89.7764 13.984 91.1758 13.984M77.4779 9.064C77.4779 6.792 78.6853 5.352 80.5885 5.352C82.4916 5.352 83.7151 6.808 83.7151 9.064C83.7151 11.32 82.5076 12.76 80.5885 12.76C78.6693 12.76 77.4779 11.344 77.4779 9.064ZM80.1807 14.08C81.66 14.08 82.9794 13.36 83.6591 12.152H83.7151V12.792C83.7151 13.568 84.1789 13.976 85.0905 13.976H86.4499C86.5459 13.976 86.6018 13.92 86.6018 13.824V12.832C86.6018 12.752 86.5459 12.696 86.4499 12.696H85.2664V4.296C85.2664 4.2 85.2105 4.144 85.1145 4.144H83.8111C83.7151 4.144 83.6591 4.2 83.6591 4.296V6.008H83.6032C82.8835 4.768 81.62 4.048 80.1807 4.048C77.5418 4.048 75.8466 6.032 75.8466 9.08C75.8466 12.128 77.5338 14.096 80.1807 14.096M63.612 14H64.9314C65.0113 14 65.0673 13.944 65.0673 13.848V2.912H65.1473L72.0243 13.872C72.0802 13.968 72.1442 13.992 72.2162 13.992H73.8874C73.9834 13.992 74.0394 13.936 74.0394 13.84V0.544C74.0394 0.448 73.9834 0.392 73.8874 0.392H72.584C72.488 0.392 72.4321 0.448 72.4321 0.544V11.448H72.3521L65.4671 0.504C65.4272 0.408 65.3472 0.384 65.2912 0.384H63.604C63.524 0.384 63.468 0.44 63.468 0.536V13.832C63.468 13.928 63.524 13.984 63.604 13.984" fill="#120540"/>
<path d="M140.258 55.904H141.578C141.658 55.904 141.714 55.848 141.714 55.752V50.288C141.714 48.344 142.625 47.336 144.336 47.336C146.048 47.336 146.839 48.288 146.839 50.288V55.752C146.839 55.848 146.895 55.904 146.991 55.904H148.295C148.391 55.904 148.447 55.848 148.447 55.752V50.288C148.447 47.448 147.207 45.952 144.928 45.952C143.489 45.952 142.385 46.592 141.706 47.76H141.65V46.208C141.65 46.112 141.594 46.056 141.498 46.056H140.258C140.178 46.056 140.122 46.112 140.122 46.208V55.752C140.122 55.848 140.178 55.904 140.258 55.904ZM130.295 50.984C130.295 48.712 131.518 47.272 133.477 47.272C135.436 47.272 136.684 48.712 136.684 50.984C136.684 53.256 135.444 54.68 133.477 54.68C131.51 54.68 130.295 53.264 130.295 50.984ZM133.477 56C136.356 56 138.315 53.976 138.315 50.984C138.315 47.992 136.356 45.952 133.477 45.952C130.598 45.952 128.663 47.992 128.663 50.984C128.663 53.976 130.606 56 133.477 56ZM125.049 43.912C125.049 43.992 125.105 44.048 125.201 44.048H126.912C126.992 44.048 127.048 43.992 127.048 43.912V42.2C127.048 42.104 126.992 42.048 126.912 42.048H125.201C125.105 42.048 125.049 42.104 125.049 42.2V43.912ZM125.377 55.904H126.696C126.776 55.904 126.832 55.848 126.832 55.752V46.208C126.832 46.112 126.776 46.056 126.696 46.056H125.377C125.297 46.056 125.241 46.112 125.241 46.208V55.752C125.241 55.848 125.297 55.904 125.377 55.904ZM121.139 55.904H123.178C123.274 55.904 123.33 55.848 123.33 55.752V54.76C123.33 54.68 123.274 54.624 123.178 54.624H120.595V47.352H123.178C123.274 47.352 123.33 47.272 123.33 47.2V46.208C123.33 46.112 123.274 46.056 123.178 46.056H120.595V43.296C120.595 43.2 120.539 43.144 120.443 43.144H119.14C119.044 43.144 118.988 43.2 118.988 43.296V46.056H117.14C117.06 46.056 117.004 46.112 117.004 46.208V47.2C117.004 47.28 117.06 47.352 117.14 47.352H118.988V53.744C118.988 55.144 119.747 55.904 121.147 55.904M107.353 50.984C107.353 48.712 108.56 47.272 110.463 47.272C112.367 47.272 113.59 48.728 113.59 50.984C113.59 53.24 112.382 54.68 110.463 54.68C108.544 54.68 107.353 53.264 107.353 50.984ZM110.056 56C111.535 56 112.854 55.28 113.534 54.072H113.59V54.712C113.59 55.488 114.054 55.896 114.965 55.896H116.325C116.421 55.896 116.477 55.84 116.477 55.744V54.752C116.477 54.672 116.421 54.616 116.325 54.616H115.141V46.2C115.141 46.104 115.085 46.048 114.989 46.048H113.686C113.59 46.048 113.534 46.104 113.534 46.2V47.912H113.478C112.758 46.672 111.495 45.952 110.056 45.952C107.417 45.952 105.721 47.936 105.721 50.984C105.721 54.032 107.409 56 110.056 56ZM100.188 56C102.499 56 104.114 54.72 104.482 52.816C104.498 52.72 104.426 52.68 104.33 52.68H103.091C102.995 52.68 102.939 52.72 102.915 52.816C102.547 54.08 101.635 54.68 100.196 54.68C98.2127 54.68 97.0133 53.304 97.0133 50.984C97.0133 48.664 98.2207 47.272 100.196 47.272C101.595 47.272 102.531 47.912 102.819 49.136C102.859 49.256 102.899 49.288 102.995 49.288H104.258C104.354 49.288 104.434 49.232 104.41 49.112C104.082 47.208 102.451 45.944 100.196 45.944C97.3011 45.944 95.374 47.968 95.374 50.976C95.374 53.984 97.2612 55.992 100.196 55.992M89.6085 55.992C92.3113 55.992 93.7427 54.552 93.7427 51.816V46.2C93.7427 46.104 93.6867 46.048 93.5908 46.048H92.2873C92.1914 46.048 92.1354 46.104 92.1354 46.2V52.032C92.1354 53.744 91.2398 54.672 89.6085 54.672C87.9772 54.672 87.0816 53.72 87.0816 52.032V46.2C87.0816 46.104 87.0257 46.048 86.9457 46.048H85.6263C85.5463 46.048 85.4903 46.104 85.4903 46.2V51.816C85.4903 54.56 86.9057 55.992 89.6085 55.992ZM75.4867 50.976C75.4867 48.704 76.7102 47.264 78.6133 47.264C80.5165 47.264 81.74 48.72 81.74 50.976C81.74 53.232 80.5325 54.672 78.6133 54.672C76.6942 54.672 75.4867 53.256 75.4867 50.976ZM78.1895 55.992C79.6689 55.992 80.9883 55.272 81.684 54.064H81.74V55.736C81.74 55.832 81.796 55.888 81.8919 55.888H83.1314C83.2113 55.888 83.2673 55.832 83.2673 55.736V42.056C83.2673 41.96 83.2113 41.904 83.1314 41.904H81.8119C81.732 41.904 81.676 41.96 81.676 42.056V47.904H81.596C80.9003 46.664 79.6129 45.944 78.1735 45.944C75.5507 45.944 73.8394 47.928 73.8394 50.976C73.8394 54.024 75.5507 55.992 78.1735 55.992M63.604 55.896H72.1922C72.2881 55.896 72.3441 55.84 72.3441 55.744V54.616C72.3441 54.536 72.2881 54.48 72.1922 54.48H65.1233V49.76H71.6084C71.7044 49.76 71.7604 49.704 71.7604 49.608V48.48C71.7604 48.4 71.7044 48.344 71.6084 48.344H65.1233V43.72H72.0003C72.0962 43.72 72.1522 43.664 72.1522 43.568V42.456C72.1522 42.36 72.0962 42.304 72.0003 42.304H63.604C63.524 42.304 63.468 42.36 63.468 42.456V55.752C63.468 55.848 63.524 55.904 63.604 55.904" fill="#120540"/>
<path d="M195.426 25.136H194.307C194.187 25.136 194.091 25.232 194.091 25.352V26.328L193.035 25.272C192.939 25.176 192.835 25.136 192.675 25.136H189.261C189.125 25.136 189.005 25.176 188.901 25.272L186.726 27.448C186.63 27.544 186.59 27.648 186.59 27.808V32.376C186.59 32.536 186.63 32.632 186.726 32.736L188.901 34.912C188.997 35.008 189.117 35.048 189.261 35.048H192.211C192.347 35.048 192.451 35.032 192.571 34.912L193.531 33.936C193.731 33.736 193.627 33.496 193.371 33.496H188.885C188.429 33.496 188.149 33.216 188.149 32.76V27.448C188.149 26.992 188.429 26.688 188.885 26.688H193.355C193.835 26.688 194.091 26.888 194.091 27.408V36.744C194.091 37.2 193.811 37.48 193.355 37.48H188.885C188.429 37.48 188.149 37.2 188.149 36.744V35.744C188.149 35.608 188.053 35.528 187.933 35.528H186.814C186.694 35.528 186.598 35.608 186.598 35.744V36.36C186.598 36.496 186.638 36.6 186.758 36.72L188.933 38.896C189.029 38.992 189.133 39.032 189.293 39.032H192.979C193.115 39.032 193.219 38.992 193.315 38.896L195.49 36.72C195.61 36.6 195.65 36.504 195.65 36.36V25.344C195.65 25.224 195.57 25.128 195.434 25.128M183.007 35.048H184.127C184.247 35.048 184.343 34.968 184.343 34.832V27.808C184.343 27.672 184.303 27.552 184.183 27.448L182.032 25.272C181.912 25.176 181.816 25.136 181.672 25.136H179.001C178.865 25.136 178.761 25.176 178.641 25.272L177.682 26.248C177.482 26.448 177.586 26.688 177.842 26.688H182.032C182.488 26.688 182.792 26.984 182.792 27.448V34.832C182.792 34.968 182.872 35.048 183.007 35.048ZM175.787 35.048H176.906C177.026 35.048 177.106 34.968 177.106 34.832V25.352C177.106 25.232 177.026 25.136 176.906 25.136H175.787C175.651 25.136 175.571 25.232 175.571 25.352V34.832C175.571 34.968 175.651 35.048 175.787 35.048ZM168.046 35.048H170.157C170.277 35.048 170.373 34.968 170.373 34.832V33.712C170.373 33.592 170.277 33.496 170.157 33.496H168.046C167.91 33.496 167.83 33.592 167.83 33.712V34.832C167.83 34.968 167.91 35.048 168.046 35.048ZM172.596 35.048H173.356C173.476 35.048 173.572 34.968 173.572 34.832V33.712C173.572 33.592 173.476 33.496 173.356 33.496H172.22C171.764 33.496 171.485 33.216 171.485 32.76V27.808C171.485 27.672 171.445 27.568 171.325 27.448L169.15 25.272C169.054 25.176 168.95 25.136 168.79 25.136H168.054C167.918 25.136 167.838 25.232 167.838 25.352V26.472C167.838 26.592 167.918 26.688 168.054 26.688H169.174C169.629 26.688 169.933 26.984 169.933 27.448V32.376C169.933 32.512 169.973 32.616 170.093 32.736L172.268 34.912C172.364 35.008 172.444 35.048 172.604 35.048M170.013 21.68C169.877 21.68 169.773 21.776 169.773 21.92V23.256C169.773 23.392 169.869 23.496 170.013 23.496H171.333C171.469 23.496 171.549 23.4 171.549 23.256V21.92C171.549 21.784 171.469 21.68 171.333 21.68H170.013ZM161.817 26.688H165.431C165.567 26.688 165.647 26.592 165.647 26.472V25.352C165.647 25.232 165.567 25.136 165.431 25.136H162.976C162.84 25.136 162.736 25.176 162.64 25.272L161.665 26.248C161.465 26.448 161.569 26.688 161.825 26.688M165.855 32.16L165.095 31.424C165.015 31.328 164.879 31.328 164.776 31.424L162.704 33.496H161.849C161.393 33.496 161.113 33.216 161.113 32.76V22.784C161.113 22.664 161.017 22.568 160.897 22.568H159.778C159.658 22.568 159.562 22.664 159.562 22.784V25.136H158.242C158.122 25.136 158.026 25.232 158.026 25.352V26.472C158.026 26.592 158.122 26.688 158.242 26.688H159.562V32.376C159.562 32.512 159.602 32.616 159.722 32.736L161.897 34.912C161.993 35.008 162.097 35.048 162.257 35.048H163.096C163.256 35.048 163.352 35.008 163.472 34.888L165.863 32.472C165.959 32.376 165.959 32.256 165.863 32.152M154.732 35.048H155.851C155.971 35.048 156.051 34.968 156.051 34.832V25.352C156.051 25.232 155.971 25.136 155.851 25.136H154.732C154.596 25.136 154.516 25.232 154.516 25.352V34.832C154.516 34.968 154.596 35.048 154.732 35.048ZM150.142 35.048H152.597C152.757 35.048 152.853 35.032 152.957 34.912L153.932 33.936C154.132 33.736 154.028 33.496 153.772 33.496H149.766C149.31 33.496 149.006 33.216 149.006 32.76V25.36C149.006 25.24 148.926 25.144 148.807 25.144H147.687C147.551 25.144 147.471 25.24 147.471 25.36V32.384C147.471 32.52 147.511 32.64 147.607 32.744L149.782 34.92C149.878 35.016 149.982 35.056 150.142 35.056M144.656 27.456L142.481 25.28C142.385 25.184 142.265 25.144 142.121 25.144H139.171C139.035 25.144 138.931 25.184 138.811 25.28L137.835 26.256C137.635 26.456 137.755 26.696 138.011 26.696H142.481C142.961 26.696 143.241 26.992 143.241 27.456V32.768C143.241 33.224 142.961 33.504 142.481 33.504H138.035C137.555 33.504 137.276 33.304 137.276 32.784V25.36C137.276 25.24 137.196 25.144 137.076 25.144H135.956C135.82 25.144 135.74 25.24 135.74 25.36V38.832C135.74 38.968 135.82 39.048 135.956 39.048H137.076C137.196 39.048 137.276 38.968 137.276 38.832V33.84L138.355 34.92C138.451 35.016 138.555 35.056 138.715 35.056H142.129C142.265 35.056 142.385 35.016 142.489 34.92L144.664 32.744C144.76 32.648 144.8 32.544 144.8 32.384V27.816C144.8 27.656 144.76 27.56 144.664 27.456M131.718 35.056H132.814C132.95 35.056 133.029 34.976 133.029 34.84V27.816C133.029 27.68 132.989 27.56 132.894 27.456L130.718 25.28C130.623 25.184 130.519 25.144 130.383 25.144H127.608C127.472 25.144 127.368 25.184 127.272 25.28L126.296 26.256C126.097 26.456 126.2 26.696 126.456 26.696H130.742C131.198 26.696 131.502 26.992 131.502 27.456V34.84C131.502 34.976 131.582 35.056 131.718 35.056ZM125.233 35.056H126.352C126.472 35.056 126.568 34.976 126.568 34.84V27.816C126.568 27.68 126.528 27.56 126.432 27.456L124.257 25.28C124.161 25.184 124.041 25.144 123.897 25.144H122.002C121.866 25.144 121.762 25.184 121.642 25.28L120.667 26.256C120.467 26.456 120.587 26.696 120.843 26.696H124.257C124.737 26.696 125.017 26.992 125.017 27.456V34.84C125.017 34.976 125.113 35.056 125.233 35.056ZM118.772 35.056H119.891C120.011 35.056 120.091 34.976 120.091 34.84V25.36C120.091 25.24 120.011 25.144 119.891 25.144H118.772C118.636 25.144 118.556 25.24 118.556 25.36V34.84C118.556 34.976 118.636 35.056 118.772 35.056ZM109.456 33.496C109 33.496 108.72 33.216 108.72 32.76V27.448C108.72 26.992 109 26.688 109.456 26.688H113.926C114.382 26.688 114.662 26.984 114.662 27.448V31.72L112.926 33.496H109.456ZM109.832 35.056H113.262C113.422 35.056 113.542 35.016 113.638 34.896L116.053 32.504C116.149 32.384 116.213 32.288 116.213 32.128V27.816C116.213 27.656 116.173 27.56 116.077 27.456L113.902 25.28C113.806 25.184 113.686 25.144 113.542 25.144H109.832C109.696 25.144 109.576 25.184 109.472 25.28L107.297 27.456C107.201 27.552 107.161 27.672 107.161 27.816V32.384C107.161 32.52 107.201 32.64 107.297 32.744L109.472 34.92C109.568 35.016 109.688 35.056 109.832 35.056ZM96.1657 35.056H101.435C101.595 35.056 101.691 35.016 101.795 34.92L104.906 31.808C104.986 31.728 104.986 31.608 104.906 31.512L104.13 30.736C104.01 30.64 103.914 30.656 103.81 30.752L101.06 33.504H95.8139C95.3341 33.504 95.0542 33.224 95.0542 32.768V25.288L97.685 22.656H102.555C103.011 22.656 103.315 22.936 103.315 23.392V25.448C103.315 25.584 103.411 25.664 103.53 25.664H104.65C104.77 25.664 104.866 25.584 104.866 25.448L104.85 23.768C104.85 23.632 104.81 23.512 104.714 23.408L102.539 21.232C102.443 21.136 102.323 21.096 102.179 21.096H97.3092C97.1493 21.096 97.0533 21.136 96.9494 21.232L93.6548 24.528C93.5588 24.624 93.4949 24.728 93.4949 24.888V32.392C93.4949 32.528 93.5349 32.648 93.6308 32.752L95.8059 34.928C95.9018 35.024 96.0218 35.064 96.1657 35.064" fill="#120540"/>
<path d="M195.426 25.136H194.306C194.187 25.136 194.091 25.232 194.091 25.352V26.328L193.035 25.272C192.939 25.176 192.835 25.136 192.675 25.136H189.261C189.125 25.136 189.005 25.176 188.901 25.272L186.726 27.448C186.63 27.544 186.59 27.648 186.59 27.808V32.376C186.59 32.536 186.63 32.632 186.726 32.736L188.901 34.912C188.997 35.008 189.117 35.048 189.261 35.048H192.211C192.347 35.048 192.451 35.032 192.571 34.912L193.531 33.936C193.731 33.736 193.627 33.496 193.371 33.496H188.885C188.429 33.496 188.149 33.216 188.149 32.76V27.448C188.149 26.992 188.429 26.688 188.885 26.688H193.355C193.835 26.688 194.091 26.888 194.091 27.408V36.744C194.091 37.2 193.811 37.48 193.355 37.48H188.885C188.429 37.48 188.149 37.2 188.149 36.744V35.744C188.149 35.608 188.053 35.528 187.933 35.528H186.814C186.694 35.528 186.598 35.608 186.598 35.744V36.36C186.598 36.496 186.638 36.6 186.758 36.72L188.933 38.896C189.029 38.992 189.133 39.032 189.293 39.032H192.979C193.115 39.032 193.219 38.992 193.315 38.896L195.49 36.72C195.61 36.6 195.65 36.504 195.65 36.36V25.344C195.65 25.224 195.57 25.128 195.434 25.128L195.426 25.136ZM182.999 35.056H184.119C184.239 35.056 184.335 34.976 184.335 34.84V27.816C184.335 27.68 184.295 27.56 184.175 27.456L182.024 25.28C181.904 25.184 181.808 25.144 181.664 25.144H178.993C178.857 25.144 178.753 25.184 178.633 25.28L177.674 26.256C177.474 26.456 177.578 26.696 177.834 26.696H182.024C182.48 26.696 182.784 26.992 182.784 27.456V34.84C182.784 34.976 182.863 35.056 182.999 35.056ZM175.779 35.056H176.898C177.018 35.056 177.098 34.976 177.098 34.84V25.36C177.098 25.24 177.018 25.144 176.898 25.144H175.779C175.643 25.144 175.563 25.24 175.563 25.36V34.84C175.563 34.976 175.643 35.056 175.779 35.056ZM168.038 35.056H170.149C170.269 35.056 170.365 34.976 170.365 34.84V33.72C170.365 33.6 170.269 33.504 170.149 33.504H168.038C167.902 33.504 167.822 33.6 167.822 33.72V34.84C167.822 34.976 167.902 35.056 168.038 35.056ZM172.588 35.056H173.348C173.468 35.056 173.564 34.976 173.564 34.84V33.72C173.564 33.6 173.468 33.504 173.348 33.504H172.212C171.756 33.504 171.477 33.224 171.477 32.768V27.816C171.477 27.68 171.437 27.576 171.317 27.456L169.142 25.28C169.046 25.184 168.942 25.144 168.782 25.144H168.046C167.91 25.144 167.83 25.24 167.83 25.36V26.48C167.83 26.6 167.91 26.696 168.046 26.696H169.166C169.621 26.696 169.925 26.992 169.925 27.456V32.384C169.925 32.52 169.965 32.624 170.085 32.744L172.26 34.92C172.356 35.016 172.436 35.056 172.596 35.056H172.588ZM169.997 21.688C169.861 21.688 169.757 21.784 169.757 21.928V23.264C169.757 23.4 169.853 23.504 169.997 23.504H171.317C171.453 23.504 171.532 23.408 171.532 23.264V21.928C171.532 21.792 171.453 21.688 171.317 21.688H169.997ZM161.801 26.696H165.415C165.551 26.696 165.631 26.6 165.631 26.48V25.36C165.631 25.24 165.551 25.144 165.415 25.144H162.96C162.824 25.144 162.72 25.184 162.624 25.28L161.649 26.256C161.449 26.456 161.553 26.696 161.809 26.696H161.801ZM165.831 32.168L165.071 31.432C164.991 31.336 164.855 31.336 164.751 31.432L162.68 33.504H161.825C161.369 33.504 161.089 33.224 161.089 32.768V22.792C161.089 22.672 160.993 22.576 160.873 22.576H159.754C159.634 22.576 159.538 22.672 159.538 22.792V25.144H158.218C158.098 25.144 158.002 25.24 158.002 25.36V26.48C158.002 26.6 158.098 26.696 158.218 26.696H159.538V32.384C159.538 32.52 159.578 32.624 159.698 32.744L161.873 34.92C161.969 35.016 162.073 35.056 162.233 35.056H163.072C163.232 35.056 163.328 35.016 163.448 34.896L165.839 32.48C165.935 32.384 165.935 32.264 165.839 32.16L165.831 32.168ZM154.7 35.064H155.819C155.939 35.064 156.019 34.984 156.019 34.848V25.368C156.019 25.248 155.939 25.152 155.819 25.152H154.7C154.564 25.152 154.484 25.248 154.484 25.368V34.848C154.484 34.984 154.564 35.064 154.7 35.064ZM150.11 35.064H152.565C152.725 35.064 152.821 35.048 152.925 34.928L153.9 33.952C154.1 33.752 153.996 33.512 153.74 33.512H149.734C149.278 33.512 148.974 33.232 148.974 32.776V25.376C148.974 25.256 148.894 25.16 148.774 25.16H147.655C147.519 25.16 147.439 25.256 147.439 25.376V32.4C147.439 32.536 147.479 32.656 147.575 32.76L149.75 34.936C149.846 35.032 149.95 35.072 150.11 35.072V35.064ZM144.624 27.464L142.449 25.288C142.353 25.192 142.233 25.152 142.089 25.152H139.139C139.003 25.152 138.899 25.192 138.779 25.288L137.803 26.264C137.603 26.464 137.723 26.704 137.979 26.704H142.449C142.929 26.704 143.209 27 143.209 27.464V32.776C143.209 33.232 142.929 33.512 142.449 33.512H138.003C137.523 33.512 137.244 33.312 137.244 32.792V25.368C137.244 25.248 137.164 25.152 137.044 25.152H135.924C135.788 25.152 135.708 25.248 135.708 25.368V38.84C135.708 38.976 135.788 39.056 135.924 39.056H137.044C137.164 39.056 137.244 38.976 137.244 38.84V33.848L138.323 34.928C138.419 35.024 138.523 35.064 138.683 35.064H142.097C142.233 35.064 142.353 35.024 142.457 34.928L144.632 32.752C144.728 32.656 144.768 32.552 144.768 32.392V27.824C144.768 27.664 144.728 27.568 144.632 27.464H144.624ZM131.678 35.064H132.774C132.909 35.064 132.989 34.984 132.989 34.848V27.824C132.989 27.688 132.949 27.568 132.853 27.464L130.678 25.288C130.582 25.192 130.479 25.152 130.343 25.152H127.568C127.432 25.152 127.328 25.192 127.232 25.288L126.256 26.264C126.056 26.464 126.16 26.704 126.416 26.704H130.702C131.158 26.704 131.462 27 131.462 27.464V34.848C131.462 34.984 131.542 35.064 131.678 35.064ZM125.193 35.064H126.312C126.432 35.064 126.528 34.984 126.528 34.848V27.824C126.528 27.688 126.488 27.568 126.392 27.464L124.217 25.288C124.121 25.192 124.001 25.152 123.857 25.152H121.962C121.826 25.152 121.722 25.192 121.602 25.288L120.627 26.264C120.427 26.464 120.547 26.704 120.803 26.704H124.217C124.697 26.704 124.977 27 124.977 27.464V34.848C124.977 34.984 125.073 35.064 125.193 35.064ZM118.732 35.064H119.851C119.971 35.064 120.051 34.984 120.051 34.848V25.368C120.051 25.248 119.971 25.152 119.851 25.152H118.732C118.596 25.152 118.516 25.248 118.516 25.368V34.848C118.516 34.984 118.596 35.064 118.732 35.064ZM109.416 33.504C108.96 33.504 108.68 33.224 108.68 32.768V27.456C108.68 27 108.96 26.696 109.416 26.696H113.886C114.342 26.696 114.622 26.992 114.622 27.456V31.728L112.886 33.504H109.416ZM109.792 35.064H113.222C113.382 35.064 113.502 35.024 113.598 34.904L116.013 32.512C116.109 32.392 116.173 32.296 116.173 32.136V27.824C116.173 27.664 116.133 27.568 116.037 27.464L113.862 25.288C113.766 25.192 113.646 25.152 113.502 25.152H109.792C109.656 25.152 109.536 25.192 109.432 25.288L107.257 27.464C107.161 27.56 107.121 27.68 107.121 27.824V32.392C107.121 32.528 107.161 32.648 107.257 32.752L109.432 34.928C109.528 35.024 109.648 35.064 109.792 35.064ZM96.1257 35.064H101.395C101.555 35.064 101.651 35.024 101.755 34.928L104.866 31.816C104.946 31.736 104.946 31.616 104.866 31.52L104.09 30.744C103.97 30.648 103.874 30.664 103.77 30.76L101.02 33.512H95.7738C95.294 33.512 95.0141 33.232 95.0141 32.776V25.296L97.645 22.664H102.515C102.971 22.664 103.275 22.944 103.275 23.4V25.456C103.275 25.592 103.37 25.672 103.49 25.672H104.61C104.73 25.672 104.826 25.592 104.826 25.456L104.81 23.776C104.81 23.64 104.77 23.52 104.674 23.416L102.499 21.24C102.403 21.144 102.283 21.104 102.139 21.104H97.2692C97.1092 21.104 97.0133 21.144 96.9093 21.24L93.6148 24.536C93.5188 24.632 93.4548 24.736 93.4548 24.896V32.4C93.4548 32.536 93.4948 32.656 93.5908 32.76L95.7658 34.936C95.8618 35.032 95.9817 35.072 96.1257 35.072V35.064Z" stroke="#120540" stroke-width="0.15" stroke-miterlimit="1.34"/>
<path d="M55.3677 0.304016H36.9119V18.768H55.3677V0.304016Z" fill="#59FF69"/>
<path d="M18.4558 0.304016L36.9117 18.768V0.304016H18.4558Z" fill="#59FF69"/>
<path d="M36.9117 37.232H18.4558V55.696H36.9117V37.232Z" fill="#59FF69"/>
<path d="M18.4559 0.304016H0V18.768H18.4559V0.304016Z" fill="#59FF69"/>
<path d="M0 37.232L18.4559 55.696V37.232H0Z" fill="#59FF69"/>
<path d="M18.4559 18.768H0V37.232H18.4559V18.768Z" fill="#59FF69"/>
<path d="M55.3677 37.232H36.9119V55.696H55.3677V37.232Z" fill="#120540"/>
<path d="M36.9119 0.304016V18.768H55.3677L36.9119 0.304016Z" fill="#120540"/>
<path d="M0 0.304016V18.768H18.4559L0 0.304016Z" fill="#120540"/>
<path d="M0 18.768L18.4559 37.232V18.768H0Z" fill="#120540"/>
<path d="M18.4558 37.232L36.9117 55.696V37.232H18.4558Z" fill="#120540"/>
</g>
<defs>
<clipPath id="clip0_17_988">
<rect width="200" height="56" fill="white"/>
</clipPath>
</defs>
</svg>
