<svg width="64" height="64" viewBox="0 0 64 64" fill="none" xmlns="http://www.w3.org/2000/svg">
<rect width="64" height="64" rx="32" fill="#333333"/>
<path d="M26.04 45.0098C38.1235 45.0098 44.7305 34.997 44.7305 26.3193C44.7305 26.0332 44.7305 25.7472 44.7169 25.4747C45.9974 24.5483 47.1145 23.3904 48 22.069C46.8284 22.5867 45.5615 22.9409 44.2265 23.1043C45.5888 22.287 46.6241 21.0064 47.1145 19.467C45.8476 20.2163 44.4444 20.7612 42.9459 21.0609C41.7471 19.7804 40.0443 18.9902 38.1507 18.9902C34.527 18.9902 31.5845 21.9328 31.5845 25.5564C31.5845 26.0741 31.639 26.5781 31.7616 27.0549C26.2989 26.7825 21.4627 24.1669 18.2205 20.189C17.662 21.1563 17.335 22.287 17.335 23.4858C17.335 25.7608 18.493 27.777 20.2639 28.9485C19.1877 28.9213 18.1797 28.6216 17.2942 28.1311C17.2942 28.1584 17.2942 28.1856 17.2942 28.2129C17.2942 31.4006 19.5556 34.0434 22.5662 34.6565C22.0213 34.8063 21.4355 34.8881 20.8361 34.8881C20.4138 34.8881 20.0051 34.8472 19.5964 34.7655C20.4274 37.381 22.8523 39.2746 25.7267 39.3291C23.4789 41.0864 20.6454 42.1354 17.5666 42.1354C17.0353 42.1354 16.5177 42.1082 16 42.04C18.8744 43.92 22.3346 45.0098 26.04 45.0098Z" fill="white"/>
</svg>
