<svg xmlns="http://www.w3.org/2000/svg" xmlns:xlink="http://www.w3.org/1999/xlink" width="133.352" height="57" viewBox="0 0 133.352 57">
  <defs>
    <clipPath id="clip-path">
      <rect id="Rectangle_576" data-name="Rectangle 576" width="133.352" height="57"/>
    </clipPath>
  </defs>
  <g id="Group_20" data-name="Group 20" transform="translate(62 -9)">
    <g id="Group_1134" data-name="Group 1134" transform="translate(-62 9)" clip-path="url(#clip-path)">
      <path id="Path_303" data-name="Path 303" d="M33.528,19.648c5.606-.039,16-9.989,23.868-18.973q-.4-.343-.819-.675C49.133,7.194,39.145,15.12,33.5,15.157,27.58,15.2,18.032,7.543,10.576.022c-.263.209-.522.423-.777.639,7.57,9.188,17.6,19.027,23.729,18.987" transform="translate(-5.018)"/>
      <path id="Path_304" data-name="Path 304" d="M19.657,33.624c-.04-5.607-10-16-18.982-23.86q-.344.4-.675.818c7.2,7.442,15.126,17.426,15.167,23.073.042,5.918-7.608,15.47-15.126,22.929q.316.393.641.777C9.866,49.787,19.7,39.752,19.658,33.624Z" transform="translate(0 -5)"/>
      <path id="Path_305" data-name="Path 305" d="M76.6,33.4c.022,5.607,9.947,16.029,18.909,23.918q.344-.4.677-.817c-7.174-7.462-15.072-17.47-15.095-23.118-.024-5.918,7.655-15.446,15.2-22.882q-.314-.393-.638-.779C86.441,17.27,76.575,27.274,76.6,33.4Z" transform="translate(-39.222 -4.979)"/>
      <path id="Path_306" data-name="Path 306" d="M33.724,76.558c-5.606.037-16,9.986-23.87,18.969q.4.343.819.674c7.445-7.193,17.434-15.117,23.082-15.153,5.918-.039,15.464,7.616,22.92,15.139q.394-.314.777-.64c-7.57-9.189-17.6-19.029-23.727-18.99" transform="translate(-5.046 -39.201)"/>
      <path id="Path_307" data-name="Path 307" d="M180.574,70.661a6.587,6.587,0,0,1-2.844.65,3.991,3.991,0,0,1-4.233-4.194,4.216,4.216,0,0,1,4.437-4.411,6.356,6.356,0,0,1,2.333.445V64.21A5.007,5.007,0,0,0,178,63.674a3.083,3.083,0,0,0-3.3,3.341,3.012,3.012,0,0,0,3.135,3.327,3.919,3.919,0,0,0,1.619-.306V67.182h1.123v3.479Zm-15.489-7.879h1.1l3.8,4.948q.6.761,1.135,1.567h.026c-.026-.459-.026-.867-.026-1.465v-5.05h1.123v8.4h-.981l-3.941-5.139q-.573-.744-1.11-1.517h-.026c.026.4.038.8.038,1.4v5.253h-1.134v-8.4Zm-2.791,0h1.134v8.4h-1.134Zm-8.806,0h1.1l3.8,4.948q.6.761,1.135,1.567h.026c-.026-.459-.026-.867-.026-1.465v-5.05h1.122v8.4h-.982l-3.939-5.139q-.575-.744-1.109-1.517h-.026c.026.4.038.8.038,1.4v5.253h-1.134v-8.4Zm-4.716,3.99a2.05,2.05,0,0,0,1.084-.267,1.535,1.535,0,0,0,.152-2.447,1.969,1.969,0,0,0-1.224-.345h-.765v3.06h.752Zm-1.888-3.99h1.9a3.554,3.554,0,0,1,1.861.408,2.1,2.1,0,0,1,1.071,1.913,2.164,2.164,0,0,1-1.682,2.206v.026a4.129,4.129,0,0,1,1.02,1.351l1.492,2.5h-1.325l-1.377-2.333q-.593-1.052-.956-1.147h-.867v3.479h-1.134v-8.4Zm-3.159,5.266-.777-2.193-.472-1.4h-.025c-.09.305-.23.7-.485,1.415l-.79,2.18h2.55Zm-1.682-5.291h.816l3.263,8.427h-1.211l-.829-2.206h-3.251l-.817,2.206h-1.173Zm-7.928.025h4.246l-.332.931h-2.78v2.7h2.742v.943h-2.742v2.895h3.162v.93h-4.3v-8.4Zm-5.072,0h1.134v7.472h3.074v.931h-4.208v-8.4Zm49.8-25.857h3.39l5.381,7.743c.715,1.058,1.244,1.836,1.711,2.645h.062q.788-1.415,1.68-2.769l4.914-7.62H199.4v20.5h-3.764V45.85c0-.84,0-1.9.062-2.706h-.061a25.3,25.3,0,0,1-1.4,2.3l-4.044,6.283h-1.711L184,45.29a19.086,19.086,0,0,1-1.4-2.114h-.062c.031.808.031,1.866.031,2.581V57.42h-3.731V36.925Zm-15.613,0h11.322l-1,3.047h-6.594v5.475h6.563V48.5h-6.563v5.877h7.621V57.42H163.226V36.925Zm-12.751,3.047H144.5V36.925h16.175l-.965,3.047h-5.5v17.45h-3.732V39.972ZM130.447,53.1a8.059,8.059,0,0,0,4.635,1.494c1.711,0,3.421-.653,3.421-2.426,0-4.011-8.864-3.514-8.864-9.766,0-3.017,2.395-5.661,6.656-5.661a11.609,11.609,0,0,1,5.007,1.027v3.422a10.637,10.637,0,0,0-4.883-1.307c-1.432,0-2.8.56-2.8,2.208,0,3.764,8.864,3.265,8.864,9.766,0,3.639-3.11,5.877-7.309,5.877a11.022,11.022,0,0,1-6.19-1.771l1.462-2.861Z" transform="translate(-66.046 -18.812)"/>
    </g>
  </g>
</svg>
