<?xml version="1.0" encoding="UTF-8" standalone="no"?>
<svg
   xmlns:dc="http://purl.org/dc/elements/1.1/"
   xmlns:cc="http://creativecommons.org/ns#"
   xmlns:rdf="http://www.w3.org/1999/02/22-rdf-syntax-ns#"
   xmlns:svg="http://www.w3.org/2000/svg"
   xmlns="http://www.w3.org/2000/svg"
   xmlns:sodipodi="http://sodipodi.sourceforge.net/DTD/sodipodi-0.dtd"
   xmlns:inkscape="http://www.inkscape.org/namespaces/inkscape"
   width="90"
   height="90"
   viewBox="0 0 90 90"
   version="1.1"
   id="svg18"
   sodipodi:docname="favicon.svg"
   inkscape:export-filename="C:\dev\isaac-cs-app\public\assets\favicon\favicon-32x32-orange.png"
   inkscape:export-xdpi="34.133335"
   inkscape:export-ydpi="34.133335"
   inkscape:version="0.92.1 r15371">
  <metadata
     id="metadata24">
    <rdf:RDF>
      <cc:Work
         rdf:about="">
        <dc:format>image/svg+xml</dc:format>
        <dc:type
           rdf:resource="http://purl.org/dc/dcmitype/StillImage" />
        <dc:title>Isaac Computer Science</dc:title>
      </cc:Work>
    </rdf:RDF>
  </metadata>
  <defs
     id="defs22" />
  <sodipodi:namedview
     pagecolor="#ffffff"
     bordercolor="#666666"
     borderopacity="1"
     objecttolerance="10"
     gridtolerance="10"
     guidetolerance="10"
     inkscape:pageopacity="0"
     inkscape:pageshadow="2"
     inkscape:window-width="2560"
     inkscape:window-height="1377"
     id="namedview20"
     showgrid="false"
     fit-margin-top="0"
     fit-margin-left="0"
     fit-margin-right="0"
     fit-margin-bottom="0"
     inkscape:zoom="8.3686452"
     inkscape:cx="58.547209"
     inkscape:cy="59.830168"
     inkscape:window-x="-8"
     inkscape:window-y="-8"
     inkscape:window-maximized="1"
     inkscape:current-layer="svg18">
    <inkscape:grid
       type="xygrid"
       id="grid4540" />
  </sodipodi:namedview>
  <!-- Generator: Sketch 53.2 (72643) - https://sketchapp.com -->
  <rect
     style="opacity:1;fill:#ffb53f;fill-opacity:1;stroke:none;stroke-width:1.46682405;stroke-linecap:butt;stroke-linejoin:round;stroke-miterlimit:4;stroke-dasharray:none;stroke-dashoffset:0;stroke-opacity:1;paint-order:fill markers stroke"
     id="rect4548"
     width="69.208099"
     height="40.290638"
     x="10.395948"
     y="24.854681"
     inkscape:export-xdpi="192"
     inkscape:export-ydpi="192" />
  <title
     id="title2">Isaac Computer Science</title>
  <desc
     id="desc4">Created with Sketch.</desc>
  <path
     d="M 45.025275,89.79764 6.0249775,67.421311 5.9997025,22.624154 44.974726,0.2023605 83.974052,22.577722 84.000298,67.375845 Z M 74.514386,28.660783 c -1.748761,0 -3.164067,1.416559 -3.164067,3.160305 0,1.748762 1.415306,3.164067 3.164067,3.164067 1.745001,0 3.160307,-1.415305 3.160307,-3.164067 0,-1.743746 -1.415306,-3.160305 -3.160307,-3.160305 z m -11.596584,0 c -1.7466,0 -3.160932,1.41684 -3.160932,3.160933 0,1.749107 1.414332,3.164694 3.160932,3.164694 1.749108,0 3.163441,-1.415587 3.163441,-3.164694 0,-1.744093 -1.414333,-3.160933 -3.163441,-3.160933 z m 11.594057,12.649999 c -1.747507,0 -3.160306,1.41656 -3.160306,3.162814 0,1.746253 1.412798,3.161559 3.160306,3.161559 1.746254,0 3.161559,-1.415306 3.161559,-3.161559 0,-1.746254 -1.415305,-3.162814 -3.161559,-3.162814 z m -11.414166,0 H 51.148105 c -1.651609,0 -2.985918,1.41656 -2.985918,3.162814 0,1.746253 1.33431,3.161559 2.985918,3.161559 h 11.949589 c 1.646872,0 2.983549,-1.415306 2.983549,-3.161559 0,-1.746254 -1.336678,-3.162814 -2.98355,-3.162814 z m -23.367376,0 c -1.747507,0 -3.160306,1.41656 -3.160306,3.162814 0,1.746253 1.412799,3.161559 3.160306,3.161559 1.746253,0 3.161559,-1.415306 3.161559,-3.161559 0,-1.746254 -1.415306,-3.162814 -3.161559,-3.162814 z m -11.414167,0 H 16.366562 c -1.651608,0 -2.985917,1.41656 -2.985917,3.162814 0,1.746253 1.334309,3.161559 2.985917,3.161559 H 28.31615 c 1.646872,0 2.98355,-1.415306 2.98355,-3.161559 0,-1.746254 -1.336678,-3.162814 -2.98355,-3.162814 z m 46.201978,12.648746 c -1.748762,0 -3.166574,1.415306 -3.166574,3.161559 0,1.748761 1.417812,3.162813 3.166574,3.162813 1.742492,0 3.157798,-1.414052 3.157798,-3.162813 0,-1.746253 -1.415306,-3.161559 -3.157798,-3.161559 z m -23.189367,0 c -1.748762,0 -3.166574,1.415306 -3.166574,3.161559 0,1.748761 1.417813,3.162813 3.166574,3.162813 1.742493,0 3.157798,-1.414052 3.157798,-3.162813 0,-1.746253 -1.415306,-3.161559 -3.157798,-3.161559 z m 11.594683,0 c -1.748761,0 -3.166573,1.415306 -3.166573,3.161559 0,1.748761 1.417812,3.162813 3.166573,3.162813 1.742493,0 3.157799,-1.414052 3.157799,-3.162813 0,-1.746253 -1.415307,-3.161559 -3.157799,-3.161559 z"
     id="Combined-Shape"
     inkscape:connector-curvature="0"
     style="fill:#000000;fill-rule:nonzero;stroke:none;stroke-width:1.05406213;fill-opacity:1" />
</svg>
