<?xml version="1.0" encoding="UTF-8"?><svg id="Layer_1" xmlns="http://www.w3.org/2000/svg" width="90" height="90" viewBox="0 0 90 90"><defs><style>.cls-1{fill:#120540;}.cls-2{fill:#ffc000;}</style></defs><rect class="cls-1" width="90" height="90"/><g id="ARTWORK"><g><path class="cls-1" d="M0,.06V60.02l30,29.98h60v-29.98H30V.06H0ZM60,.06H30l30,29.98h30V.06h-30Z"/><path class="cls-1" d="M.21,0V59.72l29.88,29.86h59.77v-29.86H30.09V0H.21ZM59.98,0H30.09l29.88,29.86h29.88V0h-29.88Z"/><path class="cls-2" d="M20.82,80.32l1.26,1.26,8.02-8.01v-.28h13.56l-.66-.66h-12.9v-1.57l-9.28,9.27h0ZM.28,59.72l-.03,.03,.94,.94,.98-.98H.28Zm4.12,0l-2.09,2.09,.97,.97,3.07-3.06h-1.94Zm4.12,0l-4.15,4.15,1.01,1,5.15-5.15s-2.01,0-2.01,0Zm4.12,0l-6.21,6.2,1.04,1.04,7.24-7.24h-2.07Zm4.12,0l-8.26,8.26,1.07,1.07,9.33-9.32h-2.13Zm4.12,0l-10.32,10.31,1.1,1.1,11.42-11.41s-2.2,0-2.2,0Zm4.12,0l-12.38,12.37,1.13,1.13,13.51-13.5s-2.26,0-2.26,0Zm35.01,0H29.09l-14.43,14.42,1.16,1.16,14.29-14.28v-1.31l.61,.61h29.88l.5,.5h-1.12v-.41H30.81l1.14,1.14h-1.85v.83h2.67l.62,.62h29.88l.55,.55h-3.84v-.41h-26.45l1.18,1.18h-4.61v-1.51l-13.39,13.38,1.19,1.19,12.19-12.19v-.09h5.39l.58,.58h29.88l.59,.59h-6.56v-.41h-23.74l1.22,1.22h-7.38v-.16l-11.33,11.33,1.23,1.23,10.11-10.1v-1.55h8.12l.54,.54h29.88l.63,.62h-9.29v-.41h-21.01l1.26,1.27h-10.13v.7h10.84l.5,.5h29.88l.67,.67h-12v-.41h-18.29l2.42,2.42h29.88l.71,.71h-14.73v-.41h-15.57l1.35,1.34h-15.66v-.22l-7.22,7.21,1.29,1.29,5.93-5.93v-1.74h16.28l.42,.42h29.88l.75,.75h-17.45v-.41h-12.85l1.38,1.38H30.11v.57h19l.38,.38h29.88l.79,.79h-20.17v-.41h-10.12l1.43,1.43H30.11v-1.63l-5.16,5.16,1.32,1.32,3.84-3.84v-.48h21.72l.34,.34h29.88l.83,.83h-22.89v-.41h-7.4l1.47,1.47H30.1v-.28l-3.1,3.1,1.35,1.35,1.75-1.75v-1.94h24.44l.3,.3h29.88l.88,.88h-25.62v-.41h-4.68l1.51,1.51H30.11v.45h27.16l.26,.26h29.88l.92,.92h-28.34v-.41h-1.96l1.55,1.55H30.11v-1.69l-1.05,1.05,1.05,1.05h59.77v-29.86h-29.88ZM.21,49.97v.9H21.23l-.9-.9H.21ZM.21,39.09v1.06H10.51l-1.06-1.06H.21Zm0-2.72v1.1H7.83l-1.11-1.1H.21Zm0-2.72v1.14H5.15l-1.14-1.14H.21Zm0-2.72v1.18H2.46l-1.18-1.18H.21Zm28.93-2.01l.95,.95v-.95h-.95Zm59.59-.18l1.13,1.13v-2.26l-1.13,1.13h0Zm-2.05-2.05l1.42,1.42,1.77-1.77v-2.83l-3.19,3.19h0Zm-60.18-.41l.04,.04-3.56,3.55h-.08l3.6-3.59Zm-4.18-4.17l.1,.1-7.67,7.67h-.2s7.77-7.77,7.77-7.77ZM.21,27.95v1.91l11.95,11.95H.21v1.02H13.19l2.2,2.2-.5-.5H.21v.98H15.87l1.74,1.74H.21v.94H18.55l4.51,4.5H.21v.85H23.91l1.86,1.86H.21v.81H26.59l1.91,1.91H.21v.77H29.27l.82,.82V29.86l-1.5-1.5-1.5,1.5h-.01l1.51-1.51-.23-.23h1.74v-1.92h-3.67l-1.94-1.94-5.62,5.61h-.14l5.68-5.68,.07,.07,1.19,1.19h4.42v-1.97h-6.39l-.71-.71h7.1v-2.01h-9.12l-.61-.61-9.73,9.72h-.27l9.86-9.85,.08,.08h9.78v-2.05h-11.84l.05,.05L6.5,29.86h-.33l11.95-11.94-1.89-1.89L2.41,29.86h-.39l14.04-14.03,.2,.2,1.38,1.38h12.47v-2.09H15.53l-.59-.59-.75-.75L.21,27.95ZM.21,19.72v3.59L11.88,11.66l.26,.26L.21,23.84v3.65L13.97,13.74l.23,.23,.75,.75h15.15v-2.13H12.82l-.55-.55H30.1v-2.18H10.08S.21,19.72,.21,19.72ZM7.37,7.15l.34,.33,.32,.32L.21,15.62v3.53L9.79,9.57l-.2-.2H30.09v-2.22H7.37Zm71.08,11.3l1.29,1.29,10.12-10.12v-2.58s-11.41,11.4-11.41,11.4ZM4.65,4.43l.97,.97,.36,.36L.21,11.51v3.46L7.7,7.49l-.79-.79H30.09v-2.26H4.65ZM.21,7.39v3.4L5.61,5.4l-1.7-1.7L.21,7.39ZM1.92,1.71l1.6,1.6,.7,.7H30.09V1.71H1.92ZM.21,3.28v3.34L3.52,3.31,1.92,1.71l-.07-.07L.21,3.28ZM.21,2.44L1.43,1.22,.21,0V2.44ZM64,0l-2.01,2.01,1.04,1.04,3.05-3.05h-2.08Zm16.45,0l-10.24,10.23-.93-.93L78.61,0h-2.26l-8.19,8.18-.95-.95L74.43,0h-2.2l-6.13,6.12-.99-.99,5.14-5.14h-2.14l-4.07,4.07-1.02-1.02-2.09-2.09,.96-.96h-3.22l1.3,1.3v1.41l-2.71-2.71h-2.71l5.42,5.41v1.47L53.09,0h-2.65l9.53,9.52v1.53L48.92,0h-2.58l13.64,13.63v1.6L44.74,0h-2.52l17.76,17.74v1.66L40.56,0h-2.45l21.87,21.86v1.72L36.38,0h-2.39l25.99,25.97v1.79L32.21,0H.21L1.55,1.33H30.09V0l29.88,29.86h29.88l-1.13-1.13-2.05-2.06-.67-.67,3.86-3.86v-2.77l-5.24,5.24-.7-.7,5.95-5.94v-2.71l-7.3,7.29-.74-.74,8.03-8.03v-2.64l-9.36,9.35-2.85-2.85,12.21-12.2V2.94l-13.47,13.46,.7,.7-2.75-2.75-2.05-2.05-.89-.89L82.79,0h-2.33Zm4.12,0l-12.3,12.29,1.19,1.19L86.96,0h-2.39Zm4.12,0l-14.36,14.35,1.23,1.23L89.86,1.28V0h-1.17Z"/></g></g></svg>