<svg id="eKfOTjzYUsJ1" xmlns="http://www.w3.org/2000/svg" xmlns:xlink="http://www.w3.org/1999/xlink" viewBox="0 0 120 120" shape-rendering="geometricPrecision" text-rendering="geometricPrecision"><g transform="matrix(-1 0 0 1 120 0)"><polyline points="8,90 60,120 112,90 112,30 60,0 8,30" fill="#333"/></g><g transform="translate(0 0.000001)"><ellipse rx="13.84037" ry="13.84037" transform="translate(60.000001 43.974613)" fill="#fff" stroke-width="0"/><ellipse rx="38.988072" ry="38.988072" transform="matrix(.64735 0 0 0.64735 60.000001 68.213541)" fill="#fff" stroke-width="0"/><g transform="matrix(.748352 0.663302-.663302 0.748352 32.644361-47.477996)"><rect width="4.883623" height="56.147609" rx="0" ry="0" transform="matrix(1 0 0 0.1284 77.226299 33.303158)" fill="#fff" stroke-width="0"/><ellipse rx="2.7724" ry="2.7724" transform="matrix(.880758 0 0 0.999999 79.668111 33.303158)" fill="#fff" stroke-width="0"/></g><g transform="translate(0 0.000001)"><g transform="matrix(.602167 0.79837-.79837 0.602167 64.539412-33.623349)"><rect width="4.883623" height="56.147609" rx="0" ry="0" transform="matrix(1 0 0 0.1284 77.226299 33.303158)" fill="#fff" stroke-width="0"/><ellipse rx="2.7724" ry="2.7724" transform="matrix(.880758 0 0 0.999999 79.668111 33.303158)" fill="#fff" stroke-width="0"/></g><g transform="matrix(0 1-1 0 124.966818-11.454572)"><rect width="4.883623" height="56.147609" rx="0" ry="0" transform="matrix(1 0 0 0.1284 77.226299 33.303158)" fill="#fff" stroke-width="0"/><ellipse rx="2.7724" ry="2.7724" transform="matrix(.880758 0 0 0.999999 79.668111 33.303158)" fill="#fff" stroke-width="0"/></g><g transform="matrix(-.566264 0.824224-.824224-.566264 158.90816 38.959574)"><rect width="4.883623" height="56.147609" rx="0" ry="0" transform="matrix(1 0 0 0.1284 77.226299 33.303158)" fill="#fff" stroke-width="0"/><ellipse rx="2.7724" ry="2.7724" transform="matrix(.880758 0 0 0.999999 79.668111 33.303158)" fill="#fff" stroke-width="0"/></g></g><g transform="matrix(-1 0 0-1 65.687267 137.765243)"><g transform="matrix(.602167 0.79837-.79837 0.602167 9.898295-31.9539)"><rect width="4.883623" height="56.147609" rx="0" ry="0" transform="matrix(1 0 0 0.1284 77.226299 33.303158)" fill="#fff" stroke-width="0"/><ellipse rx="2.7724" ry="2.7724" transform="matrix(.880758 0 0 0.999999 79.668111 33.303158)" fill="#fff" stroke-width="0"/></g><g transform="matrix(0 1-1 0 70.325701-9.785121)"><rect width="4.883623" height="56.147609" rx="0" ry="0" transform="matrix(1 0 0 0.1284 77.226299 33.303158)" fill="#fff" stroke-width="0"/><ellipse rx="2.7724" ry="2.7724" transform="matrix(.880758 0 0 0.999999 79.668111 33.303158)" fill="#fff" stroke-width="0"/></g><g transform="matrix(-.566264 0.824224-.824224-.566264 104.267043 40.629025)"><rect width="4.883623" height="56.147609" rx="0" ry="0" transform="matrix(1 0 0 0.1284 77.226299 33.303158)" fill="#fff" stroke-width="0"/><ellipse rx="2.7724" ry="2.7724" transform="matrix(.880758 0 0 0.999999 79.668111 33.303158)" fill="#fff" stroke-width="0"/></g></g><g transform="matrix(.748377-.663273 0.663273 0.748377-31.885009 58.20689)"><rect width="4.883623" height="56.147609" rx="0" ry="0" transform="matrix(1 0 0 0.1284 77.226299 33.303158)" fill="#fff" stroke-width="0"/><ellipse rx="2.7724" ry="2.7724" transform="matrix(.880758 0 0 0.999999 79.668111 33.303158)" fill="#fff" stroke-width="0"/></g></g><rect width="4.883623" height="56.147609" rx="0" ry="0" transform="matrix(1 0 0 0.885019 57.558189 46.416433)" fill="#333" stroke-width="0"/><rect width="4.883623" height="56.147609" rx="0" ry="0" transform="matrix(0-1 0.665835 0 41.30748 48.858245)" fill="#333" stroke-width="0"/></svg>
