<svg xmlns="http://www.w3.org/2000/svg" xmlns:xlink="http://www.w3.org/1999/xlink" viewBox="0 0 3200 3300" shape-rendering="geometricPrecision" text-rendering="geometricPrecision">
    <path d="M25.1012,3.35882l.4578-1.8587h-1.9142-4.9076-1.1765l-.2803,1.14254L2.55762,62.6427l-.45578,1.8574h1.91256h4.85366h1.17544l.281-1.1413L25.1012,3.35882Z" transform="matrix(50 0 0 50 8.479-.0055)" fill="none" stroke="#000" stroke-width="3"/>
    <g transform="translate(900)">
        <path d="M25.1012,3.35882l.4578-1.8587h-1.9142-4.9076-1.1765l-.2803,1.14254L2.55762,62.6427l-.45578,1.8574h1.91256h4.85366h1.17544l.281-1.1413L25.1012,3.35882Z" transform="matrix(50 0 0 50 8.479-.0055)" fill="none" stroke="#000" stroke-width="3"/>
    </g>
    <g transform="translate(1800)">
        <path d="M25.1012,3.35882l.4578-1.8587h-1.9142-4.9076-1.1765l-.2803,1.14254L2.55762,62.6427l-.45578,1.8574h1.91256h4.85366h1.17544l.281-1.1413L25.1012,3.35882Z" transform="matrix(50 0 0 50 8.479-.0055)" fill="none" stroke="#000" stroke-width="3"/>
    </g>
</svg>
