<svg width="625" height="351" viewBox="0 0 625 351" fill="none" xmlns="http://www.w3.org/2000/svg">
<rect x="60.3633" y="236" width="458.301" height="72.626" transform="rotate(0.681179 60.3633 236)" fill="#F5F5F5"/>
<mask id="mask0_6261_8614" style="mask-type:alpha" maskUnits="userSpaceOnUse" x="370" y="15" width="195" height="195">
<ellipse cx="387.707" cy="17.9556" rx="2.00029" ry="1.99688" transform="rotate(-179.319 387.707 17.9556)" fill="#FFFFF2"/>
<ellipse cx="487.666" cy="19.1435" rx="2.00029" ry="1.99688" transform="rotate(-179.319 487.666 19.1435)" fill="#FFFFF2"/>
<ellipse cx="437.688" cy="18.5498" rx="2.00029" ry="1.99688" transform="rotate(-179.319 437.688 18.5498)" fill="#FFFFF2"/>
<ellipse cx="537.647" cy="19.7378" rx="2.00029" ry="1.99688" transform="rotate(-179.319 537.647 19.7378)" fill="#FFFFF2"/>
<ellipse cx="412.697" cy="18.2524" rx="2.00029" ry="1.99688" transform="rotate(-179.319 412.697 18.2524)" fill="#FFFFF2"/>
<ellipse cx="512.656" cy="19.4409" rx="2.00029" ry="1.99688" transform="rotate(-179.319 512.656 19.4409)" fill="#FFFFF2"/>
<ellipse cx="462.678" cy="18.8467" rx="2.00029" ry="1.99688" transform="rotate(-179.319 462.678 18.8467)" fill="#FFFFF2"/>
<ellipse cx="562.637" cy="20.0351" rx="2.00029" ry="1.99688" transform="rotate(-179.319 562.637 20.0351)" fill="#FFFFF2"/>
<ellipse cx="375.211" cy="17.8071" rx="2.00029" ry="1.99688" transform="rotate(-179.319 375.211 17.8071)" fill="#FFFFF2"/>
<ellipse cx="475.174" cy="18.9951" rx="2.00029" ry="1.99688" transform="rotate(-179.319 475.174 18.9951)" fill="#FFFFF2"/>
<ellipse cx="425.192" cy="18.4014" rx="2.00029" ry="1.99688" transform="rotate(-179.319 425.192 18.4014)" fill="#FFFFF2"/>
<ellipse cx="525.153" cy="19.5893" rx="2.00029" ry="1.99688" transform="rotate(-179.319 525.153 19.5893)" fill="#FFFFF2"/>
<ellipse cx="400.201" cy="18.104" rx="2.00029" ry="1.99688" transform="rotate(-179.319 400.201 18.104)" fill="#FFFFF2"/>
<ellipse cx="500.162" cy="19.2925" rx="2.00029" ry="1.99688" transform="rotate(-179.319 500.162 19.2925)" fill="#FFFFF2"/>
<ellipse cx="450.182" cy="18.6982" rx="2.00029" ry="1.99688" transform="rotate(-179.319 450.182 18.6982)" fill="#FFFFF2"/>
<ellipse cx="550.143" cy="19.8862" rx="2.00029" ry="1.99688" transform="rotate(-179.319 550.143 19.8862)" fill="#FFFFF2"/>
<ellipse cx="386.522" cy="117.743" rx="2.00029" ry="1.99688" transform="rotate(-179.319 386.522 117.743)" fill="#FFFFF2"/>
<ellipse cx="486.483" cy="118.932" rx="2.00029" ry="1.99688" transform="rotate(-179.319 486.483 118.932)" fill="#FFFFF2"/>
<ellipse cx="436.502" cy="118.338" rx="2.00029" ry="1.99688" transform="rotate(-179.319 436.502 118.338)" fill="#FFFFF2"/>
<ellipse cx="536.463" cy="119.526" rx="2.00029" ry="1.99688" transform="rotate(-179.319 536.463 119.526)" fill="#FFFFF2"/>
<ellipse cx="411.512" cy="118.041" rx="2.00029" ry="1.99688" transform="rotate(-179.319 411.512 118.041)" fill="#FFFFF2"/>
<ellipse cx="511.473" cy="119.229" rx="2.00029" ry="1.99688" transform="rotate(-179.319 511.473 119.229)" fill="#FFFFF2"/>
<ellipse cx="461.492" cy="118.635" rx="2.00029" ry="1.99688" transform="rotate(-179.319 461.492 118.635)" fill="#FFFFF2"/>
<ellipse cx="561.451" cy="119.823" rx="2.00029" ry="1.99688" transform="rotate(-179.319 561.451 119.823)" fill="#FFFFF2"/>
<ellipse cx="374.026" cy="117.595" rx="2.00029" ry="1.99688" transform="rotate(-179.319 374.026 117.595)" fill="#FFFFF2"/>
<ellipse cx="473.988" cy="118.783" rx="2.00029" ry="1.99688" transform="rotate(-179.319 473.988 118.783)" fill="#FFFFF2"/>
<ellipse cx="424.006" cy="118.189" rx="2.00029" ry="1.99688" transform="rotate(-179.319 424.006 118.189)" fill="#FFFFF2"/>
<ellipse cx="523.967" cy="119.377" rx="2.00029" ry="1.99688" transform="rotate(-179.319 523.967 119.377)" fill="#FFFFF2"/>
<ellipse cx="399.016" cy="117.892" rx="2.00029" ry="1.99688" transform="rotate(-179.319 399.016 117.892)" fill="#FFFFF2"/>
<ellipse cx="498.977" cy="119.081" rx="2.00029" ry="1.99688" transform="rotate(-179.319 498.977 119.081)" fill="#FFFFF2"/>
<ellipse cx="448.996" cy="118.486" rx="2.00029" ry="1.99688" transform="rotate(-179.319 448.996 118.486)" fill="#FFFFF2"/>
<ellipse cx="548.957" cy="119.674" rx="2.00029" ry="1.99688" transform="rotate(-179.319 548.957 119.674)" fill="#FFFFF2"/>
<ellipse cx="387.115" cy="67.8506" rx="2.00029" ry="1.99688" transform="rotate(-179.319 387.115 67.8506)" fill="#FFFFF2"/>
<ellipse cx="487.074" cy="69.0386" rx="2.00029" ry="1.99688" transform="rotate(-179.319 487.074 69.0386)" fill="#FFFFF2"/>
<ellipse cx="437.096" cy="68.4448" rx="2.00029" ry="1.99688" transform="rotate(-179.319 437.096 68.4448)" fill="#FFFFF2"/>
<ellipse cx="537.057" cy="69.6333" rx="2.00029" ry="1.99688" transform="rotate(-179.319 537.057 69.6333)" fill="#FFFFF2"/>
<ellipse cx="412.106" cy="68.1475" rx="2.00029" ry="1.99688" transform="rotate(-179.319 412.106 68.1475)" fill="#FFFFF2"/>
<ellipse cx="512.065" cy="69.3364" rx="2.00029" ry="1.99688" transform="rotate(-179.319 512.065 69.3364)" fill="#FFFFF2"/>
<ellipse cx="462.086" cy="68.7417" rx="2.00029" ry="1.99688" transform="rotate(-179.319 462.086 68.7417)" fill="#FFFFF2"/>
<ellipse cx="562.045" cy="69.9297" rx="2.00029" ry="1.99688" transform="rotate(-179.319 562.045 69.9297)" fill="#FFFFF2"/>
<ellipse cx="374.621" cy="67.7021" rx="2.00029" ry="1.99688" transform="rotate(-179.319 374.621 67.7021)" fill="#FFFFF2"/>
<ellipse cx="474.582" cy="68.8901" rx="2.00029" ry="1.99688" transform="rotate(-179.319 474.582 68.8901)" fill="#FFFFF2"/>
<ellipse cx="424.6" cy="68.2964" rx="2.00029" ry="1.99688" transform="rotate(-179.319 424.6 68.2964)" fill="#FFFFF2"/>
<ellipse cx="524.561" cy="69.4849" rx="2.00029" ry="1.99688" transform="rotate(-179.319 524.561 69.4849)" fill="#FFFFF2"/>
<ellipse cx="399.611" cy="67.999" rx="2.00029" ry="1.99688" transform="rotate(-179.319 399.611 67.999)" fill="#FFFFF2"/>
<ellipse cx="499.572" cy="69.1875" rx="2.00029" ry="1.99688" transform="rotate(-179.319 499.572 69.1875)" fill="#FFFFF2"/>
<ellipse cx="449.592" cy="68.5933" rx="2.00029" ry="1.99688" transform="rotate(-179.319 449.592 68.5933)" fill="#FFFFF2"/>
<ellipse cx="549.551" cy="69.7817" rx="2.00029" ry="1.99688" transform="rotate(-179.319 549.551 69.7817)" fill="#FFFFF2"/>
<ellipse cx="385.928" cy="167.639" rx="2.00029" ry="1.99688" transform="rotate(-179.319 385.928 167.639)" fill="#FFFFF2"/>
<ellipse cx="485.887" cy="168.828" rx="2.00029" ry="1.99688" transform="rotate(-179.319 485.887 168.828)" fill="#FFFFF2"/>
<ellipse cx="435.908" cy="168.233" rx="2.00029" ry="1.99688" transform="rotate(-179.319 435.908 168.233)" fill="#FFFFF2"/>
<ellipse cx="535.867" cy="169.421" rx="2.00029" ry="1.99688" transform="rotate(-179.319 535.867 169.421)" fill="#FFFFF2"/>
<ellipse cx="410.918" cy="167.936" rx="2.00029" ry="1.99688" transform="rotate(-179.319 410.918 167.936)" fill="#FFFFF2"/>
<ellipse cx="510.877" cy="169.124" rx="2.00029" ry="1.99688" transform="rotate(-179.319 510.877 169.124)" fill="#FFFFF2"/>
<ellipse cx="460.899" cy="168.53" rx="2.00029" ry="1.99688" transform="rotate(-179.319 460.899 168.53)" fill="#FFFFF2"/>
<ellipse cx="560.858" cy="169.718" rx="2.00029" ry="1.99688" transform="rotate(-179.319 560.858 169.718)" fill="#FFFFF2"/>
<ellipse cx="373.432" cy="167.491" rx="2.00029" ry="1.99688" transform="rotate(-179.319 373.432 167.491)" fill="#FFFFF2"/>
<ellipse cx="473.395" cy="168.679" rx="2.00029" ry="1.99688" transform="rotate(-179.319 473.395 168.679)" fill="#FFFFF2"/>
<ellipse cx="423.412" cy="168.085" rx="2.00029" ry="1.99688" transform="rotate(-179.319 423.412 168.085)" fill="#FFFFF2"/>
<ellipse cx="523.371" cy="169.273" rx="2.00029" ry="1.99688" transform="rotate(-179.319 523.371 169.273)" fill="#FFFFF2"/>
<ellipse cx="398.422" cy="167.788" rx="2.00029" ry="1.99688" transform="rotate(-179.319 398.422 167.788)" fill="#FFFFF2"/>
<ellipse cx="498.383" cy="168.976" rx="2.00029" ry="1.99688" transform="rotate(-179.319 498.383 168.976)" fill="#FFFFF2"/>
<ellipse cx="448.402" cy="168.382" rx="2.00029" ry="1.99688" transform="rotate(-179.319 448.402 168.382)" fill="#FFFFF2"/>
<ellipse cx="548.363" cy="169.57" rx="2.00029" ry="1.99688" transform="rotate(-179.319 548.363 169.57)" fill="#FFFFF2"/>
<ellipse cx="387.41" cy="42.9023" rx="2.00029" ry="1.99688" transform="rotate(-179.319 387.41 42.9023)" fill="#FFFFF2"/>
<ellipse cx="487.369" cy="44.0903" rx="2.00029" ry="1.99688" transform="rotate(-179.319 487.369 44.0903)" fill="#FFFFF2"/>
<ellipse cx="437.391" cy="43.4966" rx="2.00029" ry="1.99688" transform="rotate(-179.319 437.391 43.4966)" fill="#FFFFF2"/>
<ellipse cx="537.35" cy="44.6851" rx="2.00029" ry="1.99688" transform="rotate(-179.319 537.35 44.6851)" fill="#FFFFF2"/>
<ellipse cx="412.401" cy="43.1992" rx="2.00029" ry="1.99688" transform="rotate(-179.319 412.401 43.1992)" fill="#FFFFF2"/>
<ellipse cx="512.36" cy="44.3882" rx="2.00029" ry="1.99688" transform="rotate(-179.319 512.36 44.3882)" fill="#FFFFF2"/>
<ellipse cx="462.381" cy="43.7934" rx="2.00029" ry="1.99688" transform="rotate(-179.319 462.381 43.7934)" fill="#FFFFF2"/>
<ellipse cx="562.34" cy="44.9819" rx="2.00029" ry="1.99688" transform="rotate(-179.319 562.34 44.9819)" fill="#FFFFF2"/>
<ellipse cx="374.914" cy="42.7539" rx="2.00029" ry="1.99688" transform="rotate(-179.319 374.914 42.7539)" fill="#FFFFF2"/>
<ellipse cx="474.877" cy="43.9419" rx="2.00029" ry="1.99688" transform="rotate(-179.319 474.877 43.9419)" fill="#FFFFF2"/>
<ellipse cx="424.895" cy="43.3481" rx="2.00029" ry="1.99688" transform="rotate(-179.319 424.895 43.3481)" fill="#FFFFF2"/>
<ellipse cx="524.854" cy="44.5366" rx="2.00029" ry="1.99688" transform="rotate(-179.319 524.854 44.5366)" fill="#FFFFF2"/>
<ellipse cx="399.904" cy="43.0508" rx="2.00029" ry="1.99688" transform="rotate(-179.319 399.904 43.0508)" fill="#FFFFF2"/>
<ellipse cx="499.865" cy="44.2397" rx="2.00029" ry="1.99688" transform="rotate(-179.319 499.865 44.2397)" fill="#FFFFF2"/>
<ellipse cx="449.885" cy="43.645" rx="2.00029" ry="1.99688" transform="rotate(-179.319 449.885 43.645)" fill="#FFFFF2"/>
<ellipse cx="549.846" cy="44.8335" rx="2.00029" ry="1.99688" transform="rotate(-179.319 549.846 44.8335)" fill="#FFFFF2"/>
<ellipse cx="386.225" cy="142.693" rx="2.00029" ry="1.99688" transform="rotate(-179.319 386.225 142.693)" fill="#FFFFF2"/>
<ellipse cx="486.184" cy="143.881" rx="2.00029" ry="1.99688" transform="rotate(-179.319 486.184 143.881)" fill="#FFFFF2"/>
<ellipse cx="436.205" cy="143.287" rx="2.00029" ry="1.99688" transform="rotate(-179.319 436.205 143.287)" fill="#FFFFF2"/>
<ellipse cx="536.164" cy="144.475" rx="2.00029" ry="1.99688" transform="rotate(-179.319 536.164 144.475)" fill="#FFFFF2"/>
<ellipse cx="411.215" cy="142.99" rx="2.00029" ry="1.99688" transform="rotate(-179.319 411.215 142.99)" fill="#FFFFF2"/>
<ellipse cx="511.174" cy="144.178" rx="2.00029" ry="1.99688" transform="rotate(-179.319 511.174 144.178)" fill="#FFFFF2"/>
<ellipse cx="461.195" cy="143.584" rx="2.00029" ry="1.99688" transform="rotate(-179.319 461.195 143.584)" fill="#FFFFF2"/>
<ellipse cx="561.154" cy="144.772" rx="2.00029" ry="1.99688" transform="rotate(-179.319 561.154 144.772)" fill="#FFFFF2"/>
<ellipse cx="373.729" cy="142.544" rx="2.00029" ry="1.99688" transform="rotate(-179.319 373.729 142.544)" fill="#FFFFF2"/>
<ellipse cx="473.692" cy="143.732" rx="2.00029" ry="1.99688" transform="rotate(-179.319 473.692 143.732)" fill="#FFFFF2"/>
<ellipse cx="423.709" cy="143.139" rx="2.00029" ry="1.99688" transform="rotate(-179.319 423.709 143.139)" fill="#FFFFF2"/>
<ellipse cx="523.67" cy="144.327" rx="2.00029" ry="1.99688" transform="rotate(-179.319 523.67 144.327)" fill="#FFFFF2"/>
<ellipse cx="398.719" cy="142.841" rx="2.00029" ry="1.99688" transform="rotate(-179.319 398.719 142.841)" fill="#FFFFF2"/>
<ellipse cx="498.68" cy="144.03" rx="2.00029" ry="1.99688" transform="rotate(-179.319 498.68 144.03)" fill="#FFFFF2"/>
<ellipse cx="448.699" cy="143.436" rx="2.00029" ry="1.99688" transform="rotate(-179.319 448.699 143.436)" fill="#FFFFF2"/>
<ellipse cx="548.66" cy="144.624" rx="2.00029" ry="1.99688" transform="rotate(-179.319 548.66 144.624)" fill="#FFFFF2"/>
<ellipse cx="386.819" cy="92.7974" rx="2.00029" ry="1.99688" transform="rotate(-179.319 386.819 92.7974)" fill="#FFFFF2"/>
<ellipse cx="486.779" cy="93.9863" rx="2.00029" ry="1.99688" transform="rotate(-179.319 486.779 93.9863)" fill="#FFFFF2"/>
<ellipse cx="436.799" cy="93.3921" rx="2.00029" ry="1.99688" transform="rotate(-179.319 436.799 93.3921)" fill="#FFFFF2"/>
<ellipse cx="536.758" cy="94.581" rx="2.00029" ry="1.99688" transform="rotate(-179.319 536.758 94.581)" fill="#FFFFF2"/>
<ellipse cx="411.809" cy="93.0952" rx="2.00029" ry="1.99688" transform="rotate(-179.319 411.809 93.0952)" fill="#FFFFF2"/>
<ellipse cx="511.768" cy="94.2832" rx="2.00029" ry="1.99688" transform="rotate(-179.319 511.768 94.2832)" fill="#FFFFF2"/>
<ellipse cx="461.789" cy="93.689" rx="2.00029" ry="1.99688" transform="rotate(-179.319 461.789 93.689)" fill="#FFFFF2"/>
<ellipse cx="561.748" cy="94.8779" rx="2.00029" ry="1.99688" transform="rotate(-179.319 561.748 94.8779)" fill="#FFFFF2"/>
<ellipse cx="374.322" cy="92.6489" rx="2.00029" ry="1.99688" transform="rotate(-179.319 374.322 92.6489)" fill="#FFFFF2"/>
<ellipse cx="474.285" cy="93.8379" rx="2.00029" ry="1.99688" transform="rotate(-179.319 474.285 93.8379)" fill="#FFFFF2"/>
<ellipse cx="424.305" cy="93.2436" rx="2.00029" ry="1.99688" transform="rotate(-179.319 424.305 93.2436)" fill="#FFFFF2"/>
<ellipse cx="524.264" cy="94.4316" rx="2.00029" ry="1.99688" transform="rotate(-179.319 524.264 94.4316)" fill="#FFFFF2"/>
<ellipse cx="399.313" cy="92.9468" rx="2.00029" ry="1.99688" transform="rotate(-179.319 399.313 92.9468)" fill="#FFFFF2"/>
<ellipse cx="499.274" cy="94.1348" rx="2.00029" ry="1.99688" transform="rotate(-179.319 499.274 94.1348)" fill="#FFFFF2"/>
<ellipse cx="449.293" cy="93.5405" rx="2.00029" ry="1.99688" transform="rotate(-179.319 449.293 93.5405)" fill="#FFFFF2"/>
<ellipse cx="549.254" cy="94.7295" rx="2.00029" ry="1.99688" transform="rotate(-179.319 549.254 94.7295)" fill="#FFFFF2"/>
<ellipse cx="385.633" cy="192.587" rx="2.00029" ry="1.99688" transform="rotate(-179.319 385.633 192.587)" fill="#FFFFF2"/>
<ellipse cx="485.592" cy="193.775" rx="2.00029" ry="1.99688" transform="rotate(-179.319 485.592 193.775)" fill="#FFFFF2"/>
<ellipse cx="435.613" cy="193.181" rx="2.00029" ry="1.99688" transform="rotate(-179.319 435.613 193.181)" fill="#FFFFF2"/>
<ellipse cx="535.574" cy="194.369" rx="2.00029" ry="1.99688" transform="rotate(-179.319 535.574 194.369)" fill="#FFFFF2"/>
<ellipse cx="410.623" cy="192.884" rx="2.00029" ry="1.99688" transform="rotate(-179.319 410.623 192.884)" fill="#FFFFF2"/>
<ellipse cx="510.584" cy="194.072" rx="2.00029" ry="1.99688" transform="rotate(-179.319 510.584 194.072)" fill="#FFFFF2"/>
<ellipse cx="460.604" cy="193.478" rx="2.00029" ry="1.99688" transform="rotate(-179.319 460.604 193.478)" fill="#FFFFF2"/>
<ellipse cx="560.563" cy="194.666" rx="2.00029" ry="1.99688" transform="rotate(-179.319 560.563 194.666)" fill="#FFFFF2"/>
<ellipse cx="373.139" cy="192.438" rx="2.00029" ry="1.99688" transform="rotate(-179.319 373.139 192.438)" fill="#FFFFF2"/>
<ellipse cx="473.1" cy="193.626" rx="2.00029" ry="1.99688" transform="rotate(-179.319 473.1 193.626)" fill="#FFFFF2"/>
<ellipse cx="423.119" cy="193.033" rx="2.00029" ry="1.99688" transform="rotate(-179.319 423.119 193.033)" fill="#FFFFF2"/>
<ellipse cx="523.078" cy="194.221" rx="2.00029" ry="1.99688" transform="rotate(-179.319 523.078 194.221)" fill="#FFFFF2"/>
<ellipse cx="398.129" cy="192.735" rx="2.00029" ry="1.99688" transform="rotate(-179.319 398.129 192.735)" fill="#FFFFF2"/>
<ellipse cx="498.088" cy="193.924" rx="2.00029" ry="1.99688" transform="rotate(-179.319 498.088 193.924)" fill="#FFFFF2"/>
<ellipse cx="448.11" cy="193.33" rx="2.00029" ry="1.99688" transform="rotate(-179.319 448.11 193.33)" fill="#FFFFF2"/>
<ellipse cx="548.069" cy="194.518" rx="2.00029" ry="1.99688" transform="rotate(-179.319 548.069 194.518)" fill="#FFFFF2"/>
<ellipse cx="387.559" cy="30.4297" rx="2.00029" ry="1.99688" transform="rotate(-179.319 387.559 30.4297)" fill="#FFFFF2"/>
<ellipse cx="487.518" cy="31.6182" rx="2.00029" ry="1.99688" transform="rotate(-179.319 487.518 31.6182)" fill="#FFFFF2"/>
<ellipse cx="437.539" cy="31.0239" rx="2.00029" ry="1.99688" transform="rotate(-179.319 437.539 31.0239)" fill="#FFFFF2"/>
<ellipse cx="537.498" cy="32.2119" rx="2.00029" ry="1.99688" transform="rotate(-179.319 537.498 32.2119)" fill="#FFFFF2"/>
<ellipse cx="412.549" cy="30.727" rx="2.00029" ry="1.99688" transform="rotate(-179.319 412.549 30.727)" fill="#FFFFF2"/>
<ellipse cx="512.508" cy="31.915" rx="2.00029" ry="1.99688" transform="rotate(-179.319 512.508 31.915)" fill="#FFFFF2"/>
<ellipse cx="462.529" cy="31.3208" rx="2.00029" ry="1.99688" transform="rotate(-179.319 462.529 31.3208)" fill="#FFFFF2"/>
<ellipse cx="562.488" cy="32.5093" rx="2.00029" ry="1.99688" transform="rotate(-179.319 562.488 32.5093)" fill="#FFFFF2"/>
<ellipse cx="375.063" cy="30.2808" rx="2.00029" ry="1.99688" transform="rotate(-179.319 375.063 30.2808)" fill="#FFFFF2"/>
<ellipse cx="475.026" cy="31.4697" rx="2.00029" ry="1.99688" transform="rotate(-179.319 475.026 31.4697)" fill="#FFFFF2"/>
<ellipse cx="425.045" cy="30.8755" rx="2.00029" ry="1.99688" transform="rotate(-179.319 425.045 30.8755)" fill="#FFFFF2"/>
<ellipse cx="525.002" cy="32.0635" rx="2.00029" ry="1.99688" transform="rotate(-179.319 525.002 32.0635)" fill="#FFFFF2"/>
<ellipse cx="400.053" cy="30.5786" rx="2.00029" ry="1.99688" transform="rotate(-179.319 400.053 30.5786)" fill="#FFFFF2"/>
<ellipse cx="500.014" cy="31.7666" rx="2.00029" ry="1.99688" transform="rotate(-179.319 500.014 31.7666)" fill="#FFFFF2"/>
<ellipse cx="450.033" cy="31.1724" rx="2.00029" ry="1.99688" transform="rotate(-179.319 450.033 31.1724)" fill="#FFFFF2"/>
<ellipse cx="549.994" cy="32.3608" rx="2.00029" ry="1.99688" transform="rotate(-179.319 549.994 32.3608)" fill="#FFFFF2"/>
<ellipse cx="386.373" cy="130.217" rx="2.00029" ry="1.99688" transform="rotate(-179.319 386.373 130.217)" fill="#FFFFF2"/>
<ellipse cx="486.334" cy="131.406" rx="2.00029" ry="1.99688" transform="rotate(-179.319 486.334 131.406)" fill="#FFFFF2"/>
<ellipse cx="436.354" cy="130.812" rx="2.00029" ry="1.99688" transform="rotate(-179.319 436.354 130.812)" fill="#FFFFF2"/>
<ellipse cx="536.315" cy="132" rx="2.00029" ry="1.99688" transform="rotate(-179.319 536.315 132)" fill="#FFFFF2"/>
<ellipse cx="411.363" cy="130.515" rx="2.00029" ry="1.99688" transform="rotate(-179.319 411.363 130.515)" fill="#FFFFF2"/>
<ellipse cx="511.324" cy="131.703" rx="2.00029" ry="1.99688" transform="rotate(-179.319 511.324 131.703)" fill="#FFFFF2"/>
<ellipse cx="461.344" cy="131.109" rx="2.00029" ry="1.99688" transform="rotate(-179.319 461.344 131.109)" fill="#FFFFF2"/>
<ellipse cx="561.303" cy="132.297" rx="2.00029" ry="1.99688" transform="rotate(-179.319 561.303 132.297)" fill="#FFFFF2"/>
<ellipse cx="373.877" cy="130.068" rx="2.00029" ry="1.99688" transform="rotate(-179.319 373.877 130.068)" fill="#FFFFF2"/>
<ellipse cx="473.838" cy="131.257" rx="2.00029" ry="1.99688" transform="rotate(-179.319 473.838 131.257)" fill="#FFFFF2"/>
<ellipse cx="423.858" cy="130.663" rx="2.00029" ry="1.99688" transform="rotate(-179.319 423.858 130.663)" fill="#FFFFF2"/>
<ellipse cx="523.819" cy="131.851" rx="2.00029" ry="1.99688" transform="rotate(-179.319 523.819 131.851)" fill="#FFFFF2"/>
<ellipse cx="398.869" cy="130.366" rx="2.00029" ry="1.99688" transform="rotate(-179.319 398.869 130.366)" fill="#FFFFF2"/>
<ellipse cx="498.828" cy="131.554" rx="2.00029" ry="1.99688" transform="rotate(-179.319 498.828 131.554)" fill="#FFFFF2"/>
<ellipse cx="448.848" cy="130.96" rx="2.00029" ry="1.99688" transform="rotate(-179.319 448.848 130.96)" fill="#FFFFF2"/>
<ellipse cx="548.807" cy="132.148" rx="2.00029" ry="1.99688" transform="rotate(-179.319 548.807 132.148)" fill="#FFFFF2"/>
<ellipse cx="386.967" cy="80.3237" rx="2.00029" ry="1.99688" transform="rotate(-179.319 386.967 80.3237)" fill="#FFFFF2"/>
<ellipse cx="486.926" cy="81.5122" rx="2.00029" ry="1.99688" transform="rotate(-179.319 486.926 81.5122)" fill="#FFFFF2"/>
<ellipse cx="436.947" cy="80.9184" rx="2.00029" ry="1.99688" transform="rotate(-179.319 436.947 80.9184)" fill="#FFFFF2"/>
<ellipse cx="536.908" cy="82.1069" rx="2.00029" ry="1.99688" transform="rotate(-179.319 536.908 82.1069)" fill="#FFFFF2"/>
<ellipse cx="411.957" cy="80.6211" rx="2.00029" ry="1.99688" transform="rotate(-179.319 411.957 80.6211)" fill="#FFFFF2"/>
<ellipse cx="511.918" cy="81.8101" rx="2.00029" ry="1.99688" transform="rotate(-179.319 511.918 81.8101)" fill="#FFFFF2"/>
<ellipse cx="461.938" cy="81.2153" rx="2.00029" ry="1.99688" transform="rotate(-179.319 461.938 81.2153)" fill="#FFFFF2"/>
<ellipse cx="561.897" cy="82.4043" rx="2.00029" ry="1.99688" transform="rotate(-179.319 561.897 82.4043)" fill="#FFFFF2"/>
<ellipse cx="374.473" cy="80.1758" rx="2.00029" ry="1.99688" transform="rotate(-179.319 374.473 80.1758)" fill="#FFFFF2"/>
<ellipse cx="474.434" cy="81.3638" rx="2.00029" ry="1.99688" transform="rotate(-179.319 474.434 81.3638)" fill="#FFFFF2"/>
<ellipse cx="424.453" cy="80.77" rx="2.00029" ry="1.99688" transform="rotate(-179.319 424.453 80.77)" fill="#FFFFF2"/>
<ellipse cx="524.412" cy="81.9585" rx="2.00029" ry="1.99688" transform="rotate(-179.319 524.412 81.9585)" fill="#FFFFF2"/>
<ellipse cx="399.463" cy="80.4726" rx="2.00029" ry="1.99688" transform="rotate(-179.319 399.463 80.4726)" fill="#FFFFF2"/>
<ellipse cx="499.424" cy="81.6611" rx="2.00029" ry="1.99688" transform="rotate(-179.319 499.424 81.6611)" fill="#FFFFF2"/>
<ellipse cx="449.444" cy="81.0669" rx="2.00029" ry="1.99688" transform="rotate(-179.319 449.444 81.0669)" fill="#FFFFF2"/>
<ellipse cx="549.403" cy="82.2554" rx="2.00029" ry="1.99688" transform="rotate(-179.319 549.403 82.2554)" fill="#FFFFF2"/>
<ellipse cx="385.783" cy="180.113" rx="2.00029" ry="1.99688" transform="rotate(-179.319 385.783 180.113)" fill="#FFFFF2"/>
<ellipse cx="485.74" cy="181.302" rx="2.00029" ry="1.99688" transform="rotate(-179.319 485.74 181.302)" fill="#FFFFF2"/>
<ellipse cx="435.762" cy="180.708" rx="2.00029" ry="1.99688" transform="rotate(-179.319 435.762 180.708)" fill="#FFFFF2"/>
<ellipse cx="535.723" cy="181.895" rx="2.00029" ry="1.99688" transform="rotate(-179.319 535.723 181.895)" fill="#FFFFF2"/>
<ellipse cx="410.772" cy="180.411" rx="2.00029" ry="1.99688" transform="rotate(-179.319 410.772 180.411)" fill="#FFFFF2"/>
<ellipse cx="510.733" cy="181.599" rx="2.00029" ry="1.99688" transform="rotate(-179.319 510.733 181.599)" fill="#FFFFF2"/>
<ellipse cx="460.752" cy="181.004" rx="2.00029" ry="1.99688" transform="rotate(-179.319 460.752 181.004)" fill="#FFFFF2"/>
<ellipse cx="560.711" cy="182.193" rx="2.00029" ry="1.99688" transform="rotate(-179.319 560.711 182.193)" fill="#FFFFF2"/>
<ellipse cx="373.287" cy="179.964" rx="2.00029" ry="1.99688" transform="rotate(-179.319 373.287 179.964)" fill="#FFFFF2"/>
<ellipse cx="473.248" cy="181.153" rx="2.00029" ry="1.99688" transform="rotate(-179.319 473.248 181.153)" fill="#FFFFF2"/>
<ellipse cx="423.268" cy="180.559" rx="2.00029" ry="1.99688" transform="rotate(-179.319 423.268 180.559)" fill="#FFFFF2"/>
<ellipse cx="523.227" cy="181.747" rx="2.00029" ry="1.99688" transform="rotate(-179.319 523.227 181.747)" fill="#FFFFF2"/>
<ellipse cx="398.277" cy="180.262" rx="2.00029" ry="1.99688" transform="rotate(-179.319 398.277 180.262)" fill="#FFFFF2"/>
<ellipse cx="498.236" cy="181.45" rx="2.00029" ry="1.99688" transform="rotate(-179.319 498.236 181.45)" fill="#FFFFF2"/>
<ellipse cx="448.258" cy="180.856" rx="2.00029" ry="1.99688" transform="rotate(-179.319 448.258 180.856)" fill="#FFFFF2"/>
<ellipse cx="548.217" cy="182.044" rx="2.00029" ry="1.99688" transform="rotate(-179.319 548.217 182.044)" fill="#FFFFF2"/>
<ellipse cx="387.264" cy="55.3755" rx="2.00029" ry="1.99688" transform="rotate(-179.319 387.264 55.3755)" fill="#FFFFF2"/>
<ellipse cx="487.223" cy="56.564" rx="2.00029" ry="1.99688" transform="rotate(-179.319 487.223 56.564)" fill="#FFFFF2"/>
<ellipse cx="437.244" cy="55.9697" rx="2.00029" ry="1.99688" transform="rotate(-179.319 437.244 55.9697)" fill="#FFFFF2"/>
<ellipse cx="537.203" cy="57.1582" rx="2.00029" ry="1.99688" transform="rotate(-179.319 537.203 57.1582)" fill="#FFFFF2"/>
<ellipse cx="412.254" cy="55.6724" rx="2.00029" ry="1.99688" transform="rotate(-179.319 412.254 55.6724)" fill="#FFFFF2"/>
<ellipse cx="512.213" cy="56.8613" rx="2.00029" ry="1.99688" transform="rotate(-179.319 512.213 56.8613)" fill="#FFFFF2"/>
<ellipse cx="462.235" cy="56.2666" rx="2.00029" ry="1.99688" transform="rotate(-179.319 462.235 56.2666)" fill="#FFFFF2"/>
<ellipse cx="562.194" cy="57.4556" rx="2.00029" ry="1.99688" transform="rotate(-179.319 562.194 57.4556)" fill="#FFFFF2"/>
<ellipse cx="374.77" cy="55.227" rx="2.00029" ry="1.99688" transform="rotate(-179.319 374.77 55.227)" fill="#FFFFF2"/>
<ellipse cx="474.729" cy="56.415" rx="2.00029" ry="1.99688" transform="rotate(-179.319 474.729 56.415)" fill="#FFFFF2"/>
<ellipse cx="424.748" cy="55.8213" rx="2.00029" ry="1.99688" transform="rotate(-179.319 424.748 55.8213)" fill="#FFFFF2"/>
<ellipse cx="524.709" cy="57.0098" rx="2.00029" ry="1.99688" transform="rotate(-179.319 524.709 57.0098)" fill="#FFFFF2"/>
<ellipse cx="399.758" cy="55.5239" rx="2.00029" ry="1.99688" transform="rotate(-179.319 399.758 55.5239)" fill="#FFFFF2"/>
<ellipse cx="499.719" cy="56.7129" rx="2.00029" ry="1.99688" transform="rotate(-179.319 499.719 56.7129)" fill="#FFFFF2"/>
<ellipse cx="449.74" cy="56.1182" rx="2.00029" ry="1.99688" transform="rotate(-179.319 449.74 56.1182)" fill="#FFFFF2"/>
<ellipse cx="549.699" cy="57.3066" rx="2.00029" ry="1.99688" transform="rotate(-179.319 549.699 57.3066)" fill="#FFFFF2"/>
<ellipse cx="386.076" cy="155.165" rx="2.00029" ry="1.99688" transform="rotate(-179.319 386.076 155.165)" fill="#FFFFF2"/>
<ellipse cx="486.035" cy="156.354" rx="2.00029" ry="1.99688" transform="rotate(-179.319 486.035 156.354)" fill="#FFFFF2"/>
<ellipse cx="436.057" cy="155.759" rx="2.00029" ry="1.99688" transform="rotate(-179.319 436.057 155.759)" fill="#FFFFF2"/>
<ellipse cx="536.016" cy="156.948" rx="2.00029" ry="1.99688" transform="rotate(-179.319 536.016 156.948)" fill="#FFFFF2"/>
<ellipse cx="411.067" cy="155.462" rx="2.00029" ry="1.99688" transform="rotate(-179.319 411.067 155.462)" fill="#FFFFF2"/>
<ellipse cx="511.026" cy="156.651" rx="2.00029" ry="1.99688" transform="rotate(-179.319 511.026 156.651)" fill="#FFFFF2"/>
<ellipse cx="461.047" cy="156.057" rx="2.00029" ry="1.99688" transform="rotate(-179.319 461.047 156.057)" fill="#FFFFF2"/>
<ellipse cx="561.006" cy="157.245" rx="2.00029" ry="1.99688" transform="rotate(-179.319 561.006 157.245)" fill="#FFFFF2"/>
<ellipse cx="373.58" cy="155.017" rx="2.00029" ry="1.99688" transform="rotate(-179.319 373.58 155.017)" fill="#FFFFF2"/>
<ellipse cx="473.543" cy="156.206" rx="2.00029" ry="1.99688" transform="rotate(-179.319 473.543 156.206)" fill="#FFFFF2"/>
<ellipse cx="423.563" cy="155.611" rx="2.00029" ry="1.99688" transform="rotate(-179.319 423.563 155.611)" fill="#FFFFF2"/>
<ellipse cx="523.52" cy="156.799" rx="2.00029" ry="1.99688" transform="rotate(-179.319 523.52 156.799)" fill="#FFFFF2"/>
<ellipse cx="398.57" cy="155.314" rx="2.00029" ry="1.99688" transform="rotate(-179.319 398.57 155.314)" fill="#FFFFF2"/>
<ellipse cx="498.531" cy="156.502" rx="2.00029" ry="1.99688" transform="rotate(-179.319 498.531 156.502)" fill="#FFFFF2"/>
<ellipse cx="448.551" cy="155.908" rx="2.00029" ry="1.99688" transform="rotate(-179.319 448.551 155.908)" fill="#FFFFF2"/>
<ellipse cx="548.512" cy="157.097" rx="2.00029" ry="1.99688" transform="rotate(-179.319 548.512 157.097)" fill="#FFFFF2"/>
<ellipse cx="386.67" cy="105.271" rx="2.00029" ry="1.99688" transform="rotate(-179.319 386.67 105.271)" fill="#FFFFF2"/>
<ellipse cx="486.631" cy="106.459" rx="2.00029" ry="1.99688" transform="rotate(-179.319 486.631 106.459)" fill="#FFFFF2"/>
<ellipse cx="436.651" cy="105.865" rx="2.00029" ry="1.99688" transform="rotate(-179.319 436.651 105.865)" fill="#FFFFF2"/>
<ellipse cx="536.61" cy="107.054" rx="2.00029" ry="1.99688" transform="rotate(-179.319 536.61 107.054)" fill="#FFFFF2"/>
<ellipse cx="411.66" cy="105.568" rx="2.00029" ry="1.99688" transform="rotate(-179.319 411.66 105.568)" fill="#FFFFF2"/>
<ellipse cx="511.619" cy="106.757" rx="2.00029" ry="1.99688" transform="rotate(-179.319 511.619 106.757)" fill="#FFFFF2"/>
<ellipse cx="461.641" cy="106.163" rx="2.00029" ry="1.99688" transform="rotate(-179.319 461.641 106.163)" fill="#FFFFF2"/>
<ellipse cx="561.6" cy="107.351" rx="2.00029" ry="1.99688" transform="rotate(-179.319 561.6 107.351)" fill="#FFFFF2"/>
<ellipse cx="374.174" cy="105.123" rx="2.00029" ry="1.99688" transform="rotate(-179.319 374.174 105.123)" fill="#FFFFF2"/>
<ellipse cx="474.135" cy="106.311" rx="2.00029" ry="1.99688" transform="rotate(-179.319 474.135 106.311)" fill="#FFFFF2"/>
<ellipse cx="424.154" cy="105.717" rx="2.00029" ry="1.99688" transform="rotate(-179.319 424.154 105.717)" fill="#FFFFF2"/>
<ellipse cx="524.115" cy="106.905" rx="2.00029" ry="1.99688" transform="rotate(-179.319 524.115 106.905)" fill="#FFFFF2"/>
<ellipse cx="399.164" cy="105.419" rx="2.00029" ry="1.99688" transform="rotate(-179.319 399.164 105.419)" fill="#FFFFF2"/>
<ellipse cx="499.125" cy="106.608" rx="2.00029" ry="1.99688" transform="rotate(-179.319 499.125 106.608)" fill="#FFFFF2"/>
<ellipse cx="449.145" cy="106.014" rx="2.00029" ry="1.99688" transform="rotate(-179.319 449.145 106.014)" fill="#FFFFF2"/>
<ellipse cx="549.104" cy="107.202" rx="2.00029" ry="1.99688" transform="rotate(-179.319 549.104 107.202)" fill="#FFFFF2"/>
<ellipse cx="385.485" cy="205.06" rx="2.00029" ry="1.99688" transform="rotate(-179.319 385.485 205.06)" fill="#FFFFF2"/>
<ellipse cx="485.444" cy="206.249" rx="2.00029" ry="1.99688" transform="rotate(-179.319 485.444 206.249)" fill="#FFFFF2"/>
<ellipse cx="435.465" cy="205.654" rx="2.00029" ry="1.99688" transform="rotate(-179.319 435.465 205.654)" fill="#FFFFF2"/>
<ellipse cx="535.426" cy="206.843" rx="2.00029" ry="1.99688" transform="rotate(-179.319 535.426 206.843)" fill="#FFFFF2"/>
<ellipse cx="410.475" cy="205.357" rx="2.00029" ry="1.99688" transform="rotate(-179.319 410.475 205.357)" fill="#FFFFF2"/>
<ellipse cx="510.436" cy="206.546" rx="2.00029" ry="1.99688" transform="rotate(-179.319 510.436 206.546)" fill="#FFFFF2"/>
<ellipse cx="460.455" cy="205.951" rx="2.00029" ry="1.99688" transform="rotate(-179.319 460.455 205.951)" fill="#FFFFF2"/>
<ellipse cx="560.414" cy="207.14" rx="2.00029" ry="1.99688" transform="rotate(-179.319 560.414 207.14)" fill="#FFFFF2"/>
<ellipse cx="372.99" cy="204.912" rx="2.00029" ry="1.99688" transform="rotate(-179.319 372.99 204.912)" fill="#FFFFF2"/>
<ellipse cx="472.951" cy="206.1" rx="2.00029" ry="1.99688" transform="rotate(-179.319 472.951 206.1)" fill="#FFFFF2"/>
<ellipse cx="422.971" cy="205.506" rx="2.00029" ry="1.99688" transform="rotate(-179.319 422.971 205.506)" fill="#FFFFF2"/>
<ellipse cx="522.93" cy="206.694" rx="2.00029" ry="1.99688" transform="rotate(-179.319 522.93 206.694)" fill="#FFFFF2"/>
<ellipse cx="397.981" cy="205.208" rx="2.00029" ry="1.99688" transform="rotate(-179.319 397.981 205.208)" fill="#FFFFF2"/>
<ellipse cx="497.94" cy="206.397" rx="2.00029" ry="1.99688" transform="rotate(-179.319 497.94 206.397)" fill="#FFFFF2"/>
<ellipse cx="447.961" cy="205.803" rx="2.00029" ry="1.99688" transform="rotate(-179.319 447.961 205.803)" fill="#FFFFF2"/>
<ellipse cx="547.92" cy="206.991" rx="2.00029" ry="1.99688" transform="rotate(-179.319 547.92 206.991)" fill="#FFFFF2"/>
</mask>
<g mask="url(#mask0_6261_8614)">
<ellipse cx="468.646" cy="113.715" rx="83.5771" ry="83.0939" transform="rotate(0.681179 468.646 113.715)" fill="black"/>
</g>
<rect x="203.734" y="95.8745" width="180" height="120.515" transform="rotate(83.8572 203.734 95.8745)" fill="#FFFAC3"/>
<rect x="203.734" y="95.8745" width="12.3605" height="120.515" transform="rotate(83.8572 203.734 95.8745)" fill="#F5C254"/>
<rect x="169.758" y="126.726" width="12.3605" height="70.3005" transform="rotate(83.8572 169.758 126.726)" fill="#FFE672"/>
<rect x="162.014" y="220.799" width="12.3605" height="52.5322" transform="rotate(83.8572 162.014 220.799)" fill="#FFE672"/>
<rect x="187.775" y="171.406" width="12.3605" height="83.4335" transform="rotate(83.8572 187.775 171.406)" fill="#FFE672"/>
<rect x="193.746" y="147.454" width="12.3605" height="91.9314" transform="rotate(83.8572 193.746 147.454)" fill="#FFE672"/>
<rect x="198.705" y="193.541" width="12.3605" height="91.9314" transform="rotate(83.8572 198.705 193.541)" fill="#FFE672"/>
<rect x="494.221" y="109.607" width="180" height="120.515" transform="rotate(96.14 494.221 109.607)" fill="#FFA0F2"/>
<rect x="494.221" y="109.607" width="12.3605" height="120.515" transform="rotate(96.14 494.221 109.607)" fill="#E11EA2"/>
<rect x="454.461" y="132.525" width="12.3605" height="70.3005" transform="rotate(96.14 454.461 132.525)" fill="#FF4DC9"/>
<rect x="426.879" y="222.796" width="12.3605" height="52.5322" transform="rotate(96.14 426.879 222.796)" fill="#FF4DC9"/>
<rect x="462.561" y="180.015" width="12.3605" height="83.4335" transform="rotate(96.14 462.561 180.015)" fill="#FF4DC9"/>
<rect x="473.488" y="157.881" width="12.3605" height="91.9314" transform="rotate(96.14 473.488 157.881)" fill="#FF4DC9"/>
<rect x="468.531" y="203.967" width="12.3605" height="91.9314" transform="rotate(96.14 468.531 203.967)" fill="#FF4DC9"/>
<rect x="364.434" y="71" width="225" height="150.644" transform="rotate(90 364.434 71)" fill="#0AFFE7"/>
<rect x="364.434" y="71" width="15.4507" height="150.644" transform="rotate(90 364.434 71)" fill="#00D2C0"/>
<rect x="318.08" y="104.798" width="15.4507" height="87.8756" transform="rotate(90 318.08 104.798)" fill="#00D2C0"/>
<rect x="295.871" y="220.678" width="15.4507" height="65.6653" transform="rotate(90 295.871 220.678)" fill="#00D2C0"/>
<rect x="334.496" y="162.738" width="15.4507" height="104.292" transform="rotate(90 334.496 162.738)" fill="#00D2C0"/>
<rect x="345.12" y="133.768" width="15.4507" height="114.914" transform="rotate(90 345.12 133.768)" fill="#00D2C0"/>
<rect x="345.12" y="191.708" width="15.4507" height="114.914" transform="rotate(90 345.12 191.708)" fill="#00D2C0"/>
</svg>
