<svg viewBox="0 0 1506 502" fill="none" xmlns="http://www.w3.org/2000/svg">
<g opacity="0.5">
<mask id="mask0_69_10284" style="mask-type:alpha" maskUnits="userSpaceOnUse" x="0" y="0" width="502" height="502">
<circle cx="38.0145" cy="5.24546" r="5.24526" transform="rotate(180 38.0145 5.24546)" fill="#FFFFF2"/>
<circle cx="300.151" cy="5.24546" r="5.24526" transform="rotate(180 300.151 5.24546)" fill="#FFFFF2"/>
<circle cx="169.082" cy="5.24546" r="5.24526" transform="rotate(180 169.082 5.24546)" fill="#FFFFF2"/>
<circle cx="431.22" cy="5.24546" r="5.24526" transform="rotate(180 431.22 5.24546)" fill="#FFFFF2"/>
<circle cx="103.547" cy="5.24546" r="5.24526" transform="rotate(180 103.547 5.24546)" fill="#FFFFF2"/>
<circle cx="365.685" cy="5.24546" r="5.24526" transform="rotate(180 365.685 5.24546)" fill="#FFFFF2"/>
<circle cx="234.615" cy="5.24546" r="5.24526" transform="rotate(180 234.615 5.24546)" fill="#FFFFF2"/>
<circle cx="496.755" cy="5.24546" r="5.24526" transform="rotate(180 496.755 5.24546)" fill="#FFFFF2"/>
<circle cx="5.24546" cy="5.24546" r="5.24526" transform="rotate(180 5.24546 5.24546)" fill="#FFFFF2"/>
<circle cx="267.384" cy="5.24546" r="5.24526" transform="rotate(180 267.384 5.24546)" fill="#FFFFF2"/>
<circle cx="136.315" cy="5.24546" r="5.24526" transform="rotate(180 136.315 5.24546)" fill="#FFFFF2"/>
<circle cx="398.452" cy="5.24546" r="5.24526" transform="rotate(180 398.452 5.24546)" fill="#FFFFF2"/>
<circle cx="70.7801" cy="5.24546" r="5.24526" transform="rotate(180 70.7801 5.24546)" fill="#FFFFF2"/>
<circle cx="332.918" cy="5.24546" r="5.24526" transform="rotate(180 332.918 5.24546)" fill="#FFFFF2"/>
<circle cx="201.848" cy="5.24546" r="5.24526" transform="rotate(180 201.848 5.24546)" fill="#FFFFF2"/>
<circle cx="463.989" cy="5.24546" r="5.24526" transform="rotate(180 463.989 5.24546)" fill="#FFFFF2"/>
<circle cx="38.0145" cy="267.384" r="5.24526" transform="rotate(180 38.0145 267.384)" fill="#FFFFF2"/>
<circle cx="300.151" cy="267.384" r="5.24526" transform="rotate(180 300.151 267.384)" fill="#FFFFF2"/>
<circle cx="169.082" cy="267.384" r="5.24526" transform="rotate(180 169.082 267.384)" fill="#FFFFF2"/>
<circle cx="431.22" cy="267.384" r="5.24526" transform="rotate(180 431.22 267.384)" fill="#FFFFF2"/>
<circle cx="103.547" cy="267.384" r="5.24526" transform="rotate(180 103.547 267.384)" fill="#FFFFF2"/>
<circle cx="365.685" cy="267.384" r="5.24526" transform="rotate(180 365.685 267.384)" fill="#FFFFF2"/>
<circle cx="234.618" cy="267.384" r="5.24526" transform="rotate(180 234.618 267.384)" fill="#FFFFF2"/>
<circle cx="496.755" cy="267.384" r="5.24526" transform="rotate(180 496.755 267.384)" fill="#FFFFF2"/>
<circle cx="5.24546" cy="267.384" r="5.24526" transform="rotate(180 5.24546 267.384)" fill="#FFFFF2"/>
<circle cx="267.384" cy="267.384" r="5.24526" transform="rotate(180 267.384 267.384)" fill="#FFFFF2"/>
<circle cx="136.315" cy="267.384" r="5.24526" transform="rotate(180 136.315 267.384)" fill="#FFFFF2"/>
<circle cx="398.452" cy="267.384" r="5.24526" transform="rotate(180 398.452 267.384)" fill="#FFFFF2"/>
<circle cx="70.7801" cy="267.384" r="5.24526" transform="rotate(180 70.7801 267.384)" fill="#FFFFF2"/>
<circle cx="332.918" cy="267.384" r="5.24526" transform="rotate(180 332.918 267.384)" fill="#FFFFF2"/>
<circle cx="201.848" cy="267.384" r="5.24526" transform="rotate(180 201.848 267.384)" fill="#FFFFF2"/>
<circle cx="463.989" cy="267.384" r="5.24526" transform="rotate(180 463.989 267.384)" fill="#FFFFF2"/>
<circle cx="38.015" cy="136.315" r="5.24526" transform="rotate(180 38.015 136.315)" fill="#FFFFF2"/>
<circle cx="300.151" cy="136.315" r="5.24526" transform="rotate(180 300.151 136.315)" fill="#FFFFF2"/>
<circle cx="169.082" cy="136.315" r="5.24526" transform="rotate(180 169.082 136.315)" fill="#FFFFF2"/>
<circle cx="431.22" cy="136.315" r="5.24526" transform="rotate(180 431.22 136.315)" fill="#FFFFF2"/>
<circle cx="103.547" cy="136.315" r="5.24526" transform="rotate(180 103.547 136.315)" fill="#FFFFF2"/>
<circle cx="365.685" cy="136.315" r="5.24526" transform="rotate(180 365.685 136.315)" fill="#FFFFF2"/>
<circle cx="234.615" cy="136.315" r="5.24526" transform="rotate(180 234.615 136.315)" fill="#FFFFF2"/>
<circle cx="496.755" cy="136.315" r="5.24526" transform="rotate(180 496.755 136.315)" fill="#FFFFF2"/>
<circle cx="5.24546" cy="136.315" r="5.24526" transform="rotate(180 5.24546 136.315)" fill="#FFFFF2"/>
<circle cx="267.384" cy="136.315" r="5.24526" transform="rotate(180 267.384 136.315)" fill="#FFFFF2"/>
<circle cx="136.315" cy="136.315" r="5.24526" transform="rotate(180 136.315 136.315)" fill="#FFFFF2"/>
<circle cx="398.452" cy="136.315" r="5.24526" transform="rotate(180 398.452 136.315)" fill="#FFFFF2"/>
<circle cx="70.7806" cy="136.315" r="5.24526" transform="rotate(180 70.7806 136.315)" fill="#FFFFF2"/>
<circle cx="332.918" cy="136.315" r="5.24526" transform="rotate(180 332.918 136.315)" fill="#FFFFF2"/>
<circle cx="201.848" cy="136.315" r="5.24526" transform="rotate(180 201.848 136.315)" fill="#FFFFF2"/>
<circle cx="463.989" cy="136.315" r="5.24526" transform="rotate(180 463.989 136.315)" fill="#FFFFF2"/>
<circle cx="38.015" cy="398.452" r="5.24526" transform="rotate(180 38.015 398.452)" fill="#FFFFF2"/>
<circle cx="300.151" cy="398.452" r="5.24526" transform="rotate(180 300.151 398.452)" fill="#FFFFF2"/>
<circle cx="169.082" cy="398.452" r="5.24526" transform="rotate(180 169.082 398.452)" fill="#FFFFF2"/>
<circle cx="431.22" cy="398.452" r="5.24526" transform="rotate(180 431.22 398.452)" fill="#FFFFF2"/>
<circle cx="103.547" cy="398.452" r="5.24526" transform="rotate(180 103.547 398.452)" fill="#FFFFF2"/>
<circle cx="365.685" cy="398.452" r="5.24526" transform="rotate(180 365.685 398.452)" fill="#FFFFF2"/>
<circle cx="234.618" cy="398.452" r="5.24526" transform="rotate(180 234.618 398.452)" fill="#FFFFF2"/>
<circle cx="496.755" cy="398.452" r="5.24526" transform="rotate(180 496.755 398.452)" fill="#FFFFF2"/>
<circle cx="5.24546" cy="398.452" r="5.24526" transform="rotate(180 5.24546 398.452)" fill="#FFFFF2"/>
<circle cx="267.384" cy="398.452" r="5.24526" transform="rotate(180 267.384 398.452)" fill="#FFFFF2"/>
<circle cx="136.315" cy="398.452" r="5.24526" transform="rotate(180 136.315 398.452)" fill="#FFFFF2"/>
<circle cx="398.452" cy="398.452" r="5.24526" transform="rotate(180 398.452 398.452)" fill="#FFFFF2"/>
<circle cx="70.7806" cy="398.452" r="5.24526" transform="rotate(180 70.7806 398.452)" fill="#FFFFF2"/>
<circle cx="332.918" cy="398.452" r="5.24526" transform="rotate(180 332.918 398.452)" fill="#FFFFF2"/>
<circle cx="201.848" cy="398.452" r="5.24526" transform="rotate(180 201.848 398.452)" fill="#FFFFF2"/>
<circle cx="463.989" cy="398.452" r="5.24526" transform="rotate(180 463.989 398.452)" fill="#FFFFF2"/>
<circle cx="38.015" cy="70.7799" r="5.24526" transform="rotate(180 38.015 70.7799)" fill="#FFFFF2"/>
<circle cx="300.151" cy="70.7799" r="5.24526" transform="rotate(180 300.151 70.7799)" fill="#FFFFF2"/>
<circle cx="169.082" cy="70.7799" r="5.24526" transform="rotate(180 169.082 70.7799)" fill="#FFFFF2"/>
<circle cx="431.22" cy="70.7799" r="5.24526" transform="rotate(180 431.22 70.7799)" fill="#FFFFF2"/>
<circle cx="103.547" cy="70.7799" r="5.24526" transform="rotate(180 103.547 70.7799)" fill="#FFFFF2"/>
<circle cx="365.685" cy="70.7799" r="5.24526" transform="rotate(180 365.685 70.7799)" fill="#FFFFF2"/>
<circle cx="234.615" cy="70.7799" r="5.24526" transform="rotate(180 234.615 70.7799)" fill="#FFFFF2"/>
<circle cx="496.755" cy="70.7799" r="5.24526" transform="rotate(180 496.755 70.7799)" fill="#FFFFF2"/>
<circle cx="5.24546" cy="70.7799" r="5.24526" transform="rotate(180 5.24546 70.7799)" fill="#FFFFF2"/>
<circle cx="267.384" cy="70.7799" r="5.24526" transform="rotate(180 267.384 70.7799)" fill="#FFFFF2"/>
<circle cx="136.315" cy="70.7799" r="5.24526" transform="rotate(180 136.315 70.7799)" fill="#FFFFF2"/>
<circle cx="398.452" cy="70.7799" r="5.24526" transform="rotate(180 398.452 70.7799)" fill="#FFFFF2"/>
<circle cx="70.7806" cy="70.7799" r="5.24526" transform="rotate(180 70.7806 70.7799)" fill="#FFFFF2"/>
<circle cx="332.918" cy="70.7799" r="5.24526" transform="rotate(180 332.918 70.7799)" fill="#FFFFF2"/>
<circle cx="201.848" cy="70.7799" r="5.24526" transform="rotate(180 201.848 70.7799)" fill="#FFFFF2"/>
<circle cx="463.989" cy="70.7799" r="5.24526" transform="rotate(180 463.989 70.7799)" fill="#FFFFF2"/>
<circle cx="38.015" cy="332.918" r="5.24526" transform="rotate(180 38.015 332.918)" fill="#FFFFF2"/>
<circle cx="300.151" cy="332.918" r="5.24526" transform="rotate(180 300.151 332.918)" fill="#FFFFF2"/>
<circle cx="169.082" cy="332.918" r="5.24526" transform="rotate(180 169.082 332.918)" fill="#FFFFF2"/>
<circle cx="431.22" cy="332.918" r="5.24526" transform="rotate(180 431.22 332.918)" fill="#FFFFF2"/>
<circle cx="103.547" cy="332.918" r="5.24526" transform="rotate(180 103.547 332.918)" fill="#FFFFF2"/>
<circle cx="365.685" cy="332.918" r="5.24526" transform="rotate(180 365.685 332.918)" fill="#FFFFF2"/>
<circle cx="234.618" cy="332.918" r="5.24526" transform="rotate(180 234.618 332.918)" fill="#FFFFF2"/>
<circle cx="496.755" cy="332.918" r="5.24526" transform="rotate(180 496.755 332.918)" fill="#FFFFF2"/>
<circle cx="5.24546" cy="332.918" r="5.24526" transform="rotate(180 5.24546 332.918)" fill="#FFFFF2"/>
<circle cx="267.384" cy="332.918" r="5.24526" transform="rotate(180 267.384 332.918)" fill="#FFFFF2"/>
<circle cx="136.315" cy="332.918" r="5.24526" transform="rotate(180 136.315 332.918)" fill="#FFFFF2"/>
<circle cx="398.452" cy="332.918" r="5.24526" transform="rotate(180 398.452 332.918)" fill="#FFFFF2"/>
<circle cx="70.7806" cy="332.918" r="5.24526" transform="rotate(180 70.7806 332.918)" fill="#FFFFF2"/>
<circle cx="332.918" cy="332.918" r="5.24526" transform="rotate(180 332.918 332.918)" fill="#FFFFF2"/>
<circle cx="201.848" cy="332.918" r="5.24526" transform="rotate(180 201.848 332.918)" fill="#FFFFF2"/>
<circle cx="463.989" cy="332.918" r="5.24526" transform="rotate(180 463.989 332.918)" fill="#FFFFF2"/>
<circle cx="38.015" cy="201.849" r="5.24526" transform="rotate(180 38.015 201.849)" fill="#FFFFF2"/>
<circle cx="300.151" cy="201.849" r="5.24526" transform="rotate(180 300.151 201.849)" fill="#FFFFF2"/>
<circle cx="169.082" cy="201.849" r="5.24526" transform="rotate(180 169.082 201.849)" fill="#FFFFF2"/>
<circle cx="431.22" cy="201.849" r="5.24526" transform="rotate(180 431.22 201.849)" fill="#FFFFF2"/>
<circle cx="103.547" cy="201.849" r="5.24526" transform="rotate(180 103.547 201.849)" fill="#FFFFF2"/>
<circle cx="365.685" cy="201.849" r="5.24526" transform="rotate(180 365.685 201.849)" fill="#FFFFF2"/>
<circle cx="234.618" cy="201.849" r="5.24526" transform="rotate(180 234.618 201.849)" fill="#FFFFF2"/>
<circle cx="496.755" cy="201.849" r="5.24526" transform="rotate(180 496.755 201.849)" fill="#FFFFF2"/>
<circle cx="5.24546" cy="201.849" r="5.24526" transform="rotate(180 5.24546 201.849)" fill="#FFFFF2"/>
<circle cx="267.384" cy="201.849" r="5.24526" transform="rotate(180 267.384 201.849)" fill="#FFFFF2"/>
<circle cx="136.315" cy="201.849" r="5.24526" transform="rotate(180 136.315 201.849)" fill="#FFFFF2"/>
<circle cx="398.452" cy="201.849" r="5.24526" transform="rotate(180 398.452 201.849)" fill="#FFFFF2"/>
<circle cx="70.7806" cy="201.849" r="5.24526" transform="rotate(180 70.7806 201.849)" fill="#FFFFF2"/>
<circle cx="332.918" cy="201.849" r="5.24526" transform="rotate(180 332.918 201.849)" fill="#FFFFF2"/>
<circle cx="201.848" cy="201.849" r="5.24526" transform="rotate(180 201.848 201.849)" fill="#FFFFF2"/>
<circle cx="463.989" cy="201.849" r="5.24526" transform="rotate(180 463.989 201.849)" fill="#FFFFF2"/>
<circle cx="38.0145" cy="463.987" r="5.24526" transform="rotate(180 38.0145 463.987)" fill="#FFFFF2"/>
<circle cx="300.151" cy="463.987" r="5.24526" transform="rotate(180 300.151 463.987)" fill="#FFFFF2"/>
<circle cx="169.083" cy="463.987" r="5.24526" transform="rotate(180 169.083 463.987)" fill="#FFFFF2"/>
<circle cx="431.22" cy="463.987" r="5.24526" transform="rotate(180 431.22 463.987)" fill="#FFFFF2"/>
<circle cx="103.547" cy="463.987" r="5.24526" transform="rotate(180 103.547 463.987)" fill="#FFFFF2"/>
<circle cx="365.685" cy="463.987" r="5.24526" transform="rotate(180 365.685 463.987)" fill="#FFFFF2"/>
<circle cx="234.618" cy="463.987" r="5.24526" transform="rotate(180 234.618 463.987)" fill="#FFFFF2"/>
<circle cx="496.755" cy="463.987" r="5.24526" transform="rotate(180 496.755 463.987)" fill="#FFFFF2"/>
<circle cx="5.24546" cy="463.987" r="5.24526" transform="rotate(180 5.24546 463.987)" fill="#FFFFF2"/>
<circle cx="267.384" cy="463.987" r="5.24526" transform="rotate(180 267.384 463.987)" fill="#FFFFF2"/>
<circle cx="136.315" cy="463.987" r="5.24526" transform="rotate(180 136.315 463.987)" fill="#FFFFF2"/>
<circle cx="398.452" cy="463.987" r="5.24526" transform="rotate(180 398.452 463.987)" fill="#FFFFF2"/>
<circle cx="70.7801" cy="463.987" r="5.24526" transform="rotate(180 70.7801 463.987)" fill="#FFFFF2"/>
<circle cx="332.918" cy="463.987" r="5.24526" transform="rotate(180 332.918 463.987)" fill="#FFFFF2"/>
<circle cx="201.848" cy="463.987" r="5.24526" transform="rotate(180 201.848 463.987)" fill="#FFFFF2"/>
<circle cx="463.989" cy="463.987" r="5.24526" transform="rotate(180 463.989 463.987)" fill="#FFFFF2"/>
<circle cx="38.0145" cy="38.0128" r="5.24526" transform="rotate(180 38.0145 38.0128)" fill="#FFFFF2"/>
<circle cx="300.151" cy="38.0128" r="5.24526" transform="rotate(180 300.151 38.0128)" fill="#FFFFF2"/>
<circle cx="169.082" cy="38.0128" r="5.24526" transform="rotate(180 169.082 38.0128)" fill="#FFFFF2"/>
<circle cx="431.22" cy="38.0128" r="5.24526" transform="rotate(180 431.22 38.0128)" fill="#FFFFF2"/>
<circle cx="103.547" cy="38.0128" r="5.24526" transform="rotate(180 103.547 38.0128)" fill="#FFFFF2"/>
<circle cx="365.685" cy="38.0128" r="5.24526" transform="rotate(180 365.685 38.0128)" fill="#FFFFF2"/>
<circle cx="234.618" cy="38.0128" r="5.24526" transform="rotate(180 234.618 38.0128)" fill="#FFFFF2"/>
<circle cx="496.755" cy="38.0128" r="5.24526" transform="rotate(180 496.755 38.0128)" fill="#FFFFF2"/>
<circle cx="5.24546" cy="38.0128" r="5.24526" transform="rotate(180 5.24546 38.0128)" fill="#FFFFF2"/>
<circle cx="267.384" cy="38.0128" r="5.24526" transform="rotate(180 267.384 38.0128)" fill="#FFFFF2"/>
<circle cx="136.315" cy="38.0128" r="5.24526" transform="rotate(180 136.315 38.0128)" fill="#FFFFF2"/>
<circle cx="398.452" cy="38.0128" r="5.24526" transform="rotate(180 398.452 38.0128)" fill="#FFFFF2"/>
<circle cx="70.7801" cy="38.0128" r="5.24526" transform="rotate(180 70.7801 38.0128)" fill="#FFFFF2"/>
<circle cx="332.918" cy="38.0128" r="5.24526" transform="rotate(180 332.918 38.0128)" fill="#FFFFF2"/>
<circle cx="201.848" cy="38.0128" r="5.24526" transform="rotate(180 201.848 38.0128)" fill="#FFFFF2"/>
<circle cx="463.989" cy="38.0128" r="5.24526" transform="rotate(180 463.989 38.0128)" fill="#FFFFF2"/>
<circle cx="38.015" cy="300.15" r="5.24526" transform="rotate(180 38.015 300.15)" fill="#FFFFF2"/>
<circle cx="300.151" cy="300.15" r="5.24526" transform="rotate(180 300.151 300.15)" fill="#FFFFF2"/>
<circle cx="169.082" cy="300.15" r="5.24526" transform="rotate(180 169.082 300.15)" fill="#FFFFF2"/>
<circle cx="431.22" cy="300.15" r="5.24526" transform="rotate(180 431.22 300.15)" fill="#FFFFF2"/>
<circle cx="103.547" cy="300.15" r="5.24526" transform="rotate(180 103.547 300.15)" fill="#FFFFF2"/>
<circle cx="365.685" cy="300.15" r="5.24526" transform="rotate(180 365.685 300.15)" fill="#FFFFF2"/>
<circle cx="234.615" cy="300.15" r="5.24526" transform="rotate(180 234.615 300.15)" fill="#FFFFF2"/>
<circle cx="496.755" cy="300.15" r="5.24526" transform="rotate(180 496.755 300.15)" fill="#FFFFF2"/>
<circle cx="5.24546" cy="300.15" r="5.24526" transform="rotate(180 5.24546 300.15)" fill="#FFFFF2"/>
<circle cx="267.384" cy="300.15" r="5.24526" transform="rotate(180 267.384 300.15)" fill="#FFFFF2"/>
<circle cx="136.315" cy="300.15" r="5.24526" transform="rotate(180 136.315 300.15)" fill="#FFFFF2"/>
<circle cx="398.452" cy="300.15" r="5.24526" transform="rotate(180 398.452 300.15)" fill="#FFFFF2"/>
<circle cx="70.7806" cy="300.15" r="5.24526" transform="rotate(180 70.7806 300.15)" fill="#FFFFF2"/>
<circle cx="332.918" cy="300.15" r="5.24526" transform="rotate(180 332.918 300.15)" fill="#FFFFF2"/>
<circle cx="201.848" cy="300.15" r="5.24526" transform="rotate(180 201.848 300.15)" fill="#FFFFF2"/>
<circle cx="463.989" cy="300.15" r="5.24526" transform="rotate(180 463.989 300.15)" fill="#FFFFF2"/>
<circle cx="38.015" cy="169.082" r="5.24526" transform="rotate(180 38.015 169.082)" fill="#FFFFF2"/>
<circle cx="300.151" cy="169.082" r="5.24526" transform="rotate(180 300.151 169.082)" fill="#FFFFF2"/>
<circle cx="169.082" cy="169.082" r="5.24526" transform="rotate(180 169.082 169.082)" fill="#FFFFF2"/>
<circle cx="431.22" cy="169.082" r="5.24526" transform="rotate(180 431.22 169.082)" fill="#FFFFF2"/>
<circle cx="103.547" cy="169.082" r="5.24526" transform="rotate(180 103.547 169.082)" fill="#FFFFF2"/>
<circle cx="365.685" cy="169.082" r="5.24526" transform="rotate(180 365.685 169.082)" fill="#FFFFF2"/>
<circle cx="234.616" cy="169.082" r="5.24526" transform="rotate(180 234.616 169.082)" fill="#FFFFF2"/>
<circle cx="496.755" cy="169.081" r="5.24526" transform="rotate(180 496.755 169.081)" fill="#FFFFF2"/>
<circle cx="5.24546" cy="169.082" r="5.24526" transform="rotate(180 5.24546 169.082)" fill="#FFFFF2"/>
<circle cx="267.384" cy="169.082" r="5.24526" transform="rotate(180 267.384 169.082)" fill="#FFFFF2"/>
<circle cx="136.315" cy="169.082" r="5.24526" transform="rotate(180 136.315 169.082)" fill="#FFFFF2"/>
<circle cx="398.452" cy="169.082" r="5.24526" transform="rotate(180 398.452 169.082)" fill="#FFFFF2"/>
<circle cx="70.7806" cy="169.082" r="5.24526" transform="rotate(180 70.7806 169.082)" fill="#FFFFF2"/>
<circle cx="332.918" cy="169.082" r="5.24526" transform="rotate(180 332.918 169.082)" fill="#FFFFF2"/>
<circle cx="201.848" cy="169.082" r="5.24526" transform="rotate(180 201.848 169.082)" fill="#FFFFF2"/>
<circle cx="463.989" cy="169.082" r="5.24526" transform="rotate(180 463.989 169.082)" fill="#FFFFF2"/>
<circle cx="38.0145" cy="431.22" r="5.24526" transform="rotate(180 38.0145 431.22)" fill="#FFFFF2"/>
<circle cx="300.151" cy="431.22" r="5.24526" transform="rotate(180 300.151 431.22)" fill="#FFFFF2"/>
<circle cx="169.082" cy="431.22" r="5.24526" transform="rotate(180 169.082 431.22)" fill="#FFFFF2"/>
<circle cx="431.22" cy="431.22" r="5.24526" transform="rotate(180 431.22 431.22)" fill="#FFFFF2"/>
<circle cx="103.547" cy="431.22" r="5.24526" transform="rotate(180 103.547 431.22)" fill="#FFFFF2"/>
<circle cx="365.685" cy="431.22" r="5.24526" transform="rotate(180 365.685 431.22)" fill="#FFFFF2"/>
<circle cx="234.615" cy="431.22" r="5.24526" transform="rotate(180 234.615 431.22)" fill="#FFFFF2"/>
<circle cx="496.755" cy="431.22" r="5.24526" transform="rotate(180 496.755 431.22)" fill="#FFFFF2"/>
<circle cx="5.24546" cy="431.22" r="5.24526" transform="rotate(180 5.24546 431.22)" fill="#FFFFF2"/>
<circle cx="267.384" cy="431.22" r="5.24526" transform="rotate(180 267.384 431.22)" fill="#FFFFF2"/>
<circle cx="136.315" cy="431.22" r="5.24526" transform="rotate(180 136.315 431.22)" fill="#FFFFF2"/>
<circle cx="398.452" cy="431.22" r="5.24526" transform="rotate(180 398.452 431.22)" fill="#FFFFF2"/>
<circle cx="70.7801" cy="431.22" r="5.24526" transform="rotate(180 70.7801 431.22)" fill="#FFFFF2"/>
<circle cx="332.918" cy="431.22" r="5.24526" transform="rotate(180 332.918 431.22)" fill="#FFFFF2"/>
<circle cx="201.848" cy="431.22" r="5.24526" transform="rotate(180 201.848 431.22)" fill="#FFFFF2"/>
<circle cx="463.989" cy="431.22" r="5.24526" transform="rotate(180 463.989 431.22)" fill="#FFFFF2"/>
<circle cx="38.0145" cy="103.547" r="5.24526" transform="rotate(180 38.0145 103.547)" fill="#FFFFF2"/>
<circle cx="300.151" cy="103.547" r="5.24526" transform="rotate(180 300.151 103.547)" fill="#FFFFF2"/>
<circle cx="169.082" cy="103.547" r="5.24526" transform="rotate(180 169.082 103.547)" fill="#FFFFF2"/>
<circle cx="431.22" cy="103.547" r="5.24526" transform="rotate(180 431.22 103.547)" fill="#FFFFF2"/>
<circle cx="103.547" cy="103.547" r="5.24526" transform="rotate(180 103.547 103.547)" fill="#FFFFF2"/>
<circle cx="365.685" cy="103.547" r="5.24526" transform="rotate(180 365.685 103.547)" fill="#FFFFF2"/>
<circle cx="234.615" cy="103.547" r="5.24526" transform="rotate(180 234.615 103.547)" fill="#FFFFF2"/>
<circle cx="496.755" cy="103.547" r="5.24526" transform="rotate(180 496.755 103.547)" fill="#FFFFF2"/>
<circle cx="5.24546" cy="103.547" r="5.24526" transform="rotate(180 5.24546 103.547)" fill="#FFFFF2"/>
<circle cx="267.384" cy="103.547" r="5.24526" transform="rotate(180 267.384 103.547)" fill="#FFFFF2"/>
<circle cx="136.315" cy="103.547" r="5.24526" transform="rotate(180 136.315 103.547)" fill="#FFFFF2"/>
<circle cx="398.452" cy="103.547" r="5.24526" transform="rotate(180 398.452 103.547)" fill="#FFFFF2"/>
<circle cx="70.7801" cy="103.547" r="5.24526" transform="rotate(180 70.7801 103.547)" fill="#FFFFF2"/>
<circle cx="332.918" cy="103.547" r="5.24526" transform="rotate(180 332.918 103.547)" fill="#FFFFF2"/>
<circle cx="201.848" cy="103.547" r="5.24526" transform="rotate(180 201.848 103.547)" fill="#FFFFF2"/>
<circle cx="463.989" cy="103.547" r="5.24526" transform="rotate(180 463.989 103.547)" fill="#FFFFF2"/>
<circle cx="38.0145" cy="365.685" r="5.24526" transform="rotate(180 38.0145 365.685)" fill="#FFFFF2"/>
<circle cx="300.151" cy="365.685" r="5.24526" transform="rotate(180 300.151 365.685)" fill="#FFFFF2"/>
<circle cx="169.082" cy="365.685" r="5.24526" transform="rotate(180 169.082 365.685)" fill="#FFFFF2"/>
<circle cx="431.22" cy="365.685" r="5.24526" transform="rotate(180 431.22 365.685)" fill="#FFFFF2"/>
<circle cx="103.547" cy="365.685" r="5.24526" transform="rotate(180 103.547 365.685)" fill="#FFFFF2"/>
<circle cx="365.685" cy="365.685" r="5.24526" transform="rotate(180 365.685 365.685)" fill="#FFFFF2"/>
<circle cx="234.615" cy="365.685" r="5.24526" transform="rotate(180 234.615 365.685)" fill="#FFFFF2"/>
<circle cx="496.755" cy="365.685" r="5.24526" transform="rotate(180 496.755 365.685)" fill="#FFFFF2"/>
<circle cx="5.24546" cy="365.685" r="5.24526" transform="rotate(180 5.24546 365.685)" fill="#FFFFF2"/>
<circle cx="267.384" cy="365.685" r="5.24526" transform="rotate(180 267.384 365.685)" fill="#FFFFF2"/>
<circle cx="136.315" cy="365.685" r="5.24526" transform="rotate(180 136.315 365.685)" fill="#FFFFF2"/>
<circle cx="398.452" cy="365.685" r="5.24526" transform="rotate(180 398.452 365.685)" fill="#FFFFF2"/>
<circle cx="70.7801" cy="365.685" r="5.24526" transform="rotate(180 70.7801 365.685)" fill="#FFFFF2"/>
<circle cx="332.918" cy="365.685" r="5.24526" transform="rotate(180 332.918 365.685)" fill="#FFFFF2"/>
<circle cx="201.848" cy="365.685" r="5.24526" transform="rotate(180 201.848 365.685)" fill="#FFFFF2"/>
<circle cx="463.989" cy="365.685" r="5.24526" transform="rotate(180 463.989 365.685)" fill="#FFFFF2"/>
<circle cx="38.0145" cy="234.616" r="5.24526" transform="rotate(180 38.0145 234.616)" fill="#FFFFF2"/>
<circle cx="300.151" cy="234.616" r="5.24526" transform="rotate(180 300.151 234.616)" fill="#FFFFF2"/>
<circle cx="169.082" cy="234.616" r="5.24526" transform="rotate(180 169.082 234.616)" fill="#FFFFF2"/>
<circle cx="431.22" cy="234.616" r="5.24526" transform="rotate(180 431.22 234.616)" fill="#FFFFF2"/>
<circle cx="103.547" cy="234.616" r="5.24526" transform="rotate(180 103.547 234.616)" fill="#FFFFF2"/>
<circle cx="365.685" cy="234.616" r="5.24526" transform="rotate(180 365.685 234.616)" fill="#FFFFF2"/>
<circle cx="234.615" cy="234.616" r="5.24526" transform="rotate(180 234.615 234.616)" fill="#FFFFF2"/>
<circle cx="496.755" cy="234.616" r="5.24526" transform="rotate(180 496.755 234.616)" fill="#FFFFF2"/>
<circle cx="5.24546" cy="234.616" r="5.24526" transform="rotate(180 5.24546 234.616)" fill="#FFFFF2"/>
<circle cx="267.384" cy="234.616" r="5.24526" transform="rotate(180 267.384 234.616)" fill="#FFFFF2"/>
<circle cx="136.315" cy="234.616" r="5.24526" transform="rotate(180 136.315 234.616)" fill="#FFFFF2"/>
<circle cx="398.452" cy="234.616" r="5.24526" transform="rotate(180 398.452 234.616)" fill="#FFFFF2"/>
<circle cx="70.7801" cy="234.616" r="5.24526" transform="rotate(180 70.7801 234.616)" fill="#FFFFF2"/>
<circle cx="332.918" cy="234.616" r="5.24526" transform="rotate(180 332.918 234.616)" fill="#FFFFF2"/>
<circle cx="201.848" cy="234.616" r="5.24526" transform="rotate(180 201.848 234.616)" fill="#FFFFF2"/>
<circle cx="463.989" cy="234.616" r="5.24526" transform="rotate(180 463.989 234.616)" fill="#FFFFF2"/>
<circle cx="38.0145" cy="496.754" r="5.24526" transform="rotate(180 38.0145 496.754)" fill="#FFFFF2"/>
<circle cx="300.151" cy="496.754" r="5.24526" transform="rotate(180 300.151 496.754)" fill="#FFFFF2"/>
<circle cx="169.082" cy="496.754" r="5.24526" transform="rotate(180 169.082 496.754)" fill="#FFFFF2"/>
<circle cx="431.22" cy="496.754" r="5.24526" transform="rotate(180 431.22 496.754)" fill="#FFFFF2"/>
<circle cx="103.547" cy="496.754" r="5.24526" transform="rotate(180 103.547 496.754)" fill="#FFFFF2"/>
<circle cx="365.685" cy="496.754" r="5.24526" transform="rotate(180 365.685 496.754)" fill="#FFFFF2"/>
<circle cx="234.615" cy="496.754" r="5.24526" transform="rotate(180 234.615 496.754)" fill="#FFFFF2"/>
<circle cx="496.755" cy="496.754" r="5.24526" transform="rotate(180 496.755 496.754)" fill="#FFFFF2"/>
<circle cx="5.24546" cy="496.754" r="5.24526" transform="rotate(180 5.24546 496.754)" fill="#FFFFF2"/>
<circle cx="267.384" cy="496.754" r="5.24526" transform="rotate(180 267.384 496.754)" fill="#FFFFF2"/>
<circle cx="136.315" cy="496.754" r="5.24526" transform="rotate(180 136.315 496.754)" fill="#FFFFF2"/>
<circle cx="398.452" cy="496.754" r="5.24526" transform="rotate(180 398.452 496.754)" fill="#FFFFF2"/>
<circle cx="70.7801" cy="496.754" r="5.24526" transform="rotate(180 70.7801 496.754)" fill="#FFFFF2"/>
<circle cx="332.918" cy="496.754" r="5.24526" transform="rotate(180 332.918 496.754)" fill="#FFFFF2"/>
<circle cx="201.848" cy="496.754" r="5.24526" transform="rotate(180 201.848 496.754)" fill="#FFFFF2"/>
<circle cx="463.989" cy="496.754" r="5.24526" transform="rotate(180 463.989 496.754)" fill="#FFFFF2"/>
</mask>
<g mask="url(#mask0_69_10284)">
<circle cx="251.216" cy="262.138" r="202.065" fill="#C2C2C2"/>
</g>
</g>
<g opacity="0.5" transform="translate(1004)">
        <mask id="mask0_69_10284" style="mask-type:alpha" maskUnits="userSpaceOnUse" x="0" y="0" width="502" height="502">
            <circle cx="38.0145" cy="5.24546" r="5.24526" transform="rotate(180 38.0145 5.24546)" fill="#FFFFF2"/>
            <circle cx="300.151" cy="5.24546" r="5.24526" transform="rotate(180 300.151 5.24546)" fill="#FFFFF2"/>
            <circle cx="169.082" cy="5.24546" r="5.24526" transform="rotate(180 169.082 5.24546)" fill="#FFFFF2"/>
            <circle cx="431.22" cy="5.24546" r="5.24526" transform="rotate(180 431.22 5.24546)" fill="#FFFFF2"/>
            <circle cx="103.547" cy="5.24546" r="5.24526" transform="rotate(180 103.547 5.24546)" fill="#FFFFF2"/>
            <circle cx="365.685" cy="5.24546" r="5.24526" transform="rotate(180 365.685 5.24546)" fill="#FFFFF2"/>
            <circle cx="234.615" cy="5.24546" r="5.24526" transform="rotate(180 234.615 5.24546)" fill="#FFFFF2"/>
            <circle cx="496.755" cy="5.24546" r="5.24526" transform="rotate(180 496.755 5.24546)" fill="#FFFFF2"/>
            <circle cx="5.24546" cy="5.24546" r="5.24526" transform="rotate(180 5.24546 5.24546)" fill="#FFFFF2"/>
            <circle cx="267.384" cy="5.24546" r="5.24526" transform="rotate(180 267.384 5.24546)" fill="#FFFFF2"/>
            <circle cx="136.315" cy="5.24546" r="5.24526" transform="rotate(180 136.315 5.24546)" fill="#FFFFF2"/>
            <circle cx="398.452" cy="5.24546" r="5.24526" transform="rotate(180 398.452 5.24546)" fill="#FFFFF2"/>
            <circle cx="70.7801" cy="5.24546" r="5.24526" transform="rotate(180 70.7801 5.24546)" fill="#FFFFF2"/>
            <circle cx="332.918" cy="5.24546" r="5.24526" transform="rotate(180 332.918 5.24546)" fill="#FFFFF2"/>
            <circle cx="201.848" cy="5.24546" r="5.24526" transform="rotate(180 201.848 5.24546)" fill="#FFFFF2"/>
            <circle cx="463.989" cy="5.24546" r="5.24526" transform="rotate(180 463.989 5.24546)" fill="#FFFFF2"/>
            <circle cx="38.0145" cy="267.384" r="5.24526" transform="rotate(180 38.0145 267.384)" fill="#FFFFF2"/>
            <circle cx="300.151" cy="267.384" r="5.24526" transform="rotate(180 300.151 267.384)" fill="#FFFFF2"/>
            <circle cx="169.082" cy="267.384" r="5.24526" transform="rotate(180 169.082 267.384)" fill="#FFFFF2"/>
            <circle cx="431.22" cy="267.384" r="5.24526" transform="rotate(180 431.22 267.384)" fill="#FFFFF2"/>
            <circle cx="103.547" cy="267.384" r="5.24526" transform="rotate(180 103.547 267.384)" fill="#FFFFF2"/>
            <circle cx="365.685" cy="267.384" r="5.24526" transform="rotate(180 365.685 267.384)" fill="#FFFFF2"/>
            <circle cx="234.618" cy="267.384" r="5.24526" transform="rotate(180 234.618 267.384)" fill="#FFFFF2"/>
            <circle cx="496.755" cy="267.384" r="5.24526" transform="rotate(180 496.755 267.384)" fill="#FFFFF2"/>
            <circle cx="5.24546" cy="267.384" r="5.24526" transform="rotate(180 5.24546 267.384)" fill="#FFFFF2"/>
            <circle cx="267.384" cy="267.384" r="5.24526" transform="rotate(180 267.384 267.384)" fill="#FFFFF2"/>
            <circle cx="136.315" cy="267.384" r="5.24526" transform="rotate(180 136.315 267.384)" fill="#FFFFF2"/>
            <circle cx="398.452" cy="267.384" r="5.24526" transform="rotate(180 398.452 267.384)" fill="#FFFFF2"/>
            <circle cx="70.7801" cy="267.384" r="5.24526" transform="rotate(180 70.7801 267.384)" fill="#FFFFF2"/>
            <circle cx="332.918" cy="267.384" r="5.24526" transform="rotate(180 332.918 267.384)" fill="#FFFFF2"/>
            <circle cx="201.848" cy="267.384" r="5.24526" transform="rotate(180 201.848 267.384)" fill="#FFFFF2"/>
            <circle cx="463.989" cy="267.384" r="5.24526" transform="rotate(180 463.989 267.384)" fill="#FFFFF2"/>
            <circle cx="38.015" cy="136.315" r="5.24526" transform="rotate(180 38.015 136.315)" fill="#FFFFF2"/>
            <circle cx="300.151" cy="136.315" r="5.24526" transform="rotate(180 300.151 136.315)" fill="#FFFFF2"/>
            <circle cx="169.082" cy="136.315" r="5.24526" transform="rotate(180 169.082 136.315)" fill="#FFFFF2"/>
            <circle cx="431.22" cy="136.315" r="5.24526" transform="rotate(180 431.22 136.315)" fill="#FFFFF2"/>
            <circle cx="103.547" cy="136.315" r="5.24526" transform="rotate(180 103.547 136.315)" fill="#FFFFF2"/>
            <circle cx="365.685" cy="136.315" r="5.24526" transform="rotate(180 365.685 136.315)" fill="#FFFFF2"/>
            <circle cx="234.615" cy="136.315" r="5.24526" transform="rotate(180 234.615 136.315)" fill="#FFFFF2"/>
            <circle cx="496.755" cy="136.315" r="5.24526" transform="rotate(180 496.755 136.315)" fill="#FFFFF2"/>
            <circle cx="5.24546" cy="136.315" r="5.24526" transform="rotate(180 5.24546 136.315)" fill="#FFFFF2"/>
            <circle cx="267.384" cy="136.315" r="5.24526" transform="rotate(180 267.384 136.315)" fill="#FFFFF2"/>
            <circle cx="136.315" cy="136.315" r="5.24526" transform="rotate(180 136.315 136.315)" fill="#FFFFF2"/>
            <circle cx="398.452" cy="136.315" r="5.24526" transform="rotate(180 398.452 136.315)" fill="#FFFFF2"/>
            <circle cx="70.7806" cy="136.315" r="5.24526" transform="rotate(180 70.7806 136.315)" fill="#FFFFF2"/>
            <circle cx="332.918" cy="136.315" r="5.24526" transform="rotate(180 332.918 136.315)" fill="#FFFFF2"/>
            <circle cx="201.848" cy="136.315" r="5.24526" transform="rotate(180 201.848 136.315)" fill="#FFFFF2"/>
            <circle cx="463.989" cy="136.315" r="5.24526" transform="rotate(180 463.989 136.315)" fill="#FFFFF2"/>
            <circle cx="38.015" cy="398.452" r="5.24526" transform="rotate(180 38.015 398.452)" fill="#FFFFF2"/>
            <circle cx="300.151" cy="398.452" r="5.24526" transform="rotate(180 300.151 398.452)" fill="#FFFFF2"/>
            <circle cx="169.082" cy="398.452" r="5.24526" transform="rotate(180 169.082 398.452)" fill="#FFFFF2"/>
            <circle cx="431.22" cy="398.452" r="5.24526" transform="rotate(180 431.22 398.452)" fill="#FFFFF2"/>
            <circle cx="103.547" cy="398.452" r="5.24526" transform="rotate(180 103.547 398.452)" fill="#FFFFF2"/>
            <circle cx="365.685" cy="398.452" r="5.24526" transform="rotate(180 365.685 398.452)" fill="#FFFFF2"/>
            <circle cx="234.618" cy="398.452" r="5.24526" transform="rotate(180 234.618 398.452)" fill="#FFFFF2"/>
            <circle cx="496.755" cy="398.452" r="5.24526" transform="rotate(180 496.755 398.452)" fill="#FFFFF2"/>
            <circle cx="5.24546" cy="398.452" r="5.24526" transform="rotate(180 5.24546 398.452)" fill="#FFFFF2"/>
            <circle cx="267.384" cy="398.452" r="5.24526" transform="rotate(180 267.384 398.452)" fill="#FFFFF2"/>
            <circle cx="136.315" cy="398.452" r="5.24526" transform="rotate(180 136.315 398.452)" fill="#FFFFF2"/>
            <circle cx="398.452" cy="398.452" r="5.24526" transform="rotate(180 398.452 398.452)" fill="#FFFFF2"/>
            <circle cx="70.7806" cy="398.452" r="5.24526" transform="rotate(180 70.7806 398.452)" fill="#FFFFF2"/>
            <circle cx="332.918" cy="398.452" r="5.24526" transform="rotate(180 332.918 398.452)" fill="#FFFFF2"/>
            <circle cx="201.848" cy="398.452" r="5.24526" transform="rotate(180 201.848 398.452)" fill="#FFFFF2"/>
            <circle cx="463.989" cy="398.452" r="5.24526" transform="rotate(180 463.989 398.452)" fill="#FFFFF2"/>
            <circle cx="38.015" cy="70.7799" r="5.24526" transform="rotate(180 38.015 70.7799)" fill="#FFFFF2"/>
            <circle cx="300.151" cy="70.7799" r="5.24526" transform="rotate(180 300.151 70.7799)" fill="#FFFFF2"/>
            <circle cx="169.082" cy="70.7799" r="5.24526" transform="rotate(180 169.082 70.7799)" fill="#FFFFF2"/>
            <circle cx="431.22" cy="70.7799" r="5.24526" transform="rotate(180 431.22 70.7799)" fill="#FFFFF2"/>
            <circle cx="103.547" cy="70.7799" r="5.24526" transform="rotate(180 103.547 70.7799)" fill="#FFFFF2"/>
            <circle cx="365.685" cy="70.7799" r="5.24526" transform="rotate(180 365.685 70.7799)" fill="#FFFFF2"/>
            <circle cx="234.615" cy="70.7799" r="5.24526" transform="rotate(180 234.615 70.7799)" fill="#FFFFF2"/>
            <circle cx="496.755" cy="70.7799" r="5.24526" transform="rotate(180 496.755 70.7799)" fill="#FFFFF2"/>
            <circle cx="5.24546" cy="70.7799" r="5.24526" transform="rotate(180 5.24546 70.7799)" fill="#FFFFF2"/>
            <circle cx="267.384" cy="70.7799" r="5.24526" transform="rotate(180 267.384 70.7799)" fill="#FFFFF2"/>
            <circle cx="136.315" cy="70.7799" r="5.24526" transform="rotate(180 136.315 70.7799)" fill="#FFFFF2"/>
            <circle cx="398.452" cy="70.7799" r="5.24526" transform="rotate(180 398.452 70.7799)" fill="#FFFFF2"/>
            <circle cx="70.7806" cy="70.7799" r="5.24526" transform="rotate(180 70.7806 70.7799)" fill="#FFFFF2"/>
            <circle cx="332.918" cy="70.7799" r="5.24526" transform="rotate(180 332.918 70.7799)" fill="#FFFFF2"/>
            <circle cx="201.848" cy="70.7799" r="5.24526" transform="rotate(180 201.848 70.7799)" fill="#FFFFF2"/>
            <circle cx="463.989" cy="70.7799" r="5.24526" transform="rotate(180 463.989 70.7799)" fill="#FFFFF2"/>
            <circle cx="38.015" cy="332.918" r="5.24526" transform="rotate(180 38.015 332.918)" fill="#FFFFF2"/>
            <circle cx="300.151" cy="332.918" r="5.24526" transform="rotate(180 300.151 332.918)" fill="#FFFFF2"/>
            <circle cx="169.082" cy="332.918" r="5.24526" transform="rotate(180 169.082 332.918)" fill="#FFFFF2"/>
            <circle cx="431.22" cy="332.918" r="5.24526" transform="rotate(180 431.22 332.918)" fill="#FFFFF2"/>
            <circle cx="103.547" cy="332.918" r="5.24526" transform="rotate(180 103.547 332.918)" fill="#FFFFF2"/>
            <circle cx="365.685" cy="332.918" r="5.24526" transform="rotate(180 365.685 332.918)" fill="#FFFFF2"/>
            <circle cx="234.618" cy="332.918" r="5.24526" transform="rotate(180 234.618 332.918)" fill="#FFFFF2"/>
            <circle cx="496.755" cy="332.918" r="5.24526" transform="rotate(180 496.755 332.918)" fill="#FFFFF2"/>
            <circle cx="5.24546" cy="332.918" r="5.24526" transform="rotate(180 5.24546 332.918)" fill="#FFFFF2"/>
            <circle cx="267.384" cy="332.918" r="5.24526" transform="rotate(180 267.384 332.918)" fill="#FFFFF2"/>
            <circle cx="136.315" cy="332.918" r="5.24526" transform="rotate(180 136.315 332.918)" fill="#FFFFF2"/>
            <circle cx="398.452" cy="332.918" r="5.24526" transform="rotate(180 398.452 332.918)" fill="#FFFFF2"/>
            <circle cx="70.7806" cy="332.918" r="5.24526" transform="rotate(180 70.7806 332.918)" fill="#FFFFF2"/>
            <circle cx="332.918" cy="332.918" r="5.24526" transform="rotate(180 332.918 332.918)" fill="#FFFFF2"/>
            <circle cx="201.848" cy="332.918" r="5.24526" transform="rotate(180 201.848 332.918)" fill="#FFFFF2"/>
            <circle cx="463.989" cy="332.918" r="5.24526" transform="rotate(180 463.989 332.918)" fill="#FFFFF2"/>
            <circle cx="38.015" cy="201.849" r="5.24526" transform="rotate(180 38.015 201.849)" fill="#FFFFF2"/>
            <circle cx="300.151" cy="201.849" r="5.24526" transform="rotate(180 300.151 201.849)" fill="#FFFFF2"/>
            <circle cx="169.082" cy="201.849" r="5.24526" transform="rotate(180 169.082 201.849)" fill="#FFFFF2"/>
            <circle cx="431.22" cy="201.849" r="5.24526" transform="rotate(180 431.22 201.849)" fill="#FFFFF2"/>
            <circle cx="103.547" cy="201.849" r="5.24526" transform="rotate(180 103.547 201.849)" fill="#FFFFF2"/>
            <circle cx="365.685" cy="201.849" r="5.24526" transform="rotate(180 365.685 201.849)" fill="#FFFFF2"/>
            <circle cx="234.618" cy="201.849" r="5.24526" transform="rotate(180 234.618 201.849)" fill="#FFFFF2"/>
            <circle cx="496.755" cy="201.849" r="5.24526" transform="rotate(180 496.755 201.849)" fill="#FFFFF2"/>
            <circle cx="5.24546" cy="201.849" r="5.24526" transform="rotate(180 5.24546 201.849)" fill="#FFFFF2"/>
            <circle cx="267.384" cy="201.849" r="5.24526" transform="rotate(180 267.384 201.849)" fill="#FFFFF2"/>
            <circle cx="136.315" cy="201.849" r="5.24526" transform="rotate(180 136.315 201.849)" fill="#FFFFF2"/>
            <circle cx="398.452" cy="201.849" r="5.24526" transform="rotate(180 398.452 201.849)" fill="#FFFFF2"/>
            <circle cx="70.7806" cy="201.849" r="5.24526" transform="rotate(180 70.7806 201.849)" fill="#FFFFF2"/>
            <circle cx="332.918" cy="201.849" r="5.24526" transform="rotate(180 332.918 201.849)" fill="#FFFFF2"/>
            <circle cx="201.848" cy="201.849" r="5.24526" transform="rotate(180 201.848 201.849)" fill="#FFFFF2"/>
            <circle cx="463.989" cy="201.849" r="5.24526" transform="rotate(180 463.989 201.849)" fill="#FFFFF2"/>
            <circle cx="38.0145" cy="463.987" r="5.24526" transform="rotate(180 38.0145 463.987)" fill="#FFFFF2"/>
            <circle cx="300.151" cy="463.987" r="5.24526" transform="rotate(180 300.151 463.987)" fill="#FFFFF2"/>
            <circle cx="169.083" cy="463.987" r="5.24526" transform="rotate(180 169.083 463.987)" fill="#FFFFF2"/>
            <circle cx="431.22" cy="463.987" r="5.24526" transform="rotate(180 431.22 463.987)" fill="#FFFFF2"/>
            <circle cx="103.547" cy="463.987" r="5.24526" transform="rotate(180 103.547 463.987)" fill="#FFFFF2"/>
            <circle cx="365.685" cy="463.987" r="5.24526" transform="rotate(180 365.685 463.987)" fill="#FFFFF2"/>
            <circle cx="234.618" cy="463.987" r="5.24526" transform="rotate(180 234.618 463.987)" fill="#FFFFF2"/>
            <circle cx="496.755" cy="463.987" r="5.24526" transform="rotate(180 496.755 463.987)" fill="#FFFFF2"/>
            <circle cx="5.24546" cy="463.987" r="5.24526" transform="rotate(180 5.24546 463.987)" fill="#FFFFF2"/>
            <circle cx="267.384" cy="463.987" r="5.24526" transform="rotate(180 267.384 463.987)" fill="#FFFFF2"/>
            <circle cx="136.315" cy="463.987" r="5.24526" transform="rotate(180 136.315 463.987)" fill="#FFFFF2"/>
            <circle cx="398.452" cy="463.987" r="5.24526" transform="rotate(180 398.452 463.987)" fill="#FFFFF2"/>
            <circle cx="70.7801" cy="463.987" r="5.24526" transform="rotate(180 70.7801 463.987)" fill="#FFFFF2"/>
            <circle cx="332.918" cy="463.987" r="5.24526" transform="rotate(180 332.918 463.987)" fill="#FFFFF2"/>
            <circle cx="201.848" cy="463.987" r="5.24526" transform="rotate(180 201.848 463.987)" fill="#FFFFF2"/>
            <circle cx="463.989" cy="463.987" r="5.24526" transform="rotate(180 463.989 463.987)" fill="#FFFFF2"/>
            <circle cx="38.0145" cy="38.0128" r="5.24526" transform="rotate(180 38.0145 38.0128)" fill="#FFFFF2"/>
            <circle cx="300.151" cy="38.0128" r="5.24526" transform="rotate(180 300.151 38.0128)" fill="#FFFFF2"/>
            <circle cx="169.082" cy="38.0128" r="5.24526" transform="rotate(180 169.082 38.0128)" fill="#FFFFF2"/>
            <circle cx="431.22" cy="38.0128" r="5.24526" transform="rotate(180 431.22 38.0128)" fill="#FFFFF2"/>
            <circle cx="103.547" cy="38.0128" r="5.24526" transform="rotate(180 103.547 38.0128)" fill="#FFFFF2"/>
            <circle cx="365.685" cy="38.0128" r="5.24526" transform="rotate(180 365.685 38.0128)" fill="#FFFFF2"/>
            <circle cx="234.618" cy="38.0128" r="5.24526" transform="rotate(180 234.618 38.0128)" fill="#FFFFF2"/>
            <circle cx="496.755" cy="38.0128" r="5.24526" transform="rotate(180 496.755 38.0128)" fill="#FFFFF2"/>
            <circle cx="5.24546" cy="38.0128" r="5.24526" transform="rotate(180 5.24546 38.0128)" fill="#FFFFF2"/>
            <circle cx="267.384" cy="38.0128" r="5.24526" transform="rotate(180 267.384 38.0128)" fill="#FFFFF2"/>
            <circle cx="136.315" cy="38.0128" r="5.24526" transform="rotate(180 136.315 38.0128)" fill="#FFFFF2"/>
            <circle cx="398.452" cy="38.0128" r="5.24526" transform="rotate(180 398.452 38.0128)" fill="#FFFFF2"/>
            <circle cx="70.7801" cy="38.0128" r="5.24526" transform="rotate(180 70.7801 38.0128)" fill="#FFFFF2"/>
            <circle cx="332.918" cy="38.0128" r="5.24526" transform="rotate(180 332.918 38.0128)" fill="#FFFFF2"/>
            <circle cx="201.848" cy="38.0128" r="5.24526" transform="rotate(180 201.848 38.0128)" fill="#FFFFF2"/>
            <circle cx="463.989" cy="38.0128" r="5.24526" transform="rotate(180 463.989 38.0128)" fill="#FFFFF2"/>
            <circle cx="38.015" cy="300.15" r="5.24526" transform="rotate(180 38.015 300.15)" fill="#FFFFF2"/>
            <circle cx="300.151" cy="300.15" r="5.24526" transform="rotate(180 300.151 300.15)" fill="#FFFFF2"/>
            <circle cx="169.082" cy="300.15" r="5.24526" transform="rotate(180 169.082 300.15)" fill="#FFFFF2"/>
            <circle cx="431.22" cy="300.15" r="5.24526" transform="rotate(180 431.22 300.15)" fill="#FFFFF2"/>
            <circle cx="103.547" cy="300.15" r="5.24526" transform="rotate(180 103.547 300.15)" fill="#FFFFF2"/>
            <circle cx="365.685" cy="300.15" r="5.24526" transform="rotate(180 365.685 300.15)" fill="#FFFFF2"/>
            <circle cx="234.615" cy="300.15" r="5.24526" transform="rotate(180 234.615 300.15)" fill="#FFFFF2"/>
            <circle cx="496.755" cy="300.15" r="5.24526" transform="rotate(180 496.755 300.15)" fill="#FFFFF2"/>
            <circle cx="5.24546" cy="300.15" r="5.24526" transform="rotate(180 5.24546 300.15)" fill="#FFFFF2"/>
            <circle cx="267.384" cy="300.15" r="5.24526" transform="rotate(180 267.384 300.15)" fill="#FFFFF2"/>
            <circle cx="136.315" cy="300.15" r="5.24526" transform="rotate(180 136.315 300.15)" fill="#FFFFF2"/>
            <circle cx="398.452" cy="300.15" r="5.24526" transform="rotate(180 398.452 300.15)" fill="#FFFFF2"/>
            <circle cx="70.7806" cy="300.15" r="5.24526" transform="rotate(180 70.7806 300.15)" fill="#FFFFF2"/>
            <circle cx="332.918" cy="300.15" r="5.24526" transform="rotate(180 332.918 300.15)" fill="#FFFFF2"/>
            <circle cx="201.848" cy="300.15" r="5.24526" transform="rotate(180 201.848 300.15)" fill="#FFFFF2"/>
            <circle cx="463.989" cy="300.15" r="5.24526" transform="rotate(180 463.989 300.15)" fill="#FFFFF2"/>
            <circle cx="38.015" cy="169.082" r="5.24526" transform="rotate(180 38.015 169.082)" fill="#FFFFF2"/>
            <circle cx="300.151" cy="169.082" r="5.24526" transform="rotate(180 300.151 169.082)" fill="#FFFFF2"/>
            <circle cx="169.082" cy="169.082" r="5.24526" transform="rotate(180 169.082 169.082)" fill="#FFFFF2"/>
            <circle cx="431.22" cy="169.082" r="5.24526" transform="rotate(180 431.22 169.082)" fill="#FFFFF2"/>
            <circle cx="103.547" cy="169.082" r="5.24526" transform="rotate(180 103.547 169.082)" fill="#FFFFF2"/>
            <circle cx="365.685" cy="169.082" r="5.24526" transform="rotate(180 365.685 169.082)" fill="#FFFFF2"/>
            <circle cx="234.616" cy="169.082" r="5.24526" transform="rotate(180 234.616 169.082)" fill="#FFFFF2"/>
            <circle cx="496.755" cy="169.081" r="5.24526" transform="rotate(180 496.755 169.081)" fill="#FFFFF2"/>
            <circle cx="5.24546" cy="169.082" r="5.24526" transform="rotate(180 5.24546 169.082)" fill="#FFFFF2"/>
            <circle cx="267.384" cy="169.082" r="5.24526" transform="rotate(180 267.384 169.082)" fill="#FFFFF2"/>
            <circle cx="136.315" cy="169.082" r="5.24526" transform="rotate(180 136.315 169.082)" fill="#FFFFF2"/>
            <circle cx="398.452" cy="169.082" r="5.24526" transform="rotate(180 398.452 169.082)" fill="#FFFFF2"/>
            <circle cx="70.7806" cy="169.082" r="5.24526" transform="rotate(180 70.7806 169.082)" fill="#FFFFF2"/>
            <circle cx="332.918" cy="169.082" r="5.24526" transform="rotate(180 332.918 169.082)" fill="#FFFFF2"/>
            <circle cx="201.848" cy="169.082" r="5.24526" transform="rotate(180 201.848 169.082)" fill="#FFFFF2"/>
            <circle cx="463.989" cy="169.082" r="5.24526" transform="rotate(180 463.989 169.082)" fill="#FFFFF2"/>
            <circle cx="38.0145" cy="431.22" r="5.24526" transform="rotate(180 38.0145 431.22)" fill="#FFFFF2"/>
            <circle cx="300.151" cy="431.22" r="5.24526" transform="rotate(180 300.151 431.22)" fill="#FFFFF2"/>
            <circle cx="169.082" cy="431.22" r="5.24526" transform="rotate(180 169.082 431.22)" fill="#FFFFF2"/>
            <circle cx="431.22" cy="431.22" r="5.24526" transform="rotate(180 431.22 431.22)" fill="#FFFFF2"/>
            <circle cx="103.547" cy="431.22" r="5.24526" transform="rotate(180 103.547 431.22)" fill="#FFFFF2"/>
            <circle cx="365.685" cy="431.22" r="5.24526" transform="rotate(180 365.685 431.22)" fill="#FFFFF2"/>
            <circle cx="234.615" cy="431.22" r="5.24526" transform="rotate(180 234.615 431.22)" fill="#FFFFF2"/>
            <circle cx="496.755" cy="431.22" r="5.24526" transform="rotate(180 496.755 431.22)" fill="#FFFFF2"/>
            <circle cx="5.24546" cy="431.22" r="5.24526" transform="rotate(180 5.24546 431.22)" fill="#FFFFF2"/>
            <circle cx="267.384" cy="431.22" r="5.24526" transform="rotate(180 267.384 431.22)" fill="#FFFFF2"/>
            <circle cx="136.315" cy="431.22" r="5.24526" transform="rotate(180 136.315 431.22)" fill="#FFFFF2"/>
            <circle cx="398.452" cy="431.22" r="5.24526" transform="rotate(180 398.452 431.22)" fill="#FFFFF2"/>
            <circle cx="70.7801" cy="431.22" r="5.24526" transform="rotate(180 70.7801 431.22)" fill="#FFFFF2"/>
            <circle cx="332.918" cy="431.22" r="5.24526" transform="rotate(180 332.918 431.22)" fill="#FFFFF2"/>
            <circle cx="201.848" cy="431.22" r="5.24526" transform="rotate(180 201.848 431.22)" fill="#FFFFF2"/>
            <circle cx="463.989" cy="431.22" r="5.24526" transform="rotate(180 463.989 431.22)" fill="#FFFFF2"/>
            <circle cx="38.0145" cy="103.547" r="5.24526" transform="rotate(180 38.0145 103.547)" fill="#FFFFF2"/>
            <circle cx="300.151" cy="103.547" r="5.24526" transform="rotate(180 300.151 103.547)" fill="#FFFFF2"/>
            <circle cx="169.082" cy="103.547" r="5.24526" transform="rotate(180 169.082 103.547)" fill="#FFFFF2"/>
            <circle cx="431.22" cy="103.547" r="5.24526" transform="rotate(180 431.22 103.547)" fill="#FFFFF2"/>
            <circle cx="103.547" cy="103.547" r="5.24526" transform="rotate(180 103.547 103.547)" fill="#FFFFF2"/>
            <circle cx="365.685" cy="103.547" r="5.24526" transform="rotate(180 365.685 103.547)" fill="#FFFFF2"/>
            <circle cx="234.615" cy="103.547" r="5.24526" transform="rotate(180 234.615 103.547)" fill="#FFFFF2"/>
            <circle cx="496.755" cy="103.547" r="5.24526" transform="rotate(180 496.755 103.547)" fill="#FFFFF2"/>
            <circle cx="5.24546" cy="103.547" r="5.24526" transform="rotate(180 5.24546 103.547)" fill="#FFFFF2"/>
            <circle cx="267.384" cy="103.547" r="5.24526" transform="rotate(180 267.384 103.547)" fill="#FFFFF2"/>
            <circle cx="136.315" cy="103.547" r="5.24526" transform="rotate(180 136.315 103.547)" fill="#FFFFF2"/>
            <circle cx="398.452" cy="103.547" r="5.24526" transform="rotate(180 398.452 103.547)" fill="#FFFFF2"/>
            <circle cx="70.7801" cy="103.547" r="5.24526" transform="rotate(180 70.7801 103.547)" fill="#FFFFF2"/>
            <circle cx="332.918" cy="103.547" r="5.24526" transform="rotate(180 332.918 103.547)" fill="#FFFFF2"/>
            <circle cx="201.848" cy="103.547" r="5.24526" transform="rotate(180 201.848 103.547)" fill="#FFFFF2"/>
            <circle cx="463.989" cy="103.547" r="5.24526" transform="rotate(180 463.989 103.547)" fill="#FFFFF2"/>
            <circle cx="38.0145" cy="365.685" r="5.24526" transform="rotate(180 38.0145 365.685)" fill="#FFFFF2"/>
            <circle cx="300.151" cy="365.685" r="5.24526" transform="rotate(180 300.151 365.685)" fill="#FFFFF2"/>
            <circle cx="169.082" cy="365.685" r="5.24526" transform="rotate(180 169.082 365.685)" fill="#FFFFF2"/>
            <circle cx="431.22" cy="365.685" r="5.24526" transform="rotate(180 431.22 365.685)" fill="#FFFFF2"/>
            <circle cx="103.547" cy="365.685" r="5.24526" transform="rotate(180 103.547 365.685)" fill="#FFFFF2"/>
            <circle cx="365.685" cy="365.685" r="5.24526" transform="rotate(180 365.685 365.685)" fill="#FFFFF2"/>
            <circle cx="234.615" cy="365.685" r="5.24526" transform="rotate(180 234.615 365.685)" fill="#FFFFF2"/>
            <circle cx="496.755" cy="365.685" r="5.24526" transform="rotate(180 496.755 365.685)" fill="#FFFFF2"/>
            <circle cx="5.24546" cy="365.685" r="5.24526" transform="rotate(180 5.24546 365.685)" fill="#FFFFF2"/>
            <circle cx="267.384" cy="365.685" r="5.24526" transform="rotate(180 267.384 365.685)" fill="#FFFFF2"/>
            <circle cx="136.315" cy="365.685" r="5.24526" transform="rotate(180 136.315 365.685)" fill="#FFFFF2"/>
            <circle cx="398.452" cy="365.685" r="5.24526" transform="rotate(180 398.452 365.685)" fill="#FFFFF2"/>
            <circle cx="70.7801" cy="365.685" r="5.24526" transform="rotate(180 70.7801 365.685)" fill="#FFFFF2"/>
            <circle cx="332.918" cy="365.685" r="5.24526" transform="rotate(180 332.918 365.685)" fill="#FFFFF2"/>
            <circle cx="201.848" cy="365.685" r="5.24526" transform="rotate(180 201.848 365.685)" fill="#FFFFF2"/>
            <circle cx="463.989" cy="365.685" r="5.24526" transform="rotate(180 463.989 365.685)" fill="#FFFFF2"/>
            <circle cx="38.0145" cy="234.616" r="5.24526" transform="rotate(180 38.0145 234.616)" fill="#FFFFF2"/>
            <circle cx="300.151" cy="234.616" r="5.24526" transform="rotate(180 300.151 234.616)" fill="#FFFFF2"/>
            <circle cx="169.082" cy="234.616" r="5.24526" transform="rotate(180 169.082 234.616)" fill="#FFFFF2"/>
            <circle cx="431.22" cy="234.616" r="5.24526" transform="rotate(180 431.22 234.616)" fill="#FFFFF2"/>
            <circle cx="103.547" cy="234.616" r="5.24526" transform="rotate(180 103.547 234.616)" fill="#FFFFF2"/>
            <circle cx="365.685" cy="234.616" r="5.24526" transform="rotate(180 365.685 234.616)" fill="#FFFFF2"/>
            <circle cx="234.615" cy="234.616" r="5.24526" transform="rotate(180 234.615 234.616)" fill="#FFFFF2"/>
            <circle cx="496.755" cy="234.616" r="5.24526" transform="rotate(180 496.755 234.616)" fill="#FFFFF2"/>
            <circle cx="5.24546" cy="234.616" r="5.24526" transform="rotate(180 5.24546 234.616)" fill="#FFFFF2"/>
            <circle cx="267.384" cy="234.616" r="5.24526" transform="rotate(180 267.384 234.616)" fill="#FFFFF2"/>
            <circle cx="136.315" cy="234.616" r="5.24526" transform="rotate(180 136.315 234.616)" fill="#FFFFF2"/>
            <circle cx="398.452" cy="234.616" r="5.24526" transform="rotate(180 398.452 234.616)" fill="#FFFFF2"/>
            <circle cx="70.7801" cy="234.616" r="5.24526" transform="rotate(180 70.7801 234.616)" fill="#FFFFF2"/>
            <circle cx="332.918" cy="234.616" r="5.24526" transform="rotate(180 332.918 234.616)" fill="#FFFFF2"/>
            <circle cx="201.848" cy="234.616" r="5.24526" transform="rotate(180 201.848 234.616)" fill="#FFFFF2"/>
            <circle cx="463.989" cy="234.616" r="5.24526" transform="rotate(180 463.989 234.616)" fill="#FFFFF2"/>
            <circle cx="38.0145" cy="496.754" r="5.24526" transform="rotate(180 38.0145 496.754)" fill="#FFFFF2"/>
            <circle cx="300.151" cy="496.754" r="5.24526" transform="rotate(180 300.151 496.754)" fill="#FFFFF2"/>
            <circle cx="169.082" cy="496.754" r="5.24526" transform="rotate(180 169.082 496.754)" fill="#FFFFF2"/>
            <circle cx="431.22" cy="496.754" r="5.24526" transform="rotate(180 431.22 496.754)" fill="#FFFFF2"/>
            <circle cx="103.547" cy="496.754" r="5.24526" transform="rotate(180 103.547 496.754)" fill="#FFFFF2"/>
            <circle cx="365.685" cy="496.754" r="5.24526" transform="rotate(180 365.685 496.754)" fill="#FFFFF2"/>
            <circle cx="234.615" cy="496.754" r="5.24526" transform="rotate(180 234.615 496.754)" fill="#FFFFF2"/>
            <circle cx="496.755" cy="496.754" r="5.24526" transform="rotate(180 496.755 496.754)" fill="#FFFFF2"/>
            <circle cx="5.24546" cy="496.754" r="5.24526" transform="rotate(180 5.24546 496.754)" fill="#FFFFF2"/>
            <circle cx="267.384" cy="496.754" r="5.24526" transform="rotate(180 267.384 496.754)" fill="#FFFFF2"/>
            <circle cx="136.315" cy="496.754" r="5.24526" transform="rotate(180 136.315 496.754)" fill="#FFFFF2"/>
            <circle cx="398.452" cy="496.754" r="5.24526" transform="rotate(180 398.452 496.754)" fill="#FFFFF2"/>
            <circle cx="70.7801" cy="496.754" r="5.24526" transform="rotate(180 70.7801 496.754)" fill="#FFFFF2"/>
            <circle cx="332.918" cy="496.754" r="5.24526" transform="rotate(180 332.918 496.754)" fill="#FFFFF2"/>
            <circle cx="201.848" cy="496.754" r="5.24526" transform="rotate(180 201.848 496.754)" fill="#FFFFF2"/>
            <circle cx="463.989" cy="496.754" r="5.24526" transform="rotate(180 463.989 496.754)" fill="#FFFFF2"/>
        </mask>
        <g mask="url(#mask0_69_10284)">
            <circle cx="251.216" cy="262.138" r="202.065" fill="#C2C2C2"/>
        </g>
    </g>
</svg>
