<svg viewBox="0 0 880 712" fill="none" xmlns="http://www.w3.org/2000/svg" xmlns:xlink="http://www.w3.org/1999/xlink">
	<g transform="translate(0, 150)">
		<g opacity="0.5">
			<path d="M441.15 160.251C393.053 193.422 518.661 250.454 489.999 302.472C461.337 354.491 381.984 251.202 331.187 220.468C280.389 189.734 128.626 301.062 157.288 249.044C185.949 197.025 627.865 31.4584 441.15 160.251Z" stroke="black" stroke-miterlimit="10"/>
			<path d="M730.029 -263.265C936.22 4.81286 617.163 182.426 891.106 564.755C1088.26 839.906 369.987 951.381 84.6218 778.454C-200.743 605.528 -38.0643 286.553 -4.31489 -49.1144C36.4614 -454.507 539.38 -511.134 730.029 -263.265Z" fill="url(#paint0_radial_69_5015)"/>
			<path d="M454.293 142.001C413.522 181.307 525.297 248.089 507.772 313.709C491.144 375.954 382.044 281.901 321.218 245.099C260.392 208.298 123.433 300.479 151.816 236.031C180.2 171.583 610.073 -8.21186 454.293 142.001Z" stroke="black" stroke-width="1.1" stroke-miterlimit="10"/>
			<path d="M467.389 123.799C441.878 177.25 531.404 244.766 525.495 324.975C520.235 396.521 382.093 312.614 311.211 269.728C240.328 226.843 118.051 299.809 146.328 223.043C176.64 140.751 619.637 -14.3734 467.399 123.781L467.389 123.799Z" stroke="black" stroke-width="1.2" stroke-miterlimit="10"/>
			<path d="M480.498 105.577C466.286 169.164 536.841 241.105 543.234 336.231C548.644 416.803 382.141 343.327 301.215 294.366C220.289 245.404 112.569 299.079 140.817 210.061C171.778 112.503 615.511 -37.2944 480.498 105.577Z" stroke="black" stroke-width="1.3" stroke-miterlimit="10"/>
			<path d="M493.581 87.374C490.655 161.116 541.743 237.486 560.951 347.515C576.595 437.113 382.143 374.054 291.171 319.015C200.199 263.976 106.948 298.341 135.265 197.103C166.814 84.2615 611.386 -60.1942 493.581 87.374Z" stroke="black" stroke-width="1.4" stroke-miterlimit="10"/>
			<path d="M506.675 69.1742C515.027 153.047 546.306 234.019 578.682 358.817C604.29 457.564 382.167 404.811 281.143 343.691C180.12 282.57 101.306 297.638 129.702 184.155C161.78 56.0102 607.28 -83.1002 506.675 69.1742Z" stroke="black" stroke-width="1.5" stroke-miterlimit="10"/>
			<path d="M519.741 51.0098C539.38 145.049 550.625 230.748 596.363 370.184C631.808 478.196 382.137 435.62 271.038 368.403C159.939 301.187 95.523 296.934 124.07 171.241C156.645 27.7615 603.125 -105.975 519.741 51.0098Z" stroke="black" stroke-width="1.6" stroke-miterlimit="10"/>
			<path d="M532.784 32.8291C563.706 137.014 554.792 227.585 614.053 381.553C659.255 498.952 382.09 466.456 260.926 393.148C139.761 319.841 89.7145 296.272 118.407 158.329C151.453 -0.489523 598.975 -128.883 532.774 32.8467L532.784 32.8291Z" stroke="black" stroke-width="1.7" stroke-miterlimit="10"/>
			<path d="M545.828 14.6809C588.043 129.043 558.89 224.583 631.746 392.966C686.642 519.834 382.023 497.332 250.788 417.931C119.553 338.53 83.8457 295.618 112.735 145.453C146.236 -28.7216 594.805 -151.772 545.818 14.6985L545.828 14.6809Z" stroke="black" stroke-width="1.8" stroke-miterlimit="10"/>
			<path d="M558.877 -3.48585C612.398 121.037 562.933 221.668 649.445 404.36C714.04 540.77 381.988 528.185 240.683 442.691C99.3782 357.196 78.004 294.955 107.082 132.538C141.011 -56.9843 590.663 -174.685 558.877 -3.48585Z" stroke="black" stroke-width="1.9" stroke-miterlimit="10"/>
			<path d="M571.916 -21.6381C636.717 113.052 566.933 218.82 667.132 415.768C741.409 561.755 381.933 559.072 230.54 467.474C79.1477 375.876 72.1273 294.312 101.411 119.655C135.757 -85.1987 586.495 -197.564 571.916 -21.6381Z" stroke="black" stroke-width="2" stroke-miterlimit="10"/>
			<path d="M584.96 -39.8164C661.069 105.034 570.926 216.009 684.824 427.151C768.772 582.777 381.865 589.924 220.42 492.244C58.974 394.563 66.2589 293.643 95.7572 106.727C130.513 -113.486 582.34 -220.484 584.96 -39.8164Z" stroke="black" stroke-width="2.1" stroke-miterlimit="10"/>
			<path d="M598.002 -57.9707C685.393 97.0476 574.896 213.256 702.515 438.556C796.141 603.85 381.813 620.812 210.28 517.027C38.7474 413.243 60.374 292.985 90.0945 93.84C125.25 -141.714 578.17 -243.362 598.002 -57.9707Z" stroke="black" stroke-width="2.2" stroke-miterlimit="10"/>
			<path d="M611.058 -76.1416C709.759 89.0372 578.876 210.533 720.218 449.945C823.514 624.924 381.784 651.666 200.181 541.789C18.578 431.911 54.5213 292.321 84.4562 80.9181C119.994 -169.988 574.021 -266.273 611.067 -76.1592L611.058 -76.1416Z" stroke="black" stroke-width="2.3" stroke-miterlimit="10"/>
			<path d="M629.096 -91.258C712.913 98.6061 587.83 210.864 742.897 464.356C855.866 649.038 386.724 685.539 195.062 569.575C3.39904 453.611 53.6407 294.686 83.8226 71.0585C119.731 -195.168 547.514 -276.108 629.106 -91.2757L629.096 -91.258Z" stroke="black" stroke-width="2.4" stroke-miterlimit="10"/>
			<path d="M637.099 -112.438C736.003 86.5167 586.744 205.195 755.548 472.739C878.185 667.153 381.631 713.407 179.897 591.35C-21.8369 469.292 42.707 291.022 73.1107 55.1629C109.384 -226.428 542.871 -301.989 637.099 -112.438Z" stroke="black" stroke-width="2.5" stroke-miterlimit="10"/>
			<path d="M650.152 -130.6C764.229 77.0025 590.707 202.545 773.222 484.147C905.546 688.302 381.571 744.284 169.749 616.123C-42.0734 487.961 36.3869 290.297 67.4532 42.2392C103.572 -254.771 543.045 -325.509 650.152 -130.6Z" stroke="black" stroke-width="2.6" stroke-miterlimit="10"/>
			<path d="M663.217 -148.778C792.461 67.069 594.69 199.907 790.935 495.531C932.937 709.447 381.523 775.146 159.647 640.901C-62.2298 506.657 30.5793 289.648 61.8156 29.3273C98.3944 -283.014 542.997 -349.539 663.217 -148.778Z" stroke="black" stroke-width="2.7" stroke-miterlimit="10"/>
			<path d="M676.251 -166.952C820.613 56.8525 598.63 197.291 808.616 506.921C960.313 730.607 381.46 806.025 149.495 665.676C-82.4703 525.327 24.7845 289.007 56.1735 16.4126C93.2296 -311.248 542.718 -374.035 676.278 -166.959L676.251 -166.952Z" stroke="black" stroke-width="2.8" stroke-miterlimit="10"/>
			<path d="M689.308 -185.136C848.687 46.3971 602.594 194.664 826.322 518.299C987.714 751.755 381.421 836.891 139.385 690.449C-102.652 544.006 18.971 288.35 50.5029 3.50043C88.0191 -339.491 542.176 -398.857 689.299 -185.119L689.308 -185.136Z" stroke="black" stroke-width="2.9" stroke-miterlimit="10"/>
			<path d="M702.357 -203.302C876.646 35.7794 606.17 192.368 844.018 529.697C1014.82 773.15 381.366 867.751 129.258 715.214C-122.85 562.678 13.1585 287.695 44.86 -9.41688C82.8534 -367.728 541.456 -424.019 702.357 -203.302Z" stroke="black" stroke-width="3" stroke-miterlimit="10"/>
			<path d="M715.404 -221.493C904.513 25.0096 610.525 189.461 861.713 541.068C1042.49 794.11 381.317 898.611 119.137 739.982C-143.042 581.352 7.38007 287.035 39.207 -22.3433C77.6602 -395.985 540.55 -449.413 715.404 -221.493Z" stroke="black" stroke-width="3.1" stroke-miterlimit="10"/>
			<path d="M736.722 -264.35C942.094 3.3512 622.823 181.945 895.612 563.79C1091.94 838.593 373.903 952.081 89.177 779.809C-195.549 607.538 -32.1911 287.91 2.37295 -48.074C44.1331 -453.848 546.83 -511.87 736.722 -264.35Z" fill="url(#paint1_radial_69_5015)"/>
		</g>
	</g>
	<defs>
		<pattern id="pattern0" patternContentUnits="objectBoundingBox" width="1" height="1">
			<use xlink:href="#image0_69_5015" transform="matrix(0.00531915 0 0 0.00578484 0 -0.00617376)"/>
		</pattern>
		<pattern id="pattern1" patternContentUnits="objectBoundingBox" width="1" height="1">
			<use xlink:href="#image1_69_5015" transform="matrix(0.00494143 0 0 0.00558659 -0.0262627 0)"/>
		</pattern>
		<pattern id="pattern2" patternContentUnits="objectBoundingBox" width="1" height="1">
			<use xlink:href="#image2_69_5015" transform="matrix(0.00454545 0 0 0.00567783 0 -0.00532651)"/>
		</pattern>
		<pattern id="pattern3" patternContentUnits="objectBoundingBox" width="1" height="1">
			<use xlink:href="#image3_69_5015" transform="matrix(0.00556001 0 0 0.00553028 -0.666667 -0.000489919)"/>
		</pattern>
		<radialGradient id="paint0_radial_69_5015" cx="0" cy="0" r="1" gradientUnits="userSpaceOnUse" gradientTransform="translate(559.877 360.637) rotate(62.352) scale(503.654 398.896)">
			<stop stop-color="white" stop-opacity="0"/>
			<stop offset="1" stop-color="white"/>
		</radialGradient>
		<radialGradient id="paint1_radial_69_5015" cx="0" cy="0" r="1" gradientUnits="userSpaceOnUse" gradientTransform="translate(565.133 360.43) rotate(62.464) scale(502.765 399.577)">
			<stop stop-color="white" stop-opacity="0"/>
			<stop offset="1" stop-color="white"/>
		</radialGradient>>
	</defs>
</svg>
