<?xml version="1.0" encoding="UTF-8" standalone="no"?>
<svg
   viewBox="0 0 1000 1300"
   fill="none"
   version="1.1"
   id="svg31"
   sodipodi:docname="fingerprint-stage-slice.svg"
   inkscape:version="1.3.2 (091e20e, 2023-11-25)"
   width="1000"
   height="1300"
   xmlns:inkscape="http://www.inkscape.org/namespaces/inkscape"
   xmlns:sodipodi="http://sodipodi.sourceforge.net/DTD/sodipodi-0.dtd"
   xmlns:xlink="http://www.w3.org/1999/xlink"
   xmlns="http://www.w3.org/2000/svg"
   xmlns:svg="http://www.w3.org/2000/svg">
  <sodipodi:namedview
     id="namedview31"
     pagecolor="#ffffff"
     bordercolor="#000000"
     borderopacity="0.25"
     inkscape:showpageshadow="2"
     inkscape:pageopacity="0.0"
     inkscape:pagecheckerboard="0"
     inkscape:deskcolor="#d1d1d1"
     inkscape:zoom="0.33146067"
     inkscape:cx="457.0678"
     inkscape:cy="693.89831"
     inkscape:window-width="1512"
     inkscape:window-height="917"
     inkscape:window-x="0"
     inkscape:window-y="65"
     inkscape:window-maximized="0"
     inkscape:current-layer="svg31" />
  <g
     transform="translate(71.083695,418.50848)"
     id="g25">
    <g
       opacity="0.5"
       id="g24"
       style="display:inline">
      <path
         d="m 441.15,160.251 c -48.097,33.171 77.511,90.203 48.849,142.221 -28.662,52.019 -108.015,-51.27 -158.812,-82.004 -50.798,-30.734 -202.561,80.594 -173.899,28.576 28.661,-52.019 470.577,-217.5856 283.862,-88.793 z"
         stroke="#000000"
         stroke-miterlimit="10"
         id="path1"
         style="display:inline" />
      <path
         d="M 730.029,-263.265 C 936.22,4.81286 617.163,182.426 891.106,564.755 1088.26,839.906 369.987,951.381 84.6218,778.454 -200.743,605.528 -38.0643,286.553 -4.31489,-49.1144 36.4614,-454.507 539.38,-511.134 730.029,-263.265 Z"
         fill="url(#paint0_radial_69_5015)"
         id="path2"
         style="display:none;fill:url(#paint0_radial_69_5015)" />
      <path
         d="m 454.293,142.001 c -40.771,39.306 71.004,106.088 53.479,171.708 -16.628,62.245 -125.728,-31.808 -186.554,-68.61 -60.826,-36.801 -197.785,55.38 -169.402,-9.068 28.384,-64.448 458.257,-244.24286 302.477,-94.03 z"
         stroke="#000000"
         stroke-width="1.1"
         stroke-miterlimit="10"
         id="path3"
         style="display:inline" />
      <path
         d="m 467.389,123.799 c -25.511,53.451 64.015,120.967 58.106,201.176 -5.26,71.546 -143.402,-12.361 -214.284,-55.247 -70.883,-42.885 -193.16,30.081 -164.883,-46.685 30.312,-82.292 473.309,-237.4164 321.071,-99.262 z"
         stroke="#000000"
         stroke-width="1.2"
         stroke-miterlimit="10"
         id="path4"
         style="display:inline" />
      <path
         d="m 480.498,105.577 c -14.212,63.587 56.343,135.528 62.736,230.654 5.41,80.572 -161.093,7.096 -242.019,-41.865 -80.926,-48.962 -188.646,4.713 -160.398,-84.305 30.961,-97.558 474.694,-247.3554 339.681,-104.484 z"
         stroke="#000000"
         stroke-width="1.3"
         stroke-miterlimit="10"
         id="path5"
         style="display:inline" />
      <path
         d="m 493.581,87.374 c -2.926,73.742 48.162,150.112 67.37,260.141 15.644,89.598 -178.808,26.539 -269.78,-28.5 C 200.199,263.976 106.948,298.341 135.265,197.103 166.814,84.2615 611.386,-60.1942 493.581,87.374 Z"
         stroke="#000000"
         stroke-width="1.4"
         stroke-miterlimit="10"
         id="path6"
         style="display:inline" />
      <path
         d="M 506.675,69.1742 C 515.027,153.047 546.306,234.019 578.682,358.817 604.29,457.564 382.167,404.811 281.143,343.691 180.12,282.57 101.306,297.638 129.702,184.155 161.78,56.0102 607.28,-83.1002 506.675,69.1742 Z"
         stroke="#000000"
         stroke-width="1.5"
         stroke-miterlimit="10"
         id="path7"
         style="display:inline" />
      <path
         d="M 519.741,51.0098 C 539.38,145.049 550.625,230.748 596.363,370.184 631.808,478.196 382.137,435.62 271.038,368.403 159.939,301.187 95.523,296.934 124.07,171.241 156.645,27.7615 603.125,-105.975 519.741,51.0098 Z"
         stroke="#000000"
         stroke-width="1.6"
         stroke-miterlimit="10"
         id="path8"
         style="display:inline" />
      <path
         d="M 532.784,32.8291 C 563.706,137.014 554.792,227.585 614.053,381.553 659.255,498.952 382.09,466.456 260.926,393.148 139.761,319.841 89.7145,296.272 118.407,158.329 151.453,-0.489523 598.975,-128.883 532.774,32.8467 Z"
         stroke="#000000"
         stroke-width="1.7"
         stroke-miterlimit="10"
         id="path9"
         style="display:inline" />
      <path
         d="M 545.828,14.6809 C 588.043,129.043 558.89,224.583 631.746,392.966 686.642,519.834 382.023,497.332 250.788,417.931 119.553,338.53 83.8457,295.618 112.735,145.453 146.236,-28.7216 594.805,-151.772 545.818,14.6985 Z"
         stroke="#000000"
         stroke-width="1.8"
         stroke-miterlimit="10"
         id="path10"
         style="display:inline" />
      <path
         d="M 558.877,-3.48585 C 612.398,121.037 562.933,221.668 649.445,404.36 714.04,540.77 381.988,528.185 240.683,442.691 99.3782,357.196 78.004,294.955 107.082,132.538 141.011,-56.9843 590.663,-174.685 558.877,-3.48585 Z"
         stroke="#000000"
         stroke-width="1.9"
         stroke-miterlimit="10"
         id="path11"
         style="display:inline" />
      <path
         d="M 571.916,-21.6381 C 636.717,113.052 566.933,218.82 667.132,415.768 741.409,561.755 381.933,559.072 230.54,467.474 79.1477,375.876 72.1273,294.312 101.411,119.655 135.757,-85.1987 586.495,-197.564 571.916,-21.6381 Z"
         stroke="#000000"
         stroke-width="2"
         stroke-miterlimit="10"
         id="path12"
         style="display:inline" />
      <path
         d="M 584.96,-39.8164 C 661.069,105.034 570.926,216.009 684.824,427.151 768.772,582.777 381.865,589.924 220.42,492.244 58.974,394.563 66.2589,293.643 95.7572,106.727 130.513,-113.486 582.34,-220.484 584.96,-39.8164 Z"
         stroke="#000000"
         stroke-width="2.1"
         stroke-miterlimit="10"
         id="path13"
         style="display:inline" />
      <path
         d="M 598.002,-57.9707 C 685.393,97.0476 574.896,213.256 702.515,438.556 796.141,603.85 381.813,620.812 210.28,517.027 38.7474,413.243 60.374,292.985 90.0945,93.84 125.25,-141.714 578.17,-243.362 598.002,-57.9707 Z"
         stroke="#000000"
         stroke-width="2.2"
         stroke-miterlimit="10"
         id="path14"
         style="display:inline" />
      <path
         d="M 611.058,-76.1416 C 709.759,89.0372 578.876,210.533 720.218,449.945 823.514,624.924 381.784,651.666 200.181,541.789 18.578,431.911 54.5213,292.321 84.4562,80.9181 119.994,-169.988 574.021,-266.273 611.067,-76.1592 Z"
         stroke="#000000"
         stroke-width="2.3"
         stroke-miterlimit="10"
         id="path15"
         style="display:inline" />
      <path
         d="M 629.096,-91.258 C 712.913,98.6061 587.83,210.864 742.897,464.356 855.866,649.038 386.724,685.539 195.062,569.575 3.39904,453.611 53.6407,294.686 83.8226,71.0585 119.731,-195.168 547.514,-276.108 629.106,-91.2757 Z"
         stroke="#000000"
         stroke-width="2.4"
         stroke-miterlimit="10"
         id="path16"
         style="display:inline" />
      <path
         d="M 637.099,-112.438 C 736.003,86.5167 586.744,205.195 755.548,472.739 878.185,667.153 381.631,713.407 179.897,591.35 -21.8369,469.292 42.707,291.022 73.1107,55.1629 109.384,-226.428 542.871,-301.989 637.099,-112.438 Z"
         stroke="#000000"
         stroke-width="2.5"
         stroke-miterlimit="10"
         id="path17"
         style="display:inline" />
      <path
         d="M 650.152,-130.6 C 764.229,77.0025 590.707,202.545 773.222,484.147 905.546,688.302 381.571,744.284 169.749,616.123 -42.0734,487.961 36.3869,290.297 67.4532,42.2392 103.572,-254.771 543.045,-325.509 650.152,-130.6 Z"
         stroke="#000000"
         stroke-width="2.6"
         stroke-miterlimit="10"
         id="path18"
         style="display:inline" />
      <path
         d="M 663.217,-148.778 C 792.461,67.069 594.69,199.907 790.935,495.531 932.937,709.447 381.523,775.146 159.647,640.901 -62.2298,506.657 30.5793,289.648 61.8156,29.3273 98.3944,-283.014 542.997,-349.539 663.217,-148.778 Z"
         stroke="#000000"
         stroke-width="2.7"
         stroke-miterlimit="10"
         id="path19"
         style="display:inline" />
      <path
         d="M 676.251,-166.952 C 820.613,56.8525 598.63,197.291 808.616,506.921 960.313,730.607 381.46,806.025 149.495,665.676 -82.4703,525.327 24.7845,289.007 56.1735,16.4126 93.2296,-311.248 542.718,-374.035 676.278,-166.959 Z"
         stroke="#000000"
         stroke-width="2.8"
         stroke-miterlimit="10"
         id="path20"
         style="display:inline" />
      <path
         d="M 689.308,-185.136 C 848.687,46.3971 602.594,194.664 826.322,518.299 987.714,751.755 381.421,836.891 139.385,690.449 -102.652,544.006 18.971,288.35 50.5029,3.50043 88.0191,-339.491 542.176,-398.857 689.299,-185.119 Z"
         stroke="#000000"
         stroke-width="2.9"
         stroke-miterlimit="10"
         id="path21"
         style="display:inline" />
      <path
         d="M 702.357,-203.302 C 876.646,35.7794 606.17,192.368 844.018,529.697 1014.82,773.15 381.366,867.751 129.258,715.214 -122.85,562.678 13.1585,287.695 44.86,-9.41688 82.8534,-367.728 541.456,-424.019 702.357,-203.302 Z"
         stroke="#000000"
         stroke-width="3"
         stroke-miterlimit="10"
         id="path22"
         style="display:inline" />
      <path
         d="M 715.404,-221.493 C 904.513,25.0096 610.525,189.461 861.713,541.068 1042.49,794.11 381.317,898.611 119.137,739.982 -143.042,581.352 7.38007,287.035 39.207,-22.3433 77.6602,-395.985 540.55,-449.413 715.404,-221.493 Z"
         stroke="#000000"
         stroke-width="3.1"
         stroke-miterlimit="10"
         id="path23"
         style="display:inline" />
      <path
         d="M 736.722,-264.35 C 942.094,3.3512 622.823,181.945 895.612,563.79 1091.94,838.593 373.903,952.081 89.177,779.809 -195.549,607.538 -32.1911,287.91 2.37295,-48.074 44.1331,-453.848 546.83,-511.87 736.722,-264.35 Z"
         fill="url(#paint1_radial_69_5015)"
         id="path24"
         style="display:none;fill:url(#paint1_radial_69_5015)" />
    </g>
  </g>
  <defs
     id="defs31"><pattern
   id="pattern0"
   patternContentUnits="objectBoundingBox"
   width="1"
   height="1">
  <use
     xlink:href="#image0_69_5015"
     transform="matrix(0.00531915 0 0 0.00578484 0 -0.00617376)"
     id="use25" />
</pattern>
<pattern
   id="pattern1"
   patternContentUnits="objectBoundingBox"
   width="1"
   height="1">
  <use
     xlink:href="#image1_69_5015"
     transform="matrix(0.00494143 0 0 0.00558659 -0.0262627 0)"
     id="use26" />
</pattern>
<pattern
   id="pattern2"
   patternContentUnits="objectBoundingBox"
   width="1"
   height="1">
  <use
     xlink:href="#image2_69_5015"
     transform="matrix(0.00454545 0 0 0.00567783 0 -0.00532651)"
     id="use27" />
</pattern>
<pattern
   id="pattern3"
   patternContentUnits="objectBoundingBox"
   width="1"
   height="1">
  <use
     xlink:href="#image3_69_5015"
     transform="matrix(0.00556001 0 0 0.00553028 -0.666667 -0.000489919)"
     id="use28" />
</pattern>
<radialGradient
   id="paint0_radial_69_5015"
   cx="0"
   cy="0"
   r="1"
   gradientUnits="userSpaceOnUse"
   gradientTransform="matrix(233.71474,446.14434,-353.34812,185.10302,559.877,360.637)">
  <stop
     stop-color="white"
     stop-opacity="0"
     id="stop28" />
  <stop
     offset="1"
     stop-color="white"
     id="stop29" />
</radialGradient>
<radialGradient
   id="paint1_radial_69_5015"
   cx="0"
   cy="0"
   r="1"
   gradientUnits="userSpaceOnUse"
   gradientTransform="matrix(232.4312,445.81205,-354.31313,184.72678,565.133,360.43)">
  <stop
     stop-color="white"
     stop-opacity="0"
     id="stop30" />
  <stop
     offset="1"
     stop-color="white"
     id="stop31" />
</radialGradient>
&gt;
	</defs>
</svg>
