<svg width="1600" height="365" viewBox="0 0 1600 365" fill="none" xmlns="http://www.w3.org/2000/svg">
<g clip-path="url(#clip0_3488_6966)">
<g opacity="0.25">
<path d="M766.136 223.257L767.561 285.004L833.954 286.025L832.529 224.278L766.136 223.257Z" fill="url(#paint0_radial_3488_6966)" stroke="white" stroke-width="0.21" stroke-miterlimit="10"/>
<path d="M763.989 216.878L759.227 285.529L836.105 292.438L840.867 223.787L763.989 216.878Z" fill="url(#paint1_radial_3488_6966)" stroke="white" stroke-width="0.24" stroke-miterlimit="10"/>
<path d="M764.275 209.769L751.557 285.183L835.831 299.54L848.55 224.126L764.275 209.769Z" fill="url(#paint2_radial_3488_6966)" stroke="white" stroke-width="0.26" stroke-miterlimit="10"/>
<path d="M765.301 201.918L743.084 284.11L834.813 307.378L857.03 225.186L765.301 201.918Z" fill="url(#paint3_radial_3488_6966)" stroke="white" stroke-width="0.29" stroke-miterlimit="10"/>
<path d="M767.217 193.331L733.793 282.153L832.856 315.951L866.28 227.128L767.217 193.331Z" fill="url(#paint4_radial_3488_6966)" stroke="white" stroke-width="0.32" stroke-miterlimit="10"/>
<path d="M770.248 184.002L723.729 279.159L829.848 325.275L876.368 230.118L770.248 184.002Z" fill="url(#paint5_radial_3488_6966)" stroke="white" stroke-width="0.36" stroke-miterlimit="10"/>
<path d="M774.539 173.975L712.869 274.944L825.528 335.321L887.197 234.352L774.539 173.975Z" fill="url(#paint6_radial_3488_6966)" stroke="white" stroke-width="0.4" stroke-miterlimit="10"/>
<path d="M780.344 163.26L701.297 269.286L819.732 346.036L898.779 240.01L780.344 163.26Z" fill="url(#paint7_radial_3488_6966)" stroke="white" stroke-width="0.44" stroke-miterlimit="10"/>
<path d="M787.864 151.948L689.053 261.988L812.201 357.379L911.013 247.339L787.864 151.948Z" fill="url(#paint8_radial_3488_6966)" stroke="white" stroke-width="0.49" stroke-miterlimit="10"/>
<path d="M797.371 140.078L676.254 252.762L802.707 369.213L923.824 256.529L797.371 140.078Z" fill="url(#paint9_radial_3488_6966)" stroke="white" stroke-width="0.55" stroke-miterlimit="10"/>
<path d="M809.106 127.841L663.023 241.405L790.966 381.46L937.049 267.896L809.106 127.841Z" fill="url(#paint10_radial_3488_6966)" stroke="white" stroke-width="0.61" stroke-miterlimit="10"/>
<path d="M823.371 115.357L649.547 227.612L776.721 393.94L950.545 281.685L823.371 115.357Z" fill="url(#paint11_radial_3488_6966)" stroke="white" stroke-width="0.68" stroke-miterlimit="10"/>
<path d="M840.441 102.844L636.037 211.1L759.669 406.452L964.073 298.197L840.441 102.844Z" fill="url(#paint12_radial_3488_6966)" stroke="white" stroke-width="0.75" stroke-miterlimit="10"/>
<path d="M622.756 191.563L739.496 418.737L977.336 317.737L860.596 90.5624L622.756 191.563Z" fill="url(#paint13_radial_3488_6966)" stroke="white" stroke-width="0.83" stroke-miterlimit="10"/>
<path d="M610.057 168.666L715.928 430.484L990.039 340.617L884.168 78.7986L610.057 168.666Z" fill="url(#paint14_radial_3488_6966)" stroke="white" stroke-width="0.93" stroke-miterlimit="10"/>
<path d="M598.331 142.106L688.654 441.351L1001.77 367.203L911.445 67.9572L598.331 142.106Z" fill="url(#paint15_radial_3488_6966)" stroke="white" stroke-width="1.03" stroke-miterlimit="10"/>
<path d="M588.046 111.496L657.379 450.859L1012.04 397.802L942.707 58.4388L588.046 111.496Z" fill="url(#paint16_radial_3488_6966)" stroke="white" stroke-width="1.14" stroke-miterlimit="10"/>
<path d="M579.758 76.4723L621.838 458.521L1020.33 432.806L978.249 50.7574L579.758 76.4723Z" fill="url(#paint17_radial_3488_6966)" stroke="white" stroke-width="1.27" stroke-miterlimit="10"/>
<path d="M574.11 45.5552L583.604 456.962L1025.97 463.763L1016.47 52.3561L574.11 45.5552Z" fill="url(#paint18_radial_3488_6966)" stroke="white" stroke-width="1.41" stroke-miterlimit="10"/>
<path d="M559.811 2.95567L528.084 460.328L1040.27 506.361L1071.99 48.9882L559.811 2.95567Z" fill="url(#paint19_radial_3488_6966)" stroke="white" stroke-width="1.57" stroke-miterlimit="10"/>
<path d="M561.665 -44.4052L476.926 458.054L1038.42 553.709L1123.16 51.25L561.665 -44.4052Z" fill="url(#paint20_radial_3488_6966)" stroke="white" stroke-width="1.74" stroke-miterlimit="10"/>
<path d="M568.488 -96.645L420.475 450.935L1031.59 605.953L1179.6 58.3737L568.488 -96.645Z" fill="url(#paint21_radial_3488_6966)" stroke="white" stroke-width="1.94" stroke-miterlimit="10"/>
<path d="M581.385 -153.856L358.691 437.944L1018.72 663.129L1241.41 71.3296L581.385 -153.856Z" fill="url(#paint22_radial_3488_6966)" stroke="white" stroke-width="2.15" stroke-miterlimit="10"/>
<path d="M601.512 -215.954L291.584 418.009L998.582 725.244L1308.51 91.2811L601.512 -215.954Z" fill="url(#paint23_radial_3488_6966)" stroke="white" stroke-width="2.39" stroke-miterlimit="10"/>
<path d="M630.185 -282.835L219.309 389.875L969.902 792.142L1380.78 119.431L630.185 -282.835Z" fill="url(#paint24_radial_3488_6966)" stroke="white" stroke-width="2.66" stroke-miterlimit="10"/>
<path d="M668.836 -354.222L142.18 352.187L931.269 863.542L1457.92 157.134L668.836 -354.222Z" fill="url(#paint25_radial_3488_6966)" stroke="white" stroke-width="2.95" stroke-miterlimit="10"/>
<path d="M718.977 -429.705L60.6289 303.453L881.121 939.009L1539.47 205.85L718.977 -429.705Z" fill="url(#paint26_radial_3488_6966)" stroke="white" stroke-width="3.28" stroke-miterlimit="10"/>
<path d="M782.257 -508.661L-24.6807 242.087L817.809 1017.94L1624.75 267.188L782.257 -508.661Z" fill="url(#paint27_radial_3488_6966)" stroke="white" stroke-width="3.65" stroke-miterlimit="10"/>
<path d="M860.466 -590.234L-112.827 166.399L739.604 1099.53L1712.9 342.898L860.466 -590.234Z" fill="url(#paint28_radial_3488_6966)" stroke="white" stroke-width="4.05" stroke-miterlimit="10"/>
<path d="M955.45 -673.383L-202.649 74.5151L644.647 1182.67L1802.75 434.775L955.45 -673.383Z" fill="url(#paint29_radial_3488_6966)" stroke="white" stroke-width="4.5" stroke-miterlimit="10"/>
<path d="M1069.11 -756.725L-292.702 -35.4888L530.979 1266.02L1892.79 544.784L1069.11 -756.725Z" fill="url(#paint30_radial_3488_6966)" stroke="white" stroke-width="5" stroke-miterlimit="10"/>
<rect x="-293.464" y="-21.8979" width="1519.13" height="1519.13" transform="rotate(-30 -293.464 -21.8979)" fill="url(#paint31_radial_3488_6966)"/>
</g>
</g>
<defs>
<radialGradient id="paint0_radial_3488_6966" cx="0" cy="0" r="1" gradientUnits="userSpaceOnUse" gradientTransform="translate(800.045 254.641) rotate(0.880795) scale(33.2005 30.8589)">
<stop offset="0.475" stop-color="#00D2C0"/>
<stop offset="1" stop-color="#00D2C0" stop-opacity="0"/>
</radialGradient>
<radialGradient id="paint1_radial_3488_6966" cx="0" cy="0" r="1" gradientUnits="userSpaceOnUse" gradientTransform="translate(800.047 254.658) rotate(5.13568) scale(38.5939 34.4009)">
<stop offset="0.475" stop-color="#00D2C0"/>
<stop offset="1" stop-color="#00D2C0" stop-opacity="0"/>
</radialGradient>
<radialGradient id="paint2_radial_3488_6966" cx="0" cy="0" r="1" gradientUnits="userSpaceOnUse" gradientTransform="translate(800.053 254.655) rotate(9.66792) scale(42.7445 38.2392)">
<stop offset="0.475" stop-color="#00D2C0"/>
<stop offset="1" stop-color="#00D2C0" stop-opacity="0"/>
</radialGradient>
<radialGradient id="paint3_radial_3488_6966" cx="0" cy="0" r="1" gradientUnits="userSpaceOnUse" gradientTransform="translate(800.057 254.648) rotate(14.2337) scale(47.3172 42.5659)">
<stop offset="0.475" stop-color="#00D2C0"/>
<stop offset="1" stop-color="#00D2C0" stop-opacity="0"/>
</radialGradient>
<radialGradient id="paint4_radial_3488_6966" cx="0" cy="0" r="1" gradientUnits="userSpaceOnUse" gradientTransform="translate(800.036 254.641) rotate(18.8384) scale(52.3348 47.4287)">
<stop offset="0.475" stop-color="#00D2C0"/>
<stop offset="1" stop-color="#00D2C0" stop-opacity="0"/>
</radialGradient>
<radialGradient id="paint5_radial_3488_6966" cx="0" cy="0" r="1" gradientUnits="userSpaceOnUse" gradientTransform="translate(800.048 254.638) rotate(23.488) scale(57.8532 52.9067)">
<stop offset="0.475" stop-color="#00D2C0"/>
<stop offset="1" stop-color="#00D2C0" stop-opacity="0"/>
</radialGradient>
<radialGradient id="paint6_radial_3488_6966" cx="0" cy="0" r="1" gradientUnits="userSpaceOnUse" gradientTransform="translate(800.033 254.648) rotate(28.1882) scale(63.9088 59.0624)">
<stop offset="0.475" stop-color="#00D2C0"/>
<stop offset="1" stop-color="#00D2C0" stop-opacity="0"/>
</radialGradient>
<radialGradient id="paint7_radial_3488_6966" cx="0" cy="0" r="1" gradientUnits="userSpaceOnUse" gradientTransform="translate(800.038 254.648) rotate(32.9446) scale(70.5648 65.9822)">
<stop offset="0.475" stop-color="#00D2C0"/>
<stop offset="1" stop-color="#00D2C0" stop-opacity="0"/>
</radialGradient>
<radialGradient id="paint8_radial_3488_6966" cx="0" cy="0" r="1" gradientUnits="userSpaceOnUse" gradientTransform="translate(800.033 254.663) rotate(37.7615) scale(77.8859 73.752)">
<stop offset="0.475" stop-color="#00D2C0"/>
<stop offset="1" stop-color="#00D2C0" stop-opacity="0"/>
</radialGradient>
<radialGradient id="paint9_radial_3488_6966" cx="0" cy="0" r="1" gradientUnits="userSpaceOnUse" gradientTransform="translate(800.039 254.646) rotate(42.642) scale(85.9523 82.4682)">
<stop offset="0.475" stop-color="#00D2C0"/>
<stop offset="1" stop-color="#00D2C0" stop-opacity="0"/>
</radialGradient>
<radialGradient id="paint10_radial_3488_6966" cx="0" cy="0" r="1" gradientUnits="userSpaceOnUse" gradientTransform="translate(800.036 254.65) rotate(47.5878) scale(94.8481 92.2245)">
<stop offset="0.475" stop-color="#00D2C0"/>
<stop offset="1" stop-color="#00D2C0" stop-opacity="0"/>
</radialGradient>
<radialGradient id="paint11_radial_3488_6966" cx="0" cy="0" r="1" gradientUnits="userSpaceOnUse" gradientTransform="translate(800.046 254.649) rotate(52.5985) scale(104.688 103.134)">
<stop offset="0.475" stop-color="#00D2C0"/>
<stop offset="1" stop-color="#00D2C0" stop-opacity="0"/>
</radialGradient>
<radialGradient id="paint12_radial_3488_6966" cx="0" cy="0" r="1" gradientUnits="userSpaceOnUse" gradientTransform="translate(800.055 254.648) rotate(57.6717) scale(115.593 115.306)">
<stop offset="0.475" stop-color="#00D2C0"/>
<stop offset="1" stop-color="#00D2C0" stop-opacity="0"/>
</radialGradient>
<radialGradient id="paint13_radial_3488_6966" cx="0" cy="0" r="1" gradientUnits="userSpaceOnUse" gradientTransform="translate(800.046 254.65) rotate(-23.0089) scale(129.198 127.366)">
<stop offset="0.475" stop-color="#00D2C0"/>
<stop offset="1" stop-color="#00D2C0" stop-opacity="0"/>
</radialGradient>
<radialGradient id="paint14_radial_3488_6966" cx="0" cy="0" r="1" gradientUnits="userSpaceOnUse" gradientTransform="translate(800.048 254.641) rotate(-18.1517) scale(144.233 140.886)">
<stop offset="0.475" stop-color="#00D2C0"/>
<stop offset="1" stop-color="#00D2C0" stop-opacity="0"/>
</radialGradient>
<radialGradient id="paint15_radial_3488_6966" cx="0" cy="0" r="1" gradientUnits="userSpaceOnUse" gradientTransform="translate(800.05 254.654) rotate(-13.3228) scale(160.887 156.003)">
<stop offset="0.475" stop-color="#00D2C0"/>
<stop offset="1" stop-color="#00D2C0" stop-opacity="0"/>
</radialGradient>
<radialGradient id="paint16_radial_3488_6966" cx="0" cy="0" r="1" gradientUnits="userSpaceOnUse" gradientTransform="translate(800.043 254.649) rotate(-8.50834) scale(179.304 172.943)">
<stop offset="0.475" stop-color="#00D2C0"/>
<stop offset="1" stop-color="#00D2C0" stop-opacity="0"/>
</radialGradient>
<radialGradient id="paint17_radial_3488_6966" cx="0" cy="0" r="1" gradientUnits="userSpaceOnUse" gradientTransform="translate(800.044 254.639) rotate(-3.69222) scale(199.66 191.983)">
<stop offset="0.475" stop-color="#00D2C0"/>
<stop offset="1" stop-color="#00D2C0" stop-opacity="0"/>
</radialGradient>
<radialGradient id="paint18_radial_3488_6966" cx="0" cy="0" r="1" gradientUnits="userSpaceOnUse" gradientTransform="translate(800.039 254.659) rotate(0.880795) scale(221.208 205.606)">
<stop offset="0.475" stop-color="#00D2C0"/>
<stop offset="1" stop-color="#00D2C0" stop-opacity="0"/>
</radialGradient>
<radialGradient id="paint19_radial_3488_6966" cx="0" cy="0" r="1" gradientUnits="userSpaceOnUse" gradientTransform="translate(800.038 254.658) rotate(5.13568) scale(257.123 229.188)">
<stop offset="0.475" stop-color="#00D2C0"/>
<stop offset="1" stop-color="#00D2C0" stop-opacity="0"/>
</radialGradient>
<radialGradient id="paint20_radial_3488_6966" cx="0" cy="0" r="1" gradientUnits="userSpaceOnUse" gradientTransform="translate(800.045 254.652) rotate(9.66792) scale(284.794 254.777)">
<stop offset="0.475" stop-color="#00D2C0"/>
<stop offset="1" stop-color="#00D2C0" stop-opacity="0"/>
</radialGradient>
<radialGradient id="paint21_radial_3488_6966" cx="0" cy="0" r="1" gradientUnits="userSpaceOnUse" gradientTransform="translate(800.039 254.654) rotate(14.2337) scale(315.235 283.581)">
<stop offset="0.475" stop-color="#00D2C0"/>
<stop offset="1" stop-color="#00D2C0" stop-opacity="0"/>
</radialGradient>
<radialGradient id="paint22_radial_3488_6966" cx="0" cy="0" r="1" gradientUnits="userSpaceOnUse" gradientTransform="translate(800.051 254.637) rotate(18.8384) scale(348.691 316.003)">
<stop offset="0.475" stop-color="#00D2C0"/>
<stop offset="1" stop-color="#00D2C0" stop-opacity="0"/>
</radialGradient>
<radialGradient id="paint23_radial_3488_6966" cx="0" cy="0" r="1" gradientUnits="userSpaceOnUse" gradientTransform="translate(800.047 254.645) rotate(23.488) scale(385.435 352.479)">
<stop offset="0.475" stop-color="#00D2C0"/>
<stop offset="1" stop-color="#00D2C0" stop-opacity="0"/>
</radialGradient>
<radialGradient id="paint24_radial_3488_6966" cx="0" cy="0" r="1" gradientUnits="userSpaceOnUse" gradientTransform="translate(800.043 254.653) rotate(28.1882) scale(425.796 393.507)">
<stop offset="0.475" stop-color="#00D2C0"/>
<stop offset="1" stop-color="#00D2C0" stop-opacity="0"/>
</radialGradient>
<radialGradient id="paint25_radial_3488_6966" cx="0" cy="0" r="1" gradientUnits="userSpaceOnUse" gradientTransform="translate(800.052 254.66) rotate(32.9446) scale(470.145 439.613)">
<stop offset="0.475" stop-color="#00D2C0"/>
<stop offset="1" stop-color="#00D2C0" stop-opacity="0"/>
</radialGradient>
<radialGradient id="paint26_radial_3488_6966" cx="0" cy="0" r="1" gradientUnits="userSpaceOnUse" gradientTransform="translate(800.049 254.652) rotate(37.7615) scale(518.926 491.384)">
<stop offset="0.475" stop-color="#00D2C0"/>
<stop offset="1" stop-color="#00D2C0" stop-opacity="0"/>
</radialGradient>
<radialGradient id="paint27_radial_3488_6966" cx="0" cy="0" r="1" gradientUnits="userSpaceOnUse" gradientTransform="translate(800.033 254.638) rotate(42.642) scale(572.654 549.441)">
<stop offset="0.475" stop-color="#00D2C0"/>
<stop offset="1" stop-color="#00D2C0" stop-opacity="0"/>
</radialGradient>
<radialGradient id="paint28_radial_3488_6966" cx="0" cy="0" r="1" gradientUnits="userSpaceOnUse" gradientTransform="translate(800.035 254.649) rotate(47.5878) scale(631.937 614.456)">
<stop offset="0.475" stop-color="#00D2C0"/>
<stop offset="1" stop-color="#00D2C0" stop-opacity="0"/>
</radialGradient>
<radialGradient id="paint29_radial_3488_6966" cx="0" cy="0" r="1" gradientUnits="userSpaceOnUse" gradientTransform="translate(800.048 254.645) rotate(52.5985) scale(697.482 687.132)">
<stop offset="0.475" stop-color="#00D2C0"/>
<stop offset="1" stop-color="#00D2C0" stop-opacity="0"/>
</radialGradient>
<radialGradient id="paint30_radial_3488_6966" cx="0" cy="0" r="1" gradientUnits="userSpaceOnUse" gradientTransform="translate(800.045 254.648) rotate(57.6717) scale(770.126 768.212)">
<stop offset="0.475" stop-color="#00D2C0"/>
<stop offset="1" stop-color="#00D2C0" stop-opacity="0"/>
</radialGradient>
<radialGradient id="paint31_radial_3488_6966" cx="0" cy="0" r="1" gradientUnits="userSpaceOnUse" gradientTransform="translate(466.103 737.669) rotate(90) scale(759.567)">
<stop offset="0.475" stop-color="#00D2C0"/>
<stop offset="1" stop-color="#00D2C0" stop-opacity="0"/>
</radialGradient>
<clipPath id="clip0_3488_6966">
<rect width="1600" height="365" fill="white"/>
</clipPath>
</defs>
</svg>
