<svg width="331" height="201" viewBox="0 0 331 201" fill="none" xmlns="http://www.w3.org/2000/svg">
<g clip-path="url(#clip0_4887_49898)">
<rect width="253.548" height="170.15" transform="translate(38.627 15.4252)" fill="#FF4DC9"/>
<rect opacity="0.48" x="54.4004" y="34.5747" width="54" height="8" fill="white"/>
<rect width="24" height="24" transform="translate(124.4 34.5747)" fill="#333333"/>
<path d="M134.359 51.5852L129.609 46.8352L130.797 45.6477L134.359 49.2102L142.005 41.5643L143.193 42.7518L134.359 51.5852Z" fill="white"/>
<rect width="24" height="24" transform="translate(156.4 34.5747)" fill="white" fill-opacity="0.48"/>
<rect width="24" height="24" transform="translate(188.4 34.5747)" fill="white"/>
<rect width="24" height="24" transform="translate(220.4 34.5747)" fill="white" fill-opacity="0.48"/>
<rect width="24" height="24" transform="translate(252.4 34.5747)" fill="white" fill-opacity="0.48"/>
<rect opacity="0.48" x="54.4004" y="66.5747" width="54" height="8" fill="white"/>
<rect width="24" height="24" transform="translate(124.4 66.5747)" fill="white"/>
<rect width="24" height="24" transform="translate(156.4 66.5747)" fill="white"/>
<rect width="24" height="24" transform="translate(188.4 66.5747)" fill="white" fill-opacity="0.48"/>
<rect width="24" height="24" transform="translate(220.4 66.5747)" fill="white" fill-opacity="0.48"/>
<rect width="24" height="24" transform="translate(252.4 66.5747)" fill="white" fill-opacity="0.48"/>
<rect opacity="0.48" x="54.4004" y="98.5747" width="54" height="8" fill="white"/>
<rect width="24" height="24" transform="translate(124.4 98.5747)" fill="white" fill-opacity="0.48"/>
<rect width="24" height="24" transform="translate(156.4 98.5747)" fill="white" fill-opacity="0.48"/>
<rect width="24" height="24" transform="translate(188.4 98.5747)" fill="#333333"/>
<path d="M198.359 115.585L193.609 110.835L194.797 109.648L198.359 113.21L206.005 105.564L207.193 106.752L198.359 115.585Z" fill="white"/>
<rect width="24" height="24" transform="translate(220.4 98.5747)" fill="white" fill-opacity="0.48"/>
<rect width="24" height="24" transform="translate(252.4 98.5747)" fill="white"/>
<rect opacity="0.48" x="54.4004" y="130.575" width="54" height="8" fill="white"/>
<rect width="24" height="24" transform="translate(124.4 130.575)" fill="white"/>
<rect width="24" height="24" transform="translate(156.4 130.575)" fill="white" fill-opacity="0.48"/>
<rect width="24" height="24" transform="translate(188.4 130.575)" fill="white" fill-opacity="0.48"/>
<rect width="24" height="24" transform="translate(220.4 130.575)" fill="white"/>
<rect width="24" height="24" transform="translate(252.4 130.575)" fill="white" fill-opacity="0.48"/>
<rect opacity="0.48" x="54.4004" y="162.575" width="54" height="8" fill="white"/>
<rect width="24" height="24" transform="translate(124.4 162.575)" fill="white"/>
<rect width="24" height="24" transform="translate(156.4 162.575)" fill="white" fill-opacity="0.48"/>
<rect width="24" height="24" transform="translate(188.4 162.575)" fill="white" fill-opacity="0.48"/>
<rect width="24" height="24" transform="translate(220.4 162.575)" fill="white" fill-opacity="0.48"/>
<rect width="24" height="24" transform="translate(252.4 162.575)" fill="white"/>
</g>
<defs>
<clipPath id="clip0_4887_49898">
<rect width="253.548" height="170.15" fill="white" transform="translate(38.627 15.4252)"/>
</clipPath>
</defs>
</svg>
