<svg width="331" height="201" viewBox="0 0 331 201" fill="none" xmlns="http://www.w3.org/2000/svg">
<g clip-path="url(#clip0_4887_34304)">
<rect width="250" height="170" transform="translate(40.9336 15.5)" fill="#0AFFE7"/>
<rect x="54.9453" y="29.8638" width="201.357" height="42" fill="#D0FFFF"/>
<rect x="62.6953" y="38.8638" width="24" height="24" rx="12" fill="#00D2C0"/>
<rect x="93.9453" y="40.8638" width="48" height="8" fill="#00D2C0"/>
<rect x="93.9453" y="52.8638" width="125.135" height="8" fill="#00D2C0"/>
<rect x="54.9453" y="77.8638" width="201.357" height="42" fill="#D0FFFF"/>
<g opacity="0.72">
<rect x="62.6953" y="86.8638" width="24" height="24" rx="12" fill="#00D2C0"/>
</g>
<g opacity="0.72">
<rect x="93.9453" y="88.8638" width="48" height="8" fill="#00D2C0"/>
<rect x="93.9453" y="100.864" width="125.135" height="8" fill="#00D2C0"/>
</g>
<rect x="54.9453" y="125.864" width="201.357" height="42" fill="#D0FFFF"/>
<g opacity="0.48">
<rect x="62.6953" y="134.864" width="24" height="24" rx="12" fill="#00D2C0"/>
</g>
<g opacity="0.48">
<rect x="93.9453" y="136.864" width="48" height="8" fill="#00D2C0"/>
<rect x="93.9453" y="148.864" width="125.135" height="8" fill="#00D2C0"/>
</g>
<rect x="54.9453" y="179.864" width="201.357" height="42" rx="21" fill="white" fill-opacity="0.16"/>
<path d="M148.695 65.5469C148.695 65.1327 148.36 64.7969 147.945 64.7969C147.531 64.7969 147.195 65.1327 147.195 65.5469H148.695ZM171.945 85.5469L164.445 81.2167V89.877L171.945 85.5469ZM147.945 65.5469H147.195C147.195 77.0068 156.485 86.2969 167.945 86.2969V85.5469V84.7969C157.314 84.7969 148.695 76.1784 148.695 65.5469H147.945Z" fill="#333333"/>
</g>
<rect width="107" height="107" transform="translate(178.268 63.2012) rotate(4)" fill="white"/>
<rect width="20" height="20" transform="translate(186.617 72.807) rotate(4)" fill="#212121"/>
<path d="M195.183 84.0988L191.192 83.8197L191.285 82.4896L195.276 82.7687L195.555 78.7784L196.885 78.8714L196.606 82.8617L200.596 83.1407L200.503 84.4708L196.513 84.1918L196.234 88.182L194.904 88.089L195.183 84.0988Z" fill="white"/>
<rect x="214.549" y="74.7603" width="48" height="8" transform="rotate(4 214.549 74.7603)" fill="#333333"/>
<rect x="213.711" y="86.7311" width="63" height="8" transform="rotate(4 213.711 86.7311)" fill="#333333"/>
<rect width="89" height="61" transform="translate(184.664 100.739) rotate(4)" fill="#F5F5F5"/>
<g clip-path="url(#clip1_4887_34304)">
<path d="M211.739 141.226C211.363 141.2 211.056 141.05 210.818 140.777C210.581 140.505 210.476 140.18 210.502 139.803L210.556 139.038C210.622 138.085 211.164 137.343 212.182 136.813C213.199 136.283 214.506 136.073 216.102 136.185C216.39 136.205 216.667 136.23 216.932 136.26C217.197 136.289 217.45 136.335 217.691 136.396C217.348 136.84 217.081 137.311 216.89 137.81C216.699 138.309 216.585 138.836 216.546 139.39L216.395 141.552L211.739 141.226ZM219.72 141.784C219.343 141.758 219.036 141.608 218.799 141.336C218.562 141.063 218.456 140.738 218.483 140.361L218.541 139.53C218.591 138.82 218.83 138.186 219.259 137.625C219.688 137.065 220.273 136.588 221.013 136.194C221.753 135.8 222.625 135.527 223.627 135.374C224.629 135.222 225.706 135.186 226.859 135.266C228.034 135.348 229.106 135.535 230.077 135.826C231.048 136.116 231.873 136.508 232.551 137.001C233.23 137.494 233.737 138.047 234.073 138.661C234.408 139.275 234.552 139.937 234.502 140.646L234.444 141.477C234.417 141.854 234.268 142.161 233.995 142.398C233.722 142.635 233.398 142.741 233.021 142.714L219.72 141.784ZM236.346 142.947L236.497 140.785C236.537 140.209 236.503 139.661 236.395 139.141C236.286 138.621 236.104 138.129 235.846 137.666C236.093 137.638 236.345 137.628 236.6 137.635C236.856 137.642 237.117 137.654 237.383 137.673C238.979 137.785 240.244 138.168 241.179 138.824C242.113 139.48 242.546 140.295 242.478 141.27L242.424 142.035C242.398 142.412 242.248 142.719 241.976 142.956C241.703 143.193 241.378 143.299 241.001 143.272L236.346 142.947ZM216.195 134.855C215.463 134.804 214.855 134.499 214.371 133.942C213.886 133.385 213.669 132.74 213.721 132.009C213.773 131.255 214.078 130.641 214.634 130.168C215.191 129.694 215.835 129.483 216.567 129.534C217.32 129.587 217.934 129.886 218.409 130.432C218.883 130.977 219.094 131.627 219.041 132.381C218.99 133.112 218.691 133.721 218.145 134.206C217.598 134.691 216.948 134.907 216.195 134.855ZM237.476 136.343C236.744 136.292 236.136 135.987 235.652 135.43C235.167 134.873 234.951 134.228 235.002 133.497C235.055 132.743 235.359 132.129 235.916 131.656C236.472 131.183 237.117 130.971 237.848 131.023C238.602 131.075 239.216 131.374 239.69 131.92C240.164 132.465 240.375 133.115 240.322 133.869C240.271 134.6 239.972 135.209 239.426 135.694C238.88 136.179 238.23 136.396 237.476 136.343ZM226.928 134.269C225.82 134.191 224.905 133.737 224.183 132.907C223.462 132.077 223.14 131.108 223.217 129.999C223.296 128.869 223.75 127.948 224.58 127.238C225.409 126.527 226.378 126.211 227.486 126.288C228.617 126.367 229.538 126.816 230.249 127.634C230.961 128.453 231.277 129.427 231.198 130.558C231.12 131.666 230.672 132.581 229.853 133.304C229.034 134.026 228.059 134.348 226.928 134.269Z" fill="#C2C2C2"/>
</g>
<defs>
<clipPath id="clip0_4887_34304">
<rect width="250" height="170" fill="white" transform="translate(40.9336 15.5)"/>
</clipPath>
<clipPath id="clip1_4887_34304">
<rect width="32" height="32" fill="white" transform="translate(212.084 117.192) rotate(4)"/>
</clipPath>
</defs>
</svg>
