<svg width="1600" height="900" viewBox="0 0 1600 900" fill="none" xmlns="http://www.w3.org/2000/svg">
<g clip-path="url(#clip0_3847_14160)">
<g clip-path="url(#clip1_3847_14160)">
<circle cx="56.5891" cy="490.411" r="2.58912" transform="rotate(-90 56.5891 490.411)" fill="white"/>
<circle cx="56.5891" cy="460.377" r="2.58912" transform="rotate(-90 56.5891 460.377)" fill="white"/>
<circle cx="56.5891" cy="430.344" r="2.58912" transform="rotate(-90 56.5891 430.344)" fill="white"/>
<circle cx="56.5891" cy="400.31" r="2.58912" transform="rotate(-90 56.5891 400.31)" fill="white"/>
<circle cx="56.5891" cy="370.276" r="2.58912" transform="rotate(-90 56.5891 370.276)" fill="white"/>
<circle cx="56.5891" cy="340.242" r="2.58912" transform="rotate(-90 56.5891 340.242)" fill="white"/>
<circle cx="56.5891" cy="310.208" r="2.58912" transform="rotate(-90 56.5891 310.208)" fill="white"/>
<circle cx="56.5891" cy="280.174" r="2.58912" transform="rotate(-90 56.5891 280.174)" fill="white"/>
<circle cx="56.5891" cy="250.141" r="2.58912" transform="rotate(-90 56.5891 250.141)" fill="white"/>
<circle cx="56.5891" cy="220.107" r="2.58912" transform="rotate(-90 56.5891 220.107)" fill="white"/>
<circle cx="56.5891" cy="190.073" r="2.58912" transform="rotate(-90 56.5891 190.073)" fill="white"/>
<circle cx="56.5891" cy="160.039" r="2.58912" transform="rotate(-90 56.5891 160.039)" fill="white"/>
<circle cx="56.5891" cy="130.005" r="2.58912" transform="rotate(-90 56.5891 130.005)" fill="white"/>
<circle cx="56.5891" cy="99.9717" r="2.58912" transform="rotate(-90 56.5891 99.9717)" fill="white"/>
<circle cx="56.5891" cy="69.9377" r="2.58912" transform="rotate(-90 56.5891 69.9377)" fill="white"/>
<circle cx="86.6233" cy="490.411" r="2.58912" transform="rotate(-90 86.6233 490.411)" fill="white"/>
<circle cx="86.6233" cy="460.377" r="2.58912" transform="rotate(-90 86.6233 460.377)" fill="white"/>
<circle cx="86.6233" cy="430.344" r="2.58912" transform="rotate(-90 86.6233 430.344)" fill="white"/>
<circle cx="86.6233" cy="400.31" r="2.58912" transform="rotate(-90 86.6233 400.31)" fill="white"/>
<circle cx="86.6233" cy="370.276" r="2.58912" transform="rotate(-90 86.6233 370.276)" fill="white"/>
<circle cx="86.6233" cy="340.242" r="2.58912" transform="rotate(-90 86.6233 340.242)" fill="white"/>
<circle cx="86.6233" cy="310.208" r="2.58912" transform="rotate(-90 86.6233 310.208)" fill="white"/>
<circle cx="86.6233" cy="280.174" r="2.58912" transform="rotate(-90 86.6233 280.174)" fill="white"/>
<circle cx="86.6233" cy="250.14" r="2.58912" transform="rotate(-90 86.6233 250.14)" fill="white"/>
<circle cx="86.6233" cy="220.107" r="2.58912" transform="rotate(-90 86.6233 220.107)" fill="white"/>
<circle cx="86.6233" cy="190.073" r="2.58912" transform="rotate(-90 86.6233 190.073)" fill="white"/>
<circle cx="86.6233" cy="160.039" r="2.58912" transform="rotate(-90 86.6233 160.039)" fill="white"/>
<circle cx="86.6233" cy="130.005" r="2.58912" transform="rotate(-90 86.6233 130.005)" fill="white"/>
<circle cx="86.6233" cy="99.9717" r="2.58912" transform="rotate(-90 86.6233 99.9717)" fill="white"/>
<circle cx="86.6233" cy="69.9377" r="2.58912" transform="rotate(-90 86.6233 69.9377)" fill="white"/>
<circle cx="116.657" cy="490.411" r="2.58912" transform="rotate(-90 116.657 490.411)" fill="white"/>
<circle cx="116.657" cy="460.377" r="2.58912" transform="rotate(-90 116.657 460.377)" fill="white"/>
<circle cx="116.657" cy="430.344" r="2.58912" transform="rotate(-90 116.657 430.344)" fill="white"/>
<circle cx="116.657" cy="400.31" r="2.58912" transform="rotate(-90 116.657 400.31)" fill="white"/>
<circle cx="116.657" cy="370.276" r="2.58912" transform="rotate(-90 116.657 370.276)" fill="white"/>
<circle cx="116.657" cy="340.242" r="2.58912" transform="rotate(-90 116.657 340.242)" fill="white"/>
<circle cx="116.657" cy="310.208" r="2.58912" transform="rotate(-90 116.657 310.208)" fill="white"/>
<circle cx="116.657" cy="280.174" r="2.58912" transform="rotate(-90 116.657 280.174)" fill="white"/>
<circle cx="116.657" cy="250.14" r="2.58912" transform="rotate(-90 116.657 250.14)" fill="white"/>
<circle cx="116.657" cy="220.107" r="2.58912" transform="rotate(-90 116.657 220.107)" fill="white"/>
<circle cx="116.657" cy="190.073" r="2.58912" transform="rotate(-90 116.657 190.073)" fill="white"/>
<circle cx="116.657" cy="160.039" r="2.58912" transform="rotate(-90 116.657 160.039)" fill="white"/>
<circle cx="116.657" cy="130.005" r="2.58912" transform="rotate(-90 116.657 130.005)" fill="white"/>
<circle cx="116.657" cy="99.9717" r="2.58912" transform="rotate(-90 116.657 99.9717)" fill="white"/>
<circle cx="116.657" cy="69.9377" r="2.58912" transform="rotate(-90 116.657 69.9377)" fill="white"/>
<circle cx="146.691" cy="490.411" r="2.58912" transform="rotate(-90 146.691 490.411)" fill="white"/>
<circle cx="146.691" cy="460.377" r="2.58912" transform="rotate(-90 146.691 460.377)" fill="white"/>
<circle cx="146.691" cy="430.344" r="2.58912" transform="rotate(-90 146.691 430.344)" fill="white"/>
<circle cx="146.691" cy="400.31" r="2.58912" transform="rotate(-90 146.691 400.31)" fill="white"/>
<circle cx="146.691" cy="370.276" r="2.58912" transform="rotate(-90 146.691 370.276)" fill="white"/>
<circle cx="146.691" cy="340.242" r="2.58912" transform="rotate(-90 146.691 340.242)" fill="white"/>
<circle cx="146.691" cy="310.208" r="2.58912" transform="rotate(-90 146.691 310.208)" fill="white"/>
<circle cx="146.691" cy="280.174" r="2.58912" transform="rotate(-90 146.691 280.174)" fill="white"/>
<circle cx="146.691" cy="250.141" r="2.58912" transform="rotate(-90 146.691 250.141)" fill="white"/>
<circle cx="146.691" cy="220.107" r="2.58912" transform="rotate(-90 146.691 220.107)" fill="white"/>
<circle cx="146.691" cy="190.073" r="2.58912" transform="rotate(-90 146.691 190.073)" fill="white"/>
<circle cx="146.691" cy="160.039" r="2.58912" transform="rotate(-90 146.691 160.039)" fill="white"/>
<circle cx="146.691" cy="130.005" r="2.58912" transform="rotate(-90 146.691 130.005)" fill="white"/>
<circle cx="146.691" cy="99.9717" r="2.58912" transform="rotate(-90 146.691 99.9717)" fill="white"/>
<circle cx="146.691" cy="69.9377" r="2.58912" transform="rotate(-90 146.691 69.9377)" fill="white"/>
<circle cx="176.725" cy="490.411" r="2.58912" transform="rotate(-90 176.725 490.411)" fill="white"/>
<circle cx="176.725" cy="460.377" r="2.58912" transform="rotate(-90 176.725 460.377)" fill="white"/>
<circle cx="176.725" cy="430.344" r="2.58912" transform="rotate(-90 176.725 430.344)" fill="white"/>
<circle cx="176.725" cy="400.31" r="2.58912" transform="rotate(-90 176.725 400.31)" fill="white"/>
<circle cx="176.725" cy="370.276" r="2.58912" transform="rotate(-90 176.725 370.276)" fill="white"/>
<circle cx="176.725" cy="340.242" r="2.58912" transform="rotate(-90 176.725 340.242)" fill="white"/>
<circle cx="176.725" cy="310.208" r="2.58912" transform="rotate(-90 176.725 310.208)" fill="white"/>
<circle cx="176.725" cy="280.174" r="2.58912" transform="rotate(-90 176.725 280.174)" fill="white"/>
<circle cx="176.725" cy="250.141" r="2.58912" transform="rotate(-90 176.725 250.141)" fill="white"/>
<circle cx="176.725" cy="220.107" r="2.58912" transform="rotate(-90 176.725 220.107)" fill="white"/>
<circle cx="176.725" cy="190.073" r="2.58912" transform="rotate(-90 176.725 190.073)" fill="white"/>
<circle cx="176.725" cy="160.039" r="2.58912" transform="rotate(-90 176.725 160.039)" fill="white"/>
<circle cx="176.725" cy="130.005" r="2.58912" transform="rotate(-90 176.725 130.005)" fill="white"/>
<circle cx="176.725" cy="99.9717" r="2.58912" transform="rotate(-90 176.725 99.9717)" fill="white"/>
<circle cx="176.725" cy="69.9377" r="2.58912" transform="rotate(-90 176.725 69.9377)" fill="white"/>
<circle cx="206.758" cy="490.411" r="2.58912" transform="rotate(-90 206.758 490.411)" fill="white"/>
<circle cx="206.758" cy="460.377" r="2.58912" transform="rotate(-90 206.758 460.377)" fill="white"/>
<circle cx="206.758" cy="430.344" r="2.58912" transform="rotate(-90 206.758 430.344)" fill="white"/>
<circle cx="206.758" cy="400.31" r="2.58912" transform="rotate(-90 206.758 400.31)" fill="white"/>
<circle cx="206.758" cy="370.276" r="2.58912" transform="rotate(-90 206.758 370.276)" fill="white"/>
<circle cx="206.758" cy="340.242" r="2.58912" transform="rotate(-90 206.758 340.242)" fill="white"/>
<circle cx="206.758" cy="310.208" r="2.58912" transform="rotate(-90 206.758 310.208)" fill="white"/>
<circle cx="206.758" cy="280.174" r="2.58912" transform="rotate(-90 206.758 280.174)" fill="white"/>
<circle cx="206.758" cy="250.14" r="2.58912" transform="rotate(-90 206.758 250.14)" fill="white"/>
<circle cx="206.758" cy="220.107" r="2.58912" transform="rotate(-90 206.758 220.107)" fill="white"/>
<circle cx="206.758" cy="190.073" r="2.58912" transform="rotate(-90 206.758 190.073)" fill="white"/>
<circle cx="206.758" cy="160.039" r="2.58912" transform="rotate(-90 206.758 160.039)" fill="white"/>
<circle cx="206.758" cy="130.005" r="2.58912" transform="rotate(-90 206.758 130.005)" fill="white"/>
<circle cx="206.758" cy="99.9717" r="2.58912" transform="rotate(-90 206.758 99.9717)" fill="white"/>
<circle cx="206.758" cy="69.9377" r="2.58912" transform="rotate(-90 206.758 69.9377)" fill="white"/>
<circle cx="236.792" cy="490.411" r="2.58912" transform="rotate(-90 236.792 490.411)" fill="white"/>
<circle cx="236.792" cy="460.377" r="2.58912" transform="rotate(-90 236.792 460.377)" fill="white"/>
<circle cx="236.792" cy="430.344" r="2.58912" transform="rotate(-90 236.792 430.344)" fill="white"/>
<circle cx="236.792" cy="400.31" r="2.58912" transform="rotate(-90 236.792 400.31)" fill="white"/>
<circle cx="236.792" cy="370.276" r="2.58912" transform="rotate(-90 236.792 370.276)" fill="white"/>
<circle cx="236.792" cy="340.242" r="2.58912" transform="rotate(-90 236.792 340.242)" fill="white"/>
<circle cx="236.792" cy="310.208" r="2.58912" transform="rotate(-90 236.792 310.208)" fill="white"/>
<circle cx="236.792" cy="280.174" r="2.58912" transform="rotate(-90 236.792 280.174)" fill="white"/>
<circle cx="236.792" cy="250.14" r="2.58912" transform="rotate(-90 236.792 250.14)" fill="white"/>
<circle cx="236.792" cy="220.107" r="2.58912" transform="rotate(-90 236.792 220.107)" fill="white"/>
<circle cx="236.792" cy="190.073" r="2.58912" transform="rotate(-90 236.792 190.073)" fill="white"/>
<circle cx="236.792" cy="160.039" r="2.58912" transform="rotate(-90 236.792 160.039)" fill="white"/>
<circle cx="236.792" cy="130.005" r="2.58912" transform="rotate(-90 236.792 130.005)" fill="white"/>
<circle cx="236.792" cy="99.9717" r="2.58912" transform="rotate(-90 236.792 99.9717)" fill="white"/>
<circle cx="236.792" cy="69.9377" r="2.58912" transform="rotate(-90 236.792 69.9377)" fill="white"/>
<circle cx="266.825" cy="490.411" r="2.58912" transform="rotate(-90 266.825 490.411)" fill="white"/>
<circle cx="266.825" cy="460.377" r="2.58912" transform="rotate(-90 266.825 460.377)" fill="white"/>
<circle cx="266.825" cy="430.344" r="2.58912" transform="rotate(-90 266.825 430.344)" fill="white"/>
<circle cx="266.825" cy="400.31" r="2.58912" transform="rotate(-90 266.825 400.31)" fill="white"/>
<circle cx="266.825" cy="370.276" r="2.58912" transform="rotate(-90 266.825 370.276)" fill="white"/>
<circle cx="266.825" cy="340.242" r="2.58912" transform="rotate(-90 266.825 340.242)" fill="white"/>
<circle cx="266.825" cy="310.208" r="2.58912" transform="rotate(-90 266.825 310.208)" fill="white"/>
<circle cx="266.825" cy="280.174" r="2.58912" transform="rotate(-90 266.825 280.174)" fill="white"/>
<circle cx="266.825" cy="250.141" r="2.58912" transform="rotate(-90 266.825 250.141)" fill="white"/>
<circle cx="266.825" cy="220.107" r="2.58912" transform="rotate(-90 266.825 220.107)" fill="white"/>
<circle cx="266.825" cy="190.073" r="2.58912" transform="rotate(-90 266.825 190.073)" fill="white"/>
<circle cx="266.825" cy="160.039" r="2.58912" transform="rotate(-90 266.825 160.039)" fill="white"/>
<circle cx="266.825" cy="130.005" r="2.58912" transform="rotate(-90 266.825 130.005)" fill="white"/>
<circle cx="266.825" cy="99.9717" r="2.58912" transform="rotate(-90 266.825 99.9717)" fill="white"/>
<circle cx="266.825" cy="69.9377" r="2.58912" transform="rotate(-90 266.825 69.9377)" fill="white"/>
<circle cx="296.86" cy="490.411" r="2.58912" transform="rotate(-90 296.86 490.411)" fill="white"/>
<circle cx="296.86" cy="460.377" r="2.58912" transform="rotate(-90 296.86 460.377)" fill="white"/>
<circle cx="296.86" cy="430.344" r="2.58912" transform="rotate(-90 296.86 430.344)" fill="white"/>
<circle cx="296.86" cy="400.31" r="2.58912" transform="rotate(-90 296.86 400.31)" fill="white"/>
<circle cx="296.86" cy="370.276" r="2.58912" transform="rotate(-90 296.86 370.276)" fill="white"/>
<circle cx="296.86" cy="340.242" r="2.58912" transform="rotate(-90 296.86 340.242)" fill="white"/>
<circle cx="296.86" cy="310.208" r="2.58912" transform="rotate(-90 296.86 310.208)" fill="white"/>
<circle cx="296.86" cy="280.174" r="2.58912" transform="rotate(-90 296.86 280.174)" fill="white"/>
<circle cx="296.86" cy="250.141" r="2.58912" transform="rotate(-90 296.86 250.141)" fill="white"/>
<circle cx="296.86" cy="220.107" r="2.58912" transform="rotate(-90 296.86 220.107)" fill="white"/>
<circle cx="296.86" cy="190.073" r="2.58912" transform="rotate(-90 296.86 190.073)" fill="white"/>
<circle cx="296.86" cy="160.039" r="2.58912" transform="rotate(-90 296.86 160.039)" fill="white"/>
<circle cx="296.86" cy="130.005" r="2.58912" transform="rotate(-90 296.86 130.005)" fill="white"/>
<circle cx="296.86" cy="99.9717" r="2.58912" transform="rotate(-90 296.86 99.9717)" fill="white"/>
<circle cx="296.86" cy="69.9377" r="2.58912" transform="rotate(-90 296.86 69.9377)" fill="white"/>
<circle cx="326.894" cy="490.411" r="2.58912" transform="rotate(-90 326.894 490.411)" fill="white"/>
<circle cx="326.894" cy="460.377" r="2.58912" transform="rotate(-90 326.894 460.377)" fill="white"/>
<circle cx="326.894" cy="430.344" r="2.58912" transform="rotate(-90 326.894 430.344)" fill="white"/>
<circle cx="326.894" cy="400.31" r="2.58912" transform="rotate(-90 326.894 400.31)" fill="white"/>
<circle cx="326.894" cy="370.276" r="2.58912" transform="rotate(-90 326.894 370.276)" fill="white"/>
<circle cx="326.894" cy="340.242" r="2.58912" transform="rotate(-90 326.894 340.242)" fill="white"/>
<circle cx="326.894" cy="310.208" r="2.58912" transform="rotate(-90 326.894 310.208)" fill="white"/>
<circle cx="326.894" cy="280.174" r="2.58912" transform="rotate(-90 326.894 280.174)" fill="white"/>
<circle cx="326.894" cy="250.14" r="2.58912" transform="rotate(-90 326.894 250.14)" fill="white"/>
<circle cx="326.894" cy="220.107" r="2.58912" transform="rotate(-90 326.894 220.107)" fill="white"/>
<circle cx="326.894" cy="190.073" r="2.58912" transform="rotate(-90 326.894 190.073)" fill="white"/>
<circle cx="326.894" cy="160.039" r="2.58912" transform="rotate(-90 326.894 160.039)" fill="white"/>
<circle cx="326.894" cy="130.005" r="2.58912" transform="rotate(-90 326.894 130.005)" fill="white"/>
<circle cx="326.894" cy="99.9717" r="2.58912" transform="rotate(-90 326.894 99.9717)" fill="white"/>
<circle cx="326.894" cy="69.9377" r="2.58912" transform="rotate(-90 326.894 69.9377)" fill="white"/>
<circle cx="356.927" cy="490.411" r="2.58912" transform="rotate(-90 356.927 490.411)" fill="white"/>
<circle cx="356.927" cy="460.377" r="2.58912" transform="rotate(-90 356.927 460.377)" fill="white"/>
<circle cx="356.927" cy="430.344" r="2.58912" transform="rotate(-90 356.927 430.344)" fill="white"/>
<circle cx="356.927" cy="400.31" r="2.58912" transform="rotate(-90 356.927 400.31)" fill="white"/>
<circle cx="356.927" cy="370.276" r="2.58912" transform="rotate(-90 356.927 370.276)" fill="white"/>
<circle cx="356.927" cy="340.242" r="2.58912" transform="rotate(-90 356.927 340.242)" fill="white"/>
<circle cx="356.927" cy="310.208" r="2.58912" transform="rotate(-90 356.927 310.208)" fill="white"/>
<circle cx="356.927" cy="280.174" r="2.58912" transform="rotate(-90 356.927 280.174)" fill="white"/>
<circle cx="356.927" cy="250.14" r="2.58912" transform="rotate(-90 356.927 250.14)" fill="white"/>
<circle cx="356.927" cy="220.107" r="2.58912" transform="rotate(-90 356.927 220.107)" fill="white"/>
<circle cx="356.927" cy="190.073" r="2.58912" transform="rotate(-90 356.927 190.073)" fill="white"/>
<circle cx="356.927" cy="160.039" r="2.58912" transform="rotate(-90 356.927 160.039)" fill="white"/>
<circle cx="356.927" cy="130.005" r="2.58912" transform="rotate(-90 356.927 130.005)" fill="white"/>
<circle cx="356.927" cy="99.9717" r="2.58912" transform="rotate(-90 356.927 99.9717)" fill="white"/>
<circle cx="356.927" cy="69.9377" r="2.58912" transform="rotate(-90 356.927 69.9377)" fill="white"/>
<circle cx="386.961" cy="490.411" r="2.58912" transform="rotate(-90 386.961 490.411)" fill="white"/>
<circle cx="386.961" cy="460.377" r="2.58912" transform="rotate(-90 386.961 460.377)" fill="white"/>
<circle cx="386.961" cy="430.344" r="2.58912" transform="rotate(-90 386.961 430.344)" fill="white"/>
<circle cx="386.961" cy="400.31" r="2.58912" transform="rotate(-90 386.961 400.31)" fill="white"/>
<circle cx="386.961" cy="370.276" r="2.58912" transform="rotate(-90 386.961 370.276)" fill="white"/>
<circle cx="386.961" cy="340.242" r="2.58912" transform="rotate(-90 386.961 340.242)" fill="white"/>
<circle cx="386.961" cy="310.208" r="2.58912" transform="rotate(-90 386.961 310.208)" fill="white"/>
<circle cx="386.961" cy="280.174" r="2.58912" transform="rotate(-90 386.961 280.174)" fill="white"/>
<circle cx="386.961" cy="250.141" r="2.58912" transform="rotate(-90 386.961 250.141)" fill="white"/>
<circle cx="386.961" cy="220.107" r="2.58912" transform="rotate(-90 386.961 220.107)" fill="white"/>
<circle cx="386.961" cy="190.073" r="2.58912" transform="rotate(-90 386.961 190.073)" fill="white"/>
<circle cx="386.961" cy="160.039" r="2.58912" transform="rotate(-90 386.961 160.039)" fill="white"/>
<circle cx="386.961" cy="130.005" r="2.58912" transform="rotate(-90 386.961 130.005)" fill="white"/>
<circle cx="386.961" cy="99.9717" r="2.58912" transform="rotate(-90 386.961 99.9717)" fill="white"/>
<circle cx="386.961" cy="69.9377" r="2.58912" transform="rotate(-90 386.961 69.9377)" fill="white"/>
<circle cx="416.994" cy="490.411" r="2.58912" transform="rotate(-90 416.994 490.411)" fill="white"/>
<circle cx="416.994" cy="460.377" r="2.58912" transform="rotate(-90 416.994 460.377)" fill="white"/>
<circle cx="416.994" cy="430.344" r="2.58912" transform="rotate(-90 416.994 430.344)" fill="white"/>
<circle cx="416.994" cy="400.31" r="2.58912" transform="rotate(-90 416.994 400.31)" fill="white"/>
<circle cx="416.994" cy="370.276" r="2.58912" transform="rotate(-90 416.994 370.276)" fill="white"/>
<circle cx="416.994" cy="340.242" r="2.58912" transform="rotate(-90 416.994 340.242)" fill="white"/>
<circle cx="416.994" cy="310.208" r="2.58912" transform="rotate(-90 416.994 310.208)" fill="white"/>
<circle cx="416.994" cy="280.174" r="2.58912" transform="rotate(-90 416.994 280.174)" fill="white"/>
<circle cx="416.994" cy="250.141" r="2.58912" transform="rotate(-90 416.994 250.141)" fill="white"/>
<circle cx="416.994" cy="220.107" r="2.58912" transform="rotate(-90 416.994 220.107)" fill="white"/>
<circle cx="416.994" cy="190.073" r="2.58912" transform="rotate(-90 416.994 190.073)" fill="white"/>
<circle cx="416.994" cy="160.039" r="2.58912" transform="rotate(-90 416.994 160.039)" fill="white"/>
<circle cx="416.994" cy="130.005" r="2.58912" transform="rotate(-90 416.994 130.005)" fill="white"/>
<circle cx="416.994" cy="99.9717" r="2.58912" transform="rotate(-90 416.994 99.9717)" fill="white"/>
<circle cx="416.994" cy="69.9377" r="2.58912" transform="rotate(-90 416.994 69.9377)" fill="white"/>
<circle cx="447.029" cy="490.411" r="2.58912" transform="rotate(-90 447.029 490.411)" fill="white"/>
<circle cx="447.029" cy="460.377" r="2.58912" transform="rotate(-90 447.029 460.377)" fill="white"/>
<circle cx="447.029" cy="430.344" r="2.58912" transform="rotate(-90 447.029 430.344)" fill="white"/>
<circle cx="447.029" cy="400.31" r="2.58912" transform="rotate(-90 447.029 400.31)" fill="white"/>
<circle cx="447.029" cy="370.276" r="2.58912" transform="rotate(-90 447.029 370.276)" fill="white"/>
<circle cx="447.029" cy="340.242" r="2.58912" transform="rotate(-90 447.029 340.242)" fill="white"/>
<circle cx="447.029" cy="310.208" r="2.58912" transform="rotate(-90 447.029 310.208)" fill="white"/>
<circle cx="447.029" cy="280.174" r="2.58912" transform="rotate(-90 447.029 280.174)" fill="white"/>
<circle cx="447.029" cy="250.14" r="2.58912" transform="rotate(-90 447.029 250.14)" fill="white"/>
<circle cx="447.029" cy="220.107" r="2.58912" transform="rotate(-90 447.029 220.107)" fill="white"/>
<circle cx="447.029" cy="190.073" r="2.58912" transform="rotate(-90 447.029 190.073)" fill="white"/>
<circle cx="447.029" cy="160.039" r="2.58912" transform="rotate(-90 447.029 160.039)" fill="white"/>
<circle cx="447.029" cy="130.005" r="2.58912" transform="rotate(-90 447.029 130.005)" fill="white"/>
<circle cx="447.029" cy="99.9717" r="2.58912" transform="rotate(-90 447.029 99.9717)" fill="white"/>
<circle cx="447.029" cy="69.9377" r="2.58912" transform="rotate(-90 447.029 69.9377)" fill="white"/>
<circle cx="477.062" cy="490.411" r="2.58912" transform="rotate(-90 477.062 490.411)" fill="white"/>
<circle cx="477.062" cy="460.377" r="2.58912" transform="rotate(-90 477.062 460.377)" fill="white"/>
<circle cx="477.062" cy="430.344" r="2.58912" transform="rotate(-90 477.062 430.344)" fill="white"/>
<circle cx="477.062" cy="400.31" r="2.58912" transform="rotate(-90 477.062 400.31)" fill="white"/>
<circle cx="477.062" cy="370.276" r="2.58912" transform="rotate(-90 477.062 370.276)" fill="white"/>
<circle cx="477.062" cy="340.242" r="2.58912" transform="rotate(-90 477.062 340.242)" fill="white"/>
<circle cx="477.062" cy="310.208" r="2.58912" transform="rotate(-90 477.062 310.208)" fill="white"/>
<circle cx="477.062" cy="280.174" r="2.58912" transform="rotate(-90 477.062 280.174)" fill="white"/>
<circle cx="477.062" cy="250.14" r="2.58912" transform="rotate(-90 477.062 250.14)" fill="white"/>
<circle cx="477.062" cy="220.107" r="2.58912" transform="rotate(-90 477.062 220.107)" fill="white"/>
<circle cx="477.062" cy="190.073" r="2.58912" transform="rotate(-90 477.062 190.073)" fill="white"/>
<circle cx="477.062" cy="160.039" r="2.58912" transform="rotate(-90 477.062 160.039)" fill="white"/>
<circle cx="477.062" cy="130.006" r="2.58912" transform="rotate(-90 477.062 130.006)" fill="white"/>
<circle cx="477.062" cy="99.9717" r="2.58912" transform="rotate(-90 477.062 99.9717)" fill="white"/>
<circle cx="477.062" cy="69.938" r="2.58912" transform="rotate(-90 477.062 69.938)" fill="white"/>
<circle cx="507.096" cy="490.411" r="2.58912" transform="rotate(-90 507.096 490.411)" fill="white"/>
<circle cx="507.096" cy="460.377" r="2.58912" transform="rotate(-90 507.096 460.377)" fill="white"/>
<circle cx="507.096" cy="430.344" r="2.58912" transform="rotate(-90 507.096 430.344)" fill="white"/>
<circle cx="507.096" cy="400.31" r="2.58912" transform="rotate(-90 507.096 400.31)" fill="white"/>
<circle cx="507.096" cy="370.276" r="2.58912" transform="rotate(-90 507.096 370.276)" fill="white"/>
<circle cx="507.096" cy="340.242" r="2.58912" transform="rotate(-90 507.096 340.242)" fill="white"/>
<circle cx="507.096" cy="310.208" r="2.58912" transform="rotate(-90 507.096 310.208)" fill="white"/>
<circle cx="507.096" cy="280.174" r="2.58912" transform="rotate(-90 507.096 280.174)" fill="white"/>
<circle cx="507.096" cy="250.141" r="2.58912" transform="rotate(-90 507.096 250.141)" fill="white"/>
<circle cx="507.096" cy="220.107" r="2.58912" transform="rotate(-90 507.096 220.107)" fill="white"/>
<circle cx="507.096" cy="190.073" r="2.58912" transform="rotate(-90 507.096 190.073)" fill="white"/>
<circle cx="507.096" cy="160.039" r="2.58912" transform="rotate(-90 507.096 160.039)" fill="white"/>
<circle cx="507.096" cy="130.005" r="2.58912" transform="rotate(-90 507.096 130.005)" fill="white"/>
<circle cx="507.096" cy="99.9717" r="2.58912" transform="rotate(-90 507.096 99.9717)" fill="white"/>
<circle cx="507.096" cy="69.9377" r="2.58912" transform="rotate(-90 507.096 69.9377)" fill="white"/>
<circle cx="537.13" cy="490.411" r="2.58912" transform="rotate(-90 537.13 490.411)" fill="white"/>
<circle cx="537.13" cy="460.377" r="2.58912" transform="rotate(-90 537.13 460.377)" fill="white"/>
<circle cx="537.13" cy="430.344" r="2.58912" transform="rotate(-90 537.13 430.344)" fill="white"/>
<circle cx="537.13" cy="400.31" r="2.58912" transform="rotate(-90 537.13 400.31)" fill="white"/>
<circle cx="537.13" cy="370.276" r="2.58912" transform="rotate(-90 537.13 370.276)" fill="white"/>
<circle cx="537.13" cy="340.242" r="2.58912" transform="rotate(-90 537.13 340.242)" fill="white"/>
<circle cx="537.13" cy="310.208" r="2.58912" transform="rotate(-90 537.13 310.208)" fill="white"/>
<circle cx="537.13" cy="280.174" r="2.58912" transform="rotate(-90 537.13 280.174)" fill="white"/>
<circle cx="537.13" cy="250.14" r="2.58912" transform="rotate(-90 537.13 250.14)" fill="white"/>
<circle cx="537.13" cy="220.107" r="2.58912" transform="rotate(-90 537.13 220.107)" fill="white"/>
<circle cx="537.13" cy="190.073" r="2.58912" transform="rotate(-90 537.13 190.073)" fill="white"/>
<circle cx="537.13" cy="160.039" r="2.58912" transform="rotate(-90 537.13 160.039)" fill="white"/>
<circle cx="537.13" cy="130.005" r="2.58912" transform="rotate(-90 537.13 130.005)" fill="white"/>
<circle cx="537.13" cy="99.9717" r="2.58912" transform="rotate(-90 537.13 99.9717)" fill="white"/>
<circle cx="537.13" cy="69.9377" r="2.58912" transform="rotate(-90 537.13 69.9377)" fill="white"/>
<circle cx="567.163" cy="490.411" r="2.58912" transform="rotate(-90 567.163 490.411)" fill="white"/>
<circle cx="567.163" cy="460.377" r="2.58912" transform="rotate(-90 567.163 460.377)" fill="white"/>
<circle cx="567.163" cy="430.344" r="2.58912" transform="rotate(-90 567.163 430.344)" fill="white"/>
<circle cx="567.163" cy="400.31" r="2.58912" transform="rotate(-90 567.163 400.31)" fill="white"/>
<circle cx="567.163" cy="370.276" r="2.58912" transform="rotate(-90 567.163 370.276)" fill="white"/>
<circle cx="567.163" cy="340.242" r="2.58912" transform="rotate(-90 567.163 340.242)" fill="white"/>
<circle cx="567.163" cy="310.208" r="2.58912" transform="rotate(-90 567.163 310.208)" fill="white"/>
<circle cx="567.163" cy="280.174" r="2.58912" transform="rotate(-90 567.163 280.174)" fill="white"/>
<circle cx="567.163" cy="250.14" r="2.58912" transform="rotate(-90 567.163 250.14)" fill="white"/>
<circle cx="567.163" cy="220.107" r="2.58912" transform="rotate(-90 567.163 220.107)" fill="white"/>
<circle cx="567.163" cy="190.073" r="2.58912" transform="rotate(-90 567.163 190.073)" fill="white"/>
<circle cx="567.163" cy="160.039" r="2.58912" transform="rotate(-90 567.163 160.039)" fill="white"/>
<circle cx="567.163" cy="130.005" r="2.58912" transform="rotate(-90 567.163 130.005)" fill="white"/>
<circle cx="567.163" cy="99.9717" r="2.58912" transform="rotate(-90 567.163 99.9717)" fill="white"/>
<circle cx="567.163" cy="69.9377" r="2.58912" transform="rotate(-90 567.163 69.9377)" fill="white"/>
<circle cx="597.198" cy="490.411" r="2.58912" transform="rotate(-90 597.198 490.411)" fill="white"/>
<circle cx="597.198" cy="460.377" r="2.58912" transform="rotate(-90 597.198 460.377)" fill="white"/>
<circle cx="597.198" cy="430.344" r="2.58912" transform="rotate(-90 597.198 430.344)" fill="white"/>
<circle cx="597.198" cy="400.31" r="2.58912" transform="rotate(-90 597.198 400.31)" fill="white"/>
<circle cx="597.198" cy="370.276" r="2.58912" transform="rotate(-90 597.198 370.276)" fill="white"/>
<circle cx="597.198" cy="340.242" r="2.58912" transform="rotate(-90 597.198 340.242)" fill="white"/>
<circle cx="597.198" cy="310.208" r="2.58912" transform="rotate(-90 597.198 310.208)" fill="white"/>
<circle cx="597.198" cy="280.174" r="2.58912" transform="rotate(-90 597.198 280.174)" fill="white"/>
<circle cx="597.198" cy="250.141" r="2.58912" transform="rotate(-90 597.198 250.141)" fill="white"/>
<circle cx="597.198" cy="220.107" r="2.58912" transform="rotate(-90 597.198 220.107)" fill="white"/>
<circle cx="597.198" cy="190.073" r="2.58912" transform="rotate(-90 597.198 190.073)" fill="white"/>
<circle cx="597.198" cy="160.039" r="2.58912" transform="rotate(-90 597.198 160.039)" fill="white"/>
<circle cx="597.198" cy="130.006" r="2.58912" transform="rotate(-90 597.198 130.006)" fill="white"/>
<circle cx="597.198" cy="99.9717" r="2.58912" transform="rotate(-90 597.198 99.9717)" fill="white"/>
<circle cx="597.198" cy="69.938" r="2.58912" transform="rotate(-90 597.198 69.938)" fill="white"/>
<circle cx="627.231" cy="490.411" r="2.58912" transform="rotate(-90 627.231 490.411)" fill="white"/>
<circle cx="627.231" cy="460.377" r="2.58912" transform="rotate(-90 627.231 460.377)" fill="white"/>
<circle cx="627.231" cy="430.344" r="2.58912" transform="rotate(-90 627.231 430.344)" fill="white"/>
<circle cx="627.231" cy="400.31" r="2.58912" transform="rotate(-90 627.231 400.31)" fill="white"/>
<circle cx="627.231" cy="370.276" r="2.58912" transform="rotate(-90 627.231 370.276)" fill="white"/>
<circle cx="627.231" cy="340.242" r="2.58912" transform="rotate(-90 627.231 340.242)" fill="white"/>
<circle cx="627.231" cy="310.208" r="2.58912" transform="rotate(-90 627.231 310.208)" fill="white"/>
<circle cx="627.231" cy="280.174" r="2.58912" transform="rotate(-90 627.231 280.174)" fill="white"/>
<circle cx="627.231" cy="250.141" r="2.58912" transform="rotate(-90 627.231 250.141)" fill="white"/>
<circle cx="627.231" cy="220.107" r="2.58912" transform="rotate(-90 627.231 220.107)" fill="white"/>
<circle cx="627.231" cy="190.073" r="2.58912" transform="rotate(-90 627.231 190.073)" fill="white"/>
<circle cx="627.231" cy="160.039" r="2.58912" transform="rotate(-90 627.231 160.039)" fill="white"/>
<circle cx="627.231" cy="130.005" r="2.58912" transform="rotate(-90 627.231 130.005)" fill="white"/>
<circle cx="627.231" cy="99.9717" r="2.58912" transform="rotate(-90 627.231 99.9717)" fill="white"/>
<circle cx="627.231" cy="69.9377" r="2.58912" transform="rotate(-90 627.231 69.9377)" fill="white"/>
<circle cx="657.265" cy="490.411" r="2.58912" transform="rotate(-90 657.265 490.411)" fill="white"/>
<circle cx="657.265" cy="460.377" r="2.58912" transform="rotate(-90 657.265 460.377)" fill="white"/>
<circle cx="657.265" cy="430.344" r="2.58912" transform="rotate(-90 657.265 430.344)" fill="white"/>
<circle cx="657.265" cy="400.31" r="2.58912" transform="rotate(-90 657.265 400.31)" fill="white"/>
<circle cx="657.265" cy="370.276" r="2.58912" transform="rotate(-90 657.265 370.276)" fill="white"/>
<circle cx="657.265" cy="340.242" r="2.58912" transform="rotate(-90 657.265 340.242)" fill="white"/>
<circle cx="657.265" cy="310.208" r="2.58912" transform="rotate(-90 657.265 310.208)" fill="white"/>
<circle cx="657.265" cy="280.174" r="2.58912" transform="rotate(-90 657.265 280.174)" fill="white"/>
<circle cx="657.265" cy="250.14" r="2.58912" transform="rotate(-90 657.265 250.14)" fill="white"/>
<circle cx="657.265" cy="220.107" r="2.58912" transform="rotate(-90 657.265 220.107)" fill="white"/>
<circle cx="657.265" cy="190.073" r="2.58912" transform="rotate(-90 657.265 190.073)" fill="white"/>
<circle cx="657.265" cy="160.039" r="2.58912" transform="rotate(-90 657.265 160.039)" fill="white"/>
<circle cx="657.265" cy="130.005" r="2.58912" transform="rotate(-90 657.265 130.005)" fill="white"/>
<circle cx="657.265" cy="99.9717" r="2.58912" transform="rotate(-90 657.265 99.9717)" fill="white"/>
<circle cx="657.265" cy="69.9377" r="2.58912" transform="rotate(-90 657.265 69.9377)" fill="white"/>
<circle cx="687.299" cy="490.411" r="2.58912" transform="rotate(-90 687.299 490.411)" fill="white"/>
<circle cx="687.299" cy="460.377" r="2.58912" transform="rotate(-90 687.299 460.377)" fill="white"/>
<circle cx="687.299" cy="430.344" r="2.58912" transform="rotate(-90 687.299 430.344)" fill="white"/>
<circle cx="687.299" cy="400.31" r="2.58912" transform="rotate(-90 687.299 400.31)" fill="white"/>
<circle cx="687.299" cy="370.276" r="2.58912" transform="rotate(-90 687.299 370.276)" fill="white"/>
<circle cx="687.299" cy="340.242" r="2.58912" transform="rotate(-90 687.299 340.242)" fill="white"/>
<circle cx="687.299" cy="310.208" r="2.58912" transform="rotate(-90 687.299 310.208)" fill="white"/>
<circle cx="687.299" cy="280.174" r="2.58912" transform="rotate(-90 687.299 280.174)" fill="white"/>
<circle cx="687.299" cy="250.14" r="2.58912" transform="rotate(-90 687.299 250.14)" fill="white"/>
<circle cx="687.299" cy="220.107" r="2.58912" transform="rotate(-90 687.299 220.107)" fill="white"/>
<circle cx="687.299" cy="190.073" r="2.58912" transform="rotate(-90 687.299 190.073)" fill="white"/>
<circle cx="687.299" cy="160.039" r="2.58912" transform="rotate(-90 687.299 160.039)" fill="white"/>
<circle cx="687.299" cy="130.005" r="2.58912" transform="rotate(-90 687.299 130.005)" fill="white"/>
<circle cx="687.299" cy="99.9717" r="2.58912" transform="rotate(-90 687.299 99.9717)" fill="white"/>
<circle cx="687.299" cy="69.9377" r="2.58912" transform="rotate(-90 687.299 69.9377)" fill="white"/>
<circle cx="717.332" cy="490.411" r="2.58912" transform="rotate(-90 717.332 490.411)" fill="white"/>
<circle cx="717.332" cy="460.377" r="2.58912" transform="rotate(-90 717.332 460.377)" fill="white"/>
<circle cx="717.332" cy="430.344" r="2.58912" transform="rotate(-90 717.332 430.344)" fill="white"/>
<circle cx="717.332" cy="400.31" r="2.58912" transform="rotate(-90 717.332 400.31)" fill="white"/>
<circle cx="717.332" cy="370.276" r="2.58912" transform="rotate(-90 717.332 370.276)" fill="white"/>
<circle cx="717.332" cy="340.242" r="2.58912" transform="rotate(-90 717.332 340.242)" fill="white"/>
<circle cx="717.332" cy="310.208" r="2.58912" transform="rotate(-90 717.332 310.208)" fill="white"/>
<circle cx="717.332" cy="280.174" r="2.58912" transform="rotate(-90 717.332 280.174)" fill="white"/>
<circle cx="717.332" cy="250.141" r="2.58912" transform="rotate(-90 717.332 250.141)" fill="white"/>
<circle cx="717.332" cy="220.107" r="2.58912" transform="rotate(-90 717.332 220.107)" fill="white"/>
<circle cx="717.332" cy="190.073" r="2.58912" transform="rotate(-90 717.332 190.073)" fill="white"/>
<circle cx="717.332" cy="160.039" r="2.58912" transform="rotate(-90 717.332 160.039)" fill="white"/>
<circle cx="717.332" cy="130.005" r="2.58912" transform="rotate(-90 717.332 130.005)" fill="white"/>
<circle cx="717.332" cy="99.9717" r="2.58912" transform="rotate(-90 717.332 99.9717)" fill="white"/>
<circle cx="717.332" cy="69.9377" r="2.58912" transform="rotate(-90 717.332 69.9377)" fill="white"/>
<circle cx="747.366" cy="490.411" r="2.58912" transform="rotate(-90 747.366 490.411)" fill="white"/>
<circle cx="747.366" cy="460.377" r="2.58912" transform="rotate(-90 747.366 460.377)" fill="white"/>
<circle cx="747.366" cy="430.344" r="2.58912" transform="rotate(-90 747.366 430.344)" fill="white"/>
<circle cx="747.366" cy="400.31" r="2.58912" transform="rotate(-90 747.366 400.31)" fill="white"/>
<circle cx="747.366" cy="370.276" r="2.58912" transform="rotate(-90 747.366 370.276)" fill="white"/>
<circle cx="747.366" cy="340.242" r="2.58912" transform="rotate(-90 747.366 340.242)" fill="white"/>
<circle cx="747.366" cy="310.208" r="2.58912" transform="rotate(-90 747.366 310.208)" fill="white"/>
<circle cx="747.366" cy="280.174" r="2.58912" transform="rotate(-90 747.366 280.174)" fill="white"/>
<circle cx="747.366" cy="250.141" r="2.58912" transform="rotate(-90 747.366 250.141)" fill="white"/>
<circle cx="747.366" cy="220.107" r="2.58912" transform="rotate(-90 747.366 220.107)" fill="white"/>
<circle cx="747.366" cy="190.073" r="2.58912" transform="rotate(-90 747.366 190.073)" fill="white"/>
<circle cx="747.366" cy="160.039" r="2.58912" transform="rotate(-90 747.366 160.039)" fill="white"/>
<circle cx="747.366" cy="130.005" r="2.58912" transform="rotate(-90 747.366 130.005)" fill="white"/>
<circle cx="747.366" cy="99.9717" r="2.58912" transform="rotate(-90 747.366 99.9717)" fill="white"/>
<circle cx="747.366" cy="69.9377" r="2.58912" transform="rotate(-90 747.366 69.9377)" fill="white"/>
</g>
<rect x="185" y="156" width="1231" height="593" rx="29.813" fill="#00D2C0"/>
<mask id="mask0_3847_14160" style="mask-type:alpha" maskUnits="userSpaceOnUse" x="536" y="736" width="1267" height="140">
<line x1="796.067" y1="873.547" x2="931.322" y2="738.291" stroke="white" stroke-width="4.8333"/>
<line x1="1376.02" y1="873.547" x2="1511.28" y2="738.291" stroke="white" stroke-width="4.8333"/>
<line x1="1086.03" y1="873.547" x2="1221.28" y2="738.291" stroke="white" stroke-width="4.8333"/>
<line x1="763.846" y1="873.547" x2="899.102" y2="738.291" stroke="white" stroke-width="4.8333"/>
<line x1="1343.8" y1="873.547" x2="1479.06" y2="738.291" stroke="white" stroke-width="4.8333"/>
<line x1="1053.8" y1="873.547" x2="1189.06" y2="738.291" stroke="white" stroke-width="4.8333"/>
<line x1="731.623" y1="873.547" x2="866.879" y2="738.291" stroke="white" stroke-width="4.8333"/>
<line x1="1311.58" y1="873.547" x2="1446.84" y2="738.291" stroke="white" stroke-width="4.8333"/>
<line x1="1021.58" y1="873.547" x2="1156.84" y2="738.291" stroke="white" stroke-width="4.8333"/>
<line x1="1601.54" y1="873.547" x2="1736.8" y2="738.291" stroke="white" stroke-width="4.8333"/>
<line x1="699.401" y1="873.547" x2="834.656" y2="738.291" stroke="white" stroke-width="4.8333"/>
<line x1="1279.36" y1="873.547" x2="1414.61" y2="738.291" stroke="white" stroke-width="4.8333"/>
<line x1="989.361" y1="873.547" x2="1124.62" y2="738.291" stroke="white" stroke-width="4.8333"/>
<line x1="1569.32" y1="873.547" x2="1704.57" y2="738.291" stroke="white" stroke-width="4.8333"/>
<line x1="667.18" y1="873.547" x2="802.436" y2="738.291" stroke="white" stroke-width="4.8333"/>
<line x1="1247.14" y1="873.547" x2="1382.39" y2="738.291" stroke="white" stroke-width="4.8333"/>
<line x1="957.139" y1="873.547" x2="1092.39" y2="738.291" stroke="white" stroke-width="4.8333"/>
<line x1="1537.1" y1="873.547" x2="1672.35" y2="738.291" stroke="white" stroke-width="4.8333"/>
<line x1="634.958" y1="873.547" x2="770.214" y2="738.291" stroke="white" stroke-width="4.8333"/>
<line x1="1214.92" y1="873.547" x2="1350.17" y2="738.291" stroke="white" stroke-width="4.8333"/>
<line x1="924.916" y1="873.547" x2="1060.17" y2="738.291" stroke="white" stroke-width="4.8333"/>
<line x1="1504.87" y1="873.547" x2="1640.13" y2="738.291" stroke="white" stroke-width="4.8333"/>
<line x1="602.735" y1="873.547" x2="737.99" y2="738.291" stroke="white" stroke-width="4.8333"/>
<line x1="1182.69" y1="873.547" x2="1317.95" y2="738.291" stroke="white" stroke-width="4.8333"/>
<line x1="892.695" y1="873.547" x2="1027.95" y2="738.291" stroke="white" stroke-width="4.8333"/>
<line x1="1472.65" y1="873.547" x2="1607.91" y2="738.291" stroke="white" stroke-width="4.8333"/>
<line x1="570.513" y1="873.547" x2="705.769" y2="738.291" stroke="white" stroke-width="4.8333"/>
<line x1="1150.47" y1="873.547" x2="1285.73" y2="738.291" stroke="white" stroke-width="4.8333"/>
<line x1="860.473" y1="873.547" x2="995.729" y2="738.291" stroke="white" stroke-width="4.8333"/>
<line x1="1440.43" y1="873.547" x2="1575.69" y2="738.291" stroke="white" stroke-width="4.8333"/>
<line x1="538.291" y1="873.547" x2="673.547" y2="738.291" stroke="white" stroke-width="4.8333"/>
<line x1="1118.25" y1="873.547" x2="1253.5" y2="738.291" stroke="white" stroke-width="4.8333"/>
<line x1="828.25" y1="873.547" x2="963.506" y2="738.291" stroke="white" stroke-width="4.8333"/>
<line x1="1408.21" y1="873.547" x2="1543.46" y2="738.291" stroke="white" stroke-width="4.8333"/>
</mask>
<g mask="url(#mask0_3847_14160)">
<rect x="958.887" y="749.667" width="621.885" height="117.61" fill="white"/>
</g>
<rect x="353.5" y="242.5" width="914.001" height="118.679" fill="white"/>
<rect x="353.5" y="242.5" width="914.001" height="118.679" stroke="#E3E4E8" stroke-width="0.999305"/>
<mask id="path-398-inside-1_3847_14160" fill="white">
<path d="M353 242.001H480.582V361.609H353V242.001Z"/>
</mask>
<path d="M479.585 242.001V361.609H481.579V242.001H479.585Z" fill="#EBEBEB" mask="url(#path-398-inside-1_3847_14160)"/>
<path d="M414.465 309.446L426.177 297.735L423.851 295.409L414.465 304.795L409.731 300.06L407.405 302.386L414.465 309.446ZM416.791 318.417C414.493 318.417 412.333 317.981 410.312 317.109C408.291 316.237 406.533 315.053 405.038 313.558C403.543 312.063 402.359 310.305 401.487 308.283C400.615 306.262 400.179 304.103 400.179 301.805C400.179 299.507 400.615 297.347 401.487 295.326C402.359 293.305 403.543 291.547 405.038 290.051C406.533 288.556 408.291 287.373 410.312 286.501C412.333 285.628 414.493 285.192 416.791 285.192C419.089 285.192 421.249 285.628 423.27 286.501C425.291 287.373 427.049 288.556 428.544 290.051C430.039 291.547 431.223 293.305 432.095 295.326C432.967 297.347 433.403 299.507 433.403 301.805C433.403 304.103 432.967 306.262 432.095 308.283C431.223 310.305 430.039 312.063 428.544 313.558C427.049 315.053 425.291 316.237 423.27 317.109C421.249 317.981 419.089 318.417 416.791 318.417Z" fill="#348338"/>
<mask id="path-401-inside-2_3847_14160" fill="white">
<path d="M1203.22 242.001H1268V361.609H1203.22V242.001Z"/>
</mask>
<path d="M1204.21 361.609V242.001H1202.22V361.609H1204.21Z" fill="#EBEBEB" mask="url(#path-401-inside-2_3847_14160)"/>
<path d="M1232.05 310.028L1230.13 308.109L1236.43 301.805L1230.13 295.501L1232.05 293.582L1240.27 301.805L1232.05 310.028Z" fill="#4A4D59"/>
<path d="M512 287.5H711" stroke="#C2C2C2" stroke-width="16" stroke-linecap="round" stroke-linejoin="round"/>
<path d="M507 315H896" stroke="#EBEBEB" stroke-width="8" stroke-linecap="round" stroke-linejoin="round"/>
<rect x="234.5" y="405.226" width="1142" height="148.588" fill="white"/>
<rect x="234.5" y="405.226" width="1142" height="148.588" stroke="#E3E4E8"/>
<mask id="path-407-inside-3_3847_14160" fill="white">
<path d="M234 404.727H393.373V554.139H234V404.727Z"/>
</mask>
<path d="M392.128 404.727V554.139H394.618V404.727H392.128Z" fill="#EBEBEB" mask="url(#path-407-inside-3_3847_14160)"/>
<path d="M303.31 482.545C304.175 482.545 304.91 482.243 305.515 481.637C306.121 481.032 306.423 480.297 306.423 479.433C306.423 478.568 306.121 477.833 305.515 477.228C304.91 476.622 304.175 476.32 303.31 476.32C302.446 476.32 301.711 476.622 301.106 477.228C300.5 477.833 300.198 478.568 300.198 479.433C300.198 480.297 300.5 481.032 301.106 481.637C301.711 482.243 302.446 482.545 303.31 482.545ZM313.686 482.545C314.551 482.545 315.286 482.243 315.891 481.637C316.496 481.032 316.799 480.297 316.799 479.433C316.799 478.568 316.496 477.833 315.891 477.228C315.286 476.622 314.551 476.32 313.686 476.32C312.822 476.32 312.087 476.622 311.481 477.228C310.876 477.833 310.573 478.568 310.573 479.433C310.573 480.297 310.876 481.032 311.481 481.637C312.087 482.243 312.822 482.545 313.686 482.545ZM324.062 482.545C324.927 482.545 325.662 482.243 326.267 481.637C326.872 481.032 327.175 480.297 327.175 479.433C327.175 478.568 326.872 477.833 326.267 477.228C325.662 476.622 324.927 476.32 324.062 476.32C323.197 476.32 322.462 476.622 321.857 477.228C321.252 477.833 320.949 478.568 320.949 479.433C320.949 480.297 321.252 481.032 321.857 481.637C322.462 482.243 323.197 482.545 324.062 482.545ZM313.686 500.184C310.816 500.184 308.118 499.64 305.593 498.55C303.068 497.461 300.872 495.982 299.004 494.114C297.137 492.247 295.658 490.051 294.569 487.526C293.479 485.001 292.935 482.303 292.935 479.433C292.935 476.562 293.479 473.864 294.569 471.339C295.658 468.815 297.137 466.618 299.004 464.751C300.872 462.883 303.068 461.405 305.593 460.315C308.118 459.226 310.816 458.681 313.686 458.681C316.557 458.681 319.255 459.226 321.779 460.315C324.304 461.405 326.5 462.883 328.368 464.751C330.236 466.618 331.714 468.815 332.804 471.339C333.893 473.864 334.438 476.562 334.438 479.433C334.438 482.303 333.893 485.001 332.804 487.526C331.714 490.051 330.236 492.247 328.368 494.114C326.5 495.982 324.304 497.461 321.779 498.55C319.255 499.64 316.557 500.184 313.686 500.184Z" fill="#FE8E16"/>
<mask id="path-410-inside-4_3847_14160" fill="white">
<path d="M1296.07 404.727H1377V554.139H1296.07V404.727Z"/>
</mask>
<path d="M1297.32 554.139V404.727H1294.83V554.139H1297.32Z" fill="#EBEBEB" mask="url(#path-410-inside-4_3847_14160)"/>
<path d="M1332.09 489.705L1329.69 487.308L1337.56 479.432L1329.69 471.557L1332.09 469.16L1342.36 479.432L1332.09 489.705Z" fill="#4A4D59"/>
<path d="M430.092 465H642.819" stroke="#C2C2C2" stroke-width="22.6909" stroke-linecap="round" stroke-linejoin="round"/>
<path d="M423 504H974.673" stroke="#EBEBEB" stroke-width="11.3455" stroke-linecap="round" stroke-linejoin="round"/>
<path d="M353 360L234 404.726H1377L1268 360L353 360Z" fill="#E3E4E8"/>
<path d="M234 554L87 610H1513L1377 554H234Z" fill="#E3E4E8"/>
<rect x="87.5" y="610.5" width="1425" height="185.464" fill="white"/>
<rect x="87.5" y="610.5" width="1425" height="185.464" stroke="#E3E4E8"/>
<mask id="path-418-inside-5_3847_14160" fill="white">
<path d="M87 610H285.832V796.405H87V610Z"/>
</mask>
<path d="M284.279 610V796.405H287.386V610H284.279Z" fill="#EBEBEB" mask="url(#path-418-inside-5_3847_14160)"/>
<path d="M186.287 718.736C187.193 718.736 187.959 718.423 188.584 717.798C189.21 717.172 189.523 716.406 189.523 715.5C189.523 714.594 189.21 713.828 188.584 713.202C187.959 712.577 187.193 712.264 186.287 712.264C185.38 712.264 184.614 712.577 183.989 713.202C183.363 713.828 183.05 714.594 183.05 715.5C183.05 716.406 183.363 717.172 183.989 717.798C184.614 718.423 185.38 718.736 186.287 718.736ZM183.956 708.769H188.746C188.746 707.345 188.908 706.223 189.231 705.403C189.555 704.583 190.472 703.461 191.982 702.037C193.104 700.915 193.989 699.847 194.636 698.833C195.283 697.819 195.607 696.601 195.607 695.177C195.607 692.76 194.722 690.905 192.953 689.61C191.184 688.316 189.091 687.669 186.675 687.669C184.215 687.669 182.22 688.316 180.688 689.61C179.156 690.905 178.088 692.458 177.484 694.27L181.756 695.953C181.972 695.177 182.457 694.335 183.212 693.429C183.967 692.523 185.122 692.07 186.675 692.07C188.056 692.07 189.091 692.447 189.782 693.202C190.472 693.958 190.817 694.788 190.817 695.694C190.817 696.557 190.558 697.366 190.041 698.122C189.523 698.877 188.875 699.578 188.099 700.225C186.2 701.908 185.035 703.181 184.604 704.044C184.172 704.907 183.956 706.482 183.956 708.769ZM186.416 729.092C182.835 729.092 179.469 728.412 176.319 727.053C173.169 725.694 170.429 723.849 168.099 721.519C165.769 719.189 163.924 716.449 162.565 713.299C161.206 710.149 160.526 706.784 160.526 703.202C160.526 699.621 161.206 696.255 162.565 693.105C163.924 689.956 165.769 687.216 168.099 684.885C170.429 682.555 173.169 680.711 176.319 679.352C179.469 677.992 182.835 677.313 186.416 677.313C189.997 677.313 193.363 677.992 196.513 679.352C199.663 680.711 202.403 682.555 204.733 684.885C207.063 687.216 208.908 689.956 210.267 693.105C211.626 696.255 212.306 699.621 212.306 703.202C212.306 706.784 211.626 710.149 210.267 713.299C208.908 716.449 207.063 719.189 204.733 721.519C202.403 723.849 199.663 725.694 196.513 727.053C193.363 728.412 189.997 729.092 186.416 729.092Z" fill="#333333"/>
<mask id="path-421-inside-6_3847_14160" fill="white">
<path d="M1412.03 610H1513V796.405H1412.03V610Z"/>
</mask>
<path d="M1413.58 796.405V610H1410.48V796.405H1413.58Z" fill="#EBEBEB" mask="url(#path-421-inside-6_3847_14160)"/>
<path d="M1456.96 716.018L1453.97 713.028L1463.8 703.203L1453.97 693.377L1456.96 690.387L1469.78 703.203L1456.96 716.018Z" fill="#4A4D59"/>
<path d="M332.637 683H793" stroke="#C2C2C2" stroke-width="28" stroke-linecap="round" stroke-linejoin="round"/>
<path d="M323 736H1072.71" stroke="#EBEBEB" stroke-width="15.4182" stroke-linecap="round" stroke-linejoin="round"/>
</g>
<defs>
<clipPath id="clip0_3847_14160">
<rect width="1600" height="900" fill="white"/>
</clipPath>
<clipPath id="clip1_3847_14160">
<rect width="426" height="696" fill="white" transform="translate(54 493) rotate(-90)"/>
</clipPath>
</defs>
</svg>
