<svg width="1600" height="448" viewBox="0 0 1600 448" fill="none" xmlns="http://www.w3.org/2000/svg">
<g clip-path="url(#clip0_3483_8508)">
<g opacity="0.4">
<mask id="mask0_3483_8508" style="mask-type:alpha" maskUnits="userSpaceOnUse" x="874" y="19" width="226" height="275">
<ellipse cx="891.335" cy="22.0544" rx="2.3526" ry="2.86403" transform="rotate(180 891.335 22.0544)" fill="#FFFFF2"/>
<ellipse cx="1008.91" cy="22.0544" rx="2.3526" ry="2.86403" transform="rotate(180 1008.91 22.0544)" fill="#FFFFF2"/>
<ellipse cx="950.12" cy="22.0544" rx="2.3526" ry="2.86403" transform="rotate(180 950.12 22.0544)" fill="#FFFFF2"/>
<ellipse cx="1067.7" cy="22.0544" rx="2.3526" ry="2.86403" transform="rotate(180 1067.7 22.0544)" fill="#FFFFF2"/>
<ellipse cx="920.727" cy="22.0544" rx="2.3526" ry="2.86403" transform="rotate(180 920.727 22.0544)" fill="#FFFFF2"/>
<ellipse cx="1038.3" cy="22.0544" rx="2.3526" ry="2.86403" transform="rotate(180 1038.3 22.0544)" fill="#FFFFF2"/>
<ellipse cx="979.517" cy="22.0544" rx="2.3526" ry="2.86403" transform="rotate(180 979.517 22.0544)" fill="#FFFFF2"/>
<ellipse cx="1097.09" cy="22.0544" rx="2.3526" ry="2.86403" transform="rotate(180 1097.09 22.0544)" fill="#FFFFF2"/>
<ellipse cx="876.64" cy="22.0544" rx="2.3526" ry="2.86403" transform="rotate(180 876.64 22.0544)" fill="#FFFFF2"/>
<ellipse cx="994.216" cy="22.0549" rx="2.3526" ry="2.86403" transform="rotate(180 994.216 22.0549)" fill="#FFFFF2"/>
<ellipse cx="935.425" cy="22.0544" rx="2.3526" ry="2.86403" transform="rotate(180 935.425 22.0544)" fill="#FFFFF2"/>
<ellipse cx="1053" cy="22.0544" rx="2.3526" ry="2.86403" transform="rotate(180 1053 22.0544)" fill="#FFFFF2"/>
<ellipse cx="906.03" cy="22.0544" rx="2.3526" ry="2.86403" transform="rotate(180 906.03 22.0544)" fill="#FFFFF2"/>
<ellipse cx="1023.61" cy="22.0544" rx="2.3526" ry="2.86403" transform="rotate(180 1023.61 22.0544)" fill="#FFFFF2"/>
<ellipse cx="964.819" cy="22.0544" rx="2.3526" ry="2.86403" transform="rotate(180 964.819 22.0544)" fill="#FFFFF2"/>
<ellipse cx="1082.39" cy="22.0544" rx="2.3526" ry="2.86403" transform="rotate(180 1082.39 22.0544)" fill="#FFFFF2"/>
<ellipse cx="891.335" cy="165.188" rx="2.3526" ry="2.86403" transform="rotate(180 891.335 165.188)" fill="#FFFFF2"/>
<ellipse cx="1008.91" cy="165.188" rx="2.3526" ry="2.86403" transform="rotate(180 1008.91 165.188)" fill="#FFFFF2"/>
<ellipse cx="950.12" cy="165.188" rx="2.3526" ry="2.86403" transform="rotate(180 950.12 165.188)" fill="#FFFFF2"/>
<ellipse cx="1067.7" cy="165.188" rx="2.3526" ry="2.86403" transform="rotate(180 1067.7 165.188)" fill="#FFFFF2"/>
<ellipse cx="920.727" cy="165.188" rx="2.3526" ry="2.86403" transform="rotate(180 920.727 165.188)" fill="#FFFFF2"/>
<ellipse cx="1038.3" cy="165.188" rx="2.3526" ry="2.86403" transform="rotate(180 1038.3 165.188)" fill="#FFFFF2"/>
<ellipse cx="979.517" cy="165.188" rx="2.3526" ry="2.86403" transform="rotate(180 979.517 165.188)" fill="#FFFFF2"/>
<ellipse cx="1097.09" cy="165.188" rx="2.3526" ry="2.86403" transform="rotate(180 1097.09 165.188)" fill="#FFFFF2"/>
<ellipse cx="876.64" cy="165.188" rx="2.3526" ry="2.86403" transform="rotate(180 876.64 165.188)" fill="#FFFFF2"/>
<ellipse cx="994.214" cy="165.188" rx="2.3526" ry="2.86403" transform="rotate(180 994.214 165.188)" fill="#FFFFF2"/>
<ellipse cx="935.425" cy="165.188" rx="2.3526" ry="2.86403" transform="rotate(180 935.425 165.188)" fill="#FFFFF2"/>
<ellipse cx="1053" cy="165.188" rx="2.3526" ry="2.86403" transform="rotate(180 1053 165.188)" fill="#FFFFF2"/>
<ellipse cx="906.03" cy="165.188" rx="2.3526" ry="2.86403" transform="rotate(180 906.03 165.188)" fill="#FFFFF2"/>
<ellipse cx="1023.61" cy="165.188" rx="2.3526" ry="2.86403" transform="rotate(180 1023.61 165.188)" fill="#FFFFF2"/>
<ellipse cx="964.821" cy="165.188" rx="2.3526" ry="2.86403" transform="rotate(180 964.821 165.188)" fill="#FFFFF2"/>
<ellipse cx="1082.39" cy="165.188" rx="2.3526" ry="2.86403" transform="rotate(180 1082.39 165.188)" fill="#FFFFF2"/>
<ellipse cx="891.335" cy="93.6213" rx="2.3526" ry="2.86403" transform="rotate(180 891.335 93.6213)" fill="#FFFFF2"/>
<ellipse cx="1008.91" cy="93.6213" rx="2.3526" ry="2.86403" transform="rotate(180 1008.91 93.6213)" fill="#FFFFF2"/>
<ellipse cx="950.12" cy="93.6213" rx="2.3526" ry="2.86403" transform="rotate(180 950.12 93.6213)" fill="#FFFFF2"/>
<ellipse cx="1067.7" cy="93.6213" rx="2.3526" ry="2.86403" transform="rotate(180 1067.7 93.6213)" fill="#FFFFF2"/>
<ellipse cx="920.727" cy="93.6213" rx="2.3526" ry="2.86403" transform="rotate(180 920.727 93.6213)" fill="#FFFFF2"/>
<ellipse cx="1038.3" cy="93.6213" rx="2.3526" ry="2.86403" transform="rotate(180 1038.3 93.6213)" fill="#FFFFF2"/>
<ellipse cx="979.517" cy="93.6213" rx="2.3526" ry="2.86403" transform="rotate(180 979.517 93.6213)" fill="#FFFFF2"/>
<ellipse cx="1097.09" cy="93.6213" rx="2.3526" ry="2.86403" transform="rotate(180 1097.09 93.6213)" fill="#FFFFF2"/>
<ellipse cx="876.64" cy="93.6213" rx="2.3526" ry="2.86403" transform="rotate(180 876.64 93.6213)" fill="#FFFFF2"/>
<ellipse cx="994.216" cy="93.6213" rx="2.3526" ry="2.86403" transform="rotate(180 994.216 93.6213)" fill="#FFFFF2"/>
<ellipse cx="935.425" cy="93.6213" rx="2.3526" ry="2.86403" transform="rotate(180 935.425 93.6213)" fill="#FFFFF2"/>
<ellipse cx="1053" cy="93.6213" rx="2.3526" ry="2.86403" transform="rotate(180 1053 93.6213)" fill="#FFFFF2"/>
<ellipse cx="906.03" cy="93.6213" rx="2.3526" ry="2.86403" transform="rotate(180 906.03 93.6213)" fill="#FFFFF2"/>
<ellipse cx="1023.61" cy="93.6213" rx="2.3526" ry="2.86403" transform="rotate(180 1023.61 93.6213)" fill="#FFFFF2"/>
<ellipse cx="964.819" cy="93.6213" rx="2.3526" ry="2.86403" transform="rotate(180 964.819 93.6213)" fill="#FFFFF2"/>
<ellipse cx="1082.39" cy="93.6213" rx="2.3526" ry="2.86403" transform="rotate(180 1082.39 93.6213)" fill="#FFFFF2"/>
<ellipse cx="891.335" cy="236.755" rx="2.3526" ry="2.86403" transform="rotate(180 891.335 236.755)" fill="#FFFFF2"/>
<ellipse cx="1008.91" cy="236.755" rx="2.3526" ry="2.86403" transform="rotate(180 1008.91 236.755)" fill="#FFFFF2"/>
<ellipse cx="950.12" cy="236.755" rx="2.3526" ry="2.86403" transform="rotate(180 950.12 236.755)" fill="#FFFFF2"/>
<ellipse cx="1067.7" cy="236.755" rx="2.3526" ry="2.86403" transform="rotate(180 1067.7 236.755)" fill="#FFFFF2"/>
<ellipse cx="920.727" cy="236.755" rx="2.3526" ry="2.86403" transform="rotate(180 920.727 236.755)" fill="#FFFFF2"/>
<ellipse cx="1038.3" cy="236.755" rx="2.3526" ry="2.86403" transform="rotate(180 1038.3 236.755)" fill="#FFFFF2"/>
<ellipse cx="979.517" cy="236.755" rx="2.3526" ry="2.86403" transform="rotate(180 979.517 236.755)" fill="#FFFFF2"/>
<ellipse cx="1097.09" cy="236.755" rx="2.3526" ry="2.86403" transform="rotate(180 1097.09 236.755)" fill="#FFFFF2"/>
<ellipse cx="876.64" cy="236.755" rx="2.3526" ry="2.86403" transform="rotate(180 876.64 236.755)" fill="#FFFFF2"/>
<ellipse cx="994.214" cy="236.755" rx="2.3526" ry="2.86403" transform="rotate(180 994.214 236.755)" fill="#FFFFF2"/>
<ellipse cx="935.425" cy="236.755" rx="2.3526" ry="2.86403" transform="rotate(180 935.425 236.755)" fill="#FFFFF2"/>
<ellipse cx="1053" cy="236.755" rx="2.3526" ry="2.86403" transform="rotate(180 1053 236.755)" fill="#FFFFF2"/>
<ellipse cx="906.03" cy="236.755" rx="2.3526" ry="2.86403" transform="rotate(180 906.03 236.755)" fill="#FFFFF2"/>
<ellipse cx="1023.61" cy="236.755" rx="2.3526" ry="2.86403" transform="rotate(180 1023.61 236.755)" fill="#FFFFF2"/>
<ellipse cx="964.821" cy="236.755" rx="2.3526" ry="2.86403" transform="rotate(180 964.821 236.755)" fill="#FFFFF2"/>
<ellipse cx="1082.39" cy="236.755" rx="2.3526" ry="2.86403" transform="rotate(180 1082.39 236.755)" fill="#FFFFF2"/>
<ellipse cx="891.335" cy="57.8381" rx="2.3526" ry="2.86403" transform="rotate(180 891.335 57.8381)" fill="#FFFFF2"/>
<ellipse cx="1008.91" cy="57.8381" rx="2.3526" ry="2.86403" transform="rotate(180 1008.91 57.8381)" fill="#FFFFF2"/>
<ellipse cx="950.12" cy="57.8381" rx="2.3526" ry="2.86403" transform="rotate(180 950.12 57.8381)" fill="#FFFFF2"/>
<ellipse cx="1067.7" cy="57.8381" rx="2.3526" ry="2.86403" transform="rotate(180 1067.7 57.8381)" fill="#FFFFF2"/>
<ellipse cx="920.727" cy="57.8381" rx="2.3526" ry="2.86403" transform="rotate(180 920.727 57.8381)" fill="#FFFFF2"/>
<ellipse cx="1038.3" cy="57.8381" rx="2.3526" ry="2.86403" transform="rotate(180 1038.3 57.8381)" fill="#FFFFF2"/>
<ellipse cx="979.517" cy="57.8381" rx="2.3526" ry="2.86403" transform="rotate(180 979.517 57.8381)" fill="#FFFFF2"/>
<ellipse cx="1097.09" cy="57.8381" rx="2.3526" ry="2.86403" transform="rotate(180 1097.09 57.8381)" fill="#FFFFF2"/>
<ellipse cx="876.64" cy="57.8381" rx="2.3526" ry="2.86403" transform="rotate(180 876.64 57.8381)" fill="#FFFFF2"/>
<ellipse cx="994.216" cy="57.8381" rx="2.3526" ry="2.86403" transform="rotate(180 994.216 57.8381)" fill="#FFFFF2"/>
<ellipse cx="935.425" cy="57.8381" rx="2.3526" ry="2.86403" transform="rotate(180 935.425 57.8381)" fill="#FFFFF2"/>
<ellipse cx="1053" cy="57.8381" rx="2.3526" ry="2.86403" transform="rotate(180 1053 57.8381)" fill="#FFFFF2"/>
<ellipse cx="906.03" cy="57.8381" rx="2.3526" ry="2.86403" transform="rotate(180 906.03 57.8381)" fill="#FFFFF2"/>
<ellipse cx="1023.61" cy="57.8381" rx="2.3526" ry="2.86403" transform="rotate(180 1023.61 57.8381)" fill="#FFFFF2"/>
<ellipse cx="964.819" cy="57.8381" rx="2.3526" ry="2.86403" transform="rotate(180 964.819 57.8381)" fill="#FFFFF2"/>
<ellipse cx="1082.39" cy="57.8381" rx="2.3526" ry="2.86403" transform="rotate(180 1082.39 57.8381)" fill="#FFFFF2"/>
<ellipse cx="891.335" cy="200.972" rx="2.3526" ry="2.86403" transform="rotate(180 891.335 200.972)" fill="#FFFFF2"/>
<ellipse cx="1008.91" cy="200.972" rx="2.3526" ry="2.86403" transform="rotate(180 1008.91 200.972)" fill="#FFFFF2"/>
<ellipse cx="950.12" cy="200.972" rx="2.3526" ry="2.86403" transform="rotate(180 950.12 200.972)" fill="#FFFFF2"/>
<ellipse cx="1067.7" cy="200.972" rx="2.3526" ry="2.86403" transform="rotate(180 1067.7 200.972)" fill="#FFFFF2"/>
<ellipse cx="920.727" cy="200.972" rx="2.3526" ry="2.86403" transform="rotate(180 920.727 200.972)" fill="#FFFFF2"/>
<ellipse cx="1038.3" cy="200.972" rx="2.3526" ry="2.86403" transform="rotate(180 1038.3 200.972)" fill="#FFFFF2"/>
<ellipse cx="979.517" cy="200.972" rx="2.3526" ry="2.86403" transform="rotate(180 979.517 200.972)" fill="#FFFFF2"/>
<ellipse cx="1097.09" cy="200.972" rx="2.3526" ry="2.86403" transform="rotate(180 1097.09 200.972)" fill="#FFFFF2"/>
<ellipse cx="876.64" cy="200.972" rx="2.3526" ry="2.86403" transform="rotate(180 876.64 200.972)" fill="#FFFFF2"/>
<ellipse cx="994.214" cy="200.972" rx="2.3526" ry="2.86403" transform="rotate(180 994.214 200.972)" fill="#FFFFF2"/>
<ellipse cx="935.425" cy="200.972" rx="2.3526" ry="2.86403" transform="rotate(180 935.425 200.972)" fill="#FFFFF2"/>
<ellipse cx="1053" cy="200.972" rx="2.3526" ry="2.86403" transform="rotate(180 1053 200.972)" fill="#FFFFF2"/>
<ellipse cx="906.03" cy="200.972" rx="2.3526" ry="2.86403" transform="rotate(180 906.03 200.972)" fill="#FFFFF2"/>
<ellipse cx="1023.61" cy="200.972" rx="2.3526" ry="2.86403" transform="rotate(180 1023.61 200.972)" fill="#FFFFF2"/>
<ellipse cx="964.821" cy="200.972" rx="2.3526" ry="2.86403" transform="rotate(180 964.821 200.972)" fill="#FFFFF2"/>
<ellipse cx="1082.39" cy="200.972" rx="2.3526" ry="2.86403" transform="rotate(180 1082.39 200.972)" fill="#FFFFF2"/>
<ellipse cx="891.335" cy="129.406" rx="2.3526" ry="2.86403" transform="rotate(180 891.335 129.406)" fill="#FFFFF2"/>
<ellipse cx="1008.91" cy="129.406" rx="2.3526" ry="2.86403" transform="rotate(180 1008.91 129.406)" fill="#FFFFF2"/>
<ellipse cx="950.12" cy="129.406" rx="2.3526" ry="2.86403" transform="rotate(180 950.12 129.406)" fill="#FFFFF2"/>
<ellipse cx="1067.7" cy="129.406" rx="2.3526" ry="2.86403" transform="rotate(180 1067.7 129.406)" fill="#FFFFF2"/>
<ellipse cx="920.727" cy="129.406" rx="2.3526" ry="2.86403" transform="rotate(180 920.727 129.406)" fill="#FFFFF2"/>
<ellipse cx="1038.3" cy="129.406" rx="2.3526" ry="2.86403" transform="rotate(180 1038.3 129.406)" fill="#FFFFF2"/>
<ellipse cx="979.517" cy="129.406" rx="2.3526" ry="2.86403" transform="rotate(180 979.517 129.406)" fill="#FFFFF2"/>
<ellipse cx="1097.09" cy="129.406" rx="2.3526" ry="2.86403" transform="rotate(180 1097.09 129.406)" fill="#FFFFF2"/>
<ellipse cx="876.64" cy="129.406" rx="2.3526" ry="2.86403" transform="rotate(180 876.64 129.406)" fill="#FFFFF2"/>
<ellipse cx="994.214" cy="129.406" rx="2.3526" ry="2.86403" transform="rotate(180 994.214 129.406)" fill="#FFFFF2"/>
<ellipse cx="935.425" cy="129.406" rx="2.3526" ry="2.86403" transform="rotate(180 935.425 129.406)" fill="#FFFFF2"/>
<ellipse cx="1053" cy="129.406" rx="2.3526" ry="2.86403" transform="rotate(180 1053 129.406)" fill="#FFFFF2"/>
<ellipse cx="906.03" cy="129.406" rx="2.3526" ry="2.86403" transform="rotate(180 906.03 129.406)" fill="#FFFFF2"/>
<ellipse cx="1023.61" cy="129.406" rx="2.3526" ry="2.86403" transform="rotate(180 1023.61 129.406)" fill="#FFFFF2"/>
<ellipse cx="964.821" cy="129.406" rx="2.3526" ry="2.86403" transform="rotate(180 964.821 129.406)" fill="#FFFFF2"/>
<ellipse cx="1082.39" cy="129.406" rx="2.3526" ry="2.86403" transform="rotate(180 1082.39 129.406)" fill="#FFFFF2"/>
<ellipse cx="891.335" cy="272.538" rx="2.3526" ry="2.86403" transform="rotate(180 891.335 272.538)" fill="#FFFFF2"/>
<ellipse cx="1008.91" cy="272.538" rx="2.3526" ry="2.86403" transform="rotate(180 1008.91 272.538)" fill="#FFFFF2"/>
<ellipse cx="950.12" cy="272.538" rx="2.3526" ry="2.86403" transform="rotate(180 950.12 272.538)" fill="#FFFFF2"/>
<ellipse cx="1067.7" cy="272.538" rx="2.3526" ry="2.86403" transform="rotate(180 1067.7 272.538)" fill="#FFFFF2"/>
<ellipse cx="920.727" cy="272.538" rx="2.3526" ry="2.86403" transform="rotate(180 920.727 272.538)" fill="#FFFFF2"/>
<ellipse cx="1038.3" cy="272.538" rx="2.3526" ry="2.86403" transform="rotate(180 1038.3 272.538)" fill="#FFFFF2"/>
<ellipse cx="979.517" cy="272.538" rx="2.3526" ry="2.86403" transform="rotate(180 979.517 272.538)" fill="#FFFFF2"/>
<ellipse cx="1097.09" cy="272.538" rx="2.3526" ry="2.86403" transform="rotate(180 1097.09 272.538)" fill="#FFFFF2"/>
<ellipse cx="876.638" cy="272.538" rx="2.3526" ry="2.86403" transform="rotate(180 876.638 272.538)" fill="#FFFFF2"/>
<ellipse cx="994.214" cy="272.538" rx="2.3526" ry="2.86403" transform="rotate(180 994.214 272.538)" fill="#FFFFF2"/>
<ellipse cx="935.425" cy="272.538" rx="2.3526" ry="2.86403" transform="rotate(180 935.425 272.538)" fill="#FFFFF2"/>
<ellipse cx="1053" cy="272.538" rx="2.3526" ry="2.86403" transform="rotate(180 1053 272.538)" fill="#FFFFF2"/>
<ellipse cx="906.03" cy="272.538" rx="2.3526" ry="2.86403" transform="rotate(180 906.03 272.538)" fill="#FFFFF2"/>
<ellipse cx="1023.61" cy="272.538" rx="2.3526" ry="2.86403" transform="rotate(180 1023.61 272.538)" fill="#FFFFF2"/>
<ellipse cx="964.821" cy="272.538" rx="2.3526" ry="2.86403" transform="rotate(180 964.821 272.538)" fill="#FFFFF2"/>
<ellipse cx="1082.39" cy="272.538" rx="2.3526" ry="2.86403" transform="rotate(180 1082.39 272.538)" fill="#FFFFF2"/>
<ellipse cx="891.335" cy="39.9465" rx="2.3526" ry="2.86403" transform="rotate(180 891.335 39.9465)" fill="#FFFFF2"/>
<ellipse cx="1008.91" cy="39.9465" rx="2.3526" ry="2.86403" transform="rotate(180 1008.91 39.9465)" fill="#FFFFF2"/>
<ellipse cx="950.12" cy="39.9465" rx="2.3526" ry="2.86403" transform="rotate(180 950.12 39.9465)" fill="#FFFFF2"/>
<ellipse cx="1067.7" cy="39.9465" rx="2.3526" ry="2.86403" transform="rotate(180 1067.7 39.9465)" fill="#FFFFF2"/>
<ellipse cx="920.727" cy="39.9465" rx="2.3526" ry="2.86403" transform="rotate(180 920.727 39.9465)" fill="#FFFFF2"/>
<ellipse cx="1038.3" cy="39.9465" rx="2.3526" ry="2.86403" transform="rotate(180 1038.3 39.9465)" fill="#FFFFF2"/>
<ellipse cx="979.517" cy="39.9465" rx="2.3526" ry="2.86403" transform="rotate(180 979.517 39.9465)" fill="#FFFFF2"/>
<ellipse cx="1097.09" cy="39.9465" rx="2.3526" ry="2.86403" transform="rotate(180 1097.09 39.9465)" fill="#FFFFF2"/>
<ellipse cx="876.638" cy="39.9465" rx="2.3526" ry="2.86403" transform="rotate(180 876.638 39.9465)" fill="#FFFFF2"/>
<ellipse cx="994.216" cy="39.9465" rx="2.3526" ry="2.86403" transform="rotate(180 994.216 39.9465)" fill="#FFFFF2"/>
<ellipse cx="935.425" cy="39.9465" rx="2.3526" ry="2.86403" transform="rotate(180 935.425 39.9465)" fill="#FFFFF2"/>
<ellipse cx="1053" cy="39.9465" rx="2.3526" ry="2.86403" transform="rotate(180 1053 39.9465)" fill="#FFFFF2"/>
<ellipse cx="906.03" cy="39.9465" rx="2.3526" ry="2.86403" transform="rotate(180 906.03 39.9465)" fill="#FFFFF2"/>
<ellipse cx="1023.61" cy="39.9465" rx="2.3526" ry="2.86403" transform="rotate(180 1023.61 39.9465)" fill="#FFFFF2"/>
<ellipse cx="964.819" cy="39.9465" rx="2.3526" ry="2.86403" transform="rotate(180 964.819 39.9465)" fill="#FFFFF2"/>
<ellipse cx="1082.39" cy="39.9465" rx="2.3526" ry="2.86403" transform="rotate(180 1082.39 39.9465)" fill="#FFFFF2"/>
<ellipse cx="891.335" cy="183.081" rx="2.3526" ry="2.86403" transform="rotate(180 891.335 183.081)" fill="#FFFFF2"/>
<ellipse cx="1008.91" cy="183.081" rx="2.3526" ry="2.86403" transform="rotate(180 1008.91 183.081)" fill="#FFFFF2"/>
<ellipse cx="950.12" cy="183.081" rx="2.3526" ry="2.86403" transform="rotate(180 950.12 183.081)" fill="#FFFFF2"/>
<ellipse cx="1067.7" cy="183.081" rx="2.3526" ry="2.86403" transform="rotate(180 1067.7 183.081)" fill="#FFFFF2"/>
<ellipse cx="920.727" cy="183.081" rx="2.3526" ry="2.86403" transform="rotate(180 920.727 183.081)" fill="#FFFFF2"/>
<ellipse cx="1038.3" cy="183.081" rx="2.3526" ry="2.86403" transform="rotate(180 1038.3 183.081)" fill="#FFFFF2"/>
<ellipse cx="979.517" cy="183.081" rx="2.3526" ry="2.86403" transform="rotate(180 979.517 183.081)" fill="#FFFFF2"/>
<ellipse cx="1097.09" cy="183.081" rx="2.3526" ry="2.86403" transform="rotate(180 1097.09 183.081)" fill="#FFFFF2"/>
<ellipse cx="876.64" cy="183.081" rx="2.3526" ry="2.86403" transform="rotate(180 876.64 183.081)" fill="#FFFFF2"/>
<ellipse cx="994.214" cy="183.081" rx="2.3526" ry="2.86403" transform="rotate(180 994.214 183.081)" fill="#FFFFF2"/>
<ellipse cx="935.425" cy="183.081" rx="2.3526" ry="2.86403" transform="rotate(180 935.425 183.081)" fill="#FFFFF2"/>
<ellipse cx="1053" cy="183.081" rx="2.3526" ry="2.86403" transform="rotate(180 1053 183.081)" fill="#FFFFF2"/>
<ellipse cx="906.03" cy="183.081" rx="2.3526" ry="2.86403" transform="rotate(180 906.03 183.081)" fill="#FFFFF2"/>
<ellipse cx="1023.61" cy="183.081" rx="2.3526" ry="2.86403" transform="rotate(180 1023.61 183.081)" fill="#FFFFF2"/>
<ellipse cx="964.821" cy="183.081" rx="2.3526" ry="2.86403" transform="rotate(180 964.821 183.081)" fill="#FFFFF2"/>
<ellipse cx="1082.39" cy="183.081" rx="2.3526" ry="2.86403" transform="rotate(180 1082.39 183.081)" fill="#FFFFF2"/>
<ellipse cx="891.335" cy="111.513" rx="2.3526" ry="2.86403" transform="rotate(180 891.335 111.513)" fill="#FFFFF2"/>
<ellipse cx="1008.91" cy="111.513" rx="2.3526" ry="2.86403" transform="rotate(180 1008.91 111.513)" fill="#FFFFF2"/>
<ellipse cx="950.12" cy="111.513" rx="2.3526" ry="2.86403" transform="rotate(180 950.12 111.513)" fill="#FFFFF2"/>
<ellipse cx="1067.7" cy="111.513" rx="2.3526" ry="2.86403" transform="rotate(180 1067.7 111.513)" fill="#FFFFF2"/>
<ellipse cx="920.727" cy="111.513" rx="2.3526" ry="2.86403" transform="rotate(180 920.727 111.513)" fill="#FFFFF2"/>
<ellipse cx="1038.3" cy="111.513" rx="2.3526" ry="2.86403" transform="rotate(180 1038.3 111.513)" fill="#FFFFF2"/>
<ellipse cx="979.517" cy="111.513" rx="2.3526" ry="2.86403" transform="rotate(180 979.517 111.513)" fill="#FFFFF2"/>
<ellipse cx="1097.09" cy="111.513" rx="2.3526" ry="2.86403" transform="rotate(180 1097.09 111.513)" fill="#FFFFF2"/>
<ellipse cx="876.64" cy="111.513" rx="2.3526" ry="2.86403" transform="rotate(180 876.64 111.513)" fill="#FFFFF2"/>
<ellipse cx="994.216" cy="111.513" rx="2.3526" ry="2.86403" transform="rotate(180 994.216 111.513)" fill="#FFFFF2"/>
<ellipse cx="935.425" cy="111.513" rx="2.3526" ry="2.86403" transform="rotate(180 935.425 111.513)" fill="#FFFFF2"/>
<ellipse cx="1053" cy="111.513" rx="2.3526" ry="2.86403" transform="rotate(180 1053 111.513)" fill="#FFFFF2"/>
<ellipse cx="906.03" cy="111.513" rx="2.3526" ry="2.86403" transform="rotate(180 906.03 111.513)" fill="#FFFFF2"/>
<ellipse cx="1023.61" cy="111.513" rx="2.3526" ry="2.86403" transform="rotate(180 1023.61 111.513)" fill="#FFFFF2"/>
<ellipse cx="964.819" cy="111.513" rx="2.3526" ry="2.86403" transform="rotate(180 964.819 111.513)" fill="#FFFFF2"/>
<ellipse cx="1082.39" cy="111.513" rx="2.3526" ry="2.86403" transform="rotate(180 1082.39 111.513)" fill="#FFFFF2"/>
<ellipse cx="891.335" cy="254.648" rx="2.3526" ry="2.86403" transform="rotate(180 891.335 254.648)" fill="#FFFFF2"/>
<ellipse cx="1008.91" cy="254.648" rx="2.3526" ry="2.86403" transform="rotate(180 1008.91 254.648)" fill="#FFFFF2"/>
<ellipse cx="950.12" cy="254.648" rx="2.3526" ry="2.86403" transform="rotate(180 950.12 254.648)" fill="#FFFFF2"/>
<ellipse cx="1067.7" cy="254.648" rx="2.3526" ry="2.86403" transform="rotate(180 1067.7 254.648)" fill="#FFFFF2"/>
<ellipse cx="920.727" cy="254.648" rx="2.3526" ry="2.86403" transform="rotate(180 920.727 254.648)" fill="#FFFFF2"/>
<ellipse cx="1038.3" cy="254.648" rx="2.3526" ry="2.86403" transform="rotate(180 1038.3 254.648)" fill="#FFFFF2"/>
<ellipse cx="979.517" cy="254.648" rx="2.3526" ry="2.86403" transform="rotate(180 979.517 254.648)" fill="#FFFFF2"/>
<ellipse cx="1097.09" cy="254.648" rx="2.3526" ry="2.86403" transform="rotate(180 1097.09 254.648)" fill="#FFFFF2"/>
<ellipse cx="876.64" cy="254.648" rx="2.3526" ry="2.86403" transform="rotate(180 876.64 254.648)" fill="#FFFFF2"/>
<ellipse cx="994.214" cy="254.648" rx="2.3526" ry="2.86403" transform="rotate(180 994.214 254.648)" fill="#FFFFF2"/>
<ellipse cx="935.425" cy="254.648" rx="2.3526" ry="2.86403" transform="rotate(180 935.425 254.648)" fill="#FFFFF2"/>
<ellipse cx="1053" cy="254.648" rx="2.3526" ry="2.86403" transform="rotate(180 1053 254.648)" fill="#FFFFF2"/>
<ellipse cx="906.03" cy="254.648" rx="2.3526" ry="2.86403" transform="rotate(180 906.03 254.648)" fill="#FFFFF2"/>
<ellipse cx="1023.61" cy="254.648" rx="2.3526" ry="2.86403" transform="rotate(180 1023.61 254.648)" fill="#FFFFF2"/>
<ellipse cx="964.821" cy="254.648" rx="2.3526" ry="2.86403" transform="rotate(180 964.821 254.648)" fill="#FFFFF2"/>
<ellipse cx="1082.39" cy="254.648" rx="2.3526" ry="2.86403" transform="rotate(180 1082.39 254.648)" fill="#FFFFF2"/>
<ellipse cx="891.335" cy="75.7297" rx="2.3526" ry="2.86403" transform="rotate(180 891.335 75.7297)" fill="#FFFFF2"/>
<ellipse cx="1008.91" cy="75.7297" rx="2.3526" ry="2.86403" transform="rotate(180 1008.91 75.7297)" fill="#FFFFF2"/>
<ellipse cx="950.12" cy="75.7297" rx="2.3526" ry="2.86403" transform="rotate(180 950.12 75.7297)" fill="#FFFFF2"/>
<ellipse cx="1067.7" cy="75.7297" rx="2.3526" ry="2.86403" transform="rotate(180 1067.7 75.7297)" fill="#FFFFF2"/>
<ellipse cx="920.727" cy="75.7297" rx="2.3526" ry="2.86403" transform="rotate(180 920.727 75.7297)" fill="#FFFFF2"/>
<ellipse cx="1038.3" cy="75.7297" rx="2.3526" ry="2.86403" transform="rotate(180 1038.3 75.7297)" fill="#FFFFF2"/>
<ellipse cx="979.517" cy="75.7297" rx="2.3526" ry="2.86403" transform="rotate(180 979.517 75.7297)" fill="#FFFFF2"/>
<ellipse cx="1097.09" cy="75.7297" rx="2.3526" ry="2.86403" transform="rotate(180 1097.09 75.7297)" fill="#FFFFF2"/>
<ellipse cx="876.64" cy="75.7297" rx="2.3526" ry="2.86403" transform="rotate(180 876.64 75.7297)" fill="#FFFFF2"/>
<ellipse cx="994.216" cy="75.7297" rx="2.3526" ry="2.86403" transform="rotate(180 994.216 75.7297)" fill="#FFFFF2"/>
<ellipse cx="935.425" cy="75.7297" rx="2.3526" ry="2.86403" transform="rotate(180 935.425 75.7297)" fill="#FFFFF2"/>
<ellipse cx="1053" cy="75.7297" rx="2.3526" ry="2.86403" transform="rotate(180 1053 75.7297)" fill="#FFFFF2"/>
<ellipse cx="906.03" cy="75.7297" rx="2.3526" ry="2.86403" transform="rotate(180 906.03 75.7297)" fill="#FFFFF2"/>
<ellipse cx="1023.61" cy="75.7297" rx="2.3526" ry="2.86403" transform="rotate(180 1023.61 75.7297)" fill="#FFFFF2"/>
<ellipse cx="964.819" cy="75.7297" rx="2.3526" ry="2.86403" transform="rotate(180 964.819 75.7297)" fill="#FFFFF2"/>
<ellipse cx="1082.39" cy="75.7297" rx="2.3526" ry="2.86403" transform="rotate(180 1082.39 75.7297)" fill="#FFFFF2"/>
<ellipse cx="891.335" cy="218.864" rx="2.3526" ry="2.86403" transform="rotate(180 891.335 218.864)" fill="#FFFFF2"/>
<ellipse cx="1008.91" cy="218.864" rx="2.3526" ry="2.86403" transform="rotate(180 1008.91 218.864)" fill="#FFFFF2"/>
<ellipse cx="950.12" cy="218.864" rx="2.3526" ry="2.86403" transform="rotate(180 950.12 218.864)" fill="#FFFFF2"/>
<ellipse cx="1067.7" cy="218.864" rx="2.3526" ry="2.86403" transform="rotate(180 1067.7 218.864)" fill="#FFFFF2"/>
<ellipse cx="920.727" cy="218.864" rx="2.3526" ry="2.86403" transform="rotate(180 920.727 218.864)" fill="#FFFFF2"/>
<ellipse cx="1038.3" cy="218.864" rx="2.3526" ry="2.86403" transform="rotate(180 1038.3 218.864)" fill="#FFFFF2"/>
<ellipse cx="979.517" cy="218.864" rx="2.3526" ry="2.86403" transform="rotate(180 979.517 218.864)" fill="#FFFFF2"/>
<ellipse cx="1097.09" cy="218.864" rx="2.3526" ry="2.86403" transform="rotate(180 1097.09 218.864)" fill="#FFFFF2"/>
<ellipse cx="876.64" cy="218.864" rx="2.3526" ry="2.86403" transform="rotate(180 876.64 218.864)" fill="#FFFFF2"/>
<ellipse cx="994.214" cy="218.864" rx="2.3526" ry="2.86403" transform="rotate(180 994.214 218.864)" fill="#FFFFF2"/>
<ellipse cx="935.425" cy="218.864" rx="2.3526" ry="2.86403" transform="rotate(180 935.425 218.864)" fill="#FFFFF2"/>
<ellipse cx="1053" cy="218.864" rx="2.3526" ry="2.86403" transform="rotate(180 1053 218.864)" fill="#FFFFF2"/>
<ellipse cx="906.03" cy="218.864" rx="2.3526" ry="2.86403" transform="rotate(180 906.03 218.864)" fill="#FFFFF2"/>
<ellipse cx="1023.61" cy="218.864" rx="2.3526" ry="2.86403" transform="rotate(180 1023.61 218.864)" fill="#FFFFF2"/>
<ellipse cx="964.821" cy="218.864" rx="2.3526" ry="2.86403" transform="rotate(180 964.821 218.864)" fill="#FFFFF2"/>
<ellipse cx="1082.39" cy="218.864" rx="2.3526" ry="2.86403" transform="rotate(180 1082.39 218.864)" fill="#FFFFF2"/>
<ellipse cx="891.335" cy="147.297" rx="2.3526" ry="2.86403" transform="rotate(180 891.335 147.297)" fill="#FFFFF2"/>
<ellipse cx="1008.91" cy="147.297" rx="2.3526" ry="2.86403" transform="rotate(180 1008.91 147.297)" fill="#FFFFF2"/>
<ellipse cx="950.12" cy="147.297" rx="2.3526" ry="2.86403" transform="rotate(180 950.12 147.297)" fill="#FFFFF2"/>
<ellipse cx="1067.7" cy="147.297" rx="2.3526" ry="2.86403" transform="rotate(180 1067.7 147.297)" fill="#FFFFF2"/>
<ellipse cx="920.727" cy="147.297" rx="2.3526" ry="2.86403" transform="rotate(180 920.727 147.297)" fill="#FFFFF2"/>
<ellipse cx="1038.3" cy="147.297" rx="2.3526" ry="2.86403" transform="rotate(180 1038.3 147.297)" fill="#FFFFF2"/>
<ellipse cx="979.518" cy="147.297" rx="2.3526" ry="2.86403" transform="rotate(180 979.518 147.297)" fill="#FFFFF2"/>
<ellipse cx="1097.09" cy="147.297" rx="2.3526" ry="2.86403" transform="rotate(180 1097.09 147.297)" fill="#FFFFF2"/>
<ellipse cx="876.64" cy="147.297" rx="2.3526" ry="2.86403" transform="rotate(180 876.64 147.297)" fill="#FFFFF2"/>
<ellipse cx="994.216" cy="147.297" rx="2.3526" ry="2.86403" transform="rotate(180 994.216 147.297)" fill="#FFFFF2"/>
<ellipse cx="935.425" cy="147.297" rx="2.3526" ry="2.86403" transform="rotate(180 935.425 147.297)" fill="#FFFFF2"/>
<ellipse cx="1053" cy="147.297" rx="2.3526" ry="2.86403" transform="rotate(180 1053 147.297)" fill="#FFFFF2"/>
<ellipse cx="906.03" cy="147.297" rx="2.3526" ry="2.86403" transform="rotate(180 906.03 147.297)" fill="#FFFFF2"/>
<ellipse cx="1023.61" cy="147.297" rx="2.3526" ry="2.86403" transform="rotate(180 1023.61 147.297)" fill="#FFFFF2"/>
<ellipse cx="964.821" cy="147.297" rx="2.3526" ry="2.86403" transform="rotate(180 964.821 147.297)" fill="#FFFFF2"/>
<ellipse cx="1082.39" cy="147.297" rx="2.3526" ry="2.86403" transform="rotate(180 1082.39 147.297)" fill="#FFFFF2"/>
<ellipse cx="891.335" cy="290.43" rx="2.3526" ry="2.86403" transform="rotate(180 891.335 290.43)" fill="#FFFFF2"/>
<ellipse cx="1008.91" cy="290.43" rx="2.3526" ry="2.86403" transform="rotate(180 1008.91 290.43)" fill="#FFFFF2"/>
<ellipse cx="950.12" cy="290.43" rx="2.3526" ry="2.86403" transform="rotate(180 950.12 290.43)" fill="#FFFFF2"/>
<ellipse cx="1067.7" cy="290.43" rx="2.3526" ry="2.86403" transform="rotate(180 1067.7 290.43)" fill="#FFFFF2"/>
<ellipse cx="920.727" cy="290.43" rx="2.3526" ry="2.86403" transform="rotate(180 920.727 290.43)" fill="#FFFFF2"/>
<ellipse cx="1038.3" cy="290.43" rx="2.3526" ry="2.86403" transform="rotate(180 1038.3 290.43)" fill="#FFFFF2"/>
<ellipse cx="979.517" cy="290.43" rx="2.3526" ry="2.86403" transform="rotate(180 979.517 290.43)" fill="#FFFFF2"/>
<ellipse cx="1097.09" cy="290.43" rx="2.3526" ry="2.86403" transform="rotate(180 1097.09 290.43)" fill="#FFFFF2"/>
<ellipse cx="876.64" cy="290.43" rx="2.3526" ry="2.86403" transform="rotate(180 876.64 290.43)" fill="#FFFFF2"/>
<ellipse cx="994.214" cy="290.43" rx="2.3526" ry="2.86403" transform="rotate(180 994.214 290.43)" fill="#FFFFF2"/>
<ellipse cx="935.425" cy="290.43" rx="2.3526" ry="2.86403" transform="rotate(180 935.425 290.43)" fill="#FFFFF2"/>
<ellipse cx="1053" cy="290.43" rx="2.3526" ry="2.86403" transform="rotate(180 1053 290.43)" fill="#FFFFF2"/>
<ellipse cx="906.03" cy="290.43" rx="2.3526" ry="2.86403" transform="rotate(180 906.03 290.43)" fill="#FFFFF2"/>
<ellipse cx="1023.61" cy="290.43" rx="2.3526" ry="2.86403" transform="rotate(180 1023.61 290.43)" fill="#FFFFF2"/>
<ellipse cx="964.819" cy="290.43" rx="2.3526" ry="2.86403" transform="rotate(180 964.819 290.43)" fill="#FFFFF2"/>
<ellipse cx="1082.39" cy="290.43" rx="2.3526" ry="2.86403" transform="rotate(180 1082.39 290.43)" fill="#FFFFF2"/>
</mask>
<g mask="url(#mask0_3483_8508)">
<circle cx="987.057" cy="152.386" r="103.577" fill="white"/>
</g>
</g>
<g opacity="0.4">
<line x1="1264.65" y1="446.788" x2="1426.94" y2="284.502" stroke="white" stroke-width="3.42857"/>
<line x1="1225.99" y1="446.788" x2="1388.27" y2="284.502" stroke="white" stroke-width="3.42857"/>
<line x1="1573.9" y1="446.788" x2="1736.18" y2="284.502" stroke="white" stroke-width="3.42857"/>
<line x1="1187.33" y1="446.788" x2="1349.61" y2="284.502" stroke="white" stroke-width="3.42857"/>
<line x1="1535.24" y1="446.788" x2="1697.52" y2="284.502" stroke="white" stroke-width="3.42857"/>
<line x1="1148.67" y1="446.788" x2="1310.95" y2="284.502" stroke="white" stroke-width="3.42857"/>
<line x1="1496.57" y1="446.788" x2="1658.86" y2="284.502" stroke="white" stroke-width="3.42857"/>
<line x1="1110.01" y1="446.788" x2="1272.29" y2="284.502" stroke="white" stroke-width="3.42857"/>
<line x1="1457.91" y1="446.788" x2="1620.2" y2="284.502" stroke="white" stroke-width="3.42857"/>
<line x1="1071.34" y1="446.788" x2="1233.63" y2="284.502" stroke="white" stroke-width="3.42857"/>
<line x1="1419.25" y1="446.788" x2="1581.54" y2="284.502" stroke="white" stroke-width="3.42857"/>
<line x1="1032.68" y1="446.788" x2="1194.97" y2="284.502" stroke="white" stroke-width="3.42857"/>
<line x1="1380.59" y1="446.788" x2="1542.88" y2="284.502" stroke="white" stroke-width="3.42857"/>
<line x1="994.02" y1="446.788" x2="1156.31" y2="284.502" stroke="white" stroke-width="3.42857"/>
<line x1="1341.93" y1="446.788" x2="1504.21" y2="284.502" stroke="white" stroke-width="3.42857"/>
<line x1="955.36" y1="446.788" x2="1117.65" y2="284.502" stroke="white" stroke-width="3.42857"/>
<line x1="1303.27" y1="446.788" x2="1465.55" y2="284.502" stroke="white" stroke-width="3.42857"/>
</g>
</g>
<defs>
<clipPath id="clip0_3483_8508">
<rect width="1600" height="448" fill="white"/>
</clipPath>
</defs>
</svg>
