<svg width="1600" height="730" viewBox="0 0 1600 730" fill="none" xmlns="http://www.w3.org/2000/svg">
<g clip-path="url(#clip0_3562_62927)">
<rect width="1600" height="730" fill="#F5F5F5"/>
<g opacity="0.08">
<path d="M494.319 821.069C441.959 807.514 481.674 926.58 428.69 937.286C375.705 947.992 396.041 833.599 385.16 780.981C374.279 728.362 204.564 689.471 257.549 678.765C310.533 668.06 697.598 873.677 494.319 821.069Z" stroke="black" stroke-miterlimit="10"/>
<path d="M514.719 819.469C462.77 814.494 487.287 929.804 432.043 956.048C379.638 980.939 375.208 851.572 362.177 788.554C349.146 725.536 201.557 685.607 262.774 667.468C323.991 649.33 713.232 838.462 514.719 819.469Z" stroke="black" stroke-miterlimit="10"/>
<path d="M535.105 817.873C483.094 831.573 493.258 932.123 435.382 974.815C383.764 1012.9 354.384 869.563 339.195 796.11C324.005 722.658 198.517 681.565 268.003 656.172C342.491 628.952 723.324 841.468 535.123 817.87L535.105 817.873Z" stroke="black" stroke-miterlimit="10"/>
<path d="M555.511 816.276C503.686 843.61 499.038 933.777 438.741 993.58C387.666 1044.23 333.562 887.556 316.218 803.686C298.875 719.817 195.479 677.432 273.235 644.878C358.452 609.201 736.188 825.348 555.511 816.276Z" stroke="black" stroke-miterlimit="10"/>
<path d="M575.894 814.662C524.237 855.634 504.463 935.074 442.077 1012.33C391.277 1075.24 312.712 905.515 293.215 811.229C273.717 716.943 192.382 673.198 278.444 633.567C374.361 589.385 749.032 809.23 575.894 814.662Z" stroke="black" stroke-miterlimit="10"/>
<path d="M596.297 813.059C544.821 867.648 509.595 936.223 445.434 1031.09C394.661 1106.14 291.887 923.502 270.236 818.799C248.584 714.096 189.286 668.979 283.672 622.268C390.261 569.529 761.897 793.123 596.297 813.059Z" stroke="black" stroke-miterlimit="10"/>
<path d="M616.68 811.465C565.373 879.691 514.47 937.317 448.749 1049.84C397.849 1137.02 271.039 941.481 247.229 826.343C223.42 711.205 186.153 664.679 288.878 610.958C406.13 549.628 774.72 777.01 616.68 811.465Z" stroke="black" stroke-miterlimit="10"/>
<path d="M637.082 809.848C585.957 891.691 519.209 938.365 452.104 1068.59C400.947 1167.89 250.212 959.455 224.249 833.9C198.285 708.346 183.028 660.396 294.105 599.645C422 529.709 787.584 760.889 637.064 809.852L637.082 809.848Z" stroke="black" stroke-miterlimit="10"/>
<path d="M657.469 808.252C606.511 903.733 523.807 939.458 455.444 1087.35C403.937 1198.79 229.367 977.431 201.249 841.46C173.132 705.488 179.876 656.079 299.317 588.352C437.851 509.792 800.428 744.77 657.451 808.256L657.469 808.252Z" stroke="black" stroke-miterlimit="10"/>
<path d="M677.873 806.652C627.101 915.767 528.315 940.569 458.803 1106.12C406.899 1229.73 208.562 995.418 178.29 849.03C148.018 702.642 176.746 651.778 304.566 577.052C453.717 489.854 813.312 728.662 677.873 806.652Z" stroke="black" stroke-miterlimit="10"/>
<path d="M698.253 805.053C647.645 927.788 532.745 941.692 462.136 1124.88C409.801 1260.67 187.713 1013.41 155.284 856.587C122.854 699.764 173.57 647.462 309.772 565.756C469.521 469.924 826.153 712.558 698.253 805.053Z" stroke="black" stroke-miterlimit="10"/>
<path d="M718.657 803.441C668.234 939.811 537.149 942.83 465.492 1143.63C412.675 1291.63 166.885 1031.37 132.305 864.148C97.7248 696.926 170.416 643.134 315.018 554.444C485.381 449.956 839.036 696.438 718.657 803.441Z" stroke="black" stroke-miterlimit="10"/>
<path d="M739.04 801.843C688.782 951.832 541.496 943.989 468.83 1162.39C415.515 1322.63 146.04 1049.36 109.302 871.705C72.5647 694.049 167.24 638.801 320.228 543.148C501.186 430.008 851.881 680.335 739.04 801.843Z" stroke="black" stroke-miterlimit="10"/>
<path d="M759.446 800.246C709.374 963.87 545.834 945.175 472.189 1181.16C418.36 1353.63 125.236 1067.35 86.3441 879.278C47.4523 691.205 164.09 634.488 325.477 531.851C517.028 410.041 864.767 664.23 759.464 800.242L759.446 800.246Z" stroke="black" stroke-miterlimit="10"/>
<path d="M779.829 798.626C703.82 966.451 550.131 946.342 475.525 1199.9C421.168 1384.63 104.387 1085.3 63.3407 886.814C22.2948 688.324 160.891 630.12 330.686 520.534C532.81 390.058 853.844 635.248 779.847 798.622L779.829 798.626Z" stroke="black" stroke-miterlimit="10"/>
<path d="M800.228 797.026C727.481 980.443 554.412 947.553 478.878 1218.67C423.974 1415.65 83.5577 1103.3 40.3576 894.388C-2.84238 685.481 157.712 625.789 335.893 509.241C548.605 370.077 869.539 622.28 800.228 797.026Z" stroke="black" stroke-miterlimit="10"/>
<path d="M820.617 795.429C751.481 994.236 558.683 948.768 482.198 1237.42C426.751 1446.69 62.7144 1121.27 17.3566 901.929C-28.0013 682.587 154.302 621.117 341.121 497.926C564.136 349.687 885.522 608.774 820.617 795.429Z" stroke="black" stroke-miterlimit="10"/>
<path d="M841.024 793.834C775.769 1007.79 562.958 950.006 485.559 1256.18C429.551 1477.73 41.8899 1139.25 -5.61833 909.507C-53.1266 679.766 151.161 616.841 346.354 486.634C579.993 329.792 901.712 594.822 841.024 793.834Z" stroke="black" stroke-miterlimit="10"/>
<path d="M861.402 792.221C800.191 1021.13 567.184 951.229 488.89 1274.93C432.324 1508.78 21.0388 1157.23 -28.6272 917.05C-78.2933 676.875 148.014 612.58 351.579 475.338C595.846 309.912 918.067 580.443 861.423 792.235L861.402 792.221Z" stroke="black" stroke-miterlimit="10"/>
<path d="M881.807 790.618C824.73 1034.27 571.44 952.462 492.249 1293.69C435.126 1539.84 0.216613 1175.21 -51.6035 924.621C-103.424 674.028 144.871 608.295 356.789 464.024C611.68 289.996 934.485 565.696 881.79 790.621L881.807 790.618Z" stroke="black" stroke-miterlimit="10"/>
<path d="M902.19 789.022C849.302 1047.25 575.227 953.627 495.585 1312.46C437.575 1570.85 -20.6149 1193.19 -74.5891 932.177C-128.563 671.168 141.723 604.016 362.015 452.728C627.534 270.115 951.017 550.631 902.19 789.022Z" stroke="black" stroke-miterlimit="10"/>
<path d="M922.592 787.406C873.921 1060.07 579.913 954.963 498.94 1331.21C440.671 1601.98 -41.4411 1211.16 -97.5695 939.735C-153.698 668.308 138.601 599.751 367.243 441.415C643.387 250.2 967.593 535.3 922.592 787.406Z" stroke="black" stroke-miterlimit="10"/>
</g>
<g opacity="0.08">
<path d="M1355 -23.4985C1408.82 -30.1327 1327.09 -126.223 1372.38 -155.638C1417.66 -185.053 1441.75 -71.2483 1471.66 -26.3331C1501.57 18.5821 1674.14 -7.61022 1628.85 21.805C1583.57 51.2203 1146.04 2.27313 1355 -23.4985Z" stroke="black" stroke-miterlimit="10"/>
<path d="M1336.62 -14.5175C1386.83 -28.9766 1320.66 -127.158 1362.2 -171.847C1401.61 -214.236 1454.38 -95.6079 1490.2 -41.816C1526.02 11.9758 1678.39 -5.12295 1628.24 34.2256C1578.09 73.5741 1144.73 40.7511 1336.62 -14.5175Z" stroke="black" stroke-miterlimit="10"/>
<path d="M1318.25 -5.5454C1361.5 -37.3859 1314.23 -127.12 1352.04 -188.066C1385.75 -242.433 1466.99 -119.981 1508.75 -57.2826C1550.5 5.41636 1682.74 -2.4826 1627.62 46.6472C1568.54 99.3126 1134.21 41.6635 1318.23 -5.53542L1318.25 -5.5454Z" stroke="black" stroke-miterlimit="10"/>
<path d="M1299.86 3.43578C1337.81 -41.0105 1308.23 -126.534 1341.85 -204.275C1370.34 -270.119 1479.6 -144.356 1527.28 -72.7653C1574.96 -1.1745 1687.12 0.242806 1627 59.0679C1561.11 123.536 1128.3 61.3735 1299.86 3.43578Z" stroke="black" stroke-miterlimit="10"/>
<path d="M1281.49 12.4229C1314.16 -44.639 1302.69 -125.748 1331.7 -220.478C1355.32 -297.619 1492.25 -168.709 1545.85 -88.2268C1599.45 -7.74414 1691.59 3.04029 1626.41 71.4947C1553.76 147.8 1122.41 81.0744 1281.49 12.4229Z" stroke="black" stroke-miterlimit="10"/>
<path d="M1263.11 21.4076C1290.49 -48.245 1297.48 -124.931 1321.52 -236.683C1340.55 -325.104 1504.87 -193.08 1564.39 -103.706C1623.91 -14.3315 1696.06 5.82527 1625.79 83.9189C1546.42 172.098 1116.49 100.773 1263.11 21.4076Z" stroke="black" stroke-miterlimit="10"/>
<path d="M1244.74 30.3783C1266.83 -51.8901 1292.53 -124.156 1311.38 -252.898C1325.97 -352.632 1517.51 -217.45 1582.96 -119.169C1648.42 -20.8873 1700.59 8.67227 1625.2 96.3443C1539.14 196.427 1110.62 120.462 1244.74 30.3783Z" stroke="black" stroke-miterlimit="10"/>
<path d="M1226.36 39.3756C1243.16 -55.4833 1287.73 -123.389 1301.21 -269.091C1311.48 -380.194 1530.14 -241.809 1601.51 -134.635C1672.88 -27.462 1705.11 11.5055 1624.59 108.781C1531.86 220.773 1104.71 140.173 1226.38 39.3656L1226.36 39.3756Z" stroke="black" stroke-miterlimit="10"/>
<path d="M1207.99 48.3476C1219.51 -59.127 1283.04 -122.717 1291.05 -285.309C1297.08 -407.815 1542.78 -266.177 1620.07 -150.112C1697.37 -34.0468 1709.67 14.3592 1623.98 121.193C1524.6 245.109 1098.82 159.874 1208 48.3376L1207.99 48.3476Z" stroke="black" stroke-miterlimit="10"/>
<path d="M1189.6 57.3306C1195.82 -62.7497 1278.43 -122.093 1280.87 -301.516C1282.69 -435.485 1555.37 -290.54 1638.59 -165.583C1721.81 -40.6257 1714.2 17.2086 1623.35 133.625C1517.33 269.472 1092.89 179.581 1189.6 57.3306Z" stroke="black" stroke-miterlimit="10"/>
<path d="M1171.23 66.304C1172.18 -66.3769 1273.88 -121.509 1270.71 -317.733C1268.35 -463.185 1568.01 -314.922 1657.16 -181.058C1746.31 -47.194 1718.78 20.0536 1622.75 146.038C1510.12 293.804 1086.99 199.268 1171.23 66.304Z" stroke="black" stroke-miterlimit="10"/>
<path d="M1152.85 75.2972C1148.5 -69.9895 1269.36 -120.95 1260.53 -333.93C1254.04 -490.91 1580.64 -339.269 1675.7 -196.529C1770.76 -53.7879 1723.34 22.9185 1622.12 158.481C1502.87 318.192 1081.06 218.985 1152.85 75.2972Z" stroke="black" stroke-miterlimit="10"/>
<path d="M1134.49 84.271C1124.86 -73.6162 1264.88 -120.431 1250.38 -350.147C1239.74 -518.68 1593.27 -363.651 1694.27 -212.004C1795.26 -60.3559 1727.93 25.779 1621.52 170.894C1495.66 342.54 1075.17 238.672 1134.49 84.271Z" stroke="black" stroke-miterlimit="10"/>
<path d="M1116.1 93.2513C1101.17 -77.2418 1260.39 -119.94 1240.19 -366.357C1225.43 -546.453 1605.87 -388.017 1712.78 -227.477C1819.7 -66.9376 1732.48 28.631 1620.88 183.324C1488.42 366.92 1069.23 258.376 1116.08 93.2612L1116.1 93.2513Z" stroke="black" stroke-miterlimit="10"/>
<path d="M1097.74 102.245C1105.37 -81.6812 1255.96 -119.445 1230.04 -382.553C1211.16 -574.238 1618.52 -412.363 1731.36 -242.932C1844.19 -73.5004 1737.1 31.517 1620.29 195.758C1481.25 391.294 1090.29 281.305 1097.72 102.255L1097.74 102.245Z" stroke="black" stroke-miterlimit="10"/>
<path d="M1079.35 111.226C1078.09 -85.9955 1251.51 -118.999 1219.86 -398.763C1196.88 -602.046 1631.14 -436.739 1749.9 -258.415C1868.66 -80.0918 1741.68 34.3745 1619.69 208.168C1474.07 415.669 1080.56 299.124 1079.35 111.226Z" stroke="black" stroke-miterlimit="10"/>
<path d="M1060.98 120.2C1050.56 -90.0013 1247.08 -118.56 1209.72 -414.974C1182.63 -629.87 1643.78 -461.105 1768.47 -273.875C1893.16 -86.6444 1746.62 37.4648 1619.08 220.607C1467.28 440.328 1070.77 317.551 1060.98 120.2Z" stroke="black" stroke-miterlimit="10"/>
<path d="M1042.59 129.179C1022.86 -93.6801 1242.64 -118.14 1199.54 -431.184C1168.35 -657.705 1656.4 -485.466 1787 -289.359C1917.6 -93.252 1751.15 40.2857 1618.46 233.026C1460 464.647 1060.94 336.467 1042.59 129.179Z" stroke="black" stroke-miterlimit="10"/>
<path d="M1024.23 138.164C995.12 -97.1072 1238.25 -117.724 1189.39 -447.39C1154.09 -685.548 1669.04 -509.837 1805.57 -304.823C1942.11 -99.8086 1755.68 43.0914 1617.84 245.445C1452.72 488.95 1051.13 355.841 1024.21 138.159L1024.23 138.164Z" stroke="black" stroke-miterlimit="10"/>
<path d="M1005.84 147.151C967.342 -100.311 1233.82 -117.307 1179.21 -463.593C1139.81 -713.391 1681.66 -534.206 1824.11 -320.3C1966.57 -106.394 1760.21 45.9192 1617.25 257.876C1445.48 513.281 1041.4 375.581 1005.86 147.141L1005.84 147.151Z" stroke="black" stroke-miterlimit="10"/>
<path d="M987.477 156.121C939.596 -103.344 1229.86 -116.998 1169.05 -479.813C1125.87 -741.312 1694.29 -558.566 1842.66 -335.768C1991.04 -112.97 1764.75 48.7409 1616.63 270.296C1438.2 537.585 1031.68 395.658 987.477 156.121Z" stroke="black" stroke-miterlimit="10"/>
<path d="M969.097 165.118C911.864 -106.215 1225 -116.519 1158.87 -496.006C1111.28 -769.116 1706.91 -582.925 1861.2 -351.235C2015.5 -119.545 1769.26 51.5588 1616.02 282.733C1430.94 561.921 1022.02 415.998 969.097 165.118Z" stroke="black" stroke-miterlimit="10"/>
</g>
</g>
<defs>
<clipPath id="clip0_3562_62927">
<rect width="1600" height="730" fill="white"/>
</clipPath>
</defs>
</svg>
