<?xml version="1.0" standalone="no"?>
<!DOCTYPE svg PUBLIC "-//W3C//DTD SVG 1.1//EN" "http://www.w3.org/Graphics/SVG/1.1/DTD/svg11.dtd" >
<svg xmlns="http://www.w3.org/2000/svg" xmlns:xlink="http://www.w3.org/1999/xlink" version="1.1">
<metadata></metadata>
<defs>
<font id="exo_2italic" horiz-adv-x="1173" >
<font-face units-per-em="2048" ascent="1638" descent="-410" />
<missing-glyph horiz-adv-x="456" />
<glyph unicode="&#xfb01;" horiz-adv-x="1234" d="M-246 -397l27 131h156q98 0 141.5 35t58.5 135l135 956h-180l17 127l182 10l22 162q23 155 98.5 232t227.5 77q145 0 246 -14l-13 -129h-178q-99 0 -147.5 -44t-61.5 -148l-18 -136h661l-141 -997h-174l123 860h-490l-139 -983q-39 -289 -315 -289q-97 0 -238 15z M981 1255l16 115q6 51 56 51h82q27 0 40.5 -16t8.5 -41l-15 -117q-5 -27 -17.5 -38t-39.5 -11h-82q-55 0 -49 57z" />
<glyph unicode="&#xfb02;" horiz-adv-x="1359" d="M-246 -397l27 131h156q98 0 141.5 35t58.5 135l135 956h-180l17 127l182 10l22 162q23 156 99 233t227 76q452 -6 571 -24l-161 -1194q-18 -131 110 -131h101l8 -113q-27 -11 -83 -17.5t-95 -6.5q-117 0 -177 63.5t-45 173.5l156 1108h-330q-99 0 -147.5 -44.5 t-61.5 -149.5l-18 -136h297l-19 -137h-299l-139 -983q-39 -289 -315 -289q-97 0 -238 15z" />
<glyph horiz-adv-x="0" />
<glyph horiz-adv-x="682" />
<glyph unicode=" "  horiz-adv-x="456" />
<glyph unicode="&#x09;" horiz-adv-x="456" />
<glyph unicode="&#xa0;" horiz-adv-x="456" />
<glyph unicode="!" horiz-adv-x="555" d="M115 68l16 114q9 60 70 60h47q69 0 57 -68l-14 -113q-9 -61 -68 -61h-47q-70 0 -61 68zM186 432l33 365l88 626h172l-88 -626l-67 -365h-138z" />
<glyph unicode="&#x22;" horiz-adv-x="716" d="M203 973l51 440h141l-73 -440h-119zM498 973l51 440h141l-72 -440h-120z" />
<glyph unicode="#" horiz-adv-x="1396" d="M63 436l37 113h238l117 369h-238l39 112h233l121 383h138l-121 -383h377l120 383h138l-121 -383h229l-39 -112h-225l-117 -369h225l-34 -113h-226l-137 -436h-137l137 436h-377l-137 -436h-137l137 436h-240zM475 549h377l117 369h-377z" />
<glyph unicode="$" horiz-adv-x="1155" d="M59 14l23 133q313 -10 352 -10l109 504l-131 49q-146 54 -198 147.5t-30 245.5q13 93 42.5 158.5t69.5 103.5t103.5 59t127 27.5t157.5 6.5h41l43 198h86l-43 -202q145 -6 291 -37l-21 -131q-213 8 -305 10l-106 -496l112 -41q156 -57 206 -146.5t28 -250.5 q-13 -93 -40 -157t-67 -105.5t-103.5 -64.5t-137 -31.5t-179.5 -8.5h-4l-51 -235h-86l51 237q-163 4 -340 37zM365 1065q-13 -104 14.5 -145.5t126.5 -77.5l86 -33l100 467h-14h-73.5t-64 -3.5t-54 -11.5t-44 -23t-35 -37.5t-26 -56.5t-16.5 -79zM520 137q85 1 136.5 9.5 t91 32.5t59.5 67t29 114q9 73 -2.5 114t-42 64t-97.5 48l-71 26z" />
<glyph unicode="%" horiz-adv-x="1830" d="M152 1026q33 227 115 320.5t259 93.5q185 0 248.5 -99t32.5 -327q-33 -226 -116 -320t-261 -94q-184 0 -247.5 99t-30.5 327zM283 1014q-23 -172 6.5 -237.5t134.5 -65.5q124 0 175 68t75 247q25 171 -5 237t-139 66q-123 0 -172 -67.5t-75 -247.5zM303 0l1114 1413h135 l-1114 -1413h-135zM1055 406q31 226 114 319.5t261 93.5q186 0 248.5 -99t29.5 -329q-31 -224 -115 -317.5t-262 -93.5q-184 0 -246.5 99t-29.5 327zM1186 391q-24 -171 5.5 -237t135.5 -66q124 0 175 69t75 249q25 171 -4.5 237t-138.5 66q-64 0 -106 -16.5t-69.5 -57 t-43.5 -96.5t-29 -148z" />
<glyph unicode="&#x26;" horiz-adv-x="1546" d="M90 365q24 173 109.5 264t242.5 100l2 10q-255 17 -200 334q15 91 46 155t73.5 104t107.5 63t136 31t171 8q183 0 346 -43l-30 -136q-136 31 -312 31q-96 0 -155 -9t-103.5 -36.5t-67.5 -75.5t-36 -127q-23 -139 31.5 -188t216.5 -49h434q9 123 6 264h160q3 -141 -6 -264 h227l-23 -137h-219q-37 -233 -127 -375q-191 -309 -633 -312q-236 -2 -329.5 87.5t-67.5 300.5zM281 381q-23 -143 26.5 -195.5t192.5 -52.5q324 0 475 223q83 119 112 308h-438q-91 -1 -151 -13t-106 -44t-71.5 -86.5t-39.5 -139.5z" />
<glyph unicode="'" horiz-adv-x="421" d="M203 973l51 440h141l-73 -440h-119z" />
<glyph unicode="(" horiz-adv-x="729" d="M115 649q56 394 216.5 629t452.5 342l21 -86q-218 -100 -344 -318t-176 -581q-48 -349 12.5 -568t245.5 -323l-23 -80q-262 107 -361.5 350t-43.5 635z" />
<glyph unicode=")" horiz-adv-x="729" d="M-61 -254q216 105 343 328t177 573q48 352 -12.5 571.5t-247.5 317.5l22 80q263 -105 364 -346.5t44 -640.5q-57 -392 -218.5 -626.5t-453.5 -342.5z" />
<glyph unicode="*" horiz-adv-x="917" d="M180 1133l41 98l240 -94l-6 -45l-27 -29zM246 825l243 260l29 330h109l-66 -330l172 -264l-88 -61l-125 252l-192 -250zM602 1092l2 45l258 94l23 -107l-264 -61z" />
<glyph unicode="+" horiz-adv-x="1120" d="M104 547l19 131h383l49 360h135l-51 -360h381l-19 -131h-380l-52 -363h-133l51 363h-383z" />
<glyph unicode="," horiz-adv-x="464" d="M49 -242q52 157 68 246q-29 -3 -43 12.5t-11 42.5l17 121q8 36 24 49t56 13h53q35 0 48 -15.5t7 -52.5l-18 -131q-17 -144 -115 -315z" />
<glyph unicode="-" horiz-adv-x="915" d="M125 451l18 133h623l-16 -133h-625z" />
<glyph unicode="." horiz-adv-x="460" d="M63 68l17 114q9 60 70 60h57q68 0 59 -68l-14 -113q-9 -61 -70 -61h-57q-71 0 -62 68z" />
<glyph unicode="/" horiz-adv-x="1073" d="M-43 -135l1022 1548h149l-1022 -1548h-149z" />
<glyph unicode="0" horiz-adv-x="1230" d="M123 436q0 101 7 195t25 196.5t46.5 189t75 166.5t107 135.5t145 88.5t186.5 33q217 0 320.5 -112t103.5 -347q0 -1008 -594 -1008q-214 0 -318 113t-104 350zM295 438q0 -163 63 -235t195 -72q64 0 117.5 19t93 49.5t71.5 78.5t52.5 97.5t36 115t23.5 121.5t13 126.5 t6 121.5t1 115q0 163 -64.5 235t-200.5 72q-61 0 -112.5 -18.5t-90 -50t-69.5 -78.5t-52 -97.5t-36.5 -114.5t-24.5 -121.5t-14 -126.5t-6.5 -122.5t-1.5 -114.5z" />
<glyph unicode="1" horiz-adv-x="808" d="M135 1268l379 145h180l-198 -1413h-179l158 1124q5 56 25 123l-361 -112z" />
<glyph unicode="2" horiz-adv-x="1140" d="M27 0l16 117q7 52 31 76l477 462q73 70 125.5 126.5t102.5 123t76 130.5t26 124q0 31 -11 53t-29 35t-50 20t-64.5 9t-81.5 2q-211 0 -416 -33l-2 139q239 54 432 54q96 0 164.5 -10.5t126 -37.5t86.5 -79t29 -129q0 -80 -23.5 -155t-71 -146.5t-100 -132t-129.5 -134.5 l-462 -448q93 8 219 8h481l-25 -174h-927z" />
<glyph unicode="3" horiz-adv-x="1126" d="M29 10l22 140q27 -2 78.5 -6t81.5 -6.5t71 -4.5t76.5 -1.5t69.5 3.5q182 12 278.5 102t96.5 248q0 184 -244 187l-266 4l18 137h258q293 3 293 326q0 83 -56 112t-212 29q-150 0 -350 -16l-6 139q222 37 395 37q214 0 307.5 -68t93.5 -211q0 -98 -28 -187.5t-88 -153.5 t-140 -72l-2 -9q102 -19 154.5 -85t52.5 -173q0 -236 -142 -369t-401 -139q-197 -3 -411 37z" />
<glyph unicode="4" horiz-adv-x="1249" d="M64.5 472.5q-4.5 52.5 27.5 109.5l512 831h182l-512 -840q-24 -40 -14.5 -59.5t47.5 -19.5h490l57 415l66 234h137l-90 -649h182l-19 -129l-184 -19l-49 -346h-170l49 346h-551q-67 0 -111.5 37t-49 89.5z" />
<glyph unicode="5" horiz-adv-x="1091" d="M33 27l33 145q184 -46 335 -37q383 22 383 371q0 116 -87 159t-304 52l-133 10q-36 3 -56.5 29.5t-13.5 62.5l115 594h750l-31 -153h-594l-74 -386l146 -12q230 -16 343 -95.5t113 -256.5q0 -242 -135.5 -382.5t-382.5 -152.5q-190 -10 -407 52z" />
<glyph unicode="6" horiz-adv-x="1165" d="M128 260q-25 155 15 412q23 161 52 280.5t70 204.5t88 139.5t113 86t137 43.5t167 12q198 0 307 -31l-35 -131q-88 8 -280 8q-77 0 -131.5 -13t-103 -47t-82.5 -94.5t-62.5 -153.5t-50.5 -226q90 93 178.5 132.5t206.5 39.5q167 0 248.5 -74.5t81.5 -214.5 q0 -658 -527 -658q-185 0 -276 65t-116 220zM291 322.5q6 -104.5 63 -149t189 -44.5q334 0 334 457q0 99 -42 143.5t-159 44.5q-94 0 -182 -41t-183 -135q-26 -171 -20 -275.5z" />
<glyph unicode="7" horiz-adv-x="1044" d="M172 1260l12 153h801q64 0 85 -34.5t-7 -92.5l-621 -1286h-180l559 1159q37 72 60 105z" />
<glyph unicode="8" horiz-adv-x="1241" d="M104 358q25 175 88.5 268.5t194.5 106.5l4 8q-198 23 -155 326q15 101 43 166.5t83 113t143.5 68t219.5 19.5q136 0 222.5 -22.5t131.5 -69.5t56.5 -118.5t-2.5 -168.5q-21 -144 -79.5 -226.5t-166.5 -93.5l-4 -8q124 -13 165 -110t15 -271q-14 -101 -42.5 -166 t-87.5 -111.5t-153 -67t-237 -21.5q-263 -1 -365 89.5t-74 288.5zM274.5 264.5q4.5 -47.5 36.5 -77t90.5 -42t157.5 -12.5q181 0 251 56.5t89 207.5q9 57 9.5 96t-8.5 70t-27.5 49t-53.5 30t-80 16t-112 4q-66 -1 -110.5 -5t-83 -15.5t-62 -30t-42.5 -51t-30 -74.5t-20 -103 q-9 -71 -4.5 -118.5zM388 954.5q-2 -35.5 9 -61.5t28 -43t50 -27t75.5 -14t104.5 -4q119 0 180 22t89.5 72t42.5 152q17 89 0.5 141.5t-74 74t-180.5 21.5q-91 0 -148 -12t-92 -44t-51 -75.5t-27 -118.5q-5 -48 -7 -83.5z" />
<glyph unicode="9" horiz-adv-x="1165" d="M96 8l27 131q110 -10 280 -10q93 2 156.5 19t113 51t83.5 98.5t59 150t49 216.5q-84 -93 -168 -131.5t-194 -40.5q-111 -1 -185.5 32.5t-110 95.5t-47 148t4.5 190q30 256 154.5 368t363.5 112q112 0 188 -24t124.5 -74.5t68 -137.5t16 -203.5t-29.5 -281.5 q-24 -156 -53.5 -269.5t-69.5 -197t-87 -136t-113 -84t-139 -43.5t-173 -12q-176 0 -318 33zM332 944q-24 -168 22 -239t183 -70q96 2 173 42t181 144q28 171 19 274t-64 146t-176 43q-169 0 -241.5 -78t-96.5 -262z" />
<glyph unicode=":" horiz-adv-x="481" d="M72 68l16 114q9 60 70 60h57q68 0 59 -68l-14 -113q-9 -61 -70 -61h-57q-70 0 -61 68zM164 727l16 115q5 31 21.5 45t48.5 14h57q69 0 60 -67l-15 -113q-9 -62 -69 -62h-58q-70 0 -61 68z" />
<glyph unicode=";" horiz-adv-x="489" d="M63 -242q52 157 68 246q-28 -3 -42 12.5t-11 42.5l16 121q8 36 24 49t56 13h53q36 0 49 -16t7 -52l-19 -131q-17 -146 -114 -315zM166 727l16 115q5 31 21.5 45t48.5 14h57q69 0 60 -67l-15 -113q-9 -62 -69 -62h-58q-70 0 -61 68z" />
<glyph unicode="&#x3c;" horiz-adv-x="1077" d="M96 541l19 139l882 352l-20 -145l-721 -281l641 -282l-18 -136z" />
<glyph unicode="=" horiz-adv-x="1200" d="M113 317l18 132h897l-18 -132h-897zM172 752l18 129h897l-18 -129h-897z" />
<glyph unicode="&#x3e;" horiz-adv-x="1077" d="M84 190l18 148l721 280l-641 283l21 135l782 -356l-20 -139z" />
<glyph unicode="?" horiz-adv-x="1021" d="M180 1415q13 2 56 10t56 10t49.5 7.5t59 7t60.5 4t79 3.5t91 1q204 0 303 -81t76 -242q-8 -62 -35.5 -116.5t-65.5 -96.5t-83 -82t-90.5 -82t-85 -88t-70.5 -108t-43 -134l-148 2q9 76 36.5 143.5t64 117.5t79 94.5t85 84t78 77t60.5 81.5t31 90q15 109 -37 151t-192 42 q-51 0 -95.5 -1t-72.5 -1.5t-67 -3.5t-54 -4t-61 -5.5t-62 -5.5zM324 68l16 112q9 62 70 62h45q37 0 51.5 -16.5t9.5 -51.5l-16 -113q-6 -61 -68 -61h-47q-70 0 -61 68z" />
<glyph unicode="@" horiz-adv-x="1581" d="M117 469q17 98 39.5 169.5t55 122t69 82.5t88 50t106 24.5t129.5 6.5q174 0 440 -47l-98 -644q-6 -56 10 -79t62 -23q116 0 164.5 106.5t89.5 419.5q14 101 21.5 166t4.5 124t-8 92t-32.5 61t-51.5 39.5t-81.5 19.5t-106 9t-141.5 1h-650l15 129q273 13 639 17 q107 1 181.5 -3t141.5 -17t109 -34t75.5 -58t48 -85t20.5 -119.5t-0.5 -156t-22.5 -199.5q-16 -134 -34.5 -230.5t-44.5 -172t-57.5 -123t-75.5 -78t-96 -43t-122 -12.5q-225 0 -228 209q-88 -103 -184.5 -160.5t-220.5 -57.5q-173 0 -235 120t-19 374zM279 194.5 q26 -71.5 129 -71.5q98 0 187 55.5t198 177.5l65 420q-144 6 -194 6q-74 0 -122 -4t-89 -18t-65 -35t-44.5 -60t-33 -87t-25.5 -123q-32 -189 -6 -260.5z" />
<glyph unicode="A" horiz-adv-x="1267" d="M-61 0l647 1366q14 47 69 47h189q25 0 42.5 -15t18.5 -38l264 -1360h-180l-78 440h-581l-201 -440h-190zM401 598h484l-99 557q-3 19 -8 59.5t-8 61.5h-61q-6 -14 -25.5 -56.5t-28.5 -64.5z" />
<glyph unicode="B" horiz-adv-x="1265" d="M92 0l199 1413q174 17 452 17q130 0 214.5 -17.5t138.5 -60.5q56 -44 72 -116q9 -38 8 -85q0 -44 -7 -96q-22 -154 -88 -231t-194 -89l-2 -8q151 -13 203 -111q35 -65 35 -164q0 -49 -9 -106q-17 -111 -49.5 -180.5t-93 -110.5t-141 -56t-205.5 -15q-348 0 -533 16z M289 139q82 -2 309 -2q177 0 248.5 51t91.5 201q7 48 7 86q1 49 -11 81q-20 58 -80.5 82t-179.5 26h-312zM381 801h301q157 2 225 53t88 193q4 48 5.5 84t-12 61.5t-30.5 41.5t-51 25.5t-74 13t-98 3.5h-286z" />
<glyph unicode="C" horiz-adv-x="1159" d="M139 713q29 205 76 340.5t124.5 223t184 124.5t260.5 37q134 0 215.5 -9.5t169.5 -33.5l-28 -135q-181 18 -359 18q-107 0 -179 -25.5t-128 -91.5t-90 -176.5t-57 -284.5q-22 -137 -22 -237q0 -55 6 -99q18 -126 85.5 -177t204.5 -52q212 0 404 23l10 -138 q-168 -45 -416 -45q-303 -1 -410 173q-70 114 -70 322q0 109 19 243z" />
<glyph unicode="D" horiz-adv-x="1355" d="M92 0l199 1413q264 19 463 19q110 0 192 -16t144.5 -52t100.5 -92t57 -138q18 -78 18 -178v-11q-1 -106 -21 -245q-19 -132 -43.5 -232.5t-55.5 -177.5t-74 -130t-91.5 -88t-115 -54.5t-137.5 -27.5t-167 -8q-199 0 -469 18zM293 143q184 -4 266 -4q127 0 205 21.5 t138.5 86t95 174t61.5 292.5q17 119 21 203q1 26 2 50q0 54 -7 98q-10 64 -32 104t-64 64.5t-96 34t-133 9.5q-95 0 -299 -4z" />
<glyph unicode="E" horiz-adv-x="1142" d="M119 281l125 893q15 115 91.5 178t205.5 63q422 0 610 -12l-25 -141h-563q-69 0 -102.5 -33t-42.5 -107l-43 -307h608l-18 -139h-609l-53 -391q-3 -19 -3 -35q0 -42 20 -66q27 -32 96 -32h553l-4 -142q-180 -12 -572 -12q-153 0 -223 75q-55 59 -55 154q0 26 4 54z" />
<glyph unicode="F" horiz-adv-x="1099" d="M88 0l162 1165q19 121 96 185.5t203 64.5q410 0 590 -14l-25 -139h-526q-79 0 -115.5 -30.5t-46.5 -109.5l-47 -329h592l-21 -138l-590 -2l-92 -653h-180z" />
<glyph unicode="G" horiz-adv-x="1277" d="M139 713q19 147 49 259t74 192t97 133.5t124 85t148.5 44.5t177.5 13q235 0 405 -45l-26 -133q-172 16 -357 16q-129 0 -209.5 -23t-141.5 -88.5t-95 -175.5t-57 -291q-15 -134 -15 -234q0 -136 27 -208q48 -125 207 -125q105 0 190 50t197 161l65 475h175l-117 -819 h-129l4 195q-95 -109 -203 -165.5t-242 -56.5q-222 0 -307 177q-56 118 -56 327q0 106 15 236z" />
<glyph unicode="H" horiz-adv-x="1363" d="M92 0l199 1413h182l-82 -582h651l82 582h179l-199 -1413h-178l94 676h-651l-95 -676h-182z" />
<glyph unicode="I" horiz-adv-x="534" d="M92 0l199 1413h182l-199 -1413h-182z" />
<glyph unicode="J" horiz-adv-x="694" d="M-18 8l34 127h97q81 0 129 41t59 117l156 1120h182l-160 -1120q-20 -153 -98.5 -232t-208.5 -79q-106 0 -190 26z" />
<glyph unicode="K" horiz-adv-x="1214" d="M92 0l199 1413h180l-63 -444q-11 -81 -33 -160h166l506 604h219l-492 -586q-56 -64 -96 -90v-8q36 -42 67 -102l349 -627h-205l-363 664h-174q0 -72 -10 -154l-70 -510h-180z" />
<glyph unicode="L" horiz-adv-x="1042" d="M131 291l154 1122h182l-158 -1128q-2 -17 -3 -31q0 -102 116 -102h512l-4 -142q-178 -12 -547 -12q-133 0 -203 76q-53 58 -54 155q0 29 5 62z" />
<glyph unicode="M" horiz-adv-x="1794" d="M66 0l243 1341q12 72 80 72h199q57 0 67 -65l152 -861q9 -48 27 -192h38q36 90 80 190l383 869q25 57 84 57l201 2q36 0 54.5 -21.5t15.5 -58.5l-129 -1333h-181l131 1264h-41l-460 -1045q-23 -59 -84 -59h-162q-63 0 -76 65l-178 1039h-41l-225 -1264h-178z" />
<glyph unicode="N" horiz-adv-x="1439" d="M92 0l189 1346q6 35 23.5 51t51.5 16h160q29 0 46 -15t28 -46l344 -975q49 -145 65 -205h39q6 100 21 207l141 1034h178l-190 -1345q-5 -36 -21.5 -52t-50.5 -16h-164q-29 0 -45.5 15t-27.5 46l-355 1002q-41 117 -55 182h-35q-3 -85 -16 -186l-146 -1059h-180z" />
<glyph unicode="O" horiz-adv-x="1363" d="M139 713q28 204 74.5 339t124.5 223.5t187.5 126.5t267.5 38q119 0 205 -24.5t147.5 -79t91 -140.5t35.5 -210l2 -50q0 -105 -21 -236q-37 -277 -112.5 -434t-201.5 -225t-331 -68q-200 0 -313 69.5t-153 233.5q-21 84 -21 198q0 106 18 239zM314 364q18 -126 87 -177.5 t211 -51.5q143 0 230 54t140 177.5t85 346.5q19 135 21 229v21q0 81 -14 139q-16 66 -54 104t-95 55t-143 17q-88 0 -152 -18t-114 -57.5t-85 -108.5t-59.5 -163.5t-43.5 -230.5q-21 -135 -21 -235q0 -56 7 -101z" />
<glyph unicode="P" horiz-adv-x="1204" d="M92 0l199 1413q185 19 479 19q248 0 341 -102q68 -74 68 -224q0 -56 -10 -123q-13 -91 -32 -157.5t-49 -115.5t-66.5 -80t-90.5 -50t-115.5 -26t-145.5 -7q-160 0 -318 18l-80 -565h-180zM371 702h293q167 0 234 60t93 235q9 49 9 88q0 15 -2 27q-4 48 -16.5 80t-44 50.5 t-72 26t-101.5 7.5q-231 0 -313 -2z" />
<glyph unicode="Q" horiz-adv-x="1363" d="M139 713q28 204 74.5 339t124.5 223.5t187.5 126.5t267.5 38q119 0 205 -24.5t147.5 -79t91 -140.5t35.5 -210q2 -24 2 -50q0 -106 -21 -236q-37 -277 -112.5 -434t-201.5 -225t-331 -68q-200 0 -313 69.5t-153 233.5q-21 84 -21 198q0 106 18 239zM314 364 q18 -126 87 -177.5t211 -51.5q143 0 230 54t140 177.5t85 346.5q19 135 21 229v21q0 80 -14 139q-15 66 -53.5 104t-95.5 55t-143 17q-88 0 -152 -18t-114 -57.5t-85 -108.5t-59.5 -163.5t-43.5 -230.5q-21 -135 -21 -235q0 -56 7 -101zM426 -197l70 107q222 -111 526 -158 l-72 -180q-291 67 -524 231z" />
<glyph unicode="R" horiz-adv-x="1265" d="M92 0l199 1413q185 19 479 19q115 0 194.5 -20t135.5 -67t76 -129q11 -45 11 -102q0 -45 -7 -98q-24 -165 -98 -252t-218 -105l-2 -10q117 -34 150 -207l90 -442h-184l-84 446q-15 78 -53 111t-107 33q-55 1 -167 2t-155 2l-84 -594h-176zM373 745h303q158 2 228 60.5 t93 216.5q7 45 7 81q0 81 -35 119q-50 54 -203 54q-69 0 -176 -1t-144 -1z" />
<glyph unicode="S" horiz-adv-x="1146" d="M53 14l23 133q315 -10 396 -10h13q76 0 123.5 4.5t89.5 17t66 38t40.5 64.5t24.5 99q4 34 4 61q0 59 -19 87q-28 42 -126 78l-280 104q-146 54 -198 147q-38 66 -38 163q0 39 6 83q13 93 42.5 158.5t69.5 103.5t103.5 59t127 27.5t157.5 6.5q256 -4 418 -41l-19 -131 q-232 10 -403 10h-74.5t-64.5 -3.5t-54.5 -11.5t-44.5 -23t-35 -37.5t-26 -56.5t-17 -79q-4 -32 -4 -59q0 -58 20 -86q28 -42 126 -78l276 -103q156 -57 206 -147q35 -62 35 -158q0 -43 -7 -92q-13 -93 -40 -157t-67 -105.5t-103.5 -64.5t-137 -31.5t-179.5 -8.5 q-221 0 -430 39z" />
<glyph unicode="T" d="M133 1253l23 160h1089l-20 -160h-457l-176 -1253h-180l176 1253h-455z" />
<glyph unicode="U" horiz-adv-x="1359" d="M160 547l119 866h182l-123 -874q-11 -81 -12 -144q0 -115 38 -172q58 -88 242 -88q188 0 278 92t124 320l118 866h183l-123 -874q-44 -308 -176 -437t-400 -129q-276 0 -385 134q-78 95 -78 278q0 74 13 162z" />
<glyph unicode="V" horiz-adv-x="1239" d="M141 1413h183l178 -1122q16 -99 20 -156h53q33 92 64 162l491 1116h191l-625 -1366q-18 -47 -69 -47h-181q-24 0 -41 15.5t-20 39.5z" />
<glyph unicode="W" horiz-adv-x="1931" d="M170 1413h184l66 -1104q1 -10 6 -176h49l60 182l362 1041q15 57 74 57h194q26 0 43 -18t19 -45l84 -1043q8 -114 8 -174h51q10 35 55 178l371 1102h189l-482 -1364q-15 -49 -73 -49h-201q-27 0 -46 16.5t-20 42.5l-73 1063q-1 15 -6.5 70t-6.5 86h-43l-25.5 -76.5 t-29.5 -87.5l-367 -1063q-15 -51 -73 -51h-199q-28 0 -47.5 16t-20.5 41z" />
<glyph unicode="X" horiz-adv-x="1247" d="M-37 0l504 731l-274 682h184l237 -610h58l420 610h198l-471 -682l297 -731h-184l-260 664h-58l-442 -664h-209z" />
<glyph unicode="Y" horiz-adv-x="1157" d="M131 1413h184l213 -600q31 -96 41 -160h17q29 83 84 166l381 594h196l-600 -919l-67 -494h-183l72 500z" />
<glyph unicode="Z" horiz-adv-x="1150" d="M12 0l21 154l905 1106h-739l22 153h940l-22 -153l-908 -1106h766l-22 -154h-963z" />
<glyph unicode="[" horiz-adv-x="665" d="M68 -225l237 1691q6 49 38.5 78t82.5 29h295l-16 -115h-201q-14 0 -27 -11t-14 -26l-227 -1616q-3 -28 20 -28h213l-16 -115h-287q-50 0 -78.5 29t-19.5 84z" />
<glyph unicode="\" horiz-adv-x="1040" d="M162 1413h137l592 -1548h-137z" />
<glyph unicode="]" horiz-adv-x="665" d="M-51 -338l14 115h201q14 0 27 11t16 26l227 1616q3 28 -22 28h-211l16 115h285q49 0 78.5 -33t21.5 -80l-237 -1691q-6 -47 -40 -77t-81 -30h-295z" />
<glyph unicode="^" horiz-adv-x="872" d="M102 799l373 432h127l252 -434l-76 -43l-239 356h-17l-350 -356z" />
<glyph unicode="_" horiz-adv-x="897" d="M-90 -133l20 133h897l-20 -133h-897z" />
<glyph unicode="`" horiz-adv-x="643" d="M162 1358l94 123l348 -301l-63 -78z" />
<glyph unicode="a" d="M88 258q0 12 -1 24q0 95 17 228q16 112 38.5 194t56 138.5t71 92t91.5 54.5t109 26t132 7q227 0 469 -47l-137 -975h-137l12 201q-88 -103 -203 -164.5t-241 -61.5q-91 0 -149 27.5t-92 90.5t-36 165zM260 311q0 -10 -1 -20q1 -55 13 -91q14 -42 44 -57.5t83 -15.5 q96 0 194.5 55.5t213.5 167.5l74 520q-171 7 -226 7q-73 0 -120 -4.5t-88 -20.5t-65 -40.5t-44.5 -70t-33 -101.5t-25.5 -144q-17 -116 -19 -185z" />
<glyph unicode="b" d="M76 47l194 1387h172l-55 -414q-22 -145 -53 -244q100 104 220.5 175t223.5 71q71 0 120 -15t86.5 -51.5t53.5 -97.5q14 -61 18 -153q1 -14 1 -28q0 -83 -17 -190q-16 -112 -39 -195t-55.5 -139.5t-69.5 -92.5t-88.5 -55t-102.5 -25.5t-122 -6.5q-113 0 -246 20.5 t-241 53.5zM260 129q130 -10 240 -10q71 0 116.5 5t85 21t62.5 40t43 70t31.5 102t23.5 143q16 118 18 188v15q0 61 -14 97q-16 42 -45.5 56t-83.5 14q-72 0 -177 -58.5t-228 -166.5z" />
<glyph unicode="c" horiz-adv-x="991" d="M94 506q41 285 161.5 400.5t375.5 115.5q197 0 319 -49l-28 -109q-110 10 -263 10q-96 0 -158 -15.5t-109.5 -58t-74 -116.5t-41.5 -192q-10 -78 -10 -134q0 -3 -1 -5q0 -53 10 -93q10 -42 29 -68t53 -41.5t75.5 -21.5t102.5 -6q171 0 299 20l12 -118q-158 -50 -342 -50 q-262 1 -356 123q-66 86 -66 252q0 71 12 156z" />
<glyph unicode="d" horiz-adv-x="1171" d="M88 258q-1 20 0 43q0 89 14 209q14 95 34 169t43.5 128t56.5 92t67.5 62t81 37.5t92.5 18.5t107 5q134 0 323 -25q3 93 17 191l34 246h175l-201 -1434h-137l14 217q-96 -105 -215 -173.5t-250 -68.5q-78 0 -131 27.5t-87 90.5t-38 165zM261 273q4 -82 33.5 -114t98.5 -32 q97 0 192.5 55t223.5 176l70 516q-37 1 -87.5 2t-85 2t-57.5 1q-72 0 -118 -4.5t-86.5 -20.5t-64 -40t-44 -69.5t-33 -103t-24.5 -145.5q-19 -119 -18 -196q-1 -14 0 -27z" />
<glyph unicode="e" horiz-adv-x="1099" d="M98 522q21 149 58.5 244t104 153t156.5 80.5t226 22.5q228 0 313 -79q65 -60 65 -168q0 -34 -7 -73q-24 -142 -111 -203t-268 -75l-369 -35v-18q0 -69 14 -116q16 -53 51.5 -81.5t82.5 -39.5t118 -11q177 0 367 24l12 -116q-71 -28 -187.5 -42t-219.5 -14 q-255 0 -350 131q-67 93 -67 263q0 70 11 153zM279 520l354 35q102 8 148 42t61 120q4 25 4 45.5t-2.5 36t-11 27.5t-18 20.5t-26 14t-31.5 9t-39.5 5t-45 2t-51.5 0.5q-58 0 -98.5 -5.5t-76.5 -20.5t-60.5 -40t-45.5 -65.5t-35 -95t-26 -130.5z" />
<glyph unicode="f" horiz-adv-x="772" d="M-246 -397l27 131h156q98 0 141.5 35t58.5 135l133 956h-178l17 127l182 10l24 183q42 288 324 288q174 0 283 -14l-27 -129h-201q-101 0 -146.5 -36t-60.5 -136l-22 -156h319l-20 -137h-318l-139 -983q-39 -289 -315 -289q-97 0 -238 15z" />
<glyph unicode="g" horiz-adv-x="1177" d="M31 -399l18 116q84 -4 180 -4q69 0 144 2q340 10 389 269q1 7 6 31t7 32t6.5 29.5t7.5 31t8 27.5t9.5 29t10.5 26t12.5 27.5t14.5 24.5q-91 -118 -217.5 -192.5t-266.5 -74.5q-66 0 -114 16t-85 53.5t-53.5 99t-19.5 152.5v21q0 84 18 193q16 112 39.5 194.5t56.5 138.5 t70 92t88.5 55t103 25.5t122.5 6.5q242 0 487 -47h4l-139 -957q-54 -439 -567 -450h-27q-55 0 -137 6q-104 7 -176 27zM264 268q5 -82 35.5 -111.5t101.5 -29.5q97 0 194 55.5t214 169.5l78 518q-175 7 -236 7q-71 0 -117 -5t-86 -20.5t-63.5 -40t-44 -69.5t-33 -102 t-24.5 -144q-20 -120 -20 -196q0 -17 1 -32z" />
<glyph unicode="h" horiz-adv-x="1183" d="M72 0l202 1434h175l-56 -402q-14 -122 -47 -246q138 119 252 177.5t221 58.5q127 0 191 -72q49 -56 49 -149q0 -27 -4 -56l-107 -745h-174l100 702q4 32 4 57q0 51 -16 77q-24 38 -96 38q-89 0 -184 -53.5t-246 -173.5l-90 -647h-174z" />
<glyph unicode="i" horiz-adv-x="503" d="M82 0l139 997h172l-139 -997h-172zM250 1255l16 115q6 51 56 51h81q27 0 41 -16t9 -41l-15 -117q-5 -27 -17.5 -38t-39.5 -11h-80q-52 0 -52 47q0 5 1 10z" />
<glyph unicode="j" horiz-adv-x="503" d="M-84 -338q71 74 110 149t52 169l143 1017h172l-143 -1026q-15 -118 -79 -220t-161 -169zM250 1255l16 115q6 51 56 51h81q27 0 41 -16t9 -41l-15 -117q-5 -27 -17.5 -38t-39.5 -11h-80q-52 0 -52 47q0 5 1 10z" />
<glyph unicode="k" horiz-adv-x="1067" d="M74 0l200 1434h175l-93 -693q-17 -122 -61 -237q132 59 238 129t190.5 165.5t116.5 198.5h178q-89 -270 -338 -444q23 -37 59 -115l197 -438h-186l-203 471q-87 -45 -248 -115l-53 -356h-172z" />
<glyph unicode="l" horiz-adv-x="600" d="M109 240l167 1194h175l-164 -1164q-3 -20 -3 -36q0 -42 18 -64q26 -30 97 -29h101l6 -135q-27 -11 -83.5 -17.5t-96.5 -6.5q-118 0 -176 68q-45 53 -45 138q0 25 4 52z" />
<glyph unicode="m" horiz-adv-x="1785" d="M72 0l141 997h133l-12 -217q125 125 229 183.5t207 58.5q117 0 178 -60q58 -58 58 -159v-10q119 119 218.5 174t198.5 55q131 0 192 -74q47 -56 46 -145q0 -28 -4 -58l-105 -745h-172l99 702q3 27 3 50q0 56 -21 84q-30 38 -103 38q-74 0 -152 -48.5t-219 -178.5 l-90 -647h-168l98 702q4 29 4 53q0 52 -18 79q-26 40 -106 40q-77 0 -154 -48t-217 -175l-90 -651h-174z" />
<glyph unicode="n" horiz-adv-x="1183" d="M72 0l141 997h139l-14 -219q141 124 256.5 184t224.5 60q127 0 191 -72q49 -56 49 -149q0 -27 -4 -56l-107 -745h-174l100 702q4 32 4 57q0 51 -16 77q-24 38 -96 38q-88 0 -182.5 -52.5t-247.5 -170.5l-90 -651h-174z" />
<glyph unicode="o" horiz-adv-x="1155" d="M94 504q40 284 160.5 401t374.5 117t349 -122q66 -86 66 -252q0 -72 -12 -159q-40 -283 -159.5 -399.5t-370.5 -116.5q-252 0 -350 123q-70 88 -69 258q0 69 11 150zM264 311q1 -71 29.5 -113t77.5 -59.5t131 -17.5q168 0 244.5 82.5t107.5 300.5q12 85 12 149 q0 97 -28 144q-48 77 -209 77q-114 0 -181 -33t-108.5 -116t-63.5 -236q-12 -99 -12 -168v-10z" />
<glyph unicode="p" horiz-adv-x="1177" d="M12 -416l203 1413h137l-14 -221q97 102 221.5 174t226.5 72q90 0 146.5 -25.5t90.5 -87.5t36 -165v-20q0 -97 -17 -237q-13 -96 -32.5 -170t-43 -128.5t-56.5 -92.5t-68 -62t-82 -37.5t-94.5 -18.5t-110.5 -5q-126 0 -315 25q-3 -109 -17 -188l-35 -226h-176zM268 123 q147 -6 224 -6q73 0 120 4.5t88 21t64.5 40.5t44 69.5t33 102.5t24.5 145q13 94 17 156q2 27 2 51q0 29 -3 53q-5 44 -22 67t-43.5 33t-68.5 10q-72 0 -184 -61t-224 -166z" />
<glyph unicode="q" horiz-adv-x="1167" d="M87 294q-1 16 -1 33q0 81 16 183q16 111 38.5 193.5t55 138.5t68.5 92t86.5 55t100.5 26t118 7q255 0 496 -70l-195 -1368h-174l58 391q21 145 61 248q-224 -248 -463 -248q-62 0 -108 15.5t-82.5 53t-53.5 98.5t-21 152zM262 270q6 -82 37 -112.5t102 -30.5 q98 0 185.5 51t220.5 176l72 514q-140 11 -242 11q-69 0 -113.5 -5t-83.5 -21t-62 -40.5t-43 -70t-32 -102.5t-24 -144q-18 -115 -18 -191q0 -19 1 -35z" />
<glyph unicode="r" horiz-adv-x="815" d="M72 0l141 997h133l-14 -231q259 256 459 256h51l-43 -164h-51q-82 0 -169.5 -48.5t-242.5 -164.5l-90 -645h-174z" />
<glyph unicode="s" horiz-adv-x="1036" d="M43 6l20 127q122 -10 320 -10q191 2 258.5 24.5t79.5 92.5q5 37 -7.5 60.5t-33 36t-65.5 32.5q-15 6 -23 10l-279 123q-111 50 -157 114q-36 50 -36 125q0 21 3 45q18 140 116 190q92 47 279 46h23q220 -3 420 -31l-23 -125q-307 10 -393 11q-143 0 -193.5 -17t-58.5 -86 q-2 -13 -2 -24q0 -38 21 -60q27 -28 102 -61l278 -123q82 -36 125.5 -70t63.5 -86q13 -34 13 -79q0 -23 -3 -48q-9 -66 -35 -111.5t-62 -71.5t-96.5 -40.5t-120.5 -18.5t-153 -4q-69 0 -123 2.5t-82 5.5t-84 10t-92 11z" />
<glyph unicode="t" horiz-adv-x="772" d="M86 860l16 127l187 10l41 295h172l-41 -295h317l-20 -137h-318l-82 -590q-3 -21 -3 -38q-1 -42 17 -62q24 -28 97 -29h156l6 -133q-95 -26 -223 -26t-186 71q-44 54 -45 141q0 28 5 60l86 606h-182z" />
<glyph unicode="u" horiz-adv-x="1161" d="M102 252l105 745h174l-100 -702q-4 -30 -4 -54q0 -50 18 -77q27 -39 104 -39q89 0 176 52.5t226 178.5l86 641h174l-139 -997h-136l15 215q-128 -123 -238.5 -182.5t-222.5 -59.5q-134 0 -196 74q-46 56 -47 144q0 29 5 61z" />
<glyph unicode="v" horiz-adv-x="1087" d="M92 997h182l152 -860h33q38 0 61.5 12t50.5 48q72 96 154 292q59 129 93 243.5t61 264.5h180q-59 -288 -191 -579q-91 -202 -174 -314q-41 -56 -83 -80t-113 -24h-154q-21 0 -36.5 13t-20.5 34z" />
<glyph unicode="w" horiz-adv-x="1740" d="M92 997h180l142 -860h26q28 0 50.5 15.5t46.5 56.5q59 103 112 280q59 176 107 465q3 20 16.5 31.5t32.5 11.5h190q18 0 30.5 -11.5t14.5 -29.5l101 -819h24q44 0 84 64q34 54 51 83t43.5 83.5t51.5 121.5q83 213 133 508h182q-76 -338 -182 -579q-96 -219 -176 -320 q-40 -52 -79 -75t-97 -23h-115q-23 0 -37.5 13t-17.5 34l-95 836h-26q-21 -205 -94 -437q-61 -195 -138 -317q-74 -129 -219 -129h-102q-21 0 -36 13t-20 34z" />
<glyph unicode="x" horiz-adv-x="1077" d="M-39 0l408 516l-240 481h174l199 -411h55l320 411h188l-377 -483l260 -514h-176l-221 451h-47l-348 -451h-195z" />
<glyph unicode="y" horiz-adv-x="1103" d="M72 -297q125 30 224.5 97t192.5 200h-90q-44 0 -75.5 25t-40.5 67l-193 905h182l158 -821q9 -39 47 -39h98l41 80q101 197 165.5 375.5t109.5 404.5h180q-54 -238 -124 -437t-179 -394q-107 -200 -212.5 -323t-210.5 -181.5t-241 -83.5z" />
<glyph unicode="z" horiz-adv-x="1032" d="M12 0l21 141h-2l733 713h-623l19 143h825l-20 -143h2l-734 -713h639l-20 -141h-840z" />
<glyph unicode="{" horiz-adv-x="651" d="M92 610l17 127q76 23 95 36q34 23 47 94q3 14 5 32l57 406q19 150 108 216.5t275 51.5l-6 -111q-105 0 -154 -41.5t-61 -136.5l-51 -366q-17 -128 -59 -177.5t-156 -70.5q103 -34 135.5 -85.5t17.5 -158.5l-67 -483q-14 -95 19 -132.5t137 -37.5l-7 -111 q-180 -13 -258.5 58.5t-56.5 216.5l74 524q7 49 -4 76.5t-28 38t-67 29.5q-8 3 -12 5z" />
<glyph unicode="|" horiz-adv-x="501" d="M53 -346l273 1945h129l-273 -1945h-129z" />
<glyph unicode="}" horiz-adv-x="653" d="M-49 -338l6 111q105 0 153 41t60 135l70 485q18 109 60.5 156.5t162.5 83.5q-103 21 -135 73.5t-13 178.5l54 366q12 95 -20 132.5t-138 37.5l8 111q183 14 259.5 -59.5t56.5 -215.5l-58 -407q-5 -38 -4.5 -60.5t3 -37.5t17.5 -25.5t26.5 -15t44.5 -14.5q10 -3 16 -5 l-17 -127q-81 -29 -101 -44q-42 -30 -54 -109l-72 -523q-21 -151 -108 -216t-277 -52z" />
<glyph unicode="~" horiz-adv-x="1069" d="M135 471q3 122 54 183.5t128 58.5q79 -4 215 -60t191 -61q55 -6 81.5 21t37.5 92l88 -7q-3 -119 -52.5 -180.5t-127.5 -56.5q-57 3 -118.5 21t-105.5 38t-95.5 39t-88.5 23q-56 6 -82.5 -22.5t-34.5 -96.5z" />
<glyph unicode="&#xa1;" horiz-adv-x="522" d="M35 -401l86 614l69 365h138l-35 -365l-86 -614h-172zM209 836l14 112q9 62 70 62h47q69 0 57 -68l-14 -113q-9 -61 -70 -61h-45q-71 0 -59 68z" />
<glyph unicode="&#xa2;" horiz-adv-x="1034" d="M125 719q41 285 161.5 400.5t375.5 115.5h20l43 178h86l-43 -182q141 -15 211 -45l-27 -109q-115 10 -219 13l-168 -754q159 0 299 22l13 -120q-158 -50 -345 -50h-4l-43 -188h-86l45 193q-210 19 -283.5 142t-35.5 384zM300.5 496q13.5 -79 55 -113.5t125.5 -42.5 l164 750q-82 -4 -137 -22.5t-97 -62t-66 -115.5t-38 -183q-20 -132 -6.5 -211z" />
<glyph unicode="&#xa3;" horiz-adv-x="1163" d="M39 0l20 156q74 35 122.5 95t70.5 129.5t29 160.5l12 151h-162l14 107h156l23 272q9 94 33.5 160.5t59 106.5t89 62.5t111.5 30t139 7.5q154 0 368 -21l-20 -143q-212 8 -354 8q-128 0 -185 -48.5t-67 -172.5l-21 -262h436l-20 -107h-424l-12 -155q-12 -144 -58 -234 t-145 -158q48 9 133 9h612l-20 -154h-940z" />
<glyph unicode="&#xa4;" horiz-adv-x="1220" d="M106 342l160 143q-56 100 -41 242q18 149 107 256l-137 158l81 76l140 -162q107 69 252 69q147 0 243 -77l160 143l72 -86l-160 -139q63 -105 45 -250q-18 -148 -106 -250l141 -158l-80 -74l-141 160q-110 -74 -258 -74q-150 0 -246 80l-158 -141zM330 715 q-14 -134 54.5 -214t197.5 -81q140 -2 232.5 82.5t107.5 226.5q14 134 -55 214.5t-203 80.5q-139 0 -229 -83.5t-105 -225.5z" />
<glyph unicode="&#xa5;" horiz-adv-x="1259" d="M139 326l13 104h358l12 88l-14 37h-336l12 107h283l-285 751h183l215 -584q32 -97 41 -159h18q27 77 86 166l377 577h196l-495 -751h282l-14 -107h-340l-31 -47l-10 -78h365l-17 -104h-364l-45 -326h-180l45 326h-355z" />
<glyph unicode="&#xa6;" horiz-adv-x="501" d="M53 -346l115 819h129l-115 -819h-129zM211 780l117 819h127l-115 -819h-129z" />
<glyph unicode="&#xa7;" horiz-adv-x="1114" d="M16 -307l23 137q191 -11 383 -14q57 0 91 1.5t74 8.5t62 20.5t39.5 38.5t22.5 62q10 67 -16.5 108t-84.5 76l-307 186q-69 41 -108 88t-50 106t-0.5 125.5t41.5 154.5h127q-33 -129 -16.5 -206.5t104.5 -131.5l328 -203q64 -40 101 -78t56.5 -100t8.5 -144 q-9 -58 -27 -101t-48 -71.5t-63.5 -46t-83.5 -26.5t-96.5 -12t-113.5 -3q-241 4 -447 25zM209 1184q9 64 32.5 110t57.5 74t87.5 44.5t111.5 22t139 5.5q254 -4 450 -25l-22 -135q-107 7 -381 10q-62 1 -99.5 -0.5t-76 -8t-60 -20.5t-37 -37.5t-20.5 -58.5 q-10 -66 16.5 -107t86.5 -77l311 -190q68 -42 106 -90t48 -108.5t-0.5 -126.5t-40.5 -155h-127q32 129 14 213t-105 138l-325 202q-65 41 -102.5 79t-56.5 99t-7 142z" />
<glyph unicode="&#xa8;" horiz-adv-x="841" d="M279 1257l16 115q9 49 57 49h54q30 0 40 -11.5t5 -37.5l-17 -112q-6 -50 -55 -50h-57q-49 0 -43 47zM625 1257l16 115q9 49 57 49h54q30 0 40 -11.5t5 -37.5l-17 -112q-6 -50 -55 -50h-57q-49 0 -43 47z" />
<glyph unicode="&#xa9;" horiz-adv-x="1708" d="M135 713q19 154 85.5 287t170.5 231t248.5 153.5t310.5 55.5q213 0 372 -92.5t234.5 -262t47.5 -385.5q-20 -156 -87.5 -290t-172.5 -230.5t-249.5 -151.5t-310.5 -55q-217 0 -375.5 96.5t-229.5 265t-44 378.5zM229 700q-17 -143 16 -262.5t107 -201.5t184.5 -127.5 t245.5 -45.5q290 0 490.5 182t236.5 468q23 184 -37.5 329t-195 226.5t-320.5 81.5q-292 0 -491.5 -182.5t-235.5 -467.5zM481 719q35 252 138.5 348t332.5 96q130 0 258 -28l-20 -99q-115 8 -225 8q-91 0 -146.5 -12.5t-98.5 -49.5t-66 -102.5t-38 -174.5 q-26 -187 18 -256.5t187 -69.5q190 0 293 12l8 -100q-136 -31 -280 -31q-238 0 -316.5 100.5t-44.5 358.5z" />
<glyph unicode="&#xaa;" horiz-adv-x="913" d="M155.5 725q-4.5 69 6.5 174q10 77 27 134t42 94.5t52.5 61t66 35t73 15.5t83.5 4q170 0 338 -35l-90 -653h-109l4 117q-124 -131 -289 -131q-61 0 -102 16.5t-69.5 57.5t-33 110zM286.5 789.5q-1.5 -40.5 3.5 -67t18.5 -40t31.5 -18.5t47 -5q108 0 268 138l47 333 q-105 3 -151 3q-73 0 -111.5 -6.5t-69.5 -32.5t-46 -72.5t-27 -130.5q-9 -61 -10.5 -101.5z" />
<glyph unicode="&#xab;" horiz-adv-x="976" d="M76 504l2 39l383 397l71 -66l-313 -362l223 -373l-88 -59zM446 504l3 39l382 397l72 -66l-313 -362l223 -373l-88 -59z" />
<glyph unicode="&#xac;" horiz-adv-x="1202" d="M139 543l19 133h897l-58 -404h-133l39 271h-764z" />
<glyph unicode="&#xad;" horiz-adv-x="915" d="M123 451l18 133h623l-16 -133h-625z" />
<glyph unicode="&#xae;" horiz-adv-x="1134" d="M166 993q23 205 158 325t338 120q200 0 317.5 -123t95.5 -340q-23 -206 -155 -327.5t-334 -121.5q-212 0 -327.5 129.5t-92.5 337.5zM227 985q-20 -190 80 -296.5t279 -106.5q182 0 296.5 111t131.5 296q18 185 -79 288t-276 103q-187 0 -300 -108.5t-132 -286.5z M377 721l76 528q74 6 219 6q40 0 67.5 -2.5t55.5 -12t43.5 -26.5t23 -46.5t2.5 -71.5q-6 -59 -34 -88.5t-91 -42.5v-4q20 -9 31.5 -26t20.5 -52l43 -162h-86l-39 164q-8 32 -25 42.5t-47 10.5q-117 0 -148 2l-30 -219h-82zM498 999h135q77 2 108.5 21t40.5 82q7 56 -17 73 t-95 17q-107 0 -146 -2z" />
<glyph unicode="&#xaf;" horiz-adv-x="819" d="M229 1247l17 129h571l-16 -129h-572z" />
<glyph unicode="&#xb0;" horiz-adv-x="743" d="M188 1188q9 112 88 182t195 70q121 0 189 -77t57 -192q-10 -114 -90 -183.5t-195 -69.5q-123 0 -189 79t-55 191zM297 1182q-6 -72 33 -116t108 -44t115.5 43t52.5 113q6 69 -31.5 113t-109.5 44q-68 0 -114.5 -42t-53.5 -111z" />
<glyph unicode="&#xb1;" horiz-adv-x="1198" d="M86 143l18 129h897l-18 -129h-897zM160 670l18 131h383l37 272h135l-39 -272h381l-18 -131h-381l-39 -275h-133l39 275h-383z" />
<glyph unicode="&#xb2;" horiz-adv-x="847" d="M150 735l10 74q6 36 30 57l293 254q92 79 145.5 146t53.5 129q0 43 -34.5 57t-106.5 14q-126 0 -271 -18l6 104q146 31 287 31t208 -33.5t67 -122.5q0 -46 -16.5 -91t-49 -88t-65.5 -77t-80 -75l-279 -244q47 4 131 4l316 -2l-21 -119h-624z" />
<glyph unicode="&#xb3;" horiz-adv-x="833" d="M150 743l24 103q138 -12 258 -12q107 0 158 42.5t51 141.5q0 46 -33 72.5t-119 27.5h-174l15 103l174 2q174 0 174 166q0 48 -34.5 64.5t-127.5 16.5q-150 0 -242 -12l5 101q153 26 268 26q144 0 208 -34t64 -113q0 -102 -45.5 -173.5t-134.5 -84.5v-4q141 -22 141 -154 q0 -160 -81.5 -231.5t-247.5 -71.5q-150 0 -301 24z" />
<glyph unicode="&#xb4;" horiz-adv-x="643" d="M207 1182l393 301l84 -135l-424 -246z" />
<glyph unicode="&#xb5;" horiz-adv-x="1191" d="M33 -403l108 774l88 626h174l-100 -702q-10 -83 21 -119.5t110 -36.5q40 0 83.5 13t92 44t90 76.5t77 117t54.5 159.5l64 448h174l-108 -776q-10 -53 -1 -80.5t46 -27.5h84l-3 -105q-96 -28 -165 -28q-80 0 -116 42.5t-24 135.5l9 55q-63 -106 -171 -173t-227 -67 q-74 0 -131 31l-22 -160l-60 -247h-147z" />
<glyph unicode="&#xb6;" horiz-adv-x="1208" d="M123 938q20 143 66.5 238t130 154t200 83.5t285.5 24.5q189 0 321 -35l-196 -1403h-135l186 1315q-96 8 -199 8l-247 -1753h-134l119 842q-243 26 -337 151.5t-60 374.5z" />
<glyph unicode="&#xb7;" horiz-adv-x="477" d="M127 475l16 115q5 31 21.5 45t48.5 14h57q69 0 60 -67l-15 -113q-9 -61 -69 -61h-58q-70 0 -61 67z" />
<glyph unicode="&#xb8;" horiz-adv-x="479" d="M-63 -469l32 92q82 -3 143 40t72 110q6 34 -14.5 45t-93.5 12l20 82q127 11 178.5 -18.5t34.5 -122.5q-20 -126 -123.5 -193t-248.5 -47z" />
<glyph unicode="&#xb9;" horiz-adv-x="604" d="M201 1485l243 86h138l-119 -836h-135l90 635q8 52 16 78l-229 -59z" />
<glyph unicode="&#xba;" horiz-adv-x="903" d="M158 899q26 191 108 267.5t262 76.5q187 0 254.5 -81.5t38.5 -276.5q-26 -191 -109 -267.5t-261 -76.5q-183 0 -252 82.5t-41 275.5zM293 885q-19 -137 14.5 -185.5t145.5 -48.5q113 0 163 53t70 195q20 137 -13.5 186.5t-144.5 49.5q-118 0 -165.5 -51.5t-69.5 -198.5z " />
<glyph unicode="&#xbb;" horiz-adv-x="978" d="M49 141l313 363l-223 373l88 59l279 -424l-2 -39l-383 -397zM420 141l313 363l-223 373l88 59l279 -424l-3 -39l-382 -397z" />
<glyph unicode="&#xbc;" horiz-adv-x="1757" d="M174 1325l250 88h137l-119 -848h-137l90 649q6 40 17 80l-236 -63zM186 0l1117 1413h127l-1115 -1413h-129zM917 236.5q-23 37.5 11 99.5l332 512h135l-320 -500q-11 -17 -5.5 -29t28.5 -12h307l33 240l43 139h106l-53 -379h106l-14 -96l-106 -10l-29 -201h-127l27 199 h-396q-55 0 -78 37.5z" />
<glyph unicode="&#xbd;" horiz-adv-x="1798" d="M174 0l1114 1413h127l-1114 -1413h-127zM174 1325l250 88h135l-119 -848h-137l92 649q6 40 17 80l-236 -63zM983 0l12 80q3 37 25 59l299 254q194 164 213 271q8 52 -26 66.5t-120 14.5q-140 0 -278 -16l-4 102q144 31 287 31q167 0 236.5 -41t51.5 -159 q-9 -68 -57.5 -137.5t-146.5 -153.5l-306 -252q51 4 144 4l327 -2l-18 -121h-639z" />
<glyph unicode="&#xbe;" horiz-adv-x="1949" d="M113 567l10 103q132 -11 258 -11q116 0 168.5 36.5t64.5 125.5q9 64 -21 97.5t-134 33.5h-178l12 103h172q52 1 89 14t56.5 35.5t28.5 45.5t12 52q10 65 -23.5 87t-138.5 22q-161 0 -249 -8l-4 100q137 20 268 20q174 0 236.5 -44.5t45.5 -157.5q-12 -90 -51 -142 t-125 -65l-12 -6q95 -13 129 -67.5t23 -152.5q-15 -130 -90.5 -186.5t-241.5 -56.5q-133 0 -305 22zM397 0l1116 1413h127l-1114 -1413h-129zM1107.5 236.5q-23.5 37.5 10.5 99.5l332 512h135l-319 -500q-11 -17 -5.5 -29t27.5 -12h303l33 240l43 139h107l-54 -379h111 l-14 -96l-111 -10l-29 -201h-129l27 199h-389q-55 0 -78.5 37.5z" />
<glyph unicode="&#xbf;" horiz-adv-x="1011" d="M-23 -111q8 61 36 115.5t66.5 97t83.5 83t91 82.5t86 87t70.5 105.5t42.5 128.5h145q-10 -77 -37 -144t-63 -116.5t-78 -93.5t-83.5 -83t-77 -76t-61.5 -81t-34 -90q-17 -99 37.5 -145t191.5 -46q214 0 412 19l2 -125q-13 -2 -56 -10t-56 -10t-49.5 -7.5t-59 -7t-60.5 -4 t-79 -3.5t-91 -1q-206 0 -302 87.5t-77 237.5zM475 848l17 115q6 59 67 59h45q71 0 62 -68l-17 -112q-5 -32 -21 -47t-48 -15h-43q-71 0 -62 68z" />
<glyph unicode="&#xc0;" horiz-adv-x="1267" d="M-61 0l647 1366q14 47 69 47h189q25 0 42.5 -15t18.5 -38l264 -1360h-180l-78 440h-581l-201 -440h-190zM401 598h484l-99 557q-3 19 -8 59.5t-8 61.5h-61q-6 -14 -25.5 -56.5t-28.5 -64.5zM432 1747l94 123l348 -301l-63 -78z" />
<glyph unicode="&#xc1;" horiz-adv-x="1267" d="M-61 0l647 1366q14 47 69 47h189q25 0 42.5 -15t18.5 -38l264 -1360h-180l-78 440h-581l-201 -440h-190zM401 598h484l-99 557q-3 19 -8 59.5t-8 61.5h-61q-6 -14 -25.5 -56.5t-28.5 -64.5zM639 1571l393 301l84 -135l-424 -246z" />
<glyph unicode="&#xc2;" horiz-adv-x="1267" d="M-61 0l647 1366q14 47 69 47h189q25 0 42.5 -15t18.5 -38l264 -1360h-180l-78 440h-581l-201 -440h-190zM401 598h484l-99 557q-3 19 -8 59.5t-8 61.5h-61q-6 -14 -25.5 -56.5t-28.5 -64.5zM440 1575l305 260h123l254 -272l-65 -68l-244 207h-16l-305 -205z" />
<glyph unicode="&#xc3;" horiz-adv-x="1267" d="M-61 0l647 1366q14 47 69 47h189q25 0 42.5 -15t18.5 -38l264 -1360h-180l-78 440h-581l-201 -440h-190zM401 598h484l-99 557q-3 19 -8 59.5t-8 61.5h-61q-6 -14 -25.5 -56.5t-28.5 -64.5zM451 1571q4 118 56 176.5t128 52.5q55 -4 103.5 -29.5t93.5 -51.5t90 -31 q60 -7 88.5 19t36.5 87l81 -6q-3 -114 -53.5 -173.5t-128.5 -53.5q-48 3 -92 20.5t-72 36.5t-62.5 37t-64.5 22q-58 6 -86.5 -22t-36.5 -92z" />
<glyph unicode="&#xc4;" horiz-adv-x="1267" d="M-61 0l647 1366q14 47 69 47h189q25 0 42.5 -15t18.5 -38l264 -1360h-180l-78 440h-581l-201 -440h-190zM401 598h484l-99 557q-3 19 -8 59.5t-8 61.5h-61q-6 -14 -25.5 -56.5t-28.5 -64.5zM530 1618l17 115q9 49 57 49h53q30 0 40 -11.5t5 -37.5l-16 -113 q-6 -49 -55 -49h-58q-49 0 -43 47zM877 1618l16 115q9 49 57 49h54q30 0 40 -11.5t5 -37.5l-17 -113q-6 -49 -55 -49h-57q-49 0 -43 47z" />
<glyph unicode="&#xc5;" horiz-adv-x="1267" d="M-61 0l647 1366q14 47 69 47h189q25 0 42.5 -15t18.5 -38l264 -1360h-180l-78 440h-581l-201 -440h-190zM401 598h484l-99 557q-3 19 -8 59.5t-8 61.5h-61q-6 -14 -25.5 -56.5t-28.5 -64.5zM571 1659q0 100 66.5 166.5t167.5 66.5q92 0 149.5 -54t57.5 -142 q0 -100 -66.5 -167t-167.5 -67q-92 0 -149.5 54.5t-57.5 142.5zM670 1667q0 -51 29 -83t83 -32q57 0 94 40t37 98q0 51 -28.5 81.5t-81.5 30.5q-61 0 -97 -38t-36 -97z" />
<glyph unicode="&#xc6;" horiz-adv-x="1867" d="M-86 0l868 1194q92 131 195 176t291 45q392 0 608 -12l-25 -141h-522q-138 0 -158 -142l-41 -303l580 -2l-18 -141h-582l-53 -389q-9 -70 17 -101.5t95 -31.5h529l-8 -142q-184 -12 -553 -12q-133 0 -202 76t-48 207l24 178h-473l-332 -459h-192zM551 614l383 -2l74 535 q4 43 27.5 83.5t54.5 59.5h-11q-68 -35 -137 -133z" />
<glyph unicode="&#xc7;" horiz-adv-x="1159" d="M139 713q29 205 76 340.5t124.5 223t184 124.5t260.5 37q134 0 215.5 -9.5t169.5 -33.5l-28 -135q-181 18 -359 18q-107 0 -179 -25.5t-128 -91.5t-90 -176.5t-57 -284.5q-34 -211 -15.5 -336.5t85.5 -176.5t204 -52q212 0 404 23l10 -138q-168 -45 -416 -45 q-303 0 -410 173.5t-51 564.5zM307 -494l33 93q83 -3 143.5 39.5t71.5 109.5q6 34 -15 45t-94 12l21 82q127 11 178.5 -18.5t34.5 -122.5q-20 -126 -124 -193t-249 -47z" />
<glyph unicode="&#xc8;" horiz-adv-x="1142" d="M119 281l125 893q15 115 91.5 178t205.5 63q422 0 610 -12l-25 -141h-563q-69 0 -102.5 -33t-42.5 -107l-43 -307h608l-18 -139h-609l-53 -391q-10 -70 17 -101.5t96 -31.5h553l-4 -142q-180 -12 -572 -12q-153 0 -223 75t-51 208zM428 1790l94 123l348 -301l-63 -78z " />
<glyph unicode="&#xc9;" horiz-adv-x="1142" d="M119 281l125 893q15 115 91.5 178t205.5 63q422 0 610 -12l-25 -141h-563q-69 0 -102.5 -33t-42.5 -107l-43 -307h608l-18 -139h-609l-53 -391q-10 -70 17 -101.5t96 -31.5h553l-4 -142q-180 -12 -572 -12q-153 0 -223 75t-51 208zM635 1614l393 301l84 -135l-424 -246z " />
<glyph unicode="&#xca;" horiz-adv-x="1142" d="M119 281l125 893q15 115 91.5 178t205.5 63q422 0 610 -12l-25 -141h-563q-69 0 -102.5 -33t-42.5 -107l-43 -307h608l-18 -139h-609l-53 -391q-10 -70 17 -101.5t96 -31.5h553l-4 -142q-180 -12 -572 -12q-153 0 -223 75t-51 208zM436 1618l305 260h123l254 -272 l-65 -68l-244 207h-16l-306 -205z" />
<glyph unicode="&#xcb;" horiz-adv-x="1142" d="M119 281l125 893q15 115 91.5 178t205.5 63q422 0 610 -12l-25 -141h-563q-69 0 -102.5 -33t-42.5 -107l-43 -307h608l-18 -139h-609l-53 -391q-10 -70 17 -101.5t96 -31.5h553l-4 -142q-180 -12 -572 -12q-153 0 -223 75t-51 208zM526 1661l17 115q9 49 57 49h53 q30 0 40 -11.5t5 -37.5l-16 -113q-6 -49 -55 -49h-58q-49 0 -43 47zM872 1661l17 115q9 49 57 49h53q30 0 40 -11.5t5 -37.5l-16 -113q-6 -49 -55 -49h-58q-49 0 -43 47z" />
<glyph unicode="&#xcc;" horiz-adv-x="534" d="M61 1747l95 123l348 -301l-64 -78zM92 0l199 1413h182l-199 -1413h-182z" />
<glyph unicode="&#xcd;" horiz-adv-x="534" d="M92 0l199 1413h182l-199 -1413h-182zM268 1571l394 301l83 -135l-423 -246z" />
<glyph unicode="&#xce;" horiz-adv-x="534" d="M70 1575l305 260h123l254 -272l-66 -68l-244 207h-16l-305 -205zM92 0l199 1413h182l-199 -1413h-182z" />
<glyph unicode="&#xcf;" horiz-adv-x="534" d="M92 0l199 1413h182l-199 -1413h-182zM160 1618l16 115q9 49 57 49h54q30 0 40 -11.5t5 -37.5l-17 -113q-6 -49 -55 -49h-57q-49 0 -43 47zM506 1618l16 115q9 49 58 49h53q30 0 40 -11.5t5 -37.5l-16 -113q-6 -49 -56 -49h-57q-49 0 -43 47z" />
<glyph unicode="&#xd0;" horiz-adv-x="1355" d="M55 700l15 101h135l86 612q264 19 463 19q110 0 192 -16t144.5 -52t100.5 -92t57 -138.5t18 -188.5t-21 -245q-19 -132 -43.5 -232.5t-55.5 -177.5t-74 -130t-91.5 -88t-115 -54.5t-137.5 -27.5t-167 -8q-199 0 -469 18l98 700h-135zM293 143q184 -4 266 -4 q127 0 205 21.5t138.5 86t95 174t61.5 292.5q17 118 21.5 202.5t-5.5 149t-32 104t-64 64t-96 34t-133 9.5q-95 0 -299 -4l-66 -471h315l-12 -101h-317z" />
<glyph unicode="&#xd1;" horiz-adv-x="1439" d="M92 0l189 1346q6 35 23.5 51t51.5 16h160q29 0 46 -15t28 -46l344 -975q49 -145 65 -205h39q6 100 21 207l141 1034h178l-190 -1345q-5 -36 -21.5 -52t-50.5 -16h-164q-29 0 -45.5 15t-27.5 46l-355 1002q-41 117 -55 182h-35q-3 -85 -16 -186l-146 -1059h-180zM547 1571 q4 118 56 176.5t128 52.5q55 -4 103.5 -29.5t93.5 -51.5t90 -31q60 -7 88.5 19t36.5 87l82 -6q-3 -114 -54 -173.5t-129 -53.5q-48 3 -92 20.5t-71.5 36.5t-62 37t-64.5 22q-58 6 -86.5 -22t-36.5 -92z" />
<glyph unicode="&#xd2;" horiz-adv-x="1363" d="M139 713q28 204 74.5 339t124.5 223.5t187.5 126.5t267.5 38q119 0 205 -24.5t147.5 -79t91 -140.5t36 -209.5t-19.5 -286.5q-37 -277 -112.5 -434t-201.5 -225t-331 -68q-200 0 -313 69.5t-153.5 233t-2.5 437.5zM313.5 363.5q18.5 -125.5 87.5 -177t211 -51.5 q143 0 230 54t140 177.5t85 346.5q19 135 21 228.5t-13.5 160t-54 104.5t-95.5 55t-143 17q-88 0 -152 -18t-114 -57.5t-85 -108.5t-59.5 -163.5t-43.5 -230.5q-33 -211 -14.5 -336.5zM465 1747l94 123l348 -301l-63 -78z" />
<glyph unicode="&#xd3;" horiz-adv-x="1363" d="M139 713q28 204 74.5 339t124.5 223.5t187.5 126.5t267.5 38q119 0 205 -24.5t147.5 -79t91 -140.5t36 -209.5t-19.5 -286.5q-37 -277 -112.5 -434t-201.5 -225t-331 -68q-200 0 -313 69.5t-153.5 233t-2.5 437.5zM313.5 363.5q18.5 -125.5 87.5 -177t211 -51.5 q143 0 230 54t140 177.5t85 346.5q19 135 21 228.5t-13.5 160t-54 104.5t-95.5 55t-143 17q-88 0 -152 -18t-114 -57.5t-85 -108.5t-59.5 -163.5t-43.5 -230.5q-33 -211 -14.5 -336.5zM672 1571l393 301l84 -135l-424 -246z" />
<glyph unicode="&#xd4;" horiz-adv-x="1363" d="M139 713q28 204 74.5 339t124.5 223.5t187.5 126.5t267.5 38q119 0 205 -24.5t147.5 -79t91 -140.5t36 -209.5t-19.5 -286.5q-37 -277 -112.5 -434t-201.5 -225t-331 -68q-200 0 -313 69.5t-153.5 233t-2.5 437.5zM313.5 363.5q18.5 -125.5 87.5 -177t211 -51.5 q143 0 230 54t140 177.5t85 346.5q19 135 21 228.5t-13.5 160t-54 104.5t-95.5 55t-143 17q-88 0 -152 -18t-114 -57.5t-85 -108.5t-59.5 -163.5t-43.5 -230.5q-33 -211 -14.5 -336.5zM473 1575l305 260h123l254 -272l-65 -68l-244 207h-17l-305 -205z" />
<glyph unicode="&#xd5;" horiz-adv-x="1363" d="M139 713q28 204 74.5 339t124.5 223.5t187.5 126.5t267.5 38q119 0 205 -24.5t147.5 -79t91 -140.5t36 -209.5t-19.5 -286.5q-37 -277 -112.5 -434t-201.5 -225t-331 -68q-200 0 -313 69.5t-153.5 233t-2.5 437.5zM313.5 363.5q18.5 -125.5 87.5 -177t211 -51.5 q143 0 230 54t140 177.5t85 346.5q19 135 21 228.5t-13.5 160t-54 104.5t-95.5 55t-143 17q-88 0 -152 -18t-114 -57.5t-85 -108.5t-59.5 -163.5t-43.5 -230.5q-33 -211 -14.5 -336.5zM483 1571q4 118 56.5 176.5t128.5 52.5q55 -4 103 -29.5t93 -51.5t90 -31q60 -7 88.5 19 t36.5 87l82 -6q-3 -114 -53.5 -173.5t-128.5 -53.5q-48 3 -92 20.5t-72 36.5t-62.5 37t-64.5 22q-58 6 -86.5 -22t-36.5 -92z" />
<glyph unicode="&#xd6;" horiz-adv-x="1363" d="M139 713q28 204 74.5 339t124.5 223.5t187.5 126.5t267.5 38q119 0 205 -24.5t147.5 -79t91 -140.5t36 -209.5t-19.5 -286.5q-37 -277 -112.5 -434t-201.5 -225t-331 -68q-200 0 -313 69.5t-153.5 233t-2.5 437.5zM313.5 363.5q18.5 -125.5 87.5 -177t211 -51.5 q143 0 230 54t140 177.5t85 346.5q19 135 21 228.5t-13.5 160t-54 104.5t-95.5 55t-143 17q-88 0 -152 -18t-114 -57.5t-85 -108.5t-59.5 -163.5t-43.5 -230.5q-33 -211 -14.5 -336.5zM563 1618l17 115q9 49 57 49h53q30 0 40 -11.5t5 -37.5l-16 -113q-6 -49 -55 -49h-58 q-49 0 -43 47zM909 1618l17 115q9 49 57 49h53q30 0 40 -11.5t5 -37.5l-16 -113q-6 -49 -55 -49h-58q-49 0 -43 47z" />
<glyph unicode="&#xd7;" horiz-adv-x="1075" d="M86 322l346 274l-262 272l96 97l273 -283l372 295l80 -113l-356 -282l262 -273l-94 -96l-275 285l-362 -289z" />
<glyph unicode="&#xd8;" horiz-adv-x="1363" d="M133.5 307q-28.5 155 5.5 406q28 204 74.5 339t124.5 223.5t187.5 126.5t267.5 38q164 0 264 -47l90 149l86 -49l-92 -152q92 -82 119.5 -237t-7.5 -404q-37 -277 -112.5 -434t-201.5 -225t-331 -68q-165 0 -270 47l-86 -143l-84 51l88 144q-94 80 -122.5 235zM328 700 q-50 -347 26 -462l613 1007q-67 33 -185 33q-88 0 -152 -18t-114 -57.5t-85 -108.5t-59.5 -163.5t-43.5 -230.5zM430 170q63 -35 182 -35q143 0 230 54t140 177.5t85 346.5q27 178 21.5 291.5t-46.5 175.5z" />
<glyph unicode="&#xd9;" horiz-adv-x="1359" d="M160 547l119 866h182l-123 -874q-32 -228 26.5 -316t241.5 -88q188 0 278 92t124 320l118 866h183l-123 -874q-44 -308 -176 -437t-400 -129q-276 0 -385 134t-65 440zM465 1747l94 123l348 -301l-63 -78z" />
<glyph unicode="&#xda;" horiz-adv-x="1359" d="M160 547l119 866h182l-123 -874q-32 -228 26.5 -316t241.5 -88q188 0 278 92t124 320l118 866h183l-123 -874q-44 -308 -176 -437t-400 -129q-276 0 -385 134t-65 440zM672 1571l393 301l84 -135l-424 -246z" />
<glyph unicode="&#xdb;" horiz-adv-x="1359" d="M160 547l119 866h182l-123 -874q-32 -228 26.5 -316t241.5 -88q188 0 278 92t124 320l118 866h183l-123 -874q-44 -308 -176 -437t-400 -129q-276 0 -385 134t-65 440zM473 1575l305 260h123l254 -272l-65 -68l-244 207h-17l-305 -205z" />
<glyph unicode="&#xdc;" horiz-adv-x="1359" d="M160 547l119 866h182l-123 -874q-32 -228 26.5 -316t241.5 -88q188 0 278 92t124 320l118 866h183l-123 -874q-44 -308 -176 -437t-400 -129q-276 0 -385 134t-65 440zM563 1618l17 115q9 49 57 49h53q30 0 40 -11.5t5 -37.5l-16 -113q-6 -49 -55 -49h-58q-49 0 -43 47z M909 1618l17 115q9 49 57 49h53q30 0 40 -11.5t5 -37.5l-16 -113q-6 -49 -55 -49h-58q-49 0 -43 47z" />
<glyph unicode="&#xdd;" horiz-adv-x="1157" d="M131 1413h184l213 -600q31 -96 41 -160h17q29 83 84 166l381 594h196l-600 -919l-67 -494h-183l72 500zM553 1571l393 301l84 -135l-424 -246z" />
<glyph unicode="&#xde;" horiz-adv-x="1206" d="M92 0l199 1413h180l-37 -256q82 4 299 4q80 0 141 -9t111.5 -30t81.5 -55t51.5 -84.5t21 -118t-9.5 -155.5q-18 -132 -52.5 -216.5t-94.5 -135t-139 -70t-197 -19.5q-167 0 -334 19l-41 -287h-180zM332 424h293q83 1 136.5 13.5t93.5 46.5t62 91t35 148q12 68 8.5 117.5 t-15 82t-42 51.5t-71.5 26.5t-105 7.5q-231 0 -313 -2z" />
<glyph unicode="&#xdf;" horiz-adv-x="1376" d="M-246 -397l27 131h156q98 0 141.5 35t58.5 135l135 956h-182l19 125l182 12l16 117q13 94 43 160t70.5 105.5t103 61.5t126.5 29t157 7q264 0 364 -60.5t78 -214.5q-9 -83 -56.5 -143.5t-156.5 -124.5q-14 -7 -46.5 -23t-46.5 -23t-39 -21t-37 -24.5t-26.5 -25.5 t-22.5 -31t-11 -34q-7 -41 17 -68.5t87 -65.5l201 -120q90 -55 124 -112.5t21 -160.5q-9 -62 -31 -106.5t-54 -72t-81.5 -43t-102.5 -21t-128 -5.5q-160 0 -325 23l20 133q181 -11 274 -8q130 0 186 24.5t66 100.5q4 30 -0.5 51.5t-21.5 39.5t-31 28.5t-47 31.5l-207 125 q-155 92 -135 232q4 36 21 67.5t35.5 53t57.5 48t65 41.5t80 43l6 3t5 3t6 3q85 49 122.5 88t43.5 98q3 26 -1 43.5t-19 34.5t-43.5 27t-77.5 16t-119 6q-180 0 -251 -49t-91 -194l-172 -1213q-22 -149 -100.5 -219t-226.5 -70q-88 0 -226 15z" />
<glyph unicode="&#xe0;" d="M87.5 258q-2.5 102 16.5 252q16 112 38.5 194t56 138.5t71 92t91.5 54.5t109 26t132 7q227 0 469 -47l-137 -975h-137l12 201q-88 -103 -203 -164.5t-241 -61.5q-91 0 -149 27.5t-92 90.5t-36.5 165zM259.5 311q-2.5 -69 12 -111.5t44.5 -57.5t83 -15q96 0 194.5 55.5 t213.5 167.5l74 520q-171 7 -226 7q-73 0 -120 -4.5t-88 -20.5t-65 -40.5t-44.5 -70t-33 -101.5t-25.5 -144q-17 -116 -19.5 -185zM328 1378l94 123l348 -301l-63 -78z" />
<glyph unicode="&#xe1;" d="M87.5 258q-2.5 102 16.5 252q16 112 38.5 194t56 138.5t71 92t91.5 54.5t109 26t132 7q227 0 469 -47l-137 -975h-137l12 201q-88 -103 -203 -164.5t-241 -61.5q-91 0 -149 27.5t-92 90.5t-36.5 165zM259.5 311q-2.5 -69 12 -111.5t44.5 -57.5t83 -15q96 0 194.5 55.5 t213.5 167.5l74 520q-171 7 -226 7q-73 0 -120 -4.5t-88 -20.5t-65 -40.5t-44.5 -70t-33 -101.5t-25.5 -144q-17 -116 -19.5 -185zM535 1202l393 301l84 -135l-424 -246z" />
<glyph unicode="&#xe2;" d="M87.5 258q-2.5 102 16.5 252q16 112 38.5 194t56 138.5t71 92t91.5 54.5t109 26t132 7q227 0 469 -47l-137 -975h-137l12 201q-88 -103 -203 -164.5t-241 -61.5q-91 0 -149 27.5t-92 90.5t-36.5 165zM259.5 311q-2.5 -69 12 -111.5t44.5 -57.5t83 -15q96 0 194.5 55.5 t213.5 167.5l74 520q-171 7 -226 7q-73 0 -120 -4.5t-88 -20.5t-65 -40.5t-44.5 -70t-33 -101.5t-25.5 -144q-17 -116 -19.5 -185zM336 1206l305 260h123l254 -272l-66 -68l-243 207h-17l-305 -205z" />
<glyph unicode="&#xe3;" d="M87.5 258q-2.5 102 16.5 252q16 112 38.5 194t56 138.5t71 92t91.5 54.5t109 26t132 7q227 0 469 -47l-137 -975h-137l12 201q-88 -103 -203 -164.5t-241 -61.5q-91 0 -149 27.5t-92 90.5t-36.5 165zM259.5 311q-2.5 -69 12 -111.5t44.5 -57.5t83 -15q96 0 194.5 55.5 t213.5 167.5l74 520q-171 7 -226 7q-73 0 -120 -4.5t-88 -20.5t-65 -40.5t-44.5 -70t-33 -101.5t-25.5 -144q-17 -116 -19.5 -185zM346 1202q4 118 56 177t128 53q55 -4 103.5 -30t93.5 -52t90 -31q60 -7 88.5 19t36.5 87l82 -6q-3 -114 -53.5 -173.5t-128.5 -53.5 q-48 3 -92 20.5t-72 37t-62.5 37.5t-64.5 22q-58 6 -86.5 -22.5t-36.5 -92.5z" />
<glyph unicode="&#xe4;" d="M87.5 258q-2.5 102 16.5 252q16 112 38.5 194t56 138.5t71 92t91.5 54.5t109 26t132 7q227 0 469 -47l-137 -975h-137l12 201q-88 -103 -203 -164.5t-241 -61.5q-91 0 -149 27.5t-92 90.5t-36.5 165zM259.5 311q-2.5 -69 12 -111.5t44.5 -57.5t83 -15q96 0 194.5 55.5 t213.5 167.5l74 520q-171 7 -226 7q-73 0 -120 -4.5t-88 -20.5t-65 -40.5t-44.5 -70t-33 -101.5t-25.5 -144q-17 -116 -19.5 -185zM426 1249l16 115q9 49 58 49h53q30 0 40 -11.5t5 -37.5l-16 -113q-6 -49 -56 -49h-57q-49 0 -43 47zM772 1249l16 115q9 49 58 49h53 q30 0 40 -11.5t5 -37.5l-16 -113q-6 -49 -56 -49h-57q-49 0 -43 47z" />
<glyph unicode="&#xe5;" d="M87.5 258q-2.5 102 16.5 252q16 112 38.5 194t56 138.5t71 92t91.5 54.5t109 26t132 7q227 0 469 -47l-137 -975h-137l12 201q-88 -103 -203 -164.5t-241 -61.5q-91 0 -149 27.5t-92 90.5t-36.5 165zM259.5 311q-2.5 -69 12 -111.5t44.5 -57.5t83 -15q96 0 194.5 55.5 t213.5 167.5l74 520q-171 7 -226 7q-73 0 -120 -4.5t-88 -20.5t-65 -40.5t-44.5 -70t-33 -101.5t-25.5 -144q-17 -116 -19.5 -185zM467 1290q0 100 66 167t167 67q92 0 149.5 -54.5t57.5 -142.5q0 -100 -66 -166.5t-167 -66.5q-92 0 -149.5 54t-57.5 142zM565 1298 q0 -51 29.5 -82.5t83.5 -31.5q58 0 94.5 39.5t36.5 97.5q0 51 -29 82t-82 31q-61 0 -97 -38.5t-36 -97.5z" />
<glyph unicode="&#xe6;" horiz-adv-x="1787" d="M102 510q19 133 50 225.5t70.5 148.5t99.5 87t122.5 41t153.5 10q212 0 444 -45q104 45 291 45q228 0 312.5 -79t58.5 -241q-24 -142 -111 -203t-268 -75l-369 -35q-3 -81 12.5 -134t52 -81.5t84 -39.5t118.5 -11q180 0 358 24l12 -116q-69 -28 -184 -42t-217 -14 q-166 0 -262 55t-131 169q-85 -101 -198.5 -162.5t-242.5 -61.5q-178 0 -237.5 122.5t-18.5 412.5zM264 268q5 -82 33.5 -111.5t95.5 -29.5q95 0 186.5 51t198.5 156q-6 78 10 188q29 231 113 346q-245 9 -250 9q-71 0 -118 -5t-87 -21.5t-63 -40.5t-43 -70t-32.5 -101.5 t-24.5 -142.5q-24 -146 -19 -228zM969 520l354 35q101 8 147.5 42.5t59.5 119.5q4 25 4 45.5t-2.5 36t-11 27.5t-17.5 20.5t-25.5 14t-31 9t-39 5t-45 2t-51.5 0.5q-87 0 -140.5 -13.5t-95 -53t-65.5 -108t-41 -182.5z" />
<glyph unicode="&#xe7;" horiz-adv-x="991" d="M94 506q41 285 161.5 400.5t375.5 115.5q197 0 319 -49l-28 -109q-110 10 -263 10q-96 0 -158 -15.5t-109.5 -58t-74 -116.5t-41.5 -192q-10 -78 -10.5 -134t9.5 -98t29 -68t53 -41.5t75.5 -21.5t102.5 -6q171 0 299 20l12 -118q-158 -50 -342 -50q-262 0 -356 122.5 t-54 408.5zM213 -494l33 93q83 -3 143.5 39.5t71.5 109.5q6 34 -15 45t-94 12l21 82q127 11 178.5 -18.5t34.5 -122.5q-20 -126 -124 -193t-249 -47z" />
<glyph unicode="&#xe8;" horiz-adv-x="1099" d="M98 522q21 149 58.5 244t104 153t156.5 80.5t226 22.5q228 0 313 -79t58 -241q-24 -142 -111 -203t-268 -75l-369 -35q-2 -81 13.5 -134t51.5 -81.5t83 -39.5t118 -11q177 0 367 24l12 -116q-71 -28 -187.5 -42t-219.5 -14q-255 0 -350 131t-56 416zM279 520l354 35 q102 8 148 42t61 120q4 25 4 45.5t-2.5 36t-11 27.5t-18 20.5t-26 14t-31.5 9t-39.5 5t-45 2t-51.5 0.5q-58 0 -98.5 -5.5t-76.5 -20.5t-60.5 -40t-45.5 -65.5t-35 -95t-26 -130.5zM317 1378l95 123l348 -301l-64 -78z" />
<glyph unicode="&#xe9;" horiz-adv-x="1099" d="M98 522q21 149 58.5 244t104 153t156.5 80.5t226 22.5q228 0 313 -79t58 -241q-24 -142 -111 -203t-268 -75l-369 -35q-2 -81 13.5 -134t51.5 -81.5t83 -39.5t118 -11q177 0 367 24l12 -116q-71 -28 -187.5 -42t-219.5 -14q-255 0 -350 131t-56 416zM279 520l354 35 q102 8 148 42t61 120q4 25 4 45.5t-2.5 36t-11 27.5t-18 20.5t-26 14t-31.5 9t-39.5 5t-45 2t-51.5 0.5q-58 0 -98.5 -5.5t-76.5 -20.5t-60.5 -40t-45.5 -65.5t-35 -95t-26 -130.5zM524 1202l394 301l83 -135l-423 -246z" />
<glyph unicode="&#xea;" horiz-adv-x="1099" d="M98 522q21 149 58.5 244t104 153t156.5 80.5t226 22.5q228 0 313 -79t58 -241q-24 -142 -111 -203t-268 -75l-369 -35q-2 -81 13.5 -134t51.5 -81.5t83 -39.5t118 -11q177 0 367 24l12 -116q-71 -28 -187.5 -42t-219.5 -14q-255 0 -350 131t-56 416zM279 520l354 35 q102 8 148 42t61 120q4 25 4 45.5t-2.5 36t-11 27.5t-18 20.5t-26 14t-31.5 9t-39.5 5t-45 2t-51.5 0.5q-58 0 -98.5 -5.5t-76.5 -20.5t-60.5 -40t-45.5 -65.5t-35 -95t-26 -130.5zM326 1206l305 260h123l254 -272l-66 -68l-244 207h-16l-305 -205z" />
<glyph unicode="&#xeb;" horiz-adv-x="1099" d="M98 522q21 149 58.5 244t104 153t156.5 80.5t226 22.5q228 0 313 -79t58 -241q-24 -142 -111 -203t-268 -75l-369 -35q-2 -81 13.5 -134t51.5 -81.5t83 -39.5t118 -11q177 0 367 24l12 -116q-71 -28 -187.5 -42t-219.5 -14q-255 0 -350 131t-56 416zM279 520l354 35 q102 8 148 42t61 120q4 25 4 45.5t-2.5 36t-11 27.5t-18 20.5t-26 14t-31.5 9t-39.5 5t-45 2t-51.5 0.5q-58 0 -98.5 -5.5t-76.5 -20.5t-60.5 -40t-45.5 -65.5t-35 -95t-26 -130.5zM416 1249l16 115q9 49 57 49h54q30 0 40 -11.5t5 -37.5l-17 -113q-6 -49 -55 -49h-57 q-49 0 -43 47zM762 1249l16 115q9 49 58 49h53q30 0 40 -11.5t5 -37.5l-16 -113q-6 -49 -56 -49h-57q-49 0 -43 47z" />
<glyph unicode="&#xec;" horiz-adv-x="503" d="M-4 1378l94 123l348 -301l-63 -78zM80 0l141 997h174l-141 -997h-174z" />
<glyph unicode="&#xed;" horiz-adv-x="503" d="M80 0l141 997h174l-141 -997h-174zM203 1202l393 301l84 -135l-424 -246z" />
<glyph unicode="&#xee;" horiz-adv-x="503" d="M4 1206l305 260h123l254 -272l-65 -68l-244 207h-17l-305 -205zM80 0l141 997h174l-141 -997h-174z" />
<glyph unicode="&#xef;" horiz-adv-x="503" d="M80 0l141 997h174l-141 -997h-174zM94 1249l17 115q9 49 57 49h53q30 0 40 -11.5t5 -37.5l-16 -113q-6 -49 -55 -49h-58q-49 0 -43 47zM440 1249l17 115q9 49 57 49h53q30 0 40 -11.5t5 -37.5l-16 -113q-6 -49 -55 -49h-58q-49 0 -43 47z" />
<glyph unicode="&#xf0;" horiz-adv-x="1136" d="M90 455q29 225 139 344t322 119q187 0 293 -111q0 257 -115 379l-182 -125l-47 69l157 111q-109 66 -313 62l27 127q258 7 415 -97l172 121l52 -74l-154 -106q215 -212 150 -703q-15 -115 -38.5 -203t-64 -164.5t-98 -125.5t-141.5 -77t-193 -28q-230 0 -321.5 118 t-59.5 364zM270 442q-26 -176 23.5 -248.5t185.5 -72.5q166 0 242 110t108 365q10 85 11 96q-106 80 -252 80q-150 0 -222.5 -82t-95.5 -248z" />
<glyph unicode="&#xf1;" horiz-adv-x="1183" d="M72 0l141 997h139l-14 -219q141 124 256.5 184t224.5 60q127 0 190.5 -71.5t45.5 -205.5l-107 -745h-174l100 702q12 97 -12.5 134.5t-95.5 37.5q-88 0 -182.5 -52.5t-247.5 -170.5l-90 -651h-174zM356 1202q4 118 56.5 177t128.5 53q55 -4 103 -30t93 -52t90 -31 q60 -7 88.5 19t36.5 87l82 -6q-3 -114 -53.5 -173.5t-128.5 -53.5q-48 3 -92 20.5t-72 37t-62.5 37.5t-64.5 22q-58 6 -86.5 -22.5t-36.5 -92.5z" />
<glyph unicode="&#xf2;" horiz-adv-x="1155" d="M94 504q40 284 160.5 401t374.5 117t349 -122.5t54 -410.5q-40 -283 -159.5 -399.5t-370.5 -116.5q-252 0 -349.5 123t-58.5 408zM264 311q1 -71 29.5 -113t77.5 -59.5t131 -17.5q168 0 244.5 82.5t107.5 300.5q31 216 -16.5 293t-208.5 77q-114 0 -181 -33t-108.5 -116 t-63.5 -236q-13 -107 -12 -178zM317 1378l95 123l348 -301l-64 -78z" />
<glyph unicode="&#xf3;" horiz-adv-x="1155" d="M94 504q40 284 160.5 401t374.5 117t349 -122.5t54 -410.5q-40 -283 -159.5 -399.5t-370.5 -116.5q-252 0 -349.5 123t-58.5 408zM264 311q1 -71 29.5 -113t77.5 -59.5t131 -17.5q168 0 244.5 82.5t107.5 300.5q31 216 -16.5 293t-208.5 77q-114 0 -181 -33t-108.5 -116 t-63.5 -236q-13 -107 -12 -178zM524 1202l394 301l83 -135l-423 -246z" />
<glyph unicode="&#xf4;" horiz-adv-x="1155" d="M94 504q40 284 160.5 401t374.5 117t349 -122.5t54 -410.5q-40 -283 -159.5 -399.5t-370.5 -116.5q-252 0 -349.5 123t-58.5 408zM264 311q1 -71 29.5 -113t77.5 -59.5t131 -17.5q168 0 244.5 82.5t107.5 300.5q31 216 -16.5 293t-208.5 77q-114 0 -181 -33t-108.5 -116 t-63.5 -236q-13 -107 -12 -178zM326 1206l305 260h123l254 -272l-66 -68l-244 207h-16l-305 -205z" />
<glyph unicode="&#xf5;" horiz-adv-x="1155" d="M94 504q40 284 160.5 401t374.5 117t349 -122.5t54 -410.5q-40 -283 -159.5 -399.5t-370.5 -116.5q-252 0 -349.5 123t-58.5 408zM264 311q1 -71 29.5 -113t77.5 -59.5t131 -17.5q168 0 244.5 82.5t107.5 300.5q31 216 -16.5 293t-208.5 77q-114 0 -181 -33t-108.5 -116 t-63.5 -236q-13 -107 -12 -178zM336 1202q4 118 56 177t128 53q55 -4 103.5 -30t93.5 -52t90 -31q60 -7 88.5 19t36.5 87l82 -6q-3 -114 -54 -173.5t-129 -53.5q-48 3 -92 20.5t-71.5 37t-62 37.5t-64.5 22q-58 6 -86.5 -22.5t-36.5 -92.5z" />
<glyph unicode="&#xf6;" horiz-adv-x="1155" d="M94 504q40 284 160.5 401t374.5 117t349 -122.5t54 -410.5q-40 -283 -159.5 -399.5t-370.5 -116.5q-252 0 -349.5 123t-58.5 408zM264 311q1 -71 29.5 -113t77.5 -59.5t131 -17.5q168 0 244.5 82.5t107.5 300.5q31 216 -16.5 293t-208.5 77q-114 0 -181 -33t-108.5 -116 t-63.5 -236q-13 -107 -12 -178zM416 1249l16 115q9 49 57 49h54q30 0 40 -11.5t5 -37.5l-17 -113q-6 -49 -55 -49h-57q-49 0 -43 47zM762 1249l16 115q9 49 58 49h53q30 0 40 -11.5t5 -37.5l-16 -113q-6 -49 -56 -49h-57q-49 0 -43 47z" />
<glyph unicode="&#xf7;" horiz-adv-x="1161" d="M123 539l20 131h897l-20 -131h-897zM436 201l15 96q6 63 65 63h47q71 0 62 -69l-17 -101q-6 -59 -67 -59h-47q-67 0 -58 70zM535 913l14 99q5 33 21 48t48 15h46q37 -2 51 -18t8 -51l-12 -101q-9 -59 -70 -59h-45q-70 0 -61 67z" />
<glyph unicode="&#xf8;" horiz-adv-x="1155" d="M94 504q40 284 160.5 401t374.5 117q110 0 196 -25l95 156l77 -45l-88 -145q90 -57 119.5 -172t3.5 -302q-40 -283 -159.5 -399.5t-370.5 -116.5q-104 0 -180 21l-91 -148l-75 45l82 134q-100 54 -135 170.5t-9 308.5zM267.5 281.5q10.5 -77.5 54.5 -115.5l421 696 q-47 12 -114 12q-114 0 -181 -33t-108.5 -116t-63.5 -236q-19 -130 -8.5 -207.5zM403 129q39 -8 99 -8q168 0 244.5 82.5t107.5 300.5q18 122 10.5 198t-43.5 115z" />
<glyph unicode="&#xf9;" horiz-adv-x="1161" d="M102 252l105 745h174l-100 -702q-13 -92 14 -131t104 -39q89 0 176 52.5t226 178.5l86 641h174l-139 -997h-136l15 215q-128 -123 -238.5 -182.5t-222.5 -59.5q-135 0 -196.5 74t-41.5 205zM326 1386l94 123l348 -301l-63 -78z" />
<glyph unicode="&#xfa;" horiz-adv-x="1161" d="M102 252l105 745h174l-100 -702q-13 -92 14 -131t104 -39q89 0 176 52.5t226 178.5l86 641h174l-139 -997h-136l15 215q-128 -123 -238.5 -182.5t-222.5 -59.5q-135 0 -196.5 74t-41.5 205zM532 1210l394 301l84 -135l-424 -246z" />
<glyph unicode="&#xfb;" horiz-adv-x="1161" d="M102 252l105 745h174l-100 -702q-13 -92 14 -131t104 -39q89 0 176 52.5t226 178.5l86 641h174l-139 -997h-136l15 215q-128 -123 -238.5 -182.5t-222.5 -59.5q-135 0 -196.5 74t-41.5 205zM334 1214l305 261h123l254 -273l-66 -67l-243 206h-17l-305 -204z" />
<glyph unicode="&#xfc;" horiz-adv-x="1161" d="M102 252l105 745h174l-100 -702q-13 -92 14 -131t104 -39q89 0 176 52.5t226 178.5l86 641h174l-139 -997h-136l15 215q-128 -123 -238.5 -182.5t-222.5 -59.5q-135 0 -196.5 74t-41.5 205zM424 1257l16 115q9 49 58 49h53q30 0 40 -11.5t5 -37.5l-16 -112 q-6 -50 -56 -50h-57q-49 0 -43 47zM770 1257l16 115q9 49 58 49h53q30 0 40 -11.5t5 -37.5l-16 -112q-6 -50 -56 -50h-57q-49 0 -43 47z" />
<glyph unicode="&#xfd;" horiz-adv-x="1103" d="M72 -297q125 30 224.5 97t192.5 200h-90q-44 0 -75.5 25t-40.5 67l-193 905h182l158 -821q9 -39 47 -39h98l41 80q101 197 165.5 375.5t109.5 404.5h180q-54 -238 -124 -437t-179 -394q-107 -200 -212.5 -323t-210.5 -181.5t-241 -83.5zM467 1202l393 301l84 -135 l-424 -246z" />
<glyph unicode="&#xfe;" d="M16 -412l258 1846h175l-54 -383q-16 -128 -41 -224l2 -10q87 94 198.5 149.5t231.5 55.5q67 0 115.5 -16t85 -53.5t52.5 -99t19 -152.5t-16 -214q-16 -111 -38.5 -193.5t-55.5 -139t-70.5 -92.5t-90 -55.5t-105.5 -26.5t-127 -7q-123 0 -309 25q-6 -67 -21 -148l-37 -262 h-172zM266 127q147 -6 226 -6q72 0 118.5 4.5t87 20.5t63.5 39.5t43.5 69t33 102t24.5 143.5q13 94 17 155.5t0 105.5t-21 66.5t-42.5 32.5t-67.5 10q-97 0 -195.5 -56.5t-216.5 -172.5z" />
<glyph unicode="&#xff;" horiz-adv-x="1103" d="M72 -297q125 30 224.5 97t192.5 200h-90q-44 0 -75.5 25t-40.5 67l-193 905h182l158 -821q9 -39 47 -39h98l41 80q101 197 165.5 375.5t109.5 404.5h180q-54 -238 -124 -437t-179 -394q-107 -200 -212.5 -323t-210.5 -181.5t-241 -83.5zM358 1249l17 115q9 49 57 49h53 q30 0 40 -11.5t5 -37.5l-16 -113q-6 -49 -55 -49h-58q-49 0 -43 47zM705 1249l16 115q9 49 57 49h53q30 0 40.5 -12t5.5 -37l-17 -113q-6 -49 -55 -49h-57q-49 0 -43 47z" />
<glyph unicode="&#x152;" horiz-adv-x="1882" d="M117.5 422.5q-4.5 124.5 21.5 290.5q30 210 76.5 346.5t125 223t186 122t266.5 35.5q105 0 178 -14.5t153 -49.5q70 39 166 39q414 0 598 -12l-22 -141h-553q-66 0 -101.5 -33.5t-44.5 -106.5l-41 -305l596 -2l-18 -141h-598l-53 -389q-10 -70 16.5 -101.5t95.5 -31.5 h543l-4 -142q-178 -12 -561 -12q-124 0 -191 49q-89 -41 -163 -57.5t-181 -16.5q-129 0 -218 23.5t-151.5 76.5t-89.5 139t-31.5 210.5zM307 431.5q0 -108.5 34.5 -174.5t99 -94t171.5 -28q85 0 139 8.5t119 28.5q-11 46 -2 109l125 893q5 39 21 75q-106 29 -221 29 q-147 0 -236.5 -53.5t-143.5 -177.5t-85 -347q-21 -160 -21 -268.5z" />
<glyph unicode="&#x153;" horiz-adv-x="1853" d="M94 504q38 283 159 400.5t376 117.5q267 0 356 -133q63 73 162 103t254 30q228 0 312.5 -79t58.5 -241q-24 -142 -111 -203t-270 -75l-367 -35q-4 -154 59 -210t207 -56q177 0 359 24l12 -116q-69 -28 -184 -42t-217 -14q-266 0 -359 148q-64 -78 -161 -114t-238 -36 q-253 0 -350 122.5t-58 408.5zM264 311q1 -71 29 -113t77 -59.5t132 -17.5q167 0 244 82.5t106 300.5q32 216 -15 293t-208 77q-114 0 -181 -33t-108.5 -116t-63.5 -236q-13 -107 -12 -178zM1036 520l355 35q101 8 147 42t59 120q4 26 4 46t-2.5 36t-11.5 27.5t-17.5 19.5 t-26 13.5t-31.5 8t-39.5 4t-44.5 2t-52 0.5q-86 0 -139 -13.5t-94.5 -52.5t-65.5 -107t-41 -181z" />
<glyph unicode="&#x178;" horiz-adv-x="1157" d="M131 1413h184l213 -600q31 -96 41 -160h17q29 83 84 166l381 594h196l-600 -919l-67 -494h-183l72 500zM444 1618l17 115q9 49 57 49h53q30 0 40 -11.5t5 -37.5l-16 -113q-6 -49 -55 -49h-58q-49 0 -43 47zM791 1618l16 115q9 49 57 49h54q30 0 40 -11.5t5 -37.5 l-17 -113q-6 -49 -55 -49h-57q-49 0 -43 47z" />
<glyph unicode="&#x2c6;" horiz-adv-x="860" d="M197 1200l305 260h123l254 -272l-66 -68l-244 207h-16l-305 -205z" />
<glyph unicode="&#x2dc;" horiz-adv-x="858" d="M205 1202q4 118 56 177t128 53q55 -4 103.5 -30t93.5 -52t90 -31q60 -7 88.5 19t36.5 87l82 -6q-3 -114 -54 -173.5t-129 -53.5q-48 3 -92 20.5t-71.5 37t-62 37.5t-64.5 22q-58 6 -86.5 -22.5t-36.5 -92.5z" />
<glyph unicode="&#x2000;" horiz-adv-x="957" />
<glyph unicode="&#x2001;" horiz-adv-x="1915" />
<glyph unicode="&#x2002;" horiz-adv-x="957" />
<glyph unicode="&#x2003;" horiz-adv-x="1915" />
<glyph unicode="&#x2004;" horiz-adv-x="638" />
<glyph unicode="&#x2005;" horiz-adv-x="478" />
<glyph unicode="&#x2006;" horiz-adv-x="319" />
<glyph unicode="&#x2007;" horiz-adv-x="319" />
<glyph unicode="&#x2008;" horiz-adv-x="239" />
<glyph unicode="&#x2009;" horiz-adv-x="383" />
<glyph unicode="&#x200a;" horiz-adv-x="106" />
<glyph unicode="&#x2010;" horiz-adv-x="915" d="M125 451l18 133h623l-16 -133h-625z" />
<glyph unicode="&#x2011;" horiz-adv-x="915" d="M125 451l18 133h623l-16 -133h-625z" />
<glyph unicode="&#x2012;" horiz-adv-x="915" d="M125 451l18 133h623l-16 -133h-625z" />
<glyph unicode="&#x2013;" horiz-adv-x="1210" d="M125 451l18 133h918l-19 -133h-917z" />
<glyph unicode="&#x2014;" horiz-adv-x="1832" d="M125 451l18 133h1540l-18 -133h-1540z" />
<glyph unicode="&#x2018;" horiz-adv-x="444" d="M197 1069l18 121q17 134 115 295l84 -29q-51 -144 -66 -229q27 3 40.5 -11.5t10.5 -39.5l-16 -113q-8 -34 -23.5 -45.5t-54.5 -11.5h-53q-36 0 -48.5 14t-6.5 49z" />
<glyph unicode="&#x2019;" horiz-adv-x="440" d="M209 1016q49 139 65 229q-27 -3 -40.5 11.5t-10.5 39.5l17 113q8 34 23 45.5t54 11.5h54q36 0 48.5 -14t6.5 -49l-18 -121q-17 -134 -115 -295z" />
<glyph unicode="&#x201a;" horiz-adv-x="466" d="M47 -227q52 145 68 229q-29 -3 -43 11.5t-11 39.5l17 113q8 34 23.5 45.5t56.5 11.5h53q36 0 48.5 -14t6.5 -49l-18 -121q-17 -134 -115 -295z" />
<glyph unicode="&#x201c;" horiz-adv-x="755" d="M197 1069l18 121q17 134 115 295l84 -29q-51 -144 -66 -229q27 3 40.5 -11.5t10.5 -39.5l-16 -113q-8 -34 -23.5 -45.5t-54.5 -11.5h-53q-36 0 -48.5 14t-6.5 49zM508 1069l18 121q17 134 115 295l84 -29q-51 -144 -66 -229q27 3 41 -11.5t11 -39.5l-17 -113 q-8 -34 -23.5 -45.5t-54.5 -11.5h-53q-36 0 -48.5 14t-6.5 49z" />
<glyph unicode="&#x201d;" horiz-adv-x="753" d="M209 1016q49 139 65 229q-27 -3 -40.5 11.5t-10.5 39.5l17 113q8 34 23 45.5t54 11.5h54q36 0 48.5 -14t6.5 -49l-18 -121q-17 -134 -115 -295zM520 1016q51 144 66 229q-27 -3 -40.5 11.5t-10.5 39.5l16 113q8 34 23.5 45.5t54.5 11.5h53q36 0 48.5 -14t6.5 -49 l-18 -121q-17 -134 -115 -295z" />
<glyph unicode="&#x201e;" horiz-adv-x="778" d="M49 -227q51 144 66 229q-27 -3 -41 11.5t-11 39.5l17 113q8 34 23.5 45.5t54.5 11.5h53q36 0 48.5 -14t6.5 -49l-18 -121q-17 -134 -115 -295zM360 -227q51 144 66 229q-27 -3 -40.5 11.5t-10.5 39.5l16 113q8 34 23.5 45.5t54.5 11.5h53q36 0 49 -14t7 -49l-19 -121 q-17 -134 -115 -295z" />
<glyph unicode="&#x2022;" horiz-adv-x="739" d="M176 543l4 26q12 96 53 130t142 34h24q94 0 129 -39.5t23 -134.5l-4 -27q-13 -100 -53.5 -135t-137.5 -35h-24q-100 0 -135 40.5t-21 140.5z" />
<glyph unicode="&#x2026;" horiz-adv-x="1722" d="M82 68l16 114q9 60 70 60h57q69 0 60 -68l-15 -113q-9 -61 -69 -61h-58q-70 0 -61 68zM713 68l16 114q9 60 70 60h57q68 0 59 -68l-14 -113q-9 -61 -70 -61h-57q-70 0 -61 68zM1343 68l17 114q9 60 70 60h57q68 0 59 -68l-14 -113q-9 -61 -70 -61h-57q-71 0 -62 68z" />
<glyph unicode="&#x202f;" horiz-adv-x="383" />
<glyph unicode="&#x2039;" horiz-adv-x="606" d="M76 504l2 39l383 397l71 -66l-313 -362l223 -373l-88 -59z" />
<glyph unicode="&#x203a;" horiz-adv-x="608" d="M49 145l313 365l-221 373l86 57l279 -422l-2 -39l-383 -399z" />
<glyph unicode="&#x205f;" horiz-adv-x="478" />
<glyph unicode="&#x20ac;" horiz-adv-x="1298" d="M94 535l17 108h170q4 44 8 70q2 17 7 47t7 43h-170l17 108h176q67 271 215 399t413 128q184 0 328 -43l-29 -138q-159 24 -311 19q-174 -6 -274 -91t-152 -274h522l-30 -108h-516q-5 -21 -19 -107l-6 -53h463l-31 -108h-440q-9 -205 62.5 -299t240.5 -99q179 -7 352 25 l8 -142q-152 -45 -354 -45q-271 0 -389 138t-107 422h-178z" />
<glyph unicode="&#x2122;" horiz-adv-x="1959" d="M231 1321l13 104h665l-14 -104h-270l-95 -674h-124l94 674h-269zM901 647l133 733q5 24 15.5 34.5t33.5 10.5h129q20 0 33 -12t15 -31l94 -452q3 -18 8 -54.5t8 -54.5h25q17 51 43 109l219 459q16 36 53 36h133q23 0 35.5 -15t9.5 -38l-69 -725h-117l63 682h-22 l-264 -553q-9 -21 -21 -29t-33 -8h-96q-21 0 -34 12t-15 33l-115 545h-24l-123 -682h-117z" />
<glyph unicode="&#x25fc;" horiz-adv-x="993" d="M0 0v993h993v-993h-993z" />
<glyph unicode="&#xfb03;" horiz-adv-x="1914" d="M-246 -397l27 131h156q98 0 141.5 35t58.5 135l135 956h-182l16 127l187 10l22 158q39 287 322 287q189 0 283 -12l-27 -132h-201q-101 0 -146.5 -35.5t-60.5 -134.5l-18 -131h506l24 183q42 288 324 288q174 0 283 -14l-27 -129h-201q-101 0 -146.5 -36t-60.5 -136 l-22 -156h661l-141 -997h-174l123 860h-488l-133 -950q-42 -289 -317 -289q-104 0 -236 14l27 132h154q99 0 142 35t58 135l129 923h-506l-139 -983q-42 -289 -315 -289q-97 0 -238 15zM1661 1255l16 115q6 51 56 51h82q27 0 40.5 -16t8.5 -41l-15 -117q-5 -27 -17 -38 t-38 -11h-82q-57 0 -51 57z" />
<glyph unicode="&#xfb04;" horiz-adv-x="2041" d="M-246 -397l27 131h156q98 0 141.5 35t58.5 135l135 956h-182l16 127l187 10l22 158q39 287 322 287q189 0 283 -12l-27 -132h-201q-101 0 -146.5 -35.5t-60.5 -134.5l-18 -131h502l22 162q23 156 99 233t227 76q454 -6 573 -24l-164 -1194q-18 -131 111 -131h102l9 -113 q-27 -11 -83.5 -17.5t-97.5 -6.5q-117 0 -175.5 63.5t-43.5 173.5l156 1108h-332q-98 0 -146 -44t-63 -150l-18 -136h299l-19 -137h-301l-133 -950q-42 -289 -317 -289q-104 0 -236 14l27 132h153q99 0 142.5 35t58.5 135l129 923h-502l-139 -983q-42 -289 -315 -289 q-97 0 -238 15z" />
</font>
</defs>
</svg>
