<?xml version="1.0" standalone="no"?>
<!DOCTYPE svg PUBLIC "-//W3C//DTD SVG 1.1//EN" "http://www.w3.org/Graphics/SVG/1.1/DTD/svg11.dtd" >
<svg xmlns="http://www.w3.org/2000/svg" xmlns:xlink="http://www.w3.org/1999/xlink" version="1.1">
<metadata></metadata>
<defs>
<font id="exo_2extra_light" horiz-adv-x="1359" >
<font-face units-per-em="2048" ascent="1638" descent="-410" />
<missing-glyph horiz-adv-x="466" />
<glyph unicode="&#xfb01;" horiz-adv-x="1153" d="M68 915v62l178 10v195q0 142 62 212t204 70q133 0 209 -10v-61h-182q-116 0 -163.5 -48t-47.5 -169v-189h633v-987h-80v915h-553v-915h-82v915h-178zM870 1243v123q0 33 31 33h37q33 0 33 -33v-123q0 -33 -33 -33h-37q-31 0 -31 33z" />
<glyph unicode="&#xfb02;" horiz-adv-x="1288" d="M68 915v62l178 10v195q0 143 61.5 212.5t204.5 69.5q78 0 248.5 -4.5t228.5 -11.5v-1237q0 -76 40.5 -116t115.5 -40h112l11 -53q-50 -16 -144 -16q-101 0 -159 56.5t-58 158.5v1194h-368q-117 1 -164 -48t-47 -171v-189h334v-72h-334v-915h-82v915h-178z" />
<glyph horiz-adv-x="0" />
<glyph horiz-adv-x="682" />
<glyph unicode=" "  horiz-adv-x="466" />
<glyph unicode="&#x09;" horiz-adv-x="466" />
<glyph unicode="&#xa0;" horiz-adv-x="466" />
<glyph unicode="!" horiz-adv-x="528" d="M217 35v123q0 19 8 27t27 8h27q19 0 26.5 -8t7.5 -27v-123q0 -19 -7.5 -27t-26.5 -8h-27q-19 0 -27 8t-8 27zM223 743v680h82v-680l-6 -323h-68z" />
<glyph unicode="&#x22;" horiz-adv-x="684" d="M170 1413h74l-6 -430h-62zM440 1413h72l-4 -430h-62z" />
<glyph unicode="#" horiz-adv-x="1376" d="M115 459l12 63h235l76 428h-237l12 64h236l69 399h74l-70 -399h441l69 399h74l-70 -399h224l-11 -64h-223l-76 -428h224l-11 -63h-223l-80 -459h-74l80 459h-440l-80 -459h-74l80 459h-237zM436 522h441l75 428h-440z" />
<glyph unicode="$" horiz-adv-x="1146" d="M135 1071q0 63 6 113t21 87.5t33 64.5t47.5 45.5t60 30t75.5 17t88 7t103 0.5h29l12 209h56l-13 -211q157 -6 310 -27l-9 -61q-45 2 -147.5 7t-157.5 7l-35 -612l123 -21q157 -23 222 -109.5t65 -267.5q0 -71 -9.5 -126t-26.5 -94.5t-47 -67t-62.5 -44t-82 -26t-98 -12.5 t-116.5 -3h-17l-14 -249h-57l14 249q-166 4 -350 27l8 64q236 -13 348 -13l37 623l-139 22q-149 23 -213 111.5t-64 259.5zM219 1069q0 -143 48 -207.5t165 -83.5l125 -20l37 602h-23q-64 0 -98.5 -1t-79 -6.5t-66 -17t-47 -32t-36 -52t-18 -76.5t-7.5 -106zM569 55h15 q69 1 116 5t90 15.5t68.5 31.5t44.5 53t27 79.5t8 110.5q0 153 -48.5 216.5t-170.5 82.5l-113 19z" />
<glyph unicode="%" horiz-adv-x="1814" d="M117 1020q0 222 70.5 320t242.5 98t242.5 -98t70.5 -320t-70.5 -320t-242.5 -98t-242.5 98t-70.5 320zM186 1020q0 -194 54 -277.5t190 -83.5t190 83.5t54 277.5t-54 277t-190 83t-190 -83t-54 -277zM387 0l965 1413h69l-966 -1413h-68zM1071 403q0 221 70.5 319.5 t242.5 98.5q170 0 241 -98.5t71 -319.5q0 -222 -70.5 -320.5t-241.5 -98.5q-172 0 -242.5 98.5t-70.5 320.5zM1141 403q0 -195 53 -278.5t188 -83.5q136 0 190 84t54 278t-54 277.5t-190 83.5q-135 0 -188 -83t-53 -278z" />
<glyph unicode="&#x26;" horiz-adv-x="1597" d="M158 356q0 172 63.5 266t214.5 107v8q-128 10 -182.5 91.5t-54.5 238.5q0 70 10.5 123.5t29.5 92.5t53 65.5t72.5 43t98 25.5t119 12t145.5 3q175 0 326 -19l-13 -61q-64 6 -317 6q-88 0 -147 -4t-112 -15.5t-84 -31.5t-54 -54t-32 -81t-9 -113q0 -89 17 -145.5t59 -89.5 t103 -45.5t159 -12.5h446l14 305h66v-305h281l-7 -68h-274v-483q0 -156 156 -156h172l10 -57q-91 -16 -187 -16q-110 0 -168 51.5t-63 148.5q-96 -111 -214 -157.5t-290 -46.5q-223 0 -315 81.5t-92 292.5zM246 365q0 -174 71 -241t256 -67q173 0 289 52t207 165v424h-448 q-84 0 -143.5 -10t-105.5 -32.5t-73 -61t-40 -94.5t-13 -135z" />
<glyph unicode="'" horiz-adv-x="413" d="M170 1413h74l-6 -430h-62z" />
<glyph unicode="(" horiz-adv-x="729" d="M133 639q0 390 121 627.5t379 351.5l12 -49q-220 -112 -324 -338t-104 -590q0 -358 104 -585t324 -345l-12 -49q-258 115 -379 352.5t-121 624.5z" />
<glyph unicode=")" horiz-adv-x="729" d="M86 -289q219 118 322.5 345t103.5 585q0 363 -103.5 589.5t-322.5 338.5l10 49q258 -114 379 -351.5t121 -627.5q0 -387 -121 -624.5t-379 -352.5z" />
<glyph unicode="*" horiz-adv-x="925" d="M137 1157l23 60l248 -91l-2 -26l-13 -19zM244 834l196 262l-8 317h64l-13 -317l197 -265l-49 -34l-168 254l-168 -252zM518 1100v26l252 88l21 -59l-261 -74z" />
<glyph unicode="+" horiz-adv-x="1130" d="M133 575v68h397v377h70v-377h397v-68h-399v-376h-66v376h-399z" />
<glyph unicode="," horiz-adv-x="436" d="M170 31l2 127q-3 35 35 35h26q19 0 27 -8t8 -27v-131q-4 -149 -47 -275l-39 15q11 113 11 233q-10 0 -17 9t-6 22z" />
<glyph unicode="-" horiz-adv-x="970" d="M168 481v68h635v-68h-635z" />
<glyph unicode="." horiz-adv-x="434" d="M166 35v123q0 35 37 35h28q19 0 27 -8t8 -27v-123q0 -19 -8 -27t-27 -8h-28q-37 0 -37 35z" />
<glyph unicode="/" horiz-adv-x="1024" d="M72 -125l805 1538h75l-805 -1538h-75z" />
<glyph unicode="0" horiz-adv-x="1206" d="M152 707q0 386 101 558.5t349 172.5q249 0 351 -172.5t102 -558.5q0 -193 -23 -327t-76 -226.5t-140 -135.5t-214 -43q-248 0 -349 173t-101 559zM236 707q0 -349 81.5 -502.5t284.5 -153.5t286 154t83 502t-83 501.5t-286 153.5t-284.5 -153t-81.5 -502z" />
<glyph unicode="1" horiz-adv-x="784" d="M68 1266l381 147h83v-1413h-83v1229q0 51 6 100l-373 -123z" />
<glyph unicode="2" horiz-adv-x="1142" d="M123 0v51q0 24 14 41l471 541q145 164 207.5 285.5t58.5 240.5q-2 53 -19.5 90.5t-43 59.5t-69 34t-86.5 15.5t-107 3.5q-188 0 -402 -43l-12 63q139 33 226.5 44.5t183.5 11.5q108 0 178.5 -11t128 -41t84.5 -88.5t27 -148.5q0 -134 -63.5 -254t-213.5 -295l-457 -524 q78 2 240 2h553v-78h-899z" />
<glyph unicode="3" horiz-adv-x="1132" d="M121 10l12 66q256 -25 399 -25q193 0 277 79t84 267q0 54 -7.5 97t-29.5 85t-58.5 70t-97 45.5t-141.5 18.5l-262 2v63l262 4q78 2 134.5 23.5t87 52t48.5 75.5t22.5 82.5t4.5 84.5q-4 155 -78 208.5t-272 53.5q-174 0 -350 -23l-15 64q199 35 371 35q236 0 331 -71 t95 -255q0 -310 -219 -356v-8q70 -11 120.5 -42t79.5 -79t42.5 -105t15.5 -129q3 -216 -95.5 -317t-334.5 -101q-163 0 -426 35z" />
<glyph unicode="4" horiz-adv-x="1228" d="M115 563l442 850h86l-446 -858q-20 -38 -1.5 -67t58.5 -29h614v448l19 238h63v-686h172v-62l-172 -8v-389h-82v387h-649q-69 0 -102.5 56.5t-1.5 119.5z" />
<glyph unicode="5" horiz-adv-x="1083" d="M127 31l14 65q203 -47 357 -47q92 0 158.5 18t106.5 48t64 78.5t32 100.5t9 124q0 49 -4.5 88.5t-17 71.5t-26.5 57t-40 44t-50.5 32t-65.5 22.5t-77.5 15t-94 9t-106.5 4.5t-124 2l-47 2q-18 2 -28 13.5t-9 29.5l31 604h700l-8 -74h-622l-23 -501l123 -2 q128 -4 213.5 -15.5t158.5 -38t114 -72.5t63 -117.5t22 -174.5q0 -62 -6 -111t-21.5 -102.5t-46.5 -92.5t-78 -71.5t-119.5 -49t-166.5 -16.5q-172 0 -385 56z" />
<glyph unicode="6" horiz-adv-x="1159" d="M158 633q0 151 10 265.5t28.5 200.5t51 145t71.5 97.5t97 59.5t120 29t148 8q152 0 254 -27l-16 -61q-80 14 -238 14q-85 0 -143 -9t-110 -35t-83.5 -70.5t-55.5 -117t-34.5 -173t-13.5 -240.5q88 106 177.5 147t223.5 41q218 0 300.5 -104t82.5 -373q0 -65 -4 -114 t-15.5 -98.5t-31 -85t-51.5 -66.5t-76.5 -50t-106 -30t-139.5 -11q-64 0 -115.5 7t-94.5 20t-75.5 35.5t-57.5 51t-42.5 70t-29.5 87.5t-18.5 108t-9.5 128t-3 151zM244 627q0 -98 3 -164.5t11.5 -132t25 -107t43 -78t65.5 -55.5t91.5 -30t122.5 -11q88 0 149.5 17.5 t98.5 47t57.5 81t27.5 106t7 135.5q0 113 -14 185.5t-49.5 123t-96.5 72t-157 21.5q-112 0 -198 -39.5t-187 -145.5v-26z" />
<glyph unicode="7" horiz-adv-x="1038" d="M94 1413h778q54 0 70.5 -22.5t-0.5 -71.5l-457 -1319h-84l435 1255l30 84h-768z" />
<glyph unicode="8" horiz-adv-x="1249" d="M166 352q0 183 52 273.5t179 103.5v8q-105 12 -153.5 92t-48.5 232q0 100 19.5 166.5t68 114t132 69t210.5 21.5q128 0 212 -21t132 -69t67 -114.5t19 -166.5q0 -152 -48.5 -232t-154.5 -92v-8q127 -13 179 -103.5t52 -273.5q0 -104 -19.5 -170.5t-70.5 -113.5 t-139.5 -66.5t-228.5 -19.5q-137 0 -225.5 19.5t-140.5 66t-72.5 113.5t-20.5 171zM248 362q0 -115 31 -178t113 -94t235 -31q115 0 187 15.5t114 53.5t57.5 92.5t15.5 141.5q0 75 -6 126t-24 90t-43 61.5t-69.5 36t-97 18t-132.5 4.5q-82 -1 -136 -5.5t-99.5 -19t-71 -36.5 t-43.5 -61t-24.5 -89.5t-6.5 -124.5zM276 1057q0 -95 14 -149.5t56.5 -87t106 -42.5t176.5 -10q76 0 127 4.5t91.5 17t63.5 32t38.5 53.5t20.5 76.5t5 105.5q0 88 -14 142t-52.5 91.5t-105.5 52.5t-176 15q-108 0 -175.5 -15t-107 -52.5t-54 -92t-14.5 -141.5z" />
<glyph unicode="9" horiz-adv-x="1161" d="M131 967q0 117 20 200.5t67.5 146.5t131.5 93.5t207 30.5q87 0 150.5 -12t111.5 -33.5t79 -65.5t51 -93t29.5 -132t13 -166t3.5 -211q0 -162 -12.5 -279.5t-41.5 -201.5t-68 -136t-101.5 -82t-132.5 -40.5t-170 -10.5q-155 0 -268 27l16 61q106 -12 252 -12q102 0 168 14 t122 53t86.5 112t47.5 186.5t18 281.5q-88 -109 -176.5 -150.5t-224.5 -41.5q-205 0 -292 116t-87 345zM213 963q0 -196 69 -292t244 -96q112 0 198 40t187 147q0 110 -2.5 177t-10 139t-23 112t-40.5 78.5t-63.5 56.5t-91.5 28.5t-125 10.5q-103 0 -171.5 -26t-105 -81 t-51 -124t-14.5 -170z" />
<glyph unicode=":" horiz-adv-x="438" d="M166 35v123q0 35 37 35h28q19 0 27 -8t8 -27v-123q0 -19 -8 -27t-27 -8h-28q-37 0 -37 35zM166 727v123q0 35 37 35h28q19 0 27 -8t8 -27v-123q0 -19 -8 -27t-27 -8h-28q-37 0 -37 35z" />
<glyph unicode=";" horiz-adv-x="442" d="M168 727v123q0 35 37 35h28q19 0 27 -8t8 -27v-123q0 -19 -8 -27t-27 -8h-28q-37 0 -37 35zM172 31l2 127q-3 35 35 35h27q19 0 26.5 -8t7.5 -27v-131q-4 -149 -47 -275l-39 15q11 113 11 233q-10 0 -17 9t-6 22z" />
<glyph unicode="&#x3c;" horiz-adv-x="1101" d="M127 571v70l811 369v-70l-735 -334l735 -325v-70z" />
<glyph unicode="=" horiz-adv-x="1204" d="M170 344v68h864v-68h-864zM170 778v68h864v-68h-864z" />
<glyph unicode="&#x3e;" horiz-adv-x="1101" d="M164 211v70l735 325l-735 334v70l811 -369v-70z" />
<glyph unicode="?" horiz-adv-x="1036" d="M96 1419q14 2 52.5 9t51.5 9t46 7t55 6.5t58 4t75 3t88 0.5q404 0 404 -317q0 -63 -21 -118.5t-54.5 -98t-74.5 -84t-82 -84.5t-75 -89.5t-55.5 -110t-22.5 -136.5h-74q0 80 20 148.5t53 117.5t73 93t80 83t73.5 78t54.5 88.5t21 104.5q0 131 -80 192t-250 61 q-34 0 -62.5 -0.5t-56 -1.5t-46.5 -1.5t-44.5 -2.5t-37.5 -2.5t-39 -3.5t-36.5 -4t-41 -5t-42.5 -5zM455 35v123q0 19 7.5 27t26.5 8h27q19 0 27 -8t8 -27v-123q0 -19 -8 -27t-27 -8h-27q-19 0 -26.5 8t-7.5 27z" />
<glyph unicode="@" horiz-adv-x="1431" d="M182 543q0 112 2.5 186.5t13 144.5t24.5 111t44 78t64 54.5t91.5 31t120.5 17.5t156 5h289q279 0 279 -253v-652h-60l-12 162q-71 -64 -201.5 -119t-255.5 -55q-121 0 -189.5 58.5t-68.5 164.5v109q0 97 61.5 149.5t174.5 52.5h475v127q0 89 -48 137.5t-165 47.5h-277 q-82 0 -131 -2t-100.5 -11.5t-78 -23.5t-54 -44.5t-38.5 -67.5t-21 -99.5t-12.5 -133t-2.5 -175.5q0 -109 2.5 -181t13.5 -137t23 -102.5t42.5 -69.5t60.5 -46t88 -24t113.5 -12t148.5 -2h501v-63q-332 -8 -499 -8q-103 -1 -173 1.5t-134 15.5t-102 31t-71 55.5t-49 80.5 t-27.5 115.5t-14.5 150.5t-3 195zM559 485q0 -158 184 -161q107 -1 234.5 46t212.5 117v248l-461 -8q-170 -6 -170 -147v-95z" />
<glyph unicode="A" horiz-adv-x="1245" d="M35 0l493 1386q10 27 37 27h115q27 0 37 -27l493 -1386h-88l-174 498h-651l-174 -498h-88zM324 571h598l-230 658l-41 114h-57l-41 -114z" />
<glyph unicode="B" horiz-adv-x="1257" d="M203 0v1413q159 17 413 17q131 0 214.5 -16.5t140.5 -59t80.5 -113t23.5 -180.5q0 -154 -57 -233t-182 -91v-8q152 -13 216 -106.5t64 -270.5q0 -110 -23 -180.5t-77.5 -112.5t-134 -58.5t-203.5 -16.5q-304 0 -475 16zM287 61q160 -4 383 -4q104 0 169 12.5t110 47 t63 92.5t18 151q0 100 -19.5 164t-66 102.5t-115.5 54t-178 17.5h-364v-637zM287 766h364q98 1 159 13.5t103 45.5t59 88t17 142q0 93 -19 151t-66 91.5t-114 46t-176 12.5q-183 0 -327 -4v-586z" />
<glyph unicode="C" horiz-adv-x="1153" d="M147 707q0 205 27.5 342t91.5 225t163.5 126t248.5 38q215 0 364 -37l-14 -62q-168 23 -350 23q-167 0 -262 -63t-137.5 -204t-42.5 -388q0 -149 14.5 -256t46 -185t84 -124.5t124.5 -68.5t173 -22q216 0 379 27l14 -64q-160 -39 -393 -39q-198 0 -312.5 71.5 t-166.5 229.5t-52 431z" />
<glyph unicode="D" horiz-adv-x="1351" d="M203 0v1413q260 19 477 19q147 0 245.5 -37t161.5 -124.5t90 -223.5t27 -340t-27 -340t-90 -223.5t-161.5 -124.5t-245.5 -37q-227 0 -477 18zM287 63q345 -6 393 -6q164 0 258 62.5t136 202.5t42 385t-42 384.5t-136 202t-258 62.5q-42 0 -393 -6v-1287z" />
<glyph unicode="E" horiz-adv-x="1132" d="M190 217v979q0 95 63 156t163 61q405 0 602 -8l-4 -64h-584q-71 0 -113.5 -43.5t-42.5 -115.5v-391l656 -3v-67l-656 -2v-488q0 -72 42.5 -115.5t113.5 -43.5h584l4 -64q-197 -8 -602 -8q-100 0 -163 61t-63 156z" />
<glyph unicode="F" horiz-adv-x="1089" d="M197 0v1194q0 98 62.5 158.5t162.5 60.5q395 0 588 -10l-6 -62h-564q-72 0 -115.5 -43.5t-43.5 -115.5v-404h641v-69h-641v-709h-84z" />
<glyph unicode="G" horiz-adv-x="1277" d="M147 709q0 275 53 432t170 227t322 70q234 0 400 -37l-15 -62q-185 23 -383 23q-174 0 -271 -60t-141 -201t-44 -396q0 -350 88 -502t299 -152q66 0 125 15t112 46.5t87 57.5t85 70v579h84v-819h-59l-17 172q-81 -88 -192 -142.5t-240 -54.5q-247 0 -355 173.5 t-108 560.5z" />
<glyph unicode="H" horiz-adv-x="1351" d="M203 0v1413h84v-618h778v618h84v-1413h-84v721h-778v-721h-84z" />
<glyph unicode="I" horiz-adv-x="489" d="M203 0v1413h84v-1413h-84z" />
<glyph unicode="J" horiz-adv-x="671" d="M74 2l10 57h115q192 0 192 193v1161h84v-1161q0 -132 -65 -200q-63 -66 -187 -66h-4q-67 0 -145 16z" />
<glyph unicode="K" horiz-adv-x="1167" d="M203 0v1413h82v-473q0 -82 -9 -168h222l479 641h96l-457 -614q-19 -28 -55 -60v-4q36 -32 57 -61l488 -674h-98l-512 702h-217q6 -89 6 -170v-532h-82z" />
<glyph unicode="L" horiz-adv-x="1042" d="M197 223v1190h84v-1182q0 -72 43.5 -115.5t115.5 -43.5h545l2 -62q-184 -10 -561 -10q-105 0 -167 62t-62 161z" />
<glyph unicode="M" horiz-adv-x="1761" d="M172 0l59 1370q3 43 43 43h117q29 0 39 -29l358 -991q14 -36 37.5 -104t30.5 -86h49l68 194l356 987q10 29 41 29h117q19 0 30 -11.5t11 -31.5l61 -1370h-84l-59 1341h-47l-426 -1179q-10 -29 -39 -29h-107q-31 0 -41 29l-424 1179h-47l-59 -1341h-84z" />
<glyph unicode="N" horiz-adv-x="1417" d="M203 0v1372q0 41 41 41h102q34 0 49 -31l594 -1128q18 -33 52.5 -99.5t39.5 -76.5h52q0 33 -1.5 97t-1.5 95v1143h84v-1372q0 -41 -38 -41h-111q-31 0 -47 31l-610 1155q-52 98 -76 151h-47q2 -51 2 -153v-1184h-84z" />
<glyph unicode="O" d="M147 707q0 207 27.5 344t92 224.5t164 125t249.5 37.5t249 -37.5t163 -125t91 -224.5t27 -344t-27 -344t-91 -225t-163 -125.5t-249 -37.5q-199 0 -314 70.5t-167 228.5t-52 433zM236 707q0 -186 22.5 -308.5t76 -201.5t136.5 -112.5t209 -33.5q101 0 173 22t124.5 68.5 t84 124.5t46 185t14.5 256q0 247 -42.5 388t-137.5 204t-262 63t-262.5 -63t-138.5 -204t-43 -388z" />
<glyph unicode="P" horiz-adv-x="1193" d="M203 0v1413q176 17 461 17q120 0 196.5 -19.5t128 -68t73 -129t21.5 -205.5q0 -126 -21 -207t-72.5 -129t-126.5 -67t-193 -19q-219 0 -383 12v-598h-84zM287 659h377q96 2 156.5 17.5t101.5 55t58 105.5t17 171q0 139 -33 214t-103 104.5t-197 29.5q-217 0 -377 -4v-693 z" />
<glyph unicode="Q" d="M147 707q0 207 27.5 344t92 224.5t164 125t249.5 37.5t249 -37.5t163 -125t91 -224.5t27 -344t-27 -344t-91 -225t-163 -125.5t-249 -37.5q-199 0 -314 70.5t-167 228.5t-52 433zM238 707q0 -149 14.5 -256t46 -185t84 -124.5t124.5 -68.5t173 -22t173 22t124.5 68.5 t84 124.5t46 185t14.5 256q0 247 -42.5 388t-137.5 204t-262 63t-262 -63t-137.5 -204t-42.5 -388zM578 -150l30 50q193 -120 482 -166l-27 -84q-277 43 -485 200z" />
<glyph unicode="R" horiz-adv-x="1249" d="M203 0v1413q176 17 461 17q119 0 195.5 -18.5t128.5 -64.5t73.5 -122t21.5 -195q0 -185 -60.5 -269.5t-199.5 -103.5v-10q53 -15 95 -67t67 -129l150 -451h-93l-143 444q-33 96 -86.5 137.5t-134.5 41.5q-151 0 -391 6v-629h-84zM287 698h377q96 2 156.5 17t101.5 53 t58 100t17 160q0 99 -17 161.5t-58 100t-101.5 52t-156.5 14.5q-221 0 -377 -4v-654z" />
<glyph unicode="S" horiz-adv-x="1138" d="M129 1071q0 63 6 113t21 87.5t33 64.5t47.5 45.5t60 30t75.5 17t88 7.5q26 1 58 0h45q211 -3 393 -29l-8 -61q-282 14 -383 14q-64 0 -98 -1t-78 -6.5t-66 -17t-47 -32t-35.5 -52t-18 -76.5t-7.5 -106q0 -143 48 -207.5t163 -83.5l307 -51q156 -23 220.5 -109.5 t64.5 -267.5q0 -71 -9.5 -126t-26.5 -94t-47 -67t-63 -44.5t-82.5 -26t-98 -12.5t-116.5 -3q-229 0 -421 27l6 64q227 -15 384 -15h36q70 1 116.5 5.5t89 16t67.5 31.5t44.5 53t27 79.5t7.5 111.5q0 153 -48.5 216.5t-170.5 82.5l-307 51q-149 23 -213 111.5t-64 259.5z" />
<glyph unicode="T" horiz-adv-x="1163" d="M53 1339v74h1057v-74h-487v-1339h-84v1339h-486z" />
<glyph unicode="U" horiz-adv-x="1366" d="M193 526v887h83v-887q0 -262 91.5 -368.5t316.5 -106.5q222 0 314 106.5t92 368.5v887h84v-887q0 -299 -111 -425t-377 -126q-270 0 -381.5 126t-111.5 425z" />
<glyph unicode="V" horiz-adv-x="1220" d="M49 1413h88l398 -1192q44 -141 47 -151h57q40 127 49 153l395 1190h91l-469 -1386q-12 -27 -39 -27h-111q-13 0 -23.5 8t-13.5 19z" />
<glyph unicode="W" horiz-adv-x="1914" d="M66 1413h90l299 -1194q24 -98 34 -149h56q25 104 35 147l284 1163q7 33 39 33h109q29 0 39 -33l284 -1161q20 -83 33 -149h55q6 24 17.5 73t17.5 74l301 1196h88l-352 -1384q-3 -12 -13.5 -20.5t-25.5 -8.5h-117q-32 0 -39 31l-280 1155q-19 73 -39 160h-47 q-19 -73 -39 -160l-281 -1155q-3 -13 -14 -22t-25 -9h-116q-30 0 -41 29z" />
<glyph unicode="X" horiz-adv-x="1224" d="M72 0l434 735l-408 678h95l385 -641h69l383 641h96l-409 -678l436 -735h-96l-414 702h-61l-414 -702h-96z" />
<glyph unicode="Y" horiz-adv-x="1122" d="M39 1413h92l350 -659q12 -24 37 -73.5t37 -72.5h12q36 74 72 144l350 661h92l-477 -895v-518h-86v522z" />
<glyph unicode="Z" horiz-adv-x="1146" d="M104 0v74l834 1265h-825v74h921v-74l-833 -1265h843v-74h-940z" />
<glyph unicode="[" horiz-adv-x="647" d="M209 -262v1759q0 33 21.5 54.5t54.5 21.5h266v-64h-238q-24 0 -24 -26v-1731q0 -26 24 -26h238v-64h-266q-33 0 -54.5 20.5t-21.5 55.5z" />
<glyph unicode="\" horiz-adv-x="1024" d="M72 1413h75l805 -1538h-75z" />
<glyph unicode="]" horiz-adv-x="647" d="M98 -274h236q11 0 18.5 7t7.5 19v1731q0 12 -7.5 19t-18.5 7h-236v64h264q34 0 55 -21t21 -55v-1759q0 -34 -21 -55t-55 -21h-264v64z" />
<glyph unicode="^" horiz-adv-x="821" d="M61 780l320 412h59l320 -412l-37 -28l-303 366h-17l-303 -366z" />
<glyph unicode="_" horiz-adv-x="886" d="M0 0h887v-68h-887v68z" />
<glyph unicode="`" horiz-adv-x="587" d="M94 1399l53 59l318 -297l-37 -41z" />
<glyph unicode="a" horiz-adv-x="1107" d="M127 242v123q0 112 64.5 173.5t181.5 61.5h475v125q0 102 -49.5 157.5t-169.5 55.5q-168 0 -453 -31l-8 62q16 2 66.5 9t74 10.5t72 9t83 8t82 4.5t93.5 2q142 0 216.5 -68t74.5 -219v-725h-62l-14 184q-74 -74 -202.5 -136t-256.5 -62q-127 0 -197.5 67t-70.5 189z M211 248q0 -184 192 -187h11q98 0 218 51q128 54 216 138v285l-467 -7q-170 -3 -170 -170v-110z" />
<glyph unicode="b" horiz-adv-x="1148" d="M180 41v1393h82v-426q0 -133 -10 -199q219 203 405 203q191 0 274 -119t83 -399q0 -277 -93 -398t-315 -121q-199 0 -426 66zM260 745l2 -651q167 -45 323 -45h19q176 0 251 100.5t75 344.5q0 245 -64.5 344.5t-224.5 99.5q-87 0 -171 -45t-210 -148z" />
<glyph unicode="c" horiz-adv-x="985" d="M133 494q0 285 103.5 401.5t351.5 116.5q178 0 289 -39l-15 -55q-109 20 -260 20q-145 0 -226 -39.5t-119 -135.5t-38 -269t38 -269t119.5 -136t225.5 -40q167 0 285 23l12 -58q-147 -39 -309 -39q-250 0 -353.5 117t-103.5 402z" />
<glyph unicode="d" horiz-adv-x="1155" d="M137 494q0 281 84 399.5t279 118.5q173 0 395 -99q-6 51 -6 191v330h80v-1434h-62l-12 164q-214 -189 -403 -189q-191 0 -273 121t-82 398zM221 496q0 -247 66 -347t221 -100q91 0 175.5 41.5t205.5 140.5v619q-124 47 -208 67.5t-171 20.5q-157 0 -223 -98.5t-66 -343.5 z" />
<glyph unicode="e" horiz-adv-x="1085" d="M133 498q0 283 99 398.5t333 115.5q392 0 398 -291v-15q-1 -124 -49 -186q-52 -66 -169 -67h-526q7 -225 94 -314.5t279 -89.5q163 0 338 25l10 -58q-53 -18 -161.5 -29.5t-196.5 -11.5q-240 0 -344.5 120.5t-104.5 402.5zM219 520h514q146 0 146 180v17 q-1 116 -77 168.5t-233 52.5q-192 0 -269.5 -92.5t-80.5 -325.5z" />
<glyph unicode="f" horiz-adv-x="739" d="M68 918v59l178 10v199q0 141 62 209.5t204 68.5q162 0 252 -10l-4 -61h-221q-116 0 -163.5 -47t-47.5 -164v-195h352v-69h-352v-918h-82v918h-178z" />
<glyph unicode="g" horiz-adv-x="1122" d="M109 -141q0 106 30.5 167t116.5 105l31 16q-65 30 -89 89q-12 31 -12 64q0 27 8 54q20 61 70 103q-114 70 -114 245q0 159 94 234.5t309 75.5q119 0 205 -25h309l-6 -53l-191 -8q80 -74 80 -224q0 -158 -92.5 -231.5t-306.5 -73.5q-152 0 -242 37q-40 -48 -49 -97 q-3 -11 -3 -21q0 -37 26 -68q33 -41 110 -55l389 -68q128 -21 176 -81t48 -183q0 -160 -100 -224.5t-343 -64.5q-252 0 -353 63.5t-101 223.5zM188 -137q0 -124 82.5 -171.5t290.5 -47.5q202 0 283.5 48.5t81.5 170.5q0 95 -35 136.5t-141 61.5l-396 66h-4l-43 -27 q-69 -43 -94 -94.5t-25 -142.5zM227 702q0 -124 75 -180.5t249 -56.5q175 0 248 56.5t73 180.5q0 125 -73 183.5t-248 58.5t-249.5 -58.5t-74.5 -183.5z" />
<glyph unicode="h" horiz-adv-x="1171" d="M184 0v1434h82l2 -428q0 -127 -10 -193q265 199 469 199q132 0 199 -68.5t67 -202.5v-741h-82v725q0 112 -48.5 162.5t-153.5 50.5q-100 0 -198.5 -44t-244.5 -144v-750h-82z" />
<glyph unicode="i" horiz-adv-x="464" d="M182 1243v123q0 33 33 33h37q31 0 31 -33v-123q0 -33 -31 -33h-37q-33 0 -33 33zM193 0v987h79v-987h-79z" />
<glyph unicode="j" horiz-adv-x="466" d="M80 -391q57 73 85 146.5t28 168.5v1063h81v-1063q0 -201 -149 -350zM184 1243v123q0 33 31 33h37q31 0 31 -33v-123q0 -33 -31 -33h-37q-31 0 -31 33z" />
<glyph unicode="k" horiz-adv-x="987" d="M184 0v1434h82l2 -670q0 -92 -8 -168h160l375 391h100l-354 -377q-30 -30 -54 -47v-4q32 -27 54 -59l387 -500h-99l-407 530h-162q6 -88 6 -174v-356h-82z" />
<glyph unicode="l" horiz-adv-x="567" d="M186 205v1229h82l-2 -1217q0 -76 41 -116t117 -40h113l10 -59q-50 -16 -144 -16q-100 0 -158.5 57.5t-58.5 161.5z" />
<glyph unicode="m" horiz-adv-x="1800" d="M186 0v987h64l8 -174q228 199 430 199q105 0 169 -50.5t81 -146.5q226 197 428 197q125 0 190.5 -69t65.5 -202v-741h-80v725q-1 109 -51 161t-150 52q-90 0 -175 -42t-222 -144v-11v-741h-80v725q0 109 -49.5 161t-150.5 52q-89 0 -176 -43t-222 -145v-750h-80z" />
<glyph unicode="n" horiz-adv-x="1173" d="M186 0v987h66l8 -174q249 199 469 199q131 0 198.5 -69t67.5 -202v-741h-82v725q0 111 -49 162t-153 51q-100 0 -198.5 -44t-246.5 -144v-750h-80z" />
<glyph unicode="o" horiz-adv-x="1150" d="M135 494q0 285 98.5 401.5t341.5 116.5t342 -116.5t99 -401.5q0 -286 -99 -402.5t-342 -116.5t-341.5 116.5t-98.5 402.5zM221 494q0 -252 78 -349.5t276 -97.5t277.5 97.5t79.5 349.5q0 170 -35.5 266t-111.5 137t-210 41q-198 0 -276 -96t-78 -348z" />
<glyph unicode="p" horiz-adv-x="1159" d="M186 -426v1413h64l10 -174q205 199 410 199q189 0 270.5 -121.5t81.5 -398.5q0 -280 -84 -398.5t-279 -118.5q-192 0 -399 109q6 -54 6 -193v-317h-80zM266 139q129 -48 213 -69t170 -21q157 0 223 99t66 344t-65 345.5t-220 100.5q-90 0 -177.5 -43t-209.5 -143v-613z " />
<glyph unicode="q" horiz-adv-x="1150" d="M135 494q0 280 94 399t324 119q189 0 416 -66v-1372h-80l-2 393q0 132 10 195q-117 -95 -216 -141t-208 -46q-176 0 -257 125t-81 394zM219 487q0 -233 63.5 -335.5t211.5 -102.5q97 0 181 40t214 136v666q-173 47 -332 47q-126 0 -198 -41.5t-106 -139t-34 -270.5z" />
<glyph unicode="r" horiz-adv-x="794" d="M186 0v987h62l10 -176q250 201 451 201h41l-13 -78h-41q-94 0 -187.5 -41.5t-242.5 -138.5v-754h-80z" />
<glyph unicode="s" horiz-adv-x="1026" d="M121 748q0 73 15.5 122t41.5 77.5t76 43.5q48 15 100 19q40 3 100 3q17 0 35 -1q214 -3 392 -27l-9 -59q-236 12 -374 14q-35 1 -66 1q-16 -1 -30 -1q-42 0 -75 -5.5t-56.5 -17.5t-39 -34t-23 -54.5t-7.5 -80.5q0 -96 38.5 -138t120.5 -53l322 -47q113 -19 169 -79.5 t56 -176.5q0 -53 -9 -94t-24 -70.5t-42.5 -49.5t-56.5 -32.5t-73.5 -19.5t-87.5 -9t-104 -2q-197 0 -367 25l9 59q148 -12 292 -12h58q97 1 153 8t98 29t58 62t16 106q0 91 -44 131.5t-126 54.5l-321 47q-111 18 -163 78t-52 183z" />
<glyph unicode="t" horiz-adv-x="729" d="M66 918v59l178 10v305h82v-305h352v-69h-352v-701q0 -156 157 -156h172l11 -59q-91 -16 -189 -16q-116 0 -174.5 57.5t-58.5 165.5v709h-178z" />
<glyph unicode="u" horiz-adv-x="1153" d="M178 246v741h82v-725q-1 -110 50 -161.5t157 -51.5q94 0 186 43t232 141v754h82v-987h-64l-8 170q-242 -195 -451 -195q-132 0 -199 68.5t-67 202.5z" />
<glyph unicode="v" horiz-adv-x="1050" d="M55 987h88l295 -739l74 -182h27q4 9 31.5 78.5t43.5 105.5l293 737h88l-393 -964q-13 -23 -37 -23h-82q-24 0 -34 23z" />
<glyph unicode="w" horiz-adv-x="1669" d="M66 987h86l262 -788q1 -1 43 -138h26l43 140l234 757q3 12 13.5 20.5t23.5 8.5h75q13 0 23.5 -8.5t13.5 -20.5l236 -757q4 -17 41 -140h26q8 23 21.5 69.5t21.5 70.5l263 786h86l-328 -960q-10 -27 -37 -27h-80q-28 0 -39 29l-231 747l-43 150h-23q-8 -28 -23.5 -78.5 t-21.5 -71.5l-229 -747q-11 -29 -39 -29h-80q-27 0 -37 27z" />
<glyph unicode="x" horiz-adv-x="1046" d="M68 0l362 512l-338 475h94l310 -438h55l309 438h94l-338 -475l363 -512h-94l-338 481h-47l-338 -481h-94z" />
<glyph unicode="y" horiz-adv-x="1048" d="M55 987h88l324 -809q4 -11 20 -50t23 -60h29q32 83 43 112l325 807h86l-438 -1073q-28 -69 -56.5 -119t-69 -97.5t-96 -79t-126.5 -46.5l-12 51q113 41 177 116.5t109 190.5l29 70h-27q-25 0 -34 25z" />
<glyph unicode="z" horiz-adv-x="1028" d="M106 0v70l711 845h-704v72h802v-72l-710 -845h717v-70h-816z" />
<glyph unicode="{" horiz-adv-x="620" d="M109 633v78q6 2 16 5q68 21 86 37q27 26 29 107v19v432q0 140 65 202.5t217 59.5v-55q-114 0 -158.5 -50t-44.5 -159v-408q0 -122 -32 -164.5t-131 -64.5q72 -24 105.5 -46.5t49.5 -62t17 -112.5v-525q0 -108 44 -158.5t158 -50.5v-55q-152 -3 -217 59.5t-65 202.5v549 q0 27 -2.5 46.5t-11.5 35t-15 24t-26 19t-30 14.5t-41 16q-9 3 -13 5z" />
<glyph unicode="|" horiz-adv-x="485" d="M209 -346v1945h67v-1945h-67z" />
<glyph unicode="}" horiz-adv-x="622" d="M90 -283q115 0 160 50.5t45 158.5v525q0 72 16 112t49.5 62.5t104.5 46.5q-98 22 -130 65t-32 164v408q0 109 -44.5 159t-160.5 50v55q152 3 218.5 -59.5t66.5 -202.5v-432q0 -33 1.5 -54.5t8 -38t12.5 -26t22 -18t28.5 -13t40.5 -13.5q10 -3 16 -5v-78q-79 -30 -98 -45 q-38 -38 -39 -115v-549q0 -140 -66.5 -202.5t-218.5 -59.5v55z" />
<glyph unicode="~" horiz-adv-x="1087" d="M172 487q-6 99 37.5 151.5t118.5 47.5q57 -3 115.5 -23.5t100 -44t99.5 -44t113 -23.5q60 -4 86 25t26 100h50q4 -97 -38.5 -148t-117.5 -45q-66 3 -128.5 23.5t-103 44t-94 44t-102.5 23.5q-60 6 -86.5 -26t-26.5 -105h-49z" />
<glyph unicode="&#xa1;" horiz-adv-x="489" d="M197 831v123q0 35 36 35h27q35 0 35 -35v-123q0 -34 -35 -34h-27q-36 0 -36 34zM203 246l8 323h68l8 -323v-662h-84v662z" />
<glyph unicode="&#xa2;" horiz-adv-x="1034" d="M133 717q0 283 103 400.5t350 117.5l12 178h57l-14 -180q131 -4 236 -37l-15 -57q-84 18 -227 22l-64 -891h31q157 0 285 25l10 -57q-144 -39 -307 -39h-27l-14 -199h-55l16 203q-204 15 -290.5 133.5t-86.5 380.5zM215 717q0 -229 67.5 -328.5t231.5 -114.5l66 887 q-103 -2 -170.5 -24.5t-112 -74.5t-63.5 -135t-19 -210z" />
<glyph unicode="&#xa3;" horiz-adv-x="1150" d="M129 713v61h164l-14 301q-3 79 6.5 139t34 99t55 64t77.5 37.5t92 17t109 4.5q135 0 332 -21l-8 -63q-151 10 -361 10q-148 0 -205 -64.5t-51 -218.5l15 -305h493l-4 -61h-485l10 -205q7 -162 -23.5 -267t-125.5 -169q43 2 127 2h667v-74h-893v74q103 61 138.5 167 t27.5 267l-10 205h-168z" />
<glyph unicode="&#xa4;" horiz-adv-x="1228" d="M162 313l151 152q-94 112 -94 256q0 146 94 258l-149 149l41 43l149 -151q112 94 258 94q147 0 258 -96l152 153l41 -43l-152 -151q95 -109 95 -256q0 -144 -97 -256l156 -154l-43 -41l-154 154q-111 -96 -256 -96q-148 0 -256 94l-151 -152zM279 721q0 -138 97.5 -236.5 t235.5 -97.5q136 -1 234 97.5t98 236.5t-98 237t-234 99q-138 0 -235.5 -99t-97.5 -237z" />
<glyph unicode="&#xa5;" horiz-adv-x="1241" d="M98 1413h90l347 -606q16 -27 79 -145h13q55 104 78 143l344 608h92l-445 -778h361v-57h-393l-2 -3v-165h395v-58h-395v-352h-84v352h-385v58h385v165l-3 3h-382v57h350z" />
<glyph unicode="&#xa6;" horiz-adv-x="489" d="M211 -346v819h68v-819h-68zM211 780v819h68v-819h-68z" />
<glyph unicode="&#xa7;" horiz-adv-x="1112" d="M145 1204q0 60 17.5 102.5t47 68t78.5 40t102 19.5t128 4q242 -3 445 -25l-9 -61q-194 12 -424 14q-62 1 -99 -0.5t-80 -10t-66 -25.5t-38.5 -48.5t-15.5 -77.5q0 -82 39.5 -135.5t116.5 -97.5l377 -213q89 -50 133.5 -117t51.5 -151t-7 -193h-68q16 146 -14.5 238.5 t-120.5 144.5l-383 219q-116 66 -163.5 134.5t-47.5 170.5zM152 -281l8 64q265 -14 424 -16h70.5t63.5 3t55 9.5t45.5 19t34.5 30.5t22 45t8 63q0 82 -41 137t-115 96l-375 213q-129 72 -166 176.5t-14 278.5h66q-16 -146 13 -235t122 -142l385 -217q112 -64 161.5 -135 t49.5 -175q0 -38 -6 -68.5t-16 -54t-28 -41.5t-36 -30t-45.5 -20.5t-51 -13.5t-59.5 -7.5t-63.5 -3t-69.5 -0.5q-204 3 -442 24z" />
<glyph unicode="&#xa8;" horiz-adv-x="823" d="M188 1245v115q0 29 27 29h31q28 0 28 -29v-115q0 -28 -28 -28h-31q-27 0 -27 28zM551 1245v115q0 29 27 29h30q29 0 29 -29v-115q0 -28 -29 -28h-30q-27 0 -27 28z" />
<glyph unicode="&#xa9;" horiz-adv-x="1744" d="M141 707q0 208 98.5 376t265.5 261.5t367 93.5q202 0 370 -93.5t266 -261.5t98 -376q0 -156 -57.5 -293t-156 -232.5t-234 -151t-286.5 -55.5q-149 0 -283.5 55.5t-233 151t-156.5 232.5t-58 293zM197 707q0 -190 91.5 -346t246 -243t337.5 -87q185 0 339.5 87 t245.5 242.5t91 346.5q0 143 -53.5 269t-144.5 215t-215.5 140t-262.5 51q-137 0 -261 -51.5t-215 -140t-145 -214.5t-54 -269zM483 713q0 258 89.5 363.5t310.5 105.5q163 0 274 -27l-12 -47q-110 10 -262 10q-185 0 -257.5 -89t-72.5 -316t73 -317.5t257 -90.5 q190 0 286 14l9 -49q-118 -26 -295 -26q-221 0 -310.5 105.5t-89.5 363.5z" />
<glyph unicode="&#xaa;" horiz-adv-x="907" d="M154 715v84q0 74 46 115.5t130 41.5h336v80q0 138 -150 138q-128 0 -326 -19l-8 49q7 1 56.5 7.5t68.5 8.5t61.5 6t80 5.5t77.5 1.5q207 0 207 -197v-481h-51l-12 127q-54 -52 -144.5 -94.5t-183.5 -42.5q-89 0 -138.5 44t-49.5 126zM221 725q0 -118 137 -121 q73 -1 160.5 34.5t147.5 88.5v186l-322 -10q-123 -3 -123 -108v-70z" />
<glyph unicode="&#xab;" horiz-adv-x="942" d="M100 502v24l332 406l43 -31l-293 -387l295 -393l-43 -31zM436 502v24l332 406l43 -31l-293 -387l295 -393l-43 -31z" />
<glyph unicode="&#xac;" horiz-adv-x="1212" d="M170 573v68h864v-375h-69v307h-795z" />
<glyph unicode="&#xad;" horiz-adv-x="970" d="M168 481v68h635v-68h-635z" />
<glyph unicode="&#xae;" horiz-adv-x="1175" d="M131 981q0 189 133.5 322t323.5 133q189 0 321.5 -133t132.5 -322q0 -190 -132.5 -323.5t-321.5 -133.5q-190 0 -323.5 133t-133.5 324zM176 981q0 -173 120.5 -294.5t291.5 -121.5q170 0 290.5 121.5t120.5 294.5q0 172 -120.5 294t-290.5 122t-291 -122t-121 -294z M383 696v568q72 6 227 6q116 0 162.5 -35t46.5 -127q0 -71 -30 -105.5t-99 -41.5v-5q27 -5 48.5 -25.5t31.5 -53.5l74 -181h-53l-70 176q-27 70 -105 70q-147 0 -186 2v-248h-47zM430 979h180q90 2 125 28t35 97q0 74 -34.5 99.5t-125.5 25.5h-180v-250z" />
<glyph unicode="&#xaf;" horiz-adv-x="819" d="M139 1272v67h541v-67h-541z" />
<glyph unicode="&#xb0;" horiz-adv-x="774" d="M131 1184q0 104 75 179t181 75q104 0 180 -75t76 -179t-76 -180t-180 -76t-180 76t-76 180zM190 1184q0 -80 58 -139.5t139 -59.5t139 59.5t58 139.5q0 83 -57.5 139.5t-139.5 56.5t-139.5 -56.5t-57.5 -139.5z" />
<glyph unicode="&#xb1;" horiz-adv-x="1220" d="M178 180v68h864v-68h-864zM178 684v66h397v294h70v-294h397v-66h-399v-295h-65v295h-400z" />
<glyph unicode="&#xb2;" horiz-adv-x="772" d="M117 729v29q0 16 12 28l287 306q91 96 123.5 150t31.5 122q-3 73 -45.5 101t-126.5 28q-102 0 -260 -31l-8 54q131 36 264 36q126 0 190 -41t64 -141q0 -77 -41.5 -145t-136.5 -170l-254 -269q49 2 133 2l338 -2v-57h-571z" />
<glyph unicode="&#xb3;" horiz-adv-x="802" d="M117 745l14 52q118 -23 246 -23q108 0 154.5 41t46.5 141q0 38 -7 65t-25.5 52t-56.5 37.5t-96 13.5l-172 2v54l172 4q55 1 91.5 17t51.5 44.5t19.5 53.5t3.5 59q-3 81 -44 108t-153 27q-117 0 -223 -27l-10 54q125 32 238 32q142 0 204 -41.5t62 -144.5 q0 -170 -127 -205v-4q77 -17 111 -67t36 -138q2 -121 -62 -180t-204 -59q-135 0 -270 32z" />
<glyph unicode="&#xb4;" horiz-adv-x="587" d="M117 1163l317 299l53 -61l-333 -277z" />
<glyph unicode="&#xb5;" horiz-adv-x="1173" d="M186 -426v1413h78v-721q0 -112 52.5 -163.5t160.5 -51.5q106 0 203 53.5t157.5 146.5t63.5 200v536h82v-792q0 -29 0.5 -44t4 -37.5t10 -34t20 -20t33.5 -8.5h75l9 -49q-53 -16 -111 -16q-66 0 -91.5 47t-25.5 135v100q-60 -139 -182.5 -216t-253.5 -77q-135 0 -207 66 v-240l-14 -227h-64z" />
<glyph unicode="&#xb6;" horiz-adv-x="1220" d="M102 922q0 282 141.5 399t475.5 117q171 0 285 -35v-1403h-72v1358q-123 16 -283 16v-1804h-71v842q-255 23 -365.5 141.5t-110.5 368.5z" />
<glyph unicode="&#xb7;" horiz-adv-x="438" d="M168 465v123q0 35 37 35h28q19 0 27 -8t8 -27v-123q0 -19 -8 -27t-27 -8h-28q-37 0 -37 35z" />
<glyph unicode="&#xb8;" horiz-adv-x="456" d="M82 -455l12 47q99 -4 160 47.5t61 127.5q0 51 -26 72t-94 22l10 43q90 6 133.5 -25.5t42.5 -107.5q-2 -113 -84.5 -178t-214.5 -48z" />
<glyph unicode="&#xb9;" horiz-adv-x="591" d="M66 1454l231 86h68v-811h-68v688q0 40 4 60l-225 -70z" />
<glyph unicode="&#xba;" horiz-adv-x="917" d="M145 885q0 192 70 270t242 78q174 0 244.5 -78t70.5 -270q0 -191 -70.5 -268.5t-244.5 -77.5q-172 0 -242 78t-70 268zM215 885q0 -163 53.5 -226t188.5 -63q136 0 189.5 63t53.5 226q0 165 -53.5 228t-189.5 63q-135 0 -188.5 -63.5t-53.5 -227.5z" />
<glyph unicode="&#xbb;" horiz-adv-x="942" d="M129 121l295 393l-293 387l43 31l332 -406v-24l-334 -412zM465 121l295 393l-293 387l43 31l332 -406v-24l-334 -412z" />
<glyph unicode="&#xbc;" horiz-adv-x="1732" d="M102 1323l254 90h66v-848h-66v719q0 43 4 66l-247 -72zM264 0l965 1413h69l-966 -1413h-68zM953.5 258.5q-22.5 33.5 0.5 75.5l291 514h70l-291 -510q-12 -22 0.5 -39.5t38.5 -17.5h410v264l14 143h51v-407h92v-48l-92 -6v-227h-65v225h-451q-46 0 -68.5 33.5z" />
<glyph unicode="&#xbd;" horiz-adv-x="1792" d="M102 1323l254 90h66v-848h-66v719q0 43 4 66l-247 -72zM260 0l967 1413h67l-964 -1413h-70zM1067 0v39q0 18 10 31l309 311q94 97 136 167.5t41 137.5q-1 31 -12 53t-28 34t-45.5 19t-56 9t-69.5 2q-120 0 -269 -23l-8 49q149 33 277 33q150 0 217 -35.5t67 -142.5 q0 -77 -43 -150t-141 -172l-299 -303q53 2 158 2l366 -2l-2 -59h-608z" />
<glyph unicode="&#xbe;" horiz-adv-x="1916" d="M133 567l8 51q147 -14 269 -14q125 0 179 45.5t54 153.5q0 82 -45.5 130t-169.5 48l-176 2v47l176 4q52 1 89.5 13.5t58 30t32 43t14.5 46.5t3 47q-1 88 -51 120t-181 32q-111 0 -237 -12l-9 49q126 20 252 20q163 0 227 -42t64 -152q0 -190 -153 -215v-4 q94 -13 134 -67.5t42 -145.5q3 -130 -63.5 -190t-227.5 -60q-105 0 -289 20zM475 0l967 1413h67l-964 -1413h-70zM1137 258.5q-23 33.5 0 75.5l293 514h67l-291 -510q-11 -22 1.5 -39.5t39.5 -17.5h391v264l15 143h51v-407h111v-48l-111 -6v-227h-66v225h-432 q-46 0 -69 33.5z" />
<glyph unicode="&#xbf;" horiz-adv-x="1030" d="M106 -133q0 63 21 119t55 99t74.5 84t82 84t75.5 89.5t55.5 109.5t22.5 136h75q0 -79 -20 -147.5t-53 -117.5t-72.5 -93t-79.5 -83t-73.5 -78.5t-54.5 -89t-21 -104.5q-2 -129 78.5 -191.5t248.5 -62.5q51 0 95 1t69.5 2t67 5t52 5t61.5 7t61 7l10 -60q-25 -4 -71 -11.5 t-71.5 -11t-69.5 -8t-95 -6.5t-117 -2q-406 0 -406 318zM483 850v123q0 19 8 27t27 8h27q19 0 27 -8t8 -27v-123q0 -19 -8 -27t-27 -8h-27q-19 0 -27 8t-8 27z" />
<glyph unicode="&#xc0;" horiz-adv-x="1245" d="M35 0l493 1386q10 27 37 27h115q27 0 37 -27l493 -1386h-88l-174 498h-651l-174 -498h-88zM324 571h598l-230 658l-41 114h-57l-41 -114zM340 1780l53 59l318 -297l-37 -41z" />
<glyph unicode="&#xc1;" horiz-adv-x="1245" d="M35 0l493 1386q10 27 37 27h115q27 0 37 -27l493 -1386h-88l-174 498h-651l-174 -498h-88zM324 571h598l-230 658l-41 114h-57l-41 -114zM512 1544l317 299l54 -61l-334 -277z" />
<glyph unicode="&#xc2;" horiz-adv-x="1245" d="M35 0l493 1386q10 27 37 27h115q27 0 37 -27l493 -1386h-88l-174 498h-651l-174 -498h-88zM313 1563l277 243h59l277 -243l-31 -39l-266 207h-17l-264 -207zM324 571h598l-230 658l-41 114h-57l-41 -114z" />
<glyph unicode="&#xc3;" horiz-adv-x="1245" d="M35 0l493 1386q10 27 37 27h115q27 0 37 -27l493 -1386h-88l-174 498h-651l-174 -498h-88zM317 1583q-4 99 38.5 150t117.5 45q41 -3 80.5 -23.5t66.5 -43t65.5 -43t78.5 -23.5q62 -4 88.5 24t26.5 98h47q6 -94 -37.5 -144t-118.5 -44q-46 4 -89 24.5t-70.5 43 t-63.5 42.5t-70 23q-60 6 -86 -25.5t-26 -103.5h-48zM324 571h598l-230 658l-41 114h-57l-41 -114z" />
<glyph unicode="&#xc4;" horiz-adv-x="1245" d="M35 0l493 1386q10 27 37 27h115q27 0 37 -27l493 -1386h-88l-174 498h-651l-174 -498h-88zM324 571h598l-230 658l-41 114h-57l-41 -114zM397 1614v115q0 28 27 28h31q28 0 28 -28v-115q0 -29 -28 -29h-31q-27 0 -27 29zM760 1614v115q0 28 26 28h31q29 0 29 -28v-115 q0 -29 -29 -29h-31q-26 0 -26 29z" />
<glyph unicode="&#xc5;" horiz-adv-x="1245" d="M35 0l493 1386q10 27 37 27h115q27 0 37 -27l493 -1386h-88l-174 498h-651l-174 -498h-88zM324 571h598l-230 658l-41 114h-57l-41 -114zM420 1671q0 82 60 140.5t143 58.5t142.5 -58.5t59.5 -140.5q0 -81 -59 -141t-143 -60q-85 0 -144 58t-59 143zM477 1671 q0 -65 42 -107t104 -42t103.5 42t41.5 107q0 63 -41.5 105.5t-103.5 42.5q-63 0 -104.5 -42.5t-41.5 -105.5z" />
<glyph unicode="&#xc6;" horiz-adv-x="1857" d="M16 0l787 1227q71 112 154 149t217 37q358 0 569 -8l-2 -66h-543q-74 0 -118 -43t-44 -116v-389l619 -3v-67l-619 -2v-486q0 -73 44 -117t118 -44h543l2 -64q-190 -8 -572 -8q-95 0 -156 61.5t-61 155.5v315h-505l-338 -532h-95zM496 604h458v582q0 47 24 93.5t56 61.5 h-14q-77 -34 -146 -141z" />
<glyph unicode="&#xc7;" horiz-adv-x="1153" d="M147 707q0 205 27.5 342t91.5 225t163.5 126t248.5 38q215 0 364 -37l-14 -62q-168 23 -350 23q-167 0 -262 -63t-137.5 -204t-42.5 -388q0 -149 14.5 -256t46 -185t84 -124.5t124.5 -68.5t173 -22q216 0 379 27l14 -64q-160 -39 -393 -39q-198 0 -312.5 71.5 t-166.5 229.5t-52 431zM485 -479l13 47q99 -4 160 47t61 127q0 51 -26 72t-95 22l10 43q90 6 133.5 -25.5t42.5 -107.5q-2 -113 -84.5 -177.5t-214.5 -47.5z" />
<glyph unicode="&#xc8;" horiz-adv-x="1132" d="M190 217v979q0 95 63 156t163 61q405 0 602 -8l-4 -64h-584q-71 0 -113.5 -43.5t-42.5 -115.5v-391l656 -3v-67l-656 -2v-488q0 -72 42.5 -115.5t113.5 -43.5h584l4 -64q-197 -8 -602 -8q-100 0 -163 61t-63 156zM352 1827l54 59l317 -297l-37 -41z" />
<glyph unicode="&#xc9;" horiz-adv-x="1132" d="M190 217v979q0 95 63 156t163 61q405 0 602 -8l-4 -64h-584q-71 0 -113.5 -43.5t-42.5 -115.5v-391l656 -3v-67l-656 -2v-488q0 -72 42.5 -115.5t113.5 -43.5h584l4 -64q-197 -8 -602 -8q-100 0 -163 61t-63 156zM524 1591l318 299l53 -61l-334 -277z" />
<glyph unicode="&#xca;" horiz-adv-x="1132" d="M190 217v979q0 95 63 156t163 61q405 0 602 -8l-4 -64h-584q-71 0 -113.5 -43.5t-42.5 -115.5v-391l656 -3v-67l-656 -2v-488q0 -72 42.5 -115.5t113.5 -43.5h584l4 -64q-197 -8 -602 -8q-100 0 -163 61t-63 156zM326 1610l276 243h60l276 -243l-31 -39l-266 207h-16 l-265 -207z" />
<glyph unicode="&#xcb;" horiz-adv-x="1132" d="M190 217v979q0 95 63 156t163 61q405 0 602 -8l-4 -64h-584q-71 0 -113.5 -43.5t-42.5 -115.5v-391l656 -3v-67l-656 -2v-488q0 -72 42.5 -115.5t113.5 -43.5h584l4 -64q-197 -8 -602 -8q-100 0 -163 61t-63 156zM410 1661v115q0 28 26 28h31q29 0 29 -28v-115 q0 -29 -29 -29h-31q-26 0 -26 29zM772 1661v115q0 28 27 28h30q29 0 29 -28v-115q0 -29 -29 -29h-30q-27 0 -27 29z" />
<glyph unicode="&#xcc;" horiz-adv-x="489" d="M-39 1782l53 59l318 -297l-37 -41zM203 0v1413h84v-1413h-84z" />
<glyph unicode="&#xcd;" horiz-adv-x="489" d="M133 1546l318 299l53 -61l-334 -277zM203 0v1413h84v-1413h-84z" />
<glyph unicode="&#xce;" horiz-adv-x="489" d="M-66 1565l277 243h59l277 -243l-31 -39l-266 207h-17l-264 -207zM203 0v1413h84v-1413h-84z" />
<glyph unicode="&#xcf;" horiz-adv-x="489" d="M18 1616v115q0 28 27 28h31q28 0 28 -28v-115q0 -29 -28 -29h-31q-27 0 -27 29zM203 0v1413h84v-1413h-84zM381 1616v115q0 28 27 28h30q29 0 29 -28v-115q0 -29 -29 -29h-30q-27 0 -27 29z" />
<glyph unicode="&#xd0;" d="M51 729v57h158v627q260 19 477 19q147 0 245.5 -37t161.5 -124.5t90 -223.5t27 -340t-27 -340t-90 -223.5t-161.5 -124.5t-245.5 -37q-227 0 -477 18v729h-158zM293 63q345 -6 393 -6q164 0 258 62.5t136 202.5t42 385t-42 384.5t-136 202t-258 62.5q-42 0 -393 -6v-564 h358v-57h-358v-666z" />
<glyph unicode="&#xd1;" horiz-adv-x="1417" d="M203 0v1372q0 41 41 41h102q34 0 49 -31l594 -1128q18 -33 52.5 -99.5t39.5 -76.5h52q0 33 -1.5 97t-1.5 95v1143h84v-1372q0 -41 -38 -41h-111q-31 0 -47 31l-610 1155q-52 98 -76 151h-47q2 -51 2 -153v-1184h-84zM432 1585q-4 99 38.5 150t117.5 45q41 -3 80.5 -23.5 t66.5 -43t65.5 -43t78.5 -23.5q62 -4 88 24t26 98h47q6 -94 -37 -144t-118 -44q-46 4 -89 24.5t-70.5 43t-63.5 42.5t-70 23q-60 6 -86.5 -25.5t-26.5 -103.5h-47z" />
<glyph unicode="&#xd2;" d="M147 707q0 207 27.5 344t92 224.5t164 125t249.5 37.5t249 -37.5t163 -125t91 -224.5t27 -344t-27 -344t-91 -225t-163 -125.5t-249 -37.5q-199 0 -314 70.5t-167 228.5t-52 433zM236 707q0 -186 22.5 -308.5t76 -201.5t136.5 -112.5t209 -33.5q101 0 173 22t124.5 68.5 t84 124.5t46 185t14.5 256q0 247 -42.5 388t-137.5 204t-262 63t-262.5 -63t-138.5 -204t-43 -388zM399 1782l54 59l317 -297l-37 -41z" />
<glyph unicode="&#xd3;" d="M147 707q0 207 27.5 344t92 224.5t164 125t249.5 37.5t249 -37.5t163 -125t91 -224.5t27 -344t-27 -344t-91 -225t-163 -125.5t-249 -37.5q-199 0 -314 70.5t-167 228.5t-52 433zM236 707q0 -186 22.5 -308.5t76 -201.5t136.5 -112.5t209 -33.5q101 0 173 22t124.5 68.5 t84 124.5t46 185t14.5 256q0 247 -42.5 388t-137.5 204t-262 63t-262.5 -63t-138.5 -204t-43 -388zM571 1546l318 299l53 -61l-334 -277z" />
<glyph unicode="&#xd4;" d="M147 707q0 207 27.5 344t92 224.5t164 125t249.5 37.5t249 -37.5t163 -125t91 -224.5t27 -344t-27 -344t-91 -225t-163 -125.5t-249 -37.5q-199 0 -314 70.5t-167 228.5t-52 433zM236 707q0 -186 22.5 -308.5t76 -201.5t136.5 -112.5t209 -33.5q101 0 173 22t124.5 68.5 t84 124.5t46 185t14.5 256q0 247 -42.5 388t-137.5 204t-262 63t-262.5 -63t-138.5 -204t-43 -388zM373 1565l276 243h60l276 -243l-31 -39l-266 207h-16l-264 -207z" />
<glyph unicode="&#xd5;" d="M147 707q0 207 27.5 344t92 224.5t164 125t249.5 37.5t249 -37.5t163 -125t91 -224.5t27 -344t-27 -344t-91 -225t-163 -125.5t-249 -37.5q-199 0 -314 70.5t-167 228.5t-52 433zM236 707q0 -186 22.5 -308.5t76 -201.5t136.5 -112.5t209 -33.5q101 0 173 22t124.5 68.5 t84 124.5t46 185t14.5 256q0 247 -42.5 388t-137.5 204t-262 63t-262.5 -63t-138.5 -204t-43 -388zM377 1585q-4 99 38 150t117 45q41 -3 80.5 -23.5t66.5 -43t65.5 -43t78.5 -23.5q62 -4 88.5 24t26.5 98h47q6 -94 -37.5 -144t-118.5 -44q-46 4 -89 24.5t-70.5 43t-63 42.5 t-69.5 23q-60 6 -86.5 -25.5t-26.5 -103.5h-47z" />
<glyph unicode="&#xd6;" d="M147 707q0 207 27.5 344t92 224.5t164 125t249.5 37.5t249 -37.5t163 -125t91 -224.5t27 -344t-27 -344t-91 -225t-163 -125.5t-249 -37.5q-199 0 -314 70.5t-167 228.5t-52 433zM236 707q0 -186 22.5 -308.5t76 -201.5t136.5 -112.5t209 -33.5q101 0 173 22t124.5 68.5 t84 124.5t46 185t14.5 256q0 247 -42.5 388t-137.5 204t-262 63t-262.5 -63t-138.5 -204t-43 -388zM457 1616v115q0 28 26 28h31q29 0 29 -28v-115q0 -29 -29 -29h-31q-26 0 -26 29zM819 1616v115q0 28 27 28h31q28 0 28 -28v-115q0 -29 -28 -29h-31q-27 0 -27 29z" />
<glyph unicode="&#xd7;" horiz-adv-x="997" d="M123 293l332 297l-332 297l43 53l340 -305l338 305l43 -51l-332 -299l332 -297l-43 -53l-340 305l-338 -305z" />
<glyph unicode="&#xd8;" d="M147 707q0 207 27.5 344t92 224.5t164 125t249.5 37.5q167 0 270 -47l62 131l57 -25l-63 -137q109 -72 156.5 -228.5t47.5 -424.5q0 -207 -27 -344t-91 -225t-163 -125.5t-249 -37.5q-186 0 -297 60l-68 -144l-55 27l72 152q-97 77 -141 230.5t-44 406.5zM236 707 q0 -215 32 -348.5t103 -206.5l544 1163q-87 47 -235 47q-167 0 -262.5 -63t-138.5 -204t-43 -388zM420 113q95 -62 260 -62q101 0 173 22t124.5 68.5t84 124.5t46 185t14.5 256q0 232 -36 368.5t-119 204.5z" />
<glyph unicode="&#xd9;" horiz-adv-x="1366" d="M193 526v887h83v-887q0 -262 91.5 -368.5t316.5 -106.5q222 0 314 106.5t92 368.5v887h84v-887q0 -299 -111 -425t-377 -126q-270 0 -381.5 126t-111.5 425zM403 1782l54 59l317 -297l-37 -41z" />
<glyph unicode="&#xda;" horiz-adv-x="1366" d="M193 526v887h83v-887q0 -262 91.5 -368.5t316.5 -106.5q222 0 314 106.5t92 368.5v887h84v-887q0 -299 -111 -425t-377 -126q-270 0 -381.5 126t-111.5 425zM575 1546l318 299l53 -61l-334 -277z" />
<glyph unicode="&#xdb;" horiz-adv-x="1366" d="M193 526v887h83v-887q0 -262 91.5 -368.5t316.5 -106.5q222 0 314 106.5t92 368.5v887h84v-887q0 -299 -111 -425t-377 -126q-270 0 -381.5 126t-111.5 425zM377 1565l276 243h60l276 -243l-31 -39l-266 207h-16l-264 -207z" />
<glyph unicode="&#xdc;" horiz-adv-x="1366" d="M193 526v887h83v-887q0 -262 91.5 -368.5t316.5 -106.5q222 0 314 106.5t92 368.5v887h84v-887q0 -299 -111 -425t-377 -126q-270 0 -381.5 126t-111.5 425zM461 1616v115q0 28 26 28h31q29 0 29 -28v-115q0 -29 -29 -29h-31q-26 0 -26 29zM823 1616v115q0 28 27 28h31 q28 0 28 -28v-115q0 -29 -28 -29h-31q-27 0 -27 29z" />
<glyph unicode="&#xdd;" horiz-adv-x="1122" d="M39 1413h92l350 -659q12 -24 37 -73.5t37 -72.5h12q36 74 72 144l350 661h92l-477 -895v-518h-86v522zM453 1542l317 299l53 -61l-334 -277z" />
<glyph unicode="&#xde;" horiz-adv-x="1198" d="M203 0v1413h84v-278q141 8 377 8q120 0 196.5 -19.5t128 -68.5t73 -129.5t21.5 -206.5t-21.5 -207t-72.5 -130t-126 -68t-193 -19q-240 0 -383 14v-309h-84zM287 371h377q96 2 156.5 17.5t101.5 55t58 105.5t17 170q0 140 -33 215.5t-102.5 105t-197.5 29.5 q-217 0 -377 -4v-694z" />
<glyph unicode="&#xdf;" horiz-adv-x="1345" d="M70 918v61l178 8v107q0 72 11.5 127.5t29.5 94t50 66t64.5 43t81 24t91.5 11t104 2.5q222 0 328 -52t106 -185q0 -113 -44.5 -168.5t-156.5 -100.5q-24 -9 -66 -23.5t-58 -21t-43.5 -19.5t-37.5 -23.5t-23 -28t-17 -39.5t-4 -51q0 -67 33.5 -101t101.5 -57l256 -86 q100 -33 147 -89t47 -165q0 -52 -8.5 -92.5t-22.5 -69.5t-37.5 -49.5t-49.5 -33t-63 -19t-72 -9t-83 -2.5q-175 0 -335 23l6 61q136 -14 321 -14q49 1 81 4t64.5 11t52 22t35.5 36.5t22.5 55.5t6.5 78q0 47 -10 80t-33 54t-45.5 32t-60.5 24l-256 86q-88 30 -133 79.5 t-45 138.5q0 32 6.5 58.5t14.5 46t27 37.5t33 29t45 25t49 21.5t59 22.5t63 24q92 34 124.5 77t32.5 134q0 93 -87 131.5t-269 38.5q-104 0 -168 -12.5t-107 -47t-60 -92t-17 -151.5v-1090h-82v918h-178z" />
<glyph unicode="&#xe0;" horiz-adv-x="1107" d="M127 242v123q0 112 64.5 173.5t181.5 61.5h475v125q0 102 -49.5 157.5t-169.5 55.5q-168 0 -453 -31l-8 62q16 2 66.5 9t74 10.5t72 9t83 8t82 4.5t93.5 2q142 0 216.5 -68t74.5 -219v-725h-62l-14 184q-74 -74 -202.5 -136t-256.5 -62q-127 0 -197.5 67t-70.5 189z M211 248q0 -184 192 -187q102 -3 229.5 51t215.5 138v285l-467 -7q-170 -3 -170 -170v-110zM268 1411l54 59l317 -296l-37 -41z" />
<glyph unicode="&#xe1;" horiz-adv-x="1107" d="M127 242v123q0 112 64.5 173.5t181.5 61.5h475v125q0 102 -49.5 157.5t-169.5 55.5q-168 0 -453 -31l-8 62q16 2 66.5 9t74 10.5t72 9t83 8t82 4.5t93.5 2q142 0 216.5 -68t74.5 -219v-725h-62l-14 184q-74 -74 -202.5 -136t-256.5 -62q-127 0 -197.5 67t-70.5 189z M211 248q0 -184 192 -187q102 -3 229.5 51t215.5 138v285l-467 -7q-170 -3 -170 -170v-110zM440 1176l318 299l53 -62l-334 -276z" />
<glyph unicode="&#xe2;" horiz-adv-x="1107" d="M127 242v123q0 112 64.5 173.5t181.5 61.5h475v125q0 102 -49.5 157.5t-169.5 55.5q-168 0 -453 -31l-8 62q16 2 66.5 9t74 10.5t72 9t83 8t82 4.5t93.5 2q142 0 216.5 -68t74.5 -219v-725h-62l-14 184q-74 -74 -202.5 -136t-256.5 -62q-127 0 -197.5 67t-70.5 189z M211 248q0 -184 192 -187q102 -3 229.5 51t215.5 138v285l-467 -7q-170 -3 -170 -170v-110zM242 1194l276 244h60l276 -244l-31 -39l-266 207h-16l-265 -207z" />
<glyph unicode="&#xe3;" horiz-adv-x="1107" d="M127 242v123q0 112 64.5 173.5t181.5 61.5h475v125q0 102 -49.5 157.5t-169.5 55.5q-168 0 -453 -31l-8 62q16 2 66.5 9t74 10.5t72 9t83 8t82 4.5t93.5 2q142 0 216.5 -68t74.5 -219v-725h-62l-14 184q-74 -74 -202.5 -136t-256.5 -62q-127 0 -197.5 67t-70.5 189z M211 248q0 -184 192 -187q102 -3 229.5 51t215.5 138v285l-467 -7q-170 -3 -170 -170v-110zM246 1214q-4 99 38 150t117 45q41 -3 80.5 -23.5t66.5 -43t65.5 -43t78.5 -23.5q62 -4 88.5 24.5t26.5 98.5h47q6 -94 -37.5 -144.5t-118.5 -44.5q-46 4 -89 24.5t-70.5 43 t-63 42.5t-69.5 23q-60 6 -86.5 -25.5t-26.5 -103.5h-47z" />
<glyph unicode="&#xe4;" horiz-adv-x="1107" d="M127 242v123q0 112 64.5 173.5t181.5 61.5h475v125q0 102 -49.5 157.5t-169.5 55.5q-168 0 -453 -31l-8 62q16 2 66.5 9t74 10.5t72 9t83 8t82 4.5t93.5 2q142 0 216.5 -68t74.5 -219v-725h-62l-14 184q-74 -74 -202.5 -136t-256.5 -62q-127 0 -197.5 67t-70.5 189z M211 248q0 -184 192 -187q102 -3 229.5 51t215.5 138v285l-467 -7q-170 -3 -170 -170v-110zM326 1245v115q0 29 26 29h31q29 0 29 -29v-115q0 -28 -29 -28h-31q-26 0 -26 28zM688 1245v115q0 29 27 29h30q29 0 29 -29v-115q0 -28 -29 -28h-30q-27 0 -27 28z" />
<glyph unicode="&#xe5;" horiz-adv-x="1107" d="M127 242v123q0 112 64.5 173.5t181.5 61.5h475v125q0 102 -49.5 157.5t-169.5 55.5q-168 0 -453 -31l-8 62q16 2 66.5 9t74 10.5t72 9t83 8t82 4.5t93.5 2q142 0 216.5 -68t74.5 -219v-725h-62l-14 184q-74 -74 -202.5 -136t-256.5 -62q-127 0 -197.5 67t-70.5 189z M211 248q0 -184 192 -187q102 -3 229.5 51t215.5 138v285l-467 -7q-170 -3 -170 -170v-110zM348 1303q0 82 60 140t143 58t143 -58t60 -140q0 -81 -59.5 -141t-143.5 -60q-85 0 -144 58t-59 143zM406 1303q0 -65 41.5 -107.5t103.5 -42.5t103.5 42.5t41.5 107.5 q0 63 -41.5 105t-103.5 42q-63 0 -104 -42t-41 -105z" />
<glyph unicode="&#xe6;" horiz-adv-x="1798" d="M127 242v123q0 112 64.5 173.5t181.5 61.5h475v125q0 102 -49.5 157.5t-169.5 55.5q-168 0 -453 -31l-8 62q16 2 66.5 9t74 10.5t72 9t83 8t82 4.5t93.5 2q222 0 274 -164q49 86 138.5 125t228.5 39q391 0 397 -291q3 -144 -62.5 -206t-221.5 -62h-459q7 -225 94 -314.5 t279 -89.5q163 0 338 25l10 -58q-53 -18 -162 -29.5t-197 -11.5q-164 0 -262.5 54.5t-142.5 173.5q-81 -81 -219.5 -149t-276.5 -68q-127 0 -197.5 67t-70.5 189zM211 248q0 -184 192 -187q108 -3 241 53.5t228 143.5q-21 88 -24 209v68l-467 -7q-170 -3 -170 -170v-110z M934 520h446q120 0 168 46t45 151q-1 112 -77.5 166.5t-233.5 54.5q-191 0 -268 -92.5t-80 -325.5z" />
<glyph unicode="&#xe7;" horiz-adv-x="985" d="M133 494q0 285 103.5 401.5t351.5 116.5q178 0 289 -39l-15 -55q-109 20 -260 20q-145 0 -226 -39.5t-119 -135.5t-38 -269t38 -269t119.5 -136t225.5 -40q167 0 285 23l12 -58q-147 -39 -309 -39q-250 0 -353.5 117t-103.5 402zM393 -479l13 47q99 -4 160 47t61 127 q0 51 -26 72t-95 22l10 43q90 6 133.5 -25.5t42.5 -107.5q-2 -113 -84.5 -177.5t-214.5 -47.5z" />
<glyph unicode="&#xe8;" horiz-adv-x="1085" d="M133 498q0 283 99 398.5t333 115.5q392 0 398 -291q3 -135 -48.5 -201.5t-169.5 -66.5h-526q7 -225 94 -314.5t279 -89.5q163 0 338 25l10 -58q-53 -18 -161.5 -29.5t-196.5 -11.5q-240 0 -344.5 120.5t-104.5 402.5zM219 520h514q153 0 146 197q-1 116 -77 168.5 t-233 52.5q-192 0 -269.5 -92.5t-80.5 -325.5zM287 1411l53 59l317 -296l-36 -41z" />
<glyph unicode="&#xe9;" horiz-adv-x="1085" d="M133 498q0 283 99 398.5t333 115.5q392 0 398 -291q3 -135 -48.5 -201.5t-169.5 -66.5h-526q7 -225 94 -314.5t279 -89.5q163 0 338 25l10 -58q-53 -18 -161.5 -29.5t-196.5 -11.5q-240 0 -344.5 120.5t-104.5 402.5zM219 520h514q153 0 146 197q-1 116 -77 168.5 t-233 52.5q-192 0 -269.5 -92.5t-80.5 -325.5zM459 1176l317 299l53 -62l-333 -276z" />
<glyph unicode="&#xea;" horiz-adv-x="1085" d="M133 498q0 283 99 398.5t333 115.5q392 0 398 -291q3 -135 -48.5 -201.5t-169.5 -66.5h-526q7 -225 94 -314.5t279 -89.5q163 0 338 25l10 -58q-53 -18 -161.5 -29.5t-196.5 -11.5q-240 0 -344.5 120.5t-104.5 402.5zM219 520h514q153 0 146 197q-1 116 -77 168.5 t-233 52.5q-192 0 -269.5 -92.5t-80.5 -325.5zM260 1194l277 244h59l276 -244l-30 -39l-267 207h-16l-264 -207z" />
<glyph unicode="&#xeb;" horiz-adv-x="1085" d="M133 498q0 283 99 398.5t333 115.5q392 0 398 -291q3 -135 -48.5 -201.5t-169.5 -66.5h-526q7 -225 94 -314.5t279 -89.5q163 0 338 25l10 -58q-53 -18 -161.5 -29.5t-196.5 -11.5q-240 0 -344.5 120.5t-104.5 402.5zM219 520h514q153 0 146 197q-1 116 -77 168.5 t-233 52.5q-192 0 -269.5 -92.5t-80.5 -325.5zM344 1245v115q0 29 27 29h30q29 0 29 -29v-115q0 -28 -29 -28h-30q-27 0 -27 28zM707 1245v115q0 29 26 29h31q29 0 29 -29v-115q0 -28 -29 -28h-31q-26 0 -26 28z" />
<glyph unicode="&#xec;" horiz-adv-x="466" d="M-51 1411l53 59l317 -296l-36 -41zM193 0v987h81v-987h-81z" />
<glyph unicode="&#xed;" horiz-adv-x="466" d="M121 1176l317 299l54 -62l-334 -276zM193 0v987h81v-987h-81z" />
<glyph unicode="&#xee;" horiz-adv-x="466" d="M-78 1194l277 244h59l277 -244l-31 -39l-266 207h-17l-264 -207zM193 0v987h81v-987h-81z" />
<glyph unicode="&#xef;" horiz-adv-x="466" d="M6 1245v115q0 29 27 29h30q29 0 29 -29v-115q0 -28 -29 -28h-30q-27 0 -27 28zM193 0v987h81v-987h-81zM369 1245v115q0 29 26 29h31q29 0 29 -29v-115q0 -28 -29 -28h-31q-26 0 -26 28z" />
<glyph unicode="&#xf0;" horiz-adv-x="1128" d="M135 451q0 226 96.5 345t315.5 119q167 0 325 -102q-45 285 -208 424l-183 -129l-32 45l167 119q-145 98 -376 98l14 60q251 8 424 -113l170 121l33 -47l-156 -111q246 -215 246 -707q0 -76 -3.5 -134.5t-14 -123t-28.5 -112t-49.5 -93t-74.5 -73.5t-105.5 -45 t-140.5 -17q-216 0 -318 114t-102 362zM221 451q0 -217 81 -310.5t255 -93.5q72 0 125.5 16.5t90 51.5t59.5 78.5t35.5 108.5t17 130t4.5 154q0 98 -8 166q-89 52 -166.5 72t-169.5 20q-91 0 -155.5 -28.5t-100.5 -83t-52 -123t-16 -158.5z" />
<glyph unicode="&#xf1;" horiz-adv-x="1173" d="M186 0v987h66l8 -174q249 199 469 199q131 0 198.5 -69t67.5 -202v-741h-82v725q0 111 -49 162t-153 51q-100 0 -198.5 -44t-246.5 -144v-750h-80zM301 1214q-4 99 38.5 150t117.5 45q41 -3 80.5 -23.5t66.5 -43t65.5 -43t78.5 -23.5q62 -4 88 24.5t26 98.5h47 q6 -94 -37 -144.5t-118 -44.5q-46 4 -89 24.5t-70.5 43t-63.5 42.5t-70 23q-60 6 -86.5 -25.5t-26.5 -103.5h-47z" />
<glyph unicode="&#xf2;" horiz-adv-x="1150" d="M135 494q0 285 98.5 401.5t341.5 116.5t342 -116.5t99 -401.5q0 -286 -99 -402.5t-342 -116.5t-341.5 116.5t-98.5 402.5zM221 494q0 -252 78 -349.5t276 -97.5t277.5 97.5t79.5 349.5q0 170 -35.5 266t-111.5 137t-210 41q-198 0 -276 -96t-78 -348zM293 1409l53 59 l318 -297l-37 -41z" />
<glyph unicode="&#xf3;" horiz-adv-x="1150" d="M135 494q0 285 98.5 401.5t341.5 116.5t342 -116.5t99 -401.5q0 -286 -99 -402.5t-342 -116.5t-341.5 116.5t-98.5 402.5zM221 494q0 -252 78 -349.5t276 -97.5t277.5 97.5t79.5 349.5q0 170 -35.5 266t-111.5 137t-210 41q-198 0 -276 -96t-78 -348zM465 1174l317 299 l54 -62l-334 -276z" />
<glyph unicode="&#xf4;" horiz-adv-x="1150" d="M135 494q0 285 98.5 401.5t341.5 116.5t342 -116.5t99 -401.5q0 -286 -99 -402.5t-342 -116.5t-341.5 116.5t-98.5 402.5zM221 494q0 -252 78 -349.5t276 -97.5t277.5 97.5t79.5 349.5q0 170 -35.5 266t-111.5 137t-210 41q-198 0 -276 -96t-78 -348zM266 1192l277 244 h59l277 -244l-31 -39l-266 207h-17l-264 -207z" />
<glyph unicode="&#xf5;" horiz-adv-x="1150" d="M135 494q0 285 98.5 401.5t341.5 116.5t342 -116.5t99 -401.5q0 -286 -99 -402.5t-342 -116.5t-341.5 116.5t-98.5 402.5zM221 494q0 -252 78 -349.5t276 -97.5t277.5 97.5t79.5 349.5q0 170 -35.5 266t-111.5 137t-210 41q-198 0 -276 -96t-78 -348zM270 1212 q-4 99 38.5 150t117.5 45q41 -3 80.5 -23.5t66.5 -43t65.5 -43t78.5 -23.5q62 -4 88 24.5t26 98.5h48q6 -94 -37.5 -144.5t-118.5 -44.5q-46 4 -89 24.5t-70.5 43t-63.5 42.5t-70 23q-60 6 -86.5 -25.5t-26.5 -103.5h-47z" />
<glyph unicode="&#xf6;" horiz-adv-x="1150" d="M135 494q0 285 98.5 401.5t341.5 116.5t342 -116.5t99 -401.5q0 -286 -99 -402.5t-342 -116.5t-341.5 116.5t-98.5 402.5zM221 494q0 -252 78 -349.5t276 -97.5t277.5 97.5t79.5 349.5q0 170 -35.5 266t-111.5 137t-210 41q-198 0 -276 -96t-78 -348zM350 1243v115 q0 28 27 28h31q28 0 28 -28v-115q0 -29 -28 -29h-31q-27 0 -27 29zM713 1243v115q0 28 26 28h31q29 0 29 -28v-115q0 -29 -29 -29h-31q-26 0 -26 29z" />
<glyph unicode="&#xf7;" horiz-adv-x="1196" d="M166 571v68h864v-68h-864zM547 205v121q0 19 8 26.5t27 7.5h26q19 0 27 -7.5t8 -26.5v-121q0 -19 -8 -27t-27 -8h-26q-19 0 -27 8t-8 27zM547 885v121q0 19 8 26.5t27 7.5h26q19 0 27 -7.5t8 -26.5v-121q0 -19 -8 -27t-27 -8h-26q-19 0 -27 8t-8 27z" />
<glyph unicode="&#xf8;" horiz-adv-x="1150" d="M135 494q0 285 98.5 401.5t341.5 116.5q110 0 193 -25l59 127l50 -22l-58 -123q105 -49 151 -162.5t46 -312.5q0 -286 -99 -402.5t-342 -116.5q-121 0 -204 27l-64 -135l-51 24l61 134q-97 52 -139.5 164t-42.5 305zM221 494q0 -163 30.5 -258t100.5 -140l383 822 q-61 20 -160 20q-198 0 -276 -96t-78 -348zM403 72q70 -25 172 -25q198 0 277.5 97.5t79.5 349.5q0 169 -34.5 265t-111.5 138z" />
<glyph unicode="&#xf9;" horiz-adv-x="1153" d="M178 246v741h82v-725q-1 -110 50 -161.5t157 -51.5q94 0 186 43t232 141v754h82v-987h-64l-8 170q-242 -195 -451 -195q-132 0 -199 68.5t-67 202.5zM293 1413l53 60l318 -297l-37 -41z" />
<glyph unicode="&#xfa;" horiz-adv-x="1153" d="M178 246v741h82v-725q-1 -110 50 -161.5t157 -51.5q94 0 186 43t232 141v754h82v-987h-64l-8 170q-242 -195 -451 -195q-132 0 -199 68.5t-67 202.5zM465 1178l317 299l54 -62l-334 -276z" />
<glyph unicode="&#xfb;" horiz-adv-x="1153" d="M178 246v741h82v-725q-1 -110 50 -161.5t157 -51.5q94 0 186 43t232 141v754h82v-987h-64l-8 170q-242 -195 -451 -195q-132 0 -199 68.5t-67 202.5zM266 1196l277 244h59l277 -244l-31 -39l-266 207h-17l-264 -207z" />
<glyph unicode="&#xfc;" horiz-adv-x="1153" d="M178 246v741h82v-725q-1 -110 50 -161.5t157 -51.5q94 0 186 43t232 141v754h82v-987h-64l-8 170q-242 -195 -451 -195q-132 0 -199 68.5t-67 202.5zM350 1247v115q0 29 27 29h31q28 0 28 -29v-115q0 -28 -28 -28h-31q-27 0 -27 28zM713 1247v115q0 29 26 29h31 q29 0 29 -29v-115q0 -28 -29 -28h-31q-26 0 -26 28z" />
<glyph unicode="&#xfd;" horiz-adv-x="1048" d="M55 987h88l324 -809q4 -11 20 -50t23 -60h29q32 83 43 112l325 807h86l-438 -1073q-28 -69 -56.5 -119t-69 -97.5t-96 -79t-126.5 -46.5l-12 51q113 41 177 116.5t109 190.5l29 70h-27q-25 0 -34 25zM420 1176l317 299l54 -62l-334 -276z" />
<glyph unicode="&#xfe;" horiz-adv-x="1157" d="M186 -426v1860h80v-400q0 -142 -6 -194q205 172 402 172q193 0 274.5 -119.5t81.5 -400.5t-83 -399t-276 -118t-399 107q6 -53 6 -191v-317h-80zM266 141q123 -50 208 -72t171 -22q156 0 222.5 100.5t66.5 344.5q0 245 -66 345.5t-221 100.5q-88 0 -176 -39.5 t-205 -128.5v-629z" />
<glyph unicode="&#xff;" horiz-adv-x="1048" d="M55 987h88l324 -809q4 -11 20 -50t23 -60h29q32 83 43 112l325 807h86l-438 -1073q-28 -69 -56.5 -119t-69 -97.5t-96 -79t-126.5 -46.5l-12 51q113 41 177 116.5t109 190.5l29 70h-27q-25 0 -34 25zM305 1245v115q0 29 27 29h30q29 0 29 -29v-115q0 -28 -29 -28h-30 q-27 0 -27 28zM668 1245v115q0 29 26 29h31q29 0 29 -29v-115q0 -28 -29 -28h-31q-26 0 -26 28z" />
<glyph unicode="&#x152;" horiz-adv-x="1832" d="M147 707q0 207 27.5 344t92 224.5t164 125t249.5 37.5q103 0 171.5 -14.5t162.5 -53.5q59 43 135 43q381 0 569 -8l-2 -64h-545q-72 0 -115.5 -43.5t-43.5 -115.5v-391l618 -3v-67l-618 -2v-488q0 -72 43.5 -115.5t115.5 -43.5h545l2 -64q-188 -8 -573 -8q-74 0 -133 43 q-88 -38 -158 -53t-174 -15q-199 0 -314 70.5t-167 228.5t-52 433zM236 707q0 -186 22.5 -308.5t76 -201.5t136.5 -112.5t209 -33.5q89 0 147.5 11t133.5 38q-33 58 -33 123v967q0 65 33 123q-73 27 -132.5 38t-148.5 11q-168 0 -263 -61.5t-138 -202.5t-43 -391z" />
<glyph unicode="&#x153;" horiz-adv-x="1880" d="M135 494q0 285 98.5 401.5t341.5 116.5q163 0 258.5 -50t139.5 -163q42 113 135.5 163t251.5 50q396 0 399 -287q3 -150 -64.5 -210t-232.5 -60h-446q7 -227 94 -316.5t281 -89.5q164 0 335 25l11 -58q-51 -18 -160.5 -29.5t-198.5 -11.5q-161 0 -259.5 53t-143.5 167 q-42 -117 -138.5 -168.5t-261.5 -51.5q-243 0 -341.5 116.5t-98.5 402.5zM221 494q0 -252 78 -349.5t276 -97.5q188 0 269 86t88 305q-2 18 -2 60v55q-7 216 -87.5 300.5t-267.5 84.5q-198 0 -276 -96t-78 -348zM1016 520h444q122 0 171 45.5t46 157.5q-9 215 -315 215 q-189 0 -266 -93t-80 -325z" />
<glyph unicode="&#x178;" horiz-adv-x="1122" d="M39 1413h92l350 -659q12 -24 37 -73.5t37 -72.5h12q36 74 72 144l350 661h92l-477 -895v-518h-86v522zM338 1612v114q0 29 27 29h30q29 0 29 -29v-114q0 -29 -29 -29h-30q-27 0 -27 29zM700 1612v114q0 29 27 29h31q28 0 28 -29v-114q0 -29 -28 -29h-31q-27 0 -27 29z " />
<glyph unicode="&#x2c6;" horiz-adv-x="817" d="M102 1202l277 244h59l277 -244l-31 -39l-266 207h-17l-264 -207z" />
<glyph unicode="&#x2dc;" horiz-adv-x="827" d="M111 1219q-4 99 38 149.5t117 44.5q41 -3 80.5 -23.5t66.5 -43t65.5 -43t78.5 -23.5q62 -4 88.5 24.5t26.5 98.5h47q6 -94 -37.5 -144.5t-118.5 -44.5q-46 4 -89 24.5t-70.5 43t-63.5 43t-70 23.5q-60 6 -86 -25.5t-26 -103.5h-47z" />
<glyph unicode="&#x2000;" horiz-adv-x="945" />
<glyph unicode="&#x2001;" horiz-adv-x="1890" />
<glyph unicode="&#x2002;" horiz-adv-x="945" />
<glyph unicode="&#x2003;" horiz-adv-x="1890" />
<glyph unicode="&#x2004;" horiz-adv-x="630" />
<glyph unicode="&#x2005;" horiz-adv-x="472" />
<glyph unicode="&#x2006;" horiz-adv-x="315" />
<glyph unicode="&#x2007;" horiz-adv-x="315" />
<glyph unicode="&#x2008;" horiz-adv-x="236" />
<glyph unicode="&#x2009;" horiz-adv-x="378" />
<glyph unicode="&#x200a;" horiz-adv-x="105" />
<glyph unicode="&#x2010;" horiz-adv-x="970" d="M168 481v68h635v-68h-635z" />
<glyph unicode="&#x2011;" horiz-adv-x="970" d="M168 481v68h635v-68h-635z" />
<glyph unicode="&#x2012;" horiz-adv-x="970" d="M168 481v68h635v-68h-635z" />
<glyph unicode="&#x2013;" horiz-adv-x="1259" d="M168 481v68h924v-68h-924z" />
<glyph unicode="&#x2014;" horiz-adv-x="1890" d="M168 481v68h1554v-68h-1554z" />
<glyph unicode="&#x2018;" horiz-adv-x="413" d="M160 1098v129q3 144 45 270l37 -14q-9 -120 -9 -230q8 0 15 -8.5t6 -21.5l-2 -125q3 -33 -33 -33h-26q-33 0 -33 33z" />
<glyph unicode="&#x2019;" horiz-adv-x="409" d="M160 1319l2 125q-3 33 33 33h26q33 0 33 -33v-129q-3 -145 -45 -271l-37 15q8 107 8 229q-8 0 -14.5 9t-5.5 22z" />
<glyph unicode="&#x201a;" horiz-adv-x="436" d="M170 31l2 125q-3 32 35 32h26q35 0 35 -32v-129q-4 -148 -47 -271l-39 15q11 110 11 229q-10 0 -17 9t-6 22z" />
<glyph unicode="&#x201c;" horiz-adv-x="667" d="M160 1098v129q3 144 45 270l37 -14q-9 -120 -9 -230q8 0 15 -8.5t6 -21.5l-2 -125q3 -33 -33 -33h-26q-33 0 -33 33zM414 1098v129q3 144 45 270l37 -14q-9 -120 -9 -230q8 0 15 -8.5t6 -21.5l-2 -125q3 -33 -33 -33h-27q-32 0 -32 33z" />
<glyph unicode="&#x201d;" horiz-adv-x="663" d="M160 1319l2 125q-3 33 33 33h26q33 0 33 -33v-129q-3 -145 -45 -271l-37 15q8 107 8 229q-8 0 -14.5 9t-5.5 22zM414 1319l2 125q-3 33 33 33h26q33 0 33 -33v-129q-3 -145 -45 -271l-37 15q8 107 8 229q-8 0 -14.5 9t-5.5 22z" />
<glyph unicode="&#x201e;" horiz-adv-x="688" d="M170 31l2 125q-3 32 33 32h26q33 0 33 -32v-129q-3 -145 -45 -271l-37 15q8 107 8 229q-8 0 -14.5 9t-5.5 22zM424 31l2 125q-3 32 33 32h26q33 0 33 -32v-129q-3 -145 -45 -271l-37 15q8 107 8 229q-8 0 -14.5 9t-5.5 22z" />
<glyph unicode="&#x2022;" horiz-adv-x="724" d="M209 539v22q0 78 31 108.5t114 30.5h21q79 0 110 -30.5t31 -108.5v-22q0 -82 -30.5 -113t-110.5 -31h-21q-83 0 -114 31t-31 113z" />
<glyph unicode="&#x2026;" horiz-adv-x="1615" d="M164 35v123q0 35 37 35h28q19 0 27 -8t8 -27v-123q0 -19 -8 -27t-27 -8h-28q-37 0 -37 35zM756 35v123q0 35 37 35h28q19 0 27 -8t8 -27v-123q0 -19 -8 -27t-27 -8h-28q-37 0 -37 35zM1348 35v123q0 35 36 35h29q19 0 27 -8t8 -27v-123q0 -19 -8 -27t-27 -8h-29 q-36 0 -36 35z" />
<glyph unicode="&#x202f;" horiz-adv-x="378" />
<glyph unicode="&#x2039;" horiz-adv-x="491" d="M51 502v24l332 406l43 -31l-293 -387l295 -393l-43 -31z" />
<glyph unicode="&#x203a;" horiz-adv-x="495" d="M66 121l292 393l-290 387l41 31l333 -406v-24l-336 -412z" />
<glyph unicode="&#x205f;" horiz-adv-x="472" />
<glyph unicode="&#x20ac;" horiz-adv-x="1323" d="M131 555v63h191q-3 44 -3 89q0 27 5 129h-193v63h197q28 272 152 405.5t372 133.5q185 0 330 -37l-15 -64q-139 25 -317 25q-203 -3 -305 -116.5t-127 -346.5h571l-14 -63h-563q-4 -82 -4 -129q0 -60 2 -89h479l-17 -63h-458q19 -254 121.5 -378.5t314.5 -125.5 q192 0 336 27l14 -64q-150 -39 -348 -39q-258 0 -381.5 143t-144.5 437h-195z" />
<glyph unicode="&#x2122;" horiz-adv-x="1947" d="M154 1370v55h641v-55h-289v-723h-66v723h-286zM911 647l35 748q3 30 31 30h80q22 0 28 -22l207 -522l37 -107h29l41 109l203 520q6 22 28 22h82q14 0 22.5 -8.5t8.5 -21.5l35 -748h-64l-35 725h-26l-246 -624q-7 -23 -31 -23h-65q-26 0 -29 23l-246 624h-26l-35 -725h-64 z" />
<glyph unicode="&#x25fc;" horiz-adv-x="983" d="M0 0v983h983v-983h-983z" />
<glyph unicode="&#xfb03;" horiz-adv-x="1785" d="M68 918v59l176 10v162q0 140 62.5 209t201.5 69q127 0 244 -10l-4 -61h-211q-118 0 -165.5 -46.5t-47.5 -164.5v-158h555v195q0 142 62 212t204 70q153 0 241 -10v-61h-215q-116 0 -163 -48t-47 -169v-189h632v-987h-82v915h-550v-915h-82v915l-555 3v-918h-80v918h-176z M1503 1243v123q0 33 31 33h37q15 0 24 -9t9 -24v-123q0 -33 -33 -33h-37q-31 0 -31 33z" />
<glyph unicode="&#xfb04;" horiz-adv-x="1925" d="M68 918v59l178 10v162q0 140 63 209t203 69q127 0 244 -10l-4 -61h-213q-116 0 -163.5 -46.5t-47.5 -164.5v-158h555v195q0 143 61.5 212.5t204.5 69.5q78 0 248.5 -4.5t228.5 -11.5v-1237q0 -76 40.5 -116t115.5 -40h112l11 -53q-50 -16 -146 -16q-99 0 -157 56.5 t-58 158.5v1194h-368q-117 1 -164 -48t-47 -171v-189h348v-69h-348v-918h-82v918h-555v-918h-82v918h-178z" />
</font>
</defs>
</svg>
