<?xml version="1.0" standalone="no"?>
<!DOCTYPE svg PUBLIC "-//W3C//DTD SVG 1.1//EN" "http://www.w3.org/Graphics/SVG/1.1/DTD/svg11.dtd" >
<svg xmlns="http://www.w3.org/2000/svg" xmlns:xlink="http://www.w3.org/1999/xlink" version="1.1">
<metadata></metadata>
<defs>
<font id="exo_2bold_italic" horiz-adv-x="1392" >
<font-face units-per-em="2048" ascent="1638" descent="-410" />
<missing-glyph horiz-adv-x="444" />
<glyph unicode="&#xfb01;" horiz-adv-x="1355" d="M-221 -377l47 201h131q81 0 116.5 27t47.5 108l123 848h-176l26 192l178 11l21 141q23 159 106 241.5t250 82.5q166 0 283 -21l-35 -201h-145q-79 0 -116.5 -34.5t-49.5 -118.5l-13 -90h711l-141 -1010h-303l112 807h-409l-129 -899q-21 -146 -108.5 -226.5t-246.5 -80.5 q-90 0 -280 22zM1014 1272l16 108q5 44 26 64t66 20h133q44 0 66 -25.5t16 -68.5l-14 -110q-6 -44 -27 -63t-65 -19h-133q-45 0 -67.5 25t-16.5 69z" />
<glyph unicode="&#xfb02;" horiz-adv-x="1462" d="M-221 -377l47 201h131q81 0 115.5 27t46.5 108l119 848h-175l25 192l178 11l21 141q23 160 106 242.5t252 81.5q502 0 707 -37l-152 -1131q-8 -54 11 -76t73 -22h84l14 -197q-34 -18 -105.5 -27.5t-123.5 -9.5q-139 0 -210 72t-54 195l143 1015h-287q-77 0 -115 -35.5 t-50 -121.5l-13 -90h258l-26 -203h-260l-125 -899q-21 -146 -108.5 -226.5t-246.5 -80.5q-90 0 -280 22z" />
<glyph horiz-adv-x="0" />
<glyph horiz-adv-x="682" />
<glyph unicode=" "  horiz-adv-x="444" />
<glyph unicode="&#x09;" horiz-adv-x="444" />
<glyph unicode="&#xa0;" horiz-adv-x="444" />
<glyph unicode="!" horiz-adv-x="610" d="M94 113l15 98q6 52 33.5 75t80.5 23h66q56 0 82.5 -27.5t17.5 -82.5l-12 -99q-6 -51 -34 -75.5t-83 -24.5h-65q-116 0 -101 113zM166 449l27 421l77 553h299l-77 -553l-89 -421h-237z" />
<glyph unicode="&#x22;" horiz-adv-x="765" d="M174 961l45 452h223l-82 -452h-186zM504 961l47 452h221l-80 -452h-188z" />
<glyph unicode="#" horiz-adv-x="1456" d="M37 403l59 183h236l90 286h-234l62 181h229l113 360h231l-112 -360h282l113 360h231l-112 -360h229l-61 -181h-226l-90 -286h226l-62 -183h-221l-127 -403h-231l126 403h-282l-127 -403h-232l127 403h-237zM563 586h283l90 286h-283z" />
<glyph unicode="$" horiz-adv-x="1171" d="M31 29l32 223q427 -10 437 -10q140 0 190 27.5t62 117.5q10 69 -10.5 97t-88.5 53l-264 108q-152 63 -204.5 163.5t-32.5 252.5q13 93 41.5 159t70 108.5t104.5 67t135 34t171 10.5l47 186h227l-49 -196q140 -13 252 -48l-31 -211q-212 7 -434 7q-42 1 -66 0t-51.5 -5 t-42 -12.5t-29 -23.5t-22 -38.5t-12.5 -56.5q-10 -70 11 -97.5t99 -57.5l250 -99q159 -65 210 -160t30 -259q-15 -116 -48 -191t-96.5 -120.5t-151.5 -64t-222 -20.5l-51 -217h-228l53 228q-146 14 -288 45z" />
<glyph unicode="%" horiz-adv-x="1857" d="M127 1032q32 231 116 319.5t271 88.5q200 0 271 -97.5t38 -334.5q-32 -230 -117 -319t-274 -89q-197 0 -267.5 97.5t-37.5 334.5zM315 0l1047 1413h205l-1045 -1413h-207zM343 815.5q17 -47.5 89 -47.5q87 0 118.5 50.5t53.5 213.5q19 145 1.5 192.5t-89.5 47.5 q-85 0 -116.5 -51t-53.5 -213q-20 -145 -3 -192.5zM1063 408q34 231 118 320t271 89q198 0 270 -98t39 -334q-34 -231 -118.5 -320.5t-274.5 -89.5q-196 0 -267 99t-38 334zM1280 192q17 -47 88 -47q89 0 120 50.5t52 212.5q19 145 2 192t-90 47q-84 0 -115 -50.5 t-53 -211.5q-21 -146 -4 -193z" />
<glyph unicode="&#x26;" horiz-adv-x="1531" d="M63 371q38 338 326 358l2 10q-114 9 -162.5 101t-23.5 237q16 92 50.5 157.5t81 105t117 61.5t142.5 29.5t172 7.5q195 0 354 -45l-49 -215q-130 26 -293 26q-144 0 -198.5 -35.5t-71.5 -152.5q-15 -107 20.5 -144.5t143.5 -37.5h387q6 102 6 217h260q3 -101 -4 -217h184 l-30 -211h-177q-32 -182 -100 -301q-191 -347 -692 -347q-259 0 -364.5 95t-80.5 301zM395 410q-14 -103 23.5 -144t150.5 -41q269 0 387 195q55 82 80 203h-393q-119 0 -175 -46t-73 -167z" />
<glyph unicode="'" horiz-adv-x="436" d="M174 961l45 452h223l-82 -452h-186z" />
<glyph unicode="(" horiz-adv-x="745" d="M86 651q57 405 229 639t490 330l35 -137q-191 -81 -303 -292t-160 -562q-29 -214 -22.5 -378.5t64.5 -282t169 -175.5l-39 -125q-293 97 -406.5 339t-56.5 644z" />
<glyph unicode=")" horiz-adv-x="745" d="M-82 -203q367 165 463 856q30 218 23.5 383.5t-64.5 281t-170 169.5l39 127q294 -97 407 -338t56 -649q-57 -402 -229.5 -635.5t-489.5 -331.5z" />
<glyph unicode="*" horiz-adv-x="925" d="M145 1096l68 157l231 -100l-8 -72l-43 -45zM215 809l256 262l23 344h170l-76 -342l182 -264l-139 -100l-111 249l-178 -247zM629 1079l10 74l246 100l33 -163l-256 -56z" />
<glyph unicode="+" horiz-adv-x="1097" d="M70 506l32 221h353l49 344h225l-49 -344h352l-31 -221h-352l-49 -342h-223l47 342h-354z" />
<glyph unicode="," horiz-adv-x="499" d="M33 98l16 109q10 59 37.5 80.5t89.5 21.5h68q59 0 81 -25t15 -85l-18 -131q-12 -92 -53.5 -193.5t-96.5 -179.5l-133 47q56 160 78 264q-48 -3 -68.5 21.5t-15.5 70.5z" />
<glyph unicode="-" horiz-adv-x="847" d="M94 422l29 199h608l-26 -199h-611z" />
<glyph unicode="." horiz-adv-x="493" d="M33 113l14 98q7 52 35.5 75t81.5 23h76q115 0 100 -110l-14 -99q-6 -51 -33.5 -75.5t-81.5 -24.5h-76q-114 0 -102 113z" />
<glyph unicode="/" horiz-adv-x="1144" d="M-59 -147l1024 1560h247l-1024 -1560h-247z" />
<glyph unicode="0" horiz-adv-x="1284" d="M96 442q0 116 8 216t27.5 204t50 187.5t80.5 158t115.5 124.5t157 79t202.5 29q242 0 361 -110t119 -355q0 -119 -6.5 -219t-25 -205.5t-49 -188t-80 -157.5t-115.5 -124.5t-159.5 -78.5t-208.5 -29q-239 0 -358.5 111t-118.5 358zM397 463q-1 -129 47 -185.5t154 -56.5 q48 0 88.5 14.5t70 38t53.5 62.5t40 78t28 94.5t18.5 102.5t10.5 112t5.5 113t2.5 114q0 129 -49 185.5t-157 56.5q-58 0 -105 -23.5t-78.5 -61.5t-55 -97t-37 -118t-21.5 -138.5t-11 -143.5t-4 -147z" />
<glyph unicode="1" horiz-adv-x="878" d="M111 1270l385 143h307l-199 -1413h-311l143 1001q10 85 31 152l-340 -90z" />
<glyph unicode="2" horiz-adv-x="1171" d="M4 0l27 180q7 46 17 74t34 53l399 371q77 71 121.5 114.5t97 103t77 109.5t24.5 95q0 44 -38 57.5t-126 13.5q-227 0 -436 -18l2 238q240 47 465 47q108 0 185 -12t139 -42.5t93 -87.5t31 -141q0 -147 -71 -265t-214 -249l-411 -379q92 19 207 19h415l-36 -281h-1002z " />
<glyph unicode="3" horiz-adv-x="1144" d="M8 10l29 230q35 -2 110.5 -6t94 -4.5t87 -2.5t87.5 2q309 16 309 275q0 122 -180 125l-277 4l29 209h268q116 0 167.5 57t51.5 184q0 60 -39.5 81.5t-156.5 21.5q-169 0 -373 -8l-2 225q225 37 432 37q227 0 330.5 -70t103.5 -223q0 -101 -29 -187.5t-89.5 -145 t-143.5 -66.5l-2 -9q215 -34 215 -252q0 -256 -150 -384t-434 -130q-186 -3 -438 37z" />
<glyph unicode="4" horiz-adv-x="1292" d="M33.5 441.5q-6.5 54.5 23.5 115.5l484 856h303l-453 -819q-37 -62 23 -62h350l51 381l84 226h238l-86 -607h170l-27 -192l-168 -29h-6l-43 -311h-287l43 311h-522q-74 0 -122.5 38t-55 92.5z" />
<glyph unicode="5" horiz-adv-x="1116" d="M6 20l47 242q189 -34 342 -24q153 9 233.5 73.5t80.5 196.5q0 72 -57 104.5t-197 44.5l-195 23q-53 6 -81 43.5t-19 89.5l119 600h825l-47 -242h-563l-54 -262l162 -18q412 -50 412 -371q0 -246 -146.5 -388.5t-408.5 -156.5q-202 -9 -453 45z" />
<glyph unicode="6" horiz-adv-x="1196" d="M92 446.5q3 105.5 23 245.5q22 157 53 273t75 199t95 136t122 84t147 42.5t179 11.5q209 0 336 -37l-43 -205q-106 4 -315 4q-100 0 -158.5 -30.5t-99.5 -113.5t-70 -241q132 115 324 115q174 0 262 -76.5t86 -212.5q-2 -165 -33.5 -286t-97 -207.5t-173.5 -129.5 t-259 -43q-100 0 -173 14.5t-129 48.5t-89 88t-49 134.5t-13 186zM380.5 363.5q1.5 -84.5 41 -116.5t143.5 -32q131 -1 188.5 93.5t59.5 256.5q2 70 -33 103.5t-125 33.5q-119 0 -252 -106q-24 -148 -22.5 -232.5z" />
<glyph unicode="7" horiz-adv-x="1079" d="M141 1159l23 254h844q87 0 117 -48.5t-5 -123.5l-608 -1241h-309l506 1030q30 67 82 131z" />
<glyph unicode="8" horiz-adv-x="1261" d="M68 365q11 79 30 138.5t52.5 111.5t87.5 82t127 36l2 8q-104 15 -144 102.5t-20 229.5q14 99 44 165t89.5 113t154 67.5t234.5 19.5q147 0 243 -23.5t146.5 -72t65.5 -121.5t0 -172q-44 -288 -256 -314l-2 -8q243 -23 192 -387q-14 -100 -44 -165t-92 -112t-162 -68 t-251 -22q-198 0 -314 44.5t-158 129.5t-25 218zM365.5 311.5q2.5 -36.5 27.5 -58t68 -30t119 -8.5q132 0 183 42.5t68 168.5q19 122 -20 160.5t-184 38.5q-71 0 -112 -7.5t-73 -31.5t-47.5 -67t-25.5 -116q-6 -55 -3.5 -91.5zM477 1012q-14 -103 22 -136.5t169 -33.5 q126 0 170 38.5t59 155.5q13 69 0.5 108.5t-53.5 54.5t-131 15q-132 0 -176.5 -39.5t-59.5 -162.5z" />
<glyph unicode="9" horiz-adv-x="1196" d="M68 14l30 205q104 -4 336 -4q171 4 244 83.5t113 295.5q-128 -115 -308 -115q-79 0 -141 18.5t-100.5 51.5t-65.5 78t-36 97t-12 109t7 115q32 273 156.5 380.5t402.5 107.5q102 0 175 -14.5t127.5 -49t85.5 -88t44.5 -136t9 -189t-25.5 -250.5q-33 -225 -82 -366 t-129.5 -224.5t-185 -114.5t-264.5 -31q-198 0 -381 41zM422 946q-16 -135 13 -188t130 -53q74 0 131 23t129 85q12 85 17 139t3.5 101t-11.5 72t-32 43t-53.5 24t-80.5 6q-128 0 -179.5 -54.5t-66.5 -197.5z" />
<glyph unicode=":" horiz-adv-x="526" d="M20 113l15 98q7 52 35.5 75t81.5 23h75q116 0 101 -110l-15 -99q-6 -51 -33 -75.5t-81 -24.5h-76q-115 0 -103 113zM106 727l15 98q7 52 35.5 75.5t81.5 23.5h75q116 0 101 -111l-15 -98q-6 -52 -33.5 -76.5t-80.5 -24.5h-76q-115 0 -103 113z" />
<glyph unicode=";" horiz-adv-x="532" d="M51 98l17 109q10 59 37.5 80.5t89.5 21.5h67q59 0 81 -25t15 -85l-18 -131q-12 -92 -53.5 -193.5t-96.5 -179.5l-133 47q56 160 78 264q-48 -3 -68.5 21.5t-15.5 70.5zM135 727l15 98q7 52 35 75.5t81 23.5h76q115 0 100 -111l-14 -98q-6 -51 -33.5 -76t-81.5 -25h-75 q-115 0 -103 113z" />
<glyph unicode="&#x3c;" horiz-adv-x="1054" d="M63 500l33 233l908 336l-33 -244l-635 -211l573 -223l-32 -231z" />
<glyph unicode="=" horiz-adv-x="1185" d="M78 281l33 221h940l-33 -221h-940zM139 713l31 221h940l-33 -221h-938z" />
<glyph unicode="&#x3e;" horiz-adv-x="1052" d="M55 162l33 244l633 221l-569 221l30 223l811 -338l-32 -233z" />
<glyph unicode="?" horiz-adv-x="1056" d="M164 1202v207q14 3 62.5 12t62 11l54 8t64.5 8t65.5 5t86 4t98.5 1q220 0 325.5 -82.5t82.5 -247.5q-8 -60 -34.5 -112.5t-62.5 -93t-79 -79t-87.5 -79.5t-84 -85t-71.5 -104t-48 -129h-242q10 97 48.5 183t89 146.5t100.5 111.5t89.5 101.5t49.5 94.5q17 77 -15.5 103 t-131.5 26q-190 0 -422 -10zM291 113l14 96q11 100 115 100h65q118 0 103 -110l-15 -99q-6 -51 -33 -75.5t-81 -24.5h-66q-114 0 -102 113z" />
<glyph unicode="@" horiz-adv-x="1636" d="M88 473q17 100 41.5 175t59 125t72 82t90 48.5t103.5 22.5t121 6q190 0 506 -58l-94 -591q-5 -43 7.5 -62.5t45.5 -19.5q35 0 60.5 8.5t46.5 33.5t35 55.5t28 90t24.5 121t25.5 162.5q14 88 21 145t3.5 108t-7.5 79.5t-32 52.5t-49 33t-79 16t-101.5 7.5t-136.5 0.5h-686 l18 205q304 17 674 20q119 1 204 -3t161.5 -17.5t125.5 -35t88.5 -59.5t58 -87t27 -121t3 -158.5t-22.5 -202.5q-18 -139 -37.5 -234.5t-48.5 -175t-65 -127t-90 -80.5t-121 -45.5t-160 -12.5q-246 0 -293 192q-143 -197 -350 -197q-174 0 -247 117.5t-30 380.5zM352.5 347 q-2.5 -45 1 -72.5t18 -42t32 -19t47.5 -4.5q72 0 132 45t140 152l51 313q-63 2 -135 2q-51 0 -82 -2.5t-61.5 -12t-47.5 -26t-33.5 -47t-27 -71.5t-20.5 -103q-12 -67 -14.5 -112z" />
<glyph unicode="A" horiz-adv-x="1325" d="M-80 0l594 1337q13 36 43.5 56t69.5 20h295q38 0 67.5 -25.5t32.5 -62.5l221 -1325h-311l-47 369h-488l-151 -369h-326zM500 616h352l-55 428q-7 55 -11 138h-59q-29 -85 -49 -135z" />
<glyph unicode="B" horiz-adv-x="1300" d="M57 0l199 1413q194 17 514 17q137 0 226.5 -18t147.5 -62q58 -42 78 -116q11 -42 11 -96q0 -41 -6 -89q-22 -152 -88 -226t-199 -86l-2 -12q156 -13 212 -111q39 -67 38 -171q0 -48 -8 -103q-13 -87 -38.5 -148t-64 -102t-99 -64t-134 -32.5t-178.5 -9.5q-403 0 -609 16z M393 221h219q136 0 188.5 40.5t71.5 162.5q5 37 5 67q1 65 -25 93q-38 40 -164 43h-237zM479 838h217q118 0 166.5 39t63.5 153q4 29 4 53q0 55 -24 77q-35 32 -148 32h-228z" />
<glyph unicode="C" horiz-adv-x="1193" d="M111 719q24 167 59.5 285t87.5 203.5t128 135t173.5 72.5t231.5 23q141 0 231 -11.5t190 -37.5l-41 -232q-166 10 -393 10q-82 0 -133.5 -17.5t-94 -69t-68.5 -143.5t-46 -243q-15 -110 -18 -182q-1 -19 -1 -36q1 -50 7 -90q8 -54 34.5 -83.5t67 -43t103.5 -13.5h60 q208 0 368 18l12 -233q-103 -31 -204.5 -43.5t-246.5 -12.5q-327 0 -445 173q-80 117 -80 338q0 105 18 233z" />
<glyph unicode="D" horiz-adv-x="1388" d="M57 0l199 1413q279 19 506 19q99 0 177 -11t143 -36t110 -65t76.5 -97.5t45.5 -134.5q12 -69 11 -155q1 -9 1 -19q-2 -98 -19 -220q-16 -115 -36.5 -205.5t-48 -163t-59.5 -125t-76 -91t-92 -63t-112.5 -39t-132.5 -20t-158 -5.5q-233 0 -535 18zM401 229q66 -2 187 -2 q65 0 110 7t86.5 26.5t69.5 53.5t52.5 89.5t41.5 132t31 183.5q15 103 20 173q2 33 2 63q-1 33 -3 61q-6 54 -21 86t-47 52t-73.5 27t-104.5 7q-26 0 -100.5 -1t-116.5 -1z" />
<glyph unicode="E" horiz-adv-x="1171" d="M92 334l113 807q19 131 106 204.5t232 73.5q446 0 651 -22l-39 -230h-528q-59 0 -85.5 -24t-33.5 -86l-29 -213h555l-28 -221h-557l-39 -273q-2 -16 -2 -29q0 -35 15 -51q21 -24 79 -24h522l-8 -232q-180 -20 -613 -20q-173 0 -253 91q-63 72 -62 186q0 30 4 63z" />
<glyph unicode="F" horiz-adv-x="1128" d="M53 0l158 1133q20 138 108.5 212t229.5 74q445 0 633 -24l-39 -228h-494q-70 0 -98 -22.5t-37 -87.5l-33 -240h539l-31 -221h-538l-84 -596h-314z" />
<glyph unicode="G" horiz-adv-x="1316" d="M100 376q-3 45 -3 95q0 110 16 248q17 128 43 228.5t60 176t81.5 130.5t100.5 90.5t123 57t144.5 30t168.5 8.5q255 0 432 -51l-39 -228q-232 10 -389 10q-102 0 -165.5 -18.5t-111.5 -72.5t-75.5 -144.5t-47.5 -241.5q-17 -124 -17 -210q0 -33 2 -60q9 -100 48 -140 t123 -40q86 0 147.5 33t141.5 106l59 434h299l-115 -817h-227l-8 176q-184 -203 -426 -203q-107 0 -182 41t-123.5 130.5t-59.5 231.5z" />
<glyph unicode="H" horiz-adv-x="1400" d="M57 0l199 1413h313l-75 -541h491l76 541h311l-198 -1413h-312l88 629h-491l-88 -629h-314z" />
<glyph unicode="I" horiz-adv-x="598" d="M57 0l199 1413h313l-198 -1413h-314z" />
<glyph unicode="J" horiz-adv-x="747" d="M-33 18l53 207h84q140 0 156 115l152 1073h313l-158 -1122q-22 -154 -110.5 -235t-229.5 -81q-63 0 -142.5 12.5t-117.5 30.5z" />
<glyph unicode="K" horiz-adv-x="1290" d="M57 0l199 1413h313l-59 -416q-9 -73 -33 -151h115l422 567h360l-440 -582q-48 -66 -123 -108l-2 -8q48 -39 92 -129l293 -586h-344l-291 623h-117q1 -29 1 -54q0 -51 -5 -88l-67 -481h-314z" />
<glyph unicode="L" horiz-adv-x="1081" d="M100 319l150 1094h313l-149 -1055q-1 -13 -1 -24q0 -36 14 -55q19 -25 79 -25h483l-6 -240q-200 -20 -594 -20q-152 0 -232 86q-62 67 -62 174q0 31 5 65z" />
<glyph unicode="M" horiz-adv-x="1861" d="M33 0l235 1303q9 58 38 84t85 26h293q102 0 111 -106l79 -705q11 -93 11 -201h28q35 114 66 195l266 721q17 50 48.5 72t84.5 22l301 2q57 -1 86 -33q24 -27 24 -69q0 -9 -1 -19l-127 -1292h-295l123 1169h-35l-334 -880q-17 -50 -48.5 -72t-84.5 -22h-205 q-52 0 -81.5 27t-34.5 77l-101 870h-35l-202 -1169h-295z" />
<glyph unicode="N" horiz-adv-x="1468" d="M57 0l185 1307q8 56 35.5 81t82.5 25h172q46 0 70 -23.5t45 -74.5l273 -729q46 -115 73 -230h25q0 122 14 228l113 829h297l-185 -1307q-8 -56 -34.5 -81t-81.5 -25h-174q-47 0 -70.5 22.5t-46.5 75.5l-281 754q-38 97 -61 213h-21q-3 -125 -16 -221l-117 -844h-297z" />
<glyph unicode="O" d="M94 498q2 98 17 221q29 208 77.5 344t131.5 221t196 120.5t279 35.5q107 0 189.5 -16t149 -52t107.5 -94t66 -140q24 -79 24 -184v-8q-1 -110 -18 -252q-23 -170 -60 -291t-90 -205t-130.5 -133t-173.5 -70.5t-226 -21.5q-94 0 -168.5 11.5t-136.5 37t-105.5 66 t-73.5 98.5q-29 58 -43 136q-12 70 -13 157q1 9 1 19zM418 503q-1 -21 -1 -40q-1 -52 7 -93q10 -56 38 -86.5t70 -44.5t107 -14q110 0 174.5 43.5t104.5 147.5t69 303q17 117 20 195q1 18 1 35q0 57 -8 99q-10 56 -38.5 85t-70.5 42t-107 13q-84 0 -138 -21t-94.5 -79 t-66 -150t-47.5 -244q-16 -114 -20 -191z" />
<glyph unicode="P" horiz-adv-x="1247" d="M57 0l199 1413q199 19 520 19q143 0 237 -24.5t153 -80.5q58 -57 72 -147q7 -43 7 -95q0 -58 -8 -127q-19 -140 -54.5 -227t-101 -137t-151.5 -68t-223 -18q-117 0 -265 18l-73 -526h-312zM473 748h213q127 0 174.5 44.5t69.5 188.5q6 42 6 75q0 64 -23 92 q-35 44 -145 44q-163 0 -231 -2z" />
<glyph unicode="Q" d="M94 498q1 99 17 221q29 208 77.5 344t131.5 221t196 120.5t279 35.5q107 0 189.5 -16t149 -52t107.5 -93.5t66 -140.5q24 -79 24 -184v-8q-1 -111 -18 -252q-23 -170 -60 -291t-90 -205t-130.5 -133t-173.5 -70.5t-226 -21.5q-94 0 -168.5 11.5t-136.5 37t-105.5 66 t-73.5 99t-43 135.5q-13 70 -13 157q0 10 1 19zM391 -238l101 164q233 -94 598 -151l-119 -279q-328 91 -580 266zM418 503v-40q0 -52 6 -93q10 -56 38 -86.5t70 -44.5t107 -14q110 0 174.5 43.5t104.5 147.5t69 303q17 116 20 195q1 18 1 35q0 56 -8 99q-10 55 -38.5 84.5 t-70.5 42.5t-107 13q-84 0 -138 -21t-94.5 -79t-66 -150t-47.5 -244q-16 -114 -20 -191z" />
<glyph unicode="R" horiz-adv-x="1312" d="M57 0l199 1413q199 19 522 19q129 0 220.5 -21.5t156.5 -70t90 -133.5q15 -51 15 -114q0 -43 -7 -92q-20 -148 -93 -233.5t-224 -103.5l-2 -13q141 -32 170 -217l74 -434h-320l-65 438q-7 65 -34 89t-85 24h-234l-78 -551h-305zM473 793h223q122 0 174.5 44.5t71.5 168.5 q4 31 4 56q0 62 -26 90q-36 40 -148 40q-172 0 -242 -2z" />
<glyph unicode="S" horiz-adv-x="1183" d="M31 29l32 223q433 -10 441 -10q143 0 195 27.5t65 117.5q3 21 3 38q-1 39 -15 59q-20 28 -90 53l-269 108q-79 33 -131 75t-78 94q-26 51 -34 113q-3 27 -4 55q0 38 6 79q16 117 56 192.5t112 116t160 55.5t220 15q263 0 461 -58l-31 -211q-215 7 -438 7h-38h-42 q-28 -2 -58.5 -8.5t-45.5 -21.5t-27 -40.5t-18 -65.5q-3 -23 -4 -41q0 -39 15 -57q21 -28 101 -57l254 -99q161 -64 213 -159q37 -67 37 -170q0 -42 -6 -90q-12 -96 -38 -163t-67 -113t-106.5 -72t-147 -37t-198.5 -11q-232 0 -485 56z" />
<glyph unicode="T" horiz-adv-x="1216" d="M111 1159l34 254h1153l-34 -254h-420l-164 -1159h-313l163 1159h-419z" />
<glyph unicode="U" horiz-adv-x="1386" d="M118 341q-5 38 -5 81q0 68 12 147l119 844h313l-121 -856q-11 -77 -11 -135q1 -85 25 -127q42 -70 183 -70q147 0 212.5 74t94.5 270l119 844h313l-123 -856q-46 -323 -183.5 -453.5t-432.5 -130.5q-119 0 -208.5 20.5t-156 65t-102.5 114t-48 168.5z" />
<glyph unicode="V" horiz-adv-x="1296" d="M125 1413h315l111 -1016q9 -80 12 -166h51q15 60 56 168l397 1014h330l-576 -1333q-31 -80 -112 -80h-283q-39 0 -67 26t-33 64z" />
<glyph unicode="W" horiz-adv-x="1980" d="M162 1413h313l-2 -987q0 -35 -2.5 -110t-3.5 -95h41q1 5 59 217l273 885q12 42 42.5 66t75.5 24h265q42 0 70 -29.5t28 -72.5l39 -887q3 -89 3 -150q0 -30 -1 -53h43q25 117 51 213l270 979h318l-414 -1333q-12 -38 -42 -59t-72 -21h-295q-42 0 -73 27.5t-32 66.5 l-26 914v180h-39q-22 -94 -47 -182l-281 -924q-12 -39 -43 -60.5t-74 -21.5h-297q-42 0 -73 27t-31 65z" />
<glyph unicode="X" horiz-adv-x="1306" d="M-66 0l472 725l-240 688h309l184 -584h27l363 584h327l-438 -688l264 -725h-313l-203 629h-24l-383 -629h-345z" />
<glyph unicode="Y" horiz-adv-x="1239" d="M113 1413h313l160 -524q23 -90 26 -182h23q20 93 74 186l307 520h336l-600 -952l-64 -461h-315l67 477z" />
<glyph unicode="Z" horiz-adv-x="1183" d="M-2 0l31 240l788 934h-639l33 239h993l-35 -239l-786 -934h672l-33 -240h-1024z" />
<glyph unicode="[" horiz-adv-x="704" d="M45 -174l223 1595q11 71 56.5 111.5t115.5 40.5h336l-26 -189h-156q-47 0 -53 -45l-205 -1452q-3 -37 29 -37h170l-27 -188h-320q-75 0 -114.5 39t-28.5 125z" />
<glyph unicode="\" horiz-adv-x="1112" d="M152 1413h227l592 -1560h-228z" />
<glyph unicode="]" horiz-adv-x="704" d="M-66 -338l25 188h156q22 0 36 12t17 34l205 1452q6 36 -29 36h-168l27 189h317q70 0 112.5 -47.5t33.5 -116.5l-226 -1595q-9 -69 -55.5 -110.5t-116.5 -41.5h-334z" />
<glyph unicode="^" horiz-adv-x="944" d="M104 823l363 461h219l242 -461l-123 -65l-232 340h-16l-338 -340z" />
<glyph unicode="_" horiz-adv-x="911" d="M-98 -199l28 199h910l-29 -199h-909z" />
<glyph unicode="`" horiz-adv-x="722" d="M152 1307l135 198l418 -303l-101 -129z" />
<glyph unicode="a" horiz-adv-x="1208" d="M76 524q14 100 37 177t51 131t68 92t79.5 60t96.5 34.5t108 16t123 3.5q109 0 261 -18.5t241 -42.5l-137 -977h-236l4 182q-157 -198 -416 -207h-17q-177 1 -240 125q-40 79 -40 217q0 91 17 207zM363 302q2 -36 14.5 -53t30.5 -23t49 -5q137 3 301 191l59 403h-155 q-51 0 -84 -3t-64 -14.5t-49.5 -30.5t-35.5 -52.5t-28 -80t-20 -114.5q-12 -81 -16 -132q-3 -34 -3 -61q0 -13 1 -25z" />
<glyph unicode="b" horiz-adv-x="1212" d="M43 53l195 1381h301l-45 -351q-15 -129 -58 -239q89 85 194 138.5t206 53.5q92 0 152 -27.5t98 -90.5q38 -62 42 -166q1 -19 0 -40q0 -92 -16 -216q-39 -288 -160 -405.5t-366 -117.5q-123 0 -285.5 22.5t-257.5 57.5zM367 201q81 -5 127 -5q19 0 32 1q79 1 122.5 11.5 t76.5 46.5t50 95t32 166q13 90 15 142v17q0 41 -8 67q-10 30 -30 39.5t-57 9.5q-120 0 -297 -150z" />
<glyph unicode="c" horiz-adv-x="1038" d="M68 518q40 285 164 402.5t393 117.5q240 0 387 -65l-41 -185q-297 5 -305 5q-72 0 -117.5 -12t-80.5 -44.5t-54.5 -88t-30.5 -144.5q-7 -62 -9 -106q0 -7 -1 -14q1 -36 7 -62q8 -32 20.5 -51t38 -30.5t56 -15.5t76.5 -4q183 0 320 19l20 -199q-158 -66 -393 -66 q-273 -1 -382 127q-79 93 -79 271q0 66 11 145z" />
<glyph unicode="d" horiz-adv-x="1212" d="M64 268q-2 32 -2 69q0 82 12 187q18 130 50 223t71 149t94.5 88t110 43t128.5 11q164 0 326 -26q0 97 14 198l37 224h303l-202 -1434h-238v184q-86 -89 -194 -149t-226 -60q-83 0 -141 29t-96.5 94.5t-46.5 169.5zM365 343q1 -65 23 -89q20 -23 64 -23h7q74 1 140.5 37.5 t158.5 116.5l59 440h-162q-79 0 -121 -8.5t-74.5 -42.5t-48.5 -91t-30 -163q-16 -106 -16 -170v-7z" />
<glyph unicode="e" horiz-adv-x="1146" d="M70 526q15 122 44.5 209t75 146.5t114 93.5t152.5 48.5t199 14.5q137 0 229 -23.5t139 -70.5q47 -46 61 -108q8 -34 8 -75q0 -33 -5 -71q-21 -144 -116.5 -205t-296.5 -75l-297 -25q3 -100 50.5 -134t150.5 -34q190 0 389 23l20 -193q-173 -72 -444 -72q-289 1 -397 135 q-83 103 -84 292q0 58 8 124zM393 565l236 23q82 6 119.5 33t46.5 98q1 11 1 20q0 49 -27 63q-29 15 -113 15h-21q-118 0 -167 -50t-75 -202z" />
<glyph unicode="f" horiz-adv-x="821" d="M-221 -377l47 201h131q83 0 118.5 27t47.5 108l121 848h-174l24 192l178 11l23 157q44 308 354 308q197 0 332 -21l-49 -201h-180q-81 0 -116.5 -28t-47.5 -107l-17 -108h279l-27 -203h-280l-129 -899q-44 -307 -355 -307q-87 0 -280 22z" />
<glyph unicode="g" horiz-adv-x="1214" d="M18 -367l23 179q70 -2 289 -2q73 0 132 8.5t112 29t90 58t55 90.5q9 24 21.5 70.5t26.5 85t36 71.5q-77 -109 -192 -173.5t-255 -65.5h-14q-173 0 -238 122q-43 78 -43 218q0 88 17 200q15 100 37 178t48 132t62.5 92t72 59.5t85.5 33.5t93.5 15.5t105.5 3.5 q148 0 306.5 -18t258.5 -43l-125 -887q-33 -273 -190 -392.5t-437 -119.5q-43 0 -97 3t-139 16.5t-141 35.5zM366 326q3 -67 24 -88q18 -17 59 -17h12q141 8 303 191l59 403h-164q-53 0 -87.5 -4t-64 -16.5t-47 -31t-32.5 -54.5t-24 -78.5t-19 -110.5q-20 -109 -20 -175 q0 -10 1 -19z" />
<glyph unicode="h" horiz-adv-x="1220" d="M39 0l201 1434h303l-49 -357q-15 -113 -54 -248q228 209 430 209q140 0 208 -74q53 -57 52 -153q0 -28 -4 -59l-106 -752h-301l94 670q3 27 3 46q0 31 -8 44q-12 22 -58 22q-69 0 -141 -37.5t-183 -123.5l-84 -621h-303z" />
<glyph unicode="i" horiz-adv-x="563" d="M47 0l141 1010h301l-141 -1010h-301zM221 1264l15 108q5 43 28 63.5t68 20.5h127q47 0 69 -24q18 -20 18 -54q0 -8 -1 -16l-15 -111q-6 -43 -29 -62.5t-69 -19.5h-129q-46 1 -67 25q-16 19 -16 51q0 9 1 19z" />
<glyph unicode="j" horiz-adv-x="565" d="M-117 -266q78 76 118 151.5t52 167.5l137 957h302l-138 -969q-19 -142 -100 -263t-205 -184zM219 1264l17 108q5 43 28 63.5t68 20.5h127q47 0 69 -24q16 -20 16 -51q0 -9 -1 -19l-15 -111q-6 -43 -29 -62.5t-69 -19.5h-127q-46 0 -68 25q-17 19 -17 51q0 9 1 19z" />
<glyph unicode="k" horiz-adv-x="1153" d="M39 0l201 1434h303l-84 -617q-17 -120 -74 -250q158 82 277 198.5t149 244.5h309q-75 -284 -332 -465q55 -55 84 -127l187 -418h-316l-178 418q-54 -26 -174 -74l-49 -344h-303z" />
<glyph unicode="l" horiz-adv-x="665" d="M76 260l166 1174h301l-158 -1110q-3 -17 -3 -31q0 -31 14 -45q20 -20 83 -21h88l15 -215q-34 -18 -107.5 -27.5t-128.5 -9.5q-142 0 -214 76q-59 62 -59 161q0 23 3 48z" />
<glyph unicode="m" horiz-adv-x="1794" d="M39 0l141 1010h234l2 -185q109 113 204 163t201 50q110 0 173.5 -49t74.5 -139q101 99 191 143.5t190 44.5q139 0 204 -76q50 -59 50 -152q0 -27 -4 -58l-105 -752h-301l95 670q2 19 2 35q-1 36 -13 53q-18 24 -63 24q-52 0 -109.5 -32t-154.5 -119l-88 -631h-291l92 670 q3 23 3 41q1 31 -9 46q-16 25 -66 25q-55 0 -112.5 -31.5t-151.5 -113.5l-88 -637h-301z" />
<glyph unicode="n" horiz-adv-x="1220" d="M39 0l141 1010h238v-201q232 229 461 229q129 0 199 -74q53 -57 53 -152q0 -28 -5 -60l-106 -752h-301l92 662q4 28 4 49q0 33 -9 47q-13 24 -59 24h-4q-66 -1 -139 -39t-176 -120l-86 -623h-303z" />
<glyph unicode="o" horiz-adv-x="1200" d="M68 516q40 287 169 404.5t408 117.5q281 0 391 -127q81 -93 81 -273q0 -67 -11 -146q-40 -285 -169 -402t-405 -117q-279 1 -392 127q-83 93 -83 273q0 66 11 143zM383 492q-11 -79 -11 -134q0 -67 16 -99q30 -58 151 -58q83 0 131 27t77 94t48 194q11 88 13 146v8 q0 52 -18 82q-19 33 -53 46t-94 13q-86 0 -133.5 -25.5t-77.5 -93.5t-49 -200z" />
<glyph unicode="p" horiz-adv-x="1214" d="M-16 -389l196 1399h240l-4 -195q92 92 204 155.5t220 63.5q88 0 146.5 -28t96 -92.5t42.5 -169.5q1 -23 1 -48q0 -90 -14 -211q-17 -131 -49.5 -224.5t-73 -148.5t-99 -87t-117 -42t-138.5 -10q-145 0 -301 27q0 -85 -15 -190l-32 -199h-303zM371 184h155q55 0 90 3.5 t65.5 16.5t48 31.5t32.5 55.5t24 82t19 116q17 103 17 167v25q-5 67 -25 88.5t-68 21.5q-54 0 -136 -45t-165 -121z" />
<glyph unicode="q" horiz-adv-x="1208" d="M60 304q-1 19 -1 39q0 77 15 173q22 152 59 251t100 160t148 86t209 25q133 0 294 -22.5t257 -57.5l-193 -1347h-303l45 311q22 152 53 236q-84 -81 -185 -132t-204 -51q-68 0 -119.5 17.5t-91 56t-59 101.5t-24.5 154zM365 340q2 -63 24 -86t74 -23q69 0 133 36.5 t160 117.5l61 424q-105 6 -164 6q-76 -2 -117.5 -11.5t-74.5 -43t-49.5 -90t-30.5 -158.5q-16 -99 -16 -160v-12z" />
<glyph unicode="r" horiz-adv-x="866" d="M39 0l141 1010h236v-191q233 219 430 219h61l-67 -280h-74q-64 0 -135.5 -28.5t-202.5 -98.5l-86 -631h-303z" />
<glyph unicode="s" horiz-adv-x="1073" d="M18 14l29 195q74 -4 322 -4q122 0 182.5 5.5t86 18.5t30.5 41v7q0 30 -29 47q-13 8 -90 38l-244 101q-123 49 -172 125q-38 59 -38 141q0 23 3 49q16 140 122 200q104 60 324 60h7q280 -4 467 -41l-29 -192q-393 6 -399 6q-119 0 -158 -9t-45 -44q-4 -34 19.5 -52 t91.5 -44l247 -99q125 -49 177 -119q40 -54 39 -136q0 -24 -3 -50q-8 -61 -26.5 -106.5t-51 -76t-71 -50t-95.5 -30t-114.5 -14.5t-136.5 -4q-93 0 -168.5 5t-121 10.5t-155.5 21.5z" />
<glyph unicode="t" horiz-adv-x="839" d="M66 807l24 192l186 11l41 282h297l-41 -282h281l-29 -203h-280l-68 -483q-3 -19 -2 -33q0 -31 11 -45q17 -20 79 -19h135l15 -213q-54 -19 -138 -29t-145 -10q-142 -1 -212 79q-54 62 -54 160q0 28 4 58l78 535h-182z" />
<glyph unicode="u" horiz-adv-x="1202" d="M70 258l104 752h303l-96 -670q-3 -21 -3 -38q0 -34 12 -50q18 -26 67 -25q64 0 127.5 35.5t165.5 120.5l88 627h299l-140 -1010h-235l2 190q-117 -111 -222 -164t-214 -53q-146 -1 -212 75q-51 57 -51 149q0 29 5 61z" />
<glyph unicode="v" horiz-adv-x="1161" d="M76 1010h323l82 -805h25q41 0 65 18t54 72q51 95 108 278q52 159 94 437h324q-21 -120 -60.5 -263.5t-80.5 -252.5q-74 -203 -158 -334q-57 -91 -120.5 -125.5t-176.5 -34.5h-231q-35 0 -60.5 22t-30.5 56z" />
<glyph unicode="w" horiz-adv-x="1818" d="M82 1012h311l70 -803h22q59 0 99 102q34 77 67 236q26 112 64 389q5 31 27.5 52.5t58.5 21.5h284q32 0 54 -20.5t24 -51.5l56 -729h20q28 0 46.5 26.5t35.5 77.5q47 98 94 262q55 203 80 435h307q-52 -285 -129 -510q-70 -209 -139 -326q-51 -96 -114.5 -135t-184.5 -39 h-150q-36 0 -61 23t-27 57l-47 745h-24q-12 -138 -54 -338q-43 -176 -88 -274q-26 -68 -60 -112t-77.5 -65.5t-85 -28.5t-100.5 -7h-164q-36 0 -60.5 22.5t-29.5 57.5z" />
<glyph unicode="x" horiz-adv-x="1150" d="M-66 0l385 520l-215 490h289l160 -389h25l278 389h313l-358 -492l236 -518h-293l-181 424h-16l-301 -424h-322z" />
<glyph unicode="y" horiz-adv-x="1183" d="M72 1010h325l97 -772q2 -14 11.5 -23.5t22.5 -9.5h82q1 3 4 9t4 9q85 176 140.5 357.5t95.5 429.5h320q-42 -234 -128 -476.5t-180 -416.5q-79 -143 -162 -243.5t-176 -162t-190 -92t-217 -39.5l-37 187q71 19 112.5 33t97 40t101.5 65.5t90 94.5h-120q-49 0 -83.5 28.5 t-43.5 73.5z" />
<glyph unicode="z" horiz-adv-x="1069" d="M-2 0l29 217h-2l628 578h-534l28 215h887l-28 -215h2l-629 -578h555l-29 -217h-907z" />
<glyph unicode="{" horiz-adv-x="698" d="M66 575l24 197q30 9 41 12.5t29.5 12t25 17t16 23.5t14 35t9.5 50l51 370q23 161 136.5 235t339.5 46l-17 -187q-88 0 -127.5 -28t-48.5 -103l-45 -311q-8 -68 -21.5 -111.5t-41 -78t-71.5 -54t-112 -30.5q114 -36 153.5 -99.5t24.5 -173.5l-59 -424q-9 -71 18.5 -98 t114.5 -27l-10 -186q-228 -28 -332 53t-80 238l68 489q2 14 2.5 26t1 21.5t-3.5 17.5t-5 13.5t-9.5 12t-10.5 9t-15 8.5t-16.5 7.5t-21 8.5z" />
<glyph unicode="|" horiz-adv-x="532" d="M27 -346l272 1945h215l-274 -1945h-213z" />
<glyph unicode="}" horiz-adv-x="700" d="M-57 -338l16 186q89 0 127.5 27t48.5 102l60 431q18 114 70.5 172.5t185.5 93.5q-115 20 -153 85t-17 195l45 312q9 70 -18.5 95t-117.5 25l11 187q118 16 204.5 0t134 -57.5t66 -100.5t8.5 -133l-51 -373q-2 -18 -3 -32t-2.5 -25.5t1.5 -20t3.5 -15t7 -12t9 -8.5 t14 -7.5t16.5 -6t21.5 -6.5t24.5 -8l-26 -197q-37 -13 -48 -17.5t-34 -17t-31 -24t-16.5 -32.5t-12.5 -50l-69 -487q-11 -79 -41 -135t-86.5 -96t-141.5 -51t-206 1z" />
<glyph unicode="~" horiz-adv-x="1046" d="M104 451q-1 147 53 220.5t136 71.5q71 -2 226 -51t181 -53q52 -8 74.5 15.5t30.5 82.5l135 -10q1 -146 -50 -220t-138 -71q-58 2 -141 25.5t-160.5 49.5t-108.5 30q-51 7 -72.5 -17.5t-29.5 -85.5z" />
<glyph unicode="&#xa1;" horiz-adv-x="579" d="M4 -379l76 547l90 422h238l-29 -422l-76 -547h-299zM182 838l13 98q15 102 116 102h66q115 0 100 -112l-14 -99q-6 -52 -33.5 -76t-81.5 -24h-65q-116 0 -101 111z" />
<glyph unicode="&#xa2;" horiz-adv-x="1060" d="M98 723q39 278 156.5 396t368.5 124l43 170h227l-47 -184q115 -16 188 -51l-43 -185q-234 4 -301 4q-71 0 -115.5 -11.5t-78.5 -44t-53 -87.5t-31 -145q-8 -62 -9.5 -105.5t6 -76t20.5 -51.5t38 -30.5t55 -15.5t76 -4q188 0 317 18l19 -198q-137 -59 -340 -66l-45 -180 h-225l49 197q-173 36 -240.5 162.5t-34.5 363.5z" />
<glyph unicode="&#xa3;" horiz-adv-x="1189" d="M18 0l31 256q193 81 211 330l6 80h-157l20 159h147l17 236q10 117 41.5 192t91.5 115.5t133.5 55t185.5 14.5q183 0 426 -21l-30 -233q-88 2 -363 2q-96 0 -136.5 -31t-47.5 -117l-12 -213h364l-31 -159h-344l-6 -93q-6 -88 -31.5 -151.5t-62.5 -103.5t-100 -85 q53 19 149 19h541l-35 -252h-1008z" />
<glyph unicode="&#xa4;" horiz-adv-x="1198" d="M74 373l155 139q-43 94 -28 221q18 132 90 228l-133 147l135 125l135 -154q103 58 225 58q134 0 228 -66l155 141l121 -137l-160 -141q47 -100 29 -225q-15 -127 -88 -222l137 -149l-135 -123l-137 152q-105 -60 -232 -60q-131 0 -225 66l-151 -135zM373 719 q-13 -112 44.5 -178t162.5 -66q113 0 187.5 68t86.5 184q13 111 -44.5 176.5t-164.5 65.5q-114 0 -186 -67t-86 -183z" />
<glyph unicode="&#xa5;" horiz-adv-x="1337" d="M139 293l21 158h325l2 24l-20 64h-293l21 157h217l-250 717h313l158 -524q23 -90 26 -182h25q15 81 72 186l307 520h334l-451 -717h213l-22 -157h-289l-49 -78l-2 -10h329l-22 -158h-328l-41 -293h-315l43 293h-324z" />
<glyph unicode="&#xa6;" horiz-adv-x="534" d="M29 -346l114 819h213l-114 -819h-213zM186 780l117 819h213l-117 -819h-213z" />
<glyph unicode="&#xa7;" horiz-adv-x="1112" d="M-6 -342l35 217q212 -8 329 -8q49 0 78.5 1.5t62 6.5t50.5 14.5t31.5 27t17.5 42.5q8 44 -11 71.5t-65 55.5l-250 150q-150 82 -174 202.5t58 296.5l213 -6q-17 -78 -13.5 -130t28.5 -86t85 -73l289 -178q18 -11 30 -19t29 -21.5t28.5 -25t25.5 -28.5t22.5 -34.5 t16.5 -40.5t11.5 -48t3.5 -56t-5 -65q-10 -74 -37 -126.5t-64.5 -84t-96 -50t-120.5 -24.5t-149 -6q-239 0 -459 25zM173 1029.5q-9 52.5 1 119.5q10 73 37.5 125.5t67 84t98.5 50t120 25t144 6.5q247 0 461 -25l-35 -217q-92 6 -346 6q-120 2 -168 -14t-57 -72 q-6 -44 15 -74t71 -61l243 -145q76 -44 118 -95t53 -113.5t-3.5 -133t-54.5 -162.5l-211 6q23 119 3.5 179t-105.5 116l-287 184q-44 29 -72.5 54.5t-56 64.5t-36.5 91.5z" />
<glyph unicode="&#xa8;" horiz-adv-x="866" d="M244 1257l20 127q5 34 22 50t52 16h102q36 0 49.5 -15.5t8.5 -48.5l-21 -129q-3 -32 -19 -46.5t-48 -14.5h-109q-63 0 -57 61zM602 1257l21 129q5 34 21 49t50 15h105q66 0 57 -64l-20 -129q-5 -32 -20.5 -46.5t-47.5 -14.5h-109q-63 0 -57 61z" />
<glyph unicode="&#xa9;" horiz-adv-x="1660" d="M106 719q19 157 85.5 290.5t169.5 228.5t245 148.5t307 53.5q221 0 382.5 -93t238 -263t51.5 -390q-18 -158 -84.5 -291t-170 -228t-247 -148.5t-309.5 -53.5q-223 0 -384 94t-235.5 263.5t-48.5 388.5zM256 694q-28 -263 111.5 -422t402.5 -159q268 0 451.5 166 t214.5 440q28 259 -110 420t-404 161q-272 0 -454.5 -167t-211.5 -439zM459 721q16 121 47 199.5t87.5 127t134.5 68t194 19.5q133 0 260 -31l-25 -162q-180 4 -237 4q-64 0 -100 -7.5t-65 -33t-44 -72t-25 -126.5q-19 -139 8 -185.5t123 -46.5q167 -3 279 8l12 -164 q-120 -36 -277 -36q-241 0 -322.5 96.5t-49.5 341.5z" />
<glyph unicode="&#xaa;" horiz-adv-x="917" d="M133 915q9 68 25.5 120.5t36 88t48.5 60.5t55.5 38.5t67 21t73 9.5t81.5 2q92 1 194 -11t165 -30l-93 -651h-174l-2 111q-104 -122 -270 -125q-135 -4 -184 84t-23 282zM354 757.5q10 -32.5 56 -30.5q82 0 198 119l35 252h-104q-40 0 -63 -3t-44.5 -13t-33 -31t-21 -54 t-17.5 -86q-16 -121 -6 -153.5z" />
<glyph unicode="&#xab;" horiz-adv-x="1050" d="M57 487l4 66l361 399l143 -106l-250 -332l181 -346l-154 -102zM481 487l4 66l361 399l143 -106l-250 -332l181 -346l-154 -102z" />
<glyph unicode="&#xac;" horiz-adv-x="1185" d="M102 508l33 223h940l-65 -455h-234l33 232h-707z" />
<glyph unicode="&#xad;" horiz-adv-x="847" d="M92 422l29 199h608l-27 -199h-610z" />
<glyph unicode="&#xae;" horiz-adv-x="1075" d="M137 995q25 203 159 324t343 121q93 0 172 -31.5t135 -90t83 -148t15 -197.5q-25 -206 -158.5 -325.5t-338.5 -119.5t-320.5 131t-89.5 336zM223 979q-18 -174 74 -272.5t254 -98.5q175 0 281.5 103t125.5 284q17 170 -73.5 266.5t-251.5 96.5q-177 0 -283 -103 t-127 -276zM354 752l68 477q70 6 213 6q50 0 85.5 -6t64 -22t40 -46.5t4.5 -75.5q-5 -45 -29 -72t-79 -38l-2 -4q23 -6 35.5 -22.5t19.5 -53.5l29 -143h-133l-23 145q-4 22 -14.5 29.5t-32.5 7.5h-92l-25 -182h-129zM520 1018h84q50 2 70 13.5t26 51.5q4 36 -8.5 48 t-54.5 12h-100z" />
<glyph unicode="&#xaf;" horiz-adv-x="819" d="M205 1225l26 194h613l-27 -194h-612z" />
<glyph unicode="&#xb0;" horiz-adv-x="710" d="M156 1178q11 115 90.5 186.5t202.5 71.5q126 0 201.5 -80.5t62.5 -200.5q-12 -117 -93 -188.5t-204 -71.5q-127 0 -199.5 81.5t-60.5 201.5zM315 1171q-6 -58 24.5 -92.5t86.5 -34.5q54 0 88.5 32t38.5 87q5 54 -24.5 88.5t-86.5 34.5q-55 0 -88.5 -31t-38.5 -84z" />
<glyph unicode="&#xb1;" horiz-adv-x="1169" d="M47 92l33 221h932l-33 -221h-932zM127 651l33 223h352l35 246h225l-35 -246h355l-33 -223h-354l-35 -243h-224l35 243h-354z" />
<glyph unicode="&#xb2;" horiz-adv-x="884" d="M133 737l19 121q6 60 47 96l233 191q195 156 195 223q0 23 -26 31t-79 8q-96 0 -278 -6l16 172q153 26 309 26q84 0 139 -7t97.5 -25.5t62 -52.5t19.5 -87q0 -84 -51 -155t-140 -144l-245 -200q56 10 127 10l270 -4l-31 -197h-684z" />
<glyph unicode="&#xb3;" horiz-adv-x="845" d="M129 743l31 168q115 -6 260 -6q94 0 134 26t40 99q0 33 -26 49.5t-93 16.5l-176 4l20 151l177 2q73 2 104 27t31 84q0 32 -26 42.5t-97 10.5q-190 0 -258 -2l14 164q174 23 301 23q159 0 230 -33.5t71 -114.5q0 -114 -47.5 -184t-144.5 -80v-4q82 -12 118.5 -48.5 t36.5 -103.5q0 -173 -88.5 -243t-275.5 -70q-153 0 -336 22z" />
<glyph unicode="&#xb4;" horiz-adv-x="722" d="M197 1204l446 307l117 -219l-488 -219z" />
<glyph unicode="&#xb5;" horiz-adv-x="1249" d="M8 -389l94 668v6l11 67l8 64l84 594h303l-96 -664q-6 -55 14.5 -79.5t71.5 -24.5q24 0 50 7.5t56 24t58.5 47t54.5 71t47.5 101.5t34.5 134l-2 -17l55 400h303l-102 -738q-9 -50 -1.5 -71t38.5 -21h81l-8 -162q-138 -43 -243 -43q-195 0 -181 183l2 20q-63 -97 -154 -151 t-202 -54h-25l-16 -106l-74 -256h-262z" />
<glyph unicode="&#xb6;" horiz-adv-x="1210" d="M100 934q40 278 197 391t496 113q210 0 356 -35l-197 -1403h-198l176 1251q-90 4 -123 4l-238 -1685h-198l116 842q-234 26 -327.5 154.5t-59.5 367.5z" />
<glyph unicode="&#xb7;" horiz-adv-x="514" d="M94 485l15 99q7 52 35 75t81 23h76q115 0 100 -111l-14 -98q-6 -51 -33.5 -75.5t-81.5 -24.5h-75q-115 0 -103 112z" />
<glyph unicode="&#xb8;" horiz-adv-x="507" d="M-82 -485l41 131q76 -2 133 28.5t68 89.5q5 25 -15 32t-102 7l31 119q98 11 165.5 6.5t98.5 -41t18 -108.5q-24 -147 -146 -217.5t-292 -46.5z" />
<glyph unicode="&#xb9;" horiz-adv-x="628" d="M182 1501l240 84h231l-118 -848h-232l78 555q10 60 25 103l-220 -43z" />
<glyph unicode="&#xba;" horiz-adv-x="894" d="M127 911q26 193 114.5 271t278.5 78q202 0 279.5 -85.5t48.5 -285.5q-26 -191 -113.5 -266.5t-279.5 -75.5q-198 0 -276.5 84t-51.5 280zM354 889q-14 -102 7 -141t98 -39q78 0 111.5 41.5t50.5 160.5q15 112 -6.5 148.5t-96.5 36.5q-82 0 -114.5 -41.5t-49.5 -165.5z " />
<glyph unicode="&#xbb;" horiz-adv-x="1054" d="M37 168l250 332l-181 346l154 102l285 -422l-4 -65l-361 -400zM461 168l250 332l-181 346l154 102l285 -422l-4 -65l-361 -400z" />
<glyph unicode="&#xbc;" horiz-adv-x="1849" d="M156 1329l233 84h232l-119 -848h-232l78 561q13 73 23 103l-209 -49zM221 0l1051 1413h203l-1051 -1413h-203zM964 221.5q-26 45.5 9 108.5l301 518h215l-268 -479q-14 -33 18 -33h197l28 209l58 137h174l-49 -346h104l-20 -141l-107 -17l-25 -178h-208l24 176h-362 q-63 0 -89 45.5z" />
<glyph unicode="&#xbd;" horiz-adv-x="1859" d="M156 1329l233 84h232l-119 -848h-234l80 561q6 51 23 103l-209 -49zM211 0l1049 1413h202l-1050 -1413h-201zM1020 0l18 127q7 64 37 94l234 189q170 133 198 206q13 33 -8.5 45.5t-73.5 12.5q-99 0 -286 -6v168q140 26 299 26q90 0 148.5 -8.5t105.5 -32.5t63.5 -70.5 t5.5 -117.5q-15 -115 -172 -242l-262 -201q52 11 125 11l277 -4l-27 -197h-682z" />
<glyph unicode="&#xbe;" horiz-adv-x="2007" d="M92 569l14 168q121 -6 263 -6q90 0 128 26t46 85q7 41 -13.5 61.5t-87.5 20.5l-188 2l20 151h183q65 0 91.5 26.5t29.5 72.5q6 40 -14 53.5t-87 13.5q-40 0 -128.5 -1t-135.5 -1l-2 164q146 22 293 22q185 0 251.5 -46t51.5 -162q-10 -86 -50.5 -139.5t-131.5 -63.5 l-11 -6q98 -13 133.5 -69t24.5 -155q-10 -83 -45 -134t-111 -79t-200 -28t-324 24zM406 0l1048 1413h203l-1049 -1413h-202zM1125.5 222.5q-25.5 46.5 9.5 109.5l299 518h217l-271 -479q-14 -33 19 -33h196l29 207l57 139h174l-49 -346h105l-21 -141l-106 -19l-25 -176h-209 l25 174h-361q-63 0 -88.5 46.5z" />
<glyph unicode="&#xbf;" horiz-adv-x="1042" d="M-41 -88q8 60 34 112.5t63 93t80.5 79t88 79t84 84t71 103t46.5 127.5h242q-10 -102 -49 -189t-89 -146t-99.5 -108t-90 -97.5t-51.5 -92.5q-18 -65 16.5 -96t132.5 -31q263 0 422 10l-2 -207q-12 -2 -61.5 -11.5t-61.5 -11.5t-53.5 -8.5t-64.5 -8t-65.5 -4.5t-86.5 -4 t-98 -1q-222 0 -325.5 87.5t-82.5 240.5zM442 842l13 100q12 100 114 100h66q118 0 100 -112l-14 -99q-6 -52 -33.5 -76t-81.5 -24h-65q-114 0 -99 111z" />
<glyph unicode="&#xc0;" horiz-adv-x="1325" d="M-80 0l594 1337q13 36 43.5 56t69.5 20h295q38 0 67.5 -25.5t32.5 -62.5l221 -1325h-311l-47 369h-488l-151 -369h-326zM397 1712l135 199l418 -303l-100 -129zM500 616h352l-55 428q-7 55 -11 138h-59q-29 -85 -49 -135z" />
<glyph unicode="&#xc1;" horiz-adv-x="1325" d="M-80 0l594 1337q13 36 43.5 56t69.5 20h295q38 0 67.5 -25.5t32.5 -62.5l221 -1325h-311l-47 369h-488l-151 -369h-326zM500 616h352l-55 428q-7 55 -11 138h-59q-29 -85 -49 -135zM635 1610l446 307l117 -219l-487 -219z" />
<glyph unicode="&#xc2;" horiz-adv-x="1325" d="M-80 0l594 1337q13 36 43.5 56t69.5 20h295q38 0 67.5 -25.5t32.5 -62.5l221 -1325h-311l-47 369h-488l-151 -369h-326zM418 1593l303 273h209l260 -285l-92 -106l-269 200h-16l-319 -196zM500 616h352l-55 428q-7 55 -11 138h-59q-29 -85 -49 -135z" />
<glyph unicode="&#xc3;" horiz-adv-x="1325" d="M-80 0l594 1337q13 36 43.5 56t69.5 20h295q38 0 67.5 -25.5t32.5 -62.5l221 -1325h-311l-47 369h-488l-151 -369h-326zM440 1556q1 144 55 216t138 69q52 -3 109 -24t110.5 -44.5t89.5 -29.5q55 -10 79 13.5t32 80.5l127 -12q3 -141 -49.5 -213.5t-139.5 -69.5 q-73 5 -178 51.5t-135 51.5q-54 7 -77.5 -17.5t-31.5 -83.5zM500 616h352l-55 428q-7 55 -11 138h-59q-29 -85 -49 -135z" />
<glyph unicode="&#xc4;" horiz-adv-x="1325" d="M-80 0l594 1337q13 36 43.5 56t69.5 20h295q38 0 67.5 -25.5t32.5 -62.5l221 -1325h-311l-47 369h-488l-151 -369h-326zM500 616h352l-55 428q-7 55 -11 138h-59q-29 -85 -49 -135zM508 1622l20 127q5 34 22 50t52 16h103q36 0 49 -15.5t8 -48.5l-21 -129 q-3 -32 -19 -46.5t-48 -14.5h-109q-63 0 -57 61zM866 1622l21 129q5 34 21 49t50 15h105q66 0 57 -64l-20 -129q-5 -32 -20.5 -46.5t-47.5 -14.5h-108q-64 0 -58 61z" />
<glyph unicode="&#xc5;" horiz-adv-x="1325" d="M-80 0l594 1337q13 36 43.5 56t69.5 20h295q38 0 67.5 -25.5t32.5 -62.5l221 -1325h-311l-47 369h-488l-151 -369h-326zM500 616h352l-55 428q-7 55 -11 138h-59q-29 -85 -49 -135zM575 1677q0 109 72 179.5t182 70.5q100 0 166 -59.5t66 -153.5q0 -109 -72 -180.5 t-182 -71.5q-100 0 -166 60t-66 155zM717 1690q0 -45 25.5 -73t70.5 -28q47 0 77 31.5t30 81.5q0 45 -26 72.5t-71 27.5q-50 0 -78 -30.5t-28 -81.5z" />
<glyph unicode="&#xc6;" horiz-adv-x="1906" d="M-104 0l753 1149q67 105 140 160.5t184.5 80.5t292.5 25q452 0 665 -16l-39 -230h-497q-58 0 -88 -24.5t-39 -85.5l-31 -217h532l-26 -215h-537l-39 -277q-6 -59 14 -82.5t79 -23.5h501l-8 -230q-195 -20 -604 -20q-147 0 -223 86t-54 231l11 70h-416l-246 -381h-325z M625 629l293 -2l63 460q4 36 21.5 74t39.5 62h-14q-45 -42 -96 -119z" />
<glyph unicode="&#xc7;" horiz-adv-x="1193" d="M111 719q24 167 59.5 285t87.5 203.5t128 135t173.5 72.5t231.5 23q141 0 231 -11.5t190 -37.5l-41 -232q-166 10 -393 10q-82 0 -133.5 -17.5t-94 -69t-68.5 -143.5t-46 -243q-15 -109 -18 -181.5t5.5 -126.5t35 -83.5t67 -43t103.5 -13.5q245 -3 428 18l12 -233 q-103 -31 -204.5 -43.5t-246.5 -12.5q-327 0 -445 173t-62 571zM281 -520l41 131q76 -2 132.5 29t67.5 90q5 25 -14.5 32t-101.5 7l30 118q98 11 166 6.5t99 -41t18 -108.5q-24 -147 -146 -217.5t-292 -46.5z" />
<glyph unicode="&#xc8;" horiz-adv-x="1171" d="M92 334l113 807q19 131 106 204.5t232 73.5q446 0 651 -22l-39 -230h-528q-59 0 -85.5 -24t-33.5 -86l-29 -213h555l-28 -221h-557l-39 -273q-8 -57 13 -80.5t79 -23.5h522l-8 -232q-180 -20 -613 -20q-173 0 -252.5 91t-58.5 249zM377 1737l135 198l418 -303l-101 -129z " />
<glyph unicode="&#xc9;" horiz-adv-x="1171" d="M92 334l113 807q19 131 106 204.5t232 73.5q446 0 651 -22l-39 -230h-528q-59 0 -85.5 -24t-33.5 -86l-29 -213h555l-28 -221h-557l-39 -273q-8 -57 13 -80.5t79 -23.5h522l-8 -232q-180 -20 -613 -20q-173 0 -252.5 91t-58.5 249zM614 1634l447 308l117 -220l-488 -219z " />
<glyph unicode="&#xca;" horiz-adv-x="1171" d="M92 334l113 807q19 131 106 204.5t232 73.5q446 0 651 -22l-39 -230h-528q-59 0 -85.5 -24t-33.5 -86l-29 -213h555l-28 -221h-557l-39 -273q-8 -57 13 -80.5t79 -23.5h522l-8 -232q-180 -20 -613 -20q-173 0 -252.5 91t-58.5 249zM397 1618l303 272h209l260 -284 l-92 -107l-268 201h-16l-320 -197z" />
<glyph unicode="&#xcb;" horiz-adv-x="1171" d="M92 334l113 807q19 131 106 204.5t232 73.5q446 0 651 -22l-39 -230h-528q-59 0 -85.5 -24t-33.5 -86l-29 -213h555l-28 -221h-557l-39 -273q-8 -57 13 -80.5t79 -23.5h522l-8 -232q-180 -20 -613 -20q-173 0 -252.5 91t-58.5 249zM487 1647l21 127q5 34 22 49.5t52 15.5 h102q36 0 49 -15t8 -48l-20 -129q-6 -62 -68 -62h-108q-64 0 -58 62zM846 1647l20 129q4 34 21 48.5t51 14.5h104q67 0 58 -63l-21 -129q-5 -33 -20 -47.5t-47 -14.5h-109q-63 0 -57 62z" />
<glyph unicode="&#xcc;" horiz-adv-x="598" d="M35 1712l135 199l418 -303l-101 -129zM57 0l199 1413h313l-198 -1413h-314z" />
<glyph unicode="&#xcd;" horiz-adv-x="598" d="M57 0l199 1413h313l-198 -1413h-314zM272 1610l447 307l117 -219l-488 -219z" />
<glyph unicode="&#xce;" horiz-adv-x="598" d="M55 1593l303 273h209l260 -285l-92 -106l-268 200h-16l-320 -196zM57 0l199 1413h313l-198 -1413h-314z" />
<glyph unicode="&#xcf;" horiz-adv-x="598" d="M57 0l199 1413h313l-198 -1413h-314zM145 1622l21 127q5 34 22 50t52 16h102q36 0 49 -15.5t8 -48.5l-20 -129q-3 -32 -19.5 -46.5t-48.5 -14.5h-108q-64 0 -58 61zM504 1622l20 129q5 34 21.5 49t50.5 15h104q67 0 58 -64l-21 -129q-5 -33 -20 -47t-47 -14h-109 q-63 0 -57 61z" />
<glyph unicode="&#xd0;" horiz-adv-x="1388" d="M39 668l20 155h115l82 590q279 19 506 19q99 0 177 -11t143 -36t110 -65t76.5 -97.5t45 -134.5t12 -174.5t-18.5 -219.5q-16 -115 -36.5 -205.5t-48 -163t-59.5 -125t-76 -91t-92 -63t-112.5 -39t-132.5 -20t-158 -5.5q-233 0 -535 18l95 668h-113zM401 229q66 -2 187 -2 q65 0 110 7t86.5 26.5t69.5 53.5t52.5 89.5t41.5 132t31 183.5q15 103 20 173t-0.5 124.5t-21 86t-47.5 51.5t-73.5 27t-104.5 7q-26 0 -100.5 -1t-116.5 -1l-50 -363h250l-20 -155h-252z" />
<glyph unicode="&#xd1;" horiz-adv-x="1468" d="M57 0l185 1307q8 56 35.5 81t82.5 25h172q46 0 70 -23.5t45 -74.5l273 -729q46 -115 73 -230h25q0 122 14 228l113 829h297l-185 -1307q-8 -56 -34.5 -81t-81.5 -25h-174q-47 0 -70.5 22.5t-46.5 75.5l-281 754q-38 97 -61 213h-21q-3 -125 -16 -221l-117 -844h-297z M516 1556q1 144 55 216t138 69q52 -3 109 -24t110.5 -44.5t89.5 -29.5q55 -10 78.5 13.5t31.5 80.5l127 -12q3 -141 -49 -213.5t-139 -69.5q-73 5 -178 51.5t-135 51.5q-54 7 -77.5 -17.5t-31.5 -83.5z" />
<glyph unicode="&#xd2;" d="M93.5 498.5q1.5 98.5 17.5 220.5q29 208 77.5 344t131.5 221t196 120.5t279 35.5q107 0 189.5 -16t149 -52t107.5 -93.5t66 -140t24 -193t-18 -251.5q-23 -170 -60 -291t-90 -205t-130.5 -133t-173.5 -70.5t-226 -21.5q-94 0 -168.5 11.5t-136.5 37t-105.5 66t-73.5 99 t-43.5 136t-12 176zM418.5 503q-3.5 -77 6 -133t37.5 -86.5t70 -44.5t107 -14q110 0 174.5 43.5t104.5 147.5t69 303q17 116 20 194.5t-7 134t-38.5 85t-70.5 42.5t-107 13q-84 0 -138 -21t-94.5 -79t-66 -150t-47.5 -244q-16 -114 -19.5 -191zM424 1712l135 199l418 -303 l-100 -129z" />
<glyph unicode="&#xd3;" d="M93.5 498.5q1.5 98.5 17.5 220.5q29 208 77.5 344t131.5 221t196 120.5t279 35.5q107 0 189.5 -16t149 -52t107.5 -93.5t66 -140t24 -193t-18 -251.5q-23 -170 -60 -291t-90 -205t-130.5 -133t-173.5 -70.5t-226 -21.5q-94 0 -168.5 11.5t-136.5 37t-105.5 66t-73.5 99 t-43.5 136t-12 176zM418.5 503q-3.5 -77 6 -133t37.5 -86.5t70 -44.5t107 -14q110 0 174.5 43.5t104.5 147.5t69 303q17 116 20 194.5t-7 134t-38.5 85t-70.5 42.5t-107 13q-84 0 -138 -21t-94.5 -79t-66 -150t-47.5 -244q-16 -114 -19.5 -191zM662 1610l446 307l117 -219 l-488 -219z" />
<glyph unicode="&#xd4;" d="M93.5 498.5q1.5 98.5 17.5 220.5q29 208 77.5 344t131.5 221t196 120.5t279 35.5q107 0 189.5 -16t149 -52t107.5 -93.5t66 -140t24 -193t-18 -251.5q-23 -170 -60 -291t-90 -205t-130.5 -133t-173.5 -70.5t-226 -21.5q-94 0 -168.5 11.5t-136.5 37t-105.5 66t-73.5 99 t-43.5 136t-12 176zM418.5 503q-3.5 -77 6 -133t37.5 -86.5t70 -44.5t107 -14q110 0 174.5 43.5t104.5 147.5t69 303q17 116 20 194.5t-7 134t-38.5 85t-70.5 42.5t-107 13q-84 0 -138 -21t-94.5 -79t-66 -150t-47.5 -244q-16 -114 -19.5 -191zM444 1593l304 273h208 l261 -285l-93 -106l-268 200h-16l-320 -196z" />
<glyph unicode="&#xd5;" d="M93.5 498.5q1.5 98.5 17.5 220.5q29 208 77.5 344t131.5 221t196 120.5t279 35.5q107 0 189.5 -16t149 -52t107.5 -93.5t66 -140t24 -193t-18 -251.5q-23 -170 -60 -291t-90 -205t-130.5 -133t-173.5 -70.5t-226 -21.5q-94 0 -168.5 11.5t-136.5 37t-105.5 66t-73.5 99 t-43.5 136t-12 176zM418.5 503q-3.5 -77 6 -133t37.5 -86.5t70 -44.5t107 -14q110 0 174.5 43.5t104.5 147.5t69 303q17 116 20 194.5t-7 134t-38.5 85t-70.5 42.5t-107 13q-84 0 -138 -21t-94.5 -79t-66 -150t-47.5 -244q-16 -114 -19.5 -191zM467 1556q1 144 54.5 216 t137.5 69q52 -3 109 -24t111 -44.5t90 -29.5q55 -10 78.5 13.5t31.5 80.5l127 -12q3 -141 -49 -213.5t-139 -69.5q-73 5 -178 51.5t-135 51.5q-54 7 -77.5 -17.5t-31.5 -83.5z" />
<glyph unicode="&#xd6;" d="M93.5 498.5q1.5 98.5 17.5 220.5q29 208 77.5 344t131.5 221t196 120.5t279 35.5q107 0 189.5 -16t149 -52t107.5 -93.5t66 -140t24 -193t-18 -251.5q-23 -170 -60 -291t-90 -205t-130.5 -133t-173.5 -70.5t-226 -21.5q-94 0 -168.5 11.5t-136.5 37t-105.5 66t-73.5 99 t-43.5 136t-12 176zM418.5 503q-3.5 -77 6 -133t37.5 -86.5t70 -44.5t107 -14q110 0 174.5 43.5t104.5 147.5t69 303q17 116 20 194.5t-7 134t-38.5 85t-70.5 42.5t-107 13q-84 0 -138 -21t-94.5 -79t-66 -150t-47.5 -244q-16 -114 -19.5 -191zM535 1622l20 127q5 34 22 50 t52 16h102q36 0 49 -15.5t8 -48.5l-20 -129q-3 -32 -19.5 -46.5t-48.5 -14.5h-108q-63 0 -57 61zM893 1622l20 129q5 34 21.5 49t50.5 15h105q66 0 57 -64l-21 -129q-5 -33 -20 -47t-47 -14h-109q-63 0 -57 61z" />
<glyph unicode="&#xd7;" horiz-adv-x="1075" d="M53 356l312 246l-236 242l162 164l258 -263l352 279l121 -184l-317 -252l239 -244l-162 -172l-262 270l-344 -272z" />
<glyph unicode="&#xd8;" d="M94 -96l119 192q-165 165 -102 623q29 208 77.5 344t131.5 221t196 120.5t279 35.5q115 0 206 -21l132 221l217 -112l-133 -221q159 -169 96 -613q-23 -170 -60 -291t-90 -205t-130.5 -133t-173.5 -70.5t-226 -21.5q-99 0 -199 17l-123 -201zM418.5 503q-3.5 -77 6 -133 t37.5 -86.5t70 -44.5t107 -14q110 0 174.5 43.5t104.5 147.5t69 303q17 116 20 194.5t-7 134t-38.5 85t-70.5 42.5t-107 13q-84 0 -138 -21t-94.5 -79t-66 -150t-47.5 -244q-16 -114 -19.5 -191z" />
<glyph unicode="&#xd9;" horiz-adv-x="1386" d="M117.5 341q-12.5 99 7.5 228l119 844h313l-121 -856q-28 -192 13.5 -262t183.5 -70q147 0 212.5 74t94.5 270l119 844h313l-123 -856q-46 -323 -183.5 -453.5t-432.5 -130.5q-119 0 -208.5 20.5t-156 65t-102.5 114t-48.5 168.5zM424 1712l135 199l418 -303l-100 -129z " />
<glyph unicode="&#xda;" horiz-adv-x="1386" d="M117.5 341q-12.5 99 7.5 228l119 844h313l-121 -856q-28 -192 13.5 -262t183.5 -70q147 0 212.5 74t94.5 270l119 844h313l-123 -856q-46 -323 -183.5 -453.5t-432.5 -130.5q-119 0 -208.5 20.5t-156 65t-102.5 114t-48.5 168.5zM662 1610l446 307l117 -219l-488 -219z " />
<glyph unicode="&#xdb;" horiz-adv-x="1386" d="M117.5 341q-12.5 99 7.5 228l119 844h313l-121 -856q-28 -192 13.5 -262t183.5 -70q147 0 212.5 74t94.5 270l119 844h313l-123 -856q-46 -323 -183.5 -453.5t-432.5 -130.5q-119 0 -208.5 20.5t-156 65t-102.5 114t-48.5 168.5zM444 1593l304 273h208l261 -285l-93 -106 l-268 200h-16l-320 -196z" />
<glyph unicode="&#xdc;" horiz-adv-x="1386" d="M117.5 341q-12.5 99 7.5 228l119 844h313l-121 -856q-28 -192 13.5 -262t183.5 -70q147 0 212.5 74t94.5 270l119 844h313l-123 -856q-46 -323 -183.5 -453.5t-432.5 -130.5q-119 0 -208.5 20.5t-156 65t-102.5 114t-48.5 168.5zM535 1622l20 127q5 34 22 50t52 16h102 q36 0 49 -15.5t8 -48.5l-20 -129q-3 -32 -19.5 -46.5t-48.5 -14.5h-108q-63 0 -57 61zM893 1622l20 129q5 34 21.5 49t50.5 15h105q66 0 57 -64l-21 -129q-5 -33 -20 -47t-47 -14h-109q-63 0 -57 61z" />
<glyph unicode="&#xdd;" horiz-adv-x="1239" d="M113 1413h313l160 -524q23 -90 26 -182h23q20 93 74 186l307 520h336l-600 -952l-64 -461h-315l67 477zM569 1610l447 307l117 -219l-488 -219z" />
<glyph unicode="&#xde;" horiz-adv-x="1247" d="M57 0l199 1413h313l-32 -239q57 2 202 2q139 0 231 -22.5t152 -77.5t78.5 -148t-0.5 -232q-19 -136 -55 -222.5t-100 -138t-149 -71.5t-214 -20q-148 0 -274 18l-37 -262h-314zM438 485h211q63 0 101 9t67.5 35.5t45.5 71.5t26 120q19 129 -12.5 172t-145.5 43 q-161 0 -229 -2z" />
<glyph unicode="&#xdf;" horiz-adv-x="1435" d="M-217 -377l47 201h131q81 0 116 27t48 108l119 848h-176l24 192l180 11l19 131q15 109 53 179.5t107 109.5t157 54t221 15q202 0 312 -33t147.5 -101t18.5 -185q-11 -67 -45.5 -127t-120.5 -127q-16 -12 -46 -34t-46 -34t-35 -29.5t-29.5 -33.5t-13.5 -33q-5 -29 14 -52 t67 -60q10 -7 15 -11l145 -109q86 -69 117.5 -132t18.5 -156q-23 -150 -118.5 -207.5t-303.5 -57.5q-143 0 -340 23l30 205q172 -4 242 -4q98 0 140 16.5t46 67.5q4 36 -16 62t-88 83l-135 92q-142 109 -123 244q4 29 17 56.5t27 47t45.5 48.5t52 45.5t67.5 52.5 q73 57 100 92t33 76q7 50 -27.5 71t-150.5 21q-139 0 -193 -36.5t-69 -143.5l-166 -1188q-24 -151 -111 -229t-254 -78q-80 0 -270 22z" />
<glyph unicode="&#xe0;" horiz-adv-x="1208" d="M76 524q14 100 37 177t51 131t68 92t79.5 60t96.5 34.5t108 16t123 3.5q109 0 261 -18.5t241 -42.5l-137 -977h-236l4 182q-157 -198 -416 -207q-191 -6 -257 124.5t-23 424.5zM293 1339l135 199l418 -303l-101 -129zM363 301.5q2 -35.5 14.5 -52.5t30.5 -23t49 -5 q137 3 301 191l59 403h-155q-51 0 -84 -3t-64 -14.5t-49.5 -30.5t-35.5 -52.5t-28 -80t-20 -114.5q-12 -81 -16 -132t-2 -86.5z" />
<glyph unicode="&#xe1;" horiz-adv-x="1208" d="M76 524q14 100 37 177t51 131t68 92t79.5 60t96.5 34.5t108 16t123 3.5q109 0 261 -18.5t241 -42.5l-137 -977h-236l4 182q-157 -198 -416 -207q-191 -6 -257 124.5t-23 424.5zM363 301.5q2 -35.5 14.5 -52.5t30.5 -23t49 -5q137 3 301 191l59 403h-155q-51 0 -84 -3 t-64 -14.5t-49.5 -30.5t-35.5 -52.5t-28 -80t-20 -114.5q-12 -81 -16 -132t-2 -86.5zM530 1237l447 307l117 -219l-488 -219z" />
<glyph unicode="&#xe2;" horiz-adv-x="1208" d="M76 524q14 100 37 177t51 131t68 92t79.5 60t96.5 34.5t108 16t123 3.5q109 0 261 -18.5t241 -42.5l-137 -977h-236l4 182q-157 -198 -416 -207q-191 -6 -257 124.5t-23 424.5zM313 1221l303 272h209l260 -285l-92 -106l-268 201h-16l-320 -197zM363 301.5 q2 -35.5 14.5 -52.5t30.5 -23t49 -5q137 3 301 191l59 403h-155q-51 0 -84 -3t-64 -14.5t-49.5 -30.5t-35.5 -52.5t-28 -80t-20 -114.5q-12 -81 -16 -132t-2 -86.5z" />
<glyph unicode="&#xe3;" horiz-adv-x="1208" d="M76 524q14 100 37 177t51 131t68 92t79.5 60t96.5 34.5t108 16t123 3.5q109 0 261 -18.5t241 -42.5l-137 -977h-236l4 182q-157 -198 -416 -207q-191 -6 -257 124.5t-23 424.5zM336 1184q1 144 54.5 215.5t137.5 68.5q52 -3 109 -24t111 -44.5t90 -29.5q55 -10 78.5 13.5 t31.5 80.5l127 -12q3 -141 -49 -213.5t-139 -69.5q-73 5 -178.5 51.5t-135.5 51.5q-54 7 -77 -17.5t-31 -83.5zM363 301.5q2 -35.5 14.5 -52.5t30.5 -23t49 -5q137 3 301 191l59 403h-155q-51 0 -84 -3t-64 -14.5t-49.5 -30.5t-35.5 -52.5t-28 -80t-20 -114.5 q-12 -81 -16 -132t-2 -86.5z" />
<glyph unicode="&#xe4;" horiz-adv-x="1208" d="M76 524q14 100 37 177t51 131t68 92t79.5 60t96.5 34.5t108 16t123 3.5q109 0 261 -18.5t241 -42.5l-137 -977h-236l4 182q-157 -198 -416 -207q-191 -6 -257 124.5t-23 424.5zM363 301.5q2 -35.5 14.5 -52.5t30.5 -23t49 -5q137 3 301 191l59 403h-155q-51 0 -84 -3 t-64 -14.5t-49.5 -30.5t-35.5 -52.5t-28 -80t-20 -114.5q-12 -81 -16 -132t-2 -86.5zM403 1249l21 127q5 34 22 50t52 16h102q36 0 49 -15.5t8 -48.5l-20 -129q-3 -32 -19.5 -46.5t-48.5 -14.5h-108q-64 0 -58 61zM762 1249l20 129q5 34 21.5 49t50.5 15h104q67 0 58 -64 l-21 -129q-5 -33 -20 -47t-47 -14h-109q-63 0 -57 61z" />
<glyph unicode="&#xe5;" horiz-adv-x="1208" d="M76 524q14 100 37 177t51 131t68 92t79.5 60t96.5 34.5t108 16t123 3.5q109 0 261 -18.5t241 -42.5l-137 -977h-236l4 182q-157 -198 -416 -207q-191 -6 -257 124.5t-23 424.5zM363 301.5q2 -35.5 14.5 -52.5t30.5 -23t49 -5q137 3 301 191l59 403h-155q-51 0 -84 -3 t-64 -14.5t-49.5 -30.5t-35.5 -52.5t-28 -80t-20 -114.5q-12 -81 -16 -132t-2 -86.5zM471 1305q0 109 72 179t182 70q99 0 165 -59.5t66 -153.5q0 -109 -72 -180t-182 -71q-100 0 -165.5 59.5t-65.5 155.5zM612 1317q0 -45 26 -72.5t71 -27.5q47 0 76.5 31t29.5 81 q0 45 -25.5 73t-70.5 28q-50 0 -78.5 -31t-28.5 -82z" />
<glyph unicode="&#xe6;" horiz-adv-x="1822" d="M76 524q12 87 29.5 157t41.5 122t49.5 90t61.5 64t70 42t81.5 24.5t89.5 11.5t101 3q228 0 440 -39q108 39 295 39q136 0 227.5 -23.5t138.5 -70.5t61.5 -108.5t2.5 -145.5q-21 -144 -116 -205t-295 -75l-301 -25q4 -100 51.5 -134t152.5 -34q189 0 381 23l19 -193 q-167 -72 -434 -72q-359 0 -445 222q-75 -100 -182.5 -159t-239.5 -63q-191 -6 -256 124t-24 425zM366.5 326q2.5 -67 22 -87t68.5 -18q134 3 288 178q0 59 9 127q21 184 77 287q-70 2 -172 2q-52 0 -84 -3t-62.5 -14.5t-48 -30t-33.5 -53t-26 -80t-20 -114.5 q-21 -127 -18.5 -194zM1071 565l238 23q82 6 118.5 33t45.5 98q6 67 -25.5 83.5t-132.5 14.5q-121 0 -169.5 -49.5t-74.5 -202.5z" />
<glyph unicode="&#xe7;" horiz-adv-x="1038" d="M68 518q40 285 164 402.5t393 117.5q240 0 387 -65l-41 -185q-297 5 -305 5q-72 0 -117.5 -12t-80.5 -44.5t-54.5 -88t-30.5 -144.5q-8 -62 -9.5 -105.5t6 -76t20.5 -51.5t38.5 -30.5t56 -15.5t76.5 -4q183 0 320 19l20 -199q-158 -66 -393 -66q-273 0 -382 127.5 t-68 415.5zM188 -510l41 131q76 -2 133 29t68 90q5 25 -15 32t-102 7l31 119q98 11 166 6.5t99 -41.5t18 -109q-24 -147 -146.5 -217.5t-292.5 -46.5z" />
<glyph unicode="&#xe8;" horiz-adv-x="1146" d="M70 526q15 122 44.5 209t75 146.5t114 93.5t152.5 48.5t199 14.5q137 0 229 -23.5t139 -70.5t61.5 -108.5t2.5 -145.5q-21 -144 -116.5 -205t-296.5 -75l-297 -25q3 -100 50.5 -134t150.5 -34q190 0 389 23l20 -193q-173 -72 -444 -72q-289 0 -397.5 134.5t-75.5 416.5z M283 1339l135 199l418 -303l-101 -129zM393 565l236 23q82 6 119.5 33t46.5 98q6 67 -26 83.5t-134 14.5q-118 0 -167 -50t-75 -202z" />
<glyph unicode="&#xe9;" horiz-adv-x="1146" d="M70 526q15 122 44.5 209t75 146.5t114 93.5t152.5 48.5t199 14.5q137 0 229 -23.5t139 -70.5t61.5 -108.5t2.5 -145.5q-21 -144 -116.5 -205t-296.5 -75l-297 -25q3 -100 50.5 -134t150.5 -34q190 0 389 23l20 -193q-173 -72 -444 -72q-289 0 -397.5 134.5t-75.5 416.5z M393 565l236 23q82 6 119.5 33t46.5 98q6 67 -26 83.5t-134 14.5q-118 0 -167 -50t-75 -202zM520 1237l447 307l116 -219l-487 -219z" />
<glyph unicode="&#xea;" horiz-adv-x="1146" d="M70 526q15 122 44.5 209t75 146.5t114 93.5t152.5 48.5t199 14.5q137 0 229 -23.5t139 -70.5t61.5 -108.5t2.5 -145.5q-21 -144 -116.5 -205t-296.5 -75l-297 -25q3 -100 50.5 -134t150.5 -34q190 0 389 23l20 -193q-173 -72 -444 -72q-289 0 -397.5 134.5t-75.5 416.5z M303 1221l303 272h209l260 -285l-92 -106l-268 201h-17l-319 -197zM393 565l236 23q82 6 119.5 33t46.5 98q6 67 -26 83.5t-134 14.5q-118 0 -167 -50t-75 -202z" />
<glyph unicode="&#xeb;" horiz-adv-x="1146" d="M70 526q15 122 44.5 209t75 146.5t114 93.5t152.5 48.5t199 14.5q137 0 229 -23.5t139 -70.5t61.5 -108.5t2.5 -145.5q-21 -144 -116.5 -205t-296.5 -75l-297 -25q3 -100 50.5 -134t150.5 -34q190 0 389 23l20 -193q-173 -72 -444 -72q-289 0 -397.5 134.5t-75.5 416.5z M393 565l236 23q82 6 119.5 33t46.5 98q6 67 -26 83.5t-134 14.5q-118 0 -167 -50t-75 -202zM393 1249l21 127q5 34 21.5 50t51.5 16h103q36 0 49 -15.5t8 -48.5l-20 -129q-3 -32 -19.5 -46.5t-48.5 -14.5h-108q-64 0 -58 61zM752 1249l20 129q5 34 21.5 49t50.5 15h104 q67 0 58 -64l-21 -129q-5 -33 -20 -47t-47 -14h-109q-63 0 -57 61z" />
<glyph unicode="&#xec;" horiz-adv-x="565" d="M-35 1339l135 199l418 -303l-100 -129zM47 0l141 1010h304l-142 -1010h-303z" />
<glyph unicode="&#xed;" horiz-adv-x="565" d="M47 0l141 1010h304l-142 -1010h-303zM203 1237l446 307l117 -219l-487 -219z" />
<glyph unicode="&#xee;" horiz-adv-x="565" d="M-14 1221l303 272h209l260 -285l-92 -106l-269 201h-16l-320 -197zM47 0l141 1010h304l-142 -1010h-303z" />
<glyph unicode="&#xef;" horiz-adv-x="565" d="M47 0l141 1010h304l-142 -1010h-303zM76 1249l20 127q5 34 22 50t52 16h102q36 0 49.5 -15.5t8.5 -48.5l-21 -129q-3 -32 -19 -46.5t-48 -14.5h-109q-63 0 -57 61zM434 1249l21 129q5 34 21 49t50 15h105q66 0 57 -64l-20 -129q-5 -32 -20.5 -46.5t-47.5 -14.5h-108 q-64 0 -58 61z" />
<glyph unicode="&#xf0;" horiz-adv-x="1179" d="M61 455q31 235 146.5 352t327.5 117q159 0 256 -76q-2 117 -29.5 194t-84.5 120t-135.5 57.5t-193.5 9.5l39 201q263 12 430 -72l193 166l145 -172l-166 -142q150 -213 96 -635q-40 -317 -175.5 -459.5t-411.5 -142.5q-500 0 -437 482zM377 444q-20 -138 10 -190.5 t129 -52.5q120 0 174 87t84 314l6 57q-76 46 -166 46q-113 0 -164.5 -61.5t-72.5 -199.5z" />
<glyph unicode="&#xf1;" horiz-adv-x="1220" d="M39 0l141 1010h238v-201q232 229 461 229q129 0 198.5 -74.5t48.5 -211.5l-106 -752h-301l92 662q9 72 -5 96.5t-63 23.5q-66 -1 -139 -39t-176 -120l-86 -623h-303zM344 1184q1 144 55 215.5t138 68.5q52 -3 109 -24t110.5 -44.5t89.5 -29.5q55 -10 78.5 13.5t31.5 80.5 l127 -12q3 -141 -49 -213.5t-139 -69.5q-73 5 -178 51.5t-135 51.5q-54 7 -77.5 -17.5t-31.5 -83.5z" />
<glyph unicode="&#xf2;" horiz-adv-x="1200" d="M68 516q40 287 169 404.5t408 117.5q281 0 391.5 -127t69.5 -419q-40 -285 -169 -402t-405 -117q-279 0 -392 126.5t-72 416.5zM283 1339l135 199l418 -303l-101 -129zM383 492q-25 -175 5.5 -233t150.5 -58q83 0 131 27t77 94t48 194q11 88 12.5 145.5t-17.5 90.5 t-53 46t-94 13q-86 0 -133.5 -25.5t-77.5 -93.5t-49 -200z" />
<glyph unicode="&#xf3;" horiz-adv-x="1200" d="M68 516q40 287 169 404.5t408 117.5q281 0 391.5 -127t69.5 -419q-40 -285 -169 -402t-405 -117q-279 0 -392 126.5t-72 416.5zM383 492q-25 -175 5.5 -233t150.5 -58q83 0 131 27t77 94t48 194q11 88 12.5 145.5t-17.5 90.5t-53 46t-94 13q-86 0 -133.5 -25.5 t-77.5 -93.5t-49 -200zM520 1237l447 307l116 -219l-487 -219z" />
<glyph unicode="&#xf4;" horiz-adv-x="1200" d="M68 516q40 287 169 404.5t408 117.5q281 0 391.5 -127t69.5 -419q-40 -285 -169 -402t-405 -117q-279 0 -392 126.5t-72 416.5zM303 1221l303 272h209l260 -285l-92 -106l-268 201h-17l-319 -197zM383 492q-25 -175 5.5 -233t150.5 -58q83 0 131 27t77 94t48 194 q11 88 12.5 145.5t-17.5 90.5t-53 46t-94 13q-86 0 -133.5 -25.5t-77.5 -93.5t-49 -200z" />
<glyph unicode="&#xf5;" horiz-adv-x="1200" d="M68 516q40 287 169 404.5t408 117.5q281 0 391.5 -127t69.5 -419q-40 -285 -169 -402t-405 -117q-279 0 -392 126.5t-72 416.5zM326 1184q1 144 54.5 215.5t137.5 68.5q52 -3 109 -24t110.5 -44.5t89.5 -29.5q55 -10 79 13.5t32 80.5l127 -12q3 -141 -49 -213.5 t-139 -69.5q-73 5 -178.5 51.5t-135.5 51.5q-54 7 -77 -17.5t-31 -83.5zM383 492q-25 -175 5.5 -233t150.5 -58q83 0 131 27t77 94t48 194q11 88 12.5 145.5t-17.5 90.5t-53 46t-94 13q-86 0 -133.5 -25.5t-77.5 -93.5t-49 -200z" />
<glyph unicode="&#xf6;" horiz-adv-x="1200" d="M68 516q40 287 169 404.5t408 117.5q281 0 391.5 -127t69.5 -419q-40 -285 -169 -402t-405 -117q-279 0 -392 126.5t-72 416.5zM383 492q-25 -175 5.5 -233t150.5 -58q83 0 131 27t77 94t48 194q11 88 12.5 145.5t-17.5 90.5t-53 46t-94 13q-86 0 -133.5 -25.5 t-77.5 -93.5t-49 -200zM393 1249l21 127q5 34 21.5 50t51.5 16h103q36 0 49 -15.5t8 -48.5l-20 -129q-3 -32 -19.5 -46.5t-48.5 -14.5h-108q-64 0 -58 61zM752 1249l20 129q5 34 21.5 49t50.5 15h104q67 0 58 -64l-21 -129q-5 -33 -20 -47t-47 -14h-109q-63 0 -57 61z" />
<glyph unicode="&#xf7;" horiz-adv-x="1120" d="M76 489l33 224h938l-33 -224h-938zM348 186l8 64q7 61 37 85.5t92 24.5h66q65 0 90 -26t16 -90l-10 -68q-7 -61 -35 -84.5t-90 -23.5h-69q-66 0 -90.5 27t-14.5 91zM457 954l10 66q7 62 36.5 86t92.5 24h66q65 0 90 -26t16 -90l-8 -66q-9 -61 -37 -85.5t-90 -24.5h-70 q-66 0 -90.5 26.5t-15.5 89.5z" />
<glyph unicode="&#xf8;" horiz-adv-x="1200" d="M68 516q40 287 169 404.5t408 117.5q74 0 146 -10l118 191l195 -107l-105 -166q153 -123 107 -454q-40 -285 -169 -402t-405 -117q-56 0 -124 7l-117 -189l-193 105l97 155q-175 123 -127 465zM383 492q-25 -175 5.5 -233t150.5 -58q83 0 131 27t77 94t48 194 q11 88 12.5 145.5t-17.5 90.5t-53 46t-94 13q-86 0 -133.5 -25.5t-77.5 -93.5t-49 -200z" />
<glyph unicode="&#xf9;" horiz-adv-x="1202" d="M70 258l104 752h303l-96 -670q-9 -62 8.5 -87.5t67.5 -25.5q64 0 127.5 35.5t165.5 120.5l88 627h299l-140 -1010h-235l2 190q-117 -111 -222 -164t-214 -53q-146 0 -212.5 75.5t-45.5 209.5zM289 1354l135 198l418 -303l-101 -129z" />
<glyph unicode="&#xfa;" horiz-adv-x="1202" d="M70 258l104 752h303l-96 -670q-9 -62 8.5 -87.5t67.5 -25.5q64 0 127.5 35.5t165.5 120.5l88 627h299l-140 -1010h-235l2 190q-117 -111 -222 -164t-214 -53q-146 0 -212.5 75.5t-45.5 209.5zM526 1251l447 308l117 -220l-488 -219z" />
<glyph unicode="&#xfb;" horiz-adv-x="1202" d="M70 258l104 752h303l-96 -670q-9 -62 8.5 -87.5t67.5 -25.5q64 0 127.5 35.5t165.5 120.5l88 627h299l-140 -1010h-235l2 190q-117 -111 -222 -164t-214 -53q-146 0 -212.5 75.5t-45.5 209.5zM309 1235l303 272h209l260 -284l-92 -107l-268 201h-16l-320 -197z" />
<glyph unicode="&#xfc;" horiz-adv-x="1202" d="M70 258l104 752h303l-96 -670q-9 -62 8.5 -87.5t67.5 -25.5q64 0 127.5 35.5t165.5 120.5l88 627h299l-140 -1010h-235l2 190q-117 -111 -222 -164t-214 -53q-146 0 -212.5 75.5t-45.5 209.5zM399 1264l21 127q5 34 22 49.5t52 15.5h102q36 0 49 -15t8 -48l-20 -129 q-6 -62 -68 -62h-108q-64 0 -58 62zM758 1264l20 129q4 34 21 48.5t51 14.5h104q67 0 58 -63l-21 -129q-5 -33 -20 -47.5t-47 -14.5h-109q-63 0 -57 62z" />
<glyph unicode="&#xfd;" horiz-adv-x="1183" d="M72 1010h325l97 -772q2 -14 11.5 -23.5t22.5 -9.5h82q1 3 4 9t4 9q85 176 140.5 357.5t95.5 429.5h320q-42 -234 -128 -476.5t-180 -416.5q-79 -143 -162 -243.5t-176 -162t-190 -92t-217 -39.5l-37 187q71 19 112.5 33t97 40t101.5 65.5t90 94.5h-120q-49 0 -83.5 28.5 t-43.5 73.5zM481 1237l447 307l116 -219l-487 -219z" />
<glyph unicode="&#xfe;" horiz-adv-x="1212" d="M-14 -389l254 1823h303l-39 -283q-22 -162 -49 -258l4 -14q162 155 370 155q72 0 124 -17.5t91.5 -57.5t58 -103.5t22.5 -156t-13 -214.5q-16 -125 -47.5 -217t-71.5 -148t-96.5 -89.5t-114 -45.5t-131.5 -12q-157 0 -313 25q-7 -91 -19 -148l-32 -239h-301zM369 188 q59 -2 157 -2q53 0 87 3.5t64.5 16t48 31.5t33 55t25 81.5t19.5 115.5q19 120 16.5 187t-23.5 91t-71 24q-82 0 -149.5 -47.5t-151.5 -145.5z" />
<glyph unicode="&#xff;" horiz-adv-x="1183" d="M72 1010h325l97 -772q2 -14 11.5 -23.5t22.5 -9.5h82q1 3 4 9t4 9q85 176 140.5 357.5t95.5 429.5h320q-42 -234 -128 -476.5t-180 -416.5q-79 -143 -162 -243.5t-176 -162t-190 -92t-217 -39.5l-37 187q71 19 112.5 33t97 40t101.5 65.5t90 94.5h-120q-49 0 -83.5 28.5 t-43.5 73.5zM354 1249l21 127q5 34 22 50t52 16h102q36 0 49 -15.5t8 -48.5l-20 -129q-3 -32 -19.5 -46.5t-48.5 -14.5h-108q-64 0 -58 61zM713 1249l20 129q5 34 21.5 49t50.5 15h104q67 0 58 -64l-21 -129q-5 -33 -20 -47t-47 -14h-109q-63 0 -57 61z" />
<glyph unicode="&#x152;" horiz-adv-x="1941" d="M89.5 464.5q1.5 109.5 21.5 254.5q24 171 61 291t89.5 204.5t129.5 133.5t174 70.5t230 21.5q112 0 191.5 -13.5t158.5 -44.5q70 37 166 37q448 0 653 -22l-39 -230h-522q-107 0 -119 -110l-29 -215h549l-26 -215h-553l-39 -283q-8 -54 11 -76t73 -22h524l-6 -232 q-184 -20 -619 -20q-125 0 -198 49q-85 -38 -164 -54t-184 -16q-115 0 -200 15.5t-150.5 51t-105 91.5t-59.5 140t-18.5 193.5zM418.5 504q-3.5 -77 5 -133t34.5 -87t66 -45t101 -14q139 0 237 29q0 17 4 57l115 830l6 30q-87 17 -192 17q-111 0 -178.5 -44.5t-109.5 -150 t-69 -299.5q-16 -113 -19.5 -190z" />
<glyph unicode="&#x153;" horiz-adv-x="1851" d="M68 516q40 286 168 404t403 118q222 0 340 -98q127 98 385 98q136 0 227.5 -23.5t138.5 -70.5t61.5 -108.5t2.5 -145.5q-21 -143 -116 -204.5t-294 -75.5l-297 -25q4 -100 51 -134t150 -34q187 0 379 23l19 -193q-167 -72 -435 -72q-229 0 -350 109q-134 -111 -375 -111 q-275 0 -387 126.5t-71 416.5zM371 348.5q-2 -56.5 16.5 -89.5t51.5 -45.5t93 -12.5q81 0 127.5 27t74.5 94t46 194q11 88 13.5 145.5t-15.5 90.5t-51 46t-92 13q-83 0 -129 -25.5t-75 -93.5t-48 -200q-10 -87 -12 -143.5zM1106 565l231 23q82 6 119.5 33t44.5 98 q6 67 -25.5 83.5t-132.5 14.5q-116 0 -163.5 -49.5t-73.5 -202.5z" />
<glyph unicode="&#x178;" horiz-adv-x="1239" d="M113 1413h313l160 -524q23 -90 26 -182h23q20 93 74 186l307 520h336l-600 -952l-64 -461h-315l67 477zM442 1622l21 127q5 34 22 50t52 16h102q36 0 49 -15.5t8 -48.5l-20 -129q-3 -32 -19.5 -46.5t-48.5 -14.5h-108q-64 0 -58 61zM801 1622l20 129q5 34 21.5 49 t50.5 15h104q67 0 58 -64l-21 -129q-5 -33 -20 -47t-47 -14h-109q-63 0 -57 61z" />
<glyph unicode="&#x2c6;" horiz-adv-x="917" d="M176 1214l303 273h209l260 -285l-92 -106l-268 200h-17l-319 -196z" />
<glyph unicode="&#x2dc;" horiz-adv-x="899" d="M193 1174q1 144 54.5 215.5t137.5 68.5q52 -3 109 -24t110.5 -44.5t89.5 -29.5q55 -10 79 13.5t32 80.5l127 -12q3 -141 -49.5 -213.5t-139.5 -69.5q-73 5 -178 51.5t-135 51.5q-54 7 -77 -17.5t-31 -83.5z" />
<glyph unicode="&#x2000;" horiz-adv-x="971" />
<glyph unicode="&#x2001;" horiz-adv-x="1942" />
<glyph unicode="&#x2002;" horiz-adv-x="971" />
<glyph unicode="&#x2003;" horiz-adv-x="1942" />
<glyph unicode="&#x2004;" horiz-adv-x="647" />
<glyph unicode="&#x2005;" horiz-adv-x="485" />
<glyph unicode="&#x2006;" horiz-adv-x="323" />
<glyph unicode="&#x2007;" horiz-adv-x="323" />
<glyph unicode="&#x2008;" horiz-adv-x="242" />
<glyph unicode="&#x2009;" horiz-adv-x="388" />
<glyph unicode="&#x200a;" horiz-adv-x="107" />
<glyph unicode="&#x2010;" horiz-adv-x="847" d="M94 422l29 199h608l-26 -199h-611z" />
<glyph unicode="&#x2011;" horiz-adv-x="847" d="M94 422l29 199h608l-26 -199h-611z" />
<glyph unicode="&#x2012;" horiz-adv-x="847" d="M94 422l29 199h608l-26 -199h-611z" />
<glyph unicode="&#x2013;" horiz-adv-x="1148" d="M94 422l29 199h909l-26 -199h-912z" />
<glyph unicode="&#x2014;" horiz-adv-x="1759" d="M94 422l29 199h1517l-28 -199h-1518z" />
<glyph unicode="&#x2018;" horiz-adv-x="458" d="M152 1014l18 119q10 83 49 174.5t92 162.5l127 -40q-56 -158 -73 -242q45 3 64.5 -19t14.5 -65l-16 -98q-9 -53 -35.5 -73t-85.5 -20h-63q-56 0 -77.5 23t-14.5 78z" />
<glyph unicode="&#x2019;" horiz-adv-x="454" d="M174 1257l16 99q9 53 35.5 72.5t85.5 19.5h64q56 0 77.5 -22.5t14.5 -77.5l-18 -119q-10 -82 -49.5 -174.5t-92.5 -163.5l-127 41q58 164 74 242q-45 -3 -65 19t-15 64z" />
<glyph unicode="&#x201a;" horiz-adv-x="479" d="M29 78l16 98q9 53 35.5 72.5t85.5 19.5h63q56 0 78 -22.5t15 -77.5l-19 -119q-10 -83 -49.5 -175t-91.5 -163l-127 41q58 164 74 242q-45 -3 -65 19.5t-15 64.5z" />
<glyph unicode="&#x201c;" horiz-adv-x="825" d="M152 1014l18 119q10 83 49 174.5t92 162.5l127 -40q-56 -158 -73 -242q45 3 64.5 -19t14.5 -65l-16 -98q-9 -53 -35.5 -73t-85.5 -20h-63q-56 0 -77.5 23t-14.5 78zM518 1014l19 119q10 83 49 174.5t92 162.5l127 -40q-58 -164 -74 -242q45 3 65 -19.5t15 -64.5l-16 -98 q-9 -53 -35.5 -73t-85.5 -20h-64q-56 0 -77.5 23t-14.5 78z" />
<glyph unicode="&#x201d;" horiz-adv-x="823" d="M174 1257l16 99q9 53 35.5 72.5t85.5 19.5h64q56 0 77.5 -22.5t14.5 -77.5l-18 -119q-10 -82 -49.5 -174.5t-92.5 -163.5l-127 41q58 164 74 242q-45 -3 -65 19t-15 64zM543 1257l16 99q9 53 35.5 72.5t85.5 19.5h63q56 0 78 -22.5t15 -77.5l-19 -119q-10 -83 -49.5 -175 t-91.5 -163l-127 41q58 164 74 242q-45 -3 -65 19t-15 64z" />
<glyph unicode="&#x201e;" horiz-adv-x="847" d="M29 76l16 98q9 53 35.5 72.5t85.5 19.5h63q56 0 78 -22.5t15 -77.5l-19 -119q-10 -83 -49.5 -175t-91.5 -163l-127 41q58 164 74 242q-45 -3 -65 19.5t-15 64.5zM395 76l17 98q9 53 35 72.5t85 19.5h64q56 0 77.5 -22.5t14.5 -77.5l-18 -119q-10 -82 -49.5 -174.5 t-92.5 -163.5l-127 41q58 164 74 242q-45 -3 -65 19.5t-15 64.5z" />
<glyph unicode="&#x2022;" horiz-adv-x="757" d="M141 545l4 28q17 119 66.5 162t173.5 43h35q116 0 158.5 -49t25.5 -166l-4 -31q-19 -126 -66.5 -170.5t-164.5 -44.5h-39q-120 0 -163 51t-26 177z" />
<glyph unicode="&#x2026;" horiz-adv-x="1820" d="M20 113l15 98q7 52 35.5 75t81.5 23h75q116 0 101 -110l-15 -99q-6 -51 -33 -75.5t-81 -24.5h-76q-115 0 -103 113zM684 113l14 98q7 52 35.5 75t81.5 23h76q115 0 100 -110l-14 -99q-6 -51 -33.5 -75.5t-81.5 -24.5h-76q-114 0 -102 113zM1348 113l14 98q7 52 35.5 75 t81.5 23h75q116 0 101 -110l-15 -99q-6 -51 -33 -75.5t-81 -24.5h-76q-114 0 -102 113z" />
<glyph unicode="&#x202f;" horiz-adv-x="388" />
<glyph unicode="&#x2039;" horiz-adv-x="626" d="M57 487l4 66l361 399l143 -106l-250 -332l181 -346l-154 -102z" />
<glyph unicode="&#x203a;" horiz-adv-x="626" d="M35 170l250 334l-179 346l154 102l285 -422l-6 -65l-361 -399z" />
<glyph unicode="&#x205f;" horiz-adv-x="485" />
<glyph unicode="&#x20ac;" horiz-adv-x="1300" d="M66 502l22 162h143l7 55q5 38 8 51h-142l23 160h152q69 262 223.5 385t433.5 123q195 0 358 -49l-41 -226q-56 7 -152 11.5t-190 -0.5q-123 -9 -193 -65.5t-108 -178.5h461l-41 -160h-459q-2 -11 -5 -33t-5 -32l-6 -41h422l-41 -162h-391q2 -129 51 -193t158 -71 q83 -8 191 -1.5t196 23.5l10 -229q-163 -56 -385 -56q-278 0 -410.5 130t-134.5 397h-155z" />
<glyph unicode="&#x2122;" horiz-adv-x="1998" d="M203 1262l22 163h697l-21 -163h-246l-86 -615h-209l86 615h-243zM889 647l129 711q6 36 22 51.5t52 15.5h194q32 0 52 -19.5t22 -51.5l47 -344q4 -39 4 -121h19q13 61 32 119l142 358q19 59 82 59h200q35 0 54.5 -22.5t15.5 -59.5l-70 -696h-190l59 621h-20l-179 -447 q-10 -32 -28.5 -45.5t-52.5 -13.5h-125q-34 0 -55 19t-23 50l-58 437h-22l-111 -621h-192z" />
<glyph unicode="&#x25fc;" horiz-adv-x="1013" d="M0 0v1014h1014v-1014h-1014z" />
<glyph unicode="&#xfb03;" horiz-adv-x="2086" d="M-221 -377l47 201h131q83 0 118.5 27t47.5 108l121 848h-176l24 192l180 11l21 137q47 307 356 307q194 0 314 -20l-48 -201h-165q-80 0 -115 -27.5t-47 -107.5l-13 -88h435l22 157q44 308 354 308q185 0 308 -21l-49 -201h-156q-81 0 -116.5 -28t-47.5 -107l-16 -108 h708l-141 -1010h-303l113 807h-406l-127 -875q-44 -307 -354 -307q-103 0 -283 23l49 200h131q82 0 118 27.5t48 108.5l119 823h-436l-131 -899q-44 -307 -355 -307q-87 0 -280 22zM1747 1272l16 108q5 44 25.5 64t64.5 20h134q44 0 66 -25.5t15 -68.5l-14 -110 q-6 -45 -26 -63.5t-64 -18.5h-135q-44 0 -66 25t-16 69z" />
<glyph unicode="&#xfb04;" horiz-adv-x="2203" d="M-221 -377l47 201h131q83 0 118.5 27t47.5 108l121 848h-176l24 192l180 11l21 137q47 307 356 307q194 0 314 -20l-48 -201h-165q-80 0 -115 -27.5t-47 -107.5l-13 -88h429l20 141q23 160 107 242.5t251 81.5q502 0 709 -37l-154 -1131q-6 -55 12.5 -76.5t73.5 -21.5h82 l15 -197q-34 -18 -106 -27.5t-124 -9.5q-138 0 -209.5 72t-54.5 195l143 1015h-286q-76 0 -114 -36t-50 -121l-12 -90h260l-27 -203h-262l-125 -875q-44 -307 -356 -307q-105 0 -279 23l47 200h131q81 0 115.5 27.5t46.5 108.5l117 823h-430l-131 -899q-44 -307 -355 -307 q-87 0 -280 22z" />
</font>
</defs>
</svg>
