<?xml version="1.0" standalone="no"?>
<!DOCTYPE svg PUBLIC "-//W3C//DTD SVG 1.1//EN" "http://www.w3.org/Graphics/SVG/1.1/DTD/svg11.dtd" >
<svg xmlns="http://www.w3.org/2000/svg" xmlns:xlink="http://www.w3.org/1999/xlink" version="1.1">
<metadata></metadata>
<defs>
<font id="exo_2light_italic" horiz-adv-x="1359" >
<font-face units-per-em="2048" ascent="1638" descent="-410" />
<missing-glyph horiz-adv-x="462" />
<glyph unicode="&#xfb01;" horiz-adv-x="1191" d="M-252 -406l19 97h157q103 0 150.5 41.5t62.5 150.5l142 1004h-179l13 94l182 10l24 180q21 150 94 222.5t220 72.5q139 0 244 -12l-9 -96h-194q-108 0 -160.5 -46.5t-67.5 -158.5l-22 -162h649l-141 -991h-129l125 887h-518l-144 -1022q-21 -141 -93.5 -212t-207.5 -71 q-97 0 -217 12zM969 1249l18 121q3 39 45 39h60q22 0 33 -12.5t8 -32.5l-17 -121q-3 -22 -13 -30.5t-32 -8.5h-61q-47 0 -41 45z" />
<glyph unicode="&#xfb02;" horiz-adv-x="1318" d="M-252 -406l19 97h157q103 0 150.5 41.5t62.5 150.5l142 1004h-179l13 94l182 10l24 180q21 150 94 222.5t220 72.5q415 -5 526 -20l-168 -1217q-18 -141 121 -141h109l6 -84q-50 -20 -162 -20q-109 0 -164.5 60t-42.5 167l162 1147h-346q-108 2 -160.5 -45.5 t-67.5 -159.5l-22 -162h315l-14 -104h-315l-144 -1022q-21 -141 -93.5 -212t-207.5 -71q-97 0 -217 12z" />
<glyph horiz-adv-x="0" />
<glyph horiz-adv-x="682" />
<glyph unicode=" "  horiz-adv-x="462" />
<glyph unicode="&#x09;" horiz-adv-x="462" />
<glyph unicode="&#xa0;" horiz-adv-x="462" />
<glyph unicode="!" horiz-adv-x="540" d="M125 53l18 117q6 49 54 49h36q55 0 46 -53l-17 -119q-3 -47 -53 -47h-37q-53 0 -47 53zM195 426l34 346l93 651h129l-93 -651l-59 -346h-104z" />
<glyph unicode="&#x22;" horiz-adv-x="696" d="M213 979l53 434h109l-70 -434h-92zM496 979l51 434h110l-69 -434h-92z" />
<glyph unicode="#" horiz-adv-x="1382" d="M78 446l28 89h238l125 399h-238l29 88h238l123 391h104l-123 -391h410l123 391h104l-123 -391h227l-28 -88h-228l-124 -399h227l-31 -89h-223l-141 -446h-105l141 446h-409l-141 -446h-105l141 446h-239zM449 535h409l125 399h-410z" />
<glyph unicode="$" horiz-adv-x="1153" d="M70 8l16 101q203 -10 350 -13l119 566l-135 51q-146 57 -196 145t-31 238q9 66 27 117.5t41.5 87.5t58.5 61.5t70.5 40t86 22.5t97 10t110.5 1h37l43 204h72l-43 -206q154 -6 297 -33l-17 -96q-189 10 -305 12l-113 -557l113 -43q159 -62 208.5 -146.5t27.5 -242.5 q-9 -66 -26 -116.5t-40 -87.5t-57.5 -63t-72.5 -42.5t-91 -25.5t-107 -12.5t-127 -3.5l-51 -243h-72l52 243q-183 4 -342 31zM328 1081q-12 -109 18 -160.5t135 -93.5l109 -41l108 531h-30q-44 0 -67.5 -0.5t-59 -3.5t-55 -9.5t-46 -17.5t-41 -28t-30.5 -41.5t-25.5 -58.5 t-15.5 -77zM508 96q76 1 125 7t93 20.5t70 42t44.5 70.5t27.5 106q15 115 -16.5 165t-140.5 93l-90 35z" />
<glyph unicode="%" horiz-adv-x="1818" d="M162 1026q31 224 112.5 318t255.5 94q181 0 242.5 -99t28.5 -325q-31 -222 -114.5 -317t-256.5 -95q-179 0 -239 99t-29 325zM262 1014q-25 -181 10.5 -254.5t153.5 -73.5q133 0 190.5 75.5t83.5 264.5q25 184 -8.5 256t-154.5 72q-135 0 -191.5 -74.5t-83.5 -265.5z M299 0l1139 1413h104l-1136 -1413h-107zM1049 408q31 223 112.5 317t255.5 94q182 0 243 -99t28 -325q-31 -223 -114.5 -318t-256.5 -95q-179 0 -239 99t-29 327zM1149 395q-25 -182 10 -255.5t154 -73.5q133 0 191 76t83 266q25 182 -9 254.5t-155 72.5q-134 0 -190.5 -75 t-83.5 -265z" />
<glyph unicode="&#x26;" horiz-adv-x="1570" d="M98 362q27 179 118 270t257 97l2 8q-140 10 -189.5 94.5t-23.5 241.5q15 89 44.5 152t71 103.5t104 63.5t133 31.5t169.5 8.5q181 0 336 -46l-22 -98q-127 31 -312 31q-102 0 -165 -10t-112 -39.5t-74.5 -82t-39.5 -138.5q-27 -155 36.5 -210t248.5 -55h450q12 132 9 283 h121q3 -136 -11 -283h254l-16 -104h-250q-35 -228 -131 -385q-100 -164 -252 -239.5t-365 -78.5q-236 -5 -328.5 82.5t-62.5 302.5zM233.5 271.5q-1.5 -42.5 11.5 -73t31.5 -51t50.5 -32t68.5 -16.5t85.5 -5q186 0 309.5 62t206.5 192q88 133 119 332h-448q-85 -1 -143 -8.5 t-108.5 -27t-83 -54t-55.5 -88t-36 -131.5q-7 -57 -8.5 -99.5z" />
<glyph unicode="'" horiz-adv-x="413" d="M213 979l53 434h109l-70 -434h-92z" />
<glyph unicode="(" horiz-adv-x="727" d="M125 649q56 390 213.5 625.5t439.5 343.5l15 -68q-226 -106 -357 -328t-182 -587q-50 -351 16 -573.5t260 -333.5l-18 -66q-252 110 -347.5 353.5t-39.5 633.5z" />
<glyph unicode=")" horiz-adv-x="727" d="M-55 -270q227 111 357.5 336.5t182.5 580.5q50 353 -15.5 577t-260.5 328l18 66q251 -108 347.5 -350.5t39.5 -638.5q-56 -388 -213 -622.5t-440 -344.5z" />
<glyph unicode="*" horiz-adv-x="919" d="M193 1145l34 80l240 -92l-6 -37l-19 -25zM258 831l238 261l34 321h84l-59 -323l166 -265l-72 -49l-127 256l-200 -254zM594 1096l2 37l260 90l16 -84l-264 -68z" />
<glyph unicode="+" horiz-adv-x="1124" d="M115 561l14 101h389l51 368h105l-51 -368h389l-17 -101h-387l-53 -371h-102l51 371h-389z" />
<glyph unicode="," horiz-adv-x="448" d="M53 -238q46 155 60 240q-20 0 -30 12.5t-7 32.5l18 123q5 28 16.5 38.5t43.5 10.5h43q50 0 41 -51l-19 -133q-18 -138 -100 -295z" />
<glyph unicode="-" horiz-adv-x="940" d="M137 465l15 102h628l-14 -102h-629z" />
<glyph unicode="." horiz-adv-x="446" d="M76 53l16 117q6 49 53 49h48q28 0 38 -13t7 -40l-17 -119q-6 -47 -53 -47h-45q-56 0 -47 53z" />
<glyph unicode="/" horiz-adv-x="1052" d="M-35 -129l1020 1542h115l-1018 -1542h-117z" />
<glyph unicode="0" horiz-adv-x="1216" d="M133 422q0 99 6 190.5t23 196t43.5 192t71 170.5t102.5 140.5t141.5 92t184.5 34.5q208 0 309.5 -108.5t101.5 -336.5q0 -102 -5.5 -193.5t-21.5 -197.5t-42 -193t-70.5 -169.5t-103 -139t-143 -91t-187.5 -34.5q-206 0 -308 109.5t-102 337.5zM262 424q0 -174 70.5 -253 t214.5 -79q67 0 124 20.5t98.5 54t75.5 85t56 105t38.5 122.5t25.5 129.5t14 134t6.5 127.5t1.5 119q0 174 -72 253t-217 79q-83 0 -150 -33t-112 -85.5t-78 -131t-51 -154.5t-28.5 -171t-13.5 -167t-3 -155z" />
<glyph unicode="1" horiz-adv-x="792" d="M145 1266l390 147h135l-199 -1413h-135l164 1176q12 72 24 112l-374 -119z" />
<glyph unicode="2" horiz-adv-x="1134" d="M31 0l10 86q7 39 27 59l510 500q74 71 128 131.5t104 130t76.5 138.5t26.5 135q0 37 -12.5 62.5t-32.5 40.5t-55.5 23t-71.5 10.5t-90 2.5q-200 0 -413 -39l-7 104q241 54 424 54q77 0 133.5 -5.5t108 -21.5t84 -42.5t51.5 -70.5t19 -104q0 -82 -24.5 -159.5 t-74.5 -151.5t-103.5 -135.5t-133.5 -139.5l-496 -485q74 4 227 4h517l-19 -127h-913z" />
<glyph unicode="3" horiz-adv-x="1122" d="M33 10l20 103q255 -28 377 -19q194 13 300 114.5t106 272.5q0 208 -269 211l-266 4l14 101l260 2q318 6 318 358q0 93 -62 127.5t-227 34.5q-166 0 -352 -19l-8 103q218 35 385 35q212 0 303.5 -62t91.5 -200q0 -103 -28.5 -193.5t-90 -156t-145.5 -76.5l-4 -9 q107 -17 160 -86.5t53 -177.5q0 -229 -139.5 -362t-389.5 -140q-209 -7 -407 35z" />
<glyph unicode="4" horiz-adv-x="1234" d="M73.5 477.5q-3.5 46.5 24.5 97.5l535 838h137l-537 -850q-24 -38 -13.5 -62t48.5 -24h551l60 432l59 236h102l-92 -668h176l-14 -96l-178 -12l-51 -369h-129l51 367h-592q-58 0 -96 32t-41.5 78.5z" />
<glyph unicode="5" horiz-adv-x="1085" d="M41 29l27 106q168 -48 331 -41q203 11 309.5 116t106.5 300q0 47 -11.5 82t-38.5 60t-62 41t-91 25.5t-116 14t-146 6.5l-96 9q-28 0 -44 19.5t-11 47.5l114 598h727l-22 -115h-610l-84 -440l133 -8q123 -6 208.5 -23.5t150.5 -55t96.5 -101t31.5 -156.5 q0 -248 -133.5 -387.5t-382.5 -151.5q-193 -7 -387 54z" />
<glyph unicode="6" horiz-adv-x="1161" d="M130.5 335q-2.5 129 21.5 316q20 144 45.5 255t56 194t71 142t84.5 97t103 60t120 30.5t142 8.5q181 0 291 -29l-29 -98q-101 12 -268 12q-85 0 -144.5 -14t-112.5 -51.5t-90.5 -105.5t-68 -172.5t-55.5 -256.5q95 105 192 148.5t224 43.5q166 0 242.5 -73.5t76.5 -218.5 q0 -648 -516 -648q-134 0 -215.5 35.5t-124.5 115.5t-45.5 209zM259 307.5q7 -114.5 70.5 -166t205.5 -51.5q370 0 370 502q0 109 -48 161t-175 52q-104 0 -201.5 -45.5t-201.5 -153.5q-27 -184 -20 -298.5z" />
<glyph unicode="7" horiz-adv-x="1036" d="M180 1298l10 115h789q60 0 78 -29.5t-8 -83.5l-629 -1300h-137l583 1206q11 26 54 97z" />
<glyph unicode="8" horiz-adv-x="1245" d="M117 358q26 178 89.5 269t192.5 104l4 8q-197 23 -155 328q15 100 43 165.5t82.5 112.5t141.5 67.5t216 19.5q132 0 216 -22.5t127.5 -68.5t54.5 -117.5t-3 -168.5q-21 -146 -79.5 -226t-165.5 -92l-4 -8q123 -13 164.5 -109t15.5 -274q-15 -101 -43.5 -166t-86.5 -111 t-150.5 -66t-233.5 -21q-178 -1 -277.5 39t-133.5 121t-15 216zM248 371q-15 -107 4.5 -164t89.5 -84t211 -27q137 0 215 29t114 88.5t50 169.5q10 65 11 109.5t-10 79t-30.5 54t-58.5 32t-87 16.5t-122 4q-74 -1 -123.5 -5t-92.5 -17t-68.5 -33t-47 -55.5t-33.5 -82 t-22 -114.5zM361.5 961.5q-0.5 -34.5 4.5 -63t19.5 -46.5t35.5 -31.5t56 -20t76 -9.5t100 -3q101 0 160 10.5t99 42.5t58 81t29 135q19 98 1 157t-81 83t-196 24q-100 0 -163 -13.5t-102.5 -48.5t-58 -84.5t-30.5 -130.5q-7 -48 -7.5 -82.5z" />
<glyph unicode="9" horiz-adv-x="1161" d="M102 4l25 98q108 -12 264 -12q85 2 145.5 12.5t112.5 38t87 69.5t65.5 112t53 159t44.5 217q-88 -106 -179 -150.5t-212 -49.5q-110 -3 -184 27.5t-110.5 91t-46.5 148.5t7 200q31 246 150 359.5t354 113.5q185 0 275.5 -71.5t107.5 -231.5t-27 -416q-25 -158 -54 -273 t-69.5 -198.5t-86 -135.5t-111 -83t-137 -42.5t-170.5 -11.5q-164 0 -304 29zM299 950q-28 -191 25.5 -269t205.5 -75q109 5 195.5 50t192.5 159q28 180 18.5 292.5t-72 164t-194.5 51.5q-181 0 -262.5 -88.5t-108.5 -284.5z" />
<glyph unicode=":" horiz-adv-x="458" d="M104 53l17 117q6 49 53 49h47q28 0 38 -13t7 -40l-16 -119q-6 -47 -53 -47h-45q-57 0 -48 53zM199 729l16 117q6 49 53 49h47q28 0 38 -13t7 -40l-16 -119q-6 -47 -53 -47h-45q-56 0 -47 53z" />
<glyph unicode=";" horiz-adv-x="466" d="M61 -238q46 155 60 240q-20 0 -30 12.5t-7 32.5l18 123q5 28 16.5 38.5t43.5 10.5h43q50 0 41 -51l-19 -133q-18 -138 -100 -295zM178 729l17 117q6 49 53 49h47q28 0 38 -13t7 -40l-16 -119q-6 -47 -54 -47h-45q-56 0 -47 53z" />
<glyph unicode="&#x3c;" horiz-adv-x="1085" d="M106 555l15 104l874 363l-14 -113l-752 -305l664 -301l-14 -104z" />
<glyph unicode="=" horiz-adv-x="1204" d="M123 332l14 100h883l-14 -100h-883zM182 764l15 100h882l-14 -100h-883z" />
<glyph unicode="&#x3e;" horiz-adv-x="1083" d="M92 201l14 112l750 301l-661 308l14 102l770 -365l-14 -104z" />
<glyph unicode="?" horiz-adv-x="1019" d="M186 1417q9 2 43.5 8t43 7.5t38 6t42 6t40.5 4.5t48.5 4t51.5 2.5t63.5 2t70.5 0.5q202 0 298.5 -80t73.5 -243q-9 -62 -37 -116.5t-67 -97t-84.5 -83t-91.5 -82.5t-86 -88.5t-70.5 -109t-42.5 -134.5l-112 2q10 77 38.5 144.5t66.5 116.5t82.5 93.5t88 84.5t80.5 78.5 t64 86t34 98.5q15 119 -45 169.5t-213 50.5q-61 0 -107 -1t-91 -4t-65.5 -5t-74.5 -7.5t-73 -7.5zM342 53l18 117q3 49 54 49h37q54 0 45 -53l-17 -117q-6 -49 -53 -49h-37q-53 0 -47 53z" />
<glyph unicode="@" horiz-adv-x="1556" d="M111.5 206.5q-8.5 108.5 15.5 256.5q25 144 61 232t97.5 138t138.5 67.5t199 17.5q147 0 403 -41l-100 -666q-8 -64 10 -91.5t70 -27.5q43 0 74 10t56.5 37.5t43.5 64.5t34.5 104t29 142.5t28.5 192.5q20 140 27.5 222.5t-6 149t-33.5 95.5t-82 48.5t-123.5 22.5 t-184.5 3h-630l10 96q240 10 622 14q104 0 175.5 -3.5t136 -16.5t103.5 -33t70.5 -57t44 -82.5t17 -117t-2 -154t-21.5 -197.5q-21 -159 -43 -263t-52 -184.5t-71.5 -122.5t-97 -62.5t-134.5 -20.5q-218 0 -198 231q-205 -236 -430 -236q-121 0 -185 61.5t-72.5 170z M233.5 248.5q1.5 -81.5 39.5 -122t120 -40.5q105 0 206.5 62t217.5 190l68 463q-141 8 -221 8q-78 0 -130.5 -5t-96.5 -20.5t-70.5 -39t-49 -66t-36.5 -94.5t-27 -131q-22 -123 -20.5 -204.5z" />
<glyph unicode="A" horiz-adv-x="1253" d="M-55 0l665 1378q14 35 56 35h153q19 0 33.5 -12t15.5 -29l281 -1372h-135l-90 467h-615l-221 -467h-143zM365 586h536l-117 604l-18 119h-61q-35 -76 -56 -119z" />
<glyph unicode="B" horiz-adv-x="1259" d="M104 0l199 1413q166 17 434 17q130 0 213.5 -17.5t136.5 -60.5t68 -115q8 -36 7.5 -81.5t-7.5 -100.5q-22 -153 -89 -229.5t-194 -88.5l-2 -10q150 -12 202 -109q35 -65 35 -165q0 -49 -9 -107q-16 -110 -48 -179.5t-92 -110.5t-141 -56.5t-207 -15.5q-328 0 -506 16z M252 100q84 -2 342 -2q191 0 270.5 57.5t102.5 221.5q7 52 7 92t-6.5 72t-23 54.5t-39.5 39t-58 26t-77 14t-98 5.5h-338zM348 784h330q88 1 145.5 13t100 42.5t65.5 81.5t35 132q7 36 7 66q-1 9 -1 17q-2 36 -7 63.5t-23 47.5t-40 33t-57.5 21t-76 11t-95.5 3 q-233 0 -309 -2z" />
<glyph unicode="C" horiz-adv-x="1153" d="M152 713q28 204 74 339.5t122 223t181.5 125t256.5 37.5q127 0 207 -9t168 -30l-24 -101q-159 19 -351 19q-119 0 -199 -28.5t-139.5 -101t-96 -188.5t-62.5 -299q-19 -139 -20 -238v-11q0 -92 16 -160q17 -72 58 -114t102.5 -61.5t152.5 -19.5h31q194 0 364 23l11 -101 q-165 -43 -406 -43q-298 0 -400 171q-66 110 -66 313q0 112 20 254z" />
<glyph unicode="D" horiz-adv-x="1353" d="M104 0l199 1413q264 19 465 19q126 0 214.5 -24t150 -77t89.5 -138t32 -207q1 -19 0 -39q0 -109 -21 -247q-21 -148 -49 -257t-69 -189.5t-90.5 -132.5t-118.5 -83t-147.5 -43.5t-183.5 -12.5q-210 0 -471 18zM254 104q204 -4 319 -4q102 0 174 17t130.5 56.5t98 111 t68.5 174.5t50 254q21 145 22 245v11q0 94 -17 161q-18 71 -62.5 110.5t-109 57t-161.5 17.5q-124 0 -342 -4z" />
<glyph unicode="E" horiz-adv-x="1136" d="M127 256l131 930q14 106 85 167.5t189 61.5q417 0 607 -12l-19 -103h-569q-146 0 -164 -151l-47 -346l631 -2l-15 -103l-630 -2l-62 -438q-3 -18 -3 -35q0 -110 126 -110h567l-2 -103q-188 -12 -583 -12q-129 0 -193 70q-51 56 -52 144q0 21 3 44z" />
<glyph unicode="F" horiz-adv-x="1095" d="M100 0l164 1180q17 113 89.5 174t187.5 61q403 0 589 -12l-20 -103h-543q-78 0 -120 -35.5t-52 -115.5l-51 -363l614 -2l-14 -104h-614l-97 -680h-133z" />
<glyph unicode="G" horiz-adv-x="1273" d="M150 713q28 213 79 353.5t133.5 222.5t187.5 115.5t255 33.5q235 0 403 -39l-24 -101q-191 21 -365 21q-106 0 -180.5 -18t-134 -58.5t-99.5 -113.5t-68 -176t-48 -253q-15 -135 -15 -238q0 -152 33 -232q56 -136 238 -136q111 0 205.5 56t212.5 169l67 500h131 l-117 -819h-96l10 205q-207 -230 -454 -230q-231 0 -316 175q-54 113 -54 316q0 110 16 247z" />
<glyph unicode="H" horiz-adv-x="1357" d="M104 0l199 1413h135l-84 -600h711l84 600h135l-199 -1413h-135l99 696h-711l-98 -696h-136z" />
<glyph unicode="I" horiz-adv-x="512" d="M104 0l199 1413h135l-198 -1413h-136z" />
<glyph unicode="J" horiz-adv-x="681" d="M-14 6l26 92h105q177 0 205 176l157 1139h135l-159 -1141q-41 -288 -299 -288q-91 0 -170 22z" />
<glyph unicode="K" horiz-adv-x="1189" d="M104 0l199 1413h133l-63 -459q-10 -74 -33 -161h190l535 620h164l-510 -594q-42 -48 -86 -80l-2 -8q33 -35 57 -86l373 -645h-152l-391 682h-194q-4 -100 -13 -162l-73 -520h-134z" />
<glyph unicode="L" horiz-adv-x="1036" d="M137 262l160 1151h135l-162 -1155q-2 -15 -2 -29q0 -47 24 -77q31 -39 101 -39h531l-4 -103q-182 -12 -553 -12q-121 0 -184 70q-50 55 -50 144q0 24 4 50z" />
<glyph unicode="M" horiz-adv-x="1779" d="M76 0l248 1356q6 30 21 43.5t42 13.5h158q47 0 53 -49l186 -924q6 -34 17 -98.5t16 -93.5h45q54 127 86 194l438 926q17 45 64 45h160q28 0 43 -17t12 -46l-131 -1350h-133l129 1300h-43l-524 -1110q-17 -43 -62 -43h-135q-51 0 -57 50l-220 1103h-45l-233 -1300h-135z " />
<glyph unicode="N" horiz-adv-x="1429" d="M104 0l191 1360q5 28 19 40.5t42 12.5h129q47 0 62 -47l391 -1049q57 -163 66 -192h45q6 62 22 197l152 1091h133l-193 -1360q-6 -53 -59 -53h-135q-42 0 -60 47l-401 1075q-44 126 -55 166h-41q-5 -74 -19 -176l-153 -1112h-136z" />
<glyph unicode="O" d="M132 426q-1 22 0 45q0 107 20 242q28 204 74 339.5t122.5 223t183 125t259.5 37.5q119 0 204 -24.5t145 -78.5t87.5 -140t32.5 -209q1 -20 1 -41q0 -109 -22 -245q-37 -274 -111 -430.5t-198.5 -225.5t-325.5 -69q-119 0 -203.5 24t-145.5 77.5t-89 139.5t-34 210z M277 340q22 -134 98.5 -190t230.5 -56q156 0 251.5 59t152 191t90.5 369q23 170 23 285q0 120 -40 192q-39 70 -109.5 99.5t-187.5 29.5q-96 0 -166 -20t-124.5 -63t-93 -117t-65.5 -174.5t-48 -244.5q-21 -137 -20 -240q-1 -67 8 -120z" />
<glyph unicode="P" horiz-adv-x="1198" d="M104 0l199 1413q185 17 469 17q242 0 330 -97q63 -69 63 -214q0 -57 -10 -126q-15 -105 -40 -178t-62 -122.5t-93.5 -77t-125 -39t-166.5 -11.5q-159 0 -346 17l-82 -582h-136zM336 682h330q92 1 150.5 15.5t101.5 51.5t66.5 97.5t37.5 157.5q8 58 8 104q0 52 -10 88 q-20 68 -78.5 93.5t-171.5 25.5q-262 0 -346 -2z" />
<glyph unicode="Q" d="M132 426v45q0 108 20 242q28 204 74 339.5t122.5 223t183 125t259.5 37.5q119 0 204 -24.5t145 -78.5t87.5 -140t32.5 -209q1 -20 1 -41q0 -108 -22 -245q-37 -274 -111 -430.5t-198.5 -225.5t-325.5 -69q-119 0 -203.5 24t-145.5 77.5t-89 139.5t-34 210zM277 340 q22 -134 98.5 -190t230.5 -56q156 0 251.5 59t152 191t90.5 369q23 170 23 285q0 120 -40 192q-39 70 -109.5 99.5t-187.5 29.5q-96 0 -166 -20t-124.5 -63t-93 -117t-65.5 -174.5t-48 -244.5q-21 -137 -21 -240q0 -67 9 -120zM446 -174l54 80q196 -116 493 -166l-51 -133 q-288 59 -496 219z" />
<glyph unicode="R" horiz-adv-x="1257" d="M104 0l199 1413q185 17 469 17q116 0 193 -19.5t129 -66t68 -126.5q8 -40 9 -90q0 -49 -8 -108q-25 -173 -98 -258t-217 -105l-2 -10q112 -34 143 -201l90 -446h-137l-86 446q-17 86 -59 122t-117 38q-63 1 -140.5 1.5t-128.5 1t-87 1.5l-86 -610h-134zM340 722h334 q173 2 250.5 67t101.5 237q7 50 7 91q-1 94 -39 137q-56 61 -224 61q-180 0 -348 -4z" />
<glyph unicode="S" horiz-adv-x="1142" d="M61 8l19 101q269 -13 407 -13q99 1 157.5 9t107 34t73.5 74.5t37 128.5q5 37 5 66q-1 34 -7 58q-12 46 -46.5 75t-108.5 59l-291 113q-147 58 -198 146q-37 64 -37 161q0 36 5 76q9 66 27 117.5t41.5 87.5t58.5 61.5t71 40.5t86 23q52 7 98 9q31 1 69 1h41q222 0 405 -35 l-16 -96q-228 12 -406 12q-35 0 -54.5 -0.5t-49 -2t-46 -4.5t-40.5 -9t-38 -15t-31.5 -21.5t-28 -30t-22 -39.5t-18.5 -50.5t-12 -63.5q-3 -30 -3 -55q0 -66 22 -104q32 -52 137 -95l287 -110q156 -63 206 -147q35 -59 36 -154q0 -41 -7 -88q-11 -76 -31.5 -132.5t-53.5 -95 t-72 -63t-97.5 -38t-119 -18t-146.5 -4.5q-221 0 -416 31z" />
<glyph unicode="T" horiz-adv-x="1163" d="M141 1294l19 119h1073l-16 -119h-472l-182 -1294h-135l182 1294h-469z" />
<glyph unicode="U" horiz-adv-x="1361" d="M170 539l123 874h135l-125 -881q-13 -83 -13 -150q0 -62 12 -110q24 -98 95 -138t207 -40q205 0 303.5 100t132.5 345l123 874h135l-124 -881q-43 -304 -172 -430.5t-394 -126.5q-272 0 -376 131q-74 93 -74 273q0 73 12 160z" />
<glyph unicode="V" horiz-adv-x="1226" d="M147 1413h138l202 -1157q2 -12 11.5 -68t13.5 -86h53q34 86 68 162l526 1149h141l-643 -1376q-15 -37 -55 -37h-145q-19 0 -32.5 12.5t-16.5 30.5z" />
<glyph unicode="W" horiz-adv-x="1918" d="M172 1413h137l99 -1149q4 -50 8 -162h53q11 30 30.5 87.5t26.5 78.5l402 1102q16 43 59 43h154q20 0 33.5 -14t15.5 -35l104 -1100q10 -140 11 -162h53q9 31 30 91.5t25 74.5l416 1145h141l-512 -1374q-14 -39 -59 -39h-160q-21 0 -35 13t-16 34l-96 1106l-13 156h-47 q-20 -53 -57 -162l-402 -1106q-15 -41 -59 -41h-160q-21 0 -36 13t-17 32z" />
<glyph unicode="X" horiz-adv-x="1232" d="M-27 0l523 735l-295 678h139l264 -625h66l446 625h150l-486 -680l314 -733h-140l-286 684h-62l-477 -684h-156z" />
<glyph unicode="Y" horiz-adv-x="1134" d="M137 1413h137l236 -631q28 -73 47 -151h14q28 60 88 157l412 625h148l-601 -907l-71 -506h-135l71 512z" />
<glyph unicode="Z" horiz-adv-x="1144" d="M14 0l17 115l954 1183h-780l16 115h932l-18 -115l-955 -1183h803l-18 -115h-951z" />
<glyph unicode="[" horiz-adv-x="653" d="M76 -242l241 1725q6 41 34 65.5t69 24.5h282l-12 -90h-217q-12 0 -23 -10.5t-14 -22.5l-233 -1671q-3 -27 20 -27h223l-12 -90h-274q-43 0 -66.5 25t-17.5 71z" />
<glyph unicode="\" horiz-adv-x="1021" d="M168 1413h106l592 -1542h-106z" />
<glyph unicode="]" horiz-adv-x="653" d="M-45 -338l12 90h215q12 0 24 10.5t15 22.5l236 1671q3 27 -23 27h-223l12 90h275q41 0 65.5 -28t18.5 -68l-242 -1725q-6 -40 -34 -65t-68 -25h-283z" />
<glyph unicode="^" horiz-adv-x="847" d="M102 791l375 419h94l258 -422l-59 -36l-244 362h-16l-354 -362z" />
<glyph unicode="_" horiz-adv-x="890" d="M-84 -102l14 102h891l-14 -102h-891z" />
<glyph unicode="`" horiz-adv-x="616" d="M186 1378l76 92l318 -301l-52 -59z" />
<glyph unicode="a" horiz-adv-x="1167" d="M119 504q24 163 60.5 263.5t99.5 156.5t141 75t201 19q191 0 432 -41l-140 -977h-100l18 225q-97 -115 -219 -182.5t-243 -67.5q-181 0 -237 120q-31 68 -32 189q0 94 19 220zM228 251q6 -90 42.5 -125.5t118.5 -35.5q202 0 445 246l77 563q-218 8 -254 8 q-78 0 -130 -5.5t-96 -23.5t-70.5 -45t-48.5 -76t-36 -109.5t-28 -153.5q-20 -125 -21 -208q0 -19 1 -35z" />
<glyph unicode="b" horiz-adv-x="1165" d="M86 43l197 1391h129l-60 -412q-22 -160 -51 -260q111 111 234 182.5t227 71.5q70 0 119.5 -15.5t86 -52.5t51.5 -97.5t17 -150.5q0 -11 1 -22q0 -83 -17 -191q-15 -110 -36.5 -191.5t-53 -138t-67 -92.5t-86.5 -55.5t-104 -27t-126 -7.5q-225 0 -459 68h-2zM225 104 q164 -20 279 -20q73 0 122.5 6.5t90.5 25t66 46t45.5 77t33.5 109t25 150.5q14 99 17 166q1 20 1 38q0 42 -5 76q-7 48 -29 74t-54.5 37.5t-83.5 11.5q-160 0 -430 -237z" />
<glyph unicode="c" horiz-adv-x="985" d="M106 502q40 285 159 400.5t370 115.5q183 0 303 -45l-23 -84q-109 16 -260 16q-102 0 -169.5 -18t-118.5 -65t-80 -126t-45 -204q-10 -83 -12 -144q0 -7 -1 -14q0 -52 10 -92q11 -46 32.5 -75t58.5 -47t83.5 -25t112.5 -7q170 0 295 23l10 -91q-145 -45 -325 -45 q-258 1 -350 121q-63 83 -63 245q0 73 13 161z" />
<glyph unicode="d" horiz-adv-x="1165" d="M117 504q18 131 46.5 221t66.5 148t95.5 89.5t122.5 43.5t160 12q133 0 322 -25q2 79 18 191l35 250h131l-203 -1434h-100l20 233q-103 -113 -228.5 -185.5t-256.5 -72.5q-162 0 -216 124q-31 71 -31 193q0 91 18 212zM240 180q26 -90 139 -90q201 0 452 248l76 563 q-212 8 -256 8q-77 0 -128 -5.5t-94.5 -23.5t-70 -45t-48.5 -76.5t-35.5 -110.5t-26.5 -154q-20 -127 -20 -211q1 -64 12 -103z" />
<glyph unicode="e" horiz-adv-x="1091" d="M109 514q21 153 59.5 250t104.5 154t152 78.5t216 21.5q216 0 302 -74q63 -54 63 -157q0 -38 -9 -82q-27 -134 -108 -192t-252 -73l-408 -39q-2 -32 -3 -60q0 -56 10 -97q14 -62 52.5 -96.5t93 -48t138.5 -13.5q140 0 365 27l10 -88q-66 -23 -184.5 -36.5t-214.5 -13.5 q-251 1 -339 127q-61 87 -61 249q0 74 13 163zM240 502l397 39q113 12 162 48t67 126q7 33 8 59t-5 45.5t-15.5 33.5t-27 24t-36 16t-46 9t-53 4t-60.5 1q-98 0 -157.5 -14t-107.5 -57t-76 -120t-48 -206q0 -6 -2 -8z" />
<glyph unicode="f" horiz-adv-x="753" d="M-252 -406l19 97h157q103 0 150.5 41.5t62.5 150.5l144 1006h-181l13 92l182 10l27 193q19 141 94 211.5t217 70.5q154 0 268 -12l-18 -96h-209q-109 0 -159.5 -42t-65.5 -151l-25 -174h336l-17 -102h-333l-144 -1024q-21 -141 -93.5 -212t-207.5 -71q-97 0 -217 12z" />
<glyph unicode="g" horiz-adv-x="1173" d="M35 -416l14 88q87 -4 172 -4t168 4q343 20 397 316q34 196 74 268q-100 -127 -232 -204t-263 -77q-115 0 -177 50.5t-82 168.5q-7 44 -7 99q0 91 20 211q17 109 38.5 189.5t53 137.5t68 93.5t88.5 57t108.5 28.5t134.5 8q202 0 443 -41h10l-145 -969 q-27 -206 -156 -321.5t-369 -124.5q-31 -2 -72 -2q-45 0 -103 2q-109 5 -183 22zM230 252q6 -90 42.5 -126t118.5 -36q197 0 445 248l84 561q-222 8 -265 8q-77 0 -128 -5.5t-94.5 -23.5t-69.5 -45t-48.5 -76t-36.5 -109.5t-28 -153.5q-20 -125 -20 -208v-34z" />
<glyph unicode="h" horiz-adv-x="1175" d="M84 0l203 1434h129l-56 -416q-20 -137 -49 -248q144 123 262.5 185.5t225.5 62.5q130 0 192 -72q47 -55 48 -146q0 -28 -5 -59l-106 -741h-129l100 715q5 33 5 60q0 58 -22 87q-32 43 -120 43q-94 0 -197.5 -57.5t-257.5 -183.5l-92 -664h-131z" />
<glyph unicode="i" horiz-adv-x="483" d="M94 0l139 991h129l-139 -991h-129zM260 1249l19 121q2 21 12 30t33 9h59q21 0 31.5 -12t7.5 -33l-16 -121q-3 -22 -13.5 -30.5t-32.5 -8.5h-59q-42 0 -42 35q0 5 1 10z" />
<glyph unicode="j" horiz-adv-x="483" d="M-74 -362q69 74 108 148.5t52 168.5l147 1036h129l-147 -1044q-30 -223 -219 -369zM260 1249l19 121q2 21 12 30t33 9h59q21 0 31.5 -12t7.5 -33l-16 -121q-3 -22 -13.5 -30.5t-32.5 -8.5h-59q-42 0 -42 35q0 5 1 10z" />
<glyph unicode="k" horiz-adv-x="1042" d="M86 0l201 1434h131l-101 -732q-18 -116 -51 -217q219 83 377 213t217 293h133q-99 -273 -358 -442q37 -65 57 -111l205 -438h-139l-223 489q-114 -60 -267 -116l-53 -373h-129z" />
<glyph unicode="l" horiz-adv-x="579" d="M119 225l170 1209h129l-166 -1190q-3 -21 -3 -39q1 -45 21 -69q30 -34 103 -34h106l6 -98q-50 -20 -163 -20q-108 0 -163 64q-43 50 -43 130q0 23 3 47z" />
<glyph unicode="m" horiz-adv-x="1789" d="M84 0l141 991h99l-19 -223q132 127 237.5 188.5t207.5 61.5q122 0 182 -62q54 -56 53 -156v-20q126 121 229 179.5t201 58.5q131 0 191 -73q46 -55 45 -144q0 -28 -4 -60l-105 -741h-129l103 715q3 27 3 50q0 65 -26 97q-36 44 -123 43q-82 0 -168 -53.5t-231 -187.5 l-94 -664h-125l100 715q4 30 4 55q0 58 -24 90q-34 44 -125 45q-82 0 -167 -52.5t-235 -184.5l-92 -668h-129z" />
<glyph unicode="n" horiz-adv-x="1175" d="M84 0l141 991h103l-21 -225q144 125 263.5 188.5t228.5 63.5q130 0 192 -72q47 -55 48 -146q0 -28 -5 -59l-106 -741h-129l100 715q5 33 5 60q0 58 -22 87q-32 43 -120 43q-93 0 -194.5 -56t-262.5 -181l-90 -668h-131z" />
<glyph unicode="o" horiz-adv-x="1150" d="M106 502q38 283 155 399.5t366 116.5t339 -122q62 -84 63 -245q0 -73 -13 -162q-40 -284 -156.5 -399t-361.5 -115q-249 0 -340 120q-64 84 -64 250q0 71 12 157zM236 248q20 -90 80 -126t182 -36q182 0 266.5 90.5t118.5 325.5q14 85 14 150q0 52 -9 92 q-20 90 -80 125.5t-181 35.5q-123 0 -197.5 -37t-119.5 -127t-68 -252q-15 -87 -15 -153q1 -50 9 -88z" />
<glyph unicode="p" horiz-adv-x="1169" d="M25 -428l200 1419h103l-21 -231q103 109 234 182.5t233 73.5q180 0 234 -118q32 -67 32 -191q0 -94 -18 -220q-16 -109 -37.5 -188.5t-53 -137t-68 -93.5t-89.5 -57t-110.5 -28.5t-137.5 -7.5q-130 0 -319 25q-3 -90 -17 -193l-36 -235h-129zM229 90q163 -6 254 -6 q78 0 129.5 5.5t95.5 23.5t70.5 45t49 76t36.5 110t27 154q20 124 20 207q0 19 -1 35q-6 90 -42 125.5t-118 35.5t-204 -65.5t-239 -180.5z" />
<glyph unicode="q" horiz-adv-x="1161" d="M100 292q-1 14 -1 28q0 81 16 184q15 110 36.5 191t52.5 138t66 93t85.5 56.5t103 28t125.5 7.5q219 0 460 -70h3l-197 -1376h-129l61 405q21 154 58 267q-112 -125 -228 -197t-250 -72q-64 0 -110 15.5t-81.5 52.5t-51.5 97.5t-19 151.5zM232 253q6 -90 43.5 -126.5 t121.5 -36.5q106 0 198 55t236 193l76 549q-161 20 -278 20q-71 0 -119.5 -6t-89.5 -24t-66.5 -45.5t-46.5 -76t-34 -109.5t-25 -152q-18 -118 -18 -198q0 -23 2 -43z" />
<glyph unicode="r" horiz-adv-x="804" d="M84 0l141 991h99l-21 -235q275 262 475 262h47l-32 -123h-48q-88 0 -184 -54t-254 -177l-92 -664h-131z" />
<glyph unicode="s" horiz-adv-x="1030" d="M51 4l17 96q127 -14 329 -14q196 3 266 30t82 113q3 17 2.5 31t-2 25t-7.5 21.5t-10.5 18t-16 16t-19 13.5t-24 12.5t-26.5 12t-30 12.5l-295 123q-109 47 -155 105q-35 44 -34 120q0 23 3 49q9 59 31 100.5t54 67.5t82 40q52 14 108 18q46 4 107 4h28q204 -3 405 -31 l-16 -92q-187 9 -385 12h-49q-34 -1 -56 -1q-36 -2 -74 -8t-56.5 -20t-32.5 -38t-19 -62q-3 -18 -2 -33q0 -45 20 -69q28 -32 107 -64l297 -123q79 -33 121 -63q43 -31 63 -82q14 -34 14 -80q0 -22 -4 -47q-7 -47 -21.5 -83t-35 -61.5t-52 -43.5t-64 -28.5t-80.5 -16 t-92 -7.5t-107 -2q-33 0 -61 0.5t-57 2t-47 3t-49.5 5l-45 5t-54 6.5t-57.5 7z" />
<glyph unicode="t" horiz-adv-x="747" d="M94 889l12 92l185 10l43 301h127l-43 -301h336l-17 -102h-334l-90 -645q-3 -19 -3 -36q0 -48 22 -72q29 -34 104 -34h164l6 -98q-90 -20 -207 -20q-123 0 -177 64q-42 49 -42 131q0 25 4 54l92 656h-182z" />
<glyph unicode="u" horiz-adv-x="1153" d="M113 250l104 741h131l-102 -712q-5 -31 -5 -57q0 -58 24 -89q34 -45 124 -45q94 0 189 58.5t241 193.5l92 651h129l-139 -991h-100l20 229q-133 -129 -248 -191.5t-225 -62.5q-134 -1 -194 71q-46 54 -46 144q0 28 5 60z" />
<glyph unicode="v" horiz-adv-x="1067" d="M102 991h136l168 -887h34q36 0 57.5 11.5t47.5 44.5q76 100 172 297q129 257 184 534h135q-69 -312 -211 -588q-127 -236 -196 -319q-33 -46 -68.5 -65t-93.5 -19h-119q-18 0 -31 10.5t-16 26.5z" />
<glyph unicode="w" horiz-adv-x="1714" d="M102 991h134l153 -887h27q26 0 45.5 12.5t42.5 49.5q64 98 137 293q78 212 137 499q1 17 12 26t27 9l141 -2q15 0 25.5 -9.5t13.5 -23.5l113 -854h25q44 0 82 58q105 158 161 297q99 217 160 532h135q-77 -337 -194 -588q-108 -224 -189 -323q-33 -42 -65.5 -61 t-81.5 -19h-88q-18 0 -30.5 11t-14.5 26l-113 866h-23q-13 -88 -48 -224.5t-78 -252.5q-32 -89 -78.5 -183t-83.5 -145q-58 -98 -174 -98h-80q-18 0 -30 10.5t-15 26.5z" />
<glyph unicode="x" horiz-adv-x="1058" d="M-31 0l422 516l-254 475h133l217 -422h64l342 422h143l-389 -477l275 -514h-134l-243 465h-53l-373 -465h-150z" />
<glyph unicode="y" horiz-adv-x="1083" d="M76 -334q117 31 215 109.5t196 224.5h-84q-41 0 -70.5 24t-37.5 62l-197 905h138l170 -844q10 -43 51 -43h96q25 43 47 82q111 197 183 384t128 421h136q-116 -474 -332 -841q-159 -277 -299 -408t-318 -166z" />
<glyph unicode="z" horiz-adv-x="1017" d="M16 0l15 109h-2l770 776h-652l15 106h807l-17 -106h2l-770 -776h666l-14 -109h-820z" />
<glyph unicode="{" horiz-adv-x="636" d="M100 623l15 102q5 1 13 4q72 21 92 38q31 26 44 111q1 6 2 13l60 418q21 145 102.5 209.5t251.5 54.5l-6 -84q-109 0 -160.5 -46.5t-67.5 -148.5l-53 -385q-17 -125 -56.5 -170t-148.5 -67q100 -36 130.5 -83.5t15.5 -152.5l-70 -502q-14 -102 21 -145t145 -43l-6 -84 q-167 -9 -236 59t-47 211l74 535q7 51 -3.5 79.5t-28 39.5t-69.5 31q-3 2 -4.5 2.5l-4.5 1.5t-5 2z" />
<glyph unicode="|" horiz-adv-x="493" d="M66 -346l272 1945h98l-274 -1945h-96z" />
<glyph unicode="}" horiz-adv-x="636" d="M-45 -338l6 84q109 0 159 46t64 147l70 503q17 107 58 151.5t155 78.5q-99 22 -128 71t-9 172l53 385q14 103 -20.5 146t-145.5 43l6 84q328 20 285 -270l-59 -418q-11 -89 4.5 -112.5t83.5 -45.5q4 -1 6 -2t5.5 -2t6.5 -2l-14 -103q-83 -30 -105 -45q-43 -32 -53 -112 l-76 -535q-21 -146 -100.5 -209.5t-251.5 -54.5z" />
<glyph unicode="~" horiz-adv-x="1077" d="M145 479q6 112 55.5 168t123.5 51q68 -3 140 -32.5t141 -59.5t126 -35q59 -4 87.5 24.5t39.5 96.5l70 -6q-4 -107 -54 -163t-124 -50q-61 3 -122 21.5t-102 40t-91.5 41t-92.5 22.5q-59 6 -88.5 -24.5t-38.5 -100.5z" />
<glyph unicode="&#xa1;" horiz-adv-x="503" d="M45 -408l90 637l62 344h104l-37 -344l-88 -637h-131zM217 834l16 118q6 47 56 47h37q54 0 45 -53l-17 -115q-6 -49 -55 -49h-35q-53 0 -47 52z" />
<glyph unicode="&#xa2;" horiz-adv-x="1032" d="M137 721q41 284 159.5 399t369.5 115h12l41 178h72l-41 -180q139 -11 219 -43l-23 -82q-84 10 -223 14l-178 -817h12q154 0 295 23l10 -90q-152 -45 -325 -45h-19l-43 -193h-72l43 197q-203 19 -274.5 141t-34.5 383zM261 528.5q2 -73.5 27.5 -120t70 -69.5t116.5 -30 l178 813q-93 -3 -155 -23t-109 -67.5t-74.5 -124.5t-42.5 -196q-13 -109 -11 -182.5z" />
<glyph unicode="&#xa3;" horiz-adv-x="1155" d="M47 0l16 117q109 55 160 157t64 252l16 176h-166l13 84h159l27 289q9 95 34 161t58.5 105t88.5 60.5t109 28t134 6.5q146 0 352 -21l-16 -104q-188 10 -355 10q-139 0 -201.5 -56.5t-74.5 -195.5l-25 -283h465l-16 -84h-457l-14 -176q-13 -152 -59 -251t-146 -164 q41 4 127 4h641l-16 -115h-918z" />
<glyph unicode="&#xa4;" horiz-adv-x="1222" d="M119 334l162 141q-68 107 -50 252q18 159 115 264l-137 158l61 59l142 -161q106 73 256 73q149 0 247 -82l160 144l55 -66l-159 -139q72 -107 53 -262q-18 -152 -111 -256l142 -160l-64 -55l-139 159q-112 -79 -264 -79q-155 0 -254 86l-158 -140zM313 715 q-14 -139 59 -224t210 -88q148 -4 246.5 85t113.5 239q14 139 -59 226t-215 87q-150 0 -245 -88.5t-110 -236.5z" />
<glyph unicode="&#xa5;" horiz-adv-x="1249" d="M145 338l13 82h370l17 123l-8 24h-359l10 82h314l-307 764h137l235 -598q39 -102 51 -151h17q41 84 90 155l401 594h150l-520 -764h317l-12 -82h-363l-18 -28l-16 -119h376l-12 -82h-377l-47 -338h-135l47 338h-371z" />
<glyph unicode="&#xa6;" horiz-adv-x="493" d="M66 -346l114 819h99l-115 -819h-98zM223 780l115 819h98l-114 -819h-99z" />
<glyph unicode="&#xa7;" horiz-adv-x="1114" d="M23 -293l18 100q200 -11 399 -14q48 -1 79 0t68.5 5.5t61 14.5t46.5 26.5t36 43t19 62.5q10 74 -20 121.5t-91 85.5l-326 196q-67 40 -104.5 86t-47.5 104.5t-1 122t37 152.5l96 -2q-17 -74 -22 -121.5t1.5 -92.5t32 -78t72.5 -62l340 -211q102 -62 143 -133.5t25 -184.5 q-10 -67 -36 -113.5t-59 -72.5t-87.5 -39.5t-105 -17t-128.5 -2.5q-238 4 -446 24zM219 1196q9 62 32 105.5t56 70.5t85 42t108 20t135 4q238 0 446 -25l-18 -100q-186 12 -399 14q-52 1 -86 -0.5t-70.5 -6t-59.5 -14t-44 -25.5t-32.5 -40.5t-17.5 -58.5q-10 -73 19 -119.5 t92 -85.5l330 -203q67 -41 103.5 -88.5t46 -107t0.5 -123.5t-36 -152l-98 2q22 97 24 159t-23.5 115t-86.5 91l-336 211q-105 65 -146 135t-24 180z" />
<glyph unicode="&#xa8;" horiz-adv-x="833" d="M287 1255l16 113q6 41 47 41h41q23 0 30.5 -9.5t4.5 -31.5l-16 -111q-3 -22 -13 -31t-32 -9h-41q-40 0 -37 38zM639 1255l16 113q6 41 47 41h39q24 0 32 -9.5t5 -31.5l-18 -111q-1 -22 -11 -31t-32 -9h-43q-41 0 -35 38z" />
<glyph unicode="&#xa9;" horiz-adv-x="1724" d="M145 713q20 155 87 288t171 230t249 152t313 55q157 0 287 -53.5t216.5 -149t125 -234t16.5 -301.5q-27 -209 -134 -372.5t-286 -258t-402 -94.5q-213 0 -369.5 94t-229 262.5t-44.5 381.5zM219 700q-18 -146 16.5 -269t111 -207t189.5 -130.5t250 -46.5q201 0 363.5 86 t261.5 236.5t123 343.5q38 289 -121 471t-444 182q-202 0 -364.5 -86.5t-261 -236.5t-124.5 -343zM489 717q35 255 138.5 354.5t328.5 99.5q149 0 265 -26l-17 -74q-108 10 -237 10q-95 0 -156 -16t-106.5 -58.5t-71 -113.5t-41.5 -186q-29 -206 21.5 -284.5t213.5 -78.5 q190 0 293 12l6 -75q-139 -29 -284 -29q-233 0 -310.5 103t-42.5 362z" />
<glyph unicode="&#xaa;" horiz-adv-x="911" d="M163.5 747.5q-4.5 61.5 10.5 147.5q10 74 26.5 130t41 93.5t52 61.5t66 37t76.5 17.5t90 4.5q138 0 305 -29l-92 -657h-80l11 137q-60 -68 -139 -109.5t-160 -41.5q-50 0 -85 9.5t-64 33t-41.5 64t-17 102zM263 754.5q-2 -50.5 14.5 -78t40.5 -36.5t69 -9q128 0 287 147 l51 371q-144 4 -168 4q-61 0 -98.5 -5t-71.5 -20t-53.5 -45t-34.5 -77t-25 -119q-9 -82 -11 -132.5z" />
<glyph unicode="&#xab;" horiz-adv-x="958" d="M80 504l4 33l385 399l55 -49l-329 -375l231 -381l-66 -45zM434 504l4 33l385 399l56 -49l-330 -375l231 -381l-65 -45z" />
<glyph unicode="&#xac;" horiz-adv-x="1204" d="M152 557l14 102h883l-56 -385h-104l41 283h-778z" />
<glyph unicode="&#xad;" horiz-adv-x="940" d="M137 465l15 102h628l-14 -102h-629z" />
<glyph unicode="&#xae;" horiz-adv-x="1155" d="M176 993q23 206 159 324.5t337 118.5q205 0 321 -124t92 -335q-25 -203 -158 -328t-335 -125q-208 0 -324.5 130.5t-91.5 338.5zM227 985q-21 -191 81.5 -301.5t283.5 -110.5q185 0 303 114.5t139 299.5q20 189 -79 295.5t-283 106.5q-191 0 -307.5 -111t-137.5 -293z M383 709l78 546q89 7 211 7q56 0 91 -5t65.5 -21t41.5 -49t4 -85q-7 -65 -37.5 -96t-95.5 -43l-2 -5q22 -8 35.5 -25.5t22.5 -53.5l45 -170h-70l-41 172q-9 34 -28 47.5t-52 13.5h-170l-32 -233h-66zM489 991h156q84 2 119.5 24t44.5 93q9 66 -19.5 84t-115.5 18h-154z" />
<glyph unicode="&#xaf;" horiz-adv-x="819" d="M238 1260l14 100h557l-14 -100h-557z" />
<glyph unicode="&#xb0;" horiz-adv-x="757" d="M199 1188q10 112 89 181t191 69q118 0 185 -74.5t55 -187.5q-10 -114 -90.5 -184t-192.5 -70q-120 0 -183 77.5t-54 188.5zM285 1182q-8 -78 35.5 -128t119.5 -50q77 0 131.5 48.5t61.5 129.5q8 78 -34.5 127t-121.5 49q-78 0 -131 -49t-61 -127z" />
<glyph unicode="&#xb1;" horiz-adv-x="1206" d="M100 160l15 100h882l-16 -100h-881zM172 676l14 100h389l39 283h105l-41 -283h391l-14 -100h-389l-41 -283h-101l39 283h-391z" />
<glyph unicode="&#xb2;" horiz-adv-x="811" d="M150 731l8 53q3 24 22 43l312 279q97 86 146.5 151t49.5 134q0 51 -37 69.5t-112 18.5q-116 0 -267 -25l2 82q150 33 281 33q128 0 190 -34t62 -120q0 -89 -56.5 -167.5t-160.5 -172.5l-285 -254q49 2 133 2h326l-14 -92h-600z" />
<glyph unicode="&#xb3;" horiz-adv-x="819" d="M152 745l20 78q123 -18 256 -18q111 0 164 50t53 157q0 50 -35 79t-125 29l-172 2l11 78l174 2q182 6 182 187q0 55 -37 74.5t-133 19.5q-112 0 -236 -21l2 78q152 31 254 31q135 0 196.5 -34.5t61.5 -113.5q0 -96 -42.5 -166t-124.5 -86v-4q131 -25 131 -153 q0 -153 -79 -226t-237 -73q-134 0 -284 30z" />
<glyph unicode="&#xb4;" horiz-adv-x="616" d="M209 1171l377 302l65 -101l-397 -262z" />
<glyph unicode="&#xb5;" horiz-adv-x="1177" d="M43 -403l104 747l93 647h129l-103 -712q-12 -95 23.5 -138t124.5 -43q59 0 122 23.5t124.5 70t111.5 125.5t74 179l69 495h129l-108 -782q-12 -59 -2 -92t55 -33h86v-80q-78 -20 -147 -20q-76 0 -105.5 43.5t-17.5 136.5l10 72q-73 -120 -190.5 -190.5t-237.5 -70.5 q-96 0 -158 43l-28 -194l-51 -227h-107z" />
<glyph unicode="&#xb6;" horiz-adv-x="1214" d="M135 946q21 145 66.5 239.5t129 151t197 79t281.5 22.5q170 0 313 -35l-198 -1403h-105l189 1335q-133 13 -238 13l-250 -1778h-104l119 842q-245 26 -340.5 157t-59.5 377z" />
<glyph unicode="&#xb7;" horiz-adv-x="456" d="M137 471l17 117q6 49 53 49h47q28 0 38 -13t7 -40l-16 -119q-6 -47 -54 -47h-45q-56 0 -47 53z" />
<glyph unicode="&#xb8;" horiz-adv-x="466" d="M-57 -463l24 72q90 -3 155.5 44t76.5 118q6 43 -15.5 57t-93.5 16l16 64q110 9 157 -22.5t32 -116.5q-19 -120 -116.5 -185.5t-235.5 -46.5z" />
<glyph unicode="&#xb9;" horiz-adv-x="598" d="M201 1470l243 86h105l-117 -825h-104l94 662q3 35 14 69l-231 -65z" />
<glyph unicode="&#xba;" horiz-adv-x="907" d="M170 895q26 190 107 267t255 77q182 0 246.5 -80.5t36.5 -275.5q-26 -189 -108.5 -266.5t-255.5 -77.5q-178 0 -243.5 81t-37.5 275zM272 883q-20 -150 18.5 -204t160.5 -54q125 0 181.5 58t78.5 212q20 150 -17 205t-159 55q-128 0 -184 -58t-79 -214z" />
<glyph unicode="&#xbb;" horiz-adv-x="958" d="M53 131l330 375l-231 381l65 45l281 -418l-4 -33l-385 -399zM408 131l329 375l-231 381l65 45l281 -418l-4 -33l-385 -399z" />
<glyph unicode="&#xbc;" horiz-adv-x="1738" d="M178 0l1139 1413h100l-1138 -1413h-101zM184 1325l256 88h105l-119 -848h-104l96 682q10 63 14 76l-246 -70zM907.5 248.5q-21.5 35.5 7.5 87.5l349 512h104l-340 -506q-13 -19 -5.5 -33t32.5 -14h356l35 252l39 139h80l-56 -391h101l-11 -72l-100 -8l-31 -215h-98 l29 213h-420q-50 0 -71.5 35.5z" />
<glyph unicode="&#xbd;" horiz-adv-x="1785" d="M168 0l1139 1413h100l-1139 -1413h-100zM182 1325l258 88h103l-119 -848h-105l97 682q8 48 16 76l-246 -70zM977 0l8 61q3 27 21 45l325 281q103 91 154.5 158.5t60.5 130.5q8 62 -31.5 80t-134.5 18q-127 0 -276 -20l-6 77q155 31 282 31q63 0 107 -4.5t82 -16.5 t58.5 -33.5t28.5 -55.5t1 -82q-9 -70 -59 -140t-154 -163l-326 -277q102 4 150 2h348l-14 -92h-625z" />
<glyph unicode="&#xbe;" horiz-adv-x="1929" d="M119 567l10 78q135 -12 260 -12q121 0 179 41.5t71 140.5q7 30 1.5 57.5t-21 48.5t-54 33.5t-98.5 12.5h-178l10 75l172 2q58 1 99.5 16.5t62.5 41.5t30.5 51.5t12.5 56.5q10 76 -27 101.5t-153 25.5q-138 0 -248 -10l-4 76q134 20 260 20q170 0 231.5 -43.5t44.5 -156.5 q-12 -88 -52.5 -142t-125.5 -67l-10 -4q93 -13 127 -68t24 -151q-15 -130 -89.5 -187t-237.5 -57q-113 0 -297 20zM391 0l1139 1413h100l-1138 -1413h-101zM1096 248.5q-21 35.5 10 87.5l348 512h102l-339 -506q-13 -19 -5.5 -33t31.5 -14h346l35 252l39 139h80l-55 -391 h112l-12 -72l-111 -8l-30 -215h-99l29 213h-408q-52 0 -73 35.5z" />
<glyph unicode="&#xbf;" horiz-adv-x="1013" d="M-10 -119q8 62 36 116.5t67 97t85 83.5t92.5 83.5t86.5 88.5t70.5 108t41.5 132l111 -4q-10 -77 -38.5 -144.5t-66 -116.5t-81.5 -93.5t-88 -83.5t-81 -77.5t-63.5 -85.5t-34.5 -98q-19 -113 42.5 -165t213.5 -52q227 0 412 23l6 -94q-18 -3 -63.5 -11t-63 -10.5 t-58 -7.5t-71.5 -7t-79.5 -3.5t-105.5 -1.5q-203 0 -297.5 84.5t-72.5 238.5zM496 850l16 119q3 25 14.5 36t36.5 11h37q53 0 47 -53l-16 -117q-3 -26 -15.5 -37.5t-37.5 -11.5h-37q-54 0 -45 53z" />
<glyph unicode="&#xc0;" horiz-adv-x="1253" d="M-55 0l665 1378q14 35 56 35h153q19 0 33.5 -12t15.5 -29l281 -1372h-135l-90 467h-615l-221 -467h-143zM365 586h536l-117 604l-18 119h-61q-35 -76 -56 -119zM461 1765l76 93l317 -302l-51 -59z" />
<glyph unicode="&#xc1;" horiz-adv-x="1253" d="M-55 0l665 1378q14 35 56 35h153q19 0 33.5 -12t15.5 -29l281 -1372h-135l-90 467h-615l-221 -467h-143zM365 586h536l-117 604l-18 119h-61q-35 -76 -56 -119zM639 1559l377 301l65 -101l-397 -262z" />
<glyph unicode="&#xc2;" horiz-adv-x="1253" d="M-55 0l665 1378q14 35 56 35h153q19 0 33.5 -12t15.5 -29l281 -1372h-135l-90 467h-615l-221 -467h-143zM365 586h536l-117 604l-18 119h-61q-35 -76 -56 -119zM442 1569l306 254h94l250 -260l-50 -54l-241 207h-19l-301 -205z" />
<glyph unicode="&#xc3;" horiz-adv-x="1253" d="M-55 0l665 1378q14 35 56 35h153q19 0 33.5 -12t15.5 -29l281 -1372h-135l-90 467h-615l-221 -467h-143zM365 586h536l-117 604l-18 119h-61q-35 -76 -56 -119zM451 1579q6 109 56 164t124 49q43 -3 81.5 -21.5t63.5 -39t61.5 -39.5t73.5 -23q61 -6 91.5 22t39.5 93 l66 -4q-6 -105 -55.5 -159t-124.5 -48q-48 3 -90.5 22t-68.5 40t-59.5 40t-64.5 23q-60 6 -91 -25.5t-40 -99.5z" />
<glyph unicode="&#xc4;" horiz-adv-x="1253" d="M-55 0l665 1378q14 35 56 35h153q19 0 33.5 -12t15.5 -29l281 -1372h-135l-90 467h-615l-221 -467h-143zM365 586h536l-117 604l-18 119h-61q-35 -76 -56 -119zM532 1616l17 113q3 22 14 31t33 9h41q23 0 30.5 -9t4.5 -31l-17 -111q-3 -22 -13 -31.5t-32 -9.5h-41 q-40 0 -37 39zM885 1616l16 113q3 22 14 31t33 9h39q24 0 32 -9t5 -31l-18 -111q-2 -22 -11.5 -31.5t-31.5 -9.5h-43q-41 0 -35 39z" />
<glyph unicode="&#xc5;" horiz-adv-x="1253" d="M-55 0l665 1378q14 35 56 35h153q19 0 33.5 -12t15.5 -29l281 -1372h-135l-90 467h-615l-221 -467h-143zM365 586h536l-117 604l-18 119h-61q-35 -76 -56 -119zM567 1655q0 96 65 161.5t161 65.5q90 0 144 -52t54 -136q0 -97 -65 -162.5t-162 -65.5q-89 0 -143 52.5 t-54 136.5zM645 1661q0 -55 31.5 -89t89.5 -34q65 0 106 44.5t41 107.5q0 52 -32 86t-88 34q-66 0 -107 -43.5t-41 -105.5z" />
<glyph unicode="&#xc6;" horiz-adv-x="1861" d="M-78 0l912 1210q90 121 185 162t255 41q382 0 592 -10l-17 -103h-532q-70 0 -115 -38.5t-55 -112.5l-47 -346h596l-13 -107h-600l-59 -436q-10 -72 21 -109.5t102 -37.5h536l-6 -103q-223 -12 -555 -12q-118 0 -182 70.5t-45 187.5l33 238h-490l-370 -494h-146zM524 610 l420 -2l78 559q6 45 32 88t58 60h-8q-77 -36 -154 -137z" />
<glyph unicode="&#xc7;" horiz-adv-x="1153" d="M152 713q28 204 74 339.5t122 223t181.5 125t256.5 37.5q127 0 207 -9t168 -30l-24 -101q-159 19 -351 19q-119 0 -199 -28.5t-139.5 -101t-96 -188.5t-62.5 -299q-19 -139 -20 -238t16 -171t58 -114t102.5 -61.5t152.5 -19.5q212 -2 395 23l11 -101q-165 -43 -406 -43 q-298 0 -400.5 171t-45.5 567zM322 -487l24 71q90 -3 155.5 44t76.5 118q6 43 -15.5 58t-93.5 16l16 63q110 9 157 -22.5t32 -116.5q-19 -120 -116.5 -185t-235.5 -46z" />
<glyph unicode="&#xc8;" horiz-adv-x="1136" d="M127 256l131 930q14 106 85 167.5t189 61.5q417 0 607 -12l-19 -103h-569q-146 0 -164 -151l-47 -346l631 -2l-15 -103l-630 -2l-62 -438q-21 -145 123 -145h567l-2 -103q-188 -12 -583 -12q-130 0 -193.5 69.5t-48.5 188.5zM463 1810l76 93l317 -301l-51 -60z" />
<glyph unicode="&#xc9;" horiz-adv-x="1136" d="M127 256l131 930q14 106 85 167.5t189 61.5q417 0 607 -12l-19 -103h-569q-146 0 -164 -151l-47 -346l631 -2l-15 -103l-630 -2l-62 -438q-21 -145 123 -145h567l-2 -103q-188 -12 -583 -12q-130 0 -193.5 69.5t-48.5 188.5zM641 1604l377 301l65 -101l-397 -262z" />
<glyph unicode="&#xca;" horiz-adv-x="1136" d="M127 256l131 930q14 106 85 167.5t189 61.5q417 0 607 -12l-19 -103h-569q-146 0 -164 -151l-47 -346l631 -2l-15 -103l-630 -2l-62 -438q-21 -145 123 -145h567l-2 -103q-188 -12 -583 -12q-130 0 -193.5 69.5t-48.5 188.5zM444 1614l306 254h94l250 -260l-50 -54 l-241 207h-19l-301 -205z" />
<glyph unicode="&#xcb;" horiz-adv-x="1136" d="M127 256l131 930q14 106 85 167.5t189 61.5q417 0 607 -12l-19 -103h-569q-146 0 -164 -151l-47 -346l631 -2l-15 -103l-630 -2l-62 -438q-21 -145 123 -145h567l-2 -103q-188 -12 -583 -12q-130 0 -193.5 69.5t-48.5 188.5zM535 1661l16 113q6 41 47 41h41 q23 0 30.5 -9.5t4.5 -31.5l-17 -111q-3 -22 -13 -31.5t-32 -9.5h-41q-39 0 -36 39zM887 1661l16 113q6 41 47 41h39q24 0 32 -9.5t5 -31.5l-18 -111q-2 -22 -11.5 -31.5t-31.5 -9.5h-43q-41 0 -35 39z" />
<glyph unicode="&#xcc;" horiz-adv-x="512" d="M88 1765l76 93l317 -302l-51 -59zM104 0l199 1413h135l-198 -1413h-136z" />
<glyph unicode="&#xcd;" horiz-adv-x="512" d="M104 0l199 1413h135l-198 -1413h-136zM266 1559l377 301l66 -101l-398 -262z" />
<glyph unicode="&#xce;" horiz-adv-x="512" d="M70 1569l305 254h94l250 -260l-49 -54l-242 207h-18l-301 -205zM104 0l199 1413h135l-198 -1413h-136z" />
<glyph unicode="&#xcf;" horiz-adv-x="512" d="M104 0l199 1413h135l-198 -1413h-136zM160 1616l16 113q3 22 14 31t33 9h41q23 0 30.5 -9t4.5 -31l-16 -111q-3 -22 -13 -31.5t-32 -9.5h-41q-40 0 -37 39zM512 1616l16 113q3 22 14 31t33 9h39q24 0 32 -9t5 -31l-18 -111q-2 -22 -11.5 -31.5t-31.5 -9.5h-43 q-41 0 -35 39z" />
<glyph unicode="&#xd0;" horiz-adv-x="1353" d="M57 715l11 80h149l86 618q264 19 465 19q126 0 214.5 -24t150 -77t89 -138t32 -207.5t-20.5 -285.5q-21 -148 -49 -257t-69 -189.5t-90.5 -132.5t-118.5 -83t-147.5 -43.5t-183.5 -12.5q-210 0 -471 18l101 715h-148zM254 104q204 -4 319 -4q102 0 174 17t130.5 56.5 t98 111t68.5 174.5t50 254q21 145 22 245.5t-17 171.5t-62.5 110.5t-109 57t-161.5 17.5q-124 0 -342 -4l-72 -516h334l-12 -80h-334z" />
<glyph unicode="&#xd1;" horiz-adv-x="1429" d="M104 0l191 1360q5 28 19 40.5t42 12.5h129q47 0 62 -47l391 -1049q57 -163 66 -192h45q6 62 22 197l152 1091h133l-193 -1360q-6 -53 -59 -53h-135q-42 0 -60 47l-401 1075q-44 126 -55 166h-41q-5 -74 -19 -176l-153 -1112h-136zM553 1579q6 109 56 164t124 49 q43 -3 82 -21.5t64 -39t61.5 -39.5t73.5 -23q61 -6 91.5 22t39.5 93l65 -4q-6 -105 -55.5 -159t-124.5 -48q-48 3 -90.5 22t-68.5 40t-59 40t-64 23q-60 6 -91.5 -25.5t-40.5 -99.5z" />
<glyph unicode="&#xd2;" d="M132.5 425.5q-5.5 123.5 19.5 287.5q28 204 74 339.5t122.5 223t183 125t259.5 37.5q119 0 204 -24.5t145 -78.5t87.5 -140t32.5 -209t-21 -286q-37 -274 -111 -430.5t-198.5 -225.5t-325.5 -69q-119 0 -203.5 24t-145.5 77.5t-89 139.5t-33.5 209.5zM277 340.5 q22 -134.5 98.5 -190.5t230.5 -56q156 0 251.5 59t152 191t90.5 369q23 174 22.5 290t-39.5 186.5t-109.5 100t-187.5 29.5q-96 0 -166 -20t-124.5 -63t-93 -117t-65.5 -174.5t-48 -244.5q-34 -225 -12 -359.5zM504 1765l76 93l317 -302l-51 -59z" />
<glyph unicode="&#xd3;" d="M132.5 425.5q-5.5 123.5 19.5 287.5q28 204 74 339.5t122.5 223t183 125t259.5 37.5q119 0 204 -24.5t145 -78.5t87.5 -140t32.5 -209t-21 -286q-37 -274 -111 -430.5t-198.5 -225.5t-325.5 -69q-119 0 -203.5 24t-145.5 77.5t-89 139.5t-33.5 209.5zM277 340.5 q22 -134.5 98.5 -190.5t230.5 -56q156 0 251.5 59t152 191t90.5 369q23 174 22.5 290t-39.5 186.5t-109.5 100t-187.5 29.5q-96 0 -166 -20t-124.5 -63t-93 -117t-65.5 -174.5t-48 -244.5q-34 -225 -12 -359.5zM682 1559l377 301l65 -101l-397 -262z" />
<glyph unicode="&#xd4;" d="M132.5 425.5q-5.5 123.5 19.5 287.5q28 204 74 339.5t122.5 223t183 125t259.5 37.5q119 0 204 -24.5t145 -78.5t87.5 -140t32.5 -209t-21 -286q-37 -274 -111 -430.5t-198.5 -225.5t-325.5 -69q-119 0 -203.5 24t-145.5 77.5t-89 139.5t-33.5 209.5zM277 340.5 q22 -134.5 98.5 -190.5t230.5 -56q156 0 251.5 59t152 191t90.5 369q23 174 22.5 290t-39.5 186.5t-109.5 100t-187.5 29.5q-96 0 -166 -20t-124.5 -63t-93 -117t-65.5 -174.5t-48 -244.5q-34 -225 -12 -359.5zM485 1569l306 254h94l250 -260l-50 -54l-241 207h-19 l-301 -205z" />
<glyph unicode="&#xd5;" d="M132.5 425.5q-5.5 123.5 19.5 287.5q28 204 74 339.5t122.5 223t183 125t259.5 37.5q119 0 204 -24.5t145 -78.5t87.5 -140t32.5 -209t-21 -286q-37 -274 -111 -430.5t-198.5 -225.5t-325.5 -69q-119 0 -203.5 24t-145.5 77.5t-89 139.5t-33.5 209.5zM277 340.5 q22 -134.5 98.5 -190.5t230.5 -56q156 0 251.5 59t152 191t90.5 369q23 174 22.5 290t-39.5 186.5t-109.5 100t-187.5 29.5q-96 0 -166 -20t-124.5 -63t-93 -117t-65.5 -174.5t-48 -244.5q-34 -225 -12 -359.5zM494 1579q6 109 56 164t124 49q43 -3 81.5 -21.5t63.5 -39 t61.5 -39.5t73.5 -23q61 -6 91.5 22t39.5 93l66 -4q-6 -105 -55.5 -159t-124.5 -48q-48 3 -90.5 22t-68.5 40t-59.5 40t-64.5 23q-60 6 -91 -25.5t-40 -99.5z" />
<glyph unicode="&#xd6;" d="M132.5 425.5q-5.5 123.5 19.5 287.5q28 204 74 339.5t122.5 223t183 125t259.5 37.5q119 0 204 -24.5t145 -78.5t87.5 -140t32.5 -209t-21 -286q-37 -274 -111 -430.5t-198.5 -225.5t-325.5 -69q-119 0 -203.5 24t-145.5 77.5t-89 139.5t-33.5 209.5zM277 340.5 q22 -134.5 98.5 -190.5t230.5 -56q156 0 251.5 59t152 191t90.5 369q23 174 22.5 290t-39.5 186.5t-109.5 100t-187.5 29.5q-96 0 -166 -20t-124.5 -63t-93 -117t-65.5 -174.5t-48 -244.5q-34 -225 -12 -359.5zM575 1616l17 113q3 22 14 31t33 9h41q23 0 30.5 -9t4.5 -31 l-17 -111q-3 -22 -13 -31.5t-32 -9.5h-41q-40 0 -37 39zM928 1616l16 113q3 22 14 31t33 9h39q24 0 32 -9t5 -31l-18 -111q-2 -22 -11.5 -31.5t-31.5 -9.5h-43q-41 0 -35 39z" />
<glyph unicode="&#xd7;" horiz-adv-x="1075" d="M98 309l359 287l-273 281l74 73l281 -291l376 302l62 -87l-365 -290l275 -283l-74 -74l-283 291l-370 -295z" />
<glyph unicode="&#xd8;" d="M143.5 305.5q-26.5 155.5 8.5 407.5q28 204 74 339.5t122.5 223t183 125t259.5 37.5q165 0 272 -49l88 145l70 -39l-93 -149q93 -79 120 -236.5t-9 -409.5q-37 -274 -111 -430.5t-198.5 -225.5t-325.5 -69q-169 0 -276 52l-88 -144l-68 41l90 148q-92 78 -118.5 233.5z M272 382q10 -126 62 -192l661 1088q-72 41 -209 41q-96 0 -166 -20t-124.5 -63t-93 -117t-65.5 -174.5t-48 -244.5q-27 -192 -17 -318zM395 137q71 -43 211 -43q156 0 251.5 59t152 191t90.5 369q30 198 21 323.5t-62 190.5z" />
<glyph unicode="&#xd9;" horiz-adv-x="1361" d="M170 539l123 874h135l-125 -881q-26 -162 -1.5 -259.5t95.5 -138t207 -40.5q205 0 303.5 100t132.5 345l123 874h135l-124 -881q-43 -304 -172 -430.5t-394 -126.5q-272 0 -376 131t-62 433zM504 1765l76 93l317 -302l-51 -59z" />
<glyph unicode="&#xda;" horiz-adv-x="1361" d="M170 539l123 874h135l-125 -881q-26 -162 -1.5 -259.5t95.5 -138t207 -40.5q205 0 303.5 100t132.5 345l123 874h135l-124 -881q-43 -304 -172 -430.5t-394 -126.5q-272 0 -376 131t-62 433zM682 1559l377 301l65 -101l-397 -262z" />
<glyph unicode="&#xdb;" horiz-adv-x="1361" d="M170 539l123 874h135l-125 -881q-26 -162 -1.5 -259.5t95.5 -138t207 -40.5q205 0 303.5 100t132.5 345l123 874h135l-124 -881q-43 -304 -172 -430.5t-394 -126.5q-272 0 -376 131t-62 433zM485 1569l306 254h94l250 -260l-50 -54l-241 207h-19l-301 -205z" />
<glyph unicode="&#xdc;" horiz-adv-x="1361" d="M170 539l123 874h135l-125 -881q-26 -162 -1.5 -259.5t95.5 -138t207 -40.5q205 0 303.5 100t132.5 345l123 874h135l-124 -881q-43 -304 -172 -430.5t-394 -126.5q-272 0 -376 131t-62 433zM575 1616l17 113q3 22 14 31t33 9h41q23 0 30.5 -9t4.5 -31l-17 -111 q-3 -22 -13 -31.5t-32 -9.5h-41q-40 0 -37 39zM928 1616l16 113q3 22 14 31t33 9h39q24 0 32 -9t5 -31l-18 -111q-2 -22 -11.5 -31.5t-31.5 -9.5h-43q-41 0 -35 39z" />
<glyph unicode="&#xdd;" horiz-adv-x="1134" d="M137 1413h137l236 -631q28 -73 47 -151h14q28 60 88 157l412 625h148l-601 -907l-71 -506h-135l71 512zM557 1559l377 301l65 -101l-397 -262z" />
<glyph unicode="&#xde;" horiz-adv-x="1202" d="M106 0l160 1137l39 276h133l-37 -266q92 6 334 6q79 0 138 -9t108 -29.5t78 -53.5t48 -82.5t19 -115.5t-10 -152q-18 -128 -51 -210.5t-92 -131t-137 -67.5t-195 -19q-186 0 -358 16l-43 -299h-134zM295 399h332q90 1 148 15t101.5 50.5t68 98.5t38.5 160q6 63 8 110.5 t-9.5 82.5t-28.5 58t-50 37t-73.5 19.5t-98.5 5.5q-264 0 -346 -2z" />
<glyph unicode="&#xdf;" horiz-adv-x="1357" d="M-252 -406l19 97h157q102 0 149 41.5t64 150.5l144 1006h-183l15 92l182 10l16 115q13 96 43.5 163t70 106t101.5 60.5t121 28t146 6.5q253 0 351 -56.5t81 -203.5q-9 -93 -61.5 -151.5t-162.5 -112.5q-16 -7 -54 -22.5t-53 -22.5t-43 -21t-40.5 -25t-28.5 -27.5 t-23.5 -36t-10.5 -43.5q-7 -46 17 -77t87 -65l223 -123q95 -53 130 -107.5t22 -156.5q-8 -62 -30.5 -105.5t-54 -70t-81 -41.5t-101 -20t-124.5 -5q-152 0 -322 23l16 98q172 -13 293 -10q139 2 201 31t72 117q2 16 2 30t-1.5 25t-6.5 22t-9 18.5t-12.5 16.5t-14.5 14 t-17.5 13t-18.5 12.5t-21 12.5q-7 4 -10 6l-225 122q-80 46 -114.5 100t-24.5 128q4 40 23 73.5t35 53.5t64 47.5t67.5 36.5t87.5 39q7 4 12 6l10 4q43 22 66.5 36t52.5 38t43.5 55t17.5 72q4 49 -14.5 78.5t-85.5 48t-191 18.5q-194 0 -272 -56t-101 -219l-172 -1222 q-23 -149 -96 -216t-217 -67q-88 0 -205 12z" />
<glyph unicode="&#xe0;" horiz-adv-x="1167" d="M119 504q24 163 60.5 263.5t99.5 156.5t141 75t201 19q191 0 432 -41l-140 -977h-100l18 225q-97 -115 -219 -182.5t-243 -67.5q-182 0 -237.5 120t-12.5 409zM228.5 251q5.5 -90 42 -125.5t118.5 -35.5q202 0 445 246l77 563q-218 8 -254 8q-78 0 -130 -5.5t-96 -23.5 t-70.5 -45t-48.5 -76t-36 -109.5t-28 -153.5q-25 -153 -19.5 -243zM371 1397l75 92l318 -301l-51 -60z" />
<glyph unicode="&#xe1;" horiz-adv-x="1167" d="M119 504q24 163 60.5 263.5t99.5 156.5t141 75t201 19q191 0 432 -41l-140 -977h-100l18 225q-97 -115 -219 -182.5t-243 -67.5q-182 0 -237.5 120t-12.5 409zM228.5 251q5.5 -90 42 -125.5t118.5 -35.5q202 0 445 246l77 563q-218 8 -254 8q-78 0 -130 -5.5t-96 -23.5 t-70.5 -45t-48.5 -76t-36 -109.5t-28 -153.5q-25 -153 -19.5 -243zM549 1190l377 301l65 -100l-397 -263z" />
<glyph unicode="&#xe2;" horiz-adv-x="1167" d="M119 504q24 163 60.5 263.5t99.5 156.5t141 75t201 19q191 0 432 -41l-140 -977h-100l18 225q-97 -115 -219 -182.5t-243 -67.5q-182 0 -237.5 120t-12.5 409zM228.5 251q5.5 -90 42 -125.5t118.5 -35.5q202 0 445 246l77 563q-218 8 -254 8q-78 0 -130 -5.5t-96 -23.5 t-70.5 -45t-48.5 -76t-36 -109.5t-28 -153.5q-25 -153 -19.5 -243zM352 1200l305 254h95l249 -260l-49 -53l-241 207h-19l-301 -205z" />
<glyph unicode="&#xe3;" horiz-adv-x="1167" d="M119 504q24 163 60.5 263.5t99.5 156.5t141 75t201 19q191 0 432 -41l-140 -977h-100l18 225q-97 -115 -219 -182.5t-243 -67.5q-182 0 -237.5 120t-12.5 409zM228.5 251q5.5 -90 42 -125.5t118.5 -35.5q202 0 445 246l77 563q-218 8 -254 8q-78 0 -130 -5.5t-96 -23.5 t-70.5 -45t-48.5 -76t-36 -109.5t-28 -153.5q-25 -153 -19.5 -243zM360 1210q6 108 56.5 163.5t124.5 49.5q43 -3 81.5 -21.5t63.5 -39t61.5 -39.5t73.5 -23q61 -6 91.5 22t39.5 93l66 -4q-6 -105 -55.5 -159t-124.5 -48q-48 3 -90.5 22t-68.5 40t-59.5 40t-64.5 23 q-60 6 -91 -25.5t-40 -99.5z" />
<glyph unicode="&#xe4;" horiz-adv-x="1167" d="M119 504q24 163 60.5 263.5t99.5 156.5t141 75t201 19q191 0 432 -41l-140 -977h-100l18 225q-97 -115 -219 -182.5t-243 -67.5q-182 0 -237.5 120t-12.5 409zM228.5 251q5.5 -90 42 -125.5t118.5 -35.5q202 0 445 246l77 563q-218 8 -254 8q-78 0 -130 -5.5t-96 -23.5 t-70.5 -45t-48.5 -76t-36 -109.5t-28 -153.5q-25 -153 -19.5 -243zM442 1247l17 113q6 41 47 41h41q23 0 30.5 -9.5t4.5 -31.5l-17 -111q-3 -22 -13 -31.5t-32 -9.5h-41q-40 0 -37 39zM795 1247l16 113q6 41 47 41h39q24 0 32 -9.5t5 -31.5l-19 -111q-2 -22 -11.5 -31.5 t-31.5 -9.5h-43q-40 0 -34 39z" />
<glyph unicode="&#xe5;" horiz-adv-x="1167" d="M119 504q24 163 60.5 263.5t99.5 156.5t141 75t201 19q191 0 432 -41l-140 -977h-100l18 225q-97 -115 -219 -182.5t-243 -67.5q-182 0 -237.5 120t-12.5 409zM228.5 251q5.5 -90 42 -125.5t118.5 -35.5q202 0 445 246l77 563q-218 8 -254 8q-78 0 -130 -5.5t-96 -23.5 t-70.5 -45t-48.5 -76t-36 -109.5t-28 -153.5q-25 -153 -19.5 -243zM477 1286q0 96 64.5 161.5t160.5 65.5q90 0 144.5 -52t54.5 -136q0 -97 -65 -162t-162 -65q-89 0 -143 52t-54 136zM555 1292q0 -55 31.5 -89t89.5 -34q65 0 106 44.5t41 107.5q0 52 -32.5 86.5t-88.5 34.5 q-66 0 -106.5 -44t-40.5 -106z" />
<glyph unicode="&#xe6;" horiz-adv-x="1787" d="M115 504q24 163 61 264t100 156.5t139.5 74.5t196.5 19q189 0 439 -45q104 45 284 45q217 0 303 -74t54 -239q-26 -134 -108 -192t-253 -73l-405 -39q-7 -95 7 -157t52 -96.5t92.5 -48t139.5 -13.5q137 0 358 27l10 -88q-63 -23 -181 -36.5t-214 -13.5q-170 0 -264 57.5 t-123 180.5q-92 -110 -207.5 -174t-241.5 -64q-174 0 -227 125t-12 404zM228.5 254.5q3.5 -89.5 38.5 -127t112 -37.5q192 0 412 223q-3 87 12 201q40 269 137 377q-242 16 -293 16q-75 0 -126.5 -6t-94 -25t-68.5 -46t-48 -76.5t-35.5 -109t-26.5 -150.5 q-23 -150 -19.5 -239.5zM936 502l395 39q113 12 162.5 48t69.5 126q7 33 8 59t-5.5 45.5t-16 33.5t-27.5 24t-36.5 16t-46 9t-53 4t-61.5 1q-98 0 -157.5 -14t-107.5 -57t-75.5 -120.5t-46.5 -205.5q0 -6 -2 -8z" />
<glyph unicode="&#xe7;" horiz-adv-x="985" d="M106 502q40 285 159 400.5t370 115.5q183 0 303 -45l-23 -84q-109 16 -260 16q-102 0 -169.5 -18t-118.5 -65t-80 -126t-45 -204q-11 -83 -12.5 -144t9.5 -106.5t32.5 -74.5t58.5 -47t83.5 -25t112.5 -7q170 0 295 23l10 -91q-145 -45 -325 -45q-258 0 -349.5 120.5 t-50.5 406.5zM227 -487l25 71q90 -3 155 44t76 118q6 43 -15 58t-93 16l16 63q110 9 157 -22.5t32 -116.5q-19 -120 -117 -185t-236 -46z" />
<glyph unicode="&#xe8;" horiz-adv-x="1091" d="M109 514q21 153 59.5 250t104.5 154t152 78.5t216 21.5q216 0 302 -74.5t54 -238.5q-27 -134 -108 -192t-252 -73l-408 -39q-7 -95 7 -157t52.5 -96.5t93 -48t138.5 -13.5q140 0 365 27l10 -88q-66 -23 -184.5 -36.5t-214.5 -13.5q-251 0 -339 126.5t-48 412.5zM240 502 l397 39q113 12 162 48t67 126q7 33 8 59t-5 45.5t-15.5 33.5t-27 24t-36 16t-46 9t-53 4t-60.5 1q-98 0 -157.5 -14t-107.5 -57t-76 -120t-48 -206q0 -6 -2 -8zM354 1397l76 92l318 -301l-52 -60z" />
<glyph unicode="&#xe9;" horiz-adv-x="1091" d="M109 514q21 153 59.5 250t104.5 154t152 78.5t216 21.5q216 0 302 -74.5t54 -238.5q-27 -134 -108 -192t-252 -73l-408 -39q-7 -95 7 -157t52.5 -96.5t93 -48t138.5 -13.5q140 0 365 27l10 -88q-66 -23 -184.5 -36.5t-214.5 -13.5q-251 0 -339 126.5t-48 412.5zM240 502 l397 39q113 12 162 48t67 126q7 33 8 59t-5 45.5t-15.5 33.5t-27 24t-36 16t-46 9t-53 4t-60.5 1q-98 0 -157.5 -14t-107.5 -57t-76 -120t-48 -206q0 -6 -2 -8zM532 1190l377 301l66 -100l-397 -263z" />
<glyph unicode="&#xea;" horiz-adv-x="1091" d="M109 514q21 153 59.5 250t104.5 154t152 78.5t216 21.5q216 0 302 -74.5t54 -238.5q-27 -134 -108 -192t-252 -73l-408 -39q-7 -95 7 -157t52.5 -96.5t93 -48t138.5 -13.5q140 0 365 27l10 -88q-66 -23 -184.5 -36.5t-214.5 -13.5q-251 0 -339 126.5t-48 412.5zM240 502 l397 39q113 12 162 48t67 126q7 33 8 59t-5 45.5t-15.5 33.5t-27 24t-36 16t-46 9t-53 4t-60.5 1q-98 0 -157.5 -14t-107.5 -57t-76 -120t-48 -206q0 -6 -2 -8zM336 1200l305 254h94l250 -260l-49 -53l-242 207h-18l-301 -205z" />
<glyph unicode="&#xeb;" horiz-adv-x="1091" d="M109 514q21 153 59.5 250t104.5 154t152 78.5t216 21.5q216 0 302 -74.5t54 -238.5q-27 -134 -108 -192t-252 -73l-408 -39q-7 -95 7 -157t52.5 -96.5t93 -48t138.5 -13.5q140 0 365 27l10 -88q-66 -23 -184.5 -36.5t-214.5 -13.5q-251 0 -339 126.5t-48 412.5zM240 502 l397 39q113 12 162 48t67 126q7 33 8 59t-5 45.5t-15.5 33.5t-27 24t-36 16t-46 9t-53 4t-60.5 1q-98 0 -157.5 -14t-107.5 -57t-76 -120t-48 -206q0 -6 -2 -8zM426 1247l16 113q6 41 47 41h41q23 0 30.5 -9.5t4.5 -31.5l-16 -111q-3 -22 -13 -31.5t-32 -9.5h-41 q-40 0 -37 39zM778 1247l17 113q6 41 47 41h39q24 0 32 -9.5t5 -31.5l-19 -111q-2 -22 -11.5 -31.5t-31.5 -9.5h-43q-41 0 -35 39z" />
<glyph unicode="&#xec;" horiz-adv-x="483" d="M23 1397l75 92l318 -301l-51 -60zM92 0l141 991h129l-139 -991h-131z" />
<glyph unicode="&#xed;" horiz-adv-x="483" d="M92 0l141 991h129l-139 -991h-131zM201 1190l377 301l65 -100l-397 -263z" />
<glyph unicode="&#xee;" horiz-adv-x="483" d="M4 1200l305 254h94l250 -260l-49 -53l-242 207h-18l-301 -205zM92 0l141 991h129l-139 -991h-131z" />
<glyph unicode="&#xef;" horiz-adv-x="483" d="M92 0l141 991h129l-139 -991h-131zM94 1247l17 113q6 41 47 41h41q23 0 30 -9.5t4 -31.5l-16 -111q-3 -22 -13 -31.5t-32 -9.5h-41q-40 0 -37 39zM446 1247l17 113q6 41 47 41h39q24 0 32 -9.5t5 -31.5l-19 -111q-2 -22 -11.5 -31.5t-31.5 -9.5h-43q-41 0 -35 39z" />
<glyph unicode="&#xf0;" horiz-adv-x="1130" d="M100 457q31 222 141 340t320 118q201 0 309 -124q0 287 -131 421l-190 -129l-37 58l172 116q-120 82 -338 78l21 95q258 7 413 -107l181 123l36 -60l-161 -108q215 -215 149 -709q-15 -111 -35.5 -194t-59 -162t-92.5 -128.5t-137 -79.5t-192 -30q-224 0 -313.5 116.5 t-55.5 365.5zM236 444q-29 -194 29 -276t210 -82q77 0 135 22t98.5 61.5t69.5 104t46.5 140t31.5 180.5q8 77 10 106q-105 105 -284 105q-162 0 -241.5 -92.5t-104.5 -268.5z" />
<glyph unicode="&#xf1;" horiz-adv-x="1175" d="M84 0l141 991h103l-21 -225q144 125 263.5 188.5t228.5 63.5q130 0 192 -71.5t43 -205.5l-106 -741h-129l100 715q15 104 -17 147t-120 43q-93 0 -194.5 -56t-262.5 -181l-90 -668h-131zM354 1210q6 108 56.5 163.5t124.5 49.5q43 -3 81.5 -21.5t63.5 -39t61.5 -39.5 t73.5 -23q61 -6 91.5 22t39.5 93l66 -4q-6 -105 -55.5 -159t-125.5 -48q-48 3 -90.5 22t-68.5 40t-59 40t-64 23q-60 6 -91 -25.5t-40 -99.5z" />
<glyph unicode="&#xf2;" horiz-adv-x="1150" d="M106 502q38 283 155 399.5t366 116.5t339.5 -121.5t49.5 -407.5q-40 -284 -156.5 -399t-361.5 -115q-249 0 -340 120t-52 407zM235.5 247.5q19.5 -89.5 80 -125.5t182.5 -36q182 0 266.5 90.5t118.5 325.5q25 153 5 242.5t-80 125t-181 35.5q-123 0 -197.5 -37 t-119.5 -127t-68 -252q-26 -152 -6.5 -241.5zM354 1397l76 92l318 -301l-52 -60z" />
<glyph unicode="&#xf3;" horiz-adv-x="1150" d="M106 502q38 283 155 399.5t366 116.5t339.5 -121.5t49.5 -407.5q-40 -284 -156.5 -399t-361.5 -115q-249 0 -340 120t-52 407zM235.5 247.5q19.5 -89.5 80 -125.5t182.5 -36q182 0 266.5 90.5t118.5 325.5q25 153 5 242.5t-80 125t-181 35.5q-123 0 -197.5 -37 t-119.5 -127t-68 -252q-26 -152 -6.5 -241.5zM532 1190l377 301l66 -100l-397 -263z" />
<glyph unicode="&#xf4;" horiz-adv-x="1150" d="M106 502q38 283 155 399.5t366 116.5t339.5 -121.5t49.5 -407.5q-40 -284 -156.5 -399t-361.5 -115q-249 0 -340 120t-52 407zM235.5 247.5q19.5 -89.5 80 -125.5t182.5 -36q182 0 266.5 90.5t118.5 325.5q25 153 5 242.5t-80 125t-181 35.5q-123 0 -197.5 -37 t-119.5 -127t-68 -252q-26 -152 -6.5 -241.5zM336 1200l305 254h94l250 -260l-49 -53l-242 207h-18l-301 -205z" />
<glyph unicode="&#xf5;" horiz-adv-x="1150" d="M106 502q38 283 155 399.5t366 116.5t339.5 -121.5t49.5 -407.5q-40 -284 -156.5 -399t-361.5 -115q-249 0 -340 120t-52 407zM235.5 247.5q19.5 -89.5 80 -125.5t182.5 -36q182 0 266.5 90.5t118.5 325.5q25 153 5 242.5t-80 125t-181 35.5q-123 0 -197.5 -37 t-119.5 -127t-68 -252q-26 -152 -6.5 -241.5zM344 1210q6 109 56 164t124 49q43 -3 82 -21.5t64 -39t61.5 -39.5t73.5 -23q61 -6 91.5 22t39.5 93l65 -4q-6 -105 -55.5 -159t-124.5 -48q-48 3 -90.5 22t-68.5 40t-59 40t-64 23q-60 6 -91 -25.5t-40 -99.5z" />
<glyph unicode="&#xf6;" horiz-adv-x="1150" d="M106 502q38 283 155 399.5t366 116.5t339.5 -121.5t49.5 -407.5q-40 -284 -156.5 -399t-361.5 -115q-249 0 -340 120t-52 407zM235.5 247.5q19.5 -89.5 80 -125.5t182.5 -36q182 0 266.5 90.5t118.5 325.5q25 153 5 242.5t-80 125t-181 35.5q-123 0 -197.5 -37 t-119.5 -127t-68 -252q-26 -152 -6.5 -241.5zM426 1247l16 113q6 41 47 41h41q23 0 30.5 -9.5t4.5 -31.5l-16 -111q-3 -22 -13 -31.5t-32 -9.5h-41q-40 0 -37 39zM778 1247l17 113q6 41 47 41h39q24 0 32 -9.5t5 -31.5l-19 -111q-2 -22 -11.5 -31.5t-31.5 -9.5h-43 q-41 0 -35 39z" />
<glyph unicode="&#xf7;" horiz-adv-x="1177" d="M141 555l15 100h882l-14 -100h-883zM463 203l16 108q6 47 51 47h39q53 0 47 -53l-18 -108q-3 -47 -53 -47h-37q-27 0 -37.5 12.5t-7.5 40.5zM559 901l16 109q6 49 54 49h37q29 -1 39.5 -14t7.5 -41l-17 -109q-6 -47 -53 -47h-37q-53 0 -47 53z" />
<glyph unicode="&#xf8;" horiz-adv-x="1150" d="M106 502q38 283 155 399.5t366 116.5q119 0 202 -27l89 146l63 -37l-84 -139q89 -55 118 -170.5t1 -301.5q-40 -284 -156.5 -399t-361.5 -115q-114 0 -187 23l-86 -141l-63 34l80 134q-98 53 -131 167.5t-5 309.5zM234.5 254q14.5 -86 70.5 -125l461 760q-59 16 -139 16 q-123 0 -197.5 -37t-119.5 -127t-68 -252q-22 -149 -7.5 -235zM373 98q53 -12 125 -12q182 0 266.5 90.5t118.5 325.5q20 139 7.5 224t-59.5 126z" />
<glyph unicode="&#xf9;" horiz-adv-x="1153" d="M113 250l104 741h131l-102 -712q-15 -101 19 -146t124 -45q94 0 189 58.5t241 193.5l92 651h129l-139 -991h-100l20 229q-133 -129 -248 -191.5t-225 -62.5q-134 0 -194 71.5t-41 203.5zM356 1401l76 92l318 -301l-52 -59z" />
<glyph unicode="&#xfa;" horiz-adv-x="1153" d="M113 250l104 741h131l-102 -712q-15 -101 19 -146t124 -45q94 0 189 58.5t241 193.5l92 651h129l-139 -991h-100l20 229q-133 -129 -248 -191.5t-225 -62.5q-134 0 -194 71.5t-41 203.5zM535 1194l376 301l66 -100l-397 -262z" />
<glyph unicode="&#xfb;" horiz-adv-x="1153" d="M113 250l104 741h131l-102 -712q-15 -101 19 -146t124 -45q94 0 189 58.5t241 193.5l92 651h129l-139 -991h-100l20 229q-133 -129 -248 -191.5t-225 -62.5q-134 0 -194 71.5t-41 203.5zM338 1204l305 254h94l250 -260l-49 -53l-242 207h-18l-301 -205z" />
<glyph unicode="&#xfc;" horiz-adv-x="1153" d="M113 250l104 741h131l-102 -712q-15 -101 19 -146t124 -45q94 0 189 58.5t241 193.5l92 651h129l-139 -991h-100l20 229q-133 -129 -248 -191.5t-225 -62.5q-134 0 -194 71.5t-41 203.5zM428 1251l16 113q6 41 48 41h40q23 0 30.5 -9.5t4.5 -31.5l-16 -111 q-3 -22 -13 -31.5t-32 -9.5h-41q-40 0 -37 39zM780 1251l17 113q6 41 47 41h39q24 0 32 -9.5t5 -31.5l-19 -111q-2 -22 -11.5 -31.5t-31.5 -9.5h-43q-41 0 -35 39z" />
<glyph unicode="&#xfd;" horiz-adv-x="1083" d="M76 -334q117 31 215 109.5t196 224.5h-84q-41 0 -70.5 24t-37.5 62l-197 905h138l170 -844q10 -43 51 -43h96q25 43 47 82q111 197 183 384t128 421h136q-116 -474 -332 -841q-159 -277 -299 -408t-318 -166zM471 1190l377 301l65 -100l-397 -263z" />
<glyph unicode="&#xfe;" horiz-adv-x="1167" d="M29 -418l260 1852h129l-62 -435q-16 -126 -39 -213l2 -6q96 108 216.5 172t238.5 64q175 0 232 -119t16 -410q-19 -131 -47.5 -220.5t-66.5 -147t-95.5 -89t-123.5 -43.5t-163 -12q-127 0 -313 25q-6 -81 -20 -164l-35 -254h-129zM229 92q163 -6 254 -6q77 0 128.5 5.5 t95.5 23.5t70.5 44.5t48.5 75.5t36 110t27 153q25 153 19.5 242.5t-41.5 125t-117 35.5q-198 0 -443 -248z" />
<glyph unicode="&#xff;" horiz-adv-x="1083" d="M76 -334q117 31 215 109.5t196 224.5h-84q-41 0 -70.5 24t-37.5 62l-197 905h138l170 -844q10 -43 51 -43h96q25 43 47 82q111 197 183 384t128 421h136q-116 -474 -332 -841q-159 -277 -299 -408t-318 -166zM365 1247l16 113q6 41 47 41h41q23 0 30.5 -9.5t4.5 -31.5 l-17 -111q-3 -22 -13 -31.5t-32 -9.5h-41q-39 0 -36 39zM717 1247l16 113q6 41 47 41h39q24 0 32 -9.5t5 -31.5l-18 -111q-2 -22 -11.5 -31.5t-31.5 -9.5h-43q-41 0 -35 39z" />
<glyph unicode="&#x152;" horiz-adv-x="1857" d="M129.5 423q-3.5 124 22.5 290q29 209 74.5 344t122.5 222t184.5 123t265.5 36q174 0 319 -64q65 41 158 41q400 0 586 -12l-17 -103h-551q-69 0 -111.5 -39t-52.5 -112l-47 -346h609l-13 -107h-610l-61 -438q-18 -145 122 -145h547l-4 -103q-180 -12 -561 -12 q-108 0 -170 47q-89 -39 -159.5 -54.5t-172.5 -15.5q-128 0 -216 23.5t-149 76.5t-86.5 138.5t-29 209.5zM275 341.5q21 -134.5 100 -191t239 -56.5q86 0 142.5 10t122.5 33q-16 55 -7 119l129 930q6 52 31 98q-101 35 -233 35q-162 0 -260.5 -58t-156.5 -190t-93 -371 q-35 -224 -14 -358.5z" />
<glyph unicode="&#x153;" horiz-adv-x="1865" d="M104 502q40 283 157 399.5t364 116.5q146 0 235.5 -39.5t130.5 -124.5q61 92 161 128t263 36q215 0 300.5 -74t53.5 -239q-26 -134 -106.5 -192t-251.5 -73l-407 -39q-8 -123 21 -191.5t93 -95t178 -26.5q155 0 359 25l10 -88q-64 -23 -183 -36.5t-214 -13.5 q-145 0 -234 41.5t-129 128.5q-62 -90 -160.5 -130t-248.5 -40q-248 0 -339.5 120.5t-52.5 406.5zM234.5 247.5q19.5 -89.5 80 -125.5t181.5 -36q183 0 268 90.5t117 325.5q15 117 12.5 194.5t-34.5 124t-87 65.5t-147 19q-123 0 -197.5 -37t-119.5 -127t-68 -252 q-25 -152 -5.5 -241.5zM1018 502l393 41q113 11 162.5 47t66.5 125q7 33 8 59t-5.5 45.5t-16 33.5t-28 23.5t-36.5 15.5t-46.5 8.5t-53 3.5t-61.5 1q-90 0 -148 -13.5t-105 -51.5t-75.5 -106t-48.5 -177z" />
<glyph unicode="&#x178;" horiz-adv-x="1134" d="M137 1413h137l236 -631q28 -73 47 -151h14q28 60 88 157l412 625h148l-601 -907l-71 -506h-135l71 512zM451 1616l16 113q3 22 14 31t33 9h41q23 0 30.5 -9t4.5 -31l-17 -111q-3 -22 -13 -31.5t-32 -9.5h-41q-39 0 -36 39zM803 1616l16 113q3 22 14 31t33 9h39 q24 0 32 -9t5 -31l-18 -111q-2 -22 -11.5 -31.5t-31.5 -9.5h-43q-41 0 -35 39z" />
<glyph unicode="&#x2c6;" horiz-adv-x="839" d="M201 1200l305 254h94l250 -260l-49 -53l-242 207h-18l-301 -205z" />
<glyph unicode="&#x2dc;" horiz-adv-x="843" d="M209 1210q6 109 56 164t124 49q43 -3 82 -21.5t64 -39t61.5 -39.5t73.5 -23q61 -6 91.5 22t39.5 93l65 -4q-6 -105 -55.5 -159t-124.5 -48q-48 3 -90.5 22t-68.5 40t-59.5 40t-64.5 23q-60 6 -91 -25.5t-40 -99.5z" />
<glyph unicode="&#x2000;" horiz-adv-x="952" />
<glyph unicode="&#x2001;" horiz-adv-x="1905" />
<glyph unicode="&#x2002;" horiz-adv-x="952" />
<glyph unicode="&#x2003;" horiz-adv-x="1905" />
<glyph unicode="&#x2004;" horiz-adv-x="635" />
<glyph unicode="&#x2005;" horiz-adv-x="476" />
<glyph unicode="&#x2006;" horiz-adv-x="317" />
<glyph unicode="&#x2007;" horiz-adv-x="317" />
<glyph unicode="&#x2008;" horiz-adv-x="238" />
<glyph unicode="&#x2009;" horiz-adv-x="381" />
<glyph unicode="&#x200a;" horiz-adv-x="105" />
<glyph unicode="&#x2010;" horiz-adv-x="940" d="M137 465l15 102h628l-14 -102h-629z" />
<glyph unicode="&#x2011;" horiz-adv-x="940" d="M137 465l15 102h628l-14 -102h-629z" />
<glyph unicode="&#x2012;" horiz-adv-x="940" d="M137 465l15 102h628l-14 -102h-629z" />
<glyph unicode="&#x2013;" horiz-adv-x="1232" d="M137 465l15 102h919l-14 -102h-920z" />
<glyph unicode="&#x2014;" horiz-adv-x="1859" d="M137 465l15 102h1546l-15 -102h-1546z" />
<glyph unicode="&#x2018;" horiz-adv-x="428" d="M211 1081l16 127q17 122 99 283l65 -23q-44 -141 -59 -229q20 0 30 -12t7 -31l-19 -117q-5 -28 -16 -37.5t-41 -9.5h-43q-25 0 -34 11.5t-5 37.5z" />
<glyph unicode="&#x2019;" horiz-adv-x="423" d="M217 1034q44 140 59 230q-20 0 -29.5 12t-6.5 31l18 116q5 28 16 37.5t41 9.5h43q25 0 34 -11.5t5 -37.5l-16 -127q-17 -123 -98 -282z" />
<glyph unicode="&#x201a;" horiz-adv-x="450" d="M53 -227q46 148 60 229q-20 0 -30 12t-7 31l18 117q5 28 16.5 37.5t43.5 9.5h43q26 0 35.5 -11.5t5.5 -37.5l-19 -127q-18 -129 -100 -283z" />
<glyph unicode="&#x201c;" horiz-adv-x="712" d="M211 1081l16 127q17 122 99 283l65 -23q-44 -141 -59 -229q20 0 30 -12t7 -31l-19 -117q-5 -28 -16 -37.5t-41 -9.5h-43q-25 0 -34 11.5t-5 37.5zM496 1081l16 127q17 125 98 283l66 -23q-46 -148 -60 -229q20 0 30 -12t7 -31l-18 -117q-5 -28 -16 -37.5t-41 -9.5h-43 q-25 0 -34 11.5t-5 37.5z" />
<glyph unicode="&#x201d;" horiz-adv-x="708" d="M217 1034q44 140 59 230q-20 0 -29.5 12t-6.5 31l18 116q5 28 16 37.5t41 9.5h43q25 0 34 -11.5t5 -37.5l-16 -127q-17 -123 -98 -282zM502 1034q44 140 59 230q-20 0 -30 12t-7 31l19 116q5 28 16 37.5t41 9.5h43q25 0 34 -11.5t5 -37.5l-16 -127q-16 -121 -99 -282z " />
<glyph unicode="&#x201e;" horiz-adv-x="731" d="M51 -229q46 148 60 229q-20 0 -30 12t-7 31l18 117q5 28 16.5 37.5t41.5 9.5h43q25 0 33.5 -11.5t4.5 -37.5l-16 -127q-17 -125 -98 -283zM336 -229q44 141 59 229q-20 0 -30 12t-7 31l19 117q5 28 16 37.5t41 9.5h43q25 0 34 -11.5t5 -37.5l-16 -127q-17 -122 -99 -283z " />
<glyph unicode="&#x2022;" horiz-adv-x="733" d="M188 541l5 28q12 89 48.5 119.5t129.5 30.5h22q86 0 117.5 -37t19.5 -123l-4 -29q-10 -91 -47 -122t-127 -31h-22q-91 0 -123 37t-19 127z" />
<glyph unicode="&#x2026;" horiz-adv-x="1671" d="M111 53l16 117q6 49 53 49h47q28 0 38 -13t7 -40l-16 -119q-6 -47 -53 -47h-45q-56 0 -47 53zM723 53l16 117q6 49 54 49h47q28 0 38 -13t7 -40l-17 -119q-6 -47 -53 -47h-45q-56 0 -47 53zM1335 53l17 117q6 49 53 49h47q28 0 38 -13t7 -40l-16 -119q-6 -47 -54 -47h-45 q-56 0 -47 53z" />
<glyph unicode="&#x202f;" horiz-adv-x="381" />
<glyph unicode="&#x2039;" horiz-adv-x="604" d="M80 504l4 33l385 399l55 -49l-329 -375l231 -381l-66 -45z" />
<glyph unicode="&#x203a;" horiz-adv-x="604" d="M55 135l332 377l-231 381l65 43l279 -416l-2 -33l-389 -401z" />
<glyph unicode="&#x205f;" horiz-adv-x="476" />
<glyph unicode="&#x20ac;" horiz-adv-x="1304" d="M106 545l13 86h180q2 21 10 82q2 11 8 48.5t9 57.5h-179l13 86h184q67 277 213.5 405t413.5 128q179 0 315 -39l-24 -103q-141 24 -295 21q-196 -3 -309.5 -97t-172.5 -315h549l-28 -86h-541q-12 -54 -21 -121q-4 -25 -8 -67h490l-29 -86h-467q-12 -239 69.5 -342.5 t276.5 -106.5q181 -4 334 25l10 -103q-145 -43 -340 -43q-274 0 -388 139t-99 431h-187z" />
<glyph unicode="&#x2122;" horiz-adv-x="1947" d="M240 1343l10 82h653l-10 -82h-281l-96 -696h-96l96 696h-276zM903 647l137 742q3 19 12 27.5t27 8.5h105q17 0 27 -9.5t12 -24.5l112 -486q4 -17 10.5 -53.5t10.5 -54.5h28q12 33 50 110l245 490q14 28 41 28h109q19 0 29.5 -12t7.5 -31l-70 -735h-90l63 703h-24 l-295 -588q-7 -17 -16.5 -23t-26.5 -6h-82q-35 0 -39 35l-137 582h-25l-129 -703h-92z" />
<glyph unicode="&#x25fc;" horiz-adv-x="993" d="M0 0v993h993v-993h-993z" />
<glyph unicode="&#xfb03;" horiz-adv-x="1851" d="M-252 -406l19 97h157q102 0 149 41.5t64 150.5l144 1006h-183l15 92l182 10l22 162q21 141 96.5 212t215.5 71q169 0 268 -13l-18 -96h-209q-109 0 -159 -41t-65 -151l-20 -144h528l27 193q21 141 96 211.5t215 70.5q155 0 269 -12l-19 -96h-209q-108 0 -158 -42 t-65 -151l-25 -174h648l-142 -991h-129l125 887h-516l-137 -979q-21 -141 -93.5 -211t-207.5 -70q-113 0 -217 13l18 96h158q103 0 149.5 40.5t63.5 149.5l135 961l-528 2l-146 -1024q-21 -141 -93.5 -212t-207.5 -71q-97 0 -217 12zM1628 1249l19 121q3 39 45 39h59 q21 0 31.5 -12t7.5 -33l-16 -121q-3 -22 -12.5 -30.5t-32.5 -8.5h-60q-47 0 -41 45z" />
<glyph unicode="&#xfb04;" horiz-adv-x="1980" d="M-252 -406l19 97h157q102 0 149 41.5t64 150.5l144 1006h-183l15 92l182 10l22 162q21 141 96.5 212t215.5 71q169 0 268 -13l-18 -96h-209q-109 0 -159 -41t-65 -151l-20 -144h526l25 180q21 150 94 222.5t219 72.5q416 -5 527 -20l-166 -1217q-21 -141 121 -141h108 l6 -84q-50 -20 -162 -20q-110 0 -165.5 60.5t-40.5 166.5l161 1147h-348q-106 2 -158 -45.5t-67 -159.5l-23 -162h316l-15 -102h-315l-139 -981q-21 -141 -92.5 -211t-206.5 -70q-116 0 -217 13l18 96h156q104 0 151 40.5t64 149.5l135 963h-526l-146 -1024 q-21 -141 -93.5 -212t-207.5 -71q-97 0 -217 12z" />
</font>
</defs>
</svg>
