<?xml version="1.0" standalone="no"?>
<!DOCTYPE svg PUBLIC "-//W3C//DTD SVG 1.1//EN" "http://www.w3.org/Graphics/SVG/1.1/DTD/svg11.dtd" >
<svg xmlns="http://www.w3.org/2000/svg" xmlns:xlink="http://www.w3.org/1999/xlink" version="1.1">
<metadata></metadata>
<defs>
<font id="exo_2extra_light_italic" horiz-adv-x="1144" >
<font-face units-per-em="2048" ascent="1638" descent="-410" />
<missing-glyph horiz-adv-x="466" />
<glyph unicode="&#xfb01;" horiz-adv-x="1146" d="M-258 -416l8 62h160q110 0 161 47t68 168l150 1054h-180l8 62l180 10l29 197q19 143 88.5 211.5t210.5 68.5q155 0 243 -10l-4 -61h-213q-117 0 -172.5 -49.5t-72.5 -169.5l-27 -187h635l-142 -987h-79l129 915h-553l-150 -1065q-19 -141 -85 -208.5t-197 -67.5 q-90 0 -195 10zM956 1245l19 123q3 31 35 31h34q34 0 31 -35l-18 -125q-3 -29 -33 -29h-37q-34 0 -31 35z" />
<glyph unicode="&#xfb02;" horiz-adv-x="1275" d="M-258 -416l8 62h160q110 0 161 47t68 168l150 1054h-180l8 62l180 10l29 197q19 143 88.5 211.5t210.5 68.5q406 -8 477 -16l-170 -1239q-12 -76 21.5 -115t109.5 -39h117l2 -53q-46 -16 -144 -16q-101 0 -152 57.5t-38 159.5l168 1192h-365q-117 0 -172.5 -50 t-72.5 -171l-27 -187h334l-11 -72h-333l-150 -1065q-19 -141 -85 -208.5t-197 -67.5q-90 0 -195 10z" />
<glyph horiz-adv-x="0" />
<glyph horiz-adv-x="682" />
<glyph unicode=" "  horiz-adv-x="466" />
<glyph unicode="&#x09;" horiz-adv-x="466" />
<glyph unicode="&#xa0;" horiz-adv-x="466" />
<glyph unicode="!" horiz-adv-x="526" d="M135 37l19 123q6 33 39 33h28q34 0 29 -37l-17 -123q-3 -18 -11 -25.5t-25 -7.5h-29q-36 0 -33 37zM205 420l37 323l96 680h82l-96 -680l-52 -323h-67z" />
<glyph unicode="&#x22;" horiz-adv-x="673" d="M223 983l56 430h73l-67 -430h-62zM494 983l53 430h74l-66 -430h-61z" />
<glyph unicode="#" horiz-adv-x="1366" d="M90 459l21 63h239l135 428h-239l20 64h240l125 399h69l-125 -399h445l125 399h69l-124 -399h225l-21 -64h-225l-135 -428h225l-18 -63h-228l-143 -459h-70l144 459h-445l-143 -459h-70l144 459h-240zM420 522h444l135 428h-444z" />
<glyph unicode="$" horiz-adv-x="1153" d="M80 4l10 64q220 -15 350 -15l125 627l-135 55q-148 62 -197 145.5t-30 229.5q9 65 27 115t41 84.5t58 58.5t69.5 38t85 21t94.5 8.5t106 0.5h35l41 209h55l-41 -211q158 -6 301 -27l-12 -61q-181 11 -305 14l-121 -619l119 -49q158 -65 206.5 -145.5t28.5 -235.5 q-11 -74 -32 -129t-55 -91.5t-73 -59.5t-97.5 -34.5t-115 -15.5t-139.5 -4l-49 -249h-55l51 249q-187 4 -346 27zM289 1098q-12 -114 21 -174.5t145 -108.5l129 -53l118 598h-47q-39 0 -61.5 -0.5t-56.5 -3t-54 -7t-47 -13.5t-43.5 -22.5t-35.5 -33t-30.5 -45.5t-22 -60.5 t-15.5 -76.5zM496 53h4q69 1 115 5t92 14t76 28.5t55.5 48t41.5 72t25 101.5q6 64 5 106.5t-23.5 76t-57.5 57t-98 50.5l-115 47z" />
<glyph unicode="%" horiz-adv-x="1806" d="M172 1024q31 222 112.5 318t252.5 96q175 0 233 -99.5t27 -322.5q-31 -220 -114 -317t-251 -97q-174 0 -232.5 100t-27.5 322zM240 1016q-27 -193 14 -275t172 -82q143 0 209.5 84t93.5 281q25 196 -14 276t-174 80q-75 0 -126.5 -20.5t-86 -67t-54 -111.5t-34.5 -165z M297 0l1163 1413h72l-1163 -1413h-72zM1042 408q30 220 112 316.5t253 96.5q174 0 232.5 -100t25.5 -324q-31 -219 -114 -316t-251 -97q-174 0 -231.5 100t-26.5 324zM1110 397q-27 -193 13.5 -274.5t172.5 -81.5q143 0 209.5 85t91.5 282q27 196 -12 276t-174 80 q-147 0 -210.5 -83t-90.5 -284z" />
<glyph unicode="&#x26;" horiz-adv-x="1601" d="M100 228.5q-1 58.5 9 133.5q29 184 126 273.5t273 93.5v8q-149 10 -200.5 94.5t-24.5 239.5q19 110 56.5 180.5t102 110.5t146 55t203.5 15q173 0 325 -48l-14 -61q-143 35 -314 35q-85 0 -143 -7t-108 -25.5t-81.5 -52t-53.5 -85.5t-35 -127q-8 -59 -9 -104t15.5 -77.5 t40.5 -54.5t66 -35t93 -18.5t121 -5.5h465q15 138 12 301h78q3 -173 -14 -301h287l-17 -68h-278q-37 -225 -137 -395q-104 -174 -249.5 -247.5t-348.5 -78.5q-78 -2 -137.5 5t-108 24.5t-78 47t-48.5 73t-20 102zM187 259.5q0 -44.5 8.5 -76.5t27 -55.5t41 -37.5t55 -22.5 t66 -11.5t76.5 -3q202 0 335.5 68t225.5 219q92 149 127 358h-461q-82 -1 -138.5 -6t-111 -18.5t-90.5 -37t-67 -60.5t-51 -90t-33 -126q-10 -56 -10 -100.5z" />
<glyph unicode="'" horiz-adv-x="403" d="M223 983l56 430h73l-67 -430h-62z" />
<glyph unicode="(" horiz-adv-x="722" d="M137 651q54 382 208 617.5t425 349.5l12 -49q-237 -113 -373.5 -339.5t-187.5 -592.5q-51 -357 20.5 -582.5t274.5 -343.5l-14 -49q-239 115 -329.5 358t-35.5 631z" />
<glyph unicode=")" horiz-adv-x="722" d="M-47 -289q236 118 373 347t188 587q52 356 -19 584.5t-276 339.5l12 49q239 -110 331 -352t36 -639q-54 -382 -207.5 -616t-427.5 -349z" />
<glyph unicode="*" horiz-adv-x="919" d="M207 1157l24 60l244 -91l-6 -26l-14 -19zM270 838l234 258l37 317h61l-55 -319l162 -265l-54 -32l-133 254l-205 -252zM584 1100l2 26l262 88l14 -61l-268 -72z" />
<glyph unicode="+" horiz-adv-x="1126" d="M125 575l12 68h398l53 377h69l-55 -377h399l-10 -68h-397l-55 -376h-66l53 376h-401z" />
<glyph unicode="," horiz-adv-x="432" d="M55 -231q39 127 56 233q-26 0 -23 31l18 127q3 19 11.5 26t29.5 7h33q17 0 23 -7t4 -26l-21 -135q-14 -116 -86 -271z" />
<glyph unicode="-" horiz-adv-x="966" d="M152 481l8 68h633l-9 -68h-632z" />
<glyph unicode="." horiz-adv-x="430" d="M88 37l18 123q3 33 37 33h31q21 0 27.5 -8.5t3.5 -28.5l-17 -123q-3 -18 -11.5 -25.5t-26.5 -7.5h-29q-39 0 -33 37z" />
<glyph unicode="/" horiz-adv-x="1032" d="M-27 -125l1018 1538h80l-1018 -1538h-80z" />
<glyph unicode="0" horiz-adv-x="1202" d="M143 406q0 73 3 142t11 150.5t21 154.5t35.5 149t51.5 138.5t71 119t92.5 95t118 61t145.5 22.5q199 0 299.5 -105t100.5 -325q0 -98 -4.5 -186.5t-19.5 -196t-39 -196t-66.5 -175.5t-98.5 -146.5t-138 -96t-183 -36.5q-199 0 -299.5 105.5t-100.5 325.5zM225 408 q0 -185 79.5 -271t236.5 -86q469 0 469 955q0 185 -79.5 270.5t-238.5 85.5q-467 0 -467 -954z" />
<glyph unicode="1" horiz-adv-x="776" d="M156 1266l399 147h84l-199 -1413h-84l174 1231q3 22 21 102l-391 -127z" />
<glyph unicode="2" horiz-adv-x="1126" d="M35 0l6 53q8 29 18 39l547 541q77 75 133 138.5t107 136.5t77.5 146.5t26.5 143.5q0 43 -14.5 73.5t-37.5 48t-62.5 27t-79.5 12.5t-99 3q-190 0 -409 -43l-10 63q143 33 231.5 44.5t181.5 11.5q78 0 134 -5t106.5 -20t81 -40.5t48 -67t17.5 -99.5q0 -83 -26 -162.5 t-79 -157t-108 -140.5t-139 -146l-530 -524q78 2 233 2h555l-10 -78h-899z" />
<glyph unicode="3" horiz-adv-x="1118" d="M39 10l16 64q200 -33 375 -23q209 13 324.5 126.5t115.5 299.5q0 49 -14 89t-45.5 74.5t-90.5 53.5t-142 19l-267 2l8 63l263 4q175 4 260.5 107.5t85.5 288.5q0 106 -68.5 145t-245.5 39q-168 0 -352 -23l-10 64q205 35 373 35q208 0 297.5 -57t89.5 -193 q0 -164 -70.5 -288.5t-202.5 -145.5l-2 -9q111 -18 163 -90t52 -182q0 -221 -137 -355t-375 -143q-213 -8 -401 35z" />
<glyph unicode="4" horiz-adv-x="1218" d="M92 445.5q-29 58.5 14 121.5l556 846h92l-566 -860q-25 -38 -13 -66t52 -28h617l63 448l51 238h64l-96 -686h172l-11 -62l-172 -8l-55 -389h-82l56 387h-639q-74 0 -103 58.5z" />
<glyph unicode="5" horiz-adv-x="1079" d="M51 31l17 65q169 -54 331 -47q217 11 333 130t116 335q0 42 -7.5 75t-26 58.5t-41 43.5t-60.5 31t-75.5 20.5t-95 12t-111 6.5t-130.5 3l-55 2q-19 2 -30 15.5t-7 31.5l113 600h700l-12 -74h-627l-94 -501l121 -2q106 -2 182 -10.5t143.5 -30t108 -56.5t63.5 -90.5 t23 -132.5q0 -251 -133 -391t-383 -150q-180 -7 -363 56z" />
<glyph unicode="6" horiz-adv-x="1155" d="M146.5 249.5q-20.5 146.5 15.5 383.5q23 172 53.5 299t71.5 216.5t87.5 146t111.5 88.5t133 43.5t161 11.5q171 0 273 -27l-25 -61q-89 14 -254 14q-80 0 -137.5 -10.5t-110.5 -38t-91 -75t-72 -123.5t-59.5 -180.5t-47.5 -248.5q98 121 206.5 170t246.5 49 q165 0 237 -73t72 -222q0 -637 -504 -637q-174 0 -260.5 64t-107 210.5zM224.5 287.5q9.5 -124.5 80 -181.5t221.5 -57q408 0 408 551q0 117 -55 176.5t-189 59.5q-118 0 -226.5 -51.5t-219.5 -176.5q-29 -196 -19.5 -320.5z" />
<glyph unicode="7" horiz-adv-x="1028" d="M190 1339l5 74h778q54 0 68 -23.5t-11 -72.5l-637 -1317h-88l608 1257q8 17 26.5 49t21.5 37z" />
<glyph unicode="8" horiz-adv-x="1249" d="M129 185q-12 71 2 171q26 182 90 272t193 103l4 8q-202 23 -158 326q15 100 42.5 165.5t81.5 112.5t139.5 68t211.5 21q130 0 211.5 -22.5t123.5 -69t52 -117t-4 -166.5q-21 -151 -79.5 -229.5t-166.5 -90.5l-4 -8q124 -13 165 -106t16 -275q-15 -104 -43 -169 t-85.5 -111t-147 -65t-228.5 -21q-135 -1 -221.5 20t-134.5 66.5t-60 116.5zM209.5 217q7.5 -57 45.5 -92.5t108 -51.5t184 -16q116 0 191 16t123 55t72 95t36 144q11 75 12 125.5t-11.5 88.5t-34 60t-64.5 35.5t-95 17.5t-133 4q-70 0 -119 -4t-93.5 -13t-73.5 -26 t-53.5 -41t-40.5 -61.5t-28 -84.5t-22 -112q-11 -82 -3.5 -139zM330.5 947q-0.5 -43 11 -76t32.5 -52t61 -31t89.5 -16t124.5 -4q114 0 179.5 10.5t110.5 45t65 88t34 149.5q11 83 6.5 139.5t-38.5 91.5t-99 50.5t-174 15.5q-144 0 -223.5 -30.5t-116.5 -93.5t-53 -181 q-9 -63 -9.5 -106z" />
<glyph unicode="9" horiz-adv-x="1157" d="M111 2l20 61q105 -14 246 -14q70 0 122 6t101 20.5t84.5 37.5t68.5 61t57 87t47 119t41 153.5t36 193.5v4q-93 -117 -192 -168t-230 -57q-214 -9 -290 104.5t-38 360.5q17 117 50.5 201t91 145t144 91t204.5 30q185 0 273.5 -76t100 -236t-29.5 -407q-26 -160 -55 -275.5 t-69.5 -199.5t-85 -135.5t-109.5 -81.5t-135 -41t-169 -11q-160 0 -284 27zM264 958q-32 -218 29.5 -303.5t228.5 -79.5q119 5 214 56.5t210 179.5q28 188 18.5 311t-79.5 182.5t-215 59.5q-100 0 -171.5 -25.5t-118 -79t-73.5 -125.5t-43 -176z" />
<glyph unicode=":" horiz-adv-x="436" d="M137 37l19 123q3 33 37 33h30q21 0 27.5 -8.5t3.5 -28.5l-16 -123q-6 -33 -39 -33h-29q-39 0 -33 37zM236 729l18 123q3 33 37 33h31q21 0 27 -8.5t3 -28.5l-16 -123q-6 -33 -39 -33h-29q-38 0 -32 37z" />
<glyph unicode=";" horiz-adv-x="440" d="M59 -231q39 127 56 233q-26 0 -23 31l19 127q3 19 11.5 26t29.5 7h32q17 0 23 -7t4 -26l-21 -135q-14 -116 -86 -271zM188 729l19 123q3 33 37 33h30q21 0 27.5 -8.5t3.5 -28.5l-16 -123q-6 -33 -39 -33h-29q-39 0 -33 37z" />
<glyph unicode="&#x3c;" horiz-adv-x="1095" d="M119 571l10 70l864 369l-10 -74l-782 -332l688 -323l-8 -70z" />
<glyph unicode="=" horiz-adv-x="1208" d="M135 344l10 68h865l-9 -68h-866zM195 778l10 68h864l-8 -68h-866z" />
<glyph unicode="&#x3e;" horiz-adv-x="1091" d="M102 211l9 76l782 323l-688 332l10 68l760 -369l-10 -70z" />
<glyph unicode="?" horiz-adv-x="1019" d="M195 1419q12 2 53.5 9t53 9t46.5 7t56 6.5t57.5 4t75 3t86.5 0.5q201 0 294 -79.5t70 -241.5q-9 -63 -37.5 -118.5t-68.5 -98t-86.5 -83.5t-93.5 -83.5t-87 -89t-70.5 -110t-41.5 -136.5l-74 4q10 78 40 145.5t70 116.5t86 93.5t92 84.5t84.5 80.5t66.5 90.5t36 106 q17 130 -52 188.5t-237 58.5q-39 0 -73 -0.5t-58.5 -1t-55 -2.5t-44.5 -3t-45.5 -4t-40 -4t-46.5 -5.5t-48 -5.5zM362 37l17 123q6 33 39 33h26q36 0 33 -37l-18 -121q-3 -35 -37 -35h-29q-37 0 -31 37z" />
<glyph unicode="@" horiz-adv-x="1529" d="M118.5 313q4.5 65 18.5 146q17 94 36.5 161t49 118.5t65 83t89 52t116 28t150.5 7.5q142 0 363 -30l-103 -695q-9 -73 12 -104t80 -31q45 0 77 9t59 37t45 65.5t35.5 108.5t31 151.5t31.5 208.5q15 109 23 182t5.5 137.5t-9.5 102t-34 68.5t-54 45t-85 23.5t-111 11 t-147 1.5h-610l6 60q240 8 604 12q102 0 170 -3.5t129.5 -17t97.5 -32t64.5 -56t39.5 -81t13.5 -115.5t-4.5 -151t-22 -195q-16 -114 -29 -190t-29.5 -150t-35.5 -119t-44 -84t-57 -59t-72.5 -31t-93.5 -11q-197 0 -164 224l4 30q-223 -256 -464 -256q-77 0 -129 27.5 t-78 71t-35 109t-4.5 130.5zM199 205.5q5 -53.5 24.5 -86.5t57.5 -52.5t96 -19.5q227 0 465 272l73 508q-169 11 -249 11q-83 0 -140 -6t-105 -23.5t-78 -43.5t-55 -71.5t-40.5 -102.5t-30.5 -142q-13 -78 -18 -134t0 -109.5z" />
<glyph unicode="A" horiz-adv-x="1236" d="M-49 0l690 1389q8 24 37 24h115q12 0 22.5 -8.5t11.5 -20.5l299 -1384h-86l-102 496h-651l-244 -496h-92zM324 571h598l-138 658l-22 114h-62l-55 -116z" />
<glyph unicode="B" horiz-adv-x="1253" d="M119 0l198 1413q159 17 412 17q74 0 130.5 -5.5t104.5 -17.5t80 -32t56.5 -49t34 -68t12.5 -89q1 -11 1 -22q0 -41 -9 -90q-22 -153 -89.5 -230.5t-195.5 -89.5v-8q150 -13 202 -109q34 -63 34 -162q0 -50 -9 -110q-16 -110 -48 -179.5t-91 -111.5t-139.5 -57.5 t-204.5 -15.5q-311 0 -479 16zM209 61q160 -4 381 -4q105 0 172.5 13t117.5 48t77 94t40 153q7 65 8 115v6q-1 46 -15 81q-16 37 -38.5 61.5t-64.5 39.5t-93.5 22t-123.5 8h-371zM309 766h365q97 1 160.5 14t110.5 47t72.5 90t37.5 144q8 42 8 76q-1 9 -1 17q-2 40 -8.5 71 t-26.5 53.5t-45 37.5t-64.5 24t-84.5 12.5t-106 3.5h-336z" />
<glyph unicode="C" d="M140 429v27q0 113 22 255q29 205 75 341t121 223.5t178.5 125t251.5 37.5q218 0 363 -37l-18 -62q-165 23 -342 23q-131 0 -220 -32.5t-153.5 -112t-103.5 -202.5t-66 -313q-22 -148 -22 -254q0 -3 1 -6q0 -102 19 -178q20 -78 65.5 -124t114 -67.5t168.5 -21.5 q218 0 385 27l10 -64q-166 -39 -393 -39q-119 0 -203 25t-141.5 80t-83 141t-28.5 208z" />
<glyph unicode="D" horiz-adv-x="1349" d="M119 0l198 1413q260 19 467 19q120 0 203.5 -24t141 -77.5t82.5 -138.5t29 -207v-32q0 -111 -21 -251q-30 -212 -76.5 -349t-123 -220.5t-179 -117t-252.5 -33.5q-219 0 -469 18zM211 63q345 -6 375 -6q173 0 277.5 58.5t169 199t100.5 396.5q21 150 21 256.5t-20 183 t-66.5 120.5t-115.5 64.5t-170 20.5q-44 0 -389 -6z" />
<glyph unicode="E" horiz-adv-x="1128" d="M137 229l135 969q14 99 79.5 157t170.5 58q407 0 606 -8l-12 -64h-579q-80 0 -126 -42.5t-57 -120.5l-53 -390h655l-10 -67l-655 -2l-68 -490q-3 -17 -2 -32q0 -51 27 -83q36 -42 108 -42h580l2 -64q-197 -8 -596 -8q-108 0 -164 64q-45 50 -44 124q0 20 3 41z" />
<glyph unicode="F" horiz-adv-x="1089" d="M113 0l168 1196q15 101 81.5 159t167.5 58q397 0 590 -10l-12 -62h-559q-164 0 -187 -163l-55 -400l639 -2l-10 -65l-639 -2l-100 -709h-84z" />
<glyph unicode="G" horiz-adv-x="1271" d="M160 711q38 276 115 434.5t201.5 225.5t322.5 67q235 0 401 -37l-18 -62q-183 23 -377 23q-137 0 -228.5 -31.5t-158 -110t-105.5 -202t-65 -316.5q-20 -143 -20 -252q0 -70 8 -127q21 -145 93.5 -208.5t211.5 -63.5q63 0 123 18t118.5 56t104 74.5t106.5 93.5l72 526h82 l-117 -819h-59l16 215q-219 -240 -463 -240q-243 0 -328 173q-53 110 -53 308q0 113 17 255z" />
<glyph unicode="H" horiz-adv-x="1349" d="M119 0l198 1413h84l-88 -620h779l88 620h84l-199 -1413h-84l100 719h-778l-100 -719h-84z" />
<glyph unicode="I" horiz-adv-x="489" d="M119 0l198 1413h84l-198 -1413h-84z" />
<glyph unicode="J" horiz-adv-x="667" d="M-10 2l18 57h111q196 0 223 195l162 1159h84l-164 -1163q-35 -264 -281 -264h-6q-69 0 -147 16z" />
<glyph unicode="K" horiz-adv-x="1163" d="M119 0l198 1413h82l-65 -475q-14 -85 -31 -166h213l569 641h105l-533 -602q-35 -40 -75 -72v-6q19 -21 47 -67l395 -666h-96l-418 702h-217q-2 -48 -19 -172l-73 -530h-82z" />
<glyph unicode="L" horiz-adv-x="1030" d="M145 231l166 1182h84l-166 -1184q-2 -14 -2 -27q0 -52 29 -87q36 -43 109 -43h546l-2 -64q-188 -8 -563 -8q-102 0 -159 64q-45 51 -45 126q0 20 3 41z" />
<glyph unicode="M" horiz-adv-x="1761" d="M88 0l254 1374q6 39 45 39h113q14 0 25 -9t12 -24l221 -989q9 -36 23 -104.5t18 -87.5h51q18 39 51 107.5t43 90.5l496 989q15 27 41 27h116q20 0 30.5 -12t8.5 -33l-131 -1368h-86l131 1341h-47l-590 -1181q-11 -27 -41 -27h-106q-14 0 -25 9t-14 22l-260 1177h-49 l-246 -1341h-84z" />
<glyph unicode="N" horiz-adv-x="1417" d="M119 0l192 1374q6 39 43 39h101q33 0 45 -35l442 -1126q33 -80 66 -176h53q23 179 24 182l160 1155h84l-192 -1374q-6 -39 -43 -39h-105q-33 0 -45 35l-452 1153q-3 7 -26 63t-32 86h-47q-12 -110 -20 -168l-164 -1169h-84z" />
<glyph unicode="O" horiz-adv-x="1355" d="M144 366q-2 31 -2 67q0 120 20 278q29 205 75 340.5t121 223.5t179 125.5t254 37.5q148 0 242.5 -39t148.5 -126t61 -227q1 -29 1 -61q0 -122 -21 -283q-28 -206 -73.5 -342.5t-121 -223.5t-179 -124t-251.5 -37t-242.5 38.5t-149 125.5t-62.5 227zM228 396 q4 -124 47 -201t120.5 -110.5t202.5 -33.5q170 0 275 63.5t166.5 204.5t97.5 392q22 169 22 288v20q-2 125 -45 201t-120.5 109t-205.5 33q-130 0 -218.5 -33t-152.5 -113t-103 -202.5t-66 -311.5q-20 -158 -20 -273v-33z" />
<glyph unicode="P" horiz-adv-x="1191" d="M119 0l198 1413q178 17 457 17q159 0 244 -38q86 -39 116 -131q17 -52 17 -129q0 -57 -10 -128q-19 -126 -51.5 -206t-90.5 -128t-135.5 -66t-195.5 -18q-221 0 -381 12l-84 -598h-84zM295 659h371q99 2 163 17.5t111.5 56t73.5 107t41 172.5q7 68 9 120q0 5 1 11 q0 46 -12 80q-13 38 -33 63.5t-56.5 41t-81.5 22t-108 6.5q-225 0 -381 -4z" />
<glyph unicode="Q" horiz-adv-x="1355" d="M144 366q-2 32 -2 67q0 120 20 278q29 205 75 340.5t121 223.5t179 125.5t254 37.5q148 0 242.5 -39t148.5 -126t61 -227q1 -29 1 -61q0 -122 -21 -283q-28 -206 -73.5 -342.5t-121 -223.5t-179 -124t-251.5 -37t-242.5 38.5t-149.5 125.5t-62 227zM228 396 q4 -125 47 -201.5t120.5 -110t202.5 -33.5q170 0 275 63.5t166.5 204.5t97.5 392q22 169 22 288v20q-2 125 -45 201t-120.5 109t-205.5 33q-130 0 -218.5 -33t-152.5 -113t-103 -202.5t-66 -311.5q-20 -158 -20 -273v-33zM469 -150l35 50q181 -125 459 -170l-31 -84 q-283 47 -463 204z" />
<glyph unicode="R" horiz-adv-x="1247" d="M119 0l198 1413q178 17 457 17q77 0 134.5 -8t104.5 -27t75 -49.5t46 -75.5q20 -45 20 -106q0 -3 -1 -6q0 -59 -8 -134q-26 -181 -99.5 -264.5t-216.5 -102.5v-10q106 -34 136 -198l92 -449h-88l-90 449q-18 94 -65 134t-126 40l-399 8l-88 -631h-82zM299 698h375 q96 2 160 17.5t111 53.5t73.5 101.5t40.5 161.5q7 64 8 113v7q0 45 -12 78q-13 36 -33.5 60t-56.5 39t-82 21t-109 6q-227 0 -383 -4z" />
<glyph unicode="S" horiz-adv-x="1136" d="M70 4l12 64q224 -15 375 -15h35q82 1 134.5 6.5t103 21.5t80.5 45.5t52.5 77.5t34.5 118q5 55 5 94v12q-1 42 -23.5 76t-58.5 57.5t-99 50.5l-299 123q-146 62 -196 145q-37 62 -37 159q0 33 4 71q9 65 27 115t41.5 84.5t58.5 58.5t69.5 38t85 21t94.5 9q26 1 60 0h47 q209 -3 389 -29l-10 -61q-241 14 -408 14q-39 0 -61.5 -0.5t-56.5 -3t-54 -7t-47 -13.5t-43.5 -22.5t-36 -33t-31.5 -45.5t-22 -60.5t-16 -76.5q-3 -30 -3 -56q0 -74 24 -118q34 -60 146 -109l299 -123q159 -66 209 -146q35 -57 35 -152q0 -38 -6 -83q-11 -74 -32 -129 t-55.5 -91.5t-73.5 -59.5t-98 -34.5t-115.5 -15.5t-139.5 -4q-209 0 -399 27z" />
<glyph unicode="T" horiz-adv-x="1150" d="M152 1339l10 74h1057l-11 -74h-487l-189 -1339h-83l188 1339h-485z" />
<glyph unicode="U" horiz-adv-x="1363" d="M182 530l123 883h86l-125 -889q-12 -86 -12 -155q0 -141 50 -213q76 -106 298 -105q223 0 331.5 108.5t145.5 370.5l123 883h86l-125 -889q-43 -299 -169.5 -424t-389.5 -125q-269 0 -366 128q-68 90 -68 264q0 74 12 163z" />
<glyph unicode="V" horiz-adv-x="1212" d="M156 1413h86l231 -1194q17 -84 27 -151h55q5 14 70 157l565 1188h90l-666 -1388q-9 -25 -39 -25h-108q-13 0 -23 9t-12 20z" />
<glyph unicode="W" horiz-adv-x="1904" d="M174 1413h86l133 -1196l13 -151h57q30 84 55 153l447 1163q9 31 39 31h110q14 0 25 -10t12 -25l123 -1163q1 -7 12 -149h57l56 153l467 1194h88l-547 -1386q-9 -27 -41 -27h-117q-13 0 -23 9.5t-12 23.5l-118 1157l-17 153h-49q-8 -18 -61 -159l-441 -1155 q-10 -29 -41 -29h-116q-15 0 -25 9.5t-12 21.5z" />
<glyph unicode="X" horiz-adv-x="1218" d="M-16 0l540 737l-313 676h88l295 -641h72l479 641h94l-504 -678l332 -735h-88l-315 702h-68l-512 -702h-100z" />
<glyph unicode="Y" horiz-adv-x="1112" d="M145 1413h86l258 -661q45 -117 54 -148h14q53 92 92 150l445 659h92l-604 -895l-72 -518h-86l74 518z" />
<glyph unicode="Z" horiz-adv-x="1136" d="M14 0l13 74l1007 1265h-823l10 74h922l-10 -74l-1010 -1265h844l-13 -74h-940z" />
<glyph unicode="[" horiz-adv-x="638" d="M86 -260l246 1759q6 34 28.5 54t55.5 20h266l-8 -64h-232q-12 0 -22.5 -8t-11.5 -20l-242 -1731q-3 -24 18 -24h240l-10 -64h-262q-33 0 -52.5 22t-13.5 56z" />
<glyph unicode="\" horiz-adv-x="1001" d="M176 1413h72l592 -1538h-72z" />
<glyph unicode="]" horiz-adv-x="638" d="M-39 -338l8 64h234q11 0 21.5 8t11.5 20l243 1731q3 24 -20 24h-238l8 64h263q32 0 52 -23t15 -55l-248 -1759q-4 -34 -27 -54t-55 -20h-268z" />
<glyph unicode="^" horiz-adv-x="821" d="M100 780l377 412h62l262 -414l-41 -26l-248 366h-16l-357 -366z" />
<glyph unicode="_" horiz-adv-x="886" d="M-80 -68l10 68h887l-10 -68h-887z" />
<glyph unicode="`" horiz-adv-x="587" d="M213 1401l53 59l287 -301l-39 -39z" />
<glyph unicode="a" horiz-adv-x="1159" d="M133 500q17 108 37 184t49.5 135t65.5 95t89.5 58.5t116 31t150.5 8.5q165 0 391 -31l-137 -981h-64l27 242q-111 -126 -243.5 -196.5t-243.5 -70.5q-180 1 -231 121q-27 65 -27 176q0 96 20 228zM194 233q5 -98 48 -141t137 -43q101 0 230 70.5t249 197.5l84 611 q-175 12 -285 12q-82 0 -138.5 -7t-103.5 -27t-76 -50t-53.5 -83t-40 -119t-30.5 -165q-22 -133 -21 -223q-1 -17 0 -33z" />
<glyph unicode="b" horiz-adv-x="1155" d="M98 41l197 1393h80l-60 -412q-21 -147 -49 -272q278 262 479 262q88 0 143.5 -26t89.5 -87t36 -161v-25q0 -94 -17 -226q-18 -131 -44 -219.5t-61.5 -147t-89.5 -90t-117.5 -43.5t-156.5 -12q-189 0 -428 66h-2zM186 84q162 -37 320 -37q75 0 128.5 8t96.5 29t70.5 52 t49.5 84.5t35.5 118t26.5 159.5q18 124 18 210q1 89 -19 137q-38 93 -183 93q-90 0 -196.5 -60t-262.5 -190z" />
<glyph unicode="c" horiz-adv-x="976" d="M117 498q40 283 157.5 398.5t364.5 115.5q172 0 285 -39l-17 -55q-93 20 -254 20q-110 0 -184.5 -20.5t-129.5 -72.5t-86.5 -138t-49.5 -218q-12 -87 -13 -153v-10q0 -60 11 -106q12 -50 36 -82t64.5 -52t92.5 -28.5t124 -8.5q168 0 291 23l8 -58q-150 -39 -311 -39 q-251 0 -340 119q-61 82 -61 243q0 73 12 161z" />
<glyph unicode="d" horiz-adv-x="1157" d="M129 500q23 160 57 257.5t95 155.5t142.5 78.5t211.5 20.5q142 0 321 -23q2 68 19 191l37 254h82l-203 -1434h-64l25 242q-113 -123 -244 -195t-260 -72q-163 0 -210 125q-26 69 -26 184q0 93 17 216zM192 240q3 -98 44 -144.5t129 -46.5q111 0 237 69t252 201l86 611 q-198 10 -285 10q-83 0 -139.5 -7t-104 -27t-77 -50t-54 -83t-40 -119t-29.5 -165q-19 -133 -19 -225v-24z" />
<glyph unicode="e" horiz-adv-x="1083" d="M119 506q18 125 48 212.5t71 145t101.5 90t130 45.5t167.5 13q57 0 103 -4.5t86.5 -15t69.5 -26.5t50.5 -40t31.5 -56t10 -73t-11 -92q-27 -125 -102 -177t-238 -67l-444 -47q-6 -55 -6 -100.5t6 -80.5q12 -71 52 -112.5t102 -57.5t161 -16q155 0 362 27l9 -58 q-59 -18 -180 -29.5t-214 -11.5q-244 0 -326 122q-54 81 -54 234q0 78 14 175zM201 479l438 49q127 14 180.5 51t77.5 132q10 43 10 77t-7.5 58t-26 41t-40.5 27.5t-54.5 16t-64 7.5t-73.5 2q-73 0 -123.5 -6t-97.5 -23.5t-78.5 -47.5t-59 -79.5t-46 -118.5t-33.5 -165 q-2 -6 -2 -21z" />
<glyph unicode="f" horiz-adv-x="733" d="M-258 -416l8 62h160q110 0 161 47t68 168l148 1057h-178l8 59l180 10l29 201q19 140 90 208t209 68q161 0 254 -10l-11 -61h-217q-118 0 -173 -47t-70 -166l-27 -193h352l-12 -69h-350l-152 -1068q-19 -141 -85 -208.5t-197 -67.5q-90 0 -195 10z" />
<glyph unicode="g" horiz-adv-x="1169" d="M41 -434l10 57q89 -5 171 -5q97 0 184 7q176 15 277 102.5t130 262.5q39 214 59 266q-114 -131 -251.5 -206t-251.5 -75q-177 0 -229 121q-27 64 -27 177q0 96 20 227q17 108 37 184t49.5 135t65.5 95t89 58.5t115 31t148 8.5q168 0 397 -31h13l-152 -985 q-61 -413 -477 -442q-34 -3 -94 -3q-36 0 -82 1q-122 3 -201 14zM194 234q5 -98 48.5 -141.5t138.5 -43.5q101 0 230.5 72t252.5 203l90 604q-185 12 -297 12q-82 0 -138 -6.5t-103 -27t-76 -50t-53.5 -83.5t-40 -119.5t-31.5 -164.5q-22 -132 -22 -222q0 -17 1 -33z" />
<glyph unicode="h" horiz-adv-x="1167" d="M98 0l203 1434h80l-59 -433q-16 -126 -46 -247q149 127 272 192.5t232 65.5q130 0 190 -70q46 -53 47 -143q0 -28 -5 -60l-105 -739h-82l105 727q4 30 4 56q0 69 -30 105q-41 50 -144 50q-99 0 -210.5 -61t-273.5 -193l-98 -684h-80z" />
<glyph unicode="i" horiz-adv-x="460" d="M106 0l140 987h80l-140 -987h-80zM270 1245l19 123q3 31 35 31h36q15 0 23 -10t6 -25l-18 -125q-3 -29 -33 -29h-35q-36 0 -33 35z" />
<glyph unicode="j" horiz-adv-x="462" d="M-63 -391q69 75 107.5 149t51.5 168l150 1061h80l-150 -1067q-25 -195 -196 -346zM270 1245l19 123q3 31 35 31h36q15 0 23 -10t6 -25l-18 -125q-3 -29 -33 -29h-35q-36 0 -33 35z" />
<glyph unicode="k" horiz-adv-x="1015" d="M98 0l203 1434h80l-105 -772q-18 -111 -40 -197q240 75 405 208.5t238 313.5h84q-106 -276 -377 -440l55 -107l215 -440h-90l-246 510q-104 -56 -284 -117l-58 -393h-80z" />
<glyph unicode="l" horiz-adv-x="557" d="M129 207l174 1227h80l-170 -1219q-3 -21 -4 -39q0 -115 135 -115h117l2 -59q-46 -16 -144 -16q-101 0 -152 59q-41 47 -41 122q0 19 3 40z" />
<glyph unicode="m" horiz-adv-x="1792" d="M98 0l140 987h61l-25 -233q137 129 246 193.5t209 64.5q125 0 185 -64q51 -55 51 -148q0 -17 -2 -36q134 125 239 186.5t203 61.5q131 0 191 -71q45 -54 45 -142q0 -28 -5 -60l-104 -739h-80l102 727q4 29 4 55q0 70 -31 106q-42 50 -145 50q-87 0 -180 -57t-250 -193 l-96 -688h-80l103 727q4 30 4 56q0 69 -30 105q-41 50 -146 50q-88 0 -181.5 -57.5t-251.5 -194.5l-96 -686h-80z" />
<glyph unicode="n" horiz-adv-x="1167" d="M98 0l140 987h63l-25 -233q149 127 272 192.5t232 65.5q130 0 190 -70q46 -53 47 -143q0 -28 -5 -60l-105 -739h-82l105 727q4 30 4 56q0 69 -30 105q-41 50 -144 50q-99 0 -210 -60t-276 -192l-96 -686h-80z" />
<glyph unicode="o" d="M117 498q40 283 153.5 398.5t354.5 115.5q243 0 327 -119q57 -81 57 -239q0 -75 -12 -167q-40 -283 -153 -397.5t-352 -114.5q-243 0 -329 119q-59 81 -59 240q0 74 13 164zM199 224q23 -98 91 -137.5t202 -39.5q199 0 292.5 99t128.5 352q13 84 13 150v24 q-3 74 -19 125.5t-54.5 82.5t-93 44.5t-134.5 13.5q-135 0 -217.5 -41.5t-131.5 -139t-73 -270.5q-15 -89 -15 -159q0 -59 11 -104z" />
<glyph unicode="p" horiz-adv-x="1159" d="M35 -442l203 1429h63l-25 -244q111 122 247 195.5t239 73.5q180 0 229 -119q27 -65 27 -179q0 -96 -19 -227q-19 -129 -45 -215t-63 -146t-94 -92t-127.5 -45.5t-175.5 -13.5q-143 0 -322 23q-2 -77 -18 -191l-37 -249h-82zM188 57q238 -12 285 -12q83 0 139.5 7t104 27 t77.5 50.5t54.5 84t40 119.5t29.5 165q20 131 20 220q0 19 -1 36q-5 98 -48 141t-137 43q-95 0 -226.5 -72t-251.5 -198z" />
<glyph unicode="q" horiz-adv-x="1157" d="M114 248v30q0 93 15 222q14 107 33.5 185.5t48.5 136t63.5 94t84 58t105.5 30t132 8.5q191 0 430 -66l-195 -1388h-81l61 424q18 119 51 270q-132 -143 -245.5 -210t-243.5 -67q-83 0 -136 25.5t-86.5 86t-36.5 161.5zM211 489q-15 -117 -15 -201q0 -94 19 -144 q35 -95 176 -95q113 0 211 58.5t256 209.5l82 586q-162 37 -322 37q-112 0 -179.5 -18t-114.5 -71t-71 -135.5t-42 -226.5z" />
<glyph unicode="r" horiz-adv-x="792" d="M98 0l140 987h61l-25 -239q283 264 490 264h43l-23 -78h-39q-96 0 -199.5 -59.5t-271.5 -194.5l-96 -680h-80z" />
<glyph unicode="s" horiz-adv-x="1024" d="M61 2l11 59q144 -14 290 -14h52q197 3 272.5 35.5t89.5 136.5q3 22 3 40q0 19 -3 33q-6 30 -29 50.5t-45 31.5t-67 29l-313 123q-53 21 -84.5 39t-59.5 48q-30 29 -38 73q-4 21 -4 47q0 27 5 58q9 60 31.5 101t53 65.5t81.5 37t103 15.5q39 2 93 3q18 0 38 -1 q186 -3 391 -27l-12 -59q-239 12 -377 14q-36 1 -67 1q-16 -1 -30 -1q-43 0 -76.5 -5t-58.5 -15t-43 -28t-29.5 -44.5t-17.5 -65.5q-4 -24 -4 -45q1 -47 21 -73q30 -38 112 -70l316 -123q57 -22 91.5 -41.5t62.5 -49.5t36 -72q4 -21 4 -45.5t-4 -53.5q-8 -53 -25 -92 t-46.5 -64.5t-62.5 -41t-84.5 -23.5t-99.5 -10.5t-120 -2.5q-159 0 -357 27z" />
<glyph unicode="t" horiz-adv-x="716" d="M102 918l9 59l182 10l43 305h80l-43 -305h354l-12 -69h-350l-99 -703q-3 -20 -3 -37q0 -117 134 -117h176l2 -59q-91 -16 -186 -16q-117 0 -169 58q-40 45 -39 120q0 22 3 47l99 707h-181z" />
<glyph unicode="u" d="M125 248l104 739h82l-104 -727q-4 -29 -4 -54q0 -70 31 -106q42 -50 145 -51q101 0 208 65.5t257 209.5l94 663h80l-139 -987h-62l27 248q-276 -273 -486 -273q-133 1 -193 71q-45 53 -45 140q0 29 5 62z" />
<glyph unicode="v" horiz-adv-x="1044" d="M113 987h86l184 -919h37q33 0 51 10.5t45 42.5q87 109 193 301q152 276 219 565h84q-46 -188 -102 -325t-134 -275q-128 -225 -215 -326q-29 -35 -56.5 -48t-70.5 -13h-84q-12 0 -21.5 8t-11.5 19z" />
<glyph unicode="w" horiz-adv-x="1685" d="M113 987h84l165 -919h27q23 0 39.5 9t40.5 42q84 119 162 307q93 216 170 539q2 11 10 17.5t20 6.5l87 -2q12 0 20 -6.5t10 -17.5l131 -895h25q41 0 78 53q115 168 180 303q121 249 186 563h86q-81 -348 -209 -600q-124 -233 -200 -328q-27 -31 -53.5 -45t-67.5 -14h-57 q-13 0 -22 8t-11 19l-129 899h-23q-20 -96 -64.5 -246t-97.5 -274q-38 -94 -92.5 -195.5t-93.5 -147.5q-46 -63 -127 -63h-57q-25 0 -33 27z" />
<glyph unicode="x" horiz-adv-x="1038" d="M-20 0l436 514l-269 473h86l248 -438h58l372 438h95l-404 -475l291 -512h-88l-268 481h-56l-403 -481h-98z" />
<glyph unicode="y" horiz-adv-x="1060" d="M78 -373q109 34 204.5 124t202.5 249h-77q-38 0 -65.5 22t-35.5 58l-198 907h86l182 -870q13 -49 61 -49l90 2q7 11 25 38.5t27 43.5q126 208 207 403t145 432h84q-119 -468 -361 -856q-163 -266 -287.5 -396t-275.5 -163z" />
<glyph unicode="z" horiz-adv-x="1003" d="M18 0l11 70l809 845h-682l8 72h786l-10 -72l-809 -845h696l-10 -70h-799z" />
<glyph unicode="{" horiz-adv-x="620" d="M111 635l12 78q81 24 100 36q35 22 48 87q4 19 8 47l61 430q19 142 92 203t227 57l-4 -55q-115 0 -169 -51.5t-68 -161.5l-56 -406q-18 -122 -55 -163.5t-141 -63.5q97 -35 125.5 -78.5t13.5 -147.5l-72 -522q-16 -109 21.5 -158t153.5 -49l-7 -55q-151 -3 -209 61 t-38 203l75 549q7 52 -4.5 82t-30 41t-71.5 32q-2 1 -3.5 1.5t-4 1.5t-4.5 2z" />
<glyph unicode="|" horiz-adv-x="483" d="M76 -346l272 1945h68l-273 -1945h-67z" />
<glyph unicode="}" horiz-adv-x="618" d="M-41 -338l4 55q114 0 167 51.5t67 159.5l75 525q10 73 30 111.5t56.5 61t112.5 46.5q-39 9 -62.5 19.5t-42 26.5t-25 41t-7 60t7.5 86l59 406q14 110 -22.5 158.5t-153.5 48.5l4 55q151 4 210 -60.5t40 -203.5l-61 -432q-5 -39 -4.5 -63.5t4 -40.5t18.5 -26.5t29.5 -16.5 t46.5 -16q10 -3 16 -5l-12 -78q-85 -31 -106 -46q-45 -31 -57 -110q-1 -3 -1 -6l-76 -547q-21 -142 -92.5 -202.5t-224.5 -57.5z" />
<glyph unicode="~" horiz-adv-x="1085" d="M156 489q7 100 55 151t121 46q57 -3 113.5 -23.5t95.5 -44t93 -44t107 -23.5q62 -4 93.5 26t42.5 101l49 -6q-7 -95 -55.5 -145t-120.5 -44q-67 3 -127.5 23.5t-98 44t-87 44t-97.5 23.5q-61 6 -93.5 -27.5t-41.5 -107.5z" />
<glyph unicode="&#xa1;" horiz-adv-x="483" d="M57 -416l95 662l53 323h67l-39 -323l-94 -662h-82zM227 834l17 122q5 33 39 33h28q19 0 26 -8.5t5 -28.5l-18 -118q-3 -37 -39 -37h-25q-39 0 -33 37z" />
<glyph unicode="&#xa2;" horiz-adv-x="1030" d="M152 721q40 282 157 397t363 115h2l39 180h55l-39 -182q139 -4 227 -37l-16 -55q-84 18 -227 22l-189 -891h25q143 0 293 25l8 -59q-163 -39 -311 -39h-33l-43 -197h-55l45 201q-201 19 -270 139.5t-31 380.5zM230 465.5q18 -95.5 74.5 -139t166.5 -52.5l186 887 q-135 -3 -216.5 -44t-131 -136.5t-73.5 -265.5q-24 -154 -6 -249.5z" />
<glyph unicode="&#xa3;" horiz-adv-x="1146" d="M57 0l9 74q112 61 163 168t66 268l18 205h-168l9 57h165l27 307q7 68 22 121t35 90.5t50.5 64t61 42.5t74 24.5t83.5 11.5t94 3q136 0 332 -21l-11 -63q-202 10 -356 10q-152 0 -220.5 -65t-82.5 -220l-29 -305h496l-10 -57h-490l-18 -201q-13 -159 -60 -269t-149 -173 q37 2 123 2h670l-9 -74h-895z" />
<glyph unicode="&#xa4;" horiz-adv-x="1226" d="M133 326l160 141q-73 106 -55 258q18 165 122 272l-139 162l43 39l142 -162q110 80 264 80q156 0 250 -88l161 143l37 -45l-160 -139q82 -112 64 -270q-19 -164 -119 -264l141 -162l-43 -37l-139 162q-115 -88 -270 -88q-163 0 -262 96l-158 -141zM295 717 q-15 -145 63 -237.5t222 -96.5q158 -4 264 91.5t121 252.5q14 145 -64 239.5t-231 94.5q-160 0 -260 -95t-115 -249z" />
<glyph unicode="&#xa5;" horiz-adv-x="1239" d="M154 352l8 58h385l22 157l-4 11h-379l7 57h348l-332 778h88l260 -612q4 -12 26 -65.5t31 -80.5h17q46 77 96 146l430 612h94l-549 -778h357l-8 -57h-389l-9 -13l-22 -155h397l-10 -58h-395l-50 -352h-84l50 352h-385z" />
<glyph unicode="&#xa6;" horiz-adv-x="483" d="M76 -346l114 819h68l-115 -819h-67zM233 780l115 819h68l-115 -819h-68z" />
<glyph unicode="&#xa7;" horiz-adv-x="1112" d="M31 -281l10 64q265 -14 420 -16q52 -1 83 0t72 6t65.5 16t49.5 30t39.5 49.5t20.5 72.5q10 84 -22 136.5t-97 92.5l-348 213q-65 39 -101 84t-46 103t-2.5 119.5t32.5 148.5l65 -4q-15 -61 -22 -103t-7 -85t11 -73.5t34.5 -59t61.5 -52.5l357 -219q103 -64 142.5 -135.5 t24.5 -176.5q-10 -65 -35.5 -110t-57.5 -69.5t-85.5 -37.5t-100.5 -16t-122 -2q-217 3 -442 24zM231 1210q11 73 40.5 119.5t83.5 70t116.5 31.5t159.5 7q234 0 442 -25l-10 -61q-194 12 -418 14q-54 1 -89 -0.5t-74.5 -6.5t-64 -16t-47.5 -29.5t-36 -47.5t-19 -68 q-11 -80 20 -133t101 -94l348 -215q53 -33 86 -70.5t48.5 -76.5t16.5 -90.5t-8 -102t-28 -121.5l-65 2q25 102 28.5 167t-21.5 121t-87 95l-353 219q-108 68 -146.5 138.5t-23.5 172.5z" />
<glyph unicode="&#xa8;" horiz-adv-x="823" d="M297 1255l16 111q3 31 33 31h27q29 0 26 -31l-16 -109q-3 -19 -10.5 -25.5t-24.5 -6.5h-24q-30 0 -27 30zM655 1255l17 111q3 31 33 31h26q30 0 27 -31l-17 -109q-3 -19 -10 -25.5t-24 -6.5h-25q-30 0 -27 30z" />
<glyph unicode="&#xa9;" horiz-adv-x="1740" d="M156 711q20 157 87 290.5t172 230.5t250.5 151.5t315.5 54.5q154 0 282 -53t214 -148t124.5 -233.5t16.5 -301.5q-21 -158 -88.5 -291.5t-172 -230t-249.5 -151t-315 -54.5q-155 0 -283 53.5t-213.5 149t-124 233.5t-16.5 300zM209 702q-19 -151 16.5 -278.5t114.5 -214 t195.5 -134.5t255.5 -48q210 0 377.5 89t268 243t126.5 352q26 200 -41.5 354.5t-208.5 237.5t-332 83q-157 0 -293 -51.5t-234 -142.5t-161.5 -216.5t-83.5 -273.5zM498 717q37 258 140.5 361.5t324.5 103.5q148 0 268 -27l-14 -45q-108 10 -250 10q-98 0 -163.5 -19 t-114.5 -67t-77.5 -126.5t-46.5 -200.5q-31 -224 28.5 -313t240.5 -89q194 0 292 14l7 -49q-121 -26 -291 -26q-227 0 -303 105.5t-41 367.5z" />
<glyph unicode="&#xaa;" horiz-adv-x="911" d="M173 760.5q1 55.5 11 128.5q15 107 44 175.5t76.5 105t104 50t140.5 13.5q97 0 270 -23l-92 -657h-53l14 147q-69 -75 -151 -118t-156 -43q-42 0 -72.5 5.5t-57.5 19.5t-43 39.5t-26 63.5t-9 93.5zM240.5 762q-0.5 -49 7 -82t27 -50.5t46.5 -24.5t68 -7q63 0 144 42.5 t159 119.5l58 409q-136 7 -185 7q-79 0 -127 -10t-88 -41t-62 -89t-36 -153q-11 -72 -11.5 -121z" />
<glyph unicode="&#xab;" horiz-adv-x="937" d="M86 506l2 22l389 404l37 -35l-348 -387l242 -389l-43 -31zM422 506l2 22l389 404l37 -35l-348 -387l241 -389l-43 -31z" />
<glyph unicode="&#xac;" horiz-adv-x="1208" d="M166 573l8 68h866l-53 -367h-69l43 299h-795z" />
<glyph unicode="&#xad;" horiz-adv-x="968" d="M152 481l8 68h633l-9 -68h-632z" />
<glyph unicode="&#xae;" horiz-adv-x="1173" d="M186 995q23 206 160.5 323.5t337.5 117.5q210 0 323.5 -126t88.5 -333q-25 -197 -159.5 -325t-336.5 -128q-134 0 -234 58t-148 166t-32 247zM227 987q-21 -193 83.5 -308.5t289.5 -115.5q186 0 308.5 119.5t144.5 304.5q23 190 -79 300t-290 110q-195 0 -315.5 -112 t-141.5 -298zM391 698l80 566q76 6 201 6q63 0 100 -5t68 -21.5t41.5 -49.5t3.5 -86q-7 -72 -40 -104t-104 -43v-5q46 -15 64 -82l47 -176h-51l-45 179q-10 37 -31.5 52t-58.5 15q-166 0 -193 2l-35 -248h-47zM479 981h176q48 1 77 5.5t53.5 18.5t36.5 40t16 69 q10 74 -24 95.5t-134 21.5l-166 -2z" />
<glyph unicode="&#xaf;" horiz-adv-x="819" d="M248 1272l8 67h543l-8 -67h-543z" />
<glyph unicode="&#xb0;" horiz-adv-x="770" d="M211 1190q12 111 91 179.5t187 68.5q113 0 178.5 -73t53.5 -185q-12 -114 -92 -183t-189 -69q-116 0 -178 76.5t-51 185.5zM270 1182q-8 -87 39.5 -143t132.5 -56q86 0 148.5 55.5t71.5 147.5q9 87 -39 141.5t-136 54.5t-148.5 -56t-68.5 -144z" />
<glyph unicode="&#xb1;" horiz-adv-x="1216" d="M115 180l10 66h866l-10 -66h-866zM186 684l11 66h397l41 294h70l-43 -294h399l-10 -66h-398l-43 -295h-65l41 295h-400z" />
<glyph unicode="&#xb2;" horiz-adv-x="772" d="M150 729l4 29q2 14 16 28l330 306q67 60 103 99t63.5 91.5t27.5 106.5q0 58 -39 81t-116 23q-102 0 -263 -31l-2 54q134 36 271 36q114 0 172.5 -34t58.5 -115q0 -48 -17.5 -94.5t-54.5 -93t-68.5 -79t-84.5 -81.5l-291 -269q47 2 131 2l340 -2l-10 -57h-571z" />
<glyph unicode="&#xb3;" horiz-adv-x="802" d="M152 745l20 52q118 -23 252 -23q115 0 169 57t54 173q0 56 -36 87.5t-130 32.5l-172 2l8 54l175 4q96 1 143 56t47 149q0 62 -38.5 83t-139.5 21q-118 0 -228 -27l-4 54q131 32 242 32q127 0 185.5 -32.5t58.5 -110.5q0 -91 -41 -160t-117 -88v-4q119 -25 119 -153 q0 -291 -297 -291q-138 0 -270 32z" />
<glyph unicode="&#xb4;" horiz-adv-x="587" d="M211 1161l358 301l47 -63l-370 -279z" />
<glyph unicode="&#xb5;" horiz-adv-x="1165" d="M53 -403l88 624q1 5 2 17t2 18l105 731h80l-103 -727q-15 -108 24.5 -157.5t141.5 -49.5q90 0 181.5 41.5t171.5 131t112 210.5l80 551h80l-111 -792q-5 -42 -5.5 -74t16.5 -51t53 -19h88l2 -49q-56 -16 -125 -16q-74 0 -98 45t-11 137l15 94q-82 -138 -210 -212.5 t-251 -74.5q-121 0 -186 68l-35 -242l-43 -204h-64z" />
<glyph unicode="&#xb6;" horiz-adv-x="1218" d="M147 956q17 117 50 199t84 137.5t129.5 87.5t173.5 45t229 13q165 0 305 -35l-198 -1403h-74l192 1358q-123 16 -280 16l-254 -1804h-72l119 842q-245 27 -343 164t-61 380z" />
<glyph unicode="&#xb7;" horiz-adv-x="434" d="M150 467l18 123q3 33 37 33h31q21 0 27 -8.5t3 -28.5l-16 -123q-6 -33 -39 -33h-29q-38 0 -32 37z" />
<glyph unicode="&#xb8;" horiz-adv-x="456" d="M-49 -455l16 47q97 -4 167 49t81 130q7 51 -15 69.5t-91 20.5l8 43q93 6 133.5 -27t28.5 -113q-15 -109 -106.5 -172.5t-221.5 -46.5z" />
<glyph unicode="&#xb9;" horiz-adv-x="591" d="M201 1454l241 86h70l-117 -811h-67l98 688q4 32 12 60l-233 -70z" />
<glyph unicode="&#xba;" horiz-adv-x="911" d="M182 891q26 189 106 265.5t249 76.5q177 0 237.5 -79t32.5 -273q-26 -190 -106 -266t-250 -76q-173 0 -234 79.5t-35 272.5zM252 881q-23 -162 20 -223.5t179 -61.5t198.5 64.5t87.5 230.5q23 163 -20 224t-178 61q-138 0 -201 -64t-86 -231z" />
<glyph unicode="&#xbb;" horiz-adv-x="935" d="M61 125l349 387l-242 389l43 31l278 -416l-2 -22l-389 -404zM397 125l348 387l-241 389l43 31l278 -416l-2 -22l-389 -404z" />
<glyph unicode="&#xbc;" horiz-adv-x="1718" d="M168 0l1165 1413h70l-1165 -1413h-70zM195 1323l264 90h67l-118 -848h-68l100 721q8 46 15 66l-258 -74zM897 260q-19 35 8 76l363 512h71l-362 -514q-14 -20 -5.5 -36.5t34.5 -16.5h411l37 264l33 143h51l-57 -407h98l-8 -48l-96 -6l-33 -227h-64l31 225h-446 q-47 0 -66 35z" />
<glyph unicode="&#xbd;" horiz-adv-x="1771" d="M164 0l1163 1413h70l-1164 -1413h-69zM193 1323l264 90h67l-118 -848h-68l100 721q4 26 15 66l-256 -74zM969 0l6 41q3 18 16 31l350 309q108 97 160.5 169t61.5 140q4 30 -4 51.5t-22 33.5t-41.5 18.5t-53.5 8t-68 1.5q-122 0 -274 -23l-8 49q154 33 278 33 q152 0 216 -37t48 -145q-10 -76 -62 -147t-165 -171l-346 -303q55 2 160 2l368 -2l-10 -59h-610z" />
<glyph unicode="&#xbe;" horiz-adv-x="1906" d="M125 567l8 51q147 -14 264 -14q129 0 192.5 47t76.5 156q8 35 2 66t-23.5 55t-60 38.5t-107.5 14.5l-178 2l8 49l172 2q64 1 109 19t68.5 48t34 57.5t14.5 62.5q12 85 -32 115t-173 30q-110 0 -242 -12l-6 49q129 20 250 20q167 0 227 -43.5t43 -156.5 q-25 -183 -180 -209l-6 -4q92 -13 125.5 -69t23.5 -150q-15 -127 -89 -185.5t-232 -58.5q-109 0 -289 20zM383 0l1165 1413h70l-1165 -1413h-70zM1084.5 260q-19.5 35 7.5 76l364 512h70l-363 -514q-14 -20 -5.5 -36.5t34.5 -16.5h397l37 264l33 143h51l-57 -407h112l-6 -48 l-114 -6l-31 -227h-66l33 225h-432q-45 0 -64.5 35z" />
<glyph unicode="&#xbf;" horiz-adv-x="1017" d="M0 -127q9 62 37.5 117.5t68.5 98t87 83.5t94 84t87.5 89.5t71 109.5t41.5 135l72 -4q-10 -78 -40 -145.5t-69.5 -116.5t-85 -93.5t-91 -84t-84.5 -79.5t-67 -90t-36 -106q-19 -129 50.5 -189.5t236.5 -60.5q44 0 79.5 0.5t71.5 2.5t54 2.5t55.5 4.5t45 4.5t53.5 6t52 6.5 l9 -60q-19 -3 -88 -14t-97 -14t-95 -7t-148 -4q-201 0 -294 82t-71 242zM514 852l18 125q1 17 9.5 24t25.5 7h29q19 0 26.5 -7.5t4.5 -27.5l-17 -123q-3 -35 -37 -35h-26q-36 0 -33 37z" />
<glyph unicode="&#xc0;" horiz-adv-x="1236" d="M-49 0l690 1389q8 24 37 24h115q12 0 22.5 -8.5t11.5 -20.5l299 -1384h-86l-102 496h-651l-244 -496h-92zM324 571h598l-138 658l-22 114h-62l-55 -116zM494 1784l53 59l287 -301l-39 -39z" />
<glyph unicode="&#xc1;" horiz-adv-x="1236" d="M-49 0l690 1389q8 24 37 24h115q12 0 22.5 -8.5t11.5 -20.5l299 -1384h-86l-102 496h-651l-244 -496h-92zM324 571h598l-138 658l-22 114h-62l-55 -116zM639 1544l358 301l47 -63l-370 -279z" />
<glyph unicode="&#xc2;" horiz-adv-x="1236" d="M-49 0l690 1389q8 24 37 24h115q12 0 22.5 -8.5t11.5 -20.5l299 -1384h-86l-102 496h-651l-244 -496h-92zM324 571h598l-138 658l-22 114h-62l-55 -116zM444 1565l310 243h59l250 -247l-35 -35l-237 207h-19l-299 -209z" />
<glyph unicode="&#xc3;" horiz-adv-x="1236" d="M-49 0l690 1389q8 24 37 24h115q12 0 22.5 -8.5t11.5 -20.5l299 -1384h-86l-102 496h-651l-244 -496h-92zM324 571h598l-138 658l-22 114h-62l-55 -116zM453 1587q9 99 56.5 149t121.5 44q34 -3 63.5 -16.5t52 -31.5t44.5 -36t50 -32t60 -17q64 -4 96.5 26.5t40.5 98.5 l47 -5q-7 -95 -55 -143.5t-121 -42.5q-46 3 -86.5 23.5t-65 43t-57 43t-63.5 23.5q-62 6 -95 -27t-42 -106z" />
<glyph unicode="&#xc4;" horiz-adv-x="1236" d="M-49 0l690 1389q8 24 37 24h115q12 0 22.5 -8.5t11.5 -20.5l299 -1384h-86l-102 496h-651l-244 -496h-92zM324 571h598l-138 658l-22 114h-62l-55 -116zM537 1618l16 111q3 30 33 30h26q30 0 27 -30l-16 -109q-3 -19 -10.5 -26t-24.5 -7h-25q-29 0 -26 31zM895 1618 l16 111q3 30 33 30h27q17 0 22.5 -7t3.5 -23l-16 -109q-3 -19 -10.5 -26t-24.5 -7h-24q-30 0 -27 31z" />
<glyph unicode="&#xc5;" horiz-adv-x="1236" d="M-49 0l690 1389q8 24 37 24h115q12 0 22.5 -8.5t11.5 -20.5l299 -1384h-86l-102 496h-651l-244 -496h-92zM324 571h598l-138 658l-22 114h-62l-55 -116zM563 1649q0 92 63.5 155.5t157.5 63.5q87 0 138 -50t51 -130q0 -91 -64.5 -155.5t-156.5 -64.5q-86 0 -137.5 51 t-51.5 130zM621 1655q0 -58 34.5 -95.5t96.5 -37.5q73 0 118 49.5t45 118.5q0 54 -35.5 90.5t-95.5 36.5q-71 0 -117 -48.5t-46 -113.5z" />
<glyph unicode="&#xc6;" horiz-adv-x="1853" d="M-68 0l959 1229q88 111 174 147.5t217 36.5q362 0 573 -8l-10 -64h-542q-73 0 -123 -43.5t-62 -119.5l-53 -387l618 -3l-10 -67l-618 -2l-68 -490q-11 -72 25 -114.5t108 -42.5h547l-4 -64q-188 -8 -559 -8q-102 0 -158 64t-41 165l43 303h-506l-415 -532h-95zM500 606 l458 -2l82 586q4 46 34 91t65 60h-9q-83 -32 -169 -145z" />
<glyph unicode="&#xc7;" d="M140 429q-3 122 22 282q29 205 75 341t121 223.5t178.5 125t251.5 37.5q218 0 363 -37l-18 -62q-165 23 -342 23q-131 0 -220 -32.5t-153.5 -112t-103.5 -202.5t-66 -313q-21 -148 -21.5 -254.5t19.5 -184t65.5 -123.5t114 -67.5t168.5 -21.5q218 0 385 27l10 -64 q-166 -39 -393 -39q-119 0 -203 25t-141.5 80t-83 141t-28.5 208zM336 -479l16 47q97 -4 167 48.5t81 129.5q7 51 -15 69.5t-91 20.5l8 43q93 6 133.5 -26.5t28.5 -112.5q-15 -109 -106.5 -172.5t-221.5 -46.5z" />
<glyph unicode="&#xc8;" horiz-adv-x="1128" d="M137 229l135 969q14 99 79.5 157t170.5 58q407 0 606 -8l-12 -64h-579q-80 0 -126 -42.5t-57 -120.5l-53 -390h655l-10 -67l-655 -2l-68 -490q-11 -72 25 -114.5t108 -42.5h580l2 -64q-197 -8 -596 -8q-107 0 -163.5 63.5t-41.5 165.5zM502 1833l53 59l287 -301l-39 -39z " />
<glyph unicode="&#xc9;" horiz-adv-x="1128" d="M137 229l135 969q14 99 79.5 157t170.5 58q407 0 606 -8l-12 -64h-579q-80 0 -126 -42.5t-57 -120.5l-53 -390h655l-10 -67l-655 -2l-68 -490q-11 -72 25 -114.5t108 -42.5h580l2 -64q-197 -8 -596 -8q-107 0 -163.5 63.5t-41.5 165.5zM647 1593l359 301l47 -63 l-371 -279z" />
<glyph unicode="&#xca;" horiz-adv-x="1128" d="M137 229l135 969q14 99 79.5 157t170.5 58q407 0 606 -8l-12 -64h-579q-80 0 -126 -42.5t-57 -120.5l-53 -390h655l-10 -67l-655 -2l-68 -490q-11 -72 25 -114.5t108 -42.5h580l2 -64q-197 -8 -596 -8q-107 0 -163.5 63.5t-41.5 165.5zM453 1614l309 244h59l250 -248 l-35 -35l-237 207h-19l-299 -209z" />
<glyph unicode="&#xcb;" horiz-adv-x="1128" d="M137 229l135 969q14 99 79.5 157t170.5 58q407 0 606 -8l-12 -64h-579q-80 0 -126 -42.5t-57 -120.5l-53 -390h655l-10 -67l-655 -2l-68 -490q-11 -72 25 -114.5t108 -42.5h580l2 -64q-197 -8 -596 -8q-107 0 -163.5 63.5t-41.5 165.5zM545 1667l16 111q3 30 33 30h27 q17 0 22.5 -7t3.5 -23l-16 -109q-3 -19 -10.5 -26t-24.5 -7h-25q-29 0 -26 31zM903 1667l17 111q3 30 32 30h27q30 0 27 -30l-17 -109q-3 -19 -10.5 -26t-24.5 -7h-24q-30 0 -27 31z" />
<glyph unicode="&#xcc;" horiz-adv-x="489" d="M119 0l198 1413h84l-198 -1413h-84zM121 1784l53 59l287 -301l-39 -39z" />
<glyph unicode="&#xcd;" horiz-adv-x="489" d="M119 0l198 1413h84l-198 -1413h-84zM266 1544l359 301l47 -63l-371 -279z" />
<glyph unicode="&#xce;" horiz-adv-x="489" d="M72 1565l309 243h59l250 -247l-35 -35l-237 207h-19l-299 -209zM119 0l198 1413h84l-198 -1413h-84z" />
<glyph unicode="&#xcf;" horiz-adv-x="489" d="M119 0l198 1413h84l-198 -1413h-84zM164 1618l16 111q3 30 33 30h27q17 0 22.5 -7t3.5 -23l-16 -109q-3 -19 -10.5 -26t-24.5 -7h-25q-29 0 -26 31zM522 1618l17 111q3 30 32 30h27q30 0 27 -30l-17 -109q-3 -19 -10.5 -26t-24.5 -7h-24q-30 0 -27 31z" />
<glyph unicode="&#xd0;" horiz-adv-x="1349" d="M59 729l9 57h161l88 627q260 19 467 19q120 0 203.5 -24t141 -77.5t82.5 -138.5t28.5 -207t-20.5 -283q-30 -212 -76.5 -349t-123 -220.5t-179 -117t-252.5 -33.5q-219 0 -469 18l102 729h-162zM211 63q345 -6 375 -6q173 0 277.5 58.5t169 199t100.5 396.5 q21 150 21 256.5t-20 183t-66.5 120.5t-115.5 64.5t-170 20.5q-44 0 -389 -6l-80 -564h355l-6 -57h-357z" />
<glyph unicode="&#xd1;" horiz-adv-x="1417" d="M119 0l192 1374q6 39 43 39h101q33 0 45 -35l442 -1126q33 -80 66 -176h53q23 179 24 182l160 1155h84l-192 -1374q-6 -39 -43 -39h-105q-33 0 -45 35l-452 1153q-3 7 -26 63t-32 86h-47q-12 -110 -20 -168l-164 -1169h-84zM561 1587q9 99 56.5 149t121.5 44 q41 -3 78 -23t60.5 -42.5t59 -43t73.5 -24.5q64 -4 96.5 26.5t40.5 98.5l47 -5q-7 -95 -55 -143.5t-121 -42.5q-46 3 -87 23.5t-65 43t-57 43t-64 23.5q-62 6 -95 -27t-42 -106z" />
<glyph unicode="&#xd2;" horiz-adv-x="1355" d="M143.5 366.5q-7.5 140.5 18.5 344.5q29 205 75 340.5t121 223.5t179 125.5t254 37.5q148 0 242.5 -39t148.5 -126t61 -227.5t-20 -343.5q-28 -206 -73.5 -342.5t-121 -223.5t-179 -124t-251.5 -37t-242.5 38.5t-149.5 125.5t-62.5 227.5zM228.5 395.5 q3.5 -124.5 46.5 -201t120.5 -110t202.5 -33.5q170 0 275 63.5t166.5 204.5t97.5 392q24 183 22 308t-45 201t-120.5 109t-205.5 33q-130 0 -218.5 -33t-152.5 -113t-103 -202.5t-66 -311.5q-23 -182 -19.5 -306.5zM545 1784l53 59l287 -301l-39 -39z" />
<glyph unicode="&#xd3;" horiz-adv-x="1355" d="M143.5 366.5q-7.5 140.5 18.5 344.5q29 205 75 340.5t121 223.5t179 125.5t254 37.5q148 0 242.5 -39t148.5 -126t61 -227.5t-20 -343.5q-28 -206 -73.5 -342.5t-121 -223.5t-179 -124t-251.5 -37t-242.5 38.5t-149.5 125.5t-62.5 227.5zM228.5 395.5 q3.5 -124.5 46.5 -201t120.5 -110t202.5 -33.5q170 0 275 63.5t166.5 204.5t97.5 392q24 183 22 308t-45 201t-120.5 109t-205.5 33q-130 0 -218.5 -33t-152.5 -113t-103 -202.5t-66 -311.5q-23 -182 -19.5 -306.5zM690 1544l359 301l47 -63l-371 -279z" />
<glyph unicode="&#xd4;" horiz-adv-x="1355" d="M143.5 366.5q-7.5 140.5 18.5 344.5q29 205 75 340.5t121 223.5t179 125.5t254 37.5q148 0 242.5 -39t148.5 -126t61 -227.5t-20 -343.5q-28 -206 -73.5 -342.5t-121 -223.5t-179 -124t-251.5 -37t-242.5 38.5t-149.5 125.5t-62.5 227.5zM228.5 395.5 q3.5 -124.5 46.5 -201t120.5 -110t202.5 -33.5q170 0 275 63.5t166.5 204.5t97.5 392q24 183 22 308t-45 201t-120.5 109t-205.5 33q-130 0 -218.5 -33t-152.5 -113t-103 -202.5t-66 -311.5q-23 -182 -19.5 -306.5zM496 1565l309 243h59l250 -247l-35 -35l-237 207h-19 l-299 -209z" />
<glyph unicode="&#xd5;" horiz-adv-x="1355" d="M143.5 366.5q-7.5 140.5 18.5 344.5q29 205 75 340.5t121 223.5t179 125.5t254 37.5q148 0 242.5 -39t148.5 -126t61 -227.5t-20 -343.5q-28 -206 -73.5 -342.5t-121 -223.5t-179 -124t-251.5 -37t-242.5 38.5t-149.5 125.5t-62.5 227.5zM228.5 395.5 q3.5 -124.5 46.5 -201t120.5 -110t202.5 -33.5q170 0 275 63.5t166.5 204.5t97.5 392q24 183 22 308t-45 201t-120.5 109t-205.5 33q-130 0 -218.5 -33t-152.5 -113t-103 -202.5t-66 -311.5q-23 -182 -19.5 -306.5zM504 1587q9 99 56.5 149t121.5 44q34 -3 63.5 -16.5 t52 -31.5t44.5 -36t50 -32t60 -17q64 -4 97 26.5t41 98.5l47 -5q-7 -95 -55 -143.5t-121 -42.5q-46 3 -87 23.5t-65 43t-57 43t-64 23.5q-62 6 -95 -27t-42 -106z" />
<glyph unicode="&#xd6;" horiz-adv-x="1355" d="M143.5 366.5q-7.5 140.5 18.5 344.5q29 205 75 340.5t121 223.5t179 125.5t254 37.5q148 0 242.5 -39t148.5 -126t61 -227.5t-20 -343.5q-28 -206 -73.5 -342.5t-121 -223.5t-179 -124t-251.5 -37t-242.5 38.5t-149.5 125.5t-62.5 227.5zM228.5 395.5 q3.5 -124.5 46.5 -201t120.5 -110t202.5 -33.5q170 0 275 63.5t166.5 204.5t97.5 392q24 183 22 308t-45 201t-120.5 109t-205.5 33q-130 0 -218.5 -33t-152.5 -113t-103 -202.5t-66 -311.5q-23 -182 -19.5 -306.5zM588 1618l16 111q3 30 33 30h27q17 0 22.5 -7t3.5 -23 l-16 -109q-3 -19 -10.5 -26t-24.5 -7h-25q-29 0 -26 31zM946 1618l17 111q3 30 32 30h27q30 0 27 -30l-17 -109q-3 -19 -10.5 -26t-24.5 -7h-24q-30 0 -27 31z" />
<glyph unicode="&#xd7;" horiz-adv-x="1077" d="M109 295l374 299l-284 293l49 49l291 -299l381 305l45 -55l-377 -301l286 -295l-49 -51l-293 303l-380 -303z" />
<glyph unicode="&#xd8;" horiz-adv-x="1355" d="M151 300.5q-25 157.5 11 410.5q29 205 75 340.5t121 223.5t179 125.5t254 37.5q177 0 278 -56l86 142l51 -29l-88 -145q92 -78 117 -235.5t-12 -412.5q-28 -206 -73.5 -342.5t-121 -223.5t-179 -124t-251.5 -37q-176 0 -283 58l-86 -142l-51 29l90 146q-92 77 -117 234.5 zM233 347.5q15 -137.5 80 -206.5l713 1172q-80 49 -238 49q-130 0 -218.5 -33t-152.5 -113t-103 -202.5t-66 -311.5q-30 -217 -15 -354.5zM358 104q85 -53 240 -53q170 0 275 63.5t166.5 204.5t97.5 392q33 222 18.5 359.5t-82.5 205.5z" />
<glyph unicode="&#xd9;" horiz-adv-x="1363" d="M182 530l123 883h86l-125 -889q-37 -262 38.5 -367.5t297.5 -105.5q223 0 331.5 108.5t145.5 370.5l123 883h86l-125 -889q-43 -299 -169.5 -424t-389.5 -125q-269 0 -366 128t-56 427zM545 1784l53 59l287 -301l-39 -39z" />
<glyph unicode="&#xda;" horiz-adv-x="1363" d="M182 530l123 883h86l-125 -889q-37 -262 38.5 -367.5t297.5 -105.5q223 0 331.5 108.5t145.5 370.5l123 883h86l-125 -889q-43 -299 -169.5 -424t-389.5 -125q-269 0 -366 128t-56 427zM690 1544l359 301l47 -63l-371 -279z" />
<glyph unicode="&#xdb;" horiz-adv-x="1363" d="M182 530l123 883h86l-125 -889q-37 -262 38.5 -367.5t297.5 -105.5q223 0 331.5 108.5t145.5 370.5l123 883h86l-125 -889q-43 -299 -169.5 -424t-389.5 -125q-269 0 -366 128t-56 427zM496 1565l309 243h59l250 -247l-35 -35l-237 207h-19l-299 -209z" />
<glyph unicode="&#xdc;" horiz-adv-x="1363" d="M182 530l123 883h86l-125 -889q-37 -262 38.5 -367.5t297.5 -105.5q223 0 331.5 108.5t145.5 370.5l123 883h86l-125 -889q-43 -299 -169.5 -424t-389.5 -125q-269 0 -366 128t-56 427zM588 1618l16 111q3 30 33 30h27q17 0 22.5 -7t3.5 -23l-16 -109q-3 -19 -10.5 -26 t-24.5 -7h-25q-29 0 -26 31zM946 1618l17 111q3 30 32 30h27q30 0 27 -30l-17 -109q-3 -19 -10.5 -26t-24.5 -7h-24q-30 0 -27 31z" />
<glyph unicode="&#xdd;" horiz-adv-x="1112" d="M145 1413h86l258 -661q45 -117 54 -148h14q53 92 92 150l445 659h92l-604 -895l-72 -518h-86l74 518zM559 1544l359 301l47 -63l-371 -279z" />
<glyph unicode="&#xde;" horiz-adv-x="1196" d="M119 0l157 1124v2l41 287h86l-38 -278q141 8 370 8q78 0 136 -8.5t105 -28.5t74.5 -52.5t44.5 -80t16 -111.5t-11 -147q-17 -125 -49 -205.5t-89.5 -128.5t-135 -67t-193.5 -19q-245 0 -385 14l-43 -309h-86zM256 371h371q98 2 161.5 17t111.5 54.5t74.5 107t41.5 175.5 q19 138 -3 212t-86.5 103t-191.5 29q-221 0 -381 -4z" />
<glyph unicode="&#xdf;" horiz-adv-x="1337" d="M-258 -416l8 62h160q109 0 159.5 47t69.5 168l150 1057h-180l8 59l180 10l16 109q10 71 28.5 126t42.5 93.5t58.5 65.5t68 42.5t81.5 24.5t89.5 11.5t98.5 2.5q238 0 334 -51.5t84 -189.5q-8 -105 -66 -163t-169 -102q-20 -7 -55 -19l-52.5 -18t-45 -17.5t-42 -20.5 t-33 -23.5t-28 -30t-17 -36.5t-10.5 -46q-4 -54 20.5 -87.5t90.5 -65.5l245 -123q99 -49 136 -103t24 -155q-9 -61 -32 -104t-54 -68t-81 -39t-99.5 -18.5t-120.5 -4.5q-159 0 -317 23l10 61q173 -15 315 -12q58 1 98 5t77 15t60.5 30t39.5 49.5t22 74.5q5 41 -0.5 71 t-24.5 50.5t-34.5 31t-46.5 27.5q-9 5 -13 7l-245 122q-86 44 -121.5 94.5t-26.5 127.5q6 53 26.5 90.5t69 67.5t80 43.5t111.5 41.5q27 10 41 15q31 12 48.5 20t47.5 27t47 39t32 54t17 75q2 34 -4 58t-26 45.5t-55.5 34.5t-94 20.5t-141.5 7.5q-109 0 -177.5 -13 t-117.5 -48t-74.5 -93t-38.5 -152l-174 -1237q-22 -149 -89 -212.5t-206 -63.5q-80 0 -182 10z" />
<glyph unicode="&#xe0;" horiz-adv-x="1159" d="M133 500q17 108 37 184t49.5 135t65.5 95t89.5 58.5t116 31t150.5 8.5q165 0 391 -31l-137 -981h-64l27 242q-111 -126 -243.5 -196.5t-243.5 -70.5q-180 0 -231 120.5t-7 404.5zM194 233q5 -98 48 -141t137 -43q101 0 230 70.5t249 197.5l84 611q-175 12 -285 12 q-82 0 -138.5 -7t-103.5 -27t-76 -50t-53.5 -83t-40 -119t-30.5 -165q-26 -158 -21 -256zM416 1413l53 60l287 -302l-39 -38z" />
<glyph unicode="&#xe1;" horiz-adv-x="1159" d="M133 500q17 108 37 184t49.5 135t65.5 95t89.5 58.5t116 31t150.5 8.5q165 0 391 -31l-137 -981h-64l27 242q-111 -126 -243.5 -196.5t-243.5 -70.5q-180 0 -231 120.5t-7 404.5zM194 233q5 -98 48 -141t137 -43q101 0 230 70.5t249 197.5l84 611q-175 12 -285 12 q-82 0 -138.5 -7t-103.5 -27t-76 -50t-53.5 -83t-40 -119t-30.5 -165q-26 -158 -21 -256zM561 1174l359 301l47 -64l-371 -278z" />
<glyph unicode="&#xe2;" horiz-adv-x="1159" d="M133 500q17 108 37 184t49.5 135t65.5 95t89.5 58.5t116 31t150.5 8.5q165 0 391 -31l-137 -981h-64l27 242q-111 -126 -243.5 -196.5t-243.5 -70.5q-180 0 -231 120.5t-7 404.5zM194 233q5 -98 48 -141t137 -43q101 0 230 70.5t249 197.5l84 611q-175 12 -285 12 q-82 0 -138.5 -7t-103.5 -27t-76 -50t-53.5 -83t-40 -119t-30.5 -165q-26 -158 -21 -256zM367 1194l309 244h59l250 -248l-35 -35l-237 207h-19l-299 -209z" />
<glyph unicode="&#xe3;" horiz-adv-x="1159" d="M133 500q17 108 37 184t49.5 135t65.5 95t89.5 58.5t116 31t150.5 8.5q165 0 391 -31l-137 -981h-64l27 242q-111 -126 -243.5 -196.5t-243.5 -70.5q-180 0 -231 120.5t-7 404.5zM194 233q5 -98 48 -141t137 -43q101 0 230 70.5t249 197.5l84 611q-175 12 -285 12 q-82 0 -138.5 -7t-103.5 -27t-76 -50t-53.5 -83t-40 -119t-30.5 -165q-26 -158 -21 -256zM375 1217q9 99 56.5 148.5t121.5 43.5q34 -3 63.5 -16.5t52 -31.5t44.5 -36t50 -32t60 -17q64 -4 97 26.5t41 98.5l47 -4q-7 -95 -55.5 -144t-121.5 -43q-46 3 -86.5 23.5t-65 43 t-57 43t-63.5 23.5q-62 6 -95 -27t-42 -106z" />
<glyph unicode="&#xe4;" horiz-adv-x="1159" d="M133 500q17 108 37 184t49.5 135t65.5 95t89.5 58.5t116 31t150.5 8.5q165 0 391 -31l-137 -981h-64l27 242q-111 -126 -243.5 -196.5t-243.5 -70.5q-180 0 -231 120.5t-7 404.5zM194 233q5 -98 48 -141t137 -43q101 0 230 70.5t249 197.5l84 611q-175 12 -285 12 q-82 0 -138.5 -7t-103.5 -27t-76 -50t-53.5 -83t-40 -119t-30.5 -165q-26 -158 -21 -256zM459 1247l16 111q3 31 33 31h27q29 0 26 -31l-16 -109q-3 -19 -10.5 -25.5t-24.5 -6.5h-25q-29 0 -26 30zM817 1247l17 111q3 31 32 31h27q30 0 27 -31l-17 -109q-3 -19 -10.5 -25.5 t-24.5 -6.5h-24q-30 0 -27 30z" />
<glyph unicode="&#xe5;" horiz-adv-x="1159" d="M133 500q17 108 37 184t49.5 135t65.5 95t89.5 58.5t116 31t150.5 8.5q165 0 391 -31l-137 -981h-64l27 242q-111 -126 -243.5 -196.5t-243.5 -70.5q-180 0 -231 120.5t-7 404.5zM194 233q5 -98 48 -141t137 -43q101 0 230 70.5t249 197.5l84 611q-175 12 -285 12 q-82 0 -138.5 -7t-103.5 -27t-76 -50t-53.5 -83t-40 -119t-30.5 -165q-26 -158 -21 -256zM485 1278q0 92 64 155.5t158 63.5q87 0 137.5 -49.5t50.5 -130.5q0 -91 -64.5 -155t-156.5 -64q-86 0 -137.5 50.5t-51.5 129.5zM543 1284q0 -58 34.5 -95.5t96.5 -37.5 q73 0 118.5 49.5t45.5 118.5q0 54 -35.5 90.5t-95.5 36.5q-71 0 -117.5 -48.5t-46.5 -113.5z" />
<glyph unicode="&#xe6;" horiz-adv-x="1785" d="M110 213.5q-6 116.5 19 286.5q16 107 36 184t50 135t66 94.5t88.5 59t114 31t145.5 8.5q194 0 436 -45q98 45 272 45q57 0 103 -4.5t86.5 -15t69.5 -26.5t50.5 -40t31.5 -56t10 -73t-11 -92q-27 -125 -101.5 -177t-236.5 -67l-446 -47q-12 -110 0 -181t52 -112.5 t102 -57.5t161 -16q158 0 361 27l8 -58q-58 -18 -178 -29.5t-213 -11.5q-174 0 -263.5 60t-109.5 192q-102 -120 -222.5 -186t-240.5 -66q-118 0 -176 61t-64 177.5zM202.5 154q30.5 -105 157.5 -105q102 0 216.5 63.5t228.5 186.5q0 103 16 207q42 296 164 407 q-30 3 -92.5 9.5t-90.5 9.5t-72.5 5.5t-84.5 2.5q-81 0 -137.5 -7.5t-102 -29.5t-74.5 -52.5t-52.5 -84.5t-38 -117.5t-29.5 -159.5q-39 -230 -8.5 -335zM901 479l438 49q127 14 181 51t77 132q10 43 10 77t-7.5 58t-26 41t-40 27.5t-54 16t-63.5 7.5t-73 2q-73 0 -123.5 -6 t-98 -23.5t-79 -47.5t-59 -79.5t-46.5 -118.5t-34 -165q-2 -6 -2 -21z" />
<glyph unicode="&#xe7;" horiz-adv-x="976" d="M117 498q40 283 157.5 398.5t364.5 115.5q172 0 285 -39l-17 -55q-93 20 -254 20q-110 0 -184.5 -20.5t-129.5 -72.5t-86.5 -138t-49.5 -218q-12 -88 -13 -153.5t11 -115t36 -82t64.5 -52.5t92.5 -28.5t124 -8.5q168 0 291 23l8 -58q-150 -39 -311 -39q-251 0 -340 119 t-49 404zM244 -479l16 47q97 -4 167 48.5t81 129.5q7 51 -15.5 69.5t-91.5 20.5l9 43q93 6 133 -26.5t28 -112.5q-15 -109 -106 -172.5t-221 -46.5z" />
<glyph unicode="&#xe8;" horiz-adv-x="1083" d="M119 506q18 125 48 212.5t71 145t101.5 90t130 45.5t167.5 13q57 0 103 -4.5t86.5 -15t69.5 -26.5t50.5 -40t31.5 -56t10 -73t-11 -92q-27 -125 -102 -177t-238 -67l-444 -47q-12 -110 0 -181t52 -112.5t102 -57.5t161 -16q155 0 362 27l9 -58q-59 -18 -180 -29.5 t-214 -11.5q-244 0 -326 122t-40 409zM201 479l438 49q127 14 180.5 51t77.5 132q10 43 10 77t-7.5 58t-26 41t-40.5 27.5t-54.5 16t-64 7.5t-73.5 2q-73 0 -123.5 -6t-97.5 -23.5t-78.5 -47.5t-59 -79.5t-46 -118.5t-33.5 -165q-2 -6 -2 -21zM395 1413l54 60l286 -302 l-39 -38z" />
<glyph unicode="&#xe9;" horiz-adv-x="1083" d="M119 506q18 125 48 212.5t71 145t101.5 90t130 45.5t167.5 13q57 0 103 -4.5t86.5 -15t69.5 -26.5t50.5 -40t31.5 -56t10 -73t-11 -92q-27 -125 -102 -177t-238 -67l-444 -47q-12 -110 0 -181t52 -112.5t102 -57.5t161 -16q155 0 362 27l9 -58q-59 -18 -180 -29.5 t-214 -11.5q-244 0 -326 122t-40 409zM201 479l438 49q127 14 180.5 51t77.5 132q10 43 10 77t-7.5 58t-26 41t-40.5 27.5t-54.5 16t-64 7.5t-73.5 2q-73 0 -123.5 -6t-97.5 -23.5t-78.5 -47.5t-59 -79.5t-46 -118.5t-33.5 -165q-2 -6 -2 -21zM541 1174l358 301l47 -64 l-371 -278z" />
<glyph unicode="&#xea;" horiz-adv-x="1083" d="M119 506q18 125 48 212.5t71 145t101.5 90t130 45.5t167.5 13q57 0 103 -4.5t86.5 -15t69.5 -26.5t50.5 -40t31.5 -56t10 -73t-11 -92q-27 -125 -102 -177t-238 -67l-444 -47q-12 -110 0 -181t52 -112.5t102 -57.5t161 -16q155 0 362 27l9 -58q-59 -18 -180 -29.5 t-214 -11.5q-244 0 -326 122t-40 409zM201 479l438 49q127 14 180.5 51t77.5 132q10 43 10 77t-7.5 58t-26 41t-40.5 27.5t-54.5 16t-64 7.5t-73.5 2q-73 0 -123.5 -6t-97.5 -23.5t-78.5 -47.5t-59 -79.5t-46 -118.5t-33.5 -165q-2 -6 -2 -21zM346 1194l309 244h60l250 -248 l-35 -35l-238 207h-18l-299 -209z" />
<glyph unicode="&#xeb;" horiz-adv-x="1083" d="M119 506q18 125 48 212.5t71 145t101.5 90t130 45.5t167.5 13q57 0 103 -4.5t86.5 -15t69.5 -26.5t50.5 -40t31.5 -56t10 -73t-11 -92q-27 -125 -102 -177t-238 -67l-444 -47q-12 -110 0 -181t52 -112.5t102 -57.5t161 -16q155 0 362 27l9 -58q-59 -18 -180 -29.5 t-214 -11.5q-244 0 -326 122t-40 409zM201 479l438 49q127 14 180.5 51t77.5 132q10 43 10 77t-7.5 58t-26 41t-40.5 27.5t-54.5 16t-64 7.5t-73.5 2q-73 0 -123.5 -6t-97.5 -23.5t-78.5 -47.5t-59 -79.5t-46 -118.5t-33.5 -165q-2 -6 -2 -21zM438 1247l17 111q3 31 32 31 h27q30 0 27 -31l-17 -109q-3 -19 -10.5 -25.5t-24.5 -6.5h-24q-30 0 -27 30zM797 1247l16 111q3 31 33 31h26q30 0 27 -31l-16 -109q-3 -19 -10.5 -25.5t-24.5 -6.5h-25q-15 0 -21 6.5t-5 23.5z" />
<glyph unicode="&#xec;" horiz-adv-x="460" d="M55 1413l54 60l286 -302l-39 -38zM106 0l140 987h82l-142 -987h-80z" />
<glyph unicode="&#xed;" horiz-adv-x="460" d="M106 0l140 987h82l-142 -987h-80zM201 1174l358 301l47 -64l-370 -278z" />
<glyph unicode="&#xee;" horiz-adv-x="460" d="M6 1194l309 244h60l250 -248l-35 -35l-238 207h-18l-299 -209zM106 0l140 987h82l-142 -987h-80z" />
<glyph unicode="&#xef;" horiz-adv-x="460" d="M98 1247l17 111q3 31 32 31h27q30 0 27 -31l-17 -109q-3 -19 -10 -25.5t-24 -6.5h-25q-30 0 -27 30zM106 0l140 987h82l-142 -987h-80zM457 1247l16 111q3 31 33 31h26q30 0 27 -31l-16 -109q-3 -19 -10.5 -25.5t-24.5 -6.5h-25q-15 0 -21 6.5t-5 23.5z" />
<glyph unicode="&#xf0;" horiz-adv-x="1122" d="M113 457q31 222 140 340t318 118q220 0 328 -147q8 319 -147 471l-203 -131l-25 43l187 121q-131 98 -365 98l16 60q260 4 412 -115l187 121l26 -45l-172 -111q216 -213 148 -711q-10 -75 -21.5 -133.5t-31 -123t-44 -112t-62 -92t-84 -72.5t-110.5 -44.5t-141 -16.5 q-218 0 -304.5 115.5t-51.5 366.5zM197 444q-30 -214 35.5 -305.5t236.5 -91.5q86 0 151 25.5t108.5 69t74.5 114.5t49 149t33 187q9 59 12 113q-107 139 -322 139q-92 0 -160.5 -29t-112 -84.5t-68.5 -125t-37 -161.5z" />
<glyph unicode="&#xf1;" horiz-adv-x="1167" d="M98 0l140 987h63l-25 -233q149 127 272 192.5t232 65.5q130 0 190.5 -70t41.5 -203l-105 -739h-82l105 727q15 112 -26 161.5t-144 49.5q-99 0 -210 -60t-276 -192l-96 -686h-80zM354 1217q9 99 56.5 148.5t121.5 43.5q41 -3 78 -23t60.5 -42.5t59 -43t73.5 -24.5 q64 -4 96.5 26.5t40.5 98.5l47 -4q-7 -95 -55 -144t-121 -43q-46 3 -86.5 23.5t-65 43t-57 43t-63.5 23.5q-62 6 -95.5 -27t-42.5 -106z" />
<glyph unicode="&#xf2;" d="M117 498q40 283 153.5 398.5t354.5 115.5q243 0 327.5 -119t44.5 -406q-40 -283 -153 -397.5t-352 -114.5q-243 0 -329 119t-46 404zM199 224.5q23 -97.5 91 -137.5t202 -40q199 0 292.5 99t128.5 352q16 100 13 174.5t-19 125.5t-54.5 82t-93 44.5t-134.5 13.5 q-135 0 -217.5 -41.5t-131.5 -139t-73 -270.5q-27 -165 -4 -262.5zM395 1413l54 60l286 -302l-39 -38z" />
<glyph unicode="&#xf3;" d="M117 498q40 283 153.5 398.5t354.5 115.5q243 0 327.5 -119t44.5 -406q-40 -283 -153 -397.5t-352 -114.5q-243 0 -329 119t-46 404zM199 224.5q23 -97.5 91 -137.5t202 -40q199 0 292.5 99t128.5 352q16 100 13 174.5t-19 125.5t-54.5 82t-93 44.5t-134.5 13.5 q-135 0 -217.5 -41.5t-131.5 -139t-73 -270.5q-27 -165 -4 -262.5zM541 1174l358 301l47 -64l-371 -278z" />
<glyph unicode="&#xf4;" d="M117 498q40 283 153.5 398.5t354.5 115.5q243 0 327.5 -119t44.5 -406q-40 -283 -153 -397.5t-352 -114.5q-243 0 -329 119t-46 404zM199 224.5q23 -97.5 91 -137.5t202 -40q199 0 292.5 99t128.5 352q16 100 13 174.5t-19 125.5t-54.5 82t-93 44.5t-134.5 13.5 q-135 0 -217.5 -41.5t-131.5 -139t-73 -270.5q-27 -165 -4 -262.5zM346 1194l309 244h60l250 -248l-35 -35l-238 207h-18l-299 -209z" />
<glyph unicode="&#xf5;" d="M117 498q40 283 153.5 398.5t354.5 115.5q243 0 327.5 -119t44.5 -406q-40 -283 -153 -397.5t-352 -114.5q-243 0 -329 119t-46 404zM199 224.5q23 -97.5 91 -137.5t202 -40q199 0 292.5 99t128.5 352q16 100 13 174.5t-19 125.5t-54.5 82t-93 44.5t-134.5 13.5 q-135 0 -217.5 -41.5t-131.5 -139t-73 -270.5q-27 -165 -4 -262.5zM354 1217q9 99 56.5 148.5t121.5 43.5q41 -3 78 -23t60.5 -42.5t59 -43t73.5 -24.5q64 -4 96.5 26.5t40.5 98.5l47 -4q-7 -95 -55 -144t-121 -43q-46 3 -86.5 23.5t-65 43t-57 43t-63.5 23.5 q-62 6 -95.5 -27t-42.5 -106z" />
<glyph unicode="&#xf6;" d="M117 498q40 283 153.5 398.5t354.5 115.5q243 0 327.5 -119t44.5 -406q-40 -283 -153 -397.5t-352 -114.5q-243 0 -329 119t-46 404zM199 224.5q23 -97.5 91 -137.5t202 -40q199 0 292.5 99t128.5 352q16 100 13 174.5t-19 125.5t-54.5 82t-93 44.5t-134.5 13.5 q-135 0 -217.5 -41.5t-131.5 -139t-73 -270.5q-27 -165 -4 -262.5zM438 1247l17 111q3 31 32 31h27q30 0 27 -31l-17 -109q-3 -19 -10.5 -25.5t-24.5 -6.5h-24q-30 0 -27 30zM797 1247l16 111q3 31 33 31h26q30 0 27 -31l-16 -109q-3 -19 -10.5 -25.5t-24.5 -6.5h-25 q-15 0 -21 6.5t-5 23.5z" />
<glyph unicode="&#xf7;" horiz-adv-x="1193" d="M162 571l8 68h866l-10 -68h-864zM492 207l18 117q3 34 37 34h28q37 0 31 -36l-18 -121q-3 -31 -37 -31h-27q-20 0 -27 8t-5 29zM586 887l18 119q3 34 37 34h27q38 -3 32 -36l-16 -121q-6 -33 -39 -33h-27q-20 0 -27 9t-5 28z" />
<glyph unicode="&#xf8;" d="M117 498q40 283 153.5 398.5t354.5 115.5q121 0 206 -31l82 135l48 -24l-80 -134q88 -52 115.5 -165t0.5 -306q-40 -283 -153 -397.5t-352 -114.5q-113 0 -193 25l-82 -133l-47 27l78 126q-97 52 -128 166.5t-3 311.5zM198.5 226q19.5 -96 90.5 -138l502 827 q-62 23 -166 23q-135 0 -217.5 -41.5t-131.5 -139t-73 -270.5q-24 -165 -4.5 -261zM338 66q65 -19 154 -19q199 0 292.5 99t128.5 352q24 159 6.5 254t-81.5 139z" />
<glyph unicode="&#xf9;" d="M125 248l104 739h82l-104 -727q-15 -110 27 -160.5t145 -50.5q101 0 208 65.5t257 209.5l94 663h80l-139 -987h-62l27 248q-276 -273 -486 -273q-133 0 -193 70.5t-40 202.5zM391 1415l53 60l287 -301l-39 -39z" />
<glyph unicode="&#xfa;" d="M125 248l104 739h82l-104 -727q-15 -110 27 -160.5t145 -50.5q101 0 208 65.5t257 209.5l94 663h80l-139 -987h-62l27 248q-276 -273 -486 -273q-133 0 -193 70.5t-40 202.5zM537 1176l358 301l47 -64l-371 -278z" />
<glyph unicode="&#xfb;" d="M125 248l104 739h82l-104 -727q-15 -110 27 -160.5t145 -50.5q101 0 208 65.5t257 209.5l94 663h80l-139 -987h-62l27 248q-276 -273 -486 -273q-133 0 -193 70.5t-40 202.5zM342 1196l309 244h60l250 -248l-35 -35l-238 207h-18l-299 -209z" />
<glyph unicode="&#xfc;" d="M125 248l104 739h82l-104 -727q-15 -110 27 -160.5t145 -50.5q101 0 208 65.5t257 209.5l94 663h80l-139 -987h-62l27 248q-276 -273 -486 -273q-133 0 -193 70.5t-40 202.5zM434 1249l17 111q3 31 32 31h27q30 0 27 -31l-17 -109q-3 -19 -10.5 -25.5t-24.5 -6.5h-24 q-30 0 -27 30zM793 1249l16 111q3 31 33 31h26q30 0 27 -31l-16 -109q-3 -19 -10.5 -25.5t-24.5 -6.5h-25q-15 0 -21 6.5t-5 23.5z" />
<glyph unicode="&#xfd;" horiz-adv-x="1060" d="M78 -373q109 34 204.5 124t202.5 249h-77q-38 0 -65.5 22t-35.5 58l-198 907h86l182 -870q13 -49 61 -49l90 2q7 11 25 38.5t27 43.5q126 208 207 403t145 432h84q-119 -468 -361 -856q-163 -266 -287.5 -396t-275.5 -163zM473 1174l358 301l48 -64l-371 -278z" />
<glyph unicode="&#xfe;" horiz-adv-x="1159" d="M41 -426l260 1860h82l-70 -492q-18 -133 -32 -192q111 124 241.5 193t241.5 69q121 0 181 -53.5t71.5 -170.5t-17.5 -301q-16 -107 -35 -184t-48.5 -135.5t-65.5 -94.5t-89 -58.5t-115.5 -31t-149.5 -8.5q-144 0 -318 23q-2 -24 -20 -176l-37 -248h-80zM190 59 q178 -12 285 -12q82 0 138.5 7t104 27t77 50t54 83t40 119t29.5 165q24 158 19.5 256t-47 141t-136.5 43q-101 0 -230 -72t-252 -200z" />
<glyph unicode="&#xff;" horiz-adv-x="1060" d="M78 -373q109 34 204.5 124t202.5 249h-77q-38 0 -65.5 22t-35.5 58l-198 907h86l182 -870q13 -49 61 -49l90 2q7 11 25 38.5t27 43.5q126 208 207 403t145 432h84q-119 -468 -361 -856q-163 -266 -287.5 -396t-275.5 -163zM371 1247l16 111q3 31 33 31h26q30 0 27 -31 l-16 -109q-3 -19 -10.5 -25.5t-24.5 -6.5h-25q-29 0 -26 30zM729 1247l16 111q3 31 33 31h27q29 0 26 -31l-16 -109q-3 -19 -10.5 -25.5t-24.5 -6.5h-24q-30 0 -27 30z" />
<glyph unicode="&#x152;" horiz-adv-x="1830" d="M140 465q3 106 22 246q29 208 74.5 343t122 223t183.5 124.5t265 36.5q166 0 309 -66q62 41 144 41q385 0 573 -8l-10 -64h-549q-72 0 -121.5 -44.5t-60.5 -118.5l-54 -387l623 -3l-10 -67l-623 -2l-67 -490q-11 -72 25 -114.5t108 -42.5h551l-3 -64q-188 -8 -561 -8 q-90 0 -147 45q-86 -39 -154.5 -54.5t-169.5 -15.5q-105 0 -182.5 16t-134.5 52.5t-91 92.5t-49.5 139.5t-12.5 189.5zM226.5 396.5q2.5 -124.5 46 -201t125 -110.5t216.5 -34q85 0 142.5 11.5t134.5 39.5q-29 56 -17 127l136 969q9 69 47 119q-109 45 -252 45 q-134 0 -225.5 -32.5t-157.5 -111.5t-106 -202t-68 -314q-24 -181 -21.5 -305.5z" />
<glyph unicode="&#x153;" horiz-adv-x="1875" d="M115 498q40 283 153.5 398.5t354.5 115.5q162 0 251 -50t119 -161q60 120 163 165.5t274 45.5q205 0 291 -68t48 -239q-27 -125 -101.5 -177t-237.5 -67l-445 -47q-15 -142 12.5 -220.5t100 -111.5t207.5 -33q164 0 356 25l8 -58q-58 -18 -179 -29.5t-212 -11.5 q-161 0 -249.5 50.5t-117.5 162.5q-58 -114 -158.5 -163.5t-263.5 -49.5q-243 0 -328.5 119t-45.5 404zM196.5 224.5q22.5 -97.5 90.5 -137.5t202 -40q191 0 284.5 89.5t129.5 314.5q1 9 4 27.5t4 27.5l7 35q26 224 -40 310.5t-255 86.5q-135 0 -217.5 -41.5t-131.5 -139 t-73 -270.5q-27 -165 -4.5 -262.5zM995 481l437 47q126 15 180.5 53t77.5 130q9 38 10 69t-6 54t-18 40t-31 28t-41 18.5t-51 11t-58 5t-65 1.5q-82 0 -138.5 -9t-106.5 -34t-82.5 -70t-58 -114.5t-43.5 -171.5l-6 -52v-6z" />
<glyph unicode="&#x178;" horiz-adv-x="1112" d="M145 1413h86l258 -661q45 -117 54 -148h14q53 92 92 150l445 659h92l-604 -895l-72 -518h-86l74 518zM457 1618l16 111q3 30 33 30h26q30 0 27 -30l-16 -109q-3 -19 -10.5 -26t-24.5 -7h-25q-29 0 -26 31zM815 1618l16 111q3 30 33 30h27q30 0 27 -30l-17 -109 q-3 -19 -10.5 -26t-24.5 -7h-24q-30 0 -27 31z" />
<glyph unicode="&#x2c6;" horiz-adv-x="817" d="M203 1202l309 244h59l250 -248l-35 -35l-237 207h-19l-299 -209z" />
<glyph unicode="&#x2dc;" horiz-adv-x="829" d="M213 1221q9 99 56.5 148.5t121.5 43.5q41 -3 78 -23t60.5 -42.5t59 -43t73.5 -24.5q64 -4 96.5 26.5t40.5 98.5l47 -4q-7 -95 -55 -144t-121 -43q-46 3 -87 23.5t-65 43.5t-57 43.5t-64 23.5q-62 6 -95 -27.5t-42 -106.5z" />
<glyph unicode="&#x2000;" horiz-adv-x="947" />
<glyph unicode="&#x2001;" horiz-adv-x="1894" />
<glyph unicode="&#x2002;" horiz-adv-x="947" />
<glyph unicode="&#x2003;" horiz-adv-x="1894" />
<glyph unicode="&#x2004;" horiz-adv-x="631" />
<glyph unicode="&#x2005;" horiz-adv-x="473" />
<glyph unicode="&#x2006;" horiz-adv-x="315" />
<glyph unicode="&#x2007;" horiz-adv-x="315" />
<glyph unicode="&#x2008;" horiz-adv-x="236" />
<glyph unicode="&#x2009;" horiz-adv-x="378" />
<glyph unicode="&#x200a;" horiz-adv-x="105" />
<glyph unicode="&#x2010;" horiz-adv-x="966" d="M152 481l8 68h633l-9 -68h-632z" />
<glyph unicode="&#x2011;" horiz-adv-x="966" d="M152 481l8 68h633l-9 -68h-632z" />
<glyph unicode="&#x2012;" horiz-adv-x="966" d="M152 481l8 68h633l-9 -68h-632z" />
<glyph unicode="&#x2013;" horiz-adv-x="1255" d="M152 481l8 68h921l-8 -68h-921z" />
<glyph unicode="&#x2014;" horiz-adv-x="1888" d="M152 481l8 68h1554l-10 -68h-1552z" />
<glyph unicode="&#x2018;" horiz-adv-x="409" d="M225 1094l19 133q13 109 84 266l43 -14q-34 -107 -54 -230q26 0 23 -30l-18 -125q-3 -18 -11 -24.5t-28 -6.5h-33q-15 0 -20.5 7t-4.5 24z" />
<glyph unicode="&#x2019;" horiz-adv-x="407" d="M227 1057q34 109 54 229q-26 0 -23 31l18 125q3 18 11 24.5t28 6.5h33q15 0 20.5 -7t4.5 -24l-19 -133q-14 -111 -84 -267z" />
<glyph unicode="&#x201a;" horiz-adv-x="432" d="M55 -227q38 122 56 229q-26 0 -23 31l18 125q3 18 11.5 24t29.5 6h33q17 0 23 -6.5t4 -23.5l-21 -133q-14 -116 -86 -267z" />
<glyph unicode="&#x201c;" horiz-adv-x="663" d="M225 1094l19 133q13 109 84 266l43 -14q-34 -107 -54 -230q26 0 23 -30l-18 -125q-3 -18 -11 -24.5t-28 -6.5h-33q-15 0 -20.5 7t-4.5 24zM479 1094l19 133q13 109 84 266l43 -14q-34 -107 -54 -230q26 0 23 -30l-19 -125q-3 -18 -10.5 -24.5t-27.5 -6.5h-33 q-15 0 -20.5 7t-4.5 24z" />
<glyph unicode="&#x201d;" horiz-adv-x="661" d="M227 1057q34 109 54 229q-26 0 -23 31l18 125q3 18 11 24.5t28 6.5h33q15 0 20.5 -7t4.5 -24l-19 -133q-14 -111 -84 -267zM481 1057q34 109 54 229q-26 0 -23 31l18 125q3 18 11 24.5t28 6.5h33q15 0 20.5 -7t4.5 -24l-19 -133q-14 -111 -84 -267z" />
<glyph unicode="&#x201e;" horiz-adv-x="681" d="M55 -227q34 109 54 229q-26 0 -23 31l18 125q3 17 11 23.5t28 6.5h33q15 0 20.5 -6.5t4.5 -23.5l-19 -133q-14 -111 -84 -267zM309 -227q32 102 53 229q-25 0 -22 31l18 125q3 17 11 23.5t28 6.5h33q15 0 20.5 -6.5t4.5 -23.5l-19 -133q-14 -111 -84 -267z" />
<glyph unicode="&#x2022;" horiz-adv-x="724" d="M201 541l4 28q10 80 43.5 105.5t118.5 25.5h20q77 0 105.5 -32.5t19.5 -110.5l-4 -29q-10 -81 -44 -107t-116 -26h-20q-82 0 -110.5 32.5t-16.5 113.5z" />
<glyph unicode="&#x2026;" horiz-adv-x="1613" d="M141 37l19 123q3 33 37 33h30q21 0 27.5 -8.5t3.5 -28.5l-16 -123q-6 -33 -39 -33h-29q-39 0 -33 37zM733 37l19 123q3 33 36 33h31q21 0 27.5 -8.5t3.5 -28.5l-16 -123q-6 -33 -39 -33h-29q-39 0 -33 37zM1325 37l18 123q3 33 37 33h31q21 0 27.5 -8.5t3.5 -28.5 l-17 -123q-6 -33 -39 -33h-28q-39 0 -33 37z" />
<glyph unicode="&#x202f;" horiz-adv-x="378" />
<glyph unicode="&#x2039;" horiz-adv-x="602" d="M86 506l2 22l389 404l37 -35l-348 -387l242 -389l-43 -31z" />
<glyph unicode="&#x203a;" horiz-adv-x="602" d="M61 125l353 391l-242 387l41 29l279 -412l-3 -22l-391 -408z" />
<glyph unicode="&#x205f;" horiz-adv-x="473" />
<glyph unicode="&#x20ac;" horiz-adv-x="1312" d="M121 557l8 59h188l13 95q3 25 10.5 68t9.5 59h-190l10 59h195q66 283 211 412t415 129q160 0 297 -37l-18 -64q-134 25 -277 25q-110 -2 -191.5 -24.5t-150 -75t-117 -142.5t-81.5 -223h575l-24 -59h-566q-15 -80 -22 -138q-8 -59 -10 -84h514l-25 -59h-494 q-10 -141 8 -237.5t68 -156t126.5 -85.5t189.5 -27q175 0 313 27l10 -64q-147 -39 -323 -39q-278 0 -389.5 141.5t-90.5 440.5h-192z" />
<glyph unicode="&#x2122;" horiz-adv-x="1933" d="M250 1370l8 55h641l-8 -55h-289l-100 -723h-66l101 723h-287zM907 647l140 750q6 28 30 28h78q11 0 19 -7t8 -17l133 -522q6 -21 14 -61t10 -48h33q54 112 55 113l275 522q11 20 31 20h79q14 0 22 -9.5t7 -22.5l-69 -746h-64l66 725h-25l-332 -629q-8 -18 -31 -18h-65 q-27 0 -31 25l-160 622h-26l-133 -725h-64z" />
<glyph unicode="&#x25fc;" horiz-adv-x="983" d="M0 0v983h983v-983h-983z" />
<glyph unicode="&#xfb03;" horiz-adv-x="1781" d="M-258 -416l8 62h160q109 0 159.5 47t69.5 168l150 1057h-180l8 59l182 10l23 166q19 139 90 206.5t209 67.5q155 0 251 -8l-8 -61h-217q-117 0 -172 -47.5t-74 -167.5l-22 -156h555l29 201q19 140 90 208t209 68q161 0 251 -10l-8 -61h-217q-118 0 -172.5 -47t-73.5 -166 l-26 -193h633l-140 -987h-82l129 915h-550l-142 -1007q-21 -142 -86.5 -209.5t-195.5 -67.5q-108 0 -195 11l8 61h160q109 0 159.5 46.5t69.5 166.5l140 999l-555 3l-150 -1068q-21 -142 -86.5 -209t-195.5 -67q-90 0 -195 10zM1593 1245l17 123q6 31 35 31h36 q15 0 23.5 -10t5.5 -25l-16 -125q-6 -29 -33 -29h-37q-37 0 -31 35z" />
<glyph unicode="&#xfb04;" horiz-adv-x="1912" d="M-258 -416l8 62h160q109 0 159.5 47t69.5 168l150 1057h-180l8 59l182 10l23 166q19 139 90 206.5t209 67.5q155 0 251 -8l-8 -61h-217q-117 0 -172 -47.5t-74 -167.5l-22 -156h555l27 197q21 143 90.5 211.5t210.5 68.5q406 -8 477 -16l-172 -1239q-21 -154 133 -154 h115l4 -53q-50 -16 -144 -16q-102 0 -152.5 57.5t-37.5 159.5l168 1192h-367q-116 0 -171.5 -50t-72.5 -171l-26 -187h332l-11 -69h-331l-142 -1010q-21 -142 -86.5 -209.5t-195.5 -67.5q-111 0 -195 11l8 61h160q109 0 159.5 47t67.5 166l142 1002h-555l-150 -1068 q-21 -142 -86.5 -209t-195.5 -67q-90 0 -195 10z" />
</font>
</defs>
</svg>
