<?xml version="1.0" standalone="no"?>
<!DOCTYPE svg PUBLIC "-//W3C//DTD SVG 1.1//EN" "http://www.w3.org/Graphics/SVG/1.1/DTD/svg11.dtd" >
<svg xmlns="http://www.w3.org/2000/svg" xmlns:xlink="http://www.w3.org/1999/xlink" version="1.1">
<metadata></metadata>
<defs>
<font id="exo_2light" horiz-adv-x="1363" >
<font-face units-per-em="2048" ascent="1638" descent="-410" />
<missing-glyph horiz-adv-x="462" />
<glyph unicode="&#xfb01;" horiz-adv-x="1200" d="M63 887v94l179 10v176q0 150 64.5 224.5t213.5 74.5q126 0 221 -12v-96h-176q-106 0 -149 -45.5t-43 -157.5v-164h647v-991h-129v887h-518v-887h-131v887h-179zM881 1247v119q0 43 43 43h61q43 0 43 -43v-119q0 -43 -43 -43h-61q-43 0 -43 43z" />
<glyph unicode="&#xfb02;" horiz-adv-x="1329" d="M61 887v94l181 10v176q0 150 64.5 224.5t213.5 74.5q383 0 527 -20v-1213q0 -70 37 -107.5t106 -37.5h106l15 -84q-58 -20 -164 -20q-107 0 -169.5 59.5t-62.5 165.5v1149h-350q-107 2 -150.5 -43.5t-43.5 -159.5v-164h315v-104h-315v-887h-129v887h-181z" />
<glyph horiz-adv-x="0" />
<glyph horiz-adv-x="682" />
<glyph unicode=" "  horiz-adv-x="462" />
<glyph unicode="&#x09;" horiz-adv-x="462" />
<glyph unicode="&#xa0;" horiz-adv-x="462" />
<glyph unicode="!" horiz-adv-x="544" d="M205 51v117q0 28 11.5 39.5t39.5 11.5h35q28 0 39.5 -11.5t11.5 -39.5v-117q0 -28 -11.5 -39.5t-39.5 -11.5h-35q-28 0 -39.5 11.5t-11.5 39.5zM207 772v651h131v-651l-12 -346h-105z" />
<glyph unicode="&#x22;" horiz-adv-x="704" d="M158 1413h108l-8 -434h-92zM440 1413h109l-10 -434h-90z" />
<glyph unicode="#" horiz-adv-x="1388" d="M102 446l17 89h235l70 399h-236l17 88h235l68 391h106l-67 -391h407l68 391h106l-67 -391h225l-16 -88h-226l-69 -399h225l-16 -89h-223l-78 -446h-107l78 446h-408l-77 -446h-107l78 446h-238zM461 535h407l70 399h-408z" />
<glyph unicode="$" horiz-adv-x="1150" d="M125 1069q0 71 9.5 125t25.5 93.5t45.5 66.5t62.5 43.5t83 25.5t100.5 11.5t121.5 1.5h25l14 204h74l-12 -206q146 -3 305 -31l-10 -98q-255 11 -303 12l-35 -549l121 -25q156 -32 220 -122.5t64 -264.5q0 -82 -11.5 -142.5t-38 -102.5t-61 -68.5t-89.5 -41t-113.5 -19.5 t-142.5 -5h-13l-16 -243h-76l17 243q-156 3 -345 31l11 105q201 -10 342 -13l39 557l-136 29q-149 30 -213.5 122t-64.5 261zM260 1065q0 -127 45 -183t152 -77l98 -21l35 533h-12q-49 0 -78 -1t-65 -4t-56 -10t-43 -19.5t-34.5 -30.5t-22.5 -44.5t-15 -61.5t-4 -81z M575 100h9q76 1 124.5 6.5t88.5 21t61 45t32 74t11 111.5q0 134 -44.5 189t-154.5 76l-88 18z" />
<glyph unicode="%" horiz-adv-x="1822" d="M106 1020q0 225 72 321.5t250 96.5t250 -96.5t72 -321.5t-72 -321.5t-250 -96.5t-250 96.5t-72 321.5zM209 1020q0 -184 47.5 -259t169.5 -75q124 0 171.5 75t47.5 259q0 183 -47.5 258.5t-171.5 75.5q-121 0 -169 -76t-48 -258zM389 0l940 1413h98l-940 -1413h-98z M1073 401q0 225 72.5 322.5t249.5 97.5t249 -97.5t72 -322.5t-71.5 -321t-249.5 -96t-250 96.5t-72 320.5zM1178 401q-2 -183 45.5 -258t169.5 -75q123 0 171 74.5t48 258.5t-48 259t-171 75q-122 0 -169.5 -75.5t-45.5 -258.5z" />
<glyph unicode="&#x26;" horiz-adv-x="1589" d="M147 356q0 172 64 266t215 107v8q-128 10 -183 91t-55 239q0 55 6.5 99t17.5 79.5t31.5 62t43.5 46.5t58 34t71 22.5t86.5 13.5t100 6.5t116.5 1.5q177 0 325 -19l-16 -100q-73 6 -313 6q-95 0 -154 -5.5t-109 -21t-75.5 -45.5t-39 -77t-13.5 -119q0 -157 65.5 -212 t239.5 -55h415l15 283h106v-283h269l-2 -104h-267v-436q0 -76 35 -111t109 -35h161l15 -94q-98 -20 -201 -20q-108 0 -168.5 48t-71.5 138q-94 -103 -207 -145.5t-280 -42.5q-225 0 -317.5 81.5t-92.5 292.5zM287 377q0 -159 64.5 -219t232.5 -60q154 0 263 46t195 143v393 h-419q-188 0 -262 -64.5t-74 -238.5z" />
<glyph unicode="'" horiz-adv-x="421" d="M158 1413h108l-8 -434h-92z" />
<glyph unicode="(" horiz-adv-x="733" d="M121 639q0 394 126 631.5t394 347.5l16 -68q-210 -105 -308.5 -328t-98.5 -581q0 -352 98.5 -576t308.5 -335l-16 -68q-268 112 -394 349t-126 628z" />
<glyph unicode=")" horiz-adv-x="733" d="M76 -270q210 111 308.5 335t98.5 576q0 358 -98.5 581t-308.5 328l16 68q268 -110 394 -347.5t126 -631.5q0 -391 -126 -628t-394 -349z" />
<glyph unicode="*" horiz-adv-x="923" d="M123 1145l29 80l245 -92l-2 -37l-16 -25zM229 829l201 263l-10 321h86l-14 -321l200 -265l-67 -51l-164 256l-162 -254zM526 1096v37l248 90l27 -82l-256 -70z" />
<glyph unicode="+" horiz-adv-x="1130" d="M123 561v101h389v368h104v-368h390v-101h-392v-371h-100v371h-391z" />
<glyph unicode="," horiz-adv-x="452" d="M156 43v125q2 28 13.5 39.5t37.5 11.5h41q27 0 38 -11.5t11 -39.5v-131q-3 -165 -59 -295l-62 18q17 139 17 240q-18 0 -28 11.5t-9 31.5z" />
<glyph unicode="-" horiz-adv-x="944" d="M158 465v102h628v-102h-628z" />
<glyph unicode="." horiz-adv-x="452" d="M154 51v117q0 28 11.5 39.5t37.5 11.5h45q28 0 39.5 -11.5t11.5 -39.5v-117q0 -28 -11.5 -39.5t-39.5 -11.5h-45q-26 0 -37.5 11.5t-11.5 39.5z" />
<glyph unicode="/" horiz-adv-x="1042" d="M63 -129l805 1542h111l-805 -1542h-111z" />
<glyph unicode="0" horiz-adv-x="1220" d="M141 707q0 390 105.5 560.5t363.5 170.5t364.5 -171t106.5 -560t-106.5 -560.5t-364.5 -171.5t-363.5 171t-105.5 561zM272 707q0 -331 75 -473t263 -142q189 0 263.5 141.5t74.5 473.5t-74.5 473t-263.5 141q-188 0 -263 -141.5t-75 -472.5z" />
<glyph unicode="1" horiz-adv-x="800" d="M57 1266l369 147h135v-1413h-135v1171q0 64 8 113l-358 -115z" />
<glyph unicode="2" horiz-adv-x="1146" d="M119 0v82q0 38 20 61l439 500q140 158 202.5 274t59.5 224q-2 47 -17 80t-38 52t-62.5 29.5t-79 13.5t-98.5 3q-196 0 -404 -39l-12 104q234 54 422 54q108 0 180 -11.5t131 -43t87 -91t28 -151.5q0 -133 -59.5 -250t-204.5 -281l-430 -487q76 4 235 4h514v-127h-913z " />
<glyph unicode="3" horiz-adv-x="1136" d="M113 10l12 107q251 -23 397 -23q181 0 257.5 70.5t76.5 241.5q0 66 -12 113t-44 88.5t-94 62.5t-155 22h-262v105l262 2q72 1 123.5 19t79.5 44t44.5 66.5t20.5 75t4 81.5q-3 142 -68.5 188t-248.5 46q-177 0 -356 -19l-15 103q208 35 385 35q237 0 334.5 -71.5 t97.5 -254.5q0 -313 -215 -356v-8q135 -22 192 -112.5t60 -242.5q5 -217 -96 -317.5t-342 -100.5q-168 0 -438 35z" />
<glyph unicode="4" horiz-adv-x="1245" d="M104 563l422 850h133l-417 -848q-19 -38 -2.5 -63t55.5 -25h547v432l26 236h103v-668h176v-96l-176 -12v-369h-129v367h-617q-78 0 -116.5 62.5t-4.5 133.5z" />
<glyph unicode="5" horiz-adv-x="1091" d="M117 29l16 106q208 -41 359 -41q107 0 176 21.5t105 67t49 100t14 137.5q1 63 -9.5 109.5t-26 80t-53 55.5t-71.5 35.5t-102.5 22t-124 11.5t-156.5 7l-70 7q-25 0 -40 17.5t-13 43.5l31 604h725l-6 -115h-609l-22 -440l139 -8q150 -8 247 -30t165.5 -70.5t98 -128.5 t28.5 -201q0 -74 -9 -132.5t-37.5 -119.5t-76 -101.5t-130 -66t-194.5 -25.5q-176 0 -403 54z" />
<glyph unicode="6" horiz-adv-x="1165" d="M147 651q0 128 7.5 230t24 181.5t39 138t57.5 100.5t74 68.5t93.5 42t110.5 21t131 5.5q161 0 270 -29l-16 -98q-86 12 -254 12q-92 0 -151.5 -12.5t-109.5 -47t-77.5 -100t-43.5 -166t-19 -249.5q78 95 161.5 131t212.5 36q221 0 304 -103.5t83 -367.5q0 -94 -9 -160 t-36.5 -128t-75 -99.5t-126.5 -59.5t-189 -22q-74 0 -131.5 8t-104.5 26.5t-81 44.5t-59.5 68t-41.5 91t-25.5 118t-13.5 144.5t-4 175.5zM281 645q0 -85 1.5 -143t7.5 -117.5t16 -97.5t27 -74.5t40.5 -57t58 -36.5t78 -22.5t100.5 -6.5q79 0 134.5 16t88.5 43t51.5 74.5 t24.5 97.5t6 125q0 101 -12.5 166t-45.5 110t-88.5 64t-141.5 19q-100 0 -177 -33t-169 -123v-4z" />
<glyph unicode="7" horiz-adv-x="1044" d="M86 1413h791q116 0 81 -110l-448 -1303h-135l416 1204q2 6 36 94h-735z" />
<glyph unicode="8" horiz-adv-x="1247" d="M154 352q0 179 52 271.5t179 105.5v8q-201 22 -201 324q0 80 12.5 137.5t42 103.5t80 73.5t126 42t180.5 14.5q131 0 216.5 -21t134.5 -69t68 -114t19 -167q0 -302 -201 -324v-8q126 -13 179 -106t53 -271q0 -103 -20 -169t-72.5 -113.5t-143.5 -67.5t-233 -20 q-141 0 -232 20.5t-144 67t-74 113.5t-21 169zM281 377q0 -108 28.5 -166t102.5 -85.5t213 -27.5q106 0 171 14t103.5 48.5t52 85t13.5 131.5q0 66 -6 111.5t-22 80t-39 55t-63 33t-88 17t-120 4.5q-74 -1 -123.5 -5.5t-90.5 -17.5t-64.5 -33.5t-39.5 -55t-22 -79.5t-6 -110 zM307 1051q0 -85 13 -134t51.5 -79t96.5 -40t159 -10q68 0 114 4t82.5 16t57.5 30t34.5 49t18 69t4.5 95q0 106 -24.5 161.5t-91.5 82t-197 26.5q-129 0 -197 -26t-94.5 -82.5t-26.5 -161.5z" />
<glyph unicode="9" horiz-adv-x="1167" d="M121 958q0 121 21.5 207t71.5 149t136 93.5t211 30.5q78 0 137 -8t106 -28t80 -46.5t56.5 -72t37.5 -94.5t22.5 -125t11 -152.5t2.5 -186.5q0 -160 -12.5 -277.5t-42 -201t-69.5 -136t-104 -83t-135.5 -41.5t-173.5 -11q-168 0 -287 29l17 98q115 -10 270 -10 q77 0 131.5 9t101.5 33t77 65t52 106t32 153.5t12 211.5q-82 -97 -167.5 -134.5t-213.5 -37.5q-205 0 -293 118.5t-88 341.5zM250 956q0 -178 62.5 -264t222.5 -86q100 0 176.5 34t171.5 124q0 71 -1 119.5t-4 101.5t-8 88t-14 71.5t-21.5 59t-30.5 45t-41 34.5t-54 22 t-67.5 14t-82.5 4q-94 0 -156 -24t-95 -74t-45.5 -113t-12.5 -156z" />
<glyph unicode=":" horiz-adv-x="460" d="M154 51v117q0 28 11.5 39.5t37.5 11.5h45q28 0 39.5 -11.5t11.5 -39.5v-117q0 -28 -11.5 -39.5t-39.5 -11.5h-45q-26 0 -37.5 11.5t-11.5 39.5zM154 727v117q0 28 11.5 39.5t37.5 11.5h45q28 0 39.5 -11.5t11.5 -39.5v-117q0 -28 -11.5 -39.5t-39.5 -11.5h-45 q-26 0 -37.5 11.5t-11.5 39.5z" />
<glyph unicode=";" horiz-adv-x="464" d="M160 727v117q0 28 11.5 39.5t37.5 11.5h45q28 0 39.5 -11.5t11.5 -39.5v-117q0 -28 -11.5 -39.5t-39.5 -11.5h-45q-26 0 -37.5 11.5t-11.5 39.5zM162 43v125q2 28 13.5 39.5t37.5 11.5h41q27 0 38 -11.5t11 -39.5v-131q-3 -165 -59 -295l-62 18q17 139 17 240 q-18 0 -28 11.5t-9 31.5z" />
<glyph unicode="&#x3c;" horiz-adv-x="1093" d="M117 555v104l823 365v-106l-709 -310l709 -301v-106z" />
<glyph unicode="=" horiz-adv-x="1202" d="M160 332v100h882v-100h-882zM160 764v100h882v-100h-882z" />
<glyph unicode="&#x3e;" horiz-adv-x="1093" d="M154 201v106l706 301l-706 310v106l821 -365v-104z" />
<glyph unicode="?" horiz-adv-x="1036" d="M88 1417q19 3 63 10.5t61.5 10.5t56.5 8t70.5 7t80.5 3.5t106 1.5q410 0 410 -317q0 -62 -20.5 -117.5t-53.5 -98t-72.5 -83t-79.5 -83.5t-73.5 -89t-55 -109t-22.5 -135h-115q-1 78 18 146t50.5 117t69 93t76 83t70 76.5t52 84t21.5 96.5q2 116 -70 171t-227 55 q-59 0 -104.5 -1t-91 -4t-64.5 -4.5t-74 -7.5t-72 -8zM432 51v117q0 28 11 39.5t38 11.5h37q28 0 39.5 -11.5t11.5 -39.5v-117q0 -28 -11.5 -39.5t-39.5 -11.5h-37q-27 0 -38 11.5t-11 39.5z" />
<glyph unicode="@" horiz-adv-x="1452" d="M168 543q0 114 3 190t13.5 147.5t25.5 113.5t46 80t67.5 56t96 32t126 18t163.5 4h292q144 0 218.5 -64.5t74.5 -208.5v-643h-96l-14 158q-68 -65 -188.5 -118.5t-241.5 -53.5q-123 0 -194 60t-71 173v107q0 99 61 153t175 54h449v106q0 86 -43 127t-152 41h-268 q-105 0 -160.5 -3.5t-111 -22.5t-78 -49t-42.5 -94.5t-24 -145.5t-4 -215q0 -83 1.5 -142.5t8 -114.5t13 -91t23.5 -69t32.5 -51.5t48 -34.5t60.5 -23t79.5 -12t96.5 -6t118 -1h516v-98q-276 -13 -514 -13q-86 -1 -149.5 0.5t-122.5 9.5t-99.5 18t-77 31.5t-59 46t-42 65 t-29 83.5t-16.5 107.5t-9 131.5t-2 161zM612 508q0 -148 162 -148q97 -2 210.5 40t189.5 108v213l-410 -8q-78 -3 -115 -35t-37 -98v-72z" />
<glyph unicode="A" horiz-adv-x="1259" d="M27 0l473 1374q12 39 53 39h154q41 0 53 -39l473 -1374h-139l-156 467h-616l-156 -467h-139zM360 584h539l-203 608q-4 14 -17.5 54t-19.5 61h-57q-21 -66 -39 -115z" />
<glyph unicode="B" horiz-adv-x="1263" d="M190 0v1413q164 17 437 17q133 0 218 -16.5t142 -59t81 -113t24 -180.5q0 -154 -57 -233t-183 -91v-8q153 -13 218 -107t65 -270q0 -110 -23.5 -180.5t-79 -112.5t-137 -58.5t-207.5 -16.5q-322 0 -498 16zM322 100q86 -2 350 -2q187 0 256 55t69 218q0 92 -17 150 t-59.5 93.5t-104.5 49.5t-161 16h-333v-580zM322 784h333q88 1 143.5 12.5t93.5 41.5t53.5 80t15.5 129q0 82 -17 133.5t-59 82t-103 41.5t-159 11q-225 0 -301 -2v-529z" />
<glyph unicode="C" horiz-adv-x="1161" d="M137 707q0 205 28 342t93 225t166.5 126t253.5 38q129 0 210 -8.5t167 -30.5l-17 -101q-164 19 -360 19q-152 0 -238 -57.5t-125 -188.5t-39 -364q0 -140 13.5 -240t42 -173t76.5 -115.5t113.5 -62.5t156.5 -20q227 0 389 23l16 -101q-160 -43 -405 -43q-152 0 -253.5 38 t-166.5 126.5t-93 225.5t-28 342z" />
<glyph unicode="D" horiz-adv-x="1355" d="M190 0v1413q268 19 490 19q152 0 252.5 -36.5t165.5 -123.5t93 -223t28 -342t-28 -342t-93 -223t-165.5 -123.5t-252.5 -36.5q-233 0 -490 18zM324 104q204 -4 356 -4q113 0 187.5 30.5t122 103.5t67.5 186.5t20 286.5q0 230 -38 360.5t-123 189t-236 58.5 q-144 0 -356 -4v-1207z" />
<glyph unicode="E" horiz-adv-x="1140" d="M178 231v951q0 106 68.5 169.5t181.5 63.5q411 0 604 -12l-8 -103h-573q-67 0 -102.5 -38t-35.5 -111v-346h631v-109h-631v-436q0 -72 36 -109.5t102 -37.5h573l8 -103q-193 -12 -604 -12q-114 0 -182 63.5t-68 169.5z" />
<glyph unicode="F" horiz-adv-x="1097" d="M184 0v1176q0 110 68.5 174.5t181.5 64.5q400 0 588 -12l-8 -103h-547q-72 0 -110 -38t-38 -111v-363h615v-108l-615 -2v-678h-135z" />
<glyph unicode="G" horiz-adv-x="1282" d="M137 709q0 210 29 347.5t98 224t174.5 122t266.5 35.5q234 0 397 -39l-17 -101q-193 21 -372 21q-101 0 -170 -16.5t-122 -56.5t-83 -112t-44.5 -176.5t-14.5 -255.5q0 -332 78 -471t268 -139q77 0 150.5 26.5t116.5 55.5t109 80v563h132v-817h-97l-18 158 q-79 -79 -188.5 -131t-239.5 -52q-241 0 -347 175t-106 559z" />
<glyph unicode="H" horiz-adv-x="1359" d="M190 0v1413h134v-600h712v600h133v-1413h-133v698h-712v-698h-134z" />
<glyph unicode="I" horiz-adv-x="514" d="M190 0v1413h134v-1413h-134z" />
<glyph unicode="J" horiz-adv-x="684" d="M68 4l14 94h108q177 0 177 172v1143h135v-1139q0 -142 -67.5 -216t-198.5 -74q-82 0 -168 20z" />
<glyph unicode="K" horiz-adv-x="1189" d="M190 0v1413h134v-457q0 -77 -13 -163h199l451 620h149l-434 -600q-21 -33 -66 -74v-6q47 -43 72 -80l459 -653h-152l-481 682h-197q13 -89 13 -160v-522h-134z" />
<glyph unicode="L" horiz-adv-x="1046" d="M184 244v1169h135v-1151q0 -73 38 -111t110 -38h526l4 -103q-216 -12 -553 -12q-128 0 -194 67.5t-66 178.5z" />
<glyph unicode="M" horiz-adv-x="1779" d="M162 0l57 1354q0 59 60 59h161q45 0 60 -47l309 -922q46 -153 57 -192h45q10 38 32 106.5t28 87.5l309 920q12 47 59 47h160q60 0 60 -59l59 -1354h-133l-55 1300h-46l-366 -1107q-15 -46 -62 -46h-135q-46 0 -61 46l-369 1107h-43l-53 -1300h-133z" />
<glyph unicode="N" horiz-adv-x="1431" d="M190 0v1356q0 57 56 57h139q46 0 66 -45l526 -1049l94 -190h43q-6 102 -6 203v1081h133v-1356q0 -57 -55 -57h-144q-45 0 -65 45l-539 1073q-5 10 -25.5 50t-33.5 68t-21 52h-39q5 -69 5 -170v-1118h-134z" />
<glyph unicode="O" d="M137 707q0 277 53 434.5t170 227t322 69.5t322 -69.5t170 -227t53 -434.5t-53 -434.5t-170 -227.5t-322 -70t-322 70t-170 227.5t-53 434.5zM276 707q0 -233 39 -364.5t126 -190t241 -58.5t240.5 58.5t124.5 190t38 364.5t-38 364t-124.5 189.5t-240.5 58.5t-241 -58 t-126 -189.5t-39 -364.5z" />
<glyph unicode="P" horiz-adv-x="1202" d="M190 0v1413q182 17 474 17q126 0 206.5 -20t134 -70t75.5 -132.5t22 -210.5q0 -129 -22 -211.5t-74 -132t-129.5 -69t-198.5 -19.5q-167 0 -354 17v-582h-134zM324 682h338q88 1 143 15t92.5 50t52.5 95.5t15 154.5q0 186 -65.5 252t-237.5 66q-256 0 -338 -2v-631z" />
<glyph unicode="Q" horiz-adv-x="1366" d="M137 707q0 277 53 434.5t170 227t322 69.5t322.5 -69.5t171 -227t53.5 -434.5t-53.5 -434.5t-171 -227.5t-322.5 -70t-322 70t-170 227.5t-53 434.5zM279 707q0 -233 38 -364.5t124.5 -190t240.5 -58.5t241 58.5t125.5 190t38.5 364.5t-38.5 364.5t-125.5 189.5t-241 58 t-240.5 -58.5t-124.5 -189.5t-38 -364zM563 -174l41 80q219 -111 514 -154l-43 -135q-277 51 -512 209z" />
<glyph unicode="R" horiz-adv-x="1257" d="M190 0v1413q182 17 474 17q123 0 203 -18.5t135 -65t78.5 -123.5t23.5 -197q0 -178 -60.5 -263.5t-199.5 -105.5v-8q56 -15 100.5 -67t67.5 -133l143 -449h-143l-135 444q-30 86 -79 124t-124 38q-186 0 -350 4v-610h-134zM324 723h340q87 1 143 14.5t93.5 48t53 90.5 t15.5 144q0 172 -66.5 233.5t-238.5 61.5q-176 0 -340 -4v-588z" />
<glyph unicode="S" horiz-adv-x="1144" d="M121 1069q0 99 18 166t50 107.5t90.5 61.5t122.5 27q55 5 137 5h28q230 0 408 -33l-10 -98q-242 12 -392 12q-50 0 -79 -1t-65 -4.5t-55.5 -10t-42.5 -19t-34.5 -30.5t-22 -44.5t-14.5 -61.5t-4 -81q0 -127 44.5 -183t150.5 -77l294 -62q158 -32 222.5 -122.5 t64.5 -264.5q0 -82 -12 -142.5t-38.5 -102.5t-61.5 -68.5t-90.5 -41t-114 -19.5t-142.5 -5q-233 0 -430 31l9 101q274 -13 426 -13q96 1 151 10t95.5 37.5t55.5 79t15 135.5q0 133 -44 188.5t-153 76.5l-301 63q-149 30 -212.5 121.5t-63.5 261.5z" />
<glyph unicode="T" horiz-adv-x="1177" d="M51 1294v119h1075v-119h-471v-1294h-135v1294h-469z" />
<glyph unicode="U" horiz-adv-x="1366" d="M180 535v878h133v-878q0 -244 83.5 -342.5t287.5 -98.5q202 0 284.5 98.5t82.5 342.5v878h135v-878q0 -305 -112.5 -432.5t-385.5 -127.5q-279 0 -393.5 127t-114.5 433z" />
<glyph unicode="V" horiz-adv-x="1234" d="M41 1413h139l365 -1153q22 -70 45 -154h55q23 84 45 154l365 1153h139l-449 -1374q-14 -39 -53 -39h-149q-19 0 -34.5 11t-19.5 28z" />
<glyph unicode="W" horiz-adv-x="1927" d="M66 1413h141l258 -1145q19 -83 33 -164h51q13 72 33 162l249 1100q10 47 56 47h153q46 0 56 -47l250 -1100q9 -38 32 -162h54q3 18 9 51t11 59.5t10 49.5l260 1149h142l-320 -1372q-10 -41 -55 -41h-162q-47 0 -57 43l-248 1108q-31 137 -35 158h-45l-37 -158l-248 -1108 q-10 -43 -55 -43h-164q-45 0 -55 41z" />
<glyph unicode="X" horiz-adv-x="1239" d="M61 0l416 733l-389 680h145l355 -625h63l353 625h147l-389 -680l416 -733h-150l-381 684h-55l-383 -684h-148z" />
<glyph unicode="Y" horiz-adv-x="1144" d="M31 1413h143l324 -627q27 -53 67 -151h15q30 73 67 149l324 629h141l-473 -905v-508h-133v508z" />
<glyph unicode="Z" horiz-adv-x="1153" d="M102 0v115l791 1183h-782v115h931v-115l-790 -1183h803v-115h-953z" />
<glyph unicode="[" horiz-adv-x="661" d="M199 -244v1723q0 41 26 67.5t66 26.5h278v-90h-219q-12 0 -20 -8.5t-8 -20.5v-1673q0 -12 8 -20.5t20 -8.5h219v-90h-278q-41 0 -66.5 24t-25.5 70z" />
<glyph unicode="\" horiz-adv-x="1044" d="M63 1413h113l805 -1542h-113z" />
<glyph unicode="]" horiz-adv-x="661" d="M90 -248h221q12 0 20.5 8.5t8.5 20.5v1673q0 12 -8.5 20.5t-20.5 8.5h-221v90h279q41 0 67.5 -26.5t26.5 -67.5v-1723q0 -41 -26.5 -67.5t-67.5 -26.5h-279v90z" />
<glyph unicode="^" horiz-adv-x="847" d="M61 791l316 419h94l315 -419l-53 -39l-301 362h-16l-299 -362z" />
<glyph unicode="_" horiz-adv-x="890" d="M0 0h891v-102h-891v102z" />
<glyph unicode="`" horiz-adv-x="616" d="M84 1372l78 98l336 -299l-49 -61z" />
<glyph unicode="a" horiz-adv-x="1116" d="M117 252v115q0 115 67.5 178t192.5 63h444v105q0 99 -46.5 145.5t-164.5 46.5q-174 0 -440 -28l-12 96q304 45 477 45q159 0 238 -70.5t79 -234.5v-713h-102l-16 174q-74 -74 -191 -132t-244 -58q-131 0 -206.5 69.5t-75.5 198.5zM248 264q0 -166 174 -166h7q85 0 193 44 q112 46 199 122v244l-424 -4q-149 -6 -149 -154v-86z" />
<glyph unicode="b" horiz-adv-x="1159" d="M168 43v1391h129v-398q0 -143 -14 -213q198 195 393 195q190 0 275 -120.5t85 -399.5q0 -273 -95.5 -398t-330.5 -125q-225 0 -442 68zM297 127q141 -39 290 -39h21q159 0 226 92t67 318q0 227 -56.5 316t-205.5 89q-79 0 -152 -39t-190 -129v-608z" />
<glyph unicode="c" horiz-adv-x="993" d="M123 496q0 287 105 404.5t360 117.5q184 0 305 -45l-21 -84q-109 16 -264 16q-133 0 -207 -36.5t-108.5 -124.5t-34.5 -248t34.5 -248t108.5 -124t207 -36q166 0 289 23l14 -91q-149 -45 -323 -45q-255 0 -360 117t-105 404z" />
<glyph unicode="d" horiz-adv-x="1165" d="M125 498q0 283 88 401.5t283 118.5q180 0 374 -96q-8 68 -8 194v318h129v-1434h-100l-12 152q-210 -177 -400 -177q-189 0 -271.5 126t-82.5 397zM260 500q0 -157 26.5 -246t81 -126.5t148.5 -37.5q84 0 157.5 34.5t188.5 121.5v585q-112 38 -186.5 55t-153.5 17 q-98 0 -153.5 -36t-82 -123.5t-26.5 -243.5z" />
<glyph unicode="e" horiz-adv-x="1093" d="M123 500q0 286 102 402t342 116q211 0 311.5 -76.5t102.5 -232.5v-7q0 -270 -227 -270h-494q5 -101 27 -167.5t65 -105.5t102.5 -55t147.5 -16q146 0 342 25l14 -88q-59 -23 -169.5 -36.5t-204.5 -13.5q-250 0 -355.5 120t-105.5 405zM258 535h465q127 0 127 162v10 q-2 104 -67 151t-210 47q-173 0 -242 -80t-73 -290z" />
<glyph unicode="f" horiz-adv-x="759" d="M63 889v92l179 10v191q0 142 64.5 213t213.5 71q152 0 266 -12l-8 -96h-213q-105 0 -148.5 -43t-43.5 -146v-178h334v-102h-334v-889h-131v889h-179z" />
<glyph unicode="g" horiz-adv-x="1132" d="M96 -125q0 99 37 157t131 105q-58 33 -76 94q-9 29 -9 57q0 32 11 64q21 60 70 97q-123 68 -123 253q0 166 95 241t321 75q137 0 223 -27h307l-8 -73l-166 -11q58 -72 58 -205q0 -163 -94.5 -236t-319.5 -73q-139 0 -225 27q-31 -40 -38 -82q-1 -7 -1 -15q0 -33 23 -61 q28 -36 91 -47l381 -63q134 -21 187 -84.5t53 -188.5q0 -168 -102 -233.5t-359 -65.5q-261 0 -364 64.5t-103 230.5zM223 -117q0 -113 71.5 -152.5t268.5 -39.5q192 0 263 40t71 152q0 86 -34 119.5t-140 50.5l-371 58l-8 -7q-68 -46 -94.5 -94t-26.5 -127zM258 702 q0 -110 67 -159t228 -49q160 0 225.5 48.5t65.5 159.5q0 114 -65.5 163.5t-225.5 49.5q-162 0 -228.5 -49.5t-66.5 -163.5z" />
<glyph unicode="h" horiz-adv-x="1181" d="M172 0v1434h129l4 -412q0 -121 -14 -195q258 191 457 191q131 0 199.5 -70t68.5 -203v-745h-131v711q0 105 -40 149.5t-132 44.5q-90 0 -182.5 -40.5t-229.5 -131.5v-733h-129z" />
<glyph unicode="i" horiz-adv-x="487" d="M172 1247v119q0 43 43 43h59q43 0 43 -43v-119q0 -43 -43 -43h-59q-43 0 -43 43zM180 0v991h129v-991h-129z" />
<glyph unicode="j" horiz-adv-x="489" d="M68 -365q57 73 84.5 147.5t27.5 168.5v1040h131v-1040q0 -110 -46 -207t-126 -166zM174 1247v119q0 43 41 43h61q43 0 43 -43v-119q0 -43 -43 -43h-61q-41 0 -41 43z" />
<glyph unicode="k" horiz-adv-x="1017" d="M172 0v1434h129l4 -652q0 -88 -12 -170h147l342 379h154l-332 -370q-32 -40 -61 -58v-4q31 -23 61 -70l365 -489h-152l-375 514h-149q8 -76 8 -166v-348h-129z" />
<glyph unicode="l" horiz-adv-x="587" d="M174 221v1213h129v-1188q0 -70 37.5 -107t108.5 -37h104l14 -98q-23 -8 -75 -14t-89 -6q-106 0 -167.5 61.5t-61.5 175.5z" />
<glyph unicode="m" horiz-adv-x="1796" d="M172 0v991h107l8 -166q214 193 418 193q210 0 251 -189q213 189 414 189q128 0 195 -70t67 -203v-745h-129v711q-2 101 -43.5 147.5t-132.5 46.5q-82 0 -156 -38t-206 -136v-731h-125v711q0 102 -43 148t-133 46q-81 0 -157.5 -38t-205.5 -134v-733h-129z" />
<glyph unicode="n" horiz-adv-x="1181" d="M172 0v991h109l8 -164q249 191 461 191q130 0 198 -69.5t68 -203.5v-745h-129v711q0 105 -40 149.5t-132 44.5q-91 0 -182.5 -40.5t-231.5 -131.5l2 -733h-131z" />
<glyph unicode="o" horiz-adv-x="1157" d="M123 496q0 286 103.5 404t353.5 118t352 -118t102 -404t-102 -403.5t-352 -117.5q-251 0 -354 117.5t-103 403.5zM260 496q0 -234 69.5 -322t250.5 -88t250 88t69 322t-69 321.5t-250 87.5t-250.5 -87.5t-69.5 -321.5z" />
<glyph unicode="p" horiz-adv-x="1173" d="M172 -418v1409h107l12 -164q90 90 197.5 140.5t211.5 50.5q185 0 267 -127.5t82 -398.5q0 -280 -87 -398.5t-282 -118.5t-383 105q5 -58 5 -131q0 -32 -1 -66v-301h-129zM301 164q119 -39 195 -56.5t155 -17.5q98 0 154 36.5t83 124t27 243.5q0 225 -57.5 317t-193.5 92 q-85 0 -168.5 -40.5t-194.5 -131.5v-567z" />
<glyph unicode="q" horiz-adv-x="1159" d="M123 494q0 138 21.5 233.5t71.5 162t134 97.5t207 31q98 0 216 -18.5t218 -51.5v-1366h-129l-2 365q0 126 14 203q-106 -87 -204.5 -131t-206.5 -44q-175 0 -257.5 125t-82.5 394zM258 485q0 -212 54.5 -303.5t191.5 -91.5q89 0 166 36t192 118v620q-149 41 -285 41h-18 q-114 -1 -177.5 -38.5t-93.5 -128t-30 -253.5z" />
<glyph unicode="r" horiz-adv-x="806" d="M172 0v991h100l15 -166q242 193 438 193h43l-16 -123h-50q-85 0 -171.5 -35.5t-227.5 -116.5v-743h-131z" />
<glyph unicode="s" horiz-adv-x="1034" d="M111 748q0 71 15.5 119.5t43 78.5t77 46t105.5 22q47 5 115 5q12 0 25 -1q217 -3 405 -31l-12 -94q-246 12 -377 12q-21 0 -40.5 0.5t-36.5 -0.5q-35 -1 -63 -3t-49 -8.5t-36.5 -17.5t-25.5 -28.5t-14.5 -41.5t-4.5 -58q0 -44 9 -73t30 -47t46 -28t66 -18l305 -58 q119 -24 174.5 -84.5t55.5 -181.5q0 -73 -17.5 -123.5t-47.5 -81.5t-84.5 -48t-113.5 -22.5t-149 -5.5q-204 0 -379 27l10 96q135 -12 285 -13q30 0 61 1q74 1 121 5t86.5 14t59.5 29t30.5 48.5t10.5 73.5q0 81 -39.5 113.5t-122.5 48.5l-303 57q-116 24 -168.5 86.5 t-52.5 184.5z" />
<glyph unicode="t" horiz-adv-x="755" d="M59 889v92l181 10v301h129v-301h336v-102h-336v-643q0 -74 35.5 -109t109.5 -35h162l16 -98q-102 -20 -207 -20q-122 0 -183.5 63t-61.5 184v658h-181z" />
<glyph unicode="u" horiz-adv-x="1161" d="M166 246v745h129v-710q0 -103 42.5 -148t139.5 -45q83 0 168 38t213 124v741h129v-991h-102l-11 156q-230 -181 -440 -181q-132 0 -200 69t-68 202z" />
<glyph unicode="v" horiz-adv-x="1069" d="M45 991h139l271 -717q12 -30 33 -90.5t32 -87.5h27l67 180l271 715h137l-379 -958q-13 -33 -49 -33h-121q-36 0 -49 33z" />
<glyph unicode="w" horiz-adv-x="1679" d="M57 991h136l233 -760q17 -58 39 -143h27q7 27 20 75t18 68l199 719q10 41 51 41h119q41 0 51 -43l199 -717l37 -143h28q23 94 37 143l236 760h135l-309 -952q-12 -39 -53 -39h-121q-44 0 -54 43l-196 711q-7 26 -19.5 77t-19.5 76h-23q-6 -25 -19.5 -76t-19.5 -77 l-194 -711q-10 -43 -55 -43h-119q-44 0 -53 39z" />
<glyph unicode="x" horiz-adv-x="1064" d="M57 0l346 514l-321 477h143l281 -422h53l281 422h143l-321 -477l348 -514h-146l-309 465h-45l-309 -465h-144z" />
<glyph unicode="y" horiz-adv-x="1067" d="M45 991h139l293 -774q36 -94 41 -115h29q4 12 20 54t23 63l291 772h139l-418 -1061q-28 -71 -59.5 -125.5t-78 -105.5t-111 -82.5t-144.5 -40.5l-16 84q116 39 181 108.5t107 176.5l25 55h-33q-39 0 -51 35z" />
<glyph unicode="z" horiz-adv-x="1036" d="M102 0v109l676 776h-667v106h815v-106l-674 -776h682v-109h-832z" />
<glyph unicode="{" horiz-adv-x="638" d="M100 621v102q74 24 90 36q30 21 34 85q1 18 1 43v420q0 144 75.5 209.5t244.5 56.5v-84q-111 0 -153 -44.5t-42 -146.5v-387q1 -123 -33.5 -170t-138.5 -69q107 -34 143.5 -80t36.5 -152v-503q0 -102 42 -146.5t153 -44.5v-84q-169 -9 -244.5 56.5t-75.5 209.5v537 q0 51 -14 79.5t-33 39.5t-71 31q-3 1 -4 1.5t-3.5 1.5t-4 1.5t-3.5 1.5z" />
<glyph unicode="|" horiz-adv-x="495" d="M199 -346v1945h98v-1945h-98z" />
<glyph unicode="}" horiz-adv-x="638" d="M86 -254q111 0 153 44.5t42 146.5v503q0 106 36.5 152t143.5 80q-104 22 -138.5 69t-33.5 170v387q0 102 -42 146.5t-153 44.5v84q169 9 244.5 -56.5t75.5 -209.5v-420q0 -47 3.5 -73t18.5 -42.5t31.5 -24t55.5 -19.5q11 -3 16 -5v-102q-76 -30 -94 -43q-37 -29 -39 -102 v-11v-537q0 -144 -75.5 -209.5t-244.5 -56.5v84z" />
<glyph unicode="~" horiz-adv-x="1081" d="M164 477q-9 112 35.5 169t122.5 52q66 -3 141 -32.5t148.5 -59.5t133.5 -35q57 -4 80 23t23 94h70q10 -108 -33.5 -164.5t-122.5 -50.5q-60 3 -122.5 21.5t-106.5 40t-98.5 41t-98.5 22.5q-56 6 -78 -22.5t-22 -98.5h-72z" />
<glyph unicode="&#xa1;" horiz-adv-x="507" d="M186 831v119q0 27 12 38t40 11h34q28 0 40 -11t12 -38v-119q0 -27 -12 -38t-40 -11h-34q-28 0 -40 11t-12 38zM188 229l13 344h106l12 -344v-637h-131v637z" />
<glyph unicode="&#xa2;" horiz-adv-x="1036" d="M121 717q0 285 105.5 402.5t359.5 117.5h4l16 176h76l-16 -178q137 -11 225 -41l-19 -90q-89 16 -217 20l-63 -817h16q164 0 289 23l14 -90q-149 -45 -325 -45h-4l-17 -195h-73l16 197q-210 17 -298.5 136t-88.5 384zM252 717q0 -208 59.5 -298.5t206.5 -107.5l64 813 q-125 -3 -195 -41.5t-102.5 -125t-32.5 -240.5z" />
<glyph unicode="&#xa3;" horiz-adv-x="1159" d="M121 786h162l-15 285q-5 95 11 161.5t45.5 106t82 61.5t107.5 29t135 7q145 0 350 -21l-8 -104q-144 10 -360 10q-136 0 -188 -56t-44 -194l15 -285h463l-5 -86h-454l10 -176q6 -153 -25.5 -250t-121.5 -163q43 4 131 4h637v-115h-916v115q101 57 136.5 158t27.5 251 l-10 176h-164z" />
<glyph unicode="&#xa4;" horiz-adv-x="1222" d="M147 324l150 149q-86 110 -86 248q0 143 90 250l-149 147l59 62l149 -150q109 88 250 88q143 0 250 -90l152 152l59 -62l-151 -147q86 -114 86 -250q0 -141 -88 -250l153 -152l-61 -59l-152 152q-109 -88 -248 -88q-136 0 -250 86l-149 -150zM295 721q0 -131 92.5 -223.5 t222.5 -91.5q128 -2 220 91.5t92 223.5t-92 222.5t-220 92.5q-130 0 -222.5 -92t-92.5 -223z" />
<glyph unicode="&#xa5;" horiz-adv-x="1253" d="M86 1413h141l320 -584q27 -53 74 -153h14q62 133 72 151l319 586h141l-422 -764h328v-82h-373l-6 -12v-135h379v-82h-379v-338h-135v338h-369v82h369v135l-6 12h-363l-2 82h320z" />
<glyph unicode="&#xa6;" horiz-adv-x="499" d="M201 -346v819h98v-819h-98zM201 780v819h98v-819h-98z" />
<glyph unicode="&#xa7;" horiz-adv-x="1114" d="M135 1190q0 63 17.5 108t48.5 72t82 42.5t107.5 21t135.5 4.5q241 -4 445 -25l-10 -100q-188 12 -406 14q-49 1 -79.5 0t-66.5 -5t-57 -13t-40.5 -24.5t-28.5 -39.5t-9 -57q-1 -74 35.5 -121.5t108.5 -89.5l354 -199q135 -74 171.5 -184t6.5 -287h-98q12 140 -18 225.5 t-121 137.5l-367 209q-112 65 -161.5 133t-49.5 178zM145 -293l11 100q204 -11 407 -14q49 -1 77.5 0t65.5 5t57.5 13t40.5 25t29 42t9 61q1 74 -37 123.5t-107 87.5l-352 198q-93 50 -139.5 117t-52.5 152.5t12 197.5h98q-14 -142 15 -223t124 -135l367 -209 q109 -62 159 -132t50 -182q0 -49 -10 -87.5t-27 -65t-45.5 -45t-58 -29t-73 -16.5t-82 -7t-93.5 -1q-251 4 -445 24z" />
<glyph unicode="&#xa8;" horiz-adv-x="833" d="M176 1251v113q0 41 37 41h45q39 0 39 -41v-113q0 -39 -39 -39h-45q-37 0 -37 39zM539 1251v113q0 41 39 41h43q38 0 38 -41v-113q0 -39 -38 -39h-43q-21 0 -30 9t-9 30z" />
<glyph unicode="&#xa9;" horiz-adv-x="1728" d="M131 707q0 208 98.5 376t266 261.5t368.5 93.5q202 0 369.5 -93.5t265.5 -261.5t98 -376t-98 -376.5t-265.5 -262t-369.5 -93.5q-150 0 -285.5 55.5t-234 151t-156 232.5t-57.5 293zM207 707q0 -185 89 -336.5t239 -235.5t329 -84q133 0 254 49.5t209.5 135.5t140.5 209 t52 262q0 185 -88.5 336t-238.5 235t-329 84t-329 -84t-239 -235t-89 -336zM475 713q0 253 89 355.5t310 102.5q168 0 275 -26l-14 -76q-110 10 -263 10q-164 0 -228 -80t-64 -286q0 -207 64 -288t228 -81q189 0 287 12l10 -75q-132 -29 -295 -29q-221 0 -310 103.5 t-89 357.5z" />
<glyph unicode="&#xaa;" horiz-adv-x="905" d="M141 719v80q0 77 48.5 119.5t136.5 42.5h317v69q0 123 -139 123q-131 0 -322 -18l-10 73q213 31 350 31q109 0 165 -49t56 -162v-473h-79l-13 129q-54 -54 -138.5 -96.5t-174.5 -42.5q-92 0 -144.5 45t-52.5 129zM242 737q0 -54 31 -79t94 -25q64 -1 141 30.5t135 79.5 v158l-289 -12q-59 -3 -85.5 -27t-26.5 -69v-56z" />
<glyph unicode="&#xab;" horiz-adv-x="968" d="M96 498v32l330 406l68 -45l-275 -377l277 -383l-68 -45zM451 498v32l329 406l68 -45l-275 -377l277 -383l-68 -45z" />
<glyph unicode="&#xac;" horiz-adv-x="1210" d="M160 557v102h882v-391h-104v289h-778z" />
<glyph unicode="&#xad;" horiz-adv-x="942" d="M158 465v102h628v-102h-628z" />
<glyph unicode="&#xae;" horiz-adv-x="1153" d="M121 981q0 189 133.5 322t323.5 133q189 0 321.5 -133t132.5 -322q0 -190 -132.5 -323.5t-321.5 -133.5q-190 0 -323.5 133t-133.5 324zM176 981q0 -167 118 -286.5t284 -119.5q164 0 282.5 119.5t118.5 286.5q0 168 -118 286.5t-283 118.5q-166 0 -284 -118.5 t-118 -286.5zM373 709v546q84 7 225 7q115 0 162 -33.5t47 -122.5q0 -67 -29 -100.5t-96 -40.5v-4q60 -10 80 -80l67 -172h-69l-64 168q-24 63 -94 63q-125 0 -164 2v-233h-65zM438 989h158q81 2 113 25.5t32 85.5q0 64 -31.5 86t-113.5 22h-158v-219z" />
<glyph unicode="&#xaf;" horiz-adv-x="819" d="M131 1260v100h557v-100h-557z" />
<glyph unicode="&#xb0;" horiz-adv-x="757" d="M119 1182q0 106 76.5 181t183.5 75q106 0 184 -75.5t78 -180.5q0 -106 -77.5 -183t-184.5 -77q-106 0 -183 77t-77 183zM205 1182q0 -72 51 -124t123 -52t124 52t52 124q0 74 -51 124t-125 50q-73 0 -123.5 -50t-50.5 -124z" />
<glyph unicode="&#xb1;" horiz-adv-x="1212" d="M166 160v100h881v-100h-881zM166 676v100h389v283h102v-283h390v-100h-392v-283h-100v283h-389z" />
<glyph unicode="&#xb2;" horiz-adv-x="811" d="M117 731v53q0 27 16 43l273 279q87 89 122 145t35 117q0 64 -40 87.5t-122 23.5q-113 0 -264 -25l-8 82q145 33 274 33q140 0 208.5 -42t68.5 -147q0 -73 -41 -142.5t-131 -162.5l-250 -254q49 2 133 2h326v-92h-600z" />
<glyph unicode="&#xb3;" horiz-adv-x="819" d="M117 745l10 78q126 -18 252 -18q106 0 150 37t44 129q0 72 -36 110.5t-140 38.5l-172 2v78l172 2q52 1 86.5 15.5t49 39.5t19.5 47.5t5 53.5q-1 73 -41 99t-145 26q-112 0 -232 -21l-10 78q145 31 254 31q151 0 215 -42.5t64 -148.5q0 -178 -136 -209v-4 q84 -17 119 -66.5t37 -139.5q3 -128 -63.5 -187t-219.5 -59q-128 0 -282 30z" />
<glyph unicode="&#xb4;" horiz-adv-x="616" d="M109 1182l335 299l78 -99l-364 -262z" />
<glyph unicode="&#xb5;" horiz-adv-x="1177" d="M172 -418v1409h129v-698q0 -108 45 -153.5t141 -45.5q151 0 264.5 119t116.5 283v495h129v-782q0 -31 2 -50.5t8 -38.5t19.5 -27.5t34.5 -8.5h69l11 -80q-72 -20 -135 -20q-132 0 -132 180v74q-57 -121 -166.5 -192t-236.5 -71q-104 0 -172 39v-190l-18 -242h-109z" />
<glyph unicode="&#xb6;" horiz-adv-x="1218" d="M92 922q0 283 142.5 399.5t478.5 116.5q180 0 299 -35v-1403h-105v1335q-133 13 -239 13v-1778h-105v842q-252 23 -361.5 141.5t-109.5 368.5z" />
<glyph unicode="&#xb7;" horiz-adv-x="460" d="M158 469v117q0 28 11.5 39.5t37.5 11.5h45q28 0 39.5 -11.5t11.5 -39.5v-117q0 -28 -11.5 -39.5t-39.5 -11.5h-45q-26 0 -37.5 11.5t-11.5 39.5z" />
<glyph unicode="&#xb8;" horiz-adv-x="466" d="M76 -463l20 72q90 -3 146.5 42t58.5 116q0 43 -25.5 59.5t-95.5 17.5l15 64q107 9 156 -20.5t46 -112.5q-3 -122 -92.5 -189.5t-228.5 -48.5z" />
<glyph unicode="&#xb9;" horiz-adv-x="598" d="M63 1470l232 86h104v-825h-104v662q0 31 6 69l-223 -65z" />
<glyph unicode="&#xba;" horiz-adv-x="913" d="M133 889q0 193 72.5 271.5t251.5 78.5t251 -78.5t72 -271.5t-72 -271.5t-251 -78.5t-251.5 78.5t-72.5 271.5zM238 889q0 -151 47.5 -207.5t171.5 -56.5q122 0 169.5 56.5t47.5 207.5q0 152 -47 209t-170 57q-124 0 -171.5 -56.5t-47.5 -209.5z" />
<glyph unicode="&#xbb;" horiz-adv-x="968" d="M119 131l276 383l-274 377l67 45l330 -406v-32l-332 -412zM473 131l277 383l-275 377l68 45l329 -406v-32l-331 -412z" />
<glyph unicode="&#xbc;" horiz-adv-x="1751" d="M90 1325l246 88h102v-848h-102v680q0 49 6 74l-240 -66zM272 0l940 1413h99l-940 -1413h-99zM964.5 247.5q-23.5 34.5 0.5 86.5l274 514h102l-268 -502q-10 -20 1 -35.5t36 -15.5h352v252l21 139h78v-391h96v-72l-96 -8v-215h-99v213h-422q-52 0 -75.5 34.5z" />
<glyph unicode="&#xbd;" horiz-adv-x="1804" d="M90 1325l246 88h102v-848h-102v680q0 49 6 74l-240 -66zM264 0l940 1413h99l-941 -1413h-98zM1071 0v57q0 25 16 47l287 283q89 91 130.5 157t41.5 126q0 27 -9 46t-24 30.5t-40.5 17.5t-51 8t-63.5 2q-122 0 -271 -20l-8 77q150 31 283 31q78 0 128.5 -7t91 -26.5 t59 -57t18.5 -95.5q0 -73 -41.5 -143.5t-134.5 -163.5l-279 -279q100 4 150 2h342v-92h-625z" />
<glyph unicode="&#xbe;" horiz-adv-x="1937" d="M123 567l8 78q138 -12 266 -12q119 0 168 39t49 135q0 75 -41.5 117.5t-154.5 42.5l-176 2v71l176 4q58 1 96.5 16t54.5 41t21.5 49t5.5 54q0 77 -44 105t-163 28q-137 0 -242 -10l-8 76q131 20 262 20q167 0 232 -42t65 -152q0 -90 -34.5 -145.5t-120.5 -69.5v-4 q96 -13 136 -66t42 -147q3 -131 -66 -190.5t-235 -59.5q-109 0 -297 20zM481 0l940 1413h99l-940 -1413h-99zM1149 334l276 514h103l-271 -502q-10 -20 1 -35.5t36 -15.5h344v252l19 139h78v-391h108v-72l-108 -8v-215h-97v213h-413q-50 0 -75.5 35.5t-0.5 85.5z" />
<glyph unicode="&#xbf;" horiz-adv-x="1028" d="M94 -125q0 62 20.5 117.5t53.5 98t72.5 83t80 83.5t74 89t55 109t23.5 135h113q1 -78 -17.5 -146t-49.5 -117t-69 -93t-76 -83t-69.5 -76.5t-52 -84t-21.5 -96.5q-2 -114 70 -169t227 -55q43 0 78 0.5t69.5 2t52.5 2t54 3.5t44.5 4t52.5 5.5t53 5.5l10 -94 q-18 -3 -62 -11t-61 -10.5t-56.5 -7.5t-71 -7t-80.5 -3.5t-107 -1.5q-410 0 -410 317zM463 848v117q0 28 11.5 39.5t39.5 11.5h37q27 0 38 -11.5t11 -39.5v-117q0 -28 -11 -39.5t-38 -11.5h-37q-28 0 -39.5 11.5t-11.5 39.5z" />
<glyph unicode="&#xc0;" horiz-adv-x="1259" d="M27 0l473 1374q12 39 53 39h154q41 0 53 -39l473 -1374h-139l-156 467h-616l-156 -467h-139zM322 1751l77 98l336 -299l-49 -61zM360 584h539l-203 608q-4 14 -17.5 54t-19.5 61h-57q-21 -66 -39 -115z" />
<glyph unicode="&#xc1;" horiz-adv-x="1259" d="M27 0l473 1374q12 39 53 39h154q41 0 53 -39l473 -1374h-139l-156 467h-616l-156 -467h-139zM360 584h539l-203 608q-4 14 -17.5 54t-19.5 61h-57q-21 -66 -39 -115zM502 1561l336 299l77 -99l-364 -262z" />
<glyph unicode="&#xc2;" horiz-adv-x="1259" d="M27 0l473 1374q12 39 53 39h154q41 0 53 -39l473 -1374h-139l-156 467h-616l-156 -467h-139zM309 1563l273 254h96l272 -254l-47 -58l-266 203h-16l-265 -203zM360 584h539l-203 608q-4 14 -17.5 54t-19.5 61h-57q-21 -66 -39 -115z" />
<glyph unicode="&#xc3;" horiz-adv-x="1259" d="M27 0l473 1374q12 39 53 39h154q41 0 53 -39l473 -1374h-139l-156 467h-616l-156 -467h-139zM315 1569q-9 109 36 165t122 50q42 -3 83 -21.5t69.5 -39t68 -39.5t78.5 -23q59 -6 83 21t24 92h65q9 -104 -35.5 -159.5t-122.5 -49.5q-47 3 -91.5 22t-73.5 40.5t-66 40.5 t-70 22q-58 6 -81 -23t-23 -98h-66zM360 584h539l-203 608q-4 14 -17.5 54t-19.5 61h-57q-21 -66 -39 -115z" />
<glyph unicode="&#xc4;" horiz-adv-x="1259" d="M27 0l473 1374q12 39 53 39h154q41 0 53 -39l473 -1374h-139l-156 467h-616l-156 -467h-139zM360 584h539l-203 608q-4 14 -17.5 54t-19.5 61h-57q-21 -66 -39 -115zM389 1610v112q0 41 37 41h45q39 0 39 -41v-112q0 -39 -39 -39h-45q-37 0 -37 39zM752 1610v112 q0 41 39 41h43q38 0 38 -41v-112q0 -39 -38 -39h-43q-21 0 -30 9t-9 30z" />
<glyph unicode="&#xc5;" horiz-adv-x="1259" d="M27 0l473 1374q12 39 53 39h154q41 0 53 -39l473 -1374h-139l-156 467h-616l-156 -467h-139zM360 584h539l-203 608q-4 14 -17.5 54t-19.5 61h-57q-21 -66 -39 -115zM420 1675q0 86 61.5 146.5t149.5 60.5q87 0 149 -60.5t62 -146.5q0 -85 -62 -146t-149 -61 q-88 0 -149.5 60t-61.5 147zM498 1675q0 -61 37.5 -98t95.5 -37q57 0 95 37.5t38 97.5q0 59 -38.5 97t-94.5 38q-59 0 -96 -37.5t-37 -97.5z" />
<glyph unicode="&#xc6;" horiz-adv-x="1863" d="M6 0l744 1208q72 121 163 163t254 42q376 0 588 -10l-4 -105h-534q-66 0 -107 -41t-41 -110v-340l598 -2v-109l-598 -2v-432q0 -72 38 -110.5t110 -38.5h534l4 -103q-193 -12 -588 -12q-99 0 -162 65.5t-63 167.5v265h-491l-301 -496h-144zM518 608h424v555 q0 44 21.5 88.5t50.5 63.5h-17q-70 -36 -131 -135z" />
<glyph unicode="&#xc7;" horiz-adv-x="1161" d="M137 707q0 205 28 342t93 225t166.5 126t253.5 38q129 0 210 -8.5t167 -30.5l-17 -101q-164 19 -360 19q-152 0 -238 -57.5t-125 -188.5t-39 -364q0 -140 13.5 -240t42 -173t76.5 -115.5t113.5 -62.5t156.5 -20q227 0 389 23l16 -101q-160 -43 -405 -43q-152 0 -253.5 38 t-166.5 126.5t-93 225.5t-28 342zM475 -487l21 71q90 -3 146 42t58 116q0 43 -25 60t-95 18l14 63q107 9 156.5 -20.5t46.5 -112.5q-3 -122 -93 -189t-229 -48z" />
<glyph unicode="&#xc8;" horiz-adv-x="1140" d="M178 231v951q0 106 68.5 169.5t181.5 63.5q411 0 604 -12l-8 -103h-573q-67 0 -102.5 -38t-35.5 -111v-346h631v-109h-631v-436q0 -72 36 -109.5t102 -37.5h573l8 -103q-193 -12 -604 -12q-114 0 -182 63.5t-68 169.5zM326 1796l77 98l336 -299l-49 -61z" />
<glyph unicode="&#xc9;" horiz-adv-x="1140" d="M178 231v951q0 106 68.5 169.5t181.5 63.5q411 0 604 -12l-8 -103h-573q-67 0 -102.5 -38t-35.5 -111v-346h631v-109h-631v-436q0 -72 36 -109.5t102 -37.5h573l8 -103q-193 -12 -604 -12q-114 0 -182 63.5t-68 169.5zM506 1606l336 299l78 -99l-365 -262z" />
<glyph unicode="&#xca;" horiz-adv-x="1140" d="M178 231v951q0 106 68.5 169.5t181.5 63.5q411 0 604 -12l-8 -103h-573q-67 0 -102.5 -38t-35.5 -111v-346h631v-109h-631v-436q0 -72 36 -109.5t102 -37.5h573l8 -103q-193 -12 -604 -12q-114 0 -182 63.5t-68 169.5zM313 1608l273 254h96l272 -254l-47 -58l-266 203 h-16l-265 -203z" />
<glyph unicode="&#xcb;" horiz-adv-x="1140" d="M178 231v951q0 106 68.5 169.5t181.5 63.5q411 0 604 -12l-8 -103h-573q-67 0 -102.5 -38t-35.5 -111v-346h631v-109h-631v-436q0 -72 36 -109.5t102 -37.5h573l8 -103q-193 -12 -604 -12q-114 0 -182 63.5t-68 169.5zM393 1655v112q0 41 37 41h45q39 0 39 -41v-112 q0 -39 -39 -39h-45q-37 0 -37 39zM756 1655v112q0 41 39 41h43q39 0 39 -41v-112q0 -39 -39 -39h-43q-21 0 -30 9t-9 30z" />
<glyph unicode="&#xcc;" horiz-adv-x="514" d="M-53 1759l78 99l335 -299l-49 -62zM190 0v1413h134v-1413h-134z" />
<glyph unicode="&#xcd;" horiz-adv-x="514" d="M127 1569l336 299l78 -99l-365 -262zM190 0v1413h134v-1413h-134z" />
<glyph unicode="&#xce;" horiz-adv-x="514" d="M-66 1571l273 254h96l272 -254l-47 -58l-266 203h-16l-264 -203zM190 0v1413h134v-1413h-134z" />
<glyph unicode="&#xcf;" horiz-adv-x="514" d="M14 1618v113q0 41 37 41h45q39 0 39 -41v-113q0 -39 -39 -39h-45q-37 0 -37 39zM190 0v1413h134v-1413h-134zM377 1618v113q0 41 39 41h43q39 0 39 -41v-113q0 -39 -39 -39h-43q-21 0 -30 9t-9 30z" />
<glyph unicode="&#xd0;" d="M49 715v80h150v618q268 19 489 19q152 0 252.5 -36.5t165.5 -123.5t93 -223t28 -342t-28 -342t-93 -223t-165.5 -123.5t-252.5 -36.5q-232 0 -489 18v715h-150zM332 104q204 -4 356 -4q113 0 187.5 30.5t122 103.5t67.5 186.5t20 286.5q0 230 -38 360.5t-123 189 t-236 58.5q-144 0 -356 -4v-516h334v-80h-334v-611z" />
<glyph unicode="&#xd1;" horiz-adv-x="1431" d="M190 0v1356q0 57 56 57h139q46 0 66 -45l526 -1049l94 -190h43q-6 102 -6 203v1081h133v-1356q0 -57 -55 -57h-144q-45 0 -65 45l-539 1073q-5 10 -25.5 50t-33.5 68t-21 52h-39q5 -69 5 -170v-1118h-134zM426 1577q-9 109 36 165t122 50q42 -3 83 -21.5t69.5 -39 t68 -39.5t78.5 -23q58 -6 82 21t24 92h66q9 -104 -35.5 -159.5t-122.5 -49.5q-47 3 -91.5 22t-73.5 40.5t-66 40.5t-70 22q-58 6 -81 -23t-23 -98h-66z" />
<glyph unicode="&#xd2;" d="M137 707q0 277 53 434.5t170 227t322 69.5t322 -69.5t170 -227t53 -434.5t-53 -434.5t-170 -227.5t-322 -70t-322 70t-170 227.5t-53 434.5zM276 707q0 -233 39 -364.5t126 -190t241 -58.5t240.5 58.5t124.5 190t38 364.5t-38 364t-124.5 189.5t-240.5 58.5t-241 -58 t-126 -189.5t-39 -364.5zM375 1759l78 99l335 -299l-49 -62z" />
<glyph unicode="&#xd3;" d="M137 707q0 277 53 434.5t170 227t322 69.5t322 -69.5t170 -227t53 -434.5t-53 -434.5t-170 -227.5t-322 -70t-322 70t-170 227.5t-53 434.5zM276 707q0 -233 39 -364.5t126 -190t241 -58.5t240.5 58.5t124.5 190t38 364.5t-38 364t-124.5 189.5t-240.5 58.5t-241 -58 t-126 -189.5t-39 -364.5zM555 1569l336 299l78 -99l-365 -262z" />
<glyph unicode="&#xd4;" d="M137 707q0 277 53 434.5t170 227t322 69.5t322 -69.5t170 -227t53 -434.5t-53 -434.5t-170 -227.5t-322 -70t-322 70t-170 227.5t-53 434.5zM276 707q0 -233 39 -364.5t126 -190t241 -58.5t240.5 58.5t124.5 190t38 364.5t-38 364t-124.5 189.5t-240.5 58.5t-241 -58 t-126 -189.5t-39 -364.5zM362 1571l273 254h96l273 -254l-48 -58l-266 203h-16l-264 -203z" />
<glyph unicode="&#xd5;" d="M137 707q0 277 53 434.5t170 227t322 69.5t322 -69.5t170 -227t53 -434.5t-53 -434.5t-170 -227.5t-322 -70t-322 70t-170 227.5t-53 434.5zM276 707q0 -233 39 -364.5t126 -190t241 -58.5t240.5 58.5t124.5 190t38 364.5t-38 364t-124.5 189.5t-240.5 58.5t-241 -58 t-126 -189.5t-39 -364.5zM369 1577q-9 109 35.5 165t121.5 50q42 -3 83 -21.5t69.5 -39t68 -39.5t78.5 -23q59 -6 83 21t24 92h65q9 -104 -35 -159.5t-122 -49.5q-47 3 -91.5 22t-73.5 40.5t-66 40.5t-70 22q-58 6 -81.5 -23.5t-23.5 -97.5h-65z" />
<glyph unicode="&#xd6;" d="M137 707q0 277 53 434.5t170 227t322 69.5t322 -69.5t170 -227t53 -434.5t-53 -434.5t-170 -227.5t-322 -70t-322 70t-170 227.5t-53 434.5zM276 707q0 -233 39 -364.5t126 -190t241 -58.5t240.5 58.5t124.5 190t38 364.5t-38 364t-124.5 189.5t-240.5 58.5t-241 -58 t-126 -189.5t-39 -364.5zM442 1618v113q0 41 37 41h45q39 0 39 -41v-113q0 -39 -39 -39h-45q-37 0 -37 39zM805 1618v113q0 41 39 41h43q39 0 39 -41v-113q0 -39 -39 -39h-43q-21 0 -30 9t-9 30z" />
<glyph unicode="&#xd7;" horiz-adv-x="995" d="M109 305l319 287l-319 285l65 79l330 -297l330 297l63 -77l-317 -287l317 -287l-63 -78l-330 297l-330 -297z" />
<glyph unicode="&#xd8;" d="M137 707q0 277 53 434.5t170 227t322 69.5q164 0 266 -41l64 133l75 -33l-65 -139q109 -74 157 -229.5t48 -421.5q0 -277 -53 -434.5t-170 -227.5t-322 -70q-179 0 -285 50l-65 -138l-76 33l70 148q-100 77 -144.5 230.5t-44.5 408.5zM276 707q0 -194 26 -316.5 t85 -191.5l506 1079q-78 41 -211 41q-154 0 -241 -58t-126 -189.5t-39 -364.5zM453 145q81 -51 229 -51q154 0 240.5 58.5t124.5 190t38 364.5q0 205 -28.5 330.5t-93.5 191.5z" />
<glyph unicode="&#xd9;" horiz-adv-x="1366" d="M180 535v878h133v-878q0 -244 83.5 -342.5t287.5 -98.5q202 0 284.5 98.5t82.5 342.5v878h135v-878q0 -305 -112.5 -432.5t-385.5 -127.5q-279 0 -393.5 127t-114.5 433zM377 1759l78 99l336 -299l-50 -62z" />
<glyph unicode="&#xda;" horiz-adv-x="1366" d="M180 535v878h133v-878q0 -244 83.5 -342.5t287.5 -98.5q202 0 284.5 98.5t82.5 342.5v878h135v-878q0 -305 -112.5 -432.5t-385.5 -127.5q-279 0 -393.5 127t-114.5 433zM557 1569l336 299l78 -99l-365 -262z" />
<glyph unicode="&#xdb;" horiz-adv-x="1366" d="M180 535v878h133v-878q0 -244 83.5 -342.5t287.5 -98.5q202 0 284.5 98.5t82.5 342.5v878h135v-878q0 -305 -112.5 -432.5t-385.5 -127.5q-279 0 -393.5 127t-114.5 433zM365 1571l272 254h96l273 -254l-48 -58l-266 203h-16l-264 -203z" />
<glyph unicode="&#xdc;" horiz-adv-x="1366" d="M180 535v878h133v-878q0 -244 83.5 -342.5t287.5 -98.5q202 0 284.5 98.5t82.5 342.5v878h135v-878q0 -305 -112.5 -432.5t-385.5 -127.5q-279 0 -393.5 127t-114.5 433zM444 1618v113q0 41 37 41h45q39 0 39 -41v-113q0 -39 -39 -39h-45q-37 0 -37 39zM807 1618v113 q0 41 39 41h43q39 0 39 -41v-113q0 -39 -39 -39h-43q-21 0 -30 9t-9 30z" />
<glyph unicode="&#xdd;" horiz-adv-x="1144" d="M31 1413h143l324 -627q27 -53 67 -151h15q30 73 67 149l324 629h141l-473 -905v-508h-133v508zM444 1556l336 299l78 -98l-364 -262z" />
<glyph unicode="&#xde;" horiz-adv-x="1206" d="M190 0v1413h134v-266q92 6 340 6q126 0 206.5 -19.5t134 -70.5t75.5 -133.5t22 -212.5t-22 -213t-74.5 -133t-129.5 -69t-198 -19q-200 0 -354 14v-297h-134zM324 399h338q117 1 180 27.5t93 94.5t30 196q0 129 -30 197.5t-93 95t-180 26.5q-256 0 -338 -2v-635z" />
<glyph unicode="&#xdf;" horiz-adv-x="1366" d="M63 887v100l179 4v113q0 69 11 123.5t30 92.5t50.5 65.5t65.5 44t83.5 25.5t96.5 12t111 3q237 0 343 -56.5t106 -199.5q0 -99 -40.5 -156.5t-148.5 -111.5q-24 -12 -58 -26.5t-51.5 -22.5t-40 -20.5t-33.5 -23t-22.5 -25.5t-15.5 -34t-4 -44q0 -57 31 -86.5t102 -59.5 l236 -88q98 -41 141 -97t43 -163q0 -71 -15.5 -121t-42.5 -81t-72.5 -48t-95.5 -23t-122 -6q-160 0 -332 23l8 98q133 -12 301 -12q56 1 90.5 4t67 13t49.5 29t27 50t10 78q0 40 -9 68t-31 47t-42.5 30t-60.5 27l-236 92q-84 33 -128 86t-44 138q0 27 3.5 50t13.5 42 t18.5 34t27 30t31 24.5t39 23t41.5 20.5t48 21.5t50 22.5q84 39 115 79.5t31 116.5q0 80 -75.5 115t-248.5 35q-188 0 -254.5 -54t-66.5 -216v-1092h-131v887h-179z" />
<glyph unicode="&#xe0;" horiz-adv-x="1116" d="M117 252v115q0 115 67.5 178t192.5 63h444v105q0 99 -46.5 145.5t-164.5 46.5q-174 0 -440 -28l-12 96q304 45 477 45q159 0 238 -70.5t79 -234.5v-713h-102l-16 174q-74 -74 -191 -132t-244 -58q-131 0 -206.5 69.5t-75.5 198.5zM246 1389l78 98l335 -299l-49 -62z M248 264q0 -166 174 -166q88 -2 200 44t199 122v244l-424 -4q-149 -6 -149 -154v-86z" />
<glyph unicode="&#xe1;" horiz-adv-x="1116" d="M117 252v115q0 115 67.5 178t192.5 63h444v105q0 99 -46.5 145.5t-164.5 46.5q-174 0 -440 -28l-12 96q304 45 477 45q159 0 238 -70.5t79 -234.5v-713h-102l-16 174q-74 -74 -191 -132t-244 -58q-131 0 -206.5 69.5t-75.5 198.5zM248 264q0 -166 174 -166q88 -2 200 44 t199 122v244l-424 -4q-149 -6 -149 -154v-86zM426 1198l336 299l78 -98l-365 -262z" />
<glyph unicode="&#xe2;" horiz-adv-x="1116" d="M117 252v115q0 115 67.5 178t192.5 63h444v105q0 99 -46.5 145.5t-164.5 46.5q-174 0 -440 -28l-12 96q304 45 477 45q159 0 238 -70.5t79 -234.5v-713h-102l-16 174q-74 -74 -191 -132t-244 -58q-131 0 -206.5 69.5t-75.5 198.5zM233 1200l273 254h96l272 -254l-47 -57 l-266 203h-16l-264 -203zM248 264q0 -166 174 -166q88 -2 200 44t199 122v244l-424 -4q-149 -6 -149 -154v-86z" />
<glyph unicode="&#xe3;" horiz-adv-x="1116" d="M117 252v115q0 115 67.5 178t192.5 63h444v105q0 99 -46.5 145.5t-164.5 46.5q-174 0 -440 -28l-12 96q304 45 477 45q159 0 238 -70.5t79 -234.5v-713h-102l-16 174q-74 -74 -191 -132t-244 -58q-131 0 -206.5 69.5t-75.5 198.5zM240 1206q-9 109 35.5 165t121.5 50 q42 -3 83 -21.5t69.5 -39t68 -39.5t78.5 -23q59 -6 83 21t24 92h65q9 -104 -35 -159.5t-122 -49.5q-47 3 -91.5 22t-73.5 40.5t-66 40.5t-70 22q-58 6 -81.5 -23.5t-23.5 -97.5h-65zM248 264q0 -166 174 -166q88 -2 200 44t199 122v244l-424 -4q-149 -6 -149 -154v-86z" />
<glyph unicode="&#xe4;" horiz-adv-x="1116" d="M117 252v115q0 115 67.5 178t192.5 63h444v105q0 99 -46.5 145.5t-164.5 46.5q-174 0 -440 -28l-12 96q304 45 477 45q159 0 238 -70.5t79 -234.5v-713h-102l-16 174q-74 -74 -191 -132t-244 -58q-131 0 -206.5 69.5t-75.5 198.5zM248 264q0 -166 174 -166q88 -2 200 44 t199 122v244l-424 -4q-149 -6 -149 -154v-86zM313 1247v113q0 41 37 41h45q39 0 39 -41v-113q0 -39 -39 -39h-45q-37 0 -37 39zM676 1247v113q0 41 39 41h43q39 0 39 -41v-113q0 -39 -39 -39h-43q-21 0 -30 9t-9 30z" />
<glyph unicode="&#xe5;" horiz-adv-x="1116" d="M117 252v115q0 115 67.5 178t192.5 63h444v105q0 99 -46.5 145.5t-164.5 46.5q-174 0 -440 -28l-12 96q304 45 477 45q159 0 238 -70.5t79 -234.5v-713h-102l-16 174q-74 -74 -191 -132t-244 -58q-131 0 -206.5 69.5t-75.5 198.5zM248 264q0 -166 174 -166q88 -2 200 44 t199 122v244l-424 -4q-149 -6 -149 -154v-86zM344 1313q0 86 61.5 146.5t149.5 60.5q87 0 149 -60.5t62 -146.5q0 -85 -62 -146t-149 -61q-88 0 -149.5 60t-61.5 147zM422 1313q0 -61 37.5 -98t95.5 -37q57 0 95 37.5t38 97.5q0 59 -38.5 97t-94.5 38q-59 0 -96 -37.5 t-37 -97.5z" />
<glyph unicode="&#xe6;" horiz-adv-x="1789" d="M117 252v115q0 115 67.5 178t192.5 63h444v105q0 99 -46.5 145.5t-164.5 46.5q-174 0 -440 -28l-12 96q304 45 477 45q212 0 280 -127q102 127 351 127q211 0 311 -76.5t102 -232.5q2 -143 -62.5 -210t-207.5 -67h-451q5 -101 27 -167.5t65 -105.5t102.5 -55t147.5 -16 q150 0 342 25l15 -88q-59 -23 -169.5 -36.5t-203.5 -13.5q-169 0 -270 52.5t-148 169.5q-74 -80 -201 -146.5t-266 -66.5q-131 0 -206.5 69.5t-75.5 198.5zM248 264q0 -166 174 -166q95 -2 212.5 46.5t207.5 131.5q-21 103 -21 205v27l-424 -4q-149 -6 -149 -154v-86z M956 535h424q94 0 132 43.5t36 128.5q-2 103 -67 150.5t-209 47.5q-173 0 -242.5 -80t-73.5 -290z" />
<glyph unicode="&#xe7;" horiz-adv-x="993" d="M123 496q0 287 105 404.5t360 117.5q184 0 305 -45l-21 -84q-109 16 -264 16q-133 0 -207 -36.5t-108.5 -124.5t-34.5 -248t34.5 -248t108.5 -124t207 -36q166 0 289 23l14 -91q-149 -45 -323 -45q-255 0 -360 117t-105 404zM381 -487l20 71q90 -3 146.5 42t58.5 116 q0 43 -25.5 60t-95.5 18l15 63q107 9 156 -20.5t46 -112.5q-3 -122 -92.5 -189t-228.5 -48z" />
<glyph unicode="&#xe8;" horiz-adv-x="1093" d="M123 500q0 286 102 402t342 116q211 0 311.5 -76.5t102.5 -232.5q3 -277 -227 -277h-494q5 -101 27 -167.5t65 -105.5t102.5 -55t147.5 -16q146 0 342 25l14 -88q-59 -23 -169.5 -36.5t-204.5 -13.5q-250 0 -355.5 120t-105.5 405zM258 535h465q131 0 127 172 q-2 104 -67 151t-210 47q-173 0 -242 -80t-73 -290zM264 1389l78 98l336 -299l-49 -62z" />
<glyph unicode="&#xe9;" horiz-adv-x="1093" d="M123 500q0 286 102 402t342 116q211 0 311.5 -76.5t102.5 -232.5q3 -277 -227 -277h-494q5 -101 27 -167.5t65 -105.5t102.5 -55t147.5 -16q146 0 342 25l14 -88q-59 -23 -169.5 -36.5t-204.5 -13.5q-250 0 -355.5 120t-105.5 405zM258 535h465q131 0 127 172 q-2 104 -67 151t-210 47q-173 0 -242 -80t-73 -290zM444 1198l336 299l78 -98l-364 -262z" />
<glyph unicode="&#xea;" horiz-adv-x="1093" d="M123 500q0 286 102 402t342 116q211 0 311.5 -76.5t102.5 -232.5q3 -277 -227 -277h-494q5 -101 27 -167.5t65 -105.5t102.5 -55t147.5 -16q146 0 342 25l14 -88q-59 -23 -169.5 -36.5t-204.5 -13.5q-250 0 -355.5 120t-105.5 405zM252 1200l272 254h97l272 -254l-47 -57 l-266 203h-17l-264 -203zM258 535h465q131 0 127 172q-2 104 -67 151t-210 47q-173 0 -242 -80t-73 -290z" />
<glyph unicode="&#xeb;" horiz-adv-x="1093" d="M123 500q0 286 102 402t342 116q211 0 311.5 -76.5t102.5 -232.5q3 -277 -227 -277h-494q5 -101 27 -167.5t65 -105.5t102.5 -55t147.5 -16q146 0 342 25l14 -88q-59 -23 -169.5 -36.5t-204.5 -13.5q-250 0 -355.5 120t-105.5 405zM258 535h465q131 0 127 172 q-2 104 -67 151t-210 47q-173 0 -242 -80t-73 -290zM332 1247v113q0 41 37 41h45q39 0 39 -41v-113q0 -39 -39 -39h-45q-37 0 -37 39zM694 1247v113q0 41 39 41h43q39 0 39 -41v-113q0 -39 -39 -39h-43q-21 0 -30 9t-9 30z" />
<glyph unicode="&#xec;" horiz-adv-x="489" d="M-66 1391l78 98l336 -299l-49 -62zM180 0v991h129v-991h-129z" />
<glyph unicode="&#xed;" horiz-adv-x="489" d="M115 1200l336 299l77 -98l-364 -262zM180 0v991h129v-991h-129z" />
<glyph unicode="&#xee;" horiz-adv-x="489" d="M-78 1202l273 254h96l272 -254l-47 -57l-266 203h-17l-264 -203zM180 0v991h129v-991h-129z" />
<glyph unicode="&#xef;" horiz-adv-x="489" d="M2 1249v113q0 41 37 41h45q39 0 39 -41v-113q0 -39 -39 -39h-45q-37 0 -37 39zM180 0v991h129v-991h-129zM365 1249v113q0 41 38 41h43q39 0 39 -41v-113q0 -39 -39 -39h-43q-21 0 -29.5 9t-8.5 30z" />
<glyph unicode="&#xf0;" horiz-adv-x="1136" d="M125 451q0 228 97 346t317 118q169 0 303 -86q-45 251 -187 379l-170 -127l-47 62l152 112q-135 84 -348 80l16 95q244 11 424 -105l164 123l49 -64l-147 -108q245 -218 245 -701q0 -78 -4.5 -140.5t-16.5 -126.5t-32.5 -112t-53.5 -91.5t-78 -70.5t-108 -43t-141 -16 q-224 0 -329 113.5t-105 362.5zM260 451q0 -197 72 -281t229 -84q65 0 113 15t81 46.5t54 71.5t32 100.5t15 122t4 146.5q0 82 -6 149q-141 68 -301 68t-226.5 -90.5t-66.5 -263.5z" />
<glyph unicode="&#xf1;" horiz-adv-x="1181" d="M172 0v991h109l8 -164q249 191 461 191q130 0 198 -69.5t68 -203.5v-745h-129v711q0 105 -40 149.5t-132 44.5q-91 0 -182.5 -40.5t-231.5 -131.5l2 -733h-131zM299 1206q-9 109 36 165t122 50q42 -3 83 -21.5t69.5 -39t68 -39.5t78.5 -23q58 -6 82 21t24 92h66 q9 -104 -35.5 -159.5t-122.5 -49.5q-47 3 -91.5 22t-73.5 40.5t-66 40.5t-70 22q-58 6 -81 -23t-23 -98h-66z" />
<glyph unicode="&#xf2;" horiz-adv-x="1157" d="M123 496q0 286 103.5 404t353.5 118t352 -118t102 -404t-102 -403.5t-352 -117.5q-251 0 -354 117.5t-103 403.5zM260 496q0 -234 69.5 -322t250.5 -88t250 88t69 322t-69 321.5t-250 87.5t-250.5 -87.5t-69.5 -321.5zM270 1384l78 99l336 -299l-49 -62z" />
<glyph unicode="&#xf3;" horiz-adv-x="1157" d="M123 496q0 286 103.5 404t353.5 118t352 -118t102 -404t-102 -403.5t-352 -117.5q-251 0 -354 117.5t-103 403.5zM260 496q0 -234 69.5 -322t250.5 -88t250 88t69 322t-69 321.5t-250 87.5t-250.5 -87.5t-69.5 -321.5zM451 1194l335 299l78 -98l-364 -262z" />
<glyph unicode="&#xf4;" horiz-adv-x="1157" d="M123 496q0 286 103.5 404t353.5 118t352 -118t102 -404t-102 -403.5t-352 -117.5q-251 0 -354 117.5t-103 403.5zM258 1196l272 254h97l272 -254l-47 -57l-266 202h-17l-264 -202zM260 496q0 -234 69.5 -322t250.5 -88t250 88t69 322t-69 321.5t-250 87.5t-250.5 -87.5 t-69.5 -321.5z" />
<glyph unicode="&#xf5;" horiz-adv-x="1157" d="M123 496q0 286 103.5 404t353.5 118t352 -118t102 -404t-102 -403.5t-352 -117.5q-251 0 -354 117.5t-103 403.5zM260 496q0 -234 69.5 -322t250.5 -88t250 88t69 322t-69 321.5t-250 87.5t-250.5 -87.5t-69.5 -321.5zM264 1202q-9 109 36 165t122 50q42 -3 83 -21.5 t69.5 -39t68 -39.5t78.5 -23q58 -6 82 21t24 92h66q9 -104 -35.5 -159.5t-122.5 -49.5q-47 3 -91.5 22t-73.5 40.5t-66 40.5t-70 22q-58 6 -81 -23t-23 -98h-66z" />
<glyph unicode="&#xf6;" horiz-adv-x="1157" d="M123 496q0 286 103.5 404t353.5 118t352 -118t102 -404t-102 -403.5t-352 -117.5q-251 0 -354 117.5t-103 403.5zM260 496q0 -234 69.5 -322t250.5 -88t250 88t69 322t-69 321.5t-250 87.5t-250.5 -87.5t-69.5 -321.5zM338 1243v113q0 41 37 41h45q39 0 39 -41v-113 q0 -39 -39 -39h-45q-37 0 -37 39zM700 1243v113q0 41 39 41h43q39 0 39 -41v-113q0 -39 -39 -39h-43q-21 0 -30 9t-9 30z" />
<glyph unicode="&#xf7;" horiz-adv-x="1181" d="M150 555v100h882v-100h-882zM520 201v108q0 28 11 39.5t38 11.5h37q28 0 39.5 -11.5t11.5 -39.5v-108q0 -27 -11.5 -38t-39.5 -11h-37q-28 0 -38.5 10.5t-10.5 38.5zM520 897v111q0 28 11 39.5t38 11.5h37q28 0 39.5 -11.5t11.5 -39.5v-111q0 -27 -11.5 -38t-39.5 -11 h-37q-28 0 -38.5 10.5t-10.5 38.5z" />
<glyph unicode="&#xf8;" horiz-adv-x="1157" d="M123 496q0 286 103.5 404t353.5 118q108 0 184 -21l63 136l68 -33l-59 -127q105 -50 151.5 -165t46.5 -312q0 -286 -102 -403.5t-352 -117.5q-109 0 -199 23l-66 -141l-67 30l63 140q-99 52 -143.5 164.5t-44.5 304.5zM260 496q0 -144 24.5 -229.5t80.5 -127.5l350 752 q-55 14 -135 14q-181 0 -250.5 -87.5t-69.5 -321.5zM432 104q58 -18 148 -18q181 0 250 88t69 322q0 151 -27.5 237t-89.5 127z" />
<glyph unicode="&#xf9;" horiz-adv-x="1161" d="M166 246v745h129v-710q0 -103 42.5 -148t139.5 -45q83 0 168 38t213 124v741h129v-991h-102l-11 156q-230 -181 -440 -181q-132 0 -200 69t-68 202zM270 1395l78 98l336 -299l-49 -61z" />
<glyph unicode="&#xfa;" horiz-adv-x="1161" d="M166 246v745h129v-710q0 -103 42.5 -148t139.5 -45q83 0 168 38t213 124v741h129v-991h-102l-11 156q-230 -181 -440 -181q-132 0 -200 69t-68 202zM451 1204l335 299l78 -98l-364 -262z" />
<glyph unicode="&#xfb;" horiz-adv-x="1161" d="M166 246v745h129v-710q0 -103 42.5 -148t139.5 -45q83 0 168 38t213 124v741h129v-991h-102l-11 156q-230 -181 -440 -181q-132 0 -200 69t-68 202zM258 1206l272 254h97l272 -254l-47 -57l-266 203h-17l-264 -203z" />
<glyph unicode="&#xfc;" horiz-adv-x="1161" d="M166 246v745h129v-710q0 -103 42.5 -148t139.5 -45q83 0 168 38t213 124v741h129v-991h-102l-11 156q-230 -181 -440 -181q-132 0 -200 69t-68 202zM338 1253v113q0 41 37 41h45q39 0 39 -41v-113q0 -39 -39 -39h-45q-37 0 -37 39zM700 1253v113q0 41 39 41h43 q39 0 39 -41v-113q0 -39 -39 -39h-43q-21 0 -30 9t-9 30z" />
<glyph unicode="&#xfd;" horiz-adv-x="1067" d="M45 991h139l293 -774q36 -94 41 -115h29q4 12 20 54t23 63l291 772h139l-418 -1061q-28 -71 -59.5 -125.5t-78 -105.5t-111 -82.5t-144.5 -40.5l-16 84q116 39 181 108.5t107 176.5l25 55h-33q-39 0 -51 35zM410 1200l335 299l78 -98l-364 -262z" />
<glyph unicode="&#xfe;" horiz-adv-x="1167" d="M172 -418v1852h131v-373q0 -129 -6 -199q191 154 383 154q194 0 276 -122t82 -402q0 -284 -83 -400.5t-277 -116.5q-192 0 -381 97q6 -66 6 -189v-301h-131zM303 166q110 -42 187.5 -62t150.5 -20q144 0 204 90.5t60 317.5q0 230 -59 320.5t-199 90.5q-80 0 -160 -36.5 t-184 -114.5v-586z" />
<glyph unicode="&#xff;" horiz-adv-x="1067" d="M45 991h139l293 -774q36 -94 41 -115h29q4 12 20 54t23 63l291 772h139l-418 -1061q-28 -71 -59.5 -125.5t-78 -105.5t-111 -82.5t-144.5 -40.5l-16 84q116 39 181 108.5t107 176.5l25 55h-33q-39 0 -51 35zM297 1249v113q0 41 37 41h45q39 0 39 -41v-113q0 -39 -39 -39 h-45q-37 0 -37 39zM659 1249v113q0 41 39 41h43q39 0 39 -41v-113q0 -39 -39 -39h-43q-21 0 -30 9t-9 30z" />
<glyph unicode="&#x152;" horiz-adv-x="1853" d="M137 707q0 277 53 434.5t170 227t322 69.5q108 0 179 -14t159 -52q58 43 141 43q396 0 582 -12l-4 -103h-535q-147 0 -147 -149v-344l598 -2v-109l-598 -2v-434q0 -72 37.5 -109.5t109.5 -37.5h535l4 -103q-188 -12 -590 -12q-80 0 -137 45q-84 -38 -156 -53t-178 -15 q-205 0 -322 70t-170 227.5t-53 434.5zM276 707q0 -233 39 -364.5t126 -190t241 -58.5q150 0 260 41q-20 55 -20 109v925q0 60 22 109q-121 41 -262 41q-155 0 -241.5 -57t-125.5 -188.5t-39 -366.5z" />
<glyph unicode="&#x153;" horiz-adv-x="1869" d="M123 496q0 286 103.5 404t353.5 118q148 0 241.5 -39.5t143.5 -126.5q50 88 140 127t232 39q419 0 422 -297q1 -159 -68.5 -222t-236.5 -63h-418q5 -103 26.5 -170t64.5 -106.5t103 -55.5t150 -16q144 0 340 25l15 -88q-59 -23 -170 -36.5t-205 -13.5q-150 0 -244.5 40 t-146.5 130q-50 -90 -144 -130t-245 -40q-251 0 -354 117.5t-103 403.5zM260 496q0 -234 69.5 -322t250.5 -88t250 88t69 322t-69 321.5t-250 87.5t-250.5 -87.5t-69.5 -321.5zM1034 537h414q102 0 142.5 40.5t37.5 141.5q-5 94 -75 140t-212 46q-166 0 -234.5 -81.5 t-72.5 -286.5z" />
<glyph unicode="&#x178;" horiz-adv-x="1144" d="M31 1413h143l324 -627q27 -53 67 -151h15q30 73 67 149l324 629h141l-473 -905v-508h-133v508zM332 1606v112q0 41 37 41h45q39 0 39 -41v-112q0 -39 -39 -39h-45q-37 0 -37 39zM694 1606v112q0 41 39 41h43q39 0 39 -41v-112q0 -39 -39 -39h-43q-21 0 -30 9t-9 30z" />
<glyph unicode="&#x2c6;" horiz-adv-x="839" d="M100 1200l273 254h96l272 -254l-47 -57l-266 203h-16l-265 -203z" />
<glyph unicode="&#x2dc;" horiz-adv-x="843" d="M109 1208q-9 109 35.5 165t121.5 50q42 -3 83 -21.5t69.5 -39t68 -39.5t78.5 -23q59 -6 83 21t24 92h65q9 -104 -35 -159.5t-122 -49.5q-47 3 -91.5 22t-73.5 40.5t-66 40.5t-70 22q-58 6 -81.5 -23.5t-23.5 -97.5h-65z" />
<glyph unicode="&#x2000;" horiz-adv-x="952" />
<glyph unicode="&#x2001;" horiz-adv-x="1905" />
<glyph unicode="&#x2002;" horiz-adv-x="952" />
<glyph unicode="&#x2003;" horiz-adv-x="1905" />
<glyph unicode="&#x2004;" horiz-adv-x="635" />
<glyph unicode="&#x2005;" horiz-adv-x="476" />
<glyph unicode="&#x2006;" horiz-adv-x="317" />
<glyph unicode="&#x2007;" horiz-adv-x="317" />
<glyph unicode="&#x2008;" horiz-adv-x="238" />
<glyph unicode="&#x2009;" horiz-adv-x="381" />
<glyph unicode="&#x200a;" horiz-adv-x="105" />
<glyph unicode="&#x2010;" horiz-adv-x="944" d="M158 465v102h628v-102h-628z" />
<glyph unicode="&#x2011;" horiz-adv-x="944" d="M158 465v102h628v-102h-628z" />
<glyph unicode="&#x2012;" horiz-adv-x="944" d="M158 465v102h628v-102h-628z" />
<glyph unicode="&#x2013;" horiz-adv-x="1234" d="M158 465v102h919v-102h-919z" />
<glyph unicode="&#x2014;" horiz-adv-x="1861" d="M158 465v102h1546v-102h-1546z" />
<glyph unicode="&#x2018;" horiz-adv-x="430" d="M147 1087v125q3 154 60 283l59 -18q-16 -125 -16 -230q18 0 28 -11.5t9 -29.5v-119q-1 -27 -12.5 -38t-38.5 -11h-39q-28 0 -39 10.5t-11 38.5z" />
<glyph unicode="&#x2019;" horiz-adv-x="423" d="M143 1311v119q1 27 13 38t39 11h38q28 0 39 -10.5t11 -38.5v-125q-3 -154 -60 -283l-59 18q16 125 16 230q-18 0 -28 11.5t-9 29.5z" />
<glyph unicode="&#x201a;" horiz-adv-x="452" d="M156 41v119q1 27 12.5 38t38.5 11h41q28 0 38.5 -10.5t10.5 -38.5v-125q-3 -156 -59 -283l-62 19q17 133 17 229q-18 0 -28 11.5t-9 29.5z" />
<glyph unicode="&#x201c;" horiz-adv-x="714" d="M147 1087v125q3 154 60 283l59 -18q-16 -125 -16 -230q18 0 28 -11.5t9 -29.5v-119q-1 -27 -12.5 -38t-38.5 -11h-39q-28 0 -39 10.5t-11 38.5zM430 1087v125q3 156 59 283l60 -18q-17 -133 -17 -230q18 0 28 -11.5t9 -29.5v-119q-1 -27 -12.5 -38t-38.5 -11h-39 q-28 0 -38.5 10.5t-10.5 38.5z" />
<glyph unicode="&#x201d;" horiz-adv-x="708" d="M143 1311v119q1 27 13 38t39 11h38q28 0 39 -10.5t11 -38.5v-125q-3 -154 -60 -283l-59 18q16 125 16 230q-18 0 -28 11.5t-9 29.5zM428 1311v119q1 27 12.5 38t38.5 11h39q28 0 38.5 -10.5t10.5 -38.5v-125q-3 -156 -59 -283l-59 18q16 125 16 230q-18 0 -28 11.5 t-9 29.5z" />
<glyph unicode="&#x201e;" horiz-adv-x="737" d="M156 41v119q1 27 12.5 38t38.5 11h39q28 0 38.5 -10.5t10.5 -38.5v-125q-3 -156 -59 -283l-60 19q17 133 17 229q-18 0 -28 11.5t-9 29.5zM440 41v119q1 27 13 38t39 11h38q28 0 39 -10.5t11 -38.5v-125q-3 -154 -60 -283l-59 19q16 125 16 229q-18 0 -28 11.5t-9 29.5z " />
<glyph unicode="&#x2022;" horiz-adv-x="735" d="M197 539v22q0 89 34.5 123.5t126.5 34.5h23q87 0 121.5 -35t34.5 -123v-22q0 -91 -34 -126.5t-122 -35.5h-23q-92 0 -126.5 35.5t-34.5 126.5z" />
<glyph unicode="&#x2026;" horiz-adv-x="1675" d="M150 51v117q0 28 11.5 39.5t37.5 11.5h45q28 0 39.5 -11.5t11.5 -39.5v-117q0 -28 -11.5 -39.5t-39.5 -11.5h-45q-26 0 -37.5 11.5t-11.5 39.5zM762 51v117q0 28 11.5 39.5t37.5 11.5h45q28 0 39.5 -11.5t11.5 -39.5v-117q0 -28 -11.5 -39.5t-39.5 -11.5h-45 q-26 0 -37.5 11.5t-11.5 39.5zM1374 51v117q0 28 11.5 39.5t37.5 11.5h45q28 0 40 -11.5t12 -39.5v-117q0 -28 -12 -39.5t-40 -11.5h-45q-26 0 -37.5 11.5t-11.5 39.5z" />
<glyph unicode="&#x202f;" horiz-adv-x="381" />
<glyph unicode="&#x2039;" horiz-adv-x="540" d="M63 498v32l330 406l68 -45l-275 -377l277 -383l-68 -45z" />
<glyph unicode="&#x203a;" horiz-adv-x="542" d="M76 131l276 383l-274 377l69 45l332 -406v-32l-334 -412z" />
<glyph unicode="&#x205f;" horiz-adv-x="476" />
<glyph unicode="&#x20ac;" horiz-adv-x="1314" d="M119 543v90h180q-2 25 -2 74q0 75 2 110h-178v90h186q28 269 156 400t383 131q194 0 336 -39l-19 -103q-169 26 -323 21q-180 -3 -273.5 -104t-120.5 -306h547l-14 -90h-539q-4 -35 -4 -112q0 -49 2 -72h465l-16 -90h-445q22 -225 116 -334.5t282 -112.5q191 -3 346 25 l16 -103q-153 -43 -356 -43q-264 0 -391.5 139.5t-151.5 428.5h-184z" />
<glyph unicode="&#x2122;" horiz-adv-x="1961" d="M145 1343v82h654v-82h-279v-696h-98v696h-277zM907 647l33 737q3 41 39 41h108q29 0 39 -32l181 -484q6 -18 16 -54.5t16 -53.5h27q28 86 37 110l176 482q8 32 41 32h109q37 0 40 -41l31 -737h-90l-33 703h-26l-215 -586q-9 -31 -41 -31h-82q-35 0 -41 31l-215 586h-27 l-33 -703h-90z" />
<glyph unicode="&#x25fc;" horiz-adv-x="993" d="M0 0v993h993v-993h-993z" />
<glyph unicode="&#xfb03;" horiz-adv-x="1845" d="M63 889v92l170 10v158q0 141 67 214t210 73q134 0 248 -13l-8 -96h-195q-107 0 -150 -41t-43 -149v-146h527v176q0 150 64.5 224.5t213.5 74.5q136 0 244 -12v-96h-199q-106 0 -149 -45.5t-43 -157.5v-164h647v-991h-129v887h-518v-887h-131v887l-527 2v-889h-129v889 h-170zM1530 1247v119q0 43 43 43h59q43 0 43 -43v-119q0 -43 -43 -43h-59q-43 0 -43 43z" />
<glyph unicode="&#xfb04;" horiz-adv-x="1988" d="M63 889v92l179 10v158q0 287 278 287q134 0 248 -13l-8 -96h-195q-107 0 -149.5 -41t-42.5 -149v-146h526v176q0 150 65 224.5t214 74.5q382 0 526 -20v-1213q0 -71 37 -108t108 -37h105l14 -84q-58 -20 -164 -20q-107 0 -169 59.5t-62 165.5v1149h-350q-107 1 -150 -44 t-43 -159v-164h324v-102h-324v-889h-131v889h-526v-889h-131v889h-179z" />
</font>
</defs>
</svg>
